{
  "header": {
    "PPQ": 384,
    "timeSignature": [
      4,
      4
    ],
    "bpm": 75,
    "name": "GS/RESET"
  },
  "tempo": [
    {
      "absoluteTime": 0,
      "seconds": 0,
      "bpm": 75
    }
  ],
  "timeSignature": [
    {
      "absoluteTime": 0,
      "seconds": 0,
      "numerator": 4,
      "denominator": 2,
      "click": 24,
      "notesQ": 8
    }
  ],
  "startTime": 0,
  "duration": 313.5999999999994,
  "tracks": [
    {
      "startTime": 0,
      "duration": 0,
      "length": 0,
      "notes": [],
      "controlChanges": {},
      "id": 0
    },
    {
      "startTime": 6.4,
      "duration": 313.5999999999994,
      "length": 292,
      "notes": [
        {
          "name": "F#4",
          "midi": 66,
          "time": 6.4,
          "velocity": 1,
          "duration": 3.1916666666666664
        },
        {
          "name": "D4",
          "midi": 62,
          "time": 6.4,
          "velocity": 1,
          "duration": 3.1916666666666664
        },
        {
          "name": "B3",
          "midi": 59,
          "time": 6.4,
          "velocity": 1,
          "duration": 3.1916666666666664
        },
        {
          "name": "A#3",
          "midi": 58,
          "time": 9.6,
          "velocity": 1,
          "duration": 3.1916666666666664
        },
        {
          "name": "F#4",
          "midi": 66,
          "time": 9.6,
          "velocity": 1,
          "duration": 3.1916666666666664
        },
        {
          "name": "C#4",
          "midi": 61,
          "time": 9.6,
          "velocity": 1,
          "duration": 3.1916666666666664
        },
        {
          "name": "E4",
          "midi": 64,
          "time": 12.799999999999999,
          "velocity": 1,
          "duration": 3.1916666666666664
        },
        {
          "name": "A3",
          "midi": 57,
          "time": 12.799999999999999,
          "velocity": 1,
          "duration": 3.1916666666666664
        },
        {
          "name": "C#4",
          "midi": 61,
          "time": 12.799999999999999,
          "velocity": 1,
          "duration": 3.1916666666666664
        },
        {
          "name": "E4",
          "midi": 64,
          "time": 15.999999999999998,
          "velocity": 1,
          "duration": 3.191666666666668
        },
        {
          "name": "B3",
          "midi": 59,
          "time": 15.999999999999998,
          "velocity": 1,
          "duration": 3.191666666666668
        },
        {
          "name": "G#3",
          "midi": 56,
          "time": 15.999999999999998,
          "velocity": 1,
          "duration": 3.191666666666668
        },
        {
          "name": "D4",
          "midi": 62,
          "time": 19.2,
          "velocity": 1,
          "duration": 3.1916666666666664
        },
        {
          "name": "B3",
          "midi": 59,
          "time": 19.2,
          "velocity": 1,
          "duration": 3.1916666666666664
        },
        {
          "name": "G3",
          "midi": 55,
          "time": 19.2,
          "velocity": 1,
          "duration": 3.1916666666666664
        },
        {
          "name": "D4",
          "midi": 62,
          "time": 22.4,
          "velocity": 1,
          "duration": 3.1916666666666664
        },
        {
          "name": "A3",
          "midi": 57,
          "time": 22.4,
          "velocity": 1,
          "duration": 3.1916666666666664
        },
        {
          "name": "F#3",
          "midi": 54,
          "time": 22.4,
          "velocity": 1,
          "duration": 3.1916666666666664
        },
        {
          "name": "E4",
          "midi": 64,
          "time": 25.599999999999998,
          "velocity": 1,
          "duration": 3.1916666666666664
        },
        {
          "name": "B3",
          "midi": 59,
          "time": 25.599999999999998,
          "velocity": 1,
          "duration": 3.1916666666666664
        },
        {
          "name": "G3",
          "midi": 55,
          "time": 25.599999999999998,
          "velocity": 1,
          "duration": 3.1916666666666664
        },
        {
          "name": "F#4",
          "midi": 66,
          "time": 28.799999999999997,
          "velocity": 1,
          "duration": 3.1916666666666664
        },
        {
          "name": "A#3",
          "midi": 58,
          "time": 28.799999999999997,
          "velocity": 1,
          "duration": 3.1916666666666664
        },
        {
          "name": "C#4",
          "midi": 61,
          "time": 28.799999999999997,
          "velocity": 1,
          "duration": 3.1916666666666664
        },
        {
          "name": "F#4",
          "midi": 66,
          "time": 31.999999999999996,
          "velocity": 1,
          "duration": 3.1916666666666664
        },
        {
          "name": "D4",
          "midi": 62,
          "time": 31.999999999999996,
          "velocity": 1,
          "duration": 3.1916666666666664
        },
        {
          "name": "B3",
          "midi": 59,
          "time": 31.999999999999996,
          "velocity": 1,
          "duration": 3.1916666666666664
        },
        {
          "name": "A#3",
          "midi": 58,
          "time": 35.199999999999996,
          "velocity": 1,
          "duration": 3.19166666666667
        },
        {
          "name": "F#4",
          "midi": 66,
          "time": 35.199999999999996,
          "velocity": 1,
          "duration": 3.19166666666667
        },
        {
          "name": "C#4",
          "midi": 61,
          "time": 35.199999999999996,
          "velocity": 1,
          "duration": 3.19166666666667
        },
        {
          "name": "E4",
          "midi": 64,
          "time": 38.4,
          "velocity": 1,
          "duration": 3.19166666666667
        },
        {
          "name": "A3",
          "midi": 57,
          "time": 38.4,
          "velocity": 1,
          "duration": 3.19166666666667
        },
        {
          "name": "C#4",
          "midi": 61,
          "time": 38.4,
          "velocity": 1,
          "duration": 3.19166666666667
        },
        {
          "name": "E4",
          "midi": 64,
          "time": 41.6,
          "velocity": 1,
          "duration": 3.19166666666667
        },
        {
          "name": "B3",
          "midi": 59,
          "time": 41.6,
          "velocity": 1,
          "duration": 3.19166666666667
        },
        {
          "name": "G#3",
          "midi": 56,
          "time": 41.6,
          "velocity": 1,
          "duration": 3.19166666666667
        },
        {
          "name": "D4",
          "midi": 62,
          "time": 44.800000000000004,
          "velocity": 1,
          "duration": 3.19166666666667
        },
        {
          "name": "B3",
          "midi": 59,
          "time": 44.800000000000004,
          "velocity": 1,
          "duration": 3.19166666666667
        },
        {
          "name": "G3",
          "midi": 55,
          "time": 44.800000000000004,
          "velocity": 1,
          "duration": 3.19166666666667
        },
        {
          "name": "D4",
          "midi": 62,
          "time": 48.00000000000001,
          "velocity": 1,
          "duration": 3.19166666666667
        },
        {
          "name": "A3",
          "midi": 57,
          "time": 48.00000000000001,
          "velocity": 1,
          "duration": 3.19166666666667
        },
        {
          "name": "F#3",
          "midi": 54,
          "time": 48.00000000000001,
          "velocity": 1,
          "duration": 3.19166666666667
        },
        {
          "name": "E4",
          "midi": 64,
          "time": 51.20000000000001,
          "velocity": 1,
          "duration": 3.19166666666667
        },
        {
          "name": "B3",
          "midi": 59,
          "time": 51.20000000000001,
          "velocity": 1,
          "duration": 3.19166666666667
        },
        {
          "name": "G3",
          "midi": 55,
          "time": 51.20000000000001,
          "velocity": 1,
          "duration": 3.19166666666667
        },
        {
          "name": "F#4",
          "midi": 66,
          "time": 54.40000000000001,
          "velocity": 1,
          "duration": 3.19166666666667
        },
        {
          "name": "A#3",
          "midi": 58,
          "time": 54.40000000000001,
          "velocity": 1,
          "duration": 3.19166666666667
        },
        {
          "name": "C#4",
          "midi": 61,
          "time": 54.40000000000001,
          "velocity": 1,
          "duration": 3.19166666666667
        },
        {
          "name": "F#4",
          "midi": 66,
          "time": 57.600000000000016,
          "velocity": 1,
          "duration": 3.19166666666667
        },
        {
          "name": "D4",
          "midi": 62,
          "time": 57.600000000000016,
          "velocity": 1,
          "duration": 3.19166666666667
        },
        {
          "name": "B3",
          "midi": 59,
          "time": 57.600000000000016,
          "velocity": 1,
          "duration": 3.19166666666667
        },
        {
          "name": "A#3",
          "midi": 58,
          "time": 60.80000000000002,
          "velocity": 1,
          "duration": 3.19166666666667
        },
        {
          "name": "F#4",
          "midi": 66,
          "time": 60.80000000000002,
          "velocity": 1,
          "duration": 3.19166666666667
        },
        {
          "name": "C#4",
          "midi": 61,
          "time": 60.80000000000002,
          "velocity": 1,
          "duration": 3.19166666666667
        },
        {
          "name": "E4",
          "midi": 64,
          "time": 64.00000000000003,
          "velocity": 1,
          "duration": 3.191666666666663
        },
        {
          "name": "A3",
          "midi": 57,
          "time": 64.00000000000003,
          "velocity": 1,
          "duration": 3.191666666666663
        },
        {
          "name": "C#4",
          "midi": 61,
          "time": 64.00000000000003,
          "velocity": 1,
          "duration": 3.191666666666663
        },
        {
          "name": "E4",
          "midi": 64,
          "time": 67.20000000000003,
          "velocity": 1,
          "duration": 3.191666666666663
        },
        {
          "name": "B3",
          "midi": 59,
          "time": 67.20000000000003,
          "velocity": 1,
          "duration": 3.191666666666663
        },
        {
          "name": "G#3",
          "midi": 56,
          "time": 67.20000000000003,
          "velocity": 1,
          "duration": 3.191666666666663
        },
        {
          "name": "D4",
          "midi": 62,
          "time": 70.40000000000003,
          "velocity": 1,
          "duration": 3.191666666666663
        },
        {
          "name": "B3",
          "midi": 59,
          "time": 70.40000000000003,
          "velocity": 1,
          "duration": 3.191666666666663
        },
        {
          "name": "G3",
          "midi": 55,
          "time": 70.40000000000003,
          "velocity": 1,
          "duration": 3.191666666666663
        },
        {
          "name": "D4",
          "midi": 62,
          "time": 73.60000000000004,
          "velocity": 1,
          "duration": 3.191666666666663
        },
        {
          "name": "A3",
          "midi": 57,
          "time": 73.60000000000004,
          "velocity": 1,
          "duration": 3.191666666666663
        },
        {
          "name": "F#3",
          "midi": 54,
          "time": 73.60000000000004,
          "velocity": 1,
          "duration": 3.191666666666663
        },
        {
          "name": "E4",
          "midi": 64,
          "time": 76.80000000000004,
          "velocity": 1,
          "duration": 3.191666666666663
        },
        {
          "name": "B3",
          "midi": 59,
          "time": 76.80000000000004,
          "velocity": 1,
          "duration": 3.191666666666663
        },
        {
          "name": "G3",
          "midi": 55,
          "time": 76.80000000000004,
          "velocity": 1,
          "duration": 3.191666666666663
        },
        {
          "name": "F#4",
          "midi": 66,
          "time": 80.00000000000004,
          "velocity": 1,
          "duration": 3.191666666666663
        },
        {
          "name": "A#3",
          "midi": 58,
          "time": 80.00000000000004,
          "velocity": 1,
          "duration": 3.191666666666663
        },
        {
          "name": "C#4",
          "midi": 61,
          "time": 80.00000000000004,
          "velocity": 1,
          "duration": 3.191666666666663
        },
        {
          "name": "F#4",
          "midi": 66,
          "time": 83.20000000000005,
          "velocity": 1,
          "duration": 3.191666666666663
        },
        {
          "name": "D4",
          "midi": 62,
          "time": 83.20000000000005,
          "velocity": 1,
          "duration": 3.191666666666663
        },
        {
          "name": "B3",
          "midi": 59,
          "time": 83.20000000000005,
          "velocity": 1,
          "duration": 3.191666666666663
        },
        {
          "name": "A#3",
          "midi": 58,
          "time": 86.40000000000005,
          "velocity": 1,
          "duration": 3.191666666666663
        },
        {
          "name": "F#4",
          "midi": 66,
          "time": 86.40000000000005,
          "velocity": 1,
          "duration": 3.191666666666663
        },
        {
          "name": "C#4",
          "midi": 61,
          "time": 86.40000000000005,
          "velocity": 1,
          "duration": 3.191666666666663
        },
        {
          "name": "E4",
          "midi": 64,
          "time": 89.60000000000005,
          "velocity": 1,
          "duration": 3.191666666666663
        },
        {
          "name": "A3",
          "midi": 57,
          "time": 89.60000000000005,
          "velocity": 1,
          "duration": 3.191666666666663
        },
        {
          "name": "C#4",
          "midi": 61,
          "time": 89.60000000000005,
          "velocity": 1,
          "duration": 3.191666666666663
        },
        {
          "name": "E4",
          "midi": 64,
          "time": 92.80000000000005,
          "velocity": 1,
          "duration": 3.191666666666663
        },
        {
          "name": "B3",
          "midi": 59,
          "time": 92.80000000000005,
          "velocity": 1,
          "duration": 3.191666666666663
        },
        {
          "name": "G#3",
          "midi": 56,
          "time": 92.80000000000005,
          "velocity": 1,
          "duration": 3.191666666666663
        },
        {
          "name": "D4",
          "midi": 62,
          "time": 96.00000000000006,
          "velocity": 1,
          "duration": 3.191666666666663
        },
        {
          "name": "B3",
          "midi": 59,
          "time": 96.00000000000006,
          "velocity": 1,
          "duration": 3.191666666666663
        },
        {
          "name": "G3",
          "midi": 55,
          "time": 96.00000000000006,
          "velocity": 1,
          "duration": 3.191666666666663
        },
        {
          "name": "D4",
          "midi": 62,
          "time": 99.20000000000006,
          "velocity": 1,
          "duration": 3.191666666666663
        },
        {
          "name": "A3",
          "midi": 57,
          "time": 99.20000000000006,
          "velocity": 1,
          "duration": 3.191666666666663
        },
        {
          "name": "F#3",
          "midi": 54,
          "time": 99.20000000000006,
          "velocity": 1,
          "duration": 3.191666666666663
        },
        {
          "name": "E4",
          "midi": 64,
          "time": 102.40000000000006,
          "velocity": 1,
          "duration": 3.191666666666663
        },
        {
          "name": "B3",
          "midi": 59,
          "time": 102.40000000000006,
          "velocity": 1,
          "duration": 3.191666666666663
        },
        {
          "name": "G3",
          "midi": 55,
          "time": 102.40000000000006,
          "velocity": 1,
          "duration": 3.191666666666663
        },
        {
          "name": "F#4",
          "midi": 66,
          "time": 105.60000000000007,
          "velocity": 1,
          "duration": 3.191666666666663
        },
        {
          "name": "A#3",
          "midi": 58,
          "time": 105.60000000000007,
          "velocity": 1,
          "duration": 3.191666666666663
        },
        {
          "name": "C#4",
          "midi": 61,
          "time": 105.60000000000007,
          "velocity": 1,
          "duration": 3.191666666666663
        },
        {
          "name": "G4",
          "midi": 67,
          "time": 108.80000000000007,
          "velocity": 0.6141732283464567,
          "duration": 3.191666666666663
        },
        {
          "name": "D4",
          "midi": 62,
          "time": 108.80000000000007,
          "velocity": 0.7401574803149606,
          "duration": 3.191666666666663
        },
        {
          "name": "B3",
          "midi": 59,
          "time": 108.80000000000007,
          "velocity": 0.7795275590551181,
          "duration": 3.191666666666663
        },
        {
          "name": "D4",
          "midi": 62,
          "time": 112.00000000000007,
          "velocity": 0.6692913385826772,
          "duration": 3.191666666666663
        },
        {
          "name": "A3",
          "midi": 57,
          "time": 112.00000000000007,
          "velocity": 0.7401574803149606,
          "duration": 3.191666666666663
        },
        {
          "name": "F#4",
          "midi": 66,
          "time": 112.00000000000007,
          "velocity": 0.5275590551181102,
          "duration": 3.191666666666663
        },
        {
          "name": "F#4",
          "midi": 66,
          "time": 115.20000000000007,
          "velocity": 0.5433070866141733,
          "duration": 3.191666666666663
        },
        {
          "name": "C#4",
          "midi": 61,
          "time": 115.20000000000007,
          "velocity": 0.6299212598425197,
          "duration": 3.191666666666663
        },
        {
          "name": "A#3",
          "midi": 58,
          "time": 115.20000000000007,
          "velocity": 0.6062992125984252,
          "duration": 3.191666666666663
        },
        {
          "name": "F#4",
          "midi": 66,
          "time": 118.40000000000008,
          "velocity": 0.36220472440944884,
          "duration": 3.191666666666663
        },
        {
          "name": "D4",
          "midi": 62,
          "time": 118.40000000000008,
          "velocity": 0.5669291338582677,
          "duration": 3.191666666666663
        },
        {
          "name": "B3",
          "midi": 59,
          "time": 118.40000000000008,
          "velocity": 0.5118110236220472,
          "duration": 3.191666666666663
        },
        {
          "name": "G4",
          "midi": 67,
          "time": 121.60000000000008,
          "velocity": 0.5984251968503937,
          "duration": 3.191666666666663
        },
        {
          "name": "D4",
          "midi": 62,
          "time": 121.60000000000008,
          "velocity": 0.7795275590551181,
          "duration": 3.191666666666663
        },
        {
          "name": "B3",
          "midi": 59,
          "time": 121.60000000000008,
          "velocity": 0.7401574803149606,
          "duration": 3.191666666666663
        },
        {
          "name": "D4",
          "midi": 62,
          "time": 124.80000000000008,
          "velocity": 0.6614173228346457,
          "duration": 3.191666666666663
        },
        {
          "name": "A3",
          "midi": 57,
          "time": 124.80000000000008,
          "velocity": 0.6692913385826772,
          "duration": 3.191666666666663
        },
        {
          "name": "F#4",
          "midi": 66,
          "time": 124.80000000000008,
          "velocity": 0.4094488188976378,
          "duration": 3.191666666666663
        },
        {
          "name": "G4",
          "midi": 67,
          "time": 128.00000000000009,
          "velocity": 0.5826771653543307,
          "duration": 3.191666666666663
        },
        {
          "name": "E4",
          "midi": 64,
          "time": 128.00000000000009,
          "velocity": 0.6299212598425197,
          "duration": 3.191666666666663
        },
        {
          "name": "B3",
          "midi": 59,
          "time": 128.00000000000009,
          "velocity": 0.6614173228346457,
          "duration": 3.191666666666663
        },
        {
          "name": "F#4",
          "midi": 66,
          "time": 131.20000000000007,
          "velocity": 0.49606299212598426,
          "duration": 3.191666666666663
        },
        {
          "name": "A#3",
          "midi": 58,
          "time": 131.20000000000007,
          "velocity": 0.6220472440944882,
          "duration": 3.191666666666663
        },
        {
          "name": "C#4",
          "midi": 61,
          "time": 131.20000000000007,
          "velocity": 0.5748031496062992,
          "duration": 3.191666666666663
        },
        {
          "name": "F#4",
          "midi": 66,
          "time": 134.40000000000006,
          "velocity": 1,
          "duration": 3.191666666666663
        },
        {
          "name": "D4",
          "midi": 62,
          "time": 134.40000000000006,
          "velocity": 1,
          "duration": 3.191666666666663
        },
        {
          "name": "B3",
          "midi": 59,
          "time": 134.40000000000006,
          "velocity": 1,
          "duration": 3.191666666666663
        },
        {
          "name": "A#3",
          "midi": 58,
          "time": 137.60000000000005,
          "velocity": 1,
          "duration": 3.191666666666663
        },
        {
          "name": "F#4",
          "midi": 66,
          "time": 137.60000000000005,
          "velocity": 1,
          "duration": 3.191666666666663
        },
        {
          "name": "C#4",
          "midi": 61,
          "time": 137.60000000000005,
          "velocity": 1,
          "duration": 3.191666666666663
        },
        {
          "name": "E4",
          "midi": 64,
          "time": 140.80000000000004,
          "velocity": 1,
          "duration": 3.191666666666663
        },
        {
          "name": "A3",
          "midi": 57,
          "time": 140.80000000000004,
          "velocity": 1,
          "duration": 3.191666666666663
        },
        {
          "name": "C#4",
          "midi": 61,
          "time": 140.80000000000004,
          "velocity": 1,
          "duration": 3.191666666666663
        },
        {
          "name": "E4",
          "midi": 64,
          "time": 144.00000000000003,
          "velocity": 1,
          "duration": 3.191666666666663
        },
        {
          "name": "B3",
          "midi": 59,
          "time": 144.00000000000003,
          "velocity": 1,
          "duration": 3.191666666666663
        },
        {
          "name": "G#3",
          "midi": 56,
          "time": 144.00000000000003,
          "velocity": 1,
          "duration": 3.191666666666663
        },
        {
          "name": "D4",
          "midi": 62,
          "time": 147.20000000000002,
          "velocity": 1,
          "duration": 3.191666666666663
        },
        {
          "name": "B3",
          "midi": 59,
          "time": 147.20000000000002,
          "velocity": 1,
          "duration": 3.191666666666663
        },
        {
          "name": "G3",
          "midi": 55,
          "time": 147.20000000000002,
          "velocity": 1,
          "duration": 3.191666666666663
        },
        {
          "name": "D4",
          "midi": 62,
          "time": 150.4,
          "velocity": 1,
          "duration": 3.191666666666663
        },
        {
          "name": "A3",
          "midi": 57,
          "time": 150.4,
          "velocity": 1,
          "duration": 3.191666666666663
        },
        {
          "name": "F#3",
          "midi": 54,
          "time": 150.4,
          "velocity": 1,
          "duration": 3.191666666666663
        },
        {
          "name": "E4",
          "midi": 64,
          "time": 153.6,
          "velocity": 1,
          "duration": 3.191666666666663
        },
        {
          "name": "B3",
          "midi": 59,
          "time": 153.6,
          "velocity": 1,
          "duration": 3.191666666666663
        },
        {
          "name": "G3",
          "midi": 55,
          "time": 153.6,
          "velocity": 1,
          "duration": 3.191666666666663
        },
        {
          "name": "F#4",
          "midi": 66,
          "time": 156.79999999999998,
          "velocity": 1,
          "duration": 3.191666666666663
        },
        {
          "name": "A#3",
          "midi": 58,
          "time": 156.79999999999998,
          "velocity": 1,
          "duration": 3.191666666666663
        },
        {
          "name": "C#4",
          "midi": 61,
          "time": 156.79999999999998,
          "velocity": 1,
          "duration": 3.191666666666663
        },
        {
          "name": "F#4",
          "midi": 66,
          "time": 159.99999999999997,
          "velocity": 1,
          "duration": 3.191666666666663
        },
        {
          "name": "D4",
          "midi": 62,
          "time": 159.99999999999997,
          "velocity": 1,
          "duration": 3.191666666666663
        },
        {
          "name": "B3",
          "midi": 59,
          "time": 159.99999999999997,
          "velocity": 1,
          "duration": 3.191666666666663
        },
        {
          "name": "A#3",
          "midi": 58,
          "time": 163.19999999999996,
          "velocity": 1,
          "duration": 3.191666666666663
        },
        {
          "name": "F#4",
          "midi": 66,
          "time": 163.19999999999996,
          "velocity": 1,
          "duration": 3.191666666666663
        },
        {
          "name": "C#4",
          "midi": 61,
          "time": 163.19999999999996,
          "velocity": 1,
          "duration": 3.191666666666663
        },
        {
          "name": "E4",
          "midi": 64,
          "time": 166.39999999999995,
          "velocity": 1,
          "duration": 3.191666666666663
        },
        {
          "name": "A3",
          "midi": 57,
          "time": 166.39999999999995,
          "velocity": 1,
          "duration": 3.191666666666663
        },
        {
          "name": "C#4",
          "midi": 61,
          "time": 166.39999999999995,
          "velocity": 1,
          "duration": 3.191666666666663
        },
        {
          "name": "E4",
          "midi": 64,
          "time": 169.59999999999994,
          "velocity": 1,
          "duration": 3.191666666666663
        },
        {
          "name": "B3",
          "midi": 59,
          "time": 169.59999999999994,
          "velocity": 1,
          "duration": 3.191666666666663
        },
        {
          "name": "G#3",
          "midi": 56,
          "time": 169.59999999999994,
          "velocity": 1,
          "duration": 3.191666666666663
        },
        {
          "name": "D4",
          "midi": 62,
          "time": 172.79999999999993,
          "velocity": 1,
          "duration": 3.191666666666663
        },
        {
          "name": "B3",
          "midi": 59,
          "time": 172.79999999999993,
          "velocity": 1,
          "duration": 3.191666666666663
        },
        {
          "name": "G3",
          "midi": 55,
          "time": 172.79999999999993,
          "velocity": 1,
          "duration": 3.191666666666663
        },
        {
          "name": "D4",
          "midi": 62,
          "time": 175.99999999999991,
          "velocity": 1,
          "duration": 3.191666666666663
        },
        {
          "name": "A3",
          "midi": 57,
          "time": 175.99999999999991,
          "velocity": 1,
          "duration": 3.191666666666663
        },
        {
          "name": "F#3",
          "midi": 54,
          "time": 175.99999999999991,
          "velocity": 1,
          "duration": 3.191666666666663
        },
        {
          "name": "E4",
          "midi": 64,
          "time": 179.1999999999999,
          "velocity": 1,
          "duration": 3.191666666666663
        },
        {
          "name": "B3",
          "midi": 59,
          "time": 179.1999999999999,
          "velocity": 1,
          "duration": 3.191666666666663
        },
        {
          "name": "G3",
          "midi": 55,
          "time": 179.1999999999999,
          "velocity": 1,
          "duration": 3.191666666666663
        },
        {
          "name": "F#4",
          "midi": 66,
          "time": 182.3999999999999,
          "velocity": 1,
          "duration": 3.191666666666663
        },
        {
          "name": "A#3",
          "midi": 58,
          "time": 182.3999999999999,
          "velocity": 1,
          "duration": 3.191666666666663
        },
        {
          "name": "C#4",
          "midi": 61,
          "time": 182.3999999999999,
          "velocity": 1,
          "duration": 3.191666666666663
        },
        {
          "name": "G4",
          "midi": 67,
          "time": 185.59999999999988,
          "velocity": 0.6141732283464567,
          "duration": 3.191666666666663
        },
        {
          "name": "D4",
          "midi": 62,
          "time": 185.59999999999988,
          "velocity": 0.7401574803149606,
          "duration": 3.191666666666663
        },
        {
          "name": "B3",
          "midi": 59,
          "time": 185.59999999999988,
          "velocity": 0.7795275590551181,
          "duration": 3.191666666666663
        },
        {
          "name": "D4",
          "midi": 62,
          "time": 188.79999999999987,
          "velocity": 0.6692913385826772,
          "duration": 3.191666666666663
        },
        {
          "name": "A3",
          "midi": 57,
          "time": 188.79999999999987,
          "velocity": 0.7401574803149606,
          "duration": 3.191666666666663
        },
        {
          "name": "F#4",
          "midi": 66,
          "time": 188.79999999999987,
          "velocity": 0.5275590551181102,
          "duration": 3.191666666666663
        },
        {
          "name": "F#4",
          "midi": 66,
          "time": 191.99999999999986,
          "velocity": 0.5433070866141733,
          "duration": 3.191666666666663
        },
        {
          "name": "C#4",
          "midi": 61,
          "time": 191.99999999999986,
          "velocity": 0.6299212598425197,
          "duration": 3.191666666666663
        },
        {
          "name": "A#3",
          "midi": 58,
          "time": 191.99999999999986,
          "velocity": 0.6062992125984252,
          "duration": 3.191666666666663
        },
        {
          "name": "F#4",
          "midi": 66,
          "time": 195.19999999999985,
          "velocity": 0.36220472440944884,
          "duration": 3.191666666666663
        },
        {
          "name": "D4",
          "midi": 62,
          "time": 195.19999999999985,
          "velocity": 0.5669291338582677,
          "duration": 3.191666666666663
        },
        {
          "name": "B3",
          "midi": 59,
          "time": 195.19999999999985,
          "velocity": 0.5118110236220472,
          "duration": 3.191666666666663
        },
        {
          "name": "G4",
          "midi": 67,
          "time": 198.39999999999984,
          "velocity": 0.5984251968503937,
          "duration": 3.191666666666663
        },
        {
          "name": "D4",
          "midi": 62,
          "time": 198.39999999999984,
          "velocity": 0.7795275590551181,
          "duration": 3.191666666666663
        },
        {
          "name": "B3",
          "midi": 59,
          "time": 198.39999999999984,
          "velocity": 0.7401574803149606,
          "duration": 3.191666666666663
        },
        {
          "name": "D4",
          "midi": 62,
          "time": 201.59999999999982,
          "velocity": 0.6614173228346457,
          "duration": 3.191666666666663
        },
        {
          "name": "A3",
          "midi": 57,
          "time": 201.59999999999982,
          "velocity": 0.6692913385826772,
          "duration": 3.191666666666663
        },
        {
          "name": "F#4",
          "midi": 66,
          "time": 201.59999999999982,
          "velocity": 0.4094488188976378,
          "duration": 3.191666666666663
        },
        {
          "name": "G4",
          "midi": 67,
          "time": 204.7999999999998,
          "velocity": 0.5826771653543307,
          "duration": 3.191666666666663
        },
        {
          "name": "E4",
          "midi": 64,
          "time": 204.7999999999998,
          "velocity": 0.6299212598425197,
          "duration": 3.191666666666663
        },
        {
          "name": "B3",
          "midi": 59,
          "time": 204.7999999999998,
          "velocity": 0.6614173228346457,
          "duration": 3.191666666666663
        },
        {
          "name": "F#4",
          "midi": 66,
          "time": 207.9999999999998,
          "velocity": 0.49606299212598426,
          "duration": 2.8000000000000114
        },
        {
          "name": "A#3",
          "midi": 58,
          "time": 207.9999999999998,
          "velocity": 0.6220472440944882,
          "duration": 2.8000000000000114
        },
        {
          "name": "C#4",
          "midi": 61,
          "time": 207.9999999999998,
          "velocity": 0.5748031496062992,
          "duration": 2.8000000000000114
        },
        {
          "name": "F#4",
          "midi": 66,
          "time": 211.19999999999982,
          "velocity": 1,
          "duration": 3.191666666666663
        },
        {
          "name": "D4",
          "midi": 62,
          "time": 211.19999999999982,
          "velocity": 1,
          "duration": 3.191666666666663
        },
        {
          "name": "B3",
          "midi": 59,
          "time": 211.19999999999982,
          "velocity": 1,
          "duration": 3.191666666666663
        },
        {
          "name": "A#3",
          "midi": 58,
          "time": 214.3999999999998,
          "velocity": 1,
          "duration": 3.191666666666663
        },
        {
          "name": "F#4",
          "midi": 66,
          "time": 214.3999999999998,
          "velocity": 1,
          "duration": 3.191666666666663
        },
        {
          "name": "C#4",
          "midi": 61,
          "time": 214.3999999999998,
          "velocity": 1,
          "duration": 3.191666666666663
        },
        {
          "name": "E4",
          "midi": 64,
          "time": 217.5999999999998,
          "velocity": 1,
          "duration": 3.191666666666663
        },
        {
          "name": "A3",
          "midi": 57,
          "time": 217.5999999999998,
          "velocity": 1,
          "duration": 3.191666666666663
        },
        {
          "name": "C#4",
          "midi": 61,
          "time": 217.5999999999998,
          "velocity": 1,
          "duration": 3.191666666666663
        },
        {
          "name": "E4",
          "midi": 64,
          "time": 220.79999999999978,
          "velocity": 1,
          "duration": 3.191666666666663
        },
        {
          "name": "B3",
          "midi": 59,
          "time": 220.79999999999978,
          "velocity": 1,
          "duration": 3.191666666666663
        },
        {
          "name": "G#3",
          "midi": 56,
          "time": 220.79999999999978,
          "velocity": 1,
          "duration": 3.191666666666663
        },
        {
          "name": "D4",
          "midi": 62,
          "time": 223.99999999999977,
          "velocity": 1,
          "duration": 3.191666666666663
        },
        {
          "name": "B3",
          "midi": 59,
          "time": 223.99999999999977,
          "velocity": 1,
          "duration": 3.191666666666663
        },
        {
          "name": "G3",
          "midi": 55,
          "time": 223.99999999999977,
          "velocity": 1,
          "duration": 3.191666666666663
        },
        {
          "name": "D4",
          "midi": 62,
          "time": 227.19999999999976,
          "velocity": 1,
          "duration": 3.191666666666663
        },
        {
          "name": "A3",
          "midi": 57,
          "time": 227.19999999999976,
          "velocity": 1,
          "duration": 3.191666666666663
        },
        {
          "name": "F#3",
          "midi": 54,
          "time": 227.19999999999976,
          "velocity": 1,
          "duration": 3.191666666666663
        },
        {
          "name": "E4",
          "midi": 64,
          "time": 230.39999999999975,
          "velocity": 1,
          "duration": 3.191666666666663
        },
        {
          "name": "B3",
          "midi": 59,
          "time": 230.39999999999975,
          "velocity": 1,
          "duration": 3.191666666666663
        },
        {
          "name": "G3",
          "midi": 55,
          "time": 230.39999999999975,
          "velocity": 1,
          "duration": 3.191666666666663
        },
        {
          "name": "F#4",
          "midi": 66,
          "time": 233.59999999999974,
          "velocity": 1,
          "duration": 3.191666666666663
        },
        {
          "name": "A#3",
          "midi": 58,
          "time": 233.59999999999974,
          "velocity": 1,
          "duration": 3.191666666666663
        },
        {
          "name": "C#4",
          "midi": 61,
          "time": 233.59999999999974,
          "velocity": 1,
          "duration": 3.191666666666663
        },
        {
          "name": "F#4",
          "midi": 66,
          "time": 236.79999999999973,
          "velocity": 1,
          "duration": 3.191666666666663
        },
        {
          "name": "D4",
          "midi": 62,
          "time": 236.79999999999973,
          "velocity": 1,
          "duration": 3.191666666666663
        },
        {
          "name": "B3",
          "midi": 59,
          "time": 236.79999999999973,
          "velocity": 1,
          "duration": 3.191666666666663
        },
        {
          "name": "A#3",
          "midi": 58,
          "time": 239.99999999999972,
          "velocity": 1,
          "duration": 3.191666666666663
        },
        {
          "name": "F#4",
          "midi": 66,
          "time": 239.99999999999972,
          "velocity": 1,
          "duration": 3.191666666666663
        },
        {
          "name": "C#4",
          "midi": 61,
          "time": 239.99999999999972,
          "velocity": 1,
          "duration": 3.191666666666663
        },
        {
          "name": "E4",
          "midi": 64,
          "time": 243.1999999999997,
          "velocity": 1,
          "duration": 3.191666666666663
        },
        {
          "name": "A3",
          "midi": 57,
          "time": 243.1999999999997,
          "velocity": 1,
          "duration": 3.191666666666663
        },
        {
          "name": "C#4",
          "midi": 61,
          "time": 243.1999999999997,
          "velocity": 1,
          "duration": 3.191666666666663
        },
        {
          "name": "E4",
          "midi": 64,
          "time": 246.3999999999997,
          "velocity": 1,
          "duration": 3.191666666666663
        },
        {
          "name": "B3",
          "midi": 59,
          "time": 246.3999999999997,
          "velocity": 1,
          "duration": 3.191666666666663
        },
        {
          "name": "G#3",
          "midi": 56,
          "time": 246.3999999999997,
          "velocity": 1,
          "duration": 3.191666666666663
        },
        {
          "name": "D4",
          "midi": 62,
          "time": 249.59999999999968,
          "velocity": 1,
          "duration": 3.191666666666663
        },
        {
          "name": "B3",
          "midi": 59,
          "time": 249.59999999999968,
          "velocity": 1,
          "duration": 3.191666666666663
        },
        {
          "name": "G3",
          "midi": 55,
          "time": 249.59999999999968,
          "velocity": 1,
          "duration": 3.191666666666663
        },
        {
          "name": "D4",
          "midi": 62,
          "time": 252.79999999999967,
          "velocity": 1,
          "duration": 3.191666666666663
        },
        {
          "name": "A3",
          "midi": 57,
          "time": 252.79999999999967,
          "velocity": 1,
          "duration": 3.191666666666663
        },
        {
          "name": "F#3",
          "midi": 54,
          "time": 252.79999999999967,
          "velocity": 1,
          "duration": 3.191666666666663
        },
        {
          "name": "E4",
          "midi": 64,
          "time": 255.99999999999966,
          "velocity": 1,
          "duration": 3.191666666666663
        },
        {
          "name": "B3",
          "midi": 59,
          "time": 255.99999999999966,
          "velocity": 1,
          "duration": 3.191666666666663
        },
        {
          "name": "G3",
          "midi": 55,
          "time": 255.99999999999966,
          "velocity": 1,
          "duration": 3.191666666666663
        },
        {
          "name": "F#4",
          "midi": 66,
          "time": 259.19999999999965,
          "velocity": 1,
          "duration": 1.7666666666666515
        },
        {
          "name": "A#3",
          "midi": 58,
          "time": 259.19999999999965,
          "velocity": 1,
          "duration": 2.3916666666666515
        },
        {
          "name": "C#4",
          "midi": 61,
          "time": 259.19999999999965,
          "velocity": 1,
          "duration": 1.533333333333303
        },
        {
          "name": "C#4",
          "midi": 61,
          "time": 260.5999999999996,
          "velocity": 1,
          "duration": 1.400000000000034
        },
        {
          "name": "F#4",
          "midi": 66,
          "time": 260.7999999999996,
          "velocity": 1,
          "duration": 0.5791666666667084
        },
        {
          "name": "F4",
          "midi": 65,
          "time": 260.99999999999966,
          "velocity": 1,
          "duration": 0.18333333333333712
        },
        {
          "name": "F#4",
          "midi": 66,
          "time": 261.19999999999965,
          "velocity": 1,
          "duration": 1.1999999999999886
        },
        {
          "name": "F#4",
          "midi": 66,
          "time": 262.4041666666663,
          "velocity": 1,
          "duration": 3.1958333333333258
        },
        {
          "name": "D4",
          "midi": 62,
          "time": 262.4041666666663,
          "velocity": 1,
          "duration": 3.1958333333333258
        },
        {
          "name": "B3",
          "midi": 59,
          "time": 262.4041666666663,
          "velocity": 1,
          "duration": 3.1958333333333258
        },
        {
          "name": "A#3",
          "midi": 58,
          "time": 265.6041666666663,
          "velocity": 1,
          "duration": 3.1958333333333258
        },
        {
          "name": "F#4",
          "midi": 66,
          "time": 265.6041666666663,
          "velocity": 1,
          "duration": 3.1958333333333258
        },
        {
          "name": "C#4",
          "midi": 61,
          "time": 265.6041666666663,
          "velocity": 1,
          "duration": 3.1958333333333258
        },
        {
          "name": "E4",
          "midi": 64,
          "time": 268.8041666666663,
          "velocity": 1,
          "duration": 3.1958333333333258
        },
        {
          "name": "A3",
          "midi": 57,
          "time": 268.8041666666663,
          "velocity": 1,
          "duration": 3.1958333333333258
        },
        {
          "name": "C#4",
          "midi": 61,
          "time": 268.8041666666663,
          "velocity": 1,
          "duration": 3.1958333333333258
        },
        {
          "name": "E4",
          "midi": 64,
          "time": 272.00416666666626,
          "velocity": 1,
          "duration": 3.1958333333333258
        },
        {
          "name": "B3",
          "midi": 59,
          "time": 272.00416666666626,
          "velocity": 1,
          "duration": 3.1958333333333258
        },
        {
          "name": "G#3",
          "midi": 56,
          "time": 272.00416666666626,
          "velocity": 1,
          "duration": 3.1958333333333258
        },
        {
          "name": "D4",
          "midi": 62,
          "time": 275.20416666666625,
          "velocity": 1,
          "duration": 3.1958333333333258
        },
        {
          "name": "B3",
          "midi": 59,
          "time": 275.20416666666625,
          "velocity": 1,
          "duration": 3.1958333333333258
        },
        {
          "name": "G3",
          "midi": 55,
          "time": 275.20416666666625,
          "velocity": 1,
          "duration": 3.1958333333333258
        },
        {
          "name": "D4",
          "midi": 62,
          "time": 278.40416666666624,
          "velocity": 1,
          "duration": 3.1958333333333258
        },
        {
          "name": "A3",
          "midi": 57,
          "time": 278.40416666666624,
          "velocity": 1,
          "duration": 3.1958333333333258
        },
        {
          "name": "F#3",
          "midi": 54,
          "time": 278.40416666666624,
          "velocity": 1,
          "duration": 3.1958333333333258
        },
        {
          "name": "E4",
          "midi": 64,
          "time": 281.60416666666623,
          "velocity": 1,
          "duration": 3.1958333333333258
        },
        {
          "name": "B3",
          "midi": 59,
          "time": 281.60416666666623,
          "velocity": 1,
          "duration": 3.1958333333333258
        },
        {
          "name": "G3",
          "midi": 55,
          "time": 281.60416666666623,
          "velocity": 1,
          "duration": 3.1958333333333258
        },
        {
          "name": "F#4",
          "midi": 66,
          "time": 284.8041666666662,
          "velocity": 1,
          "duration": 3.1958333333333258
        },
        {
          "name": "A#3",
          "midi": 58,
          "time": 284.8041666666662,
          "velocity": 1,
          "duration": 3.1958333333333258
        },
        {
          "name": "C#4",
          "midi": 61,
          "time": 284.8041666666662,
          "velocity": 1,
          "duration": 3.1958333333333258
        },
        {
          "name": "F#4",
          "midi": 66,
          "time": 288.0041666666662,
          "velocity": 1,
          "duration": 3.1958333333333258
        },
        {
          "name": "D4",
          "midi": 62,
          "time": 288.0041666666662,
          "velocity": 1,
          "duration": 3.1958333333333258
        },
        {
          "name": "B3",
          "midi": 59,
          "time": 288.0041666666662,
          "velocity": 1,
          "duration": 3.1958333333333258
        },
        {
          "name": "A#3",
          "midi": 58,
          "time": 291.2041666666662,
          "velocity": 1,
          "duration": 3.1958333333333258
        },
        {
          "name": "F#4",
          "midi": 66,
          "time": 291.2041666666662,
          "velocity": 1,
          "duration": 3.1958333333333258
        },
        {
          "name": "C#4",
          "midi": 61,
          "time": 291.2041666666662,
          "velocity": 1,
          "duration": 3.1958333333333258
        },
        {
          "name": "E4",
          "midi": 64,
          "time": 294.4041666666662,
          "velocity": 1,
          "duration": 3.195833333333212
        },
        {
          "name": "A3",
          "midi": 57,
          "time": 294.4041666666662,
          "velocity": 1,
          "duration": 3.195833333333212
        },
        {
          "name": "C#4",
          "midi": 61,
          "time": 294.4041666666662,
          "velocity": 1,
          "duration": 3.195833333333212
        },
        {
          "name": "E4",
          "midi": 64,
          "time": 297.60416666666606,
          "velocity": 1,
          "duration": 3.1958333333333258
        },
        {
          "name": "B3",
          "midi": 59,
          "time": 297.60416666666606,
          "velocity": 1,
          "duration": 3.1958333333333258
        },
        {
          "name": "G#3",
          "midi": 56,
          "time": 297.60416666666606,
          "velocity": 1,
          "duration": 3.1958333333333258
        },
        {
          "name": "D4",
          "midi": 62,
          "time": 300.80416666666605,
          "velocity": 1,
          "duration": 3.195833333333269
        },
        {
          "name": "B3",
          "midi": 59,
          "time": 300.80416666666605,
          "velocity": 1,
          "duration": 3.195833333333269
        },
        {
          "name": "G3",
          "midi": 55,
          "time": 300.80416666666605,
          "velocity": 1,
          "duration": 3.195833333333269
        },
        {
          "name": "D4",
          "midi": 62,
          "time": 304.004166666666,
          "velocity": 1,
          "duration": 3.1958333333333826
        },
        {
          "name": "A3",
          "midi": 57,
          "time": 304.004166666666,
          "velocity": 1,
          "duration": 3.1958333333333826
        },
        {
          "name": "F#3",
          "midi": 54,
          "time": 304.004166666666,
          "velocity": 1,
          "duration": 3.1958333333333826
        },
        {
          "name": "E4",
          "midi": 64,
          "time": 307.204166666666,
          "velocity": 1,
          "duration": 3.1958333333333826
        },
        {
          "name": "B3",
          "midi": 59,
          "time": 307.204166666666,
          "velocity": 1,
          "duration": 3.1958333333333826
        },
        {
          "name": "G3",
          "midi": 55,
          "time": 307.204166666666,
          "velocity": 1,
          "duration": 3.1958333333333826
        },
        {
          "name": "F#4",
          "midi": 66,
          "time": 310.4041666666661,
          "velocity": 1,
          "duration": 3.1958333333333258
        },
        {
          "name": "A#3",
          "midi": 58,
          "time": 310.4041666666661,
          "velocity": 1,
          "duration": 3.1958333333333258
        },
        {
          "name": "C#4",
          "midi": 61,
          "time": 310.4041666666661,
          "velocity": 1,
          "duration": 3.1958333333333258
        }
      ],
      "controlChanges": {
        "7": [
          {
            "number": 7,
            "time": 3.2,
            "value": 0.7795275590551181
          },
          {
            "number": 7,
            "time": 260.5999999999996,
            "value": 0.9921259842519685
          },
          {
            "number": 7,
            "time": 271.6374999999996,
            "value": 0.9921259842519685
          },
          {
            "number": 7,
            "time": 294.7374999999995,
            "value": 0.984251968503937
          },
          {
            "number": 7,
            "time": 294.8708333333328,
            "value": 0.9763779527559056
          },
          {
            "number": 7,
            "time": 294.9666666666662,
            "value": 0.968503937007874
          },
          {
            "number": 7,
            "time": 295.07083333333287,
            "value": 0.9448818897637795
          },
          {
            "number": 7,
            "time": 295.2041666666662,
            "value": 0.937007874015748
          },
          {
            "number": 7,
            "time": 295.5374999999995,
            "value": 0.9212598425196851
          },
          {
            "number": 7,
            "time": 295.9374999999995,
            "value": 0.905511811023622
          },
          {
            "number": 7,
            "time": 296.1249999999995,
            "value": 0.7559055118110236
          },
          {
            "number": 7,
            "time": 296.5708333333328,
            "value": 0.7244094488188977
          },
          {
            "number": 7,
            "time": 296.70416666666614,
            "value": 0.6692913385826772
          },
          {
            "number": 7,
            "time": 296.90416666666613,
            "value": 0.6535433070866141
          },
          {
            "number": 7,
            "time": 297.3041666666661,
            "value": 0.6220472440944882
          },
          {
            "number": 7,
            "time": 297.44583333333276,
            "value": 0.5826771653543307
          },
          {
            "number": 7,
            "time": 297.60416666666606,
            "value": 0.5354330708661418
          },
          {
            "number": 7,
            "time": 297.7249999999994,
            "value": 0.5275590551181102
          },
          {
            "number": 7,
            "time": 297.8708333333327,
            "value": 0.5196850393700787
          },
          {
            "number": 7,
            "time": 298.00416666666604,
            "value": 0.4645669291338583
          },
          {
            "number": 7,
            "time": 298.5374999999994,
            "value": 0.4330708661417323
          },
          {
            "number": 7,
            "time": 298.6708333333327,
            "value": 0.4251968503937008
          },
          {
            "number": 7,
            "time": 299.6499999999994,
            "value": 0.41732283464566927
          },
          {
            "number": 7,
            "time": 299.75833333333276,
            "value": 0.3858267716535433
          },
          {
            "number": 7,
            "time": 300.4041666666661,
            "value": 0.3779527559055118
          },
          {
            "number": 7,
            "time": 300.7374999999994,
            "value": 0.36220472440944884
          },
          {
            "number": 7,
            "time": 300.8374999999994,
            "value": 0.3464566929133858
          },
          {
            "number": 7,
            "time": 301.11666666666605,
            "value": 0.33070866141732286
          },
          {
            "number": 7,
            "time": 301.2708333333327,
            "value": 0.2992125984251969
          },
          {
            "number": 7,
            "time": 302.00416666666604,
            "value": 0.29133858267716534
          },
          {
            "number": 7,
            "time": 302.2708333333327,
            "value": 0.28346456692913385
          },
          {
            "number": 7,
            "time": 302.67083333333267,
            "value": 0.2440944881889764
          },
          {
            "number": 7,
            "time": 302.804166666666,
            "value": 0.2125984251968504
          },
          {
            "number": 7,
            "time": 304.55833333333266,
            "value": 0.2047244094488189
          },
          {
            "number": 7,
            "time": 304.6374999999993,
            "value": 0.1968503937007874
          },
          {
            "number": 7,
            "time": 304.73749999999933,
            "value": 0.14173228346456693
          },
          {
            "number": 7,
            "time": 304.87083333333266,
            "value": 0.12598425196850394
          },
          {
            "number": 7,
            "time": 305.3999999999993,
            "value": 0.11023622047244094
          },
          {
            "number": 7,
            "time": 305.691666666666,
            "value": 0.10236220472440945
          },
          {
            "number": 7,
            "time": 306.291666666666,
            "value": 0.09448818897637795
          },
          {
            "number": 7,
            "time": 306.53749999999934,
            "value": 0.08661417322834646
          },
          {
            "number": 7,
            "time": 306.98333333333267,
            "value": 0.07874015748031496
          },
          {
            "number": 7,
            "time": 307.03749999999934,
            "value": 0.07086614173228346
          },
          {
            "number": 7,
            "time": 307.13749999999936,
            "value": 0.06299212598425197
          },
          {
            "number": 7,
            "time": 307.2374999999994,
            "value": 0.05511811023622047
          },
          {
            "number": 7,
            "time": 307.4374999999994,
            "value": 0.03937007874015748
          },
          {
            "number": 7,
            "time": 307.5999999999994,
            "value": 0
          }
        ],
        "10": [
          {
            "number": 10,
            "time": 271.6374999999996,
            "value": 0.5039370078740157
          }
        ]
      },
      "id": 1,
      "name": "CHARANG",
      "instrumentNumber": 84,
      "instrument": "lead 5 (charang)",
      "instrumentFamily": "synth lead",
      "channelNumber": 0,
      "isPercussion": false
    },
    {
      "startTime": 32,
      "duration": 202.7999999999999,
      "length": 66,
      "notes": [
        {
          "name": "D3",
          "midi": 50,
          "time": 32,
          "velocity": 1,
          "duration": 1.6000000000000014
        },
        {
          "name": "E3",
          "midi": 52,
          "time": 33.6,
          "velocity": 1,
          "duration": 0.7999999999999972
        },
        {
          "name": "F#3",
          "midi": 54,
          "time": 34.4,
          "velocity": 1,
          "duration": 0.7999999999999972
        },
        {
          "name": "E3",
          "midi": 52,
          "time": 35.199999999999996,
          "velocity": 1,
          "duration": 1.2000000000000028
        },
        {
          "name": "D3",
          "midi": 50,
          "time": 36.4,
          "velocity": 1,
          "duration": 0.3916666666666657
        },
        {
          "name": "C#3",
          "midi": 49,
          "time": 36.8,
          "velocity": 1,
          "duration": 1.2000000000000028
        },
        {
          "name": "C#3",
          "midi": 49,
          "time": 38.4,
          "velocity": 1,
          "duration": 1.6000000000000014
        },
        {
          "name": "D3",
          "midi": 50,
          "time": 40,
          "velocity": 1,
          "duration": 0.7999999999999972
        },
        {
          "name": "E3",
          "midi": 52,
          "time": 40.8,
          "velocity": 1,
          "duration": 0.7999999999999972
        },
        {
          "name": "G#3",
          "midi": 56,
          "time": 41.599999999999994,
          "velocity": 1,
          "duration": 2.799999999999997
        },
        {
          "name": "B2",
          "midi": 47,
          "time": 44.79999999999999,
          "velocity": 1,
          "duration": 1.6000000000000014
        },
        {
          "name": "C#3",
          "midi": 49,
          "time": 46.39999999999999,
          "velocity": 1,
          "duration": 0.7999999999999972
        },
        {
          "name": "D3",
          "midi": 50,
          "time": 47.19999999999999,
          "velocity": 1,
          "duration": 0.7999999999999972
        },
        {
          "name": "F#3",
          "midi": 54,
          "time": 47.999999999999986,
          "velocity": 1,
          "duration": 2.799999999999997
        },
        {
          "name": "E3",
          "midi": 52,
          "time": 51.19999999999998,
          "velocity": 1,
          "duration": 1.6000000000000014
        },
        {
          "name": "F#3",
          "midi": 54,
          "time": 52.79999999999998,
          "velocity": 1,
          "duration": 0.7999999999999972
        },
        {
          "name": "G3",
          "midi": 55,
          "time": 53.59999999999998,
          "velocity": 1,
          "duration": 0.7999999999999972
        },
        {
          "name": "F#3",
          "midi": 54,
          "time": 54.39999999999998,
          "velocity": 1,
          "duration": 2.799999999999997
        },
        {
          "name": "B3",
          "midi": 59,
          "time": 108.79999999999998,
          "velocity": 1,
          "duration": 0.19166666666666288
        },
        {
          "name": "B3",
          "midi": 59,
          "time": 108.99999999999999,
          "velocity": 1,
          "duration": 0.19166666666666288
        },
        {
          "name": "B3",
          "midi": 59,
          "time": 109.19999999999999,
          "velocity": 1,
          "duration": 0.19166666666666288
        },
        {
          "name": "B3",
          "midi": 59,
          "time": 109.39999999999999,
          "velocity": 1,
          "duration": 0.19166666666666288
        },
        {
          "name": "B3",
          "midi": 59,
          "time": 109.79999999999998,
          "velocity": 1,
          "duration": 0.19166666666666288
        },
        {
          "name": "B3",
          "midi": 59,
          "time": 110.19999999999997,
          "velocity": 1,
          "duration": 0.19166666666666288
        },
        {
          "name": "B3",
          "midi": 59,
          "time": 110.39999999999998,
          "velocity": 1,
          "duration": 0.19166666666666288
        },
        {
          "name": "B3",
          "midi": 59,
          "time": 110.79999999999997,
          "velocity": 1,
          "duration": 0.19166666666666288
        },
        {
          "name": "C#4",
          "midi": 61,
          "time": 111.19999999999996,
          "velocity": 1,
          "duration": 0.4000000000000057
        },
        {
          "name": "B3",
          "midi": 59,
          "time": 111.59999999999997,
          "velocity": 1,
          "duration": 0.19166666666666288
        },
        {
          "name": "B3",
          "midi": 59,
          "time": 111.79999999999997,
          "velocity": 1,
          "duration": 0.19166666666666288
        },
        {
          "name": "A3",
          "midi": 57,
          "time": 112.19999999999996,
          "velocity": 1,
          "duration": 1
        },
        {
          "name": "B3",
          "midi": 59,
          "time": 121.59999999999997,
          "velocity": 1,
          "duration": 0.19166666666666288
        },
        {
          "name": "B3",
          "midi": 59,
          "time": 121.79999999999997,
          "velocity": 1,
          "duration": 0.19166666666666288
        },
        {
          "name": "B3",
          "midi": 59,
          "time": 121.99999999999997,
          "velocity": 1,
          "duration": 0.19166666666666288
        },
        {
          "name": "B3",
          "midi": 59,
          "time": 122.19999999999997,
          "velocity": 1,
          "duration": 0.19166666666666288
        },
        {
          "name": "B3",
          "midi": 59,
          "time": 122.59999999999997,
          "velocity": 1,
          "duration": 0.19166666666666288
        },
        {
          "name": "B3",
          "midi": 59,
          "time": 122.99999999999996,
          "velocity": 1,
          "duration": 0.19166666666666288
        },
        {
          "name": "B3",
          "midi": 59,
          "time": 123.19999999999996,
          "velocity": 1,
          "duration": 0.19166666666666288
        },
        {
          "name": "B3",
          "midi": 59,
          "time": 123.59999999999995,
          "velocity": 1,
          "duration": 0.19166666666666288
        },
        {
          "name": "C#4",
          "midi": 61,
          "time": 123.99999999999994,
          "velocity": 1,
          "duration": 0.4000000000000057
        },
        {
          "name": "B3",
          "midi": 59,
          "time": 124.39999999999995,
          "velocity": 1,
          "duration": 0.19166666666666288
        },
        {
          "name": "B3",
          "midi": 59,
          "time": 124.59999999999995,
          "velocity": 1,
          "duration": 0.19166666666666288
        },
        {
          "name": "A3",
          "midi": 57,
          "time": 124.99999999999994,
          "velocity": 1,
          "duration": 1
        },
        {
          "name": "B3",
          "midi": 59,
          "time": 185.59999999999994,
          "velocity": 1,
          "duration": 0.19166666666666288
        },
        {
          "name": "B3",
          "midi": 59,
          "time": 185.79999999999993,
          "velocity": 1,
          "duration": 0.19166666666666288
        },
        {
          "name": "B3",
          "midi": 59,
          "time": 185.99999999999991,
          "velocity": 1,
          "duration": 0.19166666666666288
        },
        {
          "name": "B3",
          "midi": 59,
          "time": 186.1999999999999,
          "velocity": 1,
          "duration": 0.19166666666666288
        },
        {
          "name": "B3",
          "midi": 59,
          "time": 186.5999999999999,
          "velocity": 1,
          "duration": 0.19166666666666288
        },
        {
          "name": "B3",
          "midi": 59,
          "time": 186.99999999999991,
          "velocity": 1,
          "duration": 0.19166666666666288
        },
        {
          "name": "B3",
          "midi": 59,
          "time": 187.1999999999999,
          "velocity": 1,
          "duration": 0.19166666666666288
        },
        {
          "name": "B3",
          "midi": 59,
          "time": 187.5999999999999,
          "velocity": 1,
          "duration": 0.19166666666666288
        },
        {
          "name": "C#4",
          "midi": 61,
          "time": 187.99999999999991,
          "velocity": 1,
          "duration": 0.4000000000000057
        },
        {
          "name": "B3",
          "midi": 59,
          "time": 188.39999999999992,
          "velocity": 1,
          "duration": 0.19166666666666288
        },
        {
          "name": "B3",
          "midi": 59,
          "time": 188.5999999999999,
          "velocity": 1,
          "duration": 0.19166666666666288
        },
        {
          "name": "A3",
          "midi": 57,
          "time": 188.99999999999991,
          "velocity": 1,
          "duration": 1
        },
        {
          "name": "B3",
          "midi": 59,
          "time": 198.39999999999992,
          "velocity": 1,
          "duration": 0.19166666666666288
        },
        {
          "name": "B3",
          "midi": 59,
          "time": 198.5999999999999,
          "velocity": 1,
          "duration": 0.19166666666666288
        },
        {
          "name": "B3",
          "midi": 59,
          "time": 198.7999999999999,
          "velocity": 1,
          "duration": 0.19166666666666288
        },
        {
          "name": "B3",
          "midi": 59,
          "time": 198.9999999999999,
          "velocity": 1,
          "duration": 0.19166666666666288
        },
        {
          "name": "B3",
          "midi": 59,
          "time": 199.3999999999999,
          "velocity": 1,
          "duration": 0.19166666666666288
        },
        {
          "name": "B3",
          "midi": 59,
          "time": 199.7999999999999,
          "velocity": 1,
          "duration": 0.19166666666666288
        },
        {
          "name": "B3",
          "midi": 59,
          "time": 199.9999999999999,
          "velocity": 1,
          "duration": 0.19166666666666288
        },
        {
          "name": "B3",
          "midi": 59,
          "time": 200.3999999999999,
          "velocity": 1,
          "duration": 0.19166666666666288
        },
        {
          "name": "C#4",
          "midi": 61,
          "time": 200.7999999999999,
          "velocity": 1,
          "duration": 0.4000000000000057
        },
        {
          "name": "B3",
          "midi": 59,
          "time": 201.1999999999999,
          "velocity": 1,
          "duration": 0.19166666666666288
        },
        {
          "name": "B3",
          "midi": 59,
          "time": 201.3999999999999,
          "velocity": 1,
          "duration": 0.19166666666666288
        },
        {
          "name": "A3",
          "midi": 57,
          "time": 201.7999999999999,
          "velocity": 1,
          "duration": 1
        }
      ],
      "controlChanges": {
        "7": [
          {
            "number": 7,
            "time": 3.2,
            "value": 0.9448818897637795
          },
          {
            "number": 7,
            "time": 271.63749999999993,
            "value": 0.9448818897637795
          },
          {
            "number": 7,
            "time": 294.73749999999995,
            "value": 0.9291338582677166
          },
          {
            "number": 7,
            "time": 294.8708333333333,
            "value": 0.9212598425196851
          },
          {
            "number": 7,
            "time": 294.96666666666664,
            "value": 0.9133858267716536
          },
          {
            "number": 7,
            "time": 295.0708333333333,
            "value": 0.889763779527559
          },
          {
            "number": 7,
            "time": 295.20416666666665,
            "value": 0.8818897637795275
          },
          {
            "number": 7,
            "time": 295.53749999999997,
            "value": 0.8661417322834646
          },
          {
            "number": 7,
            "time": 295.93749999999994,
            "value": 0.8503937007874016
          },
          {
            "number": 7,
            "time": 296.12499999999994,
            "value": 0.7086614173228346
          },
          {
            "number": 7,
            "time": 296.57083333333327,
            "value": 0.6850393700787402
          },
          {
            "number": 7,
            "time": 296.7041666666666,
            "value": 0.6299212598425197
          },
          {
            "number": 7,
            "time": 296.9041666666666,
            "value": 0.6141732283464567
          },
          {
            "number": 7,
            "time": 297.30416666666656,
            "value": 0.5905511811023622
          },
          {
            "number": 7,
            "time": 297.4458333333332,
            "value": 0.5511811023622047
          },
          {
            "number": 7,
            "time": 297.6041666666666,
            "value": 0.5039370078740157
          },
          {
            "number": 7,
            "time": 297.7249999999999,
            "value": 0.49606299212598426
          },
          {
            "number": 7,
            "time": 297.8708333333332,
            "value": 0.4881889763779528
          },
          {
            "number": 7,
            "time": 298.00416666666655,
            "value": 0.4409448818897638
          },
          {
            "number": 7,
            "time": 298.5374999999999,
            "value": 0.4094488188976378
          },
          {
            "number": 7,
            "time": 298.67083333333323,
            "value": 0.4015748031496063
          },
          {
            "number": 7,
            "time": 299.6499999999999,
            "value": 0.3937007874015748
          },
          {
            "number": 7,
            "time": 299.75833333333327,
            "value": 0.36220472440944884
          },
          {
            "number": 7,
            "time": 300.4041666666666,
            "value": 0.3543307086614173
          },
          {
            "number": 7,
            "time": 300.7374999999999,
            "value": 0.3464566929133858
          },
          {
            "number": 7,
            "time": 300.8374999999999,
            "value": 0.33070866141732286
          },
          {
            "number": 7,
            "time": 301.11666666666656,
            "value": 0.31496062992125984
          },
          {
            "number": 7,
            "time": 301.2708333333332,
            "value": 0.28346456692913385
          },
          {
            "number": 7,
            "time": 302.00416666666655,
            "value": 0.2755905511811024
          },
          {
            "number": 7,
            "time": 302.2708333333332,
            "value": 0.2677165354330709
          },
          {
            "number": 7,
            "time": 302.6708333333332,
            "value": 0.23622047244094488
          },
          {
            "number": 7,
            "time": 302.8041666666665,
            "value": 0.2047244094488189
          },
          {
            "number": 7,
            "time": 304.55833333333317,
            "value": 0.1968503937007874
          },
          {
            "number": 7,
            "time": 304.6374999999998,
            "value": 0.1889763779527559
          },
          {
            "number": 7,
            "time": 304.73749999999984,
            "value": 0.13385826771653545
          },
          {
            "number": 7,
            "time": 304.87083333333317,
            "value": 0.11811023622047244
          },
          {
            "number": 7,
            "time": 305.3999999999998,
            "value": 0.11023622047244094
          },
          {
            "number": 7,
            "time": 305.6916666666665,
            "value": 0.10236220472440945
          },
          {
            "number": 7,
            "time": 306.2916666666665,
            "value": 0.09448818897637795
          },
          {
            "number": 7,
            "time": 306.53749999999985,
            "value": 0.08661417322834646
          },
          {
            "number": 7,
            "time": 306.9833333333332,
            "value": 0.07874015748031496
          },
          {
            "number": 7,
            "time": 307.03749999999985,
            "value": 0.07086614173228346
          },
          {
            "number": 7,
            "time": 307.1374999999999,
            "value": 0.06299212598425197
          },
          {
            "number": 7,
            "time": 307.2374999999999,
            "value": 0.05511811023622047
          },
          {
            "number": 7,
            "time": 307.4374999999999,
            "value": 0.03937007874015748
          },
          {
            "number": 7,
            "time": 307.5999999999999,
            "value": 0
          }
        ],
        "10": [
          {
            "number": 10,
            "time": 271.63749999999993,
            "value": 0.5039370078740157
          }
        ]
      },
      "id": 2,
      "name": "STEEL GTR",
      "instrumentNumber": 25,
      "instrument": "acoustic guitar (steel)",
      "instrumentFamily": "guitar",
      "channelNumber": 1,
      "isPercussion": false
    },
    {
      "startTime": 6.4,
      "duration": 312.9999999999981,
      "length": 636,
      "notes": [
        {
          "name": "B1",
          "midi": 35,
          "time": 6.4,
          "velocity": 1,
          "duration": 3.1916666666666664
        },
        {
          "name": "F#1",
          "midi": 30,
          "time": 9.6,
          "velocity": 1,
          "duration": 3.1916666666666664
        },
        {
          "name": "A1",
          "midi": 33,
          "time": 12.799999999999999,
          "velocity": 1,
          "duration": 3.1916666666666664
        },
        {
          "name": "E1",
          "midi": 28,
          "time": 15.999999999999998,
          "velocity": 1,
          "duration": 3.191666666666668
        },
        {
          "name": "G1",
          "midi": 31,
          "time": 19.2,
          "velocity": 1,
          "duration": 3.1916666666666664
        },
        {
          "name": "D1",
          "midi": 26,
          "time": 22.4,
          "velocity": 1,
          "duration": 3.1916666666666664
        },
        {
          "name": "E1",
          "midi": 28,
          "time": 25.599999999999998,
          "velocity": 1,
          "duration": 3.1916666666666664
        },
        {
          "name": "F#1",
          "midi": 30,
          "time": 28.799999999999997,
          "velocity": 1,
          "duration": 3.1916666666666664
        },
        {
          "name": "B1",
          "midi": 35,
          "time": 31.999999999999996,
          "velocity": 1,
          "duration": 3.1916666666666664
        },
        {
          "name": "F#1",
          "midi": 30,
          "time": 35.199999999999996,
          "velocity": 1,
          "duration": 3.19166666666667
        },
        {
          "name": "A1",
          "midi": 33,
          "time": 38.4,
          "velocity": 1,
          "duration": 3.19166666666667
        },
        {
          "name": "E1",
          "midi": 28,
          "time": 41.6,
          "velocity": 1,
          "duration": 3.19166666666667
        },
        {
          "name": "G1",
          "midi": 31,
          "time": 44.800000000000004,
          "velocity": 1,
          "duration": 3.19166666666667
        },
        {
          "name": "D1",
          "midi": 26,
          "time": 48.00000000000001,
          "velocity": 1,
          "duration": 3.19166666666667
        },
        {
          "name": "E1",
          "midi": 28,
          "time": 51.20000000000001,
          "velocity": 1,
          "duration": 3.19166666666667
        },
        {
          "name": "F#1",
          "midi": 30,
          "time": 54.40000000000001,
          "velocity": 1,
          "duration": 3.19166666666667
        },
        {
          "name": "B1",
          "midi": 35,
          "time": 57.600000000000016,
          "velocity": 1,
          "duration": 0.19166666666666998
        },
        {
          "name": "B1",
          "midi": 35,
          "time": 57.80000000000002,
          "velocity": 1,
          "duration": 0.19166666666666998
        },
        {
          "name": "F#2",
          "midi": 42,
          "time": 58.00000000000002,
          "velocity": 1,
          "duration": 0.19166666666666998
        },
        {
          "name": "B2",
          "midi": 47,
          "time": 58.200000000000024,
          "velocity": 1,
          "duration": 0.19166666666666998
        },
        {
          "name": "F#2",
          "midi": 42,
          "time": 59.00000000000003,
          "velocity": 1,
          "duration": 0.19166666666666998
        },
        {
          "name": "B2",
          "midi": 47,
          "time": 59.20000000000003,
          "velocity": 1,
          "duration": 0.10000000000000142
        },
        {
          "name": "B2",
          "midi": 47,
          "time": 59.400000000000034,
          "velocity": 1,
          "duration": 0.10000000000000142
        },
        {
          "name": "F#2",
          "midi": 42,
          "time": 59.60000000000004,
          "velocity": 1,
          "duration": 1.2000000000000028
        },
        {
          "name": "F#1",
          "midi": 30,
          "time": 60.80000000000004,
          "velocity": 1,
          "duration": 0.125
        },
        {
          "name": "F#1",
          "midi": 30,
          "time": 61.00000000000004,
          "velocity": 1,
          "duration": 0.15833333333333144
        },
        {
          "name": "C#2",
          "midi": 37,
          "time": 61.20000000000004,
          "velocity": 1,
          "duration": 0.15833333333333144
        },
        {
          "name": "F#2",
          "midi": 42,
          "time": 61.400000000000034,
          "velocity": 1,
          "duration": 0.14999999999999858
        },
        {
          "name": "C#2",
          "midi": 37,
          "time": 62.20000000000003,
          "velocity": 1,
          "duration": 0.13333333333333286
        },
        {
          "name": "F#2",
          "midi": 42,
          "time": 62.400000000000034,
          "velocity": 1,
          "duration": 0.11666666666666714
        },
        {
          "name": "C#2",
          "midi": 37,
          "time": 62.60000000000004,
          "velocity": 1,
          "duration": 0.1458333333333357
        },
        {
          "name": "F#1",
          "midi": 30,
          "time": 62.80000000000004,
          "velocity": 1,
          "duration": 1.05833333333333
        },
        {
          "name": "A1",
          "midi": 33,
          "time": 64.00000000000004,
          "velocity": 1,
          "duration": 0.13333333333333997
        },
        {
          "name": "A1",
          "midi": 33,
          "time": 64.20000000000005,
          "velocity": 1,
          "duration": 0.13333333333333997
        },
        {
          "name": "E2",
          "midi": 40,
          "time": 64.40000000000005,
          "velocity": 1,
          "duration": 0.15833333333333144
        },
        {
          "name": "A2",
          "midi": 45,
          "time": 64.60000000000005,
          "velocity": 1,
          "duration": 0.21666666666666856
        },
        {
          "name": "E2",
          "midi": 40,
          "time": 65.40000000000005,
          "velocity": 1,
          "duration": 0.17083333333333428
        },
        {
          "name": "A2",
          "midi": 45,
          "time": 65.60000000000005,
          "velocity": 1,
          "duration": 0.0833333333333286
        },
        {
          "name": "A2",
          "midi": 45,
          "time": 65.80000000000004,
          "velocity": 1,
          "duration": 0.07916666666666572
        },
        {
          "name": "E2",
          "midi": 40,
          "time": 66.00000000000004,
          "velocity": 1,
          "duration": 1.0041666666666629
        },
        {
          "name": "E1",
          "midi": 28,
          "time": 67.20000000000005,
          "velocity": 1,
          "duration": 0.11666666666666003
        },
        {
          "name": "E1",
          "midi": 28,
          "time": 67.40000000000003,
          "velocity": 1,
          "duration": 0.13750000000000284
        },
        {
          "name": "B1",
          "midi": 35,
          "time": 67.60000000000004,
          "velocity": 1,
          "duration": 0.13750000000000284
        },
        {
          "name": "E2",
          "midi": 40,
          "time": 67.80000000000004,
          "velocity": 1,
          "duration": 0.13333333333333997
        },
        {
          "name": "B1",
          "midi": 35,
          "time": 68.60000000000005,
          "velocity": 1,
          "duration": 0.13333333333333997
        },
        {
          "name": "E2",
          "midi": 40,
          "time": 68.80000000000005,
          "velocity": 1,
          "duration": 0.09166666666666856
        },
        {
          "name": "B1",
          "midi": 35,
          "time": 69.00000000000006,
          "velocity": 1,
          "duration": 0.07916666666666572
        },
        {
          "name": "E1",
          "midi": 28,
          "time": 69.20000000000006,
          "velocity": 1,
          "duration": 0.9333333333333371
        },
        {
          "name": "G1",
          "midi": 31,
          "time": 70.40000000000006,
          "velocity": 1,
          "duration": 0.09999999999999432
        },
        {
          "name": "G1",
          "midi": 31,
          "time": 70.60000000000005,
          "velocity": 1,
          "duration": 0.11249999999999716
        },
        {
          "name": "D2",
          "midi": 38,
          "time": 70.80000000000005,
          "velocity": 1,
          "duration": 0.1458333333333286
        },
        {
          "name": "G2",
          "midi": 43,
          "time": 71.00000000000004,
          "velocity": 1,
          "duration": 0.17083333333333428
        },
        {
          "name": "D2",
          "midi": 38,
          "time": 71.80000000000004,
          "velocity": 1,
          "duration": 0.1041666666666714
        },
        {
          "name": "G2",
          "midi": 43,
          "time": 72.00000000000004,
          "velocity": 1,
          "duration": 0.0833333333333286
        },
        {
          "name": "G2",
          "midi": 43,
          "time": 72.20000000000003,
          "velocity": 1,
          "duration": 0.07916666666666572
        },
        {
          "name": "D2",
          "midi": 38,
          "time": 72.40000000000003,
          "velocity": 1,
          "duration": 0.7000000000000028
        },
        {
          "name": "D2",
          "midi": 38,
          "time": 73.60000000000004,
          "velocity": 1,
          "duration": 0.11249999999999716
        },
        {
          "name": "D2",
          "midi": 38,
          "time": 73.80000000000004,
          "velocity": 1,
          "duration": 0.13750000000000284
        },
        {
          "name": "A2",
          "midi": 45,
          "time": 74.00000000000004,
          "velocity": 1,
          "duration": 0.15000000000000568
        },
        {
          "name": "D3",
          "midi": 50,
          "time": 74.20000000000005,
          "velocity": 1,
          "duration": 0.15000000000000568
        },
        {
          "name": "A2",
          "midi": 45,
          "time": 75.00000000000006,
          "velocity": 1,
          "duration": 0.11249999999999716
        },
        {
          "name": "D3",
          "midi": 50,
          "time": 75.20000000000006,
          "velocity": 1,
          "duration": 0.07916666666666572
        },
        {
          "name": "A2",
          "midi": 45,
          "time": 75.40000000000006,
          "velocity": 1,
          "duration": 0.07916666666666572
        },
        {
          "name": "D2",
          "midi": 38,
          "time": 75.60000000000007,
          "velocity": 1,
          "duration": 0.9124999999999943
        },
        {
          "name": "E1",
          "midi": 28,
          "time": 76.80000000000005,
          "velocity": 1,
          "duration": 0.11666666666666003
        },
        {
          "name": "E1",
          "midi": 28,
          "time": 77.00000000000004,
          "velocity": 1,
          "duration": 0.11249999999999716
        },
        {
          "name": "B1",
          "midi": 35,
          "time": 77.20000000000005,
          "velocity": 1,
          "duration": 0.13750000000000284
        },
        {
          "name": "E2",
          "midi": 40,
          "time": 77.40000000000005,
          "velocity": 1,
          "duration": 0.13333333333333997
        },
        {
          "name": "B1",
          "midi": 35,
          "time": 78.20000000000006,
          "velocity": 1,
          "duration": 0.1041666666666714
        },
        {
          "name": "E2",
          "midi": 40,
          "time": 78.40000000000006,
          "velocity": 1,
          "duration": 0.1041666666666714
        },
        {
          "name": "E2",
          "midi": 40,
          "time": 78.60000000000007,
          "velocity": 1,
          "duration": 0.09166666666666856
        },
        {
          "name": "B1",
          "midi": 35,
          "time": 78.80000000000007,
          "velocity": 1,
          "duration": 0.7374999999999972
        },
        {
          "name": "F#1",
          "midi": 30,
          "time": 80.00000000000007,
          "velocity": 1,
          "duration": 0.09166666666666856
        },
        {
          "name": "F#1",
          "midi": 30,
          "time": 80.20000000000007,
          "velocity": 1,
          "duration": 0.0833333333333286
        },
        {
          "name": "C#2",
          "midi": 37,
          "time": 80.40000000000006,
          "velocity": 1,
          "duration": 0.125
        },
        {
          "name": "F#2",
          "midi": 42,
          "time": 80.60000000000007,
          "velocity": 1,
          "duration": 0.13750000000000284
        },
        {
          "name": "C#2",
          "midi": 37,
          "time": 81.40000000000006,
          "velocity": 1,
          "duration": 0.1041666666666714
        },
        {
          "name": "F#2",
          "midi": 42,
          "time": 81.60000000000007,
          "velocity": 1,
          "duration": 0.15000000000000568
        },
        {
          "name": "C#2",
          "midi": 37,
          "time": 82.20000000000007,
          "velocity": 1,
          "duration": 0.09999999999999432
        },
        {
          "name": "F#2",
          "midi": 42,
          "time": 82.40000000000006,
          "velocity": 1,
          "duration": 0.19166666666666288
        },
        {
          "name": "B1",
          "midi": 35,
          "time": 83.20000000000006,
          "velocity": 1,
          "duration": 0.19166666666666288
        },
        {
          "name": "B1",
          "midi": 35,
          "time": 83.40000000000006,
          "velocity": 1,
          "duration": 0.19166666666666288
        },
        {
          "name": "F#2",
          "midi": 42,
          "time": 83.60000000000007,
          "velocity": 1,
          "duration": 0.19166666666666288
        },
        {
          "name": "B2",
          "midi": 47,
          "time": 83.80000000000007,
          "velocity": 1,
          "duration": 0.19166666666666288
        },
        {
          "name": "F#2",
          "midi": 42,
          "time": 84.60000000000007,
          "velocity": 1,
          "duration": 0.19166666666666288
        },
        {
          "name": "B2",
          "midi": 47,
          "time": 84.80000000000007,
          "velocity": 1,
          "duration": 0.09999999999999432
        },
        {
          "name": "B2",
          "midi": 47,
          "time": 85.00000000000006,
          "velocity": 1,
          "duration": 0.09999999999999432
        },
        {
          "name": "F#2",
          "midi": 42,
          "time": 85.20000000000005,
          "velocity": 1,
          "duration": 1.2000000000000028
        },
        {
          "name": "F#1",
          "midi": 30,
          "time": 86.40000000000005,
          "velocity": 1,
          "duration": 0.125
        },
        {
          "name": "F#1",
          "midi": 30,
          "time": 86.60000000000005,
          "velocity": 1,
          "duration": 0.15833333333333144
        },
        {
          "name": "C#2",
          "midi": 37,
          "time": 86.80000000000005,
          "velocity": 1,
          "duration": 0.15833333333333144
        },
        {
          "name": "F#2",
          "midi": 42,
          "time": 87.00000000000006,
          "velocity": 1,
          "duration": 0.15000000000000568
        },
        {
          "name": "C#2",
          "midi": 37,
          "time": 87.80000000000007,
          "velocity": 1,
          "duration": 0.13333333333333997
        },
        {
          "name": "F#2",
          "midi": 42,
          "time": 88.00000000000007,
          "velocity": 1,
          "duration": 0.11666666666666003
        },
        {
          "name": "C#2",
          "midi": 37,
          "time": 88.20000000000006,
          "velocity": 1,
          "duration": 0.1458333333333286
        },
        {
          "name": "F#1",
          "midi": 30,
          "time": 88.40000000000005,
          "velocity": 1,
          "duration": 1.0583333333333371
        },
        {
          "name": "A1",
          "midi": 33,
          "time": 89.60000000000005,
          "velocity": 1,
          "duration": 0.13333333333333997
        },
        {
          "name": "A1",
          "midi": 33,
          "time": 89.80000000000005,
          "velocity": 1,
          "duration": 0.13333333333333997
        },
        {
          "name": "E2",
          "midi": 40,
          "time": 90.00000000000006,
          "velocity": 1,
          "duration": 0.15833333333333144
        },
        {
          "name": "A2",
          "midi": 45,
          "time": 90.20000000000006,
          "velocity": 1,
          "duration": 0.21666666666666856
        },
        {
          "name": "E2",
          "midi": 40,
          "time": 91.00000000000006,
          "velocity": 1,
          "duration": 0.17083333333333428
        },
        {
          "name": "A2",
          "midi": 45,
          "time": 91.20000000000006,
          "velocity": 1,
          "duration": 0.0833333333333286
        },
        {
          "name": "A2",
          "midi": 45,
          "time": 91.40000000000005,
          "velocity": 1,
          "duration": 0.07916666666666572
        },
        {
          "name": "E2",
          "midi": 40,
          "time": 91.60000000000005,
          "velocity": 1,
          "duration": 1.0041666666666629
        },
        {
          "name": "E1",
          "midi": 28,
          "time": 92.80000000000005,
          "velocity": 1,
          "duration": 0.11666666666666003
        },
        {
          "name": "E1",
          "midi": 28,
          "time": 93.00000000000004,
          "velocity": 1,
          "duration": 0.13750000000000284
        },
        {
          "name": "B1",
          "midi": 35,
          "time": 93.20000000000005,
          "velocity": 1,
          "duration": 0.13750000000000284
        },
        {
          "name": "E2",
          "midi": 40,
          "time": 93.40000000000005,
          "velocity": 1,
          "duration": 0.13333333333333997
        },
        {
          "name": "B1",
          "midi": 35,
          "time": 94.20000000000006,
          "velocity": 1,
          "duration": 0.13333333333333997
        },
        {
          "name": "E2",
          "midi": 40,
          "time": 94.40000000000006,
          "velocity": 1,
          "duration": 0.09166666666666856
        },
        {
          "name": "B1",
          "midi": 35,
          "time": 94.60000000000007,
          "velocity": 1,
          "duration": 0.07916666666666572
        },
        {
          "name": "E1",
          "midi": 28,
          "time": 94.80000000000007,
          "velocity": 1,
          "duration": 0.9333333333333371
        },
        {
          "name": "G1",
          "midi": 31,
          "time": 96.00000000000007,
          "velocity": 1,
          "duration": 0.09999999999999432
        },
        {
          "name": "G1",
          "midi": 31,
          "time": 96.20000000000006,
          "velocity": 1,
          "duration": 0.11249999999999716
        },
        {
          "name": "D2",
          "midi": 38,
          "time": 96.40000000000006,
          "velocity": 1,
          "duration": 0.1458333333333286
        },
        {
          "name": "G2",
          "midi": 43,
          "time": 96.60000000000005,
          "velocity": 1,
          "duration": 0.17083333333333428
        },
        {
          "name": "D2",
          "midi": 38,
          "time": 97.40000000000005,
          "velocity": 1,
          "duration": 0.1041666666666714
        },
        {
          "name": "G2",
          "midi": 43,
          "time": 97.60000000000005,
          "velocity": 1,
          "duration": 0.0833333333333286
        },
        {
          "name": "G2",
          "midi": 43,
          "time": 97.80000000000004,
          "velocity": 1,
          "duration": 0.07916666666666572
        },
        {
          "name": "D2",
          "midi": 38,
          "time": 98.00000000000004,
          "velocity": 1,
          "duration": 0.7000000000000028
        },
        {
          "name": "D2",
          "midi": 38,
          "time": 99.20000000000005,
          "velocity": 1,
          "duration": 0.11249999999999716
        },
        {
          "name": "D2",
          "midi": 38,
          "time": 99.40000000000005,
          "velocity": 1,
          "duration": 0.13750000000000284
        },
        {
          "name": "A2",
          "midi": 45,
          "time": 99.60000000000005,
          "velocity": 1,
          "duration": 0.15000000000000568
        },
        {
          "name": "D3",
          "midi": 50,
          "time": 99.80000000000005,
          "velocity": 1,
          "duration": 0.15000000000000568
        },
        {
          "name": "A2",
          "midi": 45,
          "time": 100.60000000000007,
          "velocity": 1,
          "duration": 0.11249999999999716
        },
        {
          "name": "D3",
          "midi": 50,
          "time": 100.80000000000007,
          "velocity": 1,
          "duration": 0.07916666666666572
        },
        {
          "name": "A2",
          "midi": 45,
          "time": 101.00000000000007,
          "velocity": 1,
          "duration": 0.07916666666666572
        },
        {
          "name": "D2",
          "midi": 38,
          "time": 101.20000000000007,
          "velocity": 1,
          "duration": 0.9124999999999943
        },
        {
          "name": "E1",
          "midi": 28,
          "time": 102.40000000000006,
          "velocity": 1,
          "duration": 0.11666666666666003
        },
        {
          "name": "E1",
          "midi": 28,
          "time": 102.60000000000005,
          "velocity": 1,
          "duration": 0.11249999999999716
        },
        {
          "name": "B1",
          "midi": 35,
          "time": 102.80000000000005,
          "velocity": 1,
          "duration": 0.13750000000000284
        },
        {
          "name": "E2",
          "midi": 40,
          "time": 103.00000000000006,
          "velocity": 1,
          "duration": 0.13333333333333997
        },
        {
          "name": "B1",
          "midi": 35,
          "time": 103.80000000000007,
          "velocity": 1,
          "duration": 0.1041666666666714
        },
        {
          "name": "E2",
          "midi": 40,
          "time": 104.00000000000007,
          "velocity": 1,
          "duration": 0.1041666666666714
        },
        {
          "name": "E2",
          "midi": 40,
          "time": 104.20000000000007,
          "velocity": 1,
          "duration": 0.09166666666666856
        },
        {
          "name": "B1",
          "midi": 35,
          "time": 104.40000000000008,
          "velocity": 1,
          "duration": 0.7374999999999972
        },
        {
          "name": "F#1",
          "midi": 30,
          "time": 105.60000000000008,
          "velocity": 1,
          "duration": 0.09166666666666856
        },
        {
          "name": "F#1",
          "midi": 30,
          "time": 105.80000000000008,
          "velocity": 1,
          "duration": 0.0833333333333286
        },
        {
          "name": "C#2",
          "midi": 37,
          "time": 106.00000000000007,
          "velocity": 1,
          "duration": 0.125
        },
        {
          "name": "F#2",
          "midi": 42,
          "time": 106.20000000000007,
          "velocity": 1,
          "duration": 0.13750000000000284
        },
        {
          "name": "C#2",
          "midi": 37,
          "time": 107.00000000000007,
          "velocity": 1,
          "duration": 0.1041666666666714
        },
        {
          "name": "F#2",
          "midi": 42,
          "time": 107.20000000000007,
          "velocity": 1,
          "duration": 0.15000000000000568
        },
        {
          "name": "B1",
          "midi": 35,
          "time": 108.00000000000009,
          "velocity": 0.8818897637795275,
          "duration": 0.13750000000000284
        },
        {
          "name": "C#2",
          "midi": 37,
          "time": 108.20000000000009,
          "velocity": 0.8818897637795275,
          "duration": 0.13333333333333997
        },
        {
          "name": "D2",
          "midi": 38,
          "time": 108.40000000000009,
          "velocity": 0.8661417322834646,
          "duration": 0.125
        },
        {
          "name": "F#2",
          "midi": 42,
          "time": 108.6000000000001,
          "velocity": 0.84251968503937,
          "duration": 0.13333333333333997
        },
        {
          "name": "G2",
          "midi": 43,
          "time": 108.8000000000001,
          "velocity": 0.7007874015748031,
          "duration": 0.125
        },
        {
          "name": "D2",
          "midi": 38,
          "time": 109.0000000000001,
          "velocity": 0.8661417322834646,
          "duration": 0.11666666666666003
        },
        {
          "name": "G1",
          "midi": 31,
          "time": 109.20000000000009,
          "velocity": 0.8818897637795275,
          "duration": 0.125
        },
        {
          "name": "D2",
          "midi": 38,
          "time": 110.20000000000009,
          "velocity": 0.8188976377952756,
          "duration": 0.1041666666666714
        },
        {
          "name": "G2",
          "midi": 43,
          "time": 110.40000000000009,
          "velocity": 0.8267716535433071,
          "duration": 0.1666666666666714
        },
        {
          "name": "G2",
          "midi": 43,
          "time": 111.2000000000001,
          "velocity": 0.9212598425196851,
          "duration": 0.09999999999999432
        },
        {
          "name": "D2",
          "midi": 38,
          "time": 111.40000000000009,
          "velocity": 0.905511811023622,
          "duration": 0.1041666666666714
        },
        {
          "name": "G1",
          "midi": 31,
          "time": 111.6000000000001,
          "velocity": 0.8661417322834646,
          "duration": 0.21250000000000568
        },
        {
          "name": "D3",
          "midi": 50,
          "time": 112.0000000000001,
          "velocity": 0.8818897637795275,
          "duration": 0.09999999999999432
        },
        {
          "name": "A2",
          "midi": 45,
          "time": 112.20000000000009,
          "velocity": 0.937007874015748,
          "duration": 0.07083333333333997
        },
        {
          "name": "D2",
          "midi": 38,
          "time": 112.40000000000009,
          "velocity": 0.8818897637795275,
          "duration": 0.20000000000000284
        },
        {
          "name": "A2",
          "midi": 45,
          "time": 113.40000000000009,
          "velocity": 0.6692913385826772,
          "duration": 0.1041666666666714
        },
        {
          "name": "D3",
          "midi": 50,
          "time": 113.6000000000001,
          "velocity": 0.7795275590551181,
          "duration": 0.15833333333333144
        },
        {
          "name": "A2",
          "midi": 45,
          "time": 114.20000000000009,
          "velocity": 0.7795275590551181,
          "duration": 0.11249999999999716
        },
        {
          "name": "D3",
          "midi": 50,
          "time": 114.40000000000009,
          "velocity": 0.7952755905511811,
          "duration": 0.3583333333333343
        },
        {
          "name": "A2",
          "midi": 45,
          "time": 114.8000000000001,
          "velocity": 0.8661417322834646,
          "duration": 0.22499999999999432
        },
        {
          "name": "F#2",
          "midi": 42,
          "time": 115.20000000000009,
          "velocity": 0.7795275590551181,
          "duration": 0.09166666666666856
        },
        {
          "name": "C#2",
          "midi": 37,
          "time": 115.40000000000009,
          "velocity": 0.8818897637795275,
          "duration": 0.11666666666666003
        },
        {
          "name": "F#1",
          "midi": 30,
          "time": 115.60000000000008,
          "velocity": 0.7165354330708661,
          "duration": 0.21666666666666856
        },
        {
          "name": "F#2",
          "midi": 42,
          "time": 116.80000000000008,
          "velocity": 0.7165354330708661,
          "duration": 0.09166666666666856
        },
        {
          "name": "E2",
          "midi": 40,
          "time": 117.00000000000009,
          "velocity": 0.9212598425196851,
          "duration": 0.5583333333333371
        },
        {
          "name": "D2",
          "midi": 38,
          "time": 117.6000000000001,
          "velocity": 0.905511811023622,
          "duration": 0.1041666666666714
        },
        {
          "name": "C#2",
          "midi": 37,
          "time": 117.8000000000001,
          "velocity": 0.6692913385826772,
          "duration": 0.3791666666666629
        },
        {
          "name": "B1",
          "midi": 35,
          "time": 118.40000000000009,
          "velocity": 0.8661417322834646,
          "duration": 0.8125
        },
        {
          "name": "C#2",
          "midi": 37,
          "time": 119.20000000000009,
          "velocity": 0.8267716535433071,
          "duration": 0.7833333333333314
        },
        {
          "name": "D2",
          "midi": 38,
          "time": 120.00000000000009,
          "velocity": 0.937007874015748,
          "duration": 0.7708333333333286
        },
        {
          "name": "E2",
          "midi": 40,
          "time": 120.80000000000008,
          "velocity": 0.9212598425196851,
          "duration": 0.3708333333333371
        },
        {
          "name": "F#2",
          "midi": 42,
          "time": 121.20000000000009,
          "velocity": 0.8110236220472441,
          "duration": 0.23333333333333428
        },
        {
          "name": "G2",
          "midi": 43,
          "time": 121.6000000000001,
          "velocity": 0.7007874015748031,
          "duration": 0.125
        },
        {
          "name": "D2",
          "midi": 38,
          "time": 121.8000000000001,
          "velocity": 0.8661417322834646,
          "duration": 0.11666666666666003
        },
        {
          "name": "G1",
          "midi": 31,
          "time": 122.00000000000009,
          "velocity": 0.8818897637795275,
          "duration": 0.125
        },
        {
          "name": "D2",
          "midi": 38,
          "time": 123.00000000000009,
          "velocity": 0.8188976377952756,
          "duration": 0.1041666666666714
        },
        {
          "name": "G2",
          "midi": 43,
          "time": 123.20000000000009,
          "velocity": 0.8267716535433071,
          "duration": 0.1666666666666714
        },
        {
          "name": "G2",
          "midi": 43,
          "time": 124.0000000000001,
          "velocity": 0.9212598425196851,
          "duration": 0.09999999999999432
        },
        {
          "name": "D2",
          "midi": 38,
          "time": 124.20000000000009,
          "velocity": 0.905511811023622,
          "duration": 0.1041666666666714
        },
        {
          "name": "G1",
          "midi": 31,
          "time": 124.40000000000009,
          "velocity": 0.8661417322834646,
          "duration": 0.21250000000000568
        },
        {
          "name": "D3",
          "midi": 50,
          "time": 124.8000000000001,
          "velocity": 0.8818897637795275,
          "duration": 0.09999999999999432
        },
        {
          "name": "A2",
          "midi": 45,
          "time": 125.00000000000009,
          "velocity": 0.937007874015748,
          "duration": 0.07083333333333997
        },
        {
          "name": "D2",
          "midi": 38,
          "time": 125.20000000000009,
          "velocity": 0.8818897637795275,
          "duration": 0.20000000000000284
        },
        {
          "name": "A2",
          "midi": 45,
          "time": 126.20000000000009,
          "velocity": 0.7322834645669292,
          "duration": 0.11666666666666003
        },
        {
          "name": "D3",
          "midi": 50,
          "time": 126.40000000000008,
          "velocity": 0.8818897637795275,
          "duration": 0.17083333333333428
        },
        {
          "name": "A2",
          "midi": 45,
          "time": 127.00000000000007,
          "velocity": 0.7716535433070866,
          "duration": 0.11666666666666003
        },
        {
          "name": "D3",
          "midi": 50,
          "time": 127.20000000000006,
          "velocity": 0.9212598425196851,
          "duration": 0.34583333333333144
        },
        {
          "name": "A2",
          "midi": 45,
          "time": 127.60000000000005,
          "velocity": 0.8818897637795275,
          "duration": 0.17083333333333428
        },
        {
          "name": "E2",
          "midi": 40,
          "time": 128.00000000000006,
          "velocity": 0.8267716535433071,
          "duration": 0.125
        },
        {
          "name": "B1",
          "midi": 35,
          "time": 128.20000000000005,
          "velocity": 0.8818897637795275,
          "duration": 0.10416666666665719
        },
        {
          "name": "E1",
          "midi": 28,
          "time": 128.40000000000003,
          "velocity": 0.8267716535433071,
          "duration": 0.1666666666666572
        },
        {
          "name": "B1",
          "midi": 35,
          "time": 129.40000000000003,
          "velocity": 0.7401574803149606,
          "duration": 0.10416666666665719
        },
        {
          "name": "E2",
          "midi": 40,
          "time": 129.60000000000002,
          "velocity": 0.905511811023622,
          "duration": 0.1458333333333428
        },
        {
          "name": "B1",
          "midi": 35,
          "time": 130.20000000000005,
          "velocity": 0.8267716535433071,
          "duration": 0.10416666666665719
        },
        {
          "name": "E2",
          "midi": 40,
          "time": 130.40000000000003,
          "velocity": 0.905511811023622,
          "duration": 0.3166666666666629
        },
        {
          "name": "B1",
          "midi": 35,
          "time": 130.80000000000004,
          "velocity": 0.9212598425196851,
          "duration": 0.125
        },
        {
          "name": "F#2",
          "midi": 42,
          "time": 131.20000000000005,
          "velocity": 0.984251968503937,
          "duration": 0.19166666666666288
        },
        {
          "name": "C#2",
          "midi": 37,
          "time": 131.40000000000003,
          "velocity": 0.984251968503937,
          "duration": 0.19166666666666288
        },
        {
          "name": "F#2",
          "midi": 42,
          "time": 131.60000000000002,
          "velocity": 0.984251968503937,
          "duration": 0.19166666666666288
        },
        {
          "name": "C#2",
          "midi": 37,
          "time": 132.60000000000002,
          "velocity": 0.984251968503937,
          "duration": 0.19166666666666288
        },
        {
          "name": "F#2",
          "midi": 42,
          "time": 132.8,
          "velocity": 0.9921259842519685,
          "duration": 0.19166666666666288
        },
        {
          "name": "C#2",
          "midi": 37,
          "time": 133.4,
          "velocity": 0.9921259842519685,
          "duration": 0.19166666666666288
        },
        {
          "name": "F#2",
          "midi": 42,
          "time": 133.6,
          "velocity": 0.9921259842519685,
          "duration": 0.19166666666666288
        },
        {
          "name": "B1",
          "midi": 35,
          "time": 134.39999999999998,
          "velocity": 1,
          "duration": 0.19166666666666288
        },
        {
          "name": "B1",
          "midi": 35,
          "time": 134.59999999999997,
          "velocity": 1,
          "duration": 0.19166666666666288
        },
        {
          "name": "F#2",
          "midi": 42,
          "time": 134.79999999999995,
          "velocity": 1,
          "duration": 0.19166666666666288
        },
        {
          "name": "B2",
          "midi": 47,
          "time": 134.99999999999994,
          "velocity": 1,
          "duration": 0.19166666666666288
        },
        {
          "name": "F#2",
          "midi": 42,
          "time": 135.79999999999993,
          "velocity": 1,
          "duration": 0.19166666666666288
        },
        {
          "name": "B2",
          "midi": 47,
          "time": 135.99999999999991,
          "velocity": 1,
          "duration": 0.09999999999999432
        },
        {
          "name": "B2",
          "midi": 47,
          "time": 136.1999999999999,
          "velocity": 1,
          "duration": 0.09999999999999432
        },
        {
          "name": "F#2",
          "midi": 42,
          "time": 136.3999999999999,
          "velocity": 1,
          "duration": 1.1999999999999886
        },
        {
          "name": "F#1",
          "midi": 30,
          "time": 137.59999999999988,
          "velocity": 1,
          "duration": 0.125
        },
        {
          "name": "F#1",
          "midi": 30,
          "time": 137.79999999999987,
          "velocity": 1,
          "duration": 0.15833333333333144
        },
        {
          "name": "C#2",
          "midi": 37,
          "time": 137.99999999999986,
          "velocity": 1,
          "duration": 0.15833333333333144
        },
        {
          "name": "F#2",
          "midi": 42,
          "time": 138.19999999999985,
          "velocity": 1,
          "duration": 0.15000000000000568
        },
        {
          "name": "C#2",
          "midi": 37,
          "time": 138.99999999999986,
          "velocity": 1,
          "duration": 0.13333333333332575
        },
        {
          "name": "F#2",
          "midi": 42,
          "time": 139.19999999999985,
          "velocity": 1,
          "duration": 0.11666666666667425
        },
        {
          "name": "C#2",
          "midi": 37,
          "time": 139.39999999999986,
          "velocity": 1,
          "duration": 0.1458333333333428
        },
        {
          "name": "F#1",
          "midi": 30,
          "time": 139.59999999999988,
          "velocity": 1,
          "duration": 1.0583333333333371
        },
        {
          "name": "A1",
          "midi": 33,
          "time": 140.7999999999999,
          "velocity": 1,
          "duration": 0.13333333333332575
        },
        {
          "name": "A1",
          "midi": 33,
          "time": 140.9999999999999,
          "velocity": 1,
          "duration": 0.13333333333332575
        },
        {
          "name": "E2",
          "midi": 40,
          "time": 141.19999999999987,
          "velocity": 1,
          "duration": 0.15833333333333144
        },
        {
          "name": "A2",
          "midi": 45,
          "time": 141.39999999999986,
          "velocity": 1,
          "duration": 0.21666666666666856
        },
        {
          "name": "E2",
          "midi": 40,
          "time": 142.19999999999987,
          "velocity": 1,
          "duration": 0.17083333333332007
        },
        {
          "name": "A2",
          "midi": 45,
          "time": 142.39999999999986,
          "velocity": 1,
          "duration": 0.08333333333334281
        },
        {
          "name": "A2",
          "midi": 45,
          "time": 142.59999999999988,
          "velocity": 1,
          "duration": 0.07916666666667993
        },
        {
          "name": "E2",
          "midi": 40,
          "time": 142.7999999999999,
          "velocity": 1,
          "duration": 1.0041666666666629
        },
        {
          "name": "E1",
          "midi": 28,
          "time": 143.9999999999999,
          "velocity": 1,
          "duration": 0.11666666666667425
        },
        {
          "name": "E1",
          "midi": 28,
          "time": 144.1999999999999,
          "velocity": 1,
          "duration": 0.13749999999998863
        },
        {
          "name": "B1",
          "midi": 35,
          "time": 144.3999999999999,
          "velocity": 1,
          "duration": 0.13749999999998863
        },
        {
          "name": "E2",
          "midi": 40,
          "time": 144.59999999999988,
          "velocity": 1,
          "duration": 0.13333333333332575
        },
        {
          "name": "B1",
          "midi": 35,
          "time": 145.39999999999986,
          "velocity": 1,
          "duration": 0.13333333333332575
        },
        {
          "name": "E2",
          "midi": 40,
          "time": 145.59999999999985,
          "velocity": 1,
          "duration": 0.09166666666666856
        },
        {
          "name": "B1",
          "midi": 35,
          "time": 145.79999999999984,
          "velocity": 1,
          "duration": 0.07916666666667993
        },
        {
          "name": "E1",
          "midi": 28,
          "time": 145.99999999999986,
          "velocity": 1,
          "duration": 0.9333333333333371
        },
        {
          "name": "G1",
          "midi": 31,
          "time": 147.19999999999987,
          "velocity": 1,
          "duration": 0.09999999999999432
        },
        {
          "name": "G1",
          "midi": 31,
          "time": 147.39999999999986,
          "velocity": 1,
          "duration": 0.11250000000001137
        },
        {
          "name": "D2",
          "midi": 38,
          "time": 147.59999999999988,
          "velocity": 1,
          "duration": 0.1458333333333428
        },
        {
          "name": "G2",
          "midi": 43,
          "time": 147.7999999999999,
          "velocity": 1,
          "duration": 0.17083333333332007
        },
        {
          "name": "D2",
          "midi": 38,
          "time": 148.59999999999988,
          "velocity": 1,
          "duration": 0.10416666666665719
        },
        {
          "name": "G2",
          "midi": 43,
          "time": 148.79999999999987,
          "velocity": 1,
          "duration": 0.08333333333334281
        },
        {
          "name": "G2",
          "midi": 43,
          "time": 148.9999999999999,
          "velocity": 1,
          "duration": 0.07916666666667993
        },
        {
          "name": "D2",
          "midi": 38,
          "time": 149.1999999999999,
          "velocity": 1,
          "duration": 0.6999999999999886
        },
        {
          "name": "D2",
          "midi": 38,
          "time": 150.3999999999999,
          "velocity": 1,
          "duration": 0.11250000000001137
        },
        {
          "name": "D2",
          "midi": 38,
          "time": 150.5999999999999,
          "velocity": 1,
          "duration": 0.13749999999998863
        },
        {
          "name": "A2",
          "midi": 45,
          "time": 150.7999999999999,
          "velocity": 1,
          "duration": 0.15000000000000568
        },
        {
          "name": "D3",
          "midi": 50,
          "time": 150.99999999999991,
          "velocity": 1,
          "duration": 0.15000000000000568
        },
        {
          "name": "A2",
          "midi": 45,
          "time": 151.79999999999993,
          "velocity": 1,
          "duration": 0.11250000000001137
        },
        {
          "name": "D3",
          "midi": 50,
          "time": 151.99999999999994,
          "velocity": 1,
          "duration": 0.07916666666667993
        },
        {
          "name": "A2",
          "midi": 45,
          "time": 152.19999999999996,
          "velocity": 1,
          "duration": 0.07916666666667993
        },
        {
          "name": "D2",
          "midi": 38,
          "time": 152.39999999999998,
          "velocity": 1,
          "duration": 0.9124999999999943
        },
        {
          "name": "E1",
          "midi": 28,
          "time": 153.59999999999997,
          "velocity": 1,
          "duration": 0.11666666666667425
        },
        {
          "name": "E1",
          "midi": 28,
          "time": 153.79999999999998,
          "velocity": 1,
          "duration": 0.11250000000001137
        },
        {
          "name": "B1",
          "midi": 35,
          "time": 154,
          "velocity": 1,
          "duration": 0.13749999999998863
        },
        {
          "name": "E2",
          "midi": 40,
          "time": 154.2,
          "velocity": 1,
          "duration": 0.13333333333332575
        },
        {
          "name": "B1",
          "midi": 35,
          "time": 154.99999999999997,
          "velocity": 1,
          "duration": 0.10416666666665719
        },
        {
          "name": "E2",
          "midi": 40,
          "time": 155.19999999999996,
          "velocity": 1,
          "duration": 0.10416666666665719
        },
        {
          "name": "E2",
          "midi": 40,
          "time": 155.39999999999995,
          "velocity": 1,
          "duration": 0.09166666666666856
        },
        {
          "name": "B1",
          "midi": 35,
          "time": 155.59999999999994,
          "velocity": 1,
          "duration": 0.7375000000000114
        },
        {
          "name": "F#1",
          "midi": 30,
          "time": 156.79999999999995,
          "velocity": 1,
          "duration": 0.09166666666666856
        },
        {
          "name": "F#1",
          "midi": 30,
          "time": 156.99999999999994,
          "velocity": 1,
          "duration": 0.08333333333334281
        },
        {
          "name": "C#2",
          "midi": 37,
          "time": 157.19999999999996,
          "velocity": 1,
          "duration": 0.125
        },
        {
          "name": "F#2",
          "midi": 42,
          "time": 157.39999999999995,
          "velocity": 1,
          "duration": 0.13749999999998863
        },
        {
          "name": "C#2",
          "midi": 37,
          "time": 158.19999999999993,
          "velocity": 1,
          "duration": 0.10416666666665719
        },
        {
          "name": "F#2",
          "midi": 42,
          "time": 158.39999999999992,
          "velocity": 1,
          "duration": 0.15000000000000568
        },
        {
          "name": "C#2",
          "midi": 37,
          "time": 158.99999999999991,
          "velocity": 1,
          "duration": 0.09999999999999432
        },
        {
          "name": "F#2",
          "midi": 42,
          "time": 159.1999999999999,
          "velocity": 1,
          "duration": 0.19166666666666288
        },
        {
          "name": "B1",
          "midi": 35,
          "time": 159.9999999999999,
          "velocity": 1,
          "duration": 0.19166666666666288
        },
        {
          "name": "B1",
          "midi": 35,
          "time": 160.19999999999987,
          "velocity": 1,
          "duration": 0.19166666666666288
        },
        {
          "name": "F#2",
          "midi": 42,
          "time": 160.39999999999986,
          "velocity": 1,
          "duration": 0.19166666666666288
        },
        {
          "name": "B2",
          "midi": 47,
          "time": 160.59999999999985,
          "velocity": 1,
          "duration": 0.19166666666666288
        },
        {
          "name": "F#2",
          "midi": 42,
          "time": 161.39999999999984,
          "velocity": 1,
          "duration": 0.19166666666666288
        },
        {
          "name": "B2",
          "midi": 47,
          "time": 161.59999999999982,
          "velocity": 1,
          "duration": 0.09999999999999432
        },
        {
          "name": "B2",
          "midi": 47,
          "time": 161.7999999999998,
          "velocity": 1,
          "duration": 0.09999999999999432
        },
        {
          "name": "F#2",
          "midi": 42,
          "time": 161.9999999999998,
          "velocity": 1,
          "duration": 1.1999999999999886
        },
        {
          "name": "F#1",
          "midi": 30,
          "time": 163.1999999999998,
          "velocity": 1,
          "duration": 0.125
        },
        {
          "name": "F#1",
          "midi": 30,
          "time": 163.39999999999978,
          "velocity": 1,
          "duration": 0.15833333333333144
        },
        {
          "name": "C#2",
          "midi": 37,
          "time": 163.59999999999977,
          "velocity": 1,
          "duration": 0.15833333333333144
        },
        {
          "name": "F#2",
          "midi": 42,
          "time": 163.79999999999976,
          "velocity": 1,
          "duration": 0.15000000000000568
        },
        {
          "name": "C#2",
          "midi": 37,
          "time": 164.59999999999977,
          "velocity": 1,
          "duration": 0.13333333333332575
        },
        {
          "name": "F#2",
          "midi": 42,
          "time": 164.79999999999976,
          "velocity": 1,
          "duration": 0.11666666666667425
        },
        {
          "name": "C#2",
          "midi": 37,
          "time": 164.99999999999977,
          "velocity": 1,
          "duration": 0.1458333333333428
        },
        {
          "name": "F#1",
          "midi": 30,
          "time": 165.1999999999998,
          "velocity": 1,
          "duration": 1.0583333333333371
        },
        {
          "name": "A1",
          "midi": 33,
          "time": 166.3999999999998,
          "velocity": 1,
          "duration": 0.13333333333332575
        },
        {
          "name": "A1",
          "midi": 33,
          "time": 166.5999999999998,
          "velocity": 1,
          "duration": 0.13333333333332575
        },
        {
          "name": "E2",
          "midi": 40,
          "time": 166.79999999999978,
          "velocity": 1,
          "duration": 0.15833333333333144
        },
        {
          "name": "A2",
          "midi": 45,
          "time": 166.99999999999977,
          "velocity": 1,
          "duration": 0.21666666666666856
        },
        {
          "name": "E2",
          "midi": 40,
          "time": 167.79999999999978,
          "velocity": 1,
          "duration": 0.17083333333332007
        },
        {
          "name": "A2",
          "midi": 45,
          "time": 167.99999999999977,
          "velocity": 1,
          "duration": 0.08333333333334281
        },
        {
          "name": "A2",
          "midi": 45,
          "time": 168.1999999999998,
          "velocity": 1,
          "duration": 0.07916666666667993
        },
        {
          "name": "E2",
          "midi": 40,
          "time": 168.3999999999998,
          "velocity": 1,
          "duration": 1.0041666666666629
        },
        {
          "name": "E1",
          "midi": 28,
          "time": 169.5999999999998,
          "velocity": 1,
          "duration": 0.11666666666667425
        },
        {
          "name": "E1",
          "midi": 28,
          "time": 169.7999999999998,
          "velocity": 1,
          "duration": 0.13749999999998863
        },
        {
          "name": "B1",
          "midi": 35,
          "time": 169.9999999999998,
          "velocity": 1,
          "duration": 0.13749999999998863
        },
        {
          "name": "E2",
          "midi": 40,
          "time": 170.1999999999998,
          "velocity": 1,
          "duration": 0.13333333333332575
        },
        {
          "name": "B1",
          "midi": 35,
          "time": 170.99999999999977,
          "velocity": 1,
          "duration": 0.13333333333332575
        },
        {
          "name": "E2",
          "midi": 40,
          "time": 171.19999999999976,
          "velocity": 1,
          "duration": 0.09166666666666856
        },
        {
          "name": "B1",
          "midi": 35,
          "time": 171.39999999999975,
          "velocity": 1,
          "duration": 0.07916666666667993
        },
        {
          "name": "E1",
          "midi": 28,
          "time": 171.59999999999977,
          "velocity": 1,
          "duration": 0.9333333333333371
        },
        {
          "name": "G1",
          "midi": 31,
          "time": 172.79999999999978,
          "velocity": 1,
          "duration": 0.09999999999999432
        },
        {
          "name": "G1",
          "midi": 31,
          "time": 172.99999999999977,
          "velocity": 1,
          "duration": 0.11250000000001137
        },
        {
          "name": "D2",
          "midi": 38,
          "time": 173.1999999999998,
          "velocity": 1,
          "duration": 0.1458333333333428
        },
        {
          "name": "G2",
          "midi": 43,
          "time": 173.3999999999998,
          "velocity": 1,
          "duration": 0.17083333333332007
        },
        {
          "name": "D2",
          "midi": 38,
          "time": 174.1999999999998,
          "velocity": 1,
          "duration": 0.10416666666665719
        },
        {
          "name": "G2",
          "midi": 43,
          "time": 174.39999999999978,
          "velocity": 1,
          "duration": 0.08333333333334281
        },
        {
          "name": "G2",
          "midi": 43,
          "time": 174.5999999999998,
          "velocity": 1,
          "duration": 0.07916666666667993
        },
        {
          "name": "D2",
          "midi": 38,
          "time": 174.7999999999998,
          "velocity": 1,
          "duration": 0.6999999999999886
        },
        {
          "name": "D2",
          "midi": 38,
          "time": 175.9999999999998,
          "velocity": 1,
          "duration": 0.11250000000001137
        },
        {
          "name": "D2",
          "midi": 38,
          "time": 176.19999999999982,
          "velocity": 1,
          "duration": 0.13749999999998863
        },
        {
          "name": "A2",
          "midi": 45,
          "time": 176.3999999999998,
          "velocity": 1,
          "duration": 0.15000000000000568
        },
        {
          "name": "D3",
          "midi": 50,
          "time": 176.59999999999982,
          "velocity": 1,
          "duration": 0.15000000000000568
        },
        {
          "name": "A2",
          "midi": 45,
          "time": 177.39999999999984,
          "velocity": 1,
          "duration": 0.11250000000001137
        },
        {
          "name": "D3",
          "midi": 50,
          "time": 177.59999999999985,
          "velocity": 1,
          "duration": 0.07916666666667993
        },
        {
          "name": "A2",
          "midi": 45,
          "time": 177.79999999999987,
          "velocity": 1,
          "duration": 0.07916666666667993
        },
        {
          "name": "D2",
          "midi": 38,
          "time": 177.9999999999999,
          "velocity": 1,
          "duration": 0.9124999999999943
        },
        {
          "name": "E1",
          "midi": 28,
          "time": 179.19999999999987,
          "velocity": 1,
          "duration": 0.11666666666667425
        },
        {
          "name": "E1",
          "midi": 28,
          "time": 179.3999999999999,
          "velocity": 1,
          "duration": 0.11250000000001137
        },
        {
          "name": "B1",
          "midi": 35,
          "time": 179.5999999999999,
          "velocity": 1,
          "duration": 0.13749999999998863
        },
        {
          "name": "E2",
          "midi": 40,
          "time": 179.7999999999999,
          "velocity": 1,
          "duration": 0.13333333333332575
        },
        {
          "name": "B1",
          "midi": 35,
          "time": 180.59999999999988,
          "velocity": 1,
          "duration": 0.10416666666665719
        },
        {
          "name": "E2",
          "midi": 40,
          "time": 180.79999999999987,
          "velocity": 1,
          "duration": 0.10416666666665719
        },
        {
          "name": "E2",
          "midi": 40,
          "time": 180.99999999999986,
          "velocity": 1,
          "duration": 0.09166666666666856
        },
        {
          "name": "B1",
          "midi": 35,
          "time": 181.19999999999985,
          "velocity": 1,
          "duration": 0.7375000000000114
        },
        {
          "name": "F#1",
          "midi": 30,
          "time": 182.39999999999986,
          "velocity": 1,
          "duration": 0.09166666666666856
        },
        {
          "name": "F#1",
          "midi": 30,
          "time": 182.59999999999985,
          "velocity": 1,
          "duration": 0.08333333333334281
        },
        {
          "name": "C#2",
          "midi": 37,
          "time": 182.79999999999987,
          "velocity": 1,
          "duration": 0.125
        },
        {
          "name": "F#2",
          "midi": 42,
          "time": 182.99999999999986,
          "velocity": 1,
          "duration": 0.13749999999998863
        },
        {
          "name": "C#2",
          "midi": 37,
          "time": 183.79999999999984,
          "velocity": 1,
          "duration": 0.10416666666665719
        },
        {
          "name": "F#2",
          "midi": 42,
          "time": 183.99999999999983,
          "velocity": 1,
          "duration": 0.15000000000000568
        },
        {
          "name": "B1",
          "midi": 35,
          "time": 184.79999999999984,
          "velocity": 0.8818897637795275,
          "duration": 0.13749999999998863
        },
        {
          "name": "C#2",
          "midi": 37,
          "time": 184.99999999999983,
          "velocity": 0.8818897637795275,
          "duration": 0.13333333333332575
        },
        {
          "name": "D2",
          "midi": 38,
          "time": 185.19999999999982,
          "velocity": 0.8661417322834646,
          "duration": 0.125
        },
        {
          "name": "F#2",
          "midi": 42,
          "time": 185.3999999999998,
          "velocity": 0.84251968503937,
          "duration": 0.13333333333332575
        },
        {
          "name": "G2",
          "midi": 43,
          "time": 185.5999999999998,
          "velocity": 0.7007874015748031,
          "duration": 0.125
        },
        {
          "name": "D2",
          "midi": 38,
          "time": 185.79999999999978,
          "velocity": 0.8661417322834646,
          "duration": 0.11666666666667425
        },
        {
          "name": "G1",
          "midi": 31,
          "time": 185.9999999999998,
          "velocity": 0.8818897637795275,
          "duration": 0.125
        },
        {
          "name": "D2",
          "midi": 38,
          "time": 186.9999999999998,
          "velocity": 0.8188976377952756,
          "duration": 0.10416666666665719
        },
        {
          "name": "G2",
          "midi": 43,
          "time": 187.1999999999998,
          "velocity": 0.8267716535433071,
          "duration": 0.1666666666666572
        },
        {
          "name": "G2",
          "midi": 43,
          "time": 187.99999999999977,
          "velocity": 0.9212598425196851,
          "duration": 0.09999999999999432
        },
        {
          "name": "D2",
          "midi": 38,
          "time": 188.19999999999976,
          "velocity": 0.905511811023622,
          "duration": 0.10416666666665719
        },
        {
          "name": "G1",
          "midi": 31,
          "time": 188.39999999999975,
          "velocity": 0.8661417322834646,
          "duration": 0.21250000000000568
        },
        {
          "name": "D3",
          "midi": 50,
          "time": 188.79999999999976,
          "velocity": 0.8818897637795275,
          "duration": 0.09999999999999432
        },
        {
          "name": "A2",
          "midi": 45,
          "time": 188.99999999999974,
          "velocity": 0.937007874015748,
          "duration": 0.07083333333332575
        },
        {
          "name": "D2",
          "midi": 38,
          "time": 189.19999999999973,
          "velocity": 0.8818897637795275,
          "duration": 0.19999999999998863
        },
        {
          "name": "A2",
          "midi": 45,
          "time": 190.19999999999973,
          "velocity": 0.6692913385826772,
          "duration": 0.10416666666665719
        },
        {
          "name": "D3",
          "midi": 50,
          "time": 190.39999999999972,
          "velocity": 0.7795275590551181,
          "duration": 0.15833333333333144
        },
        {
          "name": "A2",
          "midi": 45,
          "time": 190.99999999999972,
          "velocity": 0.7795275590551181,
          "duration": 0.11250000000001137
        },
        {
          "name": "D3",
          "midi": 50,
          "time": 191.19999999999973,
          "velocity": 0.7952755905511811,
          "duration": 0.35833333333332007
        },
        {
          "name": "A2",
          "midi": 45,
          "time": 191.5999999999997,
          "velocity": 0.8661417322834646,
          "duration": 0.22499999999999432
        },
        {
          "name": "F#2",
          "midi": 42,
          "time": 191.99999999999972,
          "velocity": 0.7795275590551181,
          "duration": 0.09166666666666856
        },
        {
          "name": "C#2",
          "midi": 37,
          "time": 192.1999999999997,
          "velocity": 0.8818897637795275,
          "duration": 0.11666666666667425
        },
        {
          "name": "F#1",
          "midi": 30,
          "time": 192.39999999999972,
          "velocity": 0.7165354330708661,
          "duration": 0.21666666666666856
        },
        {
          "name": "F#2",
          "midi": 42,
          "time": 193.5999999999997,
          "velocity": 0.7165354330708661,
          "duration": 0.09166666666666856
        },
        {
          "name": "E2",
          "midi": 40,
          "time": 193.7999999999997,
          "velocity": 0.9212598425196851,
          "duration": 0.5583333333333371
        },
        {
          "name": "D2",
          "midi": 38,
          "time": 194.3999999999997,
          "velocity": 0.905511811023622,
          "duration": 0.10416666666665719
        },
        {
          "name": "C#2",
          "midi": 37,
          "time": 194.59999999999968,
          "velocity": 0.6692913385826772,
          "duration": 0.3791666666666629
        },
        {
          "name": "B1",
          "midi": 35,
          "time": 195.19999999999968,
          "velocity": 0.8661417322834646,
          "duration": 0.8125
        },
        {
          "name": "C#2",
          "midi": 37,
          "time": 195.9999999999997,
          "velocity": 0.8267716535433071,
          "duration": 0.7833333333333314
        },
        {
          "name": "D2",
          "midi": 38,
          "time": 196.7999999999997,
          "velocity": 0.937007874015748,
          "duration": 0.7708333333333428
        },
        {
          "name": "E2",
          "midi": 40,
          "time": 197.5999999999997,
          "velocity": 0.9212598425196851,
          "duration": 0.3708333333333371
        },
        {
          "name": "F#2",
          "midi": 42,
          "time": 197.99999999999972,
          "velocity": 0.8110236220472441,
          "duration": 0.23333333333332007
        },
        {
          "name": "G2",
          "midi": 43,
          "time": 198.3999999999997,
          "velocity": 0.7007874015748031,
          "duration": 0.125
        },
        {
          "name": "D2",
          "midi": 38,
          "time": 198.59999999999968,
          "velocity": 0.8661417322834646,
          "duration": 0.11666666666667425
        },
        {
          "name": "G1",
          "midi": 31,
          "time": 198.7999999999997,
          "velocity": 0.8818897637795275,
          "duration": 0.125
        },
        {
          "name": "D2",
          "midi": 38,
          "time": 199.7999999999997,
          "velocity": 0.8188976377952756,
          "duration": 0.10416666666665719
        },
        {
          "name": "G2",
          "midi": 43,
          "time": 199.9999999999997,
          "velocity": 0.8267716535433071,
          "duration": 0.1666666666666572
        },
        {
          "name": "G2",
          "midi": 43,
          "time": 200.79999999999967,
          "velocity": 0.9212598425196851,
          "duration": 0.09999999999999432
        },
        {
          "name": "D2",
          "midi": 38,
          "time": 200.99999999999966,
          "velocity": 0.905511811023622,
          "duration": 0.10416666666665719
        },
        {
          "name": "G1",
          "midi": 31,
          "time": 201.19999999999965,
          "velocity": 0.8661417322834646,
          "duration": 0.21250000000000568
        },
        {
          "name": "D3",
          "midi": 50,
          "time": 201.59999999999965,
          "velocity": 0.8818897637795275,
          "duration": 0.09999999999999432
        },
        {
          "name": "A2",
          "midi": 45,
          "time": 201.79999999999964,
          "velocity": 0.937007874015748,
          "duration": 0.07083333333332575
        },
        {
          "name": "D2",
          "midi": 38,
          "time": 201.99999999999963,
          "velocity": 0.8818897637795275,
          "duration": 0.19999999999998863
        },
        {
          "name": "A2",
          "midi": 45,
          "time": 202.99999999999963,
          "velocity": 0.7322834645669292,
          "duration": 0.11666666666667425
        },
        {
          "name": "D3",
          "midi": 50,
          "time": 203.19999999999965,
          "velocity": 0.8818897637795275,
          "duration": 0.17083333333332007
        },
        {
          "name": "A2",
          "midi": 45,
          "time": 203.79999999999964,
          "velocity": 0.7716535433070866,
          "duration": 0.11666666666667425
        },
        {
          "name": "D3",
          "midi": 50,
          "time": 203.99999999999966,
          "velocity": 0.9212598425196851,
          "duration": 0.34583333333333144
        },
        {
          "name": "A2",
          "midi": 45,
          "time": 204.39999999999966,
          "velocity": 0.8818897637795275,
          "duration": 0.17083333333332007
        },
        {
          "name": "E2",
          "midi": 40,
          "time": 204.79999999999964,
          "velocity": 0.8267716535433071,
          "duration": 0.125
        },
        {
          "name": "B1",
          "midi": 35,
          "time": 204.99999999999963,
          "velocity": 0.8818897637795275,
          "duration": 0.10416666666665719
        },
        {
          "name": "E1",
          "midi": 28,
          "time": 205.19999999999962,
          "velocity": 0.8267716535433071,
          "duration": 0.1666666666666572
        },
        {
          "name": "B1",
          "midi": 35,
          "time": 206.19999999999962,
          "velocity": 0.7401574803149606,
          "duration": 0.10416666666665719
        },
        {
          "name": "E2",
          "midi": 40,
          "time": 206.3999999999996,
          "velocity": 0.905511811023622,
          "duration": 0.1458333333333428
        },
        {
          "name": "B1",
          "midi": 35,
          "time": 206.99999999999963,
          "velocity": 0.8267716535433071,
          "duration": 0.10416666666665719
        },
        {
          "name": "E2",
          "midi": 40,
          "time": 207.19999999999962,
          "velocity": 0.905511811023622,
          "duration": 0.3166666666666629
        },
        {
          "name": "B1",
          "midi": 35,
          "time": 207.59999999999962,
          "velocity": 0.9212598425196851,
          "duration": 0.125
        },
        {
          "name": "F#1",
          "midi": 30,
          "time": 207.99999999999963,
          "velocity": 0.8818897637795275,
          "duration": 2.8000000000000114
        },
        {
          "name": "B1",
          "midi": 35,
          "time": 211.19999999999965,
          "velocity": 1,
          "duration": 3.191666666666663
        },
        {
          "name": "F#1",
          "midi": 30,
          "time": 214.39999999999964,
          "velocity": 1,
          "duration": 3.191666666666663
        },
        {
          "name": "A1",
          "midi": 33,
          "time": 217.59999999999962,
          "velocity": 1,
          "duration": 3.191666666666663
        },
        {
          "name": "E1",
          "midi": 28,
          "time": 220.7999999999996,
          "velocity": 1,
          "duration": 3.191666666666663
        },
        {
          "name": "G1",
          "midi": 31,
          "time": 223.9999999999996,
          "velocity": 1,
          "duration": 3.191666666666663
        },
        {
          "name": "D1",
          "midi": 26,
          "time": 227.1999999999996,
          "velocity": 1,
          "duration": 3.191666666666663
        },
        {
          "name": "E1",
          "midi": 28,
          "time": 230.39999999999958,
          "velocity": 1,
          "duration": 3.191666666666663
        },
        {
          "name": "F#1",
          "midi": 30,
          "time": 233.59999999999957,
          "velocity": 1,
          "duration": 3.191666666666663
        },
        {
          "name": "B1",
          "midi": 35,
          "time": 236.79999999999956,
          "velocity": 1,
          "duration": 0.19166666666666288
        },
        {
          "name": "B1",
          "midi": 35,
          "time": 236.99999999999955,
          "velocity": 1,
          "duration": 0.19166666666666288
        },
        {
          "name": "F#2",
          "midi": 42,
          "time": 237.19999999999953,
          "velocity": 1,
          "duration": 0.19166666666666288
        },
        {
          "name": "B2",
          "midi": 47,
          "time": 237.39999999999952,
          "velocity": 1,
          "duration": 0.19166666666666288
        },
        {
          "name": "F#2",
          "midi": 42,
          "time": 238.1999999999995,
          "velocity": 1,
          "duration": 0.19166666666666288
        },
        {
          "name": "B2",
          "midi": 47,
          "time": 238.3999999999995,
          "velocity": 1,
          "duration": 0.09999999999999432
        },
        {
          "name": "B2",
          "midi": 47,
          "time": 238.59999999999948,
          "velocity": 1,
          "duration": 0.09999999999999432
        },
        {
          "name": "F#2",
          "midi": 42,
          "time": 238.79999999999947,
          "velocity": 1,
          "duration": 1.1999999999999886
        },
        {
          "name": "F#1",
          "midi": 30,
          "time": 239.99999999999946,
          "velocity": 1,
          "duration": 0.125
        },
        {
          "name": "F#1",
          "midi": 30,
          "time": 240.19999999999945,
          "velocity": 1,
          "duration": 0.15833333333333144
        },
        {
          "name": "C#2",
          "midi": 37,
          "time": 240.39999999999944,
          "velocity": 1,
          "duration": 0.15833333333333144
        },
        {
          "name": "F#2",
          "midi": 42,
          "time": 240.59999999999943,
          "velocity": 1,
          "duration": 0.15000000000000568
        },
        {
          "name": "C#2",
          "midi": 37,
          "time": 241.39999999999944,
          "velocity": 1,
          "duration": 0.13333333333332575
        },
        {
          "name": "F#2",
          "midi": 42,
          "time": 241.59999999999943,
          "velocity": 1,
          "duration": 0.11666666666667425
        },
        {
          "name": "C#2",
          "midi": 37,
          "time": 241.79999999999944,
          "velocity": 1,
          "duration": 0.1458333333333428
        },
        {
          "name": "F#1",
          "midi": 30,
          "time": 241.99999999999946,
          "velocity": 1,
          "duration": 1.0583333333333371
        },
        {
          "name": "A1",
          "midi": 33,
          "time": 243.19999999999948,
          "velocity": 1,
          "duration": 0.13333333333332575
        },
        {
          "name": "A1",
          "midi": 33,
          "time": 243.39999999999947,
          "velocity": 1,
          "duration": 0.13333333333332575
        },
        {
          "name": "E2",
          "midi": 40,
          "time": 243.59999999999945,
          "velocity": 1,
          "duration": 0.15833333333333144
        },
        {
          "name": "A2",
          "midi": 45,
          "time": 243.79999999999944,
          "velocity": 1,
          "duration": 0.21666666666666856
        },
        {
          "name": "E2",
          "midi": 40,
          "time": 244.59999999999945,
          "velocity": 1,
          "duration": 0.17083333333332007
        },
        {
          "name": "A2",
          "midi": 45,
          "time": 244.79999999999944,
          "velocity": 1,
          "duration": 0.08333333333334281
        },
        {
          "name": "A2",
          "midi": 45,
          "time": 244.99999999999946,
          "velocity": 1,
          "duration": 0.07916666666667993
        },
        {
          "name": "E2",
          "midi": 40,
          "time": 245.19999999999948,
          "velocity": 1,
          "duration": 1.0041666666666629
        },
        {
          "name": "E1",
          "midi": 28,
          "time": 246.39999999999947,
          "velocity": 1,
          "duration": 0.11666666666667425
        },
        {
          "name": "E1",
          "midi": 28,
          "time": 246.59999999999948,
          "velocity": 1,
          "duration": 0.13749999999998863
        },
        {
          "name": "B1",
          "midi": 35,
          "time": 246.79999999999947,
          "velocity": 1,
          "duration": 0.13749999999998863
        },
        {
          "name": "E2",
          "midi": 40,
          "time": 246.99999999999946,
          "velocity": 1,
          "duration": 0.13333333333332575
        },
        {
          "name": "B1",
          "midi": 35,
          "time": 247.79999999999944,
          "velocity": 1,
          "duration": 0.13333333333332575
        },
        {
          "name": "E2",
          "midi": 40,
          "time": 247.99999999999943,
          "velocity": 1,
          "duration": 0.09166666666666856
        },
        {
          "name": "B1",
          "midi": 35,
          "time": 248.19999999999942,
          "velocity": 1,
          "duration": 0.07916666666667993
        },
        {
          "name": "E1",
          "midi": 28,
          "time": 248.39999999999944,
          "velocity": 1,
          "duration": 0.9333333333333371
        },
        {
          "name": "G1",
          "midi": 31,
          "time": 249.59999999999945,
          "velocity": 1,
          "duration": 0.09999999999999432
        },
        {
          "name": "G1",
          "midi": 31,
          "time": 249.79999999999944,
          "velocity": 1,
          "duration": 0.11250000000001137
        },
        {
          "name": "D2",
          "midi": 38,
          "time": 249.99999999999946,
          "velocity": 1,
          "duration": 0.1458333333333428
        },
        {
          "name": "G2",
          "midi": 43,
          "time": 250.19999999999948,
          "velocity": 1,
          "duration": 0.17083333333332007
        },
        {
          "name": "D2",
          "midi": 38,
          "time": 250.99999999999946,
          "velocity": 1,
          "duration": 0.10416666666665719
        },
        {
          "name": "G2",
          "midi": 43,
          "time": 251.19999999999945,
          "velocity": 1,
          "duration": 0.08333333333334281
        },
        {
          "name": "G2",
          "midi": 43,
          "time": 251.39999999999947,
          "velocity": 1,
          "duration": 0.07916666666667993
        },
        {
          "name": "D2",
          "midi": 38,
          "time": 251.59999999999948,
          "velocity": 1,
          "duration": 0.6999999999999886
        },
        {
          "name": "D2",
          "midi": 38,
          "time": 252.79999999999947,
          "velocity": 1,
          "duration": 0.11250000000001137
        },
        {
          "name": "D2",
          "midi": 38,
          "time": 252.9999999999995,
          "velocity": 1,
          "duration": 0.13749999999998863
        },
        {
          "name": "A2",
          "midi": 45,
          "time": 253.19999999999948,
          "velocity": 1,
          "duration": 0.15000000000000568
        },
        {
          "name": "D3",
          "midi": 50,
          "time": 253.3999999999995,
          "velocity": 1,
          "duration": 0.15000000000000568
        },
        {
          "name": "A2",
          "midi": 45,
          "time": 254.1999999999995,
          "velocity": 1,
          "duration": 0.11250000000001137
        },
        {
          "name": "D3",
          "midi": 50,
          "time": 254.39999999999952,
          "velocity": 1,
          "duration": 0.07916666666667993
        },
        {
          "name": "A2",
          "midi": 45,
          "time": 254.59999999999954,
          "velocity": 1,
          "duration": 0.07916666666667993
        },
        {
          "name": "D2",
          "midi": 38,
          "time": 254.79999999999956,
          "velocity": 1,
          "duration": 0.9124999999999943
        },
        {
          "name": "E1",
          "midi": 28,
          "time": 255.99999999999955,
          "velocity": 1,
          "duration": 0.11666666666667425
        },
        {
          "name": "E1",
          "midi": 28,
          "time": 256.19999999999953,
          "velocity": 1,
          "duration": 0.11250000000001137
        },
        {
          "name": "B1",
          "midi": 35,
          "time": 256.3999999999995,
          "velocity": 1,
          "duration": 0.13749999999998863
        },
        {
          "name": "E2",
          "midi": 40,
          "time": 256.5999999999995,
          "velocity": 1,
          "duration": 0.13333333333332575
        },
        {
          "name": "B1",
          "midi": 35,
          "time": 257.3999999999995,
          "velocity": 1,
          "duration": 0.10416666666668561
        },
        {
          "name": "E2",
          "midi": 40,
          "time": 257.59999999999957,
          "velocity": 1,
          "duration": 0.10416666666668561
        },
        {
          "name": "E2",
          "midi": 40,
          "time": 257.7999999999996,
          "velocity": 1,
          "duration": 0.09166666666664014
        },
        {
          "name": "B1",
          "midi": 35,
          "time": 257.9999999999996,
          "velocity": 1,
          "duration": 0.7375000000000114
        },
        {
          "name": "F#1",
          "midi": 30,
          "time": 259.1999999999996,
          "velocity": 1,
          "duration": 0.09166666666664014
        },
        {
          "name": "F#1",
          "midi": 30,
          "time": 259.3999999999996,
          "velocity": 1,
          "duration": 0.08333333333331439
        },
        {
          "name": "C#2",
          "midi": 37,
          "time": 259.59999999999957,
          "velocity": 1,
          "duration": 0.125
        },
        {
          "name": "F#2",
          "midi": 42,
          "time": 259.79999999999956,
          "velocity": 1,
          "duration": 0.13749999999998863
        },
        {
          "name": "C#2",
          "midi": 37,
          "time": 260.59999999999957,
          "velocity": 0.9921259842519685,
          "duration": 0.19166666666666288
        },
        {
          "name": "F#2",
          "midi": 42,
          "time": 260.79999999999956,
          "velocity": 0.9921259842519685,
          "duration": 0.16666666666668561
        },
        {
          "name": "F2",
          "midi": 41,
          "time": 260.9999999999996,
          "velocity": 0.9921259842519685,
          "duration": 0.1708333333333485
        },
        {
          "name": "F#2",
          "midi": 42,
          "time": 261.1999999999996,
          "velocity": 1,
          "duration": 0.17916666666667425
        },
        {
          "name": "B1",
          "midi": 35,
          "time": 262.40416666666624,
          "velocity": 1,
          "duration": 0.19583333333332575
        },
        {
          "name": "B1",
          "midi": 35,
          "time": 262.60416666666623,
          "velocity": 0.7086614173228346,
          "duration": 0.19583333333332575
        },
        {
          "name": "B1",
          "midi": 35,
          "time": 262.8041666666662,
          "velocity": 0.7086614173228346,
          "duration": 0.19583333333332575
        },
        {
          "name": "B1",
          "midi": 35,
          "time": 263.0041666666662,
          "velocity": 1,
          "duration": 0.19583333333332575
        },
        {
          "name": "B1",
          "midi": 35,
          "time": 263.2041666666662,
          "velocity": 0.7086614173228346,
          "duration": 0.19583333333332575
        },
        {
          "name": "B1",
          "midi": 35,
          "time": 263.4041666666662,
          "velocity": 0.7086614173228346,
          "duration": 0.19583333333332575
        },
        {
          "name": "B1",
          "midi": 35,
          "time": 263.6041666666662,
          "velocity": 1,
          "duration": 0.19583333333332575
        },
        {
          "name": "B1",
          "midi": 35,
          "time": 263.80416666666616,
          "velocity": 0.7086614173228346,
          "duration": 0.19583333333332575
        },
        {
          "name": "B1",
          "midi": 35,
          "time": 264.00416666666615,
          "velocity": 0.7086614173228346,
          "duration": 0.19583333333332575
        },
        {
          "name": "B1",
          "midi": 35,
          "time": 264.20416666666614,
          "velocity": 1,
          "duration": 0.19583333333332575
        },
        {
          "name": "B1",
          "midi": 35,
          "time": 264.40416666666613,
          "velocity": 0.7086614173228346,
          "duration": 0.19583333333332575
        },
        {
          "name": "B1",
          "midi": 35,
          "time": 264.6041666666661,
          "velocity": 0.7086614173228346,
          "duration": 0.19583333333332575
        },
        {
          "name": "B1",
          "midi": 35,
          "time": 264.8041666666661,
          "velocity": 1,
          "duration": 0.39999999999997726
        },
        {
          "name": "B1",
          "midi": 35,
          "time": 265.2041666666661,
          "velocity": 1,
          "duration": 0.19583333333332575
        },
        {
          "name": "F#1",
          "midi": 30,
          "time": 265.60416666666606,
          "velocity": 1,
          "duration": 0.19583333333332575
        },
        {
          "name": "F#1",
          "midi": 30,
          "time": 265.80416666666605,
          "velocity": 0.7086614173228346,
          "duration": 0.19583333333332575
        },
        {
          "name": "F#1",
          "midi": 30,
          "time": 266.00416666666604,
          "velocity": 0.7086614173228346,
          "duration": 0.19583333333332575
        },
        {
          "name": "F#1",
          "midi": 30,
          "time": 266.204166666666,
          "velocity": 1,
          "duration": 0.19583333333332575
        },
        {
          "name": "F#1",
          "midi": 30,
          "time": 266.404166666666,
          "velocity": 0.7086614173228346,
          "duration": 0.19583333333332575
        },
        {
          "name": "F#1",
          "midi": 30,
          "time": 266.604166666666,
          "velocity": 0.7086614173228346,
          "duration": 0.19583333333332575
        },
        {
          "name": "F#1",
          "midi": 30,
          "time": 266.804166666666,
          "velocity": 1,
          "duration": 0.19583333333332575
        },
        {
          "name": "F#1",
          "midi": 30,
          "time": 267.004166666666,
          "velocity": 0.7086614173228346,
          "duration": 0.19583333333332575
        },
        {
          "name": "F#1",
          "midi": 30,
          "time": 267.20416666666597,
          "velocity": 0.7086614173228346,
          "duration": 0.19583333333332575
        },
        {
          "name": "F#1",
          "midi": 30,
          "time": 267.40416666666596,
          "velocity": 1,
          "duration": 0.19583333333332575
        },
        {
          "name": "F#1",
          "midi": 30,
          "time": 267.60416666666595,
          "velocity": 0.7086614173228346,
          "duration": 0.19583333333332575
        },
        {
          "name": "F#1",
          "midi": 30,
          "time": 267.80416666666594,
          "velocity": 0.7086614173228346,
          "duration": 0.19583333333332575
        },
        {
          "name": "F#1",
          "midi": 30,
          "time": 268.0041666666659,
          "velocity": 1,
          "duration": 0.39999999999997726
        },
        {
          "name": "F#1",
          "midi": 30,
          "time": 268.4041666666659,
          "velocity": 1,
          "duration": 0.19583333333332575
        },
        {
          "name": "A1",
          "midi": 33,
          "time": 268.8041666666659,
          "velocity": 1,
          "duration": 0.19583333333332575
        },
        {
          "name": "A1",
          "midi": 33,
          "time": 269.00416666666587,
          "velocity": 0.7086614173228346,
          "duration": 0.19583333333332575
        },
        {
          "name": "A1",
          "midi": 33,
          "time": 269.20416666666586,
          "velocity": 0.7086614173228346,
          "duration": 0.19583333333332575
        },
        {
          "name": "A1",
          "midi": 33,
          "time": 269.40416666666584,
          "velocity": 1,
          "duration": 0.19583333333332575
        },
        {
          "name": "A1",
          "midi": 33,
          "time": 269.60416666666583,
          "velocity": 0.7086614173228346,
          "duration": 0.19583333333332575
        },
        {
          "name": "A1",
          "midi": 33,
          "time": 269.8041666666658,
          "velocity": 0.7086614173228346,
          "duration": 0.19583333333332575
        },
        {
          "name": "A1",
          "midi": 33,
          "time": 270.0041666666658,
          "velocity": 1,
          "duration": 0.19583333333332575
        },
        {
          "name": "A1",
          "midi": 33,
          "time": 270.2041666666658,
          "velocity": 0.7086614173228346,
          "duration": 0.19583333333332575
        },
        {
          "name": "A1",
          "midi": 33,
          "time": 270.4041666666658,
          "velocity": 0.7086614173228346,
          "duration": 0.19583333333332575
        },
        {
          "name": "A1",
          "midi": 33,
          "time": 270.6041666666658,
          "velocity": 1,
          "duration": 0.19583333333332575
        },
        {
          "name": "A1",
          "midi": 33,
          "time": 270.80416666666576,
          "velocity": 0.7086614173228346,
          "duration": 0.19583333333332575
        },
        {
          "name": "A1",
          "midi": 33,
          "time": 271.00416666666575,
          "velocity": 0.7086614173228346,
          "duration": 0.19583333333332575
        },
        {
          "name": "A1",
          "midi": 33,
          "time": 271.20416666666574,
          "velocity": 1,
          "duration": 0.39999999999997726
        },
        {
          "name": "A1",
          "midi": 33,
          "time": 271.6041666666657,
          "velocity": 1,
          "duration": 0.1958333333333826
        },
        {
          "name": "E1",
          "midi": 28,
          "time": 272.00416666666575,
          "velocity": 1,
          "duration": 0.19583333333332575
        },
        {
          "name": "E1",
          "midi": 28,
          "time": 272.20416666666574,
          "velocity": 0.7086614173228346,
          "duration": 0.19583333333332575
        },
        {
          "name": "E1",
          "midi": 28,
          "time": 272.40416666666573,
          "velocity": 0.7086614173228346,
          "duration": 0.19583333333332575
        },
        {
          "name": "E1",
          "midi": 28,
          "time": 272.6041666666657,
          "velocity": 1,
          "duration": 0.19583333333332575
        },
        {
          "name": "E1",
          "midi": 28,
          "time": 272.8041666666657,
          "velocity": 0.7086614173228346,
          "duration": 0.19583333333332575
        },
        {
          "name": "E1",
          "midi": 28,
          "time": 273.0041666666657,
          "velocity": 0.7086614173228346,
          "duration": 0.19583333333332575
        },
        {
          "name": "E1",
          "midi": 28,
          "time": 273.2041666666657,
          "velocity": 1,
          "duration": 0.19583333333332575
        },
        {
          "name": "E1",
          "midi": 28,
          "time": 273.4041666666657,
          "velocity": 0.7086614173228346,
          "duration": 0.19583333333332575
        },
        {
          "name": "E1",
          "midi": 28,
          "time": 273.60416666666566,
          "velocity": 0.7086614173228346,
          "duration": 0.19583333333332575
        },
        {
          "name": "E1",
          "midi": 28,
          "time": 273.80416666666565,
          "velocity": 1,
          "duration": 0.19583333333332575
        },
        {
          "name": "E1",
          "midi": 28,
          "time": 274.00416666666564,
          "velocity": 0.7086614173228346,
          "duration": 0.19583333333332575
        },
        {
          "name": "E1",
          "midi": 28,
          "time": 274.2041666666656,
          "velocity": 0.7086614173228346,
          "duration": 0.19583333333332575
        },
        {
          "name": "E1",
          "midi": 28,
          "time": 274.4041666666656,
          "velocity": 1,
          "duration": 0.39999999999997726
        },
        {
          "name": "E1",
          "midi": 28,
          "time": 274.8041666666656,
          "velocity": 1,
          "duration": 0.19583333333332575
        },
        {
          "name": "G1",
          "midi": 31,
          "time": 275.20416666666557,
          "velocity": 1,
          "duration": 0.19583333333332575
        },
        {
          "name": "G1",
          "midi": 31,
          "time": 275.40416666666556,
          "velocity": 0.7086614173228346,
          "duration": 0.19583333333332575
        },
        {
          "name": "G1",
          "midi": 31,
          "time": 275.60416666666555,
          "velocity": 0.7086614173228346,
          "duration": 0.19583333333332575
        },
        {
          "name": "G1",
          "midi": 31,
          "time": 275.80416666666554,
          "velocity": 1,
          "duration": 0.19583333333332575
        },
        {
          "name": "G1",
          "midi": 31,
          "time": 276.0041666666655,
          "velocity": 0.7086614173228346,
          "duration": 0.19583333333332575
        },
        {
          "name": "G1",
          "midi": 31,
          "time": 276.2041666666655,
          "velocity": 0.7086614173228346,
          "duration": 0.19583333333332575
        },
        {
          "name": "G1",
          "midi": 31,
          "time": 276.4041666666655,
          "velocity": 1,
          "duration": 0.19583333333332575
        },
        {
          "name": "G1",
          "midi": 31,
          "time": 276.6041666666655,
          "velocity": 0.7086614173228346,
          "duration": 0.19583333333332575
        },
        {
          "name": "G1",
          "midi": 31,
          "time": 276.8041666666655,
          "velocity": 0.7086614173228346,
          "duration": 0.19583333333332575
        },
        {
          "name": "G1",
          "midi": 31,
          "time": 277.00416666666547,
          "velocity": 1,
          "duration": 0.19583333333332575
        },
        {
          "name": "G1",
          "midi": 31,
          "time": 277.20416666666546,
          "velocity": 0.7086614173228346,
          "duration": 0.19583333333332575
        },
        {
          "name": "G1",
          "midi": 31,
          "time": 277.40416666666545,
          "velocity": 0.7086614173228346,
          "duration": 0.19583333333332575
        },
        {
          "name": "G1",
          "midi": 31,
          "time": 277.60416666666544,
          "velocity": 1,
          "duration": 0.39999999999997726
        },
        {
          "name": "G1",
          "midi": 31,
          "time": 278.0041666666654,
          "velocity": 1,
          "duration": 0.19583333333332575
        },
        {
          "name": "D2",
          "midi": 38,
          "time": 278.4041666666654,
          "velocity": 1,
          "duration": 0.19583333333332575
        },
        {
          "name": "D2",
          "midi": 38,
          "time": 278.6041666666654,
          "velocity": 0.7086614173228346,
          "duration": 0.19583333333332575
        },
        {
          "name": "D2",
          "midi": 38,
          "time": 278.80416666666537,
          "velocity": 0.7086614173228346,
          "duration": 0.19583333333332575
        },
        {
          "name": "D2",
          "midi": 38,
          "time": 279.00416666666536,
          "velocity": 1,
          "duration": 0.19583333333332575
        },
        {
          "name": "D2",
          "midi": 38,
          "time": 279.20416666666534,
          "velocity": 0.7086614173228346,
          "duration": 0.19583333333332575
        },
        {
          "name": "D2",
          "midi": 38,
          "time": 279.40416666666533,
          "velocity": 0.7086614173228346,
          "duration": 0.19583333333332575
        },
        {
          "name": "D2",
          "midi": 38,
          "time": 279.6041666666653,
          "velocity": 1,
          "duration": 0.19583333333332575
        },
        {
          "name": "D2",
          "midi": 38,
          "time": 279.8041666666653,
          "velocity": 0.7086614173228346,
          "duration": 0.19583333333332575
        },
        {
          "name": "D2",
          "midi": 38,
          "time": 280.0041666666653,
          "velocity": 0.7086614173228346,
          "duration": 0.19583333333332575
        },
        {
          "name": "D2",
          "midi": 38,
          "time": 280.2041666666653,
          "velocity": 1,
          "duration": 0.19583333333332575
        },
        {
          "name": "D2",
          "midi": 38,
          "time": 280.4041666666653,
          "velocity": 0.7086614173228346,
          "duration": 0.19583333333332575
        },
        {
          "name": "D2",
          "midi": 38,
          "time": 280.60416666666526,
          "velocity": 0.7086614173228346,
          "duration": 0.19583333333332575
        },
        {
          "name": "D2",
          "midi": 38,
          "time": 280.80416666666525,
          "velocity": 1,
          "duration": 0.19583333333332575
        },
        {
          "name": "D2",
          "midi": 38,
          "time": 281.20416666666523,
          "velocity": 1,
          "duration": 0.19583333333332575
        },
        {
          "name": "E1",
          "midi": 28,
          "time": 281.6041666666652,
          "velocity": 1,
          "duration": 0.19583333333332575
        },
        {
          "name": "E1",
          "midi": 28,
          "time": 281.8041666666652,
          "velocity": 0.7086614173228346,
          "duration": 0.19583333333332575
        },
        {
          "name": "E1",
          "midi": 28,
          "time": 282.0041666666652,
          "velocity": 0.7086614173228346,
          "duration": 0.19583333333332575
        },
        {
          "name": "E1",
          "midi": 28,
          "time": 282.2041666666652,
          "velocity": 1,
          "duration": 0.19583333333332575
        },
        {
          "name": "E1",
          "midi": 28,
          "time": 282.40416666666516,
          "velocity": 0.7086614173228346,
          "duration": 0.19583333333332575
        },
        {
          "name": "E1",
          "midi": 28,
          "time": 282.60416666666515,
          "velocity": 0.7086614173228346,
          "duration": 0.19583333333332575
        },
        {
          "name": "E1",
          "midi": 28,
          "time": 282.80416666666514,
          "velocity": 1,
          "duration": 0.19583333333332575
        },
        {
          "name": "E1",
          "midi": 28,
          "time": 283.0041666666651,
          "velocity": 0.7086614173228346,
          "duration": 0.19583333333332575
        },
        {
          "name": "E1",
          "midi": 28,
          "time": 283.2041666666651,
          "velocity": 0.7086614173228346,
          "duration": 0.19583333333332575
        },
        {
          "name": "E1",
          "midi": 28,
          "time": 283.4041666666651,
          "velocity": 1,
          "duration": 0.19583333333332575
        },
        {
          "name": "E1",
          "midi": 28,
          "time": 283.6041666666651,
          "velocity": 0.7086614173228346,
          "duration": 0.19583333333332575
        },
        {
          "name": "E1",
          "midi": 28,
          "time": 283.8041666666651,
          "velocity": 0.7086614173228346,
          "duration": 0.19583333333332575
        },
        {
          "name": "E1",
          "midi": 28,
          "time": 284.00416666666507,
          "velocity": 1,
          "duration": 0.39999999999997726
        },
        {
          "name": "E1",
          "midi": 28,
          "time": 284.40416666666505,
          "velocity": 1,
          "duration": 0.19583333333332575
        },
        {
          "name": "F#1",
          "midi": 30,
          "time": 284.804166666665,
          "velocity": 1,
          "duration": 0.19583333333332575
        },
        {
          "name": "F#1",
          "midi": 30,
          "time": 285.004166666665,
          "velocity": 0.7086614173228346,
          "duration": 0.19583333333332575
        },
        {
          "name": "F#1",
          "midi": 30,
          "time": 285.204166666665,
          "velocity": 0.7086614173228346,
          "duration": 0.19583333333332575
        },
        {
          "name": "F#1",
          "midi": 30,
          "time": 285.404166666665,
          "velocity": 1,
          "duration": 0.19583333333332575
        },
        {
          "name": "F#1",
          "midi": 30,
          "time": 285.604166666665,
          "velocity": 0.7086614173228346,
          "duration": 0.19583333333332575
        },
        {
          "name": "F#1",
          "midi": 30,
          "time": 285.80416666666497,
          "velocity": 0.7086614173228346,
          "duration": 0.19583333333332575
        },
        {
          "name": "F#1",
          "midi": 30,
          "time": 286.00416666666496,
          "velocity": 1,
          "duration": 0.19583333333332575
        },
        {
          "name": "F#1",
          "midi": 30,
          "time": 286.20416666666495,
          "velocity": 0.7086614173228346,
          "duration": 0.19583333333332575
        },
        {
          "name": "F#1",
          "midi": 30,
          "time": 286.40416666666493,
          "velocity": 0.7086614173228346,
          "duration": 0.19583333333332575
        },
        {
          "name": "F#1",
          "midi": 30,
          "time": 286.6041666666649,
          "velocity": 1,
          "duration": 0.19583333333332575
        },
        {
          "name": "F#1",
          "midi": 30,
          "time": 286.8041666666649,
          "velocity": 0.7086614173228346,
          "duration": 0.19583333333332575
        },
        {
          "name": "F#1",
          "midi": 30,
          "time": 287.0041666666649,
          "velocity": 0.7086614173228346,
          "duration": 0.19583333333332575
        },
        {
          "name": "F#1",
          "midi": 30,
          "time": 287.2041666666649,
          "velocity": 1,
          "duration": 0.39999999999997726
        },
        {
          "name": "F#1",
          "midi": 30,
          "time": 287.60416666666487,
          "velocity": 1,
          "duration": 0.19583333333332575
        },
        {
          "name": "B1",
          "midi": 35,
          "time": 288.00416666666484,
          "velocity": 1,
          "duration": 0.19583333333332575
        },
        {
          "name": "B1",
          "midi": 35,
          "time": 288.20416666666483,
          "velocity": 1,
          "duration": 0.19583333333332575
        },
        {
          "name": "F#2",
          "midi": 42,
          "time": 288.4041666666648,
          "velocity": 1,
          "duration": 0.19583333333332575
        },
        {
          "name": "B2",
          "midi": 47,
          "time": 288.6041666666648,
          "velocity": 1,
          "duration": 0.19583333333332575
        },
        {
          "name": "F#2",
          "midi": 42,
          "time": 289.4041666666648,
          "velocity": 1,
          "duration": 0.19583333333332575
        },
        {
          "name": "B2",
          "midi": 47,
          "time": 289.6041666666648,
          "velocity": 1,
          "duration": 0.10000000000002274
        },
        {
          "name": "B2",
          "midi": 47,
          "time": 289.80416666666486,
          "velocity": 1,
          "duration": 0.10000000000002274
        },
        {
          "name": "F#2",
          "midi": 42,
          "time": 290.0041666666649,
          "velocity": 1,
          "duration": 1.1999999999999886
        },
        {
          "name": "F#1",
          "midi": 30,
          "time": 291.2041666666649,
          "velocity": 1,
          "duration": 0.12916666666666288
        },
        {
          "name": "F#1",
          "midi": 30,
          "time": 291.4041666666649,
          "velocity": 1,
          "duration": 0.16250000000002274
        },
        {
          "name": "C#2",
          "midi": 37,
          "time": 291.6041666666649,
          "velocity": 1,
          "duration": 0.16250000000002274
        },
        {
          "name": "F#2",
          "midi": 42,
          "time": 291.80416666666497,
          "velocity": 1,
          "duration": 0.15416666666664014
        },
        {
          "name": "C#2",
          "midi": 37,
          "time": 292.6041666666649,
          "velocity": 1,
          "duration": 0.13333333333332575
        },
        {
          "name": "F#2",
          "midi": 42,
          "time": 292.8041666666649,
          "velocity": 1,
          "duration": 0.12083333333333712
        },
        {
          "name": "C#2",
          "midi": 37,
          "time": 293.0041666666649,
          "velocity": 1,
          "duration": 0.14583333333331439
        },
        {
          "name": "F#1",
          "midi": 30,
          "time": 293.2041666666649,
          "velocity": 1,
          "duration": 1.0625
        },
        {
          "name": "A1",
          "midi": 33,
          "time": 294.4041666666649,
          "velocity": 1,
          "duration": 0.13333333333332575
        },
        {
          "name": "A1",
          "midi": 33,
          "time": 294.60416666666487,
          "velocity": 1,
          "duration": 0.13333333333332575
        },
        {
          "name": "E2",
          "midi": 40,
          "time": 294.80416666666486,
          "velocity": 1,
          "duration": 0.16250000000002274
        },
        {
          "name": "A2",
          "midi": 45,
          "time": 295.0041666666649,
          "velocity": 1,
          "duration": 0.22083333333330302
        },
        {
          "name": "E2",
          "midi": 40,
          "time": 295.80416666666486,
          "velocity": 1,
          "duration": 0.17500000000001137
        },
        {
          "name": "A2",
          "midi": 45,
          "time": 296.00416666666484,
          "velocity": 1,
          "duration": 0.08749999999997726
        },
        {
          "name": "A2",
          "midi": 45,
          "time": 296.20416666666483,
          "velocity": 1,
          "duration": 0.07916666666665151
        },
        {
          "name": "E2",
          "midi": 40,
          "time": 296.4041666666648,
          "velocity": 1,
          "duration": 1.0083333333333258
        },
        {
          "name": "E1",
          "midi": 28,
          "time": 297.60416666666487,
          "velocity": 1,
          "duration": 0.12083333333333712
        },
        {
          "name": "E1",
          "midi": 28,
          "time": 297.80416666666486,
          "velocity": 1,
          "duration": 0.1416666666666515
        },
        {
          "name": "B1",
          "midi": 35,
          "time": 298.00416666666484,
          "velocity": 1,
          "duration": 0.1416666666666515
        },
        {
          "name": "E2",
          "midi": 40,
          "time": 298.20416666666483,
          "velocity": 1,
          "duration": 0.13333333333332575
        },
        {
          "name": "B1",
          "midi": 35,
          "time": 299.0041666666648,
          "velocity": 1,
          "duration": 0.13333333333332575
        },
        {
          "name": "E2",
          "midi": 40,
          "time": 299.2041666666648,
          "velocity": 1,
          "duration": 0.09583333333335986
        },
        {
          "name": "B1",
          "midi": 35,
          "time": 299.4041666666648,
          "velocity": 1,
          "duration": 0.07916666666665151
        },
        {
          "name": "E1",
          "midi": 28,
          "time": 299.6041666666648,
          "velocity": 1,
          "duration": 0.9333333333333371
        },
        {
          "name": "G1",
          "midi": 31,
          "time": 300.8041666666648,
          "velocity": 1,
          "duration": 0.10000000000002274
        },
        {
          "name": "G1",
          "midi": 31,
          "time": 301.00416666666484,
          "velocity": 1,
          "duration": 0.11250000000001137
        },
        {
          "name": "D2",
          "midi": 38,
          "time": 301.20416666666483,
          "velocity": 1,
          "duration": 0.14583333333331439
        },
        {
          "name": "G2",
          "midi": 43,
          "time": 301.4041666666648,
          "velocity": 1,
          "duration": 0.17500000000001137
        },
        {
          "name": "D2",
          "midi": 38,
          "time": 302.20416666666483,
          "velocity": 1,
          "duration": 0.10833333333334849
        },
        {
          "name": "G2",
          "midi": 43,
          "time": 302.4041666666648,
          "velocity": 1,
          "duration": 0.08749999999997726
        },
        {
          "name": "G2",
          "midi": 43,
          "time": 302.6041666666648,
          "velocity": 1,
          "duration": 0.07916666666665151
        },
        {
          "name": "D2",
          "midi": 38,
          "time": 302.8041666666648,
          "velocity": 1,
          "duration": 0.6999999999999886
        },
        {
          "name": "D2",
          "midi": 38,
          "time": 304.0041666666648,
          "velocity": 1,
          "duration": 0.11250000000001137
        },
        {
          "name": "D2",
          "midi": 38,
          "time": 304.2041666666648,
          "velocity": 1,
          "duration": 0.1416666666666515
        },
        {
          "name": "A2",
          "midi": 45,
          "time": 304.40416666666476,
          "velocity": 1,
          "duration": 0.15416666666664014
        },
        {
          "name": "D3",
          "midi": 50,
          "time": 304.60416666666475,
          "velocity": 1,
          "duration": 0.15416666666669698
        },
        {
          "name": "A2",
          "midi": 45,
          "time": 305.40416666666476,
          "velocity": 1,
          "duration": 0.11250000000001137
        },
        {
          "name": "D3",
          "midi": 50,
          "time": 305.60416666666475,
          "velocity": 1,
          "duration": 0.07916666666665151
        },
        {
          "name": "A2",
          "midi": 45,
          "time": 305.80416666666474,
          "velocity": 1,
          "duration": 0.07916666666665151
        },
        {
          "name": "D2",
          "midi": 38,
          "time": 306.00416666666473,
          "velocity": 1,
          "duration": 0.9125000000000227
        },
        {
          "name": "E1",
          "midi": 28,
          "time": 307.2041666666648,
          "velocity": 1,
          "duration": 0.12083333333333712
        },
        {
          "name": "E1",
          "midi": 28,
          "time": 307.40416666666476,
          "velocity": 1,
          "duration": 0.11250000000001137
        },
        {
          "name": "B1",
          "midi": 35,
          "time": 307.60416666666475,
          "velocity": 1,
          "duration": 0.1416666666666515
        },
        {
          "name": "E2",
          "midi": 40,
          "time": 307.80416666666474,
          "velocity": 1,
          "duration": 0.13333333333332575
        },
        {
          "name": "B1",
          "midi": 35,
          "time": 308.60416666666475,
          "velocity": 1,
          "duration": 0.10833333333334849
        },
        {
          "name": "E2",
          "midi": 40,
          "time": 308.80416666666474,
          "velocity": 1,
          "duration": 0.10833333333334849
        },
        {
          "name": "E2",
          "midi": 40,
          "time": 309.00416666666473,
          "velocity": 1,
          "duration": 0.09583333333335986
        },
        {
          "name": "B1",
          "midi": 35,
          "time": 309.2041666666648,
          "velocity": 1,
          "duration": 0.7416666666666742
        },
        {
          "name": "F#1",
          "midi": 30,
          "time": 310.40416666666476,
          "velocity": 1,
          "duration": 0.09583333333335986
        },
        {
          "name": "F#1",
          "midi": 30,
          "time": 310.6041666666648,
          "velocity": 1,
          "duration": 0.08749999999997726
        },
        {
          "name": "C#2",
          "midi": 37,
          "time": 310.8041666666648,
          "velocity": 1,
          "duration": 0.12916666666666288
        },
        {
          "name": "F#2",
          "midi": 42,
          "time": 311.0041666666648,
          "velocity": 1,
          "duration": 0.1416666666666515
        },
        {
          "name": "C#2",
          "midi": 37,
          "time": 311.8041666666648,
          "velocity": 1,
          "duration": 0.10833333333334849
        },
        {
          "name": "F#2",
          "midi": 42,
          "time": 312.0041666666648,
          "velocity": 1,
          "duration": 0.15416666666664014
        },
        {
          "name": "C#2",
          "midi": 37,
          "time": 312.60416666666475,
          "velocity": 1,
          "duration": 0.10000000000002274
        },
        {
          "name": "F#2",
          "midi": 42,
          "time": 312.8041666666648,
          "velocity": 1,
          "duration": 0.19583333333332575
        }
      ],
      "controlChanges": {
        "7": [
          {
            "number": 7,
            "time": 3.2,
            "value": 0.8661417322834646
          },
          {
            "number": 7,
            "time": 271.6374999999991,
            "value": 0.8661417322834646
          },
          {
            "number": 7,
            "time": 294.7374999999982,
            "value": 0.8503937007874016
          },
          {
            "number": 7,
            "time": 294.8708333333315,
            "value": 0.84251968503937
          },
          {
            "number": 7,
            "time": 294.9666666666649,
            "value": 0.8346456692913385
          },
          {
            "number": 7,
            "time": 295.07083333333156,
            "value": 0.8110236220472441
          },
          {
            "number": 7,
            "time": 295.5374999999982,
            "value": 0.7952755905511811
          },
          {
            "number": 7,
            "time": 295.9374999999982,
            "value": 0.7795275590551181
          },
          {
            "number": 7,
            "time": 296.1249999999982,
            "value": 0.6535433070866141
          },
          {
            "number": 7,
            "time": 296.5708333333315,
            "value": 0.6220472440944882
          },
          {
            "number": 7,
            "time": 296.70416666666483,
            "value": 0.5748031496062992
          },
          {
            "number": 7,
            "time": 296.9041666666648,
            "value": 0.5669291338582677
          },
          {
            "number": 7,
            "time": 297.3041666666648,
            "value": 0.5354330708661418
          },
          {
            "number": 7,
            "time": 297.4458333333315,
            "value": 0.5039370078740157
          },
          {
            "number": 7,
            "time": 297.60416666666487,
            "value": 0.4645669291338583
          },
          {
            "number": 7,
            "time": 297.7249999999982,
            "value": 0.4566929133858268
          },
          {
            "number": 7,
            "time": 297.8708333333315,
            "value": 0.44881889763779526
          },
          {
            "number": 7,
            "time": 298.00416666666484,
            "value": 0.4015748031496063
          },
          {
            "number": 7,
            "time": 298.53749999999815,
            "value": 0.3779527559055118
          },
          {
            "number": 7,
            "time": 298.6708333333315,
            "value": 0.3700787401574803
          },
          {
            "number": 7,
            "time": 299.64999999999816,
            "value": 0.36220472440944884
          },
          {
            "number": 7,
            "time": 299.7583333333315,
            "value": 0.33070866141732286
          },
          {
            "number": 7,
            "time": 300.73749999999814,
            "value": 0.31496062992125984
          },
          {
            "number": 7,
            "time": 300.83749999999816,
            "value": 0.2992125984251969
          },
          {
            "number": 7,
            "time": 301.11666666666486,
            "value": 0.28346456692913385
          },
          {
            "number": 7,
            "time": 301.2708333333315,
            "value": 0.25984251968503935
          },
          {
            "number": 7,
            "time": 302.00416666666484,
            "value": 0.25196850393700787
          },
          {
            "number": 7,
            "time": 302.2708333333315,
            "value": 0.2440944881889764
          },
          {
            "number": 7,
            "time": 302.6708333333315,
            "value": 0.2125984251968504
          },
          {
            "number": 7,
            "time": 302.8041666666648,
            "value": 0.1889763779527559
          },
          {
            "number": 7,
            "time": 304.5583333333314,
            "value": 0.18110236220472442
          },
          {
            "number": 7,
            "time": 304.6374999999981,
            "value": 0.1732283464566929
          },
          {
            "number": 7,
            "time": 304.73749999999814,
            "value": 0.12598425196850394
          },
          {
            "number": 7,
            "time": 304.87083333333146,
            "value": 0.11023622047244094
          },
          {
            "number": 7,
            "time": 305.3999999999981,
            "value": 0.09448818897637795
          },
          {
            "number": 7,
            "time": 306.29166666666475,
            "value": 0.08661417322834646
          },
          {
            "number": 7,
            "time": 306.5374999999981,
            "value": 0.07874015748031496
          },
          {
            "number": 7,
            "time": 306.9833333333314,
            "value": 0.07086614173228346
          },
          {
            "number": 7,
            "time": 307.0374999999981,
            "value": 0.06299212598425197
          },
          {
            "number": 7,
            "time": 307.1374999999981,
            "value": 0.05511811023622047
          },
          {
            "number": 7,
            "time": 307.23749999999814,
            "value": 0.047244094488188976
          },
          {
            "number": 7,
            "time": 307.4374999999981,
            "value": 0.03937007874015748
          },
          {
            "number": 7,
            "time": 307.5999999999981,
            "value": 0
          }
        ],
        "10": [
          {
            "number": 10,
            "time": 271.6374999999991,
            "value": 0.5039370078740157
          }
        ]
      },
      "id": 3,
      "name": "FINGERDBAS",
      "instrumentNumber": 33,
      "instrument": "electric bass (finger)",
      "instrumentFamily": "bass",
      "channelNumber": 2,
      "isPercussion": false
    },
    {
      "startTime": 108.80000000000001,
      "duration": 207.89999999999733,
      "length": 720,
      "notes": [
        {
          "name": "G5",
          "midi": 79,
          "time": 108.80000000000001,
          "velocity": 1,
          "duration": 0.09999999999999432
        },
        {
          "name": "B4",
          "midi": 71,
          "time": 108.80000000000001,
          "velocity": 1,
          "duration": 0.09999999999999432
        },
        {
          "name": "D5",
          "midi": 74,
          "time": 108.80000000000001,
          "velocity": 1,
          "duration": 0.09999999999999432
        },
        {
          "name": "B4",
          "midi": 71,
          "time": 109,
          "velocity": 0.47244094488188976,
          "duration": 0.09999999999999432
        },
        {
          "name": "D5",
          "midi": 74,
          "time": 109,
          "velocity": 0.47244094488188976,
          "duration": 0.09999999999999432
        },
        {
          "name": "G5",
          "midi": 79,
          "time": 109,
          "velocity": 0.47244094488188976,
          "duration": 0.09999999999999432
        },
        {
          "name": "B4",
          "midi": 71,
          "time": 109.19999999999999,
          "velocity": 0.47244094488188976,
          "duration": 0.09999999999999432
        },
        {
          "name": "D5",
          "midi": 74,
          "time": 109.19999999999999,
          "velocity": 0.47244094488188976,
          "duration": 0.09999999999999432
        },
        {
          "name": "G5",
          "midi": 79,
          "time": 109.19999999999999,
          "velocity": 0.47244094488188976,
          "duration": 0.09999999999999432
        },
        {
          "name": "B4",
          "midi": 71,
          "time": 109.39999999999998,
          "velocity": 1,
          "duration": 0.09999999999999432
        },
        {
          "name": "D5",
          "midi": 74,
          "time": 109.39999999999998,
          "velocity": 1,
          "duration": 0.09999999999999432
        },
        {
          "name": "G5",
          "midi": 79,
          "time": 109.39999999999998,
          "velocity": 1,
          "duration": 0.09999999999999432
        },
        {
          "name": "B4",
          "midi": 71,
          "time": 109.59999999999997,
          "velocity": 0.47244094488188976,
          "duration": 0.09999999999999432
        },
        {
          "name": "D5",
          "midi": 74,
          "time": 109.59999999999997,
          "velocity": 0.47244094488188976,
          "duration": 0.09999999999999432
        },
        {
          "name": "G5",
          "midi": 79,
          "time": 109.59999999999997,
          "velocity": 0.47244094488188976,
          "duration": 0.09999999999999432
        },
        {
          "name": "B4",
          "midi": 71,
          "time": 109.79999999999995,
          "velocity": 0.47244094488188976,
          "duration": 0.09999999999999432
        },
        {
          "name": "D5",
          "midi": 74,
          "time": 109.79999999999995,
          "velocity": 1,
          "duration": 0.09999999999999432
        },
        {
          "name": "G5",
          "midi": 79,
          "time": 109.79999999999995,
          "velocity": 0.47244094488188976,
          "duration": 0.09999999999999432
        },
        {
          "name": "B4",
          "midi": 71,
          "time": 109.99999999999994,
          "velocity": 1,
          "duration": 0.09999999999999432
        },
        {
          "name": "D5",
          "midi": 74,
          "time": 109.99999999999994,
          "velocity": 1,
          "duration": 0.09999999999999432
        },
        {
          "name": "G5",
          "midi": 79,
          "time": 109.99999999999994,
          "velocity": 1,
          "duration": 0.09999999999999432
        },
        {
          "name": "B4",
          "midi": 71,
          "time": 110.19999999999993,
          "velocity": 0.47244094488188976,
          "duration": 0.09999999999999432
        },
        {
          "name": "D5",
          "midi": 74,
          "time": 110.19999999999993,
          "velocity": 0.47244094488188976,
          "duration": 0.09999999999999432
        },
        {
          "name": "G5",
          "midi": 79,
          "time": 110.19999999999993,
          "velocity": 0.47244094488188976,
          "duration": 0.09999999999999432
        },
        {
          "name": "B4",
          "midi": 71,
          "time": 110.39999999999992,
          "velocity": 0.47244094488188976,
          "duration": 0.09999999999999432
        },
        {
          "name": "G5",
          "midi": 79,
          "time": 110.39999999999992,
          "velocity": 0.47244094488188976,
          "duration": 0.09999999999999432
        },
        {
          "name": "D5",
          "midi": 74,
          "time": 110.39999999999992,
          "velocity": 0.47244094488188976,
          "duration": 0.09999999999999432
        },
        {
          "name": "G5",
          "midi": 79,
          "time": 110.59999999999991,
          "velocity": 1,
          "duration": 0.09999999999999432
        },
        {
          "name": "D5",
          "midi": 74,
          "time": 110.59999999999991,
          "velocity": 1,
          "duration": 0.09999999999999432
        },
        {
          "name": "B4",
          "midi": 71,
          "time": 110.59999999999991,
          "velocity": 1,
          "duration": 0.09999999999999432
        },
        {
          "name": "B4",
          "midi": 71,
          "time": 110.7999999999999,
          "velocity": 0.47244094488188976,
          "duration": 0.09999999999999432
        },
        {
          "name": "D5",
          "midi": 74,
          "time": 110.7999999999999,
          "velocity": 0.47244094488188976,
          "duration": 0.09999999999999432
        },
        {
          "name": "G5",
          "midi": 79,
          "time": 110.7999999999999,
          "velocity": 0.47244094488188976,
          "duration": 0.09999999999999432
        },
        {
          "name": "B4",
          "midi": 71,
          "time": 110.99999999999989,
          "velocity": 0.47244094488188976,
          "duration": 0.09999999999999432
        },
        {
          "name": "D5",
          "midi": 74,
          "time": 110.99999999999989,
          "velocity": 0.47244094488188976,
          "duration": 0.09999999999999432
        },
        {
          "name": "G5",
          "midi": 79,
          "time": 110.99999999999989,
          "velocity": 0.47244094488188976,
          "duration": 0.09999999999999432
        },
        {
          "name": "G5",
          "midi": 79,
          "time": 111.19999999999987,
          "velocity": 1,
          "duration": 0.09999999999999432
        },
        {
          "name": "B4",
          "midi": 71,
          "time": 111.19999999999987,
          "velocity": 1,
          "duration": 0.09999999999999432
        },
        {
          "name": "D5",
          "midi": 74,
          "time": 111.19999999999987,
          "velocity": 1,
          "duration": 0.09999999999999432
        },
        {
          "name": "B4",
          "midi": 71,
          "time": 111.39999999999986,
          "velocity": 0.47244094488188976,
          "duration": 0.09999999999999432
        },
        {
          "name": "G5",
          "midi": 79,
          "time": 111.39999999999986,
          "velocity": 0.47244094488188976,
          "duration": 0.09999999999999432
        },
        {
          "name": "D5",
          "midi": 74,
          "time": 111.39999999999986,
          "velocity": 0.47244094488188976,
          "duration": 0.09999999999999432
        },
        {
          "name": "B4",
          "midi": 71,
          "time": 111.59999999999985,
          "velocity": 0.47244094488188976,
          "duration": 0.09999999999999432
        },
        {
          "name": "D5",
          "midi": 74,
          "time": 111.59999999999985,
          "velocity": 0.47244094488188976,
          "duration": 0.09999999999999432
        },
        {
          "name": "G5",
          "midi": 79,
          "time": 111.59999999999985,
          "velocity": 0.47244094488188976,
          "duration": 0.09999999999999432
        },
        {
          "name": "B4",
          "midi": 71,
          "time": 111.79999999999984,
          "velocity": 1,
          "duration": 0.09999999999999432
        },
        {
          "name": "G5",
          "midi": 79,
          "time": 111.79999999999984,
          "velocity": 1,
          "duration": 0.09999999999999432
        },
        {
          "name": "D5",
          "midi": 74,
          "time": 111.79999999999984,
          "velocity": 0.9921259842519685,
          "duration": 0.19166666666666288
        },
        {
          "name": "A4",
          "midi": 69,
          "time": 111.99999999999984,
          "velocity": 0.47244094488188976,
          "duration": 0.09999999999999432
        },
        {
          "name": "F#5",
          "midi": 78,
          "time": 111.99999999999984,
          "velocity": 0.47244094488188976,
          "duration": 0.09999999999999432
        },
        {
          "name": "D5",
          "midi": 74,
          "time": 111.99999999999984,
          "velocity": 0.47244094488188976,
          "duration": 0.09999999999999432
        },
        {
          "name": "F#5",
          "midi": 78,
          "time": 112.19999999999983,
          "velocity": 0.47244094488188976,
          "duration": 0.09999999999999432
        },
        {
          "name": "D5",
          "midi": 74,
          "time": 112.19999999999983,
          "velocity": 0.47244094488188976,
          "duration": 0.09999999999999432
        },
        {
          "name": "A4",
          "midi": 69,
          "time": 112.19999999999983,
          "velocity": 0.47244094488188976,
          "duration": 0.09999999999999432
        },
        {
          "name": "A4",
          "midi": 69,
          "time": 112.39999999999982,
          "velocity": 1,
          "duration": 0.09999999999999432
        },
        {
          "name": "D5",
          "midi": 74,
          "time": 112.39999999999982,
          "velocity": 1,
          "duration": 0.09999999999999432
        },
        {
          "name": "F#5",
          "midi": 78,
          "time": 112.39999999999982,
          "velocity": 1,
          "duration": 0.09999999999999432
        },
        {
          "name": "A4",
          "midi": 69,
          "time": 112.59999999999981,
          "velocity": 0.47244094488188976,
          "duration": 0.09999999999999432
        },
        {
          "name": "D5",
          "midi": 74,
          "time": 112.59999999999981,
          "velocity": 0.47244094488188976,
          "duration": 0.09999999999999432
        },
        {
          "name": "F#5",
          "midi": 78,
          "time": 112.59999999999981,
          "velocity": 0.47244094488188976,
          "duration": 0.09999999999999432
        },
        {
          "name": "A4",
          "midi": 69,
          "time": 112.7999999999998,
          "velocity": 0.47244094488188976,
          "duration": 0.09999999999999432
        },
        {
          "name": "D5",
          "midi": 74,
          "time": 112.7999999999998,
          "velocity": 0.47244094488188976,
          "duration": 0.09999999999999432
        },
        {
          "name": "F#5",
          "midi": 78,
          "time": 112.7999999999998,
          "velocity": 0.47244094488188976,
          "duration": 0.09999999999999432
        },
        {
          "name": "A4",
          "midi": 69,
          "time": 112.99999999999979,
          "velocity": 1,
          "duration": 0.09999999999999432
        },
        {
          "name": "D5",
          "midi": 74,
          "time": 112.99999999999979,
          "velocity": 1,
          "duration": 0.09999999999999432
        },
        {
          "name": "F#5",
          "midi": 78,
          "time": 112.99999999999979,
          "velocity": 1,
          "duration": 0.09999999999999432
        },
        {
          "name": "A4",
          "midi": 69,
          "time": 113.19999999999978,
          "velocity": 0.47244094488188976,
          "duration": 0.09999999999999432
        },
        {
          "name": "D5",
          "midi": 74,
          "time": 113.19999999999978,
          "velocity": 0.47244094488188976,
          "duration": 0.09999999999999432
        },
        {
          "name": "F#5",
          "midi": 78,
          "time": 113.19999999999978,
          "velocity": 0.47244094488188976,
          "duration": 0.09999999999999432
        },
        {
          "name": "F#5",
          "midi": 78,
          "time": 113.39999999999976,
          "velocity": 0.47244094488188976,
          "duration": 0.09999999999999432
        },
        {
          "name": "A4",
          "midi": 69,
          "time": 113.39999999999976,
          "velocity": 0.47244094488188976,
          "duration": 0.09999999999999432
        },
        {
          "name": "D5",
          "midi": 74,
          "time": 113.39999999999976,
          "velocity": 0.47244094488188976,
          "duration": 0.09999999999999432
        },
        {
          "name": "A4",
          "midi": 69,
          "time": 113.59999999999975,
          "velocity": 1,
          "duration": 0.09999999999999432
        },
        {
          "name": "F#5",
          "midi": 78,
          "time": 113.59999999999975,
          "velocity": 1,
          "duration": 0.09999999999999432
        },
        {
          "name": "D5",
          "midi": 74,
          "time": 113.59999999999975,
          "velocity": 1,
          "duration": 0.09999999999999432
        },
        {
          "name": "A4",
          "midi": 69,
          "time": 113.79999999999974,
          "velocity": 0.47244094488188976,
          "duration": 0.09999999999999432
        },
        {
          "name": "F#5",
          "midi": 78,
          "time": 113.79999999999974,
          "velocity": 0.47244094488188976,
          "duration": 0.09999999999999432
        },
        {
          "name": "D5",
          "midi": 74,
          "time": 113.79999999999974,
          "velocity": 0.47244094488188976,
          "duration": 0.09999999999999432
        },
        {
          "name": "A4",
          "midi": 69,
          "time": 113.99999999999973,
          "velocity": 0.47244094488188976,
          "duration": 0.09999999999999432
        },
        {
          "name": "F#5",
          "midi": 78,
          "time": 113.99999999999973,
          "velocity": 0.47244094488188976,
          "duration": 0.09999999999999432
        },
        {
          "name": "D5",
          "midi": 74,
          "time": 113.99999999999973,
          "velocity": 0.47244094488188976,
          "duration": 0.09999999999999432
        },
        {
          "name": "A4",
          "midi": 69,
          "time": 114.19999999999972,
          "velocity": 1,
          "duration": 0.09999999999999432
        },
        {
          "name": "F#5",
          "midi": 78,
          "time": 114.19999999999972,
          "velocity": 1,
          "duration": 0.09999999999999432
        },
        {
          "name": "D5",
          "midi": 74,
          "time": 114.19999999999972,
          "velocity": 1,
          "duration": 0.09999999999999432
        },
        {
          "name": "A4",
          "midi": 69,
          "time": 114.39999999999971,
          "velocity": 0.47244094488188976,
          "duration": 0.09999999999999432
        },
        {
          "name": "F#5",
          "midi": 78,
          "time": 114.39999999999971,
          "velocity": 0.47244094488188976,
          "duration": 0.09999999999999432
        },
        {
          "name": "D5",
          "midi": 74,
          "time": 114.39999999999971,
          "velocity": 0.47244094488188976,
          "duration": 0.09999999999999432
        },
        {
          "name": "A4",
          "midi": 69,
          "time": 114.5999999999997,
          "velocity": 0.47244094488188976,
          "duration": 0.09999999999999432
        },
        {
          "name": "F#5",
          "midi": 78,
          "time": 114.5999999999997,
          "velocity": 0.47244094488188976,
          "duration": 0.09999999999999432
        },
        {
          "name": "D5",
          "midi": 74,
          "time": 114.5999999999997,
          "velocity": 0.47244094488188976,
          "duration": 0.09999999999999432
        },
        {
          "name": "A4",
          "midi": 69,
          "time": 114.79999999999968,
          "velocity": 1,
          "duration": 0.09999999999999432
        },
        {
          "name": "F#5",
          "midi": 78,
          "time": 114.79999999999968,
          "velocity": 1,
          "duration": 0.09999999999999432
        },
        {
          "name": "D5",
          "midi": 74,
          "time": 114.79999999999968,
          "velocity": 1,
          "duration": 0.09999999999999432
        },
        {
          "name": "A4",
          "midi": 69,
          "time": 114.99999999999967,
          "velocity": 0.47244094488188976,
          "duration": 0.09999999999999432
        },
        {
          "name": "D5",
          "midi": 74,
          "time": 114.99999999999967,
          "velocity": 0.47244094488188976,
          "duration": 0.09999999999999432
        },
        {
          "name": "F#5",
          "midi": 78,
          "time": 114.99999999999967,
          "velocity": 0.47244094488188976,
          "duration": 0.09999999999999432
        },
        {
          "name": "A#4",
          "midi": 70,
          "time": 115.19999999999966,
          "velocity": 0.47244094488188976,
          "duration": 0.09999999999999432
        },
        {
          "name": "C#5",
          "midi": 73,
          "time": 115.19999999999966,
          "velocity": 0.47244094488188976,
          "duration": 0.09999999999999432
        },
        {
          "name": "F#5",
          "midi": 78,
          "time": 115.19999999999966,
          "velocity": 0.47244094488188976,
          "duration": 0.09999999999999432
        },
        {
          "name": "C#5",
          "midi": 73,
          "time": 115.39999999999965,
          "velocity": 1,
          "duration": 0.09999999999999432
        },
        {
          "name": "A#4",
          "midi": 70,
          "time": 115.39999999999965,
          "velocity": 1,
          "duration": 0.09999999999999432
        },
        {
          "name": "F#5",
          "midi": 78,
          "time": 115.39999999999965,
          "velocity": 1,
          "duration": 0.09999999999999432
        },
        {
          "name": "A#4",
          "midi": 70,
          "time": 115.59999999999964,
          "velocity": 0.47244094488188976,
          "duration": 0.09999999999999432
        },
        {
          "name": "F#5",
          "midi": 78,
          "time": 115.59999999999964,
          "velocity": 0.47244094488188976,
          "duration": 0.09999999999999432
        },
        {
          "name": "C#5",
          "midi": 73,
          "time": 115.59999999999964,
          "velocity": 0.47244094488188976,
          "duration": 0.09999999999999432
        },
        {
          "name": "A#4",
          "midi": 70,
          "time": 115.79999999999963,
          "velocity": 0.47244094488188976,
          "duration": 0.09999999999999432
        },
        {
          "name": "F#5",
          "midi": 78,
          "time": 115.79999999999963,
          "velocity": 0.47244094488188976,
          "duration": 0.09999999999999432
        },
        {
          "name": "C#5",
          "midi": 73,
          "time": 115.79999999999963,
          "velocity": 0.47244094488188976,
          "duration": 0.09999999999999432
        },
        {
          "name": "A#4",
          "midi": 70,
          "time": 115.99999999999962,
          "velocity": 1,
          "duration": 0.09999999999999432
        },
        {
          "name": "C#5",
          "midi": 73,
          "time": 115.99999999999962,
          "velocity": 1,
          "duration": 0.09999999999999432
        },
        {
          "name": "F#5",
          "midi": 78,
          "time": 115.99999999999962,
          "velocity": 1,
          "duration": 0.09999999999999432
        },
        {
          "name": "A#4",
          "midi": 70,
          "time": 116.1999999999996,
          "velocity": 0.47244094488188976,
          "duration": 0.09999999999999432
        },
        {
          "name": "F#5",
          "midi": 78,
          "time": 116.1999999999996,
          "velocity": 0.47244094488188976,
          "duration": 0.09999999999999432
        },
        {
          "name": "C#5",
          "midi": 73,
          "time": 116.1999999999996,
          "velocity": 0.47244094488188976,
          "duration": 0.09999999999999432
        },
        {
          "name": "A#4",
          "midi": 70,
          "time": 116.3999999999996,
          "velocity": 0.47244094488188976,
          "duration": 0.09999999999999432
        },
        {
          "name": "F#5",
          "midi": 78,
          "time": 116.3999999999996,
          "velocity": 0.47244094488188976,
          "duration": 0.09999999999999432
        },
        {
          "name": "C#5",
          "midi": 73,
          "time": 116.3999999999996,
          "velocity": 0.47244094488188976,
          "duration": 0.09999999999999432
        },
        {
          "name": "F#5",
          "midi": 78,
          "time": 116.59999999999958,
          "velocity": 1,
          "duration": 0.09999999999999432
        },
        {
          "name": "A#4",
          "midi": 70,
          "time": 116.59999999999958,
          "velocity": 1,
          "duration": 0.09999999999999432
        },
        {
          "name": "C#5",
          "midi": 73,
          "time": 116.59999999999958,
          "velocity": 1,
          "duration": 0.09999999999999432
        },
        {
          "name": "A#4",
          "midi": 70,
          "time": 116.79999999999957,
          "velocity": 0.47244094488188976,
          "duration": 0.09999999999999432
        },
        {
          "name": "C#5",
          "midi": 73,
          "time": 116.79999999999957,
          "velocity": 0.47244094488188976,
          "duration": 0.09999999999999432
        },
        {
          "name": "F#5",
          "midi": 78,
          "time": 116.79999999999957,
          "velocity": 0.47244094488188976,
          "duration": 0.09999999999999432
        },
        {
          "name": "A#4",
          "midi": 70,
          "time": 116.99999999999956,
          "velocity": 0.47244094488188976,
          "duration": 0.09999999999999432
        },
        {
          "name": "C#5",
          "midi": 73,
          "time": 116.99999999999956,
          "velocity": 0.47244094488188976,
          "duration": 0.09999999999999432
        },
        {
          "name": "F#5",
          "midi": 78,
          "time": 116.99999999999956,
          "velocity": 0.47244094488188976,
          "duration": 0.09999999999999432
        },
        {
          "name": "A#4",
          "midi": 70,
          "time": 117.19999999999955,
          "velocity": 1,
          "duration": 0.09999999999999432
        },
        {
          "name": "F#5",
          "midi": 78,
          "time": 117.19999999999955,
          "velocity": 1,
          "duration": 0.09999999999999432
        },
        {
          "name": "C#5",
          "midi": 73,
          "time": 117.19999999999955,
          "velocity": 1,
          "duration": 0.09999999999999432
        },
        {
          "name": "F#5",
          "midi": 78,
          "time": 117.39999999999954,
          "velocity": 0.47244094488188976,
          "duration": 0.09999999999999432
        },
        {
          "name": "A#4",
          "midi": 70,
          "time": 117.39999999999954,
          "velocity": 0.47244094488188976,
          "duration": 0.09999999999999432
        },
        {
          "name": "C#5",
          "midi": 73,
          "time": 117.39999999999954,
          "velocity": 0.47244094488188976,
          "duration": 0.09999999999999432
        },
        {
          "name": "F#5",
          "midi": 78,
          "time": 117.59999999999953,
          "velocity": 0.47244094488188976,
          "duration": 0.09999999999999432
        },
        {
          "name": "A#4",
          "midi": 70,
          "time": 117.59999999999953,
          "velocity": 0.47244094488188976,
          "duration": 0.09999999999999432
        },
        {
          "name": "C#5",
          "midi": 73,
          "time": 117.59999999999953,
          "velocity": 0.47244094488188976,
          "duration": 0.09999999999999432
        },
        {
          "name": "A#4",
          "midi": 70,
          "time": 117.79999999999951,
          "velocity": 1,
          "duration": 0.09999999999999432
        },
        {
          "name": "F#5",
          "midi": 78,
          "time": 117.79999999999951,
          "velocity": 1,
          "duration": 0.09999999999999432
        },
        {
          "name": "C#5",
          "midi": 73,
          "time": 117.79999999999951,
          "velocity": 1,
          "duration": 0.09999999999999432
        },
        {
          "name": "A#4",
          "midi": 70,
          "time": 117.9999999999995,
          "velocity": 0.47244094488188976,
          "duration": 0.09999999999999432
        },
        {
          "name": "F#5",
          "midi": 78,
          "time": 117.9999999999995,
          "velocity": 0.47244094488188976,
          "duration": 0.09999999999999432
        },
        {
          "name": "C#5",
          "midi": 73,
          "time": 117.9999999999995,
          "velocity": 0.47244094488188976,
          "duration": 0.09999999999999432
        },
        {
          "name": "F#5",
          "midi": 78,
          "time": 118.19999999999949,
          "velocity": 0.47244094488188976,
          "duration": 0.09999999999999432
        },
        {
          "name": "A#4",
          "midi": 70,
          "time": 118.19999999999949,
          "velocity": 0.47244094488188976,
          "duration": 0.09999999999999432
        },
        {
          "name": "C#5",
          "midi": 73,
          "time": 118.19999999999949,
          "velocity": 0.47244094488188976,
          "duration": 0.09999999999999432
        },
        {
          "name": "B4",
          "midi": 71,
          "time": 118.39999999999948,
          "velocity": 1,
          "duration": 0.09999999999999432
        },
        {
          "name": "D5",
          "midi": 74,
          "time": 118.39999999999948,
          "velocity": 1,
          "duration": 0.09999999999999432
        },
        {
          "name": "F#5",
          "midi": 78,
          "time": 118.39999999999948,
          "velocity": 1,
          "duration": 0.09999999999999432
        },
        {
          "name": "B4",
          "midi": 71,
          "time": 118.59999999999947,
          "velocity": 0.47244094488188976,
          "duration": 0.09999999999999432
        },
        {
          "name": "D5",
          "midi": 74,
          "time": 118.59999999999947,
          "velocity": 0.47244094488188976,
          "duration": 0.09999999999999432
        },
        {
          "name": "F#5",
          "midi": 78,
          "time": 118.59999999999947,
          "velocity": 0.47244094488188976,
          "duration": 0.09999999999999432
        },
        {
          "name": "B4",
          "midi": 71,
          "time": 118.79999999999946,
          "velocity": 0.47244094488188976,
          "duration": 0.09999999999999432
        },
        {
          "name": "D5",
          "midi": 74,
          "time": 118.79999999999946,
          "velocity": 0.47244094488188976,
          "duration": 0.09999999999999432
        },
        {
          "name": "F#5",
          "midi": 78,
          "time": 118.79999999999946,
          "velocity": 0.47244094488188976,
          "duration": 0.09999999999999432
        },
        {
          "name": "B4",
          "midi": 71,
          "time": 118.99999999999945,
          "velocity": 1,
          "duration": 0.09999999999999432
        },
        {
          "name": "D5",
          "midi": 74,
          "time": 118.99999999999945,
          "velocity": 1,
          "duration": 0.09999999999999432
        },
        {
          "name": "F#5",
          "midi": 78,
          "time": 118.99999999999945,
          "velocity": 1,
          "duration": 0.09999999999999432
        },
        {
          "name": "D5",
          "midi": 74,
          "time": 119.19999999999943,
          "velocity": 0.47244094488188976,
          "duration": 0.09999999999999432
        },
        {
          "name": "B4",
          "midi": 71,
          "time": 119.19999999999943,
          "velocity": 0.47244094488188976,
          "duration": 0.09999999999999432
        },
        {
          "name": "F#5",
          "midi": 78,
          "time": 119.19999999999943,
          "velocity": 0.47244094488188976,
          "duration": 0.09999999999999432
        },
        {
          "name": "B4",
          "midi": 71,
          "time": 119.39999999999942,
          "velocity": 0.47244094488188976,
          "duration": 0.09999999999999432
        },
        {
          "name": "D5",
          "midi": 74,
          "time": 119.39999999999942,
          "velocity": 0.47244094488188976,
          "duration": 0.09999999999999432
        },
        {
          "name": "F#5",
          "midi": 78,
          "time": 119.39999999999942,
          "velocity": 0.47244094488188976,
          "duration": 0.09999999999999432
        },
        {
          "name": "B4",
          "midi": 71,
          "time": 119.59999999999941,
          "velocity": 1,
          "duration": 0.09999999999999432
        },
        {
          "name": "D5",
          "midi": 74,
          "time": 119.59999999999941,
          "velocity": 1,
          "duration": 0.09999999999999432
        },
        {
          "name": "F#5",
          "midi": 78,
          "time": 119.59999999999941,
          "velocity": 1,
          "duration": 0.09999999999999432
        },
        {
          "name": "B4",
          "midi": 71,
          "time": 119.7999999999994,
          "velocity": 0.47244094488188976,
          "duration": 0.09999999999999432
        },
        {
          "name": "D5",
          "midi": 74,
          "time": 119.7999999999994,
          "velocity": 0.47244094488188976,
          "duration": 0.09999999999999432
        },
        {
          "name": "F#5",
          "midi": 78,
          "time": 119.7999999999994,
          "velocity": 0.47244094488188976,
          "duration": 0.09999999999999432
        },
        {
          "name": "B4",
          "midi": 71,
          "time": 119.99999999999939,
          "velocity": 0.47244094488188976,
          "duration": 0.09999999999999432
        },
        {
          "name": "D5",
          "midi": 74,
          "time": 119.99999999999939,
          "velocity": 0.47244094488188976,
          "duration": 0.09999999999999432
        },
        {
          "name": "F#5",
          "midi": 78,
          "time": 119.99999999999939,
          "velocity": 0.47244094488188976,
          "duration": 0.09999999999999432
        },
        {
          "name": "B4",
          "midi": 71,
          "time": 120.19999999999938,
          "velocity": 1,
          "duration": 0.09999999999999432
        },
        {
          "name": "D5",
          "midi": 74,
          "time": 120.19999999999938,
          "velocity": 1,
          "duration": 0.09999999999999432
        },
        {
          "name": "F#5",
          "midi": 78,
          "time": 120.19999999999938,
          "velocity": 1,
          "duration": 0.09999999999999432
        },
        {
          "name": "D5",
          "midi": 74,
          "time": 120.39999999999937,
          "velocity": 0.47244094488188976,
          "duration": 0.09999999999999432
        },
        {
          "name": "B4",
          "midi": 71,
          "time": 120.39999999999937,
          "velocity": 0.47244094488188976,
          "duration": 0.09999999999999432
        },
        {
          "name": "F#5",
          "midi": 78,
          "time": 120.39999999999937,
          "velocity": 0.47244094488188976,
          "duration": 0.09999999999999432
        },
        {
          "name": "B4",
          "midi": 71,
          "time": 120.59999999999935,
          "velocity": 0.47244094488188976,
          "duration": 0.09999999999999432
        },
        {
          "name": "D5",
          "midi": 74,
          "time": 120.59999999999935,
          "velocity": 0.47244094488188976,
          "duration": 0.09999999999999432
        },
        {
          "name": "F#5",
          "midi": 78,
          "time": 120.59999999999935,
          "velocity": 0.47244094488188976,
          "duration": 0.09999999999999432
        },
        {
          "name": "B4",
          "midi": 71,
          "time": 120.79999999999934,
          "velocity": 1,
          "duration": 0.09999999999999432
        },
        {
          "name": "D5",
          "midi": 74,
          "time": 120.79999999999934,
          "velocity": 1,
          "duration": 0.09999999999999432
        },
        {
          "name": "F#5",
          "midi": 78,
          "time": 120.79999999999934,
          "velocity": 1,
          "duration": 0.09999999999999432
        },
        {
          "name": "B4",
          "midi": 71,
          "time": 120.99999999999933,
          "velocity": 0.47244094488188976,
          "duration": 0.09999999999999432
        },
        {
          "name": "F#5",
          "midi": 78,
          "time": 120.99999999999933,
          "velocity": 0.47244094488188976,
          "duration": 0.09999999999999432
        },
        {
          "name": "D5",
          "midi": 74,
          "time": 120.99999999999933,
          "velocity": 0.47244094488188976,
          "duration": 0.09999999999999432
        },
        {
          "name": "B4",
          "midi": 71,
          "time": 121.19999999999932,
          "velocity": 0.47244094488188976,
          "duration": 0.09999999999999432
        },
        {
          "name": "F#5",
          "midi": 78,
          "time": 121.19999999999932,
          "velocity": 0.47244094488188976,
          "duration": 0.09999999999999432
        },
        {
          "name": "D5",
          "midi": 74,
          "time": 121.19999999999932,
          "velocity": 0.47244094488188976,
          "duration": 0.09999999999999432
        },
        {
          "name": "B4",
          "midi": 71,
          "time": 121.39999999999931,
          "velocity": 0.47244094488188976,
          "duration": 0.09999999999999432
        },
        {
          "name": "D5",
          "midi": 74,
          "time": 121.39999999999931,
          "velocity": 0.47244094488188976,
          "duration": 0.09999999999999432
        },
        {
          "name": "F#5",
          "midi": 78,
          "time": 121.39999999999931,
          "velocity": 0.47244094488188976,
          "duration": 0.09999999999999432
        },
        {
          "name": "G5",
          "midi": 79,
          "time": 121.5999999999993,
          "velocity": 1,
          "duration": 0.09999999999999432
        },
        {
          "name": "B4",
          "midi": 71,
          "time": 121.5999999999993,
          "velocity": 1,
          "duration": 0.09999999999999432
        },
        {
          "name": "D5",
          "midi": 74,
          "time": 121.5999999999993,
          "velocity": 1,
          "duration": 0.09999999999999432
        },
        {
          "name": "B4",
          "midi": 71,
          "time": 121.79999999999929,
          "velocity": 0.47244094488188976,
          "duration": 0.09999999999999432
        },
        {
          "name": "D5",
          "midi": 74,
          "time": 121.79999999999929,
          "velocity": 0.47244094488188976,
          "duration": 0.09999999999999432
        },
        {
          "name": "G5",
          "midi": 79,
          "time": 121.79999999999929,
          "velocity": 0.47244094488188976,
          "duration": 0.09999999999999432
        },
        {
          "name": "B4",
          "midi": 71,
          "time": 121.99999999999928,
          "velocity": 0.47244094488188976,
          "duration": 0.09999999999999432
        },
        {
          "name": "D5",
          "midi": 74,
          "time": 121.99999999999928,
          "velocity": 0.47244094488188976,
          "duration": 0.09999999999999432
        },
        {
          "name": "G5",
          "midi": 79,
          "time": 121.99999999999928,
          "velocity": 0.47244094488188976,
          "duration": 0.09999999999999432
        },
        {
          "name": "B4",
          "midi": 71,
          "time": 122.19999999999926,
          "velocity": 1,
          "duration": 0.09999999999999432
        },
        {
          "name": "D5",
          "midi": 74,
          "time": 122.19999999999926,
          "velocity": 1,
          "duration": 0.09999999999999432
        },
        {
          "name": "G5",
          "midi": 79,
          "time": 122.19999999999926,
          "velocity": 1,
          "duration": 0.09999999999999432
        },
        {
          "name": "B4",
          "midi": 71,
          "time": 122.39999999999925,
          "velocity": 0.47244094488188976,
          "duration": 0.09999999999999432
        },
        {
          "name": "D5",
          "midi": 74,
          "time": 122.39999999999925,
          "velocity": 0.47244094488188976,
          "duration": 0.09999999999999432
        },
        {
          "name": "G5",
          "midi": 79,
          "time": 122.39999999999925,
          "velocity": 0.47244094488188976,
          "duration": 0.09999999999999432
        },
        {
          "name": "B4",
          "midi": 71,
          "time": 122.59999999999924,
          "velocity": 0.47244094488188976,
          "duration": 0.09999999999999432
        },
        {
          "name": "D5",
          "midi": 74,
          "time": 122.59999999999924,
          "velocity": 1,
          "duration": 0.09999999999999432
        },
        {
          "name": "G5",
          "midi": 79,
          "time": 122.59999999999924,
          "velocity": 0.47244094488188976,
          "duration": 0.09999999999999432
        },
        {
          "name": "B4",
          "midi": 71,
          "time": 122.79999999999923,
          "velocity": 1,
          "duration": 0.09999999999999432
        },
        {
          "name": "D5",
          "midi": 74,
          "time": 122.79999999999923,
          "velocity": 1,
          "duration": 0.09999999999999432
        },
        {
          "name": "G5",
          "midi": 79,
          "time": 122.79999999999923,
          "velocity": 1,
          "duration": 0.09999999999999432
        },
        {
          "name": "B4",
          "midi": 71,
          "time": 122.99999999999922,
          "velocity": 0.47244094488188976,
          "duration": 0.09999999999999432
        },
        {
          "name": "D5",
          "midi": 74,
          "time": 122.99999999999922,
          "velocity": 0.47244094488188976,
          "duration": 0.09999999999999432
        },
        {
          "name": "G5",
          "midi": 79,
          "time": 122.99999999999922,
          "velocity": 0.47244094488188976,
          "duration": 0.09999999999999432
        },
        {
          "name": "B4",
          "midi": 71,
          "time": 123.1999999999992,
          "velocity": 0.47244094488188976,
          "duration": 0.09999999999999432
        },
        {
          "name": "G5",
          "midi": 79,
          "time": 123.1999999999992,
          "velocity": 0.47244094488188976,
          "duration": 0.09999999999999432
        },
        {
          "name": "D5",
          "midi": 74,
          "time": 123.1999999999992,
          "velocity": 0.47244094488188976,
          "duration": 0.09999999999999432
        },
        {
          "name": "G5",
          "midi": 79,
          "time": 123.3999999999992,
          "velocity": 1,
          "duration": 0.09999999999999432
        },
        {
          "name": "D5",
          "midi": 74,
          "time": 123.3999999999992,
          "velocity": 1,
          "duration": 0.09999999999999432
        },
        {
          "name": "B4",
          "midi": 71,
          "time": 123.3999999999992,
          "velocity": 1,
          "duration": 0.09999999999999432
        },
        {
          "name": "B4",
          "midi": 71,
          "time": 123.59999999999918,
          "velocity": 0.47244094488188976,
          "duration": 0.09999999999999432
        },
        {
          "name": "D5",
          "midi": 74,
          "time": 123.59999999999918,
          "velocity": 0.47244094488188976,
          "duration": 0.09999999999999432
        },
        {
          "name": "G5",
          "midi": 79,
          "time": 123.59999999999918,
          "velocity": 0.47244094488188976,
          "duration": 0.09999999999999432
        },
        {
          "name": "B4",
          "midi": 71,
          "time": 123.79999999999917,
          "velocity": 0.47244094488188976,
          "duration": 0.09999999999999432
        },
        {
          "name": "D5",
          "midi": 74,
          "time": 123.79999999999917,
          "velocity": 0.47244094488188976,
          "duration": 0.09999999999999432
        },
        {
          "name": "G5",
          "midi": 79,
          "time": 123.79999999999917,
          "velocity": 0.47244094488188976,
          "duration": 0.09999999999999432
        },
        {
          "name": "G5",
          "midi": 79,
          "time": 123.99999999999916,
          "velocity": 1,
          "duration": 0.09999999999999432
        },
        {
          "name": "B4",
          "midi": 71,
          "time": 123.99999999999916,
          "velocity": 1,
          "duration": 0.09999999999999432
        },
        {
          "name": "D5",
          "midi": 74,
          "time": 123.99999999999916,
          "velocity": 1,
          "duration": 0.09999999999999432
        },
        {
          "name": "B4",
          "midi": 71,
          "time": 124.19999999999915,
          "velocity": 0.47244094488188976,
          "duration": 0.09999999999999432
        },
        {
          "name": "G5",
          "midi": 79,
          "time": 124.19999999999915,
          "velocity": 0.47244094488188976,
          "duration": 0.09999999999999432
        },
        {
          "name": "D5",
          "midi": 74,
          "time": 124.19999999999915,
          "velocity": 0.47244094488188976,
          "duration": 0.09999999999999432
        },
        {
          "name": "B4",
          "midi": 71,
          "time": 124.39999999999914,
          "velocity": 0.47244094488188976,
          "duration": 0.09999999999999432
        },
        {
          "name": "D5",
          "midi": 74,
          "time": 124.39999999999914,
          "velocity": 0.47244094488188976,
          "duration": 0.09999999999999432
        },
        {
          "name": "G5",
          "midi": 79,
          "time": 124.39999999999914,
          "velocity": 0.47244094488188976,
          "duration": 0.09999999999999432
        },
        {
          "name": "B4",
          "midi": 71,
          "time": 124.59999999999913,
          "velocity": 1,
          "duration": 0.09999999999999432
        },
        {
          "name": "G5",
          "midi": 79,
          "time": 124.59999999999913,
          "velocity": 1,
          "duration": 0.09999999999999432
        },
        {
          "name": "D5",
          "midi": 74,
          "time": 124.59999999999913,
          "velocity": 0.9921259842519685,
          "duration": 0.19166666666666288
        },
        {
          "name": "A4",
          "midi": 69,
          "time": 124.79999999999913,
          "velocity": 0.47244094488188976,
          "duration": 0.09999999999999432
        },
        {
          "name": "F#5",
          "midi": 78,
          "time": 124.79999999999913,
          "velocity": 0.47244094488188976,
          "duration": 0.09999999999999432
        },
        {
          "name": "D5",
          "midi": 74,
          "time": 124.79999999999913,
          "velocity": 0.47244094488188976,
          "duration": 0.09999999999999432
        },
        {
          "name": "F#5",
          "midi": 78,
          "time": 124.99999999999912,
          "velocity": 0.47244094488188976,
          "duration": 0.09999999999999432
        },
        {
          "name": "D5",
          "midi": 74,
          "time": 124.99999999999912,
          "velocity": 0.47244094488188976,
          "duration": 0.09999999999999432
        },
        {
          "name": "A4",
          "midi": 69,
          "time": 124.99999999999912,
          "velocity": 0.47244094488188976,
          "duration": 0.09999999999999432
        },
        {
          "name": "A4",
          "midi": 69,
          "time": 125.19999999999911,
          "velocity": 1,
          "duration": 0.09999999999999432
        },
        {
          "name": "D5",
          "midi": 74,
          "time": 125.19999999999911,
          "velocity": 1,
          "duration": 0.09999999999999432
        },
        {
          "name": "F#5",
          "midi": 78,
          "time": 125.19999999999911,
          "velocity": 1,
          "duration": 0.09999999999999432
        },
        {
          "name": "A4",
          "midi": 69,
          "time": 125.3999999999991,
          "velocity": 0.47244094488188976,
          "duration": 0.09999999999999432
        },
        {
          "name": "D5",
          "midi": 74,
          "time": 125.3999999999991,
          "velocity": 0.47244094488188976,
          "duration": 0.09999999999999432
        },
        {
          "name": "F#5",
          "midi": 78,
          "time": 125.3999999999991,
          "velocity": 0.47244094488188976,
          "duration": 0.09999999999999432
        },
        {
          "name": "A4",
          "midi": 69,
          "time": 125.59999999999908,
          "velocity": 0.47244094488188976,
          "duration": 0.09999999999999432
        },
        {
          "name": "D5",
          "midi": 74,
          "time": 125.59999999999908,
          "velocity": 0.47244094488188976,
          "duration": 0.09999999999999432
        },
        {
          "name": "F#5",
          "midi": 78,
          "time": 125.59999999999908,
          "velocity": 0.47244094488188976,
          "duration": 0.09999999999999432
        },
        {
          "name": "A4",
          "midi": 69,
          "time": 125.79999999999907,
          "velocity": 1,
          "duration": 0.09999999999999432
        },
        {
          "name": "D5",
          "midi": 74,
          "time": 125.79999999999907,
          "velocity": 1,
          "duration": 0.09999999999999432
        },
        {
          "name": "F#5",
          "midi": 78,
          "time": 125.79999999999907,
          "velocity": 1,
          "duration": 0.09999999999999432
        },
        {
          "name": "A4",
          "midi": 69,
          "time": 125.99999999999906,
          "velocity": 0.47244094488188976,
          "duration": 0.09999999999999432
        },
        {
          "name": "D5",
          "midi": 74,
          "time": 125.99999999999906,
          "velocity": 0.47244094488188976,
          "duration": 0.09999999999999432
        },
        {
          "name": "F#5",
          "midi": 78,
          "time": 125.99999999999906,
          "velocity": 0.47244094488188976,
          "duration": 0.09999999999999432
        },
        {
          "name": "F#5",
          "midi": 78,
          "time": 126.19999999999905,
          "velocity": 0.47244094488188976,
          "duration": 0.09999999999999432
        },
        {
          "name": "A4",
          "midi": 69,
          "time": 126.19999999999905,
          "velocity": 0.47244094488188976,
          "duration": 0.09999999999999432
        },
        {
          "name": "D5",
          "midi": 74,
          "time": 126.19999999999905,
          "velocity": 0.47244094488188976,
          "duration": 0.09999999999999432
        },
        {
          "name": "A4",
          "midi": 69,
          "time": 126.39999999999904,
          "velocity": 1,
          "duration": 0.09999999999999432
        },
        {
          "name": "F#5",
          "midi": 78,
          "time": 126.39999999999904,
          "velocity": 1,
          "duration": 0.09999999999999432
        },
        {
          "name": "D5",
          "midi": 74,
          "time": 126.39999999999904,
          "velocity": 1,
          "duration": 0.09999999999999432
        },
        {
          "name": "A4",
          "midi": 69,
          "time": 126.59999999999903,
          "velocity": 0.47244094488188976,
          "duration": 0.09999999999999432
        },
        {
          "name": "F#5",
          "midi": 78,
          "time": 126.59999999999903,
          "velocity": 0.47244094488188976,
          "duration": 0.09999999999999432
        },
        {
          "name": "D5",
          "midi": 74,
          "time": 126.59999999999903,
          "velocity": 0.47244094488188976,
          "duration": 0.09999999999999432
        },
        {
          "name": "A4",
          "midi": 69,
          "time": 126.79999999999902,
          "velocity": 0.47244094488188976,
          "duration": 0.09999999999999432
        },
        {
          "name": "F#5",
          "midi": 78,
          "time": 126.79999999999902,
          "velocity": 0.47244094488188976,
          "duration": 0.09999999999999432
        },
        {
          "name": "D5",
          "midi": 74,
          "time": 126.79999999999902,
          "velocity": 0.47244094488188976,
          "duration": 0.09999999999999432
        },
        {
          "name": "A4",
          "midi": 69,
          "time": 126.999999999999,
          "velocity": 1,
          "duration": 0.09999999999999432
        },
        {
          "name": "F#5",
          "midi": 78,
          "time": 126.999999999999,
          "velocity": 1,
          "duration": 0.09999999999999432
        },
        {
          "name": "D5",
          "midi": 74,
          "time": 126.999999999999,
          "velocity": 1,
          "duration": 0.09999999999999432
        },
        {
          "name": "A4",
          "midi": 69,
          "time": 127.199999999999,
          "velocity": 0.47244094488188976,
          "duration": 0.09999999999999432
        },
        {
          "name": "F#5",
          "midi": 78,
          "time": 127.199999999999,
          "velocity": 0.47244094488188976,
          "duration": 0.09999999999999432
        },
        {
          "name": "D5",
          "midi": 74,
          "time": 127.199999999999,
          "velocity": 0.47244094488188976,
          "duration": 0.09999999999999432
        },
        {
          "name": "A4",
          "midi": 69,
          "time": 127.39999999999898,
          "velocity": 0.47244094488188976,
          "duration": 0.09999999999999432
        },
        {
          "name": "F#5",
          "midi": 78,
          "time": 127.39999999999898,
          "velocity": 0.47244094488188976,
          "duration": 0.09999999999999432
        },
        {
          "name": "D5",
          "midi": 74,
          "time": 127.39999999999898,
          "velocity": 0.47244094488188976,
          "duration": 0.09999999999999432
        },
        {
          "name": "A4",
          "midi": 69,
          "time": 127.59999999999897,
          "velocity": 1,
          "duration": 0.09999999999999432
        },
        {
          "name": "F#5",
          "midi": 78,
          "time": 127.59999999999897,
          "velocity": 1,
          "duration": 0.09999999999999432
        },
        {
          "name": "D5",
          "midi": 74,
          "time": 127.59999999999897,
          "velocity": 1,
          "duration": 0.09999999999999432
        },
        {
          "name": "A4",
          "midi": 69,
          "time": 127.79999999999896,
          "velocity": 0.47244094488188976,
          "duration": 0.09999999999999432
        },
        {
          "name": "D5",
          "midi": 74,
          "time": 127.79999999999896,
          "velocity": 0.47244094488188976,
          "duration": 0.09999999999999432
        },
        {
          "name": "F#5",
          "midi": 78,
          "time": 127.79999999999896,
          "velocity": 0.47244094488188976,
          "duration": 0.09999999999999432
        },
        {
          "name": "B4",
          "midi": 71,
          "time": 127.99999999999895,
          "velocity": 0.47244094488188976,
          "duration": 0.09999999999999432
        },
        {
          "name": "E5",
          "midi": 76,
          "time": 127.99999999999895,
          "velocity": 0.47244094488188976,
          "duration": 0.09999999999999432
        },
        {
          "name": "G5",
          "midi": 79,
          "time": 127.99999999999895,
          "velocity": 0.47244094488188976,
          "duration": 0.09999999999999432
        },
        {
          "name": "E5",
          "midi": 76,
          "time": 128.19999999999894,
          "velocity": 1,
          "duration": 0.09999999999999432
        },
        {
          "name": "B4",
          "midi": 71,
          "time": 128.19999999999894,
          "velocity": 1,
          "duration": 0.09999999999999432
        },
        {
          "name": "G5",
          "midi": 79,
          "time": 128.19999999999894,
          "velocity": 1,
          "duration": 0.09999999999999432
        },
        {
          "name": "E5",
          "midi": 76,
          "time": 128.39999999999893,
          "velocity": 0.47244094488188976,
          "duration": 0.09999999999999432
        },
        {
          "name": "B4",
          "midi": 71,
          "time": 128.39999999999893,
          "velocity": 0.47244094488188976,
          "duration": 0.09999999999999432
        },
        {
          "name": "G5",
          "midi": 79,
          "time": 128.39999999999893,
          "velocity": 0.47244094488188976,
          "duration": 0.09999999999999432
        },
        {
          "name": "G5",
          "midi": 79,
          "time": 128.59999999999891,
          "velocity": 0.47244094488188976,
          "duration": 0.09999999999999432
        },
        {
          "name": "E5",
          "midi": 76,
          "time": 128.59999999999891,
          "velocity": 0.47244094488188976,
          "duration": 0.09999999999999432
        },
        {
          "name": "B4",
          "midi": 71,
          "time": 128.59999999999891,
          "velocity": 0.47244094488188976,
          "duration": 0.09999999999999432
        },
        {
          "name": "E5",
          "midi": 76,
          "time": 128.7999999999989,
          "velocity": 1,
          "duration": 0.09999999999999432
        },
        {
          "name": "B4",
          "midi": 71,
          "time": 128.7999999999989,
          "velocity": 1,
          "duration": 0.09999999999999432
        },
        {
          "name": "G5",
          "midi": 79,
          "time": 128.7999999999989,
          "velocity": 1,
          "duration": 0.09999999999999432
        },
        {
          "name": "E5",
          "midi": 76,
          "time": 128.9999999999989,
          "velocity": 0.47244094488188976,
          "duration": 0.09999999999999432
        },
        {
          "name": "B4",
          "midi": 71,
          "time": 128.9999999999989,
          "velocity": 0.47244094488188976,
          "duration": 0.09999999999999432
        },
        {
          "name": "G5",
          "midi": 79,
          "time": 128.9999999999989,
          "velocity": 0.47244094488188976,
          "duration": 0.09999999999999432
        },
        {
          "name": "G5",
          "midi": 79,
          "time": 129.19999999999888,
          "velocity": 0.47244094488188976,
          "duration": 0.09999999999999432
        },
        {
          "name": "E5",
          "midi": 76,
          "time": 129.19999999999888,
          "velocity": 0.47244094488188976,
          "duration": 0.09999999999999432
        },
        {
          "name": "B4",
          "midi": 71,
          "time": 129.19999999999888,
          "velocity": 0.47244094488188976,
          "duration": 0.09999999999999432
        },
        {
          "name": "G5",
          "midi": 79,
          "time": 129.39999999999887,
          "velocity": 1,
          "duration": 0.09999999999999432
        },
        {
          "name": "B4",
          "midi": 71,
          "time": 129.39999999999887,
          "velocity": 1,
          "duration": 0.09999999999999432
        },
        {
          "name": "E5",
          "midi": 76,
          "time": 129.39999999999887,
          "velocity": 1,
          "duration": 0.09999999999999432
        },
        {
          "name": "E5",
          "midi": 76,
          "time": 129.59999999999886,
          "velocity": 0.47244094488188976,
          "duration": 0.09999999999999432
        },
        {
          "name": "B4",
          "midi": 71,
          "time": 129.59999999999886,
          "velocity": 0.47244094488188976,
          "duration": 0.09999999999999432
        },
        {
          "name": "G5",
          "midi": 79,
          "time": 129.59999999999886,
          "velocity": 0.47244094488188976,
          "duration": 0.09999999999999432
        },
        {
          "name": "E5",
          "midi": 76,
          "time": 129.79999999999885,
          "velocity": 0.47244094488188976,
          "duration": 0.09999999999999432
        },
        {
          "name": "B4",
          "midi": 71,
          "time": 129.79999999999885,
          "velocity": 0.47244094488188976,
          "duration": 0.09999999999999432
        },
        {
          "name": "G5",
          "midi": 79,
          "time": 129.79999999999885,
          "velocity": 0.47244094488188976,
          "duration": 0.09999999999999432
        },
        {
          "name": "B4",
          "midi": 71,
          "time": 129.99999999999883,
          "velocity": 1,
          "duration": 0.09999999999999432
        },
        {
          "name": "E5",
          "midi": 76,
          "time": 129.99999999999883,
          "velocity": 1,
          "duration": 0.09999999999999432
        },
        {
          "name": "G5",
          "midi": 79,
          "time": 129.99999999999883,
          "velocity": 1,
          "duration": 0.09999999999999432
        },
        {
          "name": "B4",
          "midi": 71,
          "time": 130.19999999999882,
          "velocity": 0.47244094488188976,
          "duration": 0.09999999999999432
        },
        {
          "name": "E5",
          "midi": 76,
          "time": 130.19999999999882,
          "velocity": 0.47244094488188976,
          "duration": 0.09999999999999432
        },
        {
          "name": "G5",
          "midi": 79,
          "time": 130.19999999999882,
          "velocity": 0.47244094488188976,
          "duration": 0.09999999999999432
        },
        {
          "name": "E5",
          "midi": 76,
          "time": 130.3999999999988,
          "velocity": 0.47244094488188976,
          "duration": 0.09999999999999432
        },
        {
          "name": "G5",
          "midi": 79,
          "time": 130.3999999999988,
          "velocity": 0.47244094488188976,
          "duration": 0.09999999999999432
        },
        {
          "name": "B4",
          "midi": 71,
          "time": 130.3999999999988,
          "velocity": 0.47244094488188976,
          "duration": 0.09999999999999432
        },
        {
          "name": "B4",
          "midi": 71,
          "time": 130.5999999999988,
          "velocity": 1,
          "duration": 0.09999999999999432
        },
        {
          "name": "E5",
          "midi": 76,
          "time": 130.5999999999988,
          "velocity": 1,
          "duration": 0.09999999999999432
        },
        {
          "name": "G5",
          "midi": 79,
          "time": 130.5999999999988,
          "velocity": 1,
          "duration": 0.09999999999999432
        },
        {
          "name": "B4",
          "midi": 71,
          "time": 130.7999999999988,
          "velocity": 0.47244094488188976,
          "duration": 0.09999999999999432
        },
        {
          "name": "E5",
          "midi": 76,
          "time": 130.7999999999988,
          "velocity": 0.47244094488188976,
          "duration": 0.09999999999999432
        },
        {
          "name": "G5",
          "midi": 79,
          "time": 130.7999999999988,
          "velocity": 0.47244094488188976,
          "duration": 0.09999999999999432
        },
        {
          "name": "E5",
          "midi": 76,
          "time": 130.99999999999878,
          "velocity": 0.47244094488188976,
          "duration": 0.09999999999999432
        },
        {
          "name": "B4",
          "midi": 71,
          "time": 130.99999999999878,
          "velocity": 0.47244094488188976,
          "duration": 0.09999999999999432
        },
        {
          "name": "G5",
          "midi": 79,
          "time": 130.99999999999878,
          "velocity": 0.47244094488188976,
          "duration": 0.09999999999999432
        },
        {
          "name": "A#4",
          "midi": 70,
          "time": 131.19999999999877,
          "velocity": 1,
          "duration": 0.19166666666666288
        },
        {
          "name": "F#5",
          "midi": 78,
          "time": 131.19999999999877,
          "velocity": 1,
          "duration": 0.19166666666666288
        },
        {
          "name": "C#5",
          "midi": 73,
          "time": 131.19999999999877,
          "velocity": 1,
          "duration": 0.19166666666666288
        },
        {
          "name": "C#5",
          "midi": 73,
          "time": 131.39999999999876,
          "velocity": 0.47244094488188976,
          "duration": 0.19166666666666288
        },
        {
          "name": "A#4",
          "midi": 70,
          "time": 131.39999999999876,
          "velocity": 0.47244094488188976,
          "duration": 0.19166666666666288
        },
        {
          "name": "F#5",
          "midi": 78,
          "time": 131.39999999999876,
          "velocity": 0.47244094488188976,
          "duration": 0.19166666666666288
        },
        {
          "name": "A#4",
          "midi": 70,
          "time": 131.59999999999874,
          "velocity": 0.47244094488188976,
          "duration": 0.19166666666666288
        },
        {
          "name": "C#5",
          "midi": 73,
          "time": 131.59999999999874,
          "velocity": 0.47244094488188976,
          "duration": 0.19166666666666288
        },
        {
          "name": "F#5",
          "midi": 78,
          "time": 131.59999999999874,
          "velocity": 0.47244094488188976,
          "duration": 0.19166666666666288
        },
        {
          "name": "C#5",
          "midi": 73,
          "time": 131.79999999999873,
          "velocity": 1,
          "duration": 0.19166666666666288
        },
        {
          "name": "F#5",
          "midi": 78,
          "time": 131.79999999999873,
          "velocity": 1,
          "duration": 0.19166666666666288
        },
        {
          "name": "A#4",
          "midi": 70,
          "time": 131.79999999999873,
          "velocity": 1,
          "duration": 0.19166666666666288
        },
        {
          "name": "A#4",
          "midi": 70,
          "time": 131.99999999999872,
          "velocity": 0.47244094488188976,
          "duration": 0.19166666666666288
        },
        {
          "name": "F#5",
          "midi": 78,
          "time": 131.99999999999872,
          "velocity": 0.47244094488188976,
          "duration": 0.19166666666666288
        },
        {
          "name": "C#5",
          "midi": 73,
          "time": 131.99999999999872,
          "velocity": 0.47244094488188976,
          "duration": 0.19166666666666288
        },
        {
          "name": "A#4",
          "midi": 70,
          "time": 132.1999999999987,
          "velocity": 0.47244094488188976,
          "duration": 0.19166666666666288
        },
        {
          "name": "C#5",
          "midi": 73,
          "time": 132.1999999999987,
          "velocity": 0.47244094488188976,
          "duration": 0.19166666666666288
        },
        {
          "name": "F#5",
          "midi": 78,
          "time": 132.1999999999987,
          "velocity": 0.47244094488188976,
          "duration": 0.19166666666666288
        },
        {
          "name": "A#4",
          "midi": 70,
          "time": 132.3999999999987,
          "velocity": 1,
          "duration": 0.19166666666666288
        },
        {
          "name": "C#5",
          "midi": 73,
          "time": 132.3999999999987,
          "velocity": 1,
          "duration": 0.19166666666666288
        },
        {
          "name": "F#5",
          "midi": 78,
          "time": 132.3999999999987,
          "velocity": 1,
          "duration": 0.19166666666666288
        },
        {
          "name": "C#5",
          "midi": 73,
          "time": 132.5999999999987,
          "velocity": 0.47244094488188976,
          "duration": 0.19166666666666288
        },
        {
          "name": "F#5",
          "midi": 78,
          "time": 132.5999999999987,
          "velocity": 0.47244094488188976,
          "duration": 0.19166666666666288
        },
        {
          "name": "A#4",
          "midi": 70,
          "time": 132.5999999999987,
          "velocity": 0.47244094488188976,
          "duration": 0.19166666666666288
        },
        {
          "name": "C#5",
          "midi": 73,
          "time": 132.79999999999868,
          "velocity": 0.47244094488188976,
          "duration": 0.19166666666666288
        },
        {
          "name": "A#4",
          "midi": 70,
          "time": 132.79999999999868,
          "velocity": 0.47244094488188976,
          "duration": 0.19166666666666288
        },
        {
          "name": "F#5",
          "midi": 78,
          "time": 132.79999999999868,
          "velocity": 0.47244094488188976,
          "duration": 0.19166666666666288
        },
        {
          "name": "A#4",
          "midi": 70,
          "time": 132.99999999999866,
          "velocity": 1,
          "duration": 0.19166666666666288
        },
        {
          "name": "F#5",
          "midi": 78,
          "time": 132.99999999999866,
          "velocity": 1,
          "duration": 0.19166666666666288
        },
        {
          "name": "C#5",
          "midi": 73,
          "time": 132.99999999999866,
          "velocity": 1,
          "duration": 0.19166666666666288
        },
        {
          "name": "C#5",
          "midi": 73,
          "time": 133.19999999999865,
          "velocity": 0.47244094488188976,
          "duration": 0.19166666666666288
        },
        {
          "name": "A#4",
          "midi": 70,
          "time": 133.19999999999865,
          "velocity": 0.47244094488188976,
          "duration": 0.19166666666666288
        },
        {
          "name": "F#5",
          "midi": 78,
          "time": 133.19999999999865,
          "velocity": 0.47244094488188976,
          "duration": 0.19166666666666288
        },
        {
          "name": "F#5",
          "midi": 78,
          "time": 133.39999999999864,
          "velocity": 0.47244094488188976,
          "duration": 0.19166666666666288
        },
        {
          "name": "C#5",
          "midi": 73,
          "time": 133.39999999999864,
          "velocity": 0.47244094488188976,
          "duration": 0.19166666666666288
        },
        {
          "name": "A#4",
          "midi": 70,
          "time": 133.39999999999864,
          "velocity": 0.47244094488188976,
          "duration": 0.19166666666666288
        },
        {
          "name": "C#5",
          "midi": 73,
          "time": 133.59999999999863,
          "velocity": 0.47244094488188976,
          "duration": 0.19166666666666288
        },
        {
          "name": "A#4",
          "midi": 70,
          "time": 133.59999999999863,
          "velocity": 0.47244094488188976,
          "duration": 0.19166666666666288
        },
        {
          "name": "F#5",
          "midi": 78,
          "time": 133.59999999999863,
          "velocity": 0.47244094488188976,
          "duration": 0.19166666666666288
        },
        {
          "name": "A#4",
          "midi": 70,
          "time": 133.79999999999862,
          "velocity": 0.47244094488188976,
          "duration": 0.19166666666666288
        },
        {
          "name": "C#5",
          "midi": 73,
          "time": 133.79999999999862,
          "velocity": 0.47244094488188976,
          "duration": 0.19166666666666288
        },
        {
          "name": "F#5",
          "midi": 78,
          "time": 133.79999999999862,
          "velocity": 0.47244094488188976,
          "duration": 0.19166666666666288
        },
        {
          "name": "A#4",
          "midi": 70,
          "time": 133.9999999999986,
          "velocity": 0.47244094488188976,
          "duration": 0.19166666666666288
        },
        {
          "name": "C#5",
          "midi": 73,
          "time": 133.9999999999986,
          "velocity": 0.47244094488188976,
          "duration": 0.19166666666666288
        },
        {
          "name": "F#5",
          "midi": 78,
          "time": 133.9999999999986,
          "velocity": 0.47244094488188976,
          "duration": 0.19166666666666288
        },
        {
          "name": "F#5",
          "midi": 78,
          "time": 134.1999999999986,
          "velocity": 0.47244094488188976,
          "duration": 0.19166666666666288
        },
        {
          "name": "A#4",
          "midi": 70,
          "time": 134.1999999999986,
          "velocity": 0.47244094488188976,
          "duration": 0.19166666666666288
        },
        {
          "name": "C#5",
          "midi": 73,
          "time": 134.1999999999986,
          "velocity": 0.47244094488188976,
          "duration": 0.19166666666666288
        },
        {
          "name": "G5",
          "midi": 79,
          "time": 185.5999999999986,
          "velocity": 1,
          "duration": 0.09999999999999432
        },
        {
          "name": "D5",
          "midi": 74,
          "time": 185.5999999999986,
          "velocity": 1,
          "duration": 0.09999999999999432
        },
        {
          "name": "B4",
          "midi": 71,
          "time": 185.5999999999986,
          "velocity": 1,
          "duration": 0.09999999999999432
        },
        {
          "name": "D5",
          "midi": 74,
          "time": 185.7999999999986,
          "velocity": 0.47244094488188976,
          "duration": 0.09999999999999432
        },
        {
          "name": "B4",
          "midi": 71,
          "time": 185.7999999999986,
          "velocity": 0.47244094488188976,
          "duration": 0.09999999999999432
        },
        {
          "name": "G5",
          "midi": 79,
          "time": 185.7999999999986,
          "velocity": 0.47244094488188976,
          "duration": 0.09999999999999432
        },
        {
          "name": "B4",
          "midi": 71,
          "time": 185.99999999999858,
          "velocity": 0.47244094488188976,
          "duration": 0.09999999999999432
        },
        {
          "name": "G5",
          "midi": 79,
          "time": 185.99999999999858,
          "velocity": 0.47244094488188976,
          "duration": 0.09999999999999432
        },
        {
          "name": "D5",
          "midi": 74,
          "time": 185.99999999999858,
          "velocity": 0.47244094488188976,
          "duration": 0.09999999999999432
        },
        {
          "name": "B4",
          "midi": 71,
          "time": 186.19999999999857,
          "velocity": 1,
          "duration": 0.09999999999999432
        },
        {
          "name": "G5",
          "midi": 79,
          "time": 186.19999999999857,
          "velocity": 1,
          "duration": 0.09999999999999432
        },
        {
          "name": "D5",
          "midi": 74,
          "time": 186.19999999999857,
          "velocity": 1,
          "duration": 0.09999999999999432
        },
        {
          "name": "G5",
          "midi": 79,
          "time": 186.39999999999856,
          "velocity": 0.47244094488188976,
          "duration": 0.09999999999999432
        },
        {
          "name": "B4",
          "midi": 71,
          "time": 186.39999999999856,
          "velocity": 0.47244094488188976,
          "duration": 0.09999999999999432
        },
        {
          "name": "D5",
          "midi": 74,
          "time": 186.39999999999856,
          "velocity": 0.47244094488188976,
          "duration": 0.09999999999999432
        },
        {
          "name": "D5",
          "midi": 74,
          "time": 186.59999999999854,
          "velocity": 1,
          "duration": 0.09999999999999432
        },
        {
          "name": "B4",
          "midi": 71,
          "time": 186.59999999999854,
          "velocity": 0.47244094488188976,
          "duration": 0.09999999999999432
        },
        {
          "name": "G5",
          "midi": 79,
          "time": 186.59999999999854,
          "velocity": 0.47244094488188976,
          "duration": 0.09999999999999432
        },
        {
          "name": "B4",
          "midi": 71,
          "time": 186.79999999999853,
          "velocity": 1,
          "duration": 0.09999999999999432
        },
        {
          "name": "G5",
          "midi": 79,
          "time": 186.79999999999853,
          "velocity": 1,
          "duration": 0.09999999999999432
        },
        {
          "name": "D5",
          "midi": 74,
          "time": 186.79999999999853,
          "velocity": 1,
          "duration": 0.09999999999999432
        },
        {
          "name": "B4",
          "midi": 71,
          "time": 186.99999999999852,
          "velocity": 0.47244094488188976,
          "duration": 0.09999999999999432
        },
        {
          "name": "G5",
          "midi": 79,
          "time": 186.99999999999852,
          "velocity": 0.47244094488188976,
          "duration": 0.09999999999999432
        },
        {
          "name": "D5",
          "midi": 74,
          "time": 186.99999999999852,
          "velocity": 0.47244094488188976,
          "duration": 0.09999999999999432
        },
        {
          "name": "D5",
          "midi": 74,
          "time": 187.1999999999985,
          "velocity": 0.47244094488188976,
          "duration": 0.09999999999999432
        },
        {
          "name": "B4",
          "midi": 71,
          "time": 187.1999999999985,
          "velocity": 0.47244094488188976,
          "duration": 0.09999999999999432
        },
        {
          "name": "G5",
          "midi": 79,
          "time": 187.1999999999985,
          "velocity": 0.47244094488188976,
          "duration": 0.09999999999999432
        },
        {
          "name": "G5",
          "midi": 79,
          "time": 187.3999999999985,
          "velocity": 1,
          "duration": 0.09999999999999432
        },
        {
          "name": "B4",
          "midi": 71,
          "time": 187.3999999999985,
          "velocity": 1,
          "duration": 0.09999999999999432
        },
        {
          "name": "D5",
          "midi": 74,
          "time": 187.3999999999985,
          "velocity": 1,
          "duration": 0.09999999999999432
        },
        {
          "name": "G5",
          "midi": 79,
          "time": 187.5999999999985,
          "velocity": 0.47244094488188976,
          "duration": 0.09999999999999432
        },
        {
          "name": "B4",
          "midi": 71,
          "time": 187.5999999999985,
          "velocity": 0.47244094488188976,
          "duration": 0.09999999999999432
        },
        {
          "name": "D5",
          "midi": 74,
          "time": 187.5999999999985,
          "velocity": 0.47244094488188976,
          "duration": 0.09999999999999432
        },
        {
          "name": "D5",
          "midi": 74,
          "time": 187.79999999999848,
          "velocity": 0.47244094488188976,
          "duration": 0.09999999999999432
        },
        {
          "name": "B4",
          "midi": 71,
          "time": 187.79999999999848,
          "velocity": 0.47244094488188976,
          "duration": 0.09999999999999432
        },
        {
          "name": "G5",
          "midi": 79,
          "time": 187.79999999999848,
          "velocity": 0.47244094488188976,
          "duration": 0.09999999999999432
        },
        {
          "name": "D5",
          "midi": 74,
          "time": 187.99999999999847,
          "velocity": 1,
          "duration": 0.09999999999999432
        },
        {
          "name": "G5",
          "midi": 79,
          "time": 187.99999999999847,
          "velocity": 1,
          "duration": 0.09999999999999432
        },
        {
          "name": "B4",
          "midi": 71,
          "time": 187.99999999999847,
          "velocity": 1,
          "duration": 0.09999999999999432
        },
        {
          "name": "D5",
          "midi": 74,
          "time": 188.19999999999845,
          "velocity": 0.47244094488188976,
          "duration": 0.09999999999999432
        },
        {
          "name": "B4",
          "midi": 71,
          "time": 188.19999999999845,
          "velocity": 0.47244094488188976,
          "duration": 0.09999999999999432
        },
        {
          "name": "G5",
          "midi": 79,
          "time": 188.19999999999845,
          "velocity": 0.47244094488188976,
          "duration": 0.09999999999999432
        },
        {
          "name": "D5",
          "midi": 74,
          "time": 188.39999999999844,
          "velocity": 0.47244094488188976,
          "duration": 0.09999999999999432
        },
        {
          "name": "G5",
          "midi": 79,
          "time": 188.39999999999844,
          "velocity": 0.47244094488188976,
          "duration": 0.09999999999999432
        },
        {
          "name": "B4",
          "midi": 71,
          "time": 188.39999999999844,
          "velocity": 0.47244094488188976,
          "duration": 0.09999999999999432
        },
        {
          "name": "G5",
          "midi": 79,
          "time": 188.59999999999843,
          "velocity": 1,
          "duration": 0.09999999999999432
        },
        {
          "name": "D5",
          "midi": 74,
          "time": 188.59999999999843,
          "velocity": 0.9921259842519685,
          "duration": 0.19166666666666288
        },
        {
          "name": "B4",
          "midi": 71,
          "time": 188.59999999999843,
          "velocity": 1,
          "duration": 0.09999999999999432
        },
        {
          "name": "A4",
          "midi": 69,
          "time": 188.79999999999842,
          "velocity": 0.47244094488188976,
          "duration": 0.09999999999999432
        },
        {
          "name": "D5",
          "midi": 74,
          "time": 188.79999999999842,
          "velocity": 0.47244094488188976,
          "duration": 0.09999999999999432
        },
        {
          "name": "F#5",
          "midi": 78,
          "time": 188.79999999999842,
          "velocity": 0.47244094488188976,
          "duration": 0.09999999999999432
        },
        {
          "name": "D5",
          "midi": 74,
          "time": 188.9999999999984,
          "velocity": 0.47244094488188976,
          "duration": 0.09999999999999432
        },
        {
          "name": "A4",
          "midi": 69,
          "time": 188.9999999999984,
          "velocity": 0.47244094488188976,
          "duration": 0.09999999999999432
        },
        {
          "name": "F#5",
          "midi": 78,
          "time": 188.9999999999984,
          "velocity": 0.47244094488188976,
          "duration": 0.09999999999999432
        },
        {
          "name": "D5",
          "midi": 74,
          "time": 189.1999999999984,
          "velocity": 1,
          "duration": 0.09999999999999432
        },
        {
          "name": "A4",
          "midi": 69,
          "time": 189.1999999999984,
          "velocity": 1,
          "duration": 0.09999999999999432
        },
        {
          "name": "F#5",
          "midi": 78,
          "time": 189.1999999999984,
          "velocity": 1,
          "duration": 0.09999999999999432
        },
        {
          "name": "D5",
          "midi": 74,
          "time": 189.39999999999839,
          "velocity": 0.47244094488188976,
          "duration": 0.09999999999999432
        },
        {
          "name": "F#5",
          "midi": 78,
          "time": 189.39999999999839,
          "velocity": 0.47244094488188976,
          "duration": 0.09999999999999432
        },
        {
          "name": "A4",
          "midi": 69,
          "time": 189.39999999999839,
          "velocity": 0.47244094488188976,
          "duration": 0.09999999999999432
        },
        {
          "name": "D5",
          "midi": 74,
          "time": 189.59999999999837,
          "velocity": 0.47244094488188976,
          "duration": 0.09999999999999432
        },
        {
          "name": "A4",
          "midi": 69,
          "time": 189.59999999999837,
          "velocity": 0.47244094488188976,
          "duration": 0.09999999999999432
        },
        {
          "name": "F#5",
          "midi": 78,
          "time": 189.59999999999837,
          "velocity": 0.47244094488188976,
          "duration": 0.09999999999999432
        },
        {
          "name": "D5",
          "midi": 74,
          "time": 189.79999999999836,
          "velocity": 1,
          "duration": 0.09999999999999432
        },
        {
          "name": "A4",
          "midi": 69,
          "time": 189.79999999999836,
          "velocity": 1,
          "duration": 0.09999999999999432
        },
        {
          "name": "F#5",
          "midi": 78,
          "time": 189.79999999999836,
          "velocity": 1,
          "duration": 0.09999999999999432
        },
        {
          "name": "A4",
          "midi": 69,
          "time": 189.99999999999835,
          "velocity": 0.47244094488188976,
          "duration": 0.09999999999999432
        },
        {
          "name": "F#5",
          "midi": 78,
          "time": 189.99999999999835,
          "velocity": 0.47244094488188976,
          "duration": 0.09999999999999432
        },
        {
          "name": "D5",
          "midi": 74,
          "time": 189.99999999999835,
          "velocity": 0.47244094488188976,
          "duration": 0.09999999999999432
        },
        {
          "name": "A4",
          "midi": 69,
          "time": 190.19999999999834,
          "velocity": 0.47244094488188976,
          "duration": 0.09999999999999432
        },
        {
          "name": "D5",
          "midi": 74,
          "time": 190.19999999999834,
          "velocity": 0.47244094488188976,
          "duration": 0.09999999999999432
        },
        {
          "name": "F#5",
          "midi": 78,
          "time": 190.19999999999834,
          "velocity": 0.47244094488188976,
          "duration": 0.09999999999999432
        },
        {
          "name": "F#5",
          "midi": 78,
          "time": 190.39999999999833,
          "velocity": 1,
          "duration": 0.09999999999999432
        },
        {
          "name": "A4",
          "midi": 69,
          "time": 190.39999999999833,
          "velocity": 1,
          "duration": 0.09999999999999432
        },
        {
          "name": "D5",
          "midi": 74,
          "time": 190.39999999999833,
          "velocity": 1,
          "duration": 0.09999999999999432
        },
        {
          "name": "F#5",
          "midi": 78,
          "time": 190.59999999999832,
          "velocity": 0.47244094488188976,
          "duration": 0.09999999999999432
        },
        {
          "name": "A4",
          "midi": 69,
          "time": 190.59999999999832,
          "velocity": 0.47244094488188976,
          "duration": 0.09999999999999432
        },
        {
          "name": "D5",
          "midi": 74,
          "time": 190.59999999999832,
          "velocity": 0.47244094488188976,
          "duration": 0.09999999999999432
        },
        {
          "name": "A4",
          "midi": 69,
          "time": 190.7999999999983,
          "velocity": 0.47244094488188976,
          "duration": 0.09999999999999432
        },
        {
          "name": "D5",
          "midi": 74,
          "time": 190.7999999999983,
          "velocity": 0.47244094488188976,
          "duration": 0.09999999999999432
        },
        {
          "name": "F#5",
          "midi": 78,
          "time": 190.7999999999983,
          "velocity": 0.47244094488188976,
          "duration": 0.09999999999999432
        },
        {
          "name": "F#5",
          "midi": 78,
          "time": 190.9999999999983,
          "velocity": 1,
          "duration": 0.09999999999999432
        },
        {
          "name": "A4",
          "midi": 69,
          "time": 190.9999999999983,
          "velocity": 1,
          "duration": 0.09999999999999432
        },
        {
          "name": "D5",
          "midi": 74,
          "time": 190.9999999999983,
          "velocity": 1,
          "duration": 0.09999999999999432
        },
        {
          "name": "A4",
          "midi": 69,
          "time": 191.19999999999828,
          "velocity": 0.47244094488188976,
          "duration": 0.09999999999999432
        },
        {
          "name": "D5",
          "midi": 74,
          "time": 191.19999999999828,
          "velocity": 0.47244094488188976,
          "duration": 0.09999999999999432
        },
        {
          "name": "F#5",
          "midi": 78,
          "time": 191.19999999999828,
          "velocity": 0.47244094488188976,
          "duration": 0.09999999999999432
        },
        {
          "name": "A4",
          "midi": 69,
          "time": 191.39999999999827,
          "velocity": 0.47244094488188976,
          "duration": 0.09999999999999432
        },
        {
          "name": "D5",
          "midi": 74,
          "time": 191.39999999999827,
          "velocity": 0.47244094488188976,
          "duration": 0.09999999999999432
        },
        {
          "name": "F#5",
          "midi": 78,
          "time": 191.39999999999827,
          "velocity": 0.47244094488188976,
          "duration": 0.09999999999999432
        },
        {
          "name": "F#5",
          "midi": 78,
          "time": 191.59999999999826,
          "velocity": 1,
          "duration": 0.09999999999999432
        },
        {
          "name": "D5",
          "midi": 74,
          "time": 191.59999999999826,
          "velocity": 1,
          "duration": 0.09999999999999432
        },
        {
          "name": "A4",
          "midi": 69,
          "time": 191.59999999999826,
          "velocity": 1,
          "duration": 0.09999999999999432
        },
        {
          "name": "D5",
          "midi": 74,
          "time": 191.79999999999825,
          "velocity": 0.47244094488188976,
          "duration": 0.09999999999999432
        },
        {
          "name": "F#5",
          "midi": 78,
          "time": 191.79999999999825,
          "velocity": 0.47244094488188976,
          "duration": 0.09999999999999432
        },
        {
          "name": "A4",
          "midi": 69,
          "time": 191.79999999999825,
          "velocity": 0.47244094488188976,
          "duration": 0.09999999999999432
        },
        {
          "name": "C#5",
          "midi": 73,
          "time": 191.99999999999824,
          "velocity": 0.47244094488188976,
          "duration": 0.09999999999999432
        },
        {
          "name": "A#4",
          "midi": 70,
          "time": 191.99999999999824,
          "velocity": 0.47244094488188976,
          "duration": 0.09999999999999432
        },
        {
          "name": "F#5",
          "midi": 78,
          "time": 191.99999999999824,
          "velocity": 0.47244094488188976,
          "duration": 0.09999999999999432
        },
        {
          "name": "A#4",
          "midi": 70,
          "time": 192.19999999999823,
          "velocity": 1,
          "duration": 0.09999999999999432
        },
        {
          "name": "C#5",
          "midi": 73,
          "time": 192.19999999999823,
          "velocity": 1,
          "duration": 0.09999999999999432
        },
        {
          "name": "F#5",
          "midi": 78,
          "time": 192.19999999999823,
          "velocity": 1,
          "duration": 0.09999999999999432
        },
        {
          "name": "A#4",
          "midi": 70,
          "time": 192.39999999999822,
          "velocity": 0.47244094488188976,
          "duration": 0.09999999999999432
        },
        {
          "name": "C#5",
          "midi": 73,
          "time": 192.39999999999822,
          "velocity": 0.47244094488188976,
          "duration": 0.09999999999999432
        },
        {
          "name": "F#5",
          "midi": 78,
          "time": 192.39999999999822,
          "velocity": 0.47244094488188976,
          "duration": 0.09999999999999432
        },
        {
          "name": "F#5",
          "midi": 78,
          "time": 192.5999999999982,
          "velocity": 0.47244094488188976,
          "duration": 0.09999999999999432
        },
        {
          "name": "A#4",
          "midi": 70,
          "time": 192.5999999999982,
          "velocity": 0.47244094488188976,
          "duration": 0.09999999999999432
        },
        {
          "name": "C#5",
          "midi": 73,
          "time": 192.5999999999982,
          "velocity": 0.47244094488188976,
          "duration": 0.09999999999999432
        },
        {
          "name": "A#4",
          "midi": 70,
          "time": 192.7999999999982,
          "velocity": 1,
          "duration": 0.09999999999999432
        },
        {
          "name": "F#5",
          "midi": 78,
          "time": 192.7999999999982,
          "velocity": 1,
          "duration": 0.09999999999999432
        },
        {
          "name": "C#5",
          "midi": 73,
          "time": 192.7999999999982,
          "velocity": 1,
          "duration": 0.09999999999999432
        },
        {
          "name": "A#4",
          "midi": 70,
          "time": 192.99999999999818,
          "velocity": 0.47244094488188976,
          "duration": 0.09999999999999432
        },
        {
          "name": "C#5",
          "midi": 73,
          "time": 192.99999999999818,
          "velocity": 0.47244094488188976,
          "duration": 0.09999999999999432
        },
        {
          "name": "F#5",
          "midi": 78,
          "time": 192.99999999999818,
          "velocity": 0.47244094488188976,
          "duration": 0.09999999999999432
        },
        {
          "name": "F#5",
          "midi": 78,
          "time": 193.19999999999817,
          "velocity": 0.47244094488188976,
          "duration": 0.09999999999999432
        },
        {
          "name": "C#5",
          "midi": 73,
          "time": 193.19999999999817,
          "velocity": 0.47244094488188976,
          "duration": 0.09999999999999432
        },
        {
          "name": "A#4",
          "midi": 70,
          "time": 193.19999999999817,
          "velocity": 0.47244094488188976,
          "duration": 0.09999999999999432
        },
        {
          "name": "A#4",
          "midi": 70,
          "time": 193.39999999999816,
          "velocity": 1,
          "duration": 0.09999999999999432
        },
        {
          "name": "F#5",
          "midi": 78,
          "time": 193.39999999999816,
          "velocity": 1,
          "duration": 0.09999999999999432
        },
        {
          "name": "C#5",
          "midi": 73,
          "time": 193.39999999999816,
          "velocity": 1,
          "duration": 0.09999999999999432
        },
        {
          "name": "A#4",
          "midi": 70,
          "time": 193.59999999999815,
          "velocity": 0.47244094488188976,
          "duration": 0.09999999999999432
        },
        {
          "name": "F#5",
          "midi": 78,
          "time": 193.59999999999815,
          "velocity": 0.47244094488188976,
          "duration": 0.09999999999999432
        },
        {
          "name": "C#5",
          "midi": 73,
          "time": 193.59999999999815,
          "velocity": 0.47244094488188976,
          "duration": 0.09999999999999432
        },
        {
          "name": "A#4",
          "midi": 70,
          "time": 193.79999999999814,
          "velocity": 0.47244094488188976,
          "duration": 0.09999999999999432
        },
        {
          "name": "F#5",
          "midi": 78,
          "time": 193.79999999999814,
          "velocity": 0.47244094488188976,
          "duration": 0.09999999999999432
        },
        {
          "name": "C#5",
          "midi": 73,
          "time": 193.79999999999814,
          "velocity": 0.47244094488188976,
          "duration": 0.09999999999999432
        },
        {
          "name": "F#5",
          "midi": 78,
          "time": 193.99999999999812,
          "velocity": 1,
          "duration": 0.09999999999999432
        },
        {
          "name": "C#5",
          "midi": 73,
          "time": 193.99999999999812,
          "velocity": 1,
          "duration": 0.09999999999999432
        },
        {
          "name": "A#4",
          "midi": 70,
          "time": 193.99999999999812,
          "velocity": 1,
          "duration": 0.09999999999999432
        },
        {
          "name": "F#5",
          "midi": 78,
          "time": 194.1999999999981,
          "velocity": 0.47244094488188976,
          "duration": 0.09999999999999432
        },
        {
          "name": "C#5",
          "midi": 73,
          "time": 194.1999999999981,
          "velocity": 0.47244094488188976,
          "duration": 0.09999999999999432
        },
        {
          "name": "A#4",
          "midi": 70,
          "time": 194.1999999999981,
          "velocity": 0.47244094488188976,
          "duration": 0.09999999999999432
        },
        {
          "name": "A#4",
          "midi": 70,
          "time": 194.3999999999981,
          "velocity": 0.47244094488188976,
          "duration": 0.09999999999999432
        },
        {
          "name": "C#5",
          "midi": 73,
          "time": 194.3999999999981,
          "velocity": 0.47244094488188976,
          "duration": 0.09999999999999432
        },
        {
          "name": "F#5",
          "midi": 78,
          "time": 194.3999999999981,
          "velocity": 0.47244094488188976,
          "duration": 0.09999999999999432
        },
        {
          "name": "F#5",
          "midi": 78,
          "time": 194.5999999999981,
          "velocity": 1,
          "duration": 0.09999999999999432
        },
        {
          "name": "A#4",
          "midi": 70,
          "time": 194.5999999999981,
          "velocity": 1,
          "duration": 0.09999999999999432
        },
        {
          "name": "C#5",
          "midi": 73,
          "time": 194.5999999999981,
          "velocity": 1,
          "duration": 0.09999999999999432
        },
        {
          "name": "F#5",
          "midi": 78,
          "time": 194.79999999999808,
          "velocity": 0.47244094488188976,
          "duration": 0.09999999999999432
        },
        {
          "name": "C#5",
          "midi": 73,
          "time": 194.79999999999808,
          "velocity": 0.47244094488188976,
          "duration": 0.09999999999999432
        },
        {
          "name": "A#4",
          "midi": 70,
          "time": 194.79999999999808,
          "velocity": 0.47244094488188976,
          "duration": 0.09999999999999432
        },
        {
          "name": "A#4",
          "midi": 70,
          "time": 194.99999999999807,
          "velocity": 0.47244094488188976,
          "duration": 0.09999999999999432
        },
        {
          "name": "F#5",
          "midi": 78,
          "time": 194.99999999999807,
          "velocity": 0.47244094488188976,
          "duration": 0.09999999999999432
        },
        {
          "name": "C#5",
          "midi": 73,
          "time": 194.99999999999807,
          "velocity": 0.47244094488188976,
          "duration": 0.09999999999999432
        },
        {
          "name": "B4",
          "midi": 71,
          "time": 195.19999999999806,
          "velocity": 1,
          "duration": 0.09999999999999432
        },
        {
          "name": "F#5",
          "midi": 78,
          "time": 195.19999999999806,
          "velocity": 1,
          "duration": 0.09999999999999432
        },
        {
          "name": "D5",
          "midi": 74,
          "time": 195.19999999999806,
          "velocity": 1,
          "duration": 0.09999999999999432
        },
        {
          "name": "B4",
          "midi": 71,
          "time": 195.39999999999804,
          "velocity": 0.47244094488188976,
          "duration": 0.09999999999999432
        },
        {
          "name": "F#5",
          "midi": 78,
          "time": 195.39999999999804,
          "velocity": 0.47244094488188976,
          "duration": 0.09999999999999432
        },
        {
          "name": "D5",
          "midi": 74,
          "time": 195.39999999999804,
          "velocity": 0.47244094488188976,
          "duration": 0.09999999999999432
        },
        {
          "name": "D5",
          "midi": 74,
          "time": 195.59999999999803,
          "velocity": 0.47244094488188976,
          "duration": 0.09999999999999432
        },
        {
          "name": "F#5",
          "midi": 78,
          "time": 195.59999999999803,
          "velocity": 0.47244094488188976,
          "duration": 0.09999999999999432
        },
        {
          "name": "B4",
          "midi": 71,
          "time": 195.59999999999803,
          "velocity": 0.47244094488188976,
          "duration": 0.09999999999999432
        },
        {
          "name": "B4",
          "midi": 71,
          "time": 195.79999999999802,
          "velocity": 1,
          "duration": 0.09999999999999432
        },
        {
          "name": "F#5",
          "midi": 78,
          "time": 195.79999999999802,
          "velocity": 1,
          "duration": 0.09999999999999432
        },
        {
          "name": "D5",
          "midi": 74,
          "time": 195.79999999999802,
          "velocity": 1,
          "duration": 0.09999999999999432
        },
        {
          "name": "B4",
          "midi": 71,
          "time": 195.999999999998,
          "velocity": 0.47244094488188976,
          "duration": 0.09999999999999432
        },
        {
          "name": "F#5",
          "midi": 78,
          "time": 195.999999999998,
          "velocity": 0.47244094488188976,
          "duration": 0.09999999999999432
        },
        {
          "name": "D5",
          "midi": 74,
          "time": 195.999999999998,
          "velocity": 0.47244094488188976,
          "duration": 0.09999999999999432
        },
        {
          "name": "D5",
          "midi": 74,
          "time": 196.199999999998,
          "velocity": 0.47244094488188976,
          "duration": 0.09999999999999432
        },
        {
          "name": "B4",
          "midi": 71,
          "time": 196.199999999998,
          "velocity": 0.47244094488188976,
          "duration": 0.09999999999999432
        },
        {
          "name": "F#5",
          "midi": 78,
          "time": 196.199999999998,
          "velocity": 0.47244094488188976,
          "duration": 0.09999999999999432
        },
        {
          "name": "D5",
          "midi": 74,
          "time": 196.399999999998,
          "velocity": 1,
          "duration": 0.09999999999999432
        },
        {
          "name": "F#5",
          "midi": 78,
          "time": 196.399999999998,
          "velocity": 1,
          "duration": 0.09999999999999432
        },
        {
          "name": "B4",
          "midi": 71,
          "time": 196.399999999998,
          "velocity": 1,
          "duration": 0.09999999999999432
        },
        {
          "name": "B4",
          "midi": 71,
          "time": 196.59999999999798,
          "velocity": 0.47244094488188976,
          "duration": 0.09999999999999432
        },
        {
          "name": "F#5",
          "midi": 78,
          "time": 196.59999999999798,
          "velocity": 0.47244094488188976,
          "duration": 0.09999999999999432
        },
        {
          "name": "D5",
          "midi": 74,
          "time": 196.59999999999798,
          "velocity": 0.47244094488188976,
          "duration": 0.09999999999999432
        },
        {
          "name": "D5",
          "midi": 74,
          "time": 196.79999999999797,
          "velocity": 0.47244094488188976,
          "duration": 0.09999999999999432
        },
        {
          "name": "F#5",
          "midi": 78,
          "time": 196.79999999999797,
          "velocity": 0.47244094488188976,
          "duration": 0.09999999999999432
        },
        {
          "name": "B4",
          "midi": 71,
          "time": 196.79999999999797,
          "velocity": 0.47244094488188976,
          "duration": 0.09999999999999432
        },
        {
          "name": "D5",
          "midi": 74,
          "time": 196.99999999999795,
          "velocity": 1,
          "duration": 0.09999999999999432
        },
        {
          "name": "B4",
          "midi": 71,
          "time": 196.99999999999795,
          "velocity": 1,
          "duration": 0.09999999999999432
        },
        {
          "name": "F#5",
          "midi": 78,
          "time": 196.99999999999795,
          "velocity": 1,
          "duration": 0.09999999999999432
        },
        {
          "name": "B4",
          "midi": 71,
          "time": 197.19999999999794,
          "velocity": 0.47244094488188976,
          "duration": 0.09999999999999432
        },
        {
          "name": "F#5",
          "midi": 78,
          "time": 197.19999999999794,
          "velocity": 0.47244094488188976,
          "duration": 0.09999999999999432
        },
        {
          "name": "D5",
          "midi": 74,
          "time": 197.19999999999794,
          "velocity": 0.47244094488188976,
          "duration": 0.09999999999999432
        },
        {
          "name": "D5",
          "midi": 74,
          "time": 197.39999999999793,
          "velocity": 0.47244094488188976,
          "duration": 0.09999999999999432
        },
        {
          "name": "B4",
          "midi": 71,
          "time": 197.39999999999793,
          "velocity": 0.47244094488188976,
          "duration": 0.09999999999999432
        },
        {
          "name": "F#5",
          "midi": 78,
          "time": 197.39999999999793,
          "velocity": 0.47244094488188976,
          "duration": 0.09999999999999432
        },
        {
          "name": "D5",
          "midi": 74,
          "time": 197.59999999999792,
          "velocity": 1,
          "duration": 0.09999999999999432
        },
        {
          "name": "B4",
          "midi": 71,
          "time": 197.59999999999792,
          "velocity": 1,
          "duration": 0.09999999999999432
        },
        {
          "name": "F#5",
          "midi": 78,
          "time": 197.59999999999792,
          "velocity": 1,
          "duration": 0.09999999999999432
        },
        {
          "name": "B4",
          "midi": 71,
          "time": 197.7999999999979,
          "velocity": 0.47244094488188976,
          "duration": 0.09999999999999432
        },
        {
          "name": "F#5",
          "midi": 78,
          "time": 197.7999999999979,
          "velocity": 0.47244094488188976,
          "duration": 0.09999999999999432
        },
        {
          "name": "D5",
          "midi": 74,
          "time": 197.7999999999979,
          "velocity": 0.47244094488188976,
          "duration": 0.09999999999999432
        },
        {
          "name": "B4",
          "midi": 71,
          "time": 197.9999999999979,
          "velocity": 0.47244094488188976,
          "duration": 0.09999999999999432
        },
        {
          "name": "F#5",
          "midi": 78,
          "time": 197.9999999999979,
          "velocity": 0.47244094488188976,
          "duration": 0.09999999999999432
        },
        {
          "name": "D5",
          "midi": 74,
          "time": 197.9999999999979,
          "velocity": 0.47244094488188976,
          "duration": 0.09999999999999432
        },
        {
          "name": "B4",
          "midi": 71,
          "time": 198.19999999999789,
          "velocity": 0.47244094488188976,
          "duration": 0.09999999999999432
        },
        {
          "name": "D5",
          "midi": 74,
          "time": 198.19999999999789,
          "velocity": 0.47244094488188976,
          "duration": 0.09999999999999432
        },
        {
          "name": "F#5",
          "midi": 78,
          "time": 198.19999999999789,
          "velocity": 0.47244094488188976,
          "duration": 0.09999999999999432
        },
        {
          "name": "G5",
          "midi": 79,
          "time": 198.39999999999787,
          "velocity": 1,
          "duration": 0.09999999999999432
        },
        {
          "name": "B4",
          "midi": 71,
          "time": 198.39999999999787,
          "velocity": 1,
          "duration": 0.09999999999999432
        },
        {
          "name": "D5",
          "midi": 74,
          "time": 198.39999999999787,
          "velocity": 1,
          "duration": 0.09999999999999432
        },
        {
          "name": "B4",
          "midi": 71,
          "time": 198.59999999999786,
          "velocity": 0.47244094488188976,
          "duration": 0.09999999999999432
        },
        {
          "name": "D5",
          "midi": 74,
          "time": 198.59999999999786,
          "velocity": 0.47244094488188976,
          "duration": 0.09999999999999432
        },
        {
          "name": "G5",
          "midi": 79,
          "time": 198.59999999999786,
          "velocity": 0.47244094488188976,
          "duration": 0.09999999999999432
        },
        {
          "name": "B4",
          "midi": 71,
          "time": 198.79999999999785,
          "velocity": 0.47244094488188976,
          "duration": 0.09999999999999432
        },
        {
          "name": "D5",
          "midi": 74,
          "time": 198.79999999999785,
          "velocity": 0.47244094488188976,
          "duration": 0.09999999999999432
        },
        {
          "name": "G5",
          "midi": 79,
          "time": 198.79999999999785,
          "velocity": 0.47244094488188976,
          "duration": 0.09999999999999432
        },
        {
          "name": "B4",
          "midi": 71,
          "time": 198.99999999999784,
          "velocity": 1,
          "duration": 0.09999999999999432
        },
        {
          "name": "D5",
          "midi": 74,
          "time": 198.99999999999784,
          "velocity": 1,
          "duration": 0.09999999999999432
        },
        {
          "name": "G5",
          "midi": 79,
          "time": 198.99999999999784,
          "velocity": 1,
          "duration": 0.09999999999999432
        },
        {
          "name": "B4",
          "midi": 71,
          "time": 199.19999999999783,
          "velocity": 0.47244094488188976,
          "duration": 0.09999999999999432
        },
        {
          "name": "D5",
          "midi": 74,
          "time": 199.19999999999783,
          "velocity": 0.47244094488188976,
          "duration": 0.09999999999999432
        },
        {
          "name": "G5",
          "midi": 79,
          "time": 199.19999999999783,
          "velocity": 0.47244094488188976,
          "duration": 0.09999999999999432
        },
        {
          "name": "B4",
          "midi": 71,
          "time": 199.39999999999782,
          "velocity": 0.47244094488188976,
          "duration": 0.09999999999999432
        },
        {
          "name": "D5",
          "midi": 74,
          "time": 199.39999999999782,
          "velocity": 1,
          "duration": 0.09999999999999432
        },
        {
          "name": "G5",
          "midi": 79,
          "time": 199.39999999999782,
          "velocity": 0.47244094488188976,
          "duration": 0.09999999999999432
        },
        {
          "name": "B4",
          "midi": 71,
          "time": 199.5999999999978,
          "velocity": 1,
          "duration": 0.09999999999999432
        },
        {
          "name": "D5",
          "midi": 74,
          "time": 199.5999999999978,
          "velocity": 1,
          "duration": 0.09999999999999432
        },
        {
          "name": "G5",
          "midi": 79,
          "time": 199.5999999999978,
          "velocity": 1,
          "duration": 0.09999999999999432
        },
        {
          "name": "B4",
          "midi": 71,
          "time": 199.7999999999978,
          "velocity": 0.47244094488188976,
          "duration": 0.09999999999999432
        },
        {
          "name": "D5",
          "midi": 74,
          "time": 199.7999999999978,
          "velocity": 0.47244094488188976,
          "duration": 0.09999999999999432
        },
        {
          "name": "G5",
          "midi": 79,
          "time": 199.7999999999978,
          "velocity": 0.47244094488188976,
          "duration": 0.09999999999999432
        },
        {
          "name": "B4",
          "midi": 71,
          "time": 199.99999999999778,
          "velocity": 0.47244094488188976,
          "duration": 0.09999999999999432
        },
        {
          "name": "G5",
          "midi": 79,
          "time": 199.99999999999778,
          "velocity": 0.47244094488188976,
          "duration": 0.09999999999999432
        },
        {
          "name": "D5",
          "midi": 74,
          "time": 199.99999999999778,
          "velocity": 0.47244094488188976,
          "duration": 0.09999999999999432
        },
        {
          "name": "G5",
          "midi": 79,
          "time": 200.19999999999777,
          "velocity": 1,
          "duration": 0.09999999999999432
        },
        {
          "name": "D5",
          "midi": 74,
          "time": 200.19999999999777,
          "velocity": 1,
          "duration": 0.09999999999999432
        },
        {
          "name": "B4",
          "midi": 71,
          "time": 200.19999999999777,
          "velocity": 1,
          "duration": 0.09999999999999432
        },
        {
          "name": "B4",
          "midi": 71,
          "time": 200.39999999999776,
          "velocity": 0.47244094488188976,
          "duration": 0.09999999999999432
        },
        {
          "name": "D5",
          "midi": 74,
          "time": 200.39999999999776,
          "velocity": 0.47244094488188976,
          "duration": 0.09999999999999432
        },
        {
          "name": "G5",
          "midi": 79,
          "time": 200.39999999999776,
          "velocity": 0.47244094488188976,
          "duration": 0.09999999999999432
        },
        {
          "name": "B4",
          "midi": 71,
          "time": 200.59999999999775,
          "velocity": 0.47244094488188976,
          "duration": 0.09999999999999432
        },
        {
          "name": "D5",
          "midi": 74,
          "time": 200.59999999999775,
          "velocity": 0.47244094488188976,
          "duration": 0.09999999999999432
        },
        {
          "name": "G5",
          "midi": 79,
          "time": 200.59999999999775,
          "velocity": 0.47244094488188976,
          "duration": 0.09999999999999432
        },
        {
          "name": "G5",
          "midi": 79,
          "time": 200.79999999999774,
          "velocity": 1,
          "duration": 0.09999999999999432
        },
        {
          "name": "B4",
          "midi": 71,
          "time": 200.79999999999774,
          "velocity": 1,
          "duration": 0.09999999999999432
        },
        {
          "name": "D5",
          "midi": 74,
          "time": 200.79999999999774,
          "velocity": 1,
          "duration": 0.09999999999999432
        },
        {
          "name": "G5",
          "midi": 79,
          "time": 200.99999999999773,
          "velocity": 0.47244094488188976,
          "duration": 0.09999999999999432
        },
        {
          "name": "D5",
          "midi": 74,
          "time": 200.99999999999773,
          "velocity": 0.47244094488188976,
          "duration": 0.09999999999999432
        },
        {
          "name": "B4",
          "midi": 71,
          "time": 200.99999999999773,
          "velocity": 0.47244094488188976,
          "duration": 0.09999999999999432
        },
        {
          "name": "D5",
          "midi": 74,
          "time": 201.19999999999771,
          "velocity": 0.47244094488188976,
          "duration": 0.09999999999999432
        },
        {
          "name": "G5",
          "midi": 79,
          "time": 201.19999999999771,
          "velocity": 0.47244094488188976,
          "duration": 0.09999999999999432
        },
        {
          "name": "B4",
          "midi": 71,
          "time": 201.19999999999771,
          "velocity": 0.47244094488188976,
          "duration": 0.09999999999999432
        },
        {
          "name": "B4",
          "midi": 71,
          "time": 201.3999999999977,
          "velocity": 1,
          "duration": 0.09999999999999432
        },
        {
          "name": "D5",
          "midi": 74,
          "time": 201.3999999999977,
          "velocity": 0.9921259842519685,
          "duration": 0.19166666666666288
        },
        {
          "name": "G5",
          "midi": 79,
          "time": 201.3999999999977,
          "velocity": 1,
          "duration": 0.09999999999999432
        },
        {
          "name": "F#5",
          "midi": 78,
          "time": 201.5999999999977,
          "velocity": 0.47244094488188976,
          "duration": 0.09999999999999432
        },
        {
          "name": "D5",
          "midi": 74,
          "time": 201.5999999999977,
          "velocity": 0.47244094488188976,
          "duration": 0.09999999999999432
        },
        {
          "name": "A4",
          "midi": 69,
          "time": 201.5999999999977,
          "velocity": 0.47244094488188976,
          "duration": 0.09999999999999432
        },
        {
          "name": "D5",
          "midi": 74,
          "time": 201.79999999999768,
          "velocity": 0.47244094488188976,
          "duration": 0.09999999999999432
        },
        {
          "name": "F#5",
          "midi": 78,
          "time": 201.79999999999768,
          "velocity": 0.47244094488188976,
          "duration": 0.09999999999999432
        },
        {
          "name": "A4",
          "midi": 69,
          "time": 201.79999999999768,
          "velocity": 0.47244094488188976,
          "duration": 0.09999999999999432
        },
        {
          "name": "D5",
          "midi": 74,
          "time": 201.99999999999767,
          "velocity": 1,
          "duration": 0.09999999999999432
        },
        {
          "name": "F#5",
          "midi": 78,
          "time": 201.99999999999767,
          "velocity": 1,
          "duration": 0.09999999999999432
        },
        {
          "name": "A4",
          "midi": 69,
          "time": 201.99999999999767,
          "velocity": 1,
          "duration": 0.09999999999999432
        },
        {
          "name": "D5",
          "midi": 74,
          "time": 202.19999999999766,
          "velocity": 0.47244094488188976,
          "duration": 0.09999999999999432
        },
        {
          "name": "A4",
          "midi": 69,
          "time": 202.19999999999766,
          "velocity": 0.47244094488188976,
          "duration": 0.09999999999999432
        },
        {
          "name": "F#5",
          "midi": 78,
          "time": 202.19999999999766,
          "velocity": 0.47244094488188976,
          "duration": 0.09999999999999432
        },
        {
          "name": "D5",
          "midi": 74,
          "time": 202.39999999999765,
          "velocity": 0.47244094488188976,
          "duration": 0.09999999999999432
        },
        {
          "name": "A4",
          "midi": 69,
          "time": 202.39999999999765,
          "velocity": 0.47244094488188976,
          "duration": 0.09999999999999432
        },
        {
          "name": "F#5",
          "midi": 78,
          "time": 202.39999999999765,
          "velocity": 0.47244094488188976,
          "duration": 0.09999999999999432
        },
        {
          "name": "A4",
          "midi": 69,
          "time": 202.59999999999764,
          "velocity": 1,
          "duration": 0.09999999999999432
        },
        {
          "name": "F#5",
          "midi": 78,
          "time": 202.59999999999764,
          "velocity": 1,
          "duration": 0.09999999999999432
        },
        {
          "name": "D5",
          "midi": 74,
          "time": 202.59999999999764,
          "velocity": 1,
          "duration": 0.09999999999999432
        },
        {
          "name": "D5",
          "midi": 74,
          "time": 202.79999999999762,
          "velocity": 0.47244094488188976,
          "duration": 0.09999999999999432
        },
        {
          "name": "F#5",
          "midi": 78,
          "time": 202.79999999999762,
          "velocity": 0.47244094488188976,
          "duration": 0.09999999999999432
        },
        {
          "name": "A4",
          "midi": 69,
          "time": 202.79999999999762,
          "velocity": 0.47244094488188976,
          "duration": 0.09999999999999432
        },
        {
          "name": "A4",
          "midi": 69,
          "time": 202.9999999999976,
          "velocity": 0.47244094488188976,
          "duration": 0.09999999999999432
        },
        {
          "name": "F#5",
          "midi": 78,
          "time": 202.9999999999976,
          "velocity": 0.47244094488188976,
          "duration": 0.09999999999999432
        },
        {
          "name": "D5",
          "midi": 74,
          "time": 202.9999999999976,
          "velocity": 0.47244094488188976,
          "duration": 0.09999999999999432
        },
        {
          "name": "F#5",
          "midi": 78,
          "time": 203.1999999999976,
          "velocity": 1,
          "duration": 0.09999999999999432
        },
        {
          "name": "A4",
          "midi": 69,
          "time": 203.1999999999976,
          "velocity": 1,
          "duration": 0.09999999999999432
        },
        {
          "name": "D5",
          "midi": 74,
          "time": 203.1999999999976,
          "velocity": 1,
          "duration": 0.09999999999999432
        },
        {
          "name": "A4",
          "midi": 69,
          "time": 203.3999999999976,
          "velocity": 0.47244094488188976,
          "duration": 0.09999999999999432
        },
        {
          "name": "D5",
          "midi": 74,
          "time": 203.3999999999976,
          "velocity": 0.47244094488188976,
          "duration": 0.09999999999999432
        },
        {
          "name": "F#5",
          "midi": 78,
          "time": 203.3999999999976,
          "velocity": 0.47244094488188976,
          "duration": 0.09999999999999432
        },
        {
          "name": "F#5",
          "midi": 78,
          "time": 203.59999999999758,
          "velocity": 0.47244094488188976,
          "duration": 0.09999999999999432
        },
        {
          "name": "A4",
          "midi": 69,
          "time": 203.59999999999758,
          "velocity": 0.47244094488188976,
          "duration": 0.09999999999999432
        },
        {
          "name": "D5",
          "midi": 74,
          "time": 203.59999999999758,
          "velocity": 0.47244094488188976,
          "duration": 0.09999999999999432
        },
        {
          "name": "A4",
          "midi": 69,
          "time": 203.79999999999757,
          "velocity": 1,
          "duration": 0.09999999999999432
        },
        {
          "name": "D5",
          "midi": 74,
          "time": 203.79999999999757,
          "velocity": 1,
          "duration": 0.09999999999999432
        },
        {
          "name": "F#5",
          "midi": 78,
          "time": 203.79999999999757,
          "velocity": 1,
          "duration": 0.09999999999999432
        },
        {
          "name": "A4",
          "midi": 69,
          "time": 203.99999999999756,
          "velocity": 0.47244094488188976,
          "duration": 0.09999999999999432
        },
        {
          "name": "D5",
          "midi": 74,
          "time": 203.99999999999756,
          "velocity": 0.47244094488188976,
          "duration": 0.09999999999999432
        },
        {
          "name": "F#5",
          "midi": 78,
          "time": 203.99999999999756,
          "velocity": 0.47244094488188976,
          "duration": 0.09999999999999432
        },
        {
          "name": "F#5",
          "midi": 78,
          "time": 204.19999999999754,
          "velocity": 0.47244094488188976,
          "duration": 0.09999999999999432
        },
        {
          "name": "D5",
          "midi": 74,
          "time": 204.19999999999754,
          "velocity": 0.47244094488188976,
          "duration": 0.09999999999999432
        },
        {
          "name": "A4",
          "midi": 69,
          "time": 204.19999999999754,
          "velocity": 0.47244094488188976,
          "duration": 0.09999999999999432
        },
        {
          "name": "F#5",
          "midi": 78,
          "time": 204.39999999999753,
          "velocity": 1,
          "duration": 0.09999999999999432
        },
        {
          "name": "D5",
          "midi": 74,
          "time": 204.39999999999753,
          "velocity": 1,
          "duration": 0.09999999999999432
        },
        {
          "name": "A4",
          "midi": 69,
          "time": 204.39999999999753,
          "velocity": 1,
          "duration": 0.09999999999999432
        },
        {
          "name": "D5",
          "midi": 74,
          "time": 204.59999999999752,
          "velocity": 0.47244094488188976,
          "duration": 0.09999999999999432
        },
        {
          "name": "A4",
          "midi": 69,
          "time": 204.59999999999752,
          "velocity": 0.47244094488188976,
          "duration": 0.09999999999999432
        },
        {
          "name": "F#5",
          "midi": 78,
          "time": 204.59999999999752,
          "velocity": 0.47244094488188976,
          "duration": 0.09999999999999432
        },
        {
          "name": "E5",
          "midi": 76,
          "time": 204.7999999999975,
          "velocity": 0.47244094488188976,
          "duration": 0.09999999999999432
        },
        {
          "name": "B4",
          "midi": 71,
          "time": 204.7999999999975,
          "velocity": 0.47244094488188976,
          "duration": 0.09999999999999432
        },
        {
          "name": "G5",
          "midi": 79,
          "time": 204.7999999999975,
          "velocity": 0.47244094488188976,
          "duration": 0.09999999999999432
        },
        {
          "name": "E5",
          "midi": 76,
          "time": 204.9999999999975,
          "velocity": 1,
          "duration": 0.09999999999999432
        },
        {
          "name": "G5",
          "midi": 79,
          "time": 204.9999999999975,
          "velocity": 1,
          "duration": 0.09999999999999432
        },
        {
          "name": "B4",
          "midi": 71,
          "time": 204.9999999999975,
          "velocity": 1,
          "duration": 0.09999999999999432
        },
        {
          "name": "B4",
          "midi": 71,
          "time": 205.1999999999975,
          "velocity": 0.47244094488188976,
          "duration": 0.09999999999999432
        },
        {
          "name": "E5",
          "midi": 76,
          "time": 205.1999999999975,
          "velocity": 0.47244094488188976,
          "duration": 0.09999999999999432
        },
        {
          "name": "G5",
          "midi": 79,
          "time": 205.1999999999975,
          "velocity": 0.47244094488188976,
          "duration": 0.09999999999999432
        },
        {
          "name": "G5",
          "midi": 79,
          "time": 205.39999999999748,
          "velocity": 0.47244094488188976,
          "duration": 0.09999999999999432
        },
        {
          "name": "B4",
          "midi": 71,
          "time": 205.39999999999748,
          "velocity": 0.47244094488188976,
          "duration": 0.09999999999999432
        },
        {
          "name": "E5",
          "midi": 76,
          "time": 205.39999999999748,
          "velocity": 0.47244094488188976,
          "duration": 0.09999999999999432
        },
        {
          "name": "E5",
          "midi": 76,
          "time": 205.59999999999746,
          "velocity": 1,
          "duration": 0.09999999999999432
        },
        {
          "name": "G5",
          "midi": 79,
          "time": 205.59999999999746,
          "velocity": 1,
          "duration": 0.09999999999999432
        },
        {
          "name": "B4",
          "midi": 71,
          "time": 205.59999999999746,
          "velocity": 1,
          "duration": 0.09999999999999432
        },
        {
          "name": "B4",
          "midi": 71,
          "time": 205.79999999999745,
          "velocity": 0.47244094488188976,
          "duration": 0.09999999999999432
        },
        {
          "name": "G5",
          "midi": 79,
          "time": 205.79999999999745,
          "velocity": 0.47244094488188976,
          "duration": 0.09999999999999432
        },
        {
          "name": "E5",
          "midi": 76,
          "time": 205.79999999999745,
          "velocity": 0.47244094488188976,
          "duration": 0.09999999999999432
        },
        {
          "name": "E5",
          "midi": 76,
          "time": 205.99999999999744,
          "velocity": 0.47244094488188976,
          "duration": 0.09999999999999432
        },
        {
          "name": "G5",
          "midi": 79,
          "time": 205.99999999999744,
          "velocity": 0.47244094488188976,
          "duration": 0.09999999999999432
        },
        {
          "name": "B4",
          "midi": 71,
          "time": 205.99999999999744,
          "velocity": 0.47244094488188976,
          "duration": 0.09999999999999432
        },
        {
          "name": "G5",
          "midi": 79,
          "time": 206.19999999999743,
          "velocity": 1,
          "duration": 0.09999999999999432
        },
        {
          "name": "E5",
          "midi": 76,
          "time": 206.19999999999743,
          "velocity": 1,
          "duration": 0.09999999999999432
        },
        {
          "name": "B4",
          "midi": 71,
          "time": 206.19999999999743,
          "velocity": 1,
          "duration": 0.09999999999999432
        },
        {
          "name": "E5",
          "midi": 76,
          "time": 206.39999999999742,
          "velocity": 0.47244094488188976,
          "duration": 0.09999999999999432
        },
        {
          "name": "G5",
          "midi": 79,
          "time": 206.39999999999742,
          "velocity": 0.47244094488188976,
          "duration": 0.09999999999999432
        },
        {
          "name": "B4",
          "midi": 71,
          "time": 206.39999999999742,
          "velocity": 0.47244094488188976,
          "duration": 0.09999999999999432
        },
        {
          "name": "B4",
          "midi": 71,
          "time": 206.5999999999974,
          "velocity": 0.47244094488188976,
          "duration": 0.09999999999999432
        },
        {
          "name": "G5",
          "midi": 79,
          "time": 206.5999999999974,
          "velocity": 0.47244094488188976,
          "duration": 0.09999999999999432
        },
        {
          "name": "E5",
          "midi": 76,
          "time": 206.5999999999974,
          "velocity": 0.47244094488188976,
          "duration": 0.09999999999999432
        },
        {
          "name": "B4",
          "midi": 71,
          "time": 206.7999999999974,
          "velocity": 1,
          "duration": 0.09999999999999432
        },
        {
          "name": "G5",
          "midi": 79,
          "time": 206.7999999999974,
          "velocity": 1,
          "duration": 0.09999999999999432
        },
        {
          "name": "E5",
          "midi": 76,
          "time": 206.7999999999974,
          "velocity": 1,
          "duration": 0.09999999999999432
        },
        {
          "name": "E5",
          "midi": 76,
          "time": 206.99999999999739,
          "velocity": 0.47244094488188976,
          "duration": 0.09999999999999432
        },
        {
          "name": "G5",
          "midi": 79,
          "time": 206.99999999999739,
          "velocity": 0.47244094488188976,
          "duration": 0.09999999999999432
        },
        {
          "name": "B4",
          "midi": 71,
          "time": 206.99999999999739,
          "velocity": 0.47244094488188976,
          "duration": 0.09999999999999432
        },
        {
          "name": "G5",
          "midi": 79,
          "time": 207.19999999999737,
          "velocity": 0.47244094488188976,
          "duration": 0.09999999999999432
        },
        {
          "name": "E5",
          "midi": 76,
          "time": 207.19999999999737,
          "velocity": 0.47244094488188976,
          "duration": 0.09999999999999432
        },
        {
          "name": "B4",
          "midi": 71,
          "time": 207.19999999999737,
          "velocity": 0.47244094488188976,
          "duration": 0.09999999999999432
        },
        {
          "name": "E5",
          "midi": 76,
          "time": 207.39999999999736,
          "velocity": 1,
          "duration": 0.09999999999999432
        },
        {
          "name": "G5",
          "midi": 79,
          "time": 207.39999999999736,
          "velocity": 1,
          "duration": 0.09999999999999432
        },
        {
          "name": "B4",
          "midi": 71,
          "time": 207.39999999999736,
          "velocity": 1,
          "duration": 0.09999999999999432
        },
        {
          "name": "E5",
          "midi": 76,
          "time": 207.59999999999735,
          "velocity": 0.47244094488188976,
          "duration": 0.09999999999999432
        },
        {
          "name": "B4",
          "midi": 71,
          "time": 207.59999999999735,
          "velocity": 0.47244094488188976,
          "duration": 0.09999999999999432
        },
        {
          "name": "G5",
          "midi": 79,
          "time": 207.59999999999735,
          "velocity": 0.47244094488188976,
          "duration": 0.09999999999999432
        },
        {
          "name": "E5",
          "midi": 76,
          "time": 207.79999999999734,
          "velocity": 0.47244094488188976,
          "duration": 0.09999999999999432
        },
        {
          "name": "G5",
          "midi": 79,
          "time": 207.79999999999734,
          "velocity": 0.47244094488188976,
          "duration": 0.09999999999999432
        },
        {
          "name": "B4",
          "midi": 71,
          "time": 207.79999999999734,
          "velocity": 0.47244094488188976,
          "duration": 0.09999999999999432
        }
      ],
      "controlChanges": {
        "7": [
          {
            "number": 7,
            "time": 3.2,
            "value": 0.5905511811023622
          },
          {
            "number": 7,
            "time": 271.6374999999973,
            "value": 0.5905511811023622
          },
          {
            "number": 7,
            "time": 294.73749999999734,
            "value": 0.5748031496062992
          },
          {
            "number": 7,
            "time": 294.966666666664,
            "value": 0.5669291338582677
          },
          {
            "number": 7,
            "time": 295.0708333333307,
            "value": 0.5511811023622047
          },
          {
            "number": 7,
            "time": 295.53749999999735,
            "value": 0.5433070866141733
          },
          {
            "number": 7,
            "time": 295.9374999999973,
            "value": 0.5275590551181102
          },
          {
            "number": 7,
            "time": 296.1249999999973,
            "value": 0.4409448818897638
          },
          {
            "number": 7,
            "time": 296.57083333333065,
            "value": 0.4251968503937008
          },
          {
            "number": 7,
            "time": 296.704166666664,
            "value": 0.3937007874015748
          },
          {
            "number": 7,
            "time": 296.90416666666397,
            "value": 0.3858267716535433
          },
          {
            "number": 7,
            "time": 297.30416666666395,
            "value": 0.36220472440944884
          },
          {
            "number": 7,
            "time": 297.4458333333306,
            "value": 0.33858267716535434
          },
          {
            "number": 7,
            "time": 297.60416666666396,
            "value": 0.31496062992125984
          },
          {
            "number": 7,
            "time": 297.7249999999973,
            "value": 0.30708661417322836
          },
          {
            "number": 7,
            "time": 298.00416666666393,
            "value": 0.2755905511811024
          },
          {
            "number": 7,
            "time": 298.5374999999973,
            "value": 0.25196850393700787
          },
          {
            "number": 7,
            "time": 299.6499999999973,
            "value": 0.2440944881889764
          },
          {
            "number": 7,
            "time": 299.75833333333065,
            "value": 0.2283464566929134
          },
          {
            "number": 7,
            "time": 300.40416666666397,
            "value": 0.2204724409448819
          },
          {
            "number": 7,
            "time": 300.7374999999973,
            "value": 0.2125984251968504
          },
          {
            "number": 7,
            "time": 300.8374999999973,
            "value": 0.2047244094488189
          },
          {
            "number": 7,
            "time": 301.11666666666395,
            "value": 0.1968503937007874
          },
          {
            "number": 7,
            "time": 301.2708333333306,
            "value": 0.1732283464566929
          },
          {
            "number": 7,
            "time": 302.2708333333306,
            "value": 0.16535433070866143
          },
          {
            "number": 7,
            "time": 302.67083333333056,
            "value": 0.14173228346456693
          },
          {
            "number": 7,
            "time": 302.8041666666639,
            "value": 0.12598425196850394
          },
          {
            "number": 7,
            "time": 304.55833333333055,
            "value": 0.11811023622047244
          },
          {
            "number": 7,
            "time": 304.7374999999972,
            "value": 0.08661417322834646
          },
          {
            "number": 7,
            "time": 304.87083333333055,
            "value": 0.07086614173228346
          },
          {
            "number": 7,
            "time": 305.3999999999972,
            "value": 0.06299212598425197
          },
          {
            "number": 7,
            "time": 306.29166666666384,
            "value": 0.05511811023622047
          },
          {
            "number": 7,
            "time": 306.9833333333305,
            "value": 0.047244094488188976
          },
          {
            "number": 7,
            "time": 307.0374999999972,
            "value": 0.03937007874015748
          },
          {
            "number": 7,
            "time": 307.23749999999717,
            "value": 0.031496062992125984
          },
          {
            "number": 7,
            "time": 307.43749999999716,
            "value": 0.023622047244094488
          },
          {
            "number": 7,
            "time": 307.5999999999972,
            "value": 0
          }
        ],
        "10": [
          {
            "number": 10,
            "time": 271.6374999999973,
            "value": 0.5039370078740157
          }
        ]
      },
      "id": 4,
      "name": "CLEAN GTR",
      "instrumentNumber": 27,
      "instrument": "electric guitar (clean)",
      "instrumentFamily": "guitar",
      "channelNumber": 3,
      "isPercussion": false
    },
    {
      "startTime": 6.4,
      "duration": 236.79166666666657,
      "length": 60,
      "notes": [
        {
          "name": "B4",
          "midi": 71,
          "time": 6.4,
          "velocity": 1,
          "duration": 2.4000000000000004
        },
        {
          "name": "D5",
          "midi": 74,
          "time": 8.8,
          "velocity": 1,
          "duration": 0.40000000000000036
        },
        {
          "name": "E5",
          "midi": 76,
          "time": 9.200000000000001,
          "velocity": 1,
          "duration": 0.40000000000000036
        },
        {
          "name": "A#4",
          "midi": 70,
          "time": 9.600000000000001,
          "velocity": 1,
          "duration": 2.8000000000000007
        },
        {
          "name": "A4",
          "midi": 69,
          "time": 12.800000000000002,
          "velocity": 1,
          "duration": 1.5916666666666668
        },
        {
          "name": "A4",
          "midi": 69,
          "time": 14.400000000000002,
          "velocity": 0.8661417322834646,
          "duration": 0.7916666666666661
        },
        {
          "name": "E4",
          "midi": 64,
          "time": 15.200000000000001,
          "velocity": 0.968503937007874,
          "duration": 0.7916666666666661
        },
        {
          "name": "G#4",
          "midi": 68,
          "time": 16,
          "velocity": 1,
          "duration": 3.1916666666666664
        },
        {
          "name": "G4",
          "midi": 67,
          "time": 19.2,
          "velocity": 0.968503937007874,
          "duration": 1.9916666666666671
        },
        {
          "name": "G4",
          "midi": 67,
          "time": 21.2,
          "velocity": 0.7480314960629921,
          "duration": 0.1999999999999993
        },
        {
          "name": "G4",
          "midi": 67,
          "time": 21.4,
          "velocity": 0.7007874015748031,
          "duration": 0.19166666666666643
        },
        {
          "name": "A4",
          "midi": 69,
          "time": 21.599999999999998,
          "velocity": 1,
          "duration": 0.13333333333333286
        },
        {
          "name": "B4",
          "midi": 71,
          "time": 21.73333333333333,
          "velocity": 1,
          "duration": 0.2666666666666657
        },
        {
          "name": "D5",
          "midi": 74,
          "time": 21.999999999999996,
          "velocity": 1,
          "duration": 0.3999999999999986
        },
        {
          "name": "D4",
          "midi": 62,
          "time": 22.399999999999995,
          "velocity": 1,
          "duration": 1.591666666666665
        },
        {
          "name": "F#4",
          "midi": 66,
          "time": 23.999999999999993,
          "velocity": 1,
          "duration": 0.7916666666666679
        },
        {
          "name": "D4",
          "midi": 62,
          "time": 24.799999999999994,
          "velocity": 1,
          "duration": 0.7916666666666679
        },
        {
          "name": "E4",
          "midi": 64,
          "time": 25.599999999999994,
          "velocity": 1,
          "duration": 2.3916666666666657
        },
        {
          "name": "G4",
          "midi": 67,
          "time": 27.999999999999993,
          "velocity": 0.8661417322834646,
          "duration": 0.7916666666666679
        },
        {
          "name": "F#4",
          "midi": 66,
          "time": 28.799999999999994,
          "velocity": 1,
          "duration": 3.1916666666666664
        },
        {
          "name": "B4",
          "midi": 71,
          "time": 31.999999999999993,
          "velocity": 1,
          "duration": 2.3999999999999986
        },
        {
          "name": "D5",
          "midi": 74,
          "time": 34.39999999999999,
          "velocity": 1,
          "duration": 0.3999999999999986
        },
        {
          "name": "E5",
          "midi": 76,
          "time": 34.79999999999999,
          "velocity": 1,
          "duration": 0.3999999999999986
        },
        {
          "name": "A#4",
          "midi": 70,
          "time": 35.19999999999999,
          "velocity": 1,
          "duration": 2.799999999999997
        },
        {
          "name": "A4",
          "midi": 69,
          "time": 38.399999999999984,
          "velocity": 1,
          "duration": 1.5916666666666686
        },
        {
          "name": "A4",
          "midi": 69,
          "time": 39.999999999999986,
          "velocity": 0.8661417322834646,
          "duration": 0.7916666666666643
        },
        {
          "name": "E4",
          "midi": 64,
          "time": 40.79999999999998,
          "velocity": 0.968503937007874,
          "duration": 0.7916666666666643
        },
        {
          "name": "G#4",
          "midi": 68,
          "time": 41.59999999999998,
          "velocity": 1,
          "duration": 3.19166666666667
        },
        {
          "name": "G4",
          "midi": 67,
          "time": 44.79999999999998,
          "velocity": 0.968503937007874,
          "duration": 1.9916666666666671
        },
        {
          "name": "G4",
          "midi": 67,
          "time": 46.79999999999998,
          "velocity": 0.7480314960629921,
          "duration": 0.20000000000000284
        },
        {
          "name": "G4",
          "midi": 67,
          "time": 46.999999999999986,
          "velocity": 0.7007874015748031,
          "duration": 0.19166666666666998
        },
        {
          "name": "A4",
          "midi": 69,
          "time": 47.19999999999999,
          "velocity": 1,
          "duration": 0.13333333333333286
        },
        {
          "name": "B4",
          "midi": 71,
          "time": 47.33333333333332,
          "velocity": 1,
          "duration": 0.2666666666666657
        },
        {
          "name": "D5",
          "midi": 74,
          "time": 47.59999999999999,
          "velocity": 1,
          "duration": 0.3999999999999986
        },
        {
          "name": "D4",
          "midi": 62,
          "time": 47.999999999999986,
          "velocity": 1,
          "duration": 1.5916666666666686
        },
        {
          "name": "F#4",
          "midi": 66,
          "time": 49.59999999999999,
          "velocity": 1,
          "duration": 0.7916666666666643
        },
        {
          "name": "D4",
          "midi": 62,
          "time": 50.399999999999984,
          "velocity": 1,
          "duration": 0.7916666666666643
        },
        {
          "name": "E4",
          "midi": 64,
          "time": 51.19999999999998,
          "velocity": 1,
          "duration": 2.3916666666666657
        },
        {
          "name": "G4",
          "midi": 67,
          "time": 53.59999999999998,
          "velocity": 0.47244094488188976,
          "duration": 0.7916666666666643
        },
        {
          "name": "F#4",
          "midi": 66,
          "time": 54.39999999999998,
          "velocity": 1,
          "duration": 3.19166666666667
        },
        {
          "name": "B4",
          "midi": 71,
          "time": 211.2,
          "velocity": 1,
          "duration": 2.4000000000000057
        },
        {
          "name": "D5",
          "midi": 74,
          "time": 213.6,
          "velocity": 1,
          "duration": 0.4000000000000057
        },
        {
          "name": "E5",
          "midi": 76,
          "time": 214,
          "velocity": 1,
          "duration": 0.4000000000000057
        },
        {
          "name": "A#4",
          "midi": 70,
          "time": 214.4,
          "velocity": 1,
          "duration": 2.8000000000000114
        },
        {
          "name": "A4",
          "midi": 69,
          "time": 217.60000000000002,
          "velocity": 1,
          "duration": 1.5916666666666686
        },
        {
          "name": "A4",
          "midi": 69,
          "time": 219.20000000000002,
          "velocity": 0.8661417322834646,
          "duration": 0.7916666666666572
        },
        {
          "name": "E4",
          "midi": 64,
          "time": 220,
          "velocity": 0.968503937007874,
          "duration": 0.7916666666666572
        },
        {
          "name": "G#4",
          "midi": 68,
          "time": 220.79999999999998,
          "velocity": 1,
          "duration": 3.191666666666663
        },
        {
          "name": "G4",
          "midi": 67,
          "time": 223.99999999999997,
          "velocity": 0.968503937007874,
          "duration": 1.9916666666666742
        },
        {
          "name": "G4",
          "midi": 67,
          "time": 225.99999999999997,
          "velocity": 0.7480314960629921,
          "duration": 0.19999999999998863
        },
        {
          "name": "G4",
          "midi": 67,
          "time": 226.19999999999996,
          "velocity": 0.7007874015748031,
          "duration": 0.19166666666666288
        },
        {
          "name": "A4",
          "midi": 69,
          "time": 226.39999999999995,
          "velocity": 1,
          "duration": 0.13333333333332575
        },
        {
          "name": "B4",
          "midi": 71,
          "time": 226.53333333333327,
          "velocity": 1,
          "duration": 0.26666666666667993
        },
        {
          "name": "D5",
          "midi": 74,
          "time": 226.79999999999995,
          "velocity": 1,
          "duration": 0.4000000000000057
        },
        {
          "name": "D4",
          "midi": 62,
          "time": 227.19999999999996,
          "velocity": 1,
          "duration": 1.5916666666666686
        },
        {
          "name": "F#4",
          "midi": 66,
          "time": 228.79999999999995,
          "velocity": 1,
          "duration": 0.7916666666666572
        },
        {
          "name": "D4",
          "midi": 62,
          "time": 229.59999999999994,
          "velocity": 1,
          "duration": 0.7916666666666572
        },
        {
          "name": "E4",
          "midi": 64,
          "time": 230.39999999999992,
          "velocity": 1,
          "duration": 2.39166666666668
        },
        {
          "name": "F#4",
          "midi": 66,
          "time": 232.79999999999993,
          "velocity": 0.8661417322834646,
          "duration": 0.7916666666666572
        },
        {
          "name": "F#4",
          "midi": 66,
          "time": 233.5999999999999,
          "velocity": 1,
          "duration": 3.191666666666663
        }
      ],
      "controlChanges": {
        "7": [
          {
            "number": 7,
            "time": 3.2,
            "value": 0.8661417322834646
          },
          {
            "number": 7,
            "time": 271.63749999999993,
            "value": 0.8661417322834646
          },
          {
            "number": 7,
            "time": 294.73749999999995,
            "value": 0.8503937007874016
          },
          {
            "number": 7,
            "time": 294.8708333333333,
            "value": 0.84251968503937
          },
          {
            "number": 7,
            "time": 294.96666666666664,
            "value": 0.8346456692913385
          },
          {
            "number": 7,
            "time": 295.0708333333333,
            "value": 0.8110236220472441
          },
          {
            "number": 7,
            "time": 295.53749999999997,
            "value": 0.7952755905511811
          },
          {
            "number": 7,
            "time": 295.93749999999994,
            "value": 0.7795275590551181
          },
          {
            "number": 7,
            "time": 296.12499999999994,
            "value": 0.6535433070866141
          },
          {
            "number": 7,
            "time": 296.57083333333327,
            "value": 0.6220472440944882
          },
          {
            "number": 7,
            "time": 296.7041666666666,
            "value": 0.5748031496062992
          },
          {
            "number": 7,
            "time": 296.9041666666666,
            "value": 0.5669291338582677
          },
          {
            "number": 7,
            "time": 297.30416666666656,
            "value": 0.5354330708661418
          },
          {
            "number": 7,
            "time": 297.4458333333332,
            "value": 0.5039370078740157
          },
          {
            "number": 7,
            "time": 297.6041666666666,
            "value": 0.4645669291338583
          },
          {
            "number": 7,
            "time": 297.7249999999999,
            "value": 0.4566929133858268
          },
          {
            "number": 7,
            "time": 297.8708333333332,
            "value": 0.44881889763779526
          },
          {
            "number": 7,
            "time": 298.00416666666655,
            "value": 0.4015748031496063
          },
          {
            "number": 7,
            "time": 298.5374999999999,
            "value": 0.3779527559055118
          },
          {
            "number": 7,
            "time": 298.67083333333323,
            "value": 0.3700787401574803
          },
          {
            "number": 7,
            "time": 299.6499999999999,
            "value": 0.36220472440944884
          },
          {
            "number": 7,
            "time": 299.75833333333327,
            "value": 0.33070866141732286
          },
          {
            "number": 7,
            "time": 300.73749999999995,
            "value": 0.31496062992125984
          },
          {
            "number": 7,
            "time": 300.8375,
            "value": 0.2992125984251969
          },
          {
            "number": 7,
            "time": 301.1166666666666,
            "value": 0.28346456692913385
          },
          {
            "number": 7,
            "time": 301.27083333333326,
            "value": 0.25984251968503935
          },
          {
            "number": 7,
            "time": 302.0041666666666,
            "value": 0.25196850393700787
          },
          {
            "number": 7,
            "time": 302.27083333333326,
            "value": 0.2440944881889764
          },
          {
            "number": 7,
            "time": 302.67083333333323,
            "value": 0.2125984251968504
          },
          {
            "number": 7,
            "time": 302.80416666666656,
            "value": 0.1889763779527559
          },
          {
            "number": 7,
            "time": 304.5583333333332,
            "value": 0.18110236220472442
          },
          {
            "number": 7,
            "time": 304.6374999999999,
            "value": 0.1732283464566929
          },
          {
            "number": 7,
            "time": 304.7374999999999,
            "value": 0.12598425196850394
          },
          {
            "number": 7,
            "time": 304.8708333333332,
            "value": 0.11023622047244094
          },
          {
            "number": 7,
            "time": 305.39999999999986,
            "value": 0.09448818897637795
          },
          {
            "number": 7,
            "time": 306.2916666666665,
            "value": 0.08661417322834646
          },
          {
            "number": 7,
            "time": 306.53749999999985,
            "value": 0.07874015748031496
          },
          {
            "number": 7,
            "time": 306.9833333333332,
            "value": 0.07086614173228346
          },
          {
            "number": 7,
            "time": 307.03749999999985,
            "value": 0.06299212598425197
          },
          {
            "number": 7,
            "time": 307.1374999999999,
            "value": 0.05511811023622047
          },
          {
            "number": 7,
            "time": 307.2374999999999,
            "value": 0.047244094488188976
          },
          {
            "number": 7,
            "time": 307.4374999999999,
            "value": 0.03937007874015748
          },
          {
            "number": 7,
            "time": 307.5999999999999,
            "value": 0
          }
        ],
        "10": [
          {
            "number": 10,
            "time": 271.63749999999993,
            "value": 0.5039370078740157
          }
        ]
      },
      "id": 5,
      "name": "DISTORTION",
      "instrumentNumber": 30,
      "instrument": "distortion guitar",
      "instrumentFamily": "guitar",
      "channelNumber": 4,
      "isPercussion": false
    },
    {
      "startTime": 6.4,
      "duration": 236.7916666666666,
      "length": 72,
      "notes": [
        {
          "name": "B3",
          "midi": 59,
          "time": 6.4,
          "velocity": 1,
          "duration": 2.4000000000000004
        },
        {
          "name": "D4",
          "midi": 62,
          "time": 8.8,
          "velocity": 1,
          "duration": 0.40000000000000036
        },
        {
          "name": "E4",
          "midi": 64,
          "time": 9.200000000000001,
          "velocity": 1,
          "duration": 0.40000000000000036
        },
        {
          "name": "A#3",
          "midi": 58,
          "time": 9.600000000000001,
          "velocity": 1,
          "duration": 2.8000000000000007
        },
        {
          "name": "A3",
          "midi": 57,
          "time": 12.800000000000002,
          "velocity": 1,
          "duration": 1.5916666666666668
        },
        {
          "name": "A3",
          "midi": 57,
          "time": 14.400000000000002,
          "velocity": 0.8661417322834646,
          "duration": 0.7916666666666661
        },
        {
          "name": "E3",
          "midi": 52,
          "time": 15.200000000000001,
          "velocity": 0.968503937007874,
          "duration": 0.7916666666666661
        },
        {
          "name": "G#3",
          "midi": 56,
          "time": 16,
          "velocity": 1,
          "duration": 3.1916666666666664
        },
        {
          "name": "G3",
          "midi": 55,
          "time": 19.2,
          "velocity": 0.968503937007874,
          "duration": 1.9916666666666671
        },
        {
          "name": "G3",
          "midi": 55,
          "time": 21.2,
          "velocity": 0.7480314960629921,
          "duration": 0.1999999999999993
        },
        {
          "name": "G3",
          "midi": 55,
          "time": 21.4,
          "velocity": 0.7007874015748031,
          "duration": 0.19166666666666643
        },
        {
          "name": "A3",
          "midi": 57,
          "time": 21.599999999999998,
          "velocity": 1,
          "duration": 0.13333333333333286
        },
        {
          "name": "B3",
          "midi": 59,
          "time": 21.73333333333333,
          "velocity": 1,
          "duration": 0.2666666666666657
        },
        {
          "name": "D4",
          "midi": 62,
          "time": 21.999999999999996,
          "velocity": 1,
          "duration": 0.3999999999999986
        },
        {
          "name": "D3",
          "midi": 50,
          "time": 22.399999999999995,
          "velocity": 1,
          "duration": 1.591666666666665
        },
        {
          "name": "F#3",
          "midi": 54,
          "time": 23.999999999999993,
          "velocity": 1,
          "duration": 0.7916666666666679
        },
        {
          "name": "D3",
          "midi": 50,
          "time": 24.799999999999994,
          "velocity": 1,
          "duration": 0.7916666666666679
        },
        {
          "name": "E3",
          "midi": 52,
          "time": 25.599999999999994,
          "velocity": 1,
          "duration": 2.3916666666666657
        },
        {
          "name": "G3",
          "midi": 55,
          "time": 27.999999999999993,
          "velocity": 0.8661417322834646,
          "duration": 0.7916666666666679
        },
        {
          "name": "F#3",
          "midi": 54,
          "time": 28.799999999999994,
          "velocity": 1,
          "duration": 3.1916666666666664
        },
        {
          "name": "B3",
          "midi": 59,
          "time": 31.999999999999993,
          "velocity": 1,
          "duration": 2.3999999999999986
        },
        {
          "name": "D4",
          "midi": 62,
          "time": 34.39999999999999,
          "velocity": 1,
          "duration": 0.3999999999999986
        },
        {
          "name": "E4",
          "midi": 64,
          "time": 34.79999999999999,
          "velocity": 1,
          "duration": 0.3999999999999986
        },
        {
          "name": "A#3",
          "midi": 58,
          "time": 35.19999999999999,
          "velocity": 1,
          "duration": 2.799999999999997
        },
        {
          "name": "A3",
          "midi": 57,
          "time": 38.399999999999984,
          "velocity": 1,
          "duration": 1.5916666666666686
        },
        {
          "name": "A3",
          "midi": 57,
          "time": 39.999999999999986,
          "velocity": 0.8661417322834646,
          "duration": 0.7916666666666643
        },
        {
          "name": "E3",
          "midi": 52,
          "time": 40.79999999999998,
          "velocity": 0.968503937007874,
          "duration": 0.7916666666666643
        },
        {
          "name": "G#3",
          "midi": 56,
          "time": 41.59999999999998,
          "velocity": 1,
          "duration": 3.19166666666667
        },
        {
          "name": "G3",
          "midi": 55,
          "time": 44.79999999999998,
          "velocity": 0.968503937007874,
          "duration": 1.9916666666666671
        },
        {
          "name": "G3",
          "midi": 55,
          "time": 46.79999999999998,
          "velocity": 0.7480314960629921,
          "duration": 0.20000000000000284
        },
        {
          "name": "G3",
          "midi": 55,
          "time": 46.999999999999986,
          "velocity": 0.7007874015748031,
          "duration": 0.19166666666666998
        },
        {
          "name": "A3",
          "midi": 57,
          "time": 47.19999999999999,
          "velocity": 1,
          "duration": 0.13333333333333286
        },
        {
          "name": "B3",
          "midi": 59,
          "time": 47.33333333333332,
          "velocity": 1,
          "duration": 0.2666666666666657
        },
        {
          "name": "D4",
          "midi": 62,
          "time": 47.59999999999999,
          "velocity": 1,
          "duration": 0.3999999999999986
        },
        {
          "name": "D3",
          "midi": 50,
          "time": 47.999999999999986,
          "velocity": 1,
          "duration": 1.5916666666666686
        },
        {
          "name": "F#3",
          "midi": 54,
          "time": 49.59999999999999,
          "velocity": 1,
          "duration": 0.7916666666666643
        },
        {
          "name": "D3",
          "midi": 50,
          "time": 50.399999999999984,
          "velocity": 1,
          "duration": 0.7916666666666643
        },
        {
          "name": "E3",
          "midi": 52,
          "time": 51.19999999999998,
          "velocity": 1,
          "duration": 2.3916666666666657
        },
        {
          "name": "G3",
          "midi": 55,
          "time": 53.59999999999998,
          "velocity": 0.47244094488188976,
          "duration": 0.7916666666666643
        },
        {
          "name": "F#3",
          "midi": 54,
          "time": 54.39999999999998,
          "velocity": 1,
          "duration": 3.19166666666667
        },
        {
          "name": "B2",
          "midi": 47,
          "time": 118.39999999999998,
          "velocity": 0.9921259842519685,
          "duration": 0.7999999999999972
        },
        {
          "name": "C#3",
          "midi": 49,
          "time": 119.19999999999997,
          "velocity": 0.9921259842519685,
          "duration": 0.7999999999999972
        },
        {
          "name": "D3",
          "midi": 50,
          "time": 119.99999999999997,
          "velocity": 0.9921259842519685,
          "duration": 0.7999999999999972
        },
        {
          "name": "E3",
          "midi": 52,
          "time": 120.79999999999997,
          "velocity": 0.9921259842519685,
          "duration": 0.3916666666666657
        },
        {
          "name": "F#3",
          "midi": 54,
          "time": 121.19999999999997,
          "velocity": 0.9921259842519685,
          "duration": 0.3916666666666657
        },
        {
          "name": "G3",
          "midi": 55,
          "time": 121.59999999999998,
          "velocity": 0.9921259842519685,
          "duration": 3.200000000000003
        },
        {
          "name": "B2",
          "midi": 47,
          "time": 195.2,
          "velocity": 0.9921259842519685,
          "duration": 0.8000000000000114
        },
        {
          "name": "C#3",
          "midi": 49,
          "time": 196,
          "velocity": 0.9921259842519685,
          "duration": 0.8000000000000114
        },
        {
          "name": "D3",
          "midi": 50,
          "time": 196.8,
          "velocity": 0.9921259842519685,
          "duration": 0.8000000000000114
        },
        {
          "name": "E3",
          "midi": 52,
          "time": 197.60000000000002,
          "velocity": 0.9921259842519685,
          "duration": 0.39166666666667993
        },
        {
          "name": "F#3",
          "midi": 54,
          "time": 198.00000000000003,
          "velocity": 0.9921259842519685,
          "duration": 0.39166666666667993
        },
        {
          "name": "G3",
          "midi": 55,
          "time": 198.40000000000003,
          "velocity": 0.9921259842519685,
          "duration": 3.1999999999999886
        },
        {
          "name": "B3",
          "midi": 59,
          "time": 211.20000000000002,
          "velocity": 1,
          "duration": 2.4000000000000057
        },
        {
          "name": "D4",
          "midi": 62,
          "time": 213.60000000000002,
          "velocity": 1,
          "duration": 0.4000000000000057
        },
        {
          "name": "E4",
          "midi": 64,
          "time": 214.00000000000003,
          "velocity": 1,
          "duration": 0.4000000000000057
        },
        {
          "name": "A#3",
          "midi": 58,
          "time": 214.40000000000003,
          "velocity": 1,
          "duration": 2.8000000000000114
        },
        {
          "name": "A3",
          "midi": 57,
          "time": 217.60000000000005,
          "velocity": 1,
          "duration": 1.5916666666666686
        },
        {
          "name": "A3",
          "midi": 57,
          "time": 219.20000000000005,
          "velocity": 0.8661417322834646,
          "duration": 0.7916666666666572
        },
        {
          "name": "E3",
          "midi": 52,
          "time": 220.00000000000003,
          "velocity": 0.968503937007874,
          "duration": 0.7916666666666572
        },
        {
          "name": "G#3",
          "midi": 56,
          "time": 220.8,
          "velocity": 1,
          "duration": 3.191666666666663
        },
        {
          "name": "G3",
          "midi": 55,
          "time": 224,
          "velocity": 0.968503937007874,
          "duration": 1.9916666666666742
        },
        {
          "name": "G3",
          "midi": 55,
          "time": 226,
          "velocity": 0.7480314960629921,
          "duration": 0.19999999999998863
        },
        {
          "name": "G3",
          "midi": 55,
          "time": 226.2,
          "velocity": 0.7007874015748031,
          "duration": 0.19166666666666288
        },
        {
          "name": "A3",
          "midi": 57,
          "time": 226.39999999999998,
          "velocity": 1,
          "duration": 0.13333333333332575
        },
        {
          "name": "B3",
          "midi": 59,
          "time": 226.5333333333333,
          "velocity": 1,
          "duration": 0.26666666666667993
        },
        {
          "name": "D4",
          "midi": 62,
          "time": 226.79999999999998,
          "velocity": 1,
          "duration": 0.4000000000000057
        },
        {
          "name": "D3",
          "midi": 50,
          "time": 227.2,
          "velocity": 1,
          "duration": 1.5916666666666686
        },
        {
          "name": "F#3",
          "midi": 54,
          "time": 228.79999999999998,
          "velocity": 1,
          "duration": 0.7916666666666572
        },
        {
          "name": "D3",
          "midi": 50,
          "time": 229.59999999999997,
          "velocity": 1,
          "duration": 0.7916666666666572
        },
        {
          "name": "E3",
          "midi": 52,
          "time": 230.39999999999995,
          "velocity": 1,
          "duration": 2.39166666666668
        },
        {
          "name": "F#3",
          "midi": 54,
          "time": 232.79999999999995,
          "velocity": 0.8661417322834646,
          "duration": 0.7916666666666572
        },
        {
          "name": "F#3",
          "midi": 54,
          "time": 233.59999999999994,
          "velocity": 1,
          "duration": 3.191666666666663
        }
      ],
      "controlChanges": {
        "7": [
          {
            "number": 7,
            "time": 3.2,
            "value": 0.6299212598425197
          },
          {
            "number": 7,
            "time": 271.63749999999993,
            "value": 0.6299212598425197
          },
          {
            "number": 7,
            "time": 294.73749999999995,
            "value": 0.6141732283464567
          },
          {
            "number": 7,
            "time": 294.96666666666664,
            "value": 0.6062992125984252
          },
          {
            "number": 7,
            "time": 295.0708333333333,
            "value": 0.5905511811023622
          },
          {
            "number": 7,
            "time": 295.53749999999997,
            "value": 0.5748031496062992
          },
          {
            "number": 7,
            "time": 295.93749999999994,
            "value": 0.5669291338582677
          },
          {
            "number": 7,
            "time": 296.12499999999994,
            "value": 0.47244094488188976
          },
          {
            "number": 7,
            "time": 296.57083333333327,
            "value": 0.4566929133858268
          },
          {
            "number": 7,
            "time": 296.7041666666666,
            "value": 0.41732283464566927
          },
          {
            "number": 7,
            "time": 296.9041666666666,
            "value": 0.4094488188976378
          },
          {
            "number": 7,
            "time": 297.30416666666656,
            "value": 0.3937007874015748
          },
          {
            "number": 7,
            "time": 297.4458333333332,
            "value": 0.36220472440944884
          },
          {
            "number": 7,
            "time": 297.6041666666666,
            "value": 0.33858267716535434
          },
          {
            "number": 7,
            "time": 297.7249999999999,
            "value": 0.33070866141732286
          },
          {
            "number": 7,
            "time": 297.8708333333332,
            "value": 0.3228346456692913
          },
          {
            "number": 7,
            "time": 298.00416666666655,
            "value": 0.29133858267716534
          },
          {
            "number": 7,
            "time": 298.5374999999999,
            "value": 0.2755905511811024
          },
          {
            "number": 7,
            "time": 298.67083333333323,
            "value": 0.2677165354330709
          },
          {
            "number": 7,
            "time": 299.6499999999999,
            "value": 0.25984251968503935
          },
          {
            "number": 7,
            "time": 299.75833333333327,
            "value": 0.2440944881889764
          },
          {
            "number": 7,
            "time": 300.4041666666666,
            "value": 0.23622047244094488
          },
          {
            "number": 7,
            "time": 300.7374999999999,
            "value": 0.2283464566929134
          },
          {
            "number": 7,
            "time": 300.8374999999999,
            "value": 0.2204724409448819
          },
          {
            "number": 7,
            "time": 301.11666666666656,
            "value": 0.2047244094488189
          },
          {
            "number": 7,
            "time": 301.2708333333332,
            "value": 0.1889763779527559
          },
          {
            "number": 7,
            "time": 302.00416666666655,
            "value": 0.18110236220472442
          },
          {
            "number": 7,
            "time": 302.67083333333323,
            "value": 0.15748031496062992
          },
          {
            "number": 7,
            "time": 302.80416666666656,
            "value": 0.13385826771653545
          },
          {
            "number": 7,
            "time": 304.5583333333332,
            "value": 0.12598425196850394
          },
          {
            "number": 7,
            "time": 304.7374999999999,
            "value": 0.08661417322834646
          },
          {
            "number": 7,
            "time": 304.8708333333332,
            "value": 0.07874015748031496
          },
          {
            "number": 7,
            "time": 305.39999999999986,
            "value": 0.07086614173228346
          },
          {
            "number": 7,
            "time": 305.69166666666655,
            "value": 0.06299212598425197
          },
          {
            "number": 7,
            "time": 306.5374999999999,
            "value": 0.05511811023622047
          },
          {
            "number": 7,
            "time": 306.98333333333323,
            "value": 0.047244094488188976
          },
          {
            "number": 7,
            "time": 307.1374999999999,
            "value": 0.03937007874015748
          },
          {
            "number": 7,
            "time": 307.4374999999999,
            "value": 0.023622047244094488
          },
          {
            "number": 7,
            "time": 307.5999999999999,
            "value": 0
          }
        ],
        "10": [
          {
            "number": 10,
            "time": 271.63749999999993,
            "value": 0.5039370078740157
          }
        ]
      },
      "id": 6,
      "name": "DISTORTION",
      "instrumentNumber": 30,
      "instrument": "distortion guitar",
      "instrumentFamily": "guitar",
      "channelNumber": 5,
      "isPercussion": false
    },
    {
      "startTime": 21.2,
      "duration": 229.9666666666667,
      "length": 48,
      "notes": [
        {
          "name": "G3",
          "midi": 55,
          "time": 21.2,
          "velocity": 0.9921259842519685,
          "duration": 0.19166666666666643
        },
        {
          "name": "G3",
          "midi": 55,
          "time": 21.4,
          "velocity": 0.9921259842519685,
          "duration": 0.19166666666666643
        },
        {
          "name": "B3",
          "midi": 59,
          "time": 21.599999999999998,
          "velocity": 0.9921259842519685,
          "duration": 0.3916666666666444
        },
        {
          "name": "D4",
          "midi": 62,
          "time": 21.999999999999975,
          "velocity": 0.9921259842519685,
          "duration": 0.3916666666666657
        },
        {
          "name": "D3",
          "midi": 50,
          "time": 22.399999999999974,
          "velocity": 0.9921259842519685,
          "duration": 2.7666666666666657
        },
        {
          "name": "G3",
          "midi": 55,
          "time": 46.799999999999976,
          "velocity": 0.9921259842519685,
          "duration": 0.19166666666666998
        },
        {
          "name": "G3",
          "midi": 55,
          "time": 46.99999999999998,
          "velocity": 0.9921259842519685,
          "duration": 0.19166666666666998
        },
        {
          "name": "B3",
          "midi": 59,
          "time": 47.19999999999998,
          "velocity": 0.9921259842519685,
          "duration": 0.39166666666670835
        },
        {
          "name": "D4",
          "midi": 62,
          "time": 47.60000000000002,
          "velocity": 0.9921259842519685,
          "duration": 0.3916666666666657
        },
        {
          "name": "D3",
          "midi": 50,
          "time": 48.00000000000002,
          "velocity": 0.9921259842519685,
          "duration": 2.7666666666666657
        },
        {
          "name": "F#4",
          "midi": 66,
          "time": 112.44583333333335,
          "velocity": 0.7322834645669292,
          "duration": 0.20000000000000284
        },
        {
          "name": "A4",
          "midi": 69,
          "time": 112.44583333333335,
          "velocity": 0.7952755905511811,
          "duration": 0.20000000000000284
        },
        {
          "name": "A4",
          "midi": 69,
          "time": 112.71250000000002,
          "velocity": 0.7795275590551181,
          "duration": 0.1875
        },
        {
          "name": "F#4",
          "midi": 66,
          "time": 112.71250000000002,
          "velocity": 0.6692913385826772,
          "duration": 0.22083333333333144
        },
        {
          "name": "G4",
          "midi": 67,
          "time": 113.02500000000002,
          "velocity": 0.7480314960629921,
          "duration": 0.1875000000000142
        },
        {
          "name": "B4",
          "midi": 71,
          "time": 113.03333333333336,
          "velocity": 0.7401574803149606,
          "duration": 0.17083333333333428
        },
        {
          "name": "A4",
          "midi": 69,
          "time": 113.3166666666667,
          "velocity": 0.7007874015748031,
          "duration": 0.09999999999999432
        },
        {
          "name": "F#4",
          "midi": 66,
          "time": 113.3166666666667,
          "velocity": 0.6220472440944882,
          "duration": 0.14166666666666572
        },
        {
          "name": "A4",
          "midi": 69,
          "time": 113.60000000000004,
          "velocity": 0.7480314960629921,
          "duration": 0.19166666666666288
        },
        {
          "name": "C#5",
          "midi": 73,
          "time": 113.60000000000004,
          "velocity": 0.6850393700787402,
          "duration": 0.21666666666666856
        },
        {
          "name": "B4",
          "midi": 71,
          "time": 113.93333333333337,
          "velocity": 0.7716535433070866,
          "duration": 0.17916666666666003
        },
        {
          "name": "G4",
          "midi": 67,
          "time": 113.93750000000003,
          "velocity": 0.7952755905511811,
          "duration": 0.17916666666666003
        },
        {
          "name": "A4",
          "midi": 69,
          "time": 114.21666666666668,
          "velocity": 0.8188976377952756,
          "duration": 0.19583333333333997
        },
        {
          "name": "F#4",
          "midi": 66,
          "time": 114.22500000000002,
          "velocity": 0.7795275590551181,
          "duration": 0.19166666666666288
        },
        {
          "name": "A4",
          "midi": 69,
          "time": 114.50000000000001,
          "velocity": 0.8267716535433071,
          "duration": 0.7041666666666657
        },
        {
          "name": "F#4",
          "midi": 66,
          "time": 114.50000000000001,
          "velocity": 0.8267716535433071,
          "duration": 0.7125000000000057
        },
        {
          "name": "A4",
          "midi": 69,
          "time": 189.24583333333337,
          "velocity": 0.7952755905511811,
          "duration": 0.19999999999998863
        },
        {
          "name": "F#4",
          "midi": 66,
          "time": 189.24583333333337,
          "velocity": 0.7322834645669292,
          "duration": 0.19999999999998863
        },
        {
          "name": "F#4",
          "midi": 66,
          "time": 189.51250000000002,
          "velocity": 0.6692913385826772,
          "duration": 0.22083333333333144
        },
        {
          "name": "A4",
          "midi": 69,
          "time": 189.51250000000002,
          "velocity": 0.7795275590551181,
          "duration": 0.1875
        },
        {
          "name": "G4",
          "midi": 67,
          "time": 189.82500000000002,
          "velocity": 0.7480314960629921,
          "duration": 0.18749999999997158
        },
        {
          "name": "B4",
          "midi": 71,
          "time": 189.83333333333334,
          "velocity": 0.7401574803149606,
          "duration": 0.17083333333332007
        },
        {
          "name": "A4",
          "midi": 69,
          "time": 190.11666666666665,
          "velocity": 0.7007874015748031,
          "duration": 0.09999999999999432
        },
        {
          "name": "F#4",
          "midi": 66,
          "time": 190.11666666666665,
          "velocity": 0.6220472440944882,
          "duration": 0.1416666666666515
        },
        {
          "name": "C#5",
          "midi": 73,
          "time": 190.39999999999998,
          "velocity": 0.6850393700787402,
          "duration": 0.21666666666666856
        },
        {
          "name": "A4",
          "midi": 69,
          "time": 190.39999999999998,
          "velocity": 0.7480314960629921,
          "duration": 0.19166666666666288
        },
        {
          "name": "B4",
          "midi": 71,
          "time": 190.73333333333332,
          "velocity": 0.7716535433070866,
          "duration": 0.17916666666667425
        },
        {
          "name": "G4",
          "midi": 67,
          "time": 190.73749999999998,
          "velocity": 0.7952755905511811,
          "duration": 0.17916666666667425
        },
        {
          "name": "A4",
          "midi": 69,
          "time": 191.01666666666665,
          "velocity": 0.8188976377952756,
          "duration": 0.19583333333332575
        },
        {
          "name": "F#4",
          "midi": 66,
          "time": 191.02499999999998,
          "velocity": 0.7795275590551181,
          "duration": 0.19166666666666288
        },
        {
          "name": "A4",
          "midi": 69,
          "time": 191.29999999999998,
          "velocity": 0.8267716535433071,
          "duration": 0.7041666666666799
        },
        {
          "name": "F#4",
          "midi": 66,
          "time": 191.29999999999998,
          "velocity": 0.8267716535433071,
          "duration": 0.7125000000000057
        },
        {
          "name": "G3",
          "midi": 55,
          "time": 226,
          "velocity": 0.9921259842519685,
          "duration": 0.15000000000000568
        },
        {
          "name": "G3",
          "midi": 55,
          "time": 226.20000000000002,
          "velocity": 0.9921259842519685,
          "duration": 0.1458333333333428
        },
        {
          "name": "A3",
          "midi": 57,
          "time": 226.40000000000003,
          "velocity": 0.9921259842519685,
          "duration": 0.125
        },
        {
          "name": "B3",
          "midi": 59,
          "time": 226.53333333333336,
          "velocity": 0.9921259842519685,
          "duration": 0.30416666666667425
        },
        {
          "name": "D4",
          "midi": 62,
          "time": 226.80000000000004,
          "velocity": 0.9921259842519685,
          "duration": 0.3916666666666515
        },
        {
          "name": "D3",
          "midi": 50,
          "time": 227.20000000000002,
          "velocity": 0.9921259842519685,
          "duration": 2.76666666666668
        }
      ],
      "controlChanges": {
        "7": [
          {
            "number": 7,
            "time": 3.2,
            "value": 0.7874015748031497
          },
          {
            "number": 7,
            "time": 111.98333333333335,
            "value": 0.9921259842519685
          },
          {
            "number": 7,
            "time": 115.97083333333336,
            "value": 0.7795275590551181
          },
          {
            "number": 7,
            "time": 188.78333333333336,
            "value": 0.9921259842519685
          },
          {
            "number": 7,
            "time": 192.77083333333331,
            "value": 0.7795275590551181
          },
          {
            "number": 7,
            "time": 271.63750000000005,
            "value": 0.7874015748031497
          },
          {
            "number": 7,
            "time": 294.73750000000007,
            "value": 0.7716535433070866
          },
          {
            "number": 7,
            "time": 294.8708333333334,
            "value": 0.7637795275590551
          },
          {
            "number": 7,
            "time": 294.96666666666675,
            "value": 0.7559055118110236
          },
          {
            "number": 7,
            "time": 295.07083333333344,
            "value": 0.7401574803149606
          },
          {
            "number": 7,
            "time": 295.20416666666677,
            "value": 0.7322834645669292
          },
          {
            "number": 7,
            "time": 295.5375000000001,
            "value": 0.7244094488188977
          },
          {
            "number": 7,
            "time": 295.93750000000006,
            "value": 0.7086614173228346
          },
          {
            "number": 7,
            "time": 296.12500000000006,
            "value": 0.5905511811023622
          },
          {
            "number": 7,
            "time": 296.5708333333334,
            "value": 0.5669291338582677
          },
          {
            "number": 7,
            "time": 296.7041666666667,
            "value": 0.5275590551181102
          },
          {
            "number": 7,
            "time": 296.9041666666667,
            "value": 0.5118110236220472
          },
          {
            "number": 7,
            "time": 297.3041666666667,
            "value": 0.4881889763779528
          },
          {
            "number": 7,
            "time": 297.4458333333333,
            "value": 0.4566929133858268
          },
          {
            "number": 7,
            "time": 297.6041666666667,
            "value": 0.41732283464566927
          },
          {
            "number": 7,
            "time": 297.87083333333334,
            "value": 0.4094488188976378
          },
          {
            "number": 7,
            "time": 298.00416666666666,
            "value": 0.36220472440944884
          },
          {
            "number": 7,
            "time": 298.5375,
            "value": 0.33858267716535434
          },
          {
            "number": 7,
            "time": 298.67083333333335,
            "value": 0.33070866141732286
          },
          {
            "number": 7,
            "time": 299.7583333333333,
            "value": 0.30708661417322836
          },
          {
            "number": 7,
            "time": 300.40416666666664,
            "value": 0.2992125984251969
          },
          {
            "number": 7,
            "time": 300.73749999999995,
            "value": 0.28346456692913385
          },
          {
            "number": 7,
            "time": 300.8375,
            "value": 0.2755905511811024
          },
          {
            "number": 7,
            "time": 301.1166666666666,
            "value": 0.25984251968503935
          },
          {
            "number": 7,
            "time": 301.27083333333326,
            "value": 0.23622047244094488
          },
          {
            "number": 7,
            "time": 302.0041666666666,
            "value": 0.2283464566929134
          },
          {
            "number": 7,
            "time": 302.27083333333326,
            "value": 0.2204724409448819
          },
          {
            "number": 7,
            "time": 302.67083333333323,
            "value": 0.1968503937007874
          },
          {
            "number": 7,
            "time": 302.80416666666656,
            "value": 0.16535433070866143
          },
          {
            "number": 7,
            "time": 304.6374999999999,
            "value": 0.15748031496062992
          },
          {
            "number": 7,
            "time": 304.7374999999999,
            "value": 0.11023622047244094
          },
          {
            "number": 7,
            "time": 304.8708333333332,
            "value": 0.10236220472440945
          },
          {
            "number": 7,
            "time": 305.39999999999986,
            "value": 0.08661417322834646
          },
          {
            "number": 7,
            "time": 305.69166666666655,
            "value": 0.07874015748031496
          },
          {
            "number": 7,
            "time": 306.5374999999999,
            "value": 0.07086614173228346
          },
          {
            "number": 7,
            "time": 306.98333333333323,
            "value": 0.06299212598425197
          },
          {
            "number": 7,
            "time": 307.0374999999999,
            "value": 0.05511811023622047
          },
          {
            "number": 7,
            "time": 307.2374999999999,
            "value": 0.047244094488188976
          },
          {
            "number": 7,
            "time": 307.4374999999999,
            "value": 0.031496062992125984
          },
          {
            "number": 7,
            "time": 307.5999999999999,
            "value": 0
          }
        ],
        "10": [
          {
            "number": 10,
            "time": 271.63750000000005,
            "value": 0.5039370078740157
          }
        ]
      },
      "id": 7,
      "name": "STEEL GTR",
      "instrumentNumber": 25,
      "instrument": "acoustic guitar (steel)",
      "instrumentFamily": "guitar",
      "channelNumber": 6,
      "isPercussion": false
    },
    {
      "startTime": 6.4,
      "duration": 312.99999999999807,
      "length": 636,
      "notes": [
        {
          "name": "B2",
          "midi": 47,
          "time": 6.4,
          "velocity": 1,
          "duration": 3.1916666666666664
        },
        {
          "name": "F#2",
          "midi": 42,
          "time": 9.6,
          "velocity": 1,
          "duration": 3.1916666666666664
        },
        {
          "name": "A2",
          "midi": 45,
          "time": 12.799999999999999,
          "velocity": 1,
          "duration": 3.1916666666666664
        },
        {
          "name": "E2",
          "midi": 40,
          "time": 15.999999999999998,
          "velocity": 1,
          "duration": 3.191666666666668
        },
        {
          "name": "G2",
          "midi": 43,
          "time": 19.2,
          "velocity": 1,
          "duration": 3.1916666666666664
        },
        {
          "name": "D2",
          "midi": 38,
          "time": 22.4,
          "velocity": 1,
          "duration": 3.1916666666666664
        },
        {
          "name": "E2",
          "midi": 40,
          "time": 25.599999999999998,
          "velocity": 1,
          "duration": 3.1916666666666664
        },
        {
          "name": "F#2",
          "midi": 42,
          "time": 28.799999999999997,
          "velocity": 1,
          "duration": 3.1916666666666664
        },
        {
          "name": "B2",
          "midi": 47,
          "time": 31.999999999999996,
          "velocity": 1,
          "duration": 3.1916666666666664
        },
        {
          "name": "F#2",
          "midi": 42,
          "time": 35.199999999999996,
          "velocity": 1,
          "duration": 3.19166666666667
        },
        {
          "name": "A2",
          "midi": 45,
          "time": 38.4,
          "velocity": 1,
          "duration": 3.19166666666667
        },
        {
          "name": "E2",
          "midi": 40,
          "time": 41.6,
          "velocity": 1,
          "duration": 3.19166666666667
        },
        {
          "name": "G2",
          "midi": 43,
          "time": 44.800000000000004,
          "velocity": 1,
          "duration": 3.19166666666667
        },
        {
          "name": "D2",
          "midi": 38,
          "time": 48.00000000000001,
          "velocity": 1,
          "duration": 3.19166666666667
        },
        {
          "name": "E2",
          "midi": 40,
          "time": 51.20000000000001,
          "velocity": 1,
          "duration": 3.19166666666667
        },
        {
          "name": "F#2",
          "midi": 42,
          "time": 54.40000000000001,
          "velocity": 1,
          "duration": 3.19166666666667
        },
        {
          "name": "B2",
          "midi": 47,
          "time": 57.600000000000016,
          "velocity": 1,
          "duration": 0.19166666666666998
        },
        {
          "name": "B2",
          "midi": 47,
          "time": 57.80000000000002,
          "velocity": 1,
          "duration": 0.19166666666666998
        },
        {
          "name": "F#3",
          "midi": 54,
          "time": 58.00000000000002,
          "velocity": 1,
          "duration": 0.19166666666666998
        },
        {
          "name": "B3",
          "midi": 59,
          "time": 58.200000000000024,
          "velocity": 1,
          "duration": 0.19166666666666998
        },
        {
          "name": "F#3",
          "midi": 54,
          "time": 59.00000000000003,
          "velocity": 1,
          "duration": 0.19166666666666998
        },
        {
          "name": "B3",
          "midi": 59,
          "time": 59.20000000000003,
          "velocity": 1,
          "duration": 0.10000000000000142
        },
        {
          "name": "B3",
          "midi": 59,
          "time": 59.400000000000034,
          "velocity": 1,
          "duration": 0.10000000000000142
        },
        {
          "name": "F#3",
          "midi": 54,
          "time": 59.60000000000004,
          "velocity": 1,
          "duration": 1.2000000000000028
        },
        {
          "name": "F#2",
          "midi": 42,
          "time": 60.80000000000004,
          "velocity": 1,
          "duration": 0.125
        },
        {
          "name": "F#2",
          "midi": 42,
          "time": 61.00000000000004,
          "velocity": 1,
          "duration": 0.15833333333333144
        },
        {
          "name": "C#3",
          "midi": 49,
          "time": 61.20000000000004,
          "velocity": 1,
          "duration": 0.15833333333333144
        },
        {
          "name": "F#3",
          "midi": 54,
          "time": 61.400000000000034,
          "velocity": 1,
          "duration": 0.14999999999999858
        },
        {
          "name": "C#3",
          "midi": 49,
          "time": 62.20000000000003,
          "velocity": 1,
          "duration": 0.13333333333333286
        },
        {
          "name": "F#3",
          "midi": 54,
          "time": 62.400000000000034,
          "velocity": 1,
          "duration": 0.11666666666666714
        },
        {
          "name": "C#3",
          "midi": 49,
          "time": 62.60000000000004,
          "velocity": 1,
          "duration": 0.1458333333333357
        },
        {
          "name": "F#2",
          "midi": 42,
          "time": 62.80000000000004,
          "velocity": 1,
          "duration": 1.05833333333333
        },
        {
          "name": "A2",
          "midi": 45,
          "time": 64.00000000000004,
          "velocity": 1,
          "duration": 0.13333333333333997
        },
        {
          "name": "A2",
          "midi": 45,
          "time": 64.20000000000005,
          "velocity": 1,
          "duration": 0.13333333333333997
        },
        {
          "name": "E3",
          "midi": 52,
          "time": 64.40000000000005,
          "velocity": 1,
          "duration": 0.15833333333333144
        },
        {
          "name": "A3",
          "midi": 57,
          "time": 64.60000000000005,
          "velocity": 1,
          "duration": 0.21666666666666856
        },
        {
          "name": "E3",
          "midi": 52,
          "time": 65.40000000000005,
          "velocity": 1,
          "duration": 0.17083333333333428
        },
        {
          "name": "A3",
          "midi": 57,
          "time": 65.60000000000005,
          "velocity": 1,
          "duration": 0.0833333333333286
        },
        {
          "name": "A3",
          "midi": 57,
          "time": 65.80000000000004,
          "velocity": 1,
          "duration": 0.07916666666666572
        },
        {
          "name": "E3",
          "midi": 52,
          "time": 66.00000000000004,
          "velocity": 1,
          "duration": 1.0041666666666629
        },
        {
          "name": "E2",
          "midi": 40,
          "time": 67.20000000000005,
          "velocity": 1,
          "duration": 0.11666666666666003
        },
        {
          "name": "E2",
          "midi": 40,
          "time": 67.40000000000003,
          "velocity": 1,
          "duration": 0.13750000000000284
        },
        {
          "name": "B2",
          "midi": 47,
          "time": 67.60000000000004,
          "velocity": 1,
          "duration": 0.13750000000000284
        },
        {
          "name": "E3",
          "midi": 52,
          "time": 67.80000000000004,
          "velocity": 1,
          "duration": 0.13333333333333997
        },
        {
          "name": "B2",
          "midi": 47,
          "time": 68.60000000000005,
          "velocity": 1,
          "duration": 0.13333333333333997
        },
        {
          "name": "E3",
          "midi": 52,
          "time": 68.80000000000005,
          "velocity": 1,
          "duration": 0.09166666666666856
        },
        {
          "name": "B2",
          "midi": 47,
          "time": 69.00000000000006,
          "velocity": 1,
          "duration": 0.07916666666666572
        },
        {
          "name": "E2",
          "midi": 40,
          "time": 69.20000000000006,
          "velocity": 1,
          "duration": 0.9333333333333371
        },
        {
          "name": "G2",
          "midi": 43,
          "time": 70.40000000000006,
          "velocity": 1,
          "duration": 0.09999999999999432
        },
        {
          "name": "G2",
          "midi": 43,
          "time": 70.60000000000005,
          "velocity": 1,
          "duration": 0.11249999999999716
        },
        {
          "name": "D3",
          "midi": 50,
          "time": 70.80000000000005,
          "velocity": 1,
          "duration": 0.1458333333333286
        },
        {
          "name": "G3",
          "midi": 55,
          "time": 71.00000000000004,
          "velocity": 1,
          "duration": 0.17083333333333428
        },
        {
          "name": "D3",
          "midi": 50,
          "time": 71.80000000000004,
          "velocity": 1,
          "duration": 0.1041666666666714
        },
        {
          "name": "G3",
          "midi": 55,
          "time": 72.00000000000004,
          "velocity": 1,
          "duration": 0.0833333333333286
        },
        {
          "name": "G3",
          "midi": 55,
          "time": 72.20000000000003,
          "velocity": 1,
          "duration": 0.07916666666666572
        },
        {
          "name": "D3",
          "midi": 50,
          "time": 72.40000000000003,
          "velocity": 1,
          "duration": 0.7000000000000028
        },
        {
          "name": "D3",
          "midi": 50,
          "time": 73.60000000000004,
          "velocity": 1,
          "duration": 0.11249999999999716
        },
        {
          "name": "D3",
          "midi": 50,
          "time": 73.80000000000004,
          "velocity": 1,
          "duration": 0.13750000000000284
        },
        {
          "name": "A3",
          "midi": 57,
          "time": 74.00000000000004,
          "velocity": 1,
          "duration": 0.15000000000000568
        },
        {
          "name": "D4",
          "midi": 62,
          "time": 74.20000000000005,
          "velocity": 1,
          "duration": 0.15000000000000568
        },
        {
          "name": "A3",
          "midi": 57,
          "time": 75.00000000000006,
          "velocity": 1,
          "duration": 0.11249999999999716
        },
        {
          "name": "D4",
          "midi": 62,
          "time": 75.20000000000006,
          "velocity": 1,
          "duration": 0.07916666666666572
        },
        {
          "name": "A3",
          "midi": 57,
          "time": 75.40000000000006,
          "velocity": 1,
          "duration": 0.07916666666666572
        },
        {
          "name": "D3",
          "midi": 50,
          "time": 75.60000000000007,
          "velocity": 1,
          "duration": 0.9124999999999943
        },
        {
          "name": "E2",
          "midi": 40,
          "time": 76.80000000000005,
          "velocity": 1,
          "duration": 0.11666666666666003
        },
        {
          "name": "E2",
          "midi": 40,
          "time": 77.00000000000004,
          "velocity": 1,
          "duration": 0.11249999999999716
        },
        {
          "name": "B2",
          "midi": 47,
          "time": 77.20000000000005,
          "velocity": 1,
          "duration": 0.13750000000000284
        },
        {
          "name": "E3",
          "midi": 52,
          "time": 77.40000000000005,
          "velocity": 1,
          "duration": 0.13333333333333997
        },
        {
          "name": "B2",
          "midi": 47,
          "time": 78.20000000000006,
          "velocity": 1,
          "duration": 0.1041666666666714
        },
        {
          "name": "E3",
          "midi": 52,
          "time": 78.40000000000006,
          "velocity": 1,
          "duration": 0.1041666666666714
        },
        {
          "name": "E3",
          "midi": 52,
          "time": 78.60000000000007,
          "velocity": 1,
          "duration": 0.09166666666666856
        },
        {
          "name": "B2",
          "midi": 47,
          "time": 78.80000000000007,
          "velocity": 1,
          "duration": 0.7374999999999972
        },
        {
          "name": "F#2",
          "midi": 42,
          "time": 80.00000000000007,
          "velocity": 1,
          "duration": 0.09166666666666856
        },
        {
          "name": "F#2",
          "midi": 42,
          "time": 80.20000000000007,
          "velocity": 1,
          "duration": 0.0833333333333286
        },
        {
          "name": "C#3",
          "midi": 49,
          "time": 80.40000000000006,
          "velocity": 1,
          "duration": 0.125
        },
        {
          "name": "F#3",
          "midi": 54,
          "time": 80.60000000000007,
          "velocity": 1,
          "duration": 0.13750000000000284
        },
        {
          "name": "C#3",
          "midi": 49,
          "time": 81.40000000000006,
          "velocity": 1,
          "duration": 0.1041666666666714
        },
        {
          "name": "F#3",
          "midi": 54,
          "time": 81.60000000000007,
          "velocity": 1,
          "duration": 0.15000000000000568
        },
        {
          "name": "C#3",
          "midi": 49,
          "time": 82.20000000000007,
          "velocity": 1,
          "duration": 0.09999999999999432
        },
        {
          "name": "F#3",
          "midi": 54,
          "time": 82.40000000000006,
          "velocity": 1,
          "duration": 0.19166666666666288
        },
        {
          "name": "B2",
          "midi": 47,
          "time": 83.20000000000006,
          "velocity": 1,
          "duration": 0.19166666666666288
        },
        {
          "name": "B2",
          "midi": 47,
          "time": 83.40000000000006,
          "velocity": 1,
          "duration": 0.19166666666666288
        },
        {
          "name": "F#3",
          "midi": 54,
          "time": 83.60000000000007,
          "velocity": 1,
          "duration": 0.19166666666666288
        },
        {
          "name": "B3",
          "midi": 59,
          "time": 83.80000000000007,
          "velocity": 1,
          "duration": 0.19166666666666288
        },
        {
          "name": "F#3",
          "midi": 54,
          "time": 84.60000000000007,
          "velocity": 1,
          "duration": 0.19166666666666288
        },
        {
          "name": "B3",
          "midi": 59,
          "time": 84.80000000000007,
          "velocity": 1,
          "duration": 0.09999999999999432
        },
        {
          "name": "B3",
          "midi": 59,
          "time": 85.00000000000006,
          "velocity": 1,
          "duration": 0.09999999999999432
        },
        {
          "name": "F#3",
          "midi": 54,
          "time": 85.20000000000005,
          "velocity": 1,
          "duration": 1.2000000000000028
        },
        {
          "name": "F#2",
          "midi": 42,
          "time": 86.40000000000005,
          "velocity": 1,
          "duration": 0.125
        },
        {
          "name": "F#2",
          "midi": 42,
          "time": 86.60000000000005,
          "velocity": 1,
          "duration": 0.15833333333333144
        },
        {
          "name": "C#3",
          "midi": 49,
          "time": 86.80000000000005,
          "velocity": 1,
          "duration": 0.15833333333333144
        },
        {
          "name": "F#3",
          "midi": 54,
          "time": 87.00000000000006,
          "velocity": 1,
          "duration": 0.15000000000000568
        },
        {
          "name": "C#3",
          "midi": 49,
          "time": 87.80000000000007,
          "velocity": 1,
          "duration": 0.13333333333333997
        },
        {
          "name": "F#3",
          "midi": 54,
          "time": 88.00000000000007,
          "velocity": 1,
          "duration": 0.11666666666666003
        },
        {
          "name": "C#3",
          "midi": 49,
          "time": 88.20000000000006,
          "velocity": 1,
          "duration": 0.1458333333333286
        },
        {
          "name": "F#2",
          "midi": 42,
          "time": 88.40000000000005,
          "velocity": 1,
          "duration": 1.0583333333333371
        },
        {
          "name": "A2",
          "midi": 45,
          "time": 89.60000000000005,
          "velocity": 1,
          "duration": 0.13333333333333997
        },
        {
          "name": "A2",
          "midi": 45,
          "time": 89.80000000000005,
          "velocity": 1,
          "duration": 0.13333333333333997
        },
        {
          "name": "E3",
          "midi": 52,
          "time": 90.00000000000006,
          "velocity": 1,
          "duration": 0.15833333333333144
        },
        {
          "name": "A3",
          "midi": 57,
          "time": 90.20000000000006,
          "velocity": 1,
          "duration": 0.21666666666666856
        },
        {
          "name": "E3",
          "midi": 52,
          "time": 91.00000000000006,
          "velocity": 1,
          "duration": 0.17083333333333428
        },
        {
          "name": "A3",
          "midi": 57,
          "time": 91.20000000000006,
          "velocity": 1,
          "duration": 0.0833333333333286
        },
        {
          "name": "A3",
          "midi": 57,
          "time": 91.40000000000005,
          "velocity": 1,
          "duration": 0.07916666666666572
        },
        {
          "name": "E3",
          "midi": 52,
          "time": 91.60000000000005,
          "velocity": 1,
          "duration": 1.0041666666666629
        },
        {
          "name": "E2",
          "midi": 40,
          "time": 92.80000000000005,
          "velocity": 1,
          "duration": 0.11666666666666003
        },
        {
          "name": "E2",
          "midi": 40,
          "time": 93.00000000000004,
          "velocity": 1,
          "duration": 0.13750000000000284
        },
        {
          "name": "B2",
          "midi": 47,
          "time": 93.20000000000005,
          "velocity": 1,
          "duration": 0.13750000000000284
        },
        {
          "name": "E3",
          "midi": 52,
          "time": 93.40000000000005,
          "velocity": 1,
          "duration": 0.13333333333333997
        },
        {
          "name": "B2",
          "midi": 47,
          "time": 94.20000000000006,
          "velocity": 1,
          "duration": 0.13333333333333997
        },
        {
          "name": "E3",
          "midi": 52,
          "time": 94.40000000000006,
          "velocity": 1,
          "duration": 0.09166666666666856
        },
        {
          "name": "B2",
          "midi": 47,
          "time": 94.60000000000007,
          "velocity": 1,
          "duration": 0.07916666666666572
        },
        {
          "name": "E2",
          "midi": 40,
          "time": 94.80000000000007,
          "velocity": 1,
          "duration": 0.9333333333333371
        },
        {
          "name": "G2",
          "midi": 43,
          "time": 96.00000000000007,
          "velocity": 1,
          "duration": 0.09999999999999432
        },
        {
          "name": "G2",
          "midi": 43,
          "time": 96.20000000000006,
          "velocity": 1,
          "duration": 0.11249999999999716
        },
        {
          "name": "D3",
          "midi": 50,
          "time": 96.40000000000006,
          "velocity": 1,
          "duration": 0.1458333333333286
        },
        {
          "name": "G3",
          "midi": 55,
          "time": 96.60000000000005,
          "velocity": 1,
          "duration": 0.17083333333333428
        },
        {
          "name": "D3",
          "midi": 50,
          "time": 97.40000000000005,
          "velocity": 1,
          "duration": 0.1041666666666714
        },
        {
          "name": "G3",
          "midi": 55,
          "time": 97.60000000000005,
          "velocity": 1,
          "duration": 0.0833333333333286
        },
        {
          "name": "G3",
          "midi": 55,
          "time": 97.80000000000004,
          "velocity": 1,
          "duration": 0.07916666666666572
        },
        {
          "name": "D3",
          "midi": 50,
          "time": 98.00000000000004,
          "velocity": 1,
          "duration": 0.7000000000000028
        },
        {
          "name": "D3",
          "midi": 50,
          "time": 99.20000000000005,
          "velocity": 1,
          "duration": 0.11249999999999716
        },
        {
          "name": "D3",
          "midi": 50,
          "time": 99.40000000000005,
          "velocity": 1,
          "duration": 0.13750000000000284
        },
        {
          "name": "A3",
          "midi": 57,
          "time": 99.60000000000005,
          "velocity": 1,
          "duration": 0.15000000000000568
        },
        {
          "name": "D4",
          "midi": 62,
          "time": 99.80000000000005,
          "velocity": 1,
          "duration": 0.15000000000000568
        },
        {
          "name": "A3",
          "midi": 57,
          "time": 100.60000000000007,
          "velocity": 1,
          "duration": 0.11249999999999716
        },
        {
          "name": "D4",
          "midi": 62,
          "time": 100.80000000000007,
          "velocity": 1,
          "duration": 0.07916666666666572
        },
        {
          "name": "A3",
          "midi": 57,
          "time": 101.00000000000007,
          "velocity": 1,
          "duration": 0.07916666666666572
        },
        {
          "name": "D3",
          "midi": 50,
          "time": 101.20000000000007,
          "velocity": 1,
          "duration": 0.9124999999999943
        },
        {
          "name": "E2",
          "midi": 40,
          "time": 102.40000000000006,
          "velocity": 1,
          "duration": 0.11666666666666003
        },
        {
          "name": "E2",
          "midi": 40,
          "time": 102.60000000000005,
          "velocity": 1,
          "duration": 0.11249999999999716
        },
        {
          "name": "B2",
          "midi": 47,
          "time": 102.80000000000005,
          "velocity": 1,
          "duration": 0.13750000000000284
        },
        {
          "name": "E3",
          "midi": 52,
          "time": 103.00000000000006,
          "velocity": 1,
          "duration": 0.13333333333333997
        },
        {
          "name": "B2",
          "midi": 47,
          "time": 103.80000000000007,
          "velocity": 1,
          "duration": 0.1041666666666714
        },
        {
          "name": "E3",
          "midi": 52,
          "time": 104.00000000000007,
          "velocity": 1,
          "duration": 0.1041666666666714
        },
        {
          "name": "E3",
          "midi": 52,
          "time": 104.20000000000007,
          "velocity": 1,
          "duration": 0.09166666666666856
        },
        {
          "name": "B2",
          "midi": 47,
          "time": 104.40000000000008,
          "velocity": 1,
          "duration": 0.7374999999999972
        },
        {
          "name": "F#2",
          "midi": 42,
          "time": 105.60000000000008,
          "velocity": 1,
          "duration": 0.09166666666666856
        },
        {
          "name": "F#2",
          "midi": 42,
          "time": 105.80000000000008,
          "velocity": 1,
          "duration": 0.0833333333333286
        },
        {
          "name": "C#3",
          "midi": 49,
          "time": 106.00000000000007,
          "velocity": 1,
          "duration": 0.125
        },
        {
          "name": "F#3",
          "midi": 54,
          "time": 106.20000000000007,
          "velocity": 1,
          "duration": 0.13750000000000284
        },
        {
          "name": "C#3",
          "midi": 49,
          "time": 107.00000000000007,
          "velocity": 1,
          "duration": 0.1041666666666714
        },
        {
          "name": "F#3",
          "midi": 54,
          "time": 107.20000000000007,
          "velocity": 1,
          "duration": 0.15000000000000568
        },
        {
          "name": "B2",
          "midi": 47,
          "time": 108.00000000000009,
          "velocity": 0.8818897637795275,
          "duration": 0.13750000000000284
        },
        {
          "name": "C#3",
          "midi": 49,
          "time": 108.20000000000009,
          "velocity": 0.8818897637795275,
          "duration": 0.13333333333333997
        },
        {
          "name": "D3",
          "midi": 50,
          "time": 108.40000000000009,
          "velocity": 0.8661417322834646,
          "duration": 0.125
        },
        {
          "name": "F#3",
          "midi": 54,
          "time": 108.6000000000001,
          "velocity": 0.84251968503937,
          "duration": 0.13333333333333997
        },
        {
          "name": "G3",
          "midi": 55,
          "time": 108.8000000000001,
          "velocity": 0.7007874015748031,
          "duration": 0.125
        },
        {
          "name": "D3",
          "midi": 50,
          "time": 109.0000000000001,
          "velocity": 0.8661417322834646,
          "duration": 0.11666666666666003
        },
        {
          "name": "G2",
          "midi": 43,
          "time": 109.20000000000009,
          "velocity": 0.8818897637795275,
          "duration": 0.125
        },
        {
          "name": "D3",
          "midi": 50,
          "time": 110.20000000000009,
          "velocity": 0.8188976377952756,
          "duration": 0.1041666666666714
        },
        {
          "name": "G3",
          "midi": 55,
          "time": 110.40000000000009,
          "velocity": 0.8267716535433071,
          "duration": 0.1666666666666714
        },
        {
          "name": "G3",
          "midi": 55,
          "time": 111.2000000000001,
          "velocity": 0.9212598425196851,
          "duration": 0.09999999999999432
        },
        {
          "name": "D3",
          "midi": 50,
          "time": 111.40000000000009,
          "velocity": 0.905511811023622,
          "duration": 0.1041666666666714
        },
        {
          "name": "G2",
          "midi": 43,
          "time": 111.6000000000001,
          "velocity": 0.8661417322834646,
          "duration": 0.21250000000000568
        },
        {
          "name": "D4",
          "midi": 62,
          "time": 112.0000000000001,
          "velocity": 0.8818897637795275,
          "duration": 0.09999999999999432
        },
        {
          "name": "A3",
          "midi": 57,
          "time": 112.20000000000009,
          "velocity": 0.937007874015748,
          "duration": 0.07083333333333997
        },
        {
          "name": "D3",
          "midi": 50,
          "time": 112.40000000000009,
          "velocity": 0.8818897637795275,
          "duration": 0.20000000000000284
        },
        {
          "name": "A3",
          "midi": 57,
          "time": 113.40000000000009,
          "velocity": 0.6692913385826772,
          "duration": 0.1041666666666714
        },
        {
          "name": "D4",
          "midi": 62,
          "time": 113.6000000000001,
          "velocity": 0.7795275590551181,
          "duration": 0.15833333333333144
        },
        {
          "name": "A3",
          "midi": 57,
          "time": 114.20000000000009,
          "velocity": 0.7795275590551181,
          "duration": 0.11249999999999716
        },
        {
          "name": "D4",
          "midi": 62,
          "time": 114.40000000000009,
          "velocity": 0.7952755905511811,
          "duration": 0.3583333333333343
        },
        {
          "name": "A3",
          "midi": 57,
          "time": 114.8000000000001,
          "velocity": 0.8661417322834646,
          "duration": 0.22499999999999432
        },
        {
          "name": "F#3",
          "midi": 54,
          "time": 115.20000000000009,
          "velocity": 0.7795275590551181,
          "duration": 0.09166666666666856
        },
        {
          "name": "C#3",
          "midi": 49,
          "time": 115.40000000000009,
          "velocity": 0.8818897637795275,
          "duration": 0.11666666666666003
        },
        {
          "name": "F#2",
          "midi": 42,
          "time": 115.60000000000008,
          "velocity": 0.7165354330708661,
          "duration": 0.21666666666666856
        },
        {
          "name": "F#3",
          "midi": 54,
          "time": 116.80000000000008,
          "velocity": 0.7165354330708661,
          "duration": 0.09166666666666856
        },
        {
          "name": "E3",
          "midi": 52,
          "time": 117.00000000000009,
          "velocity": 0.9212598425196851,
          "duration": 0.5583333333333371
        },
        {
          "name": "D3",
          "midi": 50,
          "time": 117.6000000000001,
          "velocity": 0.905511811023622,
          "duration": 0.1041666666666714
        },
        {
          "name": "C#3",
          "midi": 49,
          "time": 117.8000000000001,
          "velocity": 0.6692913385826772,
          "duration": 0.3791666666666629
        },
        {
          "name": "B2",
          "midi": 47,
          "time": 118.40000000000009,
          "velocity": 0.8661417322834646,
          "duration": 0.8125
        },
        {
          "name": "C#3",
          "midi": 49,
          "time": 119.20000000000009,
          "velocity": 0.8267716535433071,
          "duration": 0.7833333333333314
        },
        {
          "name": "D3",
          "midi": 50,
          "time": 120.00000000000009,
          "velocity": 0.937007874015748,
          "duration": 0.7708333333333286
        },
        {
          "name": "E3",
          "midi": 52,
          "time": 120.80000000000008,
          "velocity": 0.9212598425196851,
          "duration": 0.3708333333333371
        },
        {
          "name": "F#3",
          "midi": 54,
          "time": 121.20000000000009,
          "velocity": 0.8110236220472441,
          "duration": 0.23333333333333428
        },
        {
          "name": "G3",
          "midi": 55,
          "time": 121.6000000000001,
          "velocity": 0.7007874015748031,
          "duration": 0.125
        },
        {
          "name": "D3",
          "midi": 50,
          "time": 121.8000000000001,
          "velocity": 0.8661417322834646,
          "duration": 0.11666666666666003
        },
        {
          "name": "G2",
          "midi": 43,
          "time": 122.00000000000009,
          "velocity": 0.8818897637795275,
          "duration": 0.125
        },
        {
          "name": "D3",
          "midi": 50,
          "time": 123.00000000000009,
          "velocity": 0.8188976377952756,
          "duration": 0.1041666666666714
        },
        {
          "name": "G3",
          "midi": 55,
          "time": 123.20000000000009,
          "velocity": 0.8267716535433071,
          "duration": 0.1666666666666714
        },
        {
          "name": "G3",
          "midi": 55,
          "time": 124.0000000000001,
          "velocity": 0.9212598425196851,
          "duration": 0.09999999999999432
        },
        {
          "name": "D3",
          "midi": 50,
          "time": 124.20000000000009,
          "velocity": 0.905511811023622,
          "duration": 0.1041666666666714
        },
        {
          "name": "G2",
          "midi": 43,
          "time": 124.40000000000009,
          "velocity": 0.8661417322834646,
          "duration": 0.21250000000000568
        },
        {
          "name": "D4",
          "midi": 62,
          "time": 124.8000000000001,
          "velocity": 0.8818897637795275,
          "duration": 0.09999999999999432
        },
        {
          "name": "A3",
          "midi": 57,
          "time": 125.00000000000009,
          "velocity": 0.937007874015748,
          "duration": 0.07083333333333997
        },
        {
          "name": "D3",
          "midi": 50,
          "time": 125.20000000000009,
          "velocity": 0.8818897637795275,
          "duration": 0.20000000000000284
        },
        {
          "name": "A3",
          "midi": 57,
          "time": 126.20000000000009,
          "velocity": 0.7322834645669292,
          "duration": 0.11666666666666003
        },
        {
          "name": "D4",
          "midi": 62,
          "time": 126.40000000000008,
          "velocity": 0.8818897637795275,
          "duration": 0.17083333333333428
        },
        {
          "name": "A3",
          "midi": 57,
          "time": 127.00000000000007,
          "velocity": 0.7716535433070866,
          "duration": 0.11666666666666003
        },
        {
          "name": "D4",
          "midi": 62,
          "time": 127.20000000000006,
          "velocity": 0.9212598425196851,
          "duration": 0.34583333333333144
        },
        {
          "name": "A3",
          "midi": 57,
          "time": 127.60000000000005,
          "velocity": 0.8818897637795275,
          "duration": 0.17083333333333428
        },
        {
          "name": "E3",
          "midi": 52,
          "time": 128.00000000000006,
          "velocity": 0.8267716535433071,
          "duration": 0.125
        },
        {
          "name": "B2",
          "midi": 47,
          "time": 128.20000000000005,
          "velocity": 0.8818897637795275,
          "duration": 0.10416666666665719
        },
        {
          "name": "E2",
          "midi": 40,
          "time": 128.40000000000003,
          "velocity": 0.8267716535433071,
          "duration": 0.1666666666666572
        },
        {
          "name": "B2",
          "midi": 47,
          "time": 129.40000000000003,
          "velocity": 0.7401574803149606,
          "duration": 0.10416666666665719
        },
        {
          "name": "E3",
          "midi": 52,
          "time": 129.60000000000002,
          "velocity": 0.905511811023622,
          "duration": 0.1458333333333428
        },
        {
          "name": "B2",
          "midi": 47,
          "time": 130.20000000000005,
          "velocity": 0.8267716535433071,
          "duration": 0.10416666666665719
        },
        {
          "name": "E3",
          "midi": 52,
          "time": 130.40000000000003,
          "velocity": 0.905511811023622,
          "duration": 0.3166666666666629
        },
        {
          "name": "B2",
          "midi": 47,
          "time": 130.80000000000004,
          "velocity": 0.9212598425196851,
          "duration": 0.125
        },
        {
          "name": "F#2",
          "midi": 42,
          "time": 131.20000000000005,
          "velocity": 0.984251968503937,
          "duration": 0.19166666666666288
        },
        {
          "name": "C#2",
          "midi": 37,
          "time": 131.40000000000003,
          "velocity": 0.984251968503937,
          "duration": 0.19166666666666288
        },
        {
          "name": "F#2",
          "midi": 42,
          "time": 131.60000000000002,
          "velocity": 0.984251968503937,
          "duration": 0.19166666666666288
        },
        {
          "name": "C#2",
          "midi": 37,
          "time": 132.60000000000002,
          "velocity": 0.984251968503937,
          "duration": 0.19166666666666288
        },
        {
          "name": "F#2",
          "midi": 42,
          "time": 132.8,
          "velocity": 0.9921259842519685,
          "duration": 0.19166666666666288
        },
        {
          "name": "C#2",
          "midi": 37,
          "time": 133.4,
          "velocity": 0.9921259842519685,
          "duration": 0.19166666666666288
        },
        {
          "name": "F#2",
          "midi": 42,
          "time": 133.6,
          "velocity": 0.9921259842519685,
          "duration": 0.19166666666666288
        },
        {
          "name": "B2",
          "midi": 47,
          "time": 134.39999999999998,
          "velocity": 1,
          "duration": 0.19166666666666288
        },
        {
          "name": "B2",
          "midi": 47,
          "time": 134.59999999999997,
          "velocity": 1,
          "duration": 0.19166666666666288
        },
        {
          "name": "F#3",
          "midi": 54,
          "time": 134.79999999999995,
          "velocity": 1,
          "duration": 0.19166666666666288
        },
        {
          "name": "B3",
          "midi": 59,
          "time": 134.99999999999994,
          "velocity": 1,
          "duration": 0.19166666666666288
        },
        {
          "name": "F#3",
          "midi": 54,
          "time": 135.79999999999993,
          "velocity": 1,
          "duration": 0.19166666666666288
        },
        {
          "name": "B3",
          "midi": 59,
          "time": 135.99999999999991,
          "velocity": 1,
          "duration": 0.09999999999999432
        },
        {
          "name": "B3",
          "midi": 59,
          "time": 136.1999999999999,
          "velocity": 1,
          "duration": 0.09999999999999432
        },
        {
          "name": "F#3",
          "midi": 54,
          "time": 136.3999999999999,
          "velocity": 1,
          "duration": 1.1999999999999886
        },
        {
          "name": "F#2",
          "midi": 42,
          "time": 137.59999999999988,
          "velocity": 1,
          "duration": 0.125
        },
        {
          "name": "F#2",
          "midi": 42,
          "time": 137.79999999999987,
          "velocity": 1,
          "duration": 0.15833333333333144
        },
        {
          "name": "C#3",
          "midi": 49,
          "time": 137.99999999999986,
          "velocity": 1,
          "duration": 0.15833333333333144
        },
        {
          "name": "F#3",
          "midi": 54,
          "time": 138.19999999999985,
          "velocity": 1,
          "duration": 0.15000000000000568
        },
        {
          "name": "C#3",
          "midi": 49,
          "time": 138.99999999999986,
          "velocity": 1,
          "duration": 0.13333333333332575
        },
        {
          "name": "F#3",
          "midi": 54,
          "time": 139.19999999999985,
          "velocity": 1,
          "duration": 0.11666666666667425
        },
        {
          "name": "C#3",
          "midi": 49,
          "time": 139.39999999999986,
          "velocity": 1,
          "duration": 0.1458333333333428
        },
        {
          "name": "F#2",
          "midi": 42,
          "time": 139.59999999999988,
          "velocity": 1,
          "duration": 1.0583333333333371
        },
        {
          "name": "A2",
          "midi": 45,
          "time": 140.7999999999999,
          "velocity": 1,
          "duration": 0.13333333333332575
        },
        {
          "name": "A2",
          "midi": 45,
          "time": 140.9999999999999,
          "velocity": 1,
          "duration": 0.13333333333332575
        },
        {
          "name": "E3",
          "midi": 52,
          "time": 141.19999999999987,
          "velocity": 1,
          "duration": 0.15833333333333144
        },
        {
          "name": "A3",
          "midi": 57,
          "time": 141.39999999999986,
          "velocity": 1,
          "duration": 0.21666666666666856
        },
        {
          "name": "E3",
          "midi": 52,
          "time": 142.19999999999987,
          "velocity": 1,
          "duration": 0.17083333333332007
        },
        {
          "name": "A3",
          "midi": 57,
          "time": 142.39999999999986,
          "velocity": 1,
          "duration": 0.08333333333334281
        },
        {
          "name": "A3",
          "midi": 57,
          "time": 142.59999999999988,
          "velocity": 1,
          "duration": 0.07916666666667993
        },
        {
          "name": "E3",
          "midi": 52,
          "time": 142.7999999999999,
          "velocity": 1,
          "duration": 1.0041666666666629
        },
        {
          "name": "E2",
          "midi": 40,
          "time": 143.9999999999999,
          "velocity": 1,
          "duration": 0.11666666666667425
        },
        {
          "name": "E2",
          "midi": 40,
          "time": 144.1999999999999,
          "velocity": 1,
          "duration": 0.13749999999998863
        },
        {
          "name": "B2",
          "midi": 47,
          "time": 144.3999999999999,
          "velocity": 1,
          "duration": 0.13749999999998863
        },
        {
          "name": "E3",
          "midi": 52,
          "time": 144.59999999999988,
          "velocity": 1,
          "duration": 0.13333333333332575
        },
        {
          "name": "B2",
          "midi": 47,
          "time": 145.39999999999986,
          "velocity": 1,
          "duration": 0.13333333333332575
        },
        {
          "name": "E3",
          "midi": 52,
          "time": 145.59999999999985,
          "velocity": 1,
          "duration": 0.09166666666666856
        },
        {
          "name": "B2",
          "midi": 47,
          "time": 145.79999999999984,
          "velocity": 1,
          "duration": 0.07916666666667993
        },
        {
          "name": "E2",
          "midi": 40,
          "time": 145.99999999999986,
          "velocity": 1,
          "duration": 0.9333333333333371
        },
        {
          "name": "G2",
          "midi": 43,
          "time": 147.19999999999987,
          "velocity": 1,
          "duration": 0.09999999999999432
        },
        {
          "name": "G2",
          "midi": 43,
          "time": 147.39999999999986,
          "velocity": 1,
          "duration": 0.11250000000001137
        },
        {
          "name": "D3",
          "midi": 50,
          "time": 147.59999999999988,
          "velocity": 1,
          "duration": 0.1458333333333428
        },
        {
          "name": "G3",
          "midi": 55,
          "time": 147.7999999999999,
          "velocity": 1,
          "duration": 0.17083333333332007
        },
        {
          "name": "D3",
          "midi": 50,
          "time": 148.59999999999988,
          "velocity": 1,
          "duration": 0.10416666666665719
        },
        {
          "name": "G3",
          "midi": 55,
          "time": 148.79999999999987,
          "velocity": 1,
          "duration": 0.08333333333334281
        },
        {
          "name": "G3",
          "midi": 55,
          "time": 148.9999999999999,
          "velocity": 1,
          "duration": 0.07916666666667993
        },
        {
          "name": "D3",
          "midi": 50,
          "time": 149.1999999999999,
          "velocity": 1,
          "duration": 0.6999999999999886
        },
        {
          "name": "D3",
          "midi": 50,
          "time": 150.3999999999999,
          "velocity": 1,
          "duration": 0.11250000000001137
        },
        {
          "name": "D3",
          "midi": 50,
          "time": 150.5999999999999,
          "velocity": 1,
          "duration": 0.13749999999998863
        },
        {
          "name": "A3",
          "midi": 57,
          "time": 150.7999999999999,
          "velocity": 1,
          "duration": 0.15000000000000568
        },
        {
          "name": "D4",
          "midi": 62,
          "time": 150.99999999999991,
          "velocity": 1,
          "duration": 0.15000000000000568
        },
        {
          "name": "A3",
          "midi": 57,
          "time": 151.79999999999993,
          "velocity": 1,
          "duration": 0.11250000000001137
        },
        {
          "name": "D4",
          "midi": 62,
          "time": 151.99999999999994,
          "velocity": 1,
          "duration": 0.07916666666667993
        },
        {
          "name": "A3",
          "midi": 57,
          "time": 152.19999999999996,
          "velocity": 1,
          "duration": 0.07916666666667993
        },
        {
          "name": "D3",
          "midi": 50,
          "time": 152.39999999999998,
          "velocity": 1,
          "duration": 0.9124999999999943
        },
        {
          "name": "E2",
          "midi": 40,
          "time": 153.59999999999997,
          "velocity": 1,
          "duration": 0.11666666666667425
        },
        {
          "name": "E2",
          "midi": 40,
          "time": 153.79999999999998,
          "velocity": 1,
          "duration": 0.11250000000001137
        },
        {
          "name": "B2",
          "midi": 47,
          "time": 154,
          "velocity": 1,
          "duration": 0.13749999999998863
        },
        {
          "name": "E3",
          "midi": 52,
          "time": 154.2,
          "velocity": 1,
          "duration": 0.13333333333332575
        },
        {
          "name": "B2",
          "midi": 47,
          "time": 154.99999999999997,
          "velocity": 1,
          "duration": 0.10416666666665719
        },
        {
          "name": "E3",
          "midi": 52,
          "time": 155.19999999999996,
          "velocity": 1,
          "duration": 0.10416666666665719
        },
        {
          "name": "E3",
          "midi": 52,
          "time": 155.39999999999995,
          "velocity": 1,
          "duration": 0.09166666666666856
        },
        {
          "name": "B2",
          "midi": 47,
          "time": 155.59999999999994,
          "velocity": 1,
          "duration": 0.7375000000000114
        },
        {
          "name": "F#2",
          "midi": 42,
          "time": 156.79999999999995,
          "velocity": 1,
          "duration": 0.09166666666666856
        },
        {
          "name": "F#2",
          "midi": 42,
          "time": 156.99999999999994,
          "velocity": 1,
          "duration": 0.08333333333334281
        },
        {
          "name": "C#3",
          "midi": 49,
          "time": 157.19999999999996,
          "velocity": 1,
          "duration": 0.125
        },
        {
          "name": "F#3",
          "midi": 54,
          "time": 157.39999999999995,
          "velocity": 1,
          "duration": 0.13749999999998863
        },
        {
          "name": "C#3",
          "midi": 49,
          "time": 158.19999999999993,
          "velocity": 1,
          "duration": 0.10416666666665719
        },
        {
          "name": "F#3",
          "midi": 54,
          "time": 158.39999999999992,
          "velocity": 1,
          "duration": 0.15000000000000568
        },
        {
          "name": "C#3",
          "midi": 49,
          "time": 158.99999999999991,
          "velocity": 1,
          "duration": 0.09999999999999432
        },
        {
          "name": "F#3",
          "midi": 54,
          "time": 159.1999999999999,
          "velocity": 1,
          "duration": 0.19166666666666288
        },
        {
          "name": "B2",
          "midi": 47,
          "time": 159.9999999999999,
          "velocity": 1,
          "duration": 0.19166666666666288
        },
        {
          "name": "B2",
          "midi": 47,
          "time": 160.19999999999987,
          "velocity": 1,
          "duration": 0.19166666666666288
        },
        {
          "name": "F#3",
          "midi": 54,
          "time": 160.39999999999986,
          "velocity": 1,
          "duration": 0.19166666666666288
        },
        {
          "name": "B3",
          "midi": 59,
          "time": 160.59999999999985,
          "velocity": 1,
          "duration": 0.19166666666666288
        },
        {
          "name": "F#3",
          "midi": 54,
          "time": 161.39999999999984,
          "velocity": 1,
          "duration": 0.19166666666666288
        },
        {
          "name": "B3",
          "midi": 59,
          "time": 161.59999999999982,
          "velocity": 1,
          "duration": 0.09999999999999432
        },
        {
          "name": "B3",
          "midi": 59,
          "time": 161.7999999999998,
          "velocity": 1,
          "duration": 0.09999999999999432
        },
        {
          "name": "F#3",
          "midi": 54,
          "time": 161.9999999999998,
          "velocity": 1,
          "duration": 1.1999999999999886
        },
        {
          "name": "F#2",
          "midi": 42,
          "time": 163.1999999999998,
          "velocity": 1,
          "duration": 0.125
        },
        {
          "name": "F#2",
          "midi": 42,
          "time": 163.39999999999978,
          "velocity": 1,
          "duration": 0.15833333333333144
        },
        {
          "name": "C#3",
          "midi": 49,
          "time": 163.59999999999977,
          "velocity": 1,
          "duration": 0.15833333333333144
        },
        {
          "name": "F#3",
          "midi": 54,
          "time": 163.79999999999976,
          "velocity": 1,
          "duration": 0.15000000000000568
        },
        {
          "name": "C#3",
          "midi": 49,
          "time": 164.59999999999977,
          "velocity": 1,
          "duration": 0.13333333333332575
        },
        {
          "name": "F#3",
          "midi": 54,
          "time": 164.79999999999976,
          "velocity": 1,
          "duration": 0.11666666666667425
        },
        {
          "name": "C#3",
          "midi": 49,
          "time": 164.99999999999977,
          "velocity": 1,
          "duration": 0.1458333333333428
        },
        {
          "name": "F#2",
          "midi": 42,
          "time": 165.1999999999998,
          "velocity": 1,
          "duration": 1.0583333333333371
        },
        {
          "name": "A2",
          "midi": 45,
          "time": 166.3999999999998,
          "velocity": 1,
          "duration": 0.13333333333332575
        },
        {
          "name": "A2",
          "midi": 45,
          "time": 166.5999999999998,
          "velocity": 1,
          "duration": 0.13333333333332575
        },
        {
          "name": "E3",
          "midi": 52,
          "time": 166.79999999999978,
          "velocity": 1,
          "duration": 0.15833333333333144
        },
        {
          "name": "A3",
          "midi": 57,
          "time": 166.99999999999977,
          "velocity": 1,
          "duration": 0.21666666666666856
        },
        {
          "name": "E3",
          "midi": 52,
          "time": 167.79999999999978,
          "velocity": 1,
          "duration": 0.17083333333332007
        },
        {
          "name": "A3",
          "midi": 57,
          "time": 167.99999999999977,
          "velocity": 1,
          "duration": 0.08333333333334281
        },
        {
          "name": "A3",
          "midi": 57,
          "time": 168.1999999999998,
          "velocity": 1,
          "duration": 0.07916666666667993
        },
        {
          "name": "E3",
          "midi": 52,
          "time": 168.3999999999998,
          "velocity": 1,
          "duration": 1.0041666666666629
        },
        {
          "name": "E2",
          "midi": 40,
          "time": 169.5999999999998,
          "velocity": 1,
          "duration": 0.11666666666667425
        },
        {
          "name": "E2",
          "midi": 40,
          "time": 169.7999999999998,
          "velocity": 1,
          "duration": 0.13749999999998863
        },
        {
          "name": "B2",
          "midi": 47,
          "time": 169.9999999999998,
          "velocity": 1,
          "duration": 0.13749999999998863
        },
        {
          "name": "E3",
          "midi": 52,
          "time": 170.1999999999998,
          "velocity": 1,
          "duration": 0.13333333333332575
        },
        {
          "name": "B2",
          "midi": 47,
          "time": 170.99999999999977,
          "velocity": 1,
          "duration": 0.13333333333332575
        },
        {
          "name": "E3",
          "midi": 52,
          "time": 171.19999999999976,
          "velocity": 1,
          "duration": 0.09166666666666856
        },
        {
          "name": "B2",
          "midi": 47,
          "time": 171.39999999999975,
          "velocity": 1,
          "duration": 0.07916666666667993
        },
        {
          "name": "E2",
          "midi": 40,
          "time": 171.59999999999977,
          "velocity": 1,
          "duration": 0.9333333333333371
        },
        {
          "name": "G2",
          "midi": 43,
          "time": 172.79999999999978,
          "velocity": 1,
          "duration": 0.09999999999999432
        },
        {
          "name": "G2",
          "midi": 43,
          "time": 172.99999999999977,
          "velocity": 1,
          "duration": 0.11250000000001137
        },
        {
          "name": "D3",
          "midi": 50,
          "time": 173.1999999999998,
          "velocity": 1,
          "duration": 0.1458333333333428
        },
        {
          "name": "G3",
          "midi": 55,
          "time": 173.3999999999998,
          "velocity": 1,
          "duration": 0.17083333333332007
        },
        {
          "name": "D3",
          "midi": 50,
          "time": 174.1999999999998,
          "velocity": 1,
          "duration": 0.10416666666665719
        },
        {
          "name": "G3",
          "midi": 55,
          "time": 174.39999999999978,
          "velocity": 1,
          "duration": 0.08333333333334281
        },
        {
          "name": "G3",
          "midi": 55,
          "time": 174.5999999999998,
          "velocity": 1,
          "duration": 0.07916666666667993
        },
        {
          "name": "D3",
          "midi": 50,
          "time": 174.7999999999998,
          "velocity": 1,
          "duration": 0.6999999999999886
        },
        {
          "name": "D3",
          "midi": 50,
          "time": 175.9999999999998,
          "velocity": 1,
          "duration": 0.11250000000001137
        },
        {
          "name": "D3",
          "midi": 50,
          "time": 176.19999999999982,
          "velocity": 1,
          "duration": 0.13749999999998863
        },
        {
          "name": "A3",
          "midi": 57,
          "time": 176.3999999999998,
          "velocity": 1,
          "duration": 0.15000000000000568
        },
        {
          "name": "D4",
          "midi": 62,
          "time": 176.59999999999982,
          "velocity": 1,
          "duration": 0.15000000000000568
        },
        {
          "name": "A3",
          "midi": 57,
          "time": 177.39999999999984,
          "velocity": 1,
          "duration": 0.11250000000001137
        },
        {
          "name": "D4",
          "midi": 62,
          "time": 177.59999999999985,
          "velocity": 1,
          "duration": 0.07916666666667993
        },
        {
          "name": "A3",
          "midi": 57,
          "time": 177.79999999999987,
          "velocity": 1,
          "duration": 0.07916666666667993
        },
        {
          "name": "D3",
          "midi": 50,
          "time": 177.9999999999999,
          "velocity": 1,
          "duration": 0.9124999999999943
        },
        {
          "name": "E2",
          "midi": 40,
          "time": 179.19999999999987,
          "velocity": 1,
          "duration": 0.11666666666667425
        },
        {
          "name": "E2",
          "midi": 40,
          "time": 179.3999999999999,
          "velocity": 1,
          "duration": 0.11250000000001137
        },
        {
          "name": "B2",
          "midi": 47,
          "time": 179.5999999999999,
          "velocity": 1,
          "duration": 0.13749999999998863
        },
        {
          "name": "E3",
          "midi": 52,
          "time": 179.7999999999999,
          "velocity": 1,
          "duration": 0.13333333333332575
        },
        {
          "name": "B2",
          "midi": 47,
          "time": 180.59999999999988,
          "velocity": 1,
          "duration": 0.10416666666665719
        },
        {
          "name": "E3",
          "midi": 52,
          "time": 180.79999999999987,
          "velocity": 1,
          "duration": 0.10416666666665719
        },
        {
          "name": "E3",
          "midi": 52,
          "time": 180.99999999999986,
          "velocity": 1,
          "duration": 0.09166666666666856
        },
        {
          "name": "B2",
          "midi": 47,
          "time": 181.19999999999985,
          "velocity": 1,
          "duration": 0.7375000000000114
        },
        {
          "name": "F#2",
          "midi": 42,
          "time": 182.39999999999986,
          "velocity": 1,
          "duration": 0.09166666666666856
        },
        {
          "name": "F#2",
          "midi": 42,
          "time": 182.59999999999985,
          "velocity": 1,
          "duration": 0.08333333333334281
        },
        {
          "name": "C#3",
          "midi": 49,
          "time": 182.79999999999987,
          "velocity": 1,
          "duration": 0.125
        },
        {
          "name": "F#3",
          "midi": 54,
          "time": 182.99999999999986,
          "velocity": 1,
          "duration": 0.13749999999998863
        },
        {
          "name": "C#3",
          "midi": 49,
          "time": 183.79999999999984,
          "velocity": 1,
          "duration": 0.10416666666665719
        },
        {
          "name": "F#3",
          "midi": 54,
          "time": 183.99999999999983,
          "velocity": 1,
          "duration": 0.15000000000000568
        },
        {
          "name": "B2",
          "midi": 47,
          "time": 184.79999999999984,
          "velocity": 0.8818897637795275,
          "duration": 0.13749999999998863
        },
        {
          "name": "C#3",
          "midi": 49,
          "time": 184.99999999999983,
          "velocity": 0.8818897637795275,
          "duration": 0.13333333333332575
        },
        {
          "name": "D3",
          "midi": 50,
          "time": 185.19999999999982,
          "velocity": 0.8661417322834646,
          "duration": 0.125
        },
        {
          "name": "F#3",
          "midi": 54,
          "time": 185.3999999999998,
          "velocity": 0.84251968503937,
          "duration": 0.13333333333332575
        },
        {
          "name": "G3",
          "midi": 55,
          "time": 185.5999999999998,
          "velocity": 0.7007874015748031,
          "duration": 0.125
        },
        {
          "name": "D3",
          "midi": 50,
          "time": 185.79999999999978,
          "velocity": 0.8661417322834646,
          "duration": 0.11666666666667425
        },
        {
          "name": "G2",
          "midi": 43,
          "time": 185.9999999999998,
          "velocity": 0.8818897637795275,
          "duration": 0.125
        },
        {
          "name": "D3",
          "midi": 50,
          "time": 186.9999999999998,
          "velocity": 0.8188976377952756,
          "duration": 0.10416666666665719
        },
        {
          "name": "G3",
          "midi": 55,
          "time": 187.1999999999998,
          "velocity": 0.8267716535433071,
          "duration": 0.1666666666666572
        },
        {
          "name": "G3",
          "midi": 55,
          "time": 187.99999999999977,
          "velocity": 0.9212598425196851,
          "duration": 0.09999999999999432
        },
        {
          "name": "D3",
          "midi": 50,
          "time": 188.19999999999976,
          "velocity": 0.905511811023622,
          "duration": 0.10416666666665719
        },
        {
          "name": "G2",
          "midi": 43,
          "time": 188.39999999999975,
          "velocity": 0.8661417322834646,
          "duration": 0.21250000000000568
        },
        {
          "name": "D4",
          "midi": 62,
          "time": 188.79999999999976,
          "velocity": 0.8818897637795275,
          "duration": 0.09999999999999432
        },
        {
          "name": "A3",
          "midi": 57,
          "time": 188.99999999999974,
          "velocity": 0.937007874015748,
          "duration": 0.07083333333332575
        },
        {
          "name": "D3",
          "midi": 50,
          "time": 189.19999999999973,
          "velocity": 0.8818897637795275,
          "duration": 0.19999999999998863
        },
        {
          "name": "A3",
          "midi": 57,
          "time": 190.19999999999973,
          "velocity": 0.6692913385826772,
          "duration": 0.10416666666665719
        },
        {
          "name": "D4",
          "midi": 62,
          "time": 190.39999999999972,
          "velocity": 0.7795275590551181,
          "duration": 0.15833333333333144
        },
        {
          "name": "A3",
          "midi": 57,
          "time": 190.99999999999972,
          "velocity": 0.7795275590551181,
          "duration": 0.11250000000001137
        },
        {
          "name": "D4",
          "midi": 62,
          "time": 191.19999999999973,
          "velocity": 0.7952755905511811,
          "duration": 0.35833333333332007
        },
        {
          "name": "A3",
          "midi": 57,
          "time": 191.5999999999997,
          "velocity": 0.8661417322834646,
          "duration": 0.22499999999999432
        },
        {
          "name": "F#3",
          "midi": 54,
          "time": 191.99999999999972,
          "velocity": 0.7795275590551181,
          "duration": 0.09166666666666856
        },
        {
          "name": "C#3",
          "midi": 49,
          "time": 192.1999999999997,
          "velocity": 0.8818897637795275,
          "duration": 0.11666666666667425
        },
        {
          "name": "F#2",
          "midi": 42,
          "time": 192.39999999999972,
          "velocity": 0.7165354330708661,
          "duration": 0.21666666666666856
        },
        {
          "name": "F#3",
          "midi": 54,
          "time": 193.5999999999997,
          "velocity": 0.7165354330708661,
          "duration": 0.09166666666666856
        },
        {
          "name": "E3",
          "midi": 52,
          "time": 193.7999999999997,
          "velocity": 0.9212598425196851,
          "duration": 0.5583333333333371
        },
        {
          "name": "D3",
          "midi": 50,
          "time": 194.3999999999997,
          "velocity": 0.905511811023622,
          "duration": 0.10416666666665719
        },
        {
          "name": "C#3",
          "midi": 49,
          "time": 194.59999999999968,
          "velocity": 0.6692913385826772,
          "duration": 0.3791666666666629
        },
        {
          "name": "B2",
          "midi": 47,
          "time": 195.19999999999968,
          "velocity": 0.8661417322834646,
          "duration": 0.8125
        },
        {
          "name": "C#3",
          "midi": 49,
          "time": 195.9999999999997,
          "velocity": 0.8267716535433071,
          "duration": 0.7833333333333314
        },
        {
          "name": "D3",
          "midi": 50,
          "time": 196.7999999999997,
          "velocity": 0.937007874015748,
          "duration": 0.7708333333333428
        },
        {
          "name": "E3",
          "midi": 52,
          "time": 197.5999999999997,
          "velocity": 0.9212598425196851,
          "duration": 0.3708333333333371
        },
        {
          "name": "F#3",
          "midi": 54,
          "time": 197.99999999999972,
          "velocity": 0.8110236220472441,
          "duration": 0.23333333333332007
        },
        {
          "name": "G3",
          "midi": 55,
          "time": 198.3999999999997,
          "velocity": 0.7007874015748031,
          "duration": 0.125
        },
        {
          "name": "D3",
          "midi": 50,
          "time": 198.59999999999968,
          "velocity": 0.8661417322834646,
          "duration": 0.11666666666667425
        },
        {
          "name": "G2",
          "midi": 43,
          "time": 198.7999999999997,
          "velocity": 0.8818897637795275,
          "duration": 0.125
        },
        {
          "name": "D3",
          "midi": 50,
          "time": 199.7999999999997,
          "velocity": 0.8188976377952756,
          "duration": 0.10416666666665719
        },
        {
          "name": "G3",
          "midi": 55,
          "time": 199.9999999999997,
          "velocity": 0.8267716535433071,
          "duration": 0.1666666666666572
        },
        {
          "name": "G3",
          "midi": 55,
          "time": 200.79999999999967,
          "velocity": 0.9212598425196851,
          "duration": 0.09999999999999432
        },
        {
          "name": "D3",
          "midi": 50,
          "time": 200.99999999999966,
          "velocity": 0.905511811023622,
          "duration": 0.10416666666665719
        },
        {
          "name": "G2",
          "midi": 43,
          "time": 201.19999999999965,
          "velocity": 0.8661417322834646,
          "duration": 0.21250000000000568
        },
        {
          "name": "D4",
          "midi": 62,
          "time": 201.59999999999965,
          "velocity": 0.8818897637795275,
          "duration": 0.09999999999999432
        },
        {
          "name": "A3",
          "midi": 57,
          "time": 201.79999999999964,
          "velocity": 0.937007874015748,
          "duration": 0.07083333333332575
        },
        {
          "name": "D3",
          "midi": 50,
          "time": 201.99999999999963,
          "velocity": 0.8818897637795275,
          "duration": 0.19999999999998863
        },
        {
          "name": "A3",
          "midi": 57,
          "time": 202.99999999999963,
          "velocity": 0.7322834645669292,
          "duration": 0.11666666666667425
        },
        {
          "name": "D4",
          "midi": 62,
          "time": 203.19999999999965,
          "velocity": 0.8818897637795275,
          "duration": 0.17083333333332007
        },
        {
          "name": "A3",
          "midi": 57,
          "time": 203.79999999999964,
          "velocity": 0.7716535433070866,
          "duration": 0.11666666666667425
        },
        {
          "name": "D4",
          "midi": 62,
          "time": 203.99999999999966,
          "velocity": 0.9212598425196851,
          "duration": 0.34583333333333144
        },
        {
          "name": "A3",
          "midi": 57,
          "time": 204.39999999999966,
          "velocity": 0.8818897637795275,
          "duration": 0.17083333333332007
        },
        {
          "name": "E3",
          "midi": 52,
          "time": 204.79999999999964,
          "velocity": 0.8267716535433071,
          "duration": 0.125
        },
        {
          "name": "B2",
          "midi": 47,
          "time": 204.99999999999963,
          "velocity": 0.8818897637795275,
          "duration": 0.10416666666665719
        },
        {
          "name": "E2",
          "midi": 40,
          "time": 205.19999999999962,
          "velocity": 0.8267716535433071,
          "duration": 0.1666666666666572
        },
        {
          "name": "B2",
          "midi": 47,
          "time": 206.19999999999962,
          "velocity": 0.7401574803149606,
          "duration": 0.10416666666665719
        },
        {
          "name": "E3",
          "midi": 52,
          "time": 206.3999999999996,
          "velocity": 0.905511811023622,
          "duration": 0.1458333333333428
        },
        {
          "name": "B2",
          "midi": 47,
          "time": 206.99999999999963,
          "velocity": 0.8267716535433071,
          "duration": 0.10416666666665719
        },
        {
          "name": "E3",
          "midi": 52,
          "time": 207.19999999999962,
          "velocity": 0.905511811023622,
          "duration": 0.3166666666666629
        },
        {
          "name": "B2",
          "midi": 47,
          "time": 207.59999999999962,
          "velocity": 0.9212598425196851,
          "duration": 0.125
        },
        {
          "name": "F#2",
          "midi": 42,
          "time": 207.99999999999963,
          "velocity": 0.8818897637795275,
          "duration": 2.8000000000000114
        },
        {
          "name": "B2",
          "midi": 47,
          "time": 211.19999999999965,
          "velocity": 1,
          "duration": 3.191666666666663
        },
        {
          "name": "F#2",
          "midi": 42,
          "time": 214.39999999999964,
          "velocity": 1,
          "duration": 3.191666666666663
        },
        {
          "name": "A2",
          "midi": 45,
          "time": 217.59999999999962,
          "velocity": 1,
          "duration": 3.191666666666663
        },
        {
          "name": "E2",
          "midi": 40,
          "time": 220.7999999999996,
          "velocity": 1,
          "duration": 3.191666666666663
        },
        {
          "name": "G2",
          "midi": 43,
          "time": 223.9999999999996,
          "velocity": 1,
          "duration": 3.191666666666663
        },
        {
          "name": "D2",
          "midi": 38,
          "time": 227.1999999999996,
          "velocity": 1,
          "duration": 3.191666666666663
        },
        {
          "name": "E2",
          "midi": 40,
          "time": 230.39999999999958,
          "velocity": 1,
          "duration": 3.191666666666663
        },
        {
          "name": "F#2",
          "midi": 42,
          "time": 233.59999999999957,
          "velocity": 1,
          "duration": 3.191666666666663
        },
        {
          "name": "B2",
          "midi": 47,
          "time": 236.79999999999956,
          "velocity": 1,
          "duration": 0.19166666666666288
        },
        {
          "name": "B2",
          "midi": 47,
          "time": 236.99999999999955,
          "velocity": 1,
          "duration": 0.19166666666666288
        },
        {
          "name": "F#3",
          "midi": 54,
          "time": 237.19999999999953,
          "velocity": 1,
          "duration": 0.19166666666666288
        },
        {
          "name": "B3",
          "midi": 59,
          "time": 237.39999999999952,
          "velocity": 1,
          "duration": 0.19166666666666288
        },
        {
          "name": "F#3",
          "midi": 54,
          "time": 238.1999999999995,
          "velocity": 1,
          "duration": 0.19166666666666288
        },
        {
          "name": "B3",
          "midi": 59,
          "time": 238.3999999999995,
          "velocity": 1,
          "duration": 0.09999999999999432
        },
        {
          "name": "B3",
          "midi": 59,
          "time": 238.59999999999948,
          "velocity": 1,
          "duration": 0.09999999999999432
        },
        {
          "name": "F#3",
          "midi": 54,
          "time": 238.79999999999947,
          "velocity": 1,
          "duration": 1.1999999999999886
        },
        {
          "name": "F#2",
          "midi": 42,
          "time": 239.99999999999946,
          "velocity": 1,
          "duration": 0.125
        },
        {
          "name": "F#2",
          "midi": 42,
          "time": 240.19999999999945,
          "velocity": 1,
          "duration": 0.15833333333333144
        },
        {
          "name": "C#3",
          "midi": 49,
          "time": 240.39999999999944,
          "velocity": 1,
          "duration": 0.15833333333333144
        },
        {
          "name": "F#3",
          "midi": 54,
          "time": 240.59999999999943,
          "velocity": 1,
          "duration": 0.15000000000000568
        },
        {
          "name": "C#3",
          "midi": 49,
          "time": 241.39999999999944,
          "velocity": 1,
          "duration": 0.13333333333332575
        },
        {
          "name": "F#3",
          "midi": 54,
          "time": 241.59999999999943,
          "velocity": 1,
          "duration": 0.11666666666667425
        },
        {
          "name": "C#3",
          "midi": 49,
          "time": 241.79999999999944,
          "velocity": 1,
          "duration": 0.1458333333333428
        },
        {
          "name": "F#2",
          "midi": 42,
          "time": 241.99999999999946,
          "velocity": 1,
          "duration": 1.0583333333333371
        },
        {
          "name": "A2",
          "midi": 45,
          "time": 243.19999999999948,
          "velocity": 1,
          "duration": 0.13333333333332575
        },
        {
          "name": "A2",
          "midi": 45,
          "time": 243.39999999999947,
          "velocity": 1,
          "duration": 0.13333333333332575
        },
        {
          "name": "E3",
          "midi": 52,
          "time": 243.59999999999945,
          "velocity": 1,
          "duration": 0.15833333333333144
        },
        {
          "name": "A3",
          "midi": 57,
          "time": 243.79999999999944,
          "velocity": 1,
          "duration": 0.21666666666666856
        },
        {
          "name": "E3",
          "midi": 52,
          "time": 244.59999999999945,
          "velocity": 1,
          "duration": 0.17083333333332007
        },
        {
          "name": "A3",
          "midi": 57,
          "time": 244.79999999999944,
          "velocity": 1,
          "duration": 0.08333333333334281
        },
        {
          "name": "A3",
          "midi": 57,
          "time": 244.99999999999946,
          "velocity": 1,
          "duration": 0.07916666666667993
        },
        {
          "name": "E3",
          "midi": 52,
          "time": 245.19999999999948,
          "velocity": 1,
          "duration": 1.0041666666666629
        },
        {
          "name": "E2",
          "midi": 40,
          "time": 246.39999999999947,
          "velocity": 1,
          "duration": 0.11666666666667425
        },
        {
          "name": "E2",
          "midi": 40,
          "time": 246.59999999999948,
          "velocity": 1,
          "duration": 0.13749999999998863
        },
        {
          "name": "B2",
          "midi": 47,
          "time": 246.79999999999947,
          "velocity": 1,
          "duration": 0.13749999999998863
        },
        {
          "name": "E3",
          "midi": 52,
          "time": 246.99999999999946,
          "velocity": 1,
          "duration": 0.13333333333332575
        },
        {
          "name": "B2",
          "midi": 47,
          "time": 247.79999999999944,
          "velocity": 1,
          "duration": 0.13333333333332575
        },
        {
          "name": "E3",
          "midi": 52,
          "time": 247.99999999999943,
          "velocity": 1,
          "duration": 0.09166666666666856
        },
        {
          "name": "B2",
          "midi": 47,
          "time": 248.19999999999942,
          "velocity": 1,
          "duration": 0.07916666666667993
        },
        {
          "name": "E2",
          "midi": 40,
          "time": 248.39999999999944,
          "velocity": 1,
          "duration": 0.9333333333333371
        },
        {
          "name": "G2",
          "midi": 43,
          "time": 249.59999999999945,
          "velocity": 1,
          "duration": 0.09999999999999432
        },
        {
          "name": "G2",
          "midi": 43,
          "time": 249.79999999999944,
          "velocity": 1,
          "duration": 0.11250000000001137
        },
        {
          "name": "D3",
          "midi": 50,
          "time": 249.99999999999946,
          "velocity": 1,
          "duration": 0.1458333333333428
        },
        {
          "name": "G3",
          "midi": 55,
          "time": 250.19999999999948,
          "velocity": 1,
          "duration": 0.17083333333332007
        },
        {
          "name": "D3",
          "midi": 50,
          "time": 250.99999999999946,
          "velocity": 1,
          "duration": 0.10416666666665719
        },
        {
          "name": "G3",
          "midi": 55,
          "time": 251.19999999999945,
          "velocity": 1,
          "duration": 0.08333333333334281
        },
        {
          "name": "G3",
          "midi": 55,
          "time": 251.39999999999947,
          "velocity": 1,
          "duration": 0.07916666666667993
        },
        {
          "name": "D3",
          "midi": 50,
          "time": 251.59999999999948,
          "velocity": 1,
          "duration": 0.6999999999999886
        },
        {
          "name": "D3",
          "midi": 50,
          "time": 252.79999999999947,
          "velocity": 1,
          "duration": 0.11250000000001137
        },
        {
          "name": "D3",
          "midi": 50,
          "time": 252.9999999999995,
          "velocity": 1,
          "duration": 0.13749999999998863
        },
        {
          "name": "A3",
          "midi": 57,
          "time": 253.19999999999948,
          "velocity": 1,
          "duration": 0.15000000000000568
        },
        {
          "name": "D4",
          "midi": 62,
          "time": 253.3999999999995,
          "velocity": 1,
          "duration": 0.15000000000000568
        },
        {
          "name": "A3",
          "midi": 57,
          "time": 254.1999999999995,
          "velocity": 1,
          "duration": 0.11250000000001137
        },
        {
          "name": "D4",
          "midi": 62,
          "time": 254.39999999999952,
          "velocity": 1,
          "duration": 0.07916666666667993
        },
        {
          "name": "A3",
          "midi": 57,
          "time": 254.59999999999954,
          "velocity": 1,
          "duration": 0.07916666666667993
        },
        {
          "name": "D3",
          "midi": 50,
          "time": 254.79999999999956,
          "velocity": 1,
          "duration": 0.9124999999999943
        },
        {
          "name": "E2",
          "midi": 40,
          "time": 255.99999999999955,
          "velocity": 1,
          "duration": 0.11666666666667425
        },
        {
          "name": "E2",
          "midi": 40,
          "time": 256.19999999999953,
          "velocity": 1,
          "duration": 0.11250000000001137
        },
        {
          "name": "B2",
          "midi": 47,
          "time": 256.3999999999995,
          "velocity": 1,
          "duration": 0.13749999999998863
        },
        {
          "name": "E3",
          "midi": 52,
          "time": 256.5999999999995,
          "velocity": 1,
          "duration": 0.13333333333332575
        },
        {
          "name": "B2",
          "midi": 47,
          "time": 257.3999999999995,
          "velocity": 1,
          "duration": 0.10416666666668561
        },
        {
          "name": "E3",
          "midi": 52,
          "time": 257.59999999999957,
          "velocity": 1,
          "duration": 0.10416666666668561
        },
        {
          "name": "E3",
          "midi": 52,
          "time": 257.7999999999996,
          "velocity": 1,
          "duration": 0.09166666666664014
        },
        {
          "name": "B2",
          "midi": 47,
          "time": 257.9999999999996,
          "velocity": 1,
          "duration": 0.7375000000000114
        },
        {
          "name": "F#2",
          "midi": 42,
          "time": 259.1999999999996,
          "velocity": 1,
          "duration": 0.09166666666664014
        },
        {
          "name": "F#2",
          "midi": 42,
          "time": 259.3999999999996,
          "velocity": 1,
          "duration": 0.08333333333331439
        },
        {
          "name": "C#3",
          "midi": 49,
          "time": 259.59999999999957,
          "velocity": 1,
          "duration": 0.125
        },
        {
          "name": "F#3",
          "midi": 54,
          "time": 259.79999999999956,
          "velocity": 1,
          "duration": 0.13749999999998863
        },
        {
          "name": "C#3",
          "midi": 49,
          "time": 260.59999999999957,
          "velocity": 0.9921259842519685,
          "duration": 0.19166666666666288
        },
        {
          "name": "F#3",
          "midi": 54,
          "time": 260.79999999999956,
          "velocity": 0.9921259842519685,
          "duration": 0.16666666666668561
        },
        {
          "name": "F3",
          "midi": 53,
          "time": 260.9999999999996,
          "velocity": 0.9921259842519685,
          "duration": 0.1708333333333485
        },
        {
          "name": "F#3",
          "midi": 54,
          "time": 261.1999999999996,
          "velocity": 1,
          "duration": 0.17916666666667425
        },
        {
          "name": "B2",
          "midi": 47,
          "time": 262.40416666666624,
          "velocity": 1,
          "duration": 0.19583333333332575
        },
        {
          "name": "B2",
          "midi": 47,
          "time": 262.60416666666623,
          "velocity": 0.7086614173228346,
          "duration": 0.19583333333332575
        },
        {
          "name": "B2",
          "midi": 47,
          "time": 262.8041666666662,
          "velocity": 0.7086614173228346,
          "duration": 0.19583333333332575
        },
        {
          "name": "B2",
          "midi": 47,
          "time": 263.0041666666662,
          "velocity": 1,
          "duration": 0.19583333333332575
        },
        {
          "name": "B2",
          "midi": 47,
          "time": 263.2041666666662,
          "velocity": 0.7086614173228346,
          "duration": 0.19583333333332575
        },
        {
          "name": "B2",
          "midi": 47,
          "time": 263.4041666666662,
          "velocity": 0.7086614173228346,
          "duration": 0.19583333333332575
        },
        {
          "name": "B2",
          "midi": 47,
          "time": 263.6041666666662,
          "velocity": 1,
          "duration": 0.19583333333332575
        },
        {
          "name": "B2",
          "midi": 47,
          "time": 263.80416666666616,
          "velocity": 0.7086614173228346,
          "duration": 0.19583333333332575
        },
        {
          "name": "B2",
          "midi": 47,
          "time": 264.00416666666615,
          "velocity": 0.7086614173228346,
          "duration": 0.19583333333332575
        },
        {
          "name": "B2",
          "midi": 47,
          "time": 264.20416666666614,
          "velocity": 1,
          "duration": 0.19583333333332575
        },
        {
          "name": "B2",
          "midi": 47,
          "time": 264.40416666666613,
          "velocity": 0.7086614173228346,
          "duration": 0.19583333333332575
        },
        {
          "name": "B2",
          "midi": 47,
          "time": 264.6041666666661,
          "velocity": 0.7086614173228346,
          "duration": 0.19583333333332575
        },
        {
          "name": "B2",
          "midi": 47,
          "time": 264.8041666666661,
          "velocity": 1,
          "duration": 0.39999999999997726
        },
        {
          "name": "B2",
          "midi": 47,
          "time": 265.2041666666661,
          "velocity": 1,
          "duration": 0.19583333333332575
        },
        {
          "name": "F#2",
          "midi": 42,
          "time": 265.60416666666606,
          "velocity": 1,
          "duration": 0.19583333333332575
        },
        {
          "name": "F#2",
          "midi": 42,
          "time": 265.80416666666605,
          "velocity": 0.7086614173228346,
          "duration": 0.19583333333332575
        },
        {
          "name": "F#2",
          "midi": 42,
          "time": 266.00416666666604,
          "velocity": 0.7086614173228346,
          "duration": 0.19583333333332575
        },
        {
          "name": "F#2",
          "midi": 42,
          "time": 266.204166666666,
          "velocity": 1,
          "duration": 0.19583333333332575
        },
        {
          "name": "F#2",
          "midi": 42,
          "time": 266.404166666666,
          "velocity": 0.7086614173228346,
          "duration": 0.19583333333332575
        },
        {
          "name": "F#2",
          "midi": 42,
          "time": 266.604166666666,
          "velocity": 0.7086614173228346,
          "duration": 0.19583333333332575
        },
        {
          "name": "F#2",
          "midi": 42,
          "time": 266.804166666666,
          "velocity": 1,
          "duration": 0.19583333333332575
        },
        {
          "name": "F#2",
          "midi": 42,
          "time": 267.004166666666,
          "velocity": 0.7086614173228346,
          "duration": 0.19583333333332575
        },
        {
          "name": "F#2",
          "midi": 42,
          "time": 267.20416666666597,
          "velocity": 0.7086614173228346,
          "duration": 0.19583333333332575
        },
        {
          "name": "F#2",
          "midi": 42,
          "time": 267.40416666666596,
          "velocity": 1,
          "duration": 0.19583333333332575
        },
        {
          "name": "F#2",
          "midi": 42,
          "time": 267.60416666666595,
          "velocity": 0.7086614173228346,
          "duration": 0.19583333333332575
        },
        {
          "name": "F#2",
          "midi": 42,
          "time": 267.80416666666594,
          "velocity": 0.7086614173228346,
          "duration": 0.19583333333332575
        },
        {
          "name": "F#2",
          "midi": 42,
          "time": 268.0041666666659,
          "velocity": 1,
          "duration": 0.39999999999997726
        },
        {
          "name": "F#2",
          "midi": 42,
          "time": 268.4041666666659,
          "velocity": 1,
          "duration": 0.19583333333332575
        },
        {
          "name": "A2",
          "midi": 45,
          "time": 268.8041666666659,
          "velocity": 1,
          "duration": 0.19583333333332575
        },
        {
          "name": "A2",
          "midi": 45,
          "time": 269.00416666666587,
          "velocity": 0.7086614173228346,
          "duration": 0.19583333333332575
        },
        {
          "name": "A2",
          "midi": 45,
          "time": 269.20416666666586,
          "velocity": 0.7086614173228346,
          "duration": 0.19583333333332575
        },
        {
          "name": "A2",
          "midi": 45,
          "time": 269.40416666666584,
          "velocity": 1,
          "duration": 0.19583333333332575
        },
        {
          "name": "A2",
          "midi": 45,
          "time": 269.60416666666583,
          "velocity": 0.7086614173228346,
          "duration": 0.19583333333332575
        },
        {
          "name": "A2",
          "midi": 45,
          "time": 269.8041666666658,
          "velocity": 0.7086614173228346,
          "duration": 0.19583333333332575
        },
        {
          "name": "A2",
          "midi": 45,
          "time": 270.0041666666658,
          "velocity": 1,
          "duration": 0.19583333333332575
        },
        {
          "name": "A2",
          "midi": 45,
          "time": 270.2041666666658,
          "velocity": 0.7086614173228346,
          "duration": 0.19583333333332575
        },
        {
          "name": "A2",
          "midi": 45,
          "time": 270.4041666666658,
          "velocity": 0.7086614173228346,
          "duration": 0.19583333333332575
        },
        {
          "name": "A2",
          "midi": 45,
          "time": 270.6041666666658,
          "velocity": 1,
          "duration": 0.19583333333332575
        },
        {
          "name": "A2",
          "midi": 45,
          "time": 270.80416666666576,
          "velocity": 0.7086614173228346,
          "duration": 0.19583333333332575
        },
        {
          "name": "A2",
          "midi": 45,
          "time": 271.00416666666575,
          "velocity": 0.7086614173228346,
          "duration": 0.19583333333332575
        },
        {
          "name": "A2",
          "midi": 45,
          "time": 271.20416666666574,
          "velocity": 1,
          "duration": 0.39999999999997726
        },
        {
          "name": "A2",
          "midi": 45,
          "time": 271.6041666666657,
          "velocity": 1,
          "duration": 0.1958333333333826
        },
        {
          "name": "E2",
          "midi": 40,
          "time": 272.00416666666575,
          "velocity": 1,
          "duration": 0.19583333333332575
        },
        {
          "name": "E2",
          "midi": 40,
          "time": 272.20416666666574,
          "velocity": 0.7086614173228346,
          "duration": 0.19583333333332575
        },
        {
          "name": "E2",
          "midi": 40,
          "time": 272.40416666666573,
          "velocity": 0.7086614173228346,
          "duration": 0.19583333333332575
        },
        {
          "name": "E2",
          "midi": 40,
          "time": 272.6041666666657,
          "velocity": 1,
          "duration": 0.19583333333332575
        },
        {
          "name": "E2",
          "midi": 40,
          "time": 272.8041666666657,
          "velocity": 0.7086614173228346,
          "duration": 0.19583333333332575
        },
        {
          "name": "E2",
          "midi": 40,
          "time": 273.0041666666657,
          "velocity": 0.7086614173228346,
          "duration": 0.19583333333332575
        },
        {
          "name": "E2",
          "midi": 40,
          "time": 273.2041666666657,
          "velocity": 1,
          "duration": 0.19583333333332575
        },
        {
          "name": "E2",
          "midi": 40,
          "time": 273.4041666666657,
          "velocity": 0.7086614173228346,
          "duration": 0.19583333333332575
        },
        {
          "name": "E2",
          "midi": 40,
          "time": 273.60416666666566,
          "velocity": 0.7086614173228346,
          "duration": 0.19583333333332575
        },
        {
          "name": "E2",
          "midi": 40,
          "time": 273.80416666666565,
          "velocity": 1,
          "duration": 0.19583333333332575
        },
        {
          "name": "E2",
          "midi": 40,
          "time": 274.00416666666564,
          "velocity": 0.7086614173228346,
          "duration": 0.19583333333332575
        },
        {
          "name": "E2",
          "midi": 40,
          "time": 274.2041666666656,
          "velocity": 0.7086614173228346,
          "duration": 0.19583333333332575
        },
        {
          "name": "E2",
          "midi": 40,
          "time": 274.4041666666656,
          "velocity": 1,
          "duration": 0.39999999999997726
        },
        {
          "name": "E2",
          "midi": 40,
          "time": 274.8041666666656,
          "velocity": 1,
          "duration": 0.19583333333332575
        },
        {
          "name": "G2",
          "midi": 43,
          "time": 275.20416666666557,
          "velocity": 1,
          "duration": 0.19583333333332575
        },
        {
          "name": "G2",
          "midi": 43,
          "time": 275.40416666666556,
          "velocity": 0.7086614173228346,
          "duration": 0.19583333333332575
        },
        {
          "name": "G2",
          "midi": 43,
          "time": 275.60416666666555,
          "velocity": 0.7086614173228346,
          "duration": 0.19583333333332575
        },
        {
          "name": "G2",
          "midi": 43,
          "time": 275.80416666666554,
          "velocity": 1,
          "duration": 0.19583333333332575
        },
        {
          "name": "G2",
          "midi": 43,
          "time": 276.0041666666655,
          "velocity": 0.7086614173228346,
          "duration": 0.19583333333332575
        },
        {
          "name": "G2",
          "midi": 43,
          "time": 276.2041666666655,
          "velocity": 0.7086614173228346,
          "duration": 0.19583333333332575
        },
        {
          "name": "G2",
          "midi": 43,
          "time": 276.4041666666655,
          "velocity": 1,
          "duration": 0.19583333333332575
        },
        {
          "name": "G2",
          "midi": 43,
          "time": 276.6041666666655,
          "velocity": 0.7086614173228346,
          "duration": 0.19583333333332575
        },
        {
          "name": "G2",
          "midi": 43,
          "time": 276.8041666666655,
          "velocity": 0.7086614173228346,
          "duration": 0.19583333333332575
        },
        {
          "name": "G2",
          "midi": 43,
          "time": 277.00416666666547,
          "velocity": 1,
          "duration": 0.19583333333332575
        },
        {
          "name": "G2",
          "midi": 43,
          "time": 277.20416666666546,
          "velocity": 0.7086614173228346,
          "duration": 0.19583333333332575
        },
        {
          "name": "G2",
          "midi": 43,
          "time": 277.40416666666545,
          "velocity": 0.7086614173228346,
          "duration": 0.19583333333332575
        },
        {
          "name": "G2",
          "midi": 43,
          "time": 277.60416666666544,
          "velocity": 1,
          "duration": 0.39999999999997726
        },
        {
          "name": "G2",
          "midi": 43,
          "time": 278.0041666666654,
          "velocity": 1,
          "duration": 0.19583333333332575
        },
        {
          "name": "D3",
          "midi": 50,
          "time": 278.4041666666654,
          "velocity": 1,
          "duration": 0.19583333333332575
        },
        {
          "name": "D3",
          "midi": 50,
          "time": 278.6041666666654,
          "velocity": 0.7086614173228346,
          "duration": 0.19583333333332575
        },
        {
          "name": "D3",
          "midi": 50,
          "time": 278.80416666666537,
          "velocity": 0.7086614173228346,
          "duration": 0.19583333333332575
        },
        {
          "name": "D3",
          "midi": 50,
          "time": 279.00416666666536,
          "velocity": 1,
          "duration": 0.19583333333332575
        },
        {
          "name": "D3",
          "midi": 50,
          "time": 279.20416666666534,
          "velocity": 0.7086614173228346,
          "duration": 0.19583333333332575
        },
        {
          "name": "D3",
          "midi": 50,
          "time": 279.40416666666533,
          "velocity": 0.7086614173228346,
          "duration": 0.19583333333332575
        },
        {
          "name": "D3",
          "midi": 50,
          "time": 279.6041666666653,
          "velocity": 1,
          "duration": 0.19583333333332575
        },
        {
          "name": "D3",
          "midi": 50,
          "time": 279.8041666666653,
          "velocity": 0.7086614173228346,
          "duration": 0.19583333333332575
        },
        {
          "name": "D3",
          "midi": 50,
          "time": 280.0041666666653,
          "velocity": 0.7086614173228346,
          "duration": 0.19583333333332575
        },
        {
          "name": "D3",
          "midi": 50,
          "time": 280.2041666666653,
          "velocity": 1,
          "duration": 0.19583333333332575
        },
        {
          "name": "D3",
          "midi": 50,
          "time": 280.4041666666653,
          "velocity": 0.7086614173228346,
          "duration": 0.19583333333332575
        },
        {
          "name": "D3",
          "midi": 50,
          "time": 280.60416666666526,
          "velocity": 0.7086614173228346,
          "duration": 0.19583333333332575
        },
        {
          "name": "D3",
          "midi": 50,
          "time": 280.80416666666525,
          "velocity": 1,
          "duration": 0.19583333333332575
        },
        {
          "name": "D3",
          "midi": 50,
          "time": 281.20416666666523,
          "velocity": 1,
          "duration": 0.19583333333332575
        },
        {
          "name": "E2",
          "midi": 40,
          "time": 281.6041666666652,
          "velocity": 1,
          "duration": 0.19583333333332575
        },
        {
          "name": "E2",
          "midi": 40,
          "time": 281.8041666666652,
          "velocity": 0.7086614173228346,
          "duration": 0.19583333333332575
        },
        {
          "name": "E2",
          "midi": 40,
          "time": 282.0041666666652,
          "velocity": 0.7086614173228346,
          "duration": 0.19583333333332575
        },
        {
          "name": "E2",
          "midi": 40,
          "time": 282.2041666666652,
          "velocity": 1,
          "duration": 0.19583333333332575
        },
        {
          "name": "E2",
          "midi": 40,
          "time": 282.40416666666516,
          "velocity": 0.7086614173228346,
          "duration": 0.19583333333332575
        },
        {
          "name": "E2",
          "midi": 40,
          "time": 282.60416666666515,
          "velocity": 0.7086614173228346,
          "duration": 0.19583333333332575
        },
        {
          "name": "E2",
          "midi": 40,
          "time": 282.80416666666514,
          "velocity": 1,
          "duration": 0.19583333333332575
        },
        {
          "name": "E2",
          "midi": 40,
          "time": 283.0041666666651,
          "velocity": 0.7086614173228346,
          "duration": 0.19583333333332575
        },
        {
          "name": "E2",
          "midi": 40,
          "time": 283.2041666666651,
          "velocity": 0.7086614173228346,
          "duration": 0.19583333333332575
        },
        {
          "name": "E2",
          "midi": 40,
          "time": 283.4041666666651,
          "velocity": 1,
          "duration": 0.19583333333332575
        },
        {
          "name": "E2",
          "midi": 40,
          "time": 283.6041666666651,
          "velocity": 0.7086614173228346,
          "duration": 0.19583333333332575
        },
        {
          "name": "E2",
          "midi": 40,
          "time": 283.8041666666651,
          "velocity": 0.7086614173228346,
          "duration": 0.19583333333332575
        },
        {
          "name": "E2",
          "midi": 40,
          "time": 284.00416666666507,
          "velocity": 1,
          "duration": 0.39999999999997726
        },
        {
          "name": "E2",
          "midi": 40,
          "time": 284.40416666666505,
          "velocity": 1,
          "duration": 0.19583333333332575
        },
        {
          "name": "F#2",
          "midi": 42,
          "time": 284.804166666665,
          "velocity": 1,
          "duration": 0.19583333333332575
        },
        {
          "name": "F#2",
          "midi": 42,
          "time": 285.004166666665,
          "velocity": 0.7086614173228346,
          "duration": 0.19583333333332575
        },
        {
          "name": "F#2",
          "midi": 42,
          "time": 285.204166666665,
          "velocity": 0.7086614173228346,
          "duration": 0.19583333333332575
        },
        {
          "name": "F#2",
          "midi": 42,
          "time": 285.404166666665,
          "velocity": 1,
          "duration": 0.19583333333332575
        },
        {
          "name": "F#2",
          "midi": 42,
          "time": 285.604166666665,
          "velocity": 0.7086614173228346,
          "duration": 0.19583333333332575
        },
        {
          "name": "F#2",
          "midi": 42,
          "time": 285.80416666666497,
          "velocity": 0.7086614173228346,
          "duration": 0.19583333333332575
        },
        {
          "name": "F#2",
          "midi": 42,
          "time": 286.00416666666496,
          "velocity": 1,
          "duration": 0.19583333333332575
        },
        {
          "name": "F#2",
          "midi": 42,
          "time": 286.20416666666495,
          "velocity": 0.7086614173228346,
          "duration": 0.19583333333332575
        },
        {
          "name": "F#2",
          "midi": 42,
          "time": 286.40416666666493,
          "velocity": 0.7086614173228346,
          "duration": 0.19583333333332575
        },
        {
          "name": "F#2",
          "midi": 42,
          "time": 286.6041666666649,
          "velocity": 1,
          "duration": 0.19583333333332575
        },
        {
          "name": "F#2",
          "midi": 42,
          "time": 286.8041666666649,
          "velocity": 0.7086614173228346,
          "duration": 0.19583333333332575
        },
        {
          "name": "F#2",
          "midi": 42,
          "time": 287.0041666666649,
          "velocity": 0.7086614173228346,
          "duration": 0.19583333333332575
        },
        {
          "name": "F#2",
          "midi": 42,
          "time": 287.2041666666649,
          "velocity": 1,
          "duration": 0.39999999999997726
        },
        {
          "name": "F#2",
          "midi": 42,
          "time": 287.60416666666487,
          "velocity": 1,
          "duration": 0.19583333333332575
        },
        {
          "name": "B2",
          "midi": 47,
          "time": 288.00416666666484,
          "velocity": 1,
          "duration": 0.19583333333332575
        },
        {
          "name": "B2",
          "midi": 47,
          "time": 288.20416666666483,
          "velocity": 1,
          "duration": 0.19583333333332575
        },
        {
          "name": "F#3",
          "midi": 54,
          "time": 288.4041666666648,
          "velocity": 1,
          "duration": 0.19583333333332575
        },
        {
          "name": "B3",
          "midi": 59,
          "time": 288.6041666666648,
          "velocity": 1,
          "duration": 0.19583333333332575
        },
        {
          "name": "F#3",
          "midi": 54,
          "time": 289.4041666666648,
          "velocity": 1,
          "duration": 0.19583333333332575
        },
        {
          "name": "B3",
          "midi": 59,
          "time": 289.6041666666648,
          "velocity": 1,
          "duration": 0.10000000000002274
        },
        {
          "name": "B3",
          "midi": 59,
          "time": 289.80416666666486,
          "velocity": 1,
          "duration": 0.10000000000002274
        },
        {
          "name": "F#3",
          "midi": 54,
          "time": 290.0041666666649,
          "velocity": 1,
          "duration": 1.1999999999999886
        },
        {
          "name": "F#2",
          "midi": 42,
          "time": 291.2041666666649,
          "velocity": 1,
          "duration": 0.12916666666666288
        },
        {
          "name": "F#2",
          "midi": 42,
          "time": 291.4041666666649,
          "velocity": 1,
          "duration": 0.16250000000002274
        },
        {
          "name": "C#3",
          "midi": 49,
          "time": 291.6041666666649,
          "velocity": 1,
          "duration": 0.16250000000002274
        },
        {
          "name": "F#3",
          "midi": 54,
          "time": 291.80416666666497,
          "velocity": 1,
          "duration": 0.15416666666664014
        },
        {
          "name": "C#3",
          "midi": 49,
          "time": 292.6041666666649,
          "velocity": 1,
          "duration": 0.13333333333332575
        },
        {
          "name": "F#3",
          "midi": 54,
          "time": 292.8041666666649,
          "velocity": 1,
          "duration": 0.12083333333333712
        },
        {
          "name": "C#3",
          "midi": 49,
          "time": 293.0041666666649,
          "velocity": 1,
          "duration": 0.14583333333331439
        },
        {
          "name": "F#2",
          "midi": 42,
          "time": 293.2041666666649,
          "velocity": 1,
          "duration": 1.0625
        },
        {
          "name": "A2",
          "midi": 45,
          "time": 294.4041666666649,
          "velocity": 1,
          "duration": 0.13333333333332575
        },
        {
          "name": "A2",
          "midi": 45,
          "time": 294.60416666666487,
          "velocity": 1,
          "duration": 0.13333333333332575
        },
        {
          "name": "E3",
          "midi": 52,
          "time": 294.80416666666486,
          "velocity": 1,
          "duration": 0.16250000000002274
        },
        {
          "name": "A3",
          "midi": 57,
          "time": 295.0041666666649,
          "velocity": 1,
          "duration": 0.22083333333330302
        },
        {
          "name": "E3",
          "midi": 52,
          "time": 295.80416666666486,
          "velocity": 1,
          "duration": 0.17500000000001137
        },
        {
          "name": "A3",
          "midi": 57,
          "time": 296.00416666666484,
          "velocity": 1,
          "duration": 0.08749999999997726
        },
        {
          "name": "A3",
          "midi": 57,
          "time": 296.20416666666483,
          "velocity": 1,
          "duration": 0.07916666666665151
        },
        {
          "name": "E3",
          "midi": 52,
          "time": 296.4041666666648,
          "velocity": 1,
          "duration": 1.0083333333333258
        },
        {
          "name": "E2",
          "midi": 40,
          "time": 297.60416666666487,
          "velocity": 1,
          "duration": 0.12083333333333712
        },
        {
          "name": "E2",
          "midi": 40,
          "time": 297.80416666666486,
          "velocity": 1,
          "duration": 0.1416666666666515
        },
        {
          "name": "B2",
          "midi": 47,
          "time": 298.00416666666484,
          "velocity": 1,
          "duration": 0.1416666666666515
        },
        {
          "name": "E3",
          "midi": 52,
          "time": 298.20416666666483,
          "velocity": 1,
          "duration": 0.13333333333332575
        },
        {
          "name": "B2",
          "midi": 47,
          "time": 299.0041666666648,
          "velocity": 1,
          "duration": 0.13333333333332575
        },
        {
          "name": "E3",
          "midi": 52,
          "time": 299.2041666666648,
          "velocity": 1,
          "duration": 0.09583333333335986
        },
        {
          "name": "B2",
          "midi": 47,
          "time": 299.4041666666648,
          "velocity": 1,
          "duration": 0.07916666666665151
        },
        {
          "name": "E2",
          "midi": 40,
          "time": 299.6041666666648,
          "velocity": 1,
          "duration": 0.9333333333332803
        },
        {
          "name": "G2",
          "midi": 43,
          "time": 300.80416666666474,
          "velocity": 1,
          "duration": 0.10000000000002274
        },
        {
          "name": "G2",
          "midi": 43,
          "time": 301.0041666666648,
          "velocity": 1,
          "duration": 0.11250000000001137
        },
        {
          "name": "D3",
          "midi": 50,
          "time": 301.2041666666648,
          "velocity": 1,
          "duration": 0.14583333333331439
        },
        {
          "name": "G3",
          "midi": 55,
          "time": 301.40416666666476,
          "velocity": 1,
          "duration": 0.17500000000001137
        },
        {
          "name": "D3",
          "midi": 50,
          "time": 302.2041666666648,
          "velocity": 1,
          "duration": 0.10833333333334849
        },
        {
          "name": "G3",
          "midi": 55,
          "time": 302.40416666666476,
          "velocity": 1,
          "duration": 0.08749999999997726
        },
        {
          "name": "G3",
          "midi": 55,
          "time": 302.60416666666475,
          "velocity": 1,
          "duration": 0.07916666666665151
        },
        {
          "name": "D3",
          "midi": 50,
          "time": 302.80416666666474,
          "velocity": 1,
          "duration": 0.6999999999999886
        },
        {
          "name": "D3",
          "midi": 50,
          "time": 304.00416666666473,
          "velocity": 1,
          "duration": 0.11250000000001137
        },
        {
          "name": "D3",
          "midi": 50,
          "time": 304.2041666666647,
          "velocity": 1,
          "duration": 0.1416666666666515
        },
        {
          "name": "A3",
          "midi": 57,
          "time": 304.4041666666647,
          "velocity": 1,
          "duration": 0.15416666666664014
        },
        {
          "name": "D4",
          "midi": 62,
          "time": 304.6041666666647,
          "velocity": 1,
          "duration": 0.15416666666664014
        },
        {
          "name": "A3",
          "midi": 57,
          "time": 305.4041666666647,
          "velocity": 1,
          "duration": 0.11250000000001137
        },
        {
          "name": "D4",
          "midi": 62,
          "time": 305.6041666666647,
          "velocity": 1,
          "duration": 0.07916666666665151
        },
        {
          "name": "A3",
          "midi": 57,
          "time": 305.8041666666647,
          "velocity": 1,
          "duration": 0.07916666666665151
        },
        {
          "name": "D3",
          "midi": 50,
          "time": 306.0041666666647,
          "velocity": 1,
          "duration": 0.9125000000000227
        },
        {
          "name": "E2",
          "midi": 40,
          "time": 307.2041666666647,
          "velocity": 1,
          "duration": 0.12083333333333712
        },
        {
          "name": "E2",
          "midi": 40,
          "time": 307.4041666666647,
          "velocity": 1,
          "duration": 0.11250000000001137
        },
        {
          "name": "B2",
          "midi": 47,
          "time": 307.6041666666647,
          "velocity": 1,
          "duration": 0.1416666666666515
        },
        {
          "name": "E3",
          "midi": 52,
          "time": 307.8041666666647,
          "velocity": 1,
          "duration": 0.13333333333332575
        },
        {
          "name": "B2",
          "midi": 47,
          "time": 308.6041666666647,
          "velocity": 1,
          "duration": 0.10833333333334849
        },
        {
          "name": "E3",
          "midi": 52,
          "time": 308.8041666666647,
          "velocity": 1,
          "duration": 0.10833333333334849
        },
        {
          "name": "E3",
          "midi": 52,
          "time": 309.0041666666647,
          "velocity": 1,
          "duration": 0.09583333333335986
        },
        {
          "name": "B2",
          "midi": 47,
          "time": 309.2041666666647,
          "velocity": 1,
          "duration": 0.7416666666666742
        },
        {
          "name": "F#2",
          "midi": 42,
          "time": 310.4041666666647,
          "velocity": 1,
          "duration": 0.09583333333335986
        },
        {
          "name": "F#2",
          "midi": 42,
          "time": 310.60416666666475,
          "velocity": 1,
          "duration": 0.08749999999997726
        },
        {
          "name": "C#3",
          "midi": 49,
          "time": 310.80416666666474,
          "velocity": 1,
          "duration": 0.12916666666666288
        },
        {
          "name": "F#3",
          "midi": 54,
          "time": 311.00416666666473,
          "velocity": 1,
          "duration": 0.1416666666666515
        },
        {
          "name": "C#3",
          "midi": 49,
          "time": 311.80416666666474,
          "velocity": 1,
          "duration": 0.10833333333334849
        },
        {
          "name": "F#3",
          "midi": 54,
          "time": 312.00416666666473,
          "velocity": 1,
          "duration": 0.15416666666664014
        },
        {
          "name": "C#3",
          "midi": 49,
          "time": 312.6041666666647,
          "velocity": 1,
          "duration": 0.10000000000002274
        },
        {
          "name": "F#3",
          "midi": 54,
          "time": 312.80416666666474,
          "velocity": 1,
          "duration": 0.19583333333332575
        }
      ],
      "controlChanges": {
        "7": [
          {
            "number": 7,
            "time": 3.2,
            "value": 0.7086614173228346
          },
          {
            "number": 7,
            "time": 271.6374999999991,
            "value": 0.47244094488188976
          },
          {
            "number": 7,
            "time": 294.7374999999982,
            "value": 0.4645669291338583
          },
          {
            "number": 7,
            "time": 294.8708333333315,
            "value": 0.4566929133858268
          },
          {
            "number": 7,
            "time": 295.07083333333156,
            "value": 0.4409448818897638
          },
          {
            "number": 7,
            "time": 295.5374999999982,
            "value": 0.4330708661417323
          },
          {
            "number": 7,
            "time": 295.9374999999982,
            "value": 0.4251968503937008
          },
          {
            "number": 7,
            "time": 296.1249999999982,
            "value": 0.3543307086614173
          },
          {
            "number": 7,
            "time": 296.5708333333315,
            "value": 0.33858267716535434
          },
          {
            "number": 7,
            "time": 296.70416666666483,
            "value": 0.31496062992125984
          },
          {
            "number": 7,
            "time": 296.9041666666648,
            "value": 0.30708661417322836
          },
          {
            "number": 7,
            "time": 297.3041666666648,
            "value": 0.29133858267716534
          },
          {
            "number": 7,
            "time": 297.4458333333315,
            "value": 0.2755905511811024
          },
          {
            "number": 7,
            "time": 297.60416666666487,
            "value": 0.25196850393700787
          },
          {
            "number": 7,
            "time": 297.7249999999982,
            "value": 0.2440944881889764
          },
          {
            "number": 7,
            "time": 298.00416666666484,
            "value": 0.2204724409448819
          },
          {
            "number": 7,
            "time": 298.53749999999815,
            "value": 0.2047244094488189
          },
          {
            "number": 7,
            "time": 298.6708333333315,
            "value": 0.1968503937007874
          },
          {
            "number": 7,
            "time": 299.75833333333145,
            "value": 0.18110236220472442
          },
          {
            "number": 7,
            "time": 300.40416666666476,
            "value": 0.1732283464566929
          },
          {
            "number": 7,
            "time": 300.8374999999981,
            "value": 0.16535433070866143
          },
          {
            "number": 7,
            "time": 301.1166666666648,
            "value": 0.15748031496062992
          },
          {
            "number": 7,
            "time": 301.27083333333144,
            "value": 0.14173228346456693
          },
          {
            "number": 7,
            "time": 302.0041666666648,
            "value": 0.13385826771653545
          },
          {
            "number": 7,
            "time": 302.6708333333314,
            "value": 0.11811023622047244
          },
          {
            "number": 7,
            "time": 302.80416666666474,
            "value": 0.10236220472440945
          },
          {
            "number": 7,
            "time": 304.55833333333135,
            "value": 0.09448818897637795
          },
          {
            "number": 7,
            "time": 304.737499999998,
            "value": 0.06299212598425197
          },
          {
            "number": 7,
            "time": 304.87083333333135,
            "value": 0.05511811023622047
          },
          {
            "number": 7,
            "time": 305.6916666666647,
            "value": 0.047244094488188976
          },
          {
            "number": 7,
            "time": 306.53749999999803,
            "value": 0.03937007874015748
          },
          {
            "number": 7,
            "time": 307.03749999999803,
            "value": 0.031496062992125984
          },
          {
            "number": 7,
            "time": 307.2374999999981,
            "value": 0.023622047244094488
          },
          {
            "number": 7,
            "time": 307.43749999999807,
            "value": 0.015748031496062992
          },
          {
            "number": 7,
            "time": 307.59999999999803,
            "value": 0
          }
        ],
        "10": [
          {
            "number": 10,
            "time": 271.6374999999991,
            "value": 0.5039370078740157
          }
        ]
      },
      "id": 8,
      "name": "MUTED GTR",
      "instrumentNumber": 28,
      "instrument": "electric guitar (muted)",
      "instrumentFamily": "guitar",
      "channelNumber": 7,
      "isPercussion": false
    },
    {
      "startTime": 6.4,
      "duration": 313.00416666666376,
      "length": 650,
      "notes": [
        {
          "name": "F#4",
          "midi": 66,
          "time": 6.4,
          "velocity": 1,
          "duration": 0.19166666666666643
        },
        {
          "name": "D4",
          "midi": 62,
          "time": 6.6000000000000005,
          "velocity": 0.5511811023622047,
          "duration": 0.19166666666666643
        },
        {
          "name": "B3",
          "midi": 59,
          "time": 6.800000000000001,
          "velocity": 0.5511811023622047,
          "duration": 0.19166666666666643
        },
        {
          "name": "F#4",
          "midi": 66,
          "time": 7.000000000000001,
          "velocity": 1,
          "duration": 0.19166666666666643
        },
        {
          "name": "D4",
          "midi": 62,
          "time": 7.200000000000001,
          "velocity": 0.5511811023622047,
          "duration": 0.19166666666666643
        },
        {
          "name": "B3",
          "midi": 59,
          "time": 7.400000000000001,
          "velocity": 0.5511811023622047,
          "duration": 0.19166666666666643
        },
        {
          "name": "F#4",
          "midi": 66,
          "time": 7.600000000000001,
          "velocity": 1,
          "duration": 0.19166666666666643
        },
        {
          "name": "D4",
          "midi": 62,
          "time": 7.800000000000002,
          "velocity": 0.5511811023622047,
          "duration": 0.19166666666666643
        },
        {
          "name": "B4",
          "midi": 71,
          "time": 8.000000000000002,
          "velocity": 1,
          "duration": 1.200000000000001
        },
        {
          "name": "F#4",
          "midi": 66,
          "time": 9.600000000000003,
          "velocity": 1,
          "duration": 0.19166666666666643
        },
        {
          "name": "C#4",
          "midi": 61,
          "time": 9.800000000000002,
          "velocity": 0.5511811023622047,
          "duration": 0.19166666666666643
        },
        {
          "name": "A#3",
          "midi": 58,
          "time": 10.000000000000002,
          "velocity": 0.5511811023622047,
          "duration": 0.19166666666666643
        },
        {
          "name": "F#4",
          "midi": 66,
          "time": 10.200000000000001,
          "velocity": 1,
          "duration": 0.19166666666666643
        },
        {
          "name": "C#4",
          "midi": 61,
          "time": 10.4,
          "velocity": 0.5511811023622047,
          "duration": 0.19166666666666643
        },
        {
          "name": "A#3",
          "midi": 58,
          "time": 10.6,
          "velocity": 0.5511811023622047,
          "duration": 0.19166666666666643
        },
        {
          "name": "F#4",
          "midi": 66,
          "time": 10.799999999999999,
          "velocity": 1,
          "duration": 0.19166666666666643
        },
        {
          "name": "C#4",
          "midi": 61,
          "time": 10.999999999999998,
          "velocity": 0.5511811023622047,
          "duration": 0.19166666666666643
        },
        {
          "name": "A#4",
          "midi": 70,
          "time": 11.199999999999998,
          "velocity": 1,
          "duration": 1
        },
        {
          "name": "E4",
          "midi": 64,
          "time": 12.799999999999997,
          "velocity": 1,
          "duration": 0.19166666666666643
        },
        {
          "name": "C#4",
          "midi": 61,
          "time": 12.999999999999996,
          "velocity": 0.5511811023622047,
          "duration": 0.19166666666666643
        },
        {
          "name": "A3",
          "midi": 57,
          "time": 13.199999999999996,
          "velocity": 0.5511811023622047,
          "duration": 0.19166666666666643
        },
        {
          "name": "E4",
          "midi": 64,
          "time": 13.399999999999995,
          "velocity": 1,
          "duration": 0.19166666666666643
        },
        {
          "name": "C#4",
          "midi": 61,
          "time": 13.599999999999994,
          "velocity": 0.5511811023622047,
          "duration": 0.19166666666666643
        },
        {
          "name": "A3",
          "midi": 57,
          "time": 13.799999999999994,
          "velocity": 0.5511811023622047,
          "duration": 0.19166666666666643
        },
        {
          "name": "E4",
          "midi": 64,
          "time": 13.999999999999993,
          "velocity": 1,
          "duration": 0.19166666666666643
        },
        {
          "name": "C#4",
          "midi": 61,
          "time": 14.199999999999992,
          "velocity": 0.5511811023622047,
          "duration": 0.19166666666666643
        },
        {
          "name": "A4",
          "midi": 69,
          "time": 14.399999999999991,
          "velocity": 1,
          "duration": 1.4000000000000004
        },
        {
          "name": "E4",
          "midi": 64,
          "time": 15.999999999999991,
          "velocity": 1,
          "duration": 0.1916666666666682
        },
        {
          "name": "B3",
          "midi": 59,
          "time": 16.199999999999992,
          "velocity": 0.5511811023622047,
          "duration": 0.19166666666666643
        },
        {
          "name": "G#3",
          "midi": 56,
          "time": 16.39999999999999,
          "velocity": 0.5511811023622047,
          "duration": 0.19166666666666643
        },
        {
          "name": "E4",
          "midi": 64,
          "time": 16.59999999999999,
          "velocity": 1,
          "duration": 0.19166666666666643
        },
        {
          "name": "B3",
          "midi": 59,
          "time": 16.79999999999999,
          "velocity": 0.5511811023622047,
          "duration": 0.19166666666666643
        },
        {
          "name": "G#3",
          "midi": 56,
          "time": 16.99999999999999,
          "velocity": 0.5511811023622047,
          "duration": 0.19166666666666643
        },
        {
          "name": "E4",
          "midi": 64,
          "time": 17.19999999999999,
          "velocity": 1,
          "duration": 0.19166666666666643
        },
        {
          "name": "B3",
          "midi": 59,
          "time": 17.399999999999988,
          "velocity": 0.5511811023622047,
          "duration": 0.19166666666666643
        },
        {
          "name": "G#4",
          "midi": 68,
          "time": 17.599999999999987,
          "velocity": 1,
          "duration": 1.3999999999999986
        },
        {
          "name": "D4",
          "midi": 62,
          "time": 19.199999999999985,
          "velocity": 1,
          "duration": 0.19166666666666643
        },
        {
          "name": "B3",
          "midi": 59,
          "time": 19.399999999999984,
          "velocity": 0.5511811023622047,
          "duration": 0.19166666666666643
        },
        {
          "name": "G3",
          "midi": 55,
          "time": 19.599999999999984,
          "velocity": 0.5511811023622047,
          "duration": 0.19166666666666643
        },
        {
          "name": "D4",
          "midi": 62,
          "time": 19.799999999999983,
          "velocity": 1,
          "duration": 0.19166666666666643
        },
        {
          "name": "B3",
          "midi": 59,
          "time": 19.999999999999982,
          "velocity": 0.5511811023622047,
          "duration": 0.19166666666666643
        },
        {
          "name": "G3",
          "midi": 55,
          "time": 20.19999999999998,
          "velocity": 0.5511811023622047,
          "duration": 0.19166666666666643
        },
        {
          "name": "D4",
          "midi": 62,
          "time": 20.39999999999998,
          "velocity": 1,
          "duration": 0.19166666666666643
        },
        {
          "name": "B3",
          "midi": 59,
          "time": 20.59999999999998,
          "velocity": 0.5511811023622047,
          "duration": 0.19166666666666643
        },
        {
          "name": "G4",
          "midi": 67,
          "time": 20.79999999999998,
          "velocity": 1,
          "duration": 1.3999999999999986
        },
        {
          "name": "D4",
          "midi": 62,
          "time": 22.399999999999977,
          "velocity": 1,
          "duration": 0.19166666666666643
        },
        {
          "name": "A3",
          "midi": 57,
          "time": 22.599999999999977,
          "velocity": 0.5511811023622047,
          "duration": 0.19166666666666643
        },
        {
          "name": "F#3",
          "midi": 54,
          "time": 22.799999999999976,
          "velocity": 0.5511811023622047,
          "duration": 0.19166666666666643
        },
        {
          "name": "D4",
          "midi": 62,
          "time": 22.999999999999975,
          "velocity": 1,
          "duration": 0.19166666666666643
        },
        {
          "name": "A3",
          "midi": 57,
          "time": 23.199999999999974,
          "velocity": 0.5511811023622047,
          "duration": 0.19166666666666643
        },
        {
          "name": "F#3",
          "midi": 54,
          "time": 23.399999999999974,
          "velocity": 0.5511811023622047,
          "duration": 0.19166666666666643
        },
        {
          "name": "D4",
          "midi": 62,
          "time": 23.599999999999973,
          "velocity": 1,
          "duration": 0.19166666666666643
        },
        {
          "name": "A3",
          "midi": 57,
          "time": 23.799999999999972,
          "velocity": 0.5511811023622047,
          "duration": 0.19166666666666643
        },
        {
          "name": "F#4",
          "midi": 66,
          "time": 23.99999999999997,
          "velocity": 1,
          "duration": 1.3999999999999986
        },
        {
          "name": "E4",
          "midi": 64,
          "time": 25.59999999999997,
          "velocity": 1,
          "duration": 0.19166666666666643
        },
        {
          "name": "B3",
          "midi": 59,
          "time": 25.79999999999997,
          "velocity": 0.5511811023622047,
          "duration": 0.19166666666666643
        },
        {
          "name": "G3",
          "midi": 55,
          "time": 25.999999999999968,
          "velocity": 0.5511811023622047,
          "duration": 0.19166666666666643
        },
        {
          "name": "E4",
          "midi": 64,
          "time": 26.199999999999967,
          "velocity": 1,
          "duration": 0.19166666666666643
        },
        {
          "name": "B3",
          "midi": 59,
          "time": 26.399999999999967,
          "velocity": 0.5511811023622047,
          "duration": 0.19166666666666643
        },
        {
          "name": "G3",
          "midi": 55,
          "time": 26.599999999999966,
          "velocity": 0.5511811023622047,
          "duration": 0.19166666666666643
        },
        {
          "name": "E4",
          "midi": 64,
          "time": 26.799999999999965,
          "velocity": 1,
          "duration": 0.19166666666666643
        },
        {
          "name": "B3",
          "midi": 59,
          "time": 26.999999999999964,
          "velocity": 0.5511811023622047,
          "duration": 0.19166666666666643
        },
        {
          "name": "G4",
          "midi": 67,
          "time": 27.199999999999964,
          "velocity": 1,
          "duration": 1.591666666666665
        },
        {
          "name": "F#4",
          "midi": 66,
          "time": 28.79999999999996,
          "velocity": 1,
          "duration": 0.19166666666666643
        },
        {
          "name": "C#4",
          "midi": 61,
          "time": 28.99999999999996,
          "velocity": 0.5511811023622047,
          "duration": 0.19166666666666643
        },
        {
          "name": "A#3",
          "midi": 58,
          "time": 29.19999999999996,
          "velocity": 0.5511811023622047,
          "duration": 0.19166666666666643
        },
        {
          "name": "F#4",
          "midi": 66,
          "time": 29.39999999999996,
          "velocity": 1,
          "duration": 0.19166666666666643
        },
        {
          "name": "C#4",
          "midi": 61,
          "time": 29.59999999999996,
          "velocity": 0.5511811023622047,
          "duration": 0.19166666666666643
        },
        {
          "name": "A#3",
          "midi": 58,
          "time": 29.799999999999958,
          "velocity": 0.5511811023622047,
          "duration": 0.19166666666666643
        },
        {
          "name": "F#4",
          "midi": 66,
          "time": 29.999999999999957,
          "velocity": 1,
          "duration": 0.19166666666666643
        },
        {
          "name": "C#4",
          "midi": 61,
          "time": 30.199999999999957,
          "velocity": 0.5511811023622047,
          "duration": 0.19166666666666643
        },
        {
          "name": "A#4",
          "midi": 70,
          "time": 30.399999999999956,
          "velocity": 1,
          "duration": 1
        },
        {
          "name": "F#4",
          "midi": 66,
          "time": 31.999999999999957,
          "velocity": 1,
          "duration": 0.19166666666666998
        },
        {
          "name": "D4",
          "midi": 62,
          "time": 32.19999999999996,
          "velocity": 0.5511811023622047,
          "duration": 0.19166666666666998
        },
        {
          "name": "B3",
          "midi": 59,
          "time": 32.39999999999996,
          "velocity": 0.5511811023622047,
          "duration": 0.19166666666666998
        },
        {
          "name": "F#4",
          "midi": 66,
          "time": 32.599999999999966,
          "velocity": 1,
          "duration": 0.19166666666666998
        },
        {
          "name": "D4",
          "midi": 62,
          "time": 32.79999999999997,
          "velocity": 0.5511811023622047,
          "duration": 0.19166666666666998
        },
        {
          "name": "B3",
          "midi": 59,
          "time": 32.99999999999997,
          "velocity": 0.5511811023622047,
          "duration": 0.19166666666666998
        },
        {
          "name": "F#4",
          "midi": 66,
          "time": 33.199999999999974,
          "velocity": 1,
          "duration": 0.19166666666666998
        },
        {
          "name": "D4",
          "midi": 62,
          "time": 33.39999999999998,
          "velocity": 0.5511811023622047,
          "duration": 0.19166666666666998
        },
        {
          "name": "B4",
          "midi": 71,
          "time": 33.59999999999998,
          "velocity": 1,
          "duration": 1.2000000000000028
        },
        {
          "name": "F#4",
          "midi": 66,
          "time": 35.19999999999998,
          "velocity": 1,
          "duration": 0.19166666666666998
        },
        {
          "name": "C#4",
          "midi": 61,
          "time": 35.399999999999984,
          "velocity": 0.5511811023622047,
          "duration": 0.19166666666666998
        },
        {
          "name": "A#3",
          "midi": 58,
          "time": 35.59999999999999,
          "velocity": 0.5511811023622047,
          "duration": 0.19166666666666998
        },
        {
          "name": "F#4",
          "midi": 66,
          "time": 35.79999999999999,
          "velocity": 1,
          "duration": 0.19166666666666998
        },
        {
          "name": "C#4",
          "midi": 61,
          "time": 35.99999999999999,
          "velocity": 0.5511811023622047,
          "duration": 0.19166666666666998
        },
        {
          "name": "A#3",
          "midi": 58,
          "time": 36.199999999999996,
          "velocity": 0.5511811023622047,
          "duration": 0.19166666666666998
        },
        {
          "name": "F#4",
          "midi": 66,
          "time": 36.4,
          "velocity": 1,
          "duration": 0.19166666666666998
        },
        {
          "name": "C#4",
          "midi": 61,
          "time": 36.6,
          "velocity": 0.5511811023622047,
          "duration": 0.19166666666666998
        },
        {
          "name": "A#4",
          "midi": 70,
          "time": 36.800000000000004,
          "velocity": 1,
          "duration": 1
        },
        {
          "name": "E4",
          "midi": 64,
          "time": 38.400000000000006,
          "velocity": 1,
          "duration": 0.19166666666666998
        },
        {
          "name": "C#4",
          "midi": 61,
          "time": 38.60000000000001,
          "velocity": 0.5511811023622047,
          "duration": 0.19166666666666998
        },
        {
          "name": "A3",
          "midi": 57,
          "time": 38.80000000000001,
          "velocity": 0.5511811023622047,
          "duration": 0.19166666666666998
        },
        {
          "name": "E4",
          "midi": 64,
          "time": 39.000000000000014,
          "velocity": 1,
          "duration": 0.19166666666666998
        },
        {
          "name": "C#4",
          "midi": 61,
          "time": 39.20000000000002,
          "velocity": 0.5511811023622047,
          "duration": 0.19166666666666998
        },
        {
          "name": "A3",
          "midi": 57,
          "time": 39.40000000000002,
          "velocity": 0.5511811023622047,
          "duration": 0.19166666666666998
        },
        {
          "name": "E4",
          "midi": 64,
          "time": 39.60000000000002,
          "velocity": 1,
          "duration": 0.19166666666666998
        },
        {
          "name": "C#4",
          "midi": 61,
          "time": 39.800000000000026,
          "velocity": 0.5511811023622047,
          "duration": 0.19166666666666998
        },
        {
          "name": "A4",
          "midi": 69,
          "time": 40.00000000000003,
          "velocity": 1,
          "duration": 1.3999999999999986
        },
        {
          "name": "E4",
          "midi": 64,
          "time": 41.60000000000003,
          "velocity": 1,
          "duration": 0.19166666666666998
        },
        {
          "name": "B3",
          "midi": 59,
          "time": 41.80000000000003,
          "velocity": 0.5511811023622047,
          "duration": 0.19166666666666998
        },
        {
          "name": "G#3",
          "midi": 56,
          "time": 42.000000000000036,
          "velocity": 0.5511811023622047,
          "duration": 0.19166666666666998
        },
        {
          "name": "E4",
          "midi": 64,
          "time": 42.20000000000004,
          "velocity": 1,
          "duration": 0.19166666666666998
        },
        {
          "name": "B3",
          "midi": 59,
          "time": 42.40000000000004,
          "velocity": 0.5511811023622047,
          "duration": 0.19166666666666998
        },
        {
          "name": "G#3",
          "midi": 56,
          "time": 42.600000000000044,
          "velocity": 0.5511811023622047,
          "duration": 0.19166666666666998
        },
        {
          "name": "E4",
          "midi": 64,
          "time": 42.80000000000005,
          "velocity": 1,
          "duration": 0.19166666666666998
        },
        {
          "name": "B3",
          "midi": 59,
          "time": 43.00000000000005,
          "velocity": 0.5511811023622047,
          "duration": 0.19166666666666998
        },
        {
          "name": "G#4",
          "midi": 68,
          "time": 43.20000000000005,
          "velocity": 1,
          "duration": 1.3999999999999986
        },
        {
          "name": "D4",
          "midi": 62,
          "time": 44.800000000000054,
          "velocity": 1,
          "duration": 0.19166666666666998
        },
        {
          "name": "B3",
          "midi": 59,
          "time": 45.00000000000006,
          "velocity": 0.5511811023622047,
          "duration": 0.19166666666666998
        },
        {
          "name": "G3",
          "midi": 55,
          "time": 45.20000000000006,
          "velocity": 0.5511811023622047,
          "duration": 0.19166666666666998
        },
        {
          "name": "D4",
          "midi": 62,
          "time": 45.40000000000006,
          "velocity": 1,
          "duration": 0.19166666666666998
        },
        {
          "name": "B3",
          "midi": 59,
          "time": 45.600000000000065,
          "velocity": 0.5511811023622047,
          "duration": 0.19166666666666998
        },
        {
          "name": "G3",
          "midi": 55,
          "time": 45.80000000000007,
          "velocity": 0.5511811023622047,
          "duration": 0.19166666666666998
        },
        {
          "name": "D4",
          "midi": 62,
          "time": 46.00000000000007,
          "velocity": 1,
          "duration": 0.19166666666666998
        },
        {
          "name": "B3",
          "midi": 59,
          "time": 46.200000000000074,
          "velocity": 0.5511811023622047,
          "duration": 0.19166666666666998
        },
        {
          "name": "G4",
          "midi": 67,
          "time": 46.40000000000008,
          "velocity": 1,
          "duration": 1.3999999999999986
        },
        {
          "name": "D4",
          "midi": 62,
          "time": 48.00000000000008,
          "velocity": 1,
          "duration": 0.19166666666666998
        },
        {
          "name": "A3",
          "midi": 57,
          "time": 48.20000000000008,
          "velocity": 0.5511811023622047,
          "duration": 0.19166666666666998
        },
        {
          "name": "F#3",
          "midi": 54,
          "time": 48.400000000000084,
          "velocity": 0.5511811023622047,
          "duration": 0.19166666666666998
        },
        {
          "name": "D4",
          "midi": 62,
          "time": 48.60000000000009,
          "velocity": 1,
          "duration": 0.19166666666666998
        },
        {
          "name": "A3",
          "midi": 57,
          "time": 48.80000000000009,
          "velocity": 0.5511811023622047,
          "duration": 0.19166666666666998
        },
        {
          "name": "F#3",
          "midi": 54,
          "time": 49.00000000000009,
          "velocity": 0.5511811023622047,
          "duration": 0.19166666666666998
        },
        {
          "name": "D4",
          "midi": 62,
          "time": 49.200000000000095,
          "velocity": 1,
          "duration": 0.19166666666666998
        },
        {
          "name": "A3",
          "midi": 57,
          "time": 49.4000000000001,
          "velocity": 0.5511811023622047,
          "duration": 0.19166666666666998
        },
        {
          "name": "F#4",
          "midi": 66,
          "time": 49.6000000000001,
          "velocity": 1,
          "duration": 1.3999999999999986
        },
        {
          "name": "E4",
          "midi": 64,
          "time": 51.2000000000001,
          "velocity": 1,
          "duration": 0.19166666666666998
        },
        {
          "name": "B3",
          "midi": 59,
          "time": 51.400000000000105,
          "velocity": 0.5511811023622047,
          "duration": 0.19166666666666998
        },
        {
          "name": "G3",
          "midi": 55,
          "time": 51.60000000000011,
          "velocity": 0.5511811023622047,
          "duration": 0.19166666666666998
        },
        {
          "name": "E4",
          "midi": 64,
          "time": 51.80000000000011,
          "velocity": 1,
          "duration": 0.19166666666666998
        },
        {
          "name": "B3",
          "midi": 59,
          "time": 52.000000000000114,
          "velocity": 0.5511811023622047,
          "duration": 0.19166666666666998
        },
        {
          "name": "G3",
          "midi": 55,
          "time": 52.20000000000012,
          "velocity": 0.5511811023622047,
          "duration": 0.19166666666666998
        },
        {
          "name": "E4",
          "midi": 64,
          "time": 52.40000000000012,
          "velocity": 1,
          "duration": 0.19166666666666998
        },
        {
          "name": "B3",
          "midi": 59,
          "time": 52.60000000000012,
          "velocity": 0.5511811023622047,
          "duration": 0.19166666666666998
        },
        {
          "name": "G4",
          "midi": 67,
          "time": 52.800000000000125,
          "velocity": 1,
          "duration": 1.5916666666666686
        },
        {
          "name": "F#4",
          "midi": 66,
          "time": 54.40000000000013,
          "velocity": 1,
          "duration": 0.19166666666666998
        },
        {
          "name": "C#4",
          "midi": 61,
          "time": 54.60000000000013,
          "velocity": 0.5511811023622047,
          "duration": 0.19166666666666998
        },
        {
          "name": "A#3",
          "midi": 58,
          "time": 54.80000000000013,
          "velocity": 0.5511811023622047,
          "duration": 0.19166666666666998
        },
        {
          "name": "F#4",
          "midi": 66,
          "time": 55.000000000000135,
          "velocity": 1,
          "duration": 0.19166666666666998
        },
        {
          "name": "C#4",
          "midi": 61,
          "time": 55.20000000000014,
          "velocity": 0.5511811023622047,
          "duration": 0.19166666666666998
        },
        {
          "name": "A#3",
          "midi": 58,
          "time": 55.40000000000014,
          "velocity": 0.5511811023622047,
          "duration": 0.19166666666666998
        },
        {
          "name": "F#4",
          "midi": 66,
          "time": 55.60000000000014,
          "velocity": 1,
          "duration": 0.19166666666666998
        },
        {
          "name": "C#4",
          "midi": 61,
          "time": 55.800000000000146,
          "velocity": 0.5511811023622047,
          "duration": 0.19166666666666998
        },
        {
          "name": "A#4",
          "midi": 70,
          "time": 56.00000000000015,
          "velocity": 1,
          "duration": 1
        },
        {
          "name": "F#4",
          "midi": 66,
          "time": 57.60000000000015,
          "velocity": 1,
          "duration": 0.19166666666666998
        },
        {
          "name": "D4",
          "midi": 62,
          "time": 57.80000000000015,
          "velocity": 0.5511811023622047,
          "duration": 0.19166666666666998
        },
        {
          "name": "B3",
          "midi": 59,
          "time": 58.000000000000156,
          "velocity": 0.5511811023622047,
          "duration": 0.19166666666666998
        },
        {
          "name": "F#4",
          "midi": 66,
          "time": 58.20000000000016,
          "velocity": 1,
          "duration": 0.19166666666666998
        },
        {
          "name": "D4",
          "midi": 62,
          "time": 58.40000000000016,
          "velocity": 0.5511811023622047,
          "duration": 0.19166666666666998
        },
        {
          "name": "B3",
          "midi": 59,
          "time": 58.600000000000165,
          "velocity": 0.5511811023622047,
          "duration": 0.19166666666666998
        },
        {
          "name": "F#4",
          "midi": 66,
          "time": 58.80000000000017,
          "velocity": 1,
          "duration": 0.19166666666666998
        },
        {
          "name": "D4",
          "midi": 62,
          "time": 59.00000000000017,
          "velocity": 0.5511811023622047,
          "duration": 0.19166666666666998
        },
        {
          "name": "B4",
          "midi": 71,
          "time": 59.20000000000017,
          "velocity": 1,
          "duration": 1.2000000000000028
        },
        {
          "name": "F#4",
          "midi": 66,
          "time": 60.800000000000175,
          "velocity": 1,
          "duration": 0.19166666666666998
        },
        {
          "name": "C#4",
          "midi": 61,
          "time": 61.00000000000018,
          "velocity": 0.5511811023622047,
          "duration": 0.19166666666666998
        },
        {
          "name": "A#3",
          "midi": 58,
          "time": 61.20000000000018,
          "velocity": 0.5511811023622047,
          "duration": 0.19166666666666998
        },
        {
          "name": "F#4",
          "midi": 66,
          "time": 61.40000000000018,
          "velocity": 1,
          "duration": 0.19166666666666998
        },
        {
          "name": "C#4",
          "midi": 61,
          "time": 61.600000000000186,
          "velocity": 0.5511811023622047,
          "duration": 0.19166666666666998
        },
        {
          "name": "A#3",
          "midi": 58,
          "time": 61.80000000000019,
          "velocity": 0.5511811023622047,
          "duration": 0.19166666666666998
        },
        {
          "name": "F#4",
          "midi": 66,
          "time": 62.00000000000019,
          "velocity": 1,
          "duration": 0.19166666666666998
        },
        {
          "name": "C#4",
          "midi": 61,
          "time": 62.200000000000195,
          "velocity": 0.5511811023622047,
          "duration": 0.19166666666666998
        },
        {
          "name": "A#4",
          "midi": 70,
          "time": 62.4000000000002,
          "velocity": 1,
          "duration": 1
        },
        {
          "name": "E4",
          "midi": 64,
          "time": 64.0000000000002,
          "velocity": 1,
          "duration": 0.19166666666666288
        },
        {
          "name": "C#4",
          "midi": 61,
          "time": 64.2000000000002,
          "velocity": 0.5511811023622047,
          "duration": 0.19166666666666288
        },
        {
          "name": "A3",
          "midi": 57,
          "time": 64.4000000000002,
          "velocity": 0.5511811023622047,
          "duration": 0.19166666666666288
        },
        {
          "name": "E4",
          "midi": 64,
          "time": 64.60000000000021,
          "velocity": 1,
          "duration": 0.19166666666666288
        },
        {
          "name": "C#4",
          "midi": 61,
          "time": 64.80000000000021,
          "velocity": 0.5511811023622047,
          "duration": 0.19166666666666288
        },
        {
          "name": "A3",
          "midi": 57,
          "time": 65.00000000000021,
          "velocity": 0.5511811023622047,
          "duration": 0.19166666666666288
        },
        {
          "name": "E4",
          "midi": 64,
          "time": 65.20000000000022,
          "velocity": 1,
          "duration": 0.19166666666666288
        },
        {
          "name": "C#4",
          "midi": 61,
          "time": 65.40000000000022,
          "velocity": 0.5511811023622047,
          "duration": 0.19166666666666288
        },
        {
          "name": "A4",
          "midi": 69,
          "time": 65.60000000000022,
          "velocity": 1,
          "duration": 1.4000000000000057
        },
        {
          "name": "E4",
          "midi": 64,
          "time": 67.20000000000023,
          "velocity": 1,
          "duration": 0.19166666666666288
        },
        {
          "name": "B3",
          "midi": 59,
          "time": 67.40000000000023,
          "velocity": 0.5511811023622047,
          "duration": 0.19166666666666288
        },
        {
          "name": "G#3",
          "midi": 56,
          "time": 67.60000000000024,
          "velocity": 0.5511811023622047,
          "duration": 0.19166666666666288
        },
        {
          "name": "E4",
          "midi": 64,
          "time": 67.80000000000024,
          "velocity": 1,
          "duration": 0.19166666666666288
        },
        {
          "name": "B3",
          "midi": 59,
          "time": 68.00000000000024,
          "velocity": 0.5511811023622047,
          "duration": 0.19166666666666288
        },
        {
          "name": "G#3",
          "midi": 56,
          "time": 68.20000000000024,
          "velocity": 0.5511811023622047,
          "duration": 0.19166666666666288
        },
        {
          "name": "E4",
          "midi": 64,
          "time": 68.40000000000025,
          "velocity": 1,
          "duration": 0.19166666666666288
        },
        {
          "name": "B3",
          "midi": 59,
          "time": 68.60000000000025,
          "velocity": 0.5511811023622047,
          "duration": 0.19166666666666288
        },
        {
          "name": "G#4",
          "midi": 68,
          "time": 68.80000000000025,
          "velocity": 1,
          "duration": 1.4000000000000057
        },
        {
          "name": "D4",
          "midi": 62,
          "time": 70.40000000000026,
          "velocity": 1,
          "duration": 0.19166666666666288
        },
        {
          "name": "B3",
          "midi": 59,
          "time": 70.60000000000026,
          "velocity": 0.5511811023622047,
          "duration": 0.19166666666666288
        },
        {
          "name": "G3",
          "midi": 55,
          "time": 70.80000000000027,
          "velocity": 0.5511811023622047,
          "duration": 0.19166666666666288
        },
        {
          "name": "D4",
          "midi": 62,
          "time": 71.00000000000027,
          "velocity": 1,
          "duration": 0.19166666666666288
        },
        {
          "name": "B3",
          "midi": 59,
          "time": 71.20000000000027,
          "velocity": 0.5511811023622047,
          "duration": 0.19166666666666288
        },
        {
          "name": "G3",
          "midi": 55,
          "time": 71.40000000000028,
          "velocity": 0.5511811023622047,
          "duration": 0.19166666666666288
        },
        {
          "name": "D4",
          "midi": 62,
          "time": 71.60000000000028,
          "velocity": 1,
          "duration": 0.19166666666666288
        },
        {
          "name": "B3",
          "midi": 59,
          "time": 71.80000000000028,
          "velocity": 0.5511811023622047,
          "duration": 0.19166666666666288
        },
        {
          "name": "G4",
          "midi": 67,
          "time": 72.00000000000028,
          "velocity": 1,
          "duration": 1.4000000000000057
        },
        {
          "name": "D4",
          "midi": 62,
          "time": 73.60000000000029,
          "velocity": 1,
          "duration": 0.19166666666666288
        },
        {
          "name": "A3",
          "midi": 57,
          "time": 73.8000000000003,
          "velocity": 0.5511811023622047,
          "duration": 0.19166666666666288
        },
        {
          "name": "F#3",
          "midi": 54,
          "time": 74.0000000000003,
          "velocity": 0.5511811023622047,
          "duration": 0.19166666666666288
        },
        {
          "name": "D4",
          "midi": 62,
          "time": 74.2000000000003,
          "velocity": 1,
          "duration": 0.19166666666666288
        },
        {
          "name": "A3",
          "midi": 57,
          "time": 74.4000000000003,
          "velocity": 0.5511811023622047,
          "duration": 0.19166666666666288
        },
        {
          "name": "F#3",
          "midi": 54,
          "time": 74.6000000000003,
          "velocity": 0.5511811023622047,
          "duration": 0.19166666666666288
        },
        {
          "name": "D4",
          "midi": 62,
          "time": 74.80000000000031,
          "velocity": 1,
          "duration": 0.19166666666666288
        },
        {
          "name": "A3",
          "midi": 57,
          "time": 75.00000000000031,
          "velocity": 0.5511811023622047,
          "duration": 0.19166666666666288
        },
        {
          "name": "F#4",
          "midi": 66,
          "time": 75.20000000000032,
          "velocity": 1,
          "duration": 1.4000000000000057
        },
        {
          "name": "E4",
          "midi": 64,
          "time": 76.80000000000032,
          "velocity": 1,
          "duration": 0.19166666666666288
        },
        {
          "name": "B3",
          "midi": 59,
          "time": 77.00000000000033,
          "velocity": 0.5511811023622047,
          "duration": 0.19166666666666288
        },
        {
          "name": "G3",
          "midi": 55,
          "time": 77.20000000000033,
          "velocity": 0.5511811023622047,
          "duration": 0.19166666666666288
        },
        {
          "name": "E4",
          "midi": 64,
          "time": 77.40000000000033,
          "velocity": 1,
          "duration": 0.19166666666666288
        },
        {
          "name": "B3",
          "midi": 59,
          "time": 77.60000000000034,
          "velocity": 0.5511811023622047,
          "duration": 0.19166666666666288
        },
        {
          "name": "G3",
          "midi": 55,
          "time": 77.80000000000034,
          "velocity": 0.5511811023622047,
          "duration": 0.19166666666666288
        },
        {
          "name": "E4",
          "midi": 64,
          "time": 78.00000000000034,
          "velocity": 1,
          "duration": 0.19166666666666288
        },
        {
          "name": "B3",
          "midi": 59,
          "time": 78.20000000000034,
          "velocity": 0.5511811023622047,
          "duration": 0.19166666666666288
        },
        {
          "name": "G4",
          "midi": 67,
          "time": 78.40000000000035,
          "velocity": 1,
          "duration": 1.5916666666666686
        },
        {
          "name": "F#4",
          "midi": 66,
          "time": 80.00000000000036,
          "velocity": 1,
          "duration": 0.19166666666666288
        },
        {
          "name": "C#4",
          "midi": 61,
          "time": 80.20000000000036,
          "velocity": 0.5511811023622047,
          "duration": 0.19166666666666288
        },
        {
          "name": "A#3",
          "midi": 58,
          "time": 80.40000000000036,
          "velocity": 0.5511811023622047,
          "duration": 0.19166666666666288
        },
        {
          "name": "F#4",
          "midi": 66,
          "time": 80.60000000000036,
          "velocity": 1,
          "duration": 0.19166666666666288
        },
        {
          "name": "C#4",
          "midi": 61,
          "time": 80.80000000000037,
          "velocity": 0.5511811023622047,
          "duration": 0.19166666666666288
        },
        {
          "name": "A#3",
          "midi": 58,
          "time": 81.00000000000037,
          "velocity": 0.5511811023622047,
          "duration": 0.19166666666666288
        },
        {
          "name": "F#4",
          "midi": 66,
          "time": 81.20000000000037,
          "velocity": 1,
          "duration": 0.19166666666666288
        },
        {
          "name": "C#4",
          "midi": 61,
          "time": 81.40000000000038,
          "velocity": 0.5511811023622047,
          "duration": 0.19166666666666288
        },
        {
          "name": "A#4",
          "midi": 70,
          "time": 81.60000000000038,
          "velocity": 1,
          "duration": 1
        },
        {
          "name": "F#4",
          "midi": 66,
          "time": 83.20000000000037,
          "velocity": 1,
          "duration": 0.19166666666666288
        },
        {
          "name": "D4",
          "midi": 62,
          "time": 83.40000000000038,
          "velocity": 0.5511811023622047,
          "duration": 0.19166666666666288
        },
        {
          "name": "B3",
          "midi": 59,
          "time": 83.60000000000038,
          "velocity": 0.5511811023622047,
          "duration": 0.19166666666666288
        },
        {
          "name": "F#4",
          "midi": 66,
          "time": 83.80000000000038,
          "velocity": 1,
          "duration": 0.19166666666666288
        },
        {
          "name": "D4",
          "midi": 62,
          "time": 84.00000000000038,
          "velocity": 0.5511811023622047,
          "duration": 0.19166666666666288
        },
        {
          "name": "B3",
          "midi": 59,
          "time": 84.20000000000039,
          "velocity": 0.5511811023622047,
          "duration": 0.19166666666666288
        },
        {
          "name": "F#4",
          "midi": 66,
          "time": 84.40000000000039,
          "velocity": 1,
          "duration": 0.19166666666666288
        },
        {
          "name": "D4",
          "midi": 62,
          "time": 84.60000000000039,
          "velocity": 0.5511811023622047,
          "duration": 0.19166666666666288
        },
        {
          "name": "B4",
          "midi": 71,
          "time": 84.8000000000004,
          "velocity": 1,
          "duration": 1.2000000000000028
        },
        {
          "name": "F#4",
          "midi": 66,
          "time": 86.4000000000004,
          "velocity": 1,
          "duration": 0.19166666666666288
        },
        {
          "name": "C#4",
          "midi": 61,
          "time": 86.6000000000004,
          "velocity": 0.5511811023622047,
          "duration": 0.19166666666666288
        },
        {
          "name": "A#3",
          "midi": 58,
          "time": 86.80000000000041,
          "velocity": 0.5511811023622047,
          "duration": 0.19166666666666288
        },
        {
          "name": "F#4",
          "midi": 66,
          "time": 87.00000000000041,
          "velocity": 1,
          "duration": 0.19166666666666288
        },
        {
          "name": "C#4",
          "midi": 61,
          "time": 87.20000000000041,
          "velocity": 0.5511811023622047,
          "duration": 0.19166666666666288
        },
        {
          "name": "A#3",
          "midi": 58,
          "time": 87.40000000000042,
          "velocity": 0.5511811023622047,
          "duration": 0.19166666666666288
        },
        {
          "name": "F#4",
          "midi": 66,
          "time": 87.60000000000042,
          "velocity": 1,
          "duration": 0.19166666666666288
        },
        {
          "name": "C#4",
          "midi": 61,
          "time": 87.80000000000042,
          "velocity": 0.5511811023622047,
          "duration": 0.19166666666666288
        },
        {
          "name": "A#4",
          "midi": 70,
          "time": 88.00000000000043,
          "velocity": 1,
          "duration": 1
        },
        {
          "name": "E4",
          "midi": 64,
          "time": 89.60000000000042,
          "velocity": 1,
          "duration": 0.19166666666666288
        },
        {
          "name": "C#4",
          "midi": 61,
          "time": 89.80000000000042,
          "velocity": 0.5511811023622047,
          "duration": 0.19166666666666288
        },
        {
          "name": "A3",
          "midi": 57,
          "time": 90.00000000000043,
          "velocity": 0.5511811023622047,
          "duration": 0.19166666666666288
        },
        {
          "name": "E4",
          "midi": 64,
          "time": 90.20000000000043,
          "velocity": 1,
          "duration": 0.19166666666666288
        },
        {
          "name": "C#4",
          "midi": 61,
          "time": 90.40000000000043,
          "velocity": 0.5511811023622047,
          "duration": 0.19166666666666288
        },
        {
          "name": "A3",
          "midi": 57,
          "time": 90.60000000000043,
          "velocity": 0.5511811023622047,
          "duration": 0.19166666666666288
        },
        {
          "name": "E4",
          "midi": 64,
          "time": 90.80000000000044,
          "velocity": 1,
          "duration": 0.19166666666666288
        },
        {
          "name": "C#4",
          "midi": 61,
          "time": 91.00000000000044,
          "velocity": 0.5511811023622047,
          "duration": 0.19166666666666288
        },
        {
          "name": "A4",
          "midi": 69,
          "time": 91.20000000000044,
          "velocity": 1,
          "duration": 1.4000000000000057
        },
        {
          "name": "E4",
          "midi": 64,
          "time": 92.80000000000045,
          "velocity": 1,
          "duration": 0.19166666666666288
        },
        {
          "name": "B3",
          "midi": 59,
          "time": 93.00000000000045,
          "velocity": 0.5511811023622047,
          "duration": 0.19166666666666288
        },
        {
          "name": "G#3",
          "midi": 56,
          "time": 93.20000000000046,
          "velocity": 0.5511811023622047,
          "duration": 0.19166666666666288
        },
        {
          "name": "E4",
          "midi": 64,
          "time": 93.40000000000046,
          "velocity": 1,
          "duration": 0.19166666666666288
        },
        {
          "name": "B3",
          "midi": 59,
          "time": 93.60000000000046,
          "velocity": 0.5511811023622047,
          "duration": 0.19166666666666288
        },
        {
          "name": "G#3",
          "midi": 56,
          "time": 93.80000000000047,
          "velocity": 0.5511811023622047,
          "duration": 0.19166666666666288
        },
        {
          "name": "E4",
          "midi": 64,
          "time": 94.00000000000047,
          "velocity": 1,
          "duration": 0.19166666666666288
        },
        {
          "name": "B3",
          "midi": 59,
          "time": 94.20000000000047,
          "velocity": 0.5511811023622047,
          "duration": 0.19166666666666288
        },
        {
          "name": "G#4",
          "midi": 68,
          "time": 94.40000000000047,
          "velocity": 1,
          "duration": 1.4000000000000057
        },
        {
          "name": "D4",
          "midi": 62,
          "time": 96.00000000000048,
          "velocity": 1,
          "duration": 0.19166666666666288
        },
        {
          "name": "B3",
          "midi": 59,
          "time": 96.20000000000049,
          "velocity": 0.5511811023622047,
          "duration": 0.19166666666666288
        },
        {
          "name": "G3",
          "midi": 55,
          "time": 96.40000000000049,
          "velocity": 0.5511811023622047,
          "duration": 0.19166666666666288
        },
        {
          "name": "D4",
          "midi": 62,
          "time": 96.60000000000049,
          "velocity": 1,
          "duration": 0.19166666666666288
        },
        {
          "name": "B3",
          "midi": 59,
          "time": 96.8000000000005,
          "velocity": 0.5511811023622047,
          "duration": 0.19166666666666288
        },
        {
          "name": "G3",
          "midi": 55,
          "time": 97.0000000000005,
          "velocity": 0.5511811023622047,
          "duration": 0.19166666666666288
        },
        {
          "name": "D4",
          "midi": 62,
          "time": 97.2000000000005,
          "velocity": 1,
          "duration": 0.19166666666666288
        },
        {
          "name": "B3",
          "midi": 59,
          "time": 97.4000000000005,
          "velocity": 0.5511811023622047,
          "duration": 0.19166666666666288
        },
        {
          "name": "G4",
          "midi": 67,
          "time": 97.6000000000005,
          "velocity": 1,
          "duration": 1.4000000000000057
        },
        {
          "name": "D4",
          "midi": 62,
          "time": 99.20000000000051,
          "velocity": 1,
          "duration": 0.19166666666666288
        },
        {
          "name": "A3",
          "midi": 57,
          "time": 99.40000000000052,
          "velocity": 0.5511811023622047,
          "duration": 0.19166666666666288
        },
        {
          "name": "F#3",
          "midi": 54,
          "time": 99.60000000000052,
          "velocity": 0.5511811023622047,
          "duration": 0.19166666666666288
        },
        {
          "name": "D4",
          "midi": 62,
          "time": 99.80000000000052,
          "velocity": 1,
          "duration": 0.19166666666666288
        },
        {
          "name": "A3",
          "midi": 57,
          "time": 100.00000000000053,
          "velocity": 0.5511811023622047,
          "duration": 0.19166666666666288
        },
        {
          "name": "F#3",
          "midi": 54,
          "time": 100.20000000000053,
          "velocity": 0.5511811023622047,
          "duration": 0.19166666666666288
        },
        {
          "name": "D4",
          "midi": 62,
          "time": 100.40000000000053,
          "velocity": 1,
          "duration": 0.19166666666666288
        },
        {
          "name": "A3",
          "midi": 57,
          "time": 100.60000000000053,
          "velocity": 0.5511811023622047,
          "duration": 0.19166666666666288
        },
        {
          "name": "F#4",
          "midi": 66,
          "time": 100.80000000000054,
          "velocity": 1,
          "duration": 1.4000000000000057
        },
        {
          "name": "E4",
          "midi": 64,
          "time": 102.40000000000055,
          "velocity": 1,
          "duration": 0.19166666666666288
        },
        {
          "name": "B3",
          "midi": 59,
          "time": 102.60000000000055,
          "velocity": 0.5511811023622047,
          "duration": 0.19166666666666288
        },
        {
          "name": "G3",
          "midi": 55,
          "time": 102.80000000000055,
          "velocity": 0.5511811023622047,
          "duration": 0.19166666666666288
        },
        {
          "name": "E4",
          "midi": 64,
          "time": 103.00000000000055,
          "velocity": 1,
          "duration": 0.19166666666666288
        },
        {
          "name": "B3",
          "midi": 59,
          "time": 103.20000000000056,
          "velocity": 0.5511811023622047,
          "duration": 0.19166666666666288
        },
        {
          "name": "G3",
          "midi": 55,
          "time": 103.40000000000056,
          "velocity": 0.5511811023622047,
          "duration": 0.19166666666666288
        },
        {
          "name": "E4",
          "midi": 64,
          "time": 103.60000000000056,
          "velocity": 1,
          "duration": 0.19166666666666288
        },
        {
          "name": "B3",
          "midi": 59,
          "time": 103.80000000000057,
          "velocity": 0.5511811023622047,
          "duration": 0.19166666666666288
        },
        {
          "name": "G4",
          "midi": 67,
          "time": 104.00000000000057,
          "velocity": 1,
          "duration": 1.5916666666666686
        },
        {
          "name": "F#4",
          "midi": 66,
          "time": 105.60000000000058,
          "velocity": 1,
          "duration": 0.19166666666666288
        },
        {
          "name": "C#4",
          "midi": 61,
          "time": 105.80000000000058,
          "velocity": 0.5511811023622047,
          "duration": 0.19166666666666288
        },
        {
          "name": "A#3",
          "midi": 58,
          "time": 106.00000000000058,
          "velocity": 0.5511811023622047,
          "duration": 0.19166666666666288
        },
        {
          "name": "F#4",
          "midi": 66,
          "time": 106.20000000000059,
          "velocity": 1,
          "duration": 0.19166666666666288
        },
        {
          "name": "C#4",
          "midi": 61,
          "time": 106.40000000000059,
          "velocity": 0.5511811023622047,
          "duration": 0.19166666666666288
        },
        {
          "name": "A#3",
          "midi": 58,
          "time": 106.60000000000059,
          "velocity": 0.5511811023622047,
          "duration": 0.19166666666666288
        },
        {
          "name": "F#4",
          "midi": 66,
          "time": 106.8000000000006,
          "velocity": 1,
          "duration": 0.19166666666666288
        },
        {
          "name": "C#4",
          "midi": 61,
          "time": 107.0000000000006,
          "velocity": 0.5511811023622047,
          "duration": 0.19166666666666288
        },
        {
          "name": "A#4",
          "midi": 70,
          "time": 107.2000000000006,
          "velocity": 1,
          "duration": 1
        },
        {
          "name": "F#4",
          "midi": 66,
          "time": 134.4000000000006,
          "velocity": 1,
          "duration": 0.19166666666666288
        },
        {
          "name": "D4",
          "midi": 62,
          "time": 134.6000000000006,
          "velocity": 0.5511811023622047,
          "duration": 0.19166666666666288
        },
        {
          "name": "B3",
          "midi": 59,
          "time": 134.80000000000058,
          "velocity": 0.5511811023622047,
          "duration": 0.19166666666666288
        },
        {
          "name": "F#4",
          "midi": 66,
          "time": 135.00000000000057,
          "velocity": 1,
          "duration": 0.19166666666666288
        },
        {
          "name": "D4",
          "midi": 62,
          "time": 135.20000000000056,
          "velocity": 0.5511811023622047,
          "duration": 0.19166666666666288
        },
        {
          "name": "B3",
          "midi": 59,
          "time": 135.40000000000055,
          "velocity": 0.5511811023622047,
          "duration": 0.19166666666666288
        },
        {
          "name": "F#4",
          "midi": 66,
          "time": 135.60000000000053,
          "velocity": 1,
          "duration": 0.19166666666666288
        },
        {
          "name": "D4",
          "midi": 62,
          "time": 135.80000000000052,
          "velocity": 0.5511811023622047,
          "duration": 0.19166666666666288
        },
        {
          "name": "B4",
          "midi": 71,
          "time": 136.0000000000005,
          "velocity": 1,
          "duration": 1.1999999999999886
        },
        {
          "name": "F#4",
          "midi": 66,
          "time": 137.6000000000005,
          "velocity": 1,
          "duration": 0.19166666666666288
        },
        {
          "name": "C#4",
          "midi": 61,
          "time": 137.8000000000005,
          "velocity": 0.5511811023622047,
          "duration": 0.19166666666666288
        },
        {
          "name": "A#3",
          "midi": 58,
          "time": 138.00000000000048,
          "velocity": 0.5511811023622047,
          "duration": 0.19166666666666288
        },
        {
          "name": "F#4",
          "midi": 66,
          "time": 138.20000000000047,
          "velocity": 1,
          "duration": 0.19166666666666288
        },
        {
          "name": "C#4",
          "midi": 61,
          "time": 138.40000000000046,
          "velocity": 0.5511811023622047,
          "duration": 0.19166666666666288
        },
        {
          "name": "A#3",
          "midi": 58,
          "time": 138.60000000000045,
          "velocity": 0.5511811023622047,
          "duration": 0.19166666666666288
        },
        {
          "name": "F#4",
          "midi": 66,
          "time": 138.80000000000044,
          "velocity": 1,
          "duration": 0.19166666666666288
        },
        {
          "name": "C#4",
          "midi": 61,
          "time": 139.00000000000043,
          "velocity": 0.5511811023622047,
          "duration": 0.19166666666666288
        },
        {
          "name": "A#4",
          "midi": 70,
          "time": 139.20000000000041,
          "velocity": 1,
          "duration": 1
        },
        {
          "name": "E4",
          "midi": 64,
          "time": 140.8000000000004,
          "velocity": 1,
          "duration": 0.19166666666666288
        },
        {
          "name": "C#4",
          "midi": 61,
          "time": 141.0000000000004,
          "velocity": 0.5511811023622047,
          "duration": 0.19166666666666288
        },
        {
          "name": "A3",
          "midi": 57,
          "time": 141.2000000000004,
          "velocity": 0.5511811023622047,
          "duration": 0.19166666666666288
        },
        {
          "name": "E4",
          "midi": 64,
          "time": 141.40000000000038,
          "velocity": 1,
          "duration": 0.19166666666666288
        },
        {
          "name": "C#4",
          "midi": 61,
          "time": 141.60000000000036,
          "velocity": 0.5511811023622047,
          "duration": 0.19166666666666288
        },
        {
          "name": "A3",
          "midi": 57,
          "time": 141.80000000000035,
          "velocity": 0.5511811023622047,
          "duration": 0.19166666666666288
        },
        {
          "name": "E4",
          "midi": 64,
          "time": 142.00000000000034,
          "velocity": 1,
          "duration": 0.19166666666666288
        },
        {
          "name": "C#4",
          "midi": 61,
          "time": 142.20000000000033,
          "velocity": 0.5511811023622047,
          "duration": 0.19166666666666288
        },
        {
          "name": "A4",
          "midi": 69,
          "time": 142.40000000000032,
          "velocity": 1,
          "duration": 1.4000000000000057
        },
        {
          "name": "E4",
          "midi": 64,
          "time": 144.0000000000003,
          "velocity": 1,
          "duration": 0.19166666666666288
        },
        {
          "name": "B3",
          "midi": 59,
          "time": 144.2000000000003,
          "velocity": 0.5511811023622047,
          "duration": 0.19166666666666288
        },
        {
          "name": "G#3",
          "midi": 56,
          "time": 144.4000000000003,
          "velocity": 0.5511811023622047,
          "duration": 0.19166666666666288
        },
        {
          "name": "E4",
          "midi": 64,
          "time": 144.60000000000028,
          "velocity": 1,
          "duration": 0.19166666666666288
        },
        {
          "name": "B3",
          "midi": 59,
          "time": 144.80000000000027,
          "velocity": 0.5511811023622047,
          "duration": 0.19166666666666288
        },
        {
          "name": "G#3",
          "midi": 56,
          "time": 145.00000000000026,
          "velocity": 0.5511811023622047,
          "duration": 0.19166666666666288
        },
        {
          "name": "E4",
          "midi": 64,
          "time": 145.20000000000024,
          "velocity": 1,
          "duration": 0.19166666666666288
        },
        {
          "name": "B3",
          "midi": 59,
          "time": 145.40000000000023,
          "velocity": 0.5511811023622047,
          "duration": 0.19166666666666288
        },
        {
          "name": "G#4",
          "midi": 68,
          "time": 145.60000000000022,
          "velocity": 1,
          "duration": 1.4000000000000057
        },
        {
          "name": "D4",
          "midi": 62,
          "time": 147.20000000000022,
          "velocity": 1,
          "duration": 0.19166666666666288
        },
        {
          "name": "B3",
          "midi": 59,
          "time": 147.4000000000002,
          "velocity": 0.5511811023622047,
          "duration": 0.19166666666666288
        },
        {
          "name": "G3",
          "midi": 55,
          "time": 147.6000000000002,
          "velocity": 0.5511811023622047,
          "duration": 0.19166666666666288
        },
        {
          "name": "D4",
          "midi": 62,
          "time": 147.80000000000018,
          "velocity": 1,
          "duration": 0.19166666666666288
        },
        {
          "name": "B3",
          "midi": 59,
          "time": 148.00000000000017,
          "velocity": 0.5511811023622047,
          "duration": 0.19166666666666288
        },
        {
          "name": "G3",
          "midi": 55,
          "time": 148.20000000000016,
          "velocity": 0.5511811023622047,
          "duration": 0.19166666666666288
        },
        {
          "name": "D4",
          "midi": 62,
          "time": 148.40000000000015,
          "velocity": 1,
          "duration": 0.19166666666666288
        },
        {
          "name": "B3",
          "midi": 59,
          "time": 148.60000000000014,
          "velocity": 0.5511811023622047,
          "duration": 0.19166666666666288
        },
        {
          "name": "G4",
          "midi": 67,
          "time": 148.80000000000013,
          "velocity": 1,
          "duration": 1.4000000000000057
        },
        {
          "name": "D4",
          "midi": 62,
          "time": 150.40000000000012,
          "velocity": 1,
          "duration": 0.19166666666666288
        },
        {
          "name": "A3",
          "midi": 57,
          "time": 150.6000000000001,
          "velocity": 0.5511811023622047,
          "duration": 0.19166666666666288
        },
        {
          "name": "F#3",
          "midi": 54,
          "time": 150.8000000000001,
          "velocity": 0.5511811023622047,
          "duration": 0.19166666666666288
        },
        {
          "name": "D4",
          "midi": 62,
          "time": 151.00000000000009,
          "velocity": 1,
          "duration": 0.19166666666666288
        },
        {
          "name": "A3",
          "midi": 57,
          "time": 151.20000000000007,
          "velocity": 0.5511811023622047,
          "duration": 0.19166666666666288
        },
        {
          "name": "F#3",
          "midi": 54,
          "time": 151.40000000000006,
          "velocity": 0.5511811023622047,
          "duration": 0.19166666666666288
        },
        {
          "name": "D4",
          "midi": 62,
          "time": 151.60000000000005,
          "velocity": 1,
          "duration": 0.19166666666666288
        },
        {
          "name": "A3",
          "midi": 57,
          "time": 151.80000000000004,
          "velocity": 0.5511811023622047,
          "duration": 0.19166666666666288
        },
        {
          "name": "F#4",
          "midi": 66,
          "time": 152.00000000000003,
          "velocity": 1,
          "duration": 1.4000000000000057
        },
        {
          "name": "E4",
          "midi": 64,
          "time": 153.60000000000002,
          "velocity": 1,
          "duration": 0.19166666666666288
        },
        {
          "name": "B3",
          "midi": 59,
          "time": 153.8,
          "velocity": 0.5511811023622047,
          "duration": 0.19166666666666288
        },
        {
          "name": "G3",
          "midi": 55,
          "time": 154,
          "velocity": 0.5511811023622047,
          "duration": 0.19166666666666288
        },
        {
          "name": "E4",
          "midi": 64,
          "time": 154.2,
          "velocity": 1,
          "duration": 0.19166666666666288
        },
        {
          "name": "B3",
          "midi": 59,
          "time": 154.39999999999998,
          "velocity": 0.5511811023622047,
          "duration": 0.19166666666666288
        },
        {
          "name": "G3",
          "midi": 55,
          "time": 154.59999999999997,
          "velocity": 0.5511811023622047,
          "duration": 0.19166666666666288
        },
        {
          "name": "E4",
          "midi": 64,
          "time": 154.79999999999995,
          "velocity": 1,
          "duration": 0.19166666666666288
        },
        {
          "name": "B3",
          "midi": 59,
          "time": 154.99999999999994,
          "velocity": 0.5511811023622047,
          "duration": 0.19166666666666288
        },
        {
          "name": "G4",
          "midi": 67,
          "time": 155.19999999999993,
          "velocity": 1,
          "duration": 1.5916666666666686
        },
        {
          "name": "F#4",
          "midi": 66,
          "time": 156.79999999999993,
          "velocity": 1,
          "duration": 0.19166666666666288
        },
        {
          "name": "C#4",
          "midi": 61,
          "time": 156.99999999999991,
          "velocity": 0.5511811023622047,
          "duration": 0.19166666666666288
        },
        {
          "name": "A#3",
          "midi": 58,
          "time": 157.1999999999999,
          "velocity": 0.5511811023622047,
          "duration": 0.19166666666666288
        },
        {
          "name": "F#4",
          "midi": 66,
          "time": 157.3999999999999,
          "velocity": 1,
          "duration": 0.19166666666666288
        },
        {
          "name": "C#4",
          "midi": 61,
          "time": 157.59999999999988,
          "velocity": 0.5511811023622047,
          "duration": 0.19166666666666288
        },
        {
          "name": "A#3",
          "midi": 58,
          "time": 157.79999999999987,
          "velocity": 0.5511811023622047,
          "duration": 0.19166666666666288
        },
        {
          "name": "F#4",
          "midi": 66,
          "time": 157.99999999999986,
          "velocity": 1,
          "duration": 0.19166666666666288
        },
        {
          "name": "C#4",
          "midi": 61,
          "time": 158.19999999999985,
          "velocity": 0.5511811023622047,
          "duration": 0.19166666666666288
        },
        {
          "name": "A#4",
          "midi": 70,
          "time": 158.39999999999984,
          "velocity": 1,
          "duration": 1
        },
        {
          "name": "F#4",
          "midi": 66,
          "time": 159.99999999999983,
          "velocity": 1,
          "duration": 0.19166666666666288
        },
        {
          "name": "D4",
          "midi": 62,
          "time": 160.19999999999982,
          "velocity": 0.5511811023622047,
          "duration": 0.19166666666666288
        },
        {
          "name": "B3",
          "midi": 59,
          "time": 160.3999999999998,
          "velocity": 0.5511811023622047,
          "duration": 0.19166666666666288
        },
        {
          "name": "F#4",
          "midi": 66,
          "time": 160.5999999999998,
          "velocity": 1,
          "duration": 0.19166666666666288
        },
        {
          "name": "D4",
          "midi": 62,
          "time": 160.79999999999978,
          "velocity": 0.5511811023622047,
          "duration": 0.19166666666666288
        },
        {
          "name": "B3",
          "midi": 59,
          "time": 160.99999999999977,
          "velocity": 0.5511811023622047,
          "duration": 0.19166666666666288
        },
        {
          "name": "F#4",
          "midi": 66,
          "time": 161.19999999999976,
          "velocity": 1,
          "duration": 0.19166666666666288
        },
        {
          "name": "D4",
          "midi": 62,
          "time": 161.39999999999975,
          "velocity": 0.5511811023622047,
          "duration": 0.19166666666666288
        },
        {
          "name": "B4",
          "midi": 71,
          "time": 161.59999999999974,
          "velocity": 1,
          "duration": 1.1999999999999886
        },
        {
          "name": "F#4",
          "midi": 66,
          "time": 163.19999999999973,
          "velocity": 1,
          "duration": 0.19166666666666288
        },
        {
          "name": "C#4",
          "midi": 61,
          "time": 163.39999999999972,
          "velocity": 0.5511811023622047,
          "duration": 0.19166666666666288
        },
        {
          "name": "A#3",
          "midi": 58,
          "time": 163.5999999999997,
          "velocity": 0.5511811023622047,
          "duration": 0.19166666666666288
        },
        {
          "name": "F#4",
          "midi": 66,
          "time": 163.7999999999997,
          "velocity": 1,
          "duration": 0.19166666666666288
        },
        {
          "name": "C#4",
          "midi": 61,
          "time": 163.9999999999997,
          "velocity": 0.5511811023622047,
          "duration": 0.19166666666666288
        },
        {
          "name": "A#3",
          "midi": 58,
          "time": 164.19999999999968,
          "velocity": 0.5511811023622047,
          "duration": 0.19166666666666288
        },
        {
          "name": "F#4",
          "midi": 66,
          "time": 164.39999999999966,
          "velocity": 1,
          "duration": 0.19166666666666288
        },
        {
          "name": "C#4",
          "midi": 61,
          "time": 164.59999999999965,
          "velocity": 0.5511811023622047,
          "duration": 0.19166666666666288
        },
        {
          "name": "A#4",
          "midi": 70,
          "time": 164.79999999999964,
          "velocity": 1,
          "duration": 1
        },
        {
          "name": "E4",
          "midi": 64,
          "time": 166.39999999999964,
          "velocity": 1,
          "duration": 0.19166666666666288
        },
        {
          "name": "C#4",
          "midi": 61,
          "time": 166.59999999999962,
          "velocity": 0.5511811023622047,
          "duration": 0.19166666666666288
        },
        {
          "name": "A3",
          "midi": 57,
          "time": 166.7999999999996,
          "velocity": 0.5511811023622047,
          "duration": 0.19166666666666288
        },
        {
          "name": "E4",
          "midi": 64,
          "time": 166.9999999999996,
          "velocity": 1,
          "duration": 0.19166666666666288
        },
        {
          "name": "C#4",
          "midi": 61,
          "time": 167.1999999999996,
          "velocity": 0.5511811023622047,
          "duration": 0.19166666666666288
        },
        {
          "name": "A3",
          "midi": 57,
          "time": 167.39999999999958,
          "velocity": 0.5511811023622047,
          "duration": 0.19166666666666288
        },
        {
          "name": "E4",
          "midi": 64,
          "time": 167.59999999999957,
          "velocity": 1,
          "duration": 0.19166666666666288
        },
        {
          "name": "C#4",
          "midi": 61,
          "time": 167.79999999999956,
          "velocity": 0.5511811023622047,
          "duration": 0.19166666666666288
        },
        {
          "name": "A4",
          "midi": 69,
          "time": 167.99999999999955,
          "velocity": 1,
          "duration": 1.4000000000000057
        },
        {
          "name": "E4",
          "midi": 64,
          "time": 169.59999999999954,
          "velocity": 1,
          "duration": 0.19166666666666288
        },
        {
          "name": "B3",
          "midi": 59,
          "time": 169.79999999999953,
          "velocity": 0.5511811023622047,
          "duration": 0.19166666666666288
        },
        {
          "name": "G#3",
          "midi": 56,
          "time": 169.99999999999952,
          "velocity": 0.5511811023622047,
          "duration": 0.19166666666666288
        },
        {
          "name": "E4",
          "midi": 64,
          "time": 170.1999999999995,
          "velocity": 1,
          "duration": 0.19166666666666288
        },
        {
          "name": "B3",
          "midi": 59,
          "time": 170.3999999999995,
          "velocity": 0.5511811023622047,
          "duration": 0.19166666666666288
        },
        {
          "name": "G#3",
          "midi": 56,
          "time": 170.59999999999948,
          "velocity": 0.5511811023622047,
          "duration": 0.19166666666666288
        },
        {
          "name": "E4",
          "midi": 64,
          "time": 170.79999999999947,
          "velocity": 1,
          "duration": 0.19166666666666288
        },
        {
          "name": "B3",
          "midi": 59,
          "time": 170.99999999999946,
          "velocity": 0.5511811023622047,
          "duration": 0.19166666666666288
        },
        {
          "name": "G#4",
          "midi": 68,
          "time": 171.19999999999945,
          "velocity": 1,
          "duration": 1.4000000000000057
        },
        {
          "name": "D4",
          "midi": 62,
          "time": 172.79999999999944,
          "velocity": 1,
          "duration": 0.19166666666666288
        },
        {
          "name": "B3",
          "midi": 59,
          "time": 172.99999999999943,
          "velocity": 0.5511811023622047,
          "duration": 0.19166666666666288
        },
        {
          "name": "G3",
          "midi": 55,
          "time": 173.19999999999942,
          "velocity": 0.5511811023622047,
          "duration": 0.19166666666666288
        },
        {
          "name": "D4",
          "midi": 62,
          "time": 173.3999999999994,
          "velocity": 1,
          "duration": 0.19166666666666288
        },
        {
          "name": "B3",
          "midi": 59,
          "time": 173.5999999999994,
          "velocity": 0.5511811023622047,
          "duration": 0.19166666666666288
        },
        {
          "name": "G3",
          "midi": 55,
          "time": 173.7999999999994,
          "velocity": 0.5511811023622047,
          "duration": 0.19166666666666288
        },
        {
          "name": "D4",
          "midi": 62,
          "time": 173.99999999999937,
          "velocity": 1,
          "duration": 0.19166666666666288
        },
        {
          "name": "B3",
          "midi": 59,
          "time": 174.19999999999936,
          "velocity": 0.5511811023622047,
          "duration": 0.19166666666666288
        },
        {
          "name": "G4",
          "midi": 67,
          "time": 174.39999999999935,
          "velocity": 1,
          "duration": 1.4000000000000057
        },
        {
          "name": "D4",
          "midi": 62,
          "time": 175.99999999999935,
          "velocity": 1,
          "duration": 0.19166666666666288
        },
        {
          "name": "A3",
          "midi": 57,
          "time": 176.19999999999933,
          "velocity": 0.5511811023622047,
          "duration": 0.19166666666666288
        },
        {
          "name": "F#3",
          "midi": 54,
          "time": 176.39999999999932,
          "velocity": 0.5511811023622047,
          "duration": 0.19166666666666288
        },
        {
          "name": "D4",
          "midi": 62,
          "time": 176.5999999999993,
          "velocity": 1,
          "duration": 0.19166666666666288
        },
        {
          "name": "A3",
          "midi": 57,
          "time": 176.7999999999993,
          "velocity": 0.5511811023622047,
          "duration": 0.19166666666666288
        },
        {
          "name": "F#3",
          "midi": 54,
          "time": 176.9999999999993,
          "velocity": 0.5511811023622047,
          "duration": 0.19166666666666288
        },
        {
          "name": "D4",
          "midi": 62,
          "time": 177.19999999999928,
          "velocity": 1,
          "duration": 0.19166666666666288
        },
        {
          "name": "A3",
          "midi": 57,
          "time": 177.39999999999927,
          "velocity": 0.5511811023622047,
          "duration": 0.19166666666666288
        },
        {
          "name": "F#4",
          "midi": 66,
          "time": 177.59999999999926,
          "velocity": 1,
          "duration": 1.4000000000000057
        },
        {
          "name": "E4",
          "midi": 64,
          "time": 179.19999999999925,
          "velocity": 1,
          "duration": 0.19166666666666288
        },
        {
          "name": "B3",
          "midi": 59,
          "time": 179.39999999999924,
          "velocity": 0.5511811023622047,
          "duration": 0.19166666666666288
        },
        {
          "name": "G3",
          "midi": 55,
          "time": 179.59999999999923,
          "velocity": 0.5511811023622047,
          "duration": 0.19166666666666288
        },
        {
          "name": "E4",
          "midi": 64,
          "time": 179.79999999999922,
          "velocity": 1,
          "duration": 0.19166666666666288
        },
        {
          "name": "B3",
          "midi": 59,
          "time": 179.9999999999992,
          "velocity": 0.5511811023622047,
          "duration": 0.19166666666666288
        },
        {
          "name": "G3",
          "midi": 55,
          "time": 180.1999999999992,
          "velocity": 0.5511811023622047,
          "duration": 0.19166666666666288
        },
        {
          "name": "E4",
          "midi": 64,
          "time": 180.39999999999918,
          "velocity": 1,
          "duration": 0.19166666666666288
        },
        {
          "name": "B3",
          "midi": 59,
          "time": 180.59999999999917,
          "velocity": 0.5511811023622047,
          "duration": 0.19166666666666288
        },
        {
          "name": "G4",
          "midi": 67,
          "time": 180.79999999999916,
          "velocity": 1,
          "duration": 1.5916666666666686
        },
        {
          "name": "F#4",
          "midi": 66,
          "time": 182.39999999999915,
          "velocity": 1,
          "duration": 0.19166666666666288
        },
        {
          "name": "C#4",
          "midi": 61,
          "time": 182.59999999999914,
          "velocity": 0.5511811023622047,
          "duration": 0.19166666666666288
        },
        {
          "name": "A#3",
          "midi": 58,
          "time": 182.79999999999913,
          "velocity": 0.5511811023622047,
          "duration": 0.19166666666666288
        },
        {
          "name": "F#4",
          "midi": 66,
          "time": 182.99999999999912,
          "velocity": 1,
          "duration": 0.19166666666666288
        },
        {
          "name": "C#4",
          "midi": 61,
          "time": 183.1999999999991,
          "velocity": 0.5511811023622047,
          "duration": 0.19166666666666288
        },
        {
          "name": "A#3",
          "midi": 58,
          "time": 183.3999999999991,
          "velocity": 0.5511811023622047,
          "duration": 0.19166666666666288
        },
        {
          "name": "F#4",
          "midi": 66,
          "time": 183.59999999999908,
          "velocity": 1,
          "duration": 0.19166666666666288
        },
        {
          "name": "C#4",
          "midi": 61,
          "time": 183.79999999999907,
          "velocity": 0.5511811023622047,
          "duration": 0.19166666666666288
        },
        {
          "name": "A#4",
          "midi": 70,
          "time": 183.99999999999906,
          "velocity": 1,
          "duration": 1
        },
        {
          "name": "F#4",
          "midi": 66,
          "time": 211.19999999999908,
          "velocity": 1,
          "duration": 0.19166666666666288
        },
        {
          "name": "D4",
          "midi": 62,
          "time": 211.39999999999907,
          "velocity": 0.5511811023622047,
          "duration": 0.19166666666666288
        },
        {
          "name": "B3",
          "midi": 59,
          "time": 211.59999999999906,
          "velocity": 0.5511811023622047,
          "duration": 0.19166666666666288
        },
        {
          "name": "F#4",
          "midi": 66,
          "time": 211.79999999999905,
          "velocity": 1,
          "duration": 0.19166666666666288
        },
        {
          "name": "D4",
          "midi": 62,
          "time": 211.99999999999903,
          "velocity": 0.5511811023622047,
          "duration": 0.19166666666666288
        },
        {
          "name": "B3",
          "midi": 59,
          "time": 212.19999999999902,
          "velocity": 0.5511811023622047,
          "duration": 0.19166666666666288
        },
        {
          "name": "F#4",
          "midi": 66,
          "time": 212.399999999999,
          "velocity": 1,
          "duration": 0.19166666666666288
        },
        {
          "name": "D4",
          "midi": 62,
          "time": 212.599999999999,
          "velocity": 0.5511811023622047,
          "duration": 0.19166666666666288
        },
        {
          "name": "B4",
          "midi": 71,
          "time": 212.799999999999,
          "velocity": 1,
          "duration": 1.1999999999999886
        },
        {
          "name": "F#4",
          "midi": 66,
          "time": 214.39999999999898,
          "velocity": 1,
          "duration": 0.19166666666666288
        },
        {
          "name": "C#4",
          "midi": 61,
          "time": 214.59999999999897,
          "velocity": 0.5511811023622047,
          "duration": 0.19166666666666288
        },
        {
          "name": "A#3",
          "midi": 58,
          "time": 214.79999999999896,
          "velocity": 0.5511811023622047,
          "duration": 0.19166666666666288
        },
        {
          "name": "F#4",
          "midi": 66,
          "time": 214.99999999999895,
          "velocity": 1,
          "duration": 0.19166666666666288
        },
        {
          "name": "C#4",
          "midi": 61,
          "time": 215.19999999999894,
          "velocity": 0.5511811023622047,
          "duration": 0.19166666666666288
        },
        {
          "name": "A#3",
          "midi": 58,
          "time": 215.39999999999893,
          "velocity": 0.5511811023622047,
          "duration": 0.19166666666666288
        },
        {
          "name": "F#4",
          "midi": 66,
          "time": 215.59999999999891,
          "velocity": 1,
          "duration": 0.19166666666666288
        },
        {
          "name": "C#4",
          "midi": 61,
          "time": 215.7999999999989,
          "velocity": 0.5511811023622047,
          "duration": 0.19166666666666288
        },
        {
          "name": "A#4",
          "midi": 70,
          "time": 215.9999999999989,
          "velocity": 1,
          "duration": 1
        },
        {
          "name": "E4",
          "midi": 64,
          "time": 217.5999999999989,
          "velocity": 1,
          "duration": 0.19166666666666288
        },
        {
          "name": "C#4",
          "midi": 61,
          "time": 217.79999999999887,
          "velocity": 0.5511811023622047,
          "duration": 0.19166666666666288
        },
        {
          "name": "A3",
          "midi": 57,
          "time": 217.99999999999886,
          "velocity": 0.5511811023622047,
          "duration": 0.19166666666666288
        },
        {
          "name": "E4",
          "midi": 64,
          "time": 218.19999999999885,
          "velocity": 1,
          "duration": 0.19166666666666288
        },
        {
          "name": "C#4",
          "midi": 61,
          "time": 218.39999999999884,
          "velocity": 0.5511811023622047,
          "duration": 0.19166666666666288
        },
        {
          "name": "A3",
          "midi": 57,
          "time": 218.59999999999883,
          "velocity": 0.5511811023622047,
          "duration": 0.19166666666666288
        },
        {
          "name": "E4",
          "midi": 64,
          "time": 218.79999999999882,
          "velocity": 1,
          "duration": 0.19166666666666288
        },
        {
          "name": "C#4",
          "midi": 61,
          "time": 218.9999999999988,
          "velocity": 0.5511811023622047,
          "duration": 0.19166666666666288
        },
        {
          "name": "A4",
          "midi": 69,
          "time": 219.1999999999988,
          "velocity": 1,
          "duration": 1.4000000000000057
        },
        {
          "name": "E4",
          "midi": 64,
          "time": 220.7999999999988,
          "velocity": 1,
          "duration": 0.19166666666666288
        },
        {
          "name": "B3",
          "midi": 59,
          "time": 220.99999999999878,
          "velocity": 0.5511811023622047,
          "duration": 0.19166666666666288
        },
        {
          "name": "G#3",
          "midi": 56,
          "time": 221.19999999999877,
          "velocity": 0.5511811023622047,
          "duration": 0.19166666666666288
        },
        {
          "name": "E4",
          "midi": 64,
          "time": 221.39999999999876,
          "velocity": 1,
          "duration": 0.19166666666666288
        },
        {
          "name": "B3",
          "midi": 59,
          "time": 221.59999999999874,
          "velocity": 0.5511811023622047,
          "duration": 0.19166666666666288
        },
        {
          "name": "G#3",
          "midi": 56,
          "time": 221.79999999999873,
          "velocity": 0.5511811023622047,
          "duration": 0.19166666666666288
        },
        {
          "name": "E4",
          "midi": 64,
          "time": 221.99999999999872,
          "velocity": 1,
          "duration": 0.19166666666666288
        },
        {
          "name": "B3",
          "midi": 59,
          "time": 222.1999999999987,
          "velocity": 0.5511811023622047,
          "duration": 0.19166666666666288
        },
        {
          "name": "G#4",
          "midi": 68,
          "time": 222.3999999999987,
          "velocity": 1,
          "duration": 1.4000000000000057
        },
        {
          "name": "D4",
          "midi": 62,
          "time": 223.9999999999987,
          "velocity": 1,
          "duration": 0.19166666666666288
        },
        {
          "name": "B3",
          "midi": 59,
          "time": 224.19999999999868,
          "velocity": 0.5511811023622047,
          "duration": 0.19166666666666288
        },
        {
          "name": "G3",
          "midi": 55,
          "time": 224.39999999999867,
          "velocity": 0.5511811023622047,
          "duration": 0.19166666666666288
        },
        {
          "name": "D4",
          "midi": 62,
          "time": 224.59999999999866,
          "velocity": 1,
          "duration": 0.19166666666666288
        },
        {
          "name": "B3",
          "midi": 59,
          "time": 224.79999999999865,
          "velocity": 0.5511811023622047,
          "duration": 0.19166666666666288
        },
        {
          "name": "G3",
          "midi": 55,
          "time": 224.99999999999864,
          "velocity": 0.5511811023622047,
          "duration": 0.19166666666666288
        },
        {
          "name": "D4",
          "midi": 62,
          "time": 225.19999999999862,
          "velocity": 1,
          "duration": 0.19166666666666288
        },
        {
          "name": "B3",
          "midi": 59,
          "time": 225.3999999999986,
          "velocity": 0.5511811023622047,
          "duration": 0.19166666666666288
        },
        {
          "name": "G4",
          "midi": 67,
          "time": 225.5999999999986,
          "velocity": 1,
          "duration": 1.4000000000000057
        },
        {
          "name": "D4",
          "midi": 62,
          "time": 227.1999999999986,
          "velocity": 1,
          "duration": 0.19166666666666288
        },
        {
          "name": "A3",
          "midi": 57,
          "time": 227.39999999999858,
          "velocity": 0.5511811023622047,
          "duration": 0.19166666666666288
        },
        {
          "name": "F#3",
          "midi": 54,
          "time": 227.59999999999857,
          "velocity": 0.5511811023622047,
          "duration": 0.19166666666666288
        },
        {
          "name": "D4",
          "midi": 62,
          "time": 227.79999999999856,
          "velocity": 1,
          "duration": 0.19166666666666288
        },
        {
          "name": "A3",
          "midi": 57,
          "time": 227.99999999999855,
          "velocity": 0.5511811023622047,
          "duration": 0.19166666666666288
        },
        {
          "name": "F#3",
          "midi": 54,
          "time": 228.19999999999854,
          "velocity": 0.5511811023622047,
          "duration": 0.19166666666666288
        },
        {
          "name": "D4",
          "midi": 62,
          "time": 228.39999999999853,
          "velocity": 1,
          "duration": 0.19166666666666288
        },
        {
          "name": "A3",
          "midi": 57,
          "time": 228.59999999999852,
          "velocity": 0.5511811023622047,
          "duration": 0.19166666666666288
        },
        {
          "name": "F#4",
          "midi": 66,
          "time": 228.7999999999985,
          "velocity": 1,
          "duration": 1.4000000000000057
        },
        {
          "name": "E4",
          "midi": 64,
          "time": 230.3999999999985,
          "velocity": 1,
          "duration": 0.19166666666666288
        },
        {
          "name": "B3",
          "midi": 59,
          "time": 230.5999999999985,
          "velocity": 0.5511811023622047,
          "duration": 0.19166666666666288
        },
        {
          "name": "G3",
          "midi": 55,
          "time": 230.79999999999848,
          "velocity": 0.5511811023622047,
          "duration": 0.19166666666666288
        },
        {
          "name": "E4",
          "midi": 64,
          "time": 230.99999999999847,
          "velocity": 1,
          "duration": 0.19166666666666288
        },
        {
          "name": "B3",
          "midi": 59,
          "time": 231.19999999999845,
          "velocity": 0.5511811023622047,
          "duration": 0.19166666666666288
        },
        {
          "name": "G3",
          "midi": 55,
          "time": 231.39999999999844,
          "velocity": 0.5511811023622047,
          "duration": 0.19166666666666288
        },
        {
          "name": "E4",
          "midi": 64,
          "time": 231.59999999999843,
          "velocity": 1,
          "duration": 0.19166666666666288
        },
        {
          "name": "B3",
          "midi": 59,
          "time": 231.79999999999842,
          "velocity": 0.5511811023622047,
          "duration": 0.19166666666666288
        },
        {
          "name": "G4",
          "midi": 67,
          "time": 231.9999999999984,
          "velocity": 1,
          "duration": 1.5916666666666686
        },
        {
          "name": "F#4",
          "midi": 66,
          "time": 233.5999999999984,
          "velocity": 1,
          "duration": 0.19166666666666288
        },
        {
          "name": "C#4",
          "midi": 61,
          "time": 233.7999999999984,
          "velocity": 0.5511811023622047,
          "duration": 0.19166666666666288
        },
        {
          "name": "A#3",
          "midi": 58,
          "time": 233.99999999999838,
          "velocity": 0.5511811023622047,
          "duration": 0.19166666666666288
        },
        {
          "name": "F#4",
          "midi": 66,
          "time": 234.19999999999837,
          "velocity": 1,
          "duration": 0.19166666666666288
        },
        {
          "name": "C#4",
          "midi": 61,
          "time": 234.39999999999836,
          "velocity": 0.5511811023622047,
          "duration": 0.19166666666666288
        },
        {
          "name": "A#3",
          "midi": 58,
          "time": 234.59999999999835,
          "velocity": 0.5511811023622047,
          "duration": 0.19166666666666288
        },
        {
          "name": "F#4",
          "midi": 66,
          "time": 234.79999999999833,
          "velocity": 1,
          "duration": 0.19166666666666288
        },
        {
          "name": "C#4",
          "midi": 61,
          "time": 234.99999999999832,
          "velocity": 0.5511811023622047,
          "duration": 0.19166666666666288
        },
        {
          "name": "A#4",
          "midi": 70,
          "time": 235.1999999999983,
          "velocity": 1,
          "duration": 1
        },
        {
          "name": "F#4",
          "midi": 66,
          "time": 236.7999999999983,
          "velocity": 1,
          "duration": 0.19166666666666288
        },
        {
          "name": "D4",
          "midi": 62,
          "time": 236.9999999999983,
          "velocity": 0.5511811023622047,
          "duration": 0.19166666666666288
        },
        {
          "name": "B3",
          "midi": 59,
          "time": 237.19999999999828,
          "velocity": 0.5511811023622047,
          "duration": 0.19166666666666288
        },
        {
          "name": "F#4",
          "midi": 66,
          "time": 237.39999999999827,
          "velocity": 1,
          "duration": 0.19166666666666288
        },
        {
          "name": "D4",
          "midi": 62,
          "time": 237.59999999999826,
          "velocity": 0.5511811023622047,
          "duration": 0.19166666666666288
        },
        {
          "name": "B3",
          "midi": 59,
          "time": 237.79999999999825,
          "velocity": 0.5511811023622047,
          "duration": 0.19166666666666288
        },
        {
          "name": "F#4",
          "midi": 66,
          "time": 237.99999999999824,
          "velocity": 1,
          "duration": 0.19166666666666288
        },
        {
          "name": "D4",
          "midi": 62,
          "time": 238.19999999999823,
          "velocity": 0.5511811023622047,
          "duration": 0.19166666666666288
        },
        {
          "name": "B4",
          "midi": 71,
          "time": 238.39999999999822,
          "velocity": 1,
          "duration": 1.1999999999999886
        },
        {
          "name": "F#4",
          "midi": 66,
          "time": 239.9999999999982,
          "velocity": 1,
          "duration": 0.19166666666666288
        },
        {
          "name": "C#4",
          "midi": 61,
          "time": 240.1999999999982,
          "velocity": 0.5511811023622047,
          "duration": 0.19166666666666288
        },
        {
          "name": "A#3",
          "midi": 58,
          "time": 240.3999999999982,
          "velocity": 0.5511811023622047,
          "duration": 0.19166666666666288
        },
        {
          "name": "F#4",
          "midi": 66,
          "time": 240.59999999999818,
          "velocity": 1,
          "duration": 0.19166666666666288
        },
        {
          "name": "C#4",
          "midi": 61,
          "time": 240.79999999999816,
          "velocity": 0.5511811023622047,
          "duration": 0.19166666666666288
        },
        {
          "name": "A#3",
          "midi": 58,
          "time": 240.99999999999815,
          "velocity": 0.5511811023622047,
          "duration": 0.19166666666666288
        },
        {
          "name": "F#4",
          "midi": 66,
          "time": 241.19999999999814,
          "velocity": 1,
          "duration": 0.19166666666666288
        },
        {
          "name": "C#4",
          "midi": 61,
          "time": 241.39999999999813,
          "velocity": 0.5511811023622047,
          "duration": 0.19166666666666288
        },
        {
          "name": "A#4",
          "midi": 70,
          "time": 241.59999999999812,
          "velocity": 1,
          "duration": 1
        },
        {
          "name": "E4",
          "midi": 64,
          "time": 243.1999999999981,
          "velocity": 1,
          "duration": 0.19166666666666288
        },
        {
          "name": "C#4",
          "midi": 61,
          "time": 243.3999999999981,
          "velocity": 0.5511811023622047,
          "duration": 0.19166666666666288
        },
        {
          "name": "A3",
          "midi": 57,
          "time": 243.5999999999981,
          "velocity": 0.5511811023622047,
          "duration": 0.19166666666666288
        },
        {
          "name": "E4",
          "midi": 64,
          "time": 243.79999999999808,
          "velocity": 1,
          "duration": 0.19166666666666288
        },
        {
          "name": "C#4",
          "midi": 61,
          "time": 243.99999999999807,
          "velocity": 0.5511811023622047,
          "duration": 0.19166666666666288
        },
        {
          "name": "A3",
          "midi": 57,
          "time": 244.19999999999806,
          "velocity": 0.5511811023622047,
          "duration": 0.19166666666666288
        },
        {
          "name": "E4",
          "midi": 64,
          "time": 244.39999999999804,
          "velocity": 1,
          "duration": 0.19166666666666288
        },
        {
          "name": "C#4",
          "midi": 61,
          "time": 244.59999999999803,
          "velocity": 0.5511811023622047,
          "duration": 0.19166666666666288
        },
        {
          "name": "A4",
          "midi": 69,
          "time": 244.79999999999802,
          "velocity": 1,
          "duration": 1.4000000000000057
        },
        {
          "name": "E4",
          "midi": 64,
          "time": 246.39999999999802,
          "velocity": 1,
          "duration": 0.19166666666666288
        },
        {
          "name": "B3",
          "midi": 59,
          "time": 246.599999999998,
          "velocity": 0.5511811023622047,
          "duration": 0.19166666666666288
        },
        {
          "name": "G#3",
          "midi": 56,
          "time": 246.799999999998,
          "velocity": 0.5511811023622047,
          "duration": 0.19166666666666288
        },
        {
          "name": "E4",
          "midi": 64,
          "time": 246.99999999999798,
          "velocity": 1,
          "duration": 0.19166666666666288
        },
        {
          "name": "B3",
          "midi": 59,
          "time": 247.19999999999797,
          "velocity": 0.5511811023622047,
          "duration": 0.19166666666666288
        },
        {
          "name": "G#3",
          "midi": 56,
          "time": 247.39999999999796,
          "velocity": 0.5511811023622047,
          "duration": 0.19166666666666288
        },
        {
          "name": "E4",
          "midi": 64,
          "time": 247.59999999999795,
          "velocity": 1,
          "duration": 0.19166666666666288
        },
        {
          "name": "B3",
          "midi": 59,
          "time": 247.79999999999794,
          "velocity": 0.5511811023622047,
          "duration": 0.19166666666666288
        },
        {
          "name": "G#4",
          "midi": 68,
          "time": 247.99999999999793,
          "velocity": 1,
          "duration": 1.4000000000000057
        },
        {
          "name": "D4",
          "midi": 62,
          "time": 249.59999999999792,
          "velocity": 1,
          "duration": 0.19166666666666288
        },
        {
          "name": "B3",
          "midi": 59,
          "time": 249.7999999999979,
          "velocity": 0.5511811023622047,
          "duration": 0.19166666666666288
        },
        {
          "name": "G3",
          "midi": 55,
          "time": 249.9999999999979,
          "velocity": 0.5511811023622047,
          "duration": 0.19166666666666288
        },
        {
          "name": "D4",
          "midi": 62,
          "time": 250.19999999999789,
          "velocity": 1,
          "duration": 0.19166666666666288
        },
        {
          "name": "B3",
          "midi": 59,
          "time": 250.39999999999787,
          "velocity": 0.5511811023622047,
          "duration": 0.19166666666666288
        },
        {
          "name": "G3",
          "midi": 55,
          "time": 250.59999999999786,
          "velocity": 0.5511811023622047,
          "duration": 0.19166666666666288
        },
        {
          "name": "D4",
          "midi": 62,
          "time": 250.79999999999785,
          "velocity": 1,
          "duration": 0.19166666666666288
        },
        {
          "name": "B3",
          "midi": 59,
          "time": 250.99999999999784,
          "velocity": 0.5511811023622047,
          "duration": 0.19166666666666288
        },
        {
          "name": "G4",
          "midi": 67,
          "time": 251.19999999999783,
          "velocity": 1,
          "duration": 1.4000000000000057
        },
        {
          "name": "D4",
          "midi": 62,
          "time": 252.79999999999782,
          "velocity": 1,
          "duration": 0.19166666666666288
        },
        {
          "name": "A3",
          "midi": 57,
          "time": 252.9999999999978,
          "velocity": 0.5511811023622047,
          "duration": 0.19166666666666288
        },
        {
          "name": "F#3",
          "midi": 54,
          "time": 253.1999999999978,
          "velocity": 0.5511811023622047,
          "duration": 0.19166666666666288
        },
        {
          "name": "D4",
          "midi": 62,
          "time": 253.3999999999978,
          "velocity": 1,
          "duration": 0.19166666666666288
        },
        {
          "name": "A3",
          "midi": 57,
          "time": 253.59999999999778,
          "velocity": 0.5511811023622047,
          "duration": 0.19166666666666288
        },
        {
          "name": "F#3",
          "midi": 54,
          "time": 253.79999999999777,
          "velocity": 0.5511811023622047,
          "duration": 0.19166666666666288
        },
        {
          "name": "D4",
          "midi": 62,
          "time": 253.99999999999775,
          "velocity": 1,
          "duration": 0.19166666666666288
        },
        {
          "name": "A3",
          "midi": 57,
          "time": 254.19999999999774,
          "velocity": 0.5511811023622047,
          "duration": 0.19166666666666288
        },
        {
          "name": "F#4",
          "midi": 66,
          "time": 254.39999999999773,
          "velocity": 1,
          "duration": 1.4000000000000057
        },
        {
          "name": "E4",
          "midi": 64,
          "time": 255.99999999999773,
          "velocity": 1,
          "duration": 0.19166666666666288
        },
        {
          "name": "B3",
          "midi": 59,
          "time": 256.1999999999977,
          "velocity": 0.5511811023622047,
          "duration": 0.19166666666666288
        },
        {
          "name": "G3",
          "midi": 55,
          "time": 256.3999999999977,
          "velocity": 0.5511811023622047,
          "duration": 0.19166666666666288
        },
        {
          "name": "E4",
          "midi": 64,
          "time": 256.5999999999977,
          "velocity": 1,
          "duration": 0.19166666666666288
        },
        {
          "name": "B3",
          "midi": 59,
          "time": 256.7999999999977,
          "velocity": 0.5511811023622047,
          "duration": 0.19166666666666288
        },
        {
          "name": "G3",
          "midi": 55,
          "time": 256.99999999999767,
          "velocity": 0.5511811023622047,
          "duration": 0.19166666666666288
        },
        {
          "name": "E4",
          "midi": 64,
          "time": 257.19999999999766,
          "velocity": 1,
          "duration": 0.19166666666666288
        },
        {
          "name": "B3",
          "midi": 59,
          "time": 257.39999999999765,
          "velocity": 0.5511811023622047,
          "duration": 0.19166666666666288
        },
        {
          "name": "G4",
          "midi": 67,
          "time": 257.59999999999764,
          "velocity": 1,
          "duration": 1.5916666666666401
        },
        {
          "name": "F#4",
          "midi": 66,
          "time": 259.1999999999976,
          "velocity": 1,
          "duration": 0.19166666666666288
        },
        {
          "name": "C#4",
          "midi": 61,
          "time": 259.3999999999976,
          "velocity": 0.5511811023622047,
          "duration": 0.19166666666666288
        },
        {
          "name": "A#3",
          "midi": 58,
          "time": 259.5999999999976,
          "velocity": 0.5511811023622047,
          "duration": 0.19166666666666288
        },
        {
          "name": "F#4",
          "midi": 66,
          "time": 259.79999999999757,
          "velocity": 1,
          "duration": 0.19166666666666288
        },
        {
          "name": "C#4",
          "midi": 61,
          "time": 259.99999999999756,
          "velocity": 0.5511811023622047,
          "duration": 0.19166666666666288
        },
        {
          "name": "A#3",
          "midi": 58,
          "time": 260.19999999999754,
          "velocity": 0.5511811023622047,
          "duration": 0.19166666666666288
        },
        {
          "name": "F#4",
          "midi": 66,
          "time": 260.39999999999753,
          "velocity": 1,
          "duration": 0.19166666666666288
        },
        {
          "name": "C#3",
          "midi": 49,
          "time": 260.5999999999975,
          "velocity": 1,
          "duration": 0.15833333333335986
        },
        {
          "name": "F#3",
          "midi": 54,
          "time": 260.79999999999757,
          "velocity": 1,
          "duration": 0.17916666666667425
        },
        {
          "name": "F3",
          "midi": 53,
          "time": 260.99999999999756,
          "velocity": 0.984251968503937,
          "duration": 0.17916666666667425
        },
        {
          "name": "F#3",
          "midi": 54,
          "time": 261.19999999999754,
          "velocity": 0.8267716535433071,
          "duration": 0.19999999999998863
        },
        {
          "name": "F#4",
          "midi": 66,
          "time": 288.0041666666642,
          "velocity": 1,
          "duration": 0.19583333333332575
        },
        {
          "name": "D4",
          "midi": 62,
          "time": 288.2041666666642,
          "velocity": 0.5511811023622047,
          "duration": 0.19583333333332575
        },
        {
          "name": "B3",
          "midi": 59,
          "time": 288.4041666666642,
          "velocity": 0.5511811023622047,
          "duration": 0.19583333333332575
        },
        {
          "name": "F#4",
          "midi": 66,
          "time": 288.6041666666642,
          "velocity": 1,
          "duration": 0.19583333333332575
        },
        {
          "name": "D4",
          "midi": 62,
          "time": 288.8041666666642,
          "velocity": 0.5511811023622047,
          "duration": 0.19583333333332575
        },
        {
          "name": "B3",
          "midi": 59,
          "time": 289.00416666666416,
          "velocity": 0.5511811023622047,
          "duration": 0.19583333333332575
        },
        {
          "name": "F#4",
          "midi": 66,
          "time": 289.20416666666415,
          "velocity": 1,
          "duration": 0.19583333333332575
        },
        {
          "name": "D4",
          "midi": 62,
          "time": 289.40416666666414,
          "velocity": 0.5511811023622047,
          "duration": 0.19583333333332575
        },
        {
          "name": "B4",
          "midi": 71,
          "time": 289.6041666666641,
          "velocity": 1,
          "duration": 1.1999999999999886
        },
        {
          "name": "F#4",
          "midi": 66,
          "time": 291.2041666666641,
          "velocity": 1,
          "duration": 0.19583333333332575
        },
        {
          "name": "C#4",
          "midi": 61,
          "time": 291.4041666666641,
          "velocity": 0.5511811023622047,
          "duration": 0.19583333333332575
        },
        {
          "name": "A#3",
          "midi": 58,
          "time": 291.60416666666407,
          "velocity": 0.5511811023622047,
          "duration": 0.19583333333332575
        },
        {
          "name": "F#4",
          "midi": 66,
          "time": 291.80416666666406,
          "velocity": 1,
          "duration": 0.19583333333332575
        },
        {
          "name": "C#4",
          "midi": 61,
          "time": 292.00416666666405,
          "velocity": 0.5511811023622047,
          "duration": 0.19583333333332575
        },
        {
          "name": "A#3",
          "midi": 58,
          "time": 292.20416666666404,
          "velocity": 0.5511811023622047,
          "duration": 0.19583333333332575
        },
        {
          "name": "F#4",
          "midi": 66,
          "time": 292.404166666664,
          "velocity": 1,
          "duration": 0.19583333333332575
        },
        {
          "name": "C#4",
          "midi": 61,
          "time": 292.604166666664,
          "velocity": 0.5511811023622047,
          "duration": 0.19583333333332575
        },
        {
          "name": "A#4",
          "midi": 70,
          "time": 292.804166666664,
          "velocity": 1,
          "duration": 1
        },
        {
          "name": "E4",
          "midi": 64,
          "time": 294.404166666664,
          "velocity": 1,
          "duration": 0.19583333333332575
        },
        {
          "name": "C#4",
          "midi": 61,
          "time": 294.604166666664,
          "velocity": 0.5511811023622047,
          "duration": 0.19583333333332575
        },
        {
          "name": "A3",
          "midi": 57,
          "time": 294.804166666664,
          "velocity": 0.5511811023622047,
          "duration": 0.1958333333333826
        },
        {
          "name": "E4",
          "midi": 64,
          "time": 295.00416666666405,
          "velocity": 1,
          "duration": 0.19583333333332575
        },
        {
          "name": "C#4",
          "midi": 61,
          "time": 295.20416666666404,
          "velocity": 0.5511811023622047,
          "duration": 0.19583333333332575
        },
        {
          "name": "A3",
          "midi": 57,
          "time": 295.404166666664,
          "velocity": 0.5511811023622047,
          "duration": 0.19583333333332575
        },
        {
          "name": "E4",
          "midi": 64,
          "time": 295.604166666664,
          "velocity": 1,
          "duration": 0.19583333333332575
        },
        {
          "name": "C#4",
          "midi": 61,
          "time": 295.804166666664,
          "velocity": 0.5511811023622047,
          "duration": 0.19583333333332575
        },
        {
          "name": "A4",
          "midi": 69,
          "time": 296.004166666664,
          "velocity": 1,
          "duration": 1.3999999999999773
        },
        {
          "name": "E4",
          "midi": 64,
          "time": 297.604166666664,
          "velocity": 1,
          "duration": 0.19583333333332575
        },
        {
          "name": "B3",
          "midi": 59,
          "time": 297.804166666664,
          "velocity": 0.5511811023622047,
          "duration": 0.19583333333332575
        },
        {
          "name": "G#3",
          "midi": 56,
          "time": 298.004166666664,
          "velocity": 0.5511811023622047,
          "duration": 0.19583333333332575
        },
        {
          "name": "E4",
          "midi": 64,
          "time": 298.204166666664,
          "velocity": 1,
          "duration": 0.19583333333332575
        },
        {
          "name": "B3",
          "midi": 59,
          "time": 298.40416666666397,
          "velocity": 0.5511811023622047,
          "duration": 0.19583333333332575
        },
        {
          "name": "G#3",
          "midi": 56,
          "time": 298.60416666666396,
          "velocity": 0.5511811023622047,
          "duration": 0.19583333333332575
        },
        {
          "name": "E4",
          "midi": 64,
          "time": 298.80416666666395,
          "velocity": 1,
          "duration": 0.19583333333332575
        },
        {
          "name": "B3",
          "midi": 59,
          "time": 299.00416666666393,
          "velocity": 0.5511811023622047,
          "duration": 0.19583333333332575
        },
        {
          "name": "G#4",
          "midi": 68,
          "time": 299.2041666666639,
          "velocity": 1,
          "duration": 1.3999999999999773
        },
        {
          "name": "D4",
          "midi": 62,
          "time": 300.8041666666639,
          "velocity": 1,
          "duration": 0.1958333333333826
        },
        {
          "name": "B3",
          "midi": 59,
          "time": 301.00416666666393,
          "velocity": 0.5511811023622047,
          "duration": 0.19583333333332575
        },
        {
          "name": "G3",
          "midi": 55,
          "time": 301.2041666666639,
          "velocity": 0.5511811023622047,
          "duration": 0.19583333333332575
        },
        {
          "name": "D4",
          "midi": 62,
          "time": 301.4041666666639,
          "velocity": 1,
          "duration": 0.19583333333332575
        },
        {
          "name": "B3",
          "midi": 59,
          "time": 301.6041666666639,
          "velocity": 0.5511811023622047,
          "duration": 0.19583333333332575
        },
        {
          "name": "G3",
          "midi": 55,
          "time": 301.8041666666639,
          "velocity": 0.5511811023622047,
          "duration": 0.19583333333332575
        },
        {
          "name": "D4",
          "midi": 62,
          "time": 302.0041666666639,
          "velocity": 1,
          "duration": 0.19583333333332575
        },
        {
          "name": "B3",
          "midi": 59,
          "time": 302.20416666666387,
          "velocity": 0.5511811023622047,
          "duration": 0.19583333333332575
        },
        {
          "name": "G4",
          "midi": 67,
          "time": 302.40416666666385,
          "velocity": 1,
          "duration": 1.3999999999999773
        },
        {
          "name": "D4",
          "midi": 62,
          "time": 304.0041666666638,
          "velocity": 1,
          "duration": 0.19583333333332575
        },
        {
          "name": "A3",
          "midi": 57,
          "time": 304.2041666666638,
          "velocity": 0.5511811023622047,
          "duration": 0.19583333333332575
        },
        {
          "name": "F#3",
          "midi": 54,
          "time": 304.4041666666638,
          "velocity": 0.5511811023622047,
          "duration": 0.19583333333332575
        },
        {
          "name": "D4",
          "midi": 62,
          "time": 304.6041666666638,
          "velocity": 1,
          "duration": 0.1958333333333826
        },
        {
          "name": "A3",
          "midi": 57,
          "time": 304.80416666666383,
          "velocity": 0.5511811023622047,
          "duration": 0.19583333333332575
        },
        {
          "name": "F#3",
          "midi": 54,
          "time": 305.0041666666638,
          "velocity": 0.5511811023622047,
          "duration": 0.19583333333332575
        },
        {
          "name": "D4",
          "midi": 62,
          "time": 305.2041666666638,
          "velocity": 1,
          "duration": 0.19583333333332575
        },
        {
          "name": "A3",
          "midi": 57,
          "time": 305.4041666666638,
          "velocity": 0.5511811023622047,
          "duration": 0.19583333333332575
        },
        {
          "name": "F#4",
          "midi": 66,
          "time": 305.6041666666638,
          "velocity": 1,
          "duration": 1.3999999999999773
        },
        {
          "name": "E4",
          "midi": 64,
          "time": 307.2041666666638,
          "velocity": 1,
          "duration": 0.1958333333333826
        },
        {
          "name": "B3",
          "midi": 59,
          "time": 307.40416666666385,
          "velocity": 0.5511811023622047,
          "duration": 0.1958333333333826
        },
        {
          "name": "G3",
          "midi": 55,
          "time": 307.6041666666639,
          "velocity": 0.5511811023622047,
          "duration": 0.19583333333332575
        },
        {
          "name": "E4",
          "midi": 64,
          "time": 307.8041666666639,
          "velocity": 1,
          "duration": 0.19583333333332575
        },
        {
          "name": "B3",
          "midi": 59,
          "time": 308.0041666666639,
          "velocity": 0.5511811023622047,
          "duration": 0.19583333333332575
        },
        {
          "name": "G3",
          "midi": 55,
          "time": 308.20416666666387,
          "velocity": 0.5511811023622047,
          "duration": 0.19583333333332575
        },
        {
          "name": "E4",
          "midi": 64,
          "time": 308.40416666666385,
          "velocity": 1,
          "duration": 0.19583333333332575
        },
        {
          "name": "B3",
          "midi": 59,
          "time": 308.60416666666384,
          "velocity": 0.5511811023622047,
          "duration": 0.19583333333332575
        },
        {
          "name": "G4",
          "midi": 67,
          "time": 308.80416666666383,
          "velocity": 1,
          "duration": 1.5958333333333599
        },
        {
          "name": "F#4",
          "midi": 66,
          "time": 310.40416666666385,
          "velocity": 1,
          "duration": 0.19583333333332575
        },
        {
          "name": "C#4",
          "midi": 61,
          "time": 310.60416666666384,
          "velocity": 0.5511811023622047,
          "duration": 0.19583333333332575
        },
        {
          "name": "A#3",
          "midi": 58,
          "time": 310.80416666666383,
          "velocity": 0.5511811023622047,
          "duration": 0.19583333333332575
        },
        {
          "name": "F#4",
          "midi": 66,
          "time": 311.0041666666638,
          "velocity": 1,
          "duration": 0.19583333333332575
        },
        {
          "name": "C#4",
          "midi": 61,
          "time": 311.2041666666638,
          "velocity": 0.5511811023622047,
          "duration": 0.19583333333332575
        },
        {
          "name": "A#3",
          "midi": 58,
          "time": 311.4041666666638,
          "velocity": 0.5511811023622047,
          "duration": 0.19583333333332575
        },
        {
          "name": "F#4",
          "midi": 66,
          "time": 311.6041666666638,
          "velocity": 1,
          "duration": 0.19583333333332575
        },
        {
          "name": "C#4",
          "midi": 61,
          "time": 311.8041666666638,
          "velocity": 0.5511811023622047,
          "duration": 0.19583333333332575
        },
        {
          "name": "A#4",
          "midi": 70,
          "time": 312.00416666666376,
          "velocity": 1,
          "duration": 1
        }
      ],
      "controlChanges": {
        "7": [
          {
            "number": 7,
            "time": 3.2,
            "value": 0.8267716535433071
          },
          {
            "number": 7,
            "time": 271.63749999999754,
            "value": 0.8267716535433071
          },
          {
            "number": 7,
            "time": 294.73749999999734,
            "value": 0.8110236220472441
          },
          {
            "number": 7,
            "time": 294.87083333333067,
            "value": 0.8031496062992126
          },
          {
            "number": 7,
            "time": 294.966666666664,
            "value": 0.7952755905511811
          },
          {
            "number": 7,
            "time": 295.0708333333307,
            "value": 0.7795275590551181
          },
          {
            "number": 7,
            "time": 295.20416666666404,
            "value": 0.7716535433070866
          },
          {
            "number": 7,
            "time": 295.53749999999735,
            "value": 0.7559055118110236
          },
          {
            "number": 7,
            "time": 295.9374999999973,
            "value": 0.7480314960629921
          },
          {
            "number": 7,
            "time": 296.1249999999973,
            "value": 0.6220472440944882
          },
          {
            "number": 7,
            "time": 296.57083333333065,
            "value": 0.5984251968503937
          },
          {
            "number": 7,
            "time": 296.704166666664,
            "value": 0.5511811023622047
          },
          {
            "number": 7,
            "time": 296.90416666666397,
            "value": 0.5354330708661418
          },
          {
            "number": 7,
            "time": 297.30416666666395,
            "value": 0.5118110236220472
          },
          {
            "number": 7,
            "time": 297.44583333333065,
            "value": 0.48031496062992124
          },
          {
            "number": 7,
            "time": 297.604166666664,
            "value": 0.4409448818897638
          },
          {
            "number": 7,
            "time": 297.72499999999735,
            "value": 0.4330708661417323
          },
          {
            "number": 7,
            "time": 297.87083333333067,
            "value": 0.4251968503937008
          },
          {
            "number": 7,
            "time": 298.004166666664,
            "value": 0.3858267716535433
          },
          {
            "number": 7,
            "time": 298.5374999999973,
            "value": 0.3543307086614173
          },
          {
            "number": 7,
            "time": 299.64999999999725,
            "value": 0.3464566929133858
          },
          {
            "number": 7,
            "time": 299.7583333333306,
            "value": 0.3228346456692913
          },
          {
            "number": 7,
            "time": 300.4041666666639,
            "value": 0.31496062992125984
          },
          {
            "number": 7,
            "time": 300.7374999999972,
            "value": 0.2992125984251969
          },
          {
            "number": 7,
            "time": 300.83749999999725,
            "value": 0.28346456692913385
          },
          {
            "number": 7,
            "time": 301.11666666666395,
            "value": 0.2755905511811024
          },
          {
            "number": 7,
            "time": 301.2708333333306,
            "value": 0.2440944881889764
          },
          {
            "number": 7,
            "time": 302.27083333333053,
            "value": 0.23622047244094488
          },
          {
            "number": 7,
            "time": 302.6708333333305,
            "value": 0.2047244094488189
          },
          {
            "number": 7,
            "time": 302.80416666666383,
            "value": 0.1732283464566929
          },
          {
            "number": 7,
            "time": 304.63749999999715,
            "value": 0.16535433070866143
          },
          {
            "number": 7,
            "time": 304.73749999999717,
            "value": 0.11811023622047244
          },
          {
            "number": 7,
            "time": 304.8708333333305,
            "value": 0.10236220472440945
          },
          {
            "number": 7,
            "time": 305.39999999999714,
            "value": 0.09448818897637795
          },
          {
            "number": 7,
            "time": 305.69166666666376,
            "value": 0.08661417322834646
          },
          {
            "number": 7,
            "time": 306.2916666666638,
            "value": 0.07874015748031496
          },
          {
            "number": 7,
            "time": 306.5374999999971,
            "value": 0.07086614173228346
          },
          {
            "number": 7,
            "time": 307.0374999999971,
            "value": 0.06299212598425197
          },
          {
            "number": 7,
            "time": 307.13749999999715,
            "value": 0.05511811023622047
          },
          {
            "number": 7,
            "time": 307.23749999999717,
            "value": 0.047244094488188976
          },
          {
            "number": 7,
            "time": 307.4374999999972,
            "value": 0.031496062992125984
          },
          {
            "number": 7,
            "time": 307.59999999999724,
            "value": 0
          }
        ],
        "10": [
          {
            "number": 10,
            "time": 271.63749999999754,
            "value": 0.5039370078740157
          }
        ]
      },
      "id": 9,
      "name": "STEEL GTR",
      "instrumentNumber": 25,
      "instrument": "acoustic guitar (steel)",
      "instrumentFamily": "guitar",
      "channelNumber": 8,
      "isPercussion": false
    },
    {
      "startTime": 56.800000000000004,
      "duration": 313.5999999999945,
      "length": 1727,
      "notes": [
        {
          "name": "C2",
          "midi": 36,
          "time": 56.800000000000004,
          "velocity": 0.7086614173228346,
          "duration": 0.3916666666666657
        },
        {
          "name": "A2",
          "midi": 45,
          "time": 56.800000000000004,
          "velocity": 0.9212598425196851,
          "duration": 0.3916666666666657
        },
        {
          "name": "A2",
          "midi": 45,
          "time": 57.2,
          "velocity": 0.984251968503937,
          "duration": 0.3916666666666657
        },
        {
          "name": "C2",
          "midi": 36,
          "time": 57.2,
          "velocity": 0.7086614173228346,
          "duration": 0.3916666666666657
        },
        {
          "name": "F#2",
          "midi": 42,
          "time": 57.6,
          "velocity": 0.4330708661417323,
          "duration": 0.19166666666666998
        },
        {
          "name": "C2",
          "midi": 36,
          "time": 57.6,
          "velocity": 0.7086614173228346,
          "duration": 1.200000000000017
        },
        {
          "name": "A4",
          "midi": 69,
          "time": 58.00000000000001,
          "velocity": 0.31496062992125984,
          "duration": 0.19166666666666998
        },
        {
          "name": "F#2",
          "midi": 42,
          "time": 58.00000000000001,
          "velocity": 0.4330708661417323,
          "duration": 0.19166666666666998
        },
        {
          "name": "A4",
          "midi": 69,
          "time": 58.20000000000001,
          "velocity": 0.31496062992125984,
          "duration": 0.19166666666666998
        },
        {
          "name": "E2",
          "midi": 40,
          "time": 58.40000000000001,
          "velocity": 0.5905511811023622,
          "duration": 1.200000000000017
        },
        {
          "name": "F#2",
          "midi": 42,
          "time": 58.40000000000001,
          "velocity": 0.4330708661417323,
          "duration": 0.19166666666666998
        },
        {
          "name": "F#2",
          "midi": 42,
          "time": 58.80000000000002,
          "velocity": 0.4330708661417323,
          "duration": 0.19166666666666998
        },
        {
          "name": "A4",
          "midi": 69,
          "time": 58.80000000000002,
          "velocity": 0.31496062992125984,
          "duration": 0.19166666666666998
        },
        {
          "name": "A4",
          "midi": 69,
          "time": 59.00000000000002,
          "velocity": 0.31496062992125984,
          "duration": 0.19166666666666998
        },
        {
          "name": "F#2",
          "midi": 42,
          "time": 59.200000000000024,
          "velocity": 0.4330708661417323,
          "duration": 0.19166666666666998
        },
        {
          "name": "C2",
          "midi": 36,
          "time": 59.200000000000024,
          "velocity": 0.7086614173228346,
          "duration": 0.8000000000000114
        },
        {
          "name": "F#2",
          "midi": 42,
          "time": 59.60000000000003,
          "velocity": 0.4330708661417323,
          "duration": 0.19166666666666998
        },
        {
          "name": "A4",
          "midi": 69,
          "time": 59.60000000000003,
          "velocity": 0.31496062992125984,
          "duration": 0.19166666666666998
        },
        {
          "name": "A4",
          "midi": 69,
          "time": 59.80000000000003,
          "velocity": 0.31496062992125984,
          "duration": 0.19166666666666998
        },
        {
          "name": "F#2",
          "midi": 42,
          "time": 60.000000000000036,
          "velocity": 0.4330708661417323,
          "duration": 0.19166666666666998
        },
        {
          "name": "E2",
          "midi": 40,
          "time": 60.000000000000036,
          "velocity": 0.5905511811023622,
          "duration": 1.200000000000017
        },
        {
          "name": "F#2",
          "midi": 42,
          "time": 60.20000000000004,
          "velocity": 0.4330708661417323,
          "duration": 0.19166666666666998
        },
        {
          "name": "C2",
          "midi": 36,
          "time": 60.40000000000004,
          "velocity": 0.7086614173228346,
          "duration": 0.3916666666666728
        },
        {
          "name": "A4",
          "midi": 69,
          "time": 60.40000000000004,
          "velocity": 0.31496062992125984,
          "duration": 0.19166666666666998
        },
        {
          "name": "F#2",
          "midi": 42,
          "time": 60.40000000000004,
          "velocity": 0.4330708661417323,
          "duration": 0.19166666666666998
        },
        {
          "name": "A4",
          "midi": 69,
          "time": 60.600000000000044,
          "velocity": 0.31496062992125984,
          "duration": 0.19166666666666998
        },
        {
          "name": "F#2",
          "midi": 42,
          "time": 60.80000000000005,
          "velocity": 0.4330708661417323,
          "duration": 0.19166666666666998
        },
        {
          "name": "C2",
          "midi": 36,
          "time": 60.80000000000005,
          "velocity": 0.7086614173228346,
          "duration": 1.200000000000017
        },
        {
          "name": "F#2",
          "midi": 42,
          "time": 61.20000000000005,
          "velocity": 0.4330708661417323,
          "duration": 0.19166666666666998
        },
        {
          "name": "A4",
          "midi": 69,
          "time": 61.20000000000005,
          "velocity": 0.31496062992125984,
          "duration": 0.19166666666666998
        },
        {
          "name": "A4",
          "midi": 69,
          "time": 61.400000000000055,
          "velocity": 0.31496062992125984,
          "duration": 0.19166666666666998
        },
        {
          "name": "F#2",
          "midi": 42,
          "time": 61.400000000000055,
          "velocity": 0.4330708661417323,
          "duration": 0.19166666666666998
        },
        {
          "name": "F#2",
          "midi": 42,
          "time": 61.60000000000006,
          "velocity": 0.4330708661417323,
          "duration": 0.19166666666666998
        },
        {
          "name": "E2",
          "midi": 40,
          "time": 61.60000000000006,
          "velocity": 0.5905511811023622,
          "duration": 1.200000000000017
        },
        {
          "name": "A4",
          "midi": 69,
          "time": 62.000000000000064,
          "velocity": 0.31496062992125984,
          "duration": 0.19166666666666998
        },
        {
          "name": "F#2",
          "midi": 42,
          "time": 62.000000000000064,
          "velocity": 0.4330708661417323,
          "duration": 0.19166666666666998
        },
        {
          "name": "A4",
          "midi": 69,
          "time": 62.20000000000007,
          "velocity": 0.31496062992125984,
          "duration": 0.19166666666666998
        },
        {
          "name": "C2",
          "midi": 36,
          "time": 62.40000000000007,
          "velocity": 0.7086614173228346,
          "duration": 1.200000000000017
        },
        {
          "name": "F#2",
          "midi": 42,
          "time": 62.40000000000007,
          "velocity": 0.4330708661417323,
          "duration": 0.19166666666666998
        },
        {
          "name": "A4",
          "midi": 69,
          "time": 62.800000000000075,
          "velocity": 0.31496062992125984,
          "duration": 0.19166666666666998
        },
        {
          "name": "F#2",
          "midi": 42,
          "time": 62.800000000000075,
          "velocity": 0.4330708661417323,
          "duration": 0.19166666666666998
        },
        {
          "name": "A4",
          "midi": 69,
          "time": 63.00000000000008,
          "velocity": 0.31496062992125984,
          "duration": 0.19166666666666998
        },
        {
          "name": "E2",
          "midi": 40,
          "time": 63.20000000000008,
          "velocity": 0.5905511811023622,
          "duration": 1.20000000000001
        },
        {
          "name": "F#2",
          "midi": 42,
          "time": 63.20000000000008,
          "velocity": 0.4330708661417323,
          "duration": 0.19166666666666998
        },
        {
          "name": "F#2",
          "midi": 42,
          "time": 63.400000000000084,
          "velocity": 0.4330708661417323,
          "duration": 0.19166666666666998
        },
        {
          "name": "C2",
          "midi": 36,
          "time": 63.60000000000009,
          "velocity": 0.7086614173228346,
          "duration": 0.3916666666666728
        },
        {
          "name": "A4",
          "midi": 69,
          "time": 63.60000000000009,
          "velocity": 0.31496062992125984,
          "duration": 0.19166666666666998
        },
        {
          "name": "F#2",
          "midi": 42,
          "time": 63.60000000000009,
          "velocity": 0.4330708661417323,
          "duration": 0.19166666666666998
        },
        {
          "name": "F#2",
          "midi": 42,
          "time": 63.80000000000009,
          "velocity": 0.4330708661417323,
          "duration": 0.19166666666666998
        },
        {
          "name": "A4",
          "midi": 69,
          "time": 63.80000000000009,
          "velocity": 0.31496062992125984,
          "duration": 0.19166666666666998
        },
        {
          "name": "F#2",
          "midi": 42,
          "time": 64.0000000000001,
          "velocity": 0.4330708661417323,
          "duration": 0.19166666666666288
        },
        {
          "name": "C2",
          "midi": 36,
          "time": 64.0000000000001,
          "velocity": 0.7086614173228346,
          "duration": 1.1999999999999886
        },
        {
          "name": "F#2",
          "midi": 42,
          "time": 64.40000000000009,
          "velocity": 0.4330708661417323,
          "duration": 0.19166666666666288
        },
        {
          "name": "A4",
          "midi": 69,
          "time": 64.40000000000009,
          "velocity": 0.31496062992125984,
          "duration": 0.19166666666666288
        },
        {
          "name": "A4",
          "midi": 69,
          "time": 64.6000000000001,
          "velocity": 0.31496062992125984,
          "duration": 0.19166666666666288
        },
        {
          "name": "F#2",
          "midi": 42,
          "time": 64.8000000000001,
          "velocity": 0.4330708661417323,
          "duration": 0.19166666666666288
        },
        {
          "name": "E2",
          "midi": 40,
          "time": 64.8000000000001,
          "velocity": 0.5905511811023622,
          "duration": 1.1999999999999886
        },
        {
          "name": "A4",
          "midi": 69,
          "time": 65.20000000000009,
          "velocity": 0.31496062992125984,
          "duration": 0.19166666666666288
        },
        {
          "name": "F#2",
          "midi": 42,
          "time": 65.20000000000009,
          "velocity": 0.4330708661417323,
          "duration": 0.19166666666666288
        },
        {
          "name": "A4",
          "midi": 69,
          "time": 65.40000000000009,
          "velocity": 0.31496062992125984,
          "duration": 0.19166666666666288
        },
        {
          "name": "F#2",
          "midi": 42,
          "time": 65.40000000000009,
          "velocity": 0.4330708661417323,
          "duration": 0.19166666666666288
        },
        {
          "name": "C2",
          "midi": 36,
          "time": 65.6000000000001,
          "velocity": 0.7086614173228346,
          "duration": 0.7999999999999972
        },
        {
          "name": "F#2",
          "midi": 42,
          "time": 65.6000000000001,
          "velocity": 0.4330708661417323,
          "duration": 0.19166666666666288
        },
        {
          "name": "A4",
          "midi": 69,
          "time": 66.00000000000009,
          "velocity": 0.31496062992125984,
          "duration": 0.19166666666666288
        },
        {
          "name": "F#2",
          "midi": 42,
          "time": 66.00000000000009,
          "velocity": 0.4330708661417323,
          "duration": 0.19166666666666288
        },
        {
          "name": "A4",
          "midi": 69,
          "time": 66.20000000000009,
          "velocity": 0.31496062992125984,
          "duration": 0.19166666666666288
        },
        {
          "name": "F#2",
          "midi": 42,
          "time": 66.20000000000009,
          "velocity": 0.4330708661417323,
          "duration": 0.19166666666666288
        },
        {
          "name": "E2",
          "midi": 40,
          "time": 66.40000000000009,
          "velocity": 0.5905511811023622,
          "duration": 0.8000000000000114
        },
        {
          "name": "F#2",
          "midi": 42,
          "time": 66.40000000000009,
          "velocity": 0.4330708661417323,
          "duration": 0.19166666666666288
        },
        {
          "name": "F#2",
          "midi": 42,
          "time": 66.6000000000001,
          "velocity": 0.4330708661417323,
          "duration": 0.19166666666666288
        },
        {
          "name": "A4",
          "midi": 69,
          "time": 66.8000000000001,
          "velocity": 0.31496062992125984,
          "duration": 0.19166666666666288
        },
        {
          "name": "F#2",
          "midi": 42,
          "time": 66.8000000000001,
          "velocity": 0.4330708661417323,
          "duration": 0.19166666666666288
        },
        {
          "name": "C2",
          "midi": 36,
          "time": 66.8000000000001,
          "velocity": 0.7086614173228346,
          "duration": 0.3916666666666657
        },
        {
          "name": "A4",
          "midi": 69,
          "time": 67.0000000000001,
          "velocity": 0.31496062992125984,
          "duration": 0.19166666666666288
        },
        {
          "name": "C2",
          "midi": 36,
          "time": 67.2000000000001,
          "velocity": 0.7086614173228346,
          "duration": 1.1999999999999886
        },
        {
          "name": "F#2",
          "midi": 42,
          "time": 67.2000000000001,
          "velocity": 0.4330708661417323,
          "duration": 0.19166666666666288
        },
        {
          "name": "A4",
          "midi": 69,
          "time": 67.6000000000001,
          "velocity": 0.31496062992125984,
          "duration": 0.19166666666666288
        },
        {
          "name": "F#2",
          "midi": 42,
          "time": 67.6000000000001,
          "velocity": 0.4330708661417323,
          "duration": 0.19166666666666288
        },
        {
          "name": "A4",
          "midi": 69,
          "time": 67.8000000000001,
          "velocity": 0.31496062992125984,
          "duration": 0.19166666666666288
        },
        {
          "name": "E2",
          "midi": 40,
          "time": 68.0000000000001,
          "velocity": 0.5905511811023622,
          "duration": 0.7999999999999972
        },
        {
          "name": "F#2",
          "midi": 42,
          "time": 68.0000000000001,
          "velocity": 0.4330708661417323,
          "duration": 0.19166666666666288
        },
        {
          "name": "A4",
          "midi": 69,
          "time": 68.40000000000009,
          "velocity": 0.31496062992125984,
          "duration": 0.19166666666666288
        },
        {
          "name": "F#2",
          "midi": 42,
          "time": 68.40000000000009,
          "velocity": 0.4330708661417323,
          "duration": 0.19166666666666288
        },
        {
          "name": "A4",
          "midi": 69,
          "time": 68.6000000000001,
          "velocity": 0.31496062992125984,
          "duration": 0.19166666666666288
        },
        {
          "name": "F#2",
          "midi": 42,
          "time": 68.8000000000001,
          "velocity": 0.4330708661417323,
          "duration": 0.19166666666666288
        },
        {
          "name": "C2",
          "midi": 36,
          "time": 68.8000000000001,
          "velocity": 0.7086614173228346,
          "duration": 0.7999999999999972
        },
        {
          "name": "A4",
          "midi": 69,
          "time": 69.20000000000009,
          "velocity": 0.31496062992125984,
          "duration": 0.19166666666666288
        },
        {
          "name": "F#2",
          "midi": 42,
          "time": 69.20000000000009,
          "velocity": 0.4330708661417323,
          "duration": 0.19166666666666288
        },
        {
          "name": "A4",
          "midi": 69,
          "time": 69.40000000000009,
          "velocity": 0.31496062992125984,
          "duration": 0.19166666666666288
        },
        {
          "name": "E2",
          "midi": 40,
          "time": 69.6000000000001,
          "velocity": 0.5905511811023622,
          "duration": 0.8000000000000114
        },
        {
          "name": "F#2",
          "midi": 42,
          "time": 69.6000000000001,
          "velocity": 0.4330708661417323,
          "duration": 0.19166666666666288
        },
        {
          "name": "F#2",
          "midi": 42,
          "time": 69.8000000000001,
          "velocity": 0.4330708661417323,
          "duration": 0.19166666666666288
        },
        {
          "name": "A4",
          "midi": 69,
          "time": 70.0000000000001,
          "velocity": 0.31496062992125984,
          "duration": 0.19166666666666288
        },
        {
          "name": "F#2",
          "midi": 42,
          "time": 70.0000000000001,
          "velocity": 0.4330708661417323,
          "duration": 0.19166666666666288
        },
        {
          "name": "C2",
          "midi": 36,
          "time": 70.0000000000001,
          "velocity": 0.7086614173228346,
          "duration": 0.3916666666666657
        },
        {
          "name": "A4",
          "midi": 69,
          "time": 70.2000000000001,
          "velocity": 0.31496062992125984,
          "duration": 0.19166666666666288
        },
        {
          "name": "C2",
          "midi": 36,
          "time": 70.4000000000001,
          "velocity": 0.7086614173228346,
          "duration": 1.1999999999999886
        },
        {
          "name": "F#2",
          "midi": 42,
          "time": 70.4000000000001,
          "velocity": 0.4330708661417323,
          "duration": 0.19166666666666288
        },
        {
          "name": "F#2",
          "midi": 42,
          "time": 70.8000000000001,
          "velocity": 0.4330708661417323,
          "duration": 0.19166666666666288
        },
        {
          "name": "A4",
          "midi": 69,
          "time": 70.8000000000001,
          "velocity": 0.31496062992125984,
          "duration": 0.19166666666666288
        },
        {
          "name": "A4",
          "midi": 69,
          "time": 71.0000000000001,
          "velocity": 0.31496062992125984,
          "duration": 0.19166666666666288
        },
        {
          "name": "E2",
          "midi": 40,
          "time": 71.2000000000001,
          "velocity": 0.5905511811023622,
          "duration": 0.7999999999999972
        },
        {
          "name": "F#2",
          "midi": 42,
          "time": 71.2000000000001,
          "velocity": 0.4330708661417323,
          "duration": 0.19166666666666288
        },
        {
          "name": "F#2",
          "midi": 42,
          "time": 71.6000000000001,
          "velocity": 0.4330708661417323,
          "duration": 0.19166666666666288
        },
        {
          "name": "A4",
          "midi": 69,
          "time": 71.6000000000001,
          "velocity": 0.31496062992125984,
          "duration": 0.19166666666666288
        },
        {
          "name": "A4",
          "midi": 69,
          "time": 71.8000000000001,
          "velocity": 0.31496062992125984,
          "duration": 0.19166666666666288
        },
        {
          "name": "F#2",
          "midi": 42,
          "time": 72.0000000000001,
          "velocity": 0.4330708661417323,
          "duration": 0.19166666666666288
        },
        {
          "name": "C2",
          "midi": 36,
          "time": 72.0000000000001,
          "velocity": 0.7086614173228346,
          "duration": 0.7999999999999972
        },
        {
          "name": "A4",
          "midi": 69,
          "time": 72.40000000000009,
          "velocity": 0.31496062992125984,
          "duration": 0.19166666666666288
        },
        {
          "name": "F#2",
          "midi": 42,
          "time": 72.40000000000009,
          "velocity": 0.4330708661417323,
          "duration": 0.19166666666666288
        },
        {
          "name": "A4",
          "midi": 69,
          "time": 72.6000000000001,
          "velocity": 0.31496062992125984,
          "duration": 0.19166666666666288
        },
        {
          "name": "F#2",
          "midi": 42,
          "time": 72.8000000000001,
          "velocity": 0.4330708661417323,
          "duration": 0.19166666666666288
        },
        {
          "name": "E2",
          "midi": 40,
          "time": 72.8000000000001,
          "velocity": 0.5905511811023622,
          "duration": 0.8000000000000114
        },
        {
          "name": "F#2",
          "midi": 42,
          "time": 73.0000000000001,
          "velocity": 0.4330708661417323,
          "duration": 0.19166666666666288
        },
        {
          "name": "A4",
          "midi": 69,
          "time": 73.2000000000001,
          "velocity": 0.31496062992125984,
          "duration": 0.19166666666666288
        },
        {
          "name": "F#2",
          "midi": 42,
          "time": 73.2000000000001,
          "velocity": 0.4330708661417323,
          "duration": 0.19166666666666288
        },
        {
          "name": "C2",
          "midi": 36,
          "time": 73.2000000000001,
          "velocity": 0.7086614173228346,
          "duration": 0.3916666666666657
        },
        {
          "name": "F#2",
          "midi": 42,
          "time": 73.4000000000001,
          "velocity": 0.4330708661417323,
          "duration": 0.19166666666666288
        },
        {
          "name": "A4",
          "midi": 69,
          "time": 73.4000000000001,
          "velocity": 0.31496062992125984,
          "duration": 0.19166666666666288
        },
        {
          "name": "F#2",
          "midi": 42,
          "time": 73.60000000000011,
          "velocity": 0.4330708661417323,
          "duration": 0.19166666666666288
        },
        {
          "name": "C2",
          "midi": 36,
          "time": 73.60000000000011,
          "velocity": 0.7086614173228346,
          "duration": 1.1999999999999886
        },
        {
          "name": "A4",
          "midi": 69,
          "time": 74.0000000000001,
          "velocity": 0.31496062992125984,
          "duration": 0.19166666666666288
        },
        {
          "name": "F#2",
          "midi": 42,
          "time": 74.0000000000001,
          "velocity": 0.4330708661417323,
          "duration": 0.19166666666666288
        },
        {
          "name": "A4",
          "midi": 69,
          "time": 74.2000000000001,
          "velocity": 0.31496062992125984,
          "duration": 0.19166666666666288
        },
        {
          "name": "F#2",
          "midi": 42,
          "time": 74.4000000000001,
          "velocity": 0.4330708661417323,
          "duration": 0.19166666666666288
        },
        {
          "name": "E2",
          "midi": 40,
          "time": 74.4000000000001,
          "velocity": 0.5905511811023622,
          "duration": 0.7999999999999972
        },
        {
          "name": "A4",
          "midi": 69,
          "time": 74.8000000000001,
          "velocity": 0.31496062992125984,
          "duration": 0.19166666666666288
        },
        {
          "name": "F#2",
          "midi": 42,
          "time": 74.8000000000001,
          "velocity": 0.4330708661417323,
          "duration": 0.19166666666666288
        },
        {
          "name": "A4",
          "midi": 69,
          "time": 75.0000000000001,
          "velocity": 0.31496062992125984,
          "duration": 0.19166666666666288
        },
        {
          "name": "C2",
          "midi": 36,
          "time": 75.2000000000001,
          "velocity": 0.7086614173228346,
          "duration": 0.8000000000000114
        },
        {
          "name": "F#2",
          "midi": 42,
          "time": 75.2000000000001,
          "velocity": 0.4330708661417323,
          "duration": 0.19166666666666288
        },
        {
          "name": "F#2",
          "midi": 42,
          "time": 75.4000000000001,
          "velocity": 0.4330708661417323,
          "duration": 0.19166666666666288
        },
        {
          "name": "A4",
          "midi": 69,
          "time": 75.60000000000011,
          "velocity": 0.31496062992125984,
          "duration": 0.19166666666666288
        },
        {
          "name": "F#2",
          "midi": 42,
          "time": 75.80000000000011,
          "velocity": 0.4330708661417323,
          "duration": 0.19166666666666288
        },
        {
          "name": "A4",
          "midi": 69,
          "time": 75.80000000000011,
          "velocity": 0.31496062992125984,
          "duration": 0.19166666666666288
        },
        {
          "name": "E2",
          "midi": 40,
          "time": 76.00000000000011,
          "velocity": 0.5905511811023622,
          "duration": 0.8000000000000114
        },
        {
          "name": "F#2",
          "midi": 42,
          "time": 76.00000000000011,
          "velocity": 0.4330708661417323,
          "duration": 0.19166666666666288
        },
        {
          "name": "F#2",
          "midi": 42,
          "time": 76.20000000000012,
          "velocity": 0.4330708661417323,
          "duration": 0.19166666666666288
        },
        {
          "name": "A4",
          "midi": 69,
          "time": 76.40000000000012,
          "velocity": 0.31496062992125984,
          "duration": 0.19166666666666288
        },
        {
          "name": "C2",
          "midi": 36,
          "time": 76.40000000000012,
          "velocity": 0.7086614173228346,
          "duration": 0.3916666666666657
        },
        {
          "name": "F#2",
          "midi": 42,
          "time": 76.40000000000012,
          "velocity": 0.4330708661417323,
          "duration": 0.19166666666666288
        },
        {
          "name": "A4",
          "midi": 69,
          "time": 76.60000000000012,
          "velocity": 0.31496062992125984,
          "duration": 0.19166666666666288
        },
        {
          "name": "C2",
          "midi": 36,
          "time": 76.80000000000013,
          "velocity": 0.7086614173228346,
          "duration": 1.1999999999999886
        },
        {
          "name": "F#2",
          "midi": 42,
          "time": 76.80000000000013,
          "velocity": 0.4330708661417323,
          "duration": 0.19166666666666288
        },
        {
          "name": "F#2",
          "midi": 42,
          "time": 77.20000000000012,
          "velocity": 0.4330708661417323,
          "duration": 0.19166666666666288
        },
        {
          "name": "A4",
          "midi": 69,
          "time": 77.20000000000012,
          "velocity": 0.31496062992125984,
          "duration": 0.19166666666666288
        },
        {
          "name": "A4",
          "midi": 69,
          "time": 77.40000000000012,
          "velocity": 0.31496062992125984,
          "duration": 0.19166666666666288
        },
        {
          "name": "E2",
          "midi": 40,
          "time": 77.60000000000012,
          "velocity": 0.5905511811023622,
          "duration": 0.7999999999999972
        },
        {
          "name": "F#2",
          "midi": 42,
          "time": 77.60000000000012,
          "velocity": 0.4330708661417323,
          "duration": 0.19166666666666288
        },
        {
          "name": "A4",
          "midi": 69,
          "time": 78.00000000000011,
          "velocity": 0.31496062992125984,
          "duration": 0.19166666666666288
        },
        {
          "name": "F#2",
          "midi": 42,
          "time": 78.00000000000011,
          "velocity": 0.4330708661417323,
          "duration": 0.19166666666666288
        },
        {
          "name": "A4",
          "midi": 69,
          "time": 78.20000000000012,
          "velocity": 0.31496062992125984,
          "duration": 0.19166666666666288
        },
        {
          "name": "C2",
          "midi": 36,
          "time": 78.40000000000012,
          "velocity": 0.7086614173228346,
          "duration": 0.8000000000000114
        },
        {
          "name": "F#2",
          "midi": 42,
          "time": 78.40000000000012,
          "velocity": 0.4330708661417323,
          "duration": 0.19166666666666288
        },
        {
          "name": "F#2",
          "midi": 42,
          "time": 78.60000000000012,
          "velocity": 0.4330708661417323,
          "duration": 0.19166666666666288
        },
        {
          "name": "A4",
          "midi": 69,
          "time": 78.80000000000013,
          "velocity": 0.31496062992125984,
          "duration": 0.19166666666666288
        },
        {
          "name": "F#2",
          "midi": 42,
          "time": 78.80000000000013,
          "velocity": 0.4330708661417323,
          "duration": 0.19166666666666288
        },
        {
          "name": "A4",
          "midi": 69,
          "time": 79.00000000000013,
          "velocity": 0.31496062992125984,
          "duration": 0.19166666666666288
        },
        {
          "name": "E2",
          "midi": 40,
          "time": 79.20000000000013,
          "velocity": 0.5905511811023622,
          "duration": 0.8000000000000114
        },
        {
          "name": "F#2",
          "midi": 42,
          "time": 79.20000000000013,
          "velocity": 0.4330708661417323,
          "duration": 0.19166666666666288
        },
        {
          "name": "F#2",
          "midi": 42,
          "time": 79.40000000000013,
          "velocity": 0.4330708661417323,
          "duration": 0.19166666666666288
        },
        {
          "name": "C2",
          "midi": 36,
          "time": 79.60000000000014,
          "velocity": 0.7086614173228346,
          "duration": 0.3916666666666657
        },
        {
          "name": "A4",
          "midi": 69,
          "time": 79.60000000000014,
          "velocity": 0.31496062992125984,
          "duration": 0.19166666666666288
        },
        {
          "name": "F#2",
          "midi": 42,
          "time": 79.60000000000014,
          "velocity": 0.4330708661417323,
          "duration": 0.19166666666666288
        },
        {
          "name": "A4",
          "midi": 69,
          "time": 79.80000000000014,
          "velocity": 0.31496062992125984,
          "duration": 0.19166666666666288
        },
        {
          "name": "F#2",
          "midi": 42,
          "time": 80.00000000000014,
          "velocity": 0.4330708661417323,
          "duration": 0.19166666666666288
        },
        {
          "name": "C2",
          "midi": 36,
          "time": 80.00000000000014,
          "velocity": 0.7086614173228346,
          "duration": 1.1999999999999886
        },
        {
          "name": "F#2",
          "midi": 42,
          "time": 80.40000000000013,
          "velocity": 0.4330708661417323,
          "duration": 0.19166666666666288
        },
        {
          "name": "A4",
          "midi": 69,
          "time": 80.40000000000013,
          "velocity": 0.31496062992125984,
          "duration": 0.19166666666666288
        },
        {
          "name": "A4",
          "midi": 69,
          "time": 80.60000000000014,
          "velocity": 0.31496062992125984,
          "duration": 0.19166666666666288
        },
        {
          "name": "E2",
          "midi": 40,
          "time": 80.80000000000014,
          "velocity": 0.5905511811023622,
          "duration": 0.7999999999999972
        },
        {
          "name": "F#2",
          "midi": 42,
          "time": 80.80000000000014,
          "velocity": 0.4330708661417323,
          "duration": 0.19166666666666288
        },
        {
          "name": "A4",
          "midi": 69,
          "time": 81.20000000000013,
          "velocity": 0.31496062992125984,
          "duration": 0.19166666666666288
        },
        {
          "name": "F#2",
          "midi": 42,
          "time": 81.20000000000013,
          "velocity": 0.4330708661417323,
          "duration": 0.19166666666666288
        },
        {
          "name": "A4",
          "midi": 69,
          "time": 81.40000000000013,
          "velocity": 0.31496062992125984,
          "duration": 0.19166666666666288
        },
        {
          "name": "C2",
          "midi": 36,
          "time": 81.60000000000014,
          "velocity": 0.7086614173228346,
          "duration": 0.8000000000000114
        },
        {
          "name": "F#2",
          "midi": 42,
          "time": 81.60000000000014,
          "velocity": 0.4330708661417323,
          "duration": 0.19166666666666288
        },
        {
          "name": "F#2",
          "midi": 42,
          "time": 81.80000000000014,
          "velocity": 0.4330708661417323,
          "duration": 0.19166666666666288
        },
        {
          "name": "F#2",
          "midi": 42,
          "time": 82.00000000000014,
          "velocity": 0.4330708661417323,
          "duration": 0.19166666666666288
        },
        {
          "name": "A4",
          "midi": 69,
          "time": 82.00000000000014,
          "velocity": 0.31496062992125984,
          "duration": 0.19166666666666288
        },
        {
          "name": "A4",
          "midi": 69,
          "time": 82.20000000000014,
          "velocity": 0.31496062992125984,
          "duration": 0.19166666666666288
        },
        {
          "name": "F#2",
          "midi": 42,
          "time": 82.20000000000014,
          "velocity": 0.4330708661417323,
          "duration": 0.19166666666666288
        },
        {
          "name": "E2",
          "midi": 40,
          "time": 82.40000000000015,
          "velocity": 0.5905511811023622,
          "duration": 0.7999999999999972
        },
        {
          "name": "F#2",
          "midi": 42,
          "time": 82.40000000000015,
          "velocity": 0.4330708661417323,
          "duration": 0.19166666666666288
        },
        {
          "name": "A4",
          "midi": 69,
          "time": 82.80000000000014,
          "velocity": 0.31496062992125984,
          "duration": 0.19166666666666288
        },
        {
          "name": "F#2",
          "midi": 42,
          "time": 82.80000000000014,
          "velocity": 0.4330708661417323,
          "duration": 0.19166666666666288
        },
        {
          "name": "C2",
          "midi": 36,
          "time": 82.80000000000014,
          "velocity": 0.7086614173228346,
          "duration": 0.3916666666666657
        },
        {
          "name": "A4",
          "midi": 69,
          "time": 83.00000000000014,
          "velocity": 0.31496062992125984,
          "duration": 0.19166666666666288
        },
        {
          "name": "C2",
          "midi": 36,
          "time": 83.20000000000014,
          "velocity": 0.7086614173228346,
          "duration": 0.8000000000000114
        },
        {
          "name": "F#2",
          "midi": 42,
          "time": 83.20000000000014,
          "velocity": 0.4330708661417323,
          "duration": 0.19166666666666288
        },
        {
          "name": "F#2",
          "midi": 42,
          "time": 83.40000000000015,
          "velocity": 0.4330708661417323,
          "duration": 0.19166666666666288
        },
        {
          "name": "F#2",
          "midi": 42,
          "time": 83.60000000000015,
          "velocity": 0.4330708661417323,
          "duration": 0.19166666666666288
        },
        {
          "name": "A4",
          "midi": 69,
          "time": 83.60000000000015,
          "velocity": 0.31496062992125984,
          "duration": 0.19166666666666288
        },
        {
          "name": "A4",
          "midi": 69,
          "time": 83.80000000000015,
          "velocity": 0.31496062992125984,
          "duration": 0.19166666666666288
        },
        {
          "name": "F#2",
          "midi": 42,
          "time": 83.80000000000015,
          "velocity": 0.4330708661417323,
          "duration": 0.19166666666666288
        },
        {
          "name": "F#2",
          "midi": 42,
          "time": 84.00000000000016,
          "velocity": 0.4330708661417323,
          "duration": 0.19166666666666288
        },
        {
          "name": "E2",
          "midi": 40,
          "time": 84.00000000000016,
          "velocity": 0.5905511811023622,
          "duration": 0.7999999999999972
        },
        {
          "name": "F#2",
          "midi": 42,
          "time": 84.40000000000015,
          "velocity": 0.4330708661417323,
          "duration": 0.19166666666666288
        },
        {
          "name": "A4",
          "midi": 69,
          "time": 84.40000000000015,
          "velocity": 0.31496062992125984,
          "duration": 0.19166666666666288
        },
        {
          "name": "A4",
          "midi": 69,
          "time": 84.60000000000015,
          "velocity": 0.31496062992125984,
          "duration": 0.19166666666666288
        },
        {
          "name": "C2",
          "midi": 36,
          "time": 84.80000000000015,
          "velocity": 0.7086614173228346,
          "duration": 0.7999999999999972
        },
        {
          "name": "F#2",
          "midi": 42,
          "time": 84.80000000000015,
          "velocity": 0.4330708661417323,
          "duration": 0.19166666666666288
        },
        {
          "name": "A4",
          "midi": 69,
          "time": 85.20000000000014,
          "velocity": 0.31496062992125984,
          "duration": 0.19166666666666288
        },
        {
          "name": "F#2",
          "midi": 42,
          "time": 85.20000000000014,
          "velocity": 0.4330708661417323,
          "duration": 0.19166666666666288
        },
        {
          "name": "A4",
          "midi": 69,
          "time": 85.40000000000015,
          "velocity": 0.31496062992125984,
          "duration": 0.19166666666666288
        },
        {
          "name": "F#2",
          "midi": 42,
          "time": 85.60000000000015,
          "velocity": 0.4330708661417323,
          "duration": 0.19166666666666288
        },
        {
          "name": "E2",
          "midi": 40,
          "time": 85.60000000000015,
          "velocity": 0.5905511811023622,
          "duration": 0.8000000000000114
        },
        {
          "name": "F#2",
          "midi": 42,
          "time": 85.80000000000015,
          "velocity": 0.4330708661417323,
          "duration": 0.19166666666666288
        },
        {
          "name": "A4",
          "midi": 69,
          "time": 86.00000000000016,
          "velocity": 0.31496062992125984,
          "duration": 0.19166666666666288
        },
        {
          "name": "F#2",
          "midi": 42,
          "time": 86.00000000000016,
          "velocity": 0.4330708661417323,
          "duration": 0.19166666666666288
        },
        {
          "name": "C2",
          "midi": 36,
          "time": 86.00000000000016,
          "velocity": 0.7086614173228346,
          "duration": 0.3916666666666657
        },
        {
          "name": "A4",
          "midi": 69,
          "time": 86.20000000000016,
          "velocity": 0.31496062992125984,
          "duration": 0.19166666666666288
        },
        {
          "name": "C2",
          "midi": 36,
          "time": 86.40000000000016,
          "velocity": 0.7086614173228346,
          "duration": 1.1999999999999886
        },
        {
          "name": "F#2",
          "midi": 42,
          "time": 86.40000000000016,
          "velocity": 0.4330708661417323,
          "duration": 0.19166666666666288
        },
        {
          "name": "F#2",
          "midi": 42,
          "time": 86.80000000000015,
          "velocity": 0.4330708661417323,
          "duration": 0.19166666666666288
        },
        {
          "name": "A4",
          "midi": 69,
          "time": 86.80000000000015,
          "velocity": 0.31496062992125984,
          "duration": 0.19166666666666288
        },
        {
          "name": "A4",
          "midi": 69,
          "time": 87.00000000000016,
          "velocity": 0.31496062992125984,
          "duration": 0.19166666666666288
        },
        {
          "name": "F#2",
          "midi": 42,
          "time": 87.20000000000016,
          "velocity": 0.4330708661417323,
          "duration": 0.19166666666666288
        },
        {
          "name": "E2",
          "midi": 40,
          "time": 87.20000000000016,
          "velocity": 0.5905511811023622,
          "duration": 0.7999999999999972
        },
        {
          "name": "F#2",
          "midi": 42,
          "time": 87.60000000000015,
          "velocity": 0.4330708661417323,
          "duration": 0.19166666666666288
        },
        {
          "name": "A4",
          "midi": 69,
          "time": 87.60000000000015,
          "velocity": 0.31496062992125984,
          "duration": 0.19166666666666288
        },
        {
          "name": "A4",
          "midi": 69,
          "time": 87.80000000000015,
          "velocity": 0.31496062992125984,
          "duration": 0.19166666666666288
        },
        {
          "name": "F#2",
          "midi": 42,
          "time": 88.00000000000016,
          "velocity": 0.4330708661417323,
          "duration": 0.19166666666666288
        },
        {
          "name": "C2",
          "midi": 36,
          "time": 88.00000000000016,
          "velocity": 0.7086614173228346,
          "duration": 0.8000000000000114
        },
        {
          "name": "F#2",
          "midi": 42,
          "time": 88.20000000000016,
          "velocity": 0.4330708661417323,
          "duration": 0.19166666666666288
        },
        {
          "name": "A4",
          "midi": 69,
          "time": 88.40000000000016,
          "velocity": 0.31496062992125984,
          "duration": 0.19166666666666288
        },
        {
          "name": "A4",
          "midi": 69,
          "time": 88.60000000000016,
          "velocity": 0.31496062992125984,
          "duration": 0.19166666666666288
        },
        {
          "name": "F#2",
          "midi": 42,
          "time": 88.60000000000016,
          "velocity": 0.4330708661417323,
          "duration": 0.19166666666666288
        },
        {
          "name": "E2",
          "midi": 40,
          "time": 88.80000000000017,
          "velocity": 0.5905511811023622,
          "duration": 0.8000000000000114
        },
        {
          "name": "F#2",
          "midi": 42,
          "time": 88.80000000000017,
          "velocity": 0.4330708661417323,
          "duration": 0.19166666666666288
        },
        {
          "name": "F#2",
          "midi": 42,
          "time": 89.00000000000017,
          "velocity": 0.4330708661417323,
          "duration": 0.19166666666666288
        },
        {
          "name": "A4",
          "midi": 69,
          "time": 89.20000000000017,
          "velocity": 0.31496062992125984,
          "duration": 0.19166666666666288
        },
        {
          "name": "C2",
          "midi": 36,
          "time": 89.20000000000017,
          "velocity": 0.7086614173228346,
          "duration": 0.3916666666666657
        },
        {
          "name": "F#2",
          "midi": 42,
          "time": 89.20000000000017,
          "velocity": 0.4330708661417323,
          "duration": 0.19166666666666288
        },
        {
          "name": "A4",
          "midi": 69,
          "time": 89.40000000000018,
          "velocity": 0.31496062992125984,
          "duration": 0.19166666666666288
        },
        {
          "name": "F#2",
          "midi": 42,
          "time": 89.40000000000018,
          "velocity": 0.4330708661417323,
          "duration": 0.19166666666666288
        },
        {
          "name": "C2",
          "midi": 36,
          "time": 89.60000000000018,
          "velocity": 0.7086614173228346,
          "duration": 1.1999999999999886
        },
        {
          "name": "F#2",
          "midi": 42,
          "time": 89.60000000000018,
          "velocity": 0.4330708661417323,
          "duration": 0.19166666666666288
        },
        {
          "name": "A4",
          "midi": 69,
          "time": 90.00000000000017,
          "velocity": 0.31496062992125984,
          "duration": 0.19166666666666288
        },
        {
          "name": "F#2",
          "midi": 42,
          "time": 90.00000000000017,
          "velocity": 0.4330708661417323,
          "duration": 0.19166666666666288
        },
        {
          "name": "A4",
          "midi": 69,
          "time": 90.20000000000017,
          "velocity": 0.31496062992125984,
          "duration": 0.19166666666666288
        },
        {
          "name": "F#2",
          "midi": 42,
          "time": 90.40000000000018,
          "velocity": 0.4330708661417323,
          "duration": 0.19166666666666288
        },
        {
          "name": "E2",
          "midi": 40,
          "time": 90.40000000000018,
          "velocity": 0.5905511811023622,
          "duration": 0.7999999999999972
        },
        {
          "name": "A4",
          "midi": 69,
          "time": 90.80000000000017,
          "velocity": 0.31496062992125984,
          "duration": 0.19166666666666288
        },
        {
          "name": "F#2",
          "midi": 42,
          "time": 90.80000000000017,
          "velocity": 0.4330708661417323,
          "duration": 0.19166666666666288
        },
        {
          "name": "A4",
          "midi": 69,
          "time": 91.00000000000017,
          "velocity": 0.31496062992125984,
          "duration": 0.19166666666666288
        },
        {
          "name": "C2",
          "midi": 36,
          "time": 91.20000000000017,
          "velocity": 0.7086614173228346,
          "duration": 0.8000000000000114
        },
        {
          "name": "F#2",
          "midi": 42,
          "time": 91.20000000000017,
          "velocity": 0.4330708661417323,
          "duration": 0.19166666666666288
        },
        {
          "name": "F#2",
          "midi": 42,
          "time": 91.40000000000018,
          "velocity": 0.4330708661417323,
          "duration": 0.19166666666666288
        },
        {
          "name": "A4",
          "midi": 69,
          "time": 91.60000000000018,
          "velocity": 0.31496062992125984,
          "duration": 0.19166666666666288
        },
        {
          "name": "F#2",
          "midi": 42,
          "time": 91.60000000000018,
          "velocity": 0.4330708661417323,
          "duration": 0.19166666666666288
        },
        {
          "name": "A4",
          "midi": 69,
          "time": 91.80000000000018,
          "velocity": 0.31496062992125984,
          "duration": 0.19166666666666288
        },
        {
          "name": "E2",
          "midi": 40,
          "time": 92.00000000000018,
          "velocity": 0.5905511811023622,
          "duration": 0.7999999999999972
        },
        {
          "name": "F#2",
          "midi": 42,
          "time": 92.00000000000018,
          "velocity": 0.4330708661417323,
          "duration": 0.19166666666666288
        },
        {
          "name": "F#2",
          "midi": 42,
          "time": 92.40000000000018,
          "velocity": 0.4330708661417323,
          "duration": 0.19166666666666288
        },
        {
          "name": "C2",
          "midi": 36,
          "time": 92.40000000000018,
          "velocity": 0.7086614173228346,
          "duration": 0.3916666666666657
        },
        {
          "name": "A4",
          "midi": 69,
          "time": 92.40000000000018,
          "velocity": 0.31496062992125984,
          "duration": 0.19166666666666288
        },
        {
          "name": "A4",
          "midi": 69,
          "time": 92.60000000000018,
          "velocity": 0.31496062992125984,
          "duration": 0.19166666666666288
        },
        {
          "name": "F#2",
          "midi": 42,
          "time": 92.80000000000018,
          "velocity": 0.4330708661417323,
          "duration": 0.19166666666666288
        },
        {
          "name": "C2",
          "midi": 36,
          "time": 92.80000000000018,
          "velocity": 0.7086614173228346,
          "duration": 1.2000000000000028
        },
        {
          "name": "F#2",
          "midi": 42,
          "time": 93.00000000000018,
          "velocity": 0.4330708661417323,
          "duration": 0.19166666666666288
        },
        {
          "name": "F#2",
          "midi": 42,
          "time": 93.20000000000019,
          "velocity": 0.4330708661417323,
          "duration": 0.19166666666666288
        },
        {
          "name": "A4",
          "midi": 69,
          "time": 93.20000000000019,
          "velocity": 0.31496062992125984,
          "duration": 0.19166666666666288
        },
        {
          "name": "A4",
          "midi": 69,
          "time": 93.40000000000019,
          "velocity": 0.31496062992125984,
          "duration": 0.19166666666666288
        },
        {
          "name": "F#2",
          "midi": 42,
          "time": 93.6000000000002,
          "velocity": 0.4330708661417323,
          "duration": 0.19166666666666288
        },
        {
          "name": "E2",
          "midi": 40,
          "time": 93.6000000000002,
          "velocity": 0.5905511811023622,
          "duration": 0.7999999999999972
        },
        {
          "name": "F#2",
          "midi": 42,
          "time": 94.00000000000018,
          "velocity": 0.4330708661417323,
          "duration": 0.19166666666666288
        },
        {
          "name": "A4",
          "midi": 69,
          "time": 94.00000000000018,
          "velocity": 0.31496062992125984,
          "duration": 0.19166666666666288
        },
        {
          "name": "A4",
          "midi": 69,
          "time": 94.20000000000019,
          "velocity": 0.31496062992125984,
          "duration": 0.19166666666666288
        },
        {
          "name": "C2",
          "midi": 36,
          "time": 94.40000000000019,
          "velocity": 0.7086614173228346,
          "duration": 0.8000000000000114
        },
        {
          "name": "F#2",
          "midi": 42,
          "time": 94.40000000000019,
          "velocity": 0.4330708661417323,
          "duration": 0.19166666666666288
        },
        {
          "name": "F#2",
          "midi": 42,
          "time": 94.6000000000002,
          "velocity": 0.4330708661417323,
          "duration": 0.19166666666666288
        },
        {
          "name": "A4",
          "midi": 69,
          "time": 94.8000000000002,
          "velocity": 0.31496062992125984,
          "duration": 0.19166666666666288
        },
        {
          "name": "F#2",
          "midi": 42,
          "time": 94.8000000000002,
          "velocity": 0.4330708661417323,
          "duration": 0.19166666666666288
        },
        {
          "name": "A4",
          "midi": 69,
          "time": 95.0000000000002,
          "velocity": 0.31496062992125984,
          "duration": 0.19166666666666288
        },
        {
          "name": "F#2",
          "midi": 42,
          "time": 95.2000000000002,
          "velocity": 0.4330708661417323,
          "duration": 0.19166666666666288
        },
        {
          "name": "E2",
          "midi": 40,
          "time": 95.2000000000002,
          "velocity": 0.5905511811023622,
          "duration": 0.8000000000000114
        },
        {
          "name": "F#2",
          "midi": 42,
          "time": 95.4000000000002,
          "velocity": 0.4330708661417323,
          "duration": 0.19166666666666288
        },
        {
          "name": "F#2",
          "midi": 42,
          "time": 95.60000000000021,
          "velocity": 0.4330708661417323,
          "duration": 0.19166666666666288
        },
        {
          "name": "C2",
          "midi": 36,
          "time": 95.60000000000021,
          "velocity": 0.7086614173228346,
          "duration": 0.3916666666666657
        },
        {
          "name": "A4",
          "midi": 69,
          "time": 95.60000000000021,
          "velocity": 0.31496062992125984,
          "duration": 0.19166666666666288
        },
        {
          "name": "F#2",
          "midi": 42,
          "time": 95.80000000000021,
          "velocity": 0.4330708661417323,
          "duration": 0.19166666666666288
        },
        {
          "name": "A4",
          "midi": 69,
          "time": 95.80000000000021,
          "velocity": 0.31496062992125984,
          "duration": 0.19166666666666288
        },
        {
          "name": "F#2",
          "midi": 42,
          "time": 96.00000000000021,
          "velocity": 0.4330708661417323,
          "duration": 0.19166666666666288
        },
        {
          "name": "C2",
          "midi": 36,
          "time": 96.00000000000021,
          "velocity": 0.7086614173228346,
          "duration": 1.1999999999999886
        },
        {
          "name": "A4",
          "midi": 69,
          "time": 96.4000000000002,
          "velocity": 0.31496062992125984,
          "duration": 0.19166666666666288
        },
        {
          "name": "F#2",
          "midi": 42,
          "time": 96.4000000000002,
          "velocity": 0.4330708661417323,
          "duration": 0.19166666666666288
        },
        {
          "name": "A4",
          "midi": 69,
          "time": 96.60000000000021,
          "velocity": 0.31496062992125984,
          "duration": 0.19166666666666288
        },
        {
          "name": "E2",
          "midi": 40,
          "time": 96.80000000000021,
          "velocity": 0.5905511811023622,
          "duration": 0.7999999999999972
        },
        {
          "name": "F#2",
          "midi": 42,
          "time": 96.80000000000021,
          "velocity": 0.4330708661417323,
          "duration": 0.19166666666666288
        },
        {
          "name": "F#2",
          "midi": 42,
          "time": 97.2000000000002,
          "velocity": 0.4330708661417323,
          "duration": 0.19166666666666288
        },
        {
          "name": "A4",
          "midi": 69,
          "time": 97.2000000000002,
          "velocity": 0.31496062992125984,
          "duration": 0.19166666666666288
        },
        {
          "name": "A4",
          "midi": 69,
          "time": 97.4000000000002,
          "velocity": 0.31496062992125984,
          "duration": 0.19166666666666288
        },
        {
          "name": "F#2",
          "midi": 42,
          "time": 97.60000000000021,
          "velocity": 0.4330708661417323,
          "duration": 0.19166666666666288
        },
        {
          "name": "C2",
          "midi": 36,
          "time": 97.60000000000021,
          "velocity": 0.7086614173228346,
          "duration": 0.7999999999999972
        },
        {
          "name": "A4",
          "midi": 69,
          "time": 98.0000000000002,
          "velocity": 0.31496062992125984,
          "duration": 0.19166666666666288
        },
        {
          "name": "F#2",
          "midi": 42,
          "time": 98.0000000000002,
          "velocity": 0.4330708661417323,
          "duration": 0.19166666666666288
        },
        {
          "name": "A4",
          "midi": 69,
          "time": 98.2000000000002,
          "velocity": 0.31496062992125984,
          "duration": 0.19166666666666288
        },
        {
          "name": "F#2",
          "midi": 42,
          "time": 98.4000000000002,
          "velocity": 0.4330708661417323,
          "duration": 0.19166666666666288
        },
        {
          "name": "E2",
          "midi": 40,
          "time": 98.4000000000002,
          "velocity": 0.5905511811023622,
          "duration": 0.8000000000000114
        },
        {
          "name": "F#2",
          "midi": 42,
          "time": 98.60000000000021,
          "velocity": 0.4330708661417323,
          "duration": 0.19166666666666288
        },
        {
          "name": "A4",
          "midi": 69,
          "time": 98.80000000000021,
          "velocity": 0.31496062992125984,
          "duration": 0.19166666666666288
        },
        {
          "name": "F#2",
          "midi": 42,
          "time": 98.80000000000021,
          "velocity": 0.4330708661417323,
          "duration": 0.19166666666666288
        },
        {
          "name": "C2",
          "midi": 36,
          "time": 98.80000000000021,
          "velocity": 0.7086614173228346,
          "duration": 0.3916666666666657
        },
        {
          "name": "A4",
          "midi": 69,
          "time": 99.00000000000021,
          "velocity": 0.31496062992125984,
          "duration": 0.19166666666666288
        },
        {
          "name": "F#2",
          "midi": 42,
          "time": 99.20000000000022,
          "velocity": 0.4330708661417323,
          "duration": 0.19166666666666288
        },
        {
          "name": "C2",
          "midi": 36,
          "time": 99.20000000000022,
          "velocity": 0.7086614173228346,
          "duration": 1.1999999999999886
        },
        {
          "name": "F#2",
          "midi": 42,
          "time": 99.60000000000021,
          "velocity": 0.4330708661417323,
          "duration": 0.19166666666666288
        },
        {
          "name": "A4",
          "midi": 69,
          "time": 99.60000000000021,
          "velocity": 0.31496062992125984,
          "duration": 0.19166666666666288
        },
        {
          "name": "A4",
          "midi": 69,
          "time": 99.80000000000021,
          "velocity": 0.31496062992125984,
          "duration": 0.19166666666666288
        },
        {
          "name": "E2",
          "midi": 40,
          "time": 100.00000000000021,
          "velocity": 0.5905511811023622,
          "duration": 0.7999999999999972
        },
        {
          "name": "F#2",
          "midi": 42,
          "time": 100.00000000000021,
          "velocity": 0.4330708661417323,
          "duration": 0.19166666666666288
        },
        {
          "name": "A4",
          "midi": 69,
          "time": 100.4000000000002,
          "velocity": 0.31496062992125984,
          "duration": 0.19166666666666288
        },
        {
          "name": "F#2",
          "midi": 42,
          "time": 100.4000000000002,
          "velocity": 0.4330708661417323,
          "duration": 0.19166666666666288
        },
        {
          "name": "A4",
          "midi": 69,
          "time": 100.60000000000021,
          "velocity": 0.31496062992125984,
          "duration": 0.19166666666666288
        },
        {
          "name": "C2",
          "midi": 36,
          "time": 100.80000000000021,
          "velocity": 0.7086614173228346,
          "duration": 0.8000000000000114
        },
        {
          "name": "F#2",
          "midi": 42,
          "time": 100.80000000000021,
          "velocity": 0.4330708661417323,
          "duration": 0.19166666666666288
        },
        {
          "name": "F#2",
          "midi": 42,
          "time": 101.00000000000021,
          "velocity": 0.4330708661417323,
          "duration": 0.19166666666666288
        },
        {
          "name": "F#2",
          "midi": 42,
          "time": 101.20000000000022,
          "velocity": 0.4330708661417323,
          "duration": 0.19166666666666288
        },
        {
          "name": "A4",
          "midi": 69,
          "time": 101.20000000000022,
          "velocity": 0.31496062992125984,
          "duration": 0.19166666666666288
        },
        {
          "name": "A4",
          "midi": 69,
          "time": 101.40000000000022,
          "velocity": 0.31496062992125984,
          "duration": 0.19166666666666288
        },
        {
          "name": "F#2",
          "midi": 42,
          "time": 101.60000000000022,
          "velocity": 0.4330708661417323,
          "duration": 0.19166666666666288
        },
        {
          "name": "E2",
          "midi": 40,
          "time": 101.60000000000022,
          "velocity": 0.5905511811023622,
          "duration": 0.8000000000000114
        },
        {
          "name": "F#2",
          "midi": 42,
          "time": 101.80000000000022,
          "velocity": 0.4330708661417323,
          "duration": 0.19166666666666288
        },
        {
          "name": "F#2",
          "midi": 42,
          "time": 102.00000000000023,
          "velocity": 0.4330708661417323,
          "duration": 0.19166666666666288
        },
        {
          "name": "A4",
          "midi": 69,
          "time": 102.00000000000023,
          "velocity": 0.31496062992125984,
          "duration": 0.19166666666666288
        },
        {
          "name": "C2",
          "midi": 36,
          "time": 102.00000000000023,
          "velocity": 0.7086614173228346,
          "duration": 0.3916666666666657
        },
        {
          "name": "F#2",
          "midi": 42,
          "time": 102.20000000000023,
          "velocity": 0.4330708661417323,
          "duration": 0.19166666666666288
        },
        {
          "name": "A4",
          "midi": 69,
          "time": 102.20000000000023,
          "velocity": 0.31496062992125984,
          "duration": 0.19166666666666288
        },
        {
          "name": "F#2",
          "midi": 42,
          "time": 102.40000000000023,
          "velocity": 0.4330708661417323,
          "duration": 0.19166666666666288
        },
        {
          "name": "C2",
          "midi": 36,
          "time": 102.40000000000023,
          "velocity": 0.7086614173228346,
          "duration": 1.1999999999999886
        },
        {
          "name": "F#2",
          "midi": 42,
          "time": 102.80000000000022,
          "velocity": 0.4330708661417323,
          "duration": 0.19166666666666288
        },
        {
          "name": "A4",
          "midi": 69,
          "time": 102.80000000000022,
          "velocity": 0.31496062992125984,
          "duration": 0.19166666666666288
        },
        {
          "name": "A4",
          "midi": 69,
          "time": 103.00000000000023,
          "velocity": 0.31496062992125984,
          "duration": 0.19166666666666288
        },
        {
          "name": "F#2",
          "midi": 42,
          "time": 103.20000000000023,
          "velocity": 0.4330708661417323,
          "duration": 0.19166666666666288
        },
        {
          "name": "E2",
          "midi": 40,
          "time": 103.20000000000023,
          "velocity": 0.5905511811023622,
          "duration": 0.7999999999999972
        },
        {
          "name": "A4",
          "midi": 69,
          "time": 103.60000000000022,
          "velocity": 0.31496062992125984,
          "duration": 0.19166666666666288
        },
        {
          "name": "F#2",
          "midi": 42,
          "time": 103.60000000000022,
          "velocity": 0.4330708661417323,
          "duration": 0.19166666666666288
        },
        {
          "name": "A4",
          "midi": 69,
          "time": 103.80000000000022,
          "velocity": 0.31496062992125984,
          "duration": 0.19166666666666288
        },
        {
          "name": "C2",
          "midi": 36,
          "time": 104.00000000000023,
          "velocity": 0.7086614173228346,
          "duration": 0.8000000000000114
        },
        {
          "name": "F#2",
          "midi": 42,
          "time": 104.00000000000023,
          "velocity": 0.4330708661417323,
          "duration": 0.19166666666666288
        },
        {
          "name": "F#2",
          "midi": 42,
          "time": 104.20000000000023,
          "velocity": 0.4330708661417323,
          "duration": 0.19166666666666288
        },
        {
          "name": "A4",
          "midi": 69,
          "time": 104.40000000000023,
          "velocity": 0.31496062992125984,
          "duration": 0.19166666666666288
        },
        {
          "name": "F#2",
          "midi": 42,
          "time": 104.40000000000023,
          "velocity": 0.4330708661417323,
          "duration": 0.19166666666666288
        },
        {
          "name": "F#2",
          "midi": 42,
          "time": 104.60000000000024,
          "velocity": 0.4330708661417323,
          "duration": 0.19166666666666288
        },
        {
          "name": "A4",
          "midi": 69,
          "time": 104.60000000000024,
          "velocity": 0.31496062992125984,
          "duration": 0.19166666666666288
        },
        {
          "name": "F#2",
          "midi": 42,
          "time": 104.80000000000024,
          "velocity": 0.4330708661417323,
          "duration": 0.19166666666666288
        },
        {
          "name": "E2",
          "midi": 40,
          "time": 104.80000000000024,
          "velocity": 0.5905511811023622,
          "duration": 0.7999999999999972
        },
        {
          "name": "F#2",
          "midi": 42,
          "time": 105.20000000000023,
          "velocity": 0.4330708661417323,
          "duration": 0.19166666666666288
        },
        {
          "name": "C2",
          "midi": 36,
          "time": 105.20000000000023,
          "velocity": 0.7086614173228346,
          "duration": 0.3916666666666657
        },
        {
          "name": "A4",
          "midi": 69,
          "time": 105.20000000000023,
          "velocity": 0.31496062992125984,
          "duration": 0.19166666666666288
        },
        {
          "name": "A4",
          "midi": 69,
          "time": 105.40000000000023,
          "velocity": 0.31496062992125984,
          "duration": 0.19166666666666288
        },
        {
          "name": "F#2",
          "midi": 42,
          "time": 105.60000000000024,
          "velocity": 0.4330708661417323,
          "duration": 0.0020833333333314386
        },
        {
          "name": "C2",
          "midi": 36,
          "time": 105.60000000000024,
          "velocity": 0.7086614173228346,
          "duration": 1.2000000000000028
        },
        {
          "name": "F#2",
          "midi": 42,
          "time": 105.60000000000024,
          "velocity": 0.4330708661417323,
          "duration": 0.19166666666666288
        },
        {
          "name": "F#2",
          "midi": 42,
          "time": 106.00000000000023,
          "velocity": 0.4330708661417323,
          "duration": 0.0020833333333314386
        },
        {
          "name": "F#2",
          "midi": 42,
          "time": 106.00000000000023,
          "velocity": 0.4330708661417323,
          "duration": 0.19166666666666288
        },
        {
          "name": "A4",
          "midi": 69,
          "time": 106.00000000000023,
          "velocity": 0.31496062992125984,
          "duration": 0.19166666666666288
        },
        {
          "name": "A4",
          "midi": 69,
          "time": 106.20000000000023,
          "velocity": 0.31496062992125984,
          "duration": 0.19166666666666288
        },
        {
          "name": "F#2",
          "midi": 42,
          "time": 106.20000000000023,
          "velocity": 0.4330708661417323,
          "duration": 0.19166666666666288
        },
        {
          "name": "E2",
          "midi": 40,
          "time": 106.40000000000023,
          "velocity": 0.5905511811023622,
          "duration": 0.8000000000000114
        },
        {
          "name": "F#2",
          "midi": 42,
          "time": 106.40000000000023,
          "velocity": 0.4330708661417323,
          "duration": 0.19166666666666288
        },
        {
          "name": "F#2",
          "midi": 42,
          "time": 106.60000000000024,
          "velocity": 0.4330708661417323,
          "duration": 0.19166666666666288
        },
        {
          "name": "F#2",
          "midi": 42,
          "time": 106.80000000000024,
          "velocity": 0.4330708661417323,
          "duration": 0.0020833333333314386
        },
        {
          "name": "A4",
          "midi": 69,
          "time": 106.80000000000024,
          "velocity": 0.31496062992125984,
          "duration": 0.19166666666666288
        },
        {
          "name": "F#2",
          "midi": 42,
          "time": 106.80000000000024,
          "velocity": 0.4330708661417323,
          "duration": 0.19166666666666288
        },
        {
          "name": "A4",
          "midi": 69,
          "time": 107.00000000000024,
          "velocity": 0.31496062992125984,
          "duration": 0.19166666666666288
        },
        {
          "name": "C2",
          "midi": 36,
          "time": 107.20000000000024,
          "velocity": 0.7086614173228346,
          "duration": 0.8000000000000114
        },
        {
          "name": "F#2",
          "midi": 42,
          "time": 107.20000000000024,
          "velocity": 0.4330708661417323,
          "duration": 0.0020833333333314386
        },
        {
          "name": "F#2",
          "midi": 42,
          "time": 107.20000000000024,
          "velocity": 0.4330708661417323,
          "duration": 0.19166666666666288
        },
        {
          "name": "F#2",
          "midi": 42,
          "time": 107.40000000000025,
          "velocity": 0.4330708661417323,
          "duration": 0.19166666666666288
        },
        {
          "name": "A4",
          "midi": 69,
          "time": 107.60000000000025,
          "velocity": 0.31496062992125984,
          "duration": 0.19166666666666288
        },
        {
          "name": "E2",
          "midi": 40,
          "time": 107.60000000000025,
          "velocity": 0.5905511811023622,
          "duration": 0.19166666666666288
        },
        {
          "name": "F#2",
          "midi": 42,
          "time": 107.60000000000025,
          "velocity": 0.4330708661417323,
          "duration": 0.19166666666666288
        },
        {
          "name": "F#2",
          "midi": 42,
          "time": 107.80000000000025,
          "velocity": 0.4330708661417323,
          "duration": 0.19166666666666288
        },
        {
          "name": "A4",
          "midi": 69,
          "time": 107.80000000000025,
          "velocity": 0.31496062992125984,
          "duration": 0.19166666666666288
        },
        {
          "name": "F#2",
          "midi": 42,
          "time": 108.00000000000026,
          "velocity": 0.4330708661417323,
          "duration": 0.0020833333333314386
        },
        {
          "name": "E2",
          "midi": 40,
          "time": 108.00000000000026,
          "velocity": 0.5905511811023622,
          "duration": 0.19166666666666288
        },
        {
          "name": "F#2",
          "midi": 42,
          "time": 108.00000000000026,
          "velocity": 0.4330708661417323,
          "duration": 0.19166666666666288
        },
        {
          "name": "F#2",
          "midi": 42,
          "time": 108.20000000000026,
          "velocity": 0.4330708661417323,
          "duration": 0.0020833333333314386
        },
        {
          "name": "F#2",
          "midi": 42,
          "time": 108.20000000000026,
          "velocity": 0.4330708661417323,
          "duration": 0.19166666666666288
        },
        {
          "name": "E2",
          "midi": 40,
          "time": 108.20000000000026,
          "velocity": 0.5905511811023622,
          "duration": 0.19166666666666288
        },
        {
          "name": "F#2",
          "midi": 42,
          "time": 108.40000000000026,
          "velocity": 0.4330708661417323,
          "duration": 0.0020833333333314386
        },
        {
          "name": "A4",
          "midi": 69,
          "time": 108.40000000000026,
          "velocity": 0.31496062992125984,
          "duration": 0.19166666666666288
        },
        {
          "name": "E2",
          "midi": 40,
          "time": 108.40000000000026,
          "velocity": 0.5905511811023622,
          "duration": 0.19166666666666288
        },
        {
          "name": "F#2",
          "midi": 42,
          "time": 108.40000000000026,
          "velocity": 0.4330708661417323,
          "duration": 0.19166666666666288
        },
        {
          "name": "C2",
          "midi": 36,
          "time": 108.40000000000026,
          "velocity": 0.7086614173228346,
          "duration": 0.3916666666666657
        },
        {
          "name": "E2",
          "midi": 40,
          "time": 108.60000000000026,
          "velocity": 0.5905511811023622,
          "duration": 0.19166666666666288
        },
        {
          "name": "A4",
          "midi": 69,
          "time": 108.60000000000026,
          "velocity": 0.31496062992125984,
          "duration": 0.19166666666666288
        },
        {
          "name": "C#3",
          "midi": 49,
          "time": 108.80000000000027,
          "velocity": 0.5118110236220472,
          "duration": 2.3999999999999915
        },
        {
          "name": "F#2",
          "midi": 42,
          "time": 108.80000000000027,
          "velocity": 0.4330708661417323,
          "duration": 0.19166666666666288
        },
        {
          "name": "C2",
          "midi": 36,
          "time": 108.80000000000027,
          "velocity": 0.7086614173228346,
          "duration": 1.1999999999999886
        },
        {
          "name": "A4",
          "midi": 69,
          "time": 109.20000000000026,
          "velocity": 0.31496062992125984,
          "duration": 0.19166666666666288
        },
        {
          "name": "F#2",
          "midi": 42,
          "time": 109.20000000000026,
          "velocity": 0.4330708661417323,
          "duration": 0.19166666666666288
        },
        {
          "name": "A4",
          "midi": 69,
          "time": 109.40000000000026,
          "velocity": 0.31496062992125984,
          "duration": 0.19166666666666288
        },
        {
          "name": "F#2",
          "midi": 42,
          "time": 109.40000000000026,
          "velocity": 0.4330708661417323,
          "duration": 0.19166666666666288
        },
        {
          "name": "E2",
          "midi": 40,
          "time": 109.60000000000026,
          "velocity": 0.5905511811023622,
          "duration": 0.7999999999999972
        },
        {
          "name": "F#2",
          "midi": 42,
          "time": 109.60000000000026,
          "velocity": 0.4330708661417323,
          "duration": 0.19166666666666288
        },
        {
          "name": "A4",
          "midi": 69,
          "time": 110.00000000000026,
          "velocity": 0.31496062992125984,
          "duration": 0.19166666666666288
        },
        {
          "name": "F#2",
          "midi": 42,
          "time": 110.00000000000026,
          "velocity": 0.4330708661417323,
          "duration": 0.19166666666666288
        },
        {
          "name": "A4",
          "midi": 69,
          "time": 110.20000000000026,
          "velocity": 0.31496062992125984,
          "duration": 0.19166666666666288
        },
        {
          "name": "C2",
          "midi": 36,
          "time": 110.40000000000026,
          "velocity": 0.7086614173228346,
          "duration": 1.2000000000000028
        },
        {
          "name": "F#2",
          "midi": 42,
          "time": 110.40000000000026,
          "velocity": 0.4330708661417323,
          "duration": 0.19166666666666288
        },
        {
          "name": "A4",
          "midi": 69,
          "time": 110.80000000000025,
          "velocity": 0.31496062992125984,
          "duration": 0.19166666666666288
        },
        {
          "name": "F#2",
          "midi": 42,
          "time": 110.80000000000025,
          "velocity": 0.4330708661417323,
          "duration": 0.19166666666666288
        },
        {
          "name": "A4",
          "midi": 69,
          "time": 111.00000000000026,
          "velocity": 0.31496062992125984,
          "duration": 0.19166666666666288
        },
        {
          "name": "F#2",
          "midi": 42,
          "time": 111.20000000000026,
          "velocity": 0.4330708661417323,
          "duration": 0.19166666666666288
        },
        {
          "name": "E2",
          "midi": 40,
          "time": 111.20000000000026,
          "velocity": 0.5905511811023622,
          "duration": 0.8000000000000114
        },
        {
          "name": "F#2",
          "midi": 42,
          "time": 111.40000000000026,
          "velocity": 0.4330708661417323,
          "duration": 0.19166666666666288
        },
        {
          "name": "F#2",
          "midi": 42,
          "time": 111.60000000000026,
          "velocity": 0.4330708661417323,
          "duration": 0.19166666666666288
        },
        {
          "name": "A4",
          "midi": 69,
          "time": 111.60000000000026,
          "velocity": 0.31496062992125984,
          "duration": 0.19166666666666288
        },
        {
          "name": "A4",
          "midi": 69,
          "time": 111.80000000000027,
          "velocity": 0.31496062992125984,
          "duration": 0.19166666666666288
        },
        {
          "name": "F#2",
          "midi": 42,
          "time": 111.80000000000027,
          "velocity": 0.4330708661417323,
          "duration": 0.19166666666666288
        },
        {
          "name": "F#2",
          "midi": 42,
          "time": 112.00000000000027,
          "velocity": 0.4330708661417323,
          "duration": 0.19166666666666288
        },
        {
          "name": "C2",
          "midi": 36,
          "time": 112.00000000000027,
          "velocity": 0.7086614173228346,
          "duration": 1.1999999999999886
        },
        {
          "name": "A4",
          "midi": 69,
          "time": 112.40000000000026,
          "velocity": 0.31496062992125984,
          "duration": 0.19166666666666288
        },
        {
          "name": "F#2",
          "midi": 42,
          "time": 112.40000000000026,
          "velocity": 0.4330708661417323,
          "duration": 0.19166666666666288
        },
        {
          "name": "A4",
          "midi": 69,
          "time": 112.60000000000026,
          "velocity": 0.31496062992125984,
          "duration": 0.19166666666666288
        },
        {
          "name": "F#2",
          "midi": 42,
          "time": 112.80000000000027,
          "velocity": 0.4330708661417323,
          "duration": 0.19166666666666288
        },
        {
          "name": "E2",
          "midi": 40,
          "time": 112.80000000000027,
          "velocity": 0.5905511811023622,
          "duration": 0.7999999999999972
        },
        {
          "name": "F#2",
          "midi": 42,
          "time": 113.20000000000026,
          "velocity": 0.4330708661417323,
          "duration": 0.19166666666666288
        },
        {
          "name": "A4",
          "midi": 69,
          "time": 113.20000000000026,
          "velocity": 0.31496062992125984,
          "duration": 0.19166666666666288
        },
        {
          "name": "A4",
          "midi": 69,
          "time": 113.40000000000026,
          "velocity": 0.31496062992125984,
          "duration": 0.19166666666666288
        },
        {
          "name": "F#2",
          "midi": 42,
          "time": 113.40000000000026,
          "velocity": 0.4330708661417323,
          "duration": 0.19166666666666288
        },
        {
          "name": "C2",
          "midi": 36,
          "time": 113.60000000000026,
          "velocity": 0.7086614173228346,
          "duration": 0.5999999999999943
        },
        {
          "name": "F#2",
          "midi": 42,
          "time": 113.60000000000026,
          "velocity": 0.4330708661417323,
          "duration": 0.19166666666666288
        },
        {
          "name": "A4",
          "midi": 69,
          "time": 114.00000000000026,
          "velocity": 0.31496062992125984,
          "duration": 0.19166666666666288
        },
        {
          "name": "F#2",
          "midi": 42,
          "time": 114.00000000000026,
          "velocity": 0.4330708661417323,
          "duration": 0.19166666666666288
        },
        {
          "name": "F#2",
          "midi": 42,
          "time": 114.20000000000026,
          "velocity": 0.4330708661417323,
          "duration": 0.19166666666666288
        },
        {
          "name": "A4",
          "midi": 69,
          "time": 114.20000000000026,
          "velocity": 0.31496062992125984,
          "duration": 0.19166666666666288
        },
        {
          "name": "C2",
          "midi": 36,
          "time": 114.40000000000026,
          "velocity": 0.7086614173228346,
          "duration": 0.19166666666666288
        },
        {
          "name": "E2",
          "midi": 40,
          "time": 114.40000000000026,
          "velocity": 0.5905511811023622,
          "duration": 0.8000000000000114
        },
        {
          "name": "F#2",
          "midi": 42,
          "time": 114.40000000000026,
          "velocity": 0.4330708661417323,
          "duration": 0.19166666666666288
        },
        {
          "name": "F#2",
          "midi": 42,
          "time": 114.60000000000026,
          "velocity": 0.4330708661417323,
          "duration": 0.19166666666666288
        },
        {
          "name": "F#2",
          "midi": 42,
          "time": 114.80000000000027,
          "velocity": 0.4330708661417323,
          "duration": 0.19166666666666288
        },
        {
          "name": "C2",
          "midi": 36,
          "time": 114.80000000000027,
          "velocity": 0.7086614173228346,
          "duration": 0.19166666666666288
        },
        {
          "name": "A4",
          "midi": 69,
          "time": 114.80000000000027,
          "velocity": 0.31496062992125984,
          "duration": 0.19166666666666288
        },
        {
          "name": "A4",
          "midi": 69,
          "time": 115.00000000000027,
          "velocity": 0.31496062992125984,
          "duration": 0.19166666666666288
        },
        {
          "name": "C2",
          "midi": 36,
          "time": 115.20000000000027,
          "velocity": 0.7086614173228346,
          "duration": 1.1999999999999886
        },
        {
          "name": "F#2",
          "midi": 42,
          "time": 115.20000000000027,
          "velocity": 0.4330708661417323,
          "duration": 0.19166666666666288
        },
        {
          "name": "A4",
          "midi": 69,
          "time": 115.60000000000026,
          "velocity": 0.31496062992125984,
          "duration": 0.19166666666666288
        },
        {
          "name": "F#2",
          "midi": 42,
          "time": 115.60000000000026,
          "velocity": 0.4330708661417323,
          "duration": 0.19166666666666288
        },
        {
          "name": "A4",
          "midi": 69,
          "time": 115.80000000000027,
          "velocity": 0.31496062992125984,
          "duration": 0.19166666666666288
        },
        {
          "name": "F#2",
          "midi": 42,
          "time": 116.00000000000027,
          "velocity": 0.4330708661417323,
          "duration": 0.19166666666666288
        },
        {
          "name": "E2",
          "midi": 40,
          "time": 116.00000000000027,
          "velocity": 0.5905511811023622,
          "duration": 0.7999999999999972
        },
        {
          "name": "F#2",
          "midi": 42,
          "time": 116.40000000000026,
          "velocity": 0.4330708661417323,
          "duration": 0.19166666666666288
        },
        {
          "name": "A4",
          "midi": 69,
          "time": 116.40000000000026,
          "velocity": 0.31496062992125984,
          "duration": 0.19166666666666288
        },
        {
          "name": "A4",
          "midi": 69,
          "time": 116.60000000000026,
          "velocity": 0.31496062992125984,
          "duration": 0.19166666666666288
        },
        {
          "name": "F#2",
          "midi": 42,
          "time": 116.80000000000027,
          "velocity": 0.4330708661417323,
          "duration": 0.19166666666666288
        },
        {
          "name": "C2",
          "midi": 36,
          "time": 116.80000000000027,
          "velocity": 0.7086614173228346,
          "duration": 0.5999999999999943
        },
        {
          "name": "F#2",
          "midi": 42,
          "time": 117.20000000000026,
          "velocity": 0.4330708661417323,
          "duration": 0.19166666666666288
        },
        {
          "name": "A4",
          "midi": 69,
          "time": 117.20000000000026,
          "velocity": 0.31496062992125984,
          "duration": 0.19166666666666288
        },
        {
          "name": "A4",
          "midi": 69,
          "time": 117.40000000000026,
          "velocity": 0.31496062992125984,
          "duration": 0.19166666666666288
        },
        {
          "name": "C2",
          "midi": 36,
          "time": 117.60000000000026,
          "velocity": 0.7086614173228346,
          "duration": 0.19166666666666288
        },
        {
          "name": "F#2",
          "midi": 42,
          "time": 117.60000000000026,
          "velocity": 0.4330708661417323,
          "duration": 0.19166666666666288
        },
        {
          "name": "E2",
          "midi": 40,
          "time": 117.60000000000026,
          "velocity": 0.5905511811023622,
          "duration": 0.8000000000000114
        },
        {
          "name": "F#2",
          "midi": 42,
          "time": 117.80000000000027,
          "velocity": 0.4330708661417323,
          "duration": 0.19166666666666288
        },
        {
          "name": "A4",
          "midi": 69,
          "time": 118.00000000000027,
          "velocity": 0.31496062992125984,
          "duration": 0.19166666666666288
        },
        {
          "name": "F#2",
          "midi": 42,
          "time": 118.00000000000027,
          "velocity": 0.4330708661417323,
          "duration": 0.19166666666666288
        },
        {
          "name": "C2",
          "midi": 36,
          "time": 118.00000000000027,
          "velocity": 0.7086614173228346,
          "duration": 0.19166666666666288
        },
        {
          "name": "A4",
          "midi": 69,
          "time": 118.20000000000027,
          "velocity": 0.31496062992125984,
          "duration": 0.19166666666666288
        },
        {
          "name": "C2",
          "midi": 36,
          "time": 118.40000000000028,
          "velocity": 0.7086614173228346,
          "duration": 0.6000000000000085
        },
        {
          "name": "C#3",
          "midi": 49,
          "time": 118.40000000000028,
          "velocity": 0.5118110236220472,
          "duration": 0.3916666666666657
        },
        {
          "name": "F#2",
          "midi": 42,
          "time": 118.40000000000028,
          "velocity": 0.4330708661417323,
          "duration": 0.19166666666666288
        },
        {
          "name": "F#2",
          "midi": 42,
          "time": 118.80000000000028,
          "velocity": 0.4330708661417323,
          "duration": 0.19166666666666288
        },
        {
          "name": "A4",
          "midi": 69,
          "time": 118.80000000000028,
          "velocity": 0.31496062992125984,
          "duration": 0.19166666666666288
        },
        {
          "name": "A4",
          "midi": 69,
          "time": 119.00000000000028,
          "velocity": 0.31496062992125984,
          "duration": 0.19166666666666288
        },
        {
          "name": "F#2",
          "midi": 42,
          "time": 119.20000000000029,
          "velocity": 0.4330708661417323,
          "duration": 0.19166666666666288
        },
        {
          "name": "C2",
          "midi": 36,
          "time": 119.20000000000029,
          "velocity": 0.7086614173228346,
          "duration": 0.6000000000000085
        },
        {
          "name": "E2",
          "midi": 40,
          "time": 119.20000000000029,
          "velocity": 0.5905511811023622,
          "duration": 0.6000000000000085
        },
        {
          "name": "A3",
          "midi": 57,
          "time": 119.20000000000029,
          "velocity": 0.5118110236220472,
          "duration": 0.3916666666666657
        },
        {
          "name": "A4",
          "midi": 69,
          "time": 119.60000000000029,
          "velocity": 0.31496062992125984,
          "duration": 0.19166666666666288
        },
        {
          "name": "F#2",
          "midi": 42,
          "time": 119.60000000000029,
          "velocity": 0.4330708661417323,
          "duration": 0.19166666666666288
        },
        {
          "name": "A4",
          "midi": 69,
          "time": 119.8000000000003,
          "velocity": 0.31496062992125984,
          "duration": 0.19166666666666288
        },
        {
          "name": "C#3",
          "midi": 49,
          "time": 120.0000000000003,
          "velocity": 0.5118110236220472,
          "duration": 0.39166666666667993
        },
        {
          "name": "F#2",
          "midi": 42,
          "time": 120.0000000000003,
          "velocity": 0.4330708661417323,
          "duration": 0.19166666666666288
        },
        {
          "name": "C2",
          "midi": 36,
          "time": 120.0000000000003,
          "velocity": 0.7086614173228346,
          "duration": 0.6000000000000227
        },
        {
          "name": "E2",
          "midi": 40,
          "time": 120.2000000000003,
          "velocity": 0.5511811023622047,
          "duration": 0.09166666666666856
        },
        {
          "name": "E2",
          "midi": 40,
          "time": 120.30000000000031,
          "velocity": 0.5511811023622047,
          "duration": 0.09166666666666856
        },
        {
          "name": "A4",
          "midi": 69,
          "time": 120.40000000000032,
          "velocity": 0.31496062992125984,
          "duration": 0.19166666666666288
        },
        {
          "name": "F#2",
          "midi": 42,
          "time": 120.40000000000032,
          "velocity": 0.4330708661417323,
          "duration": 0.19166666666666288
        },
        {
          "name": "E2",
          "midi": 40,
          "time": 120.40000000000032,
          "velocity": 0.5511811023622047,
          "duration": 0.09166666666666856
        },
        {
          "name": "E2",
          "midi": 40,
          "time": 120.60000000000032,
          "velocity": 0.5511811023622047,
          "duration": 0.09166666666666856
        },
        {
          "name": "A4",
          "midi": 69,
          "time": 120.60000000000032,
          "velocity": 0.31496062992125984,
          "duration": 0.19166666666666288
        },
        {
          "name": "A3",
          "midi": 57,
          "time": 120.80000000000032,
          "velocity": 0.5118110236220472,
          "duration": 0.3916666666666657
        },
        {
          "name": "F#2",
          "midi": 42,
          "time": 120.80000000000032,
          "velocity": 0.4330708661417323,
          "duration": 0.19166666666666288
        },
        {
          "name": "C2",
          "midi": 36,
          "time": 120.80000000000032,
          "velocity": 0.7086614173228346,
          "duration": 0.4000000000000057
        },
        {
          "name": "E2",
          "midi": 40,
          "time": 120.80000000000032,
          "velocity": 0.5511811023622047,
          "duration": 0.09166666666666856
        },
        {
          "name": "A2",
          "midi": 45,
          "time": 121.00000000000033,
          "velocity": 0.9921259842519685,
          "duration": 0.20000000000000284
        },
        {
          "name": "F#2",
          "midi": 42,
          "time": 121.00000000000033,
          "velocity": 0.4330708661417323,
          "duration": 0.19166666666666288
        },
        {
          "name": "F#2",
          "midi": 42,
          "time": 121.20000000000033,
          "velocity": 0.4330708661417323,
          "duration": 0.19166666666666288
        },
        {
          "name": "A2",
          "midi": 45,
          "time": 121.20000000000033,
          "velocity": 0.9921259842519685,
          "duration": 0.20000000000000284
        },
        {
          "name": "A4",
          "midi": 69,
          "time": 121.20000000000033,
          "velocity": 0.31496062992125984,
          "duration": 0.19166666666666288
        },
        {
          "name": "A4",
          "midi": 69,
          "time": 121.40000000000033,
          "velocity": 0.31496062992125984,
          "duration": 0.19166666666666288
        },
        {
          "name": "G2",
          "midi": 43,
          "time": 121.40000000000033,
          "velocity": 0.9921259842519685,
          "duration": 0.20000000000000284
        },
        {
          "name": "F#2",
          "midi": 42,
          "time": 121.40000000000033,
          "velocity": 0.4330708661417323,
          "duration": 0.19166666666666288
        },
        {
          "name": "F#2",
          "midi": 42,
          "time": 121.60000000000034,
          "velocity": 0.4330708661417323,
          "duration": 0.19166666666666288
        },
        {
          "name": "C#3",
          "midi": 49,
          "time": 121.60000000000034,
          "velocity": 0.5118110236220472,
          "duration": 9.199999999999932
        },
        {
          "name": "C2",
          "midi": 36,
          "time": 121.60000000000034,
          "velocity": 0.7086614173228346,
          "duration": 1.1999999999999886
        },
        {
          "name": "F#2",
          "midi": 42,
          "time": 122.00000000000033,
          "velocity": 0.4330708661417323,
          "duration": 0.19166666666666288
        },
        {
          "name": "A4",
          "midi": 69,
          "time": 122.00000000000033,
          "velocity": 0.31496062992125984,
          "duration": 0.19166666666666288
        },
        {
          "name": "A4",
          "midi": 69,
          "time": 122.20000000000033,
          "velocity": 0.31496062992125984,
          "duration": 0.19166666666666288
        },
        {
          "name": "E2",
          "midi": 40,
          "time": 122.40000000000033,
          "velocity": 0.5905511811023622,
          "duration": 0.19166666666666288
        },
        {
          "name": "F#2",
          "midi": 42,
          "time": 122.40000000000033,
          "velocity": 0.4330708661417323,
          "duration": 0.19166666666666288
        },
        {
          "name": "A4",
          "midi": 69,
          "time": 122.80000000000032,
          "velocity": 0.31496062992125984,
          "duration": 0.19166666666666288
        },
        {
          "name": "F#2",
          "midi": 42,
          "time": 122.80000000000032,
          "velocity": 0.4330708661417323,
          "duration": 0.19166666666666288
        },
        {
          "name": "A4",
          "midi": 69,
          "time": 123.00000000000033,
          "velocity": 0.31496062992125984,
          "duration": 0.19166666666666288
        },
        {
          "name": "C2",
          "midi": 36,
          "time": 123.20000000000033,
          "velocity": 0.7086614173228346,
          "duration": 0.4000000000000057
        },
        {
          "name": "F#2",
          "midi": 42,
          "time": 123.20000000000033,
          "velocity": 0.4330708661417323,
          "duration": 0.19166666666666288
        },
        {
          "name": "F#2",
          "midi": 42,
          "time": 123.40000000000033,
          "velocity": 0.4330708661417323,
          "duration": 0.19166666666666288
        },
        {
          "name": "A4",
          "midi": 69,
          "time": 123.60000000000034,
          "velocity": 0.31496062992125984,
          "duration": 0.19166666666666288
        },
        {
          "name": "A4",
          "midi": 69,
          "time": 123.80000000000034,
          "velocity": 0.31496062992125984,
          "duration": 0.19166666666666288
        },
        {
          "name": "F#2",
          "midi": 42,
          "time": 123.80000000000034,
          "velocity": 0.4330708661417323,
          "duration": 0.19166666666666288
        },
        {
          "name": "C2",
          "midi": 36,
          "time": 124.00000000000034,
          "velocity": 0.7086614173228346,
          "duration": 0.19166666666666288
        },
        {
          "name": "E2",
          "midi": 40,
          "time": 124.00000000000034,
          "velocity": 0.5905511811023622,
          "duration": 0.19166666666666288
        },
        {
          "name": "F#2",
          "midi": 42,
          "time": 124.00000000000034,
          "velocity": 0.4330708661417323,
          "duration": 0.19166666666666288
        },
        {
          "name": "F#2",
          "midi": 42,
          "time": 124.20000000000034,
          "velocity": 0.4330708661417323,
          "duration": 0.19166666666666288
        },
        {
          "name": "F#2",
          "midi": 42,
          "time": 124.40000000000035,
          "velocity": 0.4330708661417323,
          "duration": 0.19166666666666288
        },
        {
          "name": "A4",
          "midi": 69,
          "time": 124.40000000000035,
          "velocity": 0.31496062992125984,
          "duration": 0.19166666666666288
        },
        {
          "name": "C2",
          "midi": 36,
          "time": 124.40000000000035,
          "velocity": 0.7086614173228346,
          "duration": 0.19166666666666288
        },
        {
          "name": "A4",
          "midi": 69,
          "time": 124.60000000000035,
          "velocity": 0.31496062992125984,
          "duration": 0.19166666666666288
        },
        {
          "name": "C2",
          "midi": 36,
          "time": 124.80000000000035,
          "velocity": 0.7086614173228346,
          "duration": 1.1999999999999886
        },
        {
          "name": "F#2",
          "midi": 42,
          "time": 124.80000000000035,
          "velocity": 0.4330708661417323,
          "duration": 0.19166666666666288
        },
        {
          "name": "A4",
          "midi": 69,
          "time": 125.20000000000034,
          "velocity": 0.31496062992125984,
          "duration": 0.19166666666666288
        },
        {
          "name": "F#2",
          "midi": 42,
          "time": 125.20000000000034,
          "velocity": 0.4330708661417323,
          "duration": 0.19166666666666288
        },
        {
          "name": "A4",
          "midi": 69,
          "time": 125.40000000000035,
          "velocity": 0.31496062992125984,
          "duration": 0.19166666666666288
        },
        {
          "name": "F#2",
          "midi": 42,
          "time": 125.60000000000035,
          "velocity": 0.4330708661417323,
          "duration": 0.19166666666666288
        },
        {
          "name": "E2",
          "midi": 40,
          "time": 125.60000000000035,
          "velocity": 0.5905511811023622,
          "duration": 0.19166666666666288
        },
        {
          "name": "A4",
          "midi": 69,
          "time": 126.00000000000034,
          "velocity": 0.31496062992125984,
          "duration": 0.19166666666666288
        },
        {
          "name": "F#2",
          "midi": 42,
          "time": 126.00000000000034,
          "velocity": 0.4330708661417323,
          "duration": 0.19166666666666288
        },
        {
          "name": "A4",
          "midi": 69,
          "time": 126.20000000000034,
          "velocity": 0.31496062992125984,
          "duration": 0.19166666666666288
        },
        {
          "name": "F#2",
          "midi": 42,
          "time": 126.40000000000035,
          "velocity": 0.4330708661417323,
          "duration": 0.19166666666666288
        },
        {
          "name": "C2",
          "midi": 36,
          "time": 126.40000000000035,
          "velocity": 0.7086614173228346,
          "duration": 1.200000000000017
        },
        {
          "name": "F#2",
          "midi": 42,
          "time": 126.60000000000035,
          "velocity": 0.4330708661417323,
          "duration": 0.19166666666666288
        },
        {
          "name": "F#2",
          "midi": 42,
          "time": 126.80000000000035,
          "velocity": 0.4330708661417323,
          "duration": 0.19166666666666288
        },
        {
          "name": "A4",
          "midi": 69,
          "time": 126.80000000000035,
          "velocity": 0.31496062992125984,
          "duration": 0.19166666666666288
        },
        {
          "name": "A4",
          "midi": 69,
          "time": 127.00000000000036,
          "velocity": 0.31496062992125984,
          "duration": 0.19166666666666288
        },
        {
          "name": "F#2",
          "midi": 42,
          "time": 127.20000000000036,
          "velocity": 0.4330708661417323,
          "duration": 0.19166666666666288
        },
        {
          "name": "E2",
          "midi": 40,
          "time": 127.20000000000036,
          "velocity": 0.5905511811023622,
          "duration": 0.19166666666666288
        },
        {
          "name": "F#2",
          "midi": 42,
          "time": 127.40000000000036,
          "velocity": 0.4330708661417323,
          "duration": 0.19166666666666288
        },
        {
          "name": "F#2",
          "midi": 42,
          "time": 127.60000000000036,
          "velocity": 0.4330708661417323,
          "duration": 0.19166666666666288
        },
        {
          "name": "A4",
          "midi": 69,
          "time": 127.60000000000036,
          "velocity": 0.31496062992125984,
          "duration": 0.19166666666666288
        },
        {
          "name": "A4",
          "midi": 69,
          "time": 127.80000000000037,
          "velocity": 0.31496062992125984,
          "duration": 0.19166666666666288
        },
        {
          "name": "F#2",
          "midi": 42,
          "time": 128.00000000000037,
          "velocity": 0.4330708661417323,
          "duration": 0.19166666666666288
        },
        {
          "name": "C2",
          "midi": 36,
          "time": 128.00000000000037,
          "velocity": 0.7086614173228346,
          "duration": 1.1999999999999886
        },
        {
          "name": "A4",
          "midi": 69,
          "time": 128.40000000000038,
          "velocity": 0.31496062992125984,
          "duration": 0.19166666666666288
        },
        {
          "name": "F#2",
          "midi": 42,
          "time": 128.40000000000038,
          "velocity": 0.4330708661417323,
          "duration": 0.19166666666666288
        },
        {
          "name": "A4",
          "midi": 69,
          "time": 128.60000000000036,
          "velocity": 0.31496062992125984,
          "duration": 0.19166666666666288
        },
        {
          "name": "F#2",
          "midi": 42,
          "time": 128.80000000000035,
          "velocity": 0.4330708661417323,
          "duration": 0.19166666666666288
        },
        {
          "name": "E2",
          "midi": 40,
          "time": 128.80000000000035,
          "velocity": 0.5905511811023622,
          "duration": 0.19166666666666288
        },
        {
          "name": "A4",
          "midi": 69,
          "time": 129.20000000000036,
          "velocity": 0.31496062992125984,
          "duration": 0.19166666666666288
        },
        {
          "name": "F#2",
          "midi": 42,
          "time": 129.20000000000036,
          "velocity": 0.4330708661417323,
          "duration": 0.19166666666666288
        },
        {
          "name": "A4",
          "midi": 69,
          "time": 129.40000000000035,
          "velocity": 0.31496062992125984,
          "duration": 0.19166666666666288
        },
        {
          "name": "F#2",
          "midi": 42,
          "time": 129.60000000000034,
          "velocity": 0.4330708661417323,
          "duration": 0.19166666666666288
        },
        {
          "name": "C2",
          "midi": 36,
          "time": 129.60000000000034,
          "velocity": 0.7086614173228346,
          "duration": 0.9999999999999432
        },
        {
          "name": "F#2",
          "midi": 42,
          "time": 129.80000000000032,
          "velocity": 0.4330708661417323,
          "duration": 0.19166666666666288
        },
        {
          "name": "A4",
          "midi": 69,
          "time": 130.0000000000003,
          "velocity": 0.31496062992125984,
          "duration": 0.19166666666666288
        },
        {
          "name": "F#2",
          "midi": 42,
          "time": 130.0000000000003,
          "velocity": 0.4330708661417323,
          "duration": 0.19166666666666288
        },
        {
          "name": "F#2",
          "midi": 42,
          "time": 130.2000000000003,
          "velocity": 0.4330708661417323,
          "duration": 0.19166666666666288
        },
        {
          "name": "A4",
          "midi": 69,
          "time": 130.2000000000003,
          "velocity": 0.31496062992125984,
          "duration": 0.19166666666666288
        },
        {
          "name": "E2",
          "midi": 40,
          "time": 130.4000000000003,
          "velocity": 0.5905511811023622,
          "duration": 0.19166666666666288
        },
        {
          "name": "F#2",
          "midi": 42,
          "time": 130.4000000000003,
          "velocity": 0.4330708661417323,
          "duration": 0.19166666666666288
        },
        {
          "name": "F#2",
          "midi": 42,
          "time": 130.80000000000027,
          "velocity": 0.4330708661417323,
          "duration": 0.19166666666666288
        },
        {
          "name": "A4",
          "midi": 69,
          "time": 130.80000000000027,
          "velocity": 0.31496062992125984,
          "duration": 0.19166666666666288
        },
        {
          "name": "C2",
          "midi": 36,
          "time": 130.80000000000027,
          "velocity": 0.7086614173228346,
          "duration": 0.19166666666666288
        },
        {
          "name": "A4",
          "midi": 69,
          "time": 131.00000000000026,
          "velocity": 0.31496062992125984,
          "duration": 0.19166666666666288
        },
        {
          "name": "C2",
          "midi": 36,
          "time": 131.20000000000024,
          "velocity": 0.7086614173228346,
          "duration": 0.5999999999999659
        },
        {
          "name": "F#2",
          "midi": 42,
          "time": 131.20000000000024,
          "velocity": 0.4330708661417323,
          "duration": 0.19166666666666288
        },
        {
          "name": "C#3",
          "midi": 49,
          "time": 131.20000000000024,
          "velocity": 0.5118110236220472,
          "duration": 0.3916666666666515
        },
        {
          "name": "F#2",
          "midi": 42,
          "time": 131.60000000000022,
          "velocity": 0.4330708661417323,
          "duration": 0.19166666666666288
        },
        {
          "name": "A4",
          "midi": 69,
          "time": 131.60000000000022,
          "velocity": 0.31496062992125984,
          "duration": 0.19166666666666288
        },
        {
          "name": "A4",
          "midi": 69,
          "time": 131.8000000000002,
          "velocity": 0.31496062992125984,
          "duration": 0.19166666666666288
        },
        {
          "name": "F#2",
          "midi": 42,
          "time": 132.0000000000002,
          "velocity": 0.4330708661417323,
          "duration": 0.19166666666666288
        },
        {
          "name": "E2",
          "midi": 40,
          "time": 132.0000000000002,
          "velocity": 0.5905511811023622,
          "duration": 0.5999999999999659
        },
        {
          "name": "C2",
          "midi": 36,
          "time": 132.0000000000002,
          "velocity": 0.7086614173228346,
          "duration": 0.5999999999999659
        },
        {
          "name": "A3",
          "midi": 57,
          "time": 132.0000000000002,
          "velocity": 0.5118110236220472,
          "duration": 0.3916666666666515
        },
        {
          "name": "A4",
          "midi": 69,
          "time": 132.40000000000018,
          "velocity": 0.31496062992125984,
          "duration": 0.19166666666666288
        },
        {
          "name": "F#2",
          "midi": 42,
          "time": 132.40000000000018,
          "velocity": 0.4330708661417323,
          "duration": 0.19166666666666288
        },
        {
          "name": "A4",
          "midi": 69,
          "time": 132.60000000000016,
          "velocity": 0.31496062992125984,
          "duration": 0.19166666666666288
        },
        {
          "name": "F#2",
          "midi": 42,
          "time": 132.80000000000015,
          "velocity": 0.4330708661417323,
          "duration": 0.19166666666666288
        },
        {
          "name": "C2",
          "midi": 36,
          "time": 132.80000000000015,
          "velocity": 0.7086614173228346,
          "duration": 0.5999999999999659
        },
        {
          "name": "C#3",
          "midi": 49,
          "time": 132.80000000000015,
          "velocity": 0.5118110236220472,
          "duration": 0.3916666666666515
        },
        {
          "name": "E2",
          "midi": 40,
          "time": 133.00000000000014,
          "velocity": 0.5511811023622047,
          "duration": 0.09166666666666856
        },
        {
          "name": "E2",
          "midi": 40,
          "time": 133.10000000000014,
          "velocity": 0.5511811023622047,
          "duration": 0.09166666666666856
        },
        {
          "name": "E2",
          "midi": 40,
          "time": 133.20000000000013,
          "velocity": 0.5511811023622047,
          "duration": 0.09166666666666856
        },
        {
          "name": "A4",
          "midi": 69,
          "time": 133.20000000000013,
          "velocity": 0.31496062992125984,
          "duration": 0.19166666666666288
        },
        {
          "name": "F#2",
          "midi": 42,
          "time": 133.20000000000013,
          "velocity": 0.4330708661417323,
          "duration": 0.19166666666666288
        },
        {
          "name": "A4",
          "midi": 69,
          "time": 133.40000000000012,
          "velocity": 0.31496062992125984,
          "duration": 0.19166666666666288
        },
        {
          "name": "E2",
          "midi": 40,
          "time": 133.40000000000012,
          "velocity": 0.5511811023622047,
          "duration": 0.09166666666666856
        },
        {
          "name": "C2",
          "midi": 36,
          "time": 133.6000000000001,
          "velocity": 0.7086614173228346,
          "duration": 0.39999999999997726
        },
        {
          "name": "E2",
          "midi": 40,
          "time": 133.6000000000001,
          "velocity": 0.5511811023622047,
          "duration": 0.09166666666666856
        },
        {
          "name": "A3",
          "midi": 57,
          "time": 133.6000000000001,
          "velocity": 0.5118110236220472,
          "duration": 0.3916666666666515
        },
        {
          "name": "F#2",
          "midi": 42,
          "time": 133.6000000000001,
          "velocity": 0.4330708661417323,
          "duration": 0.19166666666666288
        },
        {
          "name": "F#2",
          "midi": 42,
          "time": 133.8000000000001,
          "velocity": 0.4330708661417323,
          "duration": 0.19166666666666288
        },
        {
          "name": "A2",
          "midi": 45,
          "time": 133.8000000000001,
          "velocity": 0.9921259842519685,
          "duration": 0.19999999999998863
        },
        {
          "name": "A4",
          "midi": 69,
          "time": 134.00000000000009,
          "velocity": 0.31496062992125984,
          "duration": 0.19166666666666288
        },
        {
          "name": "A2",
          "midi": 45,
          "time": 134.00000000000009,
          "velocity": 0.9921259842519685,
          "duration": 0.19999999999998863
        },
        {
          "name": "F#2",
          "midi": 42,
          "time": 134.00000000000009,
          "velocity": 0.4330708661417323,
          "duration": 0.19166666666666288
        },
        {
          "name": "A4",
          "midi": 69,
          "time": 134.20000000000007,
          "velocity": 0.31496062992125984,
          "duration": 0.19166666666666288
        },
        {
          "name": "F#2",
          "midi": 42,
          "time": 134.20000000000007,
          "velocity": 0.4330708661417323,
          "duration": 0.19166666666666288
        },
        {
          "name": "G2",
          "midi": 43,
          "time": 134.20000000000007,
          "velocity": 0.9921259842519685,
          "duration": 0.19999999999998863
        },
        {
          "name": "C2",
          "midi": 36,
          "time": 134.40000000000006,
          "velocity": 0.7086614173228346,
          "duration": 1.1999999999999886
        },
        {
          "name": "F#2",
          "midi": 42,
          "time": 134.40000000000006,
          "velocity": 0.4330708661417323,
          "duration": 0.19166666666666288
        },
        {
          "name": "A4",
          "midi": 69,
          "time": 134.80000000000007,
          "velocity": 0.31496062992125984,
          "duration": 0.19166666666666288
        },
        {
          "name": "F#2",
          "midi": 42,
          "time": 134.80000000000007,
          "velocity": 0.4330708661417323,
          "duration": 0.19166666666666288
        },
        {
          "name": "A4",
          "midi": 69,
          "time": 135.00000000000006,
          "velocity": 0.31496062992125984,
          "duration": 0.19166666666666288
        },
        {
          "name": "F#2",
          "midi": 42,
          "time": 135.20000000000005,
          "velocity": 0.4330708661417323,
          "duration": 0.19166666666666288
        },
        {
          "name": "E2",
          "midi": 40,
          "time": 135.20000000000005,
          "velocity": 0.5905511811023622,
          "duration": 1.1999999999999886
        },
        {
          "name": "A4",
          "midi": 69,
          "time": 135.60000000000005,
          "velocity": 0.31496062992125984,
          "duration": 0.19166666666666288
        },
        {
          "name": "F#2",
          "midi": 42,
          "time": 135.60000000000005,
          "velocity": 0.4330708661417323,
          "duration": 0.19166666666666288
        },
        {
          "name": "A4",
          "midi": 69,
          "time": 135.80000000000004,
          "velocity": 0.31496062992125984,
          "duration": 0.19166666666666288
        },
        {
          "name": "F#2",
          "midi": 42,
          "time": 136.00000000000003,
          "velocity": 0.4330708661417323,
          "duration": 0.19166666666666288
        },
        {
          "name": "C2",
          "midi": 36,
          "time": 136.00000000000003,
          "velocity": 0.7086614173228346,
          "duration": 0.799999999999983
        },
        {
          "name": "A4",
          "midi": 69,
          "time": 136.40000000000003,
          "velocity": 0.31496062992125984,
          "duration": 0.19166666666666288
        },
        {
          "name": "F#2",
          "midi": 42,
          "time": 136.40000000000003,
          "velocity": 0.4330708661417323,
          "duration": 0.19166666666666288
        },
        {
          "name": "A4",
          "midi": 69,
          "time": 136.60000000000002,
          "velocity": 0.31496062992125984,
          "duration": 0.19166666666666288
        },
        {
          "name": "F#2",
          "midi": 42,
          "time": 136.8,
          "velocity": 0.4330708661417323,
          "duration": 0.19166666666666288
        },
        {
          "name": "E2",
          "midi": 40,
          "time": 136.8,
          "velocity": 0.5905511811023622,
          "duration": 1.1999999999999602
        },
        {
          "name": "F#2",
          "midi": 42,
          "time": 137,
          "velocity": 0.4330708661417323,
          "duration": 0.19166666666666288
        },
        {
          "name": "A4",
          "midi": 69,
          "time": 137.2,
          "velocity": 0.31496062992125984,
          "duration": 0.19166666666666288
        },
        {
          "name": "C2",
          "midi": 36,
          "time": 137.2,
          "velocity": 0.7086614173228346,
          "duration": 0.3916666666666515
        },
        {
          "name": "F#2",
          "midi": 42,
          "time": 137.2,
          "velocity": 0.4330708661417323,
          "duration": 0.19166666666666288
        },
        {
          "name": "A4",
          "midi": 69,
          "time": 137.39999999999998,
          "velocity": 0.31496062992125984,
          "duration": 0.19166666666666288
        },
        {
          "name": "C2",
          "midi": 36,
          "time": 137.59999999999997,
          "velocity": 0.7086614173228346,
          "duration": 1.1999999999999886
        },
        {
          "name": "F#2",
          "midi": 42,
          "time": 137.59999999999997,
          "velocity": 0.4330708661417323,
          "duration": 0.19166666666666288
        },
        {
          "name": "F#2",
          "midi": 42,
          "time": 137.99999999999997,
          "velocity": 0.4330708661417323,
          "duration": 0.19166666666666288
        },
        {
          "name": "A4",
          "midi": 69,
          "time": 137.99999999999997,
          "velocity": 0.31496062992125984,
          "duration": 0.19166666666666288
        },
        {
          "name": "F#2",
          "midi": 42,
          "time": 138.19999999999996,
          "velocity": 0.4330708661417323,
          "duration": 0.19166666666666288
        },
        {
          "name": "A4",
          "midi": 69,
          "time": 138.19999999999996,
          "velocity": 0.31496062992125984,
          "duration": 0.19166666666666288
        },
        {
          "name": "F#2",
          "midi": 42,
          "time": 138.39999999999995,
          "velocity": 0.4330708661417323,
          "duration": 0.19166666666666288
        },
        {
          "name": "E2",
          "midi": 40,
          "time": 138.39999999999995,
          "velocity": 0.5905511811023622,
          "duration": 1.1999999999999886
        },
        {
          "name": "A4",
          "midi": 69,
          "time": 138.79999999999995,
          "velocity": 0.31496062992125984,
          "duration": 0.19166666666666288
        },
        {
          "name": "F#2",
          "midi": 42,
          "time": 138.79999999999995,
          "velocity": 0.4330708661417323,
          "duration": 0.19166666666666288
        },
        {
          "name": "A4",
          "midi": 69,
          "time": 138.99999999999994,
          "velocity": 0.31496062992125984,
          "duration": 0.19166666666666288
        },
        {
          "name": "F#2",
          "midi": 42,
          "time": 139.19999999999993,
          "velocity": 0.4330708661417323,
          "duration": 0.19166666666666288
        },
        {
          "name": "C2",
          "midi": 36,
          "time": 139.19999999999993,
          "velocity": 0.7086614173228346,
          "duration": 1.1999999999999602
        },
        {
          "name": "F#2",
          "midi": 42,
          "time": 139.59999999999994,
          "velocity": 0.4330708661417323,
          "duration": 0.19166666666666288
        },
        {
          "name": "A4",
          "midi": 69,
          "time": 139.59999999999994,
          "velocity": 0.31496062992125984,
          "duration": 0.19166666666666288
        },
        {
          "name": "A4",
          "midi": 69,
          "time": 139.79999999999993,
          "velocity": 0.31496062992125984,
          "duration": 0.19166666666666288
        },
        {
          "name": "F#2",
          "midi": 42,
          "time": 139.99999999999991,
          "velocity": 0.4330708661417323,
          "duration": 0.19166666666666288
        },
        {
          "name": "E2",
          "midi": 40,
          "time": 139.99999999999991,
          "velocity": 0.5905511811023622,
          "duration": 1.1999999999999602
        },
        {
          "name": "F#2",
          "midi": 42,
          "time": 140.1999999999999,
          "velocity": 0.4330708661417323,
          "duration": 0.19166666666666288
        },
        {
          "name": "C2",
          "midi": 36,
          "time": 140.3999999999999,
          "velocity": 0.7086614173228346,
          "duration": 0.3916666666666515
        },
        {
          "name": "F#2",
          "midi": 42,
          "time": 140.3999999999999,
          "velocity": 0.4330708661417323,
          "duration": 0.19166666666666288
        },
        {
          "name": "A4",
          "midi": 69,
          "time": 140.3999999999999,
          "velocity": 0.31496062992125984,
          "duration": 0.19166666666666288
        },
        {
          "name": "A4",
          "midi": 69,
          "time": 140.59999999999988,
          "velocity": 0.31496062992125984,
          "duration": 0.19166666666666288
        },
        {
          "name": "F#2",
          "midi": 42,
          "time": 140.59999999999988,
          "velocity": 0.4330708661417323,
          "duration": 0.19166666666666288
        },
        {
          "name": "C2",
          "midi": 36,
          "time": 140.79999999999987,
          "velocity": 0.7086614173228346,
          "duration": 1.1999999999999886
        },
        {
          "name": "F#2",
          "midi": 42,
          "time": 140.79999999999987,
          "velocity": 0.4330708661417323,
          "duration": 0.19166666666666288
        },
        {
          "name": "F#2",
          "midi": 42,
          "time": 141.19999999999987,
          "velocity": 0.4330708661417323,
          "duration": 0.19166666666666288
        },
        {
          "name": "A4",
          "midi": 69,
          "time": 141.19999999999987,
          "velocity": 0.31496062992125984,
          "duration": 0.19166666666666288
        },
        {
          "name": "A4",
          "midi": 69,
          "time": 141.39999999999986,
          "velocity": 0.31496062992125984,
          "duration": 0.19166666666666288
        },
        {
          "name": "E2",
          "midi": 40,
          "time": 141.59999999999985,
          "velocity": 0.5905511811023622,
          "duration": 1.1999999999999886
        },
        {
          "name": "F#2",
          "midi": 42,
          "time": 141.59999999999985,
          "velocity": 0.4330708661417323,
          "duration": 0.19166666666666288
        },
        {
          "name": "F#2",
          "midi": 42,
          "time": 141.99999999999986,
          "velocity": 0.4330708661417323,
          "duration": 0.19166666666666288
        },
        {
          "name": "A4",
          "midi": 69,
          "time": 141.99999999999986,
          "velocity": 0.31496062992125984,
          "duration": 0.19166666666666288
        },
        {
          "name": "A4",
          "midi": 69,
          "time": 142.19999999999985,
          "velocity": 0.31496062992125984,
          "duration": 0.19166666666666288
        },
        {
          "name": "F#2",
          "midi": 42,
          "time": 142.19999999999985,
          "velocity": 0.4330708661417323,
          "duration": 0.19166666666666288
        },
        {
          "name": "C2",
          "midi": 36,
          "time": 142.39999999999984,
          "velocity": 0.7086614173228346,
          "duration": 0.799999999999983
        },
        {
          "name": "F#2",
          "midi": 42,
          "time": 142.39999999999984,
          "velocity": 0.4330708661417323,
          "duration": 0.19166666666666288
        },
        {
          "name": "F#2",
          "midi": 42,
          "time": 142.79999999999984,
          "velocity": 0.4330708661417323,
          "duration": 0.19166666666666288
        },
        {
          "name": "A4",
          "midi": 69,
          "time": 142.79999999999984,
          "velocity": 0.31496062992125984,
          "duration": 0.19166666666666288
        },
        {
          "name": "F#2",
          "midi": 42,
          "time": 142.99999999999983,
          "velocity": 0.4330708661417323,
          "duration": 0.19166666666666288
        },
        {
          "name": "A4",
          "midi": 69,
          "time": 142.99999999999983,
          "velocity": 0.31496062992125984,
          "duration": 0.19166666666666288
        },
        {
          "name": "F#2",
          "midi": 42,
          "time": 143.19999999999982,
          "velocity": 0.4330708661417323,
          "duration": 0.19166666666666288
        },
        {
          "name": "E2",
          "midi": 40,
          "time": 143.19999999999982,
          "velocity": 0.5905511811023622,
          "duration": 0.7999999999999545
        },
        {
          "name": "F#2",
          "midi": 42,
          "time": 143.3999999999998,
          "velocity": 0.4330708661417323,
          "duration": 0.19166666666666288
        },
        {
          "name": "A4",
          "midi": 69,
          "time": 143.5999999999998,
          "velocity": 0.31496062992125984,
          "duration": 0.19166666666666288
        },
        {
          "name": "F#2",
          "midi": 42,
          "time": 143.5999999999998,
          "velocity": 0.4330708661417323,
          "duration": 0.19166666666666288
        },
        {
          "name": "C2",
          "midi": 36,
          "time": 143.5999999999998,
          "velocity": 0.7086614173228346,
          "duration": 0.3916666666666515
        },
        {
          "name": "A4",
          "midi": 69,
          "time": 143.79999999999978,
          "velocity": 0.31496062992125984,
          "duration": 0.19166666666666288
        },
        {
          "name": "F#2",
          "midi": 42,
          "time": 143.99999999999977,
          "velocity": 0.4330708661417323,
          "duration": 0.19166666666666288
        },
        {
          "name": "C2",
          "midi": 36,
          "time": 143.99999999999977,
          "velocity": 0.7086614173228346,
          "duration": 1.1999999999999886
        },
        {
          "name": "A4",
          "midi": 69,
          "time": 144.39999999999978,
          "velocity": 0.31496062992125984,
          "duration": 0.19166666666666288
        },
        {
          "name": "F#2",
          "midi": 42,
          "time": 144.39999999999978,
          "velocity": 0.4330708661417323,
          "duration": 0.19166666666666288
        },
        {
          "name": "A4",
          "midi": 69,
          "time": 144.59999999999977,
          "velocity": 0.31496062992125984,
          "duration": 0.19166666666666288
        },
        {
          "name": "F#2",
          "midi": 42,
          "time": 144.79999999999976,
          "velocity": 0.4330708661417323,
          "duration": 0.19166666666666288
        },
        {
          "name": "E2",
          "midi": 40,
          "time": 144.79999999999976,
          "velocity": 0.5905511811023622,
          "duration": 0.799999999999983
        },
        {
          "name": "F#2",
          "midi": 42,
          "time": 145.19999999999976,
          "velocity": 0.4330708661417323,
          "duration": 0.19166666666666288
        },
        {
          "name": "A4",
          "midi": 69,
          "time": 145.19999999999976,
          "velocity": 0.31496062992125984,
          "duration": 0.19166666666666288
        },
        {
          "name": "A4",
          "midi": 69,
          "time": 145.39999999999975,
          "velocity": 0.31496062992125984,
          "duration": 0.19166666666666288
        },
        {
          "name": "C2",
          "midi": 36,
          "time": 145.59999999999974,
          "velocity": 0.7086614173228346,
          "duration": 0.799999999999983
        },
        {
          "name": "F#2",
          "midi": 42,
          "time": 145.59999999999974,
          "velocity": 0.4330708661417323,
          "duration": 0.19166666666666288
        },
        {
          "name": "A4",
          "midi": 69,
          "time": 145.99999999999974,
          "velocity": 0.31496062992125984,
          "duration": 0.19166666666666288
        },
        {
          "name": "F#2",
          "midi": 42,
          "time": 145.99999999999974,
          "velocity": 0.4330708661417323,
          "duration": 0.19166666666666288
        },
        {
          "name": "A4",
          "midi": 69,
          "time": 146.19999999999973,
          "velocity": 0.31496062992125984,
          "duration": 0.19166666666666288
        },
        {
          "name": "E2",
          "midi": 40,
          "time": 146.39999999999972,
          "velocity": 0.5905511811023622,
          "duration": 0.7999999999999545
        },
        {
          "name": "F#2",
          "midi": 42,
          "time": 146.39999999999972,
          "velocity": 0.4330708661417323,
          "duration": 0.19166666666666288
        },
        {
          "name": "F#2",
          "midi": 42,
          "time": 146.5999999999997,
          "velocity": 0.4330708661417323,
          "duration": 0.19166666666666288
        },
        {
          "name": "F#2",
          "midi": 42,
          "time": 146.7999999999997,
          "velocity": 0.4330708661417323,
          "duration": 0.19166666666666288
        },
        {
          "name": "A4",
          "midi": 69,
          "time": 146.7999999999997,
          "velocity": 0.31496062992125984,
          "duration": 0.19166666666666288
        },
        {
          "name": "C2",
          "midi": 36,
          "time": 146.7999999999997,
          "velocity": 0.7086614173228346,
          "duration": 0.3916666666666515
        },
        {
          "name": "A4",
          "midi": 69,
          "time": 146.9999999999997,
          "velocity": 0.31496062992125984,
          "duration": 0.19166666666666288
        },
        {
          "name": "C2",
          "midi": 36,
          "time": 147.19999999999968,
          "velocity": 0.7086614173228346,
          "duration": 1.1999999999999886
        },
        {
          "name": "F#2",
          "midi": 42,
          "time": 147.19999999999968,
          "velocity": 0.4330708661417323,
          "duration": 0.19166666666666288
        },
        {
          "name": "A4",
          "midi": 69,
          "time": 147.59999999999968,
          "velocity": 0.31496062992125984,
          "duration": 0.19166666666666288
        },
        {
          "name": "F#2",
          "midi": 42,
          "time": 147.59999999999968,
          "velocity": 0.4330708661417323,
          "duration": 0.19166666666666288
        },
        {
          "name": "A4",
          "midi": 69,
          "time": 147.79999999999967,
          "velocity": 0.31496062992125984,
          "duration": 0.19166666666666288
        },
        {
          "name": "E2",
          "midi": 40,
          "time": 147.99999999999966,
          "velocity": 0.5905511811023622,
          "duration": 0.799999999999983
        },
        {
          "name": "F#2",
          "midi": 42,
          "time": 147.99999999999966,
          "velocity": 0.4330708661417323,
          "duration": 0.19166666666666288
        },
        {
          "name": "F#2",
          "midi": 42,
          "time": 148.39999999999966,
          "velocity": 0.4330708661417323,
          "duration": 0.19166666666666288
        },
        {
          "name": "A4",
          "midi": 69,
          "time": 148.39999999999966,
          "velocity": 0.31496062992125984,
          "duration": 0.19166666666666288
        },
        {
          "name": "A4",
          "midi": 69,
          "time": 148.59999999999965,
          "velocity": 0.31496062992125984,
          "duration": 0.19166666666666288
        },
        {
          "name": "C2",
          "midi": 36,
          "time": 148.79999999999964,
          "velocity": 0.7086614173228346,
          "duration": 0.799999999999983
        },
        {
          "name": "F#2",
          "midi": 42,
          "time": 148.79999999999964,
          "velocity": 0.4330708661417323,
          "duration": 0.19166666666666288
        },
        {
          "name": "F#2",
          "midi": 42,
          "time": 149.19999999999965,
          "velocity": 0.4330708661417323,
          "duration": 0.19166666666666288
        },
        {
          "name": "A4",
          "midi": 69,
          "time": 149.19999999999965,
          "velocity": 0.31496062992125984,
          "duration": 0.19166666666666288
        },
        {
          "name": "A4",
          "midi": 69,
          "time": 149.39999999999964,
          "velocity": 0.31496062992125984,
          "duration": 0.19166666666666288
        },
        {
          "name": "F#2",
          "midi": 42,
          "time": 149.59999999999962,
          "velocity": 0.4330708661417323,
          "duration": 0.19166666666666288
        },
        {
          "name": "E2",
          "midi": 40,
          "time": 149.59999999999962,
          "velocity": 0.5905511811023622,
          "duration": 0.7999999999999545
        },
        {
          "name": "F#2",
          "midi": 42,
          "time": 149.7999999999996,
          "velocity": 0.4330708661417323,
          "duration": 0.19166666666666288
        },
        {
          "name": "F#2",
          "midi": 42,
          "time": 149.9999999999996,
          "velocity": 0.4330708661417323,
          "duration": 0.19166666666666288
        },
        {
          "name": "A4",
          "midi": 69,
          "time": 149.9999999999996,
          "velocity": 0.31496062992125984,
          "duration": 0.19166666666666288
        },
        {
          "name": "C2",
          "midi": 36,
          "time": 149.9999999999996,
          "velocity": 0.7086614173228346,
          "duration": 0.3916666666666515
        },
        {
          "name": "A4",
          "midi": 69,
          "time": 150.1999999999996,
          "velocity": 0.31496062992125984,
          "duration": 0.19166666666666288
        },
        {
          "name": "F#2",
          "midi": 42,
          "time": 150.1999999999996,
          "velocity": 0.4330708661417323,
          "duration": 0.19166666666666288
        },
        {
          "name": "F#2",
          "midi": 42,
          "time": 150.39999999999958,
          "velocity": 0.4330708661417323,
          "duration": 0.19166666666666288
        },
        {
          "name": "C2",
          "midi": 36,
          "time": 150.39999999999958,
          "velocity": 0.7086614173228346,
          "duration": 1.1999999999999886
        },
        {
          "name": "A4",
          "midi": 69,
          "time": 150.79999999999959,
          "velocity": 0.31496062992125984,
          "duration": 0.19166666666666288
        },
        {
          "name": "F#2",
          "midi": 42,
          "time": 150.79999999999959,
          "velocity": 0.4330708661417323,
          "duration": 0.19166666666666288
        },
        {
          "name": "A4",
          "midi": 69,
          "time": 150.99999999999957,
          "velocity": 0.31496062992125984,
          "duration": 0.19166666666666288
        },
        {
          "name": "F#2",
          "midi": 42,
          "time": 151.19999999999956,
          "velocity": 0.4330708661417323,
          "duration": 0.19166666666666288
        },
        {
          "name": "E2",
          "midi": 40,
          "time": 151.19999999999956,
          "velocity": 0.5905511811023622,
          "duration": 0.799999999999983
        },
        {
          "name": "A4",
          "midi": 69,
          "time": 151.59999999999957,
          "velocity": 0.31496062992125984,
          "duration": 0.19166666666666288
        },
        {
          "name": "F#2",
          "midi": 42,
          "time": 151.59999999999957,
          "velocity": 0.4330708661417323,
          "duration": 0.19166666666666288
        },
        {
          "name": "A4",
          "midi": 69,
          "time": 151.79999999999956,
          "velocity": 0.31496062992125984,
          "duration": 0.19166666666666288
        },
        {
          "name": "F#2",
          "midi": 42,
          "time": 151.99999999999955,
          "velocity": 0.4330708661417323,
          "duration": 0.19166666666666288
        },
        {
          "name": "C2",
          "midi": 36,
          "time": 151.99999999999955,
          "velocity": 0.7086614173228346,
          "duration": 0.7999999999999545
        },
        {
          "name": "F#2",
          "midi": 42,
          "time": 152.19999999999953,
          "velocity": 0.4330708661417323,
          "duration": 0.19166666666666288
        },
        {
          "name": "A4",
          "midi": 69,
          "time": 152.39999999999952,
          "velocity": 0.31496062992125984,
          "duration": 0.19166666666666288
        },
        {
          "name": "A4",
          "midi": 69,
          "time": 152.5999999999995,
          "velocity": 0.31496062992125984,
          "duration": 0.19166666666666288
        },
        {
          "name": "F#2",
          "midi": 42,
          "time": 152.5999999999995,
          "velocity": 0.4330708661417323,
          "duration": 0.19166666666666288
        },
        {
          "name": "E2",
          "midi": 40,
          "time": 152.7999999999995,
          "velocity": 0.5905511811023622,
          "duration": 0.7999999999999545
        },
        {
          "name": "F#2",
          "midi": 42,
          "time": 152.7999999999995,
          "velocity": 0.4330708661417323,
          "duration": 0.19166666666666288
        },
        {
          "name": "F#2",
          "midi": 42,
          "time": 152.9999999999995,
          "velocity": 0.4330708661417323,
          "duration": 0.19166666666666288
        },
        {
          "name": "C2",
          "midi": 36,
          "time": 153.19999999999948,
          "velocity": 0.7086614173228346,
          "duration": 0.3916666666666515
        },
        {
          "name": "F#2",
          "midi": 42,
          "time": 153.19999999999948,
          "velocity": 0.4330708661417323,
          "duration": 0.19166666666666288
        },
        {
          "name": "A4",
          "midi": 69,
          "time": 153.19999999999948,
          "velocity": 0.31496062992125984,
          "duration": 0.19166666666666288
        },
        {
          "name": "A4",
          "midi": 69,
          "time": 153.39999999999947,
          "velocity": 0.31496062992125984,
          "duration": 0.19166666666666288
        },
        {
          "name": "C2",
          "midi": 36,
          "time": 153.59999999999945,
          "velocity": 0.7086614173228346,
          "duration": 1.1999999999999886
        },
        {
          "name": "F#2",
          "midi": 42,
          "time": 153.59999999999945,
          "velocity": 0.4330708661417323,
          "duration": 0.19166666666666288
        },
        {
          "name": "F#2",
          "midi": 42,
          "time": 153.99999999999946,
          "velocity": 0.4330708661417323,
          "duration": 0.19166666666666288
        },
        {
          "name": "A4",
          "midi": 69,
          "time": 153.99999999999946,
          "velocity": 0.31496062992125984,
          "duration": 0.19166666666666288
        },
        {
          "name": "A4",
          "midi": 69,
          "time": 154.19999999999945,
          "velocity": 0.31496062992125984,
          "duration": 0.19166666666666288
        },
        {
          "name": "F#2",
          "midi": 42,
          "time": 154.39999999999944,
          "velocity": 0.4330708661417323,
          "duration": 0.19166666666666288
        },
        {
          "name": "E2",
          "midi": 40,
          "time": 154.39999999999944,
          "velocity": 0.5905511811023622,
          "duration": 0.799999999999983
        },
        {
          "name": "F#2",
          "midi": 42,
          "time": 154.79999999999944,
          "velocity": 0.4330708661417323,
          "duration": 0.19166666666666288
        },
        {
          "name": "A4",
          "midi": 69,
          "time": 154.79999999999944,
          "velocity": 0.31496062992125984,
          "duration": 0.19166666666666288
        },
        {
          "name": "A4",
          "midi": 69,
          "time": 154.99999999999943,
          "velocity": 0.31496062992125984,
          "duration": 0.19166666666666288
        },
        {
          "name": "C2",
          "midi": 36,
          "time": 155.19999999999942,
          "velocity": 0.7086614173228346,
          "duration": 0.7999999999999545
        },
        {
          "name": "F#2",
          "midi": 42,
          "time": 155.19999999999942,
          "velocity": 0.4330708661417323,
          "duration": 0.19166666666666288
        },
        {
          "name": "F#2",
          "midi": 42,
          "time": 155.3999999999994,
          "velocity": 0.4330708661417323,
          "duration": 0.19166666666666288
        },
        {
          "name": "F#2",
          "midi": 42,
          "time": 155.5999999999994,
          "velocity": 0.4330708661417323,
          "duration": 0.19166666666666288
        },
        {
          "name": "A4",
          "midi": 69,
          "time": 155.5999999999994,
          "velocity": 0.31496062992125984,
          "duration": 0.19166666666666288
        },
        {
          "name": "A4",
          "midi": 69,
          "time": 155.7999999999994,
          "velocity": 0.31496062992125984,
          "duration": 0.19166666666666288
        },
        {
          "name": "F#2",
          "midi": 42,
          "time": 155.99999999999937,
          "velocity": 0.4330708661417323,
          "duration": 0.19166666666666288
        },
        {
          "name": "E2",
          "midi": 40,
          "time": 155.99999999999937,
          "velocity": 0.5905511811023622,
          "duration": 0.7999999999999545
        },
        {
          "name": "F#2",
          "midi": 42,
          "time": 156.19999999999936,
          "velocity": 0.4330708661417323,
          "duration": 0.19166666666666288
        },
        {
          "name": "A4",
          "midi": 69,
          "time": 156.39999999999935,
          "velocity": 0.31496062992125984,
          "duration": 0.19166666666666288
        },
        {
          "name": "C2",
          "midi": 36,
          "time": 156.39999999999935,
          "velocity": 0.7086614173228346,
          "duration": 0.3916666666666515
        },
        {
          "name": "F#2",
          "midi": 42,
          "time": 156.39999999999935,
          "velocity": 0.4330708661417323,
          "duration": 0.19166666666666288
        },
        {
          "name": "A4",
          "midi": 69,
          "time": 156.59999999999934,
          "velocity": 0.31496062992125984,
          "duration": 0.19166666666666288
        },
        {
          "name": "C2",
          "midi": 36,
          "time": 156.79999999999933,
          "velocity": 0.7086614173228346,
          "duration": 1.1999999999999886
        },
        {
          "name": "F#2",
          "midi": 42,
          "time": 156.79999999999933,
          "velocity": 0.4330708661417323,
          "duration": 0.19166666666666288
        },
        {
          "name": "A4",
          "midi": 69,
          "time": 157.19999999999933,
          "velocity": 0.31496062992125984,
          "duration": 0.19166666666666288
        },
        {
          "name": "F#2",
          "midi": 42,
          "time": 157.19999999999933,
          "velocity": 0.4330708661417323,
          "duration": 0.19166666666666288
        },
        {
          "name": "A4",
          "midi": 69,
          "time": 157.39999999999932,
          "velocity": 0.31496062992125984,
          "duration": 0.19166666666666288
        },
        {
          "name": "E2",
          "midi": 40,
          "time": 157.5999999999993,
          "velocity": 0.5905511811023622,
          "duration": 0.799999999999983
        },
        {
          "name": "F#2",
          "midi": 42,
          "time": 157.5999999999993,
          "velocity": 0.4330708661417323,
          "duration": 0.19166666666666288
        },
        {
          "name": "F#2",
          "midi": 42,
          "time": 157.99999999999932,
          "velocity": 0.4330708661417323,
          "duration": 0.19166666666666288
        },
        {
          "name": "A4",
          "midi": 69,
          "time": 157.99999999999932,
          "velocity": 0.31496062992125984,
          "duration": 0.19166666666666288
        },
        {
          "name": "A4",
          "midi": 69,
          "time": 158.1999999999993,
          "velocity": 0.31496062992125984,
          "duration": 0.19166666666666288
        },
        {
          "name": "C2",
          "midi": 36,
          "time": 158.3999999999993,
          "velocity": 0.7086614173228346,
          "duration": 0.7999999999999545
        },
        {
          "name": "F#2",
          "midi": 42,
          "time": 158.3999999999993,
          "velocity": 0.4330708661417323,
          "duration": 0.19166666666666288
        },
        {
          "name": "F#2",
          "midi": 42,
          "time": 158.59999999999928,
          "velocity": 0.4330708661417323,
          "duration": 0.19166666666666288
        },
        {
          "name": "A4",
          "midi": 69,
          "time": 158.79999999999927,
          "velocity": 0.31496062992125984,
          "duration": 0.19166666666666288
        },
        {
          "name": "F#2",
          "midi": 42,
          "time": 158.79999999999927,
          "velocity": 0.4330708661417323,
          "duration": 0.19166666666666288
        },
        {
          "name": "F#2",
          "midi": 42,
          "time": 158.99999999999926,
          "velocity": 0.4330708661417323,
          "duration": 0.19166666666666288
        },
        {
          "name": "A4",
          "midi": 69,
          "time": 158.99999999999926,
          "velocity": 0.31496062992125984,
          "duration": 0.19166666666666288
        },
        {
          "name": "F#2",
          "midi": 42,
          "time": 159.19999999999925,
          "velocity": 0.4330708661417323,
          "duration": 0.19166666666666288
        },
        {
          "name": "E2",
          "midi": 40,
          "time": 159.19999999999925,
          "velocity": 0.5905511811023622,
          "duration": 0.799999999999983
        },
        {
          "name": "C2",
          "midi": 36,
          "time": 159.59999999999926,
          "velocity": 0.7086614173228346,
          "duration": 0.3916666666666515
        },
        {
          "name": "A4",
          "midi": 69,
          "time": 159.59999999999926,
          "velocity": 0.31496062992125984,
          "duration": 0.19166666666666288
        },
        {
          "name": "F#2",
          "midi": 42,
          "time": 159.59999999999926,
          "velocity": 0.4330708661417323,
          "duration": 0.19166666666666288
        },
        {
          "name": "A4",
          "midi": 69,
          "time": 159.79999999999924,
          "velocity": 0.31496062992125984,
          "duration": 0.19166666666666288
        },
        {
          "name": "F#2",
          "midi": 42,
          "time": 159.99999999999923,
          "velocity": 0.4330708661417323,
          "duration": 0.19166666666666288
        },
        {
          "name": "C2",
          "midi": 36,
          "time": 159.99999999999923,
          "velocity": 0.7086614173228346,
          "duration": 0.7999999999999545
        },
        {
          "name": "F#2",
          "midi": 42,
          "time": 160.19999999999922,
          "velocity": 0.4330708661417323,
          "duration": 0.19166666666666288
        },
        {
          "name": "F#2",
          "midi": 42,
          "time": 160.3999999999992,
          "velocity": 0.4330708661417323,
          "duration": 0.19166666666666288
        },
        {
          "name": "A4",
          "midi": 69,
          "time": 160.3999999999992,
          "velocity": 0.31496062992125984,
          "duration": 0.19166666666666288
        },
        {
          "name": "F#2",
          "midi": 42,
          "time": 160.5999999999992,
          "velocity": 0.4330708661417323,
          "duration": 0.19166666666666288
        },
        {
          "name": "A4",
          "midi": 69,
          "time": 160.5999999999992,
          "velocity": 0.31496062992125984,
          "duration": 0.19166666666666288
        },
        {
          "name": "F#2",
          "midi": 42,
          "time": 160.7999999999992,
          "velocity": 0.4330708661417323,
          "duration": 0.19166666666666288
        },
        {
          "name": "E2",
          "midi": 40,
          "time": 160.7999999999992,
          "velocity": 0.5905511811023622,
          "duration": 0.799999999999983
        },
        {
          "name": "F#2",
          "midi": 42,
          "time": 161.1999999999992,
          "velocity": 0.4330708661417323,
          "duration": 0.19166666666666288
        },
        {
          "name": "A4",
          "midi": 69,
          "time": 161.1999999999992,
          "velocity": 0.31496062992125984,
          "duration": 0.19166666666666288
        },
        {
          "name": "A4",
          "midi": 69,
          "time": 161.39999999999918,
          "velocity": 0.31496062992125984,
          "duration": 0.19166666666666288
        },
        {
          "name": "C2",
          "midi": 36,
          "time": 161.59999999999917,
          "velocity": 0.7086614173228346,
          "duration": 0.799999999999983
        },
        {
          "name": "F#2",
          "midi": 42,
          "time": 161.59999999999917,
          "velocity": 0.4330708661417323,
          "duration": 0.19166666666666288
        },
        {
          "name": "A4",
          "midi": 69,
          "time": 161.99999999999918,
          "velocity": 0.31496062992125984,
          "duration": 0.19166666666666288
        },
        {
          "name": "F#2",
          "midi": 42,
          "time": 161.99999999999918,
          "velocity": 0.4330708661417323,
          "duration": 0.19166666666666288
        },
        {
          "name": "A4",
          "midi": 69,
          "time": 162.19999999999916,
          "velocity": 0.31496062992125984,
          "duration": 0.19166666666666288
        },
        {
          "name": "E2",
          "midi": 40,
          "time": 162.39999999999915,
          "velocity": 0.5905511811023622,
          "duration": 0.7999999999999545
        },
        {
          "name": "F#2",
          "midi": 42,
          "time": 162.39999999999915,
          "velocity": 0.4330708661417323,
          "duration": 0.19166666666666288
        },
        {
          "name": "F#2",
          "midi": 42,
          "time": 162.59999999999914,
          "velocity": 0.4330708661417323,
          "duration": 0.19166666666666288
        },
        {
          "name": "A4",
          "midi": 69,
          "time": 162.79999999999913,
          "velocity": 0.31496062992125984,
          "duration": 0.19166666666666288
        },
        {
          "name": "F#2",
          "midi": 42,
          "time": 162.79999999999913,
          "velocity": 0.4330708661417323,
          "duration": 0.19166666666666288
        },
        {
          "name": "C2",
          "midi": 36,
          "time": 162.79999999999913,
          "velocity": 0.7086614173228346,
          "duration": 0.3916666666666515
        },
        {
          "name": "A4",
          "midi": 69,
          "time": 162.99999999999912,
          "velocity": 0.31496062992125984,
          "duration": 0.19166666666666288
        },
        {
          "name": "F#2",
          "midi": 42,
          "time": 163.1999999999991,
          "velocity": 0.4330708661417323,
          "duration": 0.19166666666666288
        },
        {
          "name": "C2",
          "midi": 36,
          "time": 163.1999999999991,
          "velocity": 0.7086614173228346,
          "duration": 1.1999999999999886
        },
        {
          "name": "A4",
          "midi": 69,
          "time": 163.5999999999991,
          "velocity": 0.31496062992125984,
          "duration": 0.19166666666666288
        },
        {
          "name": "F#2",
          "midi": 42,
          "time": 163.5999999999991,
          "velocity": 0.4330708661417323,
          "duration": 0.19166666666666288
        },
        {
          "name": "A4",
          "midi": 69,
          "time": 163.7999999999991,
          "velocity": 0.31496062992125984,
          "duration": 0.19166666666666288
        },
        {
          "name": "E2",
          "midi": 40,
          "time": 163.9999999999991,
          "velocity": 0.5905511811023622,
          "duration": 0.799999999999983
        },
        {
          "name": "F#2",
          "midi": 42,
          "time": 163.9999999999991,
          "velocity": 0.4330708661417323,
          "duration": 0.19166666666666288
        },
        {
          "name": "A4",
          "midi": 69,
          "time": 164.3999999999991,
          "velocity": 0.31496062992125984,
          "duration": 0.19166666666666288
        },
        {
          "name": "F#2",
          "midi": 42,
          "time": 164.3999999999991,
          "velocity": 0.4330708661417323,
          "duration": 0.19166666666666288
        },
        {
          "name": "A4",
          "midi": 69,
          "time": 164.59999999999908,
          "velocity": 0.31496062992125984,
          "duration": 0.19166666666666288
        },
        {
          "name": "F#2",
          "midi": 42,
          "time": 164.79999999999907,
          "velocity": 0.4330708661417323,
          "duration": 0.19166666666666288
        },
        {
          "name": "C2",
          "midi": 36,
          "time": 164.79999999999907,
          "velocity": 0.7086614173228346,
          "duration": 0.7999999999999545
        },
        {
          "name": "F#2",
          "midi": 42,
          "time": 164.99999999999906,
          "velocity": 0.4330708661417323,
          "duration": 0.19166666666666288
        },
        {
          "name": "A4",
          "midi": 69,
          "time": 165.19999999999905,
          "velocity": 0.31496062992125984,
          "duration": 0.19166666666666288
        },
        {
          "name": "A4",
          "midi": 69,
          "time": 165.39999999999904,
          "velocity": 0.31496062992125984,
          "duration": 0.19166666666666288
        },
        {
          "name": "F#2",
          "midi": 42,
          "time": 165.39999999999904,
          "velocity": 0.4330708661417323,
          "duration": 0.19166666666666288
        },
        {
          "name": "F#2",
          "midi": 42,
          "time": 165.59999999999903,
          "velocity": 0.4330708661417323,
          "duration": 0.19166666666666288
        },
        {
          "name": "E2",
          "midi": 40,
          "time": 165.59999999999903,
          "velocity": 0.5905511811023622,
          "duration": 0.7999999999999545
        },
        {
          "name": "F#2",
          "midi": 42,
          "time": 165.79999999999902,
          "velocity": 0.4330708661417323,
          "duration": 0.19166666666666288
        },
        {
          "name": "F#2",
          "midi": 42,
          "time": 165.999999999999,
          "velocity": 0.4330708661417323,
          "duration": 0.19166666666666288
        },
        {
          "name": "C2",
          "midi": 36,
          "time": 165.999999999999,
          "velocity": 0.7086614173228346,
          "duration": 0.3916666666666515
        },
        {
          "name": "A4",
          "midi": 69,
          "time": 165.999999999999,
          "velocity": 0.31496062992125984,
          "duration": 0.19166666666666288
        },
        {
          "name": "A4",
          "midi": 69,
          "time": 166.199999999999,
          "velocity": 0.31496062992125984,
          "duration": 0.19166666666666288
        },
        {
          "name": "F#2",
          "midi": 42,
          "time": 166.199999999999,
          "velocity": 0.4330708661417323,
          "duration": 0.19166666666666288
        },
        {
          "name": "C2",
          "midi": 36,
          "time": 166.39999999999898,
          "velocity": 0.7086614173228346,
          "duration": 1.1999999999999886
        },
        {
          "name": "F#2",
          "midi": 42,
          "time": 166.39999999999898,
          "velocity": 0.4330708661417323,
          "duration": 0.19166666666666288
        },
        {
          "name": "F#2",
          "midi": 42,
          "time": 166.799999999999,
          "velocity": 0.4330708661417323,
          "duration": 0.19166666666666288
        },
        {
          "name": "A4",
          "midi": 69,
          "time": 166.799999999999,
          "velocity": 0.31496062992125984,
          "duration": 0.19166666666666288
        },
        {
          "name": "A4",
          "midi": 69,
          "time": 166.99999999999898,
          "velocity": 0.31496062992125984,
          "duration": 0.19166666666666288
        },
        {
          "name": "F#2",
          "midi": 42,
          "time": 167.19999999999897,
          "velocity": 0.4330708661417323,
          "duration": 0.19166666666666288
        },
        {
          "name": "E2",
          "midi": 40,
          "time": 167.19999999999897,
          "velocity": 0.5905511811023622,
          "duration": 0.799999999999983
        },
        {
          "name": "F#2",
          "midi": 42,
          "time": 167.59999999999897,
          "velocity": 0.4330708661417323,
          "duration": 0.19166666666666288
        },
        {
          "name": "A4",
          "midi": 69,
          "time": 167.59999999999897,
          "velocity": 0.31496062992125984,
          "duration": 0.19166666666666288
        },
        {
          "name": "A4",
          "midi": 69,
          "time": 167.79999999999896,
          "velocity": 0.31496062992125984,
          "duration": 0.19166666666666288
        },
        {
          "name": "C2",
          "midi": 36,
          "time": 167.99999999999895,
          "velocity": 0.7086614173228346,
          "duration": 0.7999999999999545
        },
        {
          "name": "F#2",
          "midi": 42,
          "time": 167.99999999999895,
          "velocity": 0.4330708661417323,
          "duration": 0.19166666666666288
        },
        {
          "name": "F#2",
          "midi": 42,
          "time": 168.19999999999894,
          "velocity": 0.4330708661417323,
          "duration": 0.19166666666666288
        },
        {
          "name": "F#2",
          "midi": 42,
          "time": 168.39999999999893,
          "velocity": 0.4330708661417323,
          "duration": 0.19166666666666288
        },
        {
          "name": "A4",
          "midi": 69,
          "time": 168.39999999999893,
          "velocity": 0.31496062992125984,
          "duration": 0.19166666666666288
        },
        {
          "name": "A4",
          "midi": 69,
          "time": 168.59999999999891,
          "velocity": 0.31496062992125984,
          "duration": 0.19166666666666288
        },
        {
          "name": "F#2",
          "midi": 42,
          "time": 168.7999999999989,
          "velocity": 0.4330708661417323,
          "duration": 0.19166666666666288
        },
        {
          "name": "E2",
          "midi": 40,
          "time": 168.7999999999989,
          "velocity": 0.5905511811023622,
          "duration": 0.799999999999983
        },
        {
          "name": "A4",
          "midi": 69,
          "time": 169.1999999999989,
          "velocity": 0.31496062992125984,
          "duration": 0.19166666666666288
        },
        {
          "name": "F#2",
          "midi": 42,
          "time": 169.1999999999989,
          "velocity": 0.4330708661417323,
          "duration": 0.19166666666666288
        },
        {
          "name": "C2",
          "midi": 36,
          "time": 169.1999999999989,
          "velocity": 0.7086614173228346,
          "duration": 0.3916666666666515
        },
        {
          "name": "A4",
          "midi": 69,
          "time": 169.3999999999989,
          "velocity": 0.31496062992125984,
          "duration": 0.19166666666666288
        },
        {
          "name": "C2",
          "midi": 36,
          "time": 169.5999999999989,
          "velocity": 0.7086614173228346,
          "duration": 1.1999999999999602
        },
        {
          "name": "F#2",
          "midi": 42,
          "time": 169.5999999999989,
          "velocity": 0.4330708661417323,
          "duration": 0.19166666666666288
        },
        {
          "name": "F#2",
          "midi": 42,
          "time": 169.79999999999887,
          "velocity": 0.4330708661417323,
          "duration": 0.19166666666666288
        },
        {
          "name": "A4",
          "midi": 69,
          "time": 169.99999999999886,
          "velocity": 0.31496062992125984,
          "duration": 0.19166666666666288
        },
        {
          "name": "F#2",
          "midi": 42,
          "time": 169.99999999999886,
          "velocity": 0.4330708661417323,
          "duration": 0.19166666666666288
        },
        {
          "name": "A4",
          "midi": 69,
          "time": 170.19999999999885,
          "velocity": 0.31496062992125984,
          "duration": 0.19166666666666288
        },
        {
          "name": "E2",
          "midi": 40,
          "time": 170.39999999999884,
          "velocity": 0.5905511811023622,
          "duration": 0.799999999999983
        },
        {
          "name": "F#2",
          "midi": 42,
          "time": 170.39999999999884,
          "velocity": 0.4330708661417323,
          "duration": 0.19166666666666288
        },
        {
          "name": "F#2",
          "midi": 42,
          "time": 170.79999999999885,
          "velocity": 0.4330708661417323,
          "duration": 0.19166666666666288
        },
        {
          "name": "A4",
          "midi": 69,
          "time": 170.79999999999885,
          "velocity": 0.31496062992125984,
          "duration": 0.19166666666666288
        },
        {
          "name": "A4",
          "midi": 69,
          "time": 170.99999999999883,
          "velocity": 0.31496062992125984,
          "duration": 0.19166666666666288
        },
        {
          "name": "C2",
          "midi": 36,
          "time": 171.19999999999882,
          "velocity": 0.7086614173228346,
          "duration": 0.7999999999999545
        },
        {
          "name": "F#2",
          "midi": 42,
          "time": 171.19999999999882,
          "velocity": 0.4330708661417323,
          "duration": 0.19166666666666288
        },
        {
          "name": "F#2",
          "midi": 42,
          "time": 171.3999999999988,
          "velocity": 0.4330708661417323,
          "duration": 0.19166666666666288
        },
        {
          "name": "A4",
          "midi": 69,
          "time": 171.5999999999988,
          "velocity": 0.31496062992125984,
          "duration": 0.19166666666666288
        },
        {
          "name": "F#2",
          "midi": 42,
          "time": 171.5999999999988,
          "velocity": 0.4330708661417323,
          "duration": 0.19166666666666288
        },
        {
          "name": "A4",
          "midi": 69,
          "time": 171.7999999999988,
          "velocity": 0.31496062992125984,
          "duration": 0.19166666666666288
        },
        {
          "name": "E2",
          "midi": 40,
          "time": 171.99999999999878,
          "velocity": 0.5905511811023622,
          "duration": 0.7999999999999545
        },
        {
          "name": "F#2",
          "midi": 42,
          "time": 171.99999999999878,
          "velocity": 0.4330708661417323,
          "duration": 0.19166666666666288
        },
        {
          "name": "F#2",
          "midi": 42,
          "time": 172.19999999999877,
          "velocity": 0.4330708661417323,
          "duration": 0.19166666666666288
        },
        {
          "name": "F#2",
          "midi": 42,
          "time": 172.39999999999876,
          "velocity": 0.4330708661417323,
          "duration": 0.19166666666666288
        },
        {
          "name": "A4",
          "midi": 69,
          "time": 172.39999999999876,
          "velocity": 0.31496062992125984,
          "duration": 0.19166666666666288
        },
        {
          "name": "C2",
          "midi": 36,
          "time": 172.39999999999876,
          "velocity": 0.7086614173228346,
          "duration": 0.3916666666666515
        },
        {
          "name": "A4",
          "midi": 69,
          "time": 172.59999999999874,
          "velocity": 0.31496062992125984,
          "duration": 0.19166666666666288
        },
        {
          "name": "F#2",
          "midi": 42,
          "time": 172.59999999999874,
          "velocity": 0.4330708661417323,
          "duration": 0.19166666666666288
        },
        {
          "name": "C2",
          "midi": 36,
          "time": 172.79999999999873,
          "velocity": 0.7086614173228346,
          "duration": 1.1999999999999886
        },
        {
          "name": "F#2",
          "midi": 42,
          "time": 172.79999999999873,
          "velocity": 0.4330708661417323,
          "duration": 0.19166666666666288
        },
        {
          "name": "A4",
          "midi": 69,
          "time": 173.19999999999874,
          "velocity": 0.31496062992125984,
          "duration": 0.19166666666666288
        },
        {
          "name": "F#2",
          "midi": 42,
          "time": 173.19999999999874,
          "velocity": 0.4330708661417323,
          "duration": 0.19166666666666288
        },
        {
          "name": "A4",
          "midi": 69,
          "time": 173.39999999999873,
          "velocity": 0.31496062992125984,
          "duration": 0.19166666666666288
        },
        {
          "name": "F#2",
          "midi": 42,
          "time": 173.59999999999872,
          "velocity": 0.4330708661417323,
          "duration": 0.19166666666666288
        },
        {
          "name": "E2",
          "midi": 40,
          "time": 173.59999999999872,
          "velocity": 0.5905511811023622,
          "duration": 0.799999999999983
        },
        {
          "name": "F#2",
          "midi": 42,
          "time": 173.99999999999872,
          "velocity": 0.4330708661417323,
          "duration": 0.19166666666666288
        },
        {
          "name": "A4",
          "midi": 69,
          "time": 173.99999999999872,
          "velocity": 0.31496062992125984,
          "duration": 0.19166666666666288
        },
        {
          "name": "A4",
          "midi": 69,
          "time": 174.1999999999987,
          "velocity": 0.31496062992125984,
          "duration": 0.19166666666666288
        },
        {
          "name": "C2",
          "midi": 36,
          "time": 174.3999999999987,
          "velocity": 0.7086614173228346,
          "duration": 0.799999999999983
        },
        {
          "name": "F#2",
          "midi": 42,
          "time": 174.3999999999987,
          "velocity": 0.4330708661417323,
          "duration": 0.19166666666666288
        },
        {
          "name": "F#2",
          "midi": 42,
          "time": 174.7999999999987,
          "velocity": 0.4330708661417323,
          "duration": 0.19166666666666288
        },
        {
          "name": "A4",
          "midi": 69,
          "time": 174.7999999999987,
          "velocity": 0.31496062992125984,
          "duration": 0.19166666666666288
        },
        {
          "name": "A4",
          "midi": 69,
          "time": 174.9999999999987,
          "velocity": 0.31496062992125984,
          "duration": 0.19166666666666288
        },
        {
          "name": "F#2",
          "midi": 42,
          "time": 175.19999999999868,
          "velocity": 0.4330708661417323,
          "duration": 0.19166666666666288
        },
        {
          "name": "E2",
          "midi": 40,
          "time": 175.19999999999868,
          "velocity": 0.5905511811023622,
          "duration": 0.7999999999999545
        },
        {
          "name": "F#2",
          "midi": 42,
          "time": 175.39999999999867,
          "velocity": 0.4330708661417323,
          "duration": 0.19166666666666288
        },
        {
          "name": "A4",
          "midi": 69,
          "time": 175.59999999999866,
          "velocity": 0.31496062992125984,
          "duration": 0.19166666666666288
        },
        {
          "name": "F#2",
          "midi": 42,
          "time": 175.59999999999866,
          "velocity": 0.4330708661417323,
          "duration": 0.19166666666666288
        },
        {
          "name": "C2",
          "midi": 36,
          "time": 175.59999999999866,
          "velocity": 0.7086614173228346,
          "duration": 0.3916666666666515
        },
        {
          "name": "A4",
          "midi": 69,
          "time": 175.79999999999865,
          "velocity": 0.31496062992125984,
          "duration": 0.19166666666666288
        },
        {
          "name": "F#2",
          "midi": 42,
          "time": 175.99999999999864,
          "velocity": 0.4330708661417323,
          "duration": 0.19166666666666288
        },
        {
          "name": "C2",
          "midi": 36,
          "time": 175.99999999999864,
          "velocity": 0.7086614173228346,
          "duration": 1.1999999999999886
        },
        {
          "name": "F#2",
          "midi": 42,
          "time": 176.39999999999864,
          "velocity": 0.4330708661417323,
          "duration": 0.19166666666666288
        },
        {
          "name": "A4",
          "midi": 69,
          "time": 176.39999999999864,
          "velocity": 0.31496062992125984,
          "duration": 0.19166666666666288
        },
        {
          "name": "A4",
          "midi": 69,
          "time": 176.59999999999863,
          "velocity": 0.31496062992125984,
          "duration": 0.19166666666666288
        },
        {
          "name": "E2",
          "midi": 40,
          "time": 176.79999999999862,
          "velocity": 0.5905511811023622,
          "duration": 0.799999999999983
        },
        {
          "name": "F#2",
          "midi": 42,
          "time": 176.79999999999862,
          "velocity": 0.4330708661417323,
          "duration": 0.19166666666666288
        },
        {
          "name": "F#2",
          "midi": 42,
          "time": 177.19999999999862,
          "velocity": 0.4330708661417323,
          "duration": 0.19166666666666288
        },
        {
          "name": "A4",
          "midi": 69,
          "time": 177.19999999999862,
          "velocity": 0.31496062992125984,
          "duration": 0.19166666666666288
        },
        {
          "name": "A4",
          "midi": 69,
          "time": 177.3999999999986,
          "velocity": 0.31496062992125984,
          "duration": 0.19166666666666288
        },
        {
          "name": "F#2",
          "midi": 42,
          "time": 177.5999999999986,
          "velocity": 0.4330708661417323,
          "duration": 0.19166666666666288
        },
        {
          "name": "C2",
          "midi": 36,
          "time": 177.5999999999986,
          "velocity": 0.7086614173228346,
          "duration": 0.7999999999999545
        },
        {
          "name": "F#2",
          "midi": 42,
          "time": 177.7999999999986,
          "velocity": 0.4330708661417323,
          "duration": 0.19166666666666288
        },
        {
          "name": "A4",
          "midi": 69,
          "time": 177.99999999999858,
          "velocity": 0.31496062992125984,
          "duration": 0.19166666666666288
        },
        {
          "name": "F#2",
          "midi": 42,
          "time": 177.99999999999858,
          "velocity": 0.4330708661417323,
          "duration": 0.19166666666666288
        },
        {
          "name": "A4",
          "midi": 69,
          "time": 178.19999999999857,
          "velocity": 0.31496062992125984,
          "duration": 0.19166666666666288
        },
        {
          "name": "E2",
          "midi": 40,
          "time": 178.39999999999856,
          "velocity": 0.5905511811023622,
          "duration": 0.7999999999999545
        },
        {
          "name": "F#2",
          "midi": 42,
          "time": 178.39999999999856,
          "velocity": 0.4330708661417323,
          "duration": 0.19166666666666288
        },
        {
          "name": "F#2",
          "midi": 42,
          "time": 178.59999999999854,
          "velocity": 0.4330708661417323,
          "duration": 0.19166666666666288
        },
        {
          "name": "A4",
          "midi": 69,
          "time": 178.79999999999853,
          "velocity": 0.31496062992125984,
          "duration": 0.19166666666666288
        },
        {
          "name": "F#2",
          "midi": 42,
          "time": 178.79999999999853,
          "velocity": 0.4330708661417323,
          "duration": 0.19166666666666288
        },
        {
          "name": "C2",
          "midi": 36,
          "time": 178.79999999999853,
          "velocity": 0.7086614173228346,
          "duration": 0.3916666666666515
        },
        {
          "name": "F#2",
          "midi": 42,
          "time": 178.99999999999852,
          "velocity": 0.4330708661417323,
          "duration": 0.19166666666666288
        },
        {
          "name": "A4",
          "midi": 69,
          "time": 178.99999999999852,
          "velocity": 0.31496062992125984,
          "duration": 0.19166666666666288
        },
        {
          "name": "F#2",
          "midi": 42,
          "time": 179.1999999999985,
          "velocity": 0.4330708661417323,
          "duration": 0.19166666666666288
        },
        {
          "name": "C2",
          "midi": 36,
          "time": 179.1999999999985,
          "velocity": 0.7086614173228346,
          "duration": 1.1999999999999886
        },
        {
          "name": "A4",
          "midi": 69,
          "time": 179.59999999999852,
          "velocity": 0.31496062992125984,
          "duration": 0.19166666666666288
        },
        {
          "name": "F#2",
          "midi": 42,
          "time": 179.59999999999852,
          "velocity": 0.4330708661417323,
          "duration": 0.19166666666666288
        },
        {
          "name": "A4",
          "midi": 69,
          "time": 179.7999999999985,
          "velocity": 0.31496062992125984,
          "duration": 0.19166666666666288
        },
        {
          "name": "F#2",
          "midi": 42,
          "time": 179.9999999999985,
          "velocity": 0.4330708661417323,
          "duration": 0.19166666666666288
        },
        {
          "name": "E2",
          "midi": 40,
          "time": 179.9999999999985,
          "velocity": 0.5905511811023622,
          "duration": 0.799999999999983
        },
        {
          "name": "A4",
          "midi": 69,
          "time": 180.3999999999985,
          "velocity": 0.31496062992125984,
          "duration": 0.19166666666666288
        },
        {
          "name": "F#2",
          "midi": 42,
          "time": 180.3999999999985,
          "velocity": 0.4330708661417323,
          "duration": 0.19166666666666288
        },
        {
          "name": "A4",
          "midi": 69,
          "time": 180.5999999999985,
          "velocity": 0.31496062992125984,
          "duration": 0.19166666666666288
        },
        {
          "name": "C2",
          "midi": 36,
          "time": 180.79999999999848,
          "velocity": 0.7086614173228346,
          "duration": 0.7999999999999545
        },
        {
          "name": "F#2",
          "midi": 42,
          "time": 180.79999999999848,
          "velocity": 0.4330708661417323,
          "duration": 0.19166666666666288
        },
        {
          "name": "F#2",
          "midi": 42,
          "time": 180.99999999999847,
          "velocity": 0.4330708661417323,
          "duration": 0.19166666666666288
        },
        {
          "name": "F#2",
          "midi": 42,
          "time": 181.19999999999845,
          "velocity": 0.4330708661417323,
          "duration": 0.19166666666666288
        },
        {
          "name": "A4",
          "midi": 69,
          "time": 181.19999999999845,
          "velocity": 0.31496062992125984,
          "duration": 0.19166666666666288
        },
        {
          "name": "F#2",
          "midi": 42,
          "time": 181.39999999999844,
          "velocity": 0.4330708661417323,
          "duration": 0.19166666666666288
        },
        {
          "name": "A4",
          "midi": 69,
          "time": 181.39999999999844,
          "velocity": 0.31496062992125984,
          "duration": 0.19166666666666288
        },
        {
          "name": "E2",
          "midi": 40,
          "time": 181.59999999999843,
          "velocity": 0.5905511811023622,
          "duration": 0.799999999999983
        },
        {
          "name": "F#2",
          "midi": 42,
          "time": 181.59999999999843,
          "velocity": 0.4330708661417323,
          "duration": 0.19166666666666288
        },
        {
          "name": "A4",
          "midi": 69,
          "time": 181.99999999999844,
          "velocity": 0.31496062992125984,
          "duration": 0.19166666666666288
        },
        {
          "name": "F#2",
          "midi": 42,
          "time": 181.99999999999844,
          "velocity": 0.4330708661417323,
          "duration": 0.19166666666666288
        },
        {
          "name": "C2",
          "midi": 36,
          "time": 181.99999999999844,
          "velocity": 0.7086614173228346,
          "duration": 0.3916666666666515
        },
        {
          "name": "A4",
          "midi": 69,
          "time": 182.19999999999843,
          "velocity": 0.31496062992125984,
          "duration": 0.19166666666666288
        },
        {
          "name": "F#2",
          "midi": 42,
          "time": 182.3999999999984,
          "velocity": 0.4330708661417323,
          "duration": 0.0020833333333314386
        },
        {
          "name": "F#2",
          "midi": 42,
          "time": 182.3999999999984,
          "velocity": 0.4330708661417323,
          "duration": 0.19166666666666288
        },
        {
          "name": "C2",
          "midi": 36,
          "time": 182.3999999999984,
          "velocity": 0.7086614173228346,
          "duration": 1.1999999999999602
        },
        {
          "name": "F#2",
          "midi": 42,
          "time": 182.79999999999842,
          "velocity": 0.4330708661417323,
          "duration": 0.0020833333333314386
        },
        {
          "name": "A4",
          "midi": 69,
          "time": 182.79999999999842,
          "velocity": 0.31496062992125984,
          "duration": 0.19166666666666288
        },
        {
          "name": "F#2",
          "midi": 42,
          "time": 182.79999999999842,
          "velocity": 0.4330708661417323,
          "duration": 0.19166666666666288
        },
        {
          "name": "A4",
          "midi": 69,
          "time": 182.9999999999984,
          "velocity": 0.31496062992125984,
          "duration": 0.19166666666666288
        },
        {
          "name": "F#2",
          "midi": 42,
          "time": 182.9999999999984,
          "velocity": 0.4330708661417323,
          "duration": 0.19166666666666288
        },
        {
          "name": "F#2",
          "midi": 42,
          "time": 183.1999999999984,
          "velocity": 0.4330708661417323,
          "duration": 0.19166666666666288
        },
        {
          "name": "E2",
          "midi": 40,
          "time": 183.1999999999984,
          "velocity": 0.5905511811023622,
          "duration": 0.7999999999999545
        },
        {
          "name": "F#2",
          "midi": 42,
          "time": 183.39999999999839,
          "velocity": 0.4330708661417323,
          "duration": 0.19166666666666288
        },
        {
          "name": "A4",
          "midi": 69,
          "time": 183.59999999999837,
          "velocity": 0.31496062992125984,
          "duration": 0.19166666666666288
        },
        {
          "name": "F#2",
          "midi": 42,
          "time": 183.59999999999837,
          "velocity": 0.4330708661417323,
          "duration": 0.0020833333333314386
        },
        {
          "name": "F#2",
          "midi": 42,
          "time": 183.59999999999837,
          "velocity": 0.4330708661417323,
          "duration": 0.19166666666666288
        },
        {
          "name": "A4",
          "midi": 69,
          "time": 183.79999999999836,
          "velocity": 0.31496062992125984,
          "duration": 0.19166666666666288
        },
        {
          "name": "C2",
          "midi": 36,
          "time": 183.99999999999835,
          "velocity": 0.7086614173228346,
          "duration": 0.7999999999999545
        },
        {
          "name": "F#2",
          "midi": 42,
          "time": 183.99999999999835,
          "velocity": 0.4330708661417323,
          "duration": 0.0020833333333314386
        },
        {
          "name": "F#2",
          "midi": 42,
          "time": 183.99999999999835,
          "velocity": 0.4330708661417323,
          "duration": 0.19166666666666288
        },
        {
          "name": "F#2",
          "midi": 42,
          "time": 184.19999999999834,
          "velocity": 0.4330708661417323,
          "duration": 0.19166666666666288
        },
        {
          "name": "A4",
          "midi": 69,
          "time": 184.39999999999833,
          "velocity": 0.31496062992125984,
          "duration": 0.19166666666666288
        },
        {
          "name": "E2",
          "midi": 40,
          "time": 184.39999999999833,
          "velocity": 0.5905511811023622,
          "duration": 0.19166666666666288
        },
        {
          "name": "F#2",
          "midi": 42,
          "time": 184.39999999999833,
          "velocity": 0.4330708661417323,
          "duration": 0.19166666666666288
        },
        {
          "name": "F#2",
          "midi": 42,
          "time": 184.59999999999832,
          "velocity": 0.4330708661417323,
          "duration": 0.19166666666666288
        },
        {
          "name": "A4",
          "midi": 69,
          "time": 184.59999999999832,
          "velocity": 0.31496062992125984,
          "duration": 0.19166666666666288
        },
        {
          "name": "E2",
          "midi": 40,
          "time": 184.7999999999983,
          "velocity": 0.5905511811023622,
          "duration": 0.19166666666666288
        },
        {
          "name": "F#2",
          "midi": 42,
          "time": 184.7999999999983,
          "velocity": 0.4330708661417323,
          "duration": 0.0020833333333314386
        },
        {
          "name": "F#2",
          "midi": 42,
          "time": 184.7999999999983,
          "velocity": 0.4330708661417323,
          "duration": 0.19166666666666288
        },
        {
          "name": "F#2",
          "midi": 42,
          "time": 184.9999999999983,
          "velocity": 0.4330708661417323,
          "duration": 0.0020833333333314386
        },
        {
          "name": "E2",
          "midi": 40,
          "time": 184.9999999999983,
          "velocity": 0.5905511811023622,
          "duration": 0.19166666666666288
        },
        {
          "name": "F#2",
          "midi": 42,
          "time": 184.9999999999983,
          "velocity": 0.4330708661417323,
          "duration": 0.19166666666666288
        },
        {
          "name": "A4",
          "midi": 69,
          "time": 185.19999999999828,
          "velocity": 0.31496062992125984,
          "duration": 0.19166666666666288
        },
        {
          "name": "F#2",
          "midi": 42,
          "time": 185.19999999999828,
          "velocity": 0.4330708661417323,
          "duration": 0.0020833333333314386
        },
        {
          "name": "E2",
          "midi": 40,
          "time": 185.19999999999828,
          "velocity": 0.5905511811023622,
          "duration": 0.19166666666666288
        },
        {
          "name": "C2",
          "midi": 36,
          "time": 185.19999999999828,
          "velocity": 0.7086614173228346,
          "duration": 0.3916666666666515
        },
        {
          "name": "F#2",
          "midi": 42,
          "time": 185.19999999999828,
          "velocity": 0.4330708661417323,
          "duration": 0.19166666666666288
        },
        {
          "name": "E2",
          "midi": 40,
          "time": 185.39999999999827,
          "velocity": 0.5905511811023622,
          "duration": 0.19166666666666288
        },
        {
          "name": "A4",
          "midi": 69,
          "time": 185.39999999999827,
          "velocity": 0.31496062992125984,
          "duration": 0.19166666666666288
        },
        {
          "name": "F#2",
          "midi": 42,
          "time": 185.59999999999826,
          "velocity": 0.4330708661417323,
          "duration": 0.19166666666666288
        },
        {
          "name": "C#3",
          "midi": 49,
          "time": 185.59999999999826,
          "velocity": 0.5118110236220472,
          "duration": 2.399999999999949
        },
        {
          "name": "C2",
          "midi": 36,
          "time": 185.59999999999826,
          "velocity": 0.7086614173228346,
          "duration": 1.1999999999999886
        },
        {
          "name": "A4",
          "midi": 69,
          "time": 185.99999999999827,
          "velocity": 0.31496062992125984,
          "duration": 0.19166666666666288
        },
        {
          "name": "F#2",
          "midi": 42,
          "time": 185.99999999999827,
          "velocity": 0.4330708661417323,
          "duration": 0.19166666666666288
        },
        {
          "name": "A4",
          "midi": 69,
          "time": 186.19999999999825,
          "velocity": 0.31496062992125984,
          "duration": 0.19166666666666288
        },
        {
          "name": "F#2",
          "midi": 42,
          "time": 186.19999999999825,
          "velocity": 0.4330708661417323,
          "duration": 0.19166666666666288
        },
        {
          "name": "F#2",
          "midi": 42,
          "time": 186.39999999999824,
          "velocity": 0.4330708661417323,
          "duration": 0.19166666666666288
        },
        {
          "name": "E2",
          "midi": 40,
          "time": 186.39999999999824,
          "velocity": 0.5905511811023622,
          "duration": 0.799999999999983
        },
        {
          "name": "A4",
          "midi": 69,
          "time": 186.79999999999825,
          "velocity": 0.31496062992125984,
          "duration": 0.19166666666666288
        },
        {
          "name": "F#2",
          "midi": 42,
          "time": 186.79999999999825,
          "velocity": 0.4330708661417323,
          "duration": 0.19166666666666288
        },
        {
          "name": "A4",
          "midi": 69,
          "time": 186.99999999999824,
          "velocity": 0.31496062992125984,
          "duration": 0.19166666666666288
        },
        {
          "name": "C2",
          "midi": 36,
          "time": 187.19999999999823,
          "velocity": 0.7086614173228346,
          "duration": 1.1999999999999602
        },
        {
          "name": "F#2",
          "midi": 42,
          "time": 187.19999999999823,
          "velocity": 0.4330708661417323,
          "duration": 0.19166666666666288
        },
        {
          "name": "A4",
          "midi": 69,
          "time": 187.59999999999823,
          "velocity": 0.31496062992125984,
          "duration": 0.19166666666666288
        },
        {
          "name": "F#2",
          "midi": 42,
          "time": 187.59999999999823,
          "velocity": 0.4330708661417323,
          "duration": 0.19166666666666288
        },
        {
          "name": "A4",
          "midi": 69,
          "time": 187.79999999999822,
          "velocity": 0.31496062992125984,
          "duration": 0.19166666666666288
        },
        {
          "name": "F#2",
          "midi": 42,
          "time": 187.9999999999982,
          "velocity": 0.4330708661417323,
          "duration": 0.19166666666666288
        },
        {
          "name": "E2",
          "midi": 40,
          "time": 187.9999999999982,
          "velocity": 0.5905511811023622,
          "duration": 0.7999999999999545
        },
        {
          "name": "F#2",
          "midi": 42,
          "time": 188.1999999999982,
          "velocity": 0.4330708661417323,
          "duration": 0.19166666666666288
        },
        {
          "name": "F#2",
          "midi": 42,
          "time": 188.3999999999982,
          "velocity": 0.4330708661417323,
          "duration": 0.19166666666666288
        },
        {
          "name": "A4",
          "midi": 69,
          "time": 188.3999999999982,
          "velocity": 0.31496062992125984,
          "duration": 0.19166666666666288
        },
        {
          "name": "F#2",
          "midi": 42,
          "time": 188.59999999999818,
          "velocity": 0.4330708661417323,
          "duration": 0.19166666666666288
        },
        {
          "name": "A4",
          "midi": 69,
          "time": 188.59999999999818,
          "velocity": 0.31496062992125984,
          "duration": 0.19166666666666288
        },
        {
          "name": "C2",
          "midi": 36,
          "time": 188.79999999999816,
          "velocity": 0.7086614173228346,
          "duration": 1.1999999999999886
        },
        {
          "name": "F#2",
          "midi": 42,
          "time": 188.79999999999816,
          "velocity": 0.4330708661417323,
          "duration": 0.19166666666666288
        },
        {
          "name": "F#2",
          "midi": 42,
          "time": 189.19999999999817,
          "velocity": 0.4330708661417323,
          "duration": 0.19166666666666288
        },
        {
          "name": "A4",
          "midi": 69,
          "time": 189.19999999999817,
          "velocity": 0.31496062992125984,
          "duration": 0.19166666666666288
        },
        {
          "name": "A4",
          "midi": 69,
          "time": 189.39999999999816,
          "velocity": 0.31496062992125984,
          "duration": 0.19166666666666288
        },
        {
          "name": "E2",
          "midi": 40,
          "time": 189.59999999999815,
          "velocity": 0.5905511811023622,
          "duration": 0.799999999999983
        },
        {
          "name": "F#2",
          "midi": 42,
          "time": 189.59999999999815,
          "velocity": 0.4330708661417323,
          "duration": 0.19166666666666288
        },
        {
          "name": "A4",
          "midi": 69,
          "time": 189.99999999999815,
          "velocity": 0.31496062992125984,
          "duration": 0.19166666666666288
        },
        {
          "name": "F#2",
          "midi": 42,
          "time": 189.99999999999815,
          "velocity": 0.4330708661417323,
          "duration": 0.19166666666666288
        },
        {
          "name": "F#2",
          "midi": 42,
          "time": 190.19999999999814,
          "velocity": 0.4330708661417323,
          "duration": 0.19166666666666288
        },
        {
          "name": "A4",
          "midi": 69,
          "time": 190.19999999999814,
          "velocity": 0.31496062992125984,
          "duration": 0.19166666666666288
        },
        {
          "name": "C2",
          "midi": 36,
          "time": 190.39999999999813,
          "velocity": 0.7086614173228346,
          "duration": 0.5999999999999943
        },
        {
          "name": "F#2",
          "midi": 42,
          "time": 190.39999999999813,
          "velocity": 0.4330708661417323,
          "duration": 0.19166666666666288
        },
        {
          "name": "A4",
          "midi": 69,
          "time": 190.79999999999814,
          "velocity": 0.31496062992125984,
          "duration": 0.19166666666666288
        },
        {
          "name": "F#2",
          "midi": 42,
          "time": 190.79999999999814,
          "velocity": 0.4330708661417323,
          "duration": 0.19166666666666288
        },
        {
          "name": "F#2",
          "midi": 42,
          "time": 190.99999999999812,
          "velocity": 0.4330708661417323,
          "duration": 0.19166666666666288
        },
        {
          "name": "A4",
          "midi": 69,
          "time": 190.99999999999812,
          "velocity": 0.31496062992125984,
          "duration": 0.19166666666666288
        },
        {
          "name": "F#2",
          "midi": 42,
          "time": 191.1999999999981,
          "velocity": 0.4330708661417323,
          "duration": 0.19166666666666288
        },
        {
          "name": "C2",
          "midi": 36,
          "time": 191.1999999999981,
          "velocity": 0.7086614173228346,
          "duration": 0.19166666666666288
        },
        {
          "name": "E2",
          "midi": 40,
          "time": 191.1999999999981,
          "velocity": 0.5905511811023622,
          "duration": 0.7999999999999545
        },
        {
          "name": "F#2",
          "midi": 42,
          "time": 191.3999999999981,
          "velocity": 0.4330708661417323,
          "duration": 0.19166666666666288
        },
        {
          "name": "F#2",
          "midi": 42,
          "time": 191.5999999999981,
          "velocity": 0.4330708661417323,
          "duration": 0.19166666666666288
        },
        {
          "name": "C2",
          "midi": 36,
          "time": 191.5999999999981,
          "velocity": 0.7086614173228346,
          "duration": 0.19166666666666288
        },
        {
          "name": "A4",
          "midi": 69,
          "time": 191.5999999999981,
          "velocity": 0.31496062992125984,
          "duration": 0.19166666666666288
        },
        {
          "name": "A4",
          "midi": 69,
          "time": 191.79999999999808,
          "velocity": 0.31496062992125984,
          "duration": 0.19166666666666288
        },
        {
          "name": "F#2",
          "midi": 42,
          "time": 191.99999999999807,
          "velocity": 0.4330708661417323,
          "duration": 0.19166666666666288
        },
        {
          "name": "C2",
          "midi": 36,
          "time": 191.99999999999807,
          "velocity": 0.7086614173228346,
          "duration": 1.1999999999999886
        },
        {
          "name": "F#2",
          "midi": 42,
          "time": 192.39999999999807,
          "velocity": 0.4330708661417323,
          "duration": 0.19166666666666288
        },
        {
          "name": "A4",
          "midi": 69,
          "time": 192.39999999999807,
          "velocity": 0.31496062992125984,
          "duration": 0.19166666666666288
        },
        {
          "name": "A4",
          "midi": 69,
          "time": 192.59999999999806,
          "velocity": 0.31496062992125984,
          "duration": 0.19166666666666288
        },
        {
          "name": "E2",
          "midi": 40,
          "time": 192.79999999999805,
          "velocity": 0.5905511811023622,
          "duration": 0.799999999999983
        },
        {
          "name": "F#2",
          "midi": 42,
          "time": 192.79999999999805,
          "velocity": 0.4330708661417323,
          "duration": 0.19166666666666288
        },
        {
          "name": "A4",
          "midi": 69,
          "time": 193.19999999999806,
          "velocity": 0.31496062992125984,
          "duration": 0.19166666666666288
        },
        {
          "name": "F#2",
          "midi": 42,
          "time": 193.19999999999806,
          "velocity": 0.4330708661417323,
          "duration": 0.19166666666666288
        },
        {
          "name": "A4",
          "midi": 69,
          "time": 193.39999999999804,
          "velocity": 0.31496062992125984,
          "duration": 0.19166666666666288
        },
        {
          "name": "F#2",
          "midi": 42,
          "time": 193.59999999999803,
          "velocity": 0.4330708661417323,
          "duration": 0.19166666666666288
        },
        {
          "name": "C2",
          "midi": 36,
          "time": 193.59999999999803,
          "velocity": 0.7086614173228346,
          "duration": 0.5999999999999943
        },
        {
          "name": "F#2",
          "midi": 42,
          "time": 193.99999999999804,
          "velocity": 0.4330708661417323,
          "duration": 0.19166666666666288
        },
        {
          "name": "A4",
          "midi": 69,
          "time": 193.99999999999804,
          "velocity": 0.31496062992125984,
          "duration": 0.19166666666666288
        },
        {
          "name": "A4",
          "midi": 69,
          "time": 194.19999999999803,
          "velocity": 0.31496062992125984,
          "duration": 0.19166666666666288
        },
        {
          "name": "F#2",
          "midi": 42,
          "time": 194.39999999999802,
          "velocity": 0.4330708661417323,
          "duration": 0.19166666666666288
        },
        {
          "name": "C2",
          "midi": 36,
          "time": 194.39999999999802,
          "velocity": 0.7086614173228346,
          "duration": 0.19166666666666288
        },
        {
          "name": "E2",
          "midi": 40,
          "time": 194.39999999999802,
          "velocity": 0.5905511811023622,
          "duration": 0.7999999999999545
        },
        {
          "name": "F#2",
          "midi": 42,
          "time": 194.599999999998,
          "velocity": 0.4330708661417323,
          "duration": 0.19166666666666288
        },
        {
          "name": "A4",
          "midi": 69,
          "time": 194.799999999998,
          "velocity": 0.31496062992125984,
          "duration": 0.19166666666666288
        },
        {
          "name": "F#2",
          "midi": 42,
          "time": 194.799999999998,
          "velocity": 0.4330708661417323,
          "duration": 0.19166666666666288
        },
        {
          "name": "C2",
          "midi": 36,
          "time": 194.799999999998,
          "velocity": 0.7086614173228346,
          "duration": 0.19166666666666288
        },
        {
          "name": "A4",
          "midi": 69,
          "time": 194.99999999999798,
          "velocity": 0.31496062992125984,
          "duration": 0.19166666666666288
        },
        {
          "name": "C#3",
          "midi": 49,
          "time": 195.19999999999797,
          "velocity": 0.5118110236220472,
          "duration": 0.3916666666666515
        },
        {
          "name": "F#2",
          "midi": 42,
          "time": 195.19999999999797,
          "velocity": 0.4330708661417323,
          "duration": 0.19166666666666288
        },
        {
          "name": "C2",
          "midi": 36,
          "time": 195.19999999999797,
          "velocity": 0.7086614173228346,
          "duration": 0.5999999999999659
        },
        {
          "name": "A4",
          "midi": 69,
          "time": 195.59999999999795,
          "velocity": 0.31496062992125984,
          "duration": 0.19166666666666288
        },
        {
          "name": "F#2",
          "midi": 42,
          "time": 195.59999999999795,
          "velocity": 0.4330708661417323,
          "duration": 0.19166666666666288
        },
        {
          "name": "A4",
          "midi": 69,
          "time": 195.79999999999794,
          "velocity": 0.31496062992125984,
          "duration": 0.19166666666666288
        },
        {
          "name": "F#2",
          "midi": 42,
          "time": 195.99999999999793,
          "velocity": 0.4330708661417323,
          "duration": 0.19166666666666288
        },
        {
          "name": "E2",
          "midi": 40,
          "time": 195.99999999999793,
          "velocity": 0.5905511811023622,
          "duration": 0.5999999999999659
        },
        {
          "name": "C2",
          "midi": 36,
          "time": 195.99999999999793,
          "velocity": 0.7086614173228346,
          "duration": 0.5999999999999659
        },
        {
          "name": "A3",
          "midi": 57,
          "time": 195.99999999999793,
          "velocity": 0.5118110236220472,
          "duration": 0.3916666666666515
        },
        {
          "name": "F#2",
          "midi": 42,
          "time": 196.3999999999979,
          "velocity": 0.4330708661417323,
          "duration": 0.19166666666666288
        },
        {
          "name": "A4",
          "midi": 69,
          "time": 196.3999999999979,
          "velocity": 0.31496062992125984,
          "duration": 0.19166666666666288
        },
        {
          "name": "A4",
          "midi": 69,
          "time": 196.5999999999979,
          "velocity": 0.31496062992125984,
          "duration": 0.19166666666666288
        },
        {
          "name": "F#2",
          "midi": 42,
          "time": 196.79999999999788,
          "velocity": 0.4330708661417323,
          "duration": 0.19166666666666288
        },
        {
          "name": "C2",
          "midi": 36,
          "time": 196.79999999999788,
          "velocity": 0.7086614173228346,
          "duration": 0.5999999999999659
        },
        {
          "name": "C#3",
          "midi": 49,
          "time": 196.79999999999788,
          "velocity": 0.5118110236220472,
          "duration": 0.3916666666666515
        },
        {
          "name": "E2",
          "midi": 40,
          "time": 196.99999999999787,
          "velocity": 0.5511811023622047,
          "duration": 0.09166666666666856
        },
        {
          "name": "E2",
          "midi": 40,
          "time": 197.09999999999786,
          "velocity": 0.5511811023622047,
          "duration": 0.09166666666666856
        },
        {
          "name": "F#2",
          "midi": 42,
          "time": 197.19999999999786,
          "velocity": 0.4330708661417323,
          "duration": 0.19166666666666288
        },
        {
          "name": "E2",
          "midi": 40,
          "time": 197.19999999999786,
          "velocity": 0.5511811023622047,
          "duration": 0.09166666666666856
        },
        {
          "name": "A4",
          "midi": 69,
          "time": 197.19999999999786,
          "velocity": 0.31496062992125984,
          "duration": 0.19166666666666288
        },
        {
          "name": "E2",
          "midi": 40,
          "time": 197.39999999999785,
          "velocity": 0.5511811023622047,
          "duration": 0.09166666666666856
        },
        {
          "name": "A4",
          "midi": 69,
          "time": 197.39999999999785,
          "velocity": 0.31496062992125984,
          "duration": 0.19166666666666288
        },
        {
          "name": "E2",
          "midi": 40,
          "time": 197.59999999999783,
          "velocity": 0.5511811023622047,
          "duration": 0.09166666666666856
        },
        {
          "name": "A3",
          "midi": 57,
          "time": 197.59999999999783,
          "velocity": 0.5118110236220472,
          "duration": 0.3916666666666515
        },
        {
          "name": "C2",
          "midi": 36,
          "time": 197.59999999999783,
          "velocity": 0.7086614173228346,
          "duration": 0.39999999999997726
        },
        {
          "name": "F#2",
          "midi": 42,
          "time": 197.59999999999783,
          "velocity": 0.4330708661417323,
          "duration": 0.19166666666666288
        },
        {
          "name": "F#2",
          "midi": 42,
          "time": 197.79999999999782,
          "velocity": 0.4330708661417323,
          "duration": 0.19166666666666288
        },
        {
          "name": "A2",
          "midi": 45,
          "time": 197.79999999999782,
          "velocity": 0.9921259842519685,
          "duration": 0.19999999999998863
        },
        {
          "name": "F#2",
          "midi": 42,
          "time": 197.9999999999978,
          "velocity": 0.4330708661417323,
          "duration": 0.19166666666666288
        },
        {
          "name": "A4",
          "midi": 69,
          "time": 197.9999999999978,
          "velocity": 0.31496062992125984,
          "duration": 0.19166666666666288
        },
        {
          "name": "A2",
          "midi": 45,
          "time": 197.9999999999978,
          "velocity": 0.9921259842519685,
          "duration": 0.19999999999998863
        },
        {
          "name": "A4",
          "midi": 69,
          "time": 198.1999999999978,
          "velocity": 0.31496062992125984,
          "duration": 0.19166666666666288
        },
        {
          "name": "F#2",
          "midi": 42,
          "time": 198.1999999999978,
          "velocity": 0.4330708661417323,
          "duration": 0.19166666666666288
        },
        {
          "name": "G2",
          "midi": 43,
          "time": 198.1999999999978,
          "velocity": 0.9921259842519685,
          "duration": 0.19999999999998863
        },
        {
          "name": "C#3",
          "midi": 49,
          "time": 198.3999999999978,
          "velocity": 0.5118110236220472,
          "duration": 9.199999999999648
        },
        {
          "name": "C2",
          "midi": 36,
          "time": 198.3999999999978,
          "velocity": 0.7086614173228346,
          "duration": 1.1999999999999886
        },
        {
          "name": "F#2",
          "midi": 42,
          "time": 198.3999999999978,
          "velocity": 0.4330708661417323,
          "duration": 0.19166666666666288
        },
        {
          "name": "A4",
          "midi": 69,
          "time": 198.7999999999978,
          "velocity": 0.31496062992125984,
          "duration": 0.19166666666666288
        },
        {
          "name": "F#2",
          "midi": 42,
          "time": 198.7999999999978,
          "velocity": 0.4330708661417323,
          "duration": 0.19166666666666288
        },
        {
          "name": "A4",
          "midi": 69,
          "time": 198.99999999999778,
          "velocity": 0.31496062992125984,
          "duration": 0.19166666666666288
        },
        {
          "name": "F#2",
          "midi": 42,
          "time": 199.19999999999777,
          "velocity": 0.4330708661417323,
          "duration": 0.19166666666666288
        },
        {
          "name": "E2",
          "midi": 40,
          "time": 199.19999999999777,
          "velocity": 0.5905511811023622,
          "duration": 0.19166666666666288
        },
        {
          "name": "A4",
          "midi": 69,
          "time": 199.59999999999778,
          "velocity": 0.31496062992125984,
          "duration": 0.19166666666666288
        },
        {
          "name": "F#2",
          "midi": 42,
          "time": 199.59999999999778,
          "velocity": 0.4330708661417323,
          "duration": 0.19166666666666288
        },
        {
          "name": "A4",
          "midi": 69,
          "time": 199.79999999999777,
          "velocity": 0.31496062992125984,
          "duration": 0.19166666666666288
        },
        {
          "name": "C2",
          "midi": 36,
          "time": 199.99999999999775,
          "velocity": 0.7086614173228346,
          "duration": 0.39999999999997726
        },
        {
          "name": "F#2",
          "midi": 42,
          "time": 199.99999999999775,
          "velocity": 0.4330708661417323,
          "duration": 0.19166666666666288
        },
        {
          "name": "F#2",
          "midi": 42,
          "time": 200.19999999999774,
          "velocity": 0.4330708661417323,
          "duration": 0.19166666666666288
        },
        {
          "name": "A4",
          "midi": 69,
          "time": 200.39999999999773,
          "velocity": 0.31496062992125984,
          "duration": 0.19166666666666288
        },
        {
          "name": "A4",
          "midi": 69,
          "time": 200.59999999999772,
          "velocity": 0.31496062992125984,
          "duration": 0.19166666666666288
        },
        {
          "name": "F#2",
          "midi": 42,
          "time": 200.59999999999772,
          "velocity": 0.4330708661417323,
          "duration": 0.19166666666666288
        },
        {
          "name": "C2",
          "midi": 36,
          "time": 200.7999999999977,
          "velocity": 0.7086614173228346,
          "duration": 0.19166666666666288
        },
        {
          "name": "F#2",
          "midi": 42,
          "time": 200.7999999999977,
          "velocity": 0.4330708661417323,
          "duration": 0.19166666666666288
        },
        {
          "name": "E2",
          "midi": 40,
          "time": 200.7999999999977,
          "velocity": 0.5905511811023622,
          "duration": 0.19166666666666288
        },
        {
          "name": "F#2",
          "midi": 42,
          "time": 200.9999999999977,
          "velocity": 0.4330708661417323,
          "duration": 0.19166666666666288
        },
        {
          "name": "A4",
          "midi": 69,
          "time": 201.1999999999977,
          "velocity": 0.31496062992125984,
          "duration": 0.19166666666666288
        },
        {
          "name": "F#2",
          "midi": 42,
          "time": 201.1999999999977,
          "velocity": 0.4330708661417323,
          "duration": 0.19166666666666288
        },
        {
          "name": "C2",
          "midi": 36,
          "time": 201.1999999999977,
          "velocity": 0.7086614173228346,
          "duration": 0.19166666666666288
        },
        {
          "name": "A4",
          "midi": 69,
          "time": 201.39999999999768,
          "velocity": 0.31496062992125984,
          "duration": 0.19166666666666288
        },
        {
          "name": "C2",
          "midi": 36,
          "time": 201.59999999999766,
          "velocity": 0.7086614173228346,
          "duration": 1.1999999999999886
        },
        {
          "name": "F#2",
          "midi": 42,
          "time": 201.59999999999766,
          "velocity": 0.4330708661417323,
          "duration": 0.19166666666666288
        },
        {
          "name": "A4",
          "midi": 69,
          "time": 201.99999999999767,
          "velocity": 0.31496062992125984,
          "duration": 0.19166666666666288
        },
        {
          "name": "F#2",
          "midi": 42,
          "time": 201.99999999999767,
          "velocity": 0.4330708661417323,
          "duration": 0.19166666666666288
        },
        {
          "name": "A4",
          "midi": 69,
          "time": 202.19999999999766,
          "velocity": 0.31496062992125984,
          "duration": 0.19166666666666288
        },
        {
          "name": "F#2",
          "midi": 42,
          "time": 202.39999999999765,
          "velocity": 0.4330708661417323,
          "duration": 0.19166666666666288
        },
        {
          "name": "E2",
          "midi": 40,
          "time": 202.39999999999765,
          "velocity": 0.5905511811023622,
          "duration": 0.19166666666666288
        },
        {
          "name": "F#2",
          "midi": 42,
          "time": 202.79999999999765,
          "velocity": 0.4330708661417323,
          "duration": 0.19166666666666288
        },
        {
          "name": "A4",
          "midi": 69,
          "time": 202.79999999999765,
          "velocity": 0.31496062992125984,
          "duration": 0.19166666666666288
        },
        {
          "name": "A4",
          "midi": 69,
          "time": 202.99999999999764,
          "velocity": 0.31496062992125984,
          "duration": 0.19166666666666288
        },
        {
          "name": "F#2",
          "midi": 42,
          "time": 203.19999999999763,
          "velocity": 0.4330708661417323,
          "duration": 0.19166666666666288
        },
        {
          "name": "C2",
          "midi": 36,
          "time": 203.19999999999763,
          "velocity": 0.7086614173228346,
          "duration": 1.1999999999999318
        },
        {
          "name": "F#2",
          "midi": 42,
          "time": 203.39999999999762,
          "velocity": 0.4330708661417323,
          "duration": 0.19166666666666288
        },
        {
          "name": "A4",
          "midi": 69,
          "time": 203.5999999999976,
          "velocity": 0.31496062992125984,
          "duration": 0.19166666666666288
        },
        {
          "name": "F#2",
          "midi": 42,
          "time": 203.5999999999976,
          "velocity": 0.4330708661417323,
          "duration": 0.19166666666666288
        },
        {
          "name": "A4",
          "midi": 69,
          "time": 203.7999999999976,
          "velocity": 0.31496062992125984,
          "duration": 0.19166666666666288
        },
        {
          "name": "F#2",
          "midi": 42,
          "time": 203.99999999999758,
          "velocity": 0.4330708661417323,
          "duration": 0.19166666666666288
        },
        {
          "name": "E2",
          "midi": 40,
          "time": 203.99999999999758,
          "velocity": 0.5905511811023622,
          "duration": 0.19166666666666288
        },
        {
          "name": "F#2",
          "midi": 42,
          "time": 204.19999999999757,
          "velocity": 0.4330708661417323,
          "duration": 0.19166666666666288
        },
        {
          "name": "A4",
          "midi": 69,
          "time": 204.39999999999756,
          "velocity": 0.31496062992125984,
          "duration": 0.19166666666666288
        },
        {
          "name": "F#2",
          "midi": 42,
          "time": 204.39999999999756,
          "velocity": 0.4330708661417323,
          "duration": 0.19166666666666288
        },
        {
          "name": "A4",
          "midi": 69,
          "time": 204.59999999999755,
          "velocity": 0.31496062992125984,
          "duration": 0.19166666666666288
        },
        {
          "name": "F#2",
          "midi": 42,
          "time": 204.79999999999754,
          "velocity": 0.4330708661417323,
          "duration": 0.19166666666666288
        },
        {
          "name": "C2",
          "midi": 36,
          "time": 204.79999999999754,
          "velocity": 0.7086614173228346,
          "duration": 1.1999999999999886
        },
        {
          "name": "A4",
          "midi": 69,
          "time": 205.19999999999754,
          "velocity": 0.31496062992125984,
          "duration": 0.19166666666666288
        },
        {
          "name": "F#2",
          "midi": 42,
          "time": 205.19999999999754,
          "velocity": 0.4330708661417323,
          "duration": 0.19166666666666288
        },
        {
          "name": "A4",
          "midi": 69,
          "time": 205.39999999999753,
          "velocity": 0.31496062992125984,
          "duration": 0.19166666666666288
        },
        {
          "name": "F#2",
          "midi": 42,
          "time": 205.59999999999752,
          "velocity": 0.4330708661417323,
          "duration": 0.19166666666666288
        },
        {
          "name": "E2",
          "midi": 40,
          "time": 205.59999999999752,
          "velocity": 0.5905511811023622,
          "duration": 0.19166666666666288
        },
        {
          "name": "A4",
          "midi": 69,
          "time": 205.99999999999753,
          "velocity": 0.31496062992125984,
          "duration": 0.19166666666666288
        },
        {
          "name": "F#2",
          "midi": 42,
          "time": 205.99999999999753,
          "velocity": 0.4330708661417323,
          "duration": 0.19166666666666288
        },
        {
          "name": "A4",
          "midi": 69,
          "time": 206.19999999999752,
          "velocity": 0.31496062992125984,
          "duration": 0.19166666666666288
        },
        {
          "name": "F#2",
          "midi": 42,
          "time": 206.3999999999975,
          "velocity": 0.4330708661417323,
          "duration": 0.19166666666666288
        },
        {
          "name": "C2",
          "midi": 36,
          "time": 206.3999999999975,
          "velocity": 0.7086614173228346,
          "duration": 0.9999999999999432
        },
        {
          "name": "F#2",
          "midi": 42,
          "time": 206.5999999999975,
          "velocity": 0.4330708661417323,
          "duration": 0.19166666666666288
        },
        {
          "name": "F#2",
          "midi": 42,
          "time": 206.79999999999748,
          "velocity": 0.4330708661417323,
          "duration": 0.19166666666666288
        },
        {
          "name": "A4",
          "midi": 69,
          "time": 206.79999999999748,
          "velocity": 0.31496062992125984,
          "duration": 0.19166666666666288
        },
        {
          "name": "F#2",
          "midi": 42,
          "time": 206.99999999999747,
          "velocity": 0.4330708661417323,
          "duration": 0.19166666666666288
        },
        {
          "name": "A4",
          "midi": 69,
          "time": 206.99999999999747,
          "velocity": 0.31496062992125984,
          "duration": 0.19166666666666288
        },
        {
          "name": "E2",
          "midi": 40,
          "time": 207.19999999999746,
          "velocity": 0.5905511811023622,
          "duration": 0.19166666666666288
        },
        {
          "name": "F#2",
          "midi": 42,
          "time": 207.19999999999746,
          "velocity": 0.4330708661417323,
          "duration": 0.19166666666666288
        },
        {
          "name": "A4",
          "midi": 69,
          "time": 207.59999999999744,
          "velocity": 0.31496062992125984,
          "duration": 0.19166666666666288
        },
        {
          "name": "C2",
          "midi": 36,
          "time": 207.59999999999744,
          "velocity": 0.7086614173228346,
          "duration": 0.19166666666666288
        },
        {
          "name": "F#2",
          "midi": 42,
          "time": 207.59999999999744,
          "velocity": 0.4330708661417323,
          "duration": 0.19166666666666288
        },
        {
          "name": "A4",
          "midi": 69,
          "time": 207.79999999999742,
          "velocity": 0.31496062992125984,
          "duration": 0.19166666666666288
        },
        {
          "name": "A3",
          "midi": 57,
          "time": 207.9999999999974,
          "velocity": 0.5118110236220472,
          "duration": 2.799999999999983
        },
        {
          "name": "C2",
          "midi": 36,
          "time": 207.9999999999974,
          "velocity": 0.7086614173228346,
          "duration": 2.5999999999999943
        },
        {
          "name": "A2",
          "midi": 45,
          "time": 234.06666666666405,
          "velocity": 0.984251968503937,
          "duration": 0.40416666666666856
        },
        {
          "name": "G2",
          "midi": 43,
          "time": 234.65833333333072,
          "velocity": 0.984251968503937,
          "duration": 0.4000000000000057
        },
        {
          "name": "G2",
          "midi": 43,
          "time": 235.2374999999974,
          "velocity": 0.984251968503937,
          "duration": 0.3958333333333428
        },
        {
          "name": "F2",
          "midi": 41,
          "time": 235.7999999999974,
          "velocity": 0.7795275590551181,
          "duration": 0.19166666666666288
        },
        {
          "name": "F4",
          "midi": 65,
          "time": 236.20416666666407,
          "velocity": 0.6299212598425197,
          "duration": 0.08750000000000568
        },
        {
          "name": "F4",
          "midi": 65,
          "time": 236.40416666666408,
          "velocity": 0.6299212598425197,
          "duration": 0.08750000000000568
        },
        {
          "name": "F4",
          "midi": 65,
          "time": 236.59166666666408,
          "velocity": 0.6299212598425197,
          "duration": 0.07916666666667993
        },
        {
          "name": "C2",
          "midi": 36,
          "time": 236.79999999999742,
          "velocity": 0.7086614173228346,
          "duration": 1.1999999999999886
        },
        {
          "name": "F#2",
          "midi": 42,
          "time": 236.79999999999742,
          "velocity": 0.4330708661417323,
          "duration": 0.19166666666666288
        },
        {
          "name": "A4",
          "midi": 69,
          "time": 237.19999999999743,
          "velocity": 0.31496062992125984,
          "duration": 0.19166666666666288
        },
        {
          "name": "F#2",
          "midi": 42,
          "time": 237.19999999999743,
          "velocity": 0.4330708661417323,
          "duration": 0.19166666666666288
        },
        {
          "name": "A4",
          "midi": 69,
          "time": 237.39999999999742,
          "velocity": 0.31496062992125984,
          "duration": 0.19166666666666288
        },
        {
          "name": "F#2",
          "midi": 42,
          "time": 237.5999999999974,
          "velocity": 0.4330708661417323,
          "duration": 0.19166666666666288
        },
        {
          "name": "E2",
          "midi": 40,
          "time": 237.5999999999974,
          "velocity": 0.5905511811023622,
          "duration": 1.1999999999999886
        },
        {
          "name": "A4",
          "midi": 69,
          "time": 237.9999999999974,
          "velocity": 0.31496062992125984,
          "duration": 0.19166666666666288
        },
        {
          "name": "F#2",
          "midi": 42,
          "time": 237.9999999999974,
          "velocity": 0.4330708661417323,
          "duration": 0.19166666666666288
        },
        {
          "name": "A4",
          "midi": 69,
          "time": 238.1999999999974,
          "velocity": 0.31496062992125984,
          "duration": 0.19166666666666288
        },
        {
          "name": "F#2",
          "midi": 42,
          "time": 238.3999999999974,
          "velocity": 0.4330708661417323,
          "duration": 0.19166666666666288
        },
        {
          "name": "C2",
          "midi": 36,
          "time": 238.3999999999974,
          "velocity": 0.7086614173228346,
          "duration": 0.799999999999983
        },
        {
          "name": "A4",
          "midi": 69,
          "time": 238.7999999999974,
          "velocity": 0.31496062992125984,
          "duration": 0.19166666666666288
        },
        {
          "name": "F#2",
          "midi": 42,
          "time": 238.7999999999974,
          "velocity": 0.4330708661417323,
          "duration": 0.19166666666666288
        },
        {
          "name": "A4",
          "midi": 69,
          "time": 238.99999999999739,
          "velocity": 0.31496062992125984,
          "duration": 0.19166666666666288
        },
        {
          "name": "E2",
          "midi": 40,
          "time": 239.19999999999737,
          "velocity": 0.5905511811023622,
          "duration": 1.1999999999999602
        },
        {
          "name": "F#2",
          "midi": 42,
          "time": 239.19999999999737,
          "velocity": 0.4330708661417323,
          "duration": 0.19166666666666288
        },
        {
          "name": "F#2",
          "midi": 42,
          "time": 239.39999999999736,
          "velocity": 0.4330708661417323,
          "duration": 0.19166666666666288
        },
        {
          "name": "A4",
          "midi": 69,
          "time": 239.59999999999735,
          "velocity": 0.31496062992125984,
          "duration": 0.19166666666666288
        },
        {
          "name": "C2",
          "midi": 36,
          "time": 239.59999999999735,
          "velocity": 0.7086614173228346,
          "duration": 0.3916666666666515
        },
        {
          "name": "F#2",
          "midi": 42,
          "time": 239.59999999999735,
          "velocity": 0.4330708661417323,
          "duration": 0.19166666666666288
        },
        {
          "name": "A4",
          "midi": 69,
          "time": 239.79999999999734,
          "velocity": 0.31496062992125984,
          "duration": 0.19166666666666288
        },
        {
          "name": "C2",
          "midi": 36,
          "time": 239.99999999999733,
          "velocity": 0.7086614173228346,
          "duration": 1.1999999999999886
        },
        {
          "name": "F#2",
          "midi": 42,
          "time": 239.99999999999733,
          "velocity": 0.4330708661417323,
          "duration": 0.19166666666666288
        },
        {
          "name": "A4",
          "midi": 69,
          "time": 240.39999999999733,
          "velocity": 0.31496062992125984,
          "duration": 0.19166666666666288
        },
        {
          "name": "F#2",
          "midi": 42,
          "time": 240.39999999999733,
          "velocity": 0.4330708661417323,
          "duration": 0.19166666666666288
        },
        {
          "name": "F#2",
          "midi": 42,
          "time": 240.59999999999732,
          "velocity": 0.4330708661417323,
          "duration": 0.19166666666666288
        },
        {
          "name": "A4",
          "midi": 69,
          "time": 240.59999999999732,
          "velocity": 0.31496062992125984,
          "duration": 0.19166666666666288
        },
        {
          "name": "F#2",
          "midi": 42,
          "time": 240.7999999999973,
          "velocity": 0.4330708661417323,
          "duration": 0.19166666666666288
        },
        {
          "name": "E2",
          "midi": 40,
          "time": 240.7999999999973,
          "velocity": 0.5905511811023622,
          "duration": 1.1999999999999886
        },
        {
          "name": "F#2",
          "midi": 42,
          "time": 241.19999999999732,
          "velocity": 0.4330708661417323,
          "duration": 0.19166666666666288
        },
        {
          "name": "A4",
          "midi": 69,
          "time": 241.19999999999732,
          "velocity": 0.31496062992125984,
          "duration": 0.19166666666666288
        },
        {
          "name": "A4",
          "midi": 69,
          "time": 241.3999999999973,
          "velocity": 0.31496062992125984,
          "duration": 0.19166666666666288
        },
        {
          "name": "F#2",
          "midi": 42,
          "time": 241.5999999999973,
          "velocity": 0.4330708661417323,
          "duration": 0.19166666666666288
        },
        {
          "name": "C2",
          "midi": 36,
          "time": 241.5999999999973,
          "velocity": 0.7086614173228346,
          "duration": 1.1999999999999602
        },
        {
          "name": "A4",
          "midi": 69,
          "time": 241.9999999999973,
          "velocity": 0.31496062992125984,
          "duration": 0.19166666666666288
        },
        {
          "name": "F#2",
          "midi": 42,
          "time": 241.9999999999973,
          "velocity": 0.4330708661417323,
          "duration": 0.19166666666666288
        },
        {
          "name": "A4",
          "midi": 69,
          "time": 242.1999999999973,
          "velocity": 0.31496062992125984,
          "duration": 0.19166666666666288
        },
        {
          "name": "E2",
          "midi": 40,
          "time": 242.39999999999728,
          "velocity": 0.5905511811023622,
          "duration": 1.1999999999999602
        },
        {
          "name": "F#2",
          "midi": 42,
          "time": 242.39999999999728,
          "velocity": 0.4330708661417323,
          "duration": 0.19166666666666288
        },
        {
          "name": "F#2",
          "midi": 42,
          "time": 242.59999999999727,
          "velocity": 0.4330708661417323,
          "duration": 0.19166666666666288
        },
        {
          "name": "F#2",
          "midi": 42,
          "time": 242.79999999999725,
          "velocity": 0.4330708661417323,
          "duration": 0.19166666666666288
        },
        {
          "name": "C2",
          "midi": 36,
          "time": 242.79999999999725,
          "velocity": 0.7086614173228346,
          "duration": 0.3916666666666515
        },
        {
          "name": "A4",
          "midi": 69,
          "time": 242.79999999999725,
          "velocity": 0.31496062992125984,
          "duration": 0.19166666666666288
        },
        {
          "name": "F#2",
          "midi": 42,
          "time": 242.99999999999724,
          "velocity": 0.4330708661417323,
          "duration": 0.19166666666666288
        },
        {
          "name": "A4",
          "midi": 69,
          "time": 242.99999999999724,
          "velocity": 0.31496062992125984,
          "duration": 0.19166666666666288
        },
        {
          "name": "C2",
          "midi": 36,
          "time": 243.19999999999723,
          "velocity": 0.7086614173228346,
          "duration": 1.1999999999999886
        },
        {
          "name": "F#2",
          "midi": 42,
          "time": 243.19999999999723,
          "velocity": 0.4330708661417323,
          "duration": 0.19166666666666288
        },
        {
          "name": "A4",
          "midi": 69,
          "time": 243.59999999999724,
          "velocity": 0.31496062992125984,
          "duration": 0.19166666666666288
        },
        {
          "name": "F#2",
          "midi": 42,
          "time": 243.59999999999724,
          "velocity": 0.4330708661417323,
          "duration": 0.19166666666666288
        },
        {
          "name": "A4",
          "midi": 69,
          "time": 243.79999999999723,
          "velocity": 0.31496062992125984,
          "duration": 0.19166666666666288
        },
        {
          "name": "E2",
          "midi": 40,
          "time": 243.99999999999721,
          "velocity": 0.5905511811023622,
          "duration": 1.1999999999999886
        },
        {
          "name": "F#2",
          "midi": 42,
          "time": 243.99999999999721,
          "velocity": 0.4330708661417323,
          "duration": 0.19166666666666288
        },
        {
          "name": "A4",
          "midi": 69,
          "time": 244.39999999999722,
          "velocity": 0.31496062992125984,
          "duration": 0.19166666666666288
        },
        {
          "name": "F#2",
          "midi": 42,
          "time": 244.39999999999722,
          "velocity": 0.4330708661417323,
          "duration": 0.19166666666666288
        },
        {
          "name": "A4",
          "midi": 69,
          "time": 244.5999999999972,
          "velocity": 0.31496062992125984,
          "duration": 0.19166666666666288
        },
        {
          "name": "F#2",
          "midi": 42,
          "time": 244.5999999999972,
          "velocity": 0.4330708661417323,
          "duration": 0.19166666666666288
        },
        {
          "name": "F#2",
          "midi": 42,
          "time": 244.7999999999972,
          "velocity": 0.4330708661417323,
          "duration": 0.19166666666666288
        },
        {
          "name": "C2",
          "midi": 36,
          "time": 244.7999999999972,
          "velocity": 0.7086614173228346,
          "duration": 0.799999999999983
        },
        {
          "name": "A4",
          "midi": 69,
          "time": 245.1999999999972,
          "velocity": 0.31496062992125984,
          "duration": 0.19166666666666288
        },
        {
          "name": "F#2",
          "midi": 42,
          "time": 245.1999999999972,
          "velocity": 0.4330708661417323,
          "duration": 0.19166666666666288
        },
        {
          "name": "F#2",
          "midi": 42,
          "time": 245.3999999999972,
          "velocity": 0.4330708661417323,
          "duration": 0.19166666666666288
        },
        {
          "name": "A4",
          "midi": 69,
          "time": 245.3999999999972,
          "velocity": 0.31496062992125984,
          "duration": 0.19166666666666288
        },
        {
          "name": "F#2",
          "midi": 42,
          "time": 245.59999999999718,
          "velocity": 0.4330708661417323,
          "duration": 0.19166666666666288
        },
        {
          "name": "E2",
          "midi": 40,
          "time": 245.59999999999718,
          "velocity": 0.5905511811023622,
          "duration": 0.7999999999999545
        },
        {
          "name": "F#2",
          "midi": 42,
          "time": 245.79999999999717,
          "velocity": 0.4330708661417323,
          "duration": 0.19166666666666288
        },
        {
          "name": "F#2",
          "midi": 42,
          "time": 245.99999999999716,
          "velocity": 0.4330708661417323,
          "duration": 0.19166666666666288
        },
        {
          "name": "A4",
          "midi": 69,
          "time": 245.99999999999716,
          "velocity": 0.31496062992125984,
          "duration": 0.19166666666666288
        },
        {
          "name": "C2",
          "midi": 36,
          "time": 245.99999999999716,
          "velocity": 0.7086614173228346,
          "duration": 0.3916666666666515
        },
        {
          "name": "A4",
          "midi": 69,
          "time": 246.19999999999715,
          "velocity": 0.31496062992125984,
          "duration": 0.19166666666666288
        },
        {
          "name": "C2",
          "midi": 36,
          "time": 246.39999999999714,
          "velocity": 0.7086614173228346,
          "duration": 1.1999999999999886
        },
        {
          "name": "F#2",
          "midi": 42,
          "time": 246.39999999999714,
          "velocity": 0.4330708661417323,
          "duration": 0.19166666666666288
        },
        {
          "name": "F#2",
          "midi": 42,
          "time": 246.79999999999714,
          "velocity": 0.4330708661417323,
          "duration": 0.19166666666666288
        },
        {
          "name": "A4",
          "midi": 69,
          "time": 246.79999999999714,
          "velocity": 0.31496062992125984,
          "duration": 0.19166666666666288
        },
        {
          "name": "A4",
          "midi": 69,
          "time": 246.99999999999713,
          "velocity": 0.31496062992125984,
          "duration": 0.19166666666666288
        },
        {
          "name": "E2",
          "midi": 40,
          "time": 247.19999999999712,
          "velocity": 0.5905511811023622,
          "duration": 0.799999999999983
        },
        {
          "name": "F#2",
          "midi": 42,
          "time": 247.19999999999712,
          "velocity": 0.4330708661417323,
          "duration": 0.19166666666666288
        },
        {
          "name": "A4",
          "midi": 69,
          "time": 247.59999999999712,
          "velocity": 0.31496062992125984,
          "duration": 0.19166666666666288
        },
        {
          "name": "F#2",
          "midi": 42,
          "time": 247.59999999999712,
          "velocity": 0.4330708661417323,
          "duration": 0.19166666666666288
        },
        {
          "name": "A4",
          "midi": 69,
          "time": 247.7999999999971,
          "velocity": 0.31496062992125984,
          "duration": 0.19166666666666288
        },
        {
          "name": "C2",
          "midi": 36,
          "time": 247.9999999999971,
          "velocity": 0.7086614173228346,
          "duration": 0.799999999999983
        },
        {
          "name": "F#2",
          "midi": 42,
          "time": 247.9999999999971,
          "velocity": 0.4330708661417323,
          "duration": 0.19166666666666288
        },
        {
          "name": "F#2",
          "midi": 42,
          "time": 248.3999999999971,
          "velocity": 0.4330708661417323,
          "duration": 0.19166666666666288
        },
        {
          "name": "A4",
          "midi": 69,
          "time": 248.3999999999971,
          "velocity": 0.31496062992125984,
          "duration": 0.19166666666666288
        },
        {
          "name": "A4",
          "midi": 69,
          "time": 248.5999999999971,
          "velocity": 0.31496062992125984,
          "duration": 0.19166666666666288
        },
        {
          "name": "E2",
          "midi": 40,
          "time": 248.79999999999708,
          "velocity": 0.5905511811023622,
          "duration": 0.7999999999999545
        },
        {
          "name": "F#2",
          "midi": 42,
          "time": 248.79999999999708,
          "velocity": 0.4330708661417323,
          "duration": 0.19166666666666288
        },
        {
          "name": "F#2",
          "midi": 42,
          "time": 248.99999999999707,
          "velocity": 0.4330708661417323,
          "duration": 0.19166666666666288
        },
        {
          "name": "C2",
          "midi": 36,
          "time": 249.19999999999706,
          "velocity": 0.7086614173228346,
          "duration": 0.3916666666666515
        },
        {
          "name": "A4",
          "midi": 69,
          "time": 249.19999999999706,
          "velocity": 0.31496062992125984,
          "duration": 0.19166666666666288
        },
        {
          "name": "F#2",
          "midi": 42,
          "time": 249.19999999999706,
          "velocity": 0.4330708661417323,
          "duration": 0.19166666666666288
        },
        {
          "name": "A4",
          "midi": 69,
          "time": 249.39999999999705,
          "velocity": 0.31496062992125984,
          "duration": 0.19166666666666288
        },
        {
          "name": "F#2",
          "midi": 42,
          "time": 249.59999999999704,
          "velocity": 0.4330708661417323,
          "duration": 0.19166666666666288
        },
        {
          "name": "C2",
          "midi": 36,
          "time": 249.59999999999704,
          "velocity": 0.7086614173228346,
          "duration": 1.1999999999999886
        },
        {
          "name": "A4",
          "midi": 69,
          "time": 249.99999999999704,
          "velocity": 0.31496062992125984,
          "duration": 0.19166666666666288
        },
        {
          "name": "F#2",
          "midi": 42,
          "time": 249.99999999999704,
          "velocity": 0.4330708661417323,
          "duration": 0.19166666666666288
        },
        {
          "name": "A4",
          "midi": 69,
          "time": 250.19999999999703,
          "velocity": 0.31496062992125984,
          "duration": 0.19166666666666288
        },
        {
          "name": "E2",
          "midi": 40,
          "time": 250.39999999999702,
          "velocity": 0.5905511811023622,
          "duration": 0.799999999999983
        },
        {
          "name": "F#2",
          "midi": 42,
          "time": 250.39999999999702,
          "velocity": 0.4330708661417323,
          "duration": 0.19166666666666288
        },
        {
          "name": "A4",
          "midi": 69,
          "time": 250.79999999999703,
          "velocity": 0.31496062992125984,
          "duration": 0.19166666666666288
        },
        {
          "name": "F#2",
          "midi": 42,
          "time": 250.79999999999703,
          "velocity": 0.4330708661417323,
          "duration": 0.19166666666666288
        },
        {
          "name": "A4",
          "midi": 69,
          "time": 250.99999999999702,
          "velocity": 0.31496062992125984,
          "duration": 0.19166666666666288
        },
        {
          "name": "F#2",
          "midi": 42,
          "time": 251.199999999997,
          "velocity": 0.4330708661417323,
          "duration": 0.19166666666666288
        },
        {
          "name": "C2",
          "midi": 36,
          "time": 251.199999999997,
          "velocity": 0.7086614173228346,
          "duration": 0.799999999999983
        },
        {
          "name": "F#2",
          "midi": 42,
          "time": 251.599999999997,
          "velocity": 0.4330708661417323,
          "duration": 0.19166666666666288
        },
        {
          "name": "A4",
          "midi": 69,
          "time": 251.599999999997,
          "velocity": 0.31496062992125984,
          "duration": 0.19166666666666288
        },
        {
          "name": "A4",
          "midi": 69,
          "time": 251.799999999997,
          "velocity": 0.31496062992125984,
          "duration": 0.19166666666666288
        },
        {
          "name": "E2",
          "midi": 40,
          "time": 251.999999999997,
          "velocity": 0.5905511811023622,
          "duration": 0.7999999999999545
        },
        {
          "name": "F#2",
          "midi": 42,
          "time": 251.999999999997,
          "velocity": 0.4330708661417323,
          "duration": 0.19166666666666288
        },
        {
          "name": "F#2",
          "midi": 42,
          "time": 252.19999999999698,
          "velocity": 0.4330708661417323,
          "duration": 0.19166666666666288
        },
        {
          "name": "F#2",
          "midi": 42,
          "time": 252.39999999999696,
          "velocity": 0.4330708661417323,
          "duration": 0.19166666666666288
        },
        {
          "name": "A4",
          "midi": 69,
          "time": 252.39999999999696,
          "velocity": 0.31496062992125984,
          "duration": 0.19166666666666288
        },
        {
          "name": "C2",
          "midi": 36,
          "time": 252.39999999999696,
          "velocity": 0.7086614173228346,
          "duration": 0.3916666666666515
        },
        {
          "name": "A4",
          "midi": 69,
          "time": 252.59999999999695,
          "velocity": 0.31496062992125984,
          "duration": 0.19166666666666288
        },
        {
          "name": "F#2",
          "midi": 42,
          "time": 252.59999999999695,
          "velocity": 0.4330708661417323,
          "duration": 0.19166666666666288
        },
        {
          "name": "C2",
          "midi": 36,
          "time": 252.79999999999694,
          "velocity": 0.7086614173228346,
          "duration": 1.1999999999999886
        },
        {
          "name": "F#2",
          "midi": 42,
          "time": 252.79999999999694,
          "velocity": 0.4330708661417323,
          "duration": 0.19166666666666288
        },
        {
          "name": "F#2",
          "midi": 42,
          "time": 253.19999999999695,
          "velocity": 0.4330708661417323,
          "duration": 0.19166666666666288
        },
        {
          "name": "A4",
          "midi": 69,
          "time": 253.19999999999695,
          "velocity": 0.31496062992125984,
          "duration": 0.19166666666666288
        },
        {
          "name": "A4",
          "midi": 69,
          "time": 253.39999999999694,
          "velocity": 0.31496062992125984,
          "duration": 0.19166666666666288
        },
        {
          "name": "E2",
          "midi": 40,
          "time": 253.59999999999692,
          "velocity": 0.5905511811023622,
          "duration": 0.799999999999983
        },
        {
          "name": "F#2",
          "midi": 42,
          "time": 253.59999999999692,
          "velocity": 0.4330708661417323,
          "duration": 0.19166666666666288
        },
        {
          "name": "F#2",
          "midi": 42,
          "time": 253.99999999999693,
          "velocity": 0.4330708661417323,
          "duration": 0.19166666666666288
        },
        {
          "name": "A4",
          "midi": 69,
          "time": 253.99999999999693,
          "velocity": 0.31496062992125984,
          "duration": 0.19166666666666288
        },
        {
          "name": "A4",
          "midi": 69,
          "time": 254.19999999999692,
          "velocity": 0.31496062992125984,
          "duration": 0.19166666666666288
        },
        {
          "name": "F#2",
          "midi": 42,
          "time": 254.3999999999969,
          "velocity": 0.4330708661417323,
          "duration": 0.19166666666666288
        },
        {
          "name": "C2",
          "midi": 36,
          "time": 254.3999999999969,
          "velocity": 0.7086614173228346,
          "duration": 0.7999999999999545
        },
        {
          "name": "F#2",
          "midi": 42,
          "time": 254.5999999999969,
          "velocity": 0.4330708661417323,
          "duration": 0.19166666666666288
        },
        {
          "name": "A4",
          "midi": 69,
          "time": 254.79999999999688,
          "velocity": 0.31496062992125984,
          "duration": 0.19166666666666288
        },
        {
          "name": "A4",
          "midi": 69,
          "time": 254.99999999999687,
          "velocity": 0.31496062992125984,
          "duration": 0.19166666666666288
        },
        {
          "name": "F#2",
          "midi": 42,
          "time": 254.99999999999687,
          "velocity": 0.4330708661417323,
          "duration": 0.19166666666666288
        },
        {
          "name": "F#2",
          "midi": 42,
          "time": 255.19999999999686,
          "velocity": 0.4330708661417323,
          "duration": 0.19166666666666288
        },
        {
          "name": "E2",
          "midi": 40,
          "time": 255.19999999999686,
          "velocity": 0.5905511811023622,
          "duration": 0.7999999999999545
        },
        {
          "name": "F#2",
          "midi": 42,
          "time": 255.39999999999685,
          "velocity": 0.4330708661417323,
          "duration": 0.19166666666666288
        },
        {
          "name": "F#2",
          "midi": 42,
          "time": 255.59999999999684,
          "velocity": 0.4330708661417323,
          "duration": 0.19166666666666288
        },
        {
          "name": "C2",
          "midi": 36,
          "time": 255.59999999999684,
          "velocity": 0.7086614173228346,
          "duration": 0.3916666666666515
        },
        {
          "name": "A4",
          "midi": 69,
          "time": 255.59999999999684,
          "velocity": 0.31496062992125984,
          "duration": 0.19166666666666288
        },
        {
          "name": "A4",
          "midi": 69,
          "time": 255.79999999999683,
          "velocity": 0.31496062992125984,
          "duration": 0.19166666666666288
        },
        {
          "name": "F#2",
          "midi": 42,
          "time": 255.99999999999682,
          "velocity": 0.4330708661417323,
          "duration": 0.19166666666666288
        },
        {
          "name": "C2",
          "midi": 36,
          "time": 255.99999999999682,
          "velocity": 0.7086614173228346,
          "duration": 1.1999999999999318
        },
        {
          "name": "A4",
          "midi": 69,
          "time": 256.3999999999968,
          "velocity": 0.31496062992125984,
          "duration": 0.19166666666666288
        },
        {
          "name": "F#2",
          "midi": 42,
          "time": 256.3999999999968,
          "velocity": 0.4330708661417323,
          "duration": 0.19166666666666288
        },
        {
          "name": "A4",
          "midi": 69,
          "time": 256.5999999999968,
          "velocity": 0.31496062992125984,
          "duration": 0.19166666666666288
        },
        {
          "name": "E2",
          "midi": 40,
          "time": 256.79999999999677,
          "velocity": 0.5905511811023622,
          "duration": 0.7999999999999545
        },
        {
          "name": "F#2",
          "midi": 42,
          "time": 256.79999999999677,
          "velocity": 0.4330708661417323,
          "duration": 0.19166666666666288
        },
        {
          "name": "A4",
          "midi": 69,
          "time": 257.19999999999675,
          "velocity": 0.31496062992125984,
          "duration": 0.19166666666666288
        },
        {
          "name": "F#2",
          "midi": 42,
          "time": 257.19999999999675,
          "velocity": 0.4330708661417323,
          "duration": 0.19166666666666288
        },
        {
          "name": "A4",
          "midi": 69,
          "time": 257.39999999999674,
          "velocity": 0.31496062992125984,
          "duration": 0.19166666666666288
        },
        {
          "name": "F#2",
          "midi": 42,
          "time": 257.5999999999967,
          "velocity": 0.4330708661417323,
          "duration": 0.19166666666666288
        },
        {
          "name": "C2",
          "midi": 36,
          "time": 257.5999999999967,
          "velocity": 0.7086614173228346,
          "duration": 0.7999999999999545
        },
        {
          "name": "F#2",
          "midi": 42,
          "time": 257.7999999999967,
          "velocity": 0.4330708661417323,
          "duration": 0.19166666666666288
        },
        {
          "name": "F#2",
          "midi": 42,
          "time": 257.9999999999967,
          "velocity": 0.4330708661417323,
          "duration": 0.19166666666666288
        },
        {
          "name": "A4",
          "midi": 69,
          "time": 257.9999999999967,
          "velocity": 0.31496062992125984,
          "duration": 0.19166666666666288
        },
        {
          "name": "A4",
          "midi": 69,
          "time": 258.1999999999967,
          "velocity": 0.31496062992125984,
          "duration": 0.19166666666666288
        },
        {
          "name": "F#2",
          "midi": 42,
          "time": 258.3999999999967,
          "velocity": 0.4330708661417323,
          "duration": 0.19166666666666288
        },
        {
          "name": "E2",
          "midi": 40,
          "time": 258.3999999999967,
          "velocity": 0.5905511811023622,
          "duration": 0.7999999999999545
        },
        {
          "name": "F#2",
          "midi": 42,
          "time": 258.59999999999667,
          "velocity": 0.4330708661417323,
          "duration": 0.19166666666666288
        },
        {
          "name": "A4",
          "midi": 69,
          "time": 258.79999999999666,
          "velocity": 0.31496062992125984,
          "duration": 0.19166666666666288
        },
        {
          "name": "F#2",
          "midi": 42,
          "time": 258.79999999999666,
          "velocity": 0.4330708661417323,
          "duration": 0.19166666666666288
        },
        {
          "name": "C2",
          "midi": 36,
          "time": 258.79999999999666,
          "velocity": 0.7086614173228346,
          "duration": 0.3916666666666515
        },
        {
          "name": "A4",
          "midi": 69,
          "time": 258.99999999999665,
          "velocity": 0.31496062992125984,
          "duration": 0.19166666666666288
        },
        {
          "name": "F#2",
          "midi": 42,
          "time": 259.19999999999663,
          "velocity": 0.4330708661417323,
          "duration": 0.19166666666666288
        },
        {
          "name": "C2",
          "midi": 36,
          "time": 259.19999999999663,
          "velocity": 0.7086614173228346,
          "duration": 1.1999999999999318
        },
        {
          "name": "A4",
          "midi": 69,
          "time": 259.5999999999966,
          "velocity": 0.31496062992125984,
          "duration": 0.19166666666666288
        },
        {
          "name": "F#2",
          "midi": 42,
          "time": 259.5999999999966,
          "velocity": 0.4330708661417323,
          "duration": 0.19166666666666288
        },
        {
          "name": "A4",
          "midi": 69,
          "time": 259.7999999999966,
          "velocity": 0.31496062992125984,
          "duration": 0.19166666666666288
        },
        {
          "name": "E2",
          "midi": 40,
          "time": 259.9999999999966,
          "velocity": 0.5905511811023622,
          "duration": 0.7999999999999545
        },
        {
          "name": "F#2",
          "midi": 42,
          "time": 259.9999999999966,
          "velocity": 0.4330708661417323,
          "duration": 0.19166666666666288
        },
        {
          "name": "F#2",
          "midi": 42,
          "time": 260.39999999999657,
          "velocity": 0.4330708661417323,
          "duration": 0.19166666666666288
        },
        {
          "name": "F#2",
          "midi": 42,
          "time": 260.79999999999654,
          "velocity": 0.4330708661417323,
          "duration": 0.19166666666666288
        },
        {
          "name": "E2",
          "midi": 40,
          "time": 260.79999999999654,
          "velocity": 0.5905511811023622,
          "duration": 0.19166666666666288
        },
        {
          "name": "E2",
          "midi": 40,
          "time": 260.99999999999653,
          "velocity": 0.5905511811023622,
          "duration": 0.19166666666666288
        },
        {
          "name": "F#2",
          "midi": 42,
          "time": 260.99999999999653,
          "velocity": 0.4330708661417323,
          "duration": 0.19166666666666288
        },
        {
          "name": "F#2",
          "midi": 42,
          "time": 261.1999999999965,
          "velocity": 0.4330708661417323,
          "duration": 0.19166666666666288
        },
        {
          "name": "E2",
          "midi": 40,
          "time": 261.1999999999965,
          "velocity": 0.5905511811023622,
          "duration": 0.19166666666666288
        },
        {
          "name": "F#4",
          "midi": 66,
          "time": 261.5999999999965,
          "velocity": 0.6299212598425197,
          "duration": 0.07916666666665151
        },
        {
          "name": "F4",
          "midi": 65,
          "time": 261.7999999999965,
          "velocity": 0.6299212598425197,
          "duration": 0.05833333333333712
        },
        {
          "name": "F#4",
          "midi": 66,
          "time": 261.8999999999965,
          "velocity": 0.6299212598425197,
          "duration": 0.05833333333333712
        },
        {
          "name": "F4",
          "midi": 65,
          "time": 261.99999999999653,
          "velocity": 0.6299212598425197,
          "duration": 0.10000000000002274
        },
        {
          "name": "F#4",
          "midi": 66,
          "time": 262.1999999999966,
          "velocity": 0.6299212598425197,
          "duration": 0.11250000000001137
        },
        {
          "name": "F#2",
          "midi": 42,
          "time": 262.40416666666323,
          "velocity": 0.4330708661417323,
          "duration": 0.19583333333332575
        },
        {
          "name": "C2",
          "midi": 36,
          "time": 262.40416666666323,
          "velocity": 0.7086614173228346,
          "duration": 1.1999999999999318
        },
        {
          "name": "F#2",
          "midi": 42,
          "time": 262.8041666666632,
          "velocity": 0.4330708661417323,
          "duration": 0.19583333333332575
        },
        {
          "name": "A4",
          "midi": 69,
          "time": 262.8041666666632,
          "velocity": 0.31496062992125984,
          "duration": 0.19583333333332575
        },
        {
          "name": "A4",
          "midi": 69,
          "time": 263.0041666666632,
          "velocity": 0.31496062992125984,
          "duration": 0.19583333333332575
        },
        {
          "name": "F#2",
          "midi": 42,
          "time": 263.2041666666632,
          "velocity": 0.4330708661417323,
          "duration": 0.19583333333332575
        },
        {
          "name": "E2",
          "midi": 40,
          "time": 263.2041666666632,
          "velocity": 0.5905511811023622,
          "duration": 1.1999999999999318
        },
        {
          "name": "F#2",
          "midi": 42,
          "time": 263.60416666666316,
          "velocity": 0.4330708661417323,
          "duration": 0.19583333333332575
        },
        {
          "name": "A4",
          "midi": 69,
          "time": 263.60416666666316,
          "velocity": 0.31496062992125984,
          "duration": 0.19583333333332575
        },
        {
          "name": "A4",
          "midi": 69,
          "time": 263.80416666666315,
          "velocity": 0.31496062992125984,
          "duration": 0.19583333333332575
        },
        {
          "name": "C2",
          "midi": 36,
          "time": 264.00416666666314,
          "velocity": 0.7086614173228346,
          "duration": 0.7999999999999545
        },
        {
          "name": "F#2",
          "midi": 42,
          "time": 264.00416666666314,
          "velocity": 0.4330708661417323,
          "duration": 0.19583333333332575
        },
        {
          "name": "F#2",
          "midi": 42,
          "time": 264.4041666666631,
          "velocity": 0.4330708661417323,
          "duration": 0.19583333333332575
        },
        {
          "name": "A4",
          "midi": 69,
          "time": 264.4041666666631,
          "velocity": 0.31496062992125984,
          "duration": 0.19583333333332575
        },
        {
          "name": "A4",
          "midi": 69,
          "time": 264.6041666666631,
          "velocity": 0.31496062992125984,
          "duration": 0.19583333333332575
        },
        {
          "name": "F#2",
          "midi": 42,
          "time": 264.8041666666631,
          "velocity": 0.4330708661417323,
          "duration": 0.19583333333332575
        },
        {
          "name": "E2",
          "midi": 40,
          "time": 264.8041666666631,
          "velocity": 0.5905511811023622,
          "duration": 1.1999999999999318
        },
        {
          "name": "F#2",
          "midi": 42,
          "time": 265.0041666666631,
          "velocity": 0.4330708661417323,
          "duration": 0.19583333333332575
        },
        {
          "name": "C2",
          "midi": 36,
          "time": 265.20416666666307,
          "velocity": 0.7086614173228346,
          "duration": 0.3958333333333144
        },
        {
          "name": "F#2",
          "midi": 42,
          "time": 265.20416666666307,
          "velocity": 0.4330708661417323,
          "duration": 0.19583333333332575
        },
        {
          "name": "A4",
          "midi": 69,
          "time": 265.20416666666307,
          "velocity": 0.31496062992125984,
          "duration": 0.19583333333332575
        },
        {
          "name": "A4",
          "midi": 69,
          "time": 265.40416666666306,
          "velocity": 0.31496062992125984,
          "duration": 0.19583333333332575
        },
        {
          "name": "C2",
          "midi": 36,
          "time": 265.60416666666305,
          "velocity": 0.7086614173228346,
          "duration": 1.1999999999999318
        },
        {
          "name": "F#2",
          "midi": 42,
          "time": 265.60416666666305,
          "velocity": 0.4330708661417323,
          "duration": 0.19583333333332575
        },
        {
          "name": "F#2",
          "midi": 42,
          "time": 266.004166666663,
          "velocity": 0.4330708661417323,
          "duration": 0.19583333333332575
        },
        {
          "name": "A4",
          "midi": 69,
          "time": 266.004166666663,
          "velocity": 0.31496062992125984,
          "duration": 0.19583333333332575
        },
        {
          "name": "F#2",
          "midi": 42,
          "time": 266.204166666663,
          "velocity": 0.4330708661417323,
          "duration": 0.19583333333332575
        },
        {
          "name": "A4",
          "midi": 69,
          "time": 266.204166666663,
          "velocity": 0.31496062992125984,
          "duration": 0.19583333333332575
        },
        {
          "name": "F#2",
          "midi": 42,
          "time": 266.404166666663,
          "velocity": 0.4330708661417323,
          "duration": 0.19583333333332575
        },
        {
          "name": "E2",
          "midi": 40,
          "time": 266.404166666663,
          "velocity": 0.5905511811023622,
          "duration": 1.1999999999999318
        },
        {
          "name": "A4",
          "midi": 69,
          "time": 266.804166666663,
          "velocity": 0.31496062992125984,
          "duration": 0.19583333333332575
        },
        {
          "name": "F#2",
          "midi": 42,
          "time": 266.804166666663,
          "velocity": 0.4330708661417323,
          "duration": 0.19583333333332575
        },
        {
          "name": "A4",
          "midi": 69,
          "time": 267.00416666666297,
          "velocity": 0.31496062992125984,
          "duration": 0.19583333333332575
        },
        {
          "name": "C2",
          "midi": 36,
          "time": 267.20416666666296,
          "velocity": 0.7086614173228346,
          "duration": 1.1999999999999318
        },
        {
          "name": "F#2",
          "midi": 42,
          "time": 267.20416666666296,
          "velocity": 0.4330708661417323,
          "duration": 0.19583333333332575
        },
        {
          "name": "A4",
          "midi": 69,
          "time": 267.60416666666293,
          "velocity": 0.31496062992125984,
          "duration": 0.19583333333332575
        },
        {
          "name": "F#2",
          "midi": 42,
          "time": 267.60416666666293,
          "velocity": 0.4330708661417323,
          "duration": 0.19583333333332575
        },
        {
          "name": "A4",
          "midi": 69,
          "time": 267.8041666666629,
          "velocity": 0.31496062992125984,
          "duration": 0.19583333333332575
        },
        {
          "name": "E2",
          "midi": 40,
          "time": 268.0041666666629,
          "velocity": 0.5905511811023622,
          "duration": 1.1999999999999318
        },
        {
          "name": "F#2",
          "midi": 42,
          "time": 268.0041666666629,
          "velocity": 0.4330708661417323,
          "duration": 0.19583333333332575
        },
        {
          "name": "F#2",
          "midi": 42,
          "time": 268.2041666666629,
          "velocity": 0.4330708661417323,
          "duration": 0.19583333333332575
        },
        {
          "name": "A4",
          "midi": 69,
          "time": 268.4041666666629,
          "velocity": 0.31496062992125984,
          "duration": 0.19583333333332575
        },
        {
          "name": "C2",
          "midi": 36,
          "time": 268.4041666666629,
          "velocity": 0.7086614173228346,
          "duration": 0.3958333333333144
        },
        {
          "name": "F#2",
          "midi": 42,
          "time": 268.4041666666629,
          "velocity": 0.4330708661417323,
          "duration": 0.19583333333332575
        },
        {
          "name": "F#2",
          "midi": 42,
          "time": 268.6041666666629,
          "velocity": 0.4330708661417323,
          "duration": 0.19583333333332575
        },
        {
          "name": "A4",
          "midi": 69,
          "time": 268.6041666666629,
          "velocity": 0.31496062992125984,
          "duration": 0.19583333333332575
        },
        {
          "name": "C2",
          "midi": 36,
          "time": 268.80416666666287,
          "velocity": 0.7086614173228346,
          "duration": 1.1999999999999318
        },
        {
          "name": "F#2",
          "midi": 42,
          "time": 268.80416666666287,
          "velocity": 0.4330708661417323,
          "duration": 0.19583333333332575
        },
        {
          "name": "A4",
          "midi": 69,
          "time": 269.20416666666284,
          "velocity": 0.31496062992125984,
          "duration": 0.19583333333332575
        },
        {
          "name": "F#2",
          "midi": 42,
          "time": 269.20416666666284,
          "velocity": 0.4330708661417323,
          "duration": 0.19583333333332575
        },
        {
          "name": "A4",
          "midi": 69,
          "time": 269.40416666666283,
          "velocity": 0.31496062992125984,
          "duration": 0.19583333333332575
        },
        {
          "name": "F#2",
          "midi": 42,
          "time": 269.6041666666628,
          "velocity": 0.4330708661417323,
          "duration": 0.19583333333332575
        },
        {
          "name": "E2",
          "midi": 40,
          "time": 269.6041666666628,
          "velocity": 0.5905511811023622,
          "duration": 1.1999999999999318
        },
        {
          "name": "F#2",
          "midi": 42,
          "time": 270.0041666666628,
          "velocity": 0.4330708661417323,
          "duration": 0.19583333333332575
        },
        {
          "name": "A4",
          "midi": 69,
          "time": 270.0041666666628,
          "velocity": 0.31496062992125984,
          "duration": 0.19583333333332575
        },
        {
          "name": "A4",
          "midi": 69,
          "time": 270.2041666666628,
          "velocity": 0.31496062992125984,
          "duration": 0.19583333333332575
        },
        {
          "name": "F#2",
          "midi": 42,
          "time": 270.2041666666628,
          "velocity": 0.4330708661417323,
          "duration": 0.19583333333332575
        },
        {
          "name": "F#2",
          "midi": 42,
          "time": 270.4041666666628,
          "velocity": 0.4330708661417323,
          "duration": 0.19583333333332575
        },
        {
          "name": "C2",
          "midi": 36,
          "time": 270.4041666666628,
          "velocity": 0.7086614173228346,
          "duration": 0.7999999999999545
        },
        {
          "name": "F#2",
          "midi": 42,
          "time": 270.80416666666275,
          "velocity": 0.4330708661417323,
          "duration": 0.19583333333332575
        },
        {
          "name": "A4",
          "midi": 69,
          "time": 270.80416666666275,
          "velocity": 0.31496062992125984,
          "duration": 0.19583333333332575
        },
        {
          "name": "F#2",
          "midi": 42,
          "time": 271.00416666666274,
          "velocity": 0.4330708661417323,
          "duration": 0.19583333333332575
        },
        {
          "name": "A4",
          "midi": 69,
          "time": 271.00416666666274,
          "velocity": 0.31496062992125984,
          "duration": 0.19583333333332575
        },
        {
          "name": "E2",
          "midi": 40,
          "time": 271.20416666666273,
          "velocity": 0.5905511811023622,
          "duration": 0.8000000000000114
        },
        {
          "name": "F#2",
          "midi": 42,
          "time": 271.20416666666273,
          "velocity": 0.4330708661417323,
          "duration": 0.19583333333332575
        },
        {
          "name": "F#2",
          "midi": 42,
          "time": 271.4041666666627,
          "velocity": 0.4330708661417323,
          "duration": 0.19583333333332575
        },
        {
          "name": "A4",
          "midi": 69,
          "time": 271.6041666666627,
          "velocity": 0.31496062992125984,
          "duration": 0.1958333333333826
        },
        {
          "name": "C2",
          "midi": 36,
          "time": 271.6041666666627,
          "velocity": 0.7086614173228346,
          "duration": 0.39583333333337123
        },
        {
          "name": "F#2",
          "midi": 42,
          "time": 271.6041666666627,
          "velocity": 0.4330708661417323,
          "duration": 0.1958333333333826
        },
        {
          "name": "A4",
          "midi": 69,
          "time": 271.80416666666275,
          "velocity": 0.31496062992125984,
          "duration": 0.19583333333332575
        },
        {
          "name": "F#2",
          "midi": 42,
          "time": 272.00416666666274,
          "velocity": 0.4330708661417323,
          "duration": 0.19583333333332575
        },
        {
          "name": "C2",
          "midi": 36,
          "time": 272.00416666666274,
          "velocity": 0.7086614173228346,
          "duration": 1.1999999999999318
        },
        {
          "name": "F#2",
          "midi": 42,
          "time": 272.4041666666627,
          "velocity": 0.4330708661417323,
          "duration": 0.19583333333332575
        },
        {
          "name": "A4",
          "midi": 69,
          "time": 272.4041666666627,
          "velocity": 0.31496062992125984,
          "duration": 0.19583333333332575
        },
        {
          "name": "A4",
          "midi": 69,
          "time": 272.6041666666627,
          "velocity": 0.31496062992125984,
          "duration": 0.19583333333332575
        },
        {
          "name": "F#2",
          "midi": 42,
          "time": 272.8041666666627,
          "velocity": 0.4330708661417323,
          "duration": 0.19583333333332575
        },
        {
          "name": "E2",
          "midi": 40,
          "time": 272.8041666666627,
          "velocity": 0.5905511811023622,
          "duration": 0.7999999999999545
        },
        {
          "name": "A4",
          "midi": 69,
          "time": 273.2041666666627,
          "velocity": 0.31496062992125984,
          "duration": 0.19583333333332575
        },
        {
          "name": "F#2",
          "midi": 42,
          "time": 273.2041666666627,
          "velocity": 0.4330708661417323,
          "duration": 0.19583333333332575
        },
        {
          "name": "A4",
          "midi": 69,
          "time": 273.40416666666266,
          "velocity": 0.31496062992125984,
          "duration": 0.19583333333332575
        },
        {
          "name": "C2",
          "midi": 36,
          "time": 273.60416666666265,
          "velocity": 0.7086614173228346,
          "duration": 0.7999999999999545
        },
        {
          "name": "F#2",
          "midi": 42,
          "time": 273.60416666666265,
          "velocity": 0.4330708661417323,
          "duration": 0.19583333333332575
        },
        {
          "name": "A4",
          "midi": 69,
          "time": 274.0041666666626,
          "velocity": 0.31496062992125984,
          "duration": 0.19583333333332575
        },
        {
          "name": "F#2",
          "midi": 42,
          "time": 274.0041666666626,
          "velocity": 0.4330708661417323,
          "duration": 0.19583333333332575
        },
        {
          "name": "A4",
          "midi": 69,
          "time": 274.2041666666626,
          "velocity": 0.31496062992125984,
          "duration": 0.19583333333332575
        },
        {
          "name": "F#2",
          "midi": 42,
          "time": 274.4041666666626,
          "velocity": 0.4330708661417323,
          "duration": 0.19583333333332575
        },
        {
          "name": "E2",
          "midi": 40,
          "time": 274.4041666666626,
          "velocity": 0.5905511811023622,
          "duration": 0.7999999999999545
        },
        {
          "name": "F#2",
          "midi": 42,
          "time": 274.6041666666626,
          "velocity": 0.4330708661417323,
          "duration": 0.19583333333332575
        },
        {
          "name": "F#2",
          "midi": 42,
          "time": 274.8041666666626,
          "velocity": 0.4330708661417323,
          "duration": 0.19583333333332575
        },
        {
          "name": "C2",
          "midi": 36,
          "time": 274.8041666666626,
          "velocity": 0.7086614173228346,
          "duration": 0.3958333333333144
        },
        {
          "name": "A4",
          "midi": 69,
          "time": 274.8041666666626,
          "velocity": 0.31496062992125984,
          "duration": 0.19583333333332575
        },
        {
          "name": "A4",
          "midi": 69,
          "time": 275.00416666666257,
          "velocity": 0.31496062992125984,
          "duration": 0.19583333333332575
        },
        {
          "name": "F#2",
          "midi": 42,
          "time": 275.20416666666256,
          "velocity": 0.4330708661417323,
          "duration": 0.19583333333332575
        },
        {
          "name": "C2",
          "midi": 36,
          "time": 275.20416666666256,
          "velocity": 0.7086614173228346,
          "duration": 1.1999999999999318
        },
        {
          "name": "F#2",
          "midi": 42,
          "time": 275.60416666666254,
          "velocity": 0.4330708661417323,
          "duration": 0.19583333333332575
        },
        {
          "name": "A4",
          "midi": 69,
          "time": 275.60416666666254,
          "velocity": 0.31496062992125984,
          "duration": 0.19583333333332575
        },
        {
          "name": "A4",
          "midi": 69,
          "time": 275.8041666666625,
          "velocity": 0.31496062992125984,
          "duration": 0.19583333333332575
        },
        {
          "name": "E2",
          "midi": 40,
          "time": 276.0041666666625,
          "velocity": 0.5905511811023622,
          "duration": 0.7999999999999545
        },
        {
          "name": "F#2",
          "midi": 42,
          "time": 276.0041666666625,
          "velocity": 0.4330708661417323,
          "duration": 0.19583333333332575
        },
        {
          "name": "F#2",
          "midi": 42,
          "time": 276.4041666666625,
          "velocity": 0.4330708661417323,
          "duration": 0.19583333333332575
        },
        {
          "name": "A4",
          "midi": 69,
          "time": 276.4041666666625,
          "velocity": 0.31496062992125984,
          "duration": 0.19583333333332575
        },
        {
          "name": "A4",
          "midi": 69,
          "time": 276.6041666666625,
          "velocity": 0.31496062992125984,
          "duration": 0.19583333333332575
        },
        {
          "name": "C2",
          "midi": 36,
          "time": 276.80416666666247,
          "velocity": 0.7086614173228346,
          "duration": 0.7999999999999545
        },
        {
          "name": "F#2",
          "midi": 42,
          "time": 276.80416666666247,
          "velocity": 0.4330708661417323,
          "duration": 0.19583333333332575
        },
        {
          "name": "A4",
          "midi": 69,
          "time": 277.20416666666245,
          "velocity": 0.31496062992125984,
          "duration": 0.19583333333332575
        },
        {
          "name": "F#2",
          "midi": 42,
          "time": 277.20416666666245,
          "velocity": 0.4330708661417323,
          "duration": 0.19583333333332575
        },
        {
          "name": "A4",
          "midi": 69,
          "time": 277.40416666666243,
          "velocity": 0.31496062992125984,
          "duration": 0.19583333333332575
        },
        {
          "name": "E2",
          "midi": 40,
          "time": 277.6041666666624,
          "velocity": 0.5905511811023622,
          "duration": 0.7999999999999545
        },
        {
          "name": "F#2",
          "midi": 42,
          "time": 277.6041666666624,
          "velocity": 0.4330708661417323,
          "duration": 0.19583333333332575
        },
        {
          "name": "F#2",
          "midi": 42,
          "time": 277.8041666666624,
          "velocity": 0.4330708661417323,
          "duration": 0.19583333333332575
        },
        {
          "name": "F#2",
          "midi": 42,
          "time": 278.0041666666624,
          "velocity": 0.4330708661417323,
          "duration": 0.19583333333332575
        },
        {
          "name": "A4",
          "midi": 69,
          "time": 278.0041666666624,
          "velocity": 0.31496062992125984,
          "duration": 0.19583333333332575
        },
        {
          "name": "C2",
          "midi": 36,
          "time": 278.0041666666624,
          "velocity": 0.7086614173228346,
          "duration": 0.3958333333333144
        },
        {
          "name": "A4",
          "midi": 69,
          "time": 278.2041666666624,
          "velocity": 0.31496062992125984,
          "duration": 0.19583333333332575
        },
        {
          "name": "F#2",
          "midi": 42,
          "time": 278.2041666666624,
          "velocity": 0.4330708661417323,
          "duration": 0.19583333333332575
        },
        {
          "name": "C2",
          "midi": 36,
          "time": 278.4041666666624,
          "velocity": 0.7086614173228346,
          "duration": 1.1999999999999318
        },
        {
          "name": "F#2",
          "midi": 42,
          "time": 278.4041666666624,
          "velocity": 0.4330708661417323,
          "duration": 0.19583333333332575
        },
        {
          "name": "F#2",
          "midi": 42,
          "time": 278.80416666666235,
          "velocity": 0.4330708661417323,
          "duration": 0.19583333333332575
        },
        {
          "name": "A4",
          "midi": 69,
          "time": 278.80416666666235,
          "velocity": 0.31496062992125984,
          "duration": 0.19583333333332575
        },
        {
          "name": "A4",
          "midi": 69,
          "time": 279.00416666666234,
          "velocity": 0.31496062992125984,
          "duration": 0.19583333333332575
        },
        {
          "name": "E2",
          "midi": 40,
          "time": 279.20416666666233,
          "velocity": 0.5905511811023622,
          "duration": 0.7999999999999545
        },
        {
          "name": "F#2",
          "midi": 42,
          "time": 279.20416666666233,
          "velocity": 0.4330708661417323,
          "duration": 0.19583333333332575
        },
        {
          "name": "F#2",
          "midi": 42,
          "time": 279.6041666666623,
          "velocity": 0.4330708661417323,
          "duration": 0.19583333333332575
        },
        {
          "name": "A4",
          "midi": 69,
          "time": 279.6041666666623,
          "velocity": 0.31496062992125984,
          "duration": 0.19583333333332575
        },
        {
          "name": "A4",
          "midi": 69,
          "time": 279.8041666666623,
          "velocity": 0.31496062992125984,
          "duration": 0.19583333333332575
        },
        {
          "name": "C2",
          "midi": 36,
          "time": 280.0041666666623,
          "velocity": 0.7086614173228346,
          "duration": 0.7999999999999545
        },
        {
          "name": "F#2",
          "midi": 42,
          "time": 280.0041666666623,
          "velocity": 0.4330708661417323,
          "duration": 0.19583333333332575
        },
        {
          "name": "F#2",
          "midi": 42,
          "time": 280.2041666666623,
          "velocity": 0.4330708661417323,
          "duration": 0.19583333333332575
        },
        {
          "name": "A4",
          "midi": 69,
          "time": 280.40416666666226,
          "velocity": 0.31496062992125984,
          "duration": 0.19583333333332575
        },
        {
          "name": "F#2",
          "midi": 42,
          "time": 280.60416666666225,
          "velocity": 0.4330708661417323,
          "duration": 0.19583333333332575
        },
        {
          "name": "A4",
          "midi": 69,
          "time": 280.60416666666225,
          "velocity": 0.31496062992125984,
          "duration": 0.19583333333332575
        },
        {
          "name": "F#2",
          "midi": 42,
          "time": 280.80416666666224,
          "velocity": 0.4330708661417323,
          "duration": 0.19583333333332575
        },
        {
          "name": "E2",
          "midi": 40,
          "time": 280.80416666666224,
          "velocity": 0.5905511811023622,
          "duration": 0.7999999999999545
        },
        {
          "name": "F#2",
          "midi": 42,
          "time": 281.00416666666223,
          "velocity": 0.4330708661417323,
          "duration": 0.19583333333332575
        },
        {
          "name": "C2",
          "midi": 36,
          "time": 281.2041666666622,
          "velocity": 0.7086614173228346,
          "duration": 0.3958333333333144
        },
        {
          "name": "A4",
          "midi": 69,
          "time": 281.2041666666622,
          "velocity": 0.31496062992125984,
          "duration": 0.19583333333332575
        },
        {
          "name": "F#2",
          "midi": 42,
          "time": 281.2041666666622,
          "velocity": 0.4330708661417323,
          "duration": 0.19583333333332575
        },
        {
          "name": "A4",
          "midi": 69,
          "time": 281.4041666666622,
          "velocity": 0.31496062992125984,
          "duration": 0.19583333333332575
        },
        {
          "name": "F#2",
          "midi": 42,
          "time": 281.6041666666622,
          "velocity": 0.4330708661417323,
          "duration": 0.19583333333332575
        },
        {
          "name": "C2",
          "midi": 36,
          "time": 281.6041666666622,
          "velocity": 0.7086614173228346,
          "duration": 1.1999999999999318
        },
        {
          "name": "A4",
          "midi": 69,
          "time": 282.0041666666622,
          "velocity": 0.31496062992125984,
          "duration": 0.19583333333332575
        },
        {
          "name": "F#2",
          "midi": 42,
          "time": 282.0041666666622,
          "velocity": 0.4330708661417323,
          "duration": 0.19583333333332575
        },
        {
          "name": "A4",
          "midi": 69,
          "time": 282.20416666666216,
          "velocity": 0.31496062992125984,
          "duration": 0.19583333333332575
        },
        {
          "name": "F#2",
          "midi": 42,
          "time": 282.40416666666215,
          "velocity": 0.4330708661417323,
          "duration": 0.19583333333332575
        },
        {
          "name": "E2",
          "midi": 40,
          "time": 282.40416666666215,
          "velocity": 0.5905511811023622,
          "duration": 0.7999999999999545
        },
        {
          "name": "F#2",
          "midi": 42,
          "time": 282.8041666666621,
          "velocity": 0.4330708661417323,
          "duration": 0.19583333333332575
        },
        {
          "name": "A4",
          "midi": 69,
          "time": 282.8041666666621,
          "velocity": 0.31496062992125984,
          "duration": 0.19583333333332575
        },
        {
          "name": "A4",
          "midi": 69,
          "time": 283.0041666666621,
          "velocity": 0.31496062992125984,
          "duration": 0.19583333333332575
        },
        {
          "name": "C2",
          "midi": 36,
          "time": 283.2041666666621,
          "velocity": 0.7086614173228346,
          "duration": 0.7999999999999545
        },
        {
          "name": "F#2",
          "midi": 42,
          "time": 283.2041666666621,
          "velocity": 0.4330708661417323,
          "duration": 0.19583333333332575
        },
        {
          "name": "F#2",
          "midi": 42,
          "time": 283.4041666666621,
          "velocity": 0.4330708661417323,
          "duration": 0.19583333333332575
        },
        {
          "name": "F#2",
          "midi": 42,
          "time": 283.6041666666621,
          "velocity": 0.4330708661417323,
          "duration": 0.19583333333332575
        },
        {
          "name": "A4",
          "midi": 69,
          "time": 283.6041666666621,
          "velocity": 0.31496062992125984,
          "duration": 0.19583333333332575
        },
        {
          "name": "A4",
          "midi": 69,
          "time": 283.80416666666207,
          "velocity": 0.31496062992125984,
          "duration": 0.19583333333332575
        },
        {
          "name": "F#2",
          "midi": 42,
          "time": 284.00416666666206,
          "velocity": 0.4330708661417323,
          "duration": 0.19583333333332575
        },
        {
          "name": "E2",
          "midi": 40,
          "time": 284.00416666666206,
          "velocity": 0.5905511811023622,
          "duration": 0.7999999999999545
        },
        {
          "name": "F#2",
          "midi": 42,
          "time": 284.20416666666205,
          "velocity": 0.4330708661417323,
          "duration": 0.19583333333332575
        },
        {
          "name": "F#2",
          "midi": 42,
          "time": 284.40416666666204,
          "velocity": 0.4330708661417323,
          "duration": 0.19583333333332575
        },
        {
          "name": "A4",
          "midi": 69,
          "time": 284.40416666666204,
          "velocity": 0.31496062992125984,
          "duration": 0.19583333333332575
        },
        {
          "name": "C2",
          "midi": 36,
          "time": 284.40416666666204,
          "velocity": 0.7086614173228346,
          "duration": 0.3958333333333144
        },
        {
          "name": "A4",
          "midi": 69,
          "time": 284.604166666662,
          "velocity": 0.31496062992125984,
          "duration": 0.19583333333332575
        },
        {
          "name": "C2",
          "midi": 36,
          "time": 284.804166666662,
          "velocity": 0.7086614173228346,
          "duration": 1.1999999999999318
        },
        {
          "name": "F#2",
          "midi": 42,
          "time": 284.804166666662,
          "velocity": 0.4330708661417323,
          "duration": 0.19583333333332575
        },
        {
          "name": "A4",
          "midi": 69,
          "time": 285.204166666662,
          "velocity": 0.31496062992125984,
          "duration": 0.19583333333332575
        },
        {
          "name": "F#2",
          "midi": 42,
          "time": 285.204166666662,
          "velocity": 0.4330708661417323,
          "duration": 0.19583333333332575
        },
        {
          "name": "A4",
          "midi": 69,
          "time": 285.404166666662,
          "velocity": 0.31496062992125984,
          "duration": 0.19583333333332575
        },
        {
          "name": "F#2",
          "midi": 42,
          "time": 285.60416666666197,
          "velocity": 0.4330708661417323,
          "duration": 0.19583333333332575
        },
        {
          "name": "E2",
          "midi": 40,
          "time": 285.60416666666197,
          "velocity": 0.5905511811023622,
          "duration": 0.7999999999999545
        },
        {
          "name": "F#2",
          "midi": 42,
          "time": 286.00416666666194,
          "velocity": 0.4330708661417323,
          "duration": 0.19583333333332575
        },
        {
          "name": "A4",
          "midi": 69,
          "time": 286.00416666666194,
          "velocity": 0.31496062992125984,
          "duration": 0.19583333333332575
        },
        {
          "name": "A4",
          "midi": 69,
          "time": 286.20416666666193,
          "velocity": 0.31496062992125984,
          "duration": 0.19583333333332575
        },
        {
          "name": "F#2",
          "midi": 42,
          "time": 286.4041666666619,
          "velocity": 0.4330708661417323,
          "duration": 0.19583333333332575
        },
        {
          "name": "C2",
          "midi": 36,
          "time": 286.4041666666619,
          "velocity": 0.7086614173228346,
          "duration": 0.8000000000001251
        },
        {
          "name": "F#2",
          "midi": 42,
          "time": 286.6041666666619,
          "velocity": 0.4330708661417323,
          "duration": 0.1958333333333826
        },
        {
          "name": "E2",
          "midi": 40,
          "time": 286.6041666666619,
          "velocity": 0.5511811023622047,
          "duration": 0.09583333333335986
        },
        {
          "name": "E2",
          "midi": 40,
          "time": 286.70416666666193,
          "velocity": 0.5511811023622047,
          "duration": 0.09583333333335986
        },
        {
          "name": "A4",
          "midi": 69,
          "time": 286.80416666666196,
          "velocity": 0.31496062992125984,
          "duration": 0.1958333333333826
        },
        {
          "name": "E2",
          "midi": 40,
          "time": 286.80416666666196,
          "velocity": 0.5511811023622047,
          "duration": 0.09583333333335986
        },
        {
          "name": "F#2",
          "midi": 42,
          "time": 286.80416666666196,
          "velocity": 0.4330708661417323,
          "duration": 0.1958333333333826
        },
        {
          "name": "E2",
          "midi": 40,
          "time": 287.004166666662,
          "velocity": 0.5511811023622047,
          "duration": 0.09583333333335986
        },
        {
          "name": "F#2",
          "midi": 42,
          "time": 287.004166666662,
          "velocity": 0.4330708661417323,
          "duration": 0.1958333333333826
        },
        {
          "name": "A4",
          "midi": 69,
          "time": 287.004166666662,
          "velocity": 0.31496062992125984,
          "duration": 0.1958333333333826
        },
        {
          "name": "F#2",
          "midi": 42,
          "time": 287.20416666666205,
          "velocity": 0.4330708661417323,
          "duration": 0.1958333333333826
        },
        {
          "name": "E2",
          "midi": 40,
          "time": 287.20416666666205,
          "velocity": 0.5511811023622047,
          "duration": 0.09583333333335986
        },
        {
          "name": "A2",
          "midi": 45,
          "time": 287.4041666666621,
          "velocity": 0.9921259842519685,
          "duration": 0.19999999999998863
        },
        {
          "name": "F#2",
          "midi": 42,
          "time": 287.6041666666621,
          "velocity": 0.4330708661417323,
          "duration": 0.19583333333332575
        },
        {
          "name": "C2",
          "midi": 36,
          "time": 287.6041666666621,
          "velocity": 0.7086614173228346,
          "duration": 0.3958333333333144
        },
        {
          "name": "A2",
          "midi": 45,
          "time": 287.6041666666621,
          "velocity": 0.9921259842519685,
          "duration": 0.19999999999998863
        },
        {
          "name": "A4",
          "midi": 69,
          "time": 287.6041666666621,
          "velocity": 0.31496062992125984,
          "duration": 0.19583333333332575
        },
        {
          "name": "G2",
          "midi": 43,
          "time": 287.80416666666207,
          "velocity": 0.9921259842519685,
          "duration": 0.19999999999998863
        },
        {
          "name": "A4",
          "midi": 69,
          "time": 287.80416666666207,
          "velocity": 0.31496062992125984,
          "duration": 0.19583333333332575
        },
        {
          "name": "C2",
          "midi": 36,
          "time": 288.00416666666206,
          "velocity": 0.7086614173228346,
          "duration": 1.1999999999999318
        },
        {
          "name": "F#2",
          "midi": 42,
          "time": 288.00416666666206,
          "velocity": 0.4330708661417323,
          "duration": 0.19583333333332575
        },
        {
          "name": "F#2",
          "midi": 42,
          "time": 288.40416666666204,
          "velocity": 0.4330708661417323,
          "duration": 0.19583333333332575
        },
        {
          "name": "A4",
          "midi": 69,
          "time": 288.40416666666204,
          "velocity": 0.31496062992125984,
          "duration": 0.19583333333332575
        },
        {
          "name": "A4",
          "midi": 69,
          "time": 288.604166666662,
          "velocity": 0.31496062992125984,
          "duration": 0.19583333333332575
        },
        {
          "name": "F#2",
          "midi": 42,
          "time": 288.804166666662,
          "velocity": 0.4330708661417323,
          "duration": 0.19583333333332575
        },
        {
          "name": "E2",
          "midi": 40,
          "time": 288.804166666662,
          "velocity": 0.5905511811023622,
          "duration": 1.1999999999999318
        },
        {
          "name": "F#2",
          "midi": 42,
          "time": 289.204166666662,
          "velocity": 0.4330708661417323,
          "duration": 0.19583333333332575
        },
        {
          "name": "A4",
          "midi": 69,
          "time": 289.204166666662,
          "velocity": 0.31496062992125984,
          "duration": 0.19583333333332575
        },
        {
          "name": "A4",
          "midi": 69,
          "time": 289.404166666662,
          "velocity": 0.31496062992125984,
          "duration": 0.19583333333332575
        },
        {
          "name": "C2",
          "midi": 36,
          "time": 289.60416666666197,
          "velocity": 0.7086614173228346,
          "duration": 0.7999999999999545
        },
        {
          "name": "F#2",
          "midi": 42,
          "time": 289.60416666666197,
          "velocity": 0.4330708661417323,
          "duration": 0.19583333333332575
        },
        {
          "name": "F#2",
          "midi": 42,
          "time": 290.00416666666194,
          "velocity": 0.4330708661417323,
          "duration": 0.19583333333332575
        },
        {
          "name": "A4",
          "midi": 69,
          "time": 290.00416666666194,
          "velocity": 0.31496062992125984,
          "duration": 0.19583333333332575
        },
        {
          "name": "A4",
          "midi": 69,
          "time": 290.20416666666193,
          "velocity": 0.31496062992125984,
          "duration": 0.19583333333332575
        },
        {
          "name": "F#2",
          "midi": 42,
          "time": 290.4041666666619,
          "velocity": 0.4330708661417323,
          "duration": 0.19583333333332575
        },
        {
          "name": "E2",
          "midi": 40,
          "time": 290.4041666666619,
          "velocity": 0.5905511811023622,
          "duration": 1.1999999999999318
        },
        {
          "name": "F#2",
          "midi": 42,
          "time": 290.6041666666619,
          "velocity": 0.4330708661417323,
          "duration": 0.19583333333332575
        },
        {
          "name": "F#2",
          "midi": 42,
          "time": 290.8041666666619,
          "velocity": 0.4330708661417323,
          "duration": 0.19583333333332575
        },
        {
          "name": "C2",
          "midi": 36,
          "time": 290.8041666666619,
          "velocity": 0.7086614173228346,
          "duration": 0.3958333333333144
        },
        {
          "name": "A4",
          "midi": 69,
          "time": 290.8041666666619,
          "velocity": 0.31496062992125984,
          "duration": 0.19583333333332575
        },
        {
          "name": "A4",
          "midi": 69,
          "time": 291.0041666666619,
          "velocity": 0.31496062992125984,
          "duration": 0.19583333333332575
        },
        {
          "name": "C2",
          "midi": 36,
          "time": 291.2041666666619,
          "velocity": 0.7086614173228346,
          "duration": 1.1999999999999318
        },
        {
          "name": "F#2",
          "midi": 42,
          "time": 291.2041666666619,
          "velocity": 0.4330708661417323,
          "duration": 0.19583333333332575
        },
        {
          "name": "F#2",
          "midi": 42,
          "time": 291.60416666666185,
          "velocity": 0.4330708661417323,
          "duration": 0.19583333333332575
        },
        {
          "name": "A4",
          "midi": 69,
          "time": 291.60416666666185,
          "velocity": 0.31496062992125984,
          "duration": 0.19583333333332575
        },
        {
          "name": "F#2",
          "midi": 42,
          "time": 291.80416666666184,
          "velocity": 0.4330708661417323,
          "duration": 0.19583333333332575
        },
        {
          "name": "A4",
          "midi": 69,
          "time": 291.80416666666184,
          "velocity": 0.31496062992125984,
          "duration": 0.19583333333332575
        },
        {
          "name": "E2",
          "midi": 40,
          "time": 292.00416666666183,
          "velocity": 0.5905511811023622,
          "duration": 1.1999999999999318
        },
        {
          "name": "F#2",
          "midi": 42,
          "time": 292.00416666666183,
          "velocity": 0.4330708661417323,
          "duration": 0.19583333333332575
        },
        {
          "name": "F#2",
          "midi": 42,
          "time": 292.4041666666618,
          "velocity": 0.4330708661417323,
          "duration": 0.19583333333332575
        },
        {
          "name": "A4",
          "midi": 69,
          "time": 292.4041666666618,
          "velocity": 0.31496062992125984,
          "duration": 0.19583333333332575
        },
        {
          "name": "A4",
          "midi": 69,
          "time": 292.6041666666618,
          "velocity": 0.31496062992125984,
          "duration": 0.19583333333332575
        },
        {
          "name": "F#2",
          "midi": 42,
          "time": 292.8041666666618,
          "velocity": 0.4330708661417323,
          "duration": 0.19583333333332575
        },
        {
          "name": "C2",
          "midi": 36,
          "time": 292.8041666666618,
          "velocity": 0.7086614173228346,
          "duration": 1.1999999999999318
        },
        {
          "name": "A4",
          "midi": 69,
          "time": 293.20416666666176,
          "velocity": 0.31496062992125984,
          "duration": 0.19583333333332575
        },
        {
          "name": "F#2",
          "midi": 42,
          "time": 293.20416666666176,
          "velocity": 0.4330708661417323,
          "duration": 0.19583333333332575
        },
        {
          "name": "A4",
          "midi": 69,
          "time": 293.40416666666175,
          "velocity": 0.31496062992125984,
          "duration": 0.19583333333332575
        },
        {
          "name": "E2",
          "midi": 40,
          "time": 293.60416666666174,
          "velocity": 0.5905511811023622,
          "duration": 1.1999999999999318
        },
        {
          "name": "F#2",
          "midi": 42,
          "time": 293.60416666666174,
          "velocity": 0.4330708661417323,
          "duration": 0.19583333333332575
        },
        {
          "name": "F#2",
          "midi": 42,
          "time": 293.80416666666173,
          "velocity": 0.4330708661417323,
          "duration": 0.19583333333332575
        },
        {
          "name": "F#2",
          "midi": 42,
          "time": 294.0041666666617,
          "velocity": 0.4330708661417323,
          "duration": 0.19583333333332575
        },
        {
          "name": "C2",
          "midi": 36,
          "time": 294.0041666666617,
          "velocity": 0.7086614173228346,
          "duration": 0.3958333333333144
        },
        {
          "name": "A4",
          "midi": 69,
          "time": 294.0041666666617,
          "velocity": 0.31496062992125984,
          "duration": 0.19583333333332575
        },
        {
          "name": "F#2",
          "midi": 42,
          "time": 294.2041666666617,
          "velocity": 0.4330708661417323,
          "duration": 0.19583333333332575
        },
        {
          "name": "A4",
          "midi": 69,
          "time": 294.2041666666617,
          "velocity": 0.31496062992125984,
          "duration": 0.19583333333332575
        },
        {
          "name": "C2",
          "midi": 36,
          "time": 294.4041666666617,
          "velocity": 0.7086614173228346,
          "duration": 1.1999999999999886
        },
        {
          "name": "F#2",
          "midi": 42,
          "time": 294.4041666666617,
          "velocity": 0.4330708661417323,
          "duration": 0.19583333333332575
        },
        {
          "name": "A4",
          "midi": 69,
          "time": 294.8041666666617,
          "velocity": 0.31496062992125984,
          "duration": 0.1958333333333826
        },
        {
          "name": "F#2",
          "midi": 42,
          "time": 294.8041666666617,
          "velocity": 0.4330708661417323,
          "duration": 0.1958333333333826
        },
        {
          "name": "A4",
          "midi": 69,
          "time": 295.0041666666617,
          "velocity": 0.31496062992125984,
          "duration": 0.19583333333332575
        },
        {
          "name": "E2",
          "midi": 40,
          "time": 295.2041666666617,
          "velocity": 0.5905511811023622,
          "duration": 1.1999999999999318
        },
        {
          "name": "F#2",
          "midi": 42,
          "time": 295.2041666666617,
          "velocity": 0.4330708661417323,
          "duration": 0.19583333333332575
        },
        {
          "name": "A4",
          "midi": 69,
          "time": 295.6041666666617,
          "velocity": 0.31496062992125984,
          "duration": 0.19583333333332575
        },
        {
          "name": "F#2",
          "midi": 42,
          "time": 295.6041666666617,
          "velocity": 0.4330708661417323,
          "duration": 0.19583333333332575
        },
        {
          "name": "F#2",
          "midi": 42,
          "time": 295.8041666666617,
          "velocity": 0.4330708661417323,
          "duration": 0.19583333333332575
        },
        {
          "name": "A4",
          "midi": 69,
          "time": 295.8041666666617,
          "velocity": 0.31496062992125984,
          "duration": 0.19583333333332575
        },
        {
          "name": "F#2",
          "midi": 42,
          "time": 296.00416666666166,
          "velocity": 0.4330708661417323,
          "duration": 0.19583333333332575
        },
        {
          "name": "C2",
          "midi": 36,
          "time": 296.00416666666166,
          "velocity": 0.7086614173228346,
          "duration": 0.8000000000000114
        },
        {
          "name": "F#2",
          "midi": 42,
          "time": 296.40416666666164,
          "velocity": 0.4330708661417323,
          "duration": 0.19583333333332575
        },
        {
          "name": "A4",
          "midi": 69,
          "time": 296.40416666666164,
          "velocity": 0.31496062992125984,
          "duration": 0.19583333333332575
        },
        {
          "name": "A4",
          "midi": 69,
          "time": 296.6041666666616,
          "velocity": 0.31496062992125984,
          "duration": 0.1958333333333826
        },
        {
          "name": "F#2",
          "midi": 42,
          "time": 296.6041666666616,
          "velocity": 0.4330708661417323,
          "duration": 0.1958333333333826
        },
        {
          "name": "F#2",
          "midi": 42,
          "time": 296.8041666666617,
          "velocity": 0.4330708661417323,
          "duration": 0.1958333333333826
        },
        {
          "name": "E2",
          "midi": 40,
          "time": 296.8041666666617,
          "velocity": 0.5905511811023622,
          "duration": 0.8000000000000682
        },
        {
          "name": "F#2",
          "midi": 42,
          "time": 297.0041666666617,
          "velocity": 0.4330708661417323,
          "duration": 0.19583333333332575
        },
        {
          "name": "C2",
          "midi": 36,
          "time": 297.2041666666617,
          "velocity": 0.7086614173228346,
          "duration": 0.39583333333337123
        },
        {
          "name": "A4",
          "midi": 69,
          "time": 297.2041666666617,
          "velocity": 0.31496062992125984,
          "duration": 0.1958333333333826
        },
        {
          "name": "F#2",
          "midi": 42,
          "time": 297.2041666666617,
          "velocity": 0.4330708661417323,
          "duration": 0.1958333333333826
        },
        {
          "name": "A4",
          "midi": 69,
          "time": 297.40416666666175,
          "velocity": 0.31496062992125984,
          "duration": 0.19583333333332575
        },
        {
          "name": "F#2",
          "midi": 42,
          "time": 297.60416666666174,
          "velocity": 0.4330708661417323,
          "duration": 0.19583333333332575
        },
        {
          "name": "C2",
          "midi": 36,
          "time": 297.60416666666174,
          "velocity": 0.7086614173228346,
          "duration": 1.1999999999999318
        },
        {
          "name": "A4",
          "midi": 69,
          "time": 298.0041666666617,
          "velocity": 0.31496062992125984,
          "duration": 0.19583333333332575
        },
        {
          "name": "F#2",
          "midi": 42,
          "time": 298.0041666666617,
          "velocity": 0.4330708661417323,
          "duration": 0.19583333333332575
        },
        {
          "name": "A4",
          "midi": 69,
          "time": 298.2041666666617,
          "velocity": 0.31496062992125984,
          "duration": 0.19583333333332575
        },
        {
          "name": "E2",
          "midi": 40,
          "time": 298.4041666666617,
          "velocity": 0.5905511811023622,
          "duration": 0.7999999999999545
        },
        {
          "name": "F#2",
          "midi": 42,
          "time": 298.4041666666617,
          "velocity": 0.4330708661417323,
          "duration": 0.19583333333332575
        },
        {
          "name": "A4",
          "midi": 69,
          "time": 298.8041666666617,
          "velocity": 0.31496062992125984,
          "duration": 0.19583333333332575
        },
        {
          "name": "F#2",
          "midi": 42,
          "time": 298.8041666666617,
          "velocity": 0.4330708661417323,
          "duration": 0.19583333333332575
        },
        {
          "name": "A4",
          "midi": 69,
          "time": 299.00416666666166,
          "velocity": 0.31496062992125984,
          "duration": 0.19583333333332575
        },
        {
          "name": "F#2",
          "midi": 42,
          "time": 299.20416666666165,
          "velocity": 0.4330708661417323,
          "duration": 0.19583333333332575
        },
        {
          "name": "C2",
          "midi": 36,
          "time": 299.20416666666165,
          "velocity": 0.7086614173228346,
          "duration": 0.8000000000000114
        },
        {
          "name": "A4",
          "midi": 69,
          "time": 299.6041666666616,
          "velocity": 0.31496062992125984,
          "duration": 0.1958333333333826
        },
        {
          "name": "F#2",
          "midi": 42,
          "time": 299.6041666666616,
          "velocity": 0.4330708661417323,
          "duration": 0.1958333333333826
        },
        {
          "name": "A4",
          "midi": 69,
          "time": 299.8041666666617,
          "velocity": 0.31496062992125984,
          "duration": 0.19583333333332575
        },
        {
          "name": "F#2",
          "midi": 42,
          "time": 300.00416666666166,
          "velocity": 0.4330708661417323,
          "duration": 0.19583333333332575
        },
        {
          "name": "E2",
          "midi": 40,
          "time": 300.00416666666166,
          "velocity": 0.5905511811023622,
          "duration": 0.7999999999999545
        },
        {
          "name": "F#2",
          "midi": 42,
          "time": 300.20416666666165,
          "velocity": 0.4330708661417323,
          "duration": 0.19583333333332575
        },
        {
          "name": "F#2",
          "midi": 42,
          "time": 300.40416666666164,
          "velocity": 0.4330708661417323,
          "duration": 0.19583333333332575
        },
        {
          "name": "A4",
          "midi": 69,
          "time": 300.40416666666164,
          "velocity": 0.31496062992125984,
          "duration": 0.19583333333332575
        },
        {
          "name": "C2",
          "midi": 36,
          "time": 300.40416666666164,
          "velocity": 0.7086614173228346,
          "duration": 0.3958333333333144
        },
        {
          "name": "A4",
          "midi": 69,
          "time": 300.6041666666616,
          "velocity": 0.31496062992125984,
          "duration": 0.19583333333332575
        },
        {
          "name": "F#2",
          "midi": 42,
          "time": 300.8041666666616,
          "velocity": 0.4330708661417323,
          "duration": 0.1958333333333826
        },
        {
          "name": "C2",
          "midi": 36,
          "time": 300.8041666666616,
          "velocity": 0.7086614173228346,
          "duration": 1.1999999999999886
        },
        {
          "name": "F#2",
          "midi": 42,
          "time": 301.20416666666165,
          "velocity": 0.4330708661417323,
          "duration": 0.19583333333332575
        },
        {
          "name": "A4",
          "midi": 69,
          "time": 301.20416666666165,
          "velocity": 0.31496062992125984,
          "duration": 0.19583333333332575
        },
        {
          "name": "A4",
          "midi": 69,
          "time": 301.40416666666164,
          "velocity": 0.31496062992125984,
          "duration": 0.19583333333332575
        },
        {
          "name": "E2",
          "midi": 40,
          "time": 301.6041666666616,
          "velocity": 0.5905511811023622,
          "duration": 0.7999999999999545
        },
        {
          "name": "F#2",
          "midi": 42,
          "time": 301.6041666666616,
          "velocity": 0.4330708661417323,
          "duration": 0.19583333333332575
        },
        {
          "name": "F#2",
          "midi": 42,
          "time": 302.0041666666616,
          "velocity": 0.4330708661417323,
          "duration": 0.19583333333332575
        },
        {
          "name": "A4",
          "midi": 69,
          "time": 302.0041666666616,
          "velocity": 0.31496062992125984,
          "duration": 0.19583333333332575
        },
        {
          "name": "A4",
          "midi": 69,
          "time": 302.2041666666616,
          "velocity": 0.31496062992125984,
          "duration": 0.19583333333332575
        },
        {
          "name": "C2",
          "midi": 36,
          "time": 302.4041666666616,
          "velocity": 0.7086614173228346,
          "duration": 0.7999999999999545
        },
        {
          "name": "F#2",
          "midi": 42,
          "time": 302.4041666666616,
          "velocity": 0.4330708661417323,
          "duration": 0.19583333333332575
        },
        {
          "name": "A4",
          "midi": 69,
          "time": 302.80416666666156,
          "velocity": 0.31496062992125984,
          "duration": 0.19583333333332575
        },
        {
          "name": "F#2",
          "midi": 42,
          "time": 302.80416666666156,
          "velocity": 0.4330708661417323,
          "duration": 0.19583333333332575
        },
        {
          "name": "A4",
          "midi": 69,
          "time": 303.00416666666155,
          "velocity": 0.31496062992125984,
          "duration": 0.19583333333332575
        },
        {
          "name": "E2",
          "midi": 40,
          "time": 303.20416666666154,
          "velocity": 0.5905511811023622,
          "duration": 0.7999999999999545
        },
        {
          "name": "F#2",
          "midi": 42,
          "time": 303.20416666666154,
          "velocity": 0.4330708661417323,
          "duration": 0.19583333333332575
        },
        {
          "name": "F#2",
          "midi": 42,
          "time": 303.4041666666615,
          "velocity": 0.4330708661417323,
          "duration": 0.19583333333332575
        },
        {
          "name": "C2",
          "midi": 36,
          "time": 303.6041666666615,
          "velocity": 0.7086614173228346,
          "duration": 0.3958333333333144
        },
        {
          "name": "A4",
          "midi": 69,
          "time": 303.6041666666615,
          "velocity": 0.31496062992125984,
          "duration": 0.19583333333332575
        },
        {
          "name": "F#2",
          "midi": 42,
          "time": 303.6041666666615,
          "velocity": 0.4330708661417323,
          "duration": 0.19583333333332575
        },
        {
          "name": "F#2",
          "midi": 42,
          "time": 303.8041666666615,
          "velocity": 0.4330708661417323,
          "duration": 0.19583333333332575
        },
        {
          "name": "A4",
          "midi": 69,
          "time": 303.8041666666615,
          "velocity": 0.31496062992125984,
          "duration": 0.19583333333332575
        },
        {
          "name": "F#2",
          "midi": 42,
          "time": 304.0041666666615,
          "velocity": 0.4330708661417323,
          "duration": 0.19583333333332575
        },
        {
          "name": "C2",
          "midi": 36,
          "time": 304.0041666666615,
          "velocity": 0.7086614173228346,
          "duration": 1.1999999999999886
        },
        {
          "name": "F#2",
          "midi": 42,
          "time": 304.40416666666147,
          "velocity": 0.4330708661417323,
          "duration": 0.19583333333332575
        },
        {
          "name": "A4",
          "midi": 69,
          "time": 304.40416666666147,
          "velocity": 0.31496062992125984,
          "duration": 0.19583333333332575
        },
        {
          "name": "A4",
          "midi": 69,
          "time": 304.60416666666146,
          "velocity": 0.31496062992125984,
          "duration": 0.1958333333333826
        },
        {
          "name": "F#2",
          "midi": 42,
          "time": 304.8041666666615,
          "velocity": 0.4330708661417323,
          "duration": 0.19583333333332575
        },
        {
          "name": "E2",
          "midi": 40,
          "time": 304.8041666666615,
          "velocity": 0.5905511811023622,
          "duration": 0.7999999999999545
        },
        {
          "name": "A4",
          "midi": 69,
          "time": 305.2041666666615,
          "velocity": 0.31496062992125984,
          "duration": 0.19583333333332575
        },
        {
          "name": "F#2",
          "midi": 42,
          "time": 305.2041666666615,
          "velocity": 0.4330708661417323,
          "duration": 0.19583333333332575
        },
        {
          "name": "A4",
          "midi": 69,
          "time": 305.40416666666147,
          "velocity": 0.31496062992125984,
          "duration": 0.19583333333332575
        },
        {
          "name": "C2",
          "midi": 36,
          "time": 305.60416666666146,
          "velocity": 0.7086614173228346,
          "duration": 0.7999999999999545
        },
        {
          "name": "F#2",
          "midi": 42,
          "time": 305.60416666666146,
          "velocity": 0.4330708661417323,
          "duration": 0.19583333333332575
        },
        {
          "name": "F#2",
          "midi": 42,
          "time": 305.80416666666144,
          "velocity": 0.4330708661417323,
          "duration": 0.19583333333332575
        },
        {
          "name": "A4",
          "midi": 69,
          "time": 306.00416666666143,
          "velocity": 0.31496062992125984,
          "duration": 0.19583333333332575
        },
        {
          "name": "A4",
          "midi": 69,
          "time": 306.2041666666614,
          "velocity": 0.31496062992125984,
          "duration": 0.19583333333332575
        },
        {
          "name": "F#2",
          "midi": 42,
          "time": 306.2041666666614,
          "velocity": 0.4330708661417323,
          "duration": 0.19583333333332575
        },
        {
          "name": "E2",
          "midi": 40,
          "time": 306.4041666666614,
          "velocity": 0.5905511811023622,
          "duration": 0.8000000000000114
        },
        {
          "name": "F#2",
          "midi": 42,
          "time": 306.4041666666614,
          "velocity": 0.4330708661417323,
          "duration": 0.19583333333332575
        },
        {
          "name": "F#2",
          "midi": 42,
          "time": 306.6041666666614,
          "velocity": 0.4330708661417323,
          "duration": 0.19583333333332575
        },
        {
          "name": "C2",
          "midi": 36,
          "time": 306.8041666666614,
          "velocity": 0.7086614173228346,
          "duration": 0.39583333333337123
        },
        {
          "name": "F#2",
          "midi": 42,
          "time": 306.8041666666614,
          "velocity": 0.4330708661417323,
          "duration": 0.19583333333332575
        },
        {
          "name": "A4",
          "midi": 69,
          "time": 306.8041666666614,
          "velocity": 0.31496062992125984,
          "duration": 0.19583333333332575
        },
        {
          "name": "A4",
          "midi": 69,
          "time": 307.0041666666614,
          "velocity": 0.31496062992125984,
          "duration": 0.1958333333333826
        },
        {
          "name": "F#2",
          "midi": 42,
          "time": 307.2041666666614,
          "velocity": 0.4330708661417323,
          "duration": 0.1958333333333826
        },
        {
          "name": "C2",
          "midi": 36,
          "time": 307.2041666666614,
          "velocity": 0.7086614173228346,
          "duration": 1.2000000000000455
        },
        {
          "name": "F#2",
          "midi": 42,
          "time": 307.6041666666615,
          "velocity": 0.4330708661417323,
          "duration": 0.19583333333332575
        },
        {
          "name": "A4",
          "midi": 69,
          "time": 307.6041666666615,
          "velocity": 0.31496062992125984,
          "duration": 0.19583333333332575
        },
        {
          "name": "A4",
          "midi": 69,
          "time": 307.8041666666615,
          "velocity": 0.31496062992125984,
          "duration": 0.19583333333332575
        },
        {
          "name": "F#2",
          "midi": 42,
          "time": 308.0041666666615,
          "velocity": 0.4330708661417323,
          "duration": 0.19583333333332575
        },
        {
          "name": "E2",
          "midi": 40,
          "time": 308.0041666666615,
          "velocity": 0.5905511811023622,
          "duration": 0.7999999999999545
        },
        {
          "name": "F#2",
          "midi": 42,
          "time": 308.40416666666147,
          "velocity": 0.4330708661417323,
          "duration": 0.19583333333332575
        },
        {
          "name": "A4",
          "midi": 69,
          "time": 308.40416666666147,
          "velocity": 0.31496062992125984,
          "duration": 0.19583333333332575
        },
        {
          "name": "A4",
          "midi": 69,
          "time": 308.60416666666146,
          "velocity": 0.31496062992125984,
          "duration": 0.19583333333332575
        },
        {
          "name": "C2",
          "midi": 36,
          "time": 308.80416666666144,
          "velocity": 0.7086614173228346,
          "duration": 0.7999999999999545
        },
        {
          "name": "F#2",
          "midi": 42,
          "time": 308.80416666666144,
          "velocity": 0.4330708661417323,
          "duration": 0.19583333333332575
        },
        {
          "name": "F#2",
          "midi": 42,
          "time": 309.00416666666143,
          "velocity": 0.4330708661417323,
          "duration": 0.19583333333332575
        },
        {
          "name": "A4",
          "midi": 69,
          "time": 309.2041666666614,
          "velocity": 0.31496062992125984,
          "duration": 0.19583333333332575
        },
        {
          "name": "F#2",
          "midi": 42,
          "time": 309.2041666666614,
          "velocity": 0.4330708661417323,
          "duration": 0.19583333333332575
        },
        {
          "name": "A4",
          "midi": 69,
          "time": 309.4041666666614,
          "velocity": 0.31496062992125984,
          "duration": 0.19583333333332575
        },
        {
          "name": "F#2",
          "midi": 42,
          "time": 309.6041666666614,
          "velocity": 0.4330708661417323,
          "duration": 0.19583333333332575
        },
        {
          "name": "E2",
          "midi": 40,
          "time": 309.6041666666614,
          "velocity": 0.5905511811023622,
          "duration": 0.7999999999999545
        },
        {
          "name": "F#2",
          "midi": 42,
          "time": 309.8041666666614,
          "velocity": 0.4330708661417323,
          "duration": 0.19583333333332575
        },
        {
          "name": "F#2",
          "midi": 42,
          "time": 310.0041666666614,
          "velocity": 0.4330708661417323,
          "duration": 0.19583333333332575
        },
        {
          "name": "A4",
          "midi": 69,
          "time": 310.0041666666614,
          "velocity": 0.31496062992125984,
          "duration": 0.19583333333332575
        },
        {
          "name": "C2",
          "midi": 36,
          "time": 310.0041666666614,
          "velocity": 0.7086614173228346,
          "duration": 0.3958333333333144
        },
        {
          "name": "A4",
          "midi": 69,
          "time": 310.20416666666137,
          "velocity": 0.31496062992125984,
          "duration": 0.19583333333332575
        },
        {
          "name": "F#2",
          "midi": 42,
          "time": 310.40416666666135,
          "velocity": 0.4330708661417323,
          "duration": 0.19583333333332575
        },
        {
          "name": "C2",
          "midi": 36,
          "time": 310.40416666666135,
          "velocity": 0.7086614173228346,
          "duration": 1.1999999999999318
        },
        {
          "name": "F#2",
          "midi": 42,
          "time": 310.80416666666133,
          "velocity": 0.4330708661417323,
          "duration": 0.19583333333332575
        },
        {
          "name": "A4",
          "midi": 69,
          "time": 310.80416666666133,
          "velocity": 0.31496062992125984,
          "duration": 0.19583333333332575
        },
        {
          "name": "A4",
          "midi": 69,
          "time": 311.0041666666613,
          "velocity": 0.31496062992125984,
          "duration": 0.19583333333332575
        },
        {
          "name": "E2",
          "midi": 40,
          "time": 311.2041666666613,
          "velocity": 0.5905511811023622,
          "duration": 0.7999999999999545
        },
        {
          "name": "F#2",
          "midi": 42,
          "time": 311.2041666666613,
          "velocity": 0.4330708661417323,
          "duration": 0.19583333333332575
        },
        {
          "name": "A4",
          "midi": 69,
          "time": 311.6041666666613,
          "velocity": 0.31496062992125984,
          "duration": 0.19583333333332575
        },
        {
          "name": "F#2",
          "midi": 42,
          "time": 311.6041666666613,
          "velocity": 0.4330708661417323,
          "duration": 0.19583333333332575
        },
        {
          "name": "A4",
          "midi": 69,
          "time": 311.8041666666613,
          "velocity": 0.31496062992125984,
          "duration": 0.19583333333332575
        },
        {
          "name": "C2",
          "midi": 36,
          "time": 312.00416666666126,
          "velocity": 0.7086614173228346,
          "duration": 0.7999999999999545
        },
        {
          "name": "F#2",
          "midi": 42,
          "time": 312.00416666666126,
          "velocity": 0.4330708661417323,
          "duration": 0.19583333333332575
        },
        {
          "name": "F#2",
          "midi": 42,
          "time": 312.20416666666125,
          "velocity": 0.4330708661417323,
          "duration": 0.19583333333332575
        },
        {
          "name": "A4",
          "midi": 69,
          "time": 312.40416666666124,
          "velocity": 0.31496062992125984,
          "duration": 0.19583333333332575
        },
        {
          "name": "F#2",
          "midi": 42,
          "time": 312.40416666666124,
          "velocity": 0.4330708661417323,
          "duration": 0.19583333333332575
        },
        {
          "name": "F#2",
          "midi": 42,
          "time": 312.60416666666123,
          "velocity": 0.4330708661417323,
          "duration": 0.19583333333332575
        },
        {
          "name": "A4",
          "midi": 69,
          "time": 312.60416666666123,
          "velocity": 0.31496062992125984,
          "duration": 0.19583333333332575
        },
        {
          "name": "F#2",
          "midi": 42,
          "time": 312.8041666666612,
          "velocity": 0.4330708661417323,
          "duration": 0.19583333333332575
        },
        {
          "name": "E2",
          "midi": 40,
          "time": 312.8041666666612,
          "velocity": 0.5905511811023622,
          "duration": 0.7999999999999545
        },
        {
          "name": "A4",
          "midi": 69,
          "time": 313.2041666666612,
          "velocity": 0.31496062992125984,
          "duration": 0.19583333333332575
        },
        {
          "name": "C2",
          "midi": 36,
          "time": 313.2041666666612,
          "velocity": 0.7086614173228346,
          "duration": 0.3958333333333144
        },
        {
          "name": "F#2",
          "midi": 42,
          "time": 313.2041666666612,
          "velocity": 0.4330708661417323,
          "duration": 0.19583333333332575
        },
        {
          "name": "A4",
          "midi": 69,
          "time": 313.4041666666612,
          "velocity": 0.31496062992125984,
          "duration": 0.19583333333332575
        }
      ],
      "controlChanges": {
        "7": [
          {
            "number": 7,
            "time": 3.2,
            "value": 1
          },
          {
            "number": 7,
            "time": 271.63749999999607,
            "value": 0.984251968503937
          },
          {
            "number": 7,
            "time": 294.737499999995,
            "value": 0.968503937007874
          },
          {
            "number": 7,
            "time": 294.87083333332833,
            "value": 0.9606299212598425
          },
          {
            "number": 7,
            "time": 294.9666666666617,
            "value": 0.952755905511811
          },
          {
            "number": 7,
            "time": 295.0708333333284,
            "value": 0.9291338582677166
          },
          {
            "number": 7,
            "time": 295.2041666666617,
            "value": 0.9212598425196851
          },
          {
            "number": 7,
            "time": 295.537499999995,
            "value": 0.905511811023622
          },
          {
            "number": 7,
            "time": 295.937499999995,
            "value": 0.889763779527559
          },
          {
            "number": 7,
            "time": 296.124999999995,
            "value": 0.7401574803149606
          },
          {
            "number": 7,
            "time": 296.5708333333283,
            "value": 0.7086614173228346
          },
          {
            "number": 7,
            "time": 296.70416666666165,
            "value": 0.6535433070866141
          },
          {
            "number": 7,
            "time": 296.9041666666617,
            "value": 0.6456692913385826
          },
          {
            "number": 7,
            "time": 297.30416666666173,
            "value": 0.6141732283464567
          },
          {
            "number": 7,
            "time": 297.44583333332844,
            "value": 0.5748031496062992
          },
          {
            "number": 7,
            "time": 297.60416666666174,
            "value": 0.5275590551181102
          },
          {
            "number": 7,
            "time": 297.7249999999951,
            "value": 0.5196850393700787
          },
          {
            "number": 7,
            "time": 297.8708333333284,
            "value": 0.5118110236220472
          },
          {
            "number": 7,
            "time": 298.0041666666617,
            "value": 0.4566929133858268
          },
          {
            "number": 7,
            "time": 298.537499999995,
            "value": 0.4251968503937008
          },
          {
            "number": 7,
            "time": 298.67083333332835,
            "value": 0.41732283464566927
          },
          {
            "number": 7,
            "time": 299.649999999995,
            "value": 0.4094488188976378
          },
          {
            "number": 7,
            "time": 299.7583333333283,
            "value": 0.3779527559055118
          },
          {
            "number": 7,
            "time": 300.40416666666164,
            "value": 0.3700787401574803
          },
          {
            "number": 7,
            "time": 300.73749999999495,
            "value": 0.3543307086614173
          },
          {
            "number": 7,
            "time": 300.837499999995,
            "value": 0.33858267716535434
          },
          {
            "number": 7,
            "time": 301.1166666666617,
            "value": 0.3228346456692913
          },
          {
            "number": 7,
            "time": 301.2708333333283,
            "value": 0.2992125984251969
          },
          {
            "number": 7,
            "time": 302.0041666666616,
            "value": 0.29133858267716534
          },
          {
            "number": 7,
            "time": 302.27083333332826,
            "value": 0.28346456692913385
          },
          {
            "number": 7,
            "time": 302.67083333332823,
            "value": 0.2440944881889764
          },
          {
            "number": 7,
            "time": 302.80416666666156,
            "value": 0.2125984251968504
          },
          {
            "number": 7,
            "time": 304.5583333333281,
            "value": 0.2047244094488189
          },
          {
            "number": 7,
            "time": 304.6374999999948,
            "value": 0.1968503937007874
          },
          {
            "number": 7,
            "time": 304.73749999999484,
            "value": 0.14173228346456693
          },
          {
            "number": 7,
            "time": 304.87083333332816,
            "value": 0.12598425196850394
          },
          {
            "number": 7,
            "time": 305.3999999999948,
            "value": 0.11023622047244094
          },
          {
            "number": 7,
            "time": 305.69166666666143,
            "value": 0.10236220472440945
          },
          {
            "number": 7,
            "time": 306.2916666666614,
            "value": 0.09448818897637795
          },
          {
            "number": 7,
            "time": 306.53749999999474,
            "value": 0.08661417322834646
          },
          {
            "number": 7,
            "time": 306.98333333332806,
            "value": 0.07874015748031496
          },
          {
            "number": 7,
            "time": 307.03749999999474,
            "value": 0.07086614173228346
          },
          {
            "number": 7,
            "time": 307.13749999999476,
            "value": 0.06299212598425197
          },
          {
            "number": 7,
            "time": 307.2374999999948,
            "value": 0.05511811023622047
          },
          {
            "number": 7,
            "time": 307.4374999999948,
            "value": 0.03937007874015748
          },
          {
            "number": 7,
            "time": 307.59999999999485,
            "value": 0
          }
        ],
        "10": [
          {
            "number": 10,
            "time": 271.63749999999607,
            "value": 0.5039370078740157
          }
        ]
      },
      "id": 10,
      "name": "DRUMS",
      "instrumentNumber": 0,
      "instrument": "standard kit",
      "instrumentFamily": "drums",
      "channelNumber": 9,
      "isPercussion": true
    },
    {
      "startTime": 58.00000000000001,
      "duration": 313.5916666666574,
      "length": 820,
      "notes": [
        {
          "name": "F#4",
          "midi": 66,
          "time": 58.00000000000001,
          "velocity": 0.984251968503937,
          "duration": 0.19166666666666998
        },
        {
          "name": "F#4",
          "midi": 66,
          "time": 58.20000000000001,
          "velocity": 0.984251968503937,
          "duration": 0.19166666666666998
        },
        {
          "name": "F#4",
          "midi": 66,
          "time": 58.40000000000001,
          "velocity": 0.984251968503937,
          "duration": 0.3999999999999986
        },
        {
          "name": "E4",
          "midi": 64,
          "time": 58.80000000000001,
          "velocity": 0.984251968503937,
          "duration": 0.19166666666666998
        },
        {
          "name": "E4",
          "midi": 64,
          "time": 59.000000000000014,
          "velocity": 0.984251968503937,
          "duration": 0.19166666666666998
        },
        {
          "name": "E4",
          "midi": 64,
          "time": 59.20000000000002,
          "velocity": 0.984251968503937,
          "duration": 0.3999999999999986
        },
        {
          "name": "F#4",
          "midi": 66,
          "time": 59.600000000000016,
          "velocity": 0.984251968503937,
          "duration": 1.1333333333333968
        },
        {
          "name": "F#4",
          "midi": 66,
          "time": 61.20000000000008,
          "velocity": 0.984251968503937,
          "duration": 0.3916666666666657
        },
        {
          "name": "F#4",
          "midi": 66,
          "time": 61.60000000000008,
          "velocity": 0.984251968503937,
          "duration": 0.2666666666666657
        },
        {
          "name": "E4",
          "midi": 64,
          "time": 61.866666666666745,
          "velocity": 0.984251968503937,
          "duration": 0.25833333333333286
        },
        {
          "name": "E4",
          "midi": 64,
          "time": 62.13333333333341,
          "velocity": 0.984251968503937,
          "duration": 0.25833333333333286
        },
        {
          "name": "E4",
          "midi": 64,
          "time": 62.40000000000008,
          "velocity": 0.984251968503937,
          "duration": 1.5916666666666686
        },
        {
          "name": "F#4",
          "midi": 66,
          "time": 64.40000000000008,
          "velocity": 0.984251968503937,
          "duration": 0.19166666666666288
        },
        {
          "name": "F#4",
          "midi": 66,
          "time": 64.60000000000008,
          "velocity": 0.984251968503937,
          "duration": 0.19166666666666288
        },
        {
          "name": "F#4",
          "midi": 66,
          "time": 64.80000000000008,
          "velocity": 0.984251968503937,
          "duration": 0.4000000000000057
        },
        {
          "name": "E4",
          "midi": 64,
          "time": 65.20000000000009,
          "velocity": 0.984251968503937,
          "duration": 0.19166666666666288
        },
        {
          "name": "E4",
          "midi": 64,
          "time": 65.40000000000009,
          "velocity": 0.984251968503937,
          "duration": 0.19166666666666288
        },
        {
          "name": "E4",
          "midi": 64,
          "time": 65.6000000000001,
          "velocity": 0.984251968503937,
          "duration": 0.4000000000000057
        },
        {
          "name": "F#4",
          "midi": 66,
          "time": 66.0000000000001,
          "velocity": 0.984251968503937,
          "duration": 1.2000000000000597
        },
        {
          "name": "F#4",
          "midi": 66,
          "time": 67.60000000000016,
          "velocity": 0.984251968503937,
          "duration": 0.19166666666666288
        },
        {
          "name": "F#4",
          "midi": 66,
          "time": 67.80000000000017,
          "velocity": 0.984251968503937,
          "duration": 0.19166666666666288
        },
        {
          "name": "F#4",
          "midi": 66,
          "time": 68.00000000000017,
          "velocity": 0.984251968503937,
          "duration": 0.25833333333333997
        },
        {
          "name": "E4",
          "midi": 64,
          "time": 68.26666666666685,
          "velocity": 0.984251968503937,
          "duration": 0.25833333333333997
        },
        {
          "name": "E4",
          "midi": 64,
          "time": 68.53333333333353,
          "velocity": 0.984251968503937,
          "duration": 0.25833333333333997
        },
        {
          "name": "E4",
          "midi": 64,
          "time": 68.80000000000021,
          "velocity": 0.984251968503937,
          "duration": 0.20000000000000284
        },
        {
          "name": "D4",
          "midi": 62,
          "time": 69.00000000000021,
          "velocity": 0.984251968503937,
          "duration": 0.20000000000000284
        },
        {
          "name": "B3",
          "midi": 59,
          "time": 69.20000000000022,
          "velocity": 0.984251968503937,
          "duration": 1.2000000000000028
        },
        {
          "name": "F#4",
          "midi": 66,
          "time": 70.80000000000022,
          "velocity": 0.9921259842519685,
          "duration": 0.19166666666666288
        },
        {
          "name": "F#4",
          "midi": 66,
          "time": 71.00000000000023,
          "velocity": 0.9921259842519685,
          "duration": 0.19166666666666288
        },
        {
          "name": "F#4",
          "midi": 66,
          "time": 71.20000000000023,
          "velocity": 0.9921259842519685,
          "duration": 0.4000000000000057
        },
        {
          "name": "E4",
          "midi": 64,
          "time": 71.60000000000024,
          "velocity": 0.9921259842519685,
          "duration": 0.19166666666666288
        },
        {
          "name": "D4",
          "midi": 62,
          "time": 71.80000000000024,
          "velocity": 0.9921259842519685,
          "duration": 0.19166666666666288
        },
        {
          "name": "D4",
          "midi": 62,
          "time": 72.00000000000024,
          "velocity": 0.9921259842519685,
          "duration": 0.4000000000000057
        },
        {
          "name": "F#4",
          "midi": 66,
          "time": 72.40000000000025,
          "velocity": 0.9921259842519685,
          "duration": 1.2000000000000597
        },
        {
          "name": "A3",
          "midi": 57,
          "time": 73.80000000000031,
          "velocity": 0.9921259842519685,
          "duration": 0.19166666666666288
        },
        {
          "name": "F#4",
          "midi": 66,
          "time": 74.00000000000031,
          "velocity": 0.9921259842519685,
          "duration": 0.19166666666666288
        },
        {
          "name": "F#4",
          "midi": 66,
          "time": 74.20000000000032,
          "velocity": 0.9921259842519685,
          "duration": 0.19166666666666288
        },
        {
          "name": "F#4",
          "midi": 66,
          "time": 74.40000000000032,
          "velocity": 0.9921259842519685,
          "duration": 0.25833333333333997
        },
        {
          "name": "E4",
          "midi": 64,
          "time": 74.666666666667,
          "velocity": 0.9921259842519685,
          "duration": 0.25833333333333997
        },
        {
          "name": "D4",
          "midi": 62,
          "time": 74.93333333333368,
          "velocity": 0.9921259842519685,
          "duration": 0.25833333333333997
        },
        {
          "name": "D4",
          "midi": 62,
          "time": 75.20000000000036,
          "velocity": 0.9921259842519685,
          "duration": 1.5916666666666686
        },
        {
          "name": "B3",
          "midi": 59,
          "time": 77.00000000000036,
          "velocity": 0.9921259842519685,
          "duration": 0.19166666666666288
        },
        {
          "name": "E4",
          "midi": 64,
          "time": 77.20000000000036,
          "velocity": 0.9921259842519685,
          "duration": 0.19166666666666288
        },
        {
          "name": "E4",
          "midi": 64,
          "time": 77.40000000000036,
          "velocity": 0.9921259842519685,
          "duration": 0.19166666666666288
        },
        {
          "name": "E4",
          "midi": 64,
          "time": 77.60000000000036,
          "velocity": 0.9921259842519685,
          "duration": 0.19166666666666288
        },
        {
          "name": "D4",
          "midi": 62,
          "time": 77.80000000000037,
          "velocity": 0.9921259842519685,
          "duration": 0.19166666666666288
        },
        {
          "name": "E4",
          "midi": 64,
          "time": 78.00000000000037,
          "velocity": 0.9921259842519685,
          "duration": 0.19166666666666288
        },
        {
          "name": "D4",
          "midi": 62,
          "time": 78.20000000000037,
          "velocity": 0.9921259842519685,
          "duration": 0.19166666666666288
        },
        {
          "name": "E4",
          "midi": 64,
          "time": 78.40000000000038,
          "velocity": 0.9921259842519685,
          "duration": 0.4000000000000057
        },
        {
          "name": "D4",
          "midi": 62,
          "time": 78.80000000000038,
          "velocity": 0.9921259842519685,
          "duration": 0.19166666666666288
        },
        {
          "name": "F#4",
          "midi": 66,
          "time": 79.00000000000038,
          "velocity": 0.9921259842519685,
          "duration": 1.0000000000000568
        },
        {
          "name": "B3",
          "midi": 59,
          "time": 80.20000000000044,
          "velocity": 0.9921259842519685,
          "duration": 0.19166666666666288
        },
        {
          "name": "F#4",
          "midi": 66,
          "time": 80.40000000000045,
          "velocity": 0.9921259842519685,
          "duration": 0.19166666666666288
        },
        {
          "name": "F#4",
          "midi": 66,
          "time": 80.60000000000045,
          "velocity": 0.9921259842519685,
          "duration": 0.19166666666666288
        },
        {
          "name": "F#4",
          "midi": 66,
          "time": 80.80000000000045,
          "velocity": 0.9921259842519685,
          "duration": 0.2666666666666657
        },
        {
          "name": "E4",
          "midi": 64,
          "time": 81.06666666666712,
          "velocity": 0.9921259842519685,
          "duration": 0.25833333333333997
        },
        {
          "name": "E4",
          "midi": 64,
          "time": 81.3333333333338,
          "velocity": 0.9921259842519685,
          "duration": 0.25833333333333997
        },
        {
          "name": "F#4",
          "midi": 66,
          "time": 81.60000000000048,
          "velocity": 0.9921259842519685,
          "duration": 1.5916666666667965
        },
        {
          "name": "F#4",
          "midi": 66,
          "time": 83.6000000000006,
          "velocity": 0.984251968503937,
          "duration": 0.19166666666666288
        },
        {
          "name": "F#4",
          "midi": 66,
          "time": 83.80000000000061,
          "velocity": 0.984251968503937,
          "duration": 0.20000000000000284
        },
        {
          "name": "G4",
          "midi": 67,
          "time": 84.00000000000061,
          "velocity": 0.984251968503937,
          "duration": 0.25833333333333997
        },
        {
          "name": "F#4",
          "midi": 66,
          "time": 84.26666666666729,
          "velocity": 0.984251968503937,
          "duration": 0.25833333333333997
        },
        {
          "name": "F#4",
          "midi": 66,
          "time": 84.53333333333397,
          "velocity": 0.984251968503937,
          "duration": 0.25833333333333997
        },
        {
          "name": "G4",
          "midi": 67,
          "time": 84.80000000000065,
          "velocity": 0.984251968503937,
          "duration": 0.4000000000000057
        },
        {
          "name": "F#4",
          "midi": 66,
          "time": 85.20000000000066,
          "velocity": 0.984251968503937,
          "duration": 1
        },
        {
          "name": "B3",
          "midi": 59,
          "time": 86.60000000000066,
          "velocity": 0.984251968503937,
          "duration": 0.19166666666666288
        },
        {
          "name": "F#4",
          "midi": 66,
          "time": 86.80000000000067,
          "velocity": 0.984251968503937,
          "duration": 0.19166666666666288
        },
        {
          "name": "F#4",
          "midi": 66,
          "time": 87.00000000000067,
          "velocity": 0.984251968503937,
          "duration": 0.19166666666666288
        },
        {
          "name": "F#4",
          "midi": 66,
          "time": 87.20000000000067,
          "velocity": 0.984251968503937,
          "duration": 0.19166666666666288
        },
        {
          "name": "E4",
          "midi": 64,
          "time": 87.40000000000067,
          "velocity": 0.984251968503937,
          "duration": 0.4000000000000057
        },
        {
          "name": "E4",
          "midi": 64,
          "time": 87.80000000000068,
          "velocity": 0.984251968503937,
          "duration": 1.2000000000000028
        },
        {
          "name": "D4",
          "midi": 62,
          "time": 90.20000000000068,
          "velocity": 0.984251968503937,
          "duration": 0.19166666666666288
        },
        {
          "name": "E4",
          "midi": 64,
          "time": 90.40000000000069,
          "velocity": 0.984251968503937,
          "duration": 0.19166666666666288
        },
        {
          "name": "E4",
          "midi": 64,
          "time": 90.60000000000069,
          "velocity": 0.984251968503937,
          "duration": 0.19166666666666288
        },
        {
          "name": "E4",
          "midi": 64,
          "time": 90.8000000000007,
          "velocity": 0.984251968503937,
          "duration": 0.19166666666666288
        },
        {
          "name": "D4",
          "midi": 62,
          "time": 91.0000000000007,
          "velocity": 0.984251968503937,
          "duration": 0.19166666666666288
        },
        {
          "name": "E4",
          "midi": 64,
          "time": 91.2000000000007,
          "velocity": 0.984251968503937,
          "duration": 0.19166666666666288
        },
        {
          "name": "D4",
          "midi": 62,
          "time": 91.4000000000007,
          "velocity": 0.984251968503937,
          "duration": 0.4000000000000057
        },
        {
          "name": "F#4",
          "midi": 66,
          "time": 91.80000000000071,
          "velocity": 0.984251968503937,
          "duration": 0.4000000000000057
        },
        {
          "name": "F#4",
          "midi": 66,
          "time": 92.20000000000071,
          "velocity": 0.984251968503937,
          "duration": 0.19166666666666288
        },
        {
          "name": "F#4",
          "midi": 66,
          "time": 92.40000000000072,
          "velocity": 0.984251968503937,
          "duration": 0.19166666666666288
        },
        {
          "name": "F#4",
          "midi": 66,
          "time": 92.60000000000072,
          "velocity": 0.984251968503937,
          "duration": 0.19166666666666288
        },
        {
          "name": "F#4",
          "midi": 66,
          "time": 92.80000000000072,
          "velocity": 0.984251968503937,
          "duration": 0.25833333333333997
        },
        {
          "name": "F#4",
          "midi": 66,
          "time": 93.0666666666674,
          "velocity": 0.984251968503937,
          "duration": 0.2666666666666657
        },
        {
          "name": "F#4",
          "midi": 66,
          "time": 93.33333333333407,
          "velocity": 0.984251968503937,
          "duration": 0.25
        },
        {
          "name": "F#4",
          "midi": 66,
          "time": 93.60000000000073,
          "velocity": 0.984251968503937,
          "duration": 0.25833333333333997
        },
        {
          "name": "E4",
          "midi": 64,
          "time": 93.86666666666741,
          "velocity": 0.984251968503937,
          "duration": 0.25833333333333997
        },
        {
          "name": "E4",
          "midi": 64,
          "time": 94.1333333333341,
          "velocity": 0.984251968503937,
          "duration": 0.25833333333333997
        },
        {
          "name": "E4",
          "midi": 64,
          "time": 94.40000000000077,
          "velocity": 0.984251968503937,
          "duration": 0.19166666666666288
        },
        {
          "name": "D4",
          "midi": 62,
          "time": 94.60000000000078,
          "velocity": 0.984251968503937,
          "duration": 0.19166666666666288
        },
        {
          "name": "B3",
          "midi": 59,
          "time": 94.80000000000078,
          "velocity": 0.984251968503937,
          "duration": 1
        },
        {
          "name": "F#4",
          "midi": 66,
          "time": 96.40000000000077,
          "velocity": 0.9921259842519685,
          "duration": 0.19166666666666288
        },
        {
          "name": "F#4",
          "midi": 66,
          "time": 96.60000000000078,
          "velocity": 0.9921259842519685,
          "duration": 0.19166666666666288
        },
        {
          "name": "F#4",
          "midi": 66,
          "time": 96.80000000000078,
          "velocity": 0.9921259842519685,
          "duration": 0.4000000000000057
        },
        {
          "name": "E4",
          "midi": 64,
          "time": 97.20000000000078,
          "velocity": 0.9921259842519685,
          "duration": 0.19166666666666288
        },
        {
          "name": "D4",
          "midi": 62,
          "time": 97.40000000000079,
          "velocity": 0.9921259842519685,
          "duration": 0.19166666666666288
        },
        {
          "name": "D4",
          "midi": 62,
          "time": 97.60000000000079,
          "velocity": 0.9921259842519685,
          "duration": 0.4000000000000057
        },
        {
          "name": "F#4",
          "midi": 66,
          "time": 98.0000000000008,
          "velocity": 0.9921259842519685,
          "duration": 1.0000000000000568
        },
        {
          "name": "A3",
          "midi": 57,
          "time": 99.60000000000085,
          "velocity": 0.9921259842519685,
          "duration": 0.19166666666666288
        },
        {
          "name": "A3",
          "midi": 57,
          "time": 99.80000000000085,
          "velocity": 0.9921259842519685,
          "duration": 0.19166666666666288
        },
        {
          "name": "F#4",
          "midi": 66,
          "time": 100.00000000000085,
          "velocity": 0.9921259842519685,
          "duration": 0.25833333333333997
        },
        {
          "name": "E4",
          "midi": 64,
          "time": 100.26666666666753,
          "velocity": 0.9921259842519685,
          "duration": 0.25833333333333997
        },
        {
          "name": "D4",
          "midi": 62,
          "time": 100.53333333333421,
          "velocity": 0.9921259842519685,
          "duration": 0.25833333333333997
        },
        {
          "name": "D4",
          "midi": 62,
          "time": 100.80000000000089,
          "velocity": 0.9921259842519685,
          "duration": 1.5916666666666686
        },
        {
          "name": "E4",
          "midi": 64,
          "time": 102.80000000000089,
          "velocity": 0.9921259842519685,
          "duration": 0.19166666666666288
        },
        {
          "name": "E4",
          "midi": 64,
          "time": 103.0000000000009,
          "velocity": 0.9921259842519685,
          "duration": 0.19166666666666288
        },
        {
          "name": "E4",
          "midi": 64,
          "time": 103.2000000000009,
          "velocity": 0.9921259842519685,
          "duration": 0.19166666666666288
        },
        {
          "name": "E4",
          "midi": 64,
          "time": 103.4000000000009,
          "velocity": 0.9921259842519685,
          "duration": 0.19166666666666288
        },
        {
          "name": "E4",
          "midi": 64,
          "time": 103.6000000000009,
          "velocity": 0.9921259842519685,
          "duration": 0.19166666666666288
        },
        {
          "name": "E4",
          "midi": 64,
          "time": 103.8000000000009,
          "velocity": 0.9921259842519685,
          "duration": 0.19166666666666288
        },
        {
          "name": "E4",
          "midi": 64,
          "time": 104.00000000000091,
          "velocity": 0.9921259842519685,
          "duration": 0.4000000000000057
        },
        {
          "name": "D4",
          "midi": 62,
          "time": 104.40000000000092,
          "velocity": 0.9921259842519685,
          "duration": 0.19166666666666288
        },
        {
          "name": "F#4",
          "midi": 66,
          "time": 104.60000000000092,
          "velocity": 0.9921259842519685,
          "duration": 0.9916666666667311
        },
        {
          "name": "F#4",
          "midi": 66,
          "time": 105.80000000000098,
          "velocity": 0.9921259842519685,
          "duration": 0.19166666666666288
        },
        {
          "name": "F#4",
          "midi": 66,
          "time": 106.00000000000098,
          "velocity": 0.9921259842519685,
          "duration": 0.19166666666666288
        },
        {
          "name": "E4",
          "midi": 64,
          "time": 106.20000000000098,
          "velocity": 0.9921259842519685,
          "duration": 0.19166666666666288
        },
        {
          "name": "F#4",
          "midi": 66,
          "time": 106.40000000000099,
          "velocity": 0.9921259842519685,
          "duration": 0.20000000000000284
        },
        {
          "name": "A#4",
          "midi": 70,
          "time": 106.60000000000099,
          "velocity": 0.9921259842519685,
          "duration": 0.4000000000000057
        },
        {
          "name": "F#4",
          "midi": 66,
          "time": 107.000000000001,
          "velocity": 0.9921259842519685,
          "duration": 1.5999999999999943
        },
        {
          "name": "G4",
          "midi": 67,
          "time": 108.80000000000099,
          "velocity": 0.984251968503937,
          "duration": 0.19166666666666288
        },
        {
          "name": "G4",
          "midi": 67,
          "time": 109.000000000001,
          "velocity": 0.984251968503937,
          "duration": 0.19166666666666288
        },
        {
          "name": "G4",
          "midi": 67,
          "time": 109.200000000001,
          "velocity": 0.984251968503937,
          "duration": 0.19166666666666288
        },
        {
          "name": "G4",
          "midi": 67,
          "time": 109.400000000001,
          "velocity": 0.984251968503937,
          "duration": 0.19166666666666288
        },
        {
          "name": "G4",
          "midi": 67,
          "time": 109.80000000000099,
          "velocity": 0.984251968503937,
          "duration": 0.19166666666666288
        },
        {
          "name": "G4",
          "midi": 67,
          "time": 110.20000000000098,
          "velocity": 0.984251968503937,
          "duration": 0.19166666666666288
        },
        {
          "name": "G4",
          "midi": 67,
          "time": 110.40000000000099,
          "velocity": 0.984251968503937,
          "duration": 0.19166666666666288
        },
        {
          "name": "G4",
          "midi": 67,
          "time": 110.80000000000098,
          "velocity": 0.984251968503937,
          "duration": 0.19166666666666288
        },
        {
          "name": "A4",
          "midi": 69,
          "time": 111.20000000000097,
          "velocity": 0.984251968503937,
          "duration": 0.4000000000000057
        },
        {
          "name": "G4",
          "midi": 67,
          "time": 111.60000000000097,
          "velocity": 0.984251968503937,
          "duration": 0.19166666666666288
        },
        {
          "name": "G4",
          "midi": 67,
          "time": 111.80000000000098,
          "velocity": 0.984251968503937,
          "duration": 0.4000000000000057
        },
        {
          "name": "F#4",
          "midi": 66,
          "time": 112.20000000000098,
          "velocity": 0.984251968503937,
          "duration": 2.4000000000000057
        },
        {
          "name": "F#4",
          "midi": 66,
          "time": 114.80000000000099,
          "velocity": 0.984251968503937,
          "duration": 0.19166666666666288
        },
        {
          "name": "F#4",
          "midi": 66,
          "time": 115.000000000001,
          "velocity": 0.984251968503937,
          "duration": 0.19166666666666288
        },
        {
          "name": "F#4",
          "midi": 66,
          "time": 115.200000000001,
          "velocity": 0.984251968503937,
          "duration": 0.4000000000000057
        },
        {
          "name": "E4",
          "midi": 64,
          "time": 115.600000000001,
          "velocity": 0.984251968503937,
          "duration": 0.19166666666666288
        },
        {
          "name": "E4",
          "midi": 64,
          "time": 115.800000000001,
          "velocity": 0.984251968503937,
          "duration": 2.000000000000057
        },
        {
          "name": "E4",
          "midi": 64,
          "time": 118.00000000000107,
          "velocity": 0.984251968503937,
          "duration": 0.19166666666666288
        },
        {
          "name": "E4",
          "midi": 64,
          "time": 118.20000000000107,
          "velocity": 0.984251968503937,
          "duration": 0.19166666666666288
        },
        {
          "name": "E4",
          "midi": 64,
          "time": 118.40000000000107,
          "velocity": 0.984251968503937,
          "duration": 0.4000000000000057
        },
        {
          "name": "D4",
          "midi": 62,
          "time": 118.80000000000108,
          "velocity": 0.984251968503937,
          "duration": 0.19166666666666288
        },
        {
          "name": "D4",
          "midi": 62,
          "time": 119.00000000000108,
          "velocity": 0.984251968503937,
          "duration": 2.200000000000003
        },
        {
          "name": "G4",
          "midi": 67,
          "time": 121.60000000000109,
          "velocity": 0.9921259842519685,
          "duration": 0.19166666666666288
        },
        {
          "name": "G4",
          "midi": 67,
          "time": 121.80000000000109,
          "velocity": 0.9921259842519685,
          "duration": 0.19166666666666288
        },
        {
          "name": "G4",
          "midi": 67,
          "time": 122.0000000000011,
          "velocity": 0.9921259842519685,
          "duration": 0.19166666666666288
        },
        {
          "name": "G4",
          "midi": 67,
          "time": 122.2000000000011,
          "velocity": 0.9921259842519685,
          "duration": 0.19166666666666288
        },
        {
          "name": "G4",
          "midi": 67,
          "time": 122.60000000000109,
          "velocity": 0.9921259842519685,
          "duration": 0.19166666666666288
        },
        {
          "name": "G4",
          "midi": 67,
          "time": 123.00000000000108,
          "velocity": 0.9921259842519685,
          "duration": 0.19166666666666288
        },
        {
          "name": "G4",
          "midi": 67,
          "time": 123.20000000000108,
          "velocity": 0.9921259842519685,
          "duration": 0.19166666666666288
        },
        {
          "name": "G4",
          "midi": 67,
          "time": 123.60000000000107,
          "velocity": 0.9921259842519685,
          "duration": 0.19166666666666288
        },
        {
          "name": "A4",
          "midi": 69,
          "time": 124.00000000000107,
          "velocity": 0.9921259842519685,
          "duration": 0.4000000000000057
        },
        {
          "name": "G4",
          "midi": 67,
          "time": 124.40000000000107,
          "velocity": 0.9921259842519685,
          "duration": 0.19166666666666288
        },
        {
          "name": "G4",
          "midi": 67,
          "time": 124.60000000000107,
          "velocity": 0.9921259842519685,
          "duration": 0.19166666666666288
        },
        {
          "name": "F#4",
          "midi": 66,
          "time": 125.00000000000107,
          "velocity": 0.9921259842519685,
          "duration": 1.4000000000000625
        },
        {
          "name": "F#4",
          "midi": 66,
          "time": 127.60000000000113,
          "velocity": 0.9921259842519685,
          "duration": 0.19166666666666288
        },
        {
          "name": "F#4",
          "midi": 66,
          "time": 127.80000000000113,
          "velocity": 0.9921259842519685,
          "duration": 0.19166666666666288
        },
        {
          "name": "F#4",
          "midi": 66,
          "time": 128.00000000000114,
          "velocity": 0.9921259842519685,
          "duration": 0.4000000000000057
        },
        {
          "name": "E4",
          "midi": 64,
          "time": 128.40000000000114,
          "velocity": 0.9921259842519685,
          "duration": 0.19166666666666288
        },
        {
          "name": "E4",
          "midi": 64,
          "time": 128.60000000000113,
          "velocity": 0.9921259842519685,
          "duration": 2.1999999999999886
        },
        {
          "name": "G4",
          "midi": 67,
          "time": 130.80000000000112,
          "velocity": 0.9921259842519685,
          "duration": 0.19166666666666288
        },
        {
          "name": "G4",
          "midi": 67,
          "time": 131.0000000000011,
          "velocity": 0.9921259842519685,
          "duration": 0.19166666666666288
        },
        {
          "name": "G4",
          "midi": 67,
          "time": 131.2000000000011,
          "velocity": 0.9921259842519685,
          "duration": 0.4000000000000057
        },
        {
          "name": "F#4",
          "midi": 66,
          "time": 131.6000000000011,
          "velocity": 0.9921259842519685,
          "duration": 0.19166666666666288
        },
        {
          "name": "F#4",
          "midi": 66,
          "time": 131.8000000000011,
          "velocity": 0.9921259842519685,
          "duration": 2.1999999999999886
        },
        {
          "name": "F#4",
          "midi": 66,
          "time": 134.60000000000107,
          "velocity": 1,
          "duration": 0.19166666666666288
        },
        {
          "name": "F#4",
          "midi": 66,
          "time": 134.80000000000106,
          "velocity": 1,
          "duration": 0.19166666666666288
        },
        {
          "name": "F#4",
          "midi": 66,
          "time": 135.00000000000105,
          "velocity": 1,
          "duration": 0.19166666666666288
        },
        {
          "name": "G4",
          "midi": 67,
          "time": 135.20000000000104,
          "velocity": 1,
          "duration": 0.25833333333332575
        },
        {
          "name": "F#4",
          "midi": 66,
          "time": 135.4666666666677,
          "velocity": 1,
          "duration": 0.25833333333332575
        },
        {
          "name": "F#4",
          "midi": 66,
          "time": 135.73333333333434,
          "velocity": 1,
          "duration": 0.25833333333332575
        },
        {
          "name": "G4",
          "midi": 67,
          "time": 136.000000000001,
          "velocity": 1,
          "duration": 0.4000000000000057
        },
        {
          "name": "F#4",
          "midi": 66,
          "time": 136.400000000001,
          "velocity": 1,
          "duration": 1.133333333333212
        },
        {
          "name": "F#4",
          "midi": 66,
          "time": 137.8000000000009,
          "velocity": 1,
          "duration": 0.19166666666666288
        },
        {
          "name": "F#4",
          "midi": 66,
          "time": 138.00000000000088,
          "velocity": 1,
          "duration": 0.19166666666666288
        },
        {
          "name": "F#4",
          "midi": 66,
          "time": 138.20000000000087,
          "velocity": 1,
          "duration": 0.19166666666666288
        },
        {
          "name": "F#4",
          "midi": 66,
          "time": 138.40000000000086,
          "velocity": 1,
          "duration": 0.25833333333332575
        },
        {
          "name": "E4",
          "midi": 64,
          "time": 138.6666666666675,
          "velocity": 1,
          "duration": 0.25833333333332575
        },
        {
          "name": "E4",
          "midi": 64,
          "time": 138.93333333333416,
          "velocity": 1,
          "duration": 0.25
        },
        {
          "name": "F#4",
          "midi": 66,
          "time": 139.20000000000084,
          "velocity": 1,
          "duration": 1.5916666666666401
        },
        {
          "name": "E4",
          "midi": 64,
          "time": 141.00000000000082,
          "velocity": 1,
          "duration": 0.19166666666666288
        },
        {
          "name": "E4",
          "midi": 64,
          "time": 141.2000000000008,
          "velocity": 1,
          "duration": 0.19166666666666288
        },
        {
          "name": "E4",
          "midi": 64,
          "time": 141.4000000000008,
          "velocity": 1,
          "duration": 0.19166666666666288
        },
        {
          "name": "E4",
          "midi": 64,
          "time": 141.6000000000008,
          "velocity": 1,
          "duration": 0.25
        },
        {
          "name": "E4",
          "midi": 64,
          "time": 141.86666666666747,
          "velocity": 1,
          "duration": 0.25833333333332575
        },
        {
          "name": "E4",
          "midi": 64,
          "time": 142.13333333333412,
          "velocity": 1,
          "duration": 0.26666666666667993
        },
        {
          "name": "E4",
          "midi": 64,
          "time": 142.4000000000008,
          "velocity": 1,
          "duration": 0.25833333333332575
        },
        {
          "name": "F#4",
          "midi": 66,
          "time": 142.66666666666745,
          "velocity": 1,
          "duration": 0.25833333333332575
        },
        {
          "name": "E4",
          "midi": 64,
          "time": 142.9333333333341,
          "velocity": 1,
          "duration": 0.25833333333332575
        },
        {
          "name": "F#4",
          "midi": 66,
          "time": 143.20000000000076,
          "velocity": 1,
          "duration": 0.7916666666666572
        },
        {
          "name": "F#4",
          "midi": 66,
          "time": 144.60000000000073,
          "velocity": 0.8110236220472441,
          "duration": 0.19999999999998863
        },
        {
          "name": "F#4",
          "midi": 66,
          "time": 144.80000000000072,
          "velocity": 0.7165354330708661,
          "duration": 0.4000000000000057
        },
        {
          "name": "E4",
          "midi": 64,
          "time": 145.20000000000073,
          "velocity": 0.905511811023622,
          "duration": 0.34583333333333144
        },
        {
          "name": "E4",
          "midi": 64,
          "time": 145.61666666666738,
          "velocity": 0.8267716535433071,
          "duration": 0.19583333333332575
        },
        {
          "name": "D4",
          "midi": 62,
          "time": 145.83333333333405,
          "velocity": 0.7480314960629921,
          "duration": 0.19166666666666288
        },
        {
          "name": "B3",
          "midi": 59,
          "time": 146.0000000000007,
          "velocity": 0.6456692913385826,
          "duration": 0.8583333333333485
        },
        {
          "name": "F#4",
          "midi": 66,
          "time": 147.60000000000073,
          "velocity": 1,
          "duration": 0.19166666666666288
        },
        {
          "name": "F#4",
          "midi": 66,
          "time": 147.80000000000072,
          "velocity": 1,
          "duration": 0.19166666666666288
        },
        {
          "name": "F#4",
          "midi": 66,
          "time": 148.0000000000007,
          "velocity": 1,
          "duration": 0.4000000000000057
        },
        {
          "name": "E4",
          "midi": 64,
          "time": 148.40000000000072,
          "velocity": 1,
          "duration": 0.19166666666666288
        },
        {
          "name": "D4",
          "midi": 62,
          "time": 148.6000000000007,
          "velocity": 1,
          "duration": 0.19166666666666288
        },
        {
          "name": "D4",
          "midi": 62,
          "time": 148.8000000000007,
          "velocity": 1,
          "duration": 0.4000000000000057
        },
        {
          "name": "F#4",
          "midi": 66,
          "time": 149.2000000000007,
          "velocity": 1,
          "duration": 0.9999999999998863
        },
        {
          "name": "F#4",
          "midi": 66,
          "time": 150.40000000000057,
          "velocity": 1,
          "duration": 1
        },
        {
          "name": "E4",
          "midi": 64,
          "time": 151.40000000000057,
          "velocity": 1,
          "duration": 0.19166666666666288
        },
        {
          "name": "D4",
          "midi": 62,
          "time": 151.60000000000056,
          "velocity": 1,
          "duration": 0.4000000000000057
        },
        {
          "name": "D4",
          "midi": 62,
          "time": 152.00000000000057,
          "velocity": 1,
          "duration": 1
        },
        {
          "name": "E4",
          "midi": 64,
          "time": 154.00000000000057,
          "velocity": 1,
          "duration": 0.19166666666666288
        },
        {
          "name": "E4",
          "midi": 64,
          "time": 154.20000000000056,
          "velocity": 1,
          "duration": 0.19166666666666288
        },
        {
          "name": "E4",
          "midi": 64,
          "time": 154.40000000000055,
          "velocity": 1,
          "duration": 0.4000000000000057
        },
        {
          "name": "E4",
          "midi": 64,
          "time": 154.80000000000055,
          "velocity": 1,
          "duration": 0.19166666666666288
        },
        {
          "name": "D4",
          "midi": 62,
          "time": 155.00000000000054,
          "velocity": 1,
          "duration": 0.19166666666666288
        },
        {
          "name": "F#4",
          "midi": 66,
          "time": 155.20000000000053,
          "velocity": 1,
          "duration": 0.399999999999892
        },
        {
          "name": "E4",
          "midi": 64,
          "time": 155.60000000000042,
          "velocity": 1,
          "duration": 0.8000000000000114
        },
        {
          "name": "F#4",
          "midi": 66,
          "time": 157.20000000000044,
          "velocity": 1,
          "duration": 0.4000000000000057
        },
        {
          "name": "F#4",
          "midi": 66,
          "time": 157.60000000000045,
          "velocity": 1,
          "duration": 0.4000000000000057
        },
        {
          "name": "E4",
          "midi": 64,
          "time": 158.00000000000045,
          "velocity": 1,
          "duration": 0.19166666666666288
        },
        {
          "name": "E4",
          "midi": 64,
          "time": 158.20000000000044,
          "velocity": 1,
          "duration": 0.19166666666666288
        },
        {
          "name": "F#4",
          "midi": 66,
          "time": 158.40000000000043,
          "velocity": 1,
          "duration": 1.5916666666665833
        },
        {
          "name": "F#4",
          "midi": 66,
          "time": 160.40000000000035,
          "velocity": 1,
          "duration": 0.19166666666666288
        },
        {
          "name": "F#4",
          "midi": 66,
          "time": 160.60000000000034,
          "velocity": 1,
          "duration": 0.19166666666666288
        },
        {
          "name": "F#4",
          "midi": 66,
          "time": 160.80000000000032,
          "velocity": 1,
          "duration": 0.4000000000000057
        },
        {
          "name": "F#4",
          "midi": 66,
          "time": 161.20000000000033,
          "velocity": 1,
          "duration": 0.19166666666666288
        },
        {
          "name": "F#4",
          "midi": 66,
          "time": 161.40000000000032,
          "velocity": 1,
          "duration": 0.19166666666666288
        },
        {
          "name": "G4",
          "midi": 67,
          "time": 161.6000000000003,
          "velocity": 1,
          "duration": 0.4000000000000057
        },
        {
          "name": "F#4",
          "midi": 66,
          "time": 162.0000000000003,
          "velocity": 1,
          "duration": 1
        },
        {
          "name": "F#4",
          "midi": 66,
          "time": 163.6000000000003,
          "velocity": 1,
          "duration": 0.4000000000000057
        },
        {
          "name": "F#4",
          "midi": 66,
          "time": 164.0000000000003,
          "velocity": 1,
          "duration": 0.26666666666667993
        },
        {
          "name": "F#4",
          "midi": 66,
          "time": 164.266666666667,
          "velocity": 1,
          "duration": 0.25833333333332575
        },
        {
          "name": "E4",
          "midi": 64,
          "time": 164.53333333333364,
          "velocity": 1,
          "duration": 0.25833333333332575
        },
        {
          "name": "F#4",
          "midi": 66,
          "time": 164.8000000000003,
          "velocity": 1,
          "duration": 1.5916666666666686
        },
        {
          "name": "E4",
          "midi": 64,
          "time": 166.6000000000003,
          "velocity": 1,
          "duration": 0.19166666666666288
        },
        {
          "name": "E4",
          "midi": 64,
          "time": 166.8000000000003,
          "velocity": 1,
          "duration": 0.19166666666666288
        },
        {
          "name": "E4",
          "midi": 64,
          "time": 167.00000000000028,
          "velocity": 1,
          "duration": 0.19166666666666288
        },
        {
          "name": "E4",
          "midi": 64,
          "time": 167.20000000000027,
          "velocity": 1,
          "duration": 0.4000000000000057
        },
        {
          "name": "E4",
          "midi": 64,
          "time": 167.60000000000028,
          "velocity": 1,
          "duration": 0.4000000000000057
        },
        {
          "name": "E4",
          "midi": 64,
          "time": 168.00000000000028,
          "velocity": 1,
          "duration": 0.19166666666666288
        },
        {
          "name": "E4",
          "midi": 64,
          "time": 168.20000000000027,
          "velocity": 1,
          "duration": 0.19166666666666288
        },
        {
          "name": "F#4",
          "midi": 66,
          "time": 168.40000000000026,
          "velocity": 1,
          "duration": 1.066666666666606
        },
        {
          "name": "F#4",
          "midi": 66,
          "time": 170.0000000000002,
          "velocity": 0.7952755905511811,
          "duration": 0.39166666666667993
        },
        {
          "name": "F#4",
          "midi": 66,
          "time": 170.4000000000002,
          "velocity": 0.6692913385826772,
          "duration": 0.25833333333332575
        },
        {
          "name": "E4",
          "midi": 64,
          "time": 170.66666666666686,
          "velocity": 0.8267716535433071,
          "duration": 0.25833333333332575
        },
        {
          "name": "E4",
          "midi": 64,
          "time": 170.9333333333335,
          "velocity": 0.8267716535433071,
          "duration": 0.26666666666667993
        },
        {
          "name": "E4",
          "midi": 64,
          "time": 171.2000000000002,
          "velocity": 0.7952755905511811,
          "duration": 0.19166666666666288
        },
        {
          "name": "D4",
          "midi": 62,
          "time": 171.40000000000018,
          "velocity": 0.8188976377952756,
          "duration": 0.19166666666666288
        },
        {
          "name": "B3",
          "midi": 59,
          "time": 171.60000000000016,
          "velocity": 0.8188976377952756,
          "duration": 1.1999999999999886
        },
        {
          "name": "F#4",
          "midi": 66,
          "time": 173.20000000000016,
          "velocity": 1,
          "duration": 0.4000000000000057
        },
        {
          "name": "F#4",
          "midi": 66,
          "time": 173.60000000000016,
          "velocity": 1,
          "duration": 0.4000000000000057
        },
        {
          "name": "F#4",
          "midi": 66,
          "time": 174.00000000000017,
          "velocity": 1,
          "duration": 0.4000000000000057
        },
        {
          "name": "F#4",
          "midi": 66,
          "time": 174.40000000000018,
          "velocity": 1,
          "duration": 0.19166666666666288
        },
        {
          "name": "E4",
          "midi": 64,
          "time": 174.60000000000016,
          "velocity": 1,
          "duration": 0.4000000000000057
        },
        {
          "name": "D4",
          "midi": 62,
          "time": 175.00000000000017,
          "velocity": 1,
          "duration": 0.19166666666666288
        },
        {
          "name": "D4",
          "midi": 62,
          "time": 175.20000000000016,
          "velocity": 1,
          "duration": 0.4000000000000057
        },
        {
          "name": "E4",
          "midi": 64,
          "time": 175.60000000000016,
          "velocity": 1,
          "duration": 0.4000000000000057
        },
        {
          "name": "F#4",
          "midi": 66,
          "time": 176.00000000000017,
          "velocity": 1,
          "duration": 1
        },
        {
          "name": "E4",
          "midi": 64,
          "time": 177.00000000000017,
          "velocity": 1,
          "duration": 0.19166666666666288
        },
        {
          "name": "D4",
          "midi": 62,
          "time": 177.20000000000016,
          "velocity": 1,
          "duration": 0.19166666666666288
        },
        {
          "name": "D4",
          "midi": 62,
          "time": 177.40000000000015,
          "velocity": 1,
          "duration": 1.73333333333332
        },
        {
          "name": "E4",
          "midi": 64,
          "time": 179.60000000000014,
          "velocity": 1,
          "duration": 0.19166666666666288
        },
        {
          "name": "E4",
          "midi": 64,
          "time": 179.80000000000013,
          "velocity": 1,
          "duration": 0.19166666666666288
        },
        {
          "name": "E4",
          "midi": 64,
          "time": 180.0000000000001,
          "velocity": 1,
          "duration": 0.4000000000000057
        },
        {
          "name": "E4",
          "midi": 64,
          "time": 180.40000000000012,
          "velocity": 1,
          "duration": 0.19166666666666288
        },
        {
          "name": "D4",
          "midi": 62,
          "time": 180.6000000000001,
          "velocity": 1,
          "duration": 0.19166666666666288
        },
        {
          "name": "E4",
          "midi": 64,
          "time": 180.8000000000001,
          "velocity": 1,
          "duration": 0.19166666666666288
        },
        {
          "name": "E4",
          "midi": 64,
          "time": 181.00000000000009,
          "velocity": 1,
          "duration": 0.19166666666666288
        },
        {
          "name": "E4",
          "midi": 64,
          "time": 181.20000000000007,
          "velocity": 1,
          "duration": 0.19166666666666288
        },
        {
          "name": "D4",
          "midi": 62,
          "time": 181.40000000000006,
          "velocity": 1,
          "duration": 0.19166666666666288
        },
        {
          "name": "F#4",
          "midi": 66,
          "time": 181.60000000000005,
          "velocity": 1,
          "duration": 0.7916666666665719
        },
        {
          "name": "F#4",
          "midi": 66,
          "time": 182.79999999999995,
          "velocity": 1,
          "duration": 0.19166666666666288
        },
        {
          "name": "E4",
          "midi": 64,
          "time": 182.99999999999994,
          "velocity": 1,
          "duration": 0.19166666666666288
        },
        {
          "name": "F#4",
          "midi": 66,
          "time": 183.19999999999993,
          "velocity": 1,
          "duration": 0.4000000000000057
        },
        {
          "name": "A#4",
          "midi": 70,
          "time": 183.59999999999994,
          "velocity": 1,
          "duration": 0.4000000000000057
        },
        {
          "name": "F#4",
          "midi": 66,
          "time": 183.99999999999994,
          "velocity": 1,
          "duration": 1.5916666666665549
        },
        {
          "name": "G4",
          "midi": 67,
          "time": 185.59999999999982,
          "velocity": 0.984251968503937,
          "duration": 0.19166666666666288
        },
        {
          "name": "G4",
          "midi": 67,
          "time": 185.7999999999998,
          "velocity": 0.984251968503937,
          "duration": 0.19166666666666288
        },
        {
          "name": "G4",
          "midi": 67,
          "time": 185.9999999999998,
          "velocity": 0.984251968503937,
          "duration": 0.19166666666666288
        },
        {
          "name": "G4",
          "midi": 67,
          "time": 186.1999999999998,
          "velocity": 0.984251968503937,
          "duration": 0.19166666666666288
        },
        {
          "name": "G4",
          "midi": 67,
          "time": 186.5999999999998,
          "velocity": 0.984251968503937,
          "duration": 0.19166666666666288
        },
        {
          "name": "G4",
          "midi": 67,
          "time": 186.9999999999998,
          "velocity": 0.984251968503937,
          "duration": 0.19166666666666288
        },
        {
          "name": "G4",
          "midi": 67,
          "time": 187.1999999999998,
          "velocity": 0.984251968503937,
          "duration": 0.19166666666666288
        },
        {
          "name": "G4",
          "midi": 67,
          "time": 187.5999999999998,
          "velocity": 0.984251968503937,
          "duration": 0.19166666666666288
        },
        {
          "name": "A4",
          "midi": 69,
          "time": 187.9999999999998,
          "velocity": 0.984251968503937,
          "duration": 0.4000000000000057
        },
        {
          "name": "G4",
          "midi": 67,
          "time": 188.3999999999998,
          "velocity": 0.984251968503937,
          "duration": 0.19166666666666288
        },
        {
          "name": "G4",
          "midi": 67,
          "time": 188.5999999999998,
          "velocity": 0.984251968503937,
          "duration": 0.4000000000000057
        },
        {
          "name": "F#4",
          "midi": 66,
          "time": 188.9999999999998,
          "velocity": 0.984251968503937,
          "duration": 2.4000000000000057
        },
        {
          "name": "F#4",
          "midi": 66,
          "time": 191.5999999999998,
          "velocity": 0.984251968503937,
          "duration": 0.19166666666666288
        },
        {
          "name": "F#4",
          "midi": 66,
          "time": 191.79999999999978,
          "velocity": 0.984251968503937,
          "duration": 0.19166666666666288
        },
        {
          "name": "F#4",
          "midi": 66,
          "time": 191.99999999999977,
          "velocity": 0.984251968503937,
          "duration": 0.4000000000000057
        },
        {
          "name": "E4",
          "midi": 64,
          "time": 192.39999999999978,
          "velocity": 0.984251968503937,
          "duration": 0.19166666666666288
        },
        {
          "name": "E4",
          "midi": 64,
          "time": 192.59999999999977,
          "velocity": 0.984251968503937,
          "duration": 1.9999999999999432
        },
        {
          "name": "E4",
          "midi": 64,
          "time": 194.7999999999997,
          "velocity": 0.984251968503937,
          "duration": 0.19166666666666288
        },
        {
          "name": "E4",
          "midi": 64,
          "time": 194.9999999999997,
          "velocity": 0.984251968503937,
          "duration": 0.19166666666666288
        },
        {
          "name": "E4",
          "midi": 64,
          "time": 195.19999999999968,
          "velocity": 0.984251968503937,
          "duration": 0.4000000000000057
        },
        {
          "name": "D4",
          "midi": 62,
          "time": 195.59999999999968,
          "velocity": 0.984251968503937,
          "duration": 0.19166666666666288
        },
        {
          "name": "D4",
          "midi": 62,
          "time": 195.79999999999967,
          "velocity": 0.984251968503937,
          "duration": 2.1999999999999886
        },
        {
          "name": "G4",
          "midi": 67,
          "time": 198.39999999999966,
          "velocity": 0.9921259842519685,
          "duration": 0.19166666666666288
        },
        {
          "name": "G4",
          "midi": 67,
          "time": 198.59999999999965,
          "velocity": 0.9921259842519685,
          "duration": 0.19166666666666288
        },
        {
          "name": "G4",
          "midi": 67,
          "time": 198.79999999999964,
          "velocity": 0.9921259842519685,
          "duration": 0.19166666666666288
        },
        {
          "name": "G4",
          "midi": 67,
          "time": 198.99999999999963,
          "velocity": 0.9921259842519685,
          "duration": 0.19166666666666288
        },
        {
          "name": "G4",
          "midi": 67,
          "time": 199.39999999999964,
          "velocity": 0.9921259842519685,
          "duration": 0.19166666666666288
        },
        {
          "name": "G4",
          "midi": 67,
          "time": 199.79999999999964,
          "velocity": 0.9921259842519685,
          "duration": 0.19166666666666288
        },
        {
          "name": "G4",
          "midi": 67,
          "time": 199.99999999999963,
          "velocity": 0.9921259842519685,
          "duration": 0.19166666666666288
        },
        {
          "name": "G4",
          "midi": 67,
          "time": 200.39999999999964,
          "velocity": 0.9921259842519685,
          "duration": 0.19166666666666288
        },
        {
          "name": "A4",
          "midi": 69,
          "time": 200.79999999999964,
          "velocity": 0.9921259842519685,
          "duration": 0.4000000000000057
        },
        {
          "name": "G4",
          "midi": 67,
          "time": 201.19999999999965,
          "velocity": 0.9921259842519685,
          "duration": 0.19166666666666288
        },
        {
          "name": "G4",
          "midi": 67,
          "time": 201.39999999999964,
          "velocity": 0.9921259842519685,
          "duration": 0.19166666666666288
        },
        {
          "name": "F#4",
          "midi": 66,
          "time": 201.79999999999964,
          "velocity": 0.9921259842519685,
          "duration": 1.3999999999999488
        },
        {
          "name": "F#4",
          "midi": 66,
          "time": 204.39999999999958,
          "velocity": 0.9921259842519685,
          "duration": 0.19166666666666288
        },
        {
          "name": "F#4",
          "midi": 66,
          "time": 204.59999999999957,
          "velocity": 0.9921259842519685,
          "duration": 0.19166666666666288
        },
        {
          "name": "F#4",
          "midi": 66,
          "time": 204.79999999999956,
          "velocity": 0.9921259842519685,
          "duration": 0.4000000000000057
        },
        {
          "name": "E4",
          "midi": 64,
          "time": 205.19999999999956,
          "velocity": 0.9921259842519685,
          "duration": 0.19166666666666288
        },
        {
          "name": "E4",
          "midi": 64,
          "time": 205.39999999999955,
          "velocity": 0.9921259842519685,
          "duration": 2.1999999999999886
        },
        {
          "name": "G4",
          "midi": 67,
          "time": 207.59999999999954,
          "velocity": 0.9921259842519685,
          "duration": 0.19166666666666288
        },
        {
          "name": "G4",
          "midi": 67,
          "time": 207.79999999999953,
          "velocity": 0.9921259842519685,
          "duration": 0.19166666666666288
        },
        {
          "name": "G4",
          "midi": 67,
          "time": 207.99999999999952,
          "velocity": 0.9921259842519685,
          "duration": 0.4000000000000057
        },
        {
          "name": "F#4",
          "midi": 66,
          "time": 208.39999999999952,
          "velocity": 0.9921259842519685,
          "duration": 0.19166666666666288
        },
        {
          "name": "F#4",
          "midi": 66,
          "time": 208.5999999999995,
          "velocity": 0.9921259842519685,
          "duration": 2.1999999999999886
        },
        {
          "name": "F#4",
          "midi": 66,
          "time": 211.5999999999995,
          "velocity": 1,
          "duration": 0.4000000000000057
        },
        {
          "name": "F#4",
          "midi": 66,
          "time": 211.99999999999952,
          "velocity": 1,
          "duration": 0.26666666666667993
        },
        {
          "name": "G4",
          "midi": 67,
          "time": 212.2666666666662,
          "velocity": 1,
          "duration": 0.25833333333332575
        },
        {
          "name": "F#4",
          "midi": 66,
          "time": 212.53333333333285,
          "velocity": 1,
          "duration": 0.25833333333332575
        },
        {
          "name": "G4",
          "midi": 67,
          "time": 212.7999999999995,
          "velocity": 1,
          "duration": 0.4000000000000057
        },
        {
          "name": "F#4",
          "midi": 66,
          "time": 213.1999999999995,
          "velocity": 1,
          "duration": 1.599999999999966
        },
        {
          "name": "F#4",
          "midi": 66,
          "time": 214.79999999999947,
          "velocity": 1,
          "duration": 0.39166666666667993
        },
        {
          "name": "F#4",
          "midi": 66,
          "time": 215.19999999999948,
          "velocity": 1,
          "duration": 0.25833333333332575
        },
        {
          "name": "F#4",
          "midi": 66,
          "time": 215.46666666666613,
          "velocity": 1,
          "duration": 0.26666666666667993
        },
        {
          "name": "E4",
          "midi": 64,
          "time": 215.7333333333328,
          "velocity": 1,
          "duration": 0.25833333333332575
        },
        {
          "name": "F#4",
          "midi": 66,
          "time": 215.99999999999946,
          "velocity": 1,
          "duration": 1.5916666666666401
        },
        {
          "name": "F#4",
          "midi": 66,
          "time": 217.99999999999943,
          "velocity": 1,
          "duration": 0.19166666666666288
        },
        {
          "name": "E4",
          "midi": 64,
          "time": 218.19999999999942,
          "velocity": 1,
          "duration": 0.19166666666666288
        },
        {
          "name": "E4",
          "midi": 64,
          "time": 218.3999999999994,
          "velocity": 1,
          "duration": 0.4000000000000057
        },
        {
          "name": "E4",
          "midi": 64,
          "time": 218.79999999999941,
          "velocity": 1,
          "duration": 0.39166666666667993
        },
        {
          "name": "F#4",
          "midi": 66,
          "time": 219.19999999999942,
          "velocity": 1,
          "duration": 0.25833333333332575
        },
        {
          "name": "E4",
          "midi": 64,
          "time": 219.46666666666607,
          "velocity": 1,
          "duration": 0.25833333333332575
        },
        {
          "name": "E4",
          "midi": 64,
          "time": 219.73333333333272,
          "velocity": 1,
          "duration": 0.26666666666667993
        },
        {
          "name": "F#4",
          "midi": 66,
          "time": 219.9999999999994,
          "velocity": 1,
          "duration": 0.7999999999998977
        },
        {
          "name": "F#4",
          "midi": 66,
          "time": 221.1999999999993,
          "velocity": 1,
          "duration": 0.19166666666666288
        },
        {
          "name": "F#4",
          "midi": 66,
          "time": 221.3999999999993,
          "velocity": 1,
          "duration": 0.19166666666666288
        },
        {
          "name": "F#4",
          "midi": 66,
          "time": 221.59999999999928,
          "velocity": 1,
          "duration": 0.39166666666667993
        },
        {
          "name": "E4",
          "midi": 64,
          "time": 221.9999999999993,
          "velocity": 1,
          "duration": 0.19166666666666288
        },
        {
          "name": "D4",
          "midi": 62,
          "time": 222.19999999999928,
          "velocity": 1,
          "duration": 1.1999999999999886
        },
        {
          "name": "F#4",
          "midi": 66,
          "time": 224.39999999999927,
          "velocity": 1,
          "duration": 0.19166666666666288
        },
        {
          "name": "F#4",
          "midi": 66,
          "time": 224.59999999999926,
          "velocity": 1,
          "duration": 0.19166666666666288
        },
        {
          "name": "F#4",
          "midi": 66,
          "time": 224.79999999999924,
          "velocity": 1,
          "duration": 0.25833333333332575
        },
        {
          "name": "E4",
          "midi": 64,
          "time": 225.0666666666659,
          "velocity": 1,
          "duration": 0.25833333333332575
        },
        {
          "name": "D4",
          "midi": 62,
          "time": 225.33333333333255,
          "velocity": 1,
          "duration": 0.25833333333332575
        },
        {
          "name": "D4",
          "midi": 62,
          "time": 225.5999999999992,
          "velocity": 1,
          "duration": 0.4000000000000057
        },
        {
          "name": "F#4",
          "midi": 66,
          "time": 225.9999999999992,
          "velocity": 1,
          "duration": 1.1999999999997897
        },
        {
          "name": "A3",
          "midi": 57,
          "time": 227.39999999999898,
          "velocity": 1,
          "duration": 0.19166666666666288
        },
        {
          "name": "F#4",
          "midi": 66,
          "time": 227.59999999999897,
          "velocity": 1,
          "duration": 0.4000000000000057
        },
        {
          "name": "F#4",
          "midi": 66,
          "time": 227.99999999999898,
          "velocity": 1,
          "duration": 0.4000000000000057
        },
        {
          "name": "E4",
          "midi": 64,
          "time": 228.39999999999898,
          "velocity": 1,
          "duration": 0.19166666666666288
        },
        {
          "name": "D4",
          "midi": 62,
          "time": 228.59999999999897,
          "velocity": 1,
          "duration": 0.19166666666666288
        },
        {
          "name": "D4",
          "midi": 62,
          "time": 228.79999999999896,
          "velocity": 1,
          "duration": 0.9999999999999147
        },
        {
          "name": "B3",
          "midi": 59,
          "time": 230.5999999999989,
          "velocity": 1,
          "duration": 0.19166666666666288
        },
        {
          "name": "E4",
          "midi": 64,
          "time": 230.79999999999887,
          "velocity": 1,
          "duration": 0.4000000000000057
        },
        {
          "name": "E4",
          "midi": 64,
          "time": 231.19999999999888,
          "velocity": 1,
          "duration": 0.19166666666666288
        },
        {
          "name": "E4",
          "midi": 64,
          "time": 231.39999999999887,
          "velocity": 1,
          "duration": 0.4000000000000057
        },
        {
          "name": "D4",
          "midi": 62,
          "time": 231.79999999999887,
          "velocity": 1,
          "duration": 0.19166666666666288
        },
        {
          "name": "E4",
          "midi": 64,
          "time": 231.99999999999886,
          "velocity": 1,
          "duration": 0.19166666666666288
        },
        {
          "name": "D4",
          "midi": 62,
          "time": 232.19999999999885,
          "velocity": 1,
          "duration": 0.4000000000000057
        },
        {
          "name": "F#4",
          "midi": 66,
          "time": 232.59999999999886,
          "velocity": 1,
          "duration": 0.7999999999999545
        },
        {
          "name": "F#4",
          "midi": 66,
          "time": 233.5999999999988,
          "velocity": 1,
          "duration": 0.4000000000000057
        },
        {
          "name": "F#4",
          "midi": 66,
          "time": 233.9999999999988,
          "velocity": 1,
          "duration": 0.5999999999999943
        },
        {
          "name": "F#4",
          "midi": 66,
          "time": 234.5999999999988,
          "velocity": 1,
          "duration": 0.4000000000000057
        },
        {
          "name": "E4",
          "midi": 64,
          "time": 234.9999999999988,
          "velocity": 1,
          "duration": 0.19166666666666288
        },
        {
          "name": "F#4",
          "midi": 66,
          "time": 235.1999999999988,
          "velocity": 1,
          "duration": 1.5916666666666401
        },
        {
          "name": "F#4",
          "midi": 66,
          "time": 237.19999999999877,
          "velocity": 1,
          "duration": 0.4000000000000057
        },
        {
          "name": "F#4",
          "midi": 66,
          "time": 237.59999999999877,
          "velocity": 1,
          "duration": 0.25833333333332575
        },
        {
          "name": "G4",
          "midi": 67,
          "time": 237.86666666666542,
          "velocity": 1,
          "duration": 0.25833333333332575
        },
        {
          "name": "F#4",
          "midi": 66,
          "time": 238.13333333333208,
          "velocity": 1,
          "duration": 0.25833333333332575
        },
        {
          "name": "G4",
          "midi": 67,
          "time": 238.39999999999873,
          "velocity": 1,
          "duration": 0.39166666666667993
        },
        {
          "name": "F#4",
          "midi": 66,
          "time": 238.79999999999873,
          "velocity": 1,
          "duration": 1.1916666666665776
        },
        {
          "name": "F#4",
          "midi": 66,
          "time": 240.39999999999864,
          "velocity": 1,
          "duration": 0.39166666666667993
        },
        {
          "name": "F#4",
          "midi": 66,
          "time": 240.79999999999865,
          "velocity": 1,
          "duration": 0.26666666666667993
        },
        {
          "name": "F#4",
          "midi": 66,
          "time": 241.06666666666533,
          "velocity": 1,
          "duration": 0.25833333333332575
        },
        {
          "name": "E4",
          "midi": 64,
          "time": 241.33333333333198,
          "velocity": 1,
          "duration": 0.26666666666667993
        },
        {
          "name": "F#4",
          "midi": 66,
          "time": 241.59999999999866,
          "velocity": 1,
          "duration": 1.5916666666666117
        },
        {
          "name": "D4",
          "midi": 62,
          "time": 243.7999999999986,
          "velocity": 1,
          "duration": 0.19166666666666288
        },
        {
          "name": "E4",
          "midi": 64,
          "time": 243.99999999999858,
          "velocity": 1,
          "duration": 0.19166666666666288
        },
        {
          "name": "E4",
          "midi": 64,
          "time": 244.19999999999857,
          "velocity": 1,
          "duration": 0.19166666666666288
        },
        {
          "name": "E4",
          "midi": 64,
          "time": 244.39999999999856,
          "velocity": 1,
          "duration": 0.19166666666666288
        },
        {
          "name": "E4",
          "midi": 64,
          "time": 244.59999999999854,
          "velocity": 1,
          "duration": 0.19166666666666288
        },
        {
          "name": "E4",
          "midi": 64,
          "time": 244.79999999999853,
          "velocity": 1,
          "duration": 0.19166666666666288
        },
        {
          "name": "E4",
          "midi": 64,
          "time": 244.99999999999852,
          "velocity": 1,
          "duration": 0.4000000000000057
        },
        {
          "name": "F#4",
          "midi": 66,
          "time": 245.39999999999853,
          "velocity": 1,
          "duration": 0.5999999999998238
        },
        {
          "name": "B3",
          "midi": 59,
          "time": 245.99999999999835,
          "velocity": 1,
          "duration": 0.19166666666666288
        },
        {
          "name": "B3",
          "midi": 59,
          "time": 246.19999999999834,
          "velocity": 1,
          "duration": 0.19166666666666288
        },
        {
          "name": "F#4",
          "midi": 66,
          "time": 246.39999999999833,
          "velocity": 1,
          "duration": 0.4000000000000057
        },
        {
          "name": "F#4",
          "midi": 66,
          "time": 246.79999999999833,
          "velocity": 1,
          "duration": 0.39166666666667993
        },
        {
          "name": "F#4",
          "midi": 66,
          "time": 247.19999999999834,
          "velocity": 1,
          "duration": 0.26666666666667993
        },
        {
          "name": "E4",
          "midi": 64,
          "time": 247.46666666666502,
          "velocity": 1,
          "duration": 0.25833333333332575
        },
        {
          "name": "E4",
          "midi": 64,
          "time": 247.73333333333167,
          "velocity": 1,
          "duration": 0.25833333333332575
        },
        {
          "name": "E4",
          "midi": 64,
          "time": 247.99999999999832,
          "velocity": 1,
          "duration": 0.19166666666666288
        },
        {
          "name": "D4",
          "midi": 62,
          "time": 248.1999999999983,
          "velocity": 0.7795275590551181,
          "duration": 0.19166666666666288
        },
        {
          "name": "B3",
          "midi": 59,
          "time": 248.3999999999983,
          "velocity": 0.7952755905511811,
          "duration": 1.1916666666666629
        },
        {
          "name": "B3",
          "midi": 59,
          "time": 250.06666666666496,
          "velocity": 1,
          "duration": 0.20416666666667993
        },
        {
          "name": "F#4",
          "midi": 66,
          "time": 250.3124999999983,
          "velocity": 1,
          "duration": 0.30416666666667425
        },
        {
          "name": "E4",
          "midi": 64,
          "time": 250.65833333333163,
          "velocity": 1,
          "duration": 0.23333333333332007
        },
        {
          "name": "D4",
          "midi": 62,
          "time": 250.9333333333316,
          "velocity": 1,
          "duration": 0.19166666666666288
        },
        {
          "name": "D4",
          "midi": 62,
          "time": 251.1833333333316,
          "velocity": 1,
          "duration": 0.3541666666666572
        },
        {
          "name": "F#4",
          "midi": 66,
          "time": 251.59999999999826,
          "velocity": 1,
          "duration": 1.1916666666666629
        },
        {
          "name": "A3",
          "midi": 57,
          "time": 252.59999999999826,
          "velocity": 1,
          "duration": 0.19166666666666288
        },
        {
          "name": "F#4",
          "midi": 66,
          "time": 252.79999999999825,
          "velocity": 1,
          "duration": 1.0333333333333314
        },
        {
          "name": "E4",
          "midi": 64,
          "time": 253.79999999999825,
          "velocity": 1,
          "duration": 0.23333333333332007
        },
        {
          "name": "D4",
          "midi": 62,
          "time": 254.0791666666649,
          "velocity": 1,
          "duration": 0.23333333333332007
        },
        {
          "name": "D4",
          "midi": 62,
          "time": 254.39999999999822,
          "velocity": 1,
          "duration": 1.5916666666666686
        },
        {
          "name": "E4",
          "midi": 64,
          "time": 256.3999999999982,
          "velocity": 1,
          "duration": 0.19166666666666288
        },
        {
          "name": "E4",
          "midi": 64,
          "time": 256.5999999999982,
          "velocity": 1,
          "duration": 0.19166666666666288
        },
        {
          "name": "E4",
          "midi": 64,
          "time": 256.7999999999982,
          "velocity": 1,
          "duration": 0.19166666666666288
        },
        {
          "name": "D4",
          "midi": 62,
          "time": 256.9999999999982,
          "velocity": 1,
          "duration": 0.19166666666666288
        },
        {
          "name": "E4",
          "midi": 64,
          "time": 257.19999999999817,
          "velocity": 1,
          "duration": 0.19166666666666288
        },
        {
          "name": "D4",
          "midi": 62,
          "time": 257.39999999999816,
          "velocity": 1,
          "duration": 0.19166666666666288
        },
        {
          "name": "E4",
          "midi": 64,
          "time": 257.59999999999815,
          "velocity": 1,
          "duration": 0.19166666666666288
        },
        {
          "name": "D4",
          "midi": 62,
          "time": 257.79999999999814,
          "velocity": 1,
          "duration": 0.39999999999997726
        },
        {
          "name": "F#4",
          "midi": 66,
          "time": 258.1999999999981,
          "velocity": 1,
          "duration": 0.7999999999995566
        },
        {
          "name": "F#4",
          "midi": 66,
          "time": 259.39999999999765,
          "velocity": 1,
          "duration": 0.19166666666666288
        },
        {
          "name": "F#4",
          "midi": 66,
          "time": 259.59999999999764,
          "velocity": 1,
          "duration": 0.19166666666666288
        },
        {
          "name": "F#4",
          "midi": 66,
          "time": 259.7999999999976,
          "velocity": 1,
          "duration": 0.19166666666666288
        },
        {
          "name": "A#4",
          "midi": 70,
          "time": 259.9999999999976,
          "velocity": 1,
          "duration": 0.19166666666666288
        },
        {
          "name": "F#4",
          "midi": 66,
          "time": 260.1999999999976,
          "velocity": 1,
          "duration": 0.39999999999997726
        },
        {
          "name": "F#4",
          "midi": 66,
          "time": 260.5999999999976,
          "velocity": 1,
          "duration": 0.799999999999784
        },
        {
          "name": "B4",
          "midi": 71,
          "time": 262.39999999999736,
          "velocity": 1,
          "duration": 0.19166666666666288
        },
        {
          "name": "F#4",
          "midi": 66,
          "time": 262.39999999999736,
          "velocity": 1,
          "duration": 0.19166666666666288
        },
        {
          "name": "D4",
          "midi": 62,
          "time": 262.59999999999735,
          "velocity": 0.7086614173228346,
          "duration": 0.19166666666666288
        },
        {
          "name": "F#4",
          "midi": 66,
          "time": 262.59999999999735,
          "velocity": 0.7086614173228346,
          "duration": 0.19166666666666288
        },
        {
          "name": "B3",
          "midi": 59,
          "time": 262.79999999999734,
          "velocity": 0.7086614173228346,
          "duration": 0.19166666666666288
        },
        {
          "name": "D4",
          "midi": 62,
          "time": 262.79999999999734,
          "velocity": 0.7086614173228346,
          "duration": 0.19166666666666288
        },
        {
          "name": "F#4",
          "midi": 66,
          "time": 262.9999999999973,
          "velocity": 1,
          "duration": 0.19166666666666288
        },
        {
          "name": "B4",
          "midi": 71,
          "time": 262.9999999999973,
          "velocity": 1,
          "duration": 0.19166666666666288
        },
        {
          "name": "D4",
          "midi": 62,
          "time": 263.1999999999973,
          "velocity": 0.7086614173228346,
          "duration": 0.19166666666666288
        },
        {
          "name": "F#4",
          "midi": 66,
          "time": 263.1999999999973,
          "velocity": 0.7086614173228346,
          "duration": 0.19166666666666288
        },
        {
          "name": "D4",
          "midi": 62,
          "time": 263.3999999999973,
          "velocity": 0.7086614173228346,
          "duration": 0.19166666666666288
        },
        {
          "name": "B3",
          "midi": 59,
          "time": 263.3999999999973,
          "velocity": 0.7086614173228346,
          "duration": 0.19166666666666288
        },
        {
          "name": "F#4",
          "midi": 66,
          "time": 263.5999999999973,
          "velocity": 1,
          "duration": 0.19166666666666288
        },
        {
          "name": "B4",
          "midi": 71,
          "time": 263.5999999999973,
          "velocity": 1,
          "duration": 0.19166666666666288
        },
        {
          "name": "F#4",
          "midi": 66,
          "time": 263.7999999999973,
          "velocity": 0.7086614173228346,
          "duration": 0.19166666666666288
        },
        {
          "name": "D4",
          "midi": 62,
          "time": 263.7999999999973,
          "velocity": 0.7086614173228346,
          "duration": 0.19166666666666288
        },
        {
          "name": "D4",
          "midi": 62,
          "time": 263.99999999999727,
          "velocity": 0.7086614173228346,
          "duration": 0.19166666666666288
        },
        {
          "name": "B3",
          "midi": 59,
          "time": 263.99999999999727,
          "velocity": 0.7086614173228346,
          "duration": 0.19166666666666288
        },
        {
          "name": "B4",
          "midi": 71,
          "time": 264.19999999999726,
          "velocity": 1,
          "duration": 0.19166666666666288
        },
        {
          "name": "F#4",
          "midi": 66,
          "time": 264.19999999999726,
          "velocity": 1,
          "duration": 0.19166666666666288
        },
        {
          "name": "D4",
          "midi": 62,
          "time": 264.39999999999725,
          "velocity": 0.7086614173228346,
          "duration": 0.19166666666666288
        },
        {
          "name": "F#4",
          "midi": 66,
          "time": 264.39999999999725,
          "velocity": 0.7086614173228346,
          "duration": 0.19166666666666288
        },
        {
          "name": "B3",
          "midi": 59,
          "time": 264.59999999999724,
          "velocity": 0.7086614173228346,
          "duration": 0.19166666666666288
        },
        {
          "name": "D4",
          "midi": 62,
          "time": 264.59999999999724,
          "velocity": 0.7086614173228346,
          "duration": 0.19166666666666288
        },
        {
          "name": "F#4",
          "midi": 66,
          "time": 264.7999999999972,
          "velocity": 1,
          "duration": 0.19166666666666288
        },
        {
          "name": "B4",
          "midi": 71,
          "time": 264.7999999999972,
          "velocity": 1,
          "duration": 0.19166666666666288
        },
        {
          "name": "D4",
          "midi": 62,
          "time": 264.9999999999972,
          "velocity": 0.7086614173228346,
          "duration": 0.19166666666666288
        },
        {
          "name": "F#4",
          "midi": 66,
          "time": 264.9999999999972,
          "velocity": 0.7086614173228346,
          "duration": 0.19166666666666288
        },
        {
          "name": "B3",
          "midi": 59,
          "time": 265.1999999999972,
          "velocity": 0.7086614173228346,
          "duration": 0.19166666666666288
        },
        {
          "name": "D4",
          "midi": 62,
          "time": 265.1999999999972,
          "velocity": 0.7086614173228346,
          "duration": 0.19166666666666288
        },
        {
          "name": "F#3",
          "midi": 54,
          "time": 265.3999999999972,
          "velocity": 1,
          "duration": 0.19166666666666288
        },
        {
          "name": "B3",
          "midi": 59,
          "time": 265.3999999999972,
          "velocity": 1,
          "duration": 0.19166666666666288
        },
        {
          "name": "A#4",
          "midi": 70,
          "time": 265.5999999999972,
          "velocity": 0.7086614173228346,
          "duration": 0.19166666666666288
        },
        {
          "name": "F#4",
          "midi": 66,
          "time": 265.5999999999972,
          "velocity": 0.7086614173228346,
          "duration": 0.19166666666666288
        },
        {
          "name": "C#4",
          "midi": 61,
          "time": 265.79999999999717,
          "velocity": 0.7086614173228346,
          "duration": 0.19166666666666288
        },
        {
          "name": "F#4",
          "midi": 66,
          "time": 265.79999999999717,
          "velocity": 0.7086614173228346,
          "duration": 0.19166666666666288
        },
        {
          "name": "A#3",
          "midi": 58,
          "time": 265.99999999999716,
          "velocity": 0.9763779527559056,
          "duration": 0.19166666666666288
        },
        {
          "name": "C#4",
          "midi": 61,
          "time": 265.99999999999716,
          "velocity": 0.9763779527559056,
          "duration": 0.19166666666666288
        },
        {
          "name": "A#4",
          "midi": 70,
          "time": 266.19999999999715,
          "velocity": 0.7086614173228346,
          "duration": 0.19166666666666288
        },
        {
          "name": "F#4",
          "midi": 66,
          "time": 266.19999999999715,
          "velocity": 0.7086614173228346,
          "duration": 0.19166666666666288
        },
        {
          "name": "C#4",
          "midi": 61,
          "time": 266.39999999999714,
          "velocity": 0.7086614173228346,
          "duration": 0.19166666666666288
        },
        {
          "name": "F#4",
          "midi": 66,
          "time": 266.39999999999714,
          "velocity": 0.7086614173228346,
          "duration": 0.19166666666666288
        },
        {
          "name": "A#3",
          "midi": 58,
          "time": 266.5999999999971,
          "velocity": 0.984251968503937,
          "duration": 0.19166666666666288
        },
        {
          "name": "C#4",
          "midi": 61,
          "time": 266.5999999999971,
          "velocity": 0.984251968503937,
          "duration": 0.19166666666666288
        },
        {
          "name": "A#4",
          "midi": 70,
          "time": 266.7999999999971,
          "velocity": 0.7086614173228346,
          "duration": 0.19166666666666288
        },
        {
          "name": "F#4",
          "midi": 66,
          "time": 266.7999999999971,
          "velocity": 0.7086614173228346,
          "duration": 0.19166666666666288
        },
        {
          "name": "C#4",
          "midi": 61,
          "time": 266.9999999999971,
          "velocity": 0.7086614173228346,
          "duration": 0.19166666666666288
        },
        {
          "name": "F#4",
          "midi": 66,
          "time": 266.9999999999971,
          "velocity": 0.7086614173228346,
          "duration": 0.19166666666666288
        },
        {
          "name": "A#4",
          "midi": 70,
          "time": 267.1999999999971,
          "velocity": 0.9763779527559056,
          "duration": 1.591666666665958
        },
        {
          "name": "C#5",
          "midi": 73,
          "time": 267.1999999999971,
          "velocity": 0.9763779527559056,
          "duration": 1.591666666665958
        },
        {
          "name": "E4",
          "midi": 64,
          "time": 268.7999999999964,
          "velocity": 0.968503937007874,
          "duration": 0.19166666666666288
        },
        {
          "name": "A4",
          "midi": 69,
          "time": 268.7999999999964,
          "velocity": 0.968503937007874,
          "duration": 0.19166666666666288
        },
        {
          "name": "E4",
          "midi": 64,
          "time": 268.99999999999636,
          "velocity": 0.7086614173228346,
          "duration": 0.19166666666666288
        },
        {
          "name": "C#4",
          "midi": 61,
          "time": 268.99999999999636,
          "velocity": 0.7086614173228346,
          "duration": 0.19166666666666288
        },
        {
          "name": "C#4",
          "midi": 61,
          "time": 269.19999999999635,
          "velocity": 0.7086614173228346,
          "duration": 0.19166666666666288
        },
        {
          "name": "A3",
          "midi": 57,
          "time": 269.19999999999635,
          "velocity": 0.7086614173228346,
          "duration": 0.19166666666666288
        },
        {
          "name": "A4",
          "midi": 69,
          "time": 269.39999999999634,
          "velocity": 0.9921259842519685,
          "duration": 0.19166666666666288
        },
        {
          "name": "E4",
          "midi": 64,
          "time": 269.39999999999634,
          "velocity": 0.9921259842519685,
          "duration": 0.19166666666666288
        },
        {
          "name": "C#4",
          "midi": 61,
          "time": 269.5999999999963,
          "velocity": 0.7086614173228346,
          "duration": 0.19166666666666288
        },
        {
          "name": "E4",
          "midi": 64,
          "time": 269.5999999999963,
          "velocity": 0.7086614173228346,
          "duration": 0.19166666666666288
        },
        {
          "name": "A3",
          "midi": 57,
          "time": 269.7999999999963,
          "velocity": 0.7086614173228346,
          "duration": 0.19166666666666288
        },
        {
          "name": "C#4",
          "midi": 61,
          "time": 269.7999999999963,
          "velocity": 0.7086614173228346,
          "duration": 0.19166666666666288
        },
        {
          "name": "E4",
          "midi": 64,
          "time": 269.9999999999963,
          "velocity": 0.9763779527559056,
          "duration": 0.19166666666666288
        },
        {
          "name": "A4",
          "midi": 69,
          "time": 269.9999999999963,
          "velocity": 0.9763779527559056,
          "duration": 0.19166666666666288
        },
        {
          "name": "E4",
          "midi": 64,
          "time": 270.1999999999963,
          "velocity": 0.7086614173228346,
          "duration": 0.19166666666666288
        },
        {
          "name": "C#4",
          "midi": 61,
          "time": 270.1999999999963,
          "velocity": 0.7086614173228346,
          "duration": 0.19166666666666288
        },
        {
          "name": "A3",
          "midi": 57,
          "time": 270.3999999999963,
          "velocity": 0.7086614173228346,
          "duration": 0.19166666666666288
        },
        {
          "name": "C#4",
          "midi": 61,
          "time": 270.3999999999963,
          "velocity": 0.7086614173228346,
          "duration": 0.19166666666666288
        },
        {
          "name": "E4",
          "midi": 64,
          "time": 270.59999999999627,
          "velocity": 0.968503937007874,
          "duration": 0.19166666666666288
        },
        {
          "name": "A4",
          "midi": 69,
          "time": 270.59999999999627,
          "velocity": 0.968503937007874,
          "duration": 0.19166666666666288
        },
        {
          "name": "C#4",
          "midi": 61,
          "time": 270.79999999999626,
          "velocity": 0.7086614173228346,
          "duration": 0.19166666666666288
        },
        {
          "name": "E4",
          "midi": 64,
          "time": 270.79999999999626,
          "velocity": 0.7086614173228346,
          "duration": 0.19166666666666288
        },
        {
          "name": "C#4",
          "midi": 61,
          "time": 270.99999999999625,
          "velocity": 0.7086614173228346,
          "duration": 0.19166666666666288
        },
        {
          "name": "A3",
          "midi": 57,
          "time": 270.99999999999625,
          "velocity": 0.7086614173228346,
          "duration": 0.19166666666666288
        },
        {
          "name": "A4",
          "midi": 69,
          "time": 271.19999999999624,
          "velocity": 0.9763779527559056,
          "duration": 0.19166666666666288
        },
        {
          "name": "E4",
          "midi": 64,
          "time": 271.19999999999624,
          "velocity": 0.9763779527559056,
          "duration": 0.19166666666666288
        },
        {
          "name": "C#4",
          "midi": 61,
          "time": 271.3999999999962,
          "velocity": 0.7086614173228346,
          "duration": 0.19166666666666288
        },
        {
          "name": "E4",
          "midi": 64,
          "time": 271.3999999999962,
          "velocity": 0.7086614173228346,
          "duration": 0.19166666666666288
        },
        {
          "name": "C#4",
          "midi": 61,
          "time": 271.5999999999962,
          "velocity": 0.7086614173228346,
          "duration": 0.19166666666666288
        },
        {
          "name": "A3",
          "midi": 57,
          "time": 271.5999999999962,
          "velocity": 0.7086614173228346,
          "duration": 0.19166666666666288
        },
        {
          "name": "E3",
          "midi": 52,
          "time": 271.7999999999962,
          "velocity": 0.968503937007874,
          "duration": 0.19166666666666288
        },
        {
          "name": "A3",
          "midi": 57,
          "time": 271.7999999999962,
          "velocity": 0.968503937007874,
          "duration": 0.19166666666666288
        },
        {
          "name": "G#4",
          "midi": 68,
          "time": 271.9999999999962,
          "velocity": 0.7086614173228346,
          "duration": 0.19166666666666288
        },
        {
          "name": "E4",
          "midi": 64,
          "time": 271.9999999999962,
          "velocity": 0.7086614173228346,
          "duration": 0.19166666666666288
        },
        {
          "name": "E4",
          "midi": 64,
          "time": 272.1999999999962,
          "velocity": 0.7086614173228346,
          "duration": 0.19166666666666288
        },
        {
          "name": "B3",
          "midi": 59,
          "time": 272.1999999999962,
          "velocity": 0.7086614173228346,
          "duration": 0.19166666666666288
        },
        {
          "name": "G#3",
          "midi": 56,
          "time": 272.39999999999617,
          "velocity": 0.968503937007874,
          "duration": 0.19166666666666288
        },
        {
          "name": "B3",
          "midi": 59,
          "time": 272.39999999999617,
          "velocity": 0.968503937007874,
          "duration": 0.19166666666666288
        },
        {
          "name": "E4",
          "midi": 64,
          "time": 272.59999999999616,
          "velocity": 0.7086614173228346,
          "duration": 0.19166666666666288
        },
        {
          "name": "G#4",
          "midi": 68,
          "time": 272.59999999999616,
          "velocity": 0.7086614173228346,
          "duration": 0.19166666666666288
        },
        {
          "name": "E4",
          "midi": 64,
          "time": 272.79999999999615,
          "velocity": 0.7086614173228346,
          "duration": 0.19166666666666288
        },
        {
          "name": "B3",
          "midi": 59,
          "time": 272.79999999999615,
          "velocity": 0.7086614173228346,
          "duration": 0.19166666666666288
        },
        {
          "name": "G#3",
          "midi": 56,
          "time": 272.99999999999613,
          "velocity": 0.9606299212598425,
          "duration": 0.19166666666666288
        },
        {
          "name": "B3",
          "midi": 59,
          "time": 272.99999999999613,
          "velocity": 0.9606299212598425,
          "duration": 0.19166666666666288
        },
        {
          "name": "E4",
          "midi": 64,
          "time": 273.1999999999961,
          "velocity": 0.7086614173228346,
          "duration": 0.19166666666666288
        },
        {
          "name": "G#4",
          "midi": 68,
          "time": 273.1999999999961,
          "velocity": 0.7086614173228346,
          "duration": 0.19166666666666288
        },
        {
          "name": "B3",
          "midi": 59,
          "time": 273.3999999999961,
          "velocity": 0.7086614173228346,
          "duration": 0.19166666666666288
        },
        {
          "name": "E4",
          "midi": 64,
          "time": 273.3999999999961,
          "velocity": 0.7086614173228346,
          "duration": 0.19166666666666288
        },
        {
          "name": "B4",
          "midi": 71,
          "time": 273.5999999999961,
          "velocity": 0.9763779527559056,
          "duration": 1.591666666665958
        },
        {
          "name": "G#4",
          "midi": 68,
          "time": 273.5999999999961,
          "velocity": 0.9763779527559056,
          "duration": 1.591666666665958
        },
        {
          "name": "G4",
          "midi": 67,
          "time": 275.1999999999954,
          "velocity": 0.968503937007874,
          "duration": 0.19166666666666288
        },
        {
          "name": "D4",
          "midi": 62,
          "time": 275.1999999999954,
          "velocity": 0.968503937007874,
          "duration": 0.19166666666666288
        },
        {
          "name": "D4",
          "midi": 62,
          "time": 275.3999999999954,
          "velocity": 0.7086614173228346,
          "duration": 0.19166666666666288
        },
        {
          "name": "B3",
          "midi": 59,
          "time": 275.3999999999954,
          "velocity": 0.7086614173228346,
          "duration": 0.19166666666666288
        },
        {
          "name": "G3",
          "midi": 55,
          "time": 275.59999999999536,
          "velocity": 0.7086614173228346,
          "duration": 0.19166666666666288
        },
        {
          "name": "B3",
          "midi": 59,
          "time": 275.59999999999536,
          "velocity": 0.7086614173228346,
          "duration": 0.19166666666666288
        },
        {
          "name": "D4",
          "midi": 62,
          "time": 275.79999999999535,
          "velocity": 0.9448818897637795,
          "duration": 0.19166666666666288
        },
        {
          "name": "G4",
          "midi": 67,
          "time": 275.79999999999535,
          "velocity": 0.9448818897637795,
          "duration": 0.19166666666666288
        },
        {
          "name": "B3",
          "midi": 59,
          "time": 275.99999999999534,
          "velocity": 0.7086614173228346,
          "duration": 0.19166666666666288
        },
        {
          "name": "D4",
          "midi": 62,
          "time": 275.99999999999534,
          "velocity": 0.7086614173228346,
          "duration": 0.19166666666666288
        },
        {
          "name": "B3",
          "midi": 59,
          "time": 276.1999999999953,
          "velocity": 0.7086614173228346,
          "duration": 0.19166666666666288
        },
        {
          "name": "G3",
          "midi": 55,
          "time": 276.1999999999953,
          "velocity": 0.7086614173228346,
          "duration": 0.19166666666666288
        },
        {
          "name": "D4",
          "midi": 62,
          "time": 276.3999999999953,
          "velocity": 0.9921259842519685,
          "duration": 0.19166666666666288
        },
        {
          "name": "G4",
          "midi": 67,
          "time": 276.3999999999953,
          "velocity": 0.9921259842519685,
          "duration": 0.19166666666666288
        },
        {
          "name": "D4",
          "midi": 62,
          "time": 276.5999999999953,
          "velocity": 0.7086614173228346,
          "duration": 0.19166666666666288
        },
        {
          "name": "B3",
          "midi": 59,
          "time": 276.5999999999953,
          "velocity": 0.7086614173228346,
          "duration": 0.19166666666666288
        },
        {
          "name": "B3",
          "midi": 59,
          "time": 276.7999999999953,
          "velocity": 0.7086614173228346,
          "duration": 0.19166666666666288
        },
        {
          "name": "G3",
          "midi": 55,
          "time": 276.7999999999953,
          "velocity": 0.7086614173228346,
          "duration": 0.19166666666666288
        },
        {
          "name": "G4",
          "midi": 67,
          "time": 276.9999999999953,
          "velocity": 0.984251968503937,
          "duration": 0.19166666666666288
        },
        {
          "name": "D4",
          "midi": 62,
          "time": 276.9999999999953,
          "velocity": 0.984251968503937,
          "duration": 0.19166666666666288
        },
        {
          "name": "B3",
          "midi": 59,
          "time": 277.19999999999527,
          "velocity": 0.7086614173228346,
          "duration": 0.19166666666666288
        },
        {
          "name": "D4",
          "midi": 62,
          "time": 277.19999999999527,
          "velocity": 0.7086614173228346,
          "duration": 0.19166666666666288
        },
        {
          "name": "B3",
          "midi": 59,
          "time": 277.39999999999526,
          "velocity": 0.7086614173228346,
          "duration": 0.19166666666666288
        },
        {
          "name": "G3",
          "midi": 55,
          "time": 277.39999999999526,
          "velocity": 0.7086614173228346,
          "duration": 0.19166666666666288
        },
        {
          "name": "D4",
          "midi": 62,
          "time": 277.59999999999525,
          "velocity": 0.9763779527559056,
          "duration": 0.19166666666666288
        },
        {
          "name": "G4",
          "midi": 67,
          "time": 277.59999999999525,
          "velocity": 0.9763779527559056,
          "duration": 0.19166666666666288
        },
        {
          "name": "B3",
          "midi": 59,
          "time": 277.79999999999524,
          "velocity": 0.7086614173228346,
          "duration": 0.19166666666666288
        },
        {
          "name": "D4",
          "midi": 62,
          "time": 277.79999999999524,
          "velocity": 0.7086614173228346,
          "duration": 0.19166666666666288
        },
        {
          "name": "G3",
          "midi": 55,
          "time": 277.9999999999952,
          "velocity": 0.7086614173228346,
          "duration": 0.19166666666666288
        },
        {
          "name": "B3",
          "midi": 59,
          "time": 277.9999999999952,
          "velocity": 0.7086614173228346,
          "duration": 0.19166666666666288
        },
        {
          "name": "G3",
          "midi": 55,
          "time": 278.1999999999952,
          "velocity": 0.984251968503937,
          "duration": 0.19166666666666288
        },
        {
          "name": "D3",
          "midi": 50,
          "time": 278.1999999999952,
          "velocity": 0.984251968503937,
          "duration": 0.19166666666666288
        },
        {
          "name": "F#4",
          "midi": 66,
          "time": 278.3999999999952,
          "velocity": 0.7086614173228346,
          "duration": 0.19166666666666288
        },
        {
          "name": "D4",
          "midi": 62,
          "time": 278.3999999999952,
          "velocity": 0.7086614173228346,
          "duration": 0.19166666666666288
        },
        {
          "name": "D4",
          "midi": 62,
          "time": 278.5999999999952,
          "velocity": 0.7086614173228346,
          "duration": 0.19166666666666288
        },
        {
          "name": "A3",
          "midi": 57,
          "time": 278.5999999999952,
          "velocity": 0.7086614173228346,
          "duration": 0.19166666666666288
        },
        {
          "name": "A3",
          "midi": 57,
          "time": 278.7999999999952,
          "velocity": 0.952755905511811,
          "duration": 0.19166666666666288
        },
        {
          "name": "F#3",
          "midi": 54,
          "time": 278.7999999999952,
          "velocity": 0.952755905511811,
          "duration": 0.19166666666666288
        },
        {
          "name": "D4",
          "midi": 62,
          "time": 278.99999999999517,
          "velocity": 0.7086614173228346,
          "duration": 0.19166666666666288
        },
        {
          "name": "F#4",
          "midi": 66,
          "time": 278.99999999999517,
          "velocity": 0.7086614173228346,
          "duration": 0.19166666666666288
        },
        {
          "name": "A3",
          "midi": 57,
          "time": 279.19999999999516,
          "velocity": 0.7086614173228346,
          "duration": 0.19166666666666288
        },
        {
          "name": "D4",
          "midi": 62,
          "time": 279.19999999999516,
          "velocity": 0.7086614173228346,
          "duration": 0.19166666666666288
        },
        {
          "name": "F#3",
          "midi": 54,
          "time": 279.39999999999515,
          "velocity": 0.9606299212598425,
          "duration": 0.19166666666666288
        },
        {
          "name": "A3",
          "midi": 57,
          "time": 279.39999999999515,
          "velocity": 0.9606299212598425,
          "duration": 0.19166666666666288
        },
        {
          "name": "F#4",
          "midi": 66,
          "time": 279.59999999999513,
          "velocity": 0.7086614173228346,
          "duration": 0.19166666666666288
        },
        {
          "name": "D4",
          "midi": 62,
          "time": 279.59999999999513,
          "velocity": 0.7086614173228346,
          "duration": 0.19166666666666288
        },
        {
          "name": "D4",
          "midi": 62,
          "time": 279.7999999999951,
          "velocity": 0.7086614173228346,
          "duration": 0.19166666666666288
        },
        {
          "name": "A3",
          "midi": 57,
          "time": 279.7999999999951,
          "velocity": 0.7086614173228346,
          "duration": 0.19166666666666288
        },
        {
          "name": "F#4",
          "midi": 66,
          "time": 279.9999999999951,
          "velocity": 0.9606299212598425,
          "duration": 1.591666666666299
        },
        {
          "name": "A4",
          "midi": 69,
          "time": 279.9999999999951,
          "velocity": 0.9606299212598425,
          "duration": 1.591666666666299
        },
        {
          "name": "E4",
          "midi": 64,
          "time": 281.59999999999474,
          "velocity": 0.9606299212598425,
          "duration": 0.19166666666666288
        },
        {
          "name": "G4",
          "midi": 67,
          "time": 281.59999999999474,
          "velocity": 0.9606299212598425,
          "duration": 0.19166666666666288
        },
        {
          "name": "B3",
          "midi": 59,
          "time": 281.7999999999947,
          "velocity": 0.7086614173228346,
          "duration": 0.19166666666666288
        },
        {
          "name": "E4",
          "midi": 64,
          "time": 281.7999999999947,
          "velocity": 0.7086614173228346,
          "duration": 0.19166666666666288
        },
        {
          "name": "B3",
          "midi": 59,
          "time": 281.9999999999947,
          "velocity": 0.7086614173228346,
          "duration": 0.19166666666666288
        },
        {
          "name": "G3",
          "midi": 55,
          "time": 281.9999999999947,
          "velocity": 0.7086614173228346,
          "duration": 0.19166666666666288
        },
        {
          "name": "G4",
          "midi": 67,
          "time": 282.1999999999947,
          "velocity": 0.968503937007874,
          "duration": 0.19166666666666288
        },
        {
          "name": "E4",
          "midi": 64,
          "time": 282.1999999999947,
          "velocity": 0.968503937007874,
          "duration": 0.19166666666666288
        },
        {
          "name": "E4",
          "midi": 64,
          "time": 282.3999999999947,
          "velocity": 0.7086614173228346,
          "duration": 0.19166666666666288
        },
        {
          "name": "B3",
          "midi": 59,
          "time": 282.3999999999947,
          "velocity": 0.7086614173228346,
          "duration": 0.19166666666666288
        },
        {
          "name": "G3",
          "midi": 55,
          "time": 282.5999999999947,
          "velocity": 0.7086614173228346,
          "duration": 0.19166666666666288
        },
        {
          "name": "B3",
          "midi": 59,
          "time": 282.5999999999947,
          "velocity": 0.7086614173228346,
          "duration": 0.19166666666666288
        },
        {
          "name": "G4",
          "midi": 67,
          "time": 282.79999999999467,
          "velocity": 0.968503937007874,
          "duration": 0.19166666666666288
        },
        {
          "name": "E4",
          "midi": 64,
          "time": 282.79999999999467,
          "velocity": 0.968503937007874,
          "duration": 0.19166666666666288
        },
        {
          "name": "E4",
          "midi": 64,
          "time": 282.99999999999466,
          "velocity": 0.7086614173228346,
          "duration": 0.19166666666666288
        },
        {
          "name": "B3",
          "midi": 59,
          "time": 282.99999999999466,
          "velocity": 0.7086614173228346,
          "duration": 0.19166666666666288
        },
        {
          "name": "G3",
          "midi": 55,
          "time": 283.19999999999465,
          "velocity": 0.7086614173228346,
          "duration": 0.19166666666666288
        },
        {
          "name": "B3",
          "midi": 59,
          "time": 283.19999999999465,
          "velocity": 0.7086614173228346,
          "duration": 0.19166666666666288
        },
        {
          "name": "E4",
          "midi": 64,
          "time": 283.39999999999463,
          "velocity": 0.968503937007874,
          "duration": 0.19166666666666288
        },
        {
          "name": "G4",
          "midi": 67,
          "time": 283.39999999999463,
          "velocity": 0.968503937007874,
          "duration": 0.19166666666666288
        },
        {
          "name": "B3",
          "midi": 59,
          "time": 283.5999999999946,
          "velocity": 0.7086614173228346,
          "duration": 0.19166666666666288
        },
        {
          "name": "E4",
          "midi": 64,
          "time": 283.5999999999946,
          "velocity": 0.7086614173228346,
          "duration": 0.19166666666666288
        },
        {
          "name": "B3",
          "midi": 59,
          "time": 283.7999999999946,
          "velocity": 0.7086614173228346,
          "duration": 0.19166666666666288
        },
        {
          "name": "G3",
          "midi": 55,
          "time": 283.7999999999946,
          "velocity": 0.7086614173228346,
          "duration": 0.19166666666666288
        },
        {
          "name": "G4",
          "midi": 67,
          "time": 283.9999999999946,
          "velocity": 0.968503937007874,
          "duration": 0.19166666666666288
        },
        {
          "name": "E4",
          "midi": 64,
          "time": 283.9999999999946,
          "velocity": 0.968503937007874,
          "duration": 0.19166666666666288
        },
        {
          "name": "B3",
          "midi": 59,
          "time": 284.1999999999946,
          "velocity": 0.7086614173228346,
          "duration": 0.19166666666666288
        },
        {
          "name": "E4",
          "midi": 64,
          "time": 284.1999999999946,
          "velocity": 0.7086614173228346,
          "duration": 0.19166666666666288
        },
        {
          "name": "B3",
          "midi": 59,
          "time": 284.3999999999946,
          "velocity": 0.7086614173228346,
          "duration": 0.19166666666666288
        },
        {
          "name": "G3",
          "midi": 55,
          "time": 284.3999999999946,
          "velocity": 0.7086614173228346,
          "duration": 0.19166666666666288
        },
        {
          "name": "E3",
          "midi": 52,
          "time": 284.59999999999457,
          "velocity": 0.9763779527559056,
          "duration": 0.19166666666666288
        },
        {
          "name": "G3",
          "midi": 55,
          "time": 284.59999999999457,
          "velocity": 0.9763779527559056,
          "duration": 0.19166666666666288
        },
        {
          "name": "F#4",
          "midi": 66,
          "time": 284.79999999999455,
          "velocity": 0.7086614173228346,
          "duration": 0.19166666666666288
        },
        {
          "name": "A#4",
          "midi": 70,
          "time": 284.79999999999455,
          "velocity": 0.7086614173228346,
          "duration": 0.19166666666666288
        },
        {
          "name": "C#4",
          "midi": 61,
          "time": 284.99999999999454,
          "velocity": 0.7086614173228346,
          "duration": 0.19166666666666288
        },
        {
          "name": "F#4",
          "midi": 66,
          "time": 284.99999999999454,
          "velocity": 0.7086614173228346,
          "duration": 0.19166666666666288
        },
        {
          "name": "C#4",
          "midi": 61,
          "time": 285.19999999999453,
          "velocity": 0.9763779527559056,
          "duration": 0.19166666666666288
        },
        {
          "name": "A#3",
          "midi": 58,
          "time": 285.19999999999453,
          "velocity": 0.9763779527559056,
          "duration": 0.19166666666666288
        },
        {
          "name": "F#4",
          "midi": 66,
          "time": 285.3999999999945,
          "velocity": 0.7086614173228346,
          "duration": 0.19166666666666288
        },
        {
          "name": "A#4",
          "midi": 70,
          "time": 285.3999999999945,
          "velocity": 0.7086614173228346,
          "duration": 0.19166666666666288
        },
        {
          "name": "F#4",
          "midi": 66,
          "time": 285.5999999999945,
          "velocity": 0.7086614173228346,
          "duration": 0.19166666666666288
        },
        {
          "name": "C#4",
          "midi": 61,
          "time": 285.5999999999945,
          "velocity": 0.7086614173228346,
          "duration": 0.19166666666666288
        },
        {
          "name": "C#4",
          "midi": 61,
          "time": 285.7999999999945,
          "velocity": 0.968503937007874,
          "duration": 0.19166666666666288
        },
        {
          "name": "A#3",
          "midi": 58,
          "time": 285.7999999999945,
          "velocity": 0.968503937007874,
          "duration": 0.19166666666666288
        },
        {
          "name": "A#4",
          "midi": 70,
          "time": 285.9999999999945,
          "velocity": 0.7086614173228346,
          "duration": 0.19166666666666288
        },
        {
          "name": "F#4",
          "midi": 66,
          "time": 285.9999999999945,
          "velocity": 0.7086614173228346,
          "duration": 0.19166666666666288
        },
        {
          "name": "C#4",
          "midi": 61,
          "time": 286.1999999999945,
          "velocity": 0.7086614173228346,
          "duration": 0.19166666666666288
        },
        {
          "name": "F#4",
          "midi": 66,
          "time": 286.1999999999945,
          "velocity": 0.7086614173228346,
          "duration": 0.19166666666666288
        },
        {
          "name": "C#5",
          "midi": 73,
          "time": 286.39999999999446,
          "velocity": 0.9606299212598425,
          "duration": 1.5916666666661854
        },
        {
          "name": "A#4",
          "midi": 70,
          "time": 286.39999999999446,
          "velocity": 0.9606299212598425,
          "duration": 1.5916666666661854
        },
        {
          "name": "B4",
          "midi": 71,
          "time": 287.999999999994,
          "velocity": 1,
          "duration": 0.19166666666666288
        },
        {
          "name": "F#4",
          "midi": 66,
          "time": 287.999999999994,
          "velocity": 1,
          "duration": 0.19166666666666288
        },
        {
          "name": "D4",
          "midi": 62,
          "time": 288.19999999999396,
          "velocity": 0.7086614173228346,
          "duration": 0.19166666666666288
        },
        {
          "name": "F#4",
          "midi": 66,
          "time": 288.19999999999396,
          "velocity": 0.7086614173228346,
          "duration": 0.19166666666666288
        },
        {
          "name": "B3",
          "midi": 59,
          "time": 288.39999999999395,
          "velocity": 0.7086614173228346,
          "duration": 0.19166666666666288
        },
        {
          "name": "D4",
          "midi": 62,
          "time": 288.39999999999395,
          "velocity": 0.7086614173228346,
          "duration": 0.19166666666666288
        },
        {
          "name": "F#4",
          "midi": 66,
          "time": 288.59999999999394,
          "velocity": 1,
          "duration": 0.19166666666666288
        },
        {
          "name": "B4",
          "midi": 71,
          "time": 288.59999999999394,
          "velocity": 1,
          "duration": 0.19166666666666288
        },
        {
          "name": "D4",
          "midi": 62,
          "time": 288.79999999999393,
          "velocity": 0.7086614173228346,
          "duration": 0.19166666666666288
        },
        {
          "name": "F#4",
          "midi": 66,
          "time": 288.79999999999393,
          "velocity": 0.7086614173228346,
          "duration": 0.19166666666666288
        },
        {
          "name": "B3",
          "midi": 59,
          "time": 288.9999999999939,
          "velocity": 0.7086614173228346,
          "duration": 0.19166666666666288
        },
        {
          "name": "D4",
          "midi": 62,
          "time": 288.9999999999939,
          "velocity": 0.7086614173228346,
          "duration": 0.19166666666666288
        },
        {
          "name": "F#4",
          "midi": 66,
          "time": 289.1999999999939,
          "velocity": 1,
          "duration": 0.19166666666666288
        },
        {
          "name": "B4",
          "midi": 71,
          "time": 289.1999999999939,
          "velocity": 1,
          "duration": 0.19166666666666288
        },
        {
          "name": "D4",
          "midi": 62,
          "time": 289.3999999999939,
          "velocity": 0.7086614173228346,
          "duration": 0.19166666666666288
        },
        {
          "name": "F#4",
          "midi": 66,
          "time": 289.3999999999939,
          "velocity": 0.7086614173228346,
          "duration": 0.19166666666666288
        },
        {
          "name": "B3",
          "midi": 59,
          "time": 289.5999999999939,
          "velocity": 0.7086614173228346,
          "duration": 0.19166666666666288
        },
        {
          "name": "D4",
          "midi": 62,
          "time": 289.5999999999939,
          "velocity": 0.7086614173228346,
          "duration": 0.19166666666666288
        },
        {
          "name": "F#4",
          "midi": 66,
          "time": 289.7999999999939,
          "velocity": 1,
          "duration": 0.19166666666666288
        },
        {
          "name": "B4",
          "midi": 71,
          "time": 289.7999999999939,
          "velocity": 1,
          "duration": 0.19166666666666288
        },
        {
          "name": "D4",
          "midi": 62,
          "time": 289.99999999999386,
          "velocity": 0.7086614173228346,
          "duration": 0.19166666666666288
        },
        {
          "name": "F#4",
          "midi": 66,
          "time": 289.99999999999386,
          "velocity": 0.7086614173228346,
          "duration": 0.19166666666666288
        },
        {
          "name": "B3",
          "midi": 59,
          "time": 290.19999999999385,
          "velocity": 0.7086614173228346,
          "duration": 0.19166666666666288
        },
        {
          "name": "D4",
          "midi": 62,
          "time": 290.19999999999385,
          "velocity": 0.7086614173228346,
          "duration": 0.19166666666666288
        },
        {
          "name": "F#4",
          "midi": 66,
          "time": 290.39999999999384,
          "velocity": 1,
          "duration": 0.19166666666666288
        },
        {
          "name": "B4",
          "midi": 71,
          "time": 290.39999999999384,
          "velocity": 1,
          "duration": 0.19166666666666288
        },
        {
          "name": "D4",
          "midi": 62,
          "time": 290.5999999999938,
          "velocity": 0.7086614173228346,
          "duration": 0.19166666666666288
        },
        {
          "name": "F#4",
          "midi": 66,
          "time": 290.5999999999938,
          "velocity": 0.7086614173228346,
          "duration": 0.19166666666666288
        },
        {
          "name": "B3",
          "midi": 59,
          "time": 290.7999999999938,
          "velocity": 0.7086614173228346,
          "duration": 0.19166666666666288
        },
        {
          "name": "D4",
          "midi": 62,
          "time": 290.7999999999938,
          "velocity": 0.7086614173228346,
          "duration": 0.19166666666666288
        },
        {
          "name": "F#3",
          "midi": 54,
          "time": 290.9999999999938,
          "velocity": 1,
          "duration": 0.19166666666666288
        },
        {
          "name": "B3",
          "midi": 59,
          "time": 290.9999999999938,
          "velocity": 1,
          "duration": 0.19166666666666288
        },
        {
          "name": "A#4",
          "midi": 70,
          "time": 291.1999999999938,
          "velocity": 0.7086614173228346,
          "duration": 0.19166666666666288
        },
        {
          "name": "F#4",
          "midi": 66,
          "time": 291.1999999999938,
          "velocity": 0.7086614173228346,
          "duration": 0.19166666666666288
        },
        {
          "name": "F#4",
          "midi": 66,
          "time": 291.3999999999938,
          "velocity": 0.7086614173228346,
          "duration": 0.19166666666666288
        },
        {
          "name": "C#4",
          "midi": 61,
          "time": 291.3999999999938,
          "velocity": 0.7086614173228346,
          "duration": 0.19166666666666288
        },
        {
          "name": "C#4",
          "midi": 61,
          "time": 291.59999999999377,
          "velocity": 0.9763779527559056,
          "duration": 0.19166666666666288
        },
        {
          "name": "A#3",
          "midi": 58,
          "time": 291.59999999999377,
          "velocity": 0.9763779527559056,
          "duration": 0.19166666666666288
        },
        {
          "name": "A#4",
          "midi": 70,
          "time": 291.79999999999376,
          "velocity": 0.7086614173228346,
          "duration": 0.19166666666666288
        },
        {
          "name": "F#4",
          "midi": 66,
          "time": 291.79999999999376,
          "velocity": 0.7086614173228346,
          "duration": 0.19166666666666288
        },
        {
          "name": "F#4",
          "midi": 66,
          "time": 291.99999999999375,
          "velocity": 0.7086614173228346,
          "duration": 0.19166666666666288
        },
        {
          "name": "C#4",
          "midi": 61,
          "time": 291.99999999999375,
          "velocity": 0.7086614173228346,
          "duration": 0.19166666666666288
        },
        {
          "name": "C#4",
          "midi": 61,
          "time": 292.19999999999374,
          "velocity": 0.984251968503937,
          "duration": 0.19166666666666288
        },
        {
          "name": "A#3",
          "midi": 58,
          "time": 292.19999999999374,
          "velocity": 0.984251968503937,
          "duration": 0.19166666666666288
        },
        {
          "name": "A#4",
          "midi": 70,
          "time": 292.3999999999937,
          "velocity": 0.7086614173228346,
          "duration": 0.19166666666666288
        },
        {
          "name": "F#4",
          "midi": 66,
          "time": 292.3999999999937,
          "velocity": 0.7086614173228346,
          "duration": 0.19166666666666288
        },
        {
          "name": "F#4",
          "midi": 66,
          "time": 292.5999999999937,
          "velocity": 0.7086614173228346,
          "duration": 0.19166666666666288
        },
        {
          "name": "C#4",
          "midi": 61,
          "time": 292.5999999999937,
          "velocity": 0.7086614173228346,
          "duration": 0.19166666666666288
        },
        {
          "name": "C#5",
          "midi": 73,
          "time": 292.7999999999937,
          "velocity": 0.9763779527559056,
          "duration": 1.591666666665958
        },
        {
          "name": "A#4",
          "midi": 70,
          "time": 292.7999999999937,
          "velocity": 0.9763779527559056,
          "duration": 1.591666666665958
        },
        {
          "name": "A4",
          "midi": 69,
          "time": 294.399999999993,
          "velocity": 0.968503937007874,
          "duration": 0.19166666666666288
        },
        {
          "name": "E4",
          "midi": 64,
          "time": 294.399999999993,
          "velocity": 0.968503937007874,
          "duration": 0.19166666666666288
        },
        {
          "name": "E4",
          "midi": 64,
          "time": 294.599999999993,
          "velocity": 0.7086614173228346,
          "duration": 0.19166666666666288
        },
        {
          "name": "C#4",
          "midi": 61,
          "time": 294.599999999993,
          "velocity": 0.7086614173228346,
          "duration": 0.19166666666666288
        },
        {
          "name": "C#4",
          "midi": 61,
          "time": 294.79999999999296,
          "velocity": 0.7086614173228346,
          "duration": 0.19166666666666288
        },
        {
          "name": "A3",
          "midi": 57,
          "time": 294.79999999999296,
          "velocity": 0.7086614173228346,
          "duration": 0.19166666666666288
        },
        {
          "name": "A4",
          "midi": 69,
          "time": 294.99999999999295,
          "velocity": 0.9921259842519685,
          "duration": 0.19166666666666288
        },
        {
          "name": "E4",
          "midi": 64,
          "time": 294.99999999999295,
          "velocity": 0.9921259842519685,
          "duration": 0.19166666666666288
        },
        {
          "name": "E4",
          "midi": 64,
          "time": 295.19999999999294,
          "velocity": 0.7086614173228346,
          "duration": 0.19166666666666288
        },
        {
          "name": "C#4",
          "midi": 61,
          "time": 295.19999999999294,
          "velocity": 0.7086614173228346,
          "duration": 0.19166666666666288
        },
        {
          "name": "C#4",
          "midi": 61,
          "time": 295.39999999999293,
          "velocity": 0.7086614173228346,
          "duration": 0.19166666666666288
        },
        {
          "name": "A3",
          "midi": 57,
          "time": 295.39999999999293,
          "velocity": 0.7086614173228346,
          "duration": 0.19166666666666288
        },
        {
          "name": "A4",
          "midi": 69,
          "time": 295.5999999999929,
          "velocity": 0.9763779527559056,
          "duration": 0.19166666666666288
        },
        {
          "name": "E4",
          "midi": 64,
          "time": 295.5999999999929,
          "velocity": 0.9763779527559056,
          "duration": 0.19166666666666288
        },
        {
          "name": "E4",
          "midi": 64,
          "time": 295.7999999999929,
          "velocity": 0.7086614173228346,
          "duration": 0.19166666666666288
        },
        {
          "name": "C#4",
          "midi": 61,
          "time": 295.7999999999929,
          "velocity": 0.7086614173228346,
          "duration": 0.19166666666666288
        },
        {
          "name": "C#4",
          "midi": 61,
          "time": 295.9999999999929,
          "velocity": 0.7086614173228346,
          "duration": 0.19166666666666288
        },
        {
          "name": "A3",
          "midi": 57,
          "time": 295.9999999999929,
          "velocity": 0.7086614173228346,
          "duration": 0.19166666666666288
        },
        {
          "name": "A4",
          "midi": 69,
          "time": 296.1999999999929,
          "velocity": 0.968503937007874,
          "duration": 0.19166666666666288
        },
        {
          "name": "E4",
          "midi": 64,
          "time": 296.1999999999929,
          "velocity": 0.968503937007874,
          "duration": 0.19166666666666288
        },
        {
          "name": "E4",
          "midi": 64,
          "time": 296.3999999999929,
          "velocity": 0.7086614173228346,
          "duration": 0.19166666666666288
        },
        {
          "name": "C#4",
          "midi": 61,
          "time": 296.3999999999929,
          "velocity": 0.7086614173228346,
          "duration": 0.19166666666666288
        },
        {
          "name": "C#4",
          "midi": 61,
          "time": 296.59999999999286,
          "velocity": 0.7086614173228346,
          "duration": 0.19166666666666288
        },
        {
          "name": "A3",
          "midi": 57,
          "time": 296.59999999999286,
          "velocity": 0.7086614173228346,
          "duration": 0.19166666666666288
        },
        {
          "name": "A4",
          "midi": 69,
          "time": 296.79999999999285,
          "velocity": 0.9763779527559056,
          "duration": 0.19166666666666288
        },
        {
          "name": "E4",
          "midi": 64,
          "time": 296.79999999999285,
          "velocity": 0.9763779527559056,
          "duration": 0.19166666666666288
        },
        {
          "name": "E4",
          "midi": 64,
          "time": 296.99999999999284,
          "velocity": 0.7086614173228346,
          "duration": 0.19166666666666288
        },
        {
          "name": "C#4",
          "midi": 61,
          "time": 296.99999999999284,
          "velocity": 0.7086614173228346,
          "duration": 0.19166666666666288
        },
        {
          "name": "C#4",
          "midi": 61,
          "time": 297.1999999999928,
          "velocity": 0.7086614173228346,
          "duration": 0.19166666666666288
        },
        {
          "name": "A3",
          "midi": 57,
          "time": 297.1999999999928,
          "velocity": 0.7086614173228346,
          "duration": 0.19166666666666288
        },
        {
          "name": "A3",
          "midi": 57,
          "time": 297.3999999999928,
          "velocity": 0.968503937007874,
          "duration": 0.19166666666666288
        },
        {
          "name": "E3",
          "midi": 52,
          "time": 297.3999999999928,
          "velocity": 0.968503937007874,
          "duration": 0.19166666666666288
        },
        {
          "name": "G#4",
          "midi": 68,
          "time": 297.5999999999928,
          "velocity": 0.7086614173228346,
          "duration": 0.19166666666666288
        },
        {
          "name": "E4",
          "midi": 64,
          "time": 297.5999999999928,
          "velocity": 0.7086614173228346,
          "duration": 0.19166666666666288
        },
        {
          "name": "E4",
          "midi": 64,
          "time": 297.7999999999928,
          "velocity": 0.7086614173228346,
          "duration": 0.19166666666666288
        },
        {
          "name": "B3",
          "midi": 59,
          "time": 297.7999999999928,
          "velocity": 0.7086614173228346,
          "duration": 0.19166666666666288
        },
        {
          "name": "B3",
          "midi": 59,
          "time": 297.9999999999928,
          "velocity": 0.968503937007874,
          "duration": 0.19166666666666288
        },
        {
          "name": "G#3",
          "midi": 56,
          "time": 297.9999999999928,
          "velocity": 0.968503937007874,
          "duration": 0.19166666666666288
        },
        {
          "name": "G#4",
          "midi": 68,
          "time": 298.19999999999277,
          "velocity": 0.7086614173228346,
          "duration": 0.19166666666666288
        },
        {
          "name": "E4",
          "midi": 64,
          "time": 298.19999999999277,
          "velocity": 0.7086614173228346,
          "duration": 0.19166666666666288
        },
        {
          "name": "E4",
          "midi": 64,
          "time": 298.39999999999276,
          "velocity": 0.7086614173228346,
          "duration": 0.19166666666666288
        },
        {
          "name": "B3",
          "midi": 59,
          "time": 298.39999999999276,
          "velocity": 0.7086614173228346,
          "duration": 0.19166666666666288
        },
        {
          "name": "B3",
          "midi": 59,
          "time": 298.59999999999275,
          "velocity": 0.9606299212598425,
          "duration": 0.19166666666666288
        },
        {
          "name": "G#3",
          "midi": 56,
          "time": 298.59999999999275,
          "velocity": 0.9606299212598425,
          "duration": 0.19166666666666288
        },
        {
          "name": "G#4",
          "midi": 68,
          "time": 298.79999999999274,
          "velocity": 0.7086614173228346,
          "duration": 0.19166666666666288
        },
        {
          "name": "E4",
          "midi": 64,
          "time": 298.79999999999274,
          "velocity": 0.7086614173228346,
          "duration": 0.19166666666666288
        },
        {
          "name": "E4",
          "midi": 64,
          "time": 298.9999999999927,
          "velocity": 0.7086614173228346,
          "duration": 0.19166666666666288
        },
        {
          "name": "B3",
          "midi": 59,
          "time": 298.9999999999927,
          "velocity": 0.7086614173228346,
          "duration": 0.19166666666666288
        },
        {
          "name": "B4",
          "midi": 71,
          "time": 299.1999999999927,
          "velocity": 0.9763779527559056,
          "duration": 1.591666666665958
        },
        {
          "name": "G#4",
          "midi": 68,
          "time": 299.1999999999927,
          "velocity": 0.9763779527559056,
          "duration": 1.591666666665958
        },
        {
          "name": "G4",
          "midi": 67,
          "time": 300.799999999992,
          "velocity": 0.968503937007874,
          "duration": 0.19166666666666288
        },
        {
          "name": "D4",
          "midi": 62,
          "time": 300.799999999992,
          "velocity": 0.968503937007874,
          "duration": 0.19166666666666288
        },
        {
          "name": "D4",
          "midi": 62,
          "time": 300.999999999992,
          "velocity": 0.7086614173228346,
          "duration": 0.19166666666666288
        },
        {
          "name": "B3",
          "midi": 59,
          "time": 300.999999999992,
          "velocity": 0.7086614173228346,
          "duration": 0.19166666666666288
        },
        {
          "name": "B3",
          "midi": 59,
          "time": 301.199999999992,
          "velocity": 0.7086614173228346,
          "duration": 0.19166666666666288
        },
        {
          "name": "G3",
          "midi": 55,
          "time": 301.199999999992,
          "velocity": 0.7086614173228346,
          "duration": 0.19166666666666288
        },
        {
          "name": "G4",
          "midi": 67,
          "time": 301.39999999999196,
          "velocity": 0.9448818897637795,
          "duration": 0.19166666666666288
        },
        {
          "name": "D4",
          "midi": 62,
          "time": 301.39999999999196,
          "velocity": 0.9448818897637795,
          "duration": 0.19166666666666288
        },
        {
          "name": "D4",
          "midi": 62,
          "time": 301.59999999999195,
          "velocity": 0.7086614173228346,
          "duration": 0.19166666666666288
        },
        {
          "name": "B3",
          "midi": 59,
          "time": 301.59999999999195,
          "velocity": 0.7086614173228346,
          "duration": 0.19166666666666288
        },
        {
          "name": "B3",
          "midi": 59,
          "time": 301.79999999999194,
          "velocity": 0.7086614173228346,
          "duration": 0.19166666666666288
        },
        {
          "name": "G3",
          "midi": 55,
          "time": 301.79999999999194,
          "velocity": 0.7086614173228346,
          "duration": 0.19166666666666288
        },
        {
          "name": "G4",
          "midi": 67,
          "time": 301.9999999999919,
          "velocity": 0.9921259842519685,
          "duration": 0.19166666666666288
        },
        {
          "name": "D4",
          "midi": 62,
          "time": 301.9999999999919,
          "velocity": 0.9921259842519685,
          "duration": 0.19166666666666288
        },
        {
          "name": "D4",
          "midi": 62,
          "time": 302.1999999999919,
          "velocity": 0.7086614173228346,
          "duration": 0.19166666666666288
        },
        {
          "name": "B3",
          "midi": 59,
          "time": 302.1999999999919,
          "velocity": 0.7086614173228346,
          "duration": 0.19166666666666288
        },
        {
          "name": "B3",
          "midi": 59,
          "time": 302.3999999999919,
          "velocity": 0.7086614173228346,
          "duration": 0.19166666666666288
        },
        {
          "name": "G3",
          "midi": 55,
          "time": 302.3999999999919,
          "velocity": 0.7086614173228346,
          "duration": 0.19166666666666288
        },
        {
          "name": "G4",
          "midi": 67,
          "time": 302.5999999999919,
          "velocity": 0.984251968503937,
          "duration": 0.19166666666666288
        },
        {
          "name": "D4",
          "midi": 62,
          "time": 302.5999999999919,
          "velocity": 0.984251968503937,
          "duration": 0.19166666666666288
        },
        {
          "name": "D4",
          "midi": 62,
          "time": 302.7999999999919,
          "velocity": 0.7086614173228346,
          "duration": 0.19166666666666288
        },
        {
          "name": "B3",
          "midi": 59,
          "time": 302.7999999999919,
          "velocity": 0.7086614173228346,
          "duration": 0.19166666666666288
        },
        {
          "name": "B3",
          "midi": 59,
          "time": 302.99999999999187,
          "velocity": 0.7086614173228346,
          "duration": 0.19166666666666288
        },
        {
          "name": "G3",
          "midi": 55,
          "time": 302.99999999999187,
          "velocity": 0.7086614173228346,
          "duration": 0.19166666666666288
        },
        {
          "name": "G4",
          "midi": 67,
          "time": 303.19999999999186,
          "velocity": 0.9763779527559056,
          "duration": 0.19166666666666288
        },
        {
          "name": "D4",
          "midi": 62,
          "time": 303.19999999999186,
          "velocity": 0.9763779527559056,
          "duration": 0.19166666666666288
        },
        {
          "name": "D4",
          "midi": 62,
          "time": 303.39999999999185,
          "velocity": 0.7086614173228346,
          "duration": 0.19166666666666288
        },
        {
          "name": "B3",
          "midi": 59,
          "time": 303.39999999999185,
          "velocity": 0.7086614173228346,
          "duration": 0.19166666666666288
        },
        {
          "name": "B3",
          "midi": 59,
          "time": 303.59999999999184,
          "velocity": 0.7086614173228346,
          "duration": 0.19166666666666288
        },
        {
          "name": "G3",
          "midi": 55,
          "time": 303.59999999999184,
          "velocity": 0.7086614173228346,
          "duration": 0.19166666666666288
        },
        {
          "name": "G3",
          "midi": 55,
          "time": 303.7999999999918,
          "velocity": 0.984251968503937,
          "duration": 0.19166666666666288
        },
        {
          "name": "D3",
          "midi": 50,
          "time": 303.7999999999918,
          "velocity": 0.984251968503937,
          "duration": 0.19166666666666288
        },
        {
          "name": "F#4",
          "midi": 66,
          "time": 303.9999999999918,
          "velocity": 0.7086614173228346,
          "duration": 0.19166666666666288
        },
        {
          "name": "D4",
          "midi": 62,
          "time": 303.9999999999918,
          "velocity": 0.7086614173228346,
          "duration": 0.19166666666666288
        },
        {
          "name": "D4",
          "midi": 62,
          "time": 304.1999999999918,
          "velocity": 0.7086614173228346,
          "duration": 0.19166666666666288
        },
        {
          "name": "A3",
          "midi": 57,
          "time": 304.1999999999918,
          "velocity": 0.7086614173228346,
          "duration": 0.19166666666666288
        },
        {
          "name": "A3",
          "midi": 57,
          "time": 304.3999999999918,
          "velocity": 0.952755905511811,
          "duration": 0.19166666666671972
        },
        {
          "name": "F#3",
          "midi": 54,
          "time": 304.3999999999918,
          "velocity": 0.952755905511811,
          "duration": 0.19166666666671972
        },
        {
          "name": "F#4",
          "midi": 66,
          "time": 304.59999999999184,
          "velocity": 0.7086614173228346,
          "duration": 0.19166666666671972
        },
        {
          "name": "D4",
          "midi": 62,
          "time": 304.59999999999184,
          "velocity": 0.7086614173228346,
          "duration": 0.19166666666671972
        },
        {
          "name": "D4",
          "midi": 62,
          "time": 304.7999999999919,
          "velocity": 0.7086614173228346,
          "duration": 0.19166666666666288
        },
        {
          "name": "A3",
          "midi": 57,
          "time": 304.7999999999919,
          "velocity": 0.7086614173228346,
          "duration": 0.19166666666666288
        },
        {
          "name": "A3",
          "midi": 57,
          "time": 304.99999999999187,
          "velocity": 0.9606299212598425,
          "duration": 0.19166666666666288
        },
        {
          "name": "F#3",
          "midi": 54,
          "time": 304.99999999999187,
          "velocity": 0.9606299212598425,
          "duration": 0.19166666666666288
        },
        {
          "name": "F#4",
          "midi": 66,
          "time": 305.19999999999186,
          "velocity": 0.7086614173228346,
          "duration": 0.19166666666666288
        },
        {
          "name": "D4",
          "midi": 62,
          "time": 305.19999999999186,
          "velocity": 0.7086614173228346,
          "duration": 0.19166666666666288
        },
        {
          "name": "D4",
          "midi": 62,
          "time": 305.39999999999185,
          "velocity": 0.7086614173228346,
          "duration": 0.19166666666666288
        },
        {
          "name": "A3",
          "midi": 57,
          "time": 305.39999999999185,
          "velocity": 0.7086614173228346,
          "duration": 0.19166666666666288
        },
        {
          "name": "A4",
          "midi": 69,
          "time": 305.59999999999184,
          "velocity": 0.9606299212598425,
          "duration": 1.591666666666299
        },
        {
          "name": "F#4",
          "midi": 66,
          "time": 305.59999999999184,
          "velocity": 0.9606299212598425,
          "duration": 1.591666666666299
        },
        {
          "name": "G4",
          "midi": 67,
          "time": 307.19999999999146,
          "velocity": 0.9606299212598425,
          "duration": 0.19166666666666288
        },
        {
          "name": "E4",
          "midi": 64,
          "time": 307.19999999999146,
          "velocity": 0.9606299212598425,
          "duration": 0.19166666666666288
        },
        {
          "name": "E4",
          "midi": 64,
          "time": 307.39999999999145,
          "velocity": 0.7086614173228346,
          "duration": 0.19166666666666288
        },
        {
          "name": "B3",
          "midi": 59,
          "time": 307.39999999999145,
          "velocity": 0.7086614173228346,
          "duration": 0.19166666666666288
        },
        {
          "name": "B3",
          "midi": 59,
          "time": 307.59999999999144,
          "velocity": 0.7086614173228346,
          "duration": 0.19166666666666288
        },
        {
          "name": "G3",
          "midi": 55,
          "time": 307.59999999999144,
          "velocity": 0.7086614173228346,
          "duration": 0.19166666666666288
        },
        {
          "name": "G4",
          "midi": 67,
          "time": 307.7999999999914,
          "velocity": 0.968503937007874,
          "duration": 0.19166666666666288
        },
        {
          "name": "E4",
          "midi": 64,
          "time": 307.7999999999914,
          "velocity": 0.968503937007874,
          "duration": 0.19166666666666288
        },
        {
          "name": "E4",
          "midi": 64,
          "time": 307.9999999999914,
          "velocity": 0.7086614173228346,
          "duration": 0.19166666666666288
        },
        {
          "name": "B3",
          "midi": 59,
          "time": 307.9999999999914,
          "velocity": 0.7086614173228346,
          "duration": 0.19166666666666288
        },
        {
          "name": "B3",
          "midi": 59,
          "time": 308.1999999999914,
          "velocity": 0.7086614173228346,
          "duration": 0.19166666666666288
        },
        {
          "name": "G3",
          "midi": 55,
          "time": 308.1999999999914,
          "velocity": 0.7086614173228346,
          "duration": 0.19166666666666288
        },
        {
          "name": "G4",
          "midi": 67,
          "time": 308.3999999999914,
          "velocity": 0.968503937007874,
          "duration": 0.19166666666666288
        },
        {
          "name": "E4",
          "midi": 64,
          "time": 308.3999999999914,
          "velocity": 0.968503937007874,
          "duration": 0.19166666666666288
        },
        {
          "name": "E4",
          "midi": 64,
          "time": 308.5999999999914,
          "velocity": 0.7086614173228346,
          "duration": 0.19166666666666288
        },
        {
          "name": "B3",
          "midi": 59,
          "time": 308.5999999999914,
          "velocity": 0.7086614173228346,
          "duration": 0.19166666666666288
        },
        {
          "name": "B3",
          "midi": 59,
          "time": 308.79999999999137,
          "velocity": 0.7086614173228346,
          "duration": 0.19166666666666288
        },
        {
          "name": "G3",
          "midi": 55,
          "time": 308.79999999999137,
          "velocity": 0.7086614173228346,
          "duration": 0.19166666666666288
        },
        {
          "name": "G4",
          "midi": 67,
          "time": 308.99999999999136,
          "velocity": 0.968503937007874,
          "duration": 0.19166666666666288
        },
        {
          "name": "E4",
          "midi": 64,
          "time": 308.99999999999136,
          "velocity": 0.968503937007874,
          "duration": 0.19166666666666288
        },
        {
          "name": "E4",
          "midi": 64,
          "time": 309.19999999999135,
          "velocity": 0.7086614173228346,
          "duration": 0.19166666666666288
        },
        {
          "name": "B3",
          "midi": 59,
          "time": 309.19999999999135,
          "velocity": 0.7086614173228346,
          "duration": 0.19166666666666288
        },
        {
          "name": "B3",
          "midi": 59,
          "time": 309.39999999999134,
          "velocity": 0.7086614173228346,
          "duration": 0.19166666666666288
        },
        {
          "name": "G3",
          "midi": 55,
          "time": 309.39999999999134,
          "velocity": 0.7086614173228346,
          "duration": 0.19166666666666288
        },
        {
          "name": "G4",
          "midi": 67,
          "time": 309.5999999999913,
          "velocity": 0.968503937007874,
          "duration": 0.19166666666666288
        },
        {
          "name": "E4",
          "midi": 64,
          "time": 309.5999999999913,
          "velocity": 0.968503937007874,
          "duration": 0.19166666666666288
        },
        {
          "name": "E4",
          "midi": 64,
          "time": 309.7999999999913,
          "velocity": 0.7086614173228346,
          "duration": 0.19166666666666288
        },
        {
          "name": "B3",
          "midi": 59,
          "time": 309.7999999999913,
          "velocity": 0.7086614173228346,
          "duration": 0.19166666666666288
        },
        {
          "name": "B3",
          "midi": 59,
          "time": 309.9999999999913,
          "velocity": 0.7086614173228346,
          "duration": 0.19166666666666288
        },
        {
          "name": "G3",
          "midi": 55,
          "time": 309.9999999999913,
          "velocity": 0.7086614173228346,
          "duration": 0.19166666666666288
        },
        {
          "name": "G3",
          "midi": 55,
          "time": 310.1999999999913,
          "velocity": 0.9763779527559056,
          "duration": 0.19166666666666288
        },
        {
          "name": "E3",
          "midi": 52,
          "time": 310.1999999999913,
          "velocity": 0.9763779527559056,
          "duration": 0.19166666666666288
        },
        {
          "name": "A#4",
          "midi": 70,
          "time": 310.3999999999913,
          "velocity": 0.7086614173228346,
          "duration": 0.19166666666666288
        },
        {
          "name": "F#4",
          "midi": 66,
          "time": 310.3999999999913,
          "velocity": 0.7086614173228346,
          "duration": 0.19166666666666288
        },
        {
          "name": "F#4",
          "midi": 66,
          "time": 310.59999999999127,
          "velocity": 0.7086614173228346,
          "duration": 0.19166666666666288
        },
        {
          "name": "C#4",
          "midi": 61,
          "time": 310.59999999999127,
          "velocity": 0.7086614173228346,
          "duration": 0.19166666666666288
        },
        {
          "name": "C#4",
          "midi": 61,
          "time": 310.79999999999126,
          "velocity": 0.9763779527559056,
          "duration": 0.19166666666666288
        },
        {
          "name": "A#3",
          "midi": 58,
          "time": 310.79999999999126,
          "velocity": 0.9763779527559056,
          "duration": 0.19166666666666288
        },
        {
          "name": "A#4",
          "midi": 70,
          "time": 310.99999999999125,
          "velocity": 0.7086614173228346,
          "duration": 0.19166666666666288
        },
        {
          "name": "F#4",
          "midi": 66,
          "time": 310.99999999999125,
          "velocity": 0.7086614173228346,
          "duration": 0.19166666666666288
        },
        {
          "name": "F#4",
          "midi": 66,
          "time": 311.19999999999123,
          "velocity": 0.7086614173228346,
          "duration": 0.19166666666666288
        },
        {
          "name": "C#4",
          "midi": 61,
          "time": 311.19999999999123,
          "velocity": 0.7086614173228346,
          "duration": 0.19166666666666288
        },
        {
          "name": "C#4",
          "midi": 61,
          "time": 311.3999999999912,
          "velocity": 0.968503937007874,
          "duration": 0.19166666666666288
        },
        {
          "name": "A#3",
          "midi": 58,
          "time": 311.3999999999912,
          "velocity": 0.968503937007874,
          "duration": 0.19166666666666288
        },
        {
          "name": "A#4",
          "midi": 70,
          "time": 311.5999999999912,
          "velocity": 0.7086614173228346,
          "duration": 0.19166666666666288
        },
        {
          "name": "F#4",
          "midi": 66,
          "time": 311.5999999999912,
          "velocity": 0.7086614173228346,
          "duration": 0.19166666666666288
        },
        {
          "name": "F#4",
          "midi": 66,
          "time": 311.7999999999912,
          "velocity": 0.7086614173228346,
          "duration": 0.19166666666666288
        },
        {
          "name": "C#4",
          "midi": 61,
          "time": 311.7999999999912,
          "velocity": 0.7086614173228346,
          "duration": 0.19166666666666288
        },
        {
          "name": "C#5",
          "midi": 73,
          "time": 311.9999999999912,
          "velocity": 0.9606299212598425,
          "duration": 1.5916666666661854
        },
        {
          "name": "A#4",
          "midi": 70,
          "time": 311.9999999999912,
          "velocity": 0.9606299212598425,
          "duration": 1.5916666666661854
        }
      ],
      "controlChanges": {
        "7": [
          {
            "number": 7,
            "time": 3.2,
            "value": 1
          },
          {
            "number": 7,
            "time": 271.63749999999624,
            "value": 1
          },
          {
            "number": 7,
            "time": 294.73749999999296,
            "value": 0.9921259842519685
          },
          {
            "number": 7,
            "time": 294.8708333333263,
            "value": 0.984251968503937
          },
          {
            "number": 7,
            "time": 294.96666666665965,
            "value": 0.9763779527559056
          },
          {
            "number": 7,
            "time": 295.0708333333263,
            "value": 0.952755905511811
          },
          {
            "number": 7,
            "time": 295.2041666666596,
            "value": 0.9448818897637795
          },
          {
            "number": 7,
            "time": 295.5374999999929,
            "value": 0.9291338582677166
          },
          {
            "number": 7,
            "time": 295.9374999999929,
            "value": 0.9133858267716536
          },
          {
            "number": 7,
            "time": 296.1249999999929,
            "value": 0.7637795275590551
          },
          {
            "number": 7,
            "time": 296.5708333333262,
            "value": 0.7322834645669292
          },
          {
            "number": 7,
            "time": 296.70416666665955,
            "value": 0.6771653543307087
          },
          {
            "number": 7,
            "time": 296.90416666665953,
            "value": 0.6614173228346457
          },
          {
            "number": 7,
            "time": 297.3041666666595,
            "value": 0.6299212598425197
          },
          {
            "number": 7,
            "time": 297.44583333332616,
            "value": 0.5905511811023622
          },
          {
            "number": 7,
            "time": 297.60416666665947,
            "value": 0.5433070866141733
          },
          {
            "number": 7,
            "time": 297.7249999999928,
            "value": 0.5354330708661418
          },
          {
            "number": 7,
            "time": 297.8708333333261,
            "value": 0.5275590551181102
          },
          {
            "number": 7,
            "time": 298.00416666665944,
            "value": 0.47244094488188976
          },
          {
            "number": 7,
            "time": 298.53749999999275,
            "value": 0.4409448818897638
          },
          {
            "number": 7,
            "time": 298.6708333333261,
            "value": 0.4330708661417323
          },
          {
            "number": 7,
            "time": 299.6499999999923,
            "value": 0.4251968503937008
          },
          {
            "number": 7,
            "time": 299.75833333332554,
            "value": 0.3937007874015748
          },
          {
            "number": 7,
            "time": 300.4041666666587,
            "value": 0.3858267716535433
          },
          {
            "number": 7,
            "time": 300.737499999992,
            "value": 0.3700787401574803
          },
          {
            "number": 7,
            "time": 300.837499999992,
            "value": 0.3543307086614173
          },
          {
            "number": 7,
            "time": 301.11666666665866,
            "value": 0.33858267716535434
          },
          {
            "number": 7,
            "time": 301.2708333333253,
            "value": 0.30708661417322836
          },
          {
            "number": 7,
            "time": 302.0041666666586,
            "value": 0.2992125984251969
          },
          {
            "number": 7,
            "time": 302.27083333332524,
            "value": 0.29133858267716534
          },
          {
            "number": 7,
            "time": 302.6708333333252,
            "value": 0.25196850393700787
          },
          {
            "number": 7,
            "time": 302.80416666665855,
            "value": 0.2204724409448819
          },
          {
            "number": 7,
            "time": 304.55833333332515,
            "value": 0.2125984251968504
          },
          {
            "number": 7,
            "time": 304.63749999999186,
            "value": 0.2047244094488189
          },
          {
            "number": 7,
            "time": 304.7374999999919,
            "value": 0.14960629921259844
          },
          {
            "number": 7,
            "time": 304.8708333333252,
            "value": 0.13385826771653545
          },
          {
            "number": 7,
            "time": 305.39999999999185,
            "value": 0.11811023622047244
          },
          {
            "number": 7,
            "time": 305.6916666666585,
            "value": 0.11023622047244094
          },
          {
            "number": 7,
            "time": 306.2916666666582,
            "value": 0.10236220472440945
          },
          {
            "number": 7,
            "time": 306.53749999999144,
            "value": 0.09448818897637795
          },
          {
            "number": 7,
            "time": 306.98333333332477,
            "value": 0.08661417322834646
          },
          {
            "number": 7,
            "time": 307.03749999999144,
            "value": 0.07874015748031496
          },
          {
            "number": 7,
            "time": 307.13749999999146,
            "value": 0.07086614173228346
          },
          {
            "number": 7,
            "time": 307.2374999999915,
            "value": 0.06299212598425197
          },
          {
            "number": 7,
            "time": 307.4374999999915,
            "value": 0.047244094488188976
          },
          {
            "number": 7,
            "time": 307.59999999999144,
            "value": 0
          }
        ],
        "10": [
          {
            "number": 10,
            "time": 271.63749999999624,
            "value": 0.5039370078740157
          }
        ]
      },
      "id": 11,
      "name": "CHARANG",
      "instrumentNumber": 84,
      "instrumentFamily": "drums",
      "channelNumber": 10,
      "isPercussion": true
    },
    {
      "startTime": 0,
      "duration": 0,
      "length": 0,
      "notes": [],
      "controlChanges": {},
      "id": 12,
      "name": "GS/RESET"
    }
  ]
}