{
  "header": {
    "PPQ": 120,
    "timeSignature": [
      4,
      4
    ],
    "bpm": 117.99990166674861,
    "name": ""
  },
  "tempo": [
    {
      "absoluteTime": 0,
      "seconds": 0,
      "bpm": 117.99990166674861
    }
  ],
  "timeSignature": [
    {
      "absoluteTime": 0,
      "seconds": 0,
      "numerator": 4,
      "denominator": 2,
      "click": 24,
      "notesQ": 8
    }
  ],
  "startTime": 0,
  "duration": 325.41976270833254,
  "tracks": [
    {
      "startTime": 0,
      "duration": 0,
      "length": 0,
      "notes": [],
      "controlChanges": {},
      "id": 0
    },
    {
      "startTime": 86.16956333333334,
      "duration": 325.34349145833335,
      "length": 226,
      "notes": [
        {
          "name": "F#4",
          "midi": 66,
          "time": 86.16956333333334,
          "velocity": 1,
          "duration": 0.10169500000000653
        },
        {
          "name": "F#4",
          "midi": 66,
          "time": 86.45346187500002,
          "velocity": 1,
          "duration": 0.37711895833332676
        },
        {
          "name": "G#4",
          "midi": 68,
          "time": 86.83058083333334,
          "velocity": 1,
          "duration": 0.38135624999999607
        },
        {
          "name": "A4",
          "midi": 69,
          "time": 87.22041166666668,
          "velocity": 1,
          "duration": 0.2330510416666698
        },
        {
          "name": "F#4",
          "midi": 66,
          "time": 87.46617458333334,
          "velocity": 1,
          "duration": 0.3940681249999898
        },
        {
          "name": "F#4",
          "midi": 66,
          "time": 87.94075124999999,
          "velocity": 1,
          "duration": 0.7627125000000063
        },
        {
          "name": "F#4",
          "midi": 66,
          "time": 90.26278708333334,
          "velocity": 1,
          "duration": 0.0847458333333293
        },
        {
          "name": "F#4",
          "midi": 66,
          "time": 90.52973645833333,
          "velocity": 1,
          "duration": 0.4152545833333363
        },
        {
          "name": "G#4",
          "midi": 68,
          "time": 90.928041875,
          "velocity": 1,
          "duration": 0.37288166666665745
        },
        {
          "name": "G4",
          "midi": 67,
          "time": 91.31363541666666,
          "velocity": 1,
          "duration": 0.8050854166666568
        },
        {
          "name": "F#4",
          "midi": 66,
          "time": 92.07634791666665,
          "velocity": 1,
          "duration": 1.1949162499999915
        },
        {
          "name": "F#4",
          "midi": 66,
          "time": 94.3178752083333,
          "velocity": 1,
          "duration": 0.08898312499999861
        },
        {
          "name": "F#4",
          "midi": 66,
          "time": 94.6102483333333,
          "velocity": 1,
          "duration": 0.28813583333332815
        },
        {
          "name": "G#4",
          "midi": 68,
          "time": 94.93651979166663,
          "velocity": 1,
          "duration": 0.3855935416666654
        },
        {
          "name": "A4",
          "midi": 69,
          "time": 95.29668958333329,
          "velocity": 1,
          "duration": 0.27118666666666513
        },
        {
          "name": "G#4",
          "midi": 68,
          "time": 95.54668979166662,
          "velocity": 1,
          "duration": 0.50847499999999
        },
        {
          "name": "E4",
          "midi": 64,
          "time": 96.07635124999995,
          "velocity": 1,
          "duration": 0.5550852083333098
        },
        {
          "name": "C#4",
          "midi": 61,
          "time": 96.59330083333326,
          "velocity": 1,
          "duration": 0.9745770833333296
        },
        {
          "name": "A4",
          "midi": 69,
          "time": 98.42804812499992,
          "velocity": 1,
          "duration": 0.13559333333333257
        },
        {
          "name": "G#4",
          "midi": 68,
          "time": 98.69923479166658,
          "velocity": 1,
          "duration": 0.3389833333333314
        },
        {
          "name": "F#4",
          "midi": 66,
          "time": 99.05940458333325,
          "velocity": 1,
          "duration": 0.34745791666667003
        },
        {
          "name": "E4",
          "midi": 64,
          "time": 99.44499812499991,
          "velocity": 1,
          "duration": 0.538136041666661
        },
        {
          "name": "E4",
          "midi": 64,
          "time": 100.03821895833325,
          "velocity": 1,
          "duration": 1.4279672916666613
        },
        {
          "name": "F#4",
          "midi": 66,
          "time": 102.42381416666657,
          "velocity": 1,
          "duration": 0.11016958333333093
        },
        {
          "name": "F#4",
          "midi": 66,
          "time": 102.72889916666657,
          "velocity": 1,
          "duration": 0.3093222916666605
        },
        {
          "name": "G#4",
          "midi": 68,
          "time": 103.05093333333322,
          "velocity": 1,
          "duration": 0.4152545833333221
        },
        {
          "name": "A4",
          "midi": 69,
          "time": 103.45347604166655,
          "velocity": 1,
          "duration": 0.3135595833333156
        },
        {
          "name": "G#4",
          "midi": 68,
          "time": 103.75432374999987,
          "velocity": 1,
          "duration": 0.36864437500000236
        },
        {
          "name": "F#4",
          "midi": 66,
          "time": 104.0933070833332,
          "velocity": 1,
          "duration": 0.37288166666667166
        },
        {
          "name": "E4",
          "midi": 64,
          "time": 104.47890062499987,
          "velocity": 1,
          "duration": 0.19491541666666024
        },
        {
          "name": "E4",
          "midi": 64,
          "time": 104.76279916666653,
          "velocity": 1,
          "duration": 0.9279668749999956
        },
        {
          "name": "A4",
          "midi": 69,
          "time": 106.55517354166652,
          "velocity": 1,
          "duration": 0.19067812500000514
        },
        {
          "name": "A4",
          "midi": 69,
          "time": 106.83907208333319,
          "velocity": 1,
          "duration": 0.3898308333333347
        },
        {
          "name": "B4",
          "midi": 71,
          "time": 107.19076729166653,
          "velocity": 1,
          "duration": 0.3262714583333235
        },
        {
          "name": "C#5",
          "midi": 73,
          "time": 107.52975062499985,
          "velocity": 1,
          "duration": 0.29661041666666677
        },
        {
          "name": "B4",
          "midi": 71,
          "time": 107.79669999999984,
          "velocity": 1,
          "duration": 0.394068125000004
        },
        {
          "name": "A4",
          "midi": 69,
          "time": 108.21619187499985,
          "velocity": 1,
          "duration": 0.1652543750000035
        },
        {
          "name": "F#4",
          "midi": 66,
          "time": 108.36025979166652,
          "velocity": 1,
          "duration": 0.43220374999999933
        },
        {
          "name": "F#4",
          "midi": 66,
          "time": 110.57636333333319,
          "velocity": 1,
          "duration": 0.10593229166666163
        },
        {
          "name": "F#4",
          "midi": 66,
          "time": 110.83907541666652,
          "velocity": 1,
          "duration": 0.36016979166666374
        },
        {
          "name": "G#4",
          "midi": 68,
          "time": 111.19924520833318,
          "velocity": 1,
          "duration": 0.4025427083333426
        },
        {
          "name": "A4",
          "midi": 69,
          "time": 111.57212687499985,
          "velocity": 1,
          "duration": 0.34322062500001493
        },
        {
          "name": "G#4",
          "midi": 68,
          "time": 111.88144916666653,
          "velocity": 1,
          "duration": 0.3855935416666796
        },
        {
          "name": "F#4",
          "midi": 66,
          "time": 112.23738166666654,
          "velocity": 1,
          "duration": 0.3898308333333347
        },
        {
          "name": "E4",
          "midi": 64,
          "time": 112.66534812499987,
          "velocity": 1,
          "duration": 0.1610170833333342
        },
        {
          "name": "E4",
          "midi": 64,
          "time": 112.9280602083332,
          "velocity": 1,
          "duration": 0.5169495833333286
        },
        {
          "name": "F#4",
          "midi": 66,
          "time": 113.40687416666654,
          "velocity": 1,
          "duration": 0.27966124999998954
        },
        {
          "name": "G#4",
          "midi": 68,
          "time": 113.67382354166654,
          "velocity": 1,
          "duration": 2.6440699999999993
        },
        {
          "name": "F#4",
          "midi": 66,
          "time": 116.44077499999987,
          "velocity": 1,
          "duration": 0.11440687500000024
        },
        {
          "name": "F#4",
          "midi": 66,
          "time": 116.69501249999988,
          "velocity": 1,
          "duration": 0.18644083333333583
        },
        {
          "name": "A4",
          "midi": 69,
          "time": 116.94924999999988,
          "velocity": 1,
          "duration": 0.5000004166666656
        },
        {
          "name": "G#4",
          "midi": 68,
          "time": 117.45772499999988,
          "velocity": 1,
          "duration": 0.4025427083333284
        },
        {
          "name": "G#4",
          "midi": 68,
          "time": 118.0128102083332,
          "velocity": 1,
          "duration": 0.474576666666664
        },
        {
          "name": "F#4",
          "midi": 66,
          "time": 118.5085733333332,
          "velocity": 1,
          "duration": 1.5550860416666694
        },
        {
          "name": "G#4",
          "midi": 68,
          "time": 124.8263752083332,
          "velocity": 1,
          "duration": 0.10169500000000653
        },
        {
          "name": "G#4",
          "midi": 68,
          "time": 125.04671437499988,
          "velocity": 1,
          "duration": 0.4957631249999963
        },
        {
          "name": "A4",
          "midi": 69,
          "time": 125.57213854166655,
          "velocity": 1,
          "duration": 0.4957631249999963
        },
        {
          "name": "G#4",
          "midi": 68,
          "time": 126.04671520833321,
          "velocity": 1,
          "duration": 0.5508479166666689
        },
        {
          "name": "F#4",
          "midi": 66,
          "time": 126.60603770833322,
          "velocity": 1,
          "duration": 1.563560625000008
        },
        {
          "name": "F#4",
          "midi": 66,
          "time": 134.98316333333324,
          "velocity": 1,
          "duration": 0.10169500000000653
        },
        {
          "name": "F#4",
          "midi": 66,
          "time": 135.2670618749999,
          "velocity": 1,
          "duration": 0.37711895833334097
        },
        {
          "name": "G#4",
          "midi": 68,
          "time": 135.64418083333325,
          "velocity": 1,
          "duration": 0.3813562500000103
        },
        {
          "name": "A4",
          "midi": 69,
          "time": 136.0340116666666,
          "velocity": 1,
          "duration": 0.2330510416666698
        },
        {
          "name": "F#4",
          "midi": 66,
          "time": 136.27977458333328,
          "velocity": 1,
          "duration": 0.3940681250001319
        },
        {
          "name": "F#4",
          "midi": 66,
          "time": 136.7543512500001,
          "velocity": 1,
          "duration": 0.7627124999999921
        },
        {
          "name": "F#4",
          "midi": 66,
          "time": 139.07638708333343,
          "velocity": 1,
          "duration": 0.0847458333333293
        },
        {
          "name": "F#4",
          "midi": 66,
          "time": 139.34333645833343,
          "velocity": 1,
          "duration": 0.4152545833333363
        },
        {
          "name": "G#4",
          "midi": 68,
          "time": 139.74164187500008,
          "velocity": 1,
          "duration": 0.37288166666667166
        },
        {
          "name": "G4",
          "midi": 67,
          "time": 140.12723541666676,
          "velocity": 1,
          "duration": 0.8050854166666568
        },
        {
          "name": "F#4",
          "midi": 66,
          "time": 140.88994791666676,
          "velocity": 1,
          "duration": 1.1949162500000057
        },
        {
          "name": "F#4",
          "midi": 66,
          "time": 143.13147520833343,
          "velocity": 1,
          "duration": 0.08898312499999861
        },
        {
          "name": "F#4",
          "midi": 66,
          "time": 143.42384833333344,
          "velocity": 1,
          "duration": 0.28813583333334236
        },
        {
          "name": "G#4",
          "midi": 68,
          "time": 143.75011979166678,
          "velocity": 1,
          "duration": 0.38559354166665116
        },
        {
          "name": "A4",
          "midi": 69,
          "time": 144.11028958333344,
          "velocity": 1,
          "duration": 0.27118666666666513
        },
        {
          "name": "G#4",
          "midi": 68,
          "time": 144.36028979166676,
          "velocity": 1,
          "duration": 0.5084750000000327
        },
        {
          "name": "E4",
          "midi": 64,
          "time": 144.88995125000014,
          "velocity": 1,
          "duration": 0.5550852083334519
        },
        {
          "name": "C#4",
          "midi": 61,
          "time": 145.4069008333336,
          "velocity": 1,
          "duration": 0.9745770833333154
        },
        {
          "name": "A4",
          "midi": 69,
          "time": 147.24164812500024,
          "velocity": 1,
          "duration": 0.13559333333333257
        },
        {
          "name": "G#4",
          "midi": 68,
          "time": 147.5128347916669,
          "velocity": 1,
          "duration": 0.3389833333333456
        },
        {
          "name": "F#4",
          "midi": 66,
          "time": 147.8730045833336,
          "velocity": 1,
          "duration": 0.3474579166666558
        },
        {
          "name": "E4",
          "midi": 64,
          "time": 148.25859812500025,
          "velocity": 1,
          "duration": 0.538136041666661
        },
        {
          "name": "E4",
          "midi": 64,
          "time": 148.85181895833358,
          "velocity": 1,
          "duration": 1.4279672916666755
        },
        {
          "name": "F#4",
          "midi": 66,
          "time": 151.23741416666692,
          "velocity": 1,
          "duration": 0.11016958333334514
        },
        {
          "name": "F#4",
          "midi": 66,
          "time": 151.54249916666694,
          "velocity": 1,
          "duration": 0.3093222916666605
        },
        {
          "name": "G#4",
          "midi": 68,
          "time": 151.8645333333336,
          "velocity": 1,
          "duration": 0.4152545833333363
        },
        {
          "name": "A4",
          "midi": 69,
          "time": 152.26707604166694,
          "velocity": 1,
          "duration": 0.3135595833333582
        },
        {
          "name": "G#4",
          "midi": 68,
          "time": 152.5679237500003,
          "velocity": 1,
          "duration": 0.36864437500000236
        },
        {
          "name": "F#4",
          "midi": 66,
          "time": 152.90690708333364,
          "velocity": 1,
          "duration": 0.37288166666664324
        },
        {
          "name": "E4",
          "midi": 64,
          "time": 153.2925006250003,
          "velocity": 1,
          "duration": 0.19491541666667445
        },
        {
          "name": "E4",
          "midi": 64,
          "time": 153.57639916666696,
          "velocity": 1,
          "duration": 0.9279668750000098
        },
        {
          "name": "A4",
          "midi": 69,
          "time": 155.36877354166697,
          "velocity": 1,
          "duration": 0.19067812500000514
        },
        {
          "name": "A4",
          "midi": 69,
          "time": 155.65267208333364,
          "velocity": 1,
          "duration": 0.38983083333332047
        },
        {
          "name": "B4",
          "midi": 71,
          "time": 156.00436729166697,
          "velocity": 1,
          "duration": 0.3262714583333377
        },
        {
          "name": "C#5",
          "midi": 73,
          "time": 156.3433506250003,
          "velocity": 1,
          "duration": 0.29661041666665255
        },
        {
          "name": "B4",
          "midi": 71,
          "time": 156.6103000000003,
          "velocity": 1,
          "duration": 0.3940681249999898
        },
        {
          "name": "A4",
          "midi": 69,
          "time": 157.02979187500029,
          "velocity": 1,
          "duration": 0.16525437500001772
        },
        {
          "name": "F#4",
          "midi": 66,
          "time": 157.17385979166696,
          "velocity": 1,
          "duration": 0.43220375000001354
        },
        {
          "name": "F#4",
          "midi": 66,
          "time": 159.38996333333364,
          "velocity": 1,
          "duration": 0.10593229166667584
        },
        {
          "name": "F#4",
          "midi": 66,
          "time": 159.652675416667,
          "velocity": 1,
          "duration": 0.36016979166666374
        },
        {
          "name": "G#4",
          "midi": 68,
          "time": 160.01284520833366,
          "velocity": 1,
          "duration": 0.4025427083333284
        },
        {
          "name": "A4",
          "midi": 69,
          "time": 160.38572687500033,
          "velocity": 1,
          "duration": 0.3432206249999865
        },
        {
          "name": "G#4",
          "midi": 68,
          "time": 160.695049166667,
          "velocity": 1,
          "duration": 0.38559354166665116
        },
        {
          "name": "F#4",
          "midi": 66,
          "time": 161.05098166666698,
          "velocity": 1,
          "duration": 0.38983083333332047
        },
        {
          "name": "E4",
          "midi": 64,
          "time": 161.4789481250003,
          "velocity": 1,
          "duration": 0.16101708333332
        },
        {
          "name": "E4",
          "midi": 64,
          "time": 161.74166020833363,
          "velocity": 1,
          "duration": 0.5169495833333428
        },
        {
          "name": "F#4",
          "midi": 66,
          "time": 162.22047416666697,
          "velocity": 1,
          "duration": 0.27966125000000375
        },
        {
          "name": "G#4",
          "midi": 68,
          "time": 162.48742354166697,
          "velocity": 1,
          "duration": 2.6440699999999993
        },
        {
          "name": "F#4",
          "midi": 66,
          "time": 165.2543750000003,
          "velocity": 1,
          "duration": 0.11440687499998603
        },
        {
          "name": "F#4",
          "midi": 66,
          "time": 165.50861250000028,
          "velocity": 1,
          "duration": 0.18644083333333583
        },
        {
          "name": "A4",
          "midi": 69,
          "time": 165.7628500000003,
          "velocity": 1,
          "duration": 0.5000004166666656
        },
        {
          "name": "G#4",
          "midi": 68,
          "time": 166.2713250000003,
          "velocity": 1,
          "duration": 0.4025427083333284
        },
        {
          "name": "G#4",
          "midi": 68,
          "time": 166.80946104166696,
          "velocity": 1,
          "duration": 0.491525833333327
        },
        {
          "name": "F#4",
          "midi": 66,
          "time": 167.3009868750003,
          "velocity": 1,
          "duration": 1.563560625000008
        },
        {
          "name": "G#4",
          "midi": 68,
          "time": 173.60183958333363,
          "velocity": 1,
          "duration": 0.12711874999999395
        },
        {
          "name": "G#4",
          "midi": 68,
          "time": 173.86878895833362,
          "velocity": 1,
          "duration": 0.4788139583333475
        },
        {
          "name": "A4",
          "midi": 69,
          "time": 174.35184020833364,
          "velocity": 1,
          "duration": 0.5466106249999996
        },
        {
          "name": "G#4",
          "midi": 68,
          "time": 174.86878979166698,
          "velocity": 1,
          "duration": 0.5338987499999917
        },
        {
          "name": "F#4",
          "midi": 66,
          "time": 175.40268854166698,
          "velocity": 1,
          "duration": 1.5847470833333261
        },
        {
          "name": "G#4",
          "midi": 68,
          "time": 181.78404979166697,
          "velocity": 1,
          "duration": 0.09745770833333722
        },
        {
          "name": "G#4",
          "midi": 68,
          "time": 182.03405000000032,
          "velocity": 1,
          "duration": 0.49576312500002473
        },
        {
          "name": "A4",
          "midi": 69,
          "time": 182.508626666667,
          "velocity": 1,
          "duration": 0.5000004166666656
        },
        {
          "name": "G#4",
          "midi": 68,
          "time": 182.98320333333368,
          "velocity": 1,
          "duration": 0.5127122916666451
        },
        {
          "name": "F#4",
          "midi": 66,
          "time": 183.5213393750003,
          "velocity": 1,
          "duration": 0.5889835416666642
        },
        {
          "name": "G#4",
          "midi": 68,
          "time": 184.05100083333363,
          "velocity": 1,
          "duration": 0.4872885416666861
        },
        {
          "name": "A4",
          "midi": 69,
          "time": 184.53828937500032,
          "velocity": 1,
          "duration": 0.5762716666666847
        },
        {
          "name": "G#4",
          "midi": 68,
          "time": 185.05523895833366,
          "velocity": 1,
          "duration": 0.5338987500000201
        },
        {
          "name": "F#4",
          "midi": 66,
          "time": 185.584900416667,
          "velocity": 1,
          "duration": 1.0211872916666778
        },
        {
          "name": "D5",
          "midi": 74,
          "time": 186.63151145833368,
          "velocity": 1,
          "duration": 0.4703393750000089
        },
        {
          "name": "C#5",
          "midi": 73,
          "time": 187.14846104166702,
          "velocity": 1,
          "duration": 3.7372912499999984
        },
        {
          "name": "A4",
          "midi": 69,
          "time": 247.62732500000035,
          "velocity": 0.984251968503937,
          "duration": 0.5084750000000042
        },
        {
          "name": "G#4",
          "midi": 68,
          "time": 248.13580000000036,
          "velocity": 0.984251968503937,
          "duration": 2.5423749999999927
        },
        {
          "name": "F#4",
          "midi": 66,
          "time": 250.67817500000035,
          "velocity": 0.8740157480314961,
          "duration": 0.12711874999999395
        },
        {
          "name": "F#4",
          "midi": 66,
          "time": 250.93241250000034,
          "velocity": 0.8503937007874016,
          "duration": 0.2542374999999879
        },
        {
          "name": "A4",
          "midi": 69,
          "time": 251.18665000000033,
          "velocity": 0.9448818897637795,
          "duration": 0.5084750000000042
        },
        {
          "name": "G#4",
          "midi": 68,
          "time": 251.69512500000033,
          "velocity": 0.9291338582677166,
          "duration": 0.2542374999999879
        },
        {
          "name": "G#4",
          "midi": 68,
          "time": 252.233261041667,
          "velocity": 1,
          "duration": 0.491525833333327
        },
        {
          "name": "F#4",
          "midi": 66,
          "time": 252.72478687500032,
          "velocity": 1,
          "duration": 1.563560625000008
        },
        {
          "name": "G#4",
          "midi": 68,
          "time": 259.02563958333366,
          "velocity": 1,
          "duration": 0.12711875000002237
        },
        {
          "name": "G#4",
          "midi": 68,
          "time": 259.2925889583337,
          "velocity": 1,
          "duration": 0.4788139583333191
        },
        {
          "name": "A4",
          "midi": 69,
          "time": 259.77564020833364,
          "velocity": 1,
          "duration": 0.5466106249999712
        },
        {
          "name": "G#4",
          "midi": 68,
          "time": 260.29258979166696,
          "velocity": 1,
          "duration": 0.5338987499999917
        },
        {
          "name": "F#4",
          "midi": 66,
          "time": 260.82648854166695,
          "velocity": 1,
          "duration": 1.5847470833333546
        },
        {
          "name": "G#4",
          "midi": 68,
          "time": 267.20784979166694,
          "velocity": 1,
          "duration": 0.0974577083333088
        },
        {
          "name": "G#4",
          "midi": 68,
          "time": 267.45785000000024,
          "velocity": 1,
          "duration": 0.4957631249999963
        },
        {
          "name": "A4",
          "midi": 69,
          "time": 267.9324266666669,
          "velocity": 1,
          "duration": 0.500000416666694
        },
        {
          "name": "G#4",
          "midi": 68,
          "time": 268.4070033333336,
          "velocity": 1,
          "duration": 0.5127122916666735
        },
        {
          "name": "F#4",
          "midi": 66,
          "time": 268.9451393750003,
          "velocity": 1,
          "duration": 0.5889835416666642
        },
        {
          "name": "G#4",
          "midi": 68,
          "time": 269.47480083333363,
          "velocity": 1,
          "duration": 0.4872885416666577
        },
        {
          "name": "A4",
          "midi": 69,
          "time": 269.9620893750003,
          "velocity": 1,
          "duration": 0.5762716666666279
        },
        {
          "name": "G#4",
          "midi": 68,
          "time": 270.4790389583336,
          "velocity": 1,
          "duration": 0.5338987499999348
        },
        {
          "name": "F#4",
          "midi": 66,
          "time": 271.0087004166669,
          "velocity": 1,
          "duration": 1.0211872916666493
        },
        {
          "name": "D5",
          "midi": 74,
          "time": 272.05531145833356,
          "velocity": 1,
          "duration": 0.47033937499998046
        },
        {
          "name": "C#5",
          "midi": 73,
          "time": 272.5722610416669,
          "velocity": 1,
          "duration": 2.038137291666658
        },
        {
          "name": "C#5",
          "midi": 73,
          "time": 272.6358204166669,
          "velocity": 1,
          "duration": 2.466103750000002
        },
        {
          "name": "C#5",
          "midi": 73,
          "time": 274.8307375000002,
          "velocity": 1,
          "duration": 0.5550852083333666
        },
        {
          "name": "C#5",
          "midi": 73,
          "time": 275.21209375000024,
          "velocity": 1,
          "duration": 0.8559329166666885
        },
        {
          "name": "C#5",
          "midi": 73,
          "time": 275.59345000000025,
          "velocity": 1,
          "duration": 0.7161022916666866
        },
        {
          "name": "B4",
          "midi": 71,
          "time": 276.1019250000003,
          "velocity": 1,
          "duration": 0.42796645833334424
        },
        {
          "name": "B4",
          "midi": 71,
          "time": 276.67395937500027,
          "velocity": 1,
          "duration": 0.3898308333333489
        },
        {
          "name": "A4",
          "midi": 69,
          "time": 277.1612479166669,
          "velocity": 1,
          "duration": 1.6059335416666727
        },
        {
          "name": "C#5",
          "midi": 73,
          "time": 279.43243625000025,
          "velocity": 1,
          "duration": 0.11440687499998603
        },
        {
          "name": "C#5",
          "midi": 73,
          "time": 279.6824364583336,
          "velocity": 1,
          "duration": 0.3940681249999898
        },
        {
          "name": "B4",
          "midi": 71,
          "time": 280.08921645833357,
          "velocity": 1,
          "duration": 0.37288166666667166
        },
        {
          "name": "A4",
          "midi": 69,
          "time": 280.44514895833356,
          "velocity": 1,
          "duration": 0.2542374999999879
        },
        {
          "name": "C#5",
          "midi": 73,
          "time": 280.71209833333353,
          "velocity": 1,
          "duration": 0.5127122916666735
        },
        {
          "name": "B4",
          "midi": 71,
          "time": 281.2459970833335,
          "velocity": 1,
          "duration": 0.9406787500000178
        },
        {
          "name": "G#4",
          "midi": 68,
          "time": 283.4705752083335,
          "velocity": 1,
          "duration": 0.14406791666664276
        },
        {
          "name": "G#4",
          "midi": 68,
          "time": 283.72905000000014,
          "velocity": 1,
          "duration": 0.5550852083333098
        },
        {
          "name": "A4",
          "midi": 69,
          "time": 284.26294875000013,
          "velocity": 1,
          "duration": 0.5296614583332939
        },
        {
          "name": "G#4",
          "midi": 68,
          "time": 284.7714237500001,
          "velocity": 1,
          "duration": 0.5296614583332939
        },
        {
          "name": "F#4",
          "midi": 66,
          "time": 285.3010852083334,
          "velocity": 1,
          "duration": 2.1313577083333257
        },
        {
          "name": "A4",
          "midi": 69,
          "time": 287.52142604166676,
          "velocity": 1,
          "duration": 0.18220354166669495
        },
        {
          "name": "A4",
          "midi": 69,
          "time": 287.8265110416668,
          "velocity": 1,
          "duration": 0.29237312499998325
        },
        {
          "name": "A4",
          "midi": 69,
          "time": 288.1909181250001,
          "velocity": 1,
          "duration": 0.2330510416666698
        },
        {
          "name": "A4",
          "midi": 69,
          "time": 288.55956250000014,
          "velocity": 1,
          "duration": 0.16525437500001772
        },
        {
          "name": "A4",
          "midi": 69,
          "time": 288.86464750000016,
          "velocity": 1,
          "duration": 0.5042377083333349
        },
        {
          "name": "B4",
          "midi": 71,
          "time": 289.3434614583335,
          "velocity": 1,
          "duration": 1.5338995833333229
        },
        {
          "name": "A4",
          "midi": 69,
          "time": 291.60617520833347,
          "velocity": 1,
          "duration": 0.3050850000000196
        },
        {
          "name": "B4",
          "midi": 71,
          "time": 291.8943110416668,
          "velocity": 1,
          "duration": 0.4745766666666782
        },
        {
          "name": "G#4",
          "midi": 68,
          "time": 292.39854875000015,
          "velocity": 1,
          "duration": 0.45762750000000096
        },
        {
          "name": "B4",
          "midi": 71,
          "time": 292.9070237500001,
          "velocity": 1,
          "duration": 0.5550852083333098
        },
        {
          "name": "A4",
          "midi": 69,
          "time": 293.41126145833346,
          "velocity": 1,
          "duration": 0.9533906249999973
        },
        {
          "name": "G#4",
          "midi": 68,
          "time": 293.8900754166668,
          "velocity": 1,
          "duration": 0.5338987499999917
        },
        {
          "name": "A4",
          "midi": 69,
          "time": 294.3943131250001,
          "velocity": 1,
          "duration": 0.5466106249999712
        },
        {
          "name": "G#4",
          "midi": 68,
          "time": 294.8900762500001,
          "velocity": 1,
          "duration": 0.525424166666653
        },
        {
          "name": "F#4",
          "midi": 66,
          "time": 295.4409241666668,
          "velocity": 1,
          "duration": 1.0593229166666447
        },
        {
          "name": "A4",
          "midi": 69,
          "time": 296.56380645833343,
          "velocity": 1,
          "duration": 0.4194918750000056
        },
        {
          "name": "G#4",
          "midi": 68,
          "time": 296.98329833333344,
          "velocity": 1,
          "duration": 1.5127131250000048
        },
        {
          "name": "C#5",
          "midi": 73,
          "time": 299.2375375000001,
          "velocity": 1,
          "duration": 0.27118666666666513
        },
        {
          "name": "C#5",
          "midi": 73,
          "time": 299.6188937500001,
          "velocity": 1,
          "duration": 0.17372895833335633
        },
        {
          "name": "C#5",
          "midi": 73,
          "time": 300.0002500000001,
          "velocity": 1,
          "duration": 0.4745766666666782
        },
        {
          "name": "B4",
          "midi": 71,
          "time": 300.50872500000014,
          "velocity": 1,
          "duration": 0.42796645833334424
        },
        {
          "name": "B4",
          "midi": 71,
          "time": 301.0807593750001,
          "velocity": 1,
          "duration": 0.3898308333333489
        },
        {
          "name": "A4",
          "midi": 69,
          "time": 301.5680479166668,
          "velocity": 1,
          "duration": 1.6059335416666727
        },
        {
          "name": "C#5",
          "midi": 73,
          "time": 303.8392362500001,
          "velocity": 1,
          "duration": 0.11440687499998603
        },
        {
          "name": "C#5",
          "midi": 73,
          "time": 304.08923645833346,
          "velocity": 1,
          "duration": 0.3940681249999898
        },
        {
          "name": "B4",
          "midi": 71,
          "time": 304.49601645833343,
          "velocity": 1,
          "duration": 0.37288166666667166
        },
        {
          "name": "A4",
          "midi": 69,
          "time": 304.8519489583334,
          "velocity": 1,
          "duration": 0.2542374999999879
        },
        {
          "name": "C#5",
          "midi": 73,
          "time": 305.1188983333334,
          "velocity": 1,
          "duration": 0.5127122916666735
        },
        {
          "name": "B4",
          "midi": 71,
          "time": 305.6527970833334,
          "velocity": 1,
          "duration": 0.9406787500000178
        },
        {
          "name": "G#4",
          "midi": 68,
          "time": 307.8773752083334,
          "velocity": 1,
          "duration": 0.14406791666664276
        },
        {
          "name": "G#4",
          "midi": 68,
          "time": 308.13585,
          "velocity": 1,
          "duration": 0.5550852083333098
        },
        {
          "name": "A4",
          "midi": 69,
          "time": 308.66974875,
          "velocity": 1,
          "duration": 0.5296614583332939
        },
        {
          "name": "G#4",
          "midi": 68,
          "time": 309.17822375,
          "velocity": 1,
          "duration": 0.5296614583332939
        },
        {
          "name": "F#4",
          "midi": 66,
          "time": 309.70788520833327,
          "velocity": 1,
          "duration": 2.1313577083333257
        },
        {
          "name": "A4",
          "midi": 69,
          "time": 311.9282260416666,
          "velocity": 1,
          "duration": 0.18220354166669495
        },
        {
          "name": "A4",
          "midi": 69,
          "time": 312.23331104166664,
          "velocity": 1,
          "duration": 0.29237312499998325
        },
        {
          "name": "A4",
          "midi": 69,
          "time": 312.597718125,
          "velocity": 1,
          "duration": 0.2330510416666698
        },
        {
          "name": "A4",
          "midi": 69,
          "time": 312.9663625,
          "velocity": 1,
          "duration": 0.16525437500001772
        },
        {
          "name": "A4",
          "midi": 69,
          "time": 313.2714475,
          "velocity": 1,
          "duration": 0.5042377083333349
        },
        {
          "name": "B4",
          "midi": 71,
          "time": 313.75026145833334,
          "velocity": 1,
          "duration": 1.5338995833333229
        },
        {
          "name": "A4",
          "midi": 69,
          "time": 316.01297520833333,
          "velocity": 1,
          "duration": 0.3050850000000196
        },
        {
          "name": "B4",
          "midi": 71,
          "time": 316.3011110416667,
          "velocity": 1,
          "duration": 0.4745766666666782
        },
        {
          "name": "G#4",
          "midi": 68,
          "time": 316.80534875,
          "velocity": 1,
          "duration": 0.45762750000000096
        },
        {
          "name": "B4",
          "midi": 71,
          "time": 317.31382375,
          "velocity": 1,
          "duration": 0.5550852083333098
        },
        {
          "name": "A4",
          "midi": 69,
          "time": 317.8180614583333,
          "velocity": 1,
          "duration": 0.9533906249999973
        },
        {
          "name": "G#4",
          "midi": 68,
          "time": 318.29687541666664,
          "velocity": 1,
          "duration": 0.5338987499999917
        },
        {
          "name": "A4",
          "midi": 69,
          "time": 318.801113125,
          "velocity": 1,
          "duration": 0.5466106249999712
        },
        {
          "name": "G#4",
          "midi": 68,
          "time": 319.29687624999997,
          "velocity": 1,
          "duration": 0.525424166666653
        },
        {
          "name": "F#4",
          "midi": 66,
          "time": 319.84772416666664,
          "velocity": 1,
          "duration": 1.0593229166666447
        },
        {
          "name": "A4",
          "midi": 69,
          "time": 320.9706064583333,
          "velocity": 1,
          "duration": 0.4194918750000056
        },
        {
          "name": "G#4",
          "midi": 68,
          "time": 321.3900983333333,
          "velocity": 1,
          "duration": 1.5127131250000048
        },
        {
          "name": "C#5",
          "midi": 73,
          "time": 323.64433749999995,
          "velocity": 1,
          "duration": 0.27118666666666513
        },
        {
          "name": "C#5",
          "midi": 73,
          "time": 324.02569374999996,
          "velocity": 1,
          "duration": 0.17372895833335633
        },
        {
          "name": "C#5",
          "midi": 73,
          "time": 324.40704999999997,
          "velocity": 1,
          "duration": 0.4745766666666782
        },
        {
          "name": "B4",
          "midi": 71,
          "time": 324.915525,
          "velocity": 1,
          "duration": 0.42796645833334424
        }
      ],
      "controlChanges": {
        "7": [
          {
            "number": 7,
            "time": 0.5211868749999999,
            "value": 1
          },
          {
            "number": 7,
            "time": 1.7203404166666667,
            "value": 1
          }
        ],
        "91": [
          {
            "number": 91,
            "time": 0.8050854166666666,
            "value": 1
          }
        ],
        "93": [
          {
            "number": 93,
            "time": 0.8135599999999998,
            "value": 0.23622047244094488
          }
        ]
      },
      "id": 1,
      "name": "vocals",
      "instrumentNumber": 81,
      "instrument": "lead 2 (sawtooth)",
      "instrumentFamily": "synth lead",
      "channelNumber": 0,
      "isPercussion": false
    },
    {
      "startTime": 12.966112500000001,
      "duration": 325.04264375000184,
      "length": 512,
      "notes": [
        {
          "name": "C#5",
          "midi": 73,
          "time": 12.966112500000001,
          "velocity": 1,
          "duration": 0.06355937500000053
        },
        {
          "name": "B4",
          "midi": 71,
          "time": 13.093231250000002,
          "velocity": 1,
          "duration": 0.06355937500000053
        },
        {
          "name": "C#5",
          "midi": 73,
          "time": 13.220350000000003,
          "velocity": 1,
          "duration": 0.3813562499999996
        },
        {
          "name": "F#4",
          "midi": 66,
          "time": 13.728825000000002,
          "velocity": 1,
          "duration": 0.5084750000000007
        },
        {
          "name": "D5",
          "midi": 74,
          "time": 15.000012500000002,
          "velocity": 1,
          "duration": 0.06355937500000053
        },
        {
          "name": "C#5",
          "midi": 73,
          "time": 15.127131250000003,
          "velocity": 1,
          "duration": 0.06355937500000053
        },
        {
          "name": "D5",
          "midi": 74,
          "time": 15.254250000000004,
          "velocity": 1,
          "duration": 0.06355937500000053
        },
        {
          "name": "C#5",
          "midi": 73,
          "time": 15.508487500000005,
          "velocity": 1,
          "duration": 0.06355937500000053
        },
        {
          "name": "B4",
          "midi": 71,
          "time": 15.762725000000005,
          "velocity": 1,
          "duration": 0.762712500000001
        },
        {
          "name": "D5",
          "midi": 74,
          "time": 17.033912500000007,
          "velocity": 1,
          "duration": 0.06355937500000053
        },
        {
          "name": "C#5",
          "midi": 73,
          "time": 17.161031250000008,
          "velocity": 1,
          "duration": 0.06355937500000053
        },
        {
          "name": "D5",
          "midi": 74,
          "time": 17.28815000000001,
          "velocity": 1,
          "duration": 0.5084750000000007
        },
        {
          "name": "F#4",
          "midi": 66,
          "time": 17.79662500000001,
          "velocity": 1,
          "duration": 0.5084750000000007
        },
        {
          "name": "B4",
          "midi": 71,
          "time": 19.06781250000001,
          "velocity": 1,
          "duration": 0.06355937500000053
        },
        {
          "name": "A4",
          "midi": 69,
          "time": 19.19493125000001,
          "velocity": 1,
          "duration": 0.06355937500000053
        },
        {
          "name": "B4",
          "midi": 71,
          "time": 19.32205000000001,
          "velocity": 1,
          "duration": 0.06355937500000053
        },
        {
          "name": "A4",
          "midi": 69,
          "time": 19.576287500000014,
          "velocity": 1,
          "duration": 0.06355937500000053
        },
        {
          "name": "G#4",
          "midi": 68,
          "time": 19.830525000000016,
          "velocity": 1,
          "duration": 0.06355937500000053
        },
        {
          "name": "B4",
          "midi": 71,
          "time": 20.088999791666684,
          "velocity": 1,
          "duration": 0.06355937500000053
        },
        {
          "name": "A4",
          "midi": 69,
          "time": 20.339000000000016,
          "velocity": 1,
          "duration": 0.6355937500000017
        },
        {
          "name": "C#5",
          "midi": 73,
          "time": 21.10171250000002,
          "velocity": 1,
          "duration": 0.06355937500000053
        },
        {
          "name": "B4",
          "midi": 71,
          "time": 21.22883125000002,
          "velocity": 1,
          "duration": 0.06355937500000053
        },
        {
          "name": "C#5",
          "midi": 73,
          "time": 21.35595000000002,
          "velocity": 1,
          "duration": 0.3813562499999996
        },
        {
          "name": "F#4",
          "midi": 66,
          "time": 21.864425000000022,
          "velocity": 1,
          "duration": 0.6355937500000017
        },
        {
          "name": "D5",
          "midi": 74,
          "time": 23.135612500000022,
          "velocity": 1,
          "duration": 0.06355937500000053
        },
        {
          "name": "C#5",
          "midi": 73,
          "time": 23.262731250000023,
          "velocity": 1,
          "duration": 0.06355937500000053
        },
        {
          "name": "D5",
          "midi": 74,
          "time": 23.389850000000024,
          "velocity": 1,
          "duration": 0.06355937500000053
        },
        {
          "name": "C#5",
          "midi": 73,
          "time": 23.644087500000026,
          "velocity": 1,
          "duration": 0.06355937500000053
        },
        {
          "name": "B4",
          "midi": 71,
          "time": 23.89832500000003,
          "velocity": 1,
          "duration": 0.7627124999999992
        },
        {
          "name": "D5",
          "midi": 74,
          "time": 25.169512500000028,
          "velocity": 1,
          "duration": 0.06355937500000053
        },
        {
          "name": "C#5",
          "midi": 73,
          "time": 25.29663125000003,
          "velocity": 1,
          "duration": 0.06355937500000053
        },
        {
          "name": "D5",
          "midi": 74,
          "time": 25.42375000000003,
          "velocity": 1,
          "duration": 0.3813562499999996
        },
        {
          "name": "F#4",
          "midi": 66,
          "time": 25.93222500000003,
          "velocity": 1,
          "duration": 0.5084750000000007
        },
        {
          "name": "B4",
          "midi": 71,
          "time": 27.20341250000003,
          "velocity": 1,
          "duration": 0.06355937500000053
        },
        {
          "name": "A4",
          "midi": 69,
          "time": 27.330531250000032,
          "velocity": 1,
          "duration": 0.06355937500000053
        },
        {
          "name": "B4",
          "midi": 71,
          "time": 27.457650000000033,
          "velocity": 1,
          "duration": 0.06355937500000053
        },
        {
          "name": "A4",
          "midi": 69,
          "time": 27.711887500000035,
          "velocity": 1,
          "duration": 0.06355937500000053
        },
        {
          "name": "G#4",
          "midi": 68,
          "time": 27.966125000000037,
          "velocity": 1,
          "duration": 0.06355937500000053
        },
        {
          "name": "B4",
          "midi": 71,
          "time": 28.22036250000004,
          "velocity": 1,
          "duration": 0.06355937500000053
        },
        {
          "name": "A4",
          "midi": 69,
          "time": 28.47460000000004,
          "velocity": 1,
          "duration": 0.7627124999999992
        },
        {
          "name": "C#5",
          "midi": 73,
          "time": 29.23731250000004,
          "velocity": 1,
          "duration": 0.06355937500000053
        },
        {
          "name": "B4",
          "midi": 71,
          "time": 29.36443125000004,
          "velocity": 1,
          "duration": 0.06355937500000053
        },
        {
          "name": "C#5",
          "midi": 73,
          "time": 29.491550000000043,
          "velocity": 1,
          "duration": 0.5084750000000007
        },
        {
          "name": "F#4",
          "midi": 66,
          "time": 30.000025000000043,
          "velocity": 1,
          "duration": 0.6355937499999982
        },
        {
          "name": "D5",
          "midi": 74,
          "time": 31.27121250000004,
          "velocity": 1,
          "duration": 0.06355937500000053
        },
        {
          "name": "C#5",
          "midi": 73,
          "time": 31.39833125000004,
          "velocity": 1,
          "duration": 0.06355937500000053
        },
        {
          "name": "D5",
          "midi": 74,
          "time": 31.525450000000042,
          "velocity": 1,
          "duration": 0.06355937500000053
        },
        {
          "name": "C#5",
          "midi": 73,
          "time": 31.779687500000044,
          "velocity": 1,
          "duration": 0.06355937500000053
        },
        {
          "name": "B4",
          "midi": 71,
          "time": 32.033925000000046,
          "velocity": 1,
          "duration": 0.7627124999999992
        },
        {
          "name": "D5",
          "midi": 74,
          "time": 33.30511250000004,
          "velocity": 1,
          "duration": 0.06355937499999698
        },
        {
          "name": "C#5",
          "midi": 73,
          "time": 33.43223125000004,
          "velocity": 1,
          "duration": 0.06355937499999698
        },
        {
          "name": "D5",
          "midi": 74,
          "time": 33.55935000000003,
          "velocity": 1,
          "duration": 0.5084749999999971
        },
        {
          "name": "F#4",
          "midi": 66,
          "time": 34.06782500000003,
          "velocity": 1,
          "duration": 0.5084749999999971
        },
        {
          "name": "B4",
          "midi": 71,
          "time": 35.339012500000024,
          "velocity": 1,
          "duration": 0.06355937499999698
        },
        {
          "name": "A4",
          "midi": 69,
          "time": 35.46613125000002,
          "velocity": 1,
          "duration": 0.06355937499999698
        },
        {
          "name": "B4",
          "midi": 71,
          "time": 35.59325000000001,
          "velocity": 1,
          "duration": 0.06355937499999698
        },
        {
          "name": "A4",
          "midi": 69,
          "time": 35.84748750000001,
          "velocity": 1,
          "duration": 0.06355937499999698
        },
        {
          "name": "G#4",
          "midi": 68,
          "time": 36.101725,
          "velocity": 1,
          "duration": 0.06355937499999698
        },
        {
          "name": "B4",
          "midi": 71,
          "time": 36.3559625,
          "velocity": 1,
          "duration": 0.06355937499999698
        },
        {
          "name": "A4",
          "midi": 69,
          "time": 36.61019999999999,
          "velocity": 1,
          "duration": 0.7627124999999992
        },
        {
          "name": "C#5",
          "midi": 73,
          "time": 37.37291249999999,
          "velocity": 1,
          "duration": 0.06355937499999698
        },
        {
          "name": "B4",
          "midi": 71,
          "time": 37.500031249999985,
          "velocity": 1,
          "duration": 0.06355937499999698
        },
        {
          "name": "C#5",
          "midi": 73,
          "time": 37.62714999999998,
          "velocity": 1,
          "duration": 0.5084749999999971
        },
        {
          "name": "F#4",
          "midi": 66,
          "time": 38.135624999999976,
          "velocity": 1,
          "duration": 0.6355937499999982
        },
        {
          "name": "D5",
          "midi": 74,
          "time": 39.40681249999997,
          "velocity": 1,
          "duration": 0.06355937499999698
        },
        {
          "name": "C#5",
          "midi": 73,
          "time": 39.533931249999966,
          "velocity": 1,
          "duration": 0.06355937499999698
        },
        {
          "name": "D5",
          "midi": 74,
          "time": 39.66104999999996,
          "velocity": 1,
          "duration": 0.06355937499999698
        },
        {
          "name": "C#5",
          "midi": 73,
          "time": 39.915287499999955,
          "velocity": 1,
          "duration": 0.06355937499999698
        },
        {
          "name": "B4",
          "midi": 71,
          "time": 40.16952499999995,
          "velocity": 1,
          "duration": 0.7627124999999992
        },
        {
          "name": "D5",
          "midi": 74,
          "time": 41.44071249999995,
          "velocity": 1,
          "duration": 0.06355937499999698
        },
        {
          "name": "C#5",
          "midi": 73,
          "time": 41.56783124999994,
          "velocity": 1,
          "duration": 0.06355937499999698
        },
        {
          "name": "D5",
          "midi": 74,
          "time": 41.694949999999935,
          "velocity": 1,
          "duration": 0.5084749999999971
        },
        {
          "name": "F#4",
          "midi": 66,
          "time": 42.20342499999993,
          "velocity": 1,
          "duration": 0.5084749999999971
        },
        {
          "name": "B4",
          "midi": 71,
          "time": 43.47461249999993,
          "velocity": 1,
          "duration": 0.06355937499999698
        },
        {
          "name": "A4",
          "midi": 69,
          "time": 43.60173124999992,
          "velocity": 1,
          "duration": 0.06355937499999698
        },
        {
          "name": "B4",
          "midi": 71,
          "time": 43.728849999999916,
          "velocity": 1,
          "duration": 0.06355937499999698
        },
        {
          "name": "A4",
          "midi": 69,
          "time": 43.98308749999991,
          "velocity": 1,
          "duration": 0.06355937499999698
        },
        {
          "name": "G#4",
          "midi": 68,
          "time": 44.237324999999906,
          "velocity": 1,
          "duration": 0.06355937499999698
        },
        {
          "name": "B4",
          "midi": 71,
          "time": 44.4915624999999,
          "velocity": 1,
          "duration": 0.06355937499999698
        },
        {
          "name": "A4",
          "midi": 69,
          "time": 44.745799999999896,
          "velocity": 1,
          "duration": 0.7627124999999992
        },
        {
          "name": "G#4",
          "midi": 68,
          "time": 45.508512499999895,
          "velocity": 1,
          "duration": 0.254237499999995
        },
        {
          "name": "A4",
          "midi": 69,
          "time": 45.635631249999896,
          "velocity": 1,
          "duration": 0.06355937499999698
        },
        {
          "name": "B4",
          "midi": 71,
          "time": 45.76274999999989,
          "velocity": 1,
          "duration": 0.7627124999999992
        },
        {
          "name": "A4",
          "midi": 69,
          "time": 46.52546249999989,
          "velocity": 1,
          "duration": 0.12711875000000106
        },
        {
          "name": "B4",
          "midi": 71,
          "time": 46.65258124999989,
          "velocity": 1,
          "duration": 0.12711875000000106
        },
        {
          "name": "C#5",
          "midi": 73,
          "time": 46.77969999999989,
          "velocity": 1,
          "duration": 0.38135625000000317
        },
        {
          "name": "B4",
          "midi": 71,
          "time": 47.033937499999894,
          "velocity": 1,
          "duration": 0.2542375000000021
        },
        {
          "name": "A4",
          "midi": 69,
          "time": 47.288174999999896,
          "velocity": 1,
          "duration": 0.2542375000000021
        },
        {
          "name": "G#4",
          "midi": 68,
          "time": 47.5424124999999,
          "velocity": 1,
          "duration": 0.2542375000000021
        },
        {
          "name": "F#4",
          "midi": 66,
          "time": 47.7966499999999,
          "velocity": 1,
          "duration": 0.5084749999999971
        },
        {
          "name": "D5",
          "midi": 74,
          "time": 48.3051249999999,
          "velocity": 1,
          "duration": 0.5084749999999971
        },
        {
          "name": "C#5",
          "midi": 73,
          "time": 48.83478645833323,
          "velocity": 1,
          "duration": 0.8898312500000003
        },
        {
          "name": "C#5",
          "midi": 73,
          "time": 49.80936354166656,
          "velocity": 1,
          "duration": 0.37711895833333386
        },
        {
          "name": "D5",
          "midi": 74,
          "time": 50.161058749999896,
          "velocity": 1,
          "duration": 0.3983054166666662
        },
        {
          "name": "C#5",
          "midi": 73,
          "time": 50.55088958333323,
          "velocity": 1,
          "duration": 0.15254249999999558
        },
        {
          "name": "B4",
          "midi": 71,
          "time": 50.707669374999895,
          "velocity": 1,
          "duration": 0.12288145833333175
        },
        {
          "name": "C#5",
          "midi": 73,
          "time": 50.84326270833323,
          "velocity": 1,
          "duration": 1.5211877083333363
        },
        {
          "name": "C#5",
          "midi": 73,
          "time": 53.6441124999999,
          "velocity": 1,
          "duration": 0.0847458333333364
        },
        {
          "name": "B4",
          "midi": 71,
          "time": 53.7712312499999,
          "velocity": 1,
          "duration": 0.06355937499999698
        },
        {
          "name": "C#5",
          "midi": 73,
          "time": 53.898349999999894,
          "velocity": 1,
          "duration": 0.38135625000000317
        },
        {
          "name": "F#4",
          "midi": 66,
          "time": 54.4068249999999,
          "velocity": 1,
          "duration": 0.5084749999999971
        },
        {
          "name": "D5",
          "midi": 74,
          "time": 55.678012499999895,
          "velocity": 1,
          "duration": 0.06355937499999698
        },
        {
          "name": "C#5",
          "midi": 73,
          "time": 55.80513124999989,
          "velocity": 1,
          "duration": 0.06355937499999698
        },
        {
          "name": "D5",
          "midi": 74,
          "time": 55.93224999999988,
          "velocity": 1,
          "duration": 0.06355937499999698
        },
        {
          "name": "C#5",
          "midi": 73,
          "time": 56.18648749999988,
          "velocity": 1,
          "duration": 0.06355937499999698
        },
        {
          "name": "B4",
          "midi": 71,
          "time": 56.44072499999987,
          "velocity": 1,
          "duration": 0.7627124999999992
        },
        {
          "name": "D5",
          "midi": 74,
          "time": 57.71191249999987,
          "velocity": 1,
          "duration": 0.06355937499999698
        },
        {
          "name": "C#5",
          "midi": 73,
          "time": 57.83903124999986,
          "velocity": 1,
          "duration": 0.06355937499999698
        },
        {
          "name": "D5",
          "midi": 74,
          "time": 57.96614999999986,
          "velocity": 1,
          "duration": 0.5084749999999971
        },
        {
          "name": "F#4",
          "midi": 66,
          "time": 58.474624999999854,
          "velocity": 1,
          "duration": 0.5084749999999971
        },
        {
          "name": "B4",
          "midi": 71,
          "time": 59.74581249999985,
          "velocity": 1,
          "duration": 0.06355937499999698
        },
        {
          "name": "A4",
          "midi": 69,
          "time": 59.872931249999844,
          "velocity": 1,
          "duration": 0.06355937499999698
        },
        {
          "name": "B4",
          "midi": 71,
          "time": 60.00004999999984,
          "velocity": 1,
          "duration": 0.06355937499999698
        },
        {
          "name": "A4",
          "midi": 69,
          "time": 60.25428749999983,
          "velocity": 1,
          "duration": 0.06355937499999698
        },
        {
          "name": "G#4",
          "midi": 68,
          "time": 60.50852499999983,
          "velocity": 1,
          "duration": 0.06355937499999698
        },
        {
          "name": "B4",
          "midi": 71,
          "time": 60.76276249999982,
          "velocity": 1,
          "duration": 0.06355937499999698
        },
        {
          "name": "A4",
          "midi": 69,
          "time": 61.01699999999982,
          "velocity": 1,
          "duration": 0.7627124999999992
        },
        {
          "name": "C#5",
          "midi": 73,
          "time": 61.77971249999982,
          "velocity": 1,
          "duration": 0.06355937499999698
        },
        {
          "name": "B4",
          "midi": 71,
          "time": 61.90683124999981,
          "velocity": 1,
          "duration": 0.06355937499999698
        },
        {
          "name": "C#5",
          "midi": 73,
          "time": 62.033949999999805,
          "velocity": 1,
          "duration": 0.5084749999999971
        },
        {
          "name": "F#4",
          "midi": 66,
          "time": 62.5424249999998,
          "velocity": 1,
          "duration": 0.6355937499999982
        },
        {
          "name": "D5",
          "midi": 74,
          "time": 63.8136124999998,
          "velocity": 1,
          "duration": 0.06355937499999698
        },
        {
          "name": "C#5",
          "midi": 73,
          "time": 63.94073124999979,
          "velocity": 1,
          "duration": 0.06355937500000408
        },
        {
          "name": "D5",
          "midi": 74,
          "time": 64.0678499999998,
          "velocity": 1,
          "duration": 0.06355937499999698
        },
        {
          "name": "C#5",
          "midi": 73,
          "time": 64.3220874999998,
          "velocity": 1,
          "duration": 0.06355937499999698
        },
        {
          "name": "B4",
          "midi": 71,
          "time": 64.5763249999998,
          "velocity": 1,
          "duration": 0.7627125000000063
        },
        {
          "name": "D5",
          "midi": 74,
          "time": 65.84751249999981,
          "velocity": 1,
          "duration": 0.06355937499999698
        },
        {
          "name": "C#5",
          "midi": 73,
          "time": 65.9746312499998,
          "velocity": 1,
          "duration": 0.06355937499999698
        },
        {
          "name": "D5",
          "midi": 74,
          "time": 66.1017499999998,
          "velocity": 1,
          "duration": 0.5084750000000042
        },
        {
          "name": "F#4",
          "midi": 66,
          "time": 66.6102249999998,
          "velocity": 1,
          "duration": 0.5084750000000042
        },
        {
          "name": "B4",
          "midi": 71,
          "time": 67.88141249999981,
          "velocity": 1,
          "duration": 0.06355937499999698
        },
        {
          "name": "A4",
          "midi": 69,
          "time": 68.0085312499998,
          "velocity": 1,
          "duration": 0.06355937499999698
        },
        {
          "name": "B4",
          "midi": 71,
          "time": 68.1356499999998,
          "velocity": 1,
          "duration": 0.06355937499999698
        },
        {
          "name": "A4",
          "midi": 69,
          "time": 68.3898874999998,
          "velocity": 1,
          "duration": 0.06355937499999698
        },
        {
          "name": "G#4",
          "midi": 68,
          "time": 68.6441249999998,
          "velocity": 1,
          "duration": 0.06355937499999698
        },
        {
          "name": "B4",
          "midi": 71,
          "time": 68.8983624999998,
          "velocity": 1,
          "duration": 0.06355937499999698
        },
        {
          "name": "A4",
          "midi": 69,
          "time": 69.15259999999981,
          "velocity": 1,
          "duration": 0.6355937499999982
        },
        {
          "name": "G#4",
          "midi": 68,
          "time": 69.9153124999998,
          "velocity": 1,
          "duration": 0.06355937499999698
        },
        {
          "name": "A4",
          "midi": 69,
          "time": 70.0424312499998,
          "velocity": 1,
          "duration": 0.06355937499999698
        },
        {
          "name": "B4",
          "midi": 71,
          "time": 70.16954999999979,
          "velocity": 1,
          "duration": 0.7627125000000063
        },
        {
          "name": "A4",
          "midi": 69,
          "time": 70.9322624999998,
          "velocity": 1,
          "duration": 0.12711874999999395
        },
        {
          "name": "B4",
          "midi": 71,
          "time": 71.05938124999979,
          "velocity": 1,
          "duration": 0.12711874999999395
        },
        {
          "name": "C#5",
          "midi": 73,
          "time": 71.18649999999978,
          "velocity": 1,
          "duration": 0.2542375000000021
        },
        {
          "name": "B4",
          "midi": 71,
          "time": 71.44073749999978,
          "velocity": 1,
          "duration": 0.2542375000000021
        },
        {
          "name": "A4",
          "midi": 69,
          "time": 71.69497499999979,
          "velocity": 1,
          "duration": 0.2542375000000021
        },
        {
          "name": "G#4",
          "midi": 68,
          "time": 71.94921249999979,
          "velocity": 1,
          "duration": 0.2542375000000021
        },
        {
          "name": "F#4",
          "midi": 66,
          "time": 72.20344999999979,
          "velocity": 1,
          "duration": 0.5084750000000042
        },
        {
          "name": "D5",
          "midi": 74,
          "time": 72.7119249999998,
          "velocity": 1,
          "duration": 0.5084750000000042
        },
        {
          "name": "C#5",
          "midi": 73,
          "time": 73.2203999999998,
          "velocity": 1,
          "duration": 1.3983062500000045
        },
        {
          "name": "C#5",
          "midi": 73,
          "time": 74.7458249999998,
          "velocity": 1,
          "duration": 0.12711874999999395
        },
        {
          "name": "D5",
          "midi": 74,
          "time": 74.87294374999979,
          "velocity": 1,
          "duration": 0.12711874999999395
        },
        {
          "name": "C#5",
          "midi": 73,
          "time": 75.00006249999979,
          "velocity": 1,
          "duration": 0.12711874999999395
        },
        {
          "name": "B4",
          "midi": 71,
          "time": 75.12718124999978,
          "velocity": 1,
          "duration": 0.2542374999999879
        },
        {
          "name": "C#5",
          "midi": 73,
          "time": 75.25429999999977,
          "velocity": 1,
          "duration": 1.6525437499999924
        },
        {
          "name": "A4",
          "midi": 69,
          "time": 108.7839889583331,
          "velocity": 0.937007874015748,
          "duration": 0.5254241666666672
        },
        {
          "name": "B4",
          "midi": 71,
          "time": 109.32212499999976,
          "velocity": 0.9291338582677166,
          "duration": 0.5000004166666656
        },
        {
          "name": "A4",
          "midi": 69,
          "time": 109.79670166666642,
          "velocity": 0.9133858267716536,
          "duration": 0.411017291666667
        },
        {
          "name": "G#4",
          "midi": 68,
          "time": 110.19076979166643,
          "velocity": 0.9212598425196851,
          "duration": 0.14406791666667118
        },
        {
          "name": "F#4",
          "midi": 66,
          "time": 110.30517666666643,
          "velocity": 0.8740157480314961,
          "duration": 1.516950416666674
        },
        {
          "name": "G#4",
          "midi": 68,
          "time": 114.15263749999977,
          "velocity": 1,
          "duration": 0.06355937499999698
        },
        {
          "name": "E4",
          "midi": 64,
          "time": 114.15263749999977,
          "velocity": 1,
          "duration": 0.11440687500000024
        },
        {
          "name": "B3",
          "midi": 59,
          "time": 114.15263749999977,
          "velocity": 1,
          "duration": 0.12288145833333886
        },
        {
          "name": "G#4",
          "midi": 68,
          "time": 114.40687499999977,
          "velocity": 1,
          "duration": 0.3389833333333314
        },
        {
          "name": "E4",
          "midi": 64,
          "time": 114.40687499999977,
          "velocity": 1,
          "duration": 0.37711895833334097
        },
        {
          "name": "B3",
          "midi": 59,
          "time": 114.40687499999977,
          "velocity": 1,
          "duration": 0.3432206250000007
        },
        {
          "name": "G#4",
          "midi": 68,
          "time": 114.91534999999978,
          "velocity": 1,
          "duration": 0.17796624999999722
        },
        {
          "name": "E4",
          "midi": 64,
          "time": 114.91534999999978,
          "velocity": 1,
          "duration": 0.19915270833332954
        },
        {
          "name": "B3",
          "midi": 59,
          "time": 114.91534999999978,
          "velocity": 1,
          "duration": 0.18644083333333583
        },
        {
          "name": "B3",
          "midi": 59,
          "time": 115.16958749999978,
          "velocity": 1,
          "duration": 0.27542395833333444
        },
        {
          "name": "E4",
          "midi": 64,
          "time": 115.16958749999978,
          "velocity": 1,
          "duration": 0.27118666666666513
        },
        {
          "name": "G#4",
          "midi": 68,
          "time": 115.16958749999978,
          "velocity": 1,
          "duration": 0.2669493749999958
        },
        {
          "name": "B3",
          "midi": 59,
          "time": 115.67806249999978,
          "velocity": 1,
          "duration": 0.6779666666666628
        },
        {
          "name": "E4",
          "midi": 64,
          "time": 115.67806249999978,
          "velocity": 1,
          "duration": 0.6991531249999952
        },
        {
          "name": "G#4",
          "midi": 68,
          "time": 115.67806249999978,
          "velocity": 1,
          "duration": 0.7033904166666645
        },
        {
          "name": "C#5",
          "midi": 73,
          "time": 118.72891249999978,
          "velocity": 1,
          "duration": 0.0847458333333293
        },
        {
          "name": "B4",
          "midi": 71,
          "time": 118.85603124999977,
          "velocity": 1,
          "duration": 0.06355937499999698
        },
        {
          "name": "C#5",
          "midi": 73,
          "time": 118.98314999999977,
          "velocity": 1,
          "duration": 0.38135624999999607
        },
        {
          "name": "F#4",
          "midi": 66,
          "time": 119.49162499999976,
          "velocity": 1,
          "duration": 0.5084750000000042
        },
        {
          "name": "D5",
          "midi": 74,
          "time": 120.76281249999977,
          "velocity": 1,
          "duration": 0.06355937499999698
        },
        {
          "name": "C#5",
          "midi": 73,
          "time": 120.88993124999976,
          "velocity": 1,
          "duration": 0.06355937499999698
        },
        {
          "name": "D5",
          "midi": 74,
          "time": 121.01704999999976,
          "velocity": 1,
          "duration": 0.06355937499999698
        },
        {
          "name": "C#5",
          "midi": 73,
          "time": 121.27128749999976,
          "velocity": 1,
          "duration": 0.06355937499999698
        },
        {
          "name": "B4",
          "midi": 71,
          "time": 121.52552499999976,
          "velocity": 1,
          "duration": 0.7627125000000063
        },
        {
          "name": "D5",
          "midi": 74,
          "time": 122.79671249999977,
          "velocity": 1,
          "duration": 0.06355937499999698
        },
        {
          "name": "C#5",
          "midi": 73,
          "time": 122.92383124999976,
          "velocity": 1,
          "duration": 0.06355937499999698
        },
        {
          "name": "D5",
          "midi": 74,
          "time": 123.05094999999976,
          "velocity": 1,
          "duration": 0.5084750000000042
        },
        {
          "name": "F#4",
          "midi": 66,
          "time": 123.55942499999976,
          "velocity": 1,
          "duration": 0.5084750000000042
        },
        {
          "name": "B4",
          "midi": 71,
          "time": 124.83061249999977,
          "velocity": 1,
          "duration": 0.06355937499999698
        },
        {
          "name": "A4",
          "midi": 69,
          "time": 124.95773124999977,
          "velocity": 1,
          "duration": 0.06355937499999698
        },
        {
          "name": "B4",
          "midi": 71,
          "time": 125.08484999999976,
          "velocity": 1,
          "duration": 0.06355937499999698
        },
        {
          "name": "A4",
          "midi": 69,
          "time": 125.33908749999976,
          "velocity": 1,
          "duration": 0.06355937499999698
        },
        {
          "name": "G#4",
          "midi": 68,
          "time": 125.59332499999977,
          "velocity": 1,
          "duration": 0.06355937499999698
        },
        {
          "name": "B4",
          "midi": 71,
          "time": 125.84756249999977,
          "velocity": 1,
          "duration": 0.06355937499999698
        },
        {
          "name": "A4",
          "midi": 69,
          "time": 126.10179999999977,
          "velocity": 1,
          "duration": 0.7627125000000063
        },
        {
          "name": "C#5",
          "midi": 73,
          "time": 126.86451249999978,
          "velocity": 1,
          "duration": 0.06355937499999698
        },
        {
          "name": "B4",
          "midi": 71,
          "time": 126.99163124999977,
          "velocity": 1,
          "duration": 0.06355937499999698
        },
        {
          "name": "C#5",
          "midi": 73,
          "time": 127.11874999999976,
          "velocity": 1,
          "duration": 0.5084750000000042
        },
        {
          "name": "F#4",
          "midi": 66,
          "time": 127.62722499999977,
          "velocity": 1,
          "duration": 0.6355937500000124
        },
        {
          "name": "D5",
          "midi": 74,
          "time": 128.89841249999978,
          "velocity": 1,
          "duration": 0.06355937500001119
        },
        {
          "name": "C#5",
          "midi": 73,
          "time": 129.0255312499998,
          "velocity": 1,
          "duration": 0.06355937500001119
        },
        {
          "name": "D5",
          "midi": 74,
          "time": 129.15264999999982,
          "velocity": 1,
          "duration": 0.06355937500001119
        },
        {
          "name": "C#5",
          "midi": 73,
          "time": 129.40688749999984,
          "velocity": 1,
          "duration": 0.06355937500001119
        },
        {
          "name": "B4",
          "midi": 71,
          "time": 129.66112499999986,
          "velocity": 1,
          "duration": 0.7627124999999921
        },
        {
          "name": "D5",
          "midi": 74,
          "time": 130.93231249999985,
          "velocity": 1,
          "duration": 0.06355937500001119
        },
        {
          "name": "C#5",
          "midi": 73,
          "time": 131.05943124999988,
          "velocity": 1,
          "duration": 0.06355937500001119
        },
        {
          "name": "D5",
          "midi": 74,
          "time": 131.1865499999999,
          "velocity": 1,
          "duration": 0.5084750000000042
        },
        {
          "name": "F#4",
          "midi": 66,
          "time": 131.6950249999999,
          "velocity": 1,
          "duration": 0.5084750000000042
        },
        {
          "name": "B4",
          "midi": 71,
          "time": 132.9662124999999,
          "velocity": 1,
          "duration": 0.06355937500001119
        },
        {
          "name": "A4",
          "midi": 69,
          "time": 133.09333124999992,
          "velocity": 1,
          "duration": 0.06355937500001119
        },
        {
          "name": "B4",
          "midi": 71,
          "time": 133.22044999999994,
          "velocity": 1,
          "duration": 0.06355937500001119
        },
        {
          "name": "A4",
          "midi": 69,
          "time": 133.47468749999996,
          "velocity": 1,
          "duration": 0.06355937500001119
        },
        {
          "name": "G#4",
          "midi": 68,
          "time": 133.72892499999998,
          "velocity": 1,
          "duration": 0.06355937500001119
        },
        {
          "name": "B4",
          "midi": 71,
          "time": 133.9831625,
          "velocity": 1,
          "duration": 0.06355937500001119
        },
        {
          "name": "A4",
          "midi": 69,
          "time": 134.2374,
          "velocity": 1,
          "duration": 0.6355937499999982
        },
        {
          "name": "A4",
          "midi": 69,
          "time": 157.61877541666667,
          "velocity": 0.9291338582677166,
          "duration": 0.5042377083333349
        },
        {
          "name": "B4",
          "midi": 71,
          "time": 158.123013125,
          "velocity": 0.9291338582677166,
          "duration": 0.4745766666666782
        },
        {
          "name": "A4",
          "midi": 69,
          "time": 158.63572541666667,
          "velocity": 0.9448818897637795,
          "duration": 0.42372916666667493
        },
        {
          "name": "G#4",
          "midi": 68,
          "time": 159.038268125,
          "velocity": 0.9212598425196851,
          "duration": 0.13135604166666326
        },
        {
          "name": "F#4",
          "midi": 66,
          "time": 159.139963125,
          "velocity": 0.889763779527559,
          "duration": 1.440679166666655
        },
        {
          "name": "G#4",
          "midi": 68,
          "time": 162.9662375,
          "velocity": 1,
          "duration": 0.06355937500001119
        },
        {
          "name": "E4",
          "midi": 64,
          "time": 162.9662375,
          "velocity": 1,
          "duration": 0.11440687500001445
        },
        {
          "name": "B3",
          "midi": 59,
          "time": 162.9662375,
          "velocity": 1,
          "duration": 0.12288145833335307
        },
        {
          "name": "G#4",
          "midi": 68,
          "time": 163.22047500000002,
          "velocity": 1,
          "duration": 0.3389833333333456
        },
        {
          "name": "E4",
          "midi": 64,
          "time": 163.22047500000002,
          "velocity": 1,
          "duration": 0.37711895833334097
        },
        {
          "name": "B3",
          "midi": 59,
          "time": 163.22047500000002,
          "velocity": 1,
          "duration": 0.34322062500001493
        },
        {
          "name": "G#4",
          "midi": 68,
          "time": 163.72895000000003,
          "velocity": 1,
          "duration": 0.17796624999999722
        },
        {
          "name": "E4",
          "midi": 64,
          "time": 163.72895000000003,
          "velocity": 1,
          "duration": 0.19915270833334375
        },
        {
          "name": "B3",
          "midi": 59,
          "time": 163.72895000000003,
          "velocity": 1,
          "duration": 0.18644083333333583
        },
        {
          "name": "B3",
          "midi": 59,
          "time": 163.98318750000004,
          "velocity": 1,
          "duration": 0.27542395833333444
        },
        {
          "name": "E4",
          "midi": 64,
          "time": 163.98318750000004,
          "velocity": 1,
          "duration": 0.27118666666666513
        },
        {
          "name": "G#4",
          "midi": 68,
          "time": 163.98318750000004,
          "velocity": 1,
          "duration": 0.2669493749999958
        },
        {
          "name": "B3",
          "midi": 59,
          "time": 164.49166250000005,
          "velocity": 1,
          "duration": 0.6779666666666628
        },
        {
          "name": "E4",
          "midi": 64,
          "time": 164.49166250000005,
          "velocity": 1,
          "duration": 0.6991531250000094
        },
        {
          "name": "G#4",
          "midi": 68,
          "time": 164.49166250000005,
          "velocity": 1,
          "duration": 0.7033904166666787
        },
        {
          "name": "C#5",
          "midi": 73,
          "time": 167.54251250000007,
          "velocity": 1,
          "duration": 0.0847458333333293
        },
        {
          "name": "B4",
          "midi": 71,
          "time": 167.66963125000007,
          "velocity": 1,
          "duration": 0.06355937500001119
        },
        {
          "name": "C#5",
          "midi": 73,
          "time": 167.7967500000001,
          "velocity": 1,
          "duration": 0.3813562500000103
        },
        {
          "name": "F#4",
          "midi": 66,
          "time": 168.3052250000001,
          "velocity": 1,
          "duration": 0.5084750000000042
        },
        {
          "name": "D5",
          "midi": 74,
          "time": 169.5764125000001,
          "velocity": 1,
          "duration": 0.06355937500001119
        },
        {
          "name": "C#5",
          "midi": 73,
          "time": 169.7035312500001,
          "velocity": 1,
          "duration": 0.06355937500001119
        },
        {
          "name": "D5",
          "midi": 74,
          "time": 169.83065000000013,
          "velocity": 1,
          "duration": 0.06355937500001119
        },
        {
          "name": "C#5",
          "midi": 73,
          "time": 170.08488750000015,
          "velocity": 1,
          "duration": 0.06355937500001119
        },
        {
          "name": "B4",
          "midi": 71,
          "time": 170.33912500000017,
          "velocity": 1,
          "duration": 0.7627124999999921
        },
        {
          "name": "D5",
          "midi": 74,
          "time": 171.61031250000016,
          "velocity": 1,
          "duration": 0.06355937500001119
        },
        {
          "name": "C#5",
          "midi": 73,
          "time": 171.73743125000018,
          "velocity": 1,
          "duration": 0.06355937500001119
        },
        {
          "name": "D5",
          "midi": 74,
          "time": 171.8645500000002,
          "velocity": 1,
          "duration": 0.5084750000000042
        },
        {
          "name": "F#4",
          "midi": 66,
          "time": 172.3730250000002,
          "velocity": 1,
          "duration": 0.5084750000000042
        },
        {
          "name": "B4",
          "midi": 71,
          "time": 173.6442125000002,
          "velocity": 1,
          "duration": 0.06355937500001119
        },
        {
          "name": "A4",
          "midi": 69,
          "time": 173.77133125000023,
          "velocity": 1,
          "duration": 0.06355937500001119
        },
        {
          "name": "B4",
          "midi": 71,
          "time": 173.89845000000025,
          "velocity": 1,
          "duration": 0.06355937500001119
        },
        {
          "name": "A4",
          "midi": 69,
          "time": 174.15268750000027,
          "velocity": 1,
          "duration": 0.06355937500001119
        },
        {
          "name": "G#4",
          "midi": 68,
          "time": 174.40692500000029,
          "velocity": 1,
          "duration": 0.06355937500001119
        },
        {
          "name": "B4",
          "midi": 71,
          "time": 174.6611625000003,
          "velocity": 1,
          "duration": 0.06355937500001119
        },
        {
          "name": "A4",
          "midi": 69,
          "time": 174.91540000000032,
          "velocity": 1,
          "duration": 0.7627124999999921
        },
        {
          "name": "C#5",
          "midi": 73,
          "time": 175.6781125000003,
          "velocity": 1,
          "duration": 0.06355937500001119
        },
        {
          "name": "B4",
          "midi": 71,
          "time": 175.80523125000033,
          "velocity": 1,
          "duration": 0.06355937500001119
        },
        {
          "name": "C#5",
          "midi": 73,
          "time": 175.93235000000035,
          "velocity": 1,
          "duration": 0.5084750000000042
        },
        {
          "name": "F#4",
          "midi": 66,
          "time": 176.44082500000036,
          "velocity": 1,
          "duration": 0.6355937499999982
        },
        {
          "name": "D5",
          "midi": 74,
          "time": 177.71201250000036,
          "velocity": 1,
          "duration": 0.06355937500001119
        },
        {
          "name": "C#5",
          "midi": 73,
          "time": 177.83913125000038,
          "velocity": 1,
          "duration": 0.06355937500001119
        },
        {
          "name": "D5",
          "midi": 74,
          "time": 177.9662500000004,
          "velocity": 1,
          "duration": 0.06355937500001119
        },
        {
          "name": "C#5",
          "midi": 73,
          "time": 178.22048750000042,
          "velocity": 1,
          "duration": 0.06355937500001119
        },
        {
          "name": "B4",
          "midi": 71,
          "time": 178.47472500000043,
          "velocity": 1,
          "duration": 0.7627124999999921
        },
        {
          "name": "D5",
          "midi": 74,
          "time": 179.74591250000043,
          "velocity": 1,
          "duration": 0.06355937500001119
        },
        {
          "name": "C#5",
          "midi": 73,
          "time": 179.87303125000045,
          "velocity": 1,
          "duration": 0.06355937500001119
        },
        {
          "name": "D5",
          "midi": 74,
          "time": 180.00015000000047,
          "velocity": 1,
          "duration": 0.5084750000000042
        },
        {
          "name": "F#4",
          "midi": 66,
          "time": 180.50862500000048,
          "velocity": 1,
          "duration": 0.5084750000000042
        },
        {
          "name": "B4",
          "midi": 71,
          "time": 181.77981250000047,
          "velocity": 1,
          "duration": 0.06355937500001119
        },
        {
          "name": "A4",
          "midi": 69,
          "time": 181.9069312500005,
          "velocity": 1,
          "duration": 0.06355937500001119
        },
        {
          "name": "B4",
          "midi": 71,
          "time": 182.03405000000052,
          "velocity": 1,
          "duration": 0.06355937500001119
        },
        {
          "name": "A4",
          "midi": 69,
          "time": 182.28828750000054,
          "velocity": 1,
          "duration": 0.06355937500001119
        },
        {
          "name": "G#4",
          "midi": 68,
          "time": 182.54252500000055,
          "velocity": 1,
          "duration": 0.06355937500001119
        },
        {
          "name": "B4",
          "midi": 71,
          "time": 182.79676250000057,
          "velocity": 1,
          "duration": 0.06355937500001119
        },
        {
          "name": "A4",
          "midi": 69,
          "time": 183.05100000000058,
          "velocity": 1,
          "duration": 0.6355937499999982
        },
        {
          "name": "G#4",
          "midi": 68,
          "time": 183.81371250000058,
          "velocity": 1,
          "duration": 0.06355937500001119
        },
        {
          "name": "A4",
          "midi": 69,
          "time": 183.9408312500006,
          "velocity": 1,
          "duration": 0.06355937500001119
        },
        {
          "name": "B4",
          "midi": 71,
          "time": 184.06795000000062,
          "velocity": 1,
          "duration": 0.7627124999999921
        },
        {
          "name": "A4",
          "midi": 69,
          "time": 184.8306625000006,
          "velocity": 1,
          "duration": 0.06355937500001119
        },
        {
          "name": "B4",
          "midi": 71,
          "time": 184.95778125000064,
          "velocity": 1,
          "duration": 0.06355937500001119
        },
        {
          "name": "C#5",
          "midi": 73,
          "time": 185.08490000000066,
          "velocity": 1,
          "duration": 0.2542374999999879
        },
        {
          "name": "B4",
          "midi": 71,
          "time": 185.33913750000065,
          "velocity": 1,
          "duration": 0.2542374999999879
        },
        {
          "name": "A4",
          "midi": 69,
          "time": 185.59337500000063,
          "velocity": 1,
          "duration": 0.2542374999999879
        },
        {
          "name": "G#4",
          "midi": 68,
          "time": 185.84761250000062,
          "velocity": 1,
          "duration": 0.2542374999999879
        },
        {
          "name": "F#4",
          "midi": 66,
          "time": 186.1018500000006,
          "velocity": 1,
          "duration": 0.5084750000000042
        },
        {
          "name": "D5",
          "midi": 74,
          "time": 186.6103250000006,
          "velocity": 1,
          "duration": 0.5084750000000042
        },
        {
          "name": "C#5",
          "midi": 73,
          "time": 187.11880000000062,
          "velocity": 1,
          "duration": 1.3983062499999903
        },
        {
          "name": "C#5",
          "midi": 73,
          "time": 188.6442250000006,
          "velocity": 1,
          "duration": 0.06355937500001119
        },
        {
          "name": "D5",
          "midi": 74,
          "time": 188.77134375000063,
          "velocity": 1,
          "duration": 0.06355937500001119
        },
        {
          "name": "C#5",
          "midi": 73,
          "time": 188.89846250000065,
          "velocity": 1,
          "duration": 0.06355937500001119
        },
        {
          "name": "B4",
          "midi": 71,
          "time": 189.02558125000067,
          "velocity": 1,
          "duration": 0.2542374999999879
        },
        {
          "name": "C#5",
          "midi": 73,
          "time": 189.15270000000066,
          "velocity": 1,
          "duration": 1.6525437500000066
        },
        {
          "name": "F#3",
          "midi": 54,
          "time": 191.245922083334,
          "velocity": 1,
          "duration": 3.9618677083333296
        },
        {
          "name": "C#5",
          "midi": 73,
          "time": 228.55951250000066,
          "velocity": 1,
          "duration": 0.0847458333333293
        },
        {
          "name": "B4",
          "midi": 71,
          "time": 228.68663125000066,
          "velocity": 1,
          "duration": 0.06355937500001119
        },
        {
          "name": "C#5",
          "midi": 73,
          "time": 228.81375000000068,
          "velocity": 1,
          "duration": 0.3813562500000103
        },
        {
          "name": "F#4",
          "midi": 66,
          "time": 229.32222500000069,
          "velocity": 1,
          "duration": 0.5084750000000042
        },
        {
          "name": "D5",
          "midi": 74,
          "time": 230.59341250000068,
          "velocity": 1,
          "duration": 0.06355937500001119
        },
        {
          "name": "C#5",
          "midi": 73,
          "time": 230.7205312500007,
          "velocity": 1,
          "duration": 0.06355937500001119
        },
        {
          "name": "D5",
          "midi": 74,
          "time": 230.84765000000073,
          "velocity": 1,
          "duration": 0.06355937500001119
        },
        {
          "name": "C#5",
          "midi": 73,
          "time": 231.10188750000074,
          "velocity": 1,
          "duration": 0.06355937500001119
        },
        {
          "name": "B4",
          "midi": 71,
          "time": 231.35612500000076,
          "velocity": 1,
          "duration": 0.7627124999999921
        },
        {
          "name": "D5",
          "midi": 74,
          "time": 232.62731250000076,
          "velocity": 1,
          "duration": 0.06355937500001119
        },
        {
          "name": "C#5",
          "midi": 73,
          "time": 232.75443125000078,
          "velocity": 1,
          "duration": 0.06355937500001119
        },
        {
          "name": "D5",
          "midi": 74,
          "time": 232.8815500000008,
          "velocity": 1,
          "duration": 0.5084750000000042
        },
        {
          "name": "F#4",
          "midi": 66,
          "time": 233.3900250000008,
          "velocity": 1,
          "duration": 0.5084750000000042
        },
        {
          "name": "B4",
          "midi": 71,
          "time": 234.6612125000008,
          "velocity": 1,
          "duration": 0.06355937500001119
        },
        {
          "name": "A4",
          "midi": 69,
          "time": 234.78833125000082,
          "velocity": 1,
          "duration": 0.06355937500001119
        },
        {
          "name": "B4",
          "midi": 71,
          "time": 234.91545000000085,
          "velocity": 1,
          "duration": 0.06355937500001119
        },
        {
          "name": "A4",
          "midi": 69,
          "time": 235.16968750000086,
          "velocity": 1,
          "duration": 0.06355937500001119
        },
        {
          "name": "G#4",
          "midi": 68,
          "time": 235.42392500000088,
          "velocity": 1,
          "duration": 0.06355937500001119
        },
        {
          "name": "B4",
          "midi": 71,
          "time": 235.6781625000009,
          "velocity": 1,
          "duration": 0.06355937500001119
        },
        {
          "name": "A4",
          "midi": 69,
          "time": 235.9324000000009,
          "velocity": 1,
          "duration": 0.7627124999999921
        },
        {
          "name": "C#5",
          "midi": 73,
          "time": 236.6951125000009,
          "velocity": 1,
          "duration": 0.06355937500001119
        },
        {
          "name": "B4",
          "midi": 71,
          "time": 236.82223125000093,
          "velocity": 1,
          "duration": 0.06355937500001119
        },
        {
          "name": "C#5",
          "midi": 73,
          "time": 236.94935000000095,
          "velocity": 1,
          "duration": 0.5084750000000042
        },
        {
          "name": "F#4",
          "midi": 66,
          "time": 237.45782500000095,
          "velocity": 1,
          "duration": 0.6355937499999982
        },
        {
          "name": "D5",
          "midi": 74,
          "time": 238.72901250000095,
          "velocity": 1,
          "duration": 0.06355937500001119
        },
        {
          "name": "C#5",
          "midi": 73,
          "time": 238.85613125000097,
          "velocity": 1,
          "duration": 0.06355937500001119
        },
        {
          "name": "D5",
          "midi": 74,
          "time": 238.983250000001,
          "velocity": 1,
          "duration": 0.06355937500001119
        },
        {
          "name": "C#5",
          "midi": 73,
          "time": 239.237487500001,
          "velocity": 1,
          "duration": 0.06355937500001119
        },
        {
          "name": "B4",
          "midi": 71,
          "time": 239.49172500000103,
          "velocity": 1,
          "duration": 0.7627124999999921
        },
        {
          "name": "D5",
          "midi": 74,
          "time": 240.76291250000102,
          "velocity": 1,
          "duration": 0.06355937500001119
        },
        {
          "name": "C#5",
          "midi": 73,
          "time": 240.89003125000104,
          "velocity": 1,
          "duration": 0.06355937500001119
        },
        {
          "name": "D5",
          "midi": 74,
          "time": 241.01715000000107,
          "velocity": 1,
          "duration": 0.5084750000000042
        },
        {
          "name": "F#4",
          "midi": 66,
          "time": 241.52562500000107,
          "velocity": 1,
          "duration": 0.5084750000000042
        },
        {
          "name": "B4",
          "midi": 71,
          "time": 242.79681250000107,
          "velocity": 1,
          "duration": 0.06355937500001119
        },
        {
          "name": "A4",
          "midi": 69,
          "time": 242.9239312500011,
          "velocity": 1,
          "duration": 0.06355937500001119
        },
        {
          "name": "B4",
          "midi": 71,
          "time": 243.0510500000011,
          "velocity": 1,
          "duration": 0.06355937500001119
        },
        {
          "name": "A4",
          "midi": 69,
          "time": 243.30528750000113,
          "velocity": 1,
          "duration": 0.06355937500001119
        },
        {
          "name": "G#4",
          "midi": 68,
          "time": 243.55952500000114,
          "velocity": 1,
          "duration": 0.06355937500001119
        },
        {
          "name": "B4",
          "midi": 71,
          "time": 243.81376250000116,
          "velocity": 1,
          "duration": 0.06355937500001119
        },
        {
          "name": "A4",
          "midi": 69,
          "time": 244.06800000000118,
          "velocity": 1,
          "duration": 0.6355937499999982
        },
        {
          "name": "G#4",
          "midi": 68,
          "time": 244.83071250000117,
          "velocity": 1,
          "duration": 0.06355937500001119
        },
        {
          "name": "A4",
          "midi": 69,
          "time": 244.9578312500012,
          "velocity": 1,
          "duration": 0.06355937500001119
        },
        {
          "name": "B4",
          "midi": 71,
          "time": 245.08495000000121,
          "velocity": 1,
          "duration": 0.7627124999999921
        },
        {
          "name": "A4",
          "midi": 69,
          "time": 245.8476625000012,
          "velocity": 1,
          "duration": 0.12711874999999395
        },
        {
          "name": "B4",
          "midi": 71,
          "time": 245.9747812500012,
          "velocity": 1,
          "duration": 0.12711874999999395
        },
        {
          "name": "C#5",
          "midi": 73,
          "time": 246.1019000000012,
          "velocity": 1,
          "duration": 0.2542374999999879
        },
        {
          "name": "B4",
          "midi": 71,
          "time": 246.35613750000118,
          "velocity": 1,
          "duration": 0.2542374999999879
        },
        {
          "name": "A4",
          "midi": 69,
          "time": 246.61037500000117,
          "velocity": 1,
          "duration": 0.2542374999999879
        },
        {
          "name": "G#4",
          "midi": 68,
          "time": 246.86461250000116,
          "velocity": 1,
          "duration": 0.2542374999999879
        },
        {
          "name": "F#4",
          "midi": 66,
          "time": 247.11885000000115,
          "velocity": 1,
          "duration": 0.5084750000000042
        },
        {
          "name": "D5",
          "midi": 74,
          "time": 247.62732500000115,
          "velocity": 1,
          "duration": 0.5084750000000042
        },
        {
          "name": "C#5",
          "midi": 73,
          "time": 248.13580000000115,
          "velocity": 1,
          "duration": 1.3983062499999903
        },
        {
          "name": "C#5",
          "midi": 73,
          "time": 249.66122500000114,
          "velocity": 1,
          "duration": 0.12711874999999395
        },
        {
          "name": "D5",
          "midi": 74,
          "time": 249.78834375000113,
          "velocity": 1,
          "duration": 0.12711874999999395
        },
        {
          "name": "C#5",
          "midi": 73,
          "time": 249.91546250000113,
          "velocity": 1,
          "duration": 0.12711874999999395
        },
        {
          "name": "B4",
          "midi": 71,
          "time": 250.04258125000112,
          "velocity": 1,
          "duration": 0.2542374999999879
        },
        {
          "name": "C#5",
          "midi": 73,
          "time": 250.16970000000111,
          "velocity": 1,
          "duration": 1.6525437500000066
        },
        {
          "name": "C#5",
          "midi": 73,
          "time": 252.96631250000112,
          "velocity": 1,
          "duration": 0.0847458333333293
        },
        {
          "name": "B4",
          "midi": 71,
          "time": 253.09343125000112,
          "velocity": 1,
          "duration": 0.06355937500001119
        },
        {
          "name": "C#5",
          "midi": 73,
          "time": 253.22055000000114,
          "velocity": 1,
          "duration": 0.3813562500000103
        },
        {
          "name": "F#4",
          "midi": 66,
          "time": 253.72902500000114,
          "velocity": 1,
          "duration": 0.5084750000000042
        },
        {
          "name": "D5",
          "midi": 74,
          "time": 255.00021250000114,
          "velocity": 1,
          "duration": 0.06355937500001119
        },
        {
          "name": "C#5",
          "midi": 73,
          "time": 255.12733125000116,
          "velocity": 1,
          "duration": 0.06355937500001119
        },
        {
          "name": "D5",
          "midi": 74,
          "time": 255.25445000000119,
          "velocity": 1,
          "duration": 0.06355937500001119
        },
        {
          "name": "C#5",
          "midi": 73,
          "time": 255.5086875000012,
          "velocity": 1,
          "duration": 0.06355937500001119
        },
        {
          "name": "B4",
          "midi": 71,
          "time": 255.76292500000122,
          "velocity": 1,
          "duration": 0.7627124999999921
        },
        {
          "name": "D5",
          "midi": 74,
          "time": 257.0341125000012,
          "velocity": 1,
          "duration": 0.06355937500001119
        },
        {
          "name": "C#5",
          "midi": 73,
          "time": 257.1612312500012,
          "velocity": 1,
          "duration": 0.06355937500001119
        },
        {
          "name": "D5",
          "midi": 74,
          "time": 257.28835000000123,
          "velocity": 1,
          "duration": 0.5084749999999758
        },
        {
          "name": "F#4",
          "midi": 66,
          "time": 257.7968250000012,
          "velocity": 1,
          "duration": 0.5084749999999758
        },
        {
          "name": "B4",
          "midi": 71,
          "time": 259.0680125000012,
          "velocity": 1,
          "duration": 0.06355937500001119
        },
        {
          "name": "A4",
          "midi": 69,
          "time": 259.1951312500012,
          "velocity": 1,
          "duration": 0.06355937500001119
        },
        {
          "name": "B4",
          "midi": 71,
          "time": 259.32225000000125,
          "velocity": 1,
          "duration": 0.06355937500001119
        },
        {
          "name": "A4",
          "midi": 69,
          "time": 259.57648750000124,
          "velocity": 1,
          "duration": 0.06355937500001119
        },
        {
          "name": "G#4",
          "midi": 68,
          "time": 259.8307250000012,
          "velocity": 1,
          "duration": 0.06355937500001119
        },
        {
          "name": "B4",
          "midi": 71,
          "time": 260.0849625000012,
          "velocity": 1,
          "duration": 0.06355937500001119
        },
        {
          "name": "A4",
          "midi": 69,
          "time": 260.3392000000012,
          "velocity": 1,
          "duration": 0.7627125000000206
        },
        {
          "name": "C#5",
          "midi": 73,
          "time": 261.1019125000012,
          "velocity": 1,
          "duration": 0.06355937500001119
        },
        {
          "name": "B4",
          "midi": 71,
          "time": 261.22903125000124,
          "velocity": 1,
          "duration": 0.06355937500001119
        },
        {
          "name": "C#5",
          "midi": 73,
          "time": 261.35615000000126,
          "velocity": 1,
          "duration": 0.5084749999999758
        },
        {
          "name": "F#4",
          "midi": 66,
          "time": 261.86462500000124,
          "velocity": 1,
          "duration": 0.6355937499999982
        },
        {
          "name": "D5",
          "midi": 74,
          "time": 263.13581250000124,
          "velocity": 1,
          "duration": 0.06355937500001119
        },
        {
          "name": "C#5",
          "midi": 73,
          "time": 263.26293125000126,
          "velocity": 1,
          "duration": 0.06355937500001119
        },
        {
          "name": "D5",
          "midi": 74,
          "time": 263.3900500000013,
          "velocity": 1,
          "duration": 0.06355937500001119
        },
        {
          "name": "C#5",
          "midi": 73,
          "time": 263.64428750000127,
          "velocity": 1,
          "duration": 0.06355937500001119
        },
        {
          "name": "B4",
          "midi": 71,
          "time": 263.89852500000126,
          "velocity": 1,
          "duration": 0.7627125000000206
        },
        {
          "name": "D5",
          "midi": 74,
          "time": 265.16971250000125,
          "velocity": 1,
          "duration": 0.06355937500001119
        },
        {
          "name": "C#5",
          "midi": 73,
          "time": 265.2968312500013,
          "velocity": 1,
          "duration": 0.06355937500001119
        },
        {
          "name": "D5",
          "midi": 74,
          "time": 265.4239500000013,
          "velocity": 1,
          "duration": 0.5084749999999758
        },
        {
          "name": "F#4",
          "midi": 66,
          "time": 265.9324250000013,
          "velocity": 1,
          "duration": 0.5084749999999758
        },
        {
          "name": "B4",
          "midi": 71,
          "time": 267.20361250000127,
          "velocity": 1,
          "duration": 0.06355937500001119
        },
        {
          "name": "A4",
          "midi": 69,
          "time": 267.3307312500013,
          "velocity": 1,
          "duration": 0.06355937500001119
        },
        {
          "name": "B4",
          "midi": 71,
          "time": 267.4578500000013,
          "velocity": 1,
          "duration": 0.06355937500001119
        },
        {
          "name": "A4",
          "midi": 69,
          "time": 267.7120875000013,
          "velocity": 1,
          "duration": 0.06355937500001119
        },
        {
          "name": "G#4",
          "midi": 68,
          "time": 267.9663250000013,
          "velocity": 1,
          "duration": 0.06355937500001119
        },
        {
          "name": "B4",
          "midi": 71,
          "time": 268.2205625000013,
          "velocity": 1,
          "duration": 0.06355937500001119
        },
        {
          "name": "A4",
          "midi": 69,
          "time": 268.47480000000127,
          "velocity": 1,
          "duration": 0.6355937499999982
        },
        {
          "name": "G#4",
          "midi": 68,
          "time": 269.2375125000013,
          "velocity": 1,
          "duration": 0.06355937500001119
        },
        {
          "name": "A4",
          "midi": 69,
          "time": 269.3646312500013,
          "velocity": 1,
          "duration": 0.06355937500001119
        },
        {
          "name": "B4",
          "midi": 71,
          "time": 269.49175000000133,
          "velocity": 1,
          "duration": 0.7627125000000206
        },
        {
          "name": "A4",
          "midi": 69,
          "time": 270.25446250000135,
          "velocity": 1,
          "duration": 0.06355937500001119
        },
        {
          "name": "B4",
          "midi": 71,
          "time": 270.3815812500014,
          "velocity": 1,
          "duration": 0.06355937500001119
        },
        {
          "name": "C#5",
          "midi": 73,
          "time": 270.5087000000014,
          "velocity": 1,
          "duration": 0.2542374999999879
        },
        {
          "name": "B4",
          "midi": 71,
          "time": 270.7629375000014,
          "velocity": 1,
          "duration": 0.2542374999999879
        },
        {
          "name": "A4",
          "midi": 69,
          "time": 271.0171750000014,
          "velocity": 1,
          "duration": 0.2542374999999879
        },
        {
          "name": "G#4",
          "midi": 68,
          "time": 271.27141250000136,
          "velocity": 1,
          "duration": 0.2542374999999879
        },
        {
          "name": "F#4",
          "midi": 66,
          "time": 271.52565000000135,
          "velocity": 1,
          "duration": 0.5084749999999758
        },
        {
          "name": "D5",
          "midi": 74,
          "time": 272.0341250000013,
          "velocity": 1,
          "duration": 0.5084749999999758
        },
        {
          "name": "C#5",
          "midi": 73,
          "time": 272.5426000000013,
          "velocity": 1,
          "duration": 1.3983062500000187
        },
        {
          "name": "C#5",
          "midi": 73,
          "time": 274.06802500000134,
          "velocity": 1,
          "duration": 0.06355937500001119
        },
        {
          "name": "D5",
          "midi": 74,
          "time": 274.19514375000136,
          "velocity": 1,
          "duration": 0.06355937500001119
        },
        {
          "name": "C#5",
          "midi": 73,
          "time": 274.3222625000014,
          "velocity": 1,
          "duration": 0.06355937500001119
        },
        {
          "name": "B4",
          "midi": 71,
          "time": 274.4493812500014,
          "velocity": 1,
          "duration": 0.25423750000004475
        },
        {
          "name": "C#5",
          "midi": 73,
          "time": 274.57650000000143,
          "velocity": 1,
          "duration": 1.6525437500000066
        },
        {
          "name": "C#5",
          "midi": 73,
          "time": 277.3731125000014,
          "velocity": 1,
          "duration": 0.0847458333333293
        },
        {
          "name": "B4",
          "midi": 71,
          "time": 277.50023125000143,
          "velocity": 1,
          "duration": 0.06355937500001119
        },
        {
          "name": "C#5",
          "midi": 73,
          "time": 277.62735000000146,
          "velocity": 1,
          "duration": 0.3813562500000103
        },
        {
          "name": "F#4",
          "midi": 66,
          "time": 278.1358250000015,
          "velocity": 1,
          "duration": 0.5084749999999758
        },
        {
          "name": "D5",
          "midi": 74,
          "time": 279.4070125000015,
          "velocity": 1,
          "duration": 0.06355937500001119
        },
        {
          "name": "C#5",
          "midi": 73,
          "time": 279.5341312500015,
          "velocity": 1,
          "duration": 0.06355937500001119
        },
        {
          "name": "D5",
          "midi": 74,
          "time": 279.66125000000153,
          "velocity": 1,
          "duration": 0.06355937500001119
        },
        {
          "name": "C#5",
          "midi": 73,
          "time": 279.9154875000015,
          "velocity": 1,
          "duration": 0.06355937500001119
        },
        {
          "name": "B4",
          "midi": 71,
          "time": 280.1697250000015,
          "velocity": 1,
          "duration": 0.7627125000000206
        },
        {
          "name": "D5",
          "midi": 74,
          "time": 281.4409125000015,
          "velocity": 1,
          "duration": 0.06355937500001119
        },
        {
          "name": "C#5",
          "midi": 73,
          "time": 281.5680312500015,
          "velocity": 1,
          "duration": 0.06355937500001119
        },
        {
          "name": "D5",
          "midi": 74,
          "time": 281.69515000000155,
          "velocity": 1,
          "duration": 0.5084749999999758
        },
        {
          "name": "F#4",
          "midi": 66,
          "time": 282.2036250000015,
          "velocity": 1,
          "duration": 0.5084749999999758
        },
        {
          "name": "B4",
          "midi": 71,
          "time": 283.4748125000015,
          "velocity": 1,
          "duration": 0.06355937500001119
        },
        {
          "name": "A4",
          "midi": 69,
          "time": 283.60193125000154,
          "velocity": 1,
          "duration": 0.06355937500001119
        },
        {
          "name": "B4",
          "midi": 71,
          "time": 283.72905000000156,
          "velocity": 1,
          "duration": 0.06355937500001119
        },
        {
          "name": "A4",
          "midi": 69,
          "time": 283.98328750000155,
          "velocity": 1,
          "duration": 0.06355937500001119
        },
        {
          "name": "G#4",
          "midi": 68,
          "time": 284.23752500000154,
          "velocity": 1,
          "duration": 0.06355937500001119
        },
        {
          "name": "B4",
          "midi": 71,
          "time": 284.4917625000015,
          "velocity": 1,
          "duration": 0.06355937500001119
        },
        {
          "name": "A4",
          "midi": 69,
          "time": 284.7460000000015,
          "velocity": 1,
          "duration": 0.7627125000000206
        },
        {
          "name": "C#5",
          "midi": 73,
          "time": 285.50871250000154,
          "velocity": 1,
          "duration": 0.06355937500001119
        },
        {
          "name": "B4",
          "midi": 71,
          "time": 285.63583125000156,
          "velocity": 1,
          "duration": 0.06355937500001119
        },
        {
          "name": "C#5",
          "midi": 73,
          "time": 285.7629500000016,
          "velocity": 1,
          "duration": 0.5084749999999758
        },
        {
          "name": "F#4",
          "midi": 66,
          "time": 286.27142500000156,
          "velocity": 1,
          "duration": 0.6355937499999982
        },
        {
          "name": "D5",
          "midi": 74,
          "time": 287.54261250000155,
          "velocity": 1,
          "duration": 0.06355937500001119
        },
        {
          "name": "C#5",
          "midi": 73,
          "time": 287.6697312500016,
          "velocity": 1,
          "duration": 0.06355937500001119
        },
        {
          "name": "D5",
          "midi": 74,
          "time": 287.7968500000016,
          "velocity": 1,
          "duration": 0.06355937500001119
        },
        {
          "name": "C#5",
          "midi": 73,
          "time": 288.0510875000016,
          "velocity": 1,
          "duration": 0.06355937500001119
        },
        {
          "name": "B4",
          "midi": 71,
          "time": 288.3053250000016,
          "velocity": 1,
          "duration": 0.7627125000000206
        },
        {
          "name": "D5",
          "midi": 74,
          "time": 289.57651250000157,
          "velocity": 1,
          "duration": 0.06355937500001119
        },
        {
          "name": "C#5",
          "midi": 73,
          "time": 289.7036312500016,
          "velocity": 1,
          "duration": 0.06355937500001119
        },
        {
          "name": "D5",
          "midi": 74,
          "time": 289.8307500000016,
          "velocity": 1,
          "duration": 0.5084749999999758
        },
        {
          "name": "F#4",
          "midi": 66,
          "time": 290.3392250000016,
          "velocity": 1,
          "duration": 0.5084749999999758
        },
        {
          "name": "B4",
          "midi": 71,
          "time": 291.6104125000016,
          "velocity": 1,
          "duration": 0.06355937500001119
        },
        {
          "name": "A4",
          "midi": 69,
          "time": 291.7375312500016,
          "velocity": 1,
          "duration": 0.06355937500001119
        },
        {
          "name": "B4",
          "midi": 71,
          "time": 291.86465000000163,
          "velocity": 1,
          "duration": 0.06355937500001119
        },
        {
          "name": "A4",
          "midi": 69,
          "time": 292.1188875000016,
          "velocity": 1,
          "duration": 0.06355937500001119
        },
        {
          "name": "G#4",
          "midi": 68,
          "time": 292.3731250000016,
          "velocity": 1,
          "duration": 0.06355937500001119
        },
        {
          "name": "B4",
          "midi": 71,
          "time": 292.6273625000016,
          "velocity": 1,
          "duration": 0.06355937500001119
        },
        {
          "name": "A4",
          "midi": 69,
          "time": 292.8816000000016,
          "velocity": 1,
          "duration": 0.6355937499999982
        },
        {
          "name": "G#4",
          "midi": 68,
          "time": 293.6443125000016,
          "velocity": 1,
          "duration": 0.06355937500001119
        },
        {
          "name": "A4",
          "midi": 69,
          "time": 293.7714312500016,
          "velocity": 1,
          "duration": 0.06355937500001119
        },
        {
          "name": "B4",
          "midi": 71,
          "time": 293.89855000000165,
          "velocity": 1,
          "duration": 0.7627125000000206
        },
        {
          "name": "A4",
          "midi": 69,
          "time": 294.66126250000167,
          "velocity": 1,
          "duration": 0.06355937500001119
        },
        {
          "name": "B4",
          "midi": 71,
          "time": 294.7883812500017,
          "velocity": 1,
          "duration": 0.06355937500001119
        },
        {
          "name": "C#5",
          "midi": 73,
          "time": 294.9155000000017,
          "velocity": 1,
          "duration": 0.2542374999999879
        },
        {
          "name": "B4",
          "midi": 71,
          "time": 295.1697375000017,
          "velocity": 1,
          "duration": 0.2542374999999879
        },
        {
          "name": "A4",
          "midi": 69,
          "time": 295.4239750000017,
          "velocity": 1,
          "duration": 0.2542374999999879
        },
        {
          "name": "G#4",
          "midi": 68,
          "time": 295.6782125000017,
          "velocity": 1,
          "duration": 0.2542374999999879
        },
        {
          "name": "F#4",
          "midi": 66,
          "time": 295.93245000000167,
          "velocity": 1,
          "duration": 0.5084749999999758
        },
        {
          "name": "D5",
          "midi": 74,
          "time": 296.44092500000164,
          "velocity": 1,
          "duration": 0.5084749999999758
        },
        {
          "name": "C#5",
          "midi": 73,
          "time": 296.9494000000016,
          "velocity": 1,
          "duration": 1.3983062500000187
        },
        {
          "name": "C#5",
          "midi": 73,
          "time": 298.98330000000163,
          "velocity": 1,
          "duration": 1.6525437500000066
        },
        {
          "name": "C#5",
          "midi": 73,
          "time": 301.7799125000016,
          "velocity": 1,
          "duration": 0.0847458333333293
        },
        {
          "name": "B4",
          "midi": 71,
          "time": 301.90703125000164,
          "velocity": 1,
          "duration": 0.06355937500001119
        },
        {
          "name": "C#5",
          "midi": 73,
          "time": 302.03415000000166,
          "velocity": 1,
          "duration": 0.3813562500000103
        },
        {
          "name": "F#4",
          "midi": 66,
          "time": 302.5426250000017,
          "velocity": 1,
          "duration": 0.5084749999999758
        },
        {
          "name": "D5",
          "midi": 74,
          "time": 303.8138125000017,
          "velocity": 1,
          "duration": 0.06355937500001119
        },
        {
          "name": "C#5",
          "midi": 73,
          "time": 303.9409312500017,
          "velocity": 1,
          "duration": 0.06355937500001119
        },
        {
          "name": "D5",
          "midi": 74,
          "time": 304.06805000000173,
          "velocity": 1,
          "duration": 0.06355937500001119
        },
        {
          "name": "C#5",
          "midi": 73,
          "time": 304.3222875000017,
          "velocity": 1,
          "duration": 0.06355937500001119
        },
        {
          "name": "B4",
          "midi": 71,
          "time": 304.5765250000017,
          "velocity": 1,
          "duration": 0.7627125000000206
        },
        {
          "name": "D5",
          "midi": 74,
          "time": 305.8477125000017,
          "velocity": 1,
          "duration": 0.06355937500001119
        },
        {
          "name": "C#5",
          "midi": 73,
          "time": 305.9748312500017,
          "velocity": 1,
          "duration": 0.06355937500001119
        },
        {
          "name": "D5",
          "midi": 74,
          "time": 306.10195000000175,
          "velocity": 1,
          "duration": 0.5084749999999758
        },
        {
          "name": "F#4",
          "midi": 66,
          "time": 306.6104250000017,
          "velocity": 1,
          "duration": 0.5084749999999758
        },
        {
          "name": "B4",
          "midi": 71,
          "time": 307.8816125000017,
          "velocity": 1,
          "duration": 0.06355937500001119
        },
        {
          "name": "A4",
          "midi": 69,
          "time": 308.00873125000174,
          "velocity": 1,
          "duration": 0.06355937500001119
        },
        {
          "name": "B4",
          "midi": 71,
          "time": 308.13585000000177,
          "velocity": 1,
          "duration": 0.06355937500001119
        },
        {
          "name": "A4",
          "midi": 69,
          "time": 308.39008750000175,
          "velocity": 1,
          "duration": 0.06355937500001119
        },
        {
          "name": "G#4",
          "midi": 68,
          "time": 308.64432500000174,
          "velocity": 1,
          "duration": 0.06355937500001119
        },
        {
          "name": "B4",
          "midi": 71,
          "time": 308.89856250000173,
          "velocity": 1,
          "duration": 0.06355937500001119
        },
        {
          "name": "A4",
          "midi": 69,
          "time": 309.1528000000017,
          "velocity": 1,
          "duration": 0.7627125000000206
        },
        {
          "name": "C#5",
          "midi": 73,
          "time": 309.91551250000174,
          "velocity": 1,
          "duration": 0.06355937500001119
        },
        {
          "name": "B4",
          "midi": 71,
          "time": 310.04263125000176,
          "velocity": 1,
          "duration": 0.06355937500001119
        },
        {
          "name": "C#5",
          "midi": 73,
          "time": 310.1697500000018,
          "velocity": 1,
          "duration": 0.5084749999999758
        },
        {
          "name": "F#4",
          "midi": 66,
          "time": 310.67822500000176,
          "velocity": 1,
          "duration": 0.6355937499999982
        },
        {
          "name": "D5",
          "midi": 74,
          "time": 311.94941250000176,
          "velocity": 1,
          "duration": 0.06355937500001119
        },
        {
          "name": "C#5",
          "midi": 73,
          "time": 312.0765312500018,
          "velocity": 1,
          "duration": 0.06355937500001119
        },
        {
          "name": "D5",
          "midi": 74,
          "time": 312.2036500000018,
          "velocity": 1,
          "duration": 0.06355937500001119
        },
        {
          "name": "C#5",
          "midi": 73,
          "time": 312.4578875000018,
          "velocity": 1,
          "duration": 0.06355937500001119
        },
        {
          "name": "B4",
          "midi": 71,
          "time": 312.7121250000018,
          "velocity": 1,
          "duration": 0.7627125000000206
        },
        {
          "name": "D5",
          "midi": 74,
          "time": 313.9833125000018,
          "velocity": 1,
          "duration": 0.06355937500001119
        },
        {
          "name": "C#5",
          "midi": 73,
          "time": 314.1104312500018,
          "velocity": 1,
          "duration": 0.06355937500001119
        },
        {
          "name": "D5",
          "midi": 74,
          "time": 314.2375500000018,
          "velocity": 1,
          "duration": 0.5084749999999758
        },
        {
          "name": "F#4",
          "midi": 66,
          "time": 314.7460250000018,
          "velocity": 1,
          "duration": 0.5084749999999758
        },
        {
          "name": "B4",
          "midi": 71,
          "time": 316.0172125000018,
          "velocity": 1,
          "duration": 0.06355937500001119
        },
        {
          "name": "A4",
          "midi": 69,
          "time": 316.1443312500018,
          "velocity": 1,
          "duration": 0.06355937500001119
        },
        {
          "name": "B4",
          "midi": 71,
          "time": 316.27145000000183,
          "velocity": 1,
          "duration": 0.06355937500001119
        },
        {
          "name": "A4",
          "midi": 69,
          "time": 316.5256875000018,
          "velocity": 1,
          "duration": 0.06355937500001119
        },
        {
          "name": "G#4",
          "midi": 68,
          "time": 316.7799250000018,
          "velocity": 1,
          "duration": 0.06355937500001119
        },
        {
          "name": "B4",
          "midi": 71,
          "time": 317.0341625000018,
          "velocity": 1,
          "duration": 0.06355937500001119
        },
        {
          "name": "A4",
          "midi": 69,
          "time": 317.2884000000018,
          "velocity": 1,
          "duration": 0.6355937499999982
        },
        {
          "name": "G#4",
          "midi": 68,
          "time": 318.0511125000018,
          "velocity": 1,
          "duration": 0.06355937500001119
        },
        {
          "name": "A4",
          "midi": 69,
          "time": 318.17823125000183,
          "velocity": 1,
          "duration": 0.06355937500001119
        },
        {
          "name": "B4",
          "midi": 71,
          "time": 318.30535000000185,
          "velocity": 1,
          "duration": 0.7627125000000206
        },
        {
          "name": "A4",
          "midi": 69,
          "time": 319.0680625000019,
          "velocity": 1,
          "duration": 0.06355937500001119
        },
        {
          "name": "B4",
          "midi": 71,
          "time": 319.1951812500019,
          "velocity": 1,
          "duration": 0.06355937500001119
        },
        {
          "name": "C#5",
          "midi": 73,
          "time": 319.3223000000019,
          "velocity": 1,
          "duration": 0.2542374999999879
        },
        {
          "name": "B4",
          "midi": 71,
          "time": 319.5765375000019,
          "velocity": 1,
          "duration": 0.2542374999999879
        },
        {
          "name": "A4",
          "midi": 69,
          "time": 319.8307750000019,
          "velocity": 1,
          "duration": 0.2542374999999879
        },
        {
          "name": "G#4",
          "midi": 68,
          "time": 320.0850125000019,
          "velocity": 1,
          "duration": 0.2542374999999879
        },
        {
          "name": "F#4",
          "midi": 66,
          "time": 320.33925000000187,
          "velocity": 1,
          "duration": 0.5084749999999758
        },
        {
          "name": "D5",
          "midi": 74,
          "time": 320.84772500000184,
          "velocity": 1,
          "duration": 0.5084749999999758
        },
        {
          "name": "C#5",
          "midi": 73,
          "time": 321.3562000000018,
          "velocity": 1,
          "duration": 1.3983062500000187
        },
        {
          "name": "C#5",
          "midi": 73,
          "time": 323.39010000000184,
          "velocity": 1,
          "duration": 1.6525437500000066
        }
      ],
      "controlChanges": {
        "7": [
          {
            "number": 7,
            "time": 0.5423733333333334,
            "value": 1
          },
          {
            "number": 7,
            "time": 1.7118658333333334,
            "value": 1
          }
        ],
        "91": [
          {
            "number": 91,
            "time": 1.0508483333333334,
            "value": 1
          }
        ],
        "93": [
          {
            "number": 93,
            "time": 0.5677970833333333,
            "value": 1
          }
        ]
      },
      "id": 2,
      "name": "leadbrass",
      "instrumentNumber": 62,
      "instrument": "synthbrass 1",
      "instrumentFamily": "brass",
      "channelNumber": 1,
      "isPercussion": false
    },
    {
      "startTime": 4.084749166666667,
      "duration": 243.98325416666668,
      "length": 46,
      "notes": [
        {
          "name": "B1",
          "midi": 35,
          "time": 4.084749166666667,
          "velocity": 1,
          "duration": 2.012713541666665
        },
        {
          "name": "B1",
          "midi": 35,
          "time": 6.118649166666665,
          "velocity": 1,
          "duration": 2.012713541666666
        },
        {
          "name": "B1",
          "midi": 35,
          "time": 8.152549166666665,
          "velocity": 1,
          "duration": 2.0127135416666686
        },
        {
          "name": "B1",
          "midi": 35,
          "time": 10.186449166666668,
          "velocity": 1,
          "duration": 2.0127135416666686
        },
        {
          "name": "F#4",
          "midi": 66,
          "time": 26.466123750000005,
          "velocity": 1,
          "duration": 2.0296627083333334
        },
        {
          "name": "F#4",
          "midi": 66,
          "time": 28.47883729166667,
          "velocity": 1,
          "duration": 1.5550860416666659
        },
        {
          "name": "E4",
          "midi": 64,
          "time": 30.01697416666667,
          "velocity": 1,
          "duration": 0.529661458333333
        },
        {
          "name": "D4",
          "midi": 62,
          "time": 30.546635625000004,
          "velocity": 1,
          "duration": 1.9915270833333345
        },
        {
          "name": "B3",
          "midi": 59,
          "time": 32.56782375,
          "velocity": 1,
          "duration": 1.3686452083333336
        },
        {
          "name": "C#4",
          "midi": 61,
          "time": 33.89409604166667,
          "velocity": 1,
          "duration": 0.4025427083333284
        },
        {
          "name": "D4",
          "midi": 62,
          "time": 34.266977708333336,
          "velocity": 1,
          "duration": 0.3050849999999983
        },
        {
          "name": "C#4",
          "midi": 61,
          "time": 34.572062708333334,
          "velocity": 1,
          "duration": 1.0508483333333345
        },
        {
          "name": "B3",
          "midi": 59,
          "time": 35.63562291666667,
          "velocity": 1,
          "duration": 0.8813566666666688
        },
        {
          "name": "F#4",
          "midi": 66,
          "time": 36.61443729166667,
          "velocity": 1,
          "duration": 1.5550860416666694
        },
        {
          "name": "E4",
          "midi": 64,
          "time": 38.15257416666667,
          "velocity": 1,
          "duration": 0.5296614583333366
        },
        {
          "name": "D4",
          "midi": 62,
          "time": 38.682235625000004,
          "velocity": 1,
          "duration": 1.991527083333331
        },
        {
          "name": "B3",
          "midi": 59,
          "time": 40.70342375,
          "velocity": 1,
          "duration": 1.3686452083333336
        },
        {
          "name": "C#4",
          "midi": 61,
          "time": 42.02969604166667,
          "velocity": 1,
          "duration": 0.4025427083333284
        },
        {
          "name": "D4",
          "midi": 62,
          "time": 42.40257770833333,
          "velocity": 1,
          "duration": 0.3050849999999983
        },
        {
          "name": "C#4",
          "midi": 61,
          "time": 42.70766270833333,
          "velocity": 1,
          "duration": 1.0508483333333345
        },
        {
          "name": "B3",
          "midi": 59,
          "time": 43.771222916666666,
          "velocity": 1,
          "duration": 0.8813566666666688
        },
        {
          "name": "C#4",
          "midi": 61,
          "time": 44.754274583333334,
          "velocity": 1,
          "duration": 0.9449160416666658
        },
        {
          "name": "F#4",
          "midi": 66,
          "time": 45.77969916666667,
          "velocity": 1,
          "duration": 0.12711875000000106
        },
        {
          "name": "E4",
          "midi": 64,
          "time": 46.01275020833334,
          "velocity": 1,
          "duration": 0.13983062500000187
        },
        {
          "name": "D4",
          "midi": 62,
          "time": 46.27969958333334,
          "velocity": 1,
          "duration": 0.12711875000000106
        },
        {
          "name": "B3",
          "midi": 59,
          "time": 46.51698791666667,
          "velocity": 1,
          "duration": 0.11440687500000024
        },
        {
          "name": "C#4",
          "midi": 61,
          "time": 46.792411875000006,
          "velocity": 1,
          "duration": 0.9576279166666666
        },
        {
          "name": "F#4",
          "midi": 66,
          "time": 47.775463541666674,
          "velocity": 1,
          "duration": 0.08898312499999861
        },
        {
          "name": "E4",
          "midi": 64,
          "time": 48.03817562500001,
          "velocity": 1,
          "duration": 0.12711875000000106
        },
        {
          "name": "D4",
          "midi": 62,
          "time": 48.30936229166667,
          "velocity": 1,
          "duration": 0.12711875000000106
        },
        {
          "name": "B3",
          "midi": 59,
          "time": 48.559362500000006,
          "velocity": 1,
          "duration": 0.12288145833333175
        },
        {
          "name": "C#4",
          "midi": 61,
          "time": 48.82207458333334,
          "velocity": 1,
          "duration": 1.9661033333333364
        },
        {
          "name": "F4",
          "midi": 65,
          "time": 50.82207625000001,
          "velocity": 1,
          "duration": 1.8983066666666701
        },
        {
          "name": "E5",
          "midi": 76,
          "time": 115.93230000000001,
          "velocity": 1,
          "duration": 2.0296627083333334
        },
        {
          "name": "E5",
          "midi": 76,
          "time": 164.7459,
          "velocity": 1,
          "duration": 2.029662708333319
        },
        {
          "name": "F#4",
          "midi": 66,
          "time": 235.93663729166667,
          "velocity": 1,
          "duration": 0.8771193750000066
        },
        {
          "name": "F#4",
          "midi": 66,
          "time": 236.91121437500001,
          "velocity": 1,
          "duration": 0.36016979166666374
        },
        {
          "name": "G#4",
          "midi": 68,
          "time": 237.30104520833333,
          "velocity": 1,
          "duration": 0.3347460416666763
        },
        {
          "name": "A4",
          "midi": 69,
          "time": 237.66968958333334,
          "velocity": 1,
          "duration": 0.2415256250000084
        },
        {
          "name": "D5",
          "midi": 74,
          "time": 237.91121520833335,
          "velocity": 1,
          "duration": 2.0508491666666657
        },
        {
          "name": "B4",
          "midi": 71,
          "time": 239.99596270833334,
          "velocity": 1,
          "duration": 0.8855939583333452
        },
        {
          "name": "B4",
          "midi": 71,
          "time": 241.004438125,
          "velocity": 1,
          "duration": 0.4194918750000056
        },
        {
          "name": "C#5",
          "midi": 73,
          "time": 241.36884520833334,
          "velocity": 1,
          "duration": 0.37711895833334097
        },
        {
          "name": "D5",
          "midi": 74,
          "time": 241.741726875,
          "velocity": 1,
          "duration": 0.28813583333334236
        },
        {
          "name": "C#5",
          "midi": 73,
          "time": 242.05952375,
          "velocity": 1,
          "duration": 0.9703397916666745
        },
        {
          "name": "B4",
          "midi": 71,
          "time": 243.063761875,
          "velocity": 1,
          "duration": 0.9194922916666712
        }
      ],
      "controlChanges": {
        "6": [
          {
            "number": 6,
            "time": 0.6186445833333333,
            "value": 0.05511811023622047
          }
        ],
        "7": [
          {
            "number": 7,
            "time": 0.5635597916666667,
            "value": 1
          },
          {
            "number": 7,
            "time": 1.7033912500000001,
            "value": 1
          }
        ],
        "91": [
          {
            "number": 91,
            "time": 1.0593229166666667,
            "value": 1
          }
        ],
        "100": [
          {
            "number": 100,
            "time": 0.61017,
            "value": 0
          }
        ],
        "101": [
          {
            "number": 101,
            "time": 0.6016954166666667,
            "value": 0
          }
        ]
      },
      "id": 3,
      "name": "underbrass",
      "instrumentNumber": 62,
      "instrument": "synthbrass 1",
      "instrumentFamily": "brass",
      "channelNumber": 2,
      "isPercussion": false
    },
    {
      "startTime": 28.4746,
      "duration": 252.2120745833335,
      "length": 78,
      "notes": [
        {
          "name": "A4",
          "midi": 69,
          "time": 28.4746,
          "velocity": 0.6299212598425197,
          "duration": 2.0296627083333334
        },
        {
          "name": "C#5",
          "midi": 73,
          "time": 28.4746,
          "velocity": 0.6299212598425197,
          "duration": 2.0296627083333334
        },
        {
          "name": "F#4",
          "midi": 66,
          "time": 28.4746,
          "velocity": 0.6299212598425197,
          "duration": 2.0296627083333334
        },
        {
          "name": "D5",
          "midi": 74,
          "time": 30.508499999999998,
          "velocity": 0.6299212598425197,
          "duration": 2.0296627083333334
        },
        {
          "name": "A4",
          "midi": 69,
          "time": 30.508499999999998,
          "velocity": 0.6299212598425197,
          "duration": 2.0296627083333334
        },
        {
          "name": "F#4",
          "midi": 66,
          "time": 30.508499999999998,
          "velocity": 0.6299212598425197,
          "duration": 2.0296627083333334
        },
        {
          "name": "D5",
          "midi": 74,
          "time": 32.5424,
          "velocity": 0.6299212598425197,
          "duration": 2.0296627083333334
        },
        {
          "name": "F#4",
          "midi": 66,
          "time": 32.5424,
          "velocity": 0.6299212598425197,
          "duration": 2.0296627083333334
        },
        {
          "name": "B4",
          "midi": 71,
          "time": 32.5424,
          "velocity": 0.6299212598425197,
          "duration": 2.0296627083333334
        },
        {
          "name": "G#4",
          "midi": 68,
          "time": 34.5763,
          "velocity": 0.6299212598425197,
          "duration": 1.012712708333332
        },
        {
          "name": "E4",
          "midi": 64,
          "time": 34.5763,
          "velocity": 0.6299212598425197,
          "duration": 1.012712708333332
        },
        {
          "name": "B4",
          "midi": 71,
          "time": 34.5763,
          "velocity": 0.6299212598425197,
          "duration": 1.012712708333332
        },
        {
          "name": "G#4",
          "midi": 68,
          "time": 35.593250000000005,
          "velocity": 0.6299212598425197,
          "duration": 1.012712708333332
        },
        {
          "name": "B4",
          "midi": 71,
          "time": 35.593250000000005,
          "velocity": 0.6299212598425197,
          "duration": 1.012712708333332
        },
        {
          "name": "F4",
          "midi": 65,
          "time": 35.593250000000005,
          "velocity": 0.6299212598425197,
          "duration": 1.012712708333332
        },
        {
          "name": "A4",
          "midi": 69,
          "time": 36.610200000000006,
          "velocity": 0.6299212598425197,
          "duration": 2.0296627083333334
        },
        {
          "name": "C#5",
          "midi": 73,
          "time": 36.610200000000006,
          "velocity": 0.6299212598425197,
          "duration": 2.0296627083333334
        },
        {
          "name": "F#4",
          "midi": 66,
          "time": 36.610200000000006,
          "velocity": 0.6299212598425197,
          "duration": 2.0296627083333334
        },
        {
          "name": "D5",
          "midi": 74,
          "time": 38.64410000000001,
          "velocity": 0.6299212598425197,
          "duration": 2.0296627083333334
        },
        {
          "name": "A4",
          "midi": 69,
          "time": 38.64410000000001,
          "velocity": 0.6299212598425197,
          "duration": 2.0296627083333334
        },
        {
          "name": "F#4",
          "midi": 66,
          "time": 38.64410000000001,
          "velocity": 0.6299212598425197,
          "duration": 2.0296627083333334
        },
        {
          "name": "D5",
          "midi": 74,
          "time": 40.67800000000001,
          "velocity": 0.6299212598425197,
          "duration": 2.0296627083333334
        },
        {
          "name": "F#4",
          "midi": 66,
          "time": 40.67800000000001,
          "velocity": 0.6299212598425197,
          "duration": 2.0296627083333334
        },
        {
          "name": "B4",
          "midi": 71,
          "time": 40.67800000000001,
          "velocity": 0.6299212598425197,
          "duration": 2.0296627083333334
        },
        {
          "name": "G#4",
          "midi": 68,
          "time": 42.711900000000014,
          "velocity": 0.6299212598425197,
          "duration": 1.012712708333332
        },
        {
          "name": "E4",
          "midi": 64,
          "time": 42.711900000000014,
          "velocity": 0.6299212598425197,
          "duration": 1.012712708333332
        },
        {
          "name": "B4",
          "midi": 71,
          "time": 42.711900000000014,
          "velocity": 0.6299212598425197,
          "duration": 1.012712708333332
        },
        {
          "name": "G#4",
          "midi": 68,
          "time": 43.728850000000016,
          "velocity": 0.6299212598425197,
          "duration": 1.012712708333332
        },
        {
          "name": "B4",
          "midi": 71,
          "time": 43.728850000000016,
          "velocity": 0.6299212598425197,
          "duration": 1.012712708333332
        },
        {
          "name": "F4",
          "midi": 65,
          "time": 43.728850000000016,
          "velocity": 0.6299212598425197,
          "duration": 1.012712708333332
        },
        {
          "name": "C#5",
          "midi": 73,
          "time": 44.74580000000002,
          "velocity": 0.6299212598425197,
          "duration": 1.012712708333332
        },
        {
          "name": "F#4",
          "midi": 66,
          "time": 44.74580000000002,
          "velocity": 0.6299212598425197,
          "duration": 1.012712708333332
        },
        {
          "name": "A4",
          "midi": 69,
          "time": 44.74580000000002,
          "velocity": 0.6299212598425197,
          "duration": 1.012712708333332
        },
        {
          "name": "G#4",
          "midi": 68,
          "time": 45.76275000000002,
          "velocity": 0.6299212598425197,
          "duration": 1.012712708333332
        },
        {
          "name": "E5",
          "midi": 76,
          "time": 45.76275000000002,
          "velocity": 0.6299212598425197,
          "duration": 1.012712708333332
        },
        {
          "name": "B4",
          "midi": 71,
          "time": 45.76275000000002,
          "velocity": 0.6299212598425197,
          "duration": 1.012712708333332
        },
        {
          "name": "E5",
          "midi": 76,
          "time": 46.77970000000002,
          "velocity": 0.6299212598425197,
          "duration": 1.012712708333332
        },
        {
          "name": "C#5",
          "midi": 73,
          "time": 46.77970000000002,
          "velocity": 0.6299212598425197,
          "duration": 1.012712708333332
        },
        {
          "name": "A4",
          "midi": 69,
          "time": 46.77970000000002,
          "velocity": 0.6299212598425197,
          "duration": 1.012712708333332
        },
        {
          "name": "D5",
          "midi": 74,
          "time": 47.79665000000002,
          "velocity": 0.6299212598425197,
          "duration": 1.012712708333332
        },
        {
          "name": "F#4",
          "midi": 66,
          "time": 47.79665000000002,
          "velocity": 0.6299212598425197,
          "duration": 1.012712708333332
        },
        {
          "name": "A4",
          "midi": 69,
          "time": 47.79665000000002,
          "velocity": 0.6299212598425197,
          "duration": 1.012712708333332
        },
        {
          "name": "F#4",
          "midi": 66,
          "time": 48.81360000000002,
          "velocity": 0.6299212598425197,
          "duration": 2.0296627083333334
        },
        {
          "name": "G#4",
          "midi": 68,
          "time": 48.81360000000002,
          "velocity": 0.6299212598425197,
          "duration": 2.0296627083333334
        },
        {
          "name": "C#5",
          "midi": 73,
          "time": 48.81360000000002,
          "velocity": 0.6299212598425197,
          "duration": 2.0296627083333334
        },
        {
          "name": "F4",
          "midi": 65,
          "time": 50.847500000000025,
          "velocity": 0.6299212598425197,
          "duration": 2.0296627083333334
        },
        {
          "name": "G#4",
          "midi": 68,
          "time": 50.847500000000025,
          "velocity": 0.6299212598425197,
          "duration": 2.0296627083333334
        },
        {
          "name": "C#5",
          "midi": 73,
          "time": 50.847500000000025,
          "velocity": 0.6299212598425197,
          "duration": 2.0296627083333334
        },
        {
          "name": "F#4",
          "midi": 66,
          "time": 235.94511187500007,
          "velocity": 0.6299212598425197,
          "duration": 2.029662708333319
        },
        {
          "name": "C#5",
          "midi": 73,
          "time": 235.94511187500007,
          "velocity": 0.6299212598425197,
          "duration": 2.029662708333319
        },
        {
          "name": "A4",
          "midi": 69,
          "time": 235.94511187500007,
          "velocity": 0.6299212598425197,
          "duration": 2.029662708333319
        },
        {
          "name": "F#4",
          "midi": 66,
          "time": 237.97901187500005,
          "velocity": 0.6299212598425197,
          "duration": 2.0296627083333476
        },
        {
          "name": "A4",
          "midi": 69,
          "time": 237.97901187500005,
          "velocity": 0.6299212598425197,
          "duration": 2.0296627083333476
        },
        {
          "name": "D5",
          "midi": 74,
          "time": 237.97901187500005,
          "velocity": 0.6299212598425197,
          "duration": 2.0296627083333476
        },
        {
          "name": "F#4",
          "midi": 66,
          "time": 240.01291187500007,
          "velocity": 0.6299212598425197,
          "duration": 2.0296627083333476
        },
        {
          "name": "D5",
          "midi": 74,
          "time": 240.01291187500007,
          "velocity": 0.6299212598425197,
          "duration": 2.0296627083333476
        },
        {
          "name": "B4",
          "midi": 71,
          "time": 240.01291187500007,
          "velocity": 0.6299212598425197,
          "duration": 2.0296627083333476
        },
        {
          "name": "G#4",
          "midi": 68,
          "time": 242.0468118750001,
          "velocity": 0.6299212598425197,
          "duration": 2.0296627083333476
        },
        {
          "name": "B4",
          "midi": 71,
          "time": 242.0468118750001,
          "velocity": 0.6299212598425197,
          "duration": 2.0296627083333476
        },
        {
          "name": "E4",
          "midi": 64,
          "time": 242.0468118750001,
          "velocity": 0.6299212598425197,
          "duration": 2.0296627083333476
        },
        {
          "name": "C#5",
          "midi": 73,
          "time": 244.0807118750001,
          "velocity": 0.6299212598425197,
          "duration": 1.0127127083333392
        },
        {
          "name": "F#4",
          "midi": 66,
          "time": 244.0807118750001,
          "velocity": 0.6299212598425197,
          "duration": 1.0127127083333392
        },
        {
          "name": "A4",
          "midi": 69,
          "time": 244.0807118750001,
          "velocity": 0.6299212598425197,
          "duration": 1.0127127083333392
        },
        {
          "name": "G#4",
          "midi": 68,
          "time": 245.0976618750001,
          "velocity": 0.6299212598425197,
          "duration": 1.0127127083333392
        },
        {
          "name": "E5",
          "midi": 76,
          "time": 245.0976618750001,
          "velocity": 0.6299212598425197,
          "duration": 1.0127127083333392
        },
        {
          "name": "B4",
          "midi": 71,
          "time": 245.0976618750001,
          "velocity": 0.6299212598425197,
          "duration": 1.0127127083333392
        },
        {
          "name": "E5",
          "midi": 76,
          "time": 246.11461187500012,
          "velocity": 0.6299212598425197,
          "duration": 1.0127127083333392
        },
        {
          "name": "C#5",
          "midi": 73,
          "time": 246.11461187500012,
          "velocity": 0.6299212598425197,
          "duration": 1.0127127083333392
        },
        {
          "name": "A4",
          "midi": 69,
          "time": 246.11461187500012,
          "velocity": 0.6299212598425197,
          "duration": 1.0127127083333392
        },
        {
          "name": "D5",
          "midi": 74,
          "time": 247.13156187500013,
          "velocity": 0.6299212598425197,
          "duration": 1.0127127083333392
        },
        {
          "name": "F#4",
          "midi": 66,
          "time": 247.13156187500013,
          "velocity": 0.6299212598425197,
          "duration": 1.0127127083333392
        },
        {
          "name": "A4",
          "midi": 69,
          "time": 247.13156187500013,
          "velocity": 0.6299212598425197,
          "duration": 1.0127127083333392
        },
        {
          "name": "F#5",
          "midi": 78,
          "time": 248.14851187500014,
          "velocity": 0.6299212598425197,
          "duration": 2.0296627083333476
        },
        {
          "name": "G#4",
          "midi": 68,
          "time": 248.14851187500014,
          "velocity": 0.6299212598425197,
          "duration": 2.0296627083333476
        },
        {
          "name": "C#5",
          "midi": 73,
          "time": 248.14851187500014,
          "velocity": 0.6299212598425197,
          "duration": 2.0296627083333476
        },
        {
          "name": "G#4",
          "midi": 68,
          "time": 250.18241187500016,
          "velocity": 0.6299212598425197,
          "duration": 2.0296627083333476
        },
        {
          "name": "F5",
          "midi": 77,
          "time": 250.18241187500016,
          "velocity": 0.6299212598425197,
          "duration": 2.0296627083333476
        },
        {
          "name": "C#5",
          "midi": 73,
          "time": 250.18241187500016,
          "velocity": 0.6299212598425197,
          "duration": 2.0296627083333476
        }
      ],
      "controlChanges": {
        "7": [
          {
            "number": 7,
            "time": 0.58474625,
            "value": 1
          },
          {
            "number": 7,
            "time": 1.6949166666666666,
            "value": 1
          }
        ],
        "91": [
          {
            "number": 91,
            "time": 1.0677975,
            "value": 1
          }
        ],
        "93": [
          {
            "number": 93,
            "time": 0.5508479166666667,
            "value": 1
          }
        ]
      },
      "id": 4,
      "name": "organ",
      "instrumentNumber": 19,
      "instrument": "church organ",
      "instrumentFamily": "organ",
      "channelNumber": 3,
      "isPercussion": false
    },
    {
      "startTime": 12.203399999999998,
      "duration": 325.41976270833254,
      "length": 519,
      "notes": [
        {
          "name": "A4",
          "midi": 69,
          "time": 12.203399999999998,
          "velocity": 0.7874015748031497,
          "duration": 2.0296627083333334
        },
        {
          "name": "C#5",
          "midi": 73,
          "time": 12.203399999999998,
          "velocity": 0.7874015748031497,
          "duration": 2.0296627083333334
        },
        {
          "name": "F#4",
          "midi": 66,
          "time": 12.203399999999998,
          "velocity": 0.7874015748031497,
          "duration": 2.0296627083333334
        },
        {
          "name": "D5",
          "midi": 74,
          "time": 14.2373,
          "velocity": 0.7874015748031497,
          "duration": 2.0296627083333316
        },
        {
          "name": "A4",
          "midi": 69,
          "time": 14.2373,
          "velocity": 0.7874015748031497,
          "duration": 2.0296627083333316
        },
        {
          "name": "F#4",
          "midi": 66,
          "time": 14.2373,
          "velocity": 0.7874015748031497,
          "duration": 2.0296627083333316
        },
        {
          "name": "D5",
          "midi": 74,
          "time": 16.271199999999997,
          "velocity": 0.7874015748031497,
          "duration": 2.0296627083333334
        },
        {
          "name": "F#4",
          "midi": 66,
          "time": 16.271199999999997,
          "velocity": 0.7874015748031497,
          "duration": 2.0296627083333334
        },
        {
          "name": "B4",
          "midi": 71,
          "time": 16.271199999999997,
          "velocity": 0.7874015748031497,
          "duration": 2.0296627083333334
        },
        {
          "name": "G#4",
          "midi": 68,
          "time": 18.305099999999996,
          "velocity": 0.7874015748031497,
          "duration": 1.012712708333332
        },
        {
          "name": "E4",
          "midi": 64,
          "time": 18.305099999999996,
          "velocity": 0.7874015748031497,
          "duration": 1.012712708333332
        },
        {
          "name": "B4",
          "midi": 71,
          "time": 18.305099999999996,
          "velocity": 0.7874015748031497,
          "duration": 1.012712708333332
        },
        {
          "name": "G#4",
          "midi": 68,
          "time": 19.322049999999994,
          "velocity": 0.7874015748031497,
          "duration": 1.012712708333332
        },
        {
          "name": "B4",
          "midi": 71,
          "time": 19.322049999999994,
          "velocity": 0.7874015748031497,
          "duration": 1.012712708333332
        },
        {
          "name": "F4",
          "midi": 65,
          "time": 19.322049999999994,
          "velocity": 0.7874015748031497,
          "duration": 1.012712708333332
        },
        {
          "name": "A4",
          "midi": 69,
          "time": 20.33899999999999,
          "velocity": 0.7874015748031497,
          "duration": 2.0296627083333334
        },
        {
          "name": "C#5",
          "midi": 73,
          "time": 20.33899999999999,
          "velocity": 0.7874015748031497,
          "duration": 2.0296627083333334
        },
        {
          "name": "F#4",
          "midi": 66,
          "time": 20.33899999999999,
          "velocity": 0.7874015748031497,
          "duration": 2.0296627083333334
        },
        {
          "name": "D5",
          "midi": 74,
          "time": 22.37289999999999,
          "velocity": 0.7874015748031497,
          "duration": 2.0296627083333334
        },
        {
          "name": "A4",
          "midi": 69,
          "time": 22.37289999999999,
          "velocity": 0.7874015748031497,
          "duration": 2.0296627083333334
        },
        {
          "name": "F#4",
          "midi": 66,
          "time": 22.37289999999999,
          "velocity": 0.7874015748031497,
          "duration": 2.0296627083333334
        },
        {
          "name": "D5",
          "midi": 74,
          "time": 24.40679999999999,
          "velocity": 0.7874015748031497,
          "duration": 2.0296627083333334
        },
        {
          "name": "F#4",
          "midi": 66,
          "time": 24.40679999999999,
          "velocity": 0.7874015748031497,
          "duration": 2.0296627083333334
        },
        {
          "name": "B4",
          "midi": 71,
          "time": 24.40679999999999,
          "velocity": 0.7874015748031497,
          "duration": 2.0296627083333334
        },
        {
          "name": "G#4",
          "midi": 68,
          "time": 26.44069999999999,
          "velocity": 0.7874015748031497,
          "duration": 1.012712708333332
        },
        {
          "name": "E4",
          "midi": 64,
          "time": 26.44069999999999,
          "velocity": 0.7874015748031497,
          "duration": 1.012712708333332
        },
        {
          "name": "B4",
          "midi": 71,
          "time": 26.44069999999999,
          "velocity": 0.7874015748031497,
          "duration": 1.012712708333332
        },
        {
          "name": "G#4",
          "midi": 68,
          "time": 27.457649999999987,
          "velocity": 0.7874015748031497,
          "duration": 1.012712708333332
        },
        {
          "name": "B4",
          "midi": 71,
          "time": 27.457649999999987,
          "velocity": 0.7874015748031497,
          "duration": 1.012712708333332
        },
        {
          "name": "F4",
          "midi": 65,
          "time": 27.457649999999987,
          "velocity": 0.7874015748031497,
          "duration": 1.012712708333332
        },
        {
          "name": "A4",
          "midi": 69,
          "time": 28.474599999999985,
          "velocity": 0.7874015748031497,
          "duration": 2.0296627083333334
        },
        {
          "name": "C#5",
          "midi": 73,
          "time": 28.474599999999985,
          "velocity": 0.7874015748031497,
          "duration": 2.0296627083333334
        },
        {
          "name": "F#4",
          "midi": 66,
          "time": 28.474599999999985,
          "velocity": 0.7874015748031497,
          "duration": 2.0296627083333334
        },
        {
          "name": "D5",
          "midi": 74,
          "time": 30.508499999999984,
          "velocity": 0.7874015748031497,
          "duration": 2.0296627083333334
        },
        {
          "name": "A4",
          "midi": 69,
          "time": 30.508499999999984,
          "velocity": 0.7874015748031497,
          "duration": 2.0296627083333334
        },
        {
          "name": "F#4",
          "midi": 66,
          "time": 30.508499999999984,
          "velocity": 0.7874015748031497,
          "duration": 2.0296627083333334
        },
        {
          "name": "D5",
          "midi": 74,
          "time": 32.54239999999999,
          "velocity": 0.7874015748031497,
          "duration": 2.0296627083333334
        },
        {
          "name": "F#4",
          "midi": 66,
          "time": 32.54239999999999,
          "velocity": 0.7874015748031497,
          "duration": 2.0296627083333334
        },
        {
          "name": "B4",
          "midi": 71,
          "time": 32.54239999999999,
          "velocity": 0.7874015748031497,
          "duration": 2.0296627083333334
        },
        {
          "name": "G#4",
          "midi": 68,
          "time": 34.57629999999999,
          "velocity": 0.7874015748031497,
          "duration": 1.012712708333332
        },
        {
          "name": "E4",
          "midi": 64,
          "time": 34.57629999999999,
          "velocity": 0.7874015748031497,
          "duration": 1.012712708333332
        },
        {
          "name": "B4",
          "midi": 71,
          "time": 34.57629999999999,
          "velocity": 0.7874015748031497,
          "duration": 1.012712708333332
        },
        {
          "name": "G#4",
          "midi": 68,
          "time": 35.59324999999999,
          "velocity": 0.7874015748031497,
          "duration": 1.012712708333332
        },
        {
          "name": "B4",
          "midi": 71,
          "time": 35.59324999999999,
          "velocity": 0.7874015748031497,
          "duration": 1.012712708333332
        },
        {
          "name": "F4",
          "midi": 65,
          "time": 35.59324999999999,
          "velocity": 0.7874015748031497,
          "duration": 1.012712708333332
        },
        {
          "name": "A4",
          "midi": 69,
          "time": 36.61019999999999,
          "velocity": 0.7874015748031497,
          "duration": 2.0296627083333334
        },
        {
          "name": "C#5",
          "midi": 73,
          "time": 36.61019999999999,
          "velocity": 0.7874015748031497,
          "duration": 2.0296627083333334
        },
        {
          "name": "F#4",
          "midi": 66,
          "time": 36.61019999999999,
          "velocity": 0.7874015748031497,
          "duration": 2.0296627083333334
        },
        {
          "name": "D5",
          "midi": 74,
          "time": 38.644099999999995,
          "velocity": 0.7874015748031497,
          "duration": 2.0296627083333334
        },
        {
          "name": "A4",
          "midi": 69,
          "time": 38.644099999999995,
          "velocity": 0.7874015748031497,
          "duration": 2.0296627083333334
        },
        {
          "name": "F#4",
          "midi": 66,
          "time": 38.644099999999995,
          "velocity": 0.7874015748031497,
          "duration": 2.0296627083333334
        },
        {
          "name": "D5",
          "midi": 74,
          "time": 40.678,
          "velocity": 0.7874015748031497,
          "duration": 2.0296627083333334
        },
        {
          "name": "F#4",
          "midi": 66,
          "time": 40.678,
          "velocity": 0.7874015748031497,
          "duration": 2.0296627083333334
        },
        {
          "name": "B4",
          "midi": 71,
          "time": 40.678,
          "velocity": 0.7874015748031497,
          "duration": 2.0296627083333334
        },
        {
          "name": "G#4",
          "midi": 68,
          "time": 42.7119,
          "velocity": 0.7874015748031497,
          "duration": 1.012712708333332
        },
        {
          "name": "E4",
          "midi": 64,
          "time": 42.7119,
          "velocity": 0.7874015748031497,
          "duration": 1.012712708333332
        },
        {
          "name": "B4",
          "midi": 71,
          "time": 42.7119,
          "velocity": 0.7874015748031497,
          "duration": 1.012712708333332
        },
        {
          "name": "G#4",
          "midi": 68,
          "time": 43.72885,
          "velocity": 0.7874015748031497,
          "duration": 1.012712708333332
        },
        {
          "name": "B4",
          "midi": 71,
          "time": 43.72885,
          "velocity": 0.7874015748031497,
          "duration": 1.012712708333332
        },
        {
          "name": "F4",
          "midi": 65,
          "time": 43.72885,
          "velocity": 0.7874015748031497,
          "duration": 1.012712708333332
        },
        {
          "name": "C#5",
          "midi": 73,
          "time": 44.7458,
          "velocity": 0.7874015748031497,
          "duration": 1.012712708333332
        },
        {
          "name": "F#4",
          "midi": 66,
          "time": 44.7458,
          "velocity": 0.7874015748031497,
          "duration": 1.012712708333332
        },
        {
          "name": "A4",
          "midi": 69,
          "time": 44.7458,
          "velocity": 0.7874015748031497,
          "duration": 1.012712708333332
        },
        {
          "name": "G#4",
          "midi": 68,
          "time": 45.762750000000004,
          "velocity": 0.7874015748031497,
          "duration": 1.012712708333332
        },
        {
          "name": "E5",
          "midi": 76,
          "time": 45.762750000000004,
          "velocity": 0.7874015748031497,
          "duration": 1.012712708333332
        },
        {
          "name": "B4",
          "midi": 71,
          "time": 45.762750000000004,
          "velocity": 0.7874015748031497,
          "duration": 1.012712708333332
        },
        {
          "name": "E5",
          "midi": 76,
          "time": 46.779700000000005,
          "velocity": 0.7874015748031497,
          "duration": 1.012712708333332
        },
        {
          "name": "C#5",
          "midi": 73,
          "time": 46.779700000000005,
          "velocity": 0.7874015748031497,
          "duration": 1.012712708333332
        },
        {
          "name": "A4",
          "midi": 69,
          "time": 46.779700000000005,
          "velocity": 0.7874015748031497,
          "duration": 1.012712708333332
        },
        {
          "name": "D5",
          "midi": 74,
          "time": 47.79665000000001,
          "velocity": 0.7874015748031497,
          "duration": 1.012712708333332
        },
        {
          "name": "F#4",
          "midi": 66,
          "time": 47.79665000000001,
          "velocity": 0.7874015748031497,
          "duration": 1.012712708333332
        },
        {
          "name": "A4",
          "midi": 69,
          "time": 47.79665000000001,
          "velocity": 0.7874015748031497,
          "duration": 1.012712708333332
        },
        {
          "name": "F#5",
          "midi": 78,
          "time": 48.81360000000001,
          "velocity": 0.7874015748031497,
          "duration": 2.0296627083333334
        },
        {
          "name": "G#4",
          "midi": 68,
          "time": 48.81360000000001,
          "velocity": 0.7874015748031497,
          "duration": 2.0296627083333334
        },
        {
          "name": "C#5",
          "midi": 73,
          "time": 48.81360000000001,
          "velocity": 0.7874015748031497,
          "duration": 2.0296627083333334
        },
        {
          "name": "G#4",
          "midi": 68,
          "time": 50.84750000000001,
          "velocity": 0.7874015748031497,
          "duration": 2.0296627083333334
        },
        {
          "name": "F5",
          "midi": 77,
          "time": 50.84750000000001,
          "velocity": 0.7874015748031497,
          "duration": 2.0296627083333334
        },
        {
          "name": "C#5",
          "midi": 73,
          "time": 50.84750000000001,
          "velocity": 0.7874015748031497,
          "duration": 2.0296627083333334
        },
        {
          "name": "F#4",
          "midi": 66,
          "time": 52.88140000000001,
          "velocity": 0.7874015748031497,
          "duration": 2.0296627083333334
        },
        {
          "name": "C#5",
          "midi": 73,
          "time": 52.88140000000001,
          "velocity": 0.7874015748031497,
          "duration": 2.0296627083333334
        },
        {
          "name": "A4",
          "midi": 69,
          "time": 52.88140000000001,
          "velocity": 0.7874015748031497,
          "duration": 2.0296627083333334
        },
        {
          "name": "F#4",
          "midi": 66,
          "time": 54.915300000000016,
          "velocity": 0.7874015748031497,
          "duration": 2.0296627083333334
        },
        {
          "name": "A4",
          "midi": 69,
          "time": 54.915300000000016,
          "velocity": 0.7874015748031497,
          "duration": 2.0296627083333334
        },
        {
          "name": "D5",
          "midi": 74,
          "time": 54.915300000000016,
          "velocity": 0.7874015748031497,
          "duration": 2.0296627083333334
        },
        {
          "name": "F#4",
          "midi": 66,
          "time": 56.94920000000002,
          "velocity": 0.7874015748031497,
          "duration": 2.0296627083333334
        },
        {
          "name": "D5",
          "midi": 74,
          "time": 56.94920000000002,
          "velocity": 0.7874015748031497,
          "duration": 2.0296627083333334
        },
        {
          "name": "B4",
          "midi": 71,
          "time": 56.94920000000002,
          "velocity": 0.7874015748031497,
          "duration": 2.0296627083333334
        },
        {
          "name": "G#4",
          "midi": 68,
          "time": 58.98310000000002,
          "velocity": 0.7874015748031497,
          "duration": 2.0296627083333334
        },
        {
          "name": "B4",
          "midi": 71,
          "time": 58.98310000000002,
          "velocity": 0.7874015748031497,
          "duration": 2.0296627083333334
        },
        {
          "name": "E4",
          "midi": 64,
          "time": 58.98310000000002,
          "velocity": 0.7874015748031497,
          "duration": 2.0296627083333334
        },
        {
          "name": "F#4",
          "midi": 66,
          "time": 61.017000000000024,
          "velocity": 0.7874015748031497,
          "duration": 2.0296627083333334
        },
        {
          "name": "C#5",
          "midi": 73,
          "time": 61.017000000000024,
          "velocity": 0.7874015748031497,
          "duration": 2.0296627083333334
        },
        {
          "name": "A4",
          "midi": 69,
          "time": 61.017000000000024,
          "velocity": 0.7874015748031497,
          "duration": 2.0296627083333334
        },
        {
          "name": "F#4",
          "midi": 66,
          "time": 63.05090000000003,
          "velocity": 0.7874015748031497,
          "duration": 2.0296627083333334
        },
        {
          "name": "A4",
          "midi": 69,
          "time": 63.05090000000003,
          "velocity": 0.7874015748031497,
          "duration": 2.0296627083333334
        },
        {
          "name": "D5",
          "midi": 74,
          "time": 63.05090000000003,
          "velocity": 0.7874015748031497,
          "duration": 2.0296627083333334
        },
        {
          "name": "F#4",
          "midi": 66,
          "time": 65.08480000000003,
          "velocity": 0.7874015748031497,
          "duration": 2.0296627083333334
        },
        {
          "name": "D5",
          "midi": 74,
          "time": 65.08480000000003,
          "velocity": 0.7874015748031497,
          "duration": 2.0296627083333334
        },
        {
          "name": "B4",
          "midi": 71,
          "time": 65.08480000000003,
          "velocity": 0.7874015748031497,
          "duration": 2.0296627083333334
        },
        {
          "name": "G#4",
          "midi": 68,
          "time": 67.11870000000003,
          "velocity": 0.7874015748031497,
          "duration": 2.0296627083333334
        },
        {
          "name": "B4",
          "midi": 71,
          "time": 67.11870000000003,
          "velocity": 0.7874015748031497,
          "duration": 2.0296627083333334
        },
        {
          "name": "E4",
          "midi": 64,
          "time": 67.11870000000003,
          "velocity": 0.7874015748031497,
          "duration": 2.0296627083333334
        },
        {
          "name": "C#5",
          "midi": 73,
          "time": 69.15260000000004,
          "velocity": 0.7874015748031497,
          "duration": 1.0127127083333392
        },
        {
          "name": "F#4",
          "midi": 66,
          "time": 69.15260000000004,
          "velocity": 0.7874015748031497,
          "duration": 1.0127127083333392
        },
        {
          "name": "A4",
          "midi": 69,
          "time": 69.15260000000004,
          "velocity": 0.7874015748031497,
          "duration": 1.0127127083333392
        },
        {
          "name": "G#4",
          "midi": 68,
          "time": 70.16955000000004,
          "velocity": 0.7874015748031497,
          "duration": 1.0127127083333392
        },
        {
          "name": "E5",
          "midi": 76,
          "time": 70.16955000000004,
          "velocity": 0.7874015748031497,
          "duration": 1.0127127083333392
        },
        {
          "name": "B4",
          "midi": 71,
          "time": 70.16955000000004,
          "velocity": 0.7874015748031497,
          "duration": 1.0127127083333392
        },
        {
          "name": "E5",
          "midi": 76,
          "time": 71.18650000000005,
          "velocity": 0.7874015748031497,
          "duration": 1.0127127083333392
        },
        {
          "name": "C#5",
          "midi": 73,
          "time": 71.18650000000005,
          "velocity": 0.7874015748031497,
          "duration": 1.0127127083333392
        },
        {
          "name": "A4",
          "midi": 69,
          "time": 71.18650000000005,
          "velocity": 0.7874015748031497,
          "duration": 1.0127127083333392
        },
        {
          "name": "D5",
          "midi": 74,
          "time": 72.20345000000006,
          "velocity": 0.7874015748031497,
          "duration": 1.0127127083333392
        },
        {
          "name": "F#4",
          "midi": 66,
          "time": 72.20345000000006,
          "velocity": 0.7874015748031497,
          "duration": 1.0127127083333392
        },
        {
          "name": "A4",
          "midi": 69,
          "time": 72.20345000000006,
          "velocity": 0.7874015748031497,
          "duration": 1.0127127083333392
        },
        {
          "name": "F#5",
          "midi": 78,
          "time": 73.22040000000007,
          "velocity": 0.7874015748031497,
          "duration": 2.0296627083333334
        },
        {
          "name": "G#4",
          "midi": 68,
          "time": 73.22040000000007,
          "velocity": 0.7874015748031497,
          "duration": 2.0296627083333334
        },
        {
          "name": "C#5",
          "midi": 73,
          "time": 73.22040000000007,
          "velocity": 0.7874015748031497,
          "duration": 2.0296627083333334
        },
        {
          "name": "G#4",
          "midi": 68,
          "time": 75.25430000000007,
          "velocity": 0.7874015748031497,
          "duration": 2.0296627083333334
        },
        {
          "name": "F5",
          "midi": 77,
          "time": 75.25430000000007,
          "velocity": 0.7874015748031497,
          "duration": 2.0296627083333334
        },
        {
          "name": "C#5",
          "midi": 73,
          "time": 75.25430000000007,
          "velocity": 0.7874015748031497,
          "duration": 2.0296627083333334
        },
        {
          "name": "F#2",
          "midi": 42,
          "time": 77.28820000000007,
          "velocity": 0.7874015748031497,
          "duration": 7.923735416666673
        },
        {
          "name": "F#4",
          "midi": 66,
          "time": 77.28820000000007,
          "velocity": 0.7874015748031497,
          "duration": 7.923735416666673
        },
        {
          "name": "F#5",
          "midi": 78,
          "time": 85.42380000000009,
          "velocity": 0.7874015748031497,
          "duration": 6.101699999999994
        },
        {
          "name": "C#5",
          "midi": 73,
          "time": 85.42380000000009,
          "velocity": 0.7874015748031497,
          "duration": 6.101699999999994
        },
        {
          "name": "A4",
          "midi": 69,
          "time": 85.42380000000009,
          "velocity": 0.7874015748031497,
          "duration": 6.101699999999994
        },
        {
          "name": "B4",
          "midi": 71,
          "time": 91.52550000000008,
          "velocity": 0.7874015748031497,
          "duration": 2.0339000000000027
        },
        {
          "name": "D5",
          "midi": 74,
          "time": 91.52550000000008,
          "velocity": 0.7874015748031497,
          "duration": 2.0339000000000027
        },
        {
          "name": "F#4",
          "midi": 66,
          "time": 91.52550000000008,
          "velocity": 0.7874015748031497,
          "duration": 2.0339000000000027
        },
        {
          "name": "F#5",
          "midi": 78,
          "time": 93.55940000000008,
          "velocity": 0.7874015748031497,
          "duration": 5.08475
        },
        {
          "name": "C#5",
          "midi": 73,
          "time": 93.55940000000008,
          "velocity": 0.7874015748031497,
          "duration": 5.08475
        },
        {
          "name": "A4",
          "midi": 69,
          "time": 93.55940000000008,
          "velocity": 0.7874015748031497,
          "duration": 5.08475
        },
        {
          "name": "G#4",
          "midi": 68,
          "time": 98.64415000000008,
          "velocity": 0.7874015748031497,
          "duration": 1.0169499999999942
        },
        {
          "name": "B4",
          "midi": 71,
          "time": 98.64415000000008,
          "velocity": 0.7874015748031497,
          "duration": 1.0169499999999942
        },
        {
          "name": "E5",
          "midi": 76,
          "time": 98.64415000000008,
          "velocity": 0.7874015748031497,
          "duration": 1.0169499999999942
        },
        {
          "name": "C#5",
          "midi": 73,
          "time": 99.66110000000008,
          "velocity": 0.7874015748031497,
          "duration": 2.0339000000000027
        },
        {
          "name": "A4",
          "midi": 69,
          "time": 99.66110000000008,
          "velocity": 0.7874015748031497,
          "duration": 2.0339000000000027
        },
        {
          "name": "E5",
          "midi": 76,
          "time": 99.66110000000008,
          "velocity": 0.7874015748031497,
          "duration": 2.0339000000000027
        },
        {
          "name": "D4",
          "midi": 62,
          "time": 101.69500000000008,
          "velocity": 0.7874015748031497,
          "duration": 2.0339000000000027
        },
        {
          "name": "F#4",
          "midi": 66,
          "time": 101.69500000000008,
          "velocity": 0.7874015748031497,
          "duration": 2.0339000000000027
        },
        {
          "name": "A3",
          "midi": 57,
          "time": 101.69500000000008,
          "velocity": 0.7874015748031497,
          "duration": 2.0339000000000027
        },
        {
          "name": "E4",
          "midi": 64,
          "time": 103.72890000000008,
          "velocity": 0.7874015748031497,
          "duration": 2.0339000000000027
        },
        {
          "name": "G#4",
          "midi": 68,
          "time": 103.72890000000008,
          "velocity": 0.7874015748031497,
          "duration": 2.0339000000000027
        },
        {
          "name": "B3",
          "midi": 59,
          "time": 103.72890000000008,
          "velocity": 0.7874015748031497,
          "duration": 2.0339000000000027
        },
        {
          "name": "C#4",
          "midi": 61,
          "time": 105.76280000000008,
          "velocity": 0.7874015748031497,
          "duration": 1.0169499999999942
        },
        {
          "name": "E4",
          "midi": 64,
          "time": 105.76280000000008,
          "velocity": 0.7874015748031497,
          "duration": 1.0169499999999942
        },
        {
          "name": "A4",
          "midi": 69,
          "time": 105.76280000000008,
          "velocity": 0.7874015748031497,
          "duration": 1.0169499999999942
        },
        {
          "name": "G#4",
          "midi": 68,
          "time": 106.77975000000008,
          "velocity": 0.7874015748031497,
          "duration": 1.0169499999999942
        },
        {
          "name": "E4",
          "midi": 64,
          "time": 106.77975000000008,
          "velocity": 0.7874015748031497,
          "duration": 1.0169499999999942
        },
        {
          "name": "B3",
          "midi": 59,
          "time": 106.77975000000008,
          "velocity": 0.7874015748031497,
          "duration": 1.0169499999999942
        },
        {
          "name": "F#4",
          "midi": 66,
          "time": 107.79670000000007,
          "velocity": 0.7874015748031497,
          "duration": 1.0169499999999942
        },
        {
          "name": "C#4",
          "midi": 61,
          "time": 107.79670000000007,
          "velocity": 0.7874015748031497,
          "duration": 1.0169499999999942
        },
        {
          "name": "A4",
          "midi": 69,
          "time": 107.79670000000007,
          "velocity": 0.7874015748031497,
          "duration": 1.0169499999999942
        },
        {
          "name": "G#4",
          "midi": 68,
          "time": 108.81365000000007,
          "velocity": 0.7874015748031497,
          "duration": 1.0169499999999942
        },
        {
          "name": "B3",
          "midi": 59,
          "time": 108.81365000000007,
          "velocity": 0.7874015748031497,
          "duration": 1.0169499999999942
        },
        {
          "name": "E4",
          "midi": 64,
          "time": 108.81365000000007,
          "velocity": 0.7874015748031497,
          "duration": 1.0169499999999942
        },
        {
          "name": "D4",
          "midi": 62,
          "time": 109.83060000000006,
          "velocity": 0.7244094488188977,
          "duration": 2.0296627083333334
        },
        {
          "name": "F#4",
          "midi": 66,
          "time": 109.83060000000006,
          "velocity": 0.6692913385826772,
          "duration": 2.0296627083333334
        },
        {
          "name": "A3",
          "midi": 57,
          "time": 109.83060000000006,
          "velocity": 0.6692913385826772,
          "duration": 2.0296627083333334
        },
        {
          "name": "C#4",
          "midi": 61,
          "time": 111.86450000000006,
          "velocity": 0.6535433070866141,
          "duration": 2.0296627083333334
        },
        {
          "name": "E4",
          "midi": 64,
          "time": 111.86450000000006,
          "velocity": 0.7480314960629921,
          "duration": 2.0296627083333334
        },
        {
          "name": "A3",
          "midi": 57,
          "time": 111.86450000000006,
          "velocity": 0.7480314960629921,
          "duration": 2.0296627083333334
        },
        {
          "name": "G#4",
          "midi": 68,
          "time": 114.13145104166674,
          "velocity": 0.8031496062992126,
          "duration": 0.14406791666665697
        },
        {
          "name": "E4",
          "midi": 64,
          "time": 114.13145104166674,
          "velocity": 0.8267716535433071,
          "duration": 0.14406791666665697
        },
        {
          "name": "B3",
          "midi": 59,
          "time": 114.13145104166674,
          "velocity": 0.8031496062992126,
          "duration": 0.13135604166666326
        },
        {
          "name": "G#4",
          "midi": 68,
          "time": 114.38568854166672,
          "velocity": 0.8188976377952756,
          "duration": 0.35593250000000864
        },
        {
          "name": "E4",
          "midi": 64,
          "time": 114.38568854166672,
          "velocity": 0.8267716535433071,
          "duration": 0.36016979166667795
        },
        {
          "name": "B3",
          "midi": 59,
          "time": 114.3899258333334,
          "velocity": 0.7874015748031497,
          "duration": 0.35593250000000864
        },
        {
          "name": "G#4",
          "midi": 68,
          "time": 114.86450250000007,
          "velocity": 0.8503937007874016,
          "duration": 0.1610170833333342
        },
        {
          "name": "E4",
          "midi": 64,
          "time": 114.86450250000007,
          "velocity": 0.8503937007874016,
          "duration": 0.17796624999999722
        },
        {
          "name": "B3",
          "midi": 59,
          "time": 114.86450250000007,
          "velocity": 0.7637795275590551,
          "duration": 0.15254249999999558
        },
        {
          "name": "E4",
          "midi": 64,
          "time": 115.14416375000008,
          "velocity": 0.8267716535433071,
          "duration": 0.12711875000000816
        },
        {
          "name": "G#4",
          "midi": 68,
          "time": 115.15263833333341,
          "velocity": 0.8267716535433071,
          "duration": 0.10169500000000653
        },
        {
          "name": "B3",
          "midi": 59,
          "time": 115.15263833333341,
          "velocity": 0.7401574803149606,
          "duration": 0.11864416666666955
        },
        {
          "name": "B3",
          "midi": 59,
          "time": 115.66958791666676,
          "velocity": 0.8267716535433071,
          "duration": 0.6567802083333447
        },
        {
          "name": "E4",
          "midi": 64,
          "time": 115.66958791666676,
          "velocity": 0.8267716535433071,
          "duration": 0.6822039583333463
        },
        {
          "name": "G#4",
          "midi": 68,
          "time": 115.6780625000001,
          "velocity": 0.7401574803149606,
          "duration": 0.7161022916666724
        },
        {
          "name": "F#4",
          "midi": 66,
          "time": 117.9662000000001,
          "velocity": 0.7874015748031497,
          "duration": 2.0296627083333334
        },
        {
          "name": "C#5",
          "midi": 73,
          "time": 117.9662000000001,
          "velocity": 0.7874015748031497,
          "duration": 2.0296627083333334
        },
        {
          "name": "A4",
          "midi": 69,
          "time": 117.9662000000001,
          "velocity": 0.7874015748031497,
          "duration": 2.0296627083333334
        },
        {
          "name": "F#4",
          "midi": 66,
          "time": 120.0001000000001,
          "velocity": 0.7874015748031497,
          "duration": 2.0296627083333334
        },
        {
          "name": "A4",
          "midi": 69,
          "time": 120.0001000000001,
          "velocity": 0.7874015748031497,
          "duration": 2.0296627083333334
        },
        {
          "name": "D5",
          "midi": 74,
          "time": 120.0001000000001,
          "velocity": 0.7874015748031497,
          "duration": 2.0296627083333334
        },
        {
          "name": "F#4",
          "midi": 66,
          "time": 122.0340000000001,
          "velocity": 0.7874015748031497,
          "duration": 2.0296627083333334
        },
        {
          "name": "D5",
          "midi": 74,
          "time": 122.0340000000001,
          "velocity": 0.7874015748031497,
          "duration": 2.0296627083333334
        },
        {
          "name": "B4",
          "midi": 71,
          "time": 122.0340000000001,
          "velocity": 0.7874015748031497,
          "duration": 2.0296627083333334
        },
        {
          "name": "G#4",
          "midi": 68,
          "time": 124.06790000000011,
          "velocity": 0.7874015748031497,
          "duration": 2.0296627083333334
        },
        {
          "name": "B4",
          "midi": 71,
          "time": 124.06790000000011,
          "velocity": 0.7874015748031497,
          "duration": 2.0296627083333334
        },
        {
          "name": "E4",
          "midi": 64,
          "time": 124.06790000000011,
          "velocity": 0.7874015748031497,
          "duration": 2.0296627083333334
        },
        {
          "name": "F#4",
          "midi": 66,
          "time": 126.10180000000011,
          "velocity": 0.7874015748031497,
          "duration": 2.0296627083333476
        },
        {
          "name": "C#5",
          "midi": 73,
          "time": 126.10180000000011,
          "velocity": 0.7874015748031497,
          "duration": 2.0296627083333476
        },
        {
          "name": "A4",
          "midi": 69,
          "time": 126.10180000000011,
          "velocity": 0.7874015748031497,
          "duration": 2.0296627083333476
        },
        {
          "name": "F#4",
          "midi": 66,
          "time": 128.13570000000013,
          "velocity": 0.7874015748031497,
          "duration": 2.0296627083333476
        },
        {
          "name": "A4",
          "midi": 69,
          "time": 128.13570000000013,
          "velocity": 0.7874015748031497,
          "duration": 2.0296627083333476
        },
        {
          "name": "D5",
          "midi": 74,
          "time": 128.13570000000013,
          "velocity": 0.7874015748031497,
          "duration": 2.0296627083333476
        },
        {
          "name": "F#4",
          "midi": 66,
          "time": 130.16960000000014,
          "velocity": 0.7874015748031497,
          "duration": 2.0296627083333476
        },
        {
          "name": "D5",
          "midi": 74,
          "time": 130.16960000000014,
          "velocity": 0.7874015748031497,
          "duration": 2.0296627083333476
        },
        {
          "name": "B4",
          "midi": 71,
          "time": 130.16960000000014,
          "velocity": 0.7874015748031497,
          "duration": 2.0296627083333476
        },
        {
          "name": "G#4",
          "midi": 68,
          "time": 132.20350000000016,
          "velocity": 0.7874015748031497,
          "duration": 2.0296627083333476
        },
        {
          "name": "B4",
          "midi": 71,
          "time": 132.20350000000016,
          "velocity": 0.7874015748031497,
          "duration": 2.0296627083333476
        },
        {
          "name": "E4",
          "midi": 64,
          "time": 132.20350000000016,
          "velocity": 0.7874015748031497,
          "duration": 2.0296627083333476
        },
        {
          "name": "F#5",
          "midi": 78,
          "time": 134.23740000000018,
          "velocity": 0.7874015748031497,
          "duration": 6.101699999999994
        },
        {
          "name": "C#5",
          "midi": 73,
          "time": 134.23740000000018,
          "velocity": 0.7874015748031497,
          "duration": 6.101699999999994
        },
        {
          "name": "A4",
          "midi": 69,
          "time": 134.23740000000018,
          "velocity": 0.7874015748031497,
          "duration": 6.101699999999994
        },
        {
          "name": "B4",
          "midi": 71,
          "time": 140.33910000000017,
          "velocity": 0.7874015748031497,
          "duration": 2.0338999999999885
        },
        {
          "name": "D5",
          "midi": 74,
          "time": 140.33910000000017,
          "velocity": 0.7874015748031497,
          "duration": 2.0338999999999885
        },
        {
          "name": "F#4",
          "midi": 66,
          "time": 140.33910000000017,
          "velocity": 0.7874015748031497,
          "duration": 2.0338999999999885
        },
        {
          "name": "F#5",
          "midi": 78,
          "time": 142.37300000000016,
          "velocity": 0.7874015748031497,
          "duration": 5.0847499999999854
        },
        {
          "name": "C#5",
          "midi": 73,
          "time": 142.37300000000016,
          "velocity": 0.7874015748031497,
          "duration": 5.0847499999999854
        },
        {
          "name": "A4",
          "midi": 69,
          "time": 142.37300000000016,
          "velocity": 0.7874015748031497,
          "duration": 5.0847499999999854
        },
        {
          "name": "G#4",
          "midi": 68,
          "time": 147.45775000000015,
          "velocity": 0.7874015748031497,
          "duration": 1.0169500000000085
        },
        {
          "name": "B4",
          "midi": 71,
          "time": 147.45775000000015,
          "velocity": 0.7874015748031497,
          "duration": 1.0169500000000085
        },
        {
          "name": "E5",
          "midi": 76,
          "time": 147.45775000000015,
          "velocity": 0.7874015748031497,
          "duration": 1.0169500000000085
        },
        {
          "name": "C#5",
          "midi": 73,
          "time": 148.47470000000015,
          "velocity": 0.7874015748031497,
          "duration": 2.0338999999999885
        },
        {
          "name": "A4",
          "midi": 69,
          "time": 148.47470000000015,
          "velocity": 0.7874015748031497,
          "duration": 2.0338999999999885
        },
        {
          "name": "E5",
          "midi": 76,
          "time": 148.47470000000015,
          "velocity": 0.7874015748031497,
          "duration": 2.0338999999999885
        },
        {
          "name": "D4",
          "midi": 62,
          "time": 150.50860000000014,
          "velocity": 0.7874015748031497,
          "duration": 2.0338999999999885
        },
        {
          "name": "F#4",
          "midi": 66,
          "time": 150.50860000000014,
          "velocity": 0.7874015748031497,
          "duration": 2.0338999999999885
        },
        {
          "name": "A3",
          "midi": 57,
          "time": 150.50860000000014,
          "velocity": 0.7874015748031497,
          "duration": 2.0338999999999885
        },
        {
          "name": "E4",
          "midi": 64,
          "time": 152.54250000000013,
          "velocity": 0.7874015748031497,
          "duration": 2.0338999999999885
        },
        {
          "name": "G#4",
          "midi": 68,
          "time": 152.54250000000013,
          "velocity": 0.7874015748031497,
          "duration": 2.0338999999999885
        },
        {
          "name": "B3",
          "midi": 59,
          "time": 152.54250000000013,
          "velocity": 0.7874015748031497,
          "duration": 2.0338999999999885
        },
        {
          "name": "C#4",
          "midi": 61,
          "time": 154.57640000000012,
          "velocity": 0.7874015748031497,
          "duration": 1.0169500000000085
        },
        {
          "name": "E4",
          "midi": 64,
          "time": 154.57640000000012,
          "velocity": 0.7874015748031497,
          "duration": 1.0169500000000085
        },
        {
          "name": "A4",
          "midi": 69,
          "time": 154.57640000000012,
          "velocity": 0.7874015748031497,
          "duration": 1.0169500000000085
        },
        {
          "name": "G#4",
          "midi": 68,
          "time": 155.59335000000013,
          "velocity": 0.7874015748031497,
          "duration": 1.0169500000000085
        },
        {
          "name": "E4",
          "midi": 64,
          "time": 155.59335000000013,
          "velocity": 0.7874015748031497,
          "duration": 1.0169500000000085
        },
        {
          "name": "B3",
          "midi": 59,
          "time": 155.59335000000013,
          "velocity": 0.7874015748031497,
          "duration": 1.0169500000000085
        },
        {
          "name": "F#4",
          "midi": 66,
          "time": 156.61030000000014,
          "velocity": 0.7874015748031497,
          "duration": 1.0169500000000085
        },
        {
          "name": "C#4",
          "midi": 61,
          "time": 156.61030000000014,
          "velocity": 0.7874015748031497,
          "duration": 1.0169500000000085
        },
        {
          "name": "A4",
          "midi": 69,
          "time": 156.61030000000014,
          "velocity": 0.7874015748031497,
          "duration": 1.0169500000000085
        },
        {
          "name": "G#4",
          "midi": 68,
          "time": 157.62725000000015,
          "velocity": 0.7874015748031497,
          "duration": 1.0169500000000085
        },
        {
          "name": "B3",
          "midi": 59,
          "time": 157.62725000000015,
          "velocity": 0.7874015748031497,
          "duration": 1.0169500000000085
        },
        {
          "name": "E4",
          "midi": 64,
          "time": 157.62725000000015,
          "velocity": 0.7874015748031497,
          "duration": 1.0169500000000085
        },
        {
          "name": "D4",
          "midi": 62,
          "time": 158.64420000000015,
          "velocity": 0.7244094488188977,
          "duration": 2.0296627083333476
        },
        {
          "name": "F#4",
          "midi": 66,
          "time": 158.64420000000015,
          "velocity": 0.6692913385826772,
          "duration": 2.0296627083333476
        },
        {
          "name": "A3",
          "midi": 57,
          "time": 158.64420000000015,
          "velocity": 0.6692913385826772,
          "duration": 2.0296627083333476
        },
        {
          "name": "C#4",
          "midi": 61,
          "time": 160.67810000000017,
          "velocity": 0.6535433070866141,
          "duration": 2.0296627083333476
        },
        {
          "name": "E4",
          "midi": 64,
          "time": 160.67810000000017,
          "velocity": 0.7480314960629921,
          "duration": 2.0296627083333476
        },
        {
          "name": "A3",
          "midi": 57,
          "time": 160.67810000000017,
          "velocity": 0.7480314960629921,
          "duration": 2.0296627083333476
        },
        {
          "name": "G#4",
          "midi": 68,
          "time": 162.94505104166686,
          "velocity": 0.8031496062992126,
          "duration": 0.14406791666667118
        },
        {
          "name": "E4",
          "midi": 64,
          "time": 162.94505104166686,
          "velocity": 0.8267716535433071,
          "duration": 0.14406791666667118
        },
        {
          "name": "B3",
          "midi": 59,
          "time": 162.94505104166686,
          "velocity": 0.8031496062992126,
          "duration": 0.13135604166666326
        },
        {
          "name": "G#4",
          "midi": 68,
          "time": 163.19928854166687,
          "velocity": 0.8188976377952756,
          "duration": 0.35593249999999443
        },
        {
          "name": "E4",
          "midi": 64,
          "time": 163.19928854166687,
          "velocity": 0.8267716535433071,
          "duration": 0.36016979166666374
        },
        {
          "name": "B3",
          "midi": 59,
          "time": 163.20352583333354,
          "velocity": 0.7874015748031497,
          "duration": 0.35593249999999443
        },
        {
          "name": "G#4",
          "midi": 68,
          "time": 163.6781025000002,
          "velocity": 0.8503937007874016,
          "duration": 0.1610170833333484
        },
        {
          "name": "E4",
          "midi": 64,
          "time": 163.6781025000002,
          "velocity": 0.8503937007874016,
          "duration": 0.17796625000002564
        },
        {
          "name": "B3",
          "midi": 59,
          "time": 163.6781025000002,
          "velocity": 0.7637795275590551,
          "duration": 0.1525425000000098
        },
        {
          "name": "E4",
          "midi": 64,
          "time": 163.95776375000023,
          "velocity": 0.8267716535433071,
          "duration": 0.12711875000002237
        },
        {
          "name": "G#4",
          "midi": 68,
          "time": 163.96623833333356,
          "velocity": 0.8267716535433071,
          "duration": 0.10169500000000653
        },
        {
          "name": "B3",
          "midi": 59,
          "time": 163.96623833333356,
          "velocity": 0.7401574803149606,
          "duration": 0.11864416666668376
        },
        {
          "name": "B3",
          "midi": 59,
          "time": 164.4831879166669,
          "velocity": 0.8267716535433071,
          "duration": 0.6567802083333447
        },
        {
          "name": "E4",
          "midi": 64,
          "time": 164.4831879166669,
          "velocity": 0.8267716535433071,
          "duration": 0.6822039583333321
        },
        {
          "name": "G#4",
          "midi": 68,
          "time": 164.49166250000025,
          "velocity": 0.7401574803149606,
          "duration": 0.7161022916666582
        },
        {
          "name": "F#4",
          "midi": 66,
          "time": 166.77980000000025,
          "velocity": 0.7874015748031497,
          "duration": 2.029662708333319
        },
        {
          "name": "C#5",
          "midi": 73,
          "time": 166.77980000000025,
          "velocity": 0.7874015748031497,
          "duration": 2.029662708333319
        },
        {
          "name": "A4",
          "midi": 69,
          "time": 166.77980000000025,
          "velocity": 0.7874015748031497,
          "duration": 2.029662708333319
        },
        {
          "name": "F#4",
          "midi": 66,
          "time": 168.81370000000024,
          "velocity": 0.7874015748031497,
          "duration": 2.0296627083333476
        },
        {
          "name": "A4",
          "midi": 69,
          "time": 168.81370000000024,
          "velocity": 0.7874015748031497,
          "duration": 2.0296627083333476
        },
        {
          "name": "D5",
          "midi": 74,
          "time": 168.81370000000024,
          "velocity": 0.7874015748031497,
          "duration": 2.0296627083333476
        },
        {
          "name": "F#4",
          "midi": 66,
          "time": 170.84760000000026,
          "velocity": 0.7874015748031497,
          "duration": 2.0296627083333476
        },
        {
          "name": "D5",
          "midi": 74,
          "time": 170.84760000000026,
          "velocity": 0.7874015748031497,
          "duration": 2.0296627083333476
        },
        {
          "name": "B4",
          "midi": 71,
          "time": 170.84760000000026,
          "velocity": 0.7874015748031497,
          "duration": 2.0296627083333476
        },
        {
          "name": "G#4",
          "midi": 68,
          "time": 172.88150000000027,
          "velocity": 0.7874015748031497,
          "duration": 2.0296627083333476
        },
        {
          "name": "B4",
          "midi": 71,
          "time": 172.88150000000027,
          "velocity": 0.7874015748031497,
          "duration": 2.0296627083333476
        },
        {
          "name": "E4",
          "midi": 64,
          "time": 172.88150000000027,
          "velocity": 0.7874015748031497,
          "duration": 2.0296627083333476
        },
        {
          "name": "F#4",
          "midi": 66,
          "time": 174.9154000000003,
          "velocity": 0.7874015748031497,
          "duration": 2.0296627083333476
        },
        {
          "name": "C#5",
          "midi": 73,
          "time": 174.9154000000003,
          "velocity": 0.7874015748031497,
          "duration": 2.0296627083333476
        },
        {
          "name": "A4",
          "midi": 69,
          "time": 174.9154000000003,
          "velocity": 0.7874015748031497,
          "duration": 2.0296627083333476
        },
        {
          "name": "F#4",
          "midi": 66,
          "time": 176.9493000000003,
          "velocity": 0.7874015748031497,
          "duration": 2.0296627083333476
        },
        {
          "name": "A4",
          "midi": 69,
          "time": 176.9493000000003,
          "velocity": 0.7874015748031497,
          "duration": 2.0296627083333476
        },
        {
          "name": "D5",
          "midi": 74,
          "time": 176.9493000000003,
          "velocity": 0.7874015748031497,
          "duration": 2.0296627083333476
        },
        {
          "name": "F#4",
          "midi": 66,
          "time": 178.98320000000032,
          "velocity": 0.7874015748031497,
          "duration": 2.0296627083333476
        },
        {
          "name": "D5",
          "midi": 74,
          "time": 178.98320000000032,
          "velocity": 0.7874015748031497,
          "duration": 2.0296627083333476
        },
        {
          "name": "B4",
          "midi": 71,
          "time": 178.98320000000032,
          "velocity": 0.7874015748031497,
          "duration": 2.0296627083333476
        },
        {
          "name": "G#4",
          "midi": 68,
          "time": 181.01710000000034,
          "velocity": 0.7874015748031497,
          "duration": 2.0296627083333476
        },
        {
          "name": "B4",
          "midi": 71,
          "time": 181.01710000000034,
          "velocity": 0.7874015748031497,
          "duration": 2.0296627083333476
        },
        {
          "name": "E4",
          "midi": 64,
          "time": 181.01710000000034,
          "velocity": 0.7874015748031497,
          "duration": 2.0296627083333476
        },
        {
          "name": "C#5",
          "midi": 73,
          "time": 183.05100000000036,
          "velocity": 0.7874015748031497,
          "duration": 1.0127127083333392
        },
        {
          "name": "F#4",
          "midi": 66,
          "time": 183.05100000000036,
          "velocity": 0.7874015748031497,
          "duration": 1.0127127083333392
        },
        {
          "name": "A4",
          "midi": 69,
          "time": 183.05100000000036,
          "velocity": 0.7874015748031497,
          "duration": 1.0127127083333392
        },
        {
          "name": "G#4",
          "midi": 68,
          "time": 184.06795000000037,
          "velocity": 0.7874015748031497,
          "duration": 1.0127127083333392
        },
        {
          "name": "E5",
          "midi": 76,
          "time": 184.06795000000037,
          "velocity": 0.7874015748031497,
          "duration": 1.0127127083333392
        },
        {
          "name": "B4",
          "midi": 71,
          "time": 184.06795000000037,
          "velocity": 0.7874015748031497,
          "duration": 1.0127127083333392
        },
        {
          "name": "E5",
          "midi": 76,
          "time": 185.08490000000037,
          "velocity": 0.7874015748031497,
          "duration": 1.0127127083333392
        },
        {
          "name": "C#5",
          "midi": 73,
          "time": 185.08490000000037,
          "velocity": 0.7874015748031497,
          "duration": 1.0127127083333392
        },
        {
          "name": "A4",
          "midi": 69,
          "time": 185.08490000000037,
          "velocity": 0.7874015748031497,
          "duration": 1.0127127083333392
        },
        {
          "name": "D5",
          "midi": 74,
          "time": 186.10185000000038,
          "velocity": 0.7874015748031497,
          "duration": 1.0127127083333392
        },
        {
          "name": "F#4",
          "midi": 66,
          "time": 186.10185000000038,
          "velocity": 0.7874015748031497,
          "duration": 1.0127127083333392
        },
        {
          "name": "A4",
          "midi": 69,
          "time": 186.10185000000038,
          "velocity": 0.7874015748031497,
          "duration": 1.0127127083333392
        },
        {
          "name": "F#5",
          "midi": 78,
          "time": 187.1188000000004,
          "velocity": 0.7874015748031497,
          "duration": 2.0296627083333476
        },
        {
          "name": "G#4",
          "midi": 68,
          "time": 187.1188000000004,
          "velocity": 0.7874015748031497,
          "duration": 2.0296627083333476
        },
        {
          "name": "C#5",
          "midi": 73,
          "time": 187.1188000000004,
          "velocity": 0.7874015748031497,
          "duration": 2.0296627083333476
        },
        {
          "name": "G#4",
          "midi": 68,
          "time": 189.1527000000004,
          "velocity": 0.7874015748031497,
          "duration": 2.0296627083333476
        },
        {
          "name": "F5",
          "midi": 77,
          "time": 189.1527000000004,
          "velocity": 0.7874015748031497,
          "duration": 2.0296627083333476
        },
        {
          "name": "C#5",
          "midi": 73,
          "time": 189.1527000000004,
          "velocity": 0.7874015748031497,
          "duration": 2.0296627083333476
        },
        {
          "name": "F#3",
          "midi": 54,
          "time": 191.2035491666671,
          "velocity": 0.7874015748031497,
          "duration": 4.0889864583333235
        },
        {
          "name": "B3",
          "midi": 59,
          "time": 195.25440000000043,
          "velocity": 0.7874015748031497,
          "duration": 2.029662708333319
        },
        {
          "name": "F#4",
          "midi": 66,
          "time": 195.25440000000043,
          "velocity": 0.7874015748031497,
          "duration": 2.029662708333319
        },
        {
          "name": "D4",
          "midi": 62,
          "time": 195.25440000000043,
          "velocity": 0.7874015748031497,
          "duration": 2.029662708333319
        },
        {
          "name": "C#4",
          "midi": 61,
          "time": 197.28830000000042,
          "velocity": 0.7874015748031497,
          "duration": 2.0296627083333476
        },
        {
          "name": "A3",
          "midi": 57,
          "time": 197.28830000000042,
          "velocity": 0.7874015748031497,
          "duration": 2.0296627083333476
        },
        {
          "name": "E4",
          "midi": 64,
          "time": 197.28830000000042,
          "velocity": 0.7874015748031497,
          "duration": 2.0296627083333476
        },
        {
          "name": "D4",
          "midi": 62,
          "time": 199.32220000000044,
          "velocity": 0.7874015748031497,
          "duration": 2.0296627083333476
        },
        {
          "name": "A3",
          "midi": 57,
          "time": 199.32220000000044,
          "velocity": 0.7874015748031497,
          "duration": 2.0296627083333476
        },
        {
          "name": "F#4",
          "midi": 66,
          "time": 199.32220000000044,
          "velocity": 0.7874015748031497,
          "duration": 2.0296627083333476
        },
        {
          "name": "G3",
          "midi": 55,
          "time": 201.35610000000045,
          "velocity": 0.7874015748031497,
          "duration": 1.0127127083333392
        },
        {
          "name": "D4",
          "midi": 62,
          "time": 201.35610000000045,
          "velocity": 0.7874015748031497,
          "duration": 1.0127127083333392
        },
        {
          "name": "B3",
          "midi": 59,
          "time": 201.35610000000045,
          "velocity": 0.7874015748031497,
          "duration": 1.0127127083333392
        },
        {
          "name": "F#3",
          "midi": 54,
          "time": 202.37305000000046,
          "velocity": 0.7874015748031497,
          "duration": 1.0127127083333392
        },
        {
          "name": "B3",
          "midi": 59,
          "time": 202.37305000000046,
          "velocity": 0.7874015748031497,
          "duration": 1.0127127083333392
        },
        {
          "name": "D4",
          "midi": 62,
          "time": 202.37305000000046,
          "velocity": 0.7874015748031497,
          "duration": 1.0127127083333392
        },
        {
          "name": "E4",
          "midi": 64,
          "time": 203.39000000000047,
          "velocity": 0.7874015748031497,
          "duration": 2.0296627083333476
        },
        {
          "name": "B3",
          "midi": 59,
          "time": 203.39000000000047,
          "velocity": 0.7874015748031497,
          "duration": 2.0296627083333476
        },
        {
          "name": "G3",
          "midi": 55,
          "time": 203.39000000000047,
          "velocity": 0.7874015748031497,
          "duration": 2.0296627083333476
        },
        {
          "name": "C#4",
          "midi": 61,
          "time": 205.4239000000005,
          "velocity": 0.7874015748031497,
          "duration": 2.0296627083333476
        },
        {
          "name": "E4",
          "midi": 64,
          "time": 205.4239000000005,
          "velocity": 0.7874015748031497,
          "duration": 2.0296627083333476
        },
        {
          "name": "A3",
          "midi": 57,
          "time": 205.4239000000005,
          "velocity": 0.7874015748031497,
          "duration": 2.0296627083333476
        },
        {
          "name": "D4",
          "midi": 62,
          "time": 207.4578000000005,
          "velocity": 0.7874015748031497,
          "duration": 2.0296627083333476
        },
        {
          "name": "F#4",
          "midi": 66,
          "time": 207.4578000000005,
          "velocity": 0.7874015748031497,
          "duration": 2.0296627083333476
        },
        {
          "name": "B3",
          "midi": 59,
          "time": 207.4578000000005,
          "velocity": 0.7874015748031497,
          "duration": 2.0296627083333476
        },
        {
          "name": "F#4",
          "midi": 66,
          "time": 209.49170000000052,
          "velocity": 0.7874015748031497,
          "duration": 2.0296627083333476
        },
        {
          "name": "C#4",
          "midi": 61,
          "time": 209.49170000000052,
          "velocity": 0.7874015748031497,
          "duration": 2.0296627083333476
        },
        {
          "name": "A3",
          "midi": 57,
          "time": 209.49170000000052,
          "velocity": 0.7874015748031497,
          "duration": 2.0296627083333476
        },
        {
          "name": "B3",
          "midi": 59,
          "time": 211.52560000000054,
          "velocity": 0.7874015748031497,
          "duration": 2.0296627083333476
        },
        {
          "name": "F#4",
          "midi": 66,
          "time": 211.52560000000054,
          "velocity": 0.7874015748031497,
          "duration": 2.0296627083333476
        },
        {
          "name": "D4",
          "midi": 62,
          "time": 211.52560000000054,
          "velocity": 0.7874015748031497,
          "duration": 2.0296627083333476
        },
        {
          "name": "C#4",
          "midi": 61,
          "time": 213.55950000000055,
          "velocity": 0.7874015748031497,
          "duration": 2.0296627083333476
        },
        {
          "name": "A3",
          "midi": 57,
          "time": 213.55950000000055,
          "velocity": 0.7874015748031497,
          "duration": 2.0296627083333476
        },
        {
          "name": "E4",
          "midi": 64,
          "time": 213.55950000000055,
          "velocity": 0.7874015748031497,
          "duration": 2.0296627083333476
        },
        {
          "name": "D4",
          "midi": 62,
          "time": 215.59340000000057,
          "velocity": 0.7874015748031497,
          "duration": 2.0296627083333476
        },
        {
          "name": "A3",
          "midi": 57,
          "time": 215.59340000000057,
          "velocity": 0.7874015748031497,
          "duration": 2.0296627083333476
        },
        {
          "name": "F#4",
          "midi": 66,
          "time": 215.59340000000057,
          "velocity": 0.7874015748031497,
          "duration": 2.0296627083333476
        },
        {
          "name": "G3",
          "midi": 55,
          "time": 217.6273000000006,
          "velocity": 0.7874015748031497,
          "duration": 1.0127127083333392
        },
        {
          "name": "D4",
          "midi": 62,
          "time": 217.6273000000006,
          "velocity": 0.7874015748031497,
          "duration": 1.0127127083333392
        },
        {
          "name": "B3",
          "midi": 59,
          "time": 217.6273000000006,
          "velocity": 0.7874015748031497,
          "duration": 1.0127127083333392
        },
        {
          "name": "F#3",
          "midi": 54,
          "time": 218.6442500000006,
          "velocity": 0.7874015748031497,
          "duration": 1.0127127083333392
        },
        {
          "name": "B3",
          "midi": 59,
          "time": 218.6442500000006,
          "velocity": 0.7874015748031497,
          "duration": 1.0127127083333392
        },
        {
          "name": "D4",
          "midi": 62,
          "time": 218.6442500000006,
          "velocity": 0.7874015748031497,
          "duration": 1.0127127083333392
        },
        {
          "name": "E4",
          "midi": 64,
          "time": 219.6612000000006,
          "velocity": 0.7874015748031497,
          "duration": 2.0296627083333476
        },
        {
          "name": "B3",
          "midi": 59,
          "time": 219.6612000000006,
          "velocity": 0.7874015748031497,
          "duration": 2.0296627083333476
        },
        {
          "name": "G3",
          "midi": 55,
          "time": 219.6612000000006,
          "velocity": 0.7874015748031497,
          "duration": 2.0296627083333476
        },
        {
          "name": "C#4",
          "midi": 61,
          "time": 221.69510000000062,
          "velocity": 0.7874015748031497,
          "duration": 2.0296627083333476
        },
        {
          "name": "E4",
          "midi": 64,
          "time": 221.69510000000062,
          "velocity": 0.7874015748031497,
          "duration": 2.0296627083333476
        },
        {
          "name": "A3",
          "midi": 57,
          "time": 221.69510000000062,
          "velocity": 0.7874015748031497,
          "duration": 2.0296627083333476
        },
        {
          "name": "D4",
          "midi": 62,
          "time": 223.72900000000064,
          "velocity": 0.7874015748031497,
          "duration": 2.0296627083333476
        },
        {
          "name": "F#4",
          "midi": 66,
          "time": 223.72900000000064,
          "velocity": 0.7874015748031497,
          "duration": 2.0296627083333476
        },
        {
          "name": "B3",
          "midi": 59,
          "time": 223.72900000000064,
          "velocity": 0.7874015748031497,
          "duration": 2.0296627083333476
        },
        {
          "name": "C#4",
          "midi": 61,
          "time": 225.76290000000066,
          "velocity": 0.7874015748031497,
          "duration": 2.0296627083333476
        },
        {
          "name": "G#4",
          "midi": 68,
          "time": 225.76290000000066,
          "velocity": 0.7874015748031497,
          "duration": 2.0296627083333476
        },
        {
          "name": "F4",
          "midi": 65,
          "time": 225.76290000000066,
          "velocity": 0.7874015748031497,
          "duration": 2.0296627083333476
        },
        {
          "name": "F#4",
          "midi": 66,
          "time": 227.79680000000067,
          "velocity": 0.7874015748031497,
          "duration": 2.0296627083333476
        },
        {
          "name": "C#5",
          "midi": 73,
          "time": 227.79680000000067,
          "velocity": 0.7874015748031497,
          "duration": 2.0296627083333476
        },
        {
          "name": "A4",
          "midi": 69,
          "time": 227.79680000000067,
          "velocity": 0.7874015748031497,
          "duration": 2.0296627083333476
        },
        {
          "name": "F#4",
          "midi": 66,
          "time": 229.8307000000007,
          "velocity": 0.7874015748031497,
          "duration": 2.0296627083333476
        },
        {
          "name": "A4",
          "midi": 69,
          "time": 229.8307000000007,
          "velocity": 0.7874015748031497,
          "duration": 2.0296627083333476
        },
        {
          "name": "D5",
          "midi": 74,
          "time": 229.8307000000007,
          "velocity": 0.7874015748031497,
          "duration": 2.0296627083333476
        },
        {
          "name": "F#4",
          "midi": 66,
          "time": 231.8646000000007,
          "velocity": 0.7874015748031497,
          "duration": 2.0296627083333476
        },
        {
          "name": "D5",
          "midi": 74,
          "time": 231.8646000000007,
          "velocity": 0.7874015748031497,
          "duration": 2.0296627083333476
        },
        {
          "name": "B4",
          "midi": 71,
          "time": 231.8646000000007,
          "velocity": 0.7874015748031497,
          "duration": 2.0296627083333476
        },
        {
          "name": "G#4",
          "midi": 68,
          "time": 233.89850000000072,
          "velocity": 0.7874015748031497,
          "duration": 2.0296627083333476
        },
        {
          "name": "B4",
          "midi": 71,
          "time": 233.89850000000072,
          "velocity": 0.7874015748031497,
          "duration": 2.0296627083333476
        },
        {
          "name": "E4",
          "midi": 64,
          "time": 233.89850000000072,
          "velocity": 0.7874015748031497,
          "duration": 2.0296627083333476
        },
        {
          "name": "F#4",
          "midi": 66,
          "time": 235.93240000000074,
          "velocity": 0.7874015748031497,
          "duration": 2.0296627083333476
        },
        {
          "name": "C#5",
          "midi": 73,
          "time": 235.93240000000074,
          "velocity": 0.7874015748031497,
          "duration": 2.0296627083333476
        },
        {
          "name": "A4",
          "midi": 69,
          "time": 235.93240000000074,
          "velocity": 0.7874015748031497,
          "duration": 2.0296627083333476
        },
        {
          "name": "F#4",
          "midi": 66,
          "time": 237.96630000000076,
          "velocity": 0.7874015748031497,
          "duration": 2.0296627083333476
        },
        {
          "name": "A4",
          "midi": 69,
          "time": 237.96630000000076,
          "velocity": 0.7874015748031497,
          "duration": 2.0296627083333476
        },
        {
          "name": "D5",
          "midi": 74,
          "time": 237.96630000000076,
          "velocity": 0.7874015748031497,
          "duration": 2.0296627083333476
        },
        {
          "name": "F#4",
          "midi": 66,
          "time": 240.00020000000077,
          "velocity": 0.7874015748031497,
          "duration": 2.0296627083333476
        },
        {
          "name": "D5",
          "midi": 74,
          "time": 240.00020000000077,
          "velocity": 0.7874015748031497,
          "duration": 2.0296627083333476
        },
        {
          "name": "B4",
          "midi": 71,
          "time": 240.00020000000077,
          "velocity": 0.7874015748031497,
          "duration": 2.0296627083333476
        },
        {
          "name": "G#4",
          "midi": 68,
          "time": 242.0341000000008,
          "velocity": 0.7874015748031497,
          "duration": 2.0296627083333476
        },
        {
          "name": "B4",
          "midi": 71,
          "time": 242.0341000000008,
          "velocity": 0.7874015748031497,
          "duration": 2.0296627083333476
        },
        {
          "name": "E4",
          "midi": 64,
          "time": 242.0341000000008,
          "velocity": 0.7874015748031497,
          "duration": 2.0296627083333476
        },
        {
          "name": "C#5",
          "midi": 73,
          "time": 244.0680000000008,
          "velocity": 0.7874015748031497,
          "duration": 1.0127127083333392
        },
        {
          "name": "F#4",
          "midi": 66,
          "time": 244.0680000000008,
          "velocity": 0.7874015748031497,
          "duration": 1.0127127083333392
        },
        {
          "name": "A4",
          "midi": 69,
          "time": 244.0680000000008,
          "velocity": 0.7874015748031497,
          "duration": 1.0127127083333392
        },
        {
          "name": "G#4",
          "midi": 68,
          "time": 245.08495000000082,
          "velocity": 0.7874015748031497,
          "duration": 1.0127127083333392
        },
        {
          "name": "E5",
          "midi": 76,
          "time": 245.08495000000082,
          "velocity": 0.7874015748031497,
          "duration": 1.0127127083333392
        },
        {
          "name": "B4",
          "midi": 71,
          "time": 245.08495000000082,
          "velocity": 0.7874015748031497,
          "duration": 1.0127127083333392
        },
        {
          "name": "E5",
          "midi": 76,
          "time": 246.10190000000082,
          "velocity": 0.7874015748031497,
          "duration": 1.0127127083333392
        },
        {
          "name": "C#5",
          "midi": 73,
          "time": 246.10190000000082,
          "velocity": 0.7874015748031497,
          "duration": 1.0127127083333392
        },
        {
          "name": "A4",
          "midi": 69,
          "time": 246.10190000000082,
          "velocity": 0.7874015748031497,
          "duration": 1.0127127083333392
        },
        {
          "name": "D5",
          "midi": 74,
          "time": 247.11885000000083,
          "velocity": 0.7874015748031497,
          "duration": 1.0127127083333392
        },
        {
          "name": "F#4",
          "midi": 66,
          "time": 247.11885000000083,
          "velocity": 0.7874015748031497,
          "duration": 1.0127127083333392
        },
        {
          "name": "A4",
          "midi": 69,
          "time": 247.11885000000083,
          "velocity": 0.7874015748031497,
          "duration": 1.0127127083333392
        },
        {
          "name": "F#5",
          "midi": 78,
          "time": 248.13580000000084,
          "velocity": 0.7874015748031497,
          "duration": 2.0296627083333476
        },
        {
          "name": "G#4",
          "midi": 68,
          "time": 248.13580000000084,
          "velocity": 0.7874015748031497,
          "duration": 2.0296627083333476
        },
        {
          "name": "C#5",
          "midi": 73,
          "time": 248.13580000000084,
          "velocity": 0.7874015748031497,
          "duration": 2.0296627083333476
        },
        {
          "name": "G#4",
          "midi": 68,
          "time": 250.16970000000086,
          "velocity": 0.7874015748031497,
          "duration": 2.0296627083333476
        },
        {
          "name": "F5",
          "midi": 77,
          "time": 250.16970000000086,
          "velocity": 0.7874015748031497,
          "duration": 2.0296627083333476
        },
        {
          "name": "C#5",
          "midi": 73,
          "time": 250.16970000000086,
          "velocity": 0.7874015748031497,
          "duration": 2.0296627083333476
        },
        {
          "name": "F#4",
          "midi": 66,
          "time": 252.20360000000088,
          "velocity": 0.7874015748031497,
          "duration": 2.0296627083333476
        },
        {
          "name": "C#5",
          "midi": 73,
          "time": 252.20360000000088,
          "velocity": 0.7874015748031497,
          "duration": 2.0296627083333476
        },
        {
          "name": "A4",
          "midi": 69,
          "time": 252.20360000000088,
          "velocity": 0.7874015748031497,
          "duration": 2.0296627083333476
        },
        {
          "name": "F#4",
          "midi": 66,
          "time": 254.2375000000009,
          "velocity": 0.7874015748031497,
          "duration": 2.0296627083333476
        },
        {
          "name": "A4",
          "midi": 69,
          "time": 254.2375000000009,
          "velocity": 0.7874015748031497,
          "duration": 2.0296627083333476
        },
        {
          "name": "D5",
          "midi": 74,
          "time": 254.2375000000009,
          "velocity": 0.7874015748031497,
          "duration": 2.0296627083333476
        },
        {
          "name": "F#4",
          "midi": 66,
          "time": 256.2714000000009,
          "velocity": 0.7874015748031497,
          "duration": 2.029662708333319
        },
        {
          "name": "D5",
          "midi": 74,
          "time": 256.2714000000009,
          "velocity": 0.7874015748031497,
          "duration": 2.029662708333319
        },
        {
          "name": "B4",
          "midi": 71,
          "time": 256.2714000000009,
          "velocity": 0.7874015748031497,
          "duration": 2.029662708333319
        },
        {
          "name": "G#4",
          "midi": 68,
          "time": 258.30530000000084,
          "velocity": 0.7874015748031497,
          "duration": 2.029662708333319
        },
        {
          "name": "B4",
          "midi": 71,
          "time": 258.30530000000084,
          "velocity": 0.7874015748031497,
          "duration": 2.029662708333319
        },
        {
          "name": "E4",
          "midi": 64,
          "time": 258.30530000000084,
          "velocity": 0.7874015748031497,
          "duration": 2.029662708333319
        },
        {
          "name": "F#4",
          "midi": 66,
          "time": 260.3392000000008,
          "velocity": 0.7874015748031497,
          "duration": 2.029662708333319
        },
        {
          "name": "C#5",
          "midi": 73,
          "time": 260.3392000000008,
          "velocity": 0.7874015748031497,
          "duration": 2.029662708333319
        },
        {
          "name": "A4",
          "midi": 69,
          "time": 260.3392000000008,
          "velocity": 0.7874015748031497,
          "duration": 2.029662708333319
        },
        {
          "name": "F#4",
          "midi": 66,
          "time": 262.37310000000076,
          "velocity": 0.7874015748031497,
          "duration": 2.029662708333319
        },
        {
          "name": "A4",
          "midi": 69,
          "time": 262.37310000000076,
          "velocity": 0.7874015748031497,
          "duration": 2.029662708333319
        },
        {
          "name": "D5",
          "midi": 74,
          "time": 262.37310000000076,
          "velocity": 0.7874015748031497,
          "duration": 2.029662708333319
        },
        {
          "name": "F#4",
          "midi": 66,
          "time": 264.4070000000007,
          "velocity": 0.7874015748031497,
          "duration": 2.029662708333319
        },
        {
          "name": "D5",
          "midi": 74,
          "time": 264.4070000000007,
          "velocity": 0.7874015748031497,
          "duration": 2.029662708333319
        },
        {
          "name": "B4",
          "midi": 71,
          "time": 264.4070000000007,
          "velocity": 0.7874015748031497,
          "duration": 2.029662708333319
        },
        {
          "name": "G#4",
          "midi": 68,
          "time": 266.4409000000007,
          "velocity": 0.7874015748031497,
          "duration": 2.029662708333319
        },
        {
          "name": "B4",
          "midi": 71,
          "time": 266.4409000000007,
          "velocity": 0.7874015748031497,
          "duration": 2.029662708333319
        },
        {
          "name": "E4",
          "midi": 64,
          "time": 266.4409000000007,
          "velocity": 0.7874015748031497,
          "duration": 2.029662708333319
        },
        {
          "name": "C#5",
          "midi": 73,
          "time": 268.47480000000064,
          "velocity": 0.7874015748031497,
          "duration": 1.0127127083333107
        },
        {
          "name": "F#4",
          "midi": 66,
          "time": 268.47480000000064,
          "velocity": 0.7874015748031497,
          "duration": 1.0127127083333107
        },
        {
          "name": "A4",
          "midi": 69,
          "time": 268.47480000000064,
          "velocity": 0.7874015748031497,
          "duration": 1.0127127083333107
        },
        {
          "name": "G#4",
          "midi": 68,
          "time": 269.4917500000006,
          "velocity": 0.7874015748031497,
          "duration": 1.0127127083333107
        },
        {
          "name": "E5",
          "midi": 76,
          "time": 269.4917500000006,
          "velocity": 0.7874015748031497,
          "duration": 1.0127127083333107
        },
        {
          "name": "B4",
          "midi": 71,
          "time": 269.4917500000006,
          "velocity": 0.7874015748031497,
          "duration": 1.0127127083333107
        },
        {
          "name": "E5",
          "midi": 76,
          "time": 270.50870000000054,
          "velocity": 0.7874015748031497,
          "duration": 1.0127127083333107
        },
        {
          "name": "C#5",
          "midi": 73,
          "time": 270.50870000000054,
          "velocity": 0.7874015748031497,
          "duration": 1.0127127083333107
        },
        {
          "name": "A4",
          "midi": 69,
          "time": 270.50870000000054,
          "velocity": 0.7874015748031497,
          "duration": 1.0127127083333107
        },
        {
          "name": "D5",
          "midi": 74,
          "time": 271.5256500000005,
          "velocity": 0.7874015748031497,
          "duration": 1.0127127083333107
        },
        {
          "name": "F#4",
          "midi": 66,
          "time": 271.5256500000005,
          "velocity": 0.7874015748031497,
          "duration": 1.0127127083333107
        },
        {
          "name": "A4",
          "midi": 69,
          "time": 271.5256500000005,
          "velocity": 0.7874015748031497,
          "duration": 1.0127127083333107
        },
        {
          "name": "F#5",
          "midi": 78,
          "time": 272.54260000000045,
          "velocity": 0.7874015748031497,
          "duration": 2.029662708333319
        },
        {
          "name": "G#4",
          "midi": 68,
          "time": 272.54260000000045,
          "velocity": 0.7874015748031497,
          "duration": 2.029662708333319
        },
        {
          "name": "C#5",
          "midi": 73,
          "time": 272.54260000000045,
          "velocity": 0.7874015748031497,
          "duration": 2.029662708333319
        },
        {
          "name": "G#4",
          "midi": 68,
          "time": 274.5765000000004,
          "velocity": 0.7874015748031497,
          "duration": 2.029662708333319
        },
        {
          "name": "F5",
          "midi": 77,
          "time": 274.5765000000004,
          "velocity": 0.7874015748031497,
          "duration": 2.029662708333319
        },
        {
          "name": "C#5",
          "midi": 73,
          "time": 274.5765000000004,
          "velocity": 0.7874015748031497,
          "duration": 2.029662708333319
        },
        {
          "name": "F#4",
          "midi": 66,
          "time": 276.61040000000037,
          "velocity": 0.7874015748031497,
          "duration": 2.029662708333319
        },
        {
          "name": "C#5",
          "midi": 73,
          "time": 276.61040000000037,
          "velocity": 0.7874015748031497,
          "duration": 2.029662708333319
        },
        {
          "name": "A4",
          "midi": 69,
          "time": 276.61040000000037,
          "velocity": 0.7874015748031497,
          "duration": 2.029662708333319
        },
        {
          "name": "F#4",
          "midi": 66,
          "time": 278.6443000000003,
          "velocity": 0.7874015748031497,
          "duration": 2.029662708333319
        },
        {
          "name": "A4",
          "midi": 69,
          "time": 278.6443000000003,
          "velocity": 0.7874015748031497,
          "duration": 2.029662708333319
        },
        {
          "name": "D5",
          "midi": 74,
          "time": 278.6443000000003,
          "velocity": 0.7874015748031497,
          "duration": 2.029662708333319
        },
        {
          "name": "F#4",
          "midi": 66,
          "time": 280.6782000000003,
          "velocity": 0.7874015748031497,
          "duration": 2.029662708333319
        },
        {
          "name": "D5",
          "midi": 74,
          "time": 280.6782000000003,
          "velocity": 0.7874015748031497,
          "duration": 2.029662708333319
        },
        {
          "name": "B4",
          "midi": 71,
          "time": 280.6782000000003,
          "velocity": 0.7874015748031497,
          "duration": 2.029662708333319
        },
        {
          "name": "G#4",
          "midi": 68,
          "time": 282.71210000000025,
          "velocity": 0.7874015748031497,
          "duration": 2.029662708333319
        },
        {
          "name": "B4",
          "midi": 71,
          "time": 282.71210000000025,
          "velocity": 0.7874015748031497,
          "duration": 2.029662708333319
        },
        {
          "name": "E4",
          "midi": 64,
          "time": 282.71210000000025,
          "velocity": 0.7874015748031497,
          "duration": 2.029662708333319
        },
        {
          "name": "F#4",
          "midi": 66,
          "time": 284.7460000000002,
          "velocity": 0.7874015748031497,
          "duration": 2.029662708333319
        },
        {
          "name": "C#5",
          "midi": 73,
          "time": 284.7460000000002,
          "velocity": 0.7874015748031497,
          "duration": 2.029662708333319
        },
        {
          "name": "A4",
          "midi": 69,
          "time": 284.7460000000002,
          "velocity": 0.7874015748031497,
          "duration": 2.029662708333319
        },
        {
          "name": "F#4",
          "midi": 66,
          "time": 286.77990000000017,
          "velocity": 0.7874015748031497,
          "duration": 2.029662708333319
        },
        {
          "name": "A4",
          "midi": 69,
          "time": 286.77990000000017,
          "velocity": 0.7874015748031497,
          "duration": 2.029662708333319
        },
        {
          "name": "D5",
          "midi": 74,
          "time": 286.77990000000017,
          "velocity": 0.7874015748031497,
          "duration": 2.029662708333319
        },
        {
          "name": "F#4",
          "midi": 66,
          "time": 288.8138000000001,
          "velocity": 0.7874015748031497,
          "duration": 2.029662708333319
        },
        {
          "name": "D5",
          "midi": 74,
          "time": 288.8138000000001,
          "velocity": 0.7874015748031497,
          "duration": 2.029662708333319
        },
        {
          "name": "B4",
          "midi": 71,
          "time": 288.8138000000001,
          "velocity": 0.7874015748031497,
          "duration": 2.029662708333319
        },
        {
          "name": "G#4",
          "midi": 68,
          "time": 290.8477000000001,
          "velocity": 0.7874015748031497,
          "duration": 2.029662708333319
        },
        {
          "name": "B4",
          "midi": 71,
          "time": 290.8477000000001,
          "velocity": 0.7874015748031497,
          "duration": 2.029662708333319
        },
        {
          "name": "E4",
          "midi": 64,
          "time": 290.8477000000001,
          "velocity": 0.7874015748031497,
          "duration": 2.029662708333319
        },
        {
          "name": "C#5",
          "midi": 73,
          "time": 292.88160000000005,
          "velocity": 0.7874015748031497,
          "duration": 1.0127127083333107
        },
        {
          "name": "F#4",
          "midi": 66,
          "time": 292.88160000000005,
          "velocity": 0.7874015748031497,
          "duration": 1.0127127083333107
        },
        {
          "name": "A4",
          "midi": 69,
          "time": 292.88160000000005,
          "velocity": 0.7874015748031497,
          "duration": 1.0127127083333107
        },
        {
          "name": "G#4",
          "midi": 68,
          "time": 293.89855,
          "velocity": 0.7874015748031497,
          "duration": 1.0127127083333107
        },
        {
          "name": "E5",
          "midi": 76,
          "time": 293.89855,
          "velocity": 0.7874015748031497,
          "duration": 1.0127127083333107
        },
        {
          "name": "B4",
          "midi": 71,
          "time": 293.89855,
          "velocity": 0.7874015748031497,
          "duration": 1.0127127083333107
        },
        {
          "name": "E5",
          "midi": 76,
          "time": 294.91549999999995,
          "velocity": 0.7874015748031497,
          "duration": 1.0127127083333107
        },
        {
          "name": "C#5",
          "midi": 73,
          "time": 294.91549999999995,
          "velocity": 0.7874015748031497,
          "duration": 1.0127127083333107
        },
        {
          "name": "A4",
          "midi": 69,
          "time": 294.91549999999995,
          "velocity": 0.7874015748031497,
          "duration": 1.0127127083333107
        },
        {
          "name": "D5",
          "midi": 74,
          "time": 295.9324499999999,
          "velocity": 0.7874015748031497,
          "duration": 1.0127127083333107
        },
        {
          "name": "F#4",
          "midi": 66,
          "time": 295.9324499999999,
          "velocity": 0.7874015748031497,
          "duration": 1.0127127083333107
        },
        {
          "name": "A4",
          "midi": 69,
          "time": 295.9324499999999,
          "velocity": 0.7874015748031497,
          "duration": 1.0127127083333107
        },
        {
          "name": "F#5",
          "midi": 78,
          "time": 296.94939999999986,
          "velocity": 0.7874015748031497,
          "duration": 2.029662708333319
        },
        {
          "name": "G#4",
          "midi": 68,
          "time": 296.94939999999986,
          "velocity": 0.7874015748031497,
          "duration": 2.029662708333319
        },
        {
          "name": "C#5",
          "midi": 73,
          "time": 296.94939999999986,
          "velocity": 0.7874015748031497,
          "duration": 2.029662708333319
        },
        {
          "name": "G#4",
          "midi": 68,
          "time": 298.9832999999998,
          "velocity": 0.7874015748031497,
          "duration": 2.029662708333319
        },
        {
          "name": "F5",
          "midi": 77,
          "time": 298.9832999999998,
          "velocity": 0.7874015748031497,
          "duration": 2.029662708333319
        },
        {
          "name": "C#5",
          "midi": 73,
          "time": 298.9832999999998,
          "velocity": 0.7874015748031497,
          "duration": 2.029662708333319
        },
        {
          "name": "F#4",
          "midi": 66,
          "time": 301.0171999999998,
          "velocity": 0.7874015748031497,
          "duration": 2.029662708333319
        },
        {
          "name": "C#5",
          "midi": 73,
          "time": 301.0171999999998,
          "velocity": 0.7874015748031497,
          "duration": 2.029662708333319
        },
        {
          "name": "A4",
          "midi": 69,
          "time": 301.0171999999998,
          "velocity": 0.7874015748031497,
          "duration": 2.029662708333319
        },
        {
          "name": "F#4",
          "midi": 66,
          "time": 303.05109999999974,
          "velocity": 0.7874015748031497,
          "duration": 2.029662708333319
        },
        {
          "name": "A4",
          "midi": 69,
          "time": 303.05109999999974,
          "velocity": 0.7874015748031497,
          "duration": 2.029662708333319
        },
        {
          "name": "D5",
          "midi": 74,
          "time": 303.05109999999974,
          "velocity": 0.7874015748031497,
          "duration": 2.029662708333319
        },
        {
          "name": "F#4",
          "midi": 66,
          "time": 305.0849999999997,
          "velocity": 0.7874015748031497,
          "duration": 2.029662708333319
        },
        {
          "name": "D5",
          "midi": 74,
          "time": 305.0849999999997,
          "velocity": 0.7874015748031497,
          "duration": 2.029662708333319
        },
        {
          "name": "B4",
          "midi": 71,
          "time": 305.0849999999997,
          "velocity": 0.7874015748031497,
          "duration": 2.029662708333319
        },
        {
          "name": "G#4",
          "midi": 68,
          "time": 307.11889999999966,
          "velocity": 0.7874015748031497,
          "duration": 2.029662708333319
        },
        {
          "name": "B4",
          "midi": 71,
          "time": 307.11889999999966,
          "velocity": 0.7874015748031497,
          "duration": 2.029662708333319
        },
        {
          "name": "E4",
          "midi": 64,
          "time": 307.11889999999966,
          "velocity": 0.7874015748031497,
          "duration": 2.029662708333319
        },
        {
          "name": "F#4",
          "midi": 66,
          "time": 309.1527999999996,
          "velocity": 0.7874015748031497,
          "duration": 2.029662708333319
        },
        {
          "name": "C#5",
          "midi": 73,
          "time": 309.1527999999996,
          "velocity": 0.7874015748031497,
          "duration": 2.029662708333319
        },
        {
          "name": "A4",
          "midi": 69,
          "time": 309.1527999999996,
          "velocity": 0.7874015748031497,
          "duration": 2.029662708333319
        },
        {
          "name": "F#4",
          "midi": 66,
          "time": 311.1866999999996,
          "velocity": 0.7874015748031497,
          "duration": 2.029662708333319
        },
        {
          "name": "A4",
          "midi": 69,
          "time": 311.1866999999996,
          "velocity": 0.7874015748031497,
          "duration": 2.029662708333319
        },
        {
          "name": "D5",
          "midi": 74,
          "time": 311.1866999999996,
          "velocity": 0.7874015748031497,
          "duration": 2.029662708333319
        },
        {
          "name": "F#4",
          "midi": 66,
          "time": 313.22059999999954,
          "velocity": 0.7874015748031497,
          "duration": 2.029662708333319
        },
        {
          "name": "D5",
          "midi": 74,
          "time": 313.22059999999954,
          "velocity": 0.7874015748031497,
          "duration": 2.029662708333319
        },
        {
          "name": "B4",
          "midi": 71,
          "time": 313.22059999999954,
          "velocity": 0.7874015748031497,
          "duration": 2.029662708333319
        },
        {
          "name": "G#4",
          "midi": 68,
          "time": 315.2544999999995,
          "velocity": 0.7874015748031497,
          "duration": 2.029662708333319
        },
        {
          "name": "B4",
          "midi": 71,
          "time": 315.2544999999995,
          "velocity": 0.7874015748031497,
          "duration": 2.029662708333319
        },
        {
          "name": "E4",
          "midi": 64,
          "time": 315.2544999999995,
          "velocity": 0.7874015748031497,
          "duration": 2.029662708333319
        },
        {
          "name": "C#5",
          "midi": 73,
          "time": 317.28839999999946,
          "velocity": 0.7874015748031497,
          "duration": 1.0127127083333107
        },
        {
          "name": "F#4",
          "midi": 66,
          "time": 317.28839999999946,
          "velocity": 0.7874015748031497,
          "duration": 1.0127127083333107
        },
        {
          "name": "A4",
          "midi": 69,
          "time": 317.28839999999946,
          "velocity": 0.7874015748031497,
          "duration": 1.0127127083333107
        },
        {
          "name": "G#4",
          "midi": 68,
          "time": 318.3053499999994,
          "velocity": 0.7874015748031497,
          "duration": 1.0127127083333107
        },
        {
          "name": "E5",
          "midi": 76,
          "time": 318.3053499999994,
          "velocity": 0.7874015748031497,
          "duration": 1.0127127083333107
        },
        {
          "name": "B4",
          "midi": 71,
          "time": 318.3053499999994,
          "velocity": 0.7874015748031497,
          "duration": 1.0127127083333107
        },
        {
          "name": "E5",
          "midi": 76,
          "time": 319.32229999999936,
          "velocity": 0.7874015748031497,
          "duration": 1.0127127083333107
        },
        {
          "name": "C#5",
          "midi": 73,
          "time": 319.32229999999936,
          "velocity": 0.7874015748031497,
          "duration": 1.0127127083333107
        },
        {
          "name": "A4",
          "midi": 69,
          "time": 319.32229999999936,
          "velocity": 0.7874015748031497,
          "duration": 1.0127127083333107
        },
        {
          "name": "D5",
          "midi": 74,
          "time": 320.3392499999993,
          "velocity": 0.7874015748031497,
          "duration": 1.0127127083333107
        },
        {
          "name": "F#4",
          "midi": 66,
          "time": 320.3392499999993,
          "velocity": 0.7874015748031497,
          "duration": 1.0127127083333107
        },
        {
          "name": "A4",
          "midi": 69,
          "time": 320.3392499999993,
          "velocity": 0.7874015748031497,
          "duration": 1.0127127083333107
        },
        {
          "name": "F#5",
          "midi": 78,
          "time": 321.35619999999926,
          "velocity": 0.7874015748031497,
          "duration": 2.029662708333319
        },
        {
          "name": "G#4",
          "midi": 68,
          "time": 321.35619999999926,
          "velocity": 0.7874015748031497,
          "duration": 2.029662708333319
        },
        {
          "name": "C#5",
          "midi": 73,
          "time": 321.35619999999926,
          "velocity": 0.7874015748031497,
          "duration": 2.029662708333319
        },
        {
          "name": "G#4",
          "midi": 68,
          "time": 323.3900999999992,
          "velocity": 0.7874015748031497,
          "duration": 2.029662708333319
        },
        {
          "name": "F5",
          "midi": 77,
          "time": 323.3900999999992,
          "velocity": 0.7874015748031497,
          "duration": 2.029662708333319
        },
        {
          "name": "C#5",
          "midi": 73,
          "time": 323.3900999999992,
          "velocity": 0.7874015748031497,
          "duration": 2.029662708333319
        }
      ],
      "controlChanges": {
        "6": [
          {
            "number": 6,
            "time": 0.5338987499999999,
            "value": 0.3937007874015748
          },
          {
            "number": 6,
            "time": 0.644068333333333,
            "value": 0.3937007874015748
          }
        ],
        "7": [
          {
            "number": 7,
            "time": 0.6059327083333331,
            "value": 1
          },
          {
            "number": 7,
            "time": 1.6779674999999998,
            "value": 1
          }
        ],
        "91": [
          {
            "number": 91,
            "time": 1.076272083333333,
            "value": 1
          }
        ],
        "93": [
          {
            "number": 93,
            "time": 0.5423733333333332,
            "value": 1
          }
        ],
        "98": [
          {
            "number": 98,
            "time": 0.5254241666666666,
            "value": 0.7795275590551181
          },
          {
            "number": 98,
            "time": 0.6355937499999997,
            "value": 0.25196850393700787
          }
        ],
        "99": [
          {
            "number": 99,
            "time": 0.5169495833333333,
            "value": 0.007874015748031496
          },
          {
            "number": 99,
            "time": 0.6271191666666664,
            "value": 0.007874015748031496
          }
        ]
      },
      "id": 5,
      "name": "warmstrings",
      "instrumentNumber": 50,
      "instrument": "synthstrings 1",
      "instrumentFamily": "ensemble",
      "channelNumber": 4,
      "isPercussion": false
    },
    {
      "startTime": 4.084749166666667,
      "duration": 52.792416875000015,
      "length": 33,
      "notes": [
        {
          "name": "B1",
          "midi": 35,
          "time": 4.084749166666667,
          "velocity": 1,
          "duration": 2.012713541666665
        },
        {
          "name": "B1",
          "midi": 35,
          "time": 6.118649166666665,
          "velocity": 1,
          "duration": 2.012713541666666
        },
        {
          "name": "B1",
          "midi": 35,
          "time": 8.152549166666665,
          "velocity": 1,
          "duration": 2.0127135416666686
        },
        {
          "name": "B1",
          "midi": 35,
          "time": 10.186449166666668,
          "velocity": 1,
          "duration": 2.0127135416666686
        },
        {
          "name": "F#2",
          "midi": 42,
          "time": 12.22034916666667,
          "velocity": 1,
          "duration": 1.529662291666666
        },
        {
          "name": "E2",
          "midi": 40,
          "time": 13.73306229166667,
          "velocity": 1,
          "duration": 0.4618647916666667
        },
        {
          "name": "D2",
          "midi": 38,
          "time": 14.245774583333336,
          "velocity": 1,
          "duration": 2.0635610416666665
        },
        {
          "name": "B2",
          "midi": 47,
          "time": 16.279674583333335,
          "velocity": 1,
          "duration": 2.046611875
        },
        {
          "name": "E2",
          "midi": 40,
          "time": 18.313574583333335,
          "velocity": 1,
          "duration": 1.0635602083333353
        },
        {
          "name": "F2",
          "midi": 41,
          "time": 19.330524583333336,
          "velocity": 1,
          "duration": 1.0000008333333348
        },
        {
          "name": "F#2",
          "midi": 42,
          "time": 20.355949166666672,
          "velocity": 1,
          "duration": 1.5296622916666678
        },
        {
          "name": "E2",
          "midi": 40,
          "time": 21.868662291666674,
          "velocity": 1,
          "duration": 0.4618647916666667
        },
        {
          "name": "D2",
          "midi": 38,
          "time": 22.38137458333334,
          "velocity": 1,
          "duration": 2.0635610416666665
        },
        {
          "name": "B2",
          "midi": 47,
          "time": 24.41527458333334,
          "velocity": 1,
          "duration": 2.046611875
        },
        {
          "name": "E2",
          "midi": 40,
          "time": 26.44917458333334,
          "velocity": 1,
          "duration": 1.0635602083333353
        },
        {
          "name": "F2",
          "midi": 41,
          "time": 27.46612458333334,
          "velocity": 1,
          "duration": 1.0000008333333348
        },
        {
          "name": "F#2",
          "midi": 42,
          "time": 28.491549166666676,
          "velocity": 1,
          "duration": 1.5296622916666678
        },
        {
          "name": "E2",
          "midi": 40,
          "time": 30.004262291666677,
          "velocity": 1,
          "duration": 0.4618647916666667
        },
        {
          "name": "D2",
          "midi": 38,
          "time": 30.516974583333344,
          "velocity": 1,
          "duration": 2.0635610416666665
        },
        {
          "name": "B2",
          "midi": 47,
          "time": 32.550874583333346,
          "velocity": 1,
          "duration": 2.0466118749999964
        },
        {
          "name": "E2",
          "midi": 40,
          "time": 34.58477458333334,
          "velocity": 1,
          "duration": 1.0635602083333353
        },
        {
          "name": "F2",
          "midi": 41,
          "time": 35.60172458333334,
          "velocity": 1,
          "duration": 1.0000008333333312
        },
        {
          "name": "F#2",
          "midi": 42,
          "time": 36.627149166666676,
          "velocity": 1,
          "duration": 1.5296622916666678
        },
        {
          "name": "E2",
          "midi": 40,
          "time": 38.139862291666674,
          "velocity": 1,
          "duration": 0.46186479166667027
        },
        {
          "name": "D2",
          "midi": 38,
          "time": 38.65257458333335,
          "velocity": 1,
          "duration": 2.0635610416666665
        },
        {
          "name": "B2",
          "midi": 47,
          "time": 40.68647458333335,
          "velocity": 1,
          "duration": 2.0466118749999964
        },
        {
          "name": "E2",
          "midi": 40,
          "time": 42.720374583333346,
          "velocity": 1,
          "duration": 1.0635602083333353
        },
        {
          "name": "F2",
          "midi": 41,
          "time": 43.73732458333335,
          "velocity": 1,
          "duration": 1.0000008333333312
        },
        {
          "name": "F#2",
          "midi": 42,
          "time": 44.74580000000001,
          "velocity": 1,
          "duration": 1.012712708333332
        },
        {
          "name": "G#2",
          "midi": 44,
          "time": 45.76275000000001,
          "velocity": 1,
          "duration": 1.012712708333332
        },
        {
          "name": "A2",
          "midi": 45,
          "time": 46.77970000000001,
          "velocity": 1,
          "duration": 1.012712708333332
        },
        {
          "name": "D2",
          "midi": 38,
          "time": 47.796650000000014,
          "velocity": 1,
          "duration": 1.012712708333332
        },
        {
          "name": "C#2",
          "midi": 37,
          "time": 48.85597291666668,
          "velocity": 1,
          "duration": 3.936443958333335
        }
      ],
      "controlChanges": {
        "6": [
          {
            "number": 6,
            "time": 0.5932208333333333,
            "value": 0.05511811023622047
          }
        ],
        "7": [
          {
            "number": 7,
            "time": 0.6271191666666667,
            "value": 1
          },
          {
            "number": 7,
            "time": 1.6864420833333336,
            "value": 1
          }
        ],
        "91": [
          {
            "number": 91,
            "time": 1.0847466666666667,
            "value": 1
          }
        ],
        "93": [
          {
            "number": 93,
            "time": 0.508475,
            "value": 1
          }
        ],
        "100": [
          {
            "number": 100,
            "time": 0.58474625,
            "value": 0
          }
        ],
        "101": [
          {
            "number": 101,
            "time": 0.5762716666666667,
            "value": 0
          }
        ]
      },
      "id": 6,
      "name": "bass pedals",
      "instrumentNumber": 90,
      "instrument": "pad 3 (polysynth)",
      "instrumentFamily": "synth pad",
      "channelNumber": 5,
      "isPercussion": false
    },
    {
      "startTime": 52.8814,
      "duration": 325.40705083333046,
      "length": 1228,
      "notes": [
        {
          "name": "F#1",
          "midi": 30,
          "time": 52.8814,
          "velocity": 1,
          "duration": 0.2500002083333328
        },
        {
          "name": "F#1",
          "midi": 30,
          "time": 53.1356375,
          "velocity": 1,
          "duration": 0.12288145833333175
        },
        {
          "name": "F#1",
          "midi": 30,
          "time": 53.26275625,
          "velocity": 1,
          "duration": 0.12288145833333175
        },
        {
          "name": "F#1",
          "midi": 30,
          "time": 53.389875,
          "velocity": 1,
          "duration": 0.2500002083333328
        },
        {
          "name": "F#1",
          "midi": 30,
          "time": 53.644112500000006,
          "velocity": 1,
          "duration": 0.2500002083333328
        },
        {
          "name": "F#1",
          "midi": 30,
          "time": 53.89835000000001,
          "velocity": 1,
          "duration": 0.2500002083333328
        },
        {
          "name": "F#1",
          "midi": 30,
          "time": 54.15258750000001,
          "velocity": 1,
          "duration": 0.12288145833333175
        },
        {
          "name": "F#1",
          "midi": 30,
          "time": 54.27970625000001,
          "velocity": 1,
          "duration": 0.12288145833333175
        },
        {
          "name": "F#1",
          "midi": 30,
          "time": 54.40682500000001,
          "velocity": 1,
          "duration": 0.2500002083333328
        },
        {
          "name": "F#1",
          "midi": 30,
          "time": 54.661062500000014,
          "velocity": 1,
          "duration": 0.2500002083333328
        },
        {
          "name": "D2",
          "midi": 38,
          "time": 54.915300000000016,
          "velocity": 1,
          "duration": 0.2500002083333328
        },
        {
          "name": "D2",
          "midi": 38,
          "time": 55.16953750000002,
          "velocity": 1,
          "duration": 0.12288145833333175
        },
        {
          "name": "D2",
          "midi": 38,
          "time": 55.29665625000002,
          "velocity": 1,
          "duration": 0.12288145833333175
        },
        {
          "name": "D2",
          "midi": 38,
          "time": 55.42377500000002,
          "velocity": 1,
          "duration": 0.2500002083333328
        },
        {
          "name": "D2",
          "midi": 38,
          "time": 55.67801250000002,
          "velocity": 1,
          "duration": 0.2500002083333328
        },
        {
          "name": "D2",
          "midi": 38,
          "time": 55.932250000000025,
          "velocity": 1,
          "duration": 0.2500002083333328
        },
        {
          "name": "D2",
          "midi": 38,
          "time": 56.18648750000003,
          "velocity": 1,
          "duration": 0.12288145833333175
        },
        {
          "name": "D2",
          "midi": 38,
          "time": 56.31360625000003,
          "velocity": 1,
          "duration": 0.12288145833333175
        },
        {
          "name": "D2",
          "midi": 38,
          "time": 56.44072500000003,
          "velocity": 1,
          "duration": 0.2500002083333328
        },
        {
          "name": "D2",
          "midi": 38,
          "time": 56.69496250000003,
          "velocity": 1,
          "duration": 0.2500002083333328
        },
        {
          "name": "B1",
          "midi": 35,
          "time": 56.94920000000003,
          "velocity": 1,
          "duration": 0.2500002083333328
        },
        {
          "name": "B1",
          "midi": 35,
          "time": 57.203437500000035,
          "velocity": 1,
          "duration": 0.12288145833333175
        },
        {
          "name": "B1",
          "midi": 35,
          "time": 57.330556250000036,
          "velocity": 1,
          "duration": 0.12288145833333175
        },
        {
          "name": "B1",
          "midi": 35,
          "time": 57.45767500000004,
          "velocity": 1,
          "duration": 0.2500002083333328
        },
        {
          "name": "B1",
          "midi": 35,
          "time": 57.71191250000004,
          "velocity": 1,
          "duration": 0.2500002083333328
        },
        {
          "name": "B1",
          "midi": 35,
          "time": 57.96615000000004,
          "velocity": 1,
          "duration": 0.2500002083333328
        },
        {
          "name": "B1",
          "midi": 35,
          "time": 58.220387500000044,
          "velocity": 1,
          "duration": 0.12288145833333175
        },
        {
          "name": "B1",
          "midi": 35,
          "time": 58.347506250000045,
          "velocity": 1,
          "duration": 0.12288145833333175
        },
        {
          "name": "B1",
          "midi": 35,
          "time": 58.474625000000046,
          "velocity": 1,
          "duration": 0.2500002083333328
        },
        {
          "name": "B1",
          "midi": 35,
          "time": 58.72886250000005,
          "velocity": 1,
          "duration": 0.2500002083333328
        },
        {
          "name": "E1",
          "midi": 28,
          "time": 58.98310000000005,
          "velocity": 1,
          "duration": 0.2500002083333328
        },
        {
          "name": "E1",
          "midi": 28,
          "time": 59.23733750000005,
          "velocity": 1,
          "duration": 0.12288145833333175
        },
        {
          "name": "E1",
          "midi": 28,
          "time": 59.36445625000005,
          "velocity": 1,
          "duration": 0.12288145833333175
        },
        {
          "name": "E1",
          "midi": 28,
          "time": 59.491575000000054,
          "velocity": 1,
          "duration": 0.2500002083333328
        },
        {
          "name": "E1",
          "midi": 28,
          "time": 59.745812500000056,
          "velocity": 1,
          "duration": 0.2500002083333328
        },
        {
          "name": "E1",
          "midi": 28,
          "time": 60.00005000000006,
          "velocity": 1,
          "duration": 0.2500002083333328
        },
        {
          "name": "E1",
          "midi": 28,
          "time": 60.25428750000006,
          "velocity": 1,
          "duration": 0.12288145833333175
        },
        {
          "name": "E1",
          "midi": 28,
          "time": 60.38140625000006,
          "velocity": 1,
          "duration": 0.12288145833333175
        },
        {
          "name": "E1",
          "midi": 28,
          "time": 60.50852500000006,
          "velocity": 1,
          "duration": 0.2500002083333328
        },
        {
          "name": "E1",
          "midi": 28,
          "time": 60.762762500000065,
          "velocity": 1,
          "duration": 0.2500002083333328
        },
        {
          "name": "F#1",
          "midi": 30,
          "time": 61.01700000000007,
          "velocity": 1,
          "duration": 0.2500002083333328
        },
        {
          "name": "F#1",
          "midi": 30,
          "time": 61.27123750000007,
          "velocity": 1,
          "duration": 0.12288145833333175
        },
        {
          "name": "F#1",
          "midi": 30,
          "time": 61.39835625000007,
          "velocity": 1,
          "duration": 0.12288145833333175
        },
        {
          "name": "F#1",
          "midi": 30,
          "time": 61.52547500000007,
          "velocity": 1,
          "duration": 0.2500002083333328
        },
        {
          "name": "F#1",
          "midi": 30,
          "time": 61.77971250000007,
          "velocity": 1,
          "duration": 0.2500002083333328
        },
        {
          "name": "F#1",
          "midi": 30,
          "time": 62.033950000000075,
          "velocity": 1,
          "duration": 0.2500002083333328
        },
        {
          "name": "F#1",
          "midi": 30,
          "time": 62.28818750000008,
          "velocity": 1,
          "duration": 0.12288145833333175
        },
        {
          "name": "F#1",
          "midi": 30,
          "time": 62.41530625000008,
          "velocity": 1,
          "duration": 0.12288145833333175
        },
        {
          "name": "F#1",
          "midi": 30,
          "time": 62.54242500000008,
          "velocity": 1,
          "duration": 0.2500002083333328
        },
        {
          "name": "F#1",
          "midi": 30,
          "time": 62.79666250000008,
          "velocity": 1,
          "duration": 0.2500002083333328
        },
        {
          "name": "D2",
          "midi": 38,
          "time": 63.050900000000084,
          "velocity": 1,
          "duration": 0.2500002083333328
        },
        {
          "name": "D2",
          "midi": 38,
          "time": 63.305137500000086,
          "velocity": 1,
          "duration": 0.12288145833333175
        },
        {
          "name": "D2",
          "midi": 38,
          "time": 63.43225625000009,
          "velocity": 1,
          "duration": 0.12288145833333175
        },
        {
          "name": "D2",
          "midi": 38,
          "time": 63.55937500000009,
          "velocity": 1,
          "duration": 0.2500002083333328
        },
        {
          "name": "D2",
          "midi": 38,
          "time": 63.81361250000009,
          "velocity": 1,
          "duration": 0.2500002083333328
        },
        {
          "name": "D2",
          "midi": 38,
          "time": 64.06785000000009,
          "velocity": 1,
          "duration": 0.2500002083333328
        },
        {
          "name": "D2",
          "midi": 38,
          "time": 64.3220875000001,
          "velocity": 1,
          "duration": 0.12288145833333886
        },
        {
          "name": "D2",
          "midi": 38,
          "time": 64.4492062500001,
          "velocity": 1,
          "duration": 0.12288145833333886
        },
        {
          "name": "D2",
          "midi": 38,
          "time": 64.57632500000011,
          "velocity": 1,
          "duration": 0.2500002083333328
        },
        {
          "name": "D2",
          "midi": 38,
          "time": 64.83056250000011,
          "velocity": 1,
          "duration": 0.2500002083333328
        },
        {
          "name": "B1",
          "midi": 35,
          "time": 65.08480000000012,
          "velocity": 1,
          "duration": 0.2500002083333328
        },
        {
          "name": "B1",
          "midi": 35,
          "time": 65.33903750000012,
          "velocity": 1,
          "duration": 0.12288145833333886
        },
        {
          "name": "B1",
          "midi": 35,
          "time": 65.46615625000013,
          "velocity": 1,
          "duration": 0.12288145833333886
        },
        {
          "name": "B1",
          "midi": 35,
          "time": 65.59327500000013,
          "velocity": 1,
          "duration": 0.2500002083333328
        },
        {
          "name": "B1",
          "midi": 35,
          "time": 65.84751250000014,
          "velocity": 1,
          "duration": 0.2500002083333328
        },
        {
          "name": "B1",
          "midi": 35,
          "time": 66.10175000000014,
          "velocity": 1,
          "duration": 0.2500002083333328
        },
        {
          "name": "B1",
          "midi": 35,
          "time": 66.35598750000014,
          "velocity": 1,
          "duration": 0.12288145833333886
        },
        {
          "name": "B1",
          "midi": 35,
          "time": 66.48310625000015,
          "velocity": 1,
          "duration": 0.12288145833333886
        },
        {
          "name": "B1",
          "midi": 35,
          "time": 66.61022500000016,
          "velocity": 1,
          "duration": 0.2500002083333328
        },
        {
          "name": "B1",
          "midi": 35,
          "time": 66.86446250000016,
          "velocity": 1,
          "duration": 0.2500002083333328
        },
        {
          "name": "E1",
          "midi": 28,
          "time": 67.11870000000016,
          "velocity": 1,
          "duration": 0.2500002083333328
        },
        {
          "name": "E1",
          "midi": 28,
          "time": 67.37293750000016,
          "velocity": 1,
          "duration": 0.12288145833333886
        },
        {
          "name": "E1",
          "midi": 28,
          "time": 67.50005625000017,
          "velocity": 1,
          "duration": 0.12288145833333886
        },
        {
          "name": "E1",
          "midi": 28,
          "time": 67.62717500000018,
          "velocity": 1,
          "duration": 0.2500002083333328
        },
        {
          "name": "E1",
          "midi": 28,
          "time": 67.88141250000018,
          "velocity": 1,
          "duration": 0.2500002083333328
        },
        {
          "name": "E1",
          "midi": 28,
          "time": 68.13565000000018,
          "velocity": 1,
          "duration": 0.2500002083333328
        },
        {
          "name": "E1",
          "midi": 28,
          "time": 68.38988750000019,
          "velocity": 1,
          "duration": 0.12288145833333886
        },
        {
          "name": "E1",
          "midi": 28,
          "time": 68.5170062500002,
          "velocity": 1,
          "duration": 0.12288145833333886
        },
        {
          "name": "E1",
          "midi": 28,
          "time": 68.6441250000002,
          "velocity": 1,
          "duration": 0.2500002083333328
        },
        {
          "name": "E1",
          "midi": 28,
          "time": 68.8983625000002,
          "velocity": 1,
          "duration": 0.2500002083333328
        },
        {
          "name": "F#1",
          "midi": 30,
          "time": 69.1526000000002,
          "velocity": 1,
          "duration": 0.2500002083333328
        },
        {
          "name": "F#1",
          "midi": 30,
          "time": 69.40683750000021,
          "velocity": 1,
          "duration": 0.12288145833333886
        },
        {
          "name": "F#1",
          "midi": 30,
          "time": 69.53395625000022,
          "velocity": 1,
          "duration": 0.12288145833333886
        },
        {
          "name": "F#1",
          "midi": 30,
          "time": 69.66107500000022,
          "velocity": 1,
          "duration": 0.2500002083333328
        },
        {
          "name": "F#1",
          "midi": 30,
          "time": 69.91531250000023,
          "velocity": 1,
          "duration": 0.12288145833333886
        },
        {
          "name": "F#1",
          "midi": 30,
          "time": 70.04243125000023,
          "velocity": 1,
          "duration": 0.12288145833333886
        },
        {
          "name": "G#1",
          "midi": 32,
          "time": 70.16955000000024,
          "velocity": 1,
          "duration": 0.2500002083333328
        },
        {
          "name": "G#1",
          "midi": 32,
          "time": 70.42378750000024,
          "velocity": 1,
          "duration": 0.12288145833333886
        },
        {
          "name": "G#1",
          "midi": 32,
          "time": 70.55090625000025,
          "velocity": 1,
          "duration": 0.12288145833333886
        },
        {
          "name": "G#1",
          "midi": 32,
          "time": 70.67802500000026,
          "velocity": 1,
          "duration": 0.2500002083333328
        },
        {
          "name": "G#1",
          "midi": 32,
          "time": 70.93226250000026,
          "velocity": 1,
          "duration": 0.12288145833333886
        },
        {
          "name": "G#1",
          "midi": 32,
          "time": 71.05938125000027,
          "velocity": 1,
          "duration": 0.12288145833333886
        },
        {
          "name": "A1",
          "midi": 33,
          "time": 71.18650000000028,
          "velocity": 1,
          "duration": 0.2500002083333328
        },
        {
          "name": "A1",
          "midi": 33,
          "time": 71.44073750000028,
          "velocity": 1,
          "duration": 0.12288145833333886
        },
        {
          "name": "A1",
          "midi": 33,
          "time": 71.56785625000029,
          "velocity": 1,
          "duration": 0.12288145833333886
        },
        {
          "name": "A1",
          "midi": 33,
          "time": 71.6949750000003,
          "velocity": 1,
          "duration": 0.2500002083333328
        },
        {
          "name": "A1",
          "midi": 33,
          "time": 71.9492125000003,
          "velocity": 1,
          "duration": 0.12288145833333886
        },
        {
          "name": "A1",
          "midi": 33,
          "time": 72.07633125000031,
          "velocity": 1,
          "duration": 0.12288145833333886
        },
        {
          "name": "D2",
          "midi": 38,
          "time": 72.20345000000032,
          "velocity": 1,
          "duration": 0.2500002083333328
        },
        {
          "name": "D2",
          "midi": 38,
          "time": 72.45768750000032,
          "velocity": 1,
          "duration": 0.12288145833333886
        },
        {
          "name": "D2",
          "midi": 38,
          "time": 72.58480625000033,
          "velocity": 1,
          "duration": 0.12288145833333886
        },
        {
          "name": "D2",
          "midi": 38,
          "time": 72.71192500000033,
          "velocity": 1,
          "duration": 0.2500002083333328
        },
        {
          "name": "D2",
          "midi": 38,
          "time": 72.96616250000034,
          "velocity": 1,
          "duration": 0.12288145833333886
        },
        {
          "name": "D2",
          "midi": 38,
          "time": 73.09328125000035,
          "velocity": 1,
          "duration": 0.12288145833333886
        },
        {
          "name": "C#2",
          "midi": 37,
          "time": 73.22040000000035,
          "velocity": 1,
          "duration": 0.2500002083333328
        },
        {
          "name": "C#2",
          "midi": 37,
          "time": 73.47463750000036,
          "velocity": 1,
          "duration": 0.12288145833333886
        },
        {
          "name": "C#2",
          "midi": 37,
          "time": 73.60175625000036,
          "velocity": 1,
          "duration": 0.12288145833333886
        },
        {
          "name": "C#2",
          "midi": 37,
          "time": 73.72887500000037,
          "velocity": 1,
          "duration": 0.2500002083333328
        },
        {
          "name": "C#2",
          "midi": 37,
          "time": 73.98311250000037,
          "velocity": 1,
          "duration": 0.12288145833333886
        },
        {
          "name": "C#2",
          "midi": 37,
          "time": 74.11023125000038,
          "velocity": 1,
          "duration": 0.12288145833333886
        },
        {
          "name": "C#2",
          "midi": 37,
          "time": 74.23735000000039,
          "velocity": 1,
          "duration": 0.2500002083333328
        },
        {
          "name": "C#2",
          "midi": 37,
          "time": 74.49158750000039,
          "velocity": 1,
          "duration": 0.12288145833333886
        },
        {
          "name": "C#2",
          "midi": 37,
          "time": 74.6187062500004,
          "velocity": 1,
          "duration": 0.12288145833333886
        },
        {
          "name": "C#2",
          "midi": 37,
          "time": 74.74582500000041,
          "velocity": 1,
          "duration": 0.2500002083333328
        },
        {
          "name": "C#2",
          "midi": 37,
          "time": 75.00006250000041,
          "velocity": 1,
          "duration": 0.12288145833333886
        },
        {
          "name": "C#2",
          "midi": 37,
          "time": 75.12718125000042,
          "velocity": 1,
          "duration": 0.12288145833333886
        },
        {
          "name": "C#2",
          "midi": 37,
          "time": 75.25430000000043,
          "velocity": 1,
          "duration": 0.2500002083333328
        },
        {
          "name": "C#2",
          "midi": 37,
          "time": 75.50853750000043,
          "velocity": 1,
          "duration": 0.12288145833333886
        },
        {
          "name": "C#2",
          "midi": 37,
          "time": 75.63565625000044,
          "velocity": 1,
          "duration": 0.12288145833333886
        },
        {
          "name": "C#2",
          "midi": 37,
          "time": 75.76277500000045,
          "velocity": 1,
          "duration": 0.2500002083333328
        },
        {
          "name": "C#2",
          "midi": 37,
          "time": 76.01701250000045,
          "velocity": 1,
          "duration": 0.12288145833333886
        },
        {
          "name": "C#2",
          "midi": 37,
          "time": 76.14413125000046,
          "velocity": 1,
          "duration": 0.12288145833333886
        },
        {
          "name": "C#2",
          "midi": 37,
          "time": 76.27125000000046,
          "velocity": 1,
          "duration": 0.2500002083333328
        },
        {
          "name": "C#2",
          "midi": 37,
          "time": 76.52548750000047,
          "velocity": 1,
          "duration": 0.12288145833333886
        },
        {
          "name": "C#2",
          "midi": 37,
          "time": 76.65260625000047,
          "velocity": 1,
          "duration": 0.12288145833333886
        },
        {
          "name": "C#2",
          "midi": 37,
          "time": 76.77972500000048,
          "velocity": 1,
          "duration": 0.2500002083333328
        },
        {
          "name": "C#2",
          "midi": 37,
          "time": 77.03396250000048,
          "velocity": 1,
          "duration": 0.12288145833333886
        },
        {
          "name": "C#2",
          "midi": 37,
          "time": 77.16108125000049,
          "velocity": 1,
          "duration": 0.12288145833333886
        },
        {
          "name": "F#1",
          "midi": 30,
          "time": 77.2882000000005,
          "velocity": 1,
          "duration": 0.2500002083333328
        },
        {
          "name": "F#1",
          "midi": 30,
          "time": 77.5424375000005,
          "velocity": 1,
          "duration": 0.12288145833333886
        },
        {
          "name": "F#1",
          "midi": 30,
          "time": 77.66955625000051,
          "velocity": 1,
          "duration": 0.12288145833333886
        },
        {
          "name": "F#1",
          "midi": 30,
          "time": 77.79667500000052,
          "velocity": 1,
          "duration": 0.2500002083333328
        },
        {
          "name": "F#1",
          "midi": 30,
          "time": 78.05091250000052,
          "velocity": 1,
          "duration": 0.2500002083333328
        },
        {
          "name": "F#1",
          "midi": 30,
          "time": 78.30515000000052,
          "velocity": 1,
          "duration": 0.2500002083333328
        },
        {
          "name": "F#1",
          "midi": 30,
          "time": 78.55938750000053,
          "velocity": 1,
          "duration": 0.12288145833333886
        },
        {
          "name": "F#1",
          "midi": 30,
          "time": 78.68650625000053,
          "velocity": 1,
          "duration": 0.12288145833333886
        },
        {
          "name": "F#1",
          "midi": 30,
          "time": 78.81362500000054,
          "velocity": 1,
          "duration": 0.2500002083333328
        },
        {
          "name": "F#1",
          "midi": 30,
          "time": 79.06786250000054,
          "velocity": 1,
          "duration": 0.2500002083333328
        },
        {
          "name": "F#1",
          "midi": 30,
          "time": 79.32210000000055,
          "velocity": 1,
          "duration": 0.2500002083333328
        },
        {
          "name": "F#1",
          "midi": 30,
          "time": 79.57633750000055,
          "velocity": 1,
          "duration": 0.12288145833333886
        },
        {
          "name": "F#1",
          "midi": 30,
          "time": 79.70345625000056,
          "velocity": 1,
          "duration": 0.12288145833333886
        },
        {
          "name": "F#1",
          "midi": 30,
          "time": 79.83057500000056,
          "velocity": 1,
          "duration": 0.2500002083333328
        },
        {
          "name": "F#1",
          "midi": 30,
          "time": 80.08481250000057,
          "velocity": 1,
          "duration": 0.2500002083333328
        },
        {
          "name": "F#1",
          "midi": 30,
          "time": 80.33905000000057,
          "velocity": 1,
          "duration": 0.2500002083333328
        },
        {
          "name": "F#1",
          "midi": 30,
          "time": 80.59328750000057,
          "velocity": 1,
          "duration": 0.12288145833333886
        },
        {
          "name": "F#1",
          "midi": 30,
          "time": 80.72040625000058,
          "velocity": 1,
          "duration": 0.12288145833333886
        },
        {
          "name": "F#1",
          "midi": 30,
          "time": 80.84752500000059,
          "velocity": 1,
          "duration": 0.2500002083333328
        },
        {
          "name": "F#1",
          "midi": 30,
          "time": 81.10176250000059,
          "velocity": 1,
          "duration": 0.2500002083333328
        },
        {
          "name": "F#1",
          "midi": 30,
          "time": 81.35600000000059,
          "velocity": 1,
          "duration": 0.2500002083333328
        },
        {
          "name": "F#1",
          "midi": 30,
          "time": 81.6102375000006,
          "velocity": 1,
          "duration": 0.12288145833333886
        },
        {
          "name": "F#1",
          "midi": 30,
          "time": 81.7373562500006,
          "velocity": 1,
          "duration": 0.12288145833333886
        },
        {
          "name": "F#1",
          "midi": 30,
          "time": 81.86447500000061,
          "velocity": 1,
          "duration": 0.2500002083333328
        },
        {
          "name": "F#1",
          "midi": 30,
          "time": 82.11871250000061,
          "velocity": 1,
          "duration": 0.2500002083333328
        },
        {
          "name": "F#1",
          "midi": 30,
          "time": 82.37295000000061,
          "velocity": 1,
          "duration": 0.2500002083333328
        },
        {
          "name": "F#1",
          "midi": 30,
          "time": 82.62718750000062,
          "velocity": 1,
          "duration": 0.12288145833333886
        },
        {
          "name": "F#1",
          "midi": 30,
          "time": 82.75430625000062,
          "velocity": 1,
          "duration": 0.12288145833333886
        },
        {
          "name": "F#1",
          "midi": 30,
          "time": 82.88142500000063,
          "velocity": 1,
          "duration": 0.2500002083333328
        },
        {
          "name": "F#1",
          "midi": 30,
          "time": 83.13566250000063,
          "velocity": 1,
          "duration": 0.2500002083333328
        },
        {
          "name": "F#1",
          "midi": 30,
          "time": 83.38990000000064,
          "velocity": 1,
          "duration": 0.2500002083333328
        },
        {
          "name": "F#1",
          "midi": 30,
          "time": 83.64413750000064,
          "velocity": 1,
          "duration": 0.12288145833333886
        },
        {
          "name": "F#1",
          "midi": 30,
          "time": 83.77125625000065,
          "velocity": 1,
          "duration": 0.12288145833333886
        },
        {
          "name": "F#1",
          "midi": 30,
          "time": 83.89837500000066,
          "velocity": 1,
          "duration": 0.2500002083333328
        },
        {
          "name": "F#1",
          "midi": 30,
          "time": 84.15261250000066,
          "velocity": 1,
          "duration": 0.2500002083333328
        },
        {
          "name": "F#1",
          "midi": 30,
          "time": 84.40685000000066,
          "velocity": 1,
          "duration": 0.2500002083333328
        },
        {
          "name": "F#1",
          "midi": 30,
          "time": 84.66108750000066,
          "velocity": 1,
          "duration": 0.12288145833333886
        },
        {
          "name": "F#1",
          "midi": 30,
          "time": 84.78820625000067,
          "velocity": 1,
          "duration": 0.12288145833333886
        },
        {
          "name": "F#1",
          "midi": 30,
          "time": 84.91532500000068,
          "velocity": 1,
          "duration": 0.2500002083333328
        },
        {
          "name": "F#1",
          "midi": 30,
          "time": 85.16956250000068,
          "velocity": 1,
          "duration": 0.2500002083333328
        },
        {
          "name": "F#1",
          "midi": 30,
          "time": 85.42380000000068,
          "velocity": 1,
          "duration": 0.2500002083333328
        },
        {
          "name": "F#1",
          "midi": 30,
          "time": 85.67803750000068,
          "velocity": 1,
          "duration": 0.12288145833333886
        },
        {
          "name": "F#1",
          "midi": 30,
          "time": 85.80515625000069,
          "velocity": 1,
          "duration": 0.12288145833333886
        },
        {
          "name": "F#1",
          "midi": 30,
          "time": 85.9322750000007,
          "velocity": 1,
          "duration": 0.2500002083333328
        },
        {
          "name": "E1",
          "midi": 28,
          "time": 86.1865125000007,
          "velocity": 1,
          "duration": 0.2500002083333328
        },
        {
          "name": "F#1",
          "midi": 30,
          "time": 86.4407500000007,
          "velocity": 1,
          "duration": 0.2500002083333328
        },
        {
          "name": "F#1",
          "midi": 30,
          "time": 86.6949875000007,
          "velocity": 1,
          "duration": 0.12288145833333886
        },
        {
          "name": "F#1",
          "midi": 30,
          "time": 86.82210625000072,
          "velocity": 1,
          "duration": 0.12288145833333886
        },
        {
          "name": "F#1",
          "midi": 30,
          "time": 86.94922500000072,
          "velocity": 1,
          "duration": 0.2500002083333328
        },
        {
          "name": "E1",
          "midi": 28,
          "time": 87.20346250000073,
          "velocity": 1,
          "duration": 0.2500002083333328
        },
        {
          "name": "F#1",
          "midi": 30,
          "time": 87.45770000000073,
          "velocity": 1,
          "duration": 0.2500002083333328
        },
        {
          "name": "F#1",
          "midi": 30,
          "time": 87.71193750000073,
          "velocity": 1,
          "duration": 0.12288145833333886
        },
        {
          "name": "F#1",
          "midi": 30,
          "time": 87.83905625000074,
          "velocity": 1,
          "duration": 0.12288145833333886
        },
        {
          "name": "F#1",
          "midi": 30,
          "time": 87.96617500000075,
          "velocity": 1,
          "duration": 0.2500002083333328
        },
        {
          "name": "E1",
          "midi": 28,
          "time": 88.22041250000075,
          "velocity": 1,
          "duration": 0.2500002083333328
        },
        {
          "name": "F#1",
          "midi": 30,
          "time": 88.47465000000075,
          "velocity": 1,
          "duration": 0.2500002083333328
        },
        {
          "name": "F#1",
          "midi": 30,
          "time": 88.72888750000075,
          "velocity": 1,
          "duration": 0.12288145833333886
        },
        {
          "name": "F#1",
          "midi": 30,
          "time": 88.85600625000076,
          "velocity": 1,
          "duration": 0.12288145833333886
        },
        {
          "name": "F#1",
          "midi": 30,
          "time": 88.98312500000077,
          "velocity": 1,
          "duration": 0.2500002083333328
        },
        {
          "name": "E1",
          "midi": 28,
          "time": 89.23736250000077,
          "velocity": 1,
          "duration": 0.2500002083333328
        },
        {
          "name": "F#1",
          "midi": 30,
          "time": 89.49160000000077,
          "velocity": 1,
          "duration": 0.2500002083333328
        },
        {
          "name": "F#1",
          "midi": 30,
          "time": 89.74583750000077,
          "velocity": 1,
          "duration": 0.12288145833333886
        },
        {
          "name": "F#1",
          "midi": 30,
          "time": 89.87295625000078,
          "velocity": 1,
          "duration": 0.12288145833333886
        },
        {
          "name": "F#1",
          "midi": 30,
          "time": 90.00007500000079,
          "velocity": 1,
          "duration": 0.2500002083333328
        },
        {
          "name": "E1",
          "midi": 28,
          "time": 90.2543125000008,
          "velocity": 1,
          "duration": 0.2500002083333328
        },
        {
          "name": "F#1",
          "midi": 30,
          "time": 90.5085500000008,
          "velocity": 1,
          "duration": 0.2500002083333328
        },
        {
          "name": "F#1",
          "midi": 30,
          "time": 90.7627875000008,
          "velocity": 1,
          "duration": 0.12288145833333886
        },
        {
          "name": "F#1",
          "midi": 30,
          "time": 90.8899062500008,
          "velocity": 1,
          "duration": 0.12288145833333886
        },
        {
          "name": "F#1",
          "midi": 30,
          "time": 91.01702500000081,
          "velocity": 1,
          "duration": 0.2500002083333328
        },
        {
          "name": "E1",
          "midi": 28,
          "time": 91.27126250000082,
          "velocity": 1,
          "duration": 0.2500002083333328
        },
        {
          "name": "B1",
          "midi": 35,
          "time": 91.52550000000082,
          "velocity": 1,
          "duration": 0.2500002083333328
        },
        {
          "name": "B1",
          "midi": 35,
          "time": 91.77973750000082,
          "velocity": 1,
          "duration": 0.12288145833333886
        },
        {
          "name": "B1",
          "midi": 35,
          "time": 91.90685625000083,
          "velocity": 1,
          "duration": 0.12288145833333886
        },
        {
          "name": "B1",
          "midi": 35,
          "time": 92.03397500000084,
          "velocity": 1,
          "duration": 0.2500002083333328
        },
        {
          "name": "A1",
          "midi": 33,
          "time": 92.28821250000084,
          "velocity": 1,
          "duration": 0.2500002083333328
        },
        {
          "name": "B1",
          "midi": 35,
          "time": 92.54245000000084,
          "velocity": 1,
          "duration": 0.2500002083333328
        },
        {
          "name": "B1",
          "midi": 35,
          "time": 92.79668750000084,
          "velocity": 1,
          "duration": 0.12288145833333886
        },
        {
          "name": "B1",
          "midi": 35,
          "time": 92.92380625000085,
          "velocity": 1,
          "duration": 0.12288145833333886
        },
        {
          "name": "B1",
          "midi": 35,
          "time": 93.05092500000086,
          "velocity": 1,
          "duration": 0.2500002083333328
        },
        {
          "name": "A1",
          "midi": 33,
          "time": 93.30516250000086,
          "velocity": 1,
          "duration": 0.2500002083333328
        },
        {
          "name": "F#1",
          "midi": 30,
          "time": 93.55940000000086,
          "velocity": 1,
          "duration": 0.2500002083333328
        },
        {
          "name": "F#1",
          "midi": 30,
          "time": 93.81363750000087,
          "velocity": 1,
          "duration": 0.12288145833333886
        },
        {
          "name": "F#1",
          "midi": 30,
          "time": 93.94075625000087,
          "velocity": 1,
          "duration": 0.12288145833333886
        },
        {
          "name": "F#1",
          "midi": 30,
          "time": 94.06787500000088,
          "velocity": 1,
          "duration": 0.2500002083333328
        },
        {
          "name": "E1",
          "midi": 28,
          "time": 94.32211250000088,
          "velocity": 1,
          "duration": 0.2500002083333328
        },
        {
          "name": "F#1",
          "midi": 30,
          "time": 94.57635000000089,
          "velocity": 1,
          "duration": 0.2500002083333328
        },
        {
          "name": "F#1",
          "midi": 30,
          "time": 94.83058750000089,
          "velocity": 1,
          "duration": 0.12288145833333886
        },
        {
          "name": "F#1",
          "midi": 30,
          "time": 94.9577062500009,
          "velocity": 1,
          "duration": 0.12288145833333886
        },
        {
          "name": "F#1",
          "midi": 30,
          "time": 95.0848250000009,
          "velocity": 1,
          "duration": 0.2500002083333328
        },
        {
          "name": "E1",
          "midi": 28,
          "time": 95.3390625000009,
          "velocity": 1,
          "duration": 0.2500002083333328
        },
        {
          "name": "F#1",
          "midi": 30,
          "time": 95.59330000000091,
          "velocity": 1,
          "duration": 0.2500002083333328
        },
        {
          "name": "F#1",
          "midi": 30,
          "time": 95.84753750000091,
          "velocity": 1,
          "duration": 0.12288145833333886
        },
        {
          "name": "F#1",
          "midi": 30,
          "time": 95.97465625000092,
          "velocity": 1,
          "duration": 0.12288145833333886
        },
        {
          "name": "F#1",
          "midi": 30,
          "time": 96.10177500000093,
          "velocity": 1,
          "duration": 0.2500002083333328
        },
        {
          "name": "E1",
          "midi": 28,
          "time": 96.35601250000093,
          "velocity": 1,
          "duration": 0.2500002083333328
        },
        {
          "name": "F#1",
          "midi": 30,
          "time": 96.61025000000093,
          "velocity": 1,
          "duration": 0.2500002083333328
        },
        {
          "name": "F#1",
          "midi": 30,
          "time": 96.86448750000093,
          "velocity": 1,
          "duration": 0.12288145833333886
        },
        {
          "name": "F#1",
          "midi": 30,
          "time": 96.99160625000094,
          "velocity": 1,
          "duration": 0.12288145833333886
        },
        {
          "name": "F#1",
          "midi": 30,
          "time": 97.11872500000095,
          "velocity": 1,
          "duration": 0.2500002083333328
        },
        {
          "name": "E1",
          "midi": 28,
          "time": 97.37296250000095,
          "velocity": 1,
          "duration": 0.2500002083333328
        },
        {
          "name": "F#1",
          "midi": 30,
          "time": 97.62720000000095,
          "velocity": 1,
          "duration": 0.2500002083333328
        },
        {
          "name": "F#1",
          "midi": 30,
          "time": 97.88143750000096,
          "velocity": 1,
          "duration": 0.12288145833333886
        },
        {
          "name": "F#1",
          "midi": 30,
          "time": 98.00855625000096,
          "velocity": 1,
          "duration": 0.12288145833333886
        },
        {
          "name": "F#1",
          "midi": 30,
          "time": 98.13567500000097,
          "velocity": 1,
          "duration": 0.2500002083333328
        },
        {
          "name": "E1",
          "midi": 28,
          "time": 98.38991250000097,
          "velocity": 1,
          "duration": 0.2500002083333328
        },
        {
          "name": "G#1",
          "midi": 32,
          "time": 98.64415000000098,
          "velocity": 1,
          "duration": 0.2500002083333328
        },
        {
          "name": "G#1",
          "midi": 32,
          "time": 98.89838750000098,
          "velocity": 1,
          "duration": 0.12288145833333886
        },
        {
          "name": "G#1",
          "midi": 32,
          "time": 99.02550625000099,
          "velocity": 1,
          "duration": 0.12288145833333886
        },
        {
          "name": "G#1",
          "midi": 32,
          "time": 99.152625000001,
          "velocity": 1,
          "duration": 0.2500002083333328
        },
        {
          "name": "E1",
          "midi": 28,
          "time": 99.406862500001,
          "velocity": 1,
          "duration": 0.2500002083333328
        },
        {
          "name": "A1",
          "midi": 33,
          "time": 99.661100000001,
          "velocity": 1,
          "duration": 0.2500002083333328
        },
        {
          "name": "A1",
          "midi": 33,
          "time": 99.915337500001,
          "velocity": 1,
          "duration": 0.12288145833333886
        },
        {
          "name": "A1",
          "midi": 33,
          "time": 100.04245625000101,
          "velocity": 1,
          "duration": 0.12288145833333886
        },
        {
          "name": "A1",
          "midi": 33,
          "time": 100.16957500000102,
          "velocity": 1,
          "duration": 0.2500002083333328
        },
        {
          "name": "A1",
          "midi": 33,
          "time": 100.42381250000102,
          "velocity": 1,
          "duration": 0.2500002083333328
        },
        {
          "name": "A1",
          "midi": 33,
          "time": 100.67805000000102,
          "velocity": 1,
          "duration": 0.2500002083333328
        },
        {
          "name": "A1",
          "midi": 33,
          "time": 100.93228750000102,
          "velocity": 1,
          "duration": 0.12288145833333886
        },
        {
          "name": "A1",
          "midi": 33,
          "time": 101.05940625000103,
          "velocity": 1,
          "duration": 0.12288145833333886
        },
        {
          "name": "A1",
          "midi": 33,
          "time": 101.18652500000104,
          "velocity": 1,
          "duration": 0.2500002083333328
        },
        {
          "name": "A1",
          "midi": 33,
          "time": 101.44076250000104,
          "velocity": 1,
          "duration": 0.2500002083333328
        },
        {
          "name": "D2",
          "midi": 38,
          "time": 101.69500000000104,
          "velocity": 1,
          "duration": 0.2500002083333328
        },
        {
          "name": "D2",
          "midi": 38,
          "time": 101.94923750000105,
          "velocity": 1,
          "duration": 0.12288145833333886
        },
        {
          "name": "D2",
          "midi": 38,
          "time": 102.07635625000106,
          "velocity": 1,
          "duration": 0.12288145833333886
        },
        {
          "name": "D2",
          "midi": 38,
          "time": 102.20347500000106,
          "velocity": 1,
          "duration": 0.2500002083333328
        },
        {
          "name": "D2",
          "midi": 38,
          "time": 102.45771250000107,
          "velocity": 1,
          "duration": 0.2500002083333328
        },
        {
          "name": "D2",
          "midi": 38,
          "time": 102.71195000000107,
          "velocity": 1,
          "duration": 0.2500002083333328
        },
        {
          "name": "D2",
          "midi": 38,
          "time": 102.96618750000107,
          "velocity": 1,
          "duration": 0.12288145833333886
        },
        {
          "name": "D2",
          "midi": 38,
          "time": 103.09330625000108,
          "velocity": 1,
          "duration": 0.12288145833333886
        },
        {
          "name": "D2",
          "midi": 38,
          "time": 103.22042500000109,
          "velocity": 1,
          "duration": 0.2500002083333328
        },
        {
          "name": "D2",
          "midi": 38,
          "time": 103.47466250000109,
          "velocity": 1,
          "duration": 0.2500002083333328
        },
        {
          "name": "E2",
          "midi": 40,
          "time": 103.72890000000109,
          "velocity": 1,
          "duration": 0.2500002083333328
        },
        {
          "name": "E2",
          "midi": 40,
          "time": 103.98313750000109,
          "velocity": 1,
          "duration": 0.12288145833333886
        },
        {
          "name": "E2",
          "midi": 40,
          "time": 104.1102562500011,
          "velocity": 1,
          "duration": 0.12288145833333886
        },
        {
          "name": "E2",
          "midi": 40,
          "time": 104.23737500000111,
          "velocity": 1,
          "duration": 0.2500002083333328
        },
        {
          "name": "E2",
          "midi": 40,
          "time": 104.49161250000111,
          "velocity": 1,
          "duration": 0.2500002083333328
        },
        {
          "name": "E2",
          "midi": 40,
          "time": 104.74585000000111,
          "velocity": 1,
          "duration": 0.2500002083333328
        },
        {
          "name": "E2",
          "midi": 40,
          "time": 105.00008750000111,
          "velocity": 1,
          "duration": 0.12288145833333886
        },
        {
          "name": "E2",
          "midi": 40,
          "time": 105.12720625000112,
          "velocity": 1,
          "duration": 0.12288145833333886
        },
        {
          "name": "E2",
          "midi": 40,
          "time": 105.25432500000113,
          "velocity": 1,
          "duration": 0.2500002083333328
        },
        {
          "name": "E2",
          "midi": 40,
          "time": 105.50856250000113,
          "velocity": 1,
          "duration": 0.2500002083333328
        },
        {
          "name": "A1",
          "midi": 33,
          "time": 105.76280000000114,
          "velocity": 1,
          "duration": 0.2500002083333328
        },
        {
          "name": "A1",
          "midi": 33,
          "time": 106.01703750000114,
          "velocity": 1,
          "duration": 0.12288145833333886
        },
        {
          "name": "A1",
          "midi": 33,
          "time": 106.14415625000115,
          "velocity": 1,
          "duration": 0.12288145833333886
        },
        {
          "name": "A1",
          "midi": 33,
          "time": 106.27127500000115,
          "velocity": 1,
          "duration": 0.2500002083333328
        },
        {
          "name": "A1",
          "midi": 33,
          "time": 106.52551250000116,
          "velocity": 1,
          "duration": 0.2500002083333328
        },
        {
          "name": "G#1",
          "midi": 32,
          "time": 106.77975000000116,
          "velocity": 1,
          "duration": 0.2500002083333328
        },
        {
          "name": "G#1",
          "midi": 32,
          "time": 107.03398750000116,
          "velocity": 1,
          "duration": 0.12288145833333886
        },
        {
          "name": "G#1",
          "midi": 32,
          "time": 107.16110625000117,
          "velocity": 1,
          "duration": 0.12288145833333886
        },
        {
          "name": "G#1",
          "midi": 32,
          "time": 107.28822500000118,
          "velocity": 1,
          "duration": 0.2500002083333328
        },
        {
          "name": "G#1",
          "midi": 32,
          "time": 107.54246250000118,
          "velocity": 1,
          "duration": 0.2500002083333328
        },
        {
          "name": "F#1",
          "midi": 30,
          "time": 107.79670000000118,
          "velocity": 1,
          "duration": 0.2500002083333328
        },
        {
          "name": "F#1",
          "midi": 30,
          "time": 108.05093750000118,
          "velocity": 1,
          "duration": 0.12288145833333886
        },
        {
          "name": "F#1",
          "midi": 30,
          "time": 108.17805625000119,
          "velocity": 1,
          "duration": 0.12288145833333886
        },
        {
          "name": "F#1",
          "midi": 30,
          "time": 108.3051750000012,
          "velocity": 1,
          "duration": 0.2500002083333328
        },
        {
          "name": "F#1",
          "midi": 30,
          "time": 108.5594125000012,
          "velocity": 1,
          "duration": 0.2500002083333328
        },
        {
          "name": "E1",
          "midi": 28,
          "time": 108.8136500000012,
          "velocity": 1,
          "duration": 0.2500002083333328
        },
        {
          "name": "E1",
          "midi": 28,
          "time": 109.0678875000012,
          "velocity": 1,
          "duration": 0.12288145833333886
        },
        {
          "name": "E1",
          "midi": 28,
          "time": 109.19500625000121,
          "velocity": 1,
          "duration": 0.12288145833333886
        },
        {
          "name": "E1",
          "midi": 28,
          "time": 109.32212500000122,
          "velocity": 1,
          "duration": 0.2500002083333328
        },
        {
          "name": "E1",
          "midi": 28,
          "time": 109.57636250000122,
          "velocity": 1,
          "duration": 0.2500002083333328
        },
        {
          "name": "D2",
          "midi": 38,
          "time": 109.83060000000123,
          "velocity": 1,
          "duration": 0.2500002083333328
        },
        {
          "name": "D2",
          "midi": 38,
          "time": 110.08483750000123,
          "velocity": 1,
          "duration": 0.12288145833333886
        },
        {
          "name": "D2",
          "midi": 38,
          "time": 110.21195625000124,
          "velocity": 1,
          "duration": 0.12288145833333886
        },
        {
          "name": "D2",
          "midi": 38,
          "time": 110.33907500000124,
          "velocity": 1,
          "duration": 0.2500002083333328
        },
        {
          "name": "D2",
          "midi": 38,
          "time": 110.59331250000125,
          "velocity": 1,
          "duration": 0.2500002083333328
        },
        {
          "name": "D2",
          "midi": 38,
          "time": 110.84755000000125,
          "velocity": 1,
          "duration": 0.2500002083333328
        },
        {
          "name": "D2",
          "midi": 38,
          "time": 111.10178750000125,
          "velocity": 1,
          "duration": 0.12288145833333886
        },
        {
          "name": "D2",
          "midi": 38,
          "time": 111.22890625000126,
          "velocity": 1,
          "duration": 0.12288145833333886
        },
        {
          "name": "D2",
          "midi": 38,
          "time": 111.35602500000127,
          "velocity": 1,
          "duration": 0.2500002083333328
        },
        {
          "name": "D2",
          "midi": 38,
          "time": 111.61026250000127,
          "velocity": 1,
          "duration": 0.2500002083333328
        },
        {
          "name": "C#2",
          "midi": 37,
          "time": 111.86450000000127,
          "velocity": 1,
          "duration": 0.2500002083333328
        },
        {
          "name": "C#2",
          "midi": 37,
          "time": 112.11873750000127,
          "velocity": 1,
          "duration": 0.12288145833333886
        },
        {
          "name": "C#2",
          "midi": 37,
          "time": 112.24585625000128,
          "velocity": 1,
          "duration": 0.12288145833333886
        },
        {
          "name": "C#2",
          "midi": 37,
          "time": 112.37297500000129,
          "velocity": 1,
          "duration": 0.2500002083333328
        },
        {
          "name": "C#2",
          "midi": 37,
          "time": 112.62721250000129,
          "velocity": 1,
          "duration": 0.2500002083333328
        },
        {
          "name": "C#2",
          "midi": 37,
          "time": 112.8814500000013,
          "velocity": 1,
          "duration": 0.2500002083333328
        },
        {
          "name": "C#2",
          "midi": 37,
          "time": 113.1356875000013,
          "velocity": 1,
          "duration": 0.12288145833333886
        },
        {
          "name": "C#2",
          "midi": 37,
          "time": 113.2628062500013,
          "velocity": 1,
          "duration": 0.12288145833333886
        },
        {
          "name": "C#2",
          "midi": 37,
          "time": 113.38992500000131,
          "velocity": 1,
          "duration": 0.2500002083333328
        },
        {
          "name": "C#2",
          "midi": 37,
          "time": 113.64416250000131,
          "velocity": 1,
          "duration": 0.2500002083333328
        },
        {
          "name": "E2",
          "midi": 40,
          "time": 114.15263750000132,
          "velocity": 1,
          "duration": 0.11440687500000024
        },
        {
          "name": "E2",
          "midi": 40,
          "time": 114.40687500000132,
          "velocity": 1,
          "duration": 0.35593249999999443
        },
        {
          "name": "E2",
          "midi": 40,
          "time": 114.91535000000131,
          "velocity": 1,
          "duration": 0.17796624999999722
        },
        {
          "name": "E2",
          "midi": 40,
          "time": 115.16958750000131,
          "velocity": 1,
          "duration": 0.37711895833332676
        },
        {
          "name": "E2",
          "midi": 40,
          "time": 115.6780625000013,
          "velocity": 1,
          "duration": 0.7966108333333324
        },
        {
          "name": "F#1",
          "midi": 30,
          "time": 117.96620000000131,
          "velocity": 1,
          "duration": 0.2500002083333328
        },
        {
          "name": "F#1",
          "midi": 30,
          "time": 118.22043750000131,
          "velocity": 1,
          "duration": 0.12288145833333886
        },
        {
          "name": "F#1",
          "midi": 30,
          "time": 118.34755625000132,
          "velocity": 1,
          "duration": 0.12288145833333886
        },
        {
          "name": "F#1",
          "midi": 30,
          "time": 118.47467500000133,
          "velocity": 1,
          "duration": 0.2500002083333328
        },
        {
          "name": "F#1",
          "midi": 30,
          "time": 118.72891250000133,
          "velocity": 1,
          "duration": 0.2500002083333328
        },
        {
          "name": "F#1",
          "midi": 30,
          "time": 118.98315000000133,
          "velocity": 1,
          "duration": 0.2500002083333328
        },
        {
          "name": "F#1",
          "midi": 30,
          "time": 119.23738750000133,
          "velocity": 1,
          "duration": 0.12288145833333886
        },
        {
          "name": "F#1",
          "midi": 30,
          "time": 119.36450625000134,
          "velocity": 1,
          "duration": 0.12288145833333886
        },
        {
          "name": "F#1",
          "midi": 30,
          "time": 119.49162500000135,
          "velocity": 1,
          "duration": 0.2500002083333328
        },
        {
          "name": "F#1",
          "midi": 30,
          "time": 119.74586250000135,
          "velocity": 1,
          "duration": 0.2500002083333328
        },
        {
          "name": "D2",
          "midi": 38,
          "time": 120.00010000000135,
          "velocity": 1,
          "duration": 0.2500002083333328
        },
        {
          "name": "D2",
          "midi": 38,
          "time": 120.25433750000136,
          "velocity": 1,
          "duration": 0.12288145833333886
        },
        {
          "name": "D2",
          "midi": 38,
          "time": 120.38145625000136,
          "velocity": 1,
          "duration": 0.12288145833333886
        },
        {
          "name": "D2",
          "midi": 38,
          "time": 120.50857500000137,
          "velocity": 1,
          "duration": 0.2500002083333328
        },
        {
          "name": "D2",
          "midi": 38,
          "time": 120.76281250000137,
          "velocity": 1,
          "duration": 0.2500002083333328
        },
        {
          "name": "D2",
          "midi": 38,
          "time": 121.01705000000138,
          "velocity": 1,
          "duration": 0.2500002083333328
        },
        {
          "name": "D2",
          "midi": 38,
          "time": 121.27128750000138,
          "velocity": 1,
          "duration": 0.12288145833333886
        },
        {
          "name": "D2",
          "midi": 38,
          "time": 121.39840625000139,
          "velocity": 1,
          "duration": 0.12288145833333886
        },
        {
          "name": "D2",
          "midi": 38,
          "time": 121.5255250000014,
          "velocity": 1,
          "duration": 0.2500002083333328
        },
        {
          "name": "D2",
          "midi": 38,
          "time": 121.7797625000014,
          "velocity": 1,
          "duration": 0.2500002083333328
        },
        {
          "name": "B1",
          "midi": 35,
          "time": 122.0340000000014,
          "velocity": 1,
          "duration": 0.2500002083333328
        },
        {
          "name": "B1",
          "midi": 35,
          "time": 122.2882375000014,
          "velocity": 1,
          "duration": 0.12288145833333886
        },
        {
          "name": "B1",
          "midi": 35,
          "time": 122.41535625000141,
          "velocity": 1,
          "duration": 0.12288145833333886
        },
        {
          "name": "B1",
          "midi": 35,
          "time": 122.54247500000142,
          "velocity": 1,
          "duration": 0.2500002083333328
        },
        {
          "name": "B1",
          "midi": 35,
          "time": 122.79671250000142,
          "velocity": 1,
          "duration": 0.2500002083333328
        },
        {
          "name": "B1",
          "midi": 35,
          "time": 123.05095000000142,
          "velocity": 1,
          "duration": 0.2500002083333328
        },
        {
          "name": "B1",
          "midi": 35,
          "time": 123.30518750000142,
          "velocity": 1,
          "duration": 0.12288145833333886
        },
        {
          "name": "B1",
          "midi": 35,
          "time": 123.43230625000143,
          "velocity": 1,
          "duration": 0.12288145833333886
        },
        {
          "name": "B1",
          "midi": 35,
          "time": 123.55942500000144,
          "velocity": 1,
          "duration": 0.2500002083333328
        },
        {
          "name": "B1",
          "midi": 35,
          "time": 123.81366250000144,
          "velocity": 1,
          "duration": 0.2500002083333328
        },
        {
          "name": "E1",
          "midi": 28,
          "time": 124.06790000000144,
          "velocity": 1,
          "duration": 0.2500002083333328
        },
        {
          "name": "E1",
          "midi": 28,
          "time": 124.32213750000145,
          "velocity": 1,
          "duration": 0.12288145833333886
        },
        {
          "name": "E1",
          "midi": 28,
          "time": 124.44925625000145,
          "velocity": 1,
          "duration": 0.12288145833333886
        },
        {
          "name": "E1",
          "midi": 28,
          "time": 124.57637500000146,
          "velocity": 1,
          "duration": 0.2500002083333328
        },
        {
          "name": "E1",
          "midi": 28,
          "time": 124.83061250000146,
          "velocity": 1,
          "duration": 0.2500002083333328
        },
        {
          "name": "E1",
          "midi": 28,
          "time": 125.08485000000147,
          "velocity": 1,
          "duration": 0.2500002083333328
        },
        {
          "name": "E1",
          "midi": 28,
          "time": 125.33908750000147,
          "velocity": 1,
          "duration": 0.12288145833333886
        },
        {
          "name": "E1",
          "midi": 28,
          "time": 125.46620625000148,
          "velocity": 1,
          "duration": 0.12288145833333886
        },
        {
          "name": "E1",
          "midi": 28,
          "time": 125.59332500000149,
          "velocity": 1,
          "duration": 0.2500002083333328
        },
        {
          "name": "E1",
          "midi": 28,
          "time": 125.84756250000149,
          "velocity": 1,
          "duration": 0.2500002083333328
        },
        {
          "name": "F#1",
          "midi": 30,
          "time": 126.10180000000149,
          "velocity": 1,
          "duration": 0.2500002083333328
        },
        {
          "name": "F#1",
          "midi": 30,
          "time": 126.35603750000149,
          "velocity": 1,
          "duration": 0.12288145833333886
        },
        {
          "name": "F#1",
          "midi": 30,
          "time": 126.4831562500015,
          "velocity": 1,
          "duration": 0.12288145833333886
        },
        {
          "name": "F#1",
          "midi": 30,
          "time": 126.61027500000151,
          "velocity": 1,
          "duration": 0.2500002083333328
        },
        {
          "name": "F#1",
          "midi": 30,
          "time": 126.86451250000151,
          "velocity": 1,
          "duration": 0.2500002083333328
        },
        {
          "name": "F#1",
          "midi": 30,
          "time": 127.11875000000151,
          "velocity": 1,
          "duration": 0.2500002083333328
        },
        {
          "name": "F#1",
          "midi": 30,
          "time": 127.37298750000151,
          "velocity": 1,
          "duration": 0.12288145833333886
        },
        {
          "name": "F#1",
          "midi": 30,
          "time": 127.50010625000152,
          "velocity": 1,
          "duration": 0.12288145833333886
        },
        {
          "name": "F#1",
          "midi": 30,
          "time": 127.62722500000153,
          "velocity": 1,
          "duration": 0.2500002083333328
        },
        {
          "name": "F#1",
          "midi": 30,
          "time": 127.88146250000153,
          "velocity": 1,
          "duration": 0.250000208333347
        },
        {
          "name": "D2",
          "midi": 38,
          "time": 128.13570000000155,
          "velocity": 1,
          "duration": 0.250000208333347
        },
        {
          "name": "D2",
          "midi": 38,
          "time": 128.38993750000157,
          "velocity": 1,
          "duration": 0.12288145833332464
        },
        {
          "name": "D2",
          "midi": 38,
          "time": 128.51705625000156,
          "velocity": 1,
          "duration": 0.12288145833332464
        },
        {
          "name": "D2",
          "midi": 38,
          "time": 128.64417500000155,
          "velocity": 1,
          "duration": 0.250000208333347
        },
        {
          "name": "D2",
          "midi": 38,
          "time": 128.89841250000157,
          "velocity": 1,
          "duration": 0.250000208333347
        },
        {
          "name": "D2",
          "midi": 38,
          "time": 129.1526500000016,
          "velocity": 1,
          "duration": 0.250000208333347
        },
        {
          "name": "D2",
          "midi": 38,
          "time": 129.4068875000016,
          "velocity": 1,
          "duration": 0.12288145833332464
        },
        {
          "name": "D2",
          "midi": 38,
          "time": 129.5340062500016,
          "velocity": 1,
          "duration": 0.12288145833332464
        },
        {
          "name": "D2",
          "midi": 38,
          "time": 129.6611250000016,
          "velocity": 1,
          "duration": 0.250000208333347
        },
        {
          "name": "D2",
          "midi": 38,
          "time": 129.9153625000016,
          "velocity": 1,
          "duration": 0.250000208333347
        },
        {
          "name": "B1",
          "midi": 35,
          "time": 130.16960000000162,
          "velocity": 1,
          "duration": 0.250000208333347
        },
        {
          "name": "B1",
          "midi": 35,
          "time": 130.42383750000164,
          "velocity": 1,
          "duration": 0.12288145833332464
        },
        {
          "name": "B1",
          "midi": 35,
          "time": 130.55095625000163,
          "velocity": 1,
          "duration": 0.12288145833332464
        },
        {
          "name": "B1",
          "midi": 35,
          "time": 130.67807500000163,
          "velocity": 1,
          "duration": 0.250000208333347
        },
        {
          "name": "B1",
          "midi": 35,
          "time": 130.93231250000164,
          "velocity": 1,
          "duration": 0.250000208333347
        },
        {
          "name": "B1",
          "midi": 35,
          "time": 131.18655000000166,
          "velocity": 1,
          "duration": 0.250000208333347
        },
        {
          "name": "B1",
          "midi": 35,
          "time": 131.44078750000168,
          "velocity": 1,
          "duration": 0.12288145833332464
        },
        {
          "name": "B1",
          "midi": 35,
          "time": 131.56790625000167,
          "velocity": 1,
          "duration": 0.12288145833332464
        },
        {
          "name": "B1",
          "midi": 35,
          "time": 131.69502500000166,
          "velocity": 1,
          "duration": 0.250000208333347
        },
        {
          "name": "B1",
          "midi": 35,
          "time": 131.94926250000168,
          "velocity": 1,
          "duration": 0.250000208333347
        },
        {
          "name": "E1",
          "midi": 28,
          "time": 132.2035000000017,
          "velocity": 1,
          "duration": 0.250000208333347
        },
        {
          "name": "E1",
          "midi": 28,
          "time": 132.4577375000017,
          "velocity": 1,
          "duration": 0.12288145833332464
        },
        {
          "name": "E1",
          "midi": 28,
          "time": 132.5848562500017,
          "velocity": 1,
          "duration": 0.12288145833332464
        },
        {
          "name": "E1",
          "midi": 28,
          "time": 132.7119750000017,
          "velocity": 1,
          "duration": 0.250000208333347
        },
        {
          "name": "E1",
          "midi": 28,
          "time": 132.96621250000172,
          "velocity": 1,
          "duration": 0.250000208333347
        },
        {
          "name": "E1",
          "midi": 28,
          "time": 133.22045000000173,
          "velocity": 1,
          "duration": 0.250000208333347
        },
        {
          "name": "E1",
          "midi": 28,
          "time": 133.47468750000175,
          "velocity": 1,
          "duration": 0.12288145833332464
        },
        {
          "name": "E1",
          "midi": 28,
          "time": 133.60180625000174,
          "velocity": 1,
          "duration": 0.12288145833332464
        },
        {
          "name": "E1",
          "midi": 28,
          "time": 133.72892500000174,
          "velocity": 1,
          "duration": 0.250000208333347
        },
        {
          "name": "E1",
          "midi": 28,
          "time": 133.98316250000175,
          "velocity": 1,
          "duration": 0.250000208333347
        },
        {
          "name": "F#1",
          "midi": 30,
          "time": 134.23740000000177,
          "velocity": 1,
          "duration": 0.250000208333347
        },
        {
          "name": "F#1",
          "midi": 30,
          "time": 134.4916375000018,
          "velocity": 1,
          "duration": 0.12288145833332464
        },
        {
          "name": "F#1",
          "midi": 30,
          "time": 134.61875625000178,
          "velocity": 1,
          "duration": 0.12288145833332464
        },
        {
          "name": "F#1",
          "midi": 30,
          "time": 134.74587500000177,
          "velocity": 1,
          "duration": 0.250000208333347
        },
        {
          "name": "E1",
          "midi": 28,
          "time": 135.0001125000018,
          "velocity": 1,
          "duration": 0.250000208333347
        },
        {
          "name": "F#1",
          "midi": 30,
          "time": 135.2543500000018,
          "velocity": 1,
          "duration": 0.250000208333347
        },
        {
          "name": "F#1",
          "midi": 30,
          "time": 135.50858750000182,
          "velocity": 1,
          "duration": 0.12288145833332464
        },
        {
          "name": "F#1",
          "midi": 30,
          "time": 135.63570625000182,
          "velocity": 1,
          "duration": 0.12288145833332464
        },
        {
          "name": "F#1",
          "midi": 30,
          "time": 135.7628250000018,
          "velocity": 1,
          "duration": 0.250000208333347
        },
        {
          "name": "E1",
          "midi": 28,
          "time": 136.01706250000183,
          "velocity": 1,
          "duration": 0.250000208333347
        },
        {
          "name": "F#1",
          "midi": 30,
          "time": 136.27130000000184,
          "velocity": 1,
          "duration": 0.250000208333347
        },
        {
          "name": "F#1",
          "midi": 30,
          "time": 136.52553750000186,
          "velocity": 1,
          "duration": 0.12288145833332464
        },
        {
          "name": "F#1",
          "midi": 30,
          "time": 136.65265625000185,
          "velocity": 1,
          "duration": 0.12288145833332464
        },
        {
          "name": "F#1",
          "midi": 30,
          "time": 136.77977500000185,
          "velocity": 1,
          "duration": 0.250000208333347
        },
        {
          "name": "E1",
          "midi": 28,
          "time": 137.03401250000186,
          "velocity": 1,
          "duration": 0.250000208333347
        },
        {
          "name": "F#1",
          "midi": 30,
          "time": 137.28825000000188,
          "velocity": 1,
          "duration": 0.250000208333347
        },
        {
          "name": "F#1",
          "midi": 30,
          "time": 137.5424875000019,
          "velocity": 1,
          "duration": 0.12288145833332464
        },
        {
          "name": "F#1",
          "midi": 30,
          "time": 137.6696062500019,
          "velocity": 1,
          "duration": 0.12288145833332464
        },
        {
          "name": "F#1",
          "midi": 30,
          "time": 137.79672500000189,
          "velocity": 1,
          "duration": 0.250000208333347
        },
        {
          "name": "E1",
          "midi": 28,
          "time": 138.0509625000019,
          "velocity": 1,
          "duration": 0.250000208333347
        },
        {
          "name": "F#1",
          "midi": 30,
          "time": 138.30520000000192,
          "velocity": 1,
          "duration": 0.250000208333347
        },
        {
          "name": "F#1",
          "midi": 30,
          "time": 138.55943750000193,
          "velocity": 1,
          "duration": 0.12288145833332464
        },
        {
          "name": "F#1",
          "midi": 30,
          "time": 138.68655625000193,
          "velocity": 1,
          "duration": 0.12288145833332464
        },
        {
          "name": "F#1",
          "midi": 30,
          "time": 138.81367500000192,
          "velocity": 1,
          "duration": 0.250000208333347
        },
        {
          "name": "E1",
          "midi": 28,
          "time": 139.06791250000194,
          "velocity": 1,
          "duration": 0.250000208333347
        },
        {
          "name": "F#1",
          "midi": 30,
          "time": 139.32215000000195,
          "velocity": 1,
          "duration": 0.250000208333347
        },
        {
          "name": "F#1",
          "midi": 30,
          "time": 139.57638750000197,
          "velocity": 1,
          "duration": 0.12288145833332464
        },
        {
          "name": "F#1",
          "midi": 30,
          "time": 139.70350625000196,
          "velocity": 1,
          "duration": 0.12288145833332464
        },
        {
          "name": "F#1",
          "midi": 30,
          "time": 139.83062500000196,
          "velocity": 1,
          "duration": 0.250000208333347
        },
        {
          "name": "E1",
          "midi": 28,
          "time": 140.08486250000198,
          "velocity": 1,
          "duration": 0.250000208333347
        },
        {
          "name": "B1",
          "midi": 35,
          "time": 140.339100000002,
          "velocity": 1,
          "duration": 0.250000208333347
        },
        {
          "name": "B1",
          "midi": 35,
          "time": 140.593337500002,
          "velocity": 1,
          "duration": 0.12288145833332464
        },
        {
          "name": "B1",
          "midi": 35,
          "time": 140.720456250002,
          "velocity": 1,
          "duration": 0.12288145833332464
        },
        {
          "name": "B1",
          "midi": 35,
          "time": 140.847575000002,
          "velocity": 1,
          "duration": 0.250000208333347
        },
        {
          "name": "A1",
          "midi": 33,
          "time": 141.101812500002,
          "velocity": 1,
          "duration": 0.250000208333347
        },
        {
          "name": "B1",
          "midi": 35,
          "time": 141.35605000000203,
          "velocity": 1,
          "duration": 0.250000208333347
        },
        {
          "name": "B1",
          "midi": 35,
          "time": 141.61028750000204,
          "velocity": 1,
          "duration": 0.12288145833332464
        },
        {
          "name": "B1",
          "midi": 35,
          "time": 141.73740625000204,
          "velocity": 1,
          "duration": 0.12288145833332464
        },
        {
          "name": "B1",
          "midi": 35,
          "time": 141.86452500000203,
          "velocity": 1,
          "duration": 0.250000208333347
        },
        {
          "name": "A1",
          "midi": 33,
          "time": 142.11876250000205,
          "velocity": 1,
          "duration": 0.250000208333347
        },
        {
          "name": "F#1",
          "midi": 30,
          "time": 142.37300000000207,
          "velocity": 1,
          "duration": 0.250000208333347
        },
        {
          "name": "F#1",
          "midi": 30,
          "time": 142.62723750000208,
          "velocity": 1,
          "duration": 0.12288145833332464
        },
        {
          "name": "F#1",
          "midi": 30,
          "time": 142.75435625000208,
          "velocity": 1,
          "duration": 0.12288145833332464
        },
        {
          "name": "F#1",
          "midi": 30,
          "time": 142.88147500000207,
          "velocity": 1,
          "duration": 0.250000208333347
        },
        {
          "name": "E1",
          "midi": 28,
          "time": 143.1357125000021,
          "velocity": 1,
          "duration": 0.250000208333347
        },
        {
          "name": "F#1",
          "midi": 30,
          "time": 143.3899500000021,
          "velocity": 1,
          "duration": 0.250000208333347
        },
        {
          "name": "F#1",
          "midi": 30,
          "time": 143.64418750000212,
          "velocity": 1,
          "duration": 0.12288145833332464
        },
        {
          "name": "F#1",
          "midi": 30,
          "time": 143.7713062500021,
          "velocity": 1,
          "duration": 0.12288145833332464
        },
        {
          "name": "F#1",
          "midi": 30,
          "time": 143.8984250000021,
          "velocity": 1,
          "duration": 0.250000208333347
        },
        {
          "name": "E1",
          "midi": 28,
          "time": 144.15266250000212,
          "velocity": 1,
          "duration": 0.250000208333347
        },
        {
          "name": "F#1",
          "midi": 30,
          "time": 144.40690000000214,
          "velocity": 1,
          "duration": 0.250000208333347
        },
        {
          "name": "F#1",
          "midi": 30,
          "time": 144.66113750000216,
          "velocity": 1,
          "duration": 0.12288145833332464
        },
        {
          "name": "F#1",
          "midi": 30,
          "time": 144.78825625000215,
          "velocity": 1,
          "duration": 0.12288145833332464
        },
        {
          "name": "F#1",
          "midi": 30,
          "time": 144.91537500000214,
          "velocity": 1,
          "duration": 0.250000208333347
        },
        {
          "name": "E1",
          "midi": 28,
          "time": 145.16961250000216,
          "velocity": 1,
          "duration": 0.250000208333347
        },
        {
          "name": "F#1",
          "midi": 30,
          "time": 145.42385000000218,
          "velocity": 1,
          "duration": 0.250000208333347
        },
        {
          "name": "F#1",
          "midi": 30,
          "time": 145.6780875000022,
          "velocity": 1,
          "duration": 0.12288145833332464
        },
        {
          "name": "F#1",
          "midi": 30,
          "time": 145.8052062500022,
          "velocity": 1,
          "duration": 0.12288145833332464
        },
        {
          "name": "F#1",
          "midi": 30,
          "time": 145.93232500000218,
          "velocity": 1,
          "duration": 0.250000208333347
        },
        {
          "name": "E1",
          "midi": 28,
          "time": 146.1865625000022,
          "velocity": 1,
          "duration": 0.250000208333347
        },
        {
          "name": "F#1",
          "midi": 30,
          "time": 146.4408000000022,
          "velocity": 1,
          "duration": 0.250000208333347
        },
        {
          "name": "F#1",
          "midi": 30,
          "time": 146.69503750000223,
          "velocity": 1,
          "duration": 0.12288145833332464
        },
        {
          "name": "F#1",
          "midi": 30,
          "time": 146.82215625000222,
          "velocity": 1,
          "duration": 0.12288145833332464
        },
        {
          "name": "F#1",
          "midi": 30,
          "time": 146.94927500000222,
          "velocity": 1,
          "duration": 0.250000208333347
        },
        {
          "name": "E1",
          "midi": 28,
          "time": 147.20351250000223,
          "velocity": 1,
          "duration": 0.250000208333347
        },
        {
          "name": "G#1",
          "midi": 32,
          "time": 147.45775000000225,
          "velocity": 1,
          "duration": 0.250000208333347
        },
        {
          "name": "G#1",
          "midi": 32,
          "time": 147.71198750000227,
          "velocity": 1,
          "duration": 0.12288145833332464
        },
        {
          "name": "G#1",
          "midi": 32,
          "time": 147.83910625000226,
          "velocity": 1,
          "duration": 0.12288145833332464
        },
        {
          "name": "G#1",
          "midi": 32,
          "time": 147.96622500000225,
          "velocity": 1,
          "duration": 0.250000208333347
        },
        {
          "name": "E1",
          "midi": 28,
          "time": 148.22046250000227,
          "velocity": 1,
          "duration": 0.250000208333347
        },
        {
          "name": "A1",
          "midi": 33,
          "time": 148.4747000000023,
          "velocity": 1,
          "duration": 0.250000208333347
        },
        {
          "name": "A1",
          "midi": 33,
          "time": 148.7289375000023,
          "velocity": 1,
          "duration": 0.12288145833332464
        },
        {
          "name": "A1",
          "midi": 33,
          "time": 148.8560562500023,
          "velocity": 1,
          "duration": 0.12288145833332464
        },
        {
          "name": "A1",
          "midi": 33,
          "time": 148.9831750000023,
          "velocity": 1,
          "duration": 0.250000208333347
        },
        {
          "name": "A1",
          "midi": 33,
          "time": 149.2374125000023,
          "velocity": 1,
          "duration": 0.250000208333347
        },
        {
          "name": "A1",
          "midi": 33,
          "time": 149.49165000000232,
          "velocity": 1,
          "duration": 0.250000208333347
        },
        {
          "name": "A1",
          "midi": 33,
          "time": 149.74588750000234,
          "velocity": 1,
          "duration": 0.12288145833332464
        },
        {
          "name": "A1",
          "midi": 33,
          "time": 149.87300625000233,
          "velocity": 1,
          "duration": 0.12288145833332464
        },
        {
          "name": "A1",
          "midi": 33,
          "time": 150.00012500000233,
          "velocity": 1,
          "duration": 0.250000208333347
        },
        {
          "name": "A1",
          "midi": 33,
          "time": 150.25436250000234,
          "velocity": 1,
          "duration": 0.250000208333347
        },
        {
          "name": "D2",
          "midi": 38,
          "time": 150.50860000000236,
          "velocity": 1,
          "duration": 0.250000208333347
        },
        {
          "name": "D2",
          "midi": 38,
          "time": 150.76283750000238,
          "velocity": 1,
          "duration": 0.12288145833332464
        },
        {
          "name": "D2",
          "midi": 38,
          "time": 150.88995625000237,
          "velocity": 1,
          "duration": 0.12288145833332464
        },
        {
          "name": "D2",
          "midi": 38,
          "time": 151.01707500000236,
          "velocity": 1,
          "duration": 0.250000208333347
        },
        {
          "name": "D2",
          "midi": 38,
          "time": 151.27131250000238,
          "velocity": 1,
          "duration": 0.250000208333347
        },
        {
          "name": "D2",
          "midi": 38,
          "time": 151.5255500000024,
          "velocity": 1,
          "duration": 0.250000208333347
        },
        {
          "name": "D2",
          "midi": 38,
          "time": 151.7797875000024,
          "velocity": 1,
          "duration": 0.12288145833332464
        },
        {
          "name": "D2",
          "midi": 38,
          "time": 151.9069062500024,
          "velocity": 1,
          "duration": 0.12288145833332464
        },
        {
          "name": "D2",
          "midi": 38,
          "time": 152.0340250000024,
          "velocity": 1,
          "duration": 0.250000208333347
        },
        {
          "name": "D2",
          "midi": 38,
          "time": 152.28826250000242,
          "velocity": 1,
          "duration": 0.250000208333347
        },
        {
          "name": "E2",
          "midi": 40,
          "time": 152.54250000000243,
          "velocity": 1,
          "duration": 0.250000208333347
        },
        {
          "name": "E2",
          "midi": 40,
          "time": 152.79673750000245,
          "velocity": 1,
          "duration": 0.12288145833332464
        },
        {
          "name": "E2",
          "midi": 40,
          "time": 152.92385625000244,
          "velocity": 1,
          "duration": 0.12288145833332464
        },
        {
          "name": "E2",
          "midi": 40,
          "time": 153.05097500000244,
          "velocity": 1,
          "duration": 0.250000208333347
        },
        {
          "name": "E2",
          "midi": 40,
          "time": 153.30521250000245,
          "velocity": 1,
          "duration": 0.250000208333347
        },
        {
          "name": "E2",
          "midi": 40,
          "time": 153.55945000000247,
          "velocity": 1,
          "duration": 0.250000208333347
        },
        {
          "name": "E2",
          "midi": 40,
          "time": 153.8136875000025,
          "velocity": 1,
          "duration": 0.12288145833332464
        },
        {
          "name": "E2",
          "midi": 40,
          "time": 153.94080625000248,
          "velocity": 1,
          "duration": 0.12288145833332464
        },
        {
          "name": "E2",
          "midi": 40,
          "time": 154.06792500000248,
          "velocity": 1,
          "duration": 0.250000208333347
        },
        {
          "name": "E2",
          "midi": 40,
          "time": 154.3221625000025,
          "velocity": 1,
          "duration": 0.250000208333347
        },
        {
          "name": "A1",
          "midi": 33,
          "time": 154.5764000000025,
          "velocity": 1,
          "duration": 0.250000208333347
        },
        {
          "name": "A1",
          "midi": 33,
          "time": 154.83063750000252,
          "velocity": 1,
          "duration": 0.12288145833332464
        },
        {
          "name": "A1",
          "midi": 33,
          "time": 154.95775625000252,
          "velocity": 1,
          "duration": 0.12288145833332464
        },
        {
          "name": "A1",
          "midi": 33,
          "time": 155.0848750000025,
          "velocity": 1,
          "duration": 0.250000208333347
        },
        {
          "name": "A1",
          "midi": 33,
          "time": 155.33911250000253,
          "velocity": 1,
          "duration": 0.250000208333347
        },
        {
          "name": "G#1",
          "midi": 32,
          "time": 155.59335000000254,
          "velocity": 1,
          "duration": 0.250000208333347
        },
        {
          "name": "G#1",
          "midi": 32,
          "time": 155.84758750000256,
          "velocity": 1,
          "duration": 0.12288145833332464
        },
        {
          "name": "G#1",
          "midi": 32,
          "time": 155.97470625000255,
          "velocity": 1,
          "duration": 0.12288145833332464
        },
        {
          "name": "G#1",
          "midi": 32,
          "time": 156.10182500000255,
          "velocity": 1,
          "duration": 0.250000208333347
        },
        {
          "name": "G#1",
          "midi": 32,
          "time": 156.35606250000257,
          "velocity": 1,
          "duration": 0.250000208333347
        },
        {
          "name": "F#1",
          "midi": 30,
          "time": 156.61030000000258,
          "velocity": 1,
          "duration": 0.250000208333347
        },
        {
          "name": "F#1",
          "midi": 30,
          "time": 156.8645375000026,
          "velocity": 1,
          "duration": 0.12288145833332464
        },
        {
          "name": "F#1",
          "midi": 30,
          "time": 156.9916562500026,
          "velocity": 1,
          "duration": 0.12288145833332464
        },
        {
          "name": "F#1",
          "midi": 30,
          "time": 157.11877500000259,
          "velocity": 1,
          "duration": 0.250000208333347
        },
        {
          "name": "F#1",
          "midi": 30,
          "time": 157.3730125000026,
          "velocity": 1,
          "duration": 0.250000208333347
        },
        {
          "name": "E1",
          "midi": 28,
          "time": 157.62725000000262,
          "velocity": 1,
          "duration": 0.250000208333347
        },
        {
          "name": "E1",
          "midi": 28,
          "time": 157.88148750000263,
          "velocity": 1,
          "duration": 0.12288145833332464
        },
        {
          "name": "E1",
          "midi": 28,
          "time": 158.00860625000263,
          "velocity": 1,
          "duration": 0.12288145833332464
        },
        {
          "name": "E1",
          "midi": 28,
          "time": 158.13572500000262,
          "velocity": 1,
          "duration": 0.250000208333347
        },
        {
          "name": "E1",
          "midi": 28,
          "time": 158.38996250000264,
          "velocity": 1,
          "duration": 0.250000208333347
        },
        {
          "name": "D2",
          "midi": 38,
          "time": 158.64420000000266,
          "velocity": 1,
          "duration": 0.250000208333347
        },
        {
          "name": "D2",
          "midi": 38,
          "time": 158.89843750000267,
          "velocity": 1,
          "duration": 0.12288145833332464
        },
        {
          "name": "D2",
          "midi": 38,
          "time": 159.02555625000267,
          "velocity": 1,
          "duration": 0.12288145833332464
        },
        {
          "name": "D2",
          "midi": 38,
          "time": 159.15267500000266,
          "velocity": 1,
          "duration": 0.250000208333347
        },
        {
          "name": "D2",
          "midi": 38,
          "time": 159.40691250000268,
          "velocity": 1,
          "duration": 0.250000208333347
        },
        {
          "name": "D2",
          "midi": 38,
          "time": 159.6611500000027,
          "velocity": 1,
          "duration": 0.250000208333347
        },
        {
          "name": "D2",
          "midi": 38,
          "time": 159.9153875000027,
          "velocity": 1,
          "duration": 0.12288145833332464
        },
        {
          "name": "D2",
          "midi": 38,
          "time": 160.0425062500027,
          "velocity": 1,
          "duration": 0.12288145833332464
        },
        {
          "name": "D2",
          "midi": 38,
          "time": 160.1696250000027,
          "velocity": 1,
          "duration": 0.250000208333347
        },
        {
          "name": "D2",
          "midi": 38,
          "time": 160.4238625000027,
          "velocity": 1,
          "duration": 0.250000208333347
        },
        {
          "name": "C#2",
          "midi": 37,
          "time": 160.67810000000273,
          "velocity": 1,
          "duration": 0.250000208333347
        },
        {
          "name": "C#2",
          "midi": 37,
          "time": 160.93233750000275,
          "velocity": 1,
          "duration": 0.12288145833332464
        },
        {
          "name": "C#2",
          "midi": 37,
          "time": 161.05945625000274,
          "velocity": 1,
          "duration": 0.12288145833332464
        },
        {
          "name": "C#2",
          "midi": 37,
          "time": 161.18657500000273,
          "velocity": 1,
          "duration": 0.250000208333347
        },
        {
          "name": "C#2",
          "midi": 37,
          "time": 161.44081250000275,
          "velocity": 1,
          "duration": 0.250000208333347
        },
        {
          "name": "C#2",
          "midi": 37,
          "time": 161.69505000000277,
          "velocity": 1,
          "duration": 0.250000208333347
        },
        {
          "name": "C#2",
          "midi": 37,
          "time": 161.94928750000278,
          "velocity": 1,
          "duration": 0.12288145833332464
        },
        {
          "name": "C#2",
          "midi": 37,
          "time": 162.07640625000278,
          "velocity": 1,
          "duration": 0.12288145833332464
        },
        {
          "name": "C#2",
          "midi": 37,
          "time": 162.20352500000277,
          "velocity": 1,
          "duration": 0.250000208333347
        },
        {
          "name": "C#2",
          "midi": 37,
          "time": 162.4577625000028,
          "velocity": 1,
          "duration": 0.250000208333347
        },
        {
          "name": "E2",
          "midi": 40,
          "time": 162.9662375000028,
          "velocity": 1,
          "duration": 0.11440687499998603
        },
        {
          "name": "E2",
          "midi": 40,
          "time": 163.22047500000278,
          "velocity": 1,
          "duration": 0.35593249999999443
        },
        {
          "name": "E2",
          "midi": 40,
          "time": 163.72895000000278,
          "velocity": 1,
          "duration": 0.17796624999999722
        },
        {
          "name": "E2",
          "midi": 40,
          "time": 163.98318750000277,
          "velocity": 1,
          "duration": 0.37711895833334097
        },
        {
          "name": "E2",
          "midi": 40,
          "time": 164.49166250000278,
          "velocity": 1,
          "duration": 0.7966108333333466
        },
        {
          "name": "F#1",
          "midi": 30,
          "time": 166.77980000000278,
          "velocity": 1,
          "duration": 0.250000208333347
        },
        {
          "name": "F#1",
          "midi": 30,
          "time": 167.0340375000028,
          "velocity": 1,
          "duration": 0.12288145833332464
        },
        {
          "name": "F#1",
          "midi": 30,
          "time": 167.1611562500028,
          "velocity": 1,
          "duration": 0.12288145833332464
        },
        {
          "name": "F#1",
          "midi": 30,
          "time": 167.28827500000278,
          "velocity": 1,
          "duration": 0.250000208333347
        },
        {
          "name": "F#1",
          "midi": 30,
          "time": 167.5425125000028,
          "velocity": 1,
          "duration": 0.250000208333347
        },
        {
          "name": "F#1",
          "midi": 30,
          "time": 167.79675000000282,
          "velocity": 1,
          "duration": 0.250000208333347
        },
        {
          "name": "F#1",
          "midi": 30,
          "time": 168.05098750000283,
          "velocity": 1,
          "duration": 0.12288145833332464
        },
        {
          "name": "F#1",
          "midi": 30,
          "time": 168.17810625000283,
          "velocity": 1,
          "duration": 0.12288145833332464
        },
        {
          "name": "F#1",
          "midi": 30,
          "time": 168.30522500000282,
          "velocity": 1,
          "duration": 0.250000208333347
        },
        {
          "name": "F#1",
          "midi": 30,
          "time": 168.55946250000284,
          "velocity": 1,
          "duration": 0.250000208333347
        },
        {
          "name": "D2",
          "midi": 38,
          "time": 168.81370000000285,
          "velocity": 1,
          "duration": 0.250000208333347
        },
        {
          "name": "D2",
          "midi": 38,
          "time": 169.06793750000287,
          "velocity": 1,
          "duration": 0.12288145833332464
        },
        {
          "name": "D2",
          "midi": 38,
          "time": 169.19505625000286,
          "velocity": 1,
          "duration": 0.12288145833332464
        },
        {
          "name": "D2",
          "midi": 38,
          "time": 169.32217500000286,
          "velocity": 1,
          "duration": 0.250000208333347
        },
        {
          "name": "D2",
          "midi": 38,
          "time": 169.57641250000287,
          "velocity": 1,
          "duration": 0.250000208333347
        },
        {
          "name": "D2",
          "midi": 38,
          "time": 169.8306500000029,
          "velocity": 1,
          "duration": 0.250000208333347
        },
        {
          "name": "D2",
          "midi": 38,
          "time": 170.0848875000029,
          "velocity": 1,
          "duration": 0.12288145833332464
        },
        {
          "name": "D2",
          "midi": 38,
          "time": 170.2120062500029,
          "velocity": 1,
          "duration": 0.12288145833332464
        },
        {
          "name": "D2",
          "midi": 38,
          "time": 170.3391250000029,
          "velocity": 1,
          "duration": 0.250000208333347
        },
        {
          "name": "D2",
          "midi": 38,
          "time": 170.5933625000029,
          "velocity": 1,
          "duration": 0.250000208333347
        },
        {
          "name": "B1",
          "midi": 35,
          "time": 170.84760000000293,
          "velocity": 1,
          "duration": 0.250000208333347
        },
        {
          "name": "B1",
          "midi": 35,
          "time": 171.10183750000294,
          "velocity": 1,
          "duration": 0.12288145833332464
        },
        {
          "name": "B1",
          "midi": 35,
          "time": 171.22895625000294,
          "velocity": 1,
          "duration": 0.12288145833332464
        },
        {
          "name": "B1",
          "midi": 35,
          "time": 171.35607500000293,
          "velocity": 1,
          "duration": 0.250000208333347
        },
        {
          "name": "B1",
          "midi": 35,
          "time": 171.61031250000295,
          "velocity": 1,
          "duration": 0.250000208333347
        },
        {
          "name": "B1",
          "midi": 35,
          "time": 171.86455000000296,
          "velocity": 1,
          "duration": 0.250000208333347
        },
        {
          "name": "B1",
          "midi": 35,
          "time": 172.11878750000298,
          "velocity": 1,
          "duration": 0.12288145833332464
        },
        {
          "name": "B1",
          "midi": 35,
          "time": 172.24590625000297,
          "velocity": 1,
          "duration": 0.12288145833332464
        },
        {
          "name": "B1",
          "midi": 35,
          "time": 172.37302500000297,
          "velocity": 1,
          "duration": 0.250000208333347
        },
        {
          "name": "B1",
          "midi": 35,
          "time": 172.62726250000298,
          "velocity": 1,
          "duration": 0.250000208333347
        },
        {
          "name": "E1",
          "midi": 28,
          "time": 172.881500000003,
          "velocity": 1,
          "duration": 0.250000208333347
        },
        {
          "name": "E1",
          "midi": 28,
          "time": 173.13573750000302,
          "velocity": 1,
          "duration": 0.12288145833332464
        },
        {
          "name": "E1",
          "midi": 28,
          "time": 173.262856250003,
          "velocity": 1,
          "duration": 0.12288145833332464
        },
        {
          "name": "E1",
          "midi": 28,
          "time": 173.389975000003,
          "velocity": 1,
          "duration": 0.250000208333347
        },
        {
          "name": "E1",
          "midi": 28,
          "time": 173.64421250000302,
          "velocity": 1,
          "duration": 0.250000208333347
        },
        {
          "name": "E1",
          "midi": 28,
          "time": 173.89845000000304,
          "velocity": 1,
          "duration": 0.250000208333347
        },
        {
          "name": "E1",
          "midi": 28,
          "time": 174.15268750000305,
          "velocity": 1,
          "duration": 0.12288145833332464
        },
        {
          "name": "E1",
          "midi": 28,
          "time": 174.27980625000305,
          "velocity": 1,
          "duration": 0.12288145833332464
        },
        {
          "name": "E1",
          "midi": 28,
          "time": 174.40692500000304,
          "velocity": 1,
          "duration": 0.250000208333347
        },
        {
          "name": "E1",
          "midi": 28,
          "time": 174.66116250000306,
          "velocity": 1,
          "duration": 0.250000208333347
        },
        {
          "name": "F#1",
          "midi": 30,
          "time": 174.91540000000307,
          "velocity": 1,
          "duration": 0.250000208333347
        },
        {
          "name": "F#1",
          "midi": 30,
          "time": 175.1696375000031,
          "velocity": 1,
          "duration": 0.12288145833332464
        },
        {
          "name": "F#1",
          "midi": 30,
          "time": 175.29675625000309,
          "velocity": 1,
          "duration": 0.12288145833332464
        },
        {
          "name": "F#1",
          "midi": 30,
          "time": 175.42387500000308,
          "velocity": 1,
          "duration": 0.250000208333347
        },
        {
          "name": "F#1",
          "midi": 30,
          "time": 175.6781125000031,
          "velocity": 1,
          "duration": 0.250000208333347
        },
        {
          "name": "F#1",
          "midi": 30,
          "time": 175.9323500000031,
          "velocity": 1,
          "duration": 0.250000208333347
        },
        {
          "name": "F#1",
          "midi": 30,
          "time": 176.18658750000313,
          "velocity": 1,
          "duration": 0.12288145833332464
        },
        {
          "name": "F#1",
          "midi": 30,
          "time": 176.31370625000312,
          "velocity": 1,
          "duration": 0.12288145833332464
        },
        {
          "name": "F#1",
          "midi": 30,
          "time": 176.44082500000312,
          "velocity": 1,
          "duration": 0.250000208333347
        },
        {
          "name": "F#1",
          "midi": 30,
          "time": 176.69506250000313,
          "velocity": 1,
          "duration": 0.250000208333347
        },
        {
          "name": "D2",
          "midi": 38,
          "time": 176.94930000000315,
          "velocity": 1,
          "duration": 0.250000208333347
        },
        {
          "name": "D2",
          "midi": 38,
          "time": 177.20353750000316,
          "velocity": 1,
          "duration": 0.12288145833332464
        },
        {
          "name": "D2",
          "midi": 38,
          "time": 177.33065625000316,
          "velocity": 1,
          "duration": 0.12288145833332464
        },
        {
          "name": "D2",
          "midi": 38,
          "time": 177.45777500000315,
          "velocity": 1,
          "duration": 0.250000208333347
        },
        {
          "name": "D2",
          "midi": 38,
          "time": 177.71201250000317,
          "velocity": 1,
          "duration": 0.250000208333347
        },
        {
          "name": "D2",
          "midi": 38,
          "time": 177.96625000000319,
          "velocity": 1,
          "duration": 0.250000208333347
        },
        {
          "name": "D2",
          "midi": 38,
          "time": 178.2204875000032,
          "velocity": 1,
          "duration": 0.12288145833332464
        },
        {
          "name": "D2",
          "midi": 38,
          "time": 178.3476062500032,
          "velocity": 1,
          "duration": 0.12288145833332464
        },
        {
          "name": "D2",
          "midi": 38,
          "time": 178.4747250000032,
          "velocity": 1,
          "duration": 0.250000208333347
        },
        {
          "name": "D2",
          "midi": 38,
          "time": 178.7289625000032,
          "velocity": 1,
          "duration": 0.250000208333347
        },
        {
          "name": "B1",
          "midi": 35,
          "time": 178.98320000000322,
          "velocity": 1,
          "duration": 0.250000208333347
        },
        {
          "name": "B1",
          "midi": 35,
          "time": 179.23743750000324,
          "velocity": 1,
          "duration": 0.12288145833332464
        },
        {
          "name": "B1",
          "midi": 35,
          "time": 179.36455625000323,
          "velocity": 1,
          "duration": 0.12288145833332464
        },
        {
          "name": "B1",
          "midi": 35,
          "time": 179.49167500000323,
          "velocity": 1,
          "duration": 0.250000208333347
        },
        {
          "name": "B1",
          "midi": 35,
          "time": 179.74591250000324,
          "velocity": 1,
          "duration": 0.250000208333347
        },
        {
          "name": "B1",
          "midi": 35,
          "time": 180.00015000000326,
          "velocity": 1,
          "duration": 0.250000208333347
        },
        {
          "name": "B1",
          "midi": 35,
          "time": 180.25438750000328,
          "velocity": 1,
          "duration": 0.12288145833332464
        },
        {
          "name": "B1",
          "midi": 35,
          "time": 180.38150625000327,
          "velocity": 1,
          "duration": 0.12288145833332464
        },
        {
          "name": "B1",
          "midi": 35,
          "time": 180.50862500000326,
          "velocity": 1,
          "duration": 0.250000208333347
        },
        {
          "name": "B1",
          "midi": 35,
          "time": 180.76286250000328,
          "velocity": 1,
          "duration": 0.250000208333347
        },
        {
          "name": "E1",
          "midi": 28,
          "time": 181.0171000000033,
          "velocity": 1,
          "duration": 0.250000208333347
        },
        {
          "name": "E1",
          "midi": 28,
          "time": 181.2713375000033,
          "velocity": 1,
          "duration": 0.12288145833332464
        },
        {
          "name": "E1",
          "midi": 28,
          "time": 181.3984562500033,
          "velocity": 1,
          "duration": 0.12288145833332464
        },
        {
          "name": "E1",
          "midi": 28,
          "time": 181.5255750000033,
          "velocity": 1,
          "duration": 0.250000208333347
        },
        {
          "name": "E1",
          "midi": 28,
          "time": 181.77981250000332,
          "velocity": 1,
          "duration": 0.250000208333347
        },
        {
          "name": "E1",
          "midi": 28,
          "time": 182.03405000000333,
          "velocity": 1,
          "duration": 0.250000208333347
        },
        {
          "name": "E1",
          "midi": 28,
          "time": 182.28828750000335,
          "velocity": 1,
          "duration": 0.12288145833332464
        },
        {
          "name": "E1",
          "midi": 28,
          "time": 182.41540625000334,
          "velocity": 1,
          "duration": 0.12288145833332464
        },
        {
          "name": "E1",
          "midi": 28,
          "time": 182.54252500000334,
          "velocity": 1,
          "duration": 0.250000208333347
        },
        {
          "name": "E1",
          "midi": 28,
          "time": 182.79676250000335,
          "velocity": 1,
          "duration": 0.250000208333347
        },
        {
          "name": "F#1",
          "midi": 30,
          "time": 183.05100000000337,
          "velocity": 1,
          "duration": 0.250000208333347
        },
        {
          "name": "F#1",
          "midi": 30,
          "time": 183.3052375000034,
          "velocity": 1,
          "duration": 0.12288145833332464
        },
        {
          "name": "F#1",
          "midi": 30,
          "time": 183.43235625000338,
          "velocity": 1,
          "duration": 0.12288145833332464
        },
        {
          "name": "F#1",
          "midi": 30,
          "time": 183.55947500000337,
          "velocity": 1,
          "duration": 0.250000208333347
        },
        {
          "name": "F#1",
          "midi": 30,
          "time": 183.8137125000034,
          "velocity": 1,
          "duration": 0.12288145833332464
        },
        {
          "name": "F#1",
          "midi": 30,
          "time": 183.94083125000338,
          "velocity": 1,
          "duration": 0.12288145833332464
        },
        {
          "name": "G#1",
          "midi": 32,
          "time": 184.06795000000338,
          "velocity": 1,
          "duration": 0.250000208333347
        },
        {
          "name": "G#1",
          "midi": 32,
          "time": 184.3221875000034,
          "velocity": 1,
          "duration": 0.12288145833332464
        },
        {
          "name": "G#1",
          "midi": 32,
          "time": 184.4493062500034,
          "velocity": 1,
          "duration": 0.12288145833332464
        },
        {
          "name": "G#1",
          "midi": 32,
          "time": 184.57642500000338,
          "velocity": 1,
          "duration": 0.250000208333347
        },
        {
          "name": "G#1",
          "midi": 32,
          "time": 184.8306625000034,
          "velocity": 1,
          "duration": 0.12288145833332464
        },
        {
          "name": "G#1",
          "midi": 32,
          "time": 184.9577812500034,
          "velocity": 1,
          "duration": 0.12288145833332464
        },
        {
          "name": "A1",
          "midi": 33,
          "time": 185.0849000000034,
          "velocity": 1,
          "duration": 0.250000208333347
        },
        {
          "name": "A1",
          "midi": 33,
          "time": 185.3391375000034,
          "velocity": 1,
          "duration": 0.12288145833332464
        },
        {
          "name": "A1",
          "midi": 33,
          "time": 185.4662562500034,
          "velocity": 1,
          "duration": 0.12288145833332464
        },
        {
          "name": "A1",
          "midi": 33,
          "time": 185.5933750000034,
          "velocity": 1,
          "duration": 0.250000208333347
        },
        {
          "name": "A1",
          "midi": 33,
          "time": 185.8476125000034,
          "velocity": 1,
          "duration": 0.12288145833332464
        },
        {
          "name": "A1",
          "midi": 33,
          "time": 185.9747312500034,
          "velocity": 1,
          "duration": 0.12288145833332464
        },
        {
          "name": "D2",
          "midi": 38,
          "time": 186.1018500000034,
          "velocity": 1,
          "duration": 0.250000208333347
        },
        {
          "name": "D2",
          "midi": 38,
          "time": 186.3560875000034,
          "velocity": 1,
          "duration": 0.12288145833332464
        },
        {
          "name": "D2",
          "midi": 38,
          "time": 186.4832062500034,
          "velocity": 1,
          "duration": 0.12288145833332464
        },
        {
          "name": "D2",
          "midi": 38,
          "time": 186.6103250000034,
          "velocity": 1,
          "duration": 0.250000208333347
        },
        {
          "name": "D2",
          "midi": 38,
          "time": 186.86456250000342,
          "velocity": 1,
          "duration": 0.12288145833332464
        },
        {
          "name": "D2",
          "midi": 38,
          "time": 186.9916812500034,
          "velocity": 1,
          "duration": 0.12288145833332464
        },
        {
          "name": "C#2",
          "midi": 37,
          "time": 187.1188000000034,
          "velocity": 1,
          "duration": 0.250000208333347
        },
        {
          "name": "C#2",
          "midi": 37,
          "time": 187.37303750000342,
          "velocity": 1,
          "duration": 0.12288145833332464
        },
        {
          "name": "C#2",
          "midi": 37,
          "time": 187.5001562500034,
          "velocity": 1,
          "duration": 0.12288145833332464
        },
        {
          "name": "C#2",
          "midi": 37,
          "time": 187.6272750000034,
          "velocity": 1,
          "duration": 0.250000208333347
        },
        {
          "name": "C#2",
          "midi": 37,
          "time": 187.88151250000342,
          "velocity": 1,
          "duration": 0.12288145833332464
        },
        {
          "name": "C#2",
          "midi": 37,
          "time": 188.00863125000342,
          "velocity": 1,
          "duration": 0.12288145833332464
        },
        {
          "name": "C#2",
          "midi": 37,
          "time": 188.1357500000034,
          "velocity": 1,
          "duration": 0.250000208333347
        },
        {
          "name": "C#2",
          "midi": 37,
          "time": 188.38998750000343,
          "velocity": 1,
          "duration": 0.12288145833332464
        },
        {
          "name": "C#2",
          "midi": 37,
          "time": 188.51710625000342,
          "velocity": 1,
          "duration": 0.12288145833332464
        },
        {
          "name": "C#2",
          "midi": 37,
          "time": 188.64422500000342,
          "velocity": 1,
          "duration": 0.250000208333347
        },
        {
          "name": "C#2",
          "midi": 37,
          "time": 188.89846250000343,
          "velocity": 1,
          "duration": 0.12288145833332464
        },
        {
          "name": "C#2",
          "midi": 37,
          "time": 189.02558125000343,
          "velocity": 1,
          "duration": 0.12288145833332464
        },
        {
          "name": "C#2",
          "midi": 37,
          "time": 189.15270000000342,
          "velocity": 1,
          "duration": 0.250000208333347
        },
        {
          "name": "C#2",
          "midi": 37,
          "time": 189.40693750000344,
          "velocity": 1,
          "duration": 0.12288145833332464
        },
        {
          "name": "C#2",
          "midi": 37,
          "time": 189.53405625000343,
          "velocity": 1,
          "duration": 0.12288145833332464
        },
        {
          "name": "C#2",
          "midi": 37,
          "time": 189.66117500000342,
          "velocity": 1,
          "duration": 0.250000208333347
        },
        {
          "name": "C#2",
          "midi": 37,
          "time": 189.91541250000344,
          "velocity": 1,
          "duration": 0.12288145833332464
        },
        {
          "name": "C#2",
          "midi": 37,
          "time": 190.04253125000344,
          "velocity": 1,
          "duration": 0.12288145833332464
        },
        {
          "name": "C#2",
          "midi": 37,
          "time": 190.16965000000343,
          "velocity": 1,
          "duration": 0.250000208333347
        },
        {
          "name": "C#2",
          "midi": 37,
          "time": 190.42388750000345,
          "velocity": 1,
          "duration": 0.12288145833332464
        },
        {
          "name": "C#2",
          "midi": 37,
          "time": 190.55100625000344,
          "velocity": 1,
          "duration": 0.12288145833332464
        },
        {
          "name": "C#2",
          "midi": 37,
          "time": 190.67812500000343,
          "velocity": 1,
          "duration": 0.250000208333347
        },
        {
          "name": "C#2",
          "midi": 37,
          "time": 190.93236250000345,
          "velocity": 1,
          "duration": 0.12288145833332464
        },
        {
          "name": "C#2",
          "midi": 37,
          "time": 191.05948125000344,
          "velocity": 1,
          "duration": 0.12288145833332464
        },
        {
          "name": "F#1",
          "midi": 30,
          "time": 191.18660000000344,
          "velocity": 1,
          "duration": 0.5084750000000042
        },
        {
          "name": "F#1",
          "midi": 30,
          "time": 191.69507500000344,
          "velocity": 1,
          "duration": 0.12711874999999395
        },
        {
          "name": "F#1",
          "midi": 30,
          "time": 191.94931250000343,
          "velocity": 1,
          "duration": 0.12711874999999395
        },
        {
          "name": "F#1",
          "midi": 30,
          "time": 192.07643125000342,
          "velocity": 1,
          "duration": 0.12711874999999395
        },
        {
          "name": "F#1",
          "midi": 30,
          "time": 192.3306687500034,
          "velocity": 1,
          "duration": 0.12711874999999395
        },
        {
          "name": "F#1",
          "midi": 30,
          "time": 192.4577875000034,
          "velocity": 1,
          "duration": 0.12711874999999395
        },
        {
          "name": "F#1",
          "midi": 30,
          "time": 192.7120250000034,
          "velocity": 1,
          "duration": 0.12711874999999395
        },
        {
          "name": "F#1",
          "midi": 30,
          "time": 192.96626250000338,
          "velocity": 1,
          "duration": 0.12711874999999395
        },
        {
          "name": "F#1",
          "midi": 30,
          "time": 193.22050000000337,
          "velocity": 1,
          "duration": 0.5084750000000042
        },
        {
          "name": "F#1",
          "midi": 30,
          "time": 193.72897500000337,
          "velocity": 1,
          "duration": 0.12711874999999395
        },
        {
          "name": "F#1",
          "midi": 30,
          "time": 193.98321250000336,
          "velocity": 1,
          "duration": 0.12711874999999395
        },
        {
          "name": "F#1",
          "midi": 30,
          "time": 194.23745000000335,
          "velocity": 1,
          "duration": 0.12711874999999395
        },
        {
          "name": "F#1",
          "midi": 30,
          "time": 194.49168750000334,
          "velocity": 1,
          "duration": 0.12711874999999395
        },
        {
          "name": "F#1",
          "midi": 30,
          "time": 194.61880625000333,
          "velocity": 1,
          "duration": 0.12711874999999395
        },
        {
          "name": "F#1",
          "midi": 30,
          "time": 194.87304375000332,
          "velocity": 1,
          "duration": 0.12711874999999395
        },
        {
          "name": "F#1",
          "midi": 30,
          "time": 195.1272812500033,
          "velocity": 1,
          "duration": 0.2542374999999879
        },
        {
          "name": "B1",
          "midi": 35,
          "time": 195.2544000000033,
          "velocity": 1,
          "duration": 0.2500002083333186
        },
        {
          "name": "B1",
          "midi": 35,
          "time": 195.5086375000033,
          "velocity": 1,
          "duration": 0.12288145833332464
        },
        {
          "name": "B1",
          "midi": 35,
          "time": 195.63575625000328,
          "velocity": 1,
          "duration": 0.12288145833332464
        },
        {
          "name": "B1",
          "midi": 35,
          "time": 195.76287500000328,
          "velocity": 1,
          "duration": 0.250000208333347
        },
        {
          "name": "B1",
          "midi": 35,
          "time": 196.0171125000033,
          "velocity": 1,
          "duration": 0.250000208333347
        },
        {
          "name": "B1",
          "midi": 35,
          "time": 196.2713500000033,
          "velocity": 1,
          "duration": 0.250000208333347
        },
        {
          "name": "B1",
          "midi": 35,
          "time": 196.52558750000333,
          "velocity": 1,
          "duration": 0.12288145833332464
        },
        {
          "name": "B1",
          "midi": 35,
          "time": 196.65270625000332,
          "velocity": 1,
          "duration": 0.12288145833332464
        },
        {
          "name": "B1",
          "midi": 35,
          "time": 196.7798250000033,
          "velocity": 1,
          "duration": 0.250000208333347
        },
        {
          "name": "B1",
          "midi": 35,
          "time": 197.03406250000333,
          "velocity": 1,
          "duration": 0.250000208333347
        },
        {
          "name": "A1",
          "midi": 33,
          "time": 197.28830000000335,
          "velocity": 1,
          "duration": 0.250000208333347
        },
        {
          "name": "A1",
          "midi": 33,
          "time": 197.54253750000336,
          "velocity": 1,
          "duration": 0.12288145833332464
        },
        {
          "name": "A1",
          "midi": 33,
          "time": 197.66965625000336,
          "velocity": 1,
          "duration": 0.12288145833332464
        },
        {
          "name": "A1",
          "midi": 33,
          "time": 197.79677500000335,
          "velocity": 1,
          "duration": 0.250000208333347
        },
        {
          "name": "A1",
          "midi": 33,
          "time": 198.05101250000337,
          "velocity": 1,
          "duration": 0.250000208333347
        },
        {
          "name": "A1",
          "midi": 33,
          "time": 198.30525000000338,
          "velocity": 1,
          "duration": 0.250000208333347
        },
        {
          "name": "A1",
          "midi": 33,
          "time": 198.5594875000034,
          "velocity": 1,
          "duration": 0.12288145833332464
        },
        {
          "name": "A1",
          "midi": 33,
          "time": 198.6866062500034,
          "velocity": 1,
          "duration": 0.12288145833332464
        },
        {
          "name": "A1",
          "midi": 33,
          "time": 198.8137250000034,
          "velocity": 1,
          "duration": 0.250000208333347
        },
        {
          "name": "A1",
          "midi": 33,
          "time": 199.0679625000034,
          "velocity": 1,
          "duration": 0.250000208333347
        },
        {
          "name": "D2",
          "midi": 38,
          "time": 199.32220000000342,
          "velocity": 1,
          "duration": 0.250000208333347
        },
        {
          "name": "D2",
          "midi": 38,
          "time": 199.57643750000344,
          "velocity": 1,
          "duration": 0.12288145833332464
        },
        {
          "name": "D2",
          "midi": 38,
          "time": 199.70355625000343,
          "velocity": 1,
          "duration": 0.12288145833332464
        },
        {
          "name": "D2",
          "midi": 38,
          "time": 199.83067500000342,
          "velocity": 1,
          "duration": 0.250000208333347
        },
        {
          "name": "D2",
          "midi": 38,
          "time": 200.08491250000344,
          "velocity": 1,
          "duration": 0.250000208333347
        },
        {
          "name": "D2",
          "midi": 38,
          "time": 200.33915000000346,
          "velocity": 1,
          "duration": 0.250000208333347
        },
        {
          "name": "D2",
          "midi": 38,
          "time": 200.59338750000347,
          "velocity": 1,
          "duration": 0.12288145833332464
        },
        {
          "name": "D2",
          "midi": 38,
          "time": 200.72050625000347,
          "velocity": 1,
          "duration": 0.12288145833332464
        },
        {
          "name": "D2",
          "midi": 38,
          "time": 200.84762500000346,
          "velocity": 1,
          "duration": 0.250000208333347
        },
        {
          "name": "D2",
          "midi": 38,
          "time": 201.10186250000348,
          "velocity": 1,
          "duration": 0.250000208333347
        },
        {
          "name": "G1",
          "midi": 31,
          "time": 201.3561000000035,
          "velocity": 1,
          "duration": 0.250000208333347
        },
        {
          "name": "G1",
          "midi": 31,
          "time": 201.6103375000035,
          "velocity": 1,
          "duration": 0.12288145833332464
        },
        {
          "name": "G1",
          "midi": 31,
          "time": 201.7374562500035,
          "velocity": 1,
          "duration": 0.12288145833332464
        },
        {
          "name": "G1",
          "midi": 31,
          "time": 201.8645750000035,
          "velocity": 1,
          "duration": 0.250000208333347
        },
        {
          "name": "G1",
          "midi": 31,
          "time": 202.11881250000351,
          "velocity": 1,
          "duration": 0.250000208333347
        },
        {
          "name": "F#1",
          "midi": 30,
          "time": 202.37305000000353,
          "velocity": 1,
          "duration": 0.250000208333347
        },
        {
          "name": "F#1",
          "midi": 30,
          "time": 202.62728750000355,
          "velocity": 1,
          "duration": 0.12288145833332464
        },
        {
          "name": "F#1",
          "midi": 30,
          "time": 202.75440625000354,
          "velocity": 1,
          "duration": 0.12288145833332464
        },
        {
          "name": "F#1",
          "midi": 30,
          "time": 202.88152500000353,
          "velocity": 1,
          "duration": 0.250000208333347
        },
        {
          "name": "F#1",
          "midi": 30,
          "time": 203.13576250000355,
          "velocity": 1,
          "duration": 0.250000208333347
        },
        {
          "name": "E1",
          "midi": 28,
          "time": 203.39000000000357,
          "velocity": 1,
          "duration": 0.250000208333347
        },
        {
          "name": "E1",
          "midi": 28,
          "time": 203.64423750000358,
          "velocity": 1,
          "duration": 0.12288145833332464
        },
        {
          "name": "E1",
          "midi": 28,
          "time": 203.77135625000358,
          "velocity": 1,
          "duration": 0.12288145833332464
        },
        {
          "name": "E1",
          "midi": 28,
          "time": 203.89847500000357,
          "velocity": 1,
          "duration": 0.250000208333347
        },
        {
          "name": "E1",
          "midi": 28,
          "time": 204.1527125000036,
          "velocity": 1,
          "duration": 0.250000208333347
        },
        {
          "name": "E1",
          "midi": 28,
          "time": 204.4069500000036,
          "velocity": 1,
          "duration": 0.250000208333347
        },
        {
          "name": "E1",
          "midi": 28,
          "time": 204.66118750000362,
          "velocity": 1,
          "duration": 0.12288145833332464
        },
        {
          "name": "E1",
          "midi": 28,
          "time": 204.78830625000361,
          "velocity": 1,
          "duration": 0.12288145833332464
        },
        {
          "name": "E1",
          "midi": 28,
          "time": 204.9154250000036,
          "velocity": 1,
          "duration": 0.250000208333347
        },
        {
          "name": "E1",
          "midi": 28,
          "time": 205.16966250000362,
          "velocity": 1,
          "duration": 0.250000208333347
        },
        {
          "name": "A1",
          "midi": 33,
          "time": 205.42390000000364,
          "velocity": 1,
          "duration": 0.250000208333347
        },
        {
          "name": "A1",
          "midi": 33,
          "time": 205.67813750000366,
          "velocity": 1,
          "duration": 0.12288145833332464
        },
        {
          "name": "A1",
          "midi": 33,
          "time": 205.80525625000365,
          "velocity": 1,
          "duration": 0.12288145833332464
        },
        {
          "name": "A1",
          "midi": 33,
          "time": 205.93237500000365,
          "velocity": 1,
          "duration": 0.250000208333347
        },
        {
          "name": "A1",
          "midi": 33,
          "time": 206.18661250000366,
          "velocity": 1,
          "duration": 0.250000208333347
        },
        {
          "name": "A1",
          "midi": 33,
          "time": 206.44085000000368,
          "velocity": 1,
          "duration": 0.250000208333347
        },
        {
          "name": "A1",
          "midi": 33,
          "time": 206.6950875000037,
          "velocity": 1,
          "duration": 0.12288145833332464
        },
        {
          "name": "A1",
          "midi": 33,
          "time": 206.8222062500037,
          "velocity": 1,
          "duration": 0.12288145833332464
        },
        {
          "name": "A1",
          "midi": 33,
          "time": 206.94932500000368,
          "velocity": 1,
          "duration": 0.250000208333347
        },
        {
          "name": "A1",
          "midi": 33,
          "time": 207.2035625000037,
          "velocity": 1,
          "duration": 0.250000208333347
        },
        {
          "name": "B1",
          "midi": 35,
          "time": 207.45780000000372,
          "velocity": 1,
          "duration": 0.250000208333347
        },
        {
          "name": "B1",
          "midi": 35,
          "time": 207.71203750000373,
          "velocity": 1,
          "duration": 0.12288145833332464
        },
        {
          "name": "B1",
          "midi": 35,
          "time": 207.83915625000373,
          "velocity": 1,
          "duration": 0.12288145833332464
        },
        {
          "name": "B1",
          "midi": 35,
          "time": 207.96627500000372,
          "velocity": 1,
          "duration": 0.250000208333347
        },
        {
          "name": "B1",
          "midi": 35,
          "time": 208.22051250000374,
          "velocity": 1,
          "duration": 0.250000208333347
        },
        {
          "name": "B1",
          "midi": 35,
          "time": 208.47475000000375,
          "velocity": 1,
          "duration": 0.250000208333347
        },
        {
          "name": "B1",
          "midi": 35,
          "time": 208.72898750000377,
          "velocity": 1,
          "duration": 0.12288145833332464
        },
        {
          "name": "B1",
          "midi": 35,
          "time": 208.85610625000376,
          "velocity": 1,
          "duration": 0.12288145833332464
        },
        {
          "name": "B1",
          "midi": 35,
          "time": 208.98322500000376,
          "velocity": 1,
          "duration": 0.250000208333347
        },
        {
          "name": "B1",
          "midi": 35,
          "time": 209.23746250000377,
          "velocity": 1,
          "duration": 0.250000208333347
        },
        {
          "name": "F#1",
          "midi": 30,
          "time": 209.4917000000038,
          "velocity": 1,
          "duration": 0.250000208333347
        },
        {
          "name": "F#1",
          "midi": 30,
          "time": 209.7459375000038,
          "velocity": 1,
          "duration": 0.12288145833332464
        },
        {
          "name": "F#1",
          "midi": 30,
          "time": 209.8730562500038,
          "velocity": 1,
          "duration": 0.12288145833332464
        },
        {
          "name": "F#1",
          "midi": 30,
          "time": 210.0001750000038,
          "velocity": 1,
          "duration": 0.250000208333347
        },
        {
          "name": "F#1",
          "midi": 30,
          "time": 210.2544125000038,
          "velocity": 1,
          "duration": 0.250000208333347
        },
        {
          "name": "F#1",
          "midi": 30,
          "time": 210.50865000000383,
          "velocity": 1,
          "duration": 0.250000208333347
        },
        {
          "name": "F#1",
          "midi": 30,
          "time": 210.76288750000384,
          "velocity": 1,
          "duration": 0.12288145833332464
        },
        {
          "name": "F#1",
          "midi": 30,
          "time": 210.89000625000384,
          "velocity": 1,
          "duration": 0.12288145833332464
        },
        {
          "name": "F#1",
          "midi": 30,
          "time": 211.01712500000383,
          "velocity": 1,
          "duration": 0.250000208333347
        },
        {
          "name": "F#1",
          "midi": 30,
          "time": 211.27136250000385,
          "velocity": 1,
          "duration": 0.250000208333347
        },
        {
          "name": "B1",
          "midi": 35,
          "time": 211.52560000000386,
          "velocity": 1,
          "duration": 0.250000208333347
        },
        {
          "name": "B1",
          "midi": 35,
          "time": 211.77983750000388,
          "velocity": 1,
          "duration": 0.12288145833332464
        },
        {
          "name": "B1",
          "midi": 35,
          "time": 211.90695625000387,
          "velocity": 1,
          "duration": 0.12288145833332464
        },
        {
          "name": "B1",
          "midi": 35,
          "time": 212.03407500000387,
          "velocity": 1,
          "duration": 0.250000208333347
        },
        {
          "name": "B1",
          "midi": 35,
          "time": 212.28831250000388,
          "velocity": 1,
          "duration": 0.250000208333347
        },
        {
          "name": "B1",
          "midi": 35,
          "time": 212.5425500000039,
          "velocity": 1,
          "duration": 0.250000208333347
        },
        {
          "name": "B1",
          "midi": 35,
          "time": 212.79678750000392,
          "velocity": 1,
          "duration": 0.12288145833332464
        },
        {
          "name": "B1",
          "midi": 35,
          "time": 212.9239062500039,
          "velocity": 1,
          "duration": 0.12288145833332464
        },
        {
          "name": "B1",
          "midi": 35,
          "time": 213.0510250000039,
          "velocity": 1,
          "duration": 0.250000208333347
        },
        {
          "name": "B1",
          "midi": 35,
          "time": 213.30526250000392,
          "velocity": 1,
          "duration": 0.250000208333347
        },
        {
          "name": "A1",
          "midi": 33,
          "time": 213.55950000000394,
          "velocity": 1,
          "duration": 0.250000208333347
        },
        {
          "name": "A1",
          "midi": 33,
          "time": 213.81373750000395,
          "velocity": 1,
          "duration": 0.12288145833332464
        },
        {
          "name": "A1",
          "midi": 33,
          "time": 213.94085625000395,
          "velocity": 1,
          "duration": 0.12288145833332464
        },
        {
          "name": "A1",
          "midi": 33,
          "time": 214.06797500000394,
          "velocity": 1,
          "duration": 0.250000208333347
        },
        {
          "name": "A1",
          "midi": 33,
          "time": 214.32221250000396,
          "velocity": 1,
          "duration": 0.250000208333347
        },
        {
          "name": "A1",
          "midi": 33,
          "time": 214.57645000000397,
          "velocity": 1,
          "duration": 0.250000208333347
        },
        {
          "name": "A1",
          "midi": 33,
          "time": 214.830687500004,
          "velocity": 1,
          "duration": 0.12288145833332464
        },
        {
          "name": "A1",
          "midi": 33,
          "time": 214.95780625000398,
          "velocity": 1,
          "duration": 0.12288145833332464
        },
        {
          "name": "A1",
          "midi": 33,
          "time": 215.08492500000398,
          "velocity": 1,
          "duration": 0.250000208333347
        },
        {
          "name": "A1",
          "midi": 33,
          "time": 215.339162500004,
          "velocity": 1,
          "duration": 0.250000208333347
        },
        {
          "name": "D2",
          "midi": 38,
          "time": 215.593400000004,
          "velocity": 1,
          "duration": 0.250000208333347
        },
        {
          "name": "D2",
          "midi": 38,
          "time": 215.84763750000403,
          "velocity": 1,
          "duration": 0.12288145833332464
        },
        {
          "name": "D2",
          "midi": 38,
          "time": 215.97475625000402,
          "velocity": 1,
          "duration": 0.12288145833332464
        },
        {
          "name": "D2",
          "midi": 38,
          "time": 216.10187500000401,
          "velocity": 1,
          "duration": 0.250000208333347
        },
        {
          "name": "D2",
          "midi": 38,
          "time": 216.35611250000403,
          "velocity": 1,
          "duration": 0.250000208333347
        },
        {
          "name": "D2",
          "midi": 38,
          "time": 216.61035000000405,
          "velocity": 1,
          "duration": 0.250000208333347
        },
        {
          "name": "D2",
          "midi": 38,
          "time": 216.86458750000406,
          "velocity": 1,
          "duration": 0.12288145833332464
        },
        {
          "name": "D2",
          "midi": 38,
          "time": 216.99170625000406,
          "velocity": 1,
          "duration": 0.12288145833332464
        },
        {
          "name": "D2",
          "midi": 38,
          "time": 217.11882500000405,
          "velocity": 1,
          "duration": 0.250000208333347
        },
        {
          "name": "D2",
          "midi": 38,
          "time": 217.37306250000407,
          "velocity": 1,
          "duration": 0.250000208333347
        },
        {
          "name": "G1",
          "midi": 31,
          "time": 217.62730000000408,
          "velocity": 1,
          "duration": 0.250000208333347
        },
        {
          "name": "G1",
          "midi": 31,
          "time": 217.8815375000041,
          "velocity": 1,
          "duration": 0.12288145833332464
        },
        {
          "name": "G1",
          "midi": 31,
          "time": 218.0086562500041,
          "velocity": 1,
          "duration": 0.12288145833332464
        },
        {
          "name": "G1",
          "midi": 31,
          "time": 218.1357750000041,
          "velocity": 1,
          "duration": 0.250000208333347
        },
        {
          "name": "G1",
          "midi": 31,
          "time": 218.3900125000041,
          "velocity": 1,
          "duration": 0.250000208333347
        },
        {
          "name": "F#1",
          "midi": 30,
          "time": 218.64425000000412,
          "velocity": 1,
          "duration": 0.250000208333347
        },
        {
          "name": "F#1",
          "midi": 30,
          "time": 218.89848750000414,
          "velocity": 1,
          "duration": 0.12288145833332464
        },
        {
          "name": "F#1",
          "midi": 30,
          "time": 219.02560625000413,
          "velocity": 1,
          "duration": 0.12288145833332464
        },
        {
          "name": "F#1",
          "midi": 30,
          "time": 219.15272500000412,
          "velocity": 1,
          "duration": 0.250000208333347
        },
        {
          "name": "F#1",
          "midi": 30,
          "time": 219.40696250000414,
          "velocity": 1,
          "duration": 0.250000208333347
        },
        {
          "name": "E1",
          "midi": 28,
          "time": 219.66120000000416,
          "velocity": 1,
          "duration": 0.250000208333347
        },
        {
          "name": "E1",
          "midi": 28,
          "time": 219.91543750000417,
          "velocity": 1,
          "duration": 0.12288145833332464
        },
        {
          "name": "E1",
          "midi": 28,
          "time": 220.04255625000417,
          "velocity": 1,
          "duration": 0.12288145833332464
        },
        {
          "name": "E1",
          "midi": 28,
          "time": 220.16967500000416,
          "velocity": 1,
          "duration": 0.250000208333347
        },
        {
          "name": "E1",
          "midi": 28,
          "time": 220.42391250000418,
          "velocity": 1,
          "duration": 0.250000208333347
        },
        {
          "name": "E1",
          "midi": 28,
          "time": 220.6781500000042,
          "velocity": 1,
          "duration": 0.250000208333347
        },
        {
          "name": "E1",
          "midi": 28,
          "time": 220.9323875000042,
          "velocity": 1,
          "duration": 0.12288145833332464
        },
        {
          "name": "E1",
          "midi": 28,
          "time": 221.0595062500042,
          "velocity": 1,
          "duration": 0.12288145833332464
        },
        {
          "name": "E1",
          "midi": 28,
          "time": 221.1866250000042,
          "velocity": 1,
          "duration": 0.250000208333347
        },
        {
          "name": "E1",
          "midi": 28,
          "time": 221.44086250000422,
          "velocity": 1,
          "duration": 0.250000208333347
        },
        {
          "name": "A1",
          "midi": 33,
          "time": 221.69510000000423,
          "velocity": 1,
          "duration": 0.250000208333347
        },
        {
          "name": "A1",
          "midi": 33,
          "time": 221.94933750000425,
          "velocity": 1,
          "duration": 0.12288145833332464
        },
        {
          "name": "A1",
          "midi": 33,
          "time": 222.07645625000424,
          "velocity": 1,
          "duration": 0.12288145833332464
        },
        {
          "name": "A1",
          "midi": 33,
          "time": 222.20357500000424,
          "velocity": 1,
          "duration": 0.250000208333347
        },
        {
          "name": "A1",
          "midi": 33,
          "time": 222.45781250000425,
          "velocity": 1,
          "duration": 0.250000208333347
        },
        {
          "name": "A1",
          "midi": 33,
          "time": 222.71205000000427,
          "velocity": 1,
          "duration": 0.250000208333347
        },
        {
          "name": "A1",
          "midi": 33,
          "time": 222.96628750000428,
          "velocity": 1,
          "duration": 0.12288145833332464
        },
        {
          "name": "A1",
          "midi": 33,
          "time": 223.09340625000428,
          "velocity": 1,
          "duration": 0.12288145833332464
        },
        {
          "name": "A1",
          "midi": 33,
          "time": 223.22052500000427,
          "velocity": 1,
          "duration": 0.250000208333347
        },
        {
          "name": "A1",
          "midi": 33,
          "time": 223.4747625000043,
          "velocity": 1,
          "duration": 0.250000208333347
        },
        {
          "name": "B1",
          "midi": 35,
          "time": 223.7290000000043,
          "velocity": 1,
          "duration": 0.250000208333347
        },
        {
          "name": "B1",
          "midi": 35,
          "time": 223.98323750000432,
          "velocity": 1,
          "duration": 0.12288145833332464
        },
        {
          "name": "B1",
          "midi": 35,
          "time": 224.11035625000432,
          "velocity": 1,
          "duration": 0.12288145833332464
        },
        {
          "name": "B1",
          "midi": 35,
          "time": 224.2374750000043,
          "velocity": 1,
          "duration": 0.250000208333347
        },
        {
          "name": "B1",
          "midi": 35,
          "time": 224.49171250000433,
          "velocity": 1,
          "duration": 0.250000208333347
        },
        {
          "name": "B1",
          "midi": 35,
          "time": 224.74595000000434,
          "velocity": 1,
          "duration": 0.250000208333347
        },
        {
          "name": "B1",
          "midi": 35,
          "time": 225.00018750000436,
          "velocity": 1,
          "duration": 0.12288145833332464
        },
        {
          "name": "B1",
          "midi": 35,
          "time": 225.12730625000435,
          "velocity": 1,
          "duration": 0.12288145833332464
        },
        {
          "name": "B1",
          "midi": 35,
          "time": 225.25442500000435,
          "velocity": 1,
          "duration": 0.250000208333347
        },
        {
          "name": "B1",
          "midi": 35,
          "time": 225.50866250000436,
          "velocity": 1,
          "duration": 0.250000208333347
        },
        {
          "name": "C#2",
          "midi": 37,
          "time": 225.76290000000438,
          "velocity": 1,
          "duration": 0.250000208333347
        },
        {
          "name": "C#2",
          "midi": 37,
          "time": 226.0171375000044,
          "velocity": 1,
          "duration": 0.12288145833332464
        },
        {
          "name": "C#2",
          "midi": 37,
          "time": 226.1442562500044,
          "velocity": 1,
          "duration": 0.12288145833332464
        },
        {
          "name": "C#2",
          "midi": 37,
          "time": 226.27137500000438,
          "velocity": 1,
          "duration": 0.250000208333347
        },
        {
          "name": "C#2",
          "midi": 37,
          "time": 226.5256125000044,
          "velocity": 1,
          "duration": 0.250000208333347
        },
        {
          "name": "C#2",
          "midi": 37,
          "time": 226.77985000000442,
          "velocity": 1,
          "duration": 0.250000208333347
        },
        {
          "name": "C#2",
          "midi": 37,
          "time": 227.03408750000443,
          "velocity": 1,
          "duration": 0.12288145833332464
        },
        {
          "name": "C#2",
          "midi": 37,
          "time": 227.16120625000443,
          "velocity": 1,
          "duration": 0.12288145833332464
        },
        {
          "name": "C#2",
          "midi": 37,
          "time": 227.28832500000442,
          "velocity": 1,
          "duration": 0.250000208333347
        },
        {
          "name": "C#2",
          "midi": 37,
          "time": 227.54256250000444,
          "velocity": 1,
          "duration": 0.250000208333347
        },
        {
          "name": "F#1",
          "midi": 30,
          "time": 227.80103729167112,
          "velocity": 1,
          "duration": 0.4745766666666782
        },
        {
          "name": "C#2",
          "midi": 37,
          "time": 229.5849370833378,
          "velocity": 1,
          "duration": 0.2584747916666572
        },
        {
          "name": "D2",
          "midi": 38,
          "time": 229.85612375000446,
          "velocity": 1,
          "duration": 0.38983083333332047
        },
        {
          "name": "B1",
          "midi": 35,
          "time": 231.89002375000445,
          "velocity": 1,
          "duration": 0.5211868750000122
        },
        {
          "name": "D2",
          "midi": 38,
          "time": 233.64426250000446,
          "velocity": 1,
          "duration": 0.27118666666666513
        },
        {
          "name": "E2",
          "midi": 40,
          "time": 233.90273729167112,
          "velocity": 1,
          "duration": 0.4745766666666782
        },
        {
          "name": "E2",
          "midi": 40,
          "time": 235.67816250000445,
          "velocity": 0.7086614173228346,
          "duration": 0.250000208333347
        },
        {
          "name": "F#1",
          "midi": 30,
          "time": 235.93240000000446,
          "velocity": 1,
          "duration": 0.6737293749999935
        },
        {
          "name": "C#2",
          "midi": 37,
          "time": 237.71206250000446,
          "velocity": 1,
          "duration": 0.28389854166667305
        },
        {
          "name": "D2",
          "midi": 38,
          "time": 237.98324916667113,
          "velocity": 1,
          "duration": 0.7161022916666866
        },
        {
          "name": "D#2",
          "midi": 39,
          "time": 237.98324916667113,
          "velocity": 1,
          "duration": 0.11016958333334514
        },
        {
          "name": "B1",
          "midi": 35,
          "time": 240.02138645833782,
          "velocity": 1,
          "duration": 0.7500006250000126
        },
        {
          "name": "D2",
          "midi": 38,
          "time": 241.75867604167115,
          "velocity": 1,
          "duration": 0.29237312500001167
        },
        {
          "name": "E2",
          "midi": 40,
          "time": 242.03410000000449,
          "velocity": 1,
          "duration": 0.7203395833333559
        },
        {
          "name": "F#1",
          "midi": 30,
          "time": 244.0680000000045,
          "velocity": 0.7795275590551181,
          "duration": 0.9745770833333438
        },
        {
          "name": "G#1",
          "midi": 32,
          "time": 245.04257708333785,
          "velocity": 0.6614173228346457,
          "duration": 0.9872889583333517
        },
        {
          "name": "A1",
          "midi": 33,
          "time": 246.0171541666712,
          "velocity": 0.6456692913385826,
          "duration": 0.3220341666666684
        },
        {
          "name": "G#1",
          "midi": 32,
          "time": 246.30105270833786,
          "velocity": 1,
          "duration": 0.29661041666665255
        },
        {
          "name": "F#1",
          "midi": 30,
          "time": 246.5637647916712,
          "velocity": 1,
          "duration": 0.2669493749999958
        },
        {
          "name": "E1",
          "midi": 28,
          "time": 246.84766333333786,
          "velocity": 1,
          "duration": 0.22881375000000048
        },
        {
          "name": "D2",
          "midi": 38,
          "time": 247.11885000000453,
          "velocity": 1,
          "duration": 0.5042377083333349
        },
        {
          "name": "D2",
          "midi": 38,
          "time": 247.62732500000453,
          "velocity": 1,
          "duration": 0.5042377083333349
        },
        {
          "name": "C#2",
          "midi": 37,
          "time": 248.13580000000454,
          "velocity": 1,
          "duration": 4.063562708333336
        },
        {
          "name": "F#1",
          "midi": 30,
          "time": 252.20360000000454,
          "velocity": 1,
          "duration": 0.250000208333347
        },
        {
          "name": "F#1",
          "midi": 30,
          "time": 252.45783750000456,
          "velocity": 1,
          "duration": 0.12288145833332464
        },
        {
          "name": "F#1",
          "midi": 30,
          "time": 252.58495625000455,
          "velocity": 1,
          "duration": 0.12288145833332464
        },
        {
          "name": "F#1",
          "midi": 30,
          "time": 252.71207500000455,
          "velocity": 1,
          "duration": 0.250000208333347
        },
        {
          "name": "F#1",
          "midi": 30,
          "time": 252.96631250000456,
          "velocity": 1,
          "duration": 0.250000208333347
        },
        {
          "name": "F#1",
          "midi": 30,
          "time": 253.22055000000458,
          "velocity": 1,
          "duration": 0.250000208333347
        },
        {
          "name": "F#1",
          "midi": 30,
          "time": 253.4747875000046,
          "velocity": 1,
          "duration": 0.12288145833332464
        },
        {
          "name": "F#1",
          "midi": 30,
          "time": 253.6019062500046,
          "velocity": 1,
          "duration": 0.12288145833332464
        },
        {
          "name": "F#1",
          "midi": 30,
          "time": 253.72902500000458,
          "velocity": 1,
          "duration": 0.250000208333347
        },
        {
          "name": "F#1",
          "midi": 30,
          "time": 253.9832625000046,
          "velocity": 1,
          "duration": 0.250000208333347
        },
        {
          "name": "D2",
          "midi": 38,
          "time": 254.23750000000462,
          "velocity": 1,
          "duration": 0.250000208333347
        },
        {
          "name": "D2",
          "midi": 38,
          "time": 254.49173750000463,
          "velocity": 1,
          "duration": 0.12288145833332464
        },
        {
          "name": "D2",
          "midi": 38,
          "time": 254.61885625000463,
          "velocity": 1,
          "duration": 0.12288145833332464
        },
        {
          "name": "D2",
          "midi": 38,
          "time": 254.74597500000462,
          "velocity": 1,
          "duration": 0.250000208333347
        },
        {
          "name": "D2",
          "midi": 38,
          "time": 255.00021250000464,
          "velocity": 1,
          "duration": 0.250000208333347
        },
        {
          "name": "D2",
          "midi": 38,
          "time": 255.25445000000465,
          "velocity": 1,
          "duration": 0.250000208333347
        },
        {
          "name": "D2",
          "midi": 38,
          "time": 255.50868750000467,
          "velocity": 1,
          "duration": 0.12288145833332464
        },
        {
          "name": "D2",
          "midi": 38,
          "time": 255.63580625000466,
          "velocity": 1,
          "duration": 0.12288145833332464
        },
        {
          "name": "D2",
          "midi": 38,
          "time": 255.76292500000466,
          "velocity": 1,
          "duration": 0.250000208333347
        },
        {
          "name": "D2",
          "midi": 38,
          "time": 256.01716250000464,
          "velocity": 1,
          "duration": 0.250000208333347
        },
        {
          "name": "B1",
          "midi": 35,
          "time": 256.27140000000463,
          "velocity": 1,
          "duration": 0.250000208333347
        },
        {
          "name": "B1",
          "midi": 35,
          "time": 256.5256375000046,
          "velocity": 1,
          "duration": 0.12288145833332464
        },
        {
          "name": "B1",
          "midi": 35,
          "time": 256.6527562500046,
          "velocity": 1,
          "duration": 0.12288145833332464
        },
        {
          "name": "B1",
          "midi": 35,
          "time": 256.77987500000455,
          "velocity": 1,
          "duration": 0.250000208333347
        },
        {
          "name": "B1",
          "midi": 35,
          "time": 257.03411250000454,
          "velocity": 1,
          "duration": 0.250000208333347
        },
        {
          "name": "B1",
          "midi": 35,
          "time": 257.2883500000045,
          "velocity": 1,
          "duration": 0.250000208333347
        },
        {
          "name": "B1",
          "midi": 35,
          "time": 257.5425875000045,
          "velocity": 1,
          "duration": 0.12288145833332464
        },
        {
          "name": "B1",
          "midi": 35,
          "time": 257.6697062500045,
          "velocity": 1,
          "duration": 0.12288145833332464
        },
        {
          "name": "B1",
          "midi": 35,
          "time": 257.79682500000445,
          "velocity": 1,
          "duration": 0.250000208333347
        },
        {
          "name": "B1",
          "midi": 35,
          "time": 258.05106250000443,
          "velocity": 1,
          "duration": 0.250000208333347
        },
        {
          "name": "E1",
          "midi": 28,
          "time": 258.3053000000044,
          "velocity": 1,
          "duration": 0.250000208333347
        },
        {
          "name": "E1",
          "midi": 28,
          "time": 258.5595375000044,
          "velocity": 1,
          "duration": 0.12288145833332464
        },
        {
          "name": "E1",
          "midi": 28,
          "time": 258.6866562500044,
          "velocity": 1,
          "duration": 0.12288145833332464
        },
        {
          "name": "E1",
          "midi": 28,
          "time": 258.81377500000434,
          "velocity": 1,
          "duration": 0.250000208333347
        },
        {
          "name": "E1",
          "midi": 28,
          "time": 259.06801250000433,
          "velocity": 1,
          "duration": 0.250000208333347
        },
        {
          "name": "E1",
          "midi": 28,
          "time": 259.3222500000043,
          "velocity": 1,
          "duration": 0.250000208333347
        },
        {
          "name": "E1",
          "midi": 28,
          "time": 259.5764875000043,
          "velocity": 1,
          "duration": 0.12288145833332464
        },
        {
          "name": "E1",
          "midi": 28,
          "time": 259.70360625000427,
          "velocity": 1,
          "duration": 0.12288145833332464
        },
        {
          "name": "E1",
          "midi": 28,
          "time": 259.83072500000424,
          "velocity": 1,
          "duration": 0.250000208333347
        },
        {
          "name": "E1",
          "midi": 28,
          "time": 260.0849625000042,
          "velocity": 1,
          "duration": 0.250000208333347
        },
        {
          "name": "F#1",
          "midi": 30,
          "time": 260.3392000000042,
          "velocity": 1,
          "duration": 0.250000208333347
        },
        {
          "name": "F#1",
          "midi": 30,
          "time": 260.5934375000042,
          "velocity": 1,
          "duration": 0.12288145833332464
        },
        {
          "name": "F#1",
          "midi": 30,
          "time": 260.72055625000417,
          "velocity": 1,
          "duration": 0.12288145833332464
        },
        {
          "name": "F#1",
          "midi": 30,
          "time": 260.84767500000413,
          "velocity": 1,
          "duration": 0.250000208333347
        },
        {
          "name": "F#1",
          "midi": 30,
          "time": 261.1019125000041,
          "velocity": 1,
          "duration": 0.250000208333347
        },
        {
          "name": "F#1",
          "midi": 30,
          "time": 261.3561500000041,
          "velocity": 1,
          "duration": 0.250000208333347
        },
        {
          "name": "F#1",
          "midi": 30,
          "time": 261.6103875000041,
          "velocity": 1,
          "duration": 0.12288145833332464
        },
        {
          "name": "F#1",
          "midi": 30,
          "time": 261.73750625000406,
          "velocity": 1,
          "duration": 0.12288145833332464
        },
        {
          "name": "F#1",
          "midi": 30,
          "time": 261.864625000004,
          "velocity": 1,
          "duration": 0.250000208333347
        },
        {
          "name": "F#1",
          "midi": 30,
          "time": 262.118862500004,
          "velocity": 1,
          "duration": 0.250000208333347
        },
        {
          "name": "D2",
          "midi": 38,
          "time": 262.373100000004,
          "velocity": 1,
          "duration": 0.250000208333347
        },
        {
          "name": "D2",
          "midi": 38,
          "time": 262.627337500004,
          "velocity": 1,
          "duration": 0.12288145833332464
        },
        {
          "name": "D2",
          "midi": 38,
          "time": 262.75445625000395,
          "velocity": 1,
          "duration": 0.12288145833332464
        },
        {
          "name": "D2",
          "midi": 38,
          "time": 262.8815750000039,
          "velocity": 1,
          "duration": 0.250000208333347
        },
        {
          "name": "D2",
          "midi": 38,
          "time": 263.1358125000039,
          "velocity": 1,
          "duration": 0.250000208333347
        },
        {
          "name": "D2",
          "midi": 38,
          "time": 263.3900500000039,
          "velocity": 1,
          "duration": 0.250000208333347
        },
        {
          "name": "D2",
          "midi": 38,
          "time": 263.6442875000039,
          "velocity": 1,
          "duration": 0.12288145833332464
        },
        {
          "name": "D2",
          "midi": 38,
          "time": 263.77140625000385,
          "velocity": 1,
          "duration": 0.12288145833332464
        },
        {
          "name": "D2",
          "midi": 38,
          "time": 263.8985250000038,
          "velocity": 1,
          "duration": 0.250000208333347
        },
        {
          "name": "D2",
          "midi": 38,
          "time": 264.1527625000038,
          "velocity": 1,
          "duration": 0.250000208333347
        },
        {
          "name": "B1",
          "midi": 35,
          "time": 264.4070000000038,
          "velocity": 1,
          "duration": 0.250000208333347
        },
        {
          "name": "B1",
          "midi": 35,
          "time": 264.6612375000038,
          "velocity": 1,
          "duration": 0.12288145833332464
        },
        {
          "name": "B1",
          "midi": 35,
          "time": 264.78835625000374,
          "velocity": 1,
          "duration": 0.12288145833332464
        },
        {
          "name": "B1",
          "midi": 35,
          "time": 264.9154750000037,
          "velocity": 1,
          "duration": 0.250000208333347
        },
        {
          "name": "B1",
          "midi": 35,
          "time": 265.1697125000037,
          "velocity": 1,
          "duration": 0.250000208333347
        },
        {
          "name": "B1",
          "midi": 35,
          "time": 265.4239500000037,
          "velocity": 1,
          "duration": 0.250000208333347
        },
        {
          "name": "B1",
          "midi": 35,
          "time": 265.6781875000037,
          "velocity": 1,
          "duration": 0.12288145833332464
        },
        {
          "name": "B1",
          "midi": 35,
          "time": 265.80530625000364,
          "velocity": 1,
          "duration": 0.12288145833332464
        },
        {
          "name": "B1",
          "midi": 35,
          "time": 265.9324250000036,
          "velocity": 1,
          "duration": 0.250000208333347
        },
        {
          "name": "B1",
          "midi": 35,
          "time": 266.1866625000036,
          "velocity": 1,
          "duration": 0.250000208333347
        },
        {
          "name": "E1",
          "midi": 28,
          "time": 266.4409000000036,
          "velocity": 1,
          "duration": 0.250000208333347
        },
        {
          "name": "E1",
          "midi": 28,
          "time": 266.69513750000357,
          "velocity": 1,
          "duration": 0.12288145833332464
        },
        {
          "name": "E1",
          "midi": 28,
          "time": 266.82225625000353,
          "velocity": 1,
          "duration": 0.12288145833332464
        },
        {
          "name": "E1",
          "midi": 28,
          "time": 266.9493750000035,
          "velocity": 1,
          "duration": 0.250000208333347
        },
        {
          "name": "E1",
          "midi": 28,
          "time": 267.2036125000035,
          "velocity": 1,
          "duration": 0.250000208333347
        },
        {
          "name": "E1",
          "midi": 28,
          "time": 267.4578500000035,
          "velocity": 1,
          "duration": 0.250000208333347
        },
        {
          "name": "E1",
          "midi": 28,
          "time": 267.71208750000346,
          "velocity": 1,
          "duration": 0.12288145833332464
        },
        {
          "name": "E1",
          "midi": 28,
          "time": 267.83920625000343,
          "velocity": 1,
          "duration": 0.12288145833332464
        },
        {
          "name": "E1",
          "midi": 28,
          "time": 267.9663250000034,
          "velocity": 1,
          "duration": 0.250000208333347
        },
        {
          "name": "E1",
          "midi": 28,
          "time": 268.2205625000034,
          "velocity": 1,
          "duration": 0.250000208333347
        },
        {
          "name": "F#1",
          "midi": 30,
          "time": 268.47480000000337,
          "velocity": 1,
          "duration": 0.250000208333347
        },
        {
          "name": "F#1",
          "midi": 30,
          "time": 268.72903750000336,
          "velocity": 1,
          "duration": 0.12288145833332464
        },
        {
          "name": "F#1",
          "midi": 30,
          "time": 268.8561562500033,
          "velocity": 1,
          "duration": 0.12288145833332464
        },
        {
          "name": "F#1",
          "midi": 30,
          "time": 268.9832750000033,
          "velocity": 1,
          "duration": 0.250000208333347
        },
        {
          "name": "F#1",
          "midi": 30,
          "time": 269.2375125000033,
          "velocity": 1,
          "duration": 0.12288145833332464
        },
        {
          "name": "F#1",
          "midi": 30,
          "time": 269.36463125000324,
          "velocity": 1,
          "duration": 0.12288145833332464
        },
        {
          "name": "G#1",
          "midi": 32,
          "time": 269.4917500000032,
          "velocity": 1,
          "duration": 0.250000208333347
        },
        {
          "name": "G#1",
          "midi": 32,
          "time": 269.7459875000032,
          "velocity": 1,
          "duration": 0.12288145833332464
        },
        {
          "name": "G#1",
          "midi": 32,
          "time": 269.87310625000316,
          "velocity": 1,
          "duration": 0.12288145833332464
        },
        {
          "name": "G#1",
          "midi": 32,
          "time": 270.0002250000031,
          "velocity": 1,
          "duration": 0.250000208333347
        },
        {
          "name": "G#1",
          "midi": 32,
          "time": 270.2544625000031,
          "velocity": 1,
          "duration": 0.12288145833332464
        },
        {
          "name": "G#1",
          "midi": 32,
          "time": 270.3815812500031,
          "velocity": 1,
          "duration": 0.12288145833332464
        },
        {
          "name": "A1",
          "midi": 33,
          "time": 270.50870000000305,
          "velocity": 1,
          "duration": 0.250000208333347
        },
        {
          "name": "A1",
          "midi": 33,
          "time": 270.76293750000303,
          "velocity": 1,
          "duration": 0.12288145833332464
        },
        {
          "name": "A1",
          "midi": 33,
          "time": 270.890056250003,
          "velocity": 1,
          "duration": 0.12288145833332464
        },
        {
          "name": "A1",
          "midi": 33,
          "time": 271.01717500000296,
          "velocity": 1,
          "duration": 0.250000208333347
        },
        {
          "name": "A1",
          "midi": 33,
          "time": 271.27141250000295,
          "velocity": 1,
          "duration": 0.12288145833332464
        },
        {
          "name": "A1",
          "midi": 33,
          "time": 271.3985312500029,
          "velocity": 1,
          "duration": 0.12288145833332464
        },
        {
          "name": "D2",
          "midi": 38,
          "time": 271.5256500000029,
          "velocity": 1,
          "duration": 0.250000208333347
        },
        {
          "name": "D2",
          "midi": 38,
          "time": 271.77988750000287,
          "velocity": 1,
          "duration": 0.12288145833332464
        },
        {
          "name": "D2",
          "midi": 38,
          "time": 271.90700625000284,
          "velocity": 1,
          "duration": 0.12288145833332464
        },
        {
          "name": "D2",
          "midi": 38,
          "time": 272.0341250000028,
          "velocity": 1,
          "duration": 0.250000208333347
        },
        {
          "name": "D2",
          "midi": 38,
          "time": 272.2883625000028,
          "velocity": 1,
          "duration": 0.12288145833332464
        },
        {
          "name": "D2",
          "midi": 38,
          "time": 272.41548125000276,
          "velocity": 1,
          "duration": 0.12288145833332464
        },
        {
          "name": "C#2",
          "midi": 37,
          "time": 272.5426000000027,
          "velocity": 1,
          "duration": 0.250000208333347
        },
        {
          "name": "C#2",
          "midi": 37,
          "time": 272.7968375000027,
          "velocity": 1,
          "duration": 0.12288145833332464
        },
        {
          "name": "C#2",
          "midi": 37,
          "time": 272.9239562500027,
          "velocity": 1,
          "duration": 0.12288145833332464
        },
        {
          "name": "C#2",
          "midi": 37,
          "time": 273.05107500000264,
          "velocity": 1,
          "duration": 0.250000208333347
        },
        {
          "name": "C#2",
          "midi": 37,
          "time": 273.30531250000263,
          "velocity": 1,
          "duration": 0.12288145833332464
        },
        {
          "name": "C#2",
          "midi": 37,
          "time": 273.4324312500026,
          "velocity": 1,
          "duration": 0.12288145833332464
        },
        {
          "name": "C#2",
          "midi": 37,
          "time": 273.55955000000256,
          "velocity": 1,
          "duration": 0.250000208333347
        },
        {
          "name": "C#2",
          "midi": 37,
          "time": 273.81378750000255,
          "velocity": 1,
          "duration": 0.12288145833332464
        },
        {
          "name": "C#2",
          "midi": 37,
          "time": 273.9409062500025,
          "velocity": 1,
          "duration": 0.12288145833332464
        },
        {
          "name": "C#2",
          "midi": 37,
          "time": 274.0680250000025,
          "velocity": 1,
          "duration": 0.250000208333347
        },
        {
          "name": "C#2",
          "midi": 37,
          "time": 274.32226250000247,
          "velocity": 1,
          "duration": 0.12288145833332464
        },
        {
          "name": "C#2",
          "midi": 37,
          "time": 274.44938125000243,
          "velocity": 1,
          "duration": 0.12288145833332464
        },
        {
          "name": "C#2",
          "midi": 37,
          "time": 274.5765000000024,
          "velocity": 0.9763779527559056,
          "duration": 0.2627120833333265
        },
        {
          "name": "C#2",
          "midi": 37,
          "time": 274.9154833333357,
          "velocity": 0.905511811023622,
          "duration": 0.23728833333331067
        },
        {
          "name": "C#2",
          "midi": 37,
          "time": 275.2714158333357,
          "velocity": 0.8818897637795275,
          "duration": 0.21186458333335167
        },
        {
          "name": "C#2",
          "midi": 37,
          "time": 275.5892127083357,
          "velocity": 0.9212598425196851,
          "duration": 0.32203416666664
        },
        {
          "name": "C#2",
          "midi": 37,
          "time": 276.09345041666904,
          "velocity": 0.9448818897637795,
          "duration": 0.500000416666694
        },
        {
          "name": "F#1",
          "midi": 30,
          "time": 276.6104000000024,
          "velocity": 1,
          "duration": 0.250000208333347
        },
        {
          "name": "F#1",
          "midi": 30,
          "time": 276.8646375000024,
          "velocity": 1,
          "duration": 0.12288145833332464
        },
        {
          "name": "F#1",
          "midi": 30,
          "time": 276.99175625000237,
          "velocity": 1,
          "duration": 0.12288145833332464
        },
        {
          "name": "F#1",
          "midi": 30,
          "time": 277.11887500000233,
          "velocity": 1,
          "duration": 0.250000208333347
        },
        {
          "name": "F#1",
          "midi": 30,
          "time": 277.3731125000023,
          "velocity": 1,
          "duration": 0.250000208333347
        },
        {
          "name": "F#1",
          "midi": 30,
          "time": 277.6273500000023,
          "velocity": 1,
          "duration": 0.250000208333347
        },
        {
          "name": "F#1",
          "midi": 30,
          "time": 277.8815875000023,
          "velocity": 1,
          "duration": 0.12288145833332464
        },
        {
          "name": "F#1",
          "midi": 30,
          "time": 278.00870625000226,
          "velocity": 1,
          "duration": 0.12288145833332464
        },
        {
          "name": "F#1",
          "midi": 30,
          "time": 278.1358250000022,
          "velocity": 1,
          "duration": 0.250000208333347
        },
        {
          "name": "F#1",
          "midi": 30,
          "time": 278.3900625000022,
          "velocity": 1,
          "duration": 0.250000208333347
        },
        {
          "name": "D2",
          "midi": 38,
          "time": 278.6443000000022,
          "velocity": 1,
          "duration": 0.250000208333347
        },
        {
          "name": "D2",
          "midi": 38,
          "time": 278.8985375000022,
          "velocity": 1,
          "duration": 0.12288145833332464
        },
        {
          "name": "D2",
          "midi": 38,
          "time": 279.02565625000216,
          "velocity": 1,
          "duration": 0.12288145833332464
        },
        {
          "name": "D2",
          "midi": 38,
          "time": 279.1527750000021,
          "velocity": 1,
          "duration": 0.250000208333347
        },
        {
          "name": "D2",
          "midi": 38,
          "time": 279.4070125000021,
          "velocity": 1,
          "duration": 0.250000208333347
        },
        {
          "name": "D2",
          "midi": 38,
          "time": 279.6612500000021,
          "velocity": 1,
          "duration": 0.250000208333347
        },
        {
          "name": "D2",
          "midi": 38,
          "time": 279.9154875000021,
          "velocity": 1,
          "duration": 0.12288145833332464
        },
        {
          "name": "D2",
          "midi": 38,
          "time": 280.04260625000205,
          "velocity": 1,
          "duration": 0.12288145833332464
        },
        {
          "name": "D2",
          "midi": 38,
          "time": 280.169725000002,
          "velocity": 1,
          "duration": 0.250000208333347
        },
        {
          "name": "D2",
          "midi": 38,
          "time": 280.423962500002,
          "velocity": 1,
          "duration": 0.250000208333347
        },
        {
          "name": "B1",
          "midi": 35,
          "time": 280.678200000002,
          "velocity": 1,
          "duration": 0.250000208333347
        },
        {
          "name": "B1",
          "midi": 35,
          "time": 280.932437500002,
          "velocity": 1,
          "duration": 0.12288145833332464
        },
        {
          "name": "B1",
          "midi": 35,
          "time": 281.05955625000195,
          "velocity": 1,
          "duration": 0.12288145833332464
        },
        {
          "name": "B1",
          "midi": 35,
          "time": 281.1866750000019,
          "velocity": 1,
          "duration": 0.250000208333347
        },
        {
          "name": "B1",
          "midi": 35,
          "time": 281.4409125000019,
          "velocity": 1,
          "duration": 0.250000208333347
        },
        {
          "name": "B1",
          "midi": 35,
          "time": 281.6951500000019,
          "velocity": 1,
          "duration": 0.250000208333347
        },
        {
          "name": "B1",
          "midi": 35,
          "time": 281.9493875000019,
          "velocity": 1,
          "duration": 0.12288145833332464
        },
        {
          "name": "B1",
          "midi": 35,
          "time": 282.07650625000184,
          "velocity": 1,
          "duration": 0.12288145833332464
        },
        {
          "name": "B1",
          "midi": 35,
          "time": 282.2036250000018,
          "velocity": 1,
          "duration": 0.250000208333347
        },
        {
          "name": "B1",
          "midi": 35,
          "time": 282.4578625000018,
          "velocity": 1,
          "duration": 0.250000208333347
        },
        {
          "name": "E1",
          "midi": 28,
          "time": 282.7121000000018,
          "velocity": 1,
          "duration": 0.250000208333347
        },
        {
          "name": "E1",
          "midi": 28,
          "time": 282.96633750000177,
          "velocity": 1,
          "duration": 0.12288145833332464
        },
        {
          "name": "E1",
          "midi": 28,
          "time": 283.09345625000174,
          "velocity": 1,
          "duration": 0.12288145833332464
        },
        {
          "name": "E1",
          "midi": 28,
          "time": 283.2205750000017,
          "velocity": 1,
          "duration": 0.250000208333347
        },
        {
          "name": "E1",
          "midi": 28,
          "time": 283.4748125000017,
          "velocity": 1,
          "duration": 0.250000208333347
        },
        {
          "name": "E1",
          "midi": 28,
          "time": 283.7290500000017,
          "velocity": 1,
          "duration": 0.250000208333347
        },
        {
          "name": "E1",
          "midi": 28,
          "time": 283.98328750000167,
          "velocity": 1,
          "duration": 0.12288145833332464
        },
        {
          "name": "E1",
          "midi": 28,
          "time": 284.11040625000163,
          "velocity": 1,
          "duration": 0.12288145833332464
        },
        {
          "name": "E1",
          "midi": 28,
          "time": 284.2375250000016,
          "velocity": 1,
          "duration": 0.250000208333347
        },
        {
          "name": "E1",
          "midi": 28,
          "time": 284.4917625000016,
          "velocity": 1,
          "duration": 0.250000208333347
        },
        {
          "name": "F#1",
          "midi": 30,
          "time": 284.7460000000016,
          "velocity": 1,
          "duration": 0.250000208333347
        },
        {
          "name": "F#1",
          "midi": 30,
          "time": 285.00023750000156,
          "velocity": 1,
          "duration": 0.12288145833332464
        },
        {
          "name": "F#1",
          "midi": 30,
          "time": 285.1273562500015,
          "velocity": 1,
          "duration": 0.12288145833332464
        },
        {
          "name": "F#1",
          "midi": 30,
          "time": 285.2544750000015,
          "velocity": 1,
          "duration": 0.250000208333347
        },
        {
          "name": "F#1",
          "midi": 30,
          "time": 285.5087125000015,
          "velocity": 1,
          "duration": 0.250000208333347
        },
        {
          "name": "F#1",
          "midi": 30,
          "time": 285.76295000000147,
          "velocity": 1,
          "duration": 0.250000208333347
        },
        {
          "name": "F#1",
          "midi": 30,
          "time": 286.01718750000146,
          "velocity": 1,
          "duration": 0.12288145833332464
        },
        {
          "name": "F#1",
          "midi": 30,
          "time": 286.1443062500014,
          "velocity": 1,
          "duration": 0.12288145833332464
        },
        {
          "name": "F#1",
          "midi": 30,
          "time": 286.2714250000014,
          "velocity": 1,
          "duration": 0.250000208333347
        },
        {
          "name": "F#1",
          "midi": 30,
          "time": 286.5256625000014,
          "velocity": 1,
          "duration": 0.250000208333347
        },
        {
          "name": "D2",
          "midi": 38,
          "time": 286.77990000000136,
          "velocity": 1,
          "duration": 0.250000208333347
        },
        {
          "name": "D2",
          "midi": 38,
          "time": 287.03413750000135,
          "velocity": 1,
          "duration": 0.12288145833332464
        },
        {
          "name": "D2",
          "midi": 38,
          "time": 287.1612562500013,
          "velocity": 1,
          "duration": 0.12288145833332464
        },
        {
          "name": "D2",
          "midi": 38,
          "time": 287.2883750000013,
          "velocity": 1,
          "duration": 0.250000208333347
        },
        {
          "name": "D2",
          "midi": 38,
          "time": 287.54261250000127,
          "velocity": 1,
          "duration": 0.250000208333347
        },
        {
          "name": "D2",
          "midi": 38,
          "time": 287.79685000000126,
          "velocity": 1,
          "duration": 0.250000208333347
        },
        {
          "name": "D2",
          "midi": 38,
          "time": 288.05108750000124,
          "velocity": 1,
          "duration": 0.12288145833332464
        },
        {
          "name": "D2",
          "midi": 38,
          "time": 288.1782062500012,
          "velocity": 1,
          "duration": 0.12288145833332464
        },
        {
          "name": "D2",
          "midi": 38,
          "time": 288.3053250000012,
          "velocity": 1,
          "duration": 0.250000208333347
        },
        {
          "name": "D2",
          "midi": 38,
          "time": 288.55956250000116,
          "velocity": 1,
          "duration": 0.250000208333347
        },
        {
          "name": "B1",
          "midi": 35,
          "time": 288.81380000000115,
          "velocity": 1,
          "duration": 0.250000208333347
        },
        {
          "name": "B1",
          "midi": 35,
          "time": 289.06803750000114,
          "velocity": 1,
          "duration": 0.12288145833332464
        },
        {
          "name": "B1",
          "midi": 35,
          "time": 289.1951562500011,
          "velocity": 1,
          "duration": 0.12288145833332464
        },
        {
          "name": "B1",
          "midi": 35,
          "time": 289.32227500000107,
          "velocity": 1,
          "duration": 0.250000208333347
        },
        {
          "name": "B1",
          "midi": 35,
          "time": 289.57651250000106,
          "velocity": 1,
          "duration": 0.250000208333347
        },
        {
          "name": "B1",
          "midi": 35,
          "time": 289.83075000000105,
          "velocity": 1,
          "duration": 0.250000208333347
        },
        {
          "name": "B1",
          "midi": 35,
          "time": 290.08498750000103,
          "velocity": 1,
          "duration": 0.12288145833332464
        },
        {
          "name": "B1",
          "midi": 35,
          "time": 290.212106250001,
          "velocity": 1,
          "duration": 0.12288145833332464
        },
        {
          "name": "B1",
          "midi": 35,
          "time": 290.33922500000097,
          "velocity": 1,
          "duration": 0.250000208333347
        },
        {
          "name": "B1",
          "midi": 35,
          "time": 290.59346250000095,
          "velocity": 1,
          "duration": 0.250000208333347
        },
        {
          "name": "E1",
          "midi": 28,
          "time": 290.84770000000094,
          "velocity": 1,
          "duration": 0.250000208333347
        },
        {
          "name": "E1",
          "midi": 28,
          "time": 291.10193750000093,
          "velocity": 1,
          "duration": 0.12288145833332464
        },
        {
          "name": "E1",
          "midi": 28,
          "time": 291.2290562500009,
          "velocity": 1,
          "duration": 0.12288145833332464
        },
        {
          "name": "E1",
          "midi": 28,
          "time": 291.35617500000086,
          "velocity": 1,
          "duration": 0.250000208333347
        },
        {
          "name": "E1",
          "midi": 28,
          "time": 291.61041250000085,
          "velocity": 1,
          "duration": 0.250000208333347
        },
        {
          "name": "E1",
          "midi": 28,
          "time": 291.86465000000084,
          "velocity": 1,
          "duration": 0.250000208333347
        },
        {
          "name": "E1",
          "midi": 28,
          "time": 292.1188875000008,
          "velocity": 1,
          "duration": 0.12288145833332464
        },
        {
          "name": "E1",
          "midi": 28,
          "time": 292.2460062500008,
          "velocity": 1,
          "duration": 0.12288145833332464
        },
        {
          "name": "E1",
          "midi": 28,
          "time": 292.37312500000075,
          "velocity": 1,
          "duration": 0.250000208333347
        },
        {
          "name": "E1",
          "midi": 28,
          "time": 292.62736250000074,
          "velocity": 1,
          "duration": 0.250000208333347
        },
        {
          "name": "F#1",
          "midi": 30,
          "time": 292.88160000000073,
          "velocity": 1,
          "duration": 0.250000208333347
        },
        {
          "name": "F#1",
          "midi": 30,
          "time": 293.1358375000007,
          "velocity": 1,
          "duration": 0.12288145833332464
        },
        {
          "name": "F#1",
          "midi": 30,
          "time": 293.2629562500007,
          "velocity": 1,
          "duration": 0.12288145833332464
        },
        {
          "name": "F#1",
          "midi": 30,
          "time": 293.39007500000065,
          "velocity": 1,
          "duration": 0.250000208333347
        },
        {
          "name": "F#1",
          "midi": 30,
          "time": 293.64431250000064,
          "velocity": 1,
          "duration": 0.12288145833332464
        },
        {
          "name": "F#1",
          "midi": 30,
          "time": 293.7714312500006,
          "velocity": 1,
          "duration": 0.12288145833332464
        },
        {
          "name": "G#1",
          "midi": 32,
          "time": 293.89855000000057,
          "velocity": 1,
          "duration": 0.250000208333347
        },
        {
          "name": "G#1",
          "midi": 32,
          "time": 294.15278750000056,
          "velocity": 1,
          "duration": 0.12288145833332464
        },
        {
          "name": "G#1",
          "midi": 32,
          "time": 294.2799062500005,
          "velocity": 1,
          "duration": 0.12288145833332464
        },
        {
          "name": "G#1",
          "midi": 32,
          "time": 294.4070250000005,
          "velocity": 1,
          "duration": 0.250000208333347
        },
        {
          "name": "G#1",
          "midi": 32,
          "time": 294.6612625000005,
          "velocity": 1,
          "duration": 0.12288145833332464
        },
        {
          "name": "G#1",
          "midi": 32,
          "time": 294.78838125000044,
          "velocity": 1,
          "duration": 0.12288145833332464
        },
        {
          "name": "A1",
          "midi": 33,
          "time": 294.9155000000004,
          "velocity": 1,
          "duration": 0.250000208333347
        },
        {
          "name": "A1",
          "midi": 33,
          "time": 295.1697375000004,
          "velocity": 1,
          "duration": 0.12288145833332464
        },
        {
          "name": "A1",
          "midi": 33,
          "time": 295.29685625000036,
          "velocity": 1,
          "duration": 0.12288145833332464
        },
        {
          "name": "A1",
          "midi": 33,
          "time": 295.4239750000003,
          "velocity": 1,
          "duration": 0.250000208333347
        },
        {
          "name": "A1",
          "midi": 33,
          "time": 295.6782125000003,
          "velocity": 1,
          "duration": 0.12288145833332464
        },
        {
          "name": "A1",
          "midi": 33,
          "time": 295.8053312500003,
          "velocity": 1,
          "duration": 0.12288145833332464
        },
        {
          "name": "D2",
          "midi": 38,
          "time": 295.93245000000024,
          "velocity": 1,
          "duration": 0.250000208333347
        },
        {
          "name": "D2",
          "midi": 38,
          "time": 296.18668750000023,
          "velocity": 1,
          "duration": 0.12288145833332464
        },
        {
          "name": "D2",
          "midi": 38,
          "time": 296.3138062500002,
          "velocity": 1,
          "duration": 0.12288145833332464
        },
        {
          "name": "D2",
          "midi": 38,
          "time": 296.44092500000016,
          "velocity": 1,
          "duration": 0.250000208333347
        },
        {
          "name": "D2",
          "midi": 38,
          "time": 296.69516250000015,
          "velocity": 1,
          "duration": 0.12288145833332464
        },
        {
          "name": "D2",
          "midi": 38,
          "time": 296.8222812500001,
          "velocity": 1,
          "duration": 0.12288145833332464
        },
        {
          "name": "C#2",
          "midi": 37,
          "time": 296.9494000000001,
          "velocity": 1,
          "duration": 0.250000208333347
        },
        {
          "name": "C#2",
          "midi": 37,
          "time": 297.20363750000007,
          "velocity": 1,
          "duration": 0.12288145833332464
        },
        {
          "name": "C#2",
          "midi": 37,
          "time": 297.33075625000004,
          "velocity": 1,
          "duration": 0.12288145833332464
        },
        {
          "name": "C#2",
          "midi": 37,
          "time": 297.457875,
          "velocity": 1,
          "duration": 0.250000208333347
        },
        {
          "name": "C#2",
          "midi": 37,
          "time": 297.7121125,
          "velocity": 1,
          "duration": 0.12288145833332464
        },
        {
          "name": "C#2",
          "midi": 37,
          "time": 297.83923124999995,
          "velocity": 1,
          "duration": 0.12288145833332464
        },
        {
          "name": "C#2",
          "midi": 37,
          "time": 297.9663499999999,
          "velocity": 1,
          "duration": 0.250000208333347
        },
        {
          "name": "C#2",
          "midi": 37,
          "time": 298.2205874999999,
          "velocity": 1,
          "duration": 0.12288145833332464
        },
        {
          "name": "C#2",
          "midi": 37,
          "time": 298.3477062499999,
          "velocity": 1,
          "duration": 0.12288145833332464
        },
        {
          "name": "C#2",
          "midi": 37,
          "time": 298.47482499999984,
          "velocity": 1,
          "duration": 0.250000208333347
        },
        {
          "name": "C#2",
          "midi": 37,
          "time": 298.7290624999998,
          "velocity": 1,
          "duration": 0.12288145833332464
        },
        {
          "name": "C#2",
          "midi": 37,
          "time": 298.8561812499998,
          "velocity": 1,
          "duration": 0.12288145833332464
        },
        {
          "name": "C#2",
          "midi": 37,
          "time": 298.98329999999976,
          "velocity": 0.9763779527559056,
          "duration": 0.2627120833333265
        },
        {
          "name": "C#2",
          "midi": 37,
          "time": 299.3222833333331,
          "velocity": 0.905511811023622,
          "duration": 0.23728833333331067
        },
        {
          "name": "C#2",
          "midi": 37,
          "time": 299.67821583333307,
          "velocity": 0.8818897637795275,
          "duration": 0.21186458333335167
        },
        {
          "name": "C#2",
          "midi": 37,
          "time": 299.99601270833307,
          "velocity": 0.9212598425196851,
          "duration": 0.32203416666664
        },
        {
          "name": "C#2",
          "midi": 37,
          "time": 300.5002504166664,
          "velocity": 0.9448818897637795,
          "duration": 0.500000416666694
        },
        {
          "name": "F#1",
          "midi": 30,
          "time": 301.0171999999998,
          "velocity": 1,
          "duration": 0.250000208333347
        },
        {
          "name": "F#1",
          "midi": 30,
          "time": 301.27143749999976,
          "velocity": 1,
          "duration": 0.12288145833332464
        },
        {
          "name": "F#1",
          "midi": 30,
          "time": 301.39855624999973,
          "velocity": 1,
          "duration": 0.12288145833332464
        },
        {
          "name": "F#1",
          "midi": 30,
          "time": 301.5256749999997,
          "velocity": 1,
          "duration": 0.250000208333347
        },
        {
          "name": "F#1",
          "midi": 30,
          "time": 301.7799124999997,
          "velocity": 1,
          "duration": 0.250000208333347
        },
        {
          "name": "F#1",
          "midi": 30,
          "time": 302.03414999999967,
          "velocity": 1,
          "duration": 0.250000208333347
        },
        {
          "name": "F#1",
          "midi": 30,
          "time": 302.28838749999966,
          "velocity": 1,
          "duration": 0.12288145833332464
        },
        {
          "name": "F#1",
          "midi": 30,
          "time": 302.4155062499996,
          "velocity": 1,
          "duration": 0.12288145833332464
        },
        {
          "name": "F#1",
          "midi": 30,
          "time": 302.5426249999996,
          "velocity": 1,
          "duration": 0.250000208333347
        },
        {
          "name": "F#1",
          "midi": 30,
          "time": 302.7968624999996,
          "velocity": 1,
          "duration": 0.250000208333347
        },
        {
          "name": "D2",
          "midi": 38,
          "time": 303.05109999999956,
          "velocity": 1,
          "duration": 0.250000208333347
        },
        {
          "name": "D2",
          "midi": 38,
          "time": 303.30533749999955,
          "velocity": 1,
          "duration": 0.12288145833332464
        },
        {
          "name": "D2",
          "midi": 38,
          "time": 303.4324562499995,
          "velocity": 1,
          "duration": 0.12288145833332464
        },
        {
          "name": "D2",
          "midi": 38,
          "time": 303.5595749999995,
          "velocity": 1,
          "duration": 0.250000208333347
        },
        {
          "name": "D2",
          "midi": 38,
          "time": 303.8138124999995,
          "velocity": 1,
          "duration": 0.250000208333347
        },
        {
          "name": "D2",
          "midi": 38,
          "time": 304.06804999999946,
          "velocity": 1,
          "duration": 0.250000208333347
        },
        {
          "name": "D2",
          "midi": 38,
          "time": 304.32228749999945,
          "velocity": 1,
          "duration": 0.12288145833332464
        },
        {
          "name": "D2",
          "midi": 38,
          "time": 304.4494062499994,
          "velocity": 1,
          "duration": 0.12288145833332464
        },
        {
          "name": "D2",
          "midi": 38,
          "time": 304.5765249999994,
          "velocity": 1,
          "duration": 0.250000208333347
        },
        {
          "name": "D2",
          "midi": 38,
          "time": 304.83076249999937,
          "velocity": 1,
          "duration": 0.250000208333347
        },
        {
          "name": "B1",
          "midi": 35,
          "time": 305.08499999999935,
          "velocity": 1,
          "duration": 0.250000208333347
        },
        {
          "name": "B1",
          "midi": 35,
          "time": 305.33923749999934,
          "velocity": 1,
          "duration": 0.12288145833332464
        },
        {
          "name": "B1",
          "midi": 35,
          "time": 305.4663562499993,
          "velocity": 1,
          "duration": 0.12288145833332464
        },
        {
          "name": "B1",
          "midi": 35,
          "time": 305.5934749999993,
          "velocity": 1,
          "duration": 0.250000208333347
        },
        {
          "name": "B1",
          "midi": 35,
          "time": 305.84771249999926,
          "velocity": 1,
          "duration": 0.250000208333347
        },
        {
          "name": "B1",
          "midi": 35,
          "time": 306.10194999999925,
          "velocity": 1,
          "duration": 0.250000208333347
        },
        {
          "name": "B1",
          "midi": 35,
          "time": 306.35618749999924,
          "velocity": 1,
          "duration": 0.12288145833332464
        },
        {
          "name": "B1",
          "midi": 35,
          "time": 306.4833062499992,
          "velocity": 1,
          "duration": 0.12288145833332464
        },
        {
          "name": "B1",
          "midi": 35,
          "time": 306.61042499999917,
          "velocity": 1,
          "duration": 0.250000208333347
        },
        {
          "name": "B1",
          "midi": 35,
          "time": 306.86466249999916,
          "velocity": 1,
          "duration": 0.250000208333347
        },
        {
          "name": "E1",
          "midi": 28,
          "time": 307.11889999999914,
          "velocity": 1,
          "duration": 0.250000208333347
        },
        {
          "name": "E1",
          "midi": 28,
          "time": 307.37313749999913,
          "velocity": 1,
          "duration": 0.12288145833332464
        },
        {
          "name": "E1",
          "midi": 28,
          "time": 307.5002562499991,
          "velocity": 1,
          "duration": 0.12288145833332464
        },
        {
          "name": "E1",
          "midi": 28,
          "time": 307.62737499999906,
          "velocity": 1,
          "duration": 0.250000208333347
        },
        {
          "name": "E1",
          "midi": 28,
          "time": 307.88161249999905,
          "velocity": 1,
          "duration": 0.250000208333347
        },
        {
          "name": "E1",
          "midi": 28,
          "time": 308.13584999999904,
          "velocity": 1,
          "duration": 0.250000208333347
        },
        {
          "name": "E1",
          "midi": 28,
          "time": 308.390087499999,
          "velocity": 1,
          "duration": 0.12288145833332464
        },
        {
          "name": "E1",
          "midi": 28,
          "time": 308.517206249999,
          "velocity": 1,
          "duration": 0.12288145833332464
        },
        {
          "name": "E1",
          "midi": 28,
          "time": 308.64432499999896,
          "velocity": 1,
          "duration": 0.250000208333347
        },
        {
          "name": "E1",
          "midi": 28,
          "time": 308.89856249999895,
          "velocity": 1,
          "duration": 0.250000208333347
        },
        {
          "name": "F#1",
          "midi": 30,
          "time": 309.15279999999893,
          "velocity": 1,
          "duration": 0.250000208333347
        },
        {
          "name": "F#1",
          "midi": 30,
          "time": 309.4070374999989,
          "velocity": 1,
          "duration": 0.12288145833332464
        },
        {
          "name": "F#1",
          "midi": 30,
          "time": 309.5341562499989,
          "velocity": 1,
          "duration": 0.12288145833332464
        },
        {
          "name": "F#1",
          "midi": 30,
          "time": 309.66127499999885,
          "velocity": 1,
          "duration": 0.250000208333347
        },
        {
          "name": "F#1",
          "midi": 30,
          "time": 309.91551249999884,
          "velocity": 1,
          "duration": 0.250000208333347
        },
        {
          "name": "F#1",
          "midi": 30,
          "time": 310.1697499999988,
          "velocity": 1,
          "duration": 0.250000208333347
        },
        {
          "name": "F#1",
          "midi": 30,
          "time": 310.4239874999988,
          "velocity": 1,
          "duration": 0.12288145833332464
        },
        {
          "name": "F#1",
          "midi": 30,
          "time": 310.5511062499988,
          "velocity": 1,
          "duration": 0.12288145833332464
        },
        {
          "name": "F#1",
          "midi": 30,
          "time": 310.67822499999875,
          "velocity": 1,
          "duration": 0.250000208333347
        },
        {
          "name": "F#1",
          "midi": 30,
          "time": 310.93246249999873,
          "velocity": 1,
          "duration": 0.250000208333347
        },
        {
          "name": "D2",
          "midi": 38,
          "time": 311.1866999999987,
          "velocity": 1,
          "duration": 0.250000208333347
        },
        {
          "name": "D2",
          "midi": 38,
          "time": 311.4409374999987,
          "velocity": 1,
          "duration": 0.12288145833332464
        },
        {
          "name": "D2",
          "midi": 38,
          "time": 311.5680562499987,
          "velocity": 1,
          "duration": 0.12288145833332464
        },
        {
          "name": "D2",
          "midi": 38,
          "time": 311.69517499999864,
          "velocity": 1,
          "duration": 0.250000208333347
        },
        {
          "name": "D2",
          "midi": 38,
          "time": 311.94941249999863,
          "velocity": 1,
          "duration": 0.250000208333347
        },
        {
          "name": "D2",
          "midi": 38,
          "time": 312.2036499999986,
          "velocity": 1,
          "duration": 0.250000208333347
        },
        {
          "name": "D2",
          "midi": 38,
          "time": 312.4578874999986,
          "velocity": 1,
          "duration": 0.12288145833332464
        },
        {
          "name": "D2",
          "midi": 38,
          "time": 312.58500624999857,
          "velocity": 1,
          "duration": 0.12288145833332464
        },
        {
          "name": "D2",
          "midi": 38,
          "time": 312.71212499999854,
          "velocity": 1,
          "duration": 0.250000208333347
        },
        {
          "name": "D2",
          "midi": 38,
          "time": 312.9663624999985,
          "velocity": 1,
          "duration": 0.250000208333347
        },
        {
          "name": "B1",
          "midi": 35,
          "time": 313.2205999999985,
          "velocity": 1,
          "duration": 0.250000208333347
        },
        {
          "name": "B1",
          "midi": 35,
          "time": 313.4748374999985,
          "velocity": 1,
          "duration": 0.12288145833332464
        },
        {
          "name": "B1",
          "midi": 35,
          "time": 313.60195624999847,
          "velocity": 1,
          "duration": 0.12288145833332464
        },
        {
          "name": "B1",
          "midi": 35,
          "time": 313.72907499999843,
          "velocity": 1,
          "duration": 0.250000208333347
        },
        {
          "name": "B1",
          "midi": 35,
          "time": 313.9833124999984,
          "velocity": 1,
          "duration": 0.250000208333347
        },
        {
          "name": "B1",
          "midi": 35,
          "time": 314.2375499999984,
          "velocity": 1,
          "duration": 0.250000208333347
        },
        {
          "name": "B1",
          "midi": 35,
          "time": 314.4917874999984,
          "velocity": 1,
          "duration": 0.12288145833332464
        },
        {
          "name": "B1",
          "midi": 35,
          "time": 314.61890624999836,
          "velocity": 1,
          "duration": 0.12288145833332464
        },
        {
          "name": "B1",
          "midi": 35,
          "time": 314.7460249999983,
          "velocity": 1,
          "duration": 0.250000208333347
        },
        {
          "name": "B1",
          "midi": 35,
          "time": 315.0002624999983,
          "velocity": 1,
          "duration": 0.250000208333347
        },
        {
          "name": "E1",
          "midi": 28,
          "time": 315.2544999999983,
          "velocity": 1,
          "duration": 0.250000208333347
        },
        {
          "name": "E1",
          "midi": 28,
          "time": 315.5087374999983,
          "velocity": 1,
          "duration": 0.12288145833332464
        },
        {
          "name": "E1",
          "midi": 28,
          "time": 315.63585624999826,
          "velocity": 1,
          "duration": 0.12288145833332464
        },
        {
          "name": "E1",
          "midi": 28,
          "time": 315.7629749999982,
          "velocity": 1,
          "duration": 0.250000208333347
        },
        {
          "name": "E1",
          "midi": 28,
          "time": 316.0172124999982,
          "velocity": 1,
          "duration": 0.250000208333347
        },
        {
          "name": "E1",
          "midi": 28,
          "time": 316.2714499999982,
          "velocity": 1,
          "duration": 0.250000208333347
        },
        {
          "name": "E1",
          "midi": 28,
          "time": 316.5256874999982,
          "velocity": 1,
          "duration": 0.12288145833332464
        },
        {
          "name": "E1",
          "midi": 28,
          "time": 316.65280624999815,
          "velocity": 1,
          "duration": 0.12288145833332464
        },
        {
          "name": "E1",
          "midi": 28,
          "time": 316.7799249999981,
          "velocity": 1,
          "duration": 0.250000208333347
        },
        {
          "name": "E1",
          "midi": 28,
          "time": 317.0341624999981,
          "velocity": 1,
          "duration": 0.250000208333347
        },
        {
          "name": "F#1",
          "midi": 30,
          "time": 317.2883999999981,
          "velocity": 1,
          "duration": 0.250000208333347
        },
        {
          "name": "F#1",
          "midi": 30,
          "time": 317.5426374999981,
          "velocity": 1,
          "duration": 0.12288145833332464
        },
        {
          "name": "F#1",
          "midi": 30,
          "time": 317.66975624999804,
          "velocity": 1,
          "duration": 0.12288145833332464
        },
        {
          "name": "F#1",
          "midi": 30,
          "time": 317.796874999998,
          "velocity": 1,
          "duration": 0.250000208333347
        },
        {
          "name": "F#1",
          "midi": 30,
          "time": 318.051112499998,
          "velocity": 1,
          "duration": 0.12288145833332464
        },
        {
          "name": "F#1",
          "midi": 30,
          "time": 318.17823124999796,
          "velocity": 1,
          "duration": 0.12288145833332464
        },
        {
          "name": "G#1",
          "midi": 32,
          "time": 318.30534999999793,
          "velocity": 1,
          "duration": 0.250000208333347
        },
        {
          "name": "G#1",
          "midi": 32,
          "time": 318.5595874999979,
          "velocity": 1,
          "duration": 0.12288145833332464
        },
        {
          "name": "G#1",
          "midi": 32,
          "time": 318.6867062499979,
          "velocity": 1,
          "duration": 0.12288145833332464
        },
        {
          "name": "G#1",
          "midi": 32,
          "time": 318.81382499999785,
          "velocity": 1,
          "duration": 0.250000208333347
        },
        {
          "name": "G#1",
          "midi": 32,
          "time": 319.06806249999784,
          "velocity": 1,
          "duration": 0.12288145833332464
        },
        {
          "name": "G#1",
          "midi": 32,
          "time": 319.1951812499978,
          "velocity": 1,
          "duration": 0.12288145833332464
        },
        {
          "name": "A1",
          "midi": 33,
          "time": 319.32229999999777,
          "velocity": 1,
          "duration": 0.250000208333347
        },
        {
          "name": "A1",
          "midi": 33,
          "time": 319.57653749999776,
          "velocity": 1,
          "duration": 0.12288145833332464
        },
        {
          "name": "A1",
          "midi": 33,
          "time": 319.7036562499977,
          "velocity": 1,
          "duration": 0.12288145833332464
        },
        {
          "name": "A1",
          "midi": 33,
          "time": 319.8307749999977,
          "velocity": 1,
          "duration": 0.250000208333347
        },
        {
          "name": "A1",
          "midi": 33,
          "time": 320.0850124999977,
          "velocity": 1,
          "duration": 0.12288145833332464
        },
        {
          "name": "A1",
          "midi": 33,
          "time": 320.21213124999764,
          "velocity": 1,
          "duration": 0.12288145833332464
        },
        {
          "name": "D2",
          "midi": 38,
          "time": 320.3392499999976,
          "velocity": 1,
          "duration": 0.250000208333347
        },
        {
          "name": "D2",
          "midi": 38,
          "time": 320.5934874999976,
          "velocity": 1,
          "duration": 0.12288145833332464
        },
        {
          "name": "D2",
          "midi": 38,
          "time": 320.72060624999756,
          "velocity": 1,
          "duration": 0.12288145833332464
        },
        {
          "name": "D2",
          "midi": 38,
          "time": 320.8477249999975,
          "velocity": 1,
          "duration": 0.250000208333347
        },
        {
          "name": "D2",
          "midi": 38,
          "time": 321.1019624999975,
          "velocity": 1,
          "duration": 0.12288145833332464
        },
        {
          "name": "D2",
          "midi": 38,
          "time": 321.2290812499975,
          "velocity": 1,
          "duration": 0.12288145833332464
        },
        {
          "name": "C#2",
          "midi": 37,
          "time": 321.35619999999744,
          "velocity": 1,
          "duration": 0.250000208333347
        },
        {
          "name": "C#2",
          "midi": 37,
          "time": 321.61043749999743,
          "velocity": 1,
          "duration": 0.12288145833332464
        },
        {
          "name": "C#2",
          "midi": 37,
          "time": 321.7375562499974,
          "velocity": 1,
          "duration": 0.12288145833332464
        },
        {
          "name": "C#2",
          "midi": 37,
          "time": 321.86467499999736,
          "velocity": 1,
          "duration": 0.250000208333347
        },
        {
          "name": "C#2",
          "midi": 37,
          "time": 322.11891249999735,
          "velocity": 1,
          "duration": 0.12288145833332464
        },
        {
          "name": "C#2",
          "midi": 37,
          "time": 322.2460312499973,
          "velocity": 1,
          "duration": 0.12288145833332464
        },
        {
          "name": "C#2",
          "midi": 37,
          "time": 322.3731499999973,
          "velocity": 1,
          "duration": 0.250000208333347
        },
        {
          "name": "C#2",
          "midi": 37,
          "time": 322.62738749999727,
          "velocity": 1,
          "duration": 0.12288145833332464
        },
        {
          "name": "C#2",
          "midi": 37,
          "time": 322.75450624999723,
          "velocity": 1,
          "duration": 0.12288145833332464
        },
        {
          "name": "C#2",
          "midi": 37,
          "time": 322.8816249999972,
          "velocity": 1,
          "duration": 0.250000208333347
        },
        {
          "name": "C#2",
          "midi": 37,
          "time": 323.1358624999972,
          "velocity": 1,
          "duration": 0.12288145833332464
        },
        {
          "name": "C#2",
          "midi": 37,
          "time": 323.26298124999715,
          "velocity": 1,
          "duration": 0.12288145833332464
        },
        {
          "name": "C#2",
          "midi": 37,
          "time": 323.3900999999971,
          "velocity": 0.9763779527559056,
          "duration": 0.2627120833333265
        },
        {
          "name": "C#2",
          "midi": 37,
          "time": 323.72908333333044,
          "velocity": 0.905511811023622,
          "duration": 0.23728833333331067
        },
        {
          "name": "C#2",
          "midi": 37,
          "time": 324.08501583333043,
          "velocity": 0.8818897637795275,
          "duration": 0.21186458333335167
        },
        {
          "name": "C#2",
          "midi": 37,
          "time": 324.40281270833043,
          "velocity": 0.9212598425196851,
          "duration": 0.32203416666664
        },
        {
          "name": "C#2",
          "midi": 37,
          "time": 324.90705041666376,
          "velocity": 0.9448818897637795,
          "duration": 0.500000416666694
        }
      ],
      "controlChanges": {
        "7": [
          {
            "number": 7,
            "time": 0.648305625,
            "value": 1
          },
          {
            "number": 7,
            "time": 1.6610183333333333,
            "value": 1
          }
        ],
        "91": [
          {
            "number": 91,
            "time": 0.73728875,
            "value": 1
          }
        ],
        "93": [
          {
            "number": 93,
            "time": 0.7457633333333333,
            "value": 1
          }
        ]
      },
      "id": 7,
      "name": "slapbass",
      "instrumentNumber": 34,
      "instrument": "electric bass (pick)",
      "instrumentFamily": "bass",
      "channelNumber": 6,
      "isPercussion": false
    },
    {
      "startTime": 195.2628745833333,
      "duration": 227.78408812500146,
      "length": 353,
      "notes": [
        {
          "name": "F#4",
          "midi": 66,
          "time": 195.2628745833333,
          "velocity": 1,
          "duration": 0.12288145833335307
        },
        {
          "name": "B4",
          "midi": 71,
          "time": 195.2628745833333,
          "velocity": 1,
          "duration": 0.05932208333334188
        },
        {
          "name": "D5",
          "midi": 74,
          "time": 195.317959375,
          "velocity": 1,
          "duration": 0.05932208333334188
        },
        {
          "name": "B4",
          "midi": 71,
          "time": 195.38151875,
          "velocity": 1,
          "duration": 0.05932208333334188
        },
        {
          "name": "B4",
          "midi": 71,
          "time": 195.38151875,
          "velocity": 1,
          "duration": 0.12288145833335307
        },
        {
          "name": "D5",
          "midi": 74,
          "time": 195.445078125,
          "velocity": 1,
          "duration": 0.05932208333334188
        },
        {
          "name": "F#5",
          "midi": 78,
          "time": 195.50863750000002,
          "velocity": 1,
          "duration": 0.12288145833332464
        },
        {
          "name": "D5",
          "midi": 74,
          "time": 195.50863750000002,
          "velocity": 1,
          "duration": 0.12288145833332464
        },
        {
          "name": "B4",
          "midi": 71,
          "time": 195.63575625000001,
          "velocity": 1,
          "duration": 0.05932208333334188
        },
        {
          "name": "F#4",
          "midi": 66,
          "time": 195.63575625000001,
          "velocity": 1,
          "duration": 0.12288145833335307
        },
        {
          "name": "D5",
          "midi": 74,
          "time": 195.69931562500003,
          "velocity": 1,
          "duration": 0.05932208333334188
        },
        {
          "name": "B4",
          "midi": 71,
          "time": 195.76287500000004,
          "velocity": 1,
          "duration": 0.05932208333334188
        },
        {
          "name": "B4",
          "midi": 71,
          "time": 195.76287500000004,
          "velocity": 1,
          "duration": 0.12288145833335307
        },
        {
          "name": "D5",
          "midi": 74,
          "time": 195.82643437500005,
          "velocity": 1,
          "duration": 0.05932208333334188
        },
        {
          "name": "F#5",
          "midi": 78,
          "time": 195.88999375000006,
          "velocity": 1,
          "duration": 0.12288145833332464
        },
        {
          "name": "D5",
          "midi": 74,
          "time": 195.88999375000006,
          "velocity": 1,
          "duration": 0.12288145833332464
        },
        {
          "name": "B4",
          "midi": 71,
          "time": 196.01711250000005,
          "velocity": 1,
          "duration": 0.05932208333334188
        },
        {
          "name": "F#4",
          "midi": 66,
          "time": 196.01711250000005,
          "velocity": 1,
          "duration": 0.12288145833335307
        },
        {
          "name": "D5",
          "midi": 74,
          "time": 196.08067187500006,
          "velocity": 1,
          "duration": 0.05932208333334188
        },
        {
          "name": "B4",
          "midi": 71,
          "time": 196.14423125000008,
          "velocity": 1,
          "duration": 0.05932208333334188
        },
        {
          "name": "B4",
          "midi": 71,
          "time": 196.14423125000008,
          "velocity": 1,
          "duration": 0.12288145833335307
        },
        {
          "name": "D5",
          "midi": 74,
          "time": 196.2077906250001,
          "velocity": 1,
          "duration": 0.05932208333334188
        },
        {
          "name": "F#5",
          "midi": 78,
          "time": 196.2713500000001,
          "velocity": 1,
          "duration": 0.12288145833332464
        },
        {
          "name": "D5",
          "midi": 74,
          "time": 196.2713500000001,
          "velocity": 1,
          "duration": 0.12288145833332464
        },
        {
          "name": "B4",
          "midi": 71,
          "time": 196.3984687500001,
          "velocity": 1,
          "duration": 0.05932208333334188
        },
        {
          "name": "F#4",
          "midi": 66,
          "time": 196.3984687500001,
          "velocity": 1,
          "duration": 0.12288145833335307
        },
        {
          "name": "D5",
          "midi": 74,
          "time": 196.4620281250001,
          "velocity": 1,
          "duration": 0.05932208333334188
        },
        {
          "name": "B4",
          "midi": 71,
          "time": 196.5255875000001,
          "velocity": 1,
          "duration": 0.05932208333334188
        },
        {
          "name": "B4",
          "midi": 71,
          "time": 196.5255875000001,
          "velocity": 1,
          "duration": 0.12288145833335307
        },
        {
          "name": "D5",
          "midi": 74,
          "time": 196.58914687500013,
          "velocity": 1,
          "duration": 0.05932208333334188
        },
        {
          "name": "F#5",
          "midi": 78,
          "time": 196.65270625000014,
          "velocity": 1,
          "duration": 0.12288145833332464
        },
        {
          "name": "D5",
          "midi": 74,
          "time": 196.65270625000014,
          "velocity": 1,
          "duration": 0.12288145833332464
        },
        {
          "name": "B4",
          "midi": 71,
          "time": 196.77982500000013,
          "velocity": 1,
          "duration": 0.05932208333334188
        },
        {
          "name": "F#4",
          "midi": 66,
          "time": 196.77982500000013,
          "velocity": 1,
          "duration": 0.12288145833335307
        },
        {
          "name": "D5",
          "midi": 74,
          "time": 196.84338437500014,
          "velocity": 1,
          "duration": 0.05932208333334188
        },
        {
          "name": "B4",
          "midi": 71,
          "time": 196.90694375000015,
          "velocity": 1,
          "duration": 0.05932208333334188
        },
        {
          "name": "B4",
          "midi": 71,
          "time": 196.90694375000015,
          "velocity": 1,
          "duration": 0.12288145833335307
        },
        {
          "name": "D5",
          "midi": 74,
          "time": 196.97050312500016,
          "velocity": 1,
          "duration": 0.05932208333334188
        },
        {
          "name": "F#5",
          "midi": 78,
          "time": 197.03406250000018,
          "velocity": 1,
          "duration": 0.250000208333347
        },
        {
          "name": "D5",
          "midi": 74,
          "time": 197.03406250000018,
          "velocity": 1,
          "duration": 0.250000208333347
        },
        {
          "name": "C#5",
          "midi": 73,
          "time": 197.2883000000002,
          "velocity": 1,
          "duration": 0.05932208333334188
        },
        {
          "name": "A4",
          "midi": 69,
          "time": 197.2883000000002,
          "velocity": 1,
          "duration": 0.12288145833335307
        },
        {
          "name": "E5",
          "midi": 76,
          "time": 197.3518593750002,
          "velocity": 1,
          "duration": 0.05932208333334188
        },
        {
          "name": "C#5",
          "midi": 73,
          "time": 197.4154187500002,
          "velocity": 1,
          "duration": 0.05932208333334188
        },
        {
          "name": "C#5",
          "midi": 73,
          "time": 197.4154187500002,
          "velocity": 1,
          "duration": 0.12288145833335307
        },
        {
          "name": "E5",
          "midi": 76,
          "time": 197.47897812500022,
          "velocity": 1,
          "duration": 0.05932208333334188
        },
        {
          "name": "G5",
          "midi": 79,
          "time": 197.54253750000024,
          "velocity": 1,
          "duration": 0.12288145833332464
        },
        {
          "name": "E5",
          "midi": 76,
          "time": 197.54253750000024,
          "velocity": 1,
          "duration": 0.12288145833332464
        },
        {
          "name": "C#5",
          "midi": 73,
          "time": 197.66965625000023,
          "velocity": 1,
          "duration": 0.05932208333334188
        },
        {
          "name": "A4",
          "midi": 69,
          "time": 197.66965625000023,
          "velocity": 1,
          "duration": 0.12288145833335307
        },
        {
          "name": "E5",
          "midi": 76,
          "time": 197.73321562500024,
          "velocity": 1,
          "duration": 0.05932208333334188
        },
        {
          "name": "C#5",
          "midi": 73,
          "time": 197.79677500000025,
          "velocity": 1,
          "duration": 0.05932208333334188
        },
        {
          "name": "C#5",
          "midi": 73,
          "time": 197.79677500000025,
          "velocity": 1,
          "duration": 0.12288145833335307
        },
        {
          "name": "E5",
          "midi": 76,
          "time": 197.86033437500026,
          "velocity": 1,
          "duration": 0.05932208333334188
        },
        {
          "name": "G5",
          "midi": 79,
          "time": 197.92389375000027,
          "velocity": 1,
          "duration": 0.12288145833332464
        },
        {
          "name": "E5",
          "midi": 76,
          "time": 197.92389375000027,
          "velocity": 1,
          "duration": 0.12288145833332464
        },
        {
          "name": "C#5",
          "midi": 73,
          "time": 198.05101250000027,
          "velocity": 1,
          "duration": 0.05932208333334188
        },
        {
          "name": "A4",
          "midi": 69,
          "time": 198.05101250000027,
          "velocity": 1,
          "duration": 0.12288145833335307
        },
        {
          "name": "E5",
          "midi": 76,
          "time": 198.11457187500028,
          "velocity": 1,
          "duration": 0.05932208333334188
        },
        {
          "name": "C#5",
          "midi": 73,
          "time": 198.1781312500003,
          "velocity": 1,
          "duration": 0.05932208333334188
        },
        {
          "name": "C#5",
          "midi": 73,
          "time": 198.1781312500003,
          "velocity": 1,
          "duration": 0.12288145833335307
        },
        {
          "name": "E5",
          "midi": 76,
          "time": 198.2416906250003,
          "velocity": 1,
          "duration": 0.05932208333334188
        },
        {
          "name": "G5",
          "midi": 79,
          "time": 198.3052500000003,
          "velocity": 1,
          "duration": 0.12288145833332464
        },
        {
          "name": "E5",
          "midi": 76,
          "time": 198.3052500000003,
          "velocity": 1,
          "duration": 0.12288145833332464
        },
        {
          "name": "C#5",
          "midi": 73,
          "time": 198.4323687500003,
          "velocity": 1,
          "duration": 0.05932208333334188
        },
        {
          "name": "A4",
          "midi": 69,
          "time": 198.4323687500003,
          "velocity": 1,
          "duration": 0.12288145833335307
        },
        {
          "name": "E5",
          "midi": 76,
          "time": 198.49592812500032,
          "velocity": 1,
          "duration": 0.05932208333334188
        },
        {
          "name": "C#5",
          "midi": 73,
          "time": 198.55948750000033,
          "velocity": 1,
          "duration": 0.05932208333334188
        },
        {
          "name": "C#5",
          "midi": 73,
          "time": 198.55948750000033,
          "velocity": 1,
          "duration": 0.12288145833335307
        },
        {
          "name": "E5",
          "midi": 76,
          "time": 198.62304687500034,
          "velocity": 1,
          "duration": 0.05932208333334188
        },
        {
          "name": "G5",
          "midi": 79,
          "time": 198.68660625000035,
          "velocity": 1,
          "duration": 0.12288145833332464
        },
        {
          "name": "E5",
          "midi": 76,
          "time": 198.68660625000035,
          "velocity": 1,
          "duration": 0.12288145833332464
        },
        {
          "name": "C#5",
          "midi": 73,
          "time": 198.81372500000035,
          "velocity": 1,
          "duration": 0.05932208333334188
        },
        {
          "name": "A4",
          "midi": 69,
          "time": 198.81372500000035,
          "velocity": 1,
          "duration": 0.12288145833335307
        },
        {
          "name": "E5",
          "midi": 76,
          "time": 198.87728437500036,
          "velocity": 1,
          "duration": 0.05932208333334188
        },
        {
          "name": "C#5",
          "midi": 73,
          "time": 198.94084375000037,
          "velocity": 1,
          "duration": 0.05932208333334188
        },
        {
          "name": "C#5",
          "midi": 73,
          "time": 198.94084375000037,
          "velocity": 1,
          "duration": 0.12288145833335307
        },
        {
          "name": "E5",
          "midi": 76,
          "time": 199.00440312500038,
          "velocity": 1,
          "duration": 0.05932208333334188
        },
        {
          "name": "G5",
          "midi": 79,
          "time": 199.0679625000004,
          "velocity": 1,
          "duration": 0.2500002083333186
        },
        {
          "name": "E5",
          "midi": 76,
          "time": 199.0679625000004,
          "velocity": 1,
          "duration": 0.12288145833332464
        },
        {
          "name": "D5",
          "midi": 74,
          "time": 199.32220000000038,
          "velocity": 1,
          "duration": 0.05932208333334188
        },
        {
          "name": "A4",
          "midi": 69,
          "time": 199.32220000000038,
          "velocity": 1,
          "duration": 0.12288145833335307
        },
        {
          "name": "F#5",
          "midi": 78,
          "time": 199.3857593750004,
          "velocity": 1,
          "duration": 0.05932208333334188
        },
        {
          "name": "D5",
          "midi": 74,
          "time": 199.4493187500004,
          "velocity": 1,
          "duration": 0.05932208333334188
        },
        {
          "name": "D5",
          "midi": 74,
          "time": 199.4493187500004,
          "velocity": 1,
          "duration": 0.12288145833335307
        },
        {
          "name": "F#5",
          "midi": 78,
          "time": 199.5128781250004,
          "velocity": 1,
          "duration": 0.05932208333334188
        },
        {
          "name": "A5",
          "midi": 81,
          "time": 199.57643750000042,
          "velocity": 1,
          "duration": 0.12288145833332464
        },
        {
          "name": "F#5",
          "midi": 78,
          "time": 199.57643750000042,
          "velocity": 1,
          "duration": 0.12288145833332464
        },
        {
          "name": "D5",
          "midi": 74,
          "time": 199.70355625000042,
          "velocity": 1,
          "duration": 0.05932208333334188
        },
        {
          "name": "A4",
          "midi": 69,
          "time": 199.70355625000042,
          "velocity": 1,
          "duration": 0.12288145833335307
        },
        {
          "name": "F#5",
          "midi": 78,
          "time": 199.76711562500043,
          "velocity": 1,
          "duration": 0.05932208333334188
        },
        {
          "name": "D5",
          "midi": 74,
          "time": 199.83067500000044,
          "velocity": 1,
          "duration": 0.05932208333334188
        },
        {
          "name": "D5",
          "midi": 74,
          "time": 199.83067500000044,
          "velocity": 1,
          "duration": 0.12288145833335307
        },
        {
          "name": "F#5",
          "midi": 78,
          "time": 199.89423437500045,
          "velocity": 1,
          "duration": 0.05932208333334188
        },
        {
          "name": "A5",
          "midi": 81,
          "time": 199.95779375000046,
          "velocity": 1,
          "duration": 0.12288145833332464
        },
        {
          "name": "F#5",
          "midi": 78,
          "time": 199.95779375000046,
          "velocity": 1,
          "duration": 0.12288145833332464
        },
        {
          "name": "D5",
          "midi": 74,
          "time": 200.08491250000046,
          "velocity": 1,
          "duration": 0.05932208333334188
        },
        {
          "name": "A4",
          "midi": 69,
          "time": 200.08491250000046,
          "velocity": 1,
          "duration": 0.12288145833335307
        },
        {
          "name": "F#5",
          "midi": 78,
          "time": 200.14847187500047,
          "velocity": 1,
          "duration": 0.05932208333334188
        },
        {
          "name": "D5",
          "midi": 74,
          "time": 200.21203125000048,
          "velocity": 1,
          "duration": 0.05932208333334188
        },
        {
          "name": "D5",
          "midi": 74,
          "time": 200.21203125000048,
          "velocity": 1,
          "duration": 0.12288145833335307
        },
        {
          "name": "F#5",
          "midi": 78,
          "time": 200.2755906250005,
          "velocity": 1,
          "duration": 0.05932208333334188
        },
        {
          "name": "A5",
          "midi": 81,
          "time": 200.3391500000005,
          "velocity": 1,
          "duration": 0.12288145833332464
        },
        {
          "name": "F#5",
          "midi": 78,
          "time": 200.3391500000005,
          "velocity": 1,
          "duration": 0.12288145833332464
        },
        {
          "name": "D5",
          "midi": 74,
          "time": 200.4662687500005,
          "velocity": 1,
          "duration": 0.05932208333334188
        },
        {
          "name": "A4",
          "midi": 69,
          "time": 200.4662687500005,
          "velocity": 1,
          "duration": 0.12288145833335307
        },
        {
          "name": "F#5",
          "midi": 78,
          "time": 200.5298281250005,
          "velocity": 1,
          "duration": 0.05932208333334188
        },
        {
          "name": "D5",
          "midi": 74,
          "time": 200.59338750000052,
          "velocity": 1,
          "duration": 0.05932208333334188
        },
        {
          "name": "D5",
          "midi": 74,
          "time": 200.59338750000052,
          "velocity": 1,
          "duration": 0.12288145833335307
        },
        {
          "name": "F#5",
          "midi": 78,
          "time": 200.65694687500053,
          "velocity": 1,
          "duration": 0.05932208333334188
        },
        {
          "name": "A5",
          "midi": 81,
          "time": 200.72050625000054,
          "velocity": 1,
          "duration": 0.12288145833332464
        },
        {
          "name": "F#5",
          "midi": 78,
          "time": 200.72050625000054,
          "velocity": 1,
          "duration": 0.12288145833332464
        },
        {
          "name": "D5",
          "midi": 74,
          "time": 200.84762500000053,
          "velocity": 1,
          "duration": 0.05932208333334188
        },
        {
          "name": "A4",
          "midi": 69,
          "time": 200.84762500000053,
          "velocity": 1,
          "duration": 0.12288145833335307
        },
        {
          "name": "F#5",
          "midi": 78,
          "time": 200.91118437500054,
          "velocity": 1,
          "duration": 0.05932208333334188
        },
        {
          "name": "D5",
          "midi": 74,
          "time": 200.97474375000056,
          "velocity": 1,
          "duration": 0.05932208333334188
        },
        {
          "name": "D5",
          "midi": 74,
          "time": 200.97474375000056,
          "velocity": 1,
          "duration": 0.12288145833335307
        },
        {
          "name": "F#5",
          "midi": 78,
          "time": 201.03830312500057,
          "velocity": 1,
          "duration": 0.05932208333334188
        },
        {
          "name": "A5",
          "midi": 81,
          "time": 201.10186250000058,
          "velocity": 1,
          "duration": 0.250000208333347
        },
        {
          "name": "F#5",
          "midi": 78,
          "time": 201.10186250000058,
          "velocity": 1,
          "duration": 0.250000208333347
        },
        {
          "name": "G4",
          "midi": 67,
          "time": 201.3561000000006,
          "velocity": 1,
          "duration": 0.12288145833332464
        },
        {
          "name": "D4",
          "midi": 62,
          "time": 201.3561000000006,
          "velocity": 1,
          "duration": 0.12288145833332464
        },
        {
          "name": "D4",
          "midi": 62,
          "time": 201.4832187500006,
          "velocity": 1,
          "duration": 0.12288145833332464
        },
        {
          "name": "A4",
          "midi": 69,
          "time": 201.4832187500006,
          "velocity": 1,
          "duration": 0.12288145833332464
        },
        {
          "name": "D4",
          "midi": 62,
          "time": 201.61033750000058,
          "velocity": 1,
          "duration": 0.12288145833332464
        },
        {
          "name": "B4",
          "midi": 71,
          "time": 201.61033750000058,
          "velocity": 1,
          "duration": 0.12288145833332464
        },
        {
          "name": "G4",
          "midi": 67,
          "time": 201.73745625000058,
          "velocity": 1,
          "duration": 0.12288145833332464
        },
        {
          "name": "D4",
          "midi": 62,
          "time": 201.73745625000058,
          "velocity": 1,
          "duration": 0.12288145833332464
        },
        {
          "name": "D4",
          "midi": 62,
          "time": 201.86457500000057,
          "velocity": 1,
          "duration": 0.12288145833332464
        },
        {
          "name": "A4",
          "midi": 69,
          "time": 201.86457500000057,
          "velocity": 1,
          "duration": 0.12288145833332464
        },
        {
          "name": "D4",
          "midi": 62,
          "time": 201.99169375000056,
          "velocity": 1,
          "duration": 0.12288145833332464
        },
        {
          "name": "B4",
          "midi": 71,
          "time": 201.99169375000056,
          "velocity": 1,
          "duration": 0.12288145833332464
        },
        {
          "name": "G4",
          "midi": 67,
          "time": 202.11881250000056,
          "velocity": 1,
          "duration": 0.12288145833332464
        },
        {
          "name": "D4",
          "midi": 62,
          "time": 202.11881250000056,
          "velocity": 1,
          "duration": 0.12288145833332464
        },
        {
          "name": "A4",
          "midi": 69,
          "time": 202.24593125000055,
          "velocity": 1,
          "duration": 0.12288145833332464
        },
        {
          "name": "E4",
          "midi": 64,
          "time": 202.24593125000055,
          "velocity": 1,
          "duration": 0.12288145833332464
        },
        {
          "name": "B4",
          "midi": 71,
          "time": 202.37305000000055,
          "velocity": 1,
          "duration": 0.12288145833332464
        },
        {
          "name": "F#4",
          "midi": 66,
          "time": 202.37305000000055,
          "velocity": 1,
          "duration": 0.12288145833332464
        },
        {
          "name": "A4",
          "midi": 69,
          "time": 202.50016875000054,
          "velocity": 1,
          "duration": 0.12288145833332464
        },
        {
          "name": "E4",
          "midi": 64,
          "time": 202.50016875000054,
          "velocity": 1,
          "duration": 0.12288145833332464
        },
        {
          "name": "G4",
          "midi": 67,
          "time": 202.62728750000053,
          "velocity": 1,
          "duration": 0.12288145833332464
        },
        {
          "name": "D4",
          "midi": 62,
          "time": 202.62728750000053,
          "velocity": 1,
          "duration": 0.12288145833332464
        },
        {
          "name": "F#4",
          "midi": 66,
          "time": 202.75440625000053,
          "velocity": 1,
          "duration": 0.12288145833332464
        },
        {
          "name": "C#4",
          "midi": 61,
          "time": 202.75440625000053,
          "velocity": 1,
          "duration": 0.12288145833332464
        },
        {
          "name": "A4",
          "midi": 69,
          "time": 202.88152500000052,
          "velocity": 1,
          "duration": 0.12288145833332464
        },
        {
          "name": "E4",
          "midi": 64,
          "time": 202.88152500000052,
          "velocity": 1,
          "duration": 0.12288145833332464
        },
        {
          "name": "G4",
          "midi": 67,
          "time": 203.00864375000052,
          "velocity": 1,
          "duration": 0.12288145833332464
        },
        {
          "name": "D4",
          "midi": 62,
          "time": 203.00864375000052,
          "velocity": 1,
          "duration": 0.12288145833332464
        },
        {
          "name": "F#4",
          "midi": 66,
          "time": 203.1357625000005,
          "velocity": 1,
          "duration": 0.12288145833332464
        },
        {
          "name": "C#4",
          "midi": 61,
          "time": 203.1357625000005,
          "velocity": 1,
          "duration": 0.12288145833332464
        },
        {
          "name": "D4",
          "midi": 62,
          "time": 203.2628812500005,
          "velocity": 1,
          "duration": 0.12288145833332464
        },
        {
          "name": "A3",
          "midi": 57,
          "time": 203.2628812500005,
          "velocity": 1,
          "duration": 0.12288145833332464
        },
        {
          "name": "E4",
          "midi": 64,
          "time": 203.39847458333384,
          "velocity": 1,
          "duration": 0.741526041666674
        },
        {
          "name": "B3",
          "midi": 59,
          "time": 203.39847458333384,
          "velocity": 1,
          "duration": 0.741526041666674
        },
        {
          "name": "G4",
          "midi": 67,
          "time": 204.15271250000052,
          "velocity": 1,
          "duration": 0.12288145833332464
        },
        {
          "name": "G4",
          "midi": 67,
          "time": 204.2798312500005,
          "velocity": 1,
          "duration": 0.12288145833332464
        },
        {
          "name": "G4",
          "midi": 67,
          "time": 204.4069500000005,
          "velocity": 1,
          "duration": 0.250000208333347
        },
        {
          "name": "F#4",
          "midi": 66,
          "time": 204.66118750000052,
          "velocity": 1,
          "duration": 0.05932208333334188
        },
        {
          "name": "G4",
          "midi": 67,
          "time": 204.72474687500053,
          "velocity": 1,
          "duration": 0.05932208333334188
        },
        {
          "name": "F#4",
          "midi": 66,
          "time": 204.78830625000055,
          "velocity": 1,
          "duration": 0.11440687499998603
        },
        {
          "name": "E4",
          "midi": 64,
          "time": 204.91542500000054,
          "velocity": 1,
          "duration": 0.250000208333347
        },
        {
          "name": "D4",
          "midi": 62,
          "time": 205.16966250000056,
          "velocity": 1,
          "duration": 0.250000208333347
        },
        {
          "name": "D4",
          "midi": 62,
          "time": 205.42390000000057,
          "velocity": 1,
          "duration": 0.491525833333327
        },
        {
          "name": "C#4",
          "midi": 61,
          "time": 205.9281377083339,
          "velocity": 1,
          "duration": 0.5042377083333349
        },
        {
          "name": "B3",
          "midi": 59,
          "time": 206.45779916666723,
          "velocity": 1,
          "duration": 0.5254241666666815
        },
        {
          "name": "A3",
          "midi": 57,
          "time": 206.9705114583339,
          "velocity": 1,
          "duration": 0.4872885416666861
        },
        {
          "name": "B4",
          "midi": 71,
          "time": 207.4578000000006,
          "velocity": 1,
          "duration": 0.5084750000000611
        },
        {
          "name": "A4",
          "midi": 69,
          "time": 207.97898687500066,
          "velocity": 1,
          "duration": 0.12711874999999395
        },
        {
          "name": "F#4",
          "midi": 66,
          "time": 208.09339375000064,
          "velocity": 1,
          "duration": 0.12711874999999395
        },
        {
          "name": "A4",
          "midi": 69,
          "time": 208.22051250000064,
          "velocity": 1,
          "duration": 0.12711874999999395
        },
        {
          "name": "F#4",
          "midi": 66,
          "time": 208.34763125000063,
          "velocity": 1,
          "duration": 0.25423750000004475
        },
        {
          "name": "B4",
          "midi": 71,
          "time": 208.60186875000068,
          "velocity": 1,
          "duration": 0.12711874999999395
        },
        {
          "name": "A4",
          "midi": 69,
          "time": 208.72898750000067,
          "velocity": 1,
          "duration": 0.12711874999999395
        },
        {
          "name": "F#4",
          "midi": 66,
          "time": 208.85610625000066,
          "velocity": 1,
          "duration": 0.12711874999999395
        },
        {
          "name": "G#4",
          "midi": 68,
          "time": 208.98322500000066,
          "velocity": 1,
          "duration": 0.12711874999999395
        },
        {
          "name": "E4",
          "midi": 64,
          "time": 209.11034375000065,
          "velocity": 1,
          "duration": 0.12711874999999395
        },
        {
          "name": "F#4",
          "midi": 66,
          "time": 209.23746250000065,
          "velocity": 1,
          "duration": 0.2542374999999879
        },
        {
          "name": "F#4",
          "midi": 66,
          "time": 209.49170000000063,
          "velocity": 1,
          "duration": 0.12288145833332464
        },
        {
          "name": "E4",
          "midi": 64,
          "time": 209.61881875000063,
          "velocity": 1,
          "duration": 0.12288145833332464
        },
        {
          "name": "D4",
          "midi": 62,
          "time": 209.74593750000062,
          "velocity": 1,
          "duration": 0.12288145833332464
        },
        {
          "name": "B3",
          "midi": 59,
          "time": 209.87305625000062,
          "velocity": 1,
          "duration": 0.12288145833332464
        },
        {
          "name": "E4",
          "midi": 64,
          "time": 210.0001750000006,
          "velocity": 1,
          "duration": 0.12288145833332464
        },
        {
          "name": "B3",
          "midi": 59,
          "time": 210.1272937500006,
          "velocity": 1,
          "duration": 0.12288145833332464
        },
        {
          "name": "D4",
          "midi": 62,
          "time": 210.2544125000006,
          "velocity": 1,
          "duration": 0.12288145833332464
        },
        {
          "name": "E4",
          "midi": 64,
          "time": 210.3815312500006,
          "velocity": 1,
          "duration": 1.1355941666666922
        },
        {
          "name": "F#4",
          "midi": 66,
          "time": 211.53407458333396,
          "velocity": 1,
          "duration": 0.12288145833335307
        },
        {
          "name": "B4",
          "midi": 71,
          "time": 211.53407458333396,
          "velocity": 1,
          "duration": 0.05932208333334188
        },
        {
          "name": "D5",
          "midi": 74,
          "time": 211.58915937500063,
          "velocity": 1,
          "duration": 0.05932208333334188
        },
        {
          "name": "B4",
          "midi": 71,
          "time": 211.65271875000064,
          "velocity": 1,
          "duration": 0.05932208333334188
        },
        {
          "name": "B4",
          "midi": 71,
          "time": 211.65271875000064,
          "velocity": 1,
          "duration": 0.12288145833335307
        },
        {
          "name": "D5",
          "midi": 74,
          "time": 211.71627812500066,
          "velocity": 1,
          "duration": 0.05932208333334188
        },
        {
          "name": "F#5",
          "midi": 78,
          "time": 211.77983750000067,
          "velocity": 1,
          "duration": 0.12288145833332464
        },
        {
          "name": "D5",
          "midi": 74,
          "time": 211.77983750000067,
          "velocity": 1,
          "duration": 0.12288145833332464
        },
        {
          "name": "B4",
          "midi": 71,
          "time": 211.90695625000066,
          "velocity": 1,
          "duration": 0.05932208333334188
        },
        {
          "name": "F#4",
          "midi": 66,
          "time": 211.90695625000066,
          "velocity": 1,
          "duration": 0.12288145833335307
        },
        {
          "name": "D5",
          "midi": 74,
          "time": 211.97051562500067,
          "velocity": 1,
          "duration": 0.05932208333334188
        },
        {
          "name": "B4",
          "midi": 71,
          "time": 212.03407500000068,
          "velocity": 1,
          "duration": 0.05932208333334188
        },
        {
          "name": "B4",
          "midi": 71,
          "time": 212.03407500000068,
          "velocity": 1,
          "duration": 0.12288145833335307
        },
        {
          "name": "D5",
          "midi": 74,
          "time": 212.0976343750007,
          "velocity": 1,
          "duration": 0.05932208333334188
        },
        {
          "name": "F#5",
          "midi": 78,
          "time": 212.1611937500007,
          "velocity": 1,
          "duration": 0.12288145833332464
        },
        {
          "name": "D5",
          "midi": 74,
          "time": 212.1611937500007,
          "velocity": 1,
          "duration": 0.12288145833332464
        },
        {
          "name": "B4",
          "midi": 71,
          "time": 212.2883125000007,
          "velocity": 1,
          "duration": 0.05932208333334188
        },
        {
          "name": "F#4",
          "midi": 66,
          "time": 212.2883125000007,
          "velocity": 1,
          "duration": 0.12288145833335307
        },
        {
          "name": "D5",
          "midi": 74,
          "time": 212.3518718750007,
          "velocity": 1,
          "duration": 0.05932208333334188
        },
        {
          "name": "B4",
          "midi": 71,
          "time": 212.41543125000072,
          "velocity": 1,
          "duration": 0.05932208333334188
        },
        {
          "name": "B4",
          "midi": 71,
          "time": 212.41543125000072,
          "velocity": 1,
          "duration": 0.12288145833335307
        },
        {
          "name": "D5",
          "midi": 74,
          "time": 212.47899062500073,
          "velocity": 1,
          "duration": 0.05932208333334188
        },
        {
          "name": "F#5",
          "midi": 78,
          "time": 212.54255000000074,
          "velocity": 1,
          "duration": 0.12288145833332464
        },
        {
          "name": "D5",
          "midi": 74,
          "time": 212.54255000000074,
          "velocity": 1,
          "duration": 0.12288145833332464
        },
        {
          "name": "B4",
          "midi": 71,
          "time": 212.66966875000074,
          "velocity": 1,
          "duration": 0.05932208333334188
        },
        {
          "name": "F#4",
          "midi": 66,
          "time": 212.66966875000074,
          "velocity": 1,
          "duration": 0.12288145833335307
        },
        {
          "name": "D5",
          "midi": 74,
          "time": 212.73322812500075,
          "velocity": 1,
          "duration": 0.05932208333334188
        },
        {
          "name": "B4",
          "midi": 71,
          "time": 212.79678750000076,
          "velocity": 1,
          "duration": 0.05932208333334188
        },
        {
          "name": "B4",
          "midi": 71,
          "time": 212.79678750000076,
          "velocity": 1,
          "duration": 0.12288145833335307
        },
        {
          "name": "D5",
          "midi": 74,
          "time": 212.86034687500077,
          "velocity": 1,
          "duration": 0.05932208333334188
        },
        {
          "name": "F#5",
          "midi": 78,
          "time": 212.92390625000078,
          "velocity": 1,
          "duration": 0.12288145833332464
        },
        {
          "name": "D5",
          "midi": 74,
          "time": 212.92390625000078,
          "velocity": 1,
          "duration": 0.12288145833332464
        },
        {
          "name": "B4",
          "midi": 71,
          "time": 213.05102500000078,
          "velocity": 1,
          "duration": 0.05932208333334188
        },
        {
          "name": "F#4",
          "midi": 66,
          "time": 213.05102500000078,
          "velocity": 1,
          "duration": 0.12288145833335307
        },
        {
          "name": "D5",
          "midi": 74,
          "time": 213.1145843750008,
          "velocity": 1,
          "duration": 0.05932208333334188
        },
        {
          "name": "B4",
          "midi": 71,
          "time": 213.1781437500008,
          "velocity": 1,
          "duration": 0.05932208333334188
        },
        {
          "name": "B4",
          "midi": 71,
          "time": 213.1781437500008,
          "velocity": 1,
          "duration": 0.12288145833335307
        },
        {
          "name": "D5",
          "midi": 74,
          "time": 213.2417031250008,
          "velocity": 1,
          "duration": 0.05932208333334188
        },
        {
          "name": "F#5",
          "midi": 78,
          "time": 213.30526250000082,
          "velocity": 1,
          "duration": 0.250000208333347
        },
        {
          "name": "D5",
          "midi": 74,
          "time": 213.30526250000082,
          "velocity": 1,
          "duration": 0.250000208333347
        },
        {
          "name": "C#5",
          "midi": 73,
          "time": 213.55950000000084,
          "velocity": 1,
          "duration": 0.05932208333334188
        },
        {
          "name": "A4",
          "midi": 69,
          "time": 213.55950000000084,
          "velocity": 1,
          "duration": 0.12288145833335307
        },
        {
          "name": "E5",
          "midi": 76,
          "time": 213.62305937500085,
          "velocity": 1,
          "duration": 0.05932208333334188
        },
        {
          "name": "C#5",
          "midi": 73,
          "time": 213.68661875000086,
          "velocity": 1,
          "duration": 0.05932208333334188
        },
        {
          "name": "C#5",
          "midi": 73,
          "time": 213.68661875000086,
          "velocity": 1,
          "duration": 0.12288145833335307
        },
        {
          "name": "E5",
          "midi": 76,
          "time": 213.75017812500087,
          "velocity": 1,
          "duration": 0.05932208333334188
        },
        {
          "name": "G5",
          "midi": 79,
          "time": 213.81373750000088,
          "velocity": 1,
          "duration": 0.12288145833332464
        },
        {
          "name": "E5",
          "midi": 76,
          "time": 213.81373750000088,
          "velocity": 1,
          "duration": 0.12288145833332464
        },
        {
          "name": "C#5",
          "midi": 73,
          "time": 213.94085625000088,
          "velocity": 1,
          "duration": 0.05932208333334188
        },
        {
          "name": "A4",
          "midi": 69,
          "time": 213.94085625000088,
          "velocity": 1,
          "duration": 0.12288145833335307
        },
        {
          "name": "E5",
          "midi": 76,
          "time": 214.0044156250009,
          "velocity": 1,
          "duration": 0.05932208333334188
        },
        {
          "name": "C#5",
          "midi": 73,
          "time": 214.0679750000009,
          "velocity": 1,
          "duration": 0.05932208333334188
        },
        {
          "name": "C#5",
          "midi": 73,
          "time": 214.0679750000009,
          "velocity": 1,
          "duration": 0.12288145833335307
        },
        {
          "name": "E5",
          "midi": 76,
          "time": 214.1315343750009,
          "velocity": 1,
          "duration": 0.05932208333334188
        },
        {
          "name": "G5",
          "midi": 79,
          "time": 214.19509375000092,
          "velocity": 1,
          "duration": 0.12288145833332464
        },
        {
          "name": "E5",
          "midi": 76,
          "time": 214.19509375000092,
          "velocity": 1,
          "duration": 0.12288145833332464
        },
        {
          "name": "C#5",
          "midi": 73,
          "time": 214.32221250000092,
          "velocity": 1,
          "duration": 0.05932208333334188
        },
        {
          "name": "A4",
          "midi": 69,
          "time": 214.32221250000092,
          "velocity": 1,
          "duration": 0.12288145833335307
        },
        {
          "name": "E5",
          "midi": 76,
          "time": 214.38577187500093,
          "velocity": 1,
          "duration": 0.05932208333334188
        },
        {
          "name": "C#5",
          "midi": 73,
          "time": 214.44933125000094,
          "velocity": 1,
          "duration": 0.05932208333334188
        },
        {
          "name": "C#5",
          "midi": 73,
          "time": 214.44933125000094,
          "velocity": 1,
          "duration": 0.12288145833335307
        },
        {
          "name": "E5",
          "midi": 76,
          "time": 214.51289062500095,
          "velocity": 1,
          "duration": 0.05932208333334188
        },
        {
          "name": "G5",
          "midi": 79,
          "time": 214.57645000000096,
          "velocity": 1,
          "duration": 0.12288145833332464
        },
        {
          "name": "E5",
          "midi": 76,
          "time": 214.57645000000096,
          "velocity": 1,
          "duration": 0.12288145833332464
        },
        {
          "name": "C#5",
          "midi": 73,
          "time": 214.70356875000095,
          "velocity": 1,
          "duration": 0.05932208333334188
        },
        {
          "name": "A4",
          "midi": 69,
          "time": 214.70356875000095,
          "velocity": 1,
          "duration": 0.12288145833335307
        },
        {
          "name": "E5",
          "midi": 76,
          "time": 214.76712812500097,
          "velocity": 1,
          "duration": 0.05932208333334188
        },
        {
          "name": "C#5",
          "midi": 73,
          "time": 214.83068750000098,
          "velocity": 1,
          "duration": 0.05932208333334188
        },
        {
          "name": "C#5",
          "midi": 73,
          "time": 214.83068750000098,
          "velocity": 1,
          "duration": 0.12288145833335307
        },
        {
          "name": "E5",
          "midi": 76,
          "time": 214.894246875001,
          "velocity": 1,
          "duration": 0.05932208333334188
        },
        {
          "name": "G5",
          "midi": 79,
          "time": 214.957806250001,
          "velocity": 1,
          "duration": 0.12288145833332464
        },
        {
          "name": "E5",
          "midi": 76,
          "time": 214.957806250001,
          "velocity": 1,
          "duration": 0.12288145833332464
        },
        {
          "name": "C#5",
          "midi": 73,
          "time": 215.084925000001,
          "velocity": 1,
          "duration": 0.05932208333334188
        },
        {
          "name": "A4",
          "midi": 69,
          "time": 215.084925000001,
          "velocity": 1,
          "duration": 0.12288145833335307
        },
        {
          "name": "E5",
          "midi": 76,
          "time": 215.148484375001,
          "velocity": 1,
          "duration": 0.05932208333334188
        },
        {
          "name": "C#5",
          "midi": 73,
          "time": 215.21204375000102,
          "velocity": 1,
          "duration": 0.05932208333334188
        },
        {
          "name": "C#5",
          "midi": 73,
          "time": 215.21204375000102,
          "velocity": 1,
          "duration": 0.12288145833335307
        },
        {
          "name": "E5",
          "midi": 76,
          "time": 215.27560312500103,
          "velocity": 1,
          "duration": 0.05932208333334188
        },
        {
          "name": "G5",
          "midi": 79,
          "time": 215.33916250000104,
          "velocity": 1,
          "duration": 0.2500002083333186
        },
        {
          "name": "E5",
          "midi": 76,
          "time": 215.33916250000104,
          "velocity": 1,
          "duration": 0.12288145833332464
        },
        {
          "name": "D5",
          "midi": 74,
          "time": 215.59340000000103,
          "velocity": 1,
          "duration": 0.05932208333334188
        },
        {
          "name": "A4",
          "midi": 69,
          "time": 215.59340000000103,
          "velocity": 1,
          "duration": 0.12288145833335307
        },
        {
          "name": "F#5",
          "midi": 78,
          "time": 215.65695937500104,
          "velocity": 1,
          "duration": 0.05932208333334188
        },
        {
          "name": "D5",
          "midi": 74,
          "time": 215.72051875000105,
          "velocity": 1,
          "duration": 0.05932208333334188
        },
        {
          "name": "D5",
          "midi": 74,
          "time": 215.72051875000105,
          "velocity": 1,
          "duration": 0.12288145833335307
        },
        {
          "name": "F#5",
          "midi": 78,
          "time": 215.78407812500106,
          "velocity": 1,
          "duration": 0.05932208333334188
        },
        {
          "name": "A5",
          "midi": 81,
          "time": 215.84763750000107,
          "velocity": 1,
          "duration": 0.12288145833332464
        },
        {
          "name": "F#5",
          "midi": 78,
          "time": 215.84763750000107,
          "velocity": 1,
          "duration": 0.12288145833332464
        },
        {
          "name": "D5",
          "midi": 74,
          "time": 215.97475625000106,
          "velocity": 1,
          "duration": 0.05932208333334188
        },
        {
          "name": "A4",
          "midi": 69,
          "time": 215.97475625000106,
          "velocity": 1,
          "duration": 0.12288145833335307
        },
        {
          "name": "F#5",
          "midi": 78,
          "time": 216.03831562500108,
          "velocity": 1,
          "duration": 0.05932208333334188
        },
        {
          "name": "D5",
          "midi": 74,
          "time": 216.1018750000011,
          "velocity": 1,
          "duration": 0.05932208333334188
        },
        {
          "name": "D5",
          "midi": 74,
          "time": 216.1018750000011,
          "velocity": 1,
          "duration": 0.12288145833335307
        },
        {
          "name": "F#5",
          "midi": 78,
          "time": 216.1654343750011,
          "velocity": 1,
          "duration": 0.05932208333334188
        },
        {
          "name": "A5",
          "midi": 81,
          "time": 216.2289937500011,
          "velocity": 1,
          "duration": 0.12288145833332464
        },
        {
          "name": "F#5",
          "midi": 78,
          "time": 216.2289937500011,
          "velocity": 1,
          "duration": 0.12288145833332464
        },
        {
          "name": "D5",
          "midi": 74,
          "time": 216.3561125000011,
          "velocity": 1,
          "duration": 0.05932208333334188
        },
        {
          "name": "A4",
          "midi": 69,
          "time": 216.3561125000011,
          "velocity": 1,
          "duration": 0.12288145833335307
        },
        {
          "name": "F#5",
          "midi": 78,
          "time": 216.41967187500111,
          "velocity": 1,
          "duration": 0.05932208333334188
        },
        {
          "name": "D5",
          "midi": 74,
          "time": 216.48323125000113,
          "velocity": 1,
          "duration": 0.05932208333334188
        },
        {
          "name": "D5",
          "midi": 74,
          "time": 216.48323125000113,
          "velocity": 1,
          "duration": 0.12288145833335307
        },
        {
          "name": "F#5",
          "midi": 78,
          "time": 216.54679062500114,
          "velocity": 1,
          "duration": 0.05932208333334188
        },
        {
          "name": "A5",
          "midi": 81,
          "time": 216.61035000000115,
          "velocity": 1,
          "duration": 0.12288145833332464
        },
        {
          "name": "F#5",
          "midi": 78,
          "time": 216.61035000000115,
          "velocity": 1,
          "duration": 0.12288145833332464
        },
        {
          "name": "D5",
          "midi": 74,
          "time": 216.73746875000114,
          "velocity": 1,
          "duration": 0.05932208333334188
        },
        {
          "name": "A4",
          "midi": 69,
          "time": 216.73746875000114,
          "velocity": 1,
          "duration": 0.12288145833335307
        },
        {
          "name": "F#5",
          "midi": 78,
          "time": 216.80102812500115,
          "velocity": 1,
          "duration": 0.05932208333334188
        },
        {
          "name": "D5",
          "midi": 74,
          "time": 216.86458750000116,
          "velocity": 1,
          "duration": 0.05932208333334188
        },
        {
          "name": "D5",
          "midi": 74,
          "time": 216.86458750000116,
          "velocity": 1,
          "duration": 0.12288145833335307
        },
        {
          "name": "F#5",
          "midi": 78,
          "time": 216.92814687500118,
          "velocity": 1,
          "duration": 0.05932208333334188
        },
        {
          "name": "A5",
          "midi": 81,
          "time": 216.9917062500012,
          "velocity": 1,
          "duration": 0.12288145833332464
        },
        {
          "name": "F#5",
          "midi": 78,
          "time": 216.9917062500012,
          "velocity": 1,
          "duration": 0.12288145833332464
        },
        {
          "name": "D5",
          "midi": 74,
          "time": 217.11882500000118,
          "velocity": 1,
          "duration": 0.05932208333334188
        },
        {
          "name": "A4",
          "midi": 69,
          "time": 217.11882500000118,
          "velocity": 1,
          "duration": 0.12288145833335307
        },
        {
          "name": "F#5",
          "midi": 78,
          "time": 217.1823843750012,
          "velocity": 1,
          "duration": 0.05932208333334188
        },
        {
          "name": "D5",
          "midi": 74,
          "time": 217.2459437500012,
          "velocity": 1,
          "duration": 0.05932208333334188
        },
        {
          "name": "D5",
          "midi": 74,
          "time": 217.2459437500012,
          "velocity": 1,
          "duration": 0.12288145833335307
        },
        {
          "name": "F#5",
          "midi": 78,
          "time": 217.3095031250012,
          "velocity": 1,
          "duration": 0.05932208333334188
        },
        {
          "name": "A5",
          "midi": 81,
          "time": 217.37306250000123,
          "velocity": 1,
          "duration": 0.250000208333347
        },
        {
          "name": "F#5",
          "midi": 78,
          "time": 217.37306250000123,
          "velocity": 1,
          "duration": 0.250000208333347
        },
        {
          "name": "G4",
          "midi": 67,
          "time": 217.62730000000124,
          "velocity": 1,
          "duration": 0.12288145833332464
        },
        {
          "name": "D4",
          "midi": 62,
          "time": 217.62730000000124,
          "velocity": 1,
          "duration": 0.12288145833332464
        },
        {
          "name": "D4",
          "midi": 62,
          "time": 217.75441875000124,
          "velocity": 1,
          "duration": 0.12288145833332464
        },
        {
          "name": "A4",
          "midi": 69,
          "time": 217.75441875000124,
          "velocity": 1,
          "duration": 0.12288145833332464
        },
        {
          "name": "D4",
          "midi": 62,
          "time": 217.88153750000123,
          "velocity": 1,
          "duration": 0.12288145833332464
        },
        {
          "name": "B4",
          "midi": 71,
          "time": 217.88153750000123,
          "velocity": 1,
          "duration": 0.12288145833332464
        },
        {
          "name": "G4",
          "midi": 67,
          "time": 218.00865625000122,
          "velocity": 1,
          "duration": 0.12288145833332464
        },
        {
          "name": "D4",
          "midi": 62,
          "time": 218.00865625000122,
          "velocity": 1,
          "duration": 0.12288145833332464
        },
        {
          "name": "D4",
          "midi": 62,
          "time": 218.13577500000122,
          "velocity": 1,
          "duration": 0.12288145833332464
        },
        {
          "name": "A4",
          "midi": 69,
          "time": 218.13577500000122,
          "velocity": 1,
          "duration": 0.12288145833332464
        },
        {
          "name": "D4",
          "midi": 62,
          "time": 218.2628937500012,
          "velocity": 1,
          "duration": 0.12288145833332464
        },
        {
          "name": "B4",
          "midi": 71,
          "time": 218.2628937500012,
          "velocity": 1,
          "duration": 0.12288145833332464
        },
        {
          "name": "G4",
          "midi": 67,
          "time": 218.3900125000012,
          "velocity": 1,
          "duration": 0.12288145833332464
        },
        {
          "name": "D4",
          "midi": 62,
          "time": 218.3900125000012,
          "velocity": 1,
          "duration": 0.12288145833332464
        },
        {
          "name": "A4",
          "midi": 69,
          "time": 218.5171312500012,
          "velocity": 1,
          "duration": 0.12288145833332464
        },
        {
          "name": "E4",
          "midi": 64,
          "time": 218.5171312500012,
          "velocity": 1,
          "duration": 0.12288145833332464
        },
        {
          "name": "B4",
          "midi": 71,
          "time": 218.6442500000012,
          "velocity": 1,
          "duration": 0.12288145833332464
        },
        {
          "name": "F#4",
          "midi": 66,
          "time": 218.6442500000012,
          "velocity": 1,
          "duration": 0.12288145833332464
        },
        {
          "name": "A4",
          "midi": 69,
          "time": 218.7713687500012,
          "velocity": 1,
          "duration": 0.12288145833332464
        },
        {
          "name": "E4",
          "midi": 64,
          "time": 218.7713687500012,
          "velocity": 1,
          "duration": 0.12288145833332464
        },
        {
          "name": "G4",
          "midi": 67,
          "time": 218.89848750000118,
          "velocity": 1,
          "duration": 0.12288145833332464
        },
        {
          "name": "D4",
          "midi": 62,
          "time": 218.89848750000118,
          "velocity": 1,
          "duration": 0.12288145833332464
        },
        {
          "name": "F#4",
          "midi": 66,
          "time": 219.02560625000118,
          "velocity": 1,
          "duration": 0.12288145833332464
        },
        {
          "name": "C#4",
          "midi": 61,
          "time": 219.02560625000118,
          "velocity": 1,
          "duration": 0.12288145833332464
        },
        {
          "name": "A4",
          "midi": 69,
          "time": 219.15272500000117,
          "velocity": 1,
          "duration": 0.250000208333347
        },
        {
          "name": "E4",
          "midi": 64,
          "time": 219.15272500000117,
          "velocity": 1,
          "duration": 0.250000208333347
        },
        {
          "name": "D4",
          "midi": 62,
          "time": 219.40696250000119,
          "velocity": 1,
          "duration": 0.12288145833332464
        },
        {
          "name": "G4",
          "midi": 67,
          "time": 219.40696250000119,
          "velocity": 1,
          "duration": 0.12288145833332464
        },
        {
          "name": "C#4",
          "midi": 61,
          "time": 219.53408125000118,
          "velocity": 1,
          "duration": 0.12288145833332464
        },
        {
          "name": "F#4",
          "midi": 66,
          "time": 219.53408125000118,
          "velocity": 1,
          "duration": 0.12288145833332464
        },
        {
          "name": "E4",
          "midi": 64,
          "time": 219.66543729166784,
          "velocity": 1,
          "duration": 0.7542379166666535
        },
        {
          "name": "B3",
          "midi": 59,
          "time": 219.66543729166784,
          "velocity": 1,
          "duration": 0.7542379166666535
        },
        {
          "name": "G4",
          "midi": 67,
          "time": 220.42391250000117,
          "velocity": 1,
          "duration": 0.12288145833332464
        },
        {
          "name": "G4",
          "midi": 67,
          "time": 220.55103125000116,
          "velocity": 1,
          "duration": 0.12288145833332464
        },
        {
          "name": "G4",
          "midi": 67,
          "time": 220.67815000000115,
          "velocity": 1,
          "duration": 0.250000208333347
        },
        {
          "name": "F#4",
          "midi": 66,
          "time": 220.93662479166784,
          "velocity": 1,
          "duration": 0.11864416666665534
        },
        {
          "name": "G4",
          "midi": 67,
          "time": 221.05950625000116,
          "velocity": 1,
          "duration": 0.05932208333334188
        },
        {
          "name": "F#4",
          "midi": 66,
          "time": 221.12306562500117,
          "velocity": 1,
          "duration": 0.05932208333334188
        },
        {
          "name": "E4",
          "midi": 64,
          "time": 221.1866250000012,
          "velocity": 1,
          "duration": 0.250000208333347
        },
        {
          "name": "D4",
          "midi": 62,
          "time": 221.4408625000012,
          "velocity": 1,
          "duration": 0.250000208333347
        },
        {
          "name": "A4",
          "midi": 69,
          "time": 221.69510000000122,
          "velocity": 1,
          "duration": 0.5211868750000406
        },
        {
          "name": "A4",
          "midi": 69,
          "time": 222.22052416666793,
          "velocity": 1,
          "duration": 0.5042377083333349
        },
        {
          "name": "D4",
          "midi": 62,
          "time": 222.7205245833346,
          "velocity": 1,
          "duration": 0.4872885416666577
        },
        {
          "name": "E4",
          "midi": 64,
          "time": 223.23323687500124,
          "velocity": 1,
          "duration": 0.4872885416666577
        },
        {
          "name": "F#4",
          "midi": 66,
          "time": 223.72900000000124,
          "velocity": 0.9763779527559056,
          "duration": 2.0254254166666783
        },
        {
          "name": "G#4",
          "midi": 68,
          "time": 225.7713745833346,
          "velocity": 1,
          "duration": 0.7330514583333922
        },
        {
          "name": "B4",
          "midi": 71,
          "time": 226.50866333333465,
          "velocity": 1,
          "duration": 0.28389854166667305
        },
        {
          "name": "G#4",
          "midi": 68,
          "time": 226.80103645833466,
          "velocity": 1,
          "duration": 0.9830516666667961
        }
      ],
      "controlChanges": {
        "1": [
          {
            "number": 1,
            "time": 195.25863729166664,
            "value": 0
          },
          {
            "number": 1,
            "time": 210.77983666666725,
            "value": 0.1732283464566929
          },
          {
            "number": 1,
            "time": 210.79254854166726,
            "value": 0.5354330708661418
          },
          {
            "number": 1,
            "time": 210.81797229166725,
            "value": 0.7244094488188977
          },
          {
            "number": 1,
            "time": 210.83492145833392,
            "value": 0.8188976377952756
          },
          {
            "number": 1,
            "time": 210.85610791666727,
            "value": 0.84251968503937
          },
          {
            "number": 1,
            "time": 210.89848083333393,
            "value": 0.9291338582677166
          },
          {
            "number": 1,
            "time": 210.97475208333393,
            "value": 0.984251968503937
          },
          {
            "number": 1,
            "time": 211.31373541666727,
            "value": 0.84251968503937
          },
          {
            "number": 1,
            "time": 211.33492187500062,
            "value": 0.05511811023622047
          },
          {
            "number": 1,
            "time": 211.34763375000063,
            "value": 0
          },
          {
            "number": 1,
            "time": 224.3815429166679,
            "value": 0.03937007874015748
          },
          {
            "number": 1,
            "time": 224.4069666666679,
            "value": 0.3779527559055118
          },
          {
            "number": 1,
            "time": 224.41544125000124,
            "value": 0.5196850393700787
          },
          {
            "number": 1,
            "time": 224.44086500000122,
            "value": 0.5669291338582677
          },
          {
            "number": 1,
            "time": 224.46205145833457,
            "value": 0.7244094488188977
          },
          {
            "number": 1,
            "time": 224.48747520833456,
            "value": 0.7952755905511811
          },
          {
            "number": 1,
            "time": 224.5086616666679,
            "value": 0.84251968503937
          },
          {
            "number": 1,
            "time": 224.5213735416679,
            "value": 0.8976377952755905
          },
          {
            "number": 1,
            "time": 224.56798375000125,
            "value": 0.952755905511811
          },
          {
            "number": 1,
            "time": 224.80103479166792,
            "value": 1
          },
          {
            "number": 1,
            "time": 225.06374687500124,
            "value": 0.984251968503937
          },
          {
            "number": 1,
            "time": 225.20357750000124,
            "value": 0.9291338582677166
          },
          {
            "number": 1,
            "time": 225.24171312500124,
            "value": 0.4330708661417323
          },
          {
            "number": 1,
            "time": 225.25018770833458,
            "value": 0.11023622047244094
          },
          {
            "number": 1,
            "time": 225.27984875000124,
            "value": 0
          }
        ],
        "7": [
          {
            "number": 7,
            "time": 0.6694920833333333,
            "value": 1
          },
          {
            "number": 7,
            "time": 1.6694929166666665,
            "value": 1
          }
        ],
        "91": [
          {
            "number": 91,
            "time": 1.09322125,
            "value": 1
          }
        ],
        "93": [
          {
            "number": 93,
            "time": 1.1016958333333333,
            "value": 0.47244094488188976
          }
        ]
      },
      "id": 8,
      "name": "lead guitar",
      "instrumentNumber": 29,
      "instrument": "overdriven guitar",
      "instrumentFamily": "guitar",
      "channelNumber": 7,
      "isPercussion": false
    },
    {
      "startTime": 80.33905000000001,
      "duration": 85.42380000000004,
      "length": 7,
      "notes": [
        {
          "name": "F#4",
          "midi": 66,
          "time": 80.33905000000001,
          "velocity": 1,
          "duration": 0.5084750000000042
        },
        {
          "name": "E4",
          "midi": 64,
          "time": 80.84752500000002,
          "velocity": 1,
          "duration": 0.5084750000000042
        },
        {
          "name": "C#4",
          "midi": 61,
          "time": 81.35600000000002,
          "velocity": 1,
          "duration": 0.5084750000000042
        },
        {
          "name": "A4",
          "midi": 69,
          "time": 81.86447500000003,
          "velocity": 1,
          "duration": 0.5084750000000042
        },
        {
          "name": "G#4",
          "midi": 68,
          "time": 82.37295000000003,
          "velocity": 1,
          "duration": 0.5084750000000042
        },
        {
          "name": "E4",
          "midi": 64,
          "time": 82.88142500000004,
          "velocity": 1,
          "duration": 0.5084750000000042
        },
        {
          "name": "F#4",
          "midi": 66,
          "time": 83.38990000000004,
          "velocity": 1,
          "duration": 2.0339000000000027
        }
      ],
      "controlChanges": {
        "7": [
          {
            "number": 7,
            "time": 0.6906785416666668,
            "value": 1
          },
          {
            "number": 7,
            "time": 1.65254375,
            "value": 1
          }
        ],
        "91": [
          {
            "number": 91,
            "time": 0.7711870833333334,
            "value": 1
          }
        ],
        "93": [
          {
            "number": 93,
            "time": 0.7796616666666667,
            "value": 1
          }
        ]
      },
      "id": 9,
      "name": "whistle",
      "instrumentNumber": 92,
      "instrument": "pad 5 (bowed)",
      "instrumentFamily": "synth pad",
      "channelNumber": 8,
      "isPercussion": false
    },
    {
      "startTime": 52.8814,
      "duration": 325.2968812499886,
      "length": 1099,
      "notes": [
        {
          "name": "F#2",
          "midi": 42,
          "time": 52.8814,
          "velocity": 1,
          "duration": 0.12288145833333175
        },
        {
          "name": "F#2",
          "midi": 42,
          "time": 53.135637499999994,
          "velocity": 1,
          "duration": 0.12288145833333175
        },
        {
          "name": "F#2",
          "midi": 42,
          "time": 53.262756249999995,
          "velocity": 1,
          "duration": 0.12288145833333175
        },
        {
          "name": "F#2",
          "midi": 42,
          "time": 53.389874999999996,
          "velocity": 1,
          "duration": 0.12288145833333175
        },
        {
          "name": "F#2",
          "midi": 42,
          "time": 53.64411249999999,
          "velocity": 1,
          "duration": 0.12288145833333175
        },
        {
          "name": "F#2",
          "midi": 42,
          "time": 53.77123124999999,
          "velocity": 1,
          "duration": 0.12288145833333175
        },
        {
          "name": "F#2",
          "midi": 42,
          "time": 53.89834999999999,
          "velocity": 1,
          "duration": 0.12288145833333175
        },
        {
          "name": "F#2",
          "midi": 42,
          "time": 54.15258749999999,
          "velocity": 1,
          "duration": 0.12288145833333175
        },
        {
          "name": "F#2",
          "midi": 42,
          "time": 54.27970624999999,
          "velocity": 1,
          "duration": 0.12288145833333175
        },
        {
          "name": "F#2",
          "midi": 42,
          "time": 54.40682499999999,
          "velocity": 1,
          "duration": 0.12288145833333175
        },
        {
          "name": "F#2",
          "midi": 42,
          "time": 54.661062499999986,
          "velocity": 1,
          "duration": 0.12288145833333175
        },
        {
          "name": "D2",
          "midi": 38,
          "time": 54.91529999999998,
          "velocity": 1,
          "duration": 0.12288145833333175
        },
        {
          "name": "D2",
          "midi": 38,
          "time": 55.169537499999976,
          "velocity": 1,
          "duration": 0.12288145833333175
        },
        {
          "name": "D2",
          "midi": 38,
          "time": 55.29665624999998,
          "velocity": 1,
          "duration": 0.12288145833333175
        },
        {
          "name": "D2",
          "midi": 38,
          "time": 55.42377499999998,
          "velocity": 1,
          "duration": 0.12288145833333175
        },
        {
          "name": "D2",
          "midi": 38,
          "time": 55.67801249999997,
          "velocity": 1,
          "duration": 0.12288145833333175
        },
        {
          "name": "D2",
          "midi": 38,
          "time": 55.805131249999974,
          "velocity": 1,
          "duration": 0.12288145833333175
        },
        {
          "name": "D2",
          "midi": 38,
          "time": 55.932249999999975,
          "velocity": 1,
          "duration": 0.12288145833333175
        },
        {
          "name": "D2",
          "midi": 38,
          "time": 56.18648749999997,
          "velocity": 1,
          "duration": 0.12288145833333175
        },
        {
          "name": "D2",
          "midi": 38,
          "time": 56.31360624999997,
          "velocity": 1,
          "duration": 0.12288145833333175
        },
        {
          "name": "D2",
          "midi": 38,
          "time": 56.44072499999997,
          "velocity": 1,
          "duration": 0.12288145833333175
        },
        {
          "name": "D2",
          "midi": 38,
          "time": 56.69496249999997,
          "velocity": 1,
          "duration": 0.12288145833333175
        },
        {
          "name": "B2",
          "midi": 47,
          "time": 56.94919999999996,
          "velocity": 1,
          "duration": 0.12288145833333175
        },
        {
          "name": "B2",
          "midi": 47,
          "time": 57.20343749999996,
          "velocity": 1,
          "duration": 0.12288145833333175
        },
        {
          "name": "B2",
          "midi": 47,
          "time": 57.33055624999996,
          "velocity": 1,
          "duration": 0.12288145833333175
        },
        {
          "name": "B2",
          "midi": 47,
          "time": 57.45767499999996,
          "velocity": 1,
          "duration": 0.12288145833333175
        },
        {
          "name": "B2",
          "midi": 47,
          "time": 57.711912499999954,
          "velocity": 1,
          "duration": 0.12288145833333175
        },
        {
          "name": "B2",
          "midi": 47,
          "time": 57.839031249999955,
          "velocity": 1,
          "duration": 0.12288145833333175
        },
        {
          "name": "B2",
          "midi": 47,
          "time": 57.966149999999956,
          "velocity": 1,
          "duration": 0.12288145833333175
        },
        {
          "name": "B2",
          "midi": 47,
          "time": 58.22038749999995,
          "velocity": 1,
          "duration": 0.12288145833333175
        },
        {
          "name": "B2",
          "midi": 47,
          "time": 58.34750624999995,
          "velocity": 1,
          "duration": 0.12288145833333175
        },
        {
          "name": "B2",
          "midi": 47,
          "time": 58.47462499999995,
          "velocity": 1,
          "duration": 0.12288145833333175
        },
        {
          "name": "B2",
          "midi": 47,
          "time": 58.72886249999995,
          "velocity": 1,
          "duration": 0.12288145833333175
        },
        {
          "name": "E2",
          "midi": 40,
          "time": 58.98309999999994,
          "velocity": 1,
          "duration": 0.12288145833333175
        },
        {
          "name": "E2",
          "midi": 40,
          "time": 59.23733749999994,
          "velocity": 1,
          "duration": 0.12288145833333175
        },
        {
          "name": "E2",
          "midi": 40,
          "time": 59.36445624999994,
          "velocity": 1,
          "duration": 0.12288145833333175
        },
        {
          "name": "E2",
          "midi": 40,
          "time": 59.49157499999994,
          "velocity": 1,
          "duration": 0.12288145833333175
        },
        {
          "name": "E2",
          "midi": 40,
          "time": 59.745812499999936,
          "velocity": 1,
          "duration": 0.12288145833333175
        },
        {
          "name": "E2",
          "midi": 40,
          "time": 59.87293124999994,
          "velocity": 1,
          "duration": 0.12288145833333175
        },
        {
          "name": "E2",
          "midi": 40,
          "time": 60.00004999999994,
          "velocity": 1,
          "duration": 0.12288145833333175
        },
        {
          "name": "E2",
          "midi": 40,
          "time": 60.25428749999993,
          "velocity": 1,
          "duration": 0.12288145833333175
        },
        {
          "name": "E2",
          "midi": 40,
          "time": 60.381406249999934,
          "velocity": 1,
          "duration": 0.12288145833333175
        },
        {
          "name": "E2",
          "midi": 40,
          "time": 60.508524999999935,
          "velocity": 1,
          "duration": 0.12288145833333175
        },
        {
          "name": "E2",
          "midi": 40,
          "time": 60.76276249999993,
          "velocity": 1,
          "duration": 0.12288145833333175
        },
        {
          "name": "F#2",
          "midi": 42,
          "time": 61.016999999999925,
          "velocity": 1,
          "duration": 0.12288145833333175
        },
        {
          "name": "F#2",
          "midi": 42,
          "time": 61.27123749999992,
          "velocity": 1,
          "duration": 0.12288145833333175
        },
        {
          "name": "F#2",
          "midi": 42,
          "time": 61.39835624999992,
          "velocity": 1,
          "duration": 0.12288145833333175
        },
        {
          "name": "F#2",
          "midi": 42,
          "time": 61.52547499999992,
          "velocity": 1,
          "duration": 0.12288145833333175
        },
        {
          "name": "F#2",
          "midi": 42,
          "time": 61.77971249999992,
          "velocity": 1,
          "duration": 0.12288145833333175
        },
        {
          "name": "F#2",
          "midi": 42,
          "time": 61.90683124999992,
          "velocity": 1,
          "duration": 0.12288145833333175
        },
        {
          "name": "F#2",
          "midi": 42,
          "time": 62.03394999999992,
          "velocity": 1,
          "duration": 0.12288145833333175
        },
        {
          "name": "F#2",
          "midi": 42,
          "time": 62.288187499999914,
          "velocity": 1,
          "duration": 0.12288145833333175
        },
        {
          "name": "F#2",
          "midi": 42,
          "time": 62.415306249999915,
          "velocity": 1,
          "duration": 0.12288145833333175
        },
        {
          "name": "F#2",
          "midi": 42,
          "time": 62.542424999999916,
          "velocity": 1,
          "duration": 0.12288145833333175
        },
        {
          "name": "F#2",
          "midi": 42,
          "time": 62.79666249999991,
          "velocity": 1,
          "duration": 0.12288145833333175
        },
        {
          "name": "D2",
          "midi": 38,
          "time": 63.050899999999906,
          "velocity": 1,
          "duration": 0.12288145833333175
        },
        {
          "name": "D2",
          "midi": 38,
          "time": 63.3051374999999,
          "velocity": 1,
          "duration": 0.12288145833333175
        },
        {
          "name": "D2",
          "midi": 38,
          "time": 63.4322562499999,
          "velocity": 1,
          "duration": 0.12288145833333175
        },
        {
          "name": "D2",
          "midi": 38,
          "time": 63.5593749999999,
          "velocity": 1,
          "duration": 0.12288145833333175
        },
        {
          "name": "D2",
          "midi": 38,
          "time": 63.8136124999999,
          "velocity": 1,
          "duration": 0.12288145833333175
        },
        {
          "name": "D2",
          "midi": 38,
          "time": 63.9407312499999,
          "velocity": 1,
          "duration": 0.12288145833333886
        },
        {
          "name": "D2",
          "midi": 38,
          "time": 64.06784999999991,
          "velocity": 1,
          "duration": 0.12288145833333886
        },
        {
          "name": "D2",
          "midi": 38,
          "time": 64.32208749999991,
          "velocity": 1,
          "duration": 0.12288145833333886
        },
        {
          "name": "D2",
          "midi": 38,
          "time": 64.44920624999992,
          "velocity": 1,
          "duration": 0.12288145833333886
        },
        {
          "name": "D2",
          "midi": 38,
          "time": 64.57632499999993,
          "velocity": 1,
          "duration": 0.12288145833333886
        },
        {
          "name": "D2",
          "midi": 38,
          "time": 64.83056249999993,
          "velocity": 1,
          "duration": 0.12288145833333886
        },
        {
          "name": "B2",
          "midi": 47,
          "time": 65.08479999999993,
          "velocity": 1,
          "duration": 0.12288145833333886
        },
        {
          "name": "B2",
          "midi": 47,
          "time": 65.33903749999993,
          "velocity": 1,
          "duration": 0.12288145833333886
        },
        {
          "name": "B2",
          "midi": 47,
          "time": 65.46615624999994,
          "velocity": 1,
          "duration": 0.12288145833333886
        },
        {
          "name": "B2",
          "midi": 47,
          "time": 65.59327499999995,
          "velocity": 1,
          "duration": 0.12288145833333886
        },
        {
          "name": "B2",
          "midi": 47,
          "time": 65.84751249999995,
          "velocity": 1,
          "duration": 0.12288145833333886
        },
        {
          "name": "B2",
          "midi": 47,
          "time": 65.97463124999996,
          "velocity": 1,
          "duration": 0.12288145833333886
        },
        {
          "name": "B2",
          "midi": 47,
          "time": 66.10174999999997,
          "velocity": 1,
          "duration": 0.12288145833333886
        },
        {
          "name": "B2",
          "midi": 47,
          "time": 66.35598749999997,
          "velocity": 1,
          "duration": 0.12288145833333886
        },
        {
          "name": "B2",
          "midi": 47,
          "time": 66.48310624999998,
          "velocity": 1,
          "duration": 0.12288145833333886
        },
        {
          "name": "B2",
          "midi": 47,
          "time": 66.61022499999999,
          "velocity": 1,
          "duration": 0.12288145833333886
        },
        {
          "name": "B2",
          "midi": 47,
          "time": 66.86446249999999,
          "velocity": 1,
          "duration": 0.12288145833333886
        },
        {
          "name": "E2",
          "midi": 40,
          "time": 67.11869999999999,
          "velocity": 1,
          "duration": 0.12288145833333886
        },
        {
          "name": "E2",
          "midi": 40,
          "time": 67.37293749999999,
          "velocity": 1,
          "duration": 0.12288145833333886
        },
        {
          "name": "E2",
          "midi": 40,
          "time": 67.50005625,
          "velocity": 1,
          "duration": 0.12288145833333886
        },
        {
          "name": "E2",
          "midi": 40,
          "time": 67.62717500000001,
          "velocity": 1,
          "duration": 0.12288145833333886
        },
        {
          "name": "E2",
          "midi": 40,
          "time": 67.88141250000001,
          "velocity": 1,
          "duration": 0.12288145833333886
        },
        {
          "name": "E2",
          "midi": 40,
          "time": 68.00853125000002,
          "velocity": 1,
          "duration": 0.12288145833333886
        },
        {
          "name": "E2",
          "midi": 40,
          "time": 68.13565000000003,
          "velocity": 1,
          "duration": 0.12288145833333886
        },
        {
          "name": "E2",
          "midi": 40,
          "time": 68.38988750000003,
          "velocity": 1,
          "duration": 0.12288145833333886
        },
        {
          "name": "E2",
          "midi": 40,
          "time": 68.51700625000004,
          "velocity": 1,
          "duration": 0.12288145833333886
        },
        {
          "name": "E2",
          "midi": 40,
          "time": 68.64412500000005,
          "velocity": 1,
          "duration": 0.12288145833333886
        },
        {
          "name": "E2",
          "midi": 40,
          "time": 68.89836250000005,
          "velocity": 1,
          "duration": 0.12288145833333886
        },
        {
          "name": "F#2",
          "midi": 42,
          "time": 69.15260000000005,
          "velocity": 1,
          "duration": 0.12288145833333886
        },
        {
          "name": "F#2",
          "midi": 42,
          "time": 69.40683750000005,
          "velocity": 1,
          "duration": 0.12288145833333886
        },
        {
          "name": "F#2",
          "midi": 42,
          "time": 69.53395625000006,
          "velocity": 1,
          "duration": 0.12288145833333886
        },
        {
          "name": "F#2",
          "midi": 42,
          "time": 69.66107500000007,
          "velocity": 1,
          "duration": 0.12288145833333886
        },
        {
          "name": "F#2",
          "midi": 42,
          "time": 69.91531250000007,
          "velocity": 1,
          "duration": 0.12288145833333886
        },
        {
          "name": "F#2",
          "midi": 42,
          "time": 70.04243125000008,
          "velocity": 1,
          "duration": 0.12288145833333886
        },
        {
          "name": "G#2",
          "midi": 44,
          "time": 70.16955000000009,
          "velocity": 1,
          "duration": 0.12288145833333886
        },
        {
          "name": "G#2",
          "midi": 44,
          "time": 70.42378750000009,
          "velocity": 1,
          "duration": 0.12288145833333886
        },
        {
          "name": "G#2",
          "midi": 44,
          "time": 70.5509062500001,
          "velocity": 1,
          "duration": 0.12288145833333886
        },
        {
          "name": "G#2",
          "midi": 44,
          "time": 70.6780250000001,
          "velocity": 1,
          "duration": 0.12288145833333886
        },
        {
          "name": "G#2",
          "midi": 44,
          "time": 70.9322625000001,
          "velocity": 1,
          "duration": 0.12288145833333886
        },
        {
          "name": "G#2",
          "midi": 44,
          "time": 71.05938125000011,
          "velocity": 1,
          "duration": 0.12288145833333886
        },
        {
          "name": "A2",
          "midi": 45,
          "time": 71.18650000000012,
          "velocity": 1,
          "duration": 0.12288145833333886
        },
        {
          "name": "A2",
          "midi": 45,
          "time": 71.44073750000013,
          "velocity": 1,
          "duration": 0.12288145833333886
        },
        {
          "name": "A2",
          "midi": 45,
          "time": 71.56785625000013,
          "velocity": 1,
          "duration": 0.12288145833333886
        },
        {
          "name": "A2",
          "midi": 45,
          "time": 71.69497500000014,
          "velocity": 1,
          "duration": 0.12288145833333886
        },
        {
          "name": "A2",
          "midi": 45,
          "time": 71.94921250000014,
          "velocity": 1,
          "duration": 0.12288145833333886
        },
        {
          "name": "A2",
          "midi": 45,
          "time": 72.07633125000015,
          "velocity": 1,
          "duration": 0.12288145833333886
        },
        {
          "name": "D3",
          "midi": 50,
          "time": 72.20345000000016,
          "velocity": 1,
          "duration": 0.12288145833333886
        },
        {
          "name": "D3",
          "midi": 50,
          "time": 72.45768750000016,
          "velocity": 1,
          "duration": 0.12288145833333886
        },
        {
          "name": "D3",
          "midi": 50,
          "time": 72.58480625000017,
          "velocity": 1,
          "duration": 0.12288145833333886
        },
        {
          "name": "D3",
          "midi": 50,
          "time": 72.71192500000018,
          "velocity": 1,
          "duration": 0.12288145833333886
        },
        {
          "name": "D3",
          "midi": 50,
          "time": 72.96616250000018,
          "velocity": 1,
          "duration": 0.12288145833333886
        },
        {
          "name": "D3",
          "midi": 50,
          "time": 73.09328125000019,
          "velocity": 1,
          "duration": 0.12288145833333886
        },
        {
          "name": "C#3",
          "midi": 49,
          "time": 73.2204000000002,
          "velocity": 1,
          "duration": 0.12288145833333886
        },
        {
          "name": "C#3",
          "midi": 49,
          "time": 73.4746375000002,
          "velocity": 1,
          "duration": 0.12288145833333886
        },
        {
          "name": "C#3",
          "midi": 49,
          "time": 73.60175625000021,
          "velocity": 1,
          "duration": 0.12288145833333886
        },
        {
          "name": "C#3",
          "midi": 49,
          "time": 73.72887500000022,
          "velocity": 1,
          "duration": 0.12288145833333886
        },
        {
          "name": "C#3",
          "midi": 49,
          "time": 73.98311250000022,
          "velocity": 1,
          "duration": 0.12288145833333886
        },
        {
          "name": "C#3",
          "midi": 49,
          "time": 74.11023125000023,
          "velocity": 1,
          "duration": 0.12288145833333886
        },
        {
          "name": "C#3",
          "midi": 49,
          "time": 74.23735000000023,
          "velocity": 1,
          "duration": 0.12288145833333886
        },
        {
          "name": "C#3",
          "midi": 49,
          "time": 74.49158750000024,
          "velocity": 1,
          "duration": 0.12288145833333886
        },
        {
          "name": "C#3",
          "midi": 49,
          "time": 74.61870625000024,
          "velocity": 1,
          "duration": 0.12288145833333886
        },
        {
          "name": "C#3",
          "midi": 49,
          "time": 74.74582500000025,
          "velocity": 1,
          "duration": 0.12288145833333886
        },
        {
          "name": "C#3",
          "midi": 49,
          "time": 75.00006250000025,
          "velocity": 1,
          "duration": 0.12288145833333886
        },
        {
          "name": "C#3",
          "midi": 49,
          "time": 75.12718125000026,
          "velocity": 1,
          "duration": 0.12288145833333886
        },
        {
          "name": "C#3",
          "midi": 49,
          "time": 75.25430000000027,
          "velocity": 1,
          "duration": 0.12288145833333886
        },
        {
          "name": "C#3",
          "midi": 49,
          "time": 75.50853750000027,
          "velocity": 1,
          "duration": 0.12288145833333886
        },
        {
          "name": "C#3",
          "midi": 49,
          "time": 75.63565625000028,
          "velocity": 1,
          "duration": 0.12288145833333886
        },
        {
          "name": "C#3",
          "midi": 49,
          "time": 75.76277500000029,
          "velocity": 1,
          "duration": 0.12288145833333886
        },
        {
          "name": "C#3",
          "midi": 49,
          "time": 76.01701250000029,
          "velocity": 1,
          "duration": 0.12288145833333886
        },
        {
          "name": "C#3",
          "midi": 49,
          "time": 76.1441312500003,
          "velocity": 1,
          "duration": 0.12288145833333886
        },
        {
          "name": "C#3",
          "midi": 49,
          "time": 76.27125000000031,
          "velocity": 1,
          "duration": 0.12288145833333886
        },
        {
          "name": "C#3",
          "midi": 49,
          "time": 76.52548750000031,
          "velocity": 1,
          "duration": 0.12288145833333886
        },
        {
          "name": "C#3",
          "midi": 49,
          "time": 76.65260625000032,
          "velocity": 1,
          "duration": 0.12288145833333886
        },
        {
          "name": "C#3",
          "midi": 49,
          "time": 76.77972500000033,
          "velocity": 1,
          "duration": 0.12288145833333886
        },
        {
          "name": "C#3",
          "midi": 49,
          "time": 77.03396250000033,
          "velocity": 1,
          "duration": 0.12288145833333886
        },
        {
          "name": "C#3",
          "midi": 49,
          "time": 77.16108125000034,
          "velocity": 1,
          "duration": 0.12288145833333886
        },
        {
          "name": "F#2",
          "midi": 42,
          "time": 77.32209833333367,
          "velocity": 1,
          "duration": 7.923735416666673
        },
        {
          "name": "F#2",
          "midi": 42,
          "time": 85.42380000000034,
          "velocity": 1,
          "duration": 6.101699999999994
        },
        {
          "name": "B2",
          "midi": 47,
          "time": 91.52550000000033,
          "velocity": 1,
          "duration": 2.0339000000000027
        },
        {
          "name": "F#2",
          "midi": 42,
          "time": 93.55940000000034,
          "velocity": 1,
          "duration": 5.08475
        },
        {
          "name": "G#2",
          "midi": 44,
          "time": 98.64415000000034,
          "velocity": 1,
          "duration": 1.0169499999999942
        },
        {
          "name": "A2",
          "midi": 45,
          "time": 99.66110000000033,
          "velocity": 1,
          "duration": 2.0339000000000027
        },
        {
          "name": "D3",
          "midi": 50,
          "time": 101.69500000000033,
          "velocity": 1,
          "duration": 0.12288145833333886
        },
        {
          "name": "D3",
          "midi": 50,
          "time": 101.94923750000034,
          "velocity": 1,
          "duration": 0.12288145833333886
        },
        {
          "name": "D3",
          "midi": 50,
          "time": 102.07635625000034,
          "velocity": 1,
          "duration": 0.12288145833333886
        },
        {
          "name": "D3",
          "midi": 50,
          "time": 102.20347500000035,
          "velocity": 1,
          "duration": 0.12288145833333886
        },
        {
          "name": "D3",
          "midi": 50,
          "time": 102.45771250000035,
          "velocity": 1,
          "duration": 0.12288145833333886
        },
        {
          "name": "D3",
          "midi": 50,
          "time": 102.58483125000036,
          "velocity": 1,
          "duration": 0.12288145833333886
        },
        {
          "name": "D3",
          "midi": 50,
          "time": 102.71195000000037,
          "velocity": 1,
          "duration": 0.12288145833333886
        },
        {
          "name": "D3",
          "midi": 50,
          "time": 102.96618750000037,
          "velocity": 1,
          "duration": 0.12288145833333886
        },
        {
          "name": "D3",
          "midi": 50,
          "time": 103.09330625000038,
          "velocity": 1,
          "duration": 0.12288145833333886
        },
        {
          "name": "D3",
          "midi": 50,
          "time": 103.22042500000039,
          "velocity": 1,
          "duration": 0.12288145833333886
        },
        {
          "name": "D3",
          "midi": 50,
          "time": 103.47466250000039,
          "velocity": 1,
          "duration": 0.12288145833333886
        },
        {
          "name": "D3",
          "midi": 50,
          "time": 103.6017812500004,
          "velocity": 1,
          "duration": 0.12288145833333886
        },
        {
          "name": "E3",
          "midi": 52,
          "time": 103.72890000000041,
          "velocity": 1,
          "duration": 0.12288145833333886
        },
        {
          "name": "E3",
          "midi": 52,
          "time": 103.98313750000041,
          "velocity": 1,
          "duration": 0.12288145833333886
        },
        {
          "name": "E3",
          "midi": 52,
          "time": 104.11025625000042,
          "velocity": 1,
          "duration": 0.12288145833333886
        },
        {
          "name": "E3",
          "midi": 52,
          "time": 104.23737500000043,
          "velocity": 1,
          "duration": 0.12288145833333886
        },
        {
          "name": "E3",
          "midi": 52,
          "time": 104.49161250000043,
          "velocity": 1,
          "duration": 0.12288145833333886
        },
        {
          "name": "E3",
          "midi": 52,
          "time": 104.61873125000044,
          "velocity": 1,
          "duration": 0.12288145833333886
        },
        {
          "name": "E3",
          "midi": 52,
          "time": 104.74585000000044,
          "velocity": 1,
          "duration": 0.12288145833333886
        },
        {
          "name": "E3",
          "midi": 52,
          "time": 105.00008750000045,
          "velocity": 1,
          "duration": 0.12288145833333886
        },
        {
          "name": "E3",
          "midi": 52,
          "time": 105.12720625000046,
          "velocity": 1,
          "duration": 0.12288145833333886
        },
        {
          "name": "E3",
          "midi": 52,
          "time": 105.25432500000046,
          "velocity": 1,
          "duration": 0.12288145833333886
        },
        {
          "name": "E3",
          "midi": 52,
          "time": 105.50856250000047,
          "velocity": 1,
          "duration": 0.12288145833333886
        },
        {
          "name": "E3",
          "midi": 52,
          "time": 105.63568125000047,
          "velocity": 1,
          "duration": 0.12288145833333886
        },
        {
          "name": "A2",
          "midi": 45,
          "time": 105.76280000000048,
          "velocity": 1,
          "duration": 0.12288145833333886
        },
        {
          "name": "A2",
          "midi": 45,
          "time": 106.01703750000048,
          "velocity": 1,
          "duration": 0.12288145833333886
        },
        {
          "name": "A2",
          "midi": 45,
          "time": 106.14415625000049,
          "velocity": 1,
          "duration": 0.12288145833333886
        },
        {
          "name": "A2",
          "midi": 45,
          "time": 106.2712750000005,
          "velocity": 1,
          "duration": 0.12288145833333886
        },
        {
          "name": "A2",
          "midi": 45,
          "time": 106.5255125000005,
          "velocity": 1,
          "duration": 0.12288145833333886
        },
        {
          "name": "A2",
          "midi": 45,
          "time": 106.65263125000051,
          "velocity": 1,
          "duration": 0.12288145833333886
        },
        {
          "name": "G#2",
          "midi": 44,
          "time": 106.77975000000052,
          "velocity": 1,
          "duration": 0.12288145833333886
        },
        {
          "name": "G#2",
          "midi": 44,
          "time": 107.03398750000052,
          "velocity": 1,
          "duration": 0.12288145833333886
        },
        {
          "name": "G#2",
          "midi": 44,
          "time": 107.16110625000053,
          "velocity": 1,
          "duration": 0.12288145833333886
        },
        {
          "name": "G#2",
          "midi": 44,
          "time": 107.28822500000054,
          "velocity": 1,
          "duration": 0.12288145833333886
        },
        {
          "name": "G#2",
          "midi": 44,
          "time": 107.54246250000054,
          "velocity": 1,
          "duration": 0.12288145833333886
        },
        {
          "name": "G#2",
          "midi": 44,
          "time": 107.66958125000055,
          "velocity": 1,
          "duration": 0.12288145833333886
        },
        {
          "name": "F#2",
          "midi": 42,
          "time": 107.79670000000056,
          "velocity": 1,
          "duration": 0.12288145833333886
        },
        {
          "name": "F#2",
          "midi": 42,
          "time": 108.05093750000056,
          "velocity": 1,
          "duration": 0.12288145833333886
        },
        {
          "name": "F#2",
          "midi": 42,
          "time": 108.17805625000057,
          "velocity": 1,
          "duration": 0.12288145833333886
        },
        {
          "name": "F#2",
          "midi": 42,
          "time": 108.30517500000057,
          "velocity": 1,
          "duration": 0.12288145833333886
        },
        {
          "name": "F#2",
          "midi": 42,
          "time": 108.55941250000058,
          "velocity": 1,
          "duration": 0.12288145833333886
        },
        {
          "name": "F#2",
          "midi": 42,
          "time": 108.68653125000058,
          "velocity": 1,
          "duration": 0.12288145833333886
        },
        {
          "name": "E2",
          "midi": 40,
          "time": 108.81365000000059,
          "velocity": 1,
          "duration": 0.12288145833333886
        },
        {
          "name": "E2",
          "midi": 40,
          "time": 109.0678875000006,
          "velocity": 1,
          "duration": 0.12288145833333886
        },
        {
          "name": "E2",
          "midi": 40,
          "time": 109.1950062500006,
          "velocity": 1,
          "duration": 0.12288145833333886
        },
        {
          "name": "E2",
          "midi": 40,
          "time": 109.32212500000061,
          "velocity": 1,
          "duration": 0.12288145833333886
        },
        {
          "name": "E2",
          "midi": 40,
          "time": 109.57636250000061,
          "velocity": 1,
          "duration": 0.12288145833333886
        },
        {
          "name": "E2",
          "midi": 40,
          "time": 109.70348125000062,
          "velocity": 1,
          "duration": 0.12288145833333886
        },
        {
          "name": "D3",
          "midi": 50,
          "time": 109.83060000000063,
          "velocity": 1,
          "duration": 0.12288145833333886
        },
        {
          "name": "D3",
          "midi": 50,
          "time": 110.08483750000063,
          "velocity": 1,
          "duration": 0.12288145833333886
        },
        {
          "name": "D3",
          "midi": 50,
          "time": 110.21195625000064,
          "velocity": 1,
          "duration": 0.12288145833333886
        },
        {
          "name": "D3",
          "midi": 50,
          "time": 110.33907500000065,
          "velocity": 1,
          "duration": 0.12288145833333886
        },
        {
          "name": "D3",
          "midi": 50,
          "time": 110.59331250000065,
          "velocity": 1,
          "duration": 0.12288145833333886
        },
        {
          "name": "D3",
          "midi": 50,
          "time": 110.72043125000066,
          "velocity": 1,
          "duration": 0.12288145833333886
        },
        {
          "name": "D3",
          "midi": 50,
          "time": 110.84755000000067,
          "velocity": 1,
          "duration": 0.12288145833333886
        },
        {
          "name": "D3",
          "midi": 50,
          "time": 111.10178750000067,
          "velocity": 1,
          "duration": 0.12288145833333886
        },
        {
          "name": "D3",
          "midi": 50,
          "time": 111.22890625000068,
          "velocity": 1,
          "duration": 0.12288145833333886
        },
        {
          "name": "D3",
          "midi": 50,
          "time": 111.35602500000068,
          "velocity": 1,
          "duration": 0.12288145833333886
        },
        {
          "name": "D3",
          "midi": 50,
          "time": 111.61026250000069,
          "velocity": 1,
          "duration": 0.12288145833333886
        },
        {
          "name": "D3",
          "midi": 50,
          "time": 111.7373812500007,
          "velocity": 1,
          "duration": 0.12288145833333886
        },
        {
          "name": "C#3",
          "midi": 49,
          "time": 111.8645000000007,
          "velocity": 1,
          "duration": 0.12288145833333886
        },
        {
          "name": "C#3",
          "midi": 49,
          "time": 112.1187375000007,
          "velocity": 1,
          "duration": 0.12288145833333886
        },
        {
          "name": "C#3",
          "midi": 49,
          "time": 112.24585625000071,
          "velocity": 1,
          "duration": 0.12288145833333886
        },
        {
          "name": "C#3",
          "midi": 49,
          "time": 112.37297500000072,
          "velocity": 1,
          "duration": 0.12288145833333886
        },
        {
          "name": "C#3",
          "midi": 49,
          "time": 112.62721250000072,
          "velocity": 1,
          "duration": 0.12288145833333886
        },
        {
          "name": "C#3",
          "midi": 49,
          "time": 112.75433125000073,
          "velocity": 1,
          "duration": 0.12288145833333886
        },
        {
          "name": "C#3",
          "midi": 49,
          "time": 112.88145000000074,
          "velocity": 1,
          "duration": 0.12288145833333886
        },
        {
          "name": "C#3",
          "midi": 49,
          "time": 113.13568750000074,
          "velocity": 1,
          "duration": 0.12288145833333886
        },
        {
          "name": "C#3",
          "midi": 49,
          "time": 113.26280625000075,
          "velocity": 1,
          "duration": 0.12288145833333886
        },
        {
          "name": "C#3",
          "midi": 49,
          "time": 113.38992500000076,
          "velocity": 1,
          "duration": 0.12288145833333886
        },
        {
          "name": "C#3",
          "midi": 49,
          "time": 113.64416250000076,
          "velocity": 1,
          "duration": 0.12288145833333886
        },
        {
          "name": "C#3",
          "midi": 49,
          "time": 113.77128125000077,
          "velocity": 1,
          "duration": 0.12288145833333886
        },
        {
          "name": "E3",
          "midi": 52,
          "time": 114.15263750000078,
          "velocity": 1,
          "duration": 0.11016958333333093
        },
        {
          "name": "E3",
          "midi": 52,
          "time": 114.40687500000078,
          "velocity": 1,
          "duration": 0.36864437500000236
        },
        {
          "name": "E3",
          "midi": 52,
          "time": 114.91535000000079,
          "velocity": 1,
          "duration": 0.13135604166666326
        },
        {
          "name": "E3",
          "midi": 52,
          "time": 115.16958750000079,
          "velocity": 1,
          "duration": 0.37711895833332676
        },
        {
          "name": "E3",
          "midi": 52,
          "time": 115.67806250000078,
          "velocity": 1,
          "duration": 0.6822039583333321
        },
        {
          "name": "F#2",
          "midi": 42,
          "time": 117.96620000000078,
          "velocity": 1,
          "duration": 0.12288145833333886
        },
        {
          "name": "F#2",
          "midi": 42,
          "time": 118.22043750000078,
          "velocity": 1,
          "duration": 0.12288145833333886
        },
        {
          "name": "F#2",
          "midi": 42,
          "time": 118.34755625000079,
          "velocity": 1,
          "duration": 0.12288145833333886
        },
        {
          "name": "F#2",
          "midi": 42,
          "time": 118.4746750000008,
          "velocity": 1,
          "duration": 0.12288145833333886
        },
        {
          "name": "F#2",
          "midi": 42,
          "time": 118.7289125000008,
          "velocity": 1,
          "duration": 0.12288145833333886
        },
        {
          "name": "F#2",
          "midi": 42,
          "time": 118.85603125000081,
          "velocity": 1,
          "duration": 0.12288145833333886
        },
        {
          "name": "F#2",
          "midi": 42,
          "time": 118.98315000000082,
          "velocity": 1,
          "duration": 0.12288145833333886
        },
        {
          "name": "F#2",
          "midi": 42,
          "time": 119.23738750000082,
          "velocity": 1,
          "duration": 0.12288145833333886
        },
        {
          "name": "F#2",
          "midi": 42,
          "time": 119.36450625000083,
          "velocity": 1,
          "duration": 0.12288145833333886
        },
        {
          "name": "F#2",
          "midi": 42,
          "time": 119.49162500000084,
          "velocity": 1,
          "duration": 0.12288145833333886
        },
        {
          "name": "F#2",
          "midi": 42,
          "time": 119.74586250000084,
          "velocity": 1,
          "duration": 0.12288145833333886
        },
        {
          "name": "D2",
          "midi": 38,
          "time": 120.00010000000084,
          "velocity": 1,
          "duration": 0.12288145833333886
        },
        {
          "name": "D2",
          "midi": 38,
          "time": 120.25433750000084,
          "velocity": 1,
          "duration": 0.12288145833333886
        },
        {
          "name": "D2",
          "midi": 38,
          "time": 120.38145625000085,
          "velocity": 1,
          "duration": 0.12288145833333886
        },
        {
          "name": "D2",
          "midi": 38,
          "time": 120.50857500000086,
          "velocity": 1,
          "duration": 0.12288145833333886
        },
        {
          "name": "D2",
          "midi": 38,
          "time": 120.76281250000086,
          "velocity": 1,
          "duration": 0.12288145833333886
        },
        {
          "name": "D2",
          "midi": 38,
          "time": 120.88993125000087,
          "velocity": 1,
          "duration": 0.12288145833333886
        },
        {
          "name": "D2",
          "midi": 38,
          "time": 121.01705000000088,
          "velocity": 1,
          "duration": 0.12288145833333886
        },
        {
          "name": "D2",
          "midi": 38,
          "time": 121.27128750000088,
          "velocity": 1,
          "duration": 0.12288145833333886
        },
        {
          "name": "D2",
          "midi": 38,
          "time": 121.39840625000089,
          "velocity": 1,
          "duration": 0.12288145833333886
        },
        {
          "name": "D2",
          "midi": 38,
          "time": 121.5255250000009,
          "velocity": 1,
          "duration": 0.12288145833333886
        },
        {
          "name": "D2",
          "midi": 38,
          "time": 121.7797625000009,
          "velocity": 1,
          "duration": 0.12288145833333886
        },
        {
          "name": "B2",
          "midi": 47,
          "time": 122.0340000000009,
          "velocity": 1,
          "duration": 0.12288145833333886
        },
        {
          "name": "B2",
          "midi": 47,
          "time": 122.2882375000009,
          "velocity": 1,
          "duration": 0.12288145833333886
        },
        {
          "name": "B2",
          "midi": 47,
          "time": 122.41535625000091,
          "velocity": 1,
          "duration": 0.12288145833333886
        },
        {
          "name": "B2",
          "midi": 47,
          "time": 122.54247500000092,
          "velocity": 1,
          "duration": 0.12288145833333886
        },
        {
          "name": "B2",
          "midi": 47,
          "time": 122.79671250000092,
          "velocity": 1,
          "duration": 0.12288145833333886
        },
        {
          "name": "B2",
          "midi": 47,
          "time": 122.92383125000093,
          "velocity": 1,
          "duration": 0.12288145833333886
        },
        {
          "name": "B2",
          "midi": 47,
          "time": 123.05095000000094,
          "velocity": 1,
          "duration": 0.12288145833333886
        },
        {
          "name": "B2",
          "midi": 47,
          "time": 123.30518750000094,
          "velocity": 1,
          "duration": 0.12288145833333886
        },
        {
          "name": "B2",
          "midi": 47,
          "time": 123.43230625000095,
          "velocity": 1,
          "duration": 0.12288145833333886
        },
        {
          "name": "B2",
          "midi": 47,
          "time": 123.55942500000096,
          "velocity": 1,
          "duration": 0.12288145833333886
        },
        {
          "name": "B2",
          "midi": 47,
          "time": 123.81366250000096,
          "velocity": 1,
          "duration": 0.12288145833333886
        },
        {
          "name": "E2",
          "midi": 40,
          "time": 124.06790000000096,
          "velocity": 1,
          "duration": 0.12288145833333886
        },
        {
          "name": "E2",
          "midi": 40,
          "time": 124.32213750000096,
          "velocity": 1,
          "duration": 0.12288145833333886
        },
        {
          "name": "E2",
          "midi": 40,
          "time": 124.44925625000097,
          "velocity": 1,
          "duration": 0.12288145833333886
        },
        {
          "name": "E2",
          "midi": 40,
          "time": 124.57637500000098,
          "velocity": 1,
          "duration": 0.12288145833333886
        },
        {
          "name": "E2",
          "midi": 40,
          "time": 124.83061250000098,
          "velocity": 1,
          "duration": 0.12288145833333886
        },
        {
          "name": "E2",
          "midi": 40,
          "time": 124.95773125000099,
          "velocity": 1,
          "duration": 0.12288145833333886
        },
        {
          "name": "E2",
          "midi": 40,
          "time": 125.084850000001,
          "velocity": 1,
          "duration": 0.12288145833333886
        },
        {
          "name": "E2",
          "midi": 40,
          "time": 125.339087500001,
          "velocity": 1,
          "duration": 0.12288145833333886
        },
        {
          "name": "E2",
          "midi": 40,
          "time": 125.46620625000101,
          "velocity": 1,
          "duration": 0.12288145833333886
        },
        {
          "name": "E2",
          "midi": 40,
          "time": 125.59332500000102,
          "velocity": 1,
          "duration": 0.12288145833333886
        },
        {
          "name": "E2",
          "midi": 40,
          "time": 125.84756250000102,
          "velocity": 1,
          "duration": 0.12288145833333886
        },
        {
          "name": "F#2",
          "midi": 42,
          "time": 126.10180000000102,
          "velocity": 1,
          "duration": 0.12288145833333886
        },
        {
          "name": "F#2",
          "midi": 42,
          "time": 126.35603750000102,
          "velocity": 1,
          "duration": 0.12288145833333886
        },
        {
          "name": "F#2",
          "midi": 42,
          "time": 126.48315625000103,
          "velocity": 1,
          "duration": 0.12288145833333886
        },
        {
          "name": "F#2",
          "midi": 42,
          "time": 126.61027500000104,
          "velocity": 1,
          "duration": 0.12288145833333886
        },
        {
          "name": "F#2",
          "midi": 42,
          "time": 126.86451250000104,
          "velocity": 1,
          "duration": 0.12288145833333886
        },
        {
          "name": "F#2",
          "midi": 42,
          "time": 126.99163125000105,
          "velocity": 1,
          "duration": 0.12288145833333886
        },
        {
          "name": "F#2",
          "midi": 42,
          "time": 127.11875000000106,
          "velocity": 1,
          "duration": 0.12288145833333886
        },
        {
          "name": "F#2",
          "midi": 42,
          "time": 127.37298750000106,
          "velocity": 1,
          "duration": 0.12288145833333886
        },
        {
          "name": "F#2",
          "midi": 42,
          "time": 127.50010625000107,
          "velocity": 1,
          "duration": 0.12288145833333886
        },
        {
          "name": "F#2",
          "midi": 42,
          "time": 127.62722500000108,
          "velocity": 1,
          "duration": 0.12288145833333886
        },
        {
          "name": "F#2",
          "midi": 42,
          "time": 127.88146250000108,
          "velocity": 1,
          "duration": 0.12288145833332464
        },
        {
          "name": "D2",
          "midi": 38,
          "time": 128.13570000000107,
          "velocity": 1,
          "duration": 0.12288145833332464
        },
        {
          "name": "D2",
          "midi": 38,
          "time": 128.38993750000105,
          "velocity": 1,
          "duration": 0.12288145833332464
        },
        {
          "name": "D2",
          "midi": 38,
          "time": 128.51705625000105,
          "velocity": 1,
          "duration": 0.12288145833332464
        },
        {
          "name": "D2",
          "midi": 38,
          "time": 128.64417500000104,
          "velocity": 1,
          "duration": 0.12288145833332464
        },
        {
          "name": "D2",
          "midi": 38,
          "time": 128.89841250000103,
          "velocity": 1,
          "duration": 0.12288145833332464
        },
        {
          "name": "D2",
          "midi": 38,
          "time": 129.02553125000102,
          "velocity": 1,
          "duration": 0.12288145833332464
        },
        {
          "name": "D2",
          "midi": 38,
          "time": 129.15265000000102,
          "velocity": 1,
          "duration": 0.12288145833332464
        },
        {
          "name": "D2",
          "midi": 38,
          "time": 129.406887500001,
          "velocity": 1,
          "duration": 0.12288145833332464
        },
        {
          "name": "D2",
          "midi": 38,
          "time": 129.534006250001,
          "velocity": 1,
          "duration": 0.12288145833332464
        },
        {
          "name": "D2",
          "midi": 38,
          "time": 129.661125000001,
          "velocity": 1,
          "duration": 0.12288145833332464
        },
        {
          "name": "D2",
          "midi": 38,
          "time": 129.91536250000098,
          "velocity": 1,
          "duration": 0.12288145833332464
        },
        {
          "name": "B2",
          "midi": 47,
          "time": 130.16960000000097,
          "velocity": 1,
          "duration": 0.12288145833332464
        },
        {
          "name": "B2",
          "midi": 47,
          "time": 130.42383750000096,
          "velocity": 1,
          "duration": 0.12288145833332464
        },
        {
          "name": "B2",
          "midi": 47,
          "time": 130.55095625000095,
          "velocity": 1,
          "duration": 0.12288145833332464
        },
        {
          "name": "B2",
          "midi": 47,
          "time": 130.67807500000094,
          "velocity": 1,
          "duration": 0.12288145833332464
        },
        {
          "name": "B2",
          "midi": 47,
          "time": 130.93231250000093,
          "velocity": 1,
          "duration": 0.12288145833332464
        },
        {
          "name": "B2",
          "midi": 47,
          "time": 131.05943125000093,
          "velocity": 1,
          "duration": 0.12288145833332464
        },
        {
          "name": "B2",
          "midi": 47,
          "time": 131.18655000000092,
          "velocity": 1,
          "duration": 0.12288145833332464
        },
        {
          "name": "B2",
          "midi": 47,
          "time": 131.4407875000009,
          "velocity": 1,
          "duration": 0.12288145833332464
        },
        {
          "name": "B2",
          "midi": 47,
          "time": 131.5679062500009,
          "velocity": 1,
          "duration": 0.12288145833332464
        },
        {
          "name": "B2",
          "midi": 47,
          "time": 131.6950250000009,
          "velocity": 1,
          "duration": 0.12288145833332464
        },
        {
          "name": "B2",
          "midi": 47,
          "time": 131.94926250000088,
          "velocity": 1,
          "duration": 0.12288145833332464
        },
        {
          "name": "E2",
          "midi": 40,
          "time": 132.20350000000087,
          "velocity": 1,
          "duration": 0.12288145833332464
        },
        {
          "name": "E2",
          "midi": 40,
          "time": 132.45773750000086,
          "velocity": 1,
          "duration": 0.12288145833332464
        },
        {
          "name": "E2",
          "midi": 40,
          "time": 132.58485625000085,
          "velocity": 1,
          "duration": 0.12288145833332464
        },
        {
          "name": "E2",
          "midi": 40,
          "time": 132.71197500000085,
          "velocity": 1,
          "duration": 0.12288145833332464
        },
        {
          "name": "E2",
          "midi": 40,
          "time": 132.96621250000084,
          "velocity": 1,
          "duration": 0.12288145833332464
        },
        {
          "name": "E2",
          "midi": 40,
          "time": 133.09333125000083,
          "velocity": 1,
          "duration": 0.12288145833332464
        },
        {
          "name": "E2",
          "midi": 40,
          "time": 133.22045000000082,
          "velocity": 1,
          "duration": 0.12288145833332464
        },
        {
          "name": "E2",
          "midi": 40,
          "time": 133.4746875000008,
          "velocity": 1,
          "duration": 0.12288145833332464
        },
        {
          "name": "E2",
          "midi": 40,
          "time": 133.6018062500008,
          "velocity": 1,
          "duration": 0.12288145833332464
        },
        {
          "name": "E2",
          "midi": 40,
          "time": 133.7289250000008,
          "velocity": 1,
          "duration": 0.12288145833332464
        },
        {
          "name": "E2",
          "midi": 40,
          "time": 133.9831625000008,
          "velocity": 1,
          "duration": 0.12288145833332464
        },
        {
          "name": "F#2",
          "midi": 42,
          "time": 134.23740000000078,
          "velocity": 1,
          "duration": 6.101699999999994
        },
        {
          "name": "B2",
          "midi": 47,
          "time": 140.33910000000077,
          "velocity": 1,
          "duration": 2.0338999999999885
        },
        {
          "name": "F#2",
          "midi": 42,
          "time": 142.37300000000076,
          "velocity": 1,
          "duration": 5.084750000000014
        },
        {
          "name": "G#2",
          "midi": 44,
          "time": 147.45775000000077,
          "velocity": 1,
          "duration": 1.0169500000000085
        },
        {
          "name": "A2",
          "midi": 45,
          "time": 148.47470000000078,
          "velocity": 1,
          "duration": 2.0338999999999885
        },
        {
          "name": "D3",
          "midi": 50,
          "time": 150.50860000000077,
          "velocity": 1,
          "duration": 0.12288145833332464
        },
        {
          "name": "D3",
          "midi": 50,
          "time": 150.76283750000076,
          "velocity": 1,
          "duration": 0.12288145833332464
        },
        {
          "name": "D3",
          "midi": 50,
          "time": 150.88995625000075,
          "velocity": 1,
          "duration": 0.12288145833332464
        },
        {
          "name": "D3",
          "midi": 50,
          "time": 151.01707500000074,
          "velocity": 1,
          "duration": 0.12288145833332464
        },
        {
          "name": "D3",
          "midi": 50,
          "time": 151.27131250000073,
          "velocity": 1,
          "duration": 0.12288145833332464
        },
        {
          "name": "D3",
          "midi": 50,
          "time": 151.39843125000073,
          "velocity": 1,
          "duration": 0.12288145833332464
        },
        {
          "name": "D3",
          "midi": 50,
          "time": 151.52555000000072,
          "velocity": 1,
          "duration": 0.12288145833332464
        },
        {
          "name": "D3",
          "midi": 50,
          "time": 151.7797875000007,
          "velocity": 1,
          "duration": 0.12288145833332464
        },
        {
          "name": "D3",
          "midi": 50,
          "time": 151.9069062500007,
          "velocity": 1,
          "duration": 0.12288145833332464
        },
        {
          "name": "D3",
          "midi": 50,
          "time": 152.0340250000007,
          "velocity": 1,
          "duration": 0.12288145833332464
        },
        {
          "name": "D3",
          "midi": 50,
          "time": 152.28826250000068,
          "velocity": 1,
          "duration": 0.12288145833332464
        },
        {
          "name": "D3",
          "midi": 50,
          "time": 152.41538125000068,
          "velocity": 1,
          "duration": 0.12288145833332464
        },
        {
          "name": "E3",
          "midi": 52,
          "time": 152.54250000000067,
          "velocity": 1,
          "duration": 0.12288145833332464
        },
        {
          "name": "E3",
          "midi": 52,
          "time": 152.79673750000066,
          "velocity": 1,
          "duration": 0.12288145833332464
        },
        {
          "name": "E3",
          "midi": 52,
          "time": 152.92385625000065,
          "velocity": 1,
          "duration": 0.12288145833332464
        },
        {
          "name": "E3",
          "midi": 52,
          "time": 153.05097500000065,
          "velocity": 1,
          "duration": 0.12288145833332464
        },
        {
          "name": "E3",
          "midi": 52,
          "time": 153.30521250000064,
          "velocity": 1,
          "duration": 0.12288145833332464
        },
        {
          "name": "E3",
          "midi": 52,
          "time": 153.43233125000063,
          "velocity": 1,
          "duration": 0.12288145833332464
        },
        {
          "name": "E3",
          "midi": 52,
          "time": 153.55945000000062,
          "velocity": 1,
          "duration": 0.12288145833332464
        },
        {
          "name": "E3",
          "midi": 52,
          "time": 153.8136875000006,
          "velocity": 1,
          "duration": 0.12288145833332464
        },
        {
          "name": "E3",
          "midi": 52,
          "time": 153.9408062500006,
          "velocity": 1,
          "duration": 0.12288145833332464
        },
        {
          "name": "E3",
          "midi": 52,
          "time": 154.0679250000006,
          "velocity": 1,
          "duration": 0.12288145833332464
        },
        {
          "name": "E3",
          "midi": 52,
          "time": 154.3221625000006,
          "velocity": 1,
          "duration": 0.12288145833332464
        },
        {
          "name": "E3",
          "midi": 52,
          "time": 154.44928125000058,
          "velocity": 1,
          "duration": 0.12288145833332464
        },
        {
          "name": "A2",
          "midi": 45,
          "time": 154.57640000000058,
          "velocity": 1,
          "duration": 0.12288145833332464
        },
        {
          "name": "A2",
          "midi": 45,
          "time": 154.83063750000056,
          "velocity": 1,
          "duration": 0.12288145833332464
        },
        {
          "name": "A2",
          "midi": 45,
          "time": 154.95775625000056,
          "velocity": 1,
          "duration": 0.12288145833332464
        },
        {
          "name": "A2",
          "midi": 45,
          "time": 155.08487500000055,
          "velocity": 1,
          "duration": 0.12288145833332464
        },
        {
          "name": "A2",
          "midi": 45,
          "time": 155.33911250000054,
          "velocity": 1,
          "duration": 0.12288145833332464
        },
        {
          "name": "A2",
          "midi": 45,
          "time": 155.46623125000053,
          "velocity": 1,
          "duration": 0.12288145833332464
        },
        {
          "name": "G#2",
          "midi": 44,
          "time": 155.59335000000053,
          "velocity": 1,
          "duration": 0.12288145833332464
        },
        {
          "name": "G#2",
          "midi": 44,
          "time": 155.84758750000051,
          "velocity": 1,
          "duration": 0.12288145833332464
        },
        {
          "name": "G#2",
          "midi": 44,
          "time": 155.9747062500005,
          "velocity": 1,
          "duration": 0.12288145833332464
        },
        {
          "name": "G#2",
          "midi": 44,
          "time": 156.1018250000005,
          "velocity": 1,
          "duration": 0.12288145833332464
        },
        {
          "name": "G#2",
          "midi": 44,
          "time": 156.3560625000005,
          "velocity": 1,
          "duration": 0.12288145833332464
        },
        {
          "name": "G#2",
          "midi": 44,
          "time": 156.48318125000048,
          "velocity": 1,
          "duration": 0.12288145833332464
        },
        {
          "name": "F#2",
          "midi": 42,
          "time": 156.61030000000048,
          "velocity": 1,
          "duration": 0.12288145833332464
        },
        {
          "name": "F#2",
          "midi": 42,
          "time": 156.86453750000047,
          "velocity": 1,
          "duration": 0.12288145833332464
        },
        {
          "name": "F#2",
          "midi": 42,
          "time": 156.99165625000046,
          "velocity": 1,
          "duration": 0.12288145833332464
        },
        {
          "name": "F#2",
          "midi": 42,
          "time": 157.11877500000045,
          "velocity": 1,
          "duration": 0.12288145833332464
        },
        {
          "name": "F#2",
          "midi": 42,
          "time": 157.37301250000044,
          "velocity": 1,
          "duration": 0.12288145833332464
        },
        {
          "name": "F#2",
          "midi": 42,
          "time": 157.50013125000044,
          "velocity": 1,
          "duration": 0.12288145833332464
        },
        {
          "name": "E2",
          "midi": 40,
          "time": 157.62725000000043,
          "velocity": 1,
          "duration": 0.12288145833332464
        },
        {
          "name": "E2",
          "midi": 40,
          "time": 157.88148750000042,
          "velocity": 1,
          "duration": 0.12288145833332464
        },
        {
          "name": "E2",
          "midi": 40,
          "time": 158.0086062500004,
          "velocity": 1,
          "duration": 0.12288145833332464
        },
        {
          "name": "E2",
          "midi": 40,
          "time": 158.1357250000004,
          "velocity": 1,
          "duration": 0.12288145833332464
        },
        {
          "name": "E2",
          "midi": 40,
          "time": 158.3899625000004,
          "velocity": 1,
          "duration": 0.12288145833332464
        },
        {
          "name": "E2",
          "midi": 40,
          "time": 158.5170812500004,
          "velocity": 1,
          "duration": 0.12288145833332464
        },
        {
          "name": "D3",
          "midi": 50,
          "time": 158.64420000000038,
          "velocity": 1,
          "duration": 0.12288145833332464
        },
        {
          "name": "D3",
          "midi": 50,
          "time": 158.89843750000037,
          "velocity": 1,
          "duration": 0.12288145833332464
        },
        {
          "name": "D3",
          "midi": 50,
          "time": 159.02555625000036,
          "velocity": 1,
          "duration": 0.12288145833332464
        },
        {
          "name": "D3",
          "midi": 50,
          "time": 159.15267500000036,
          "velocity": 1,
          "duration": 0.12288145833332464
        },
        {
          "name": "D3",
          "midi": 50,
          "time": 159.40691250000035,
          "velocity": 1,
          "duration": 0.12288145833332464
        },
        {
          "name": "D3",
          "midi": 50,
          "time": 159.53403125000034,
          "velocity": 1,
          "duration": 0.12288145833332464
        },
        {
          "name": "D3",
          "midi": 50,
          "time": 159.66115000000033,
          "velocity": 1,
          "duration": 0.12288145833332464
        },
        {
          "name": "D3",
          "midi": 50,
          "time": 159.91538750000032,
          "velocity": 1,
          "duration": 0.12288145833332464
        },
        {
          "name": "D3",
          "midi": 50,
          "time": 160.04250625000032,
          "velocity": 1,
          "duration": 0.12288145833332464
        },
        {
          "name": "D3",
          "midi": 50,
          "time": 160.1696250000003,
          "velocity": 1,
          "duration": 0.12288145833332464
        },
        {
          "name": "D3",
          "midi": 50,
          "time": 160.4238625000003,
          "velocity": 1,
          "duration": 0.12288145833332464
        },
        {
          "name": "D3",
          "midi": 50,
          "time": 160.5509812500003,
          "velocity": 1,
          "duration": 0.12288145833332464
        },
        {
          "name": "C#3",
          "midi": 49,
          "time": 160.67810000000028,
          "velocity": 1,
          "duration": 0.12288145833332464
        },
        {
          "name": "C#3",
          "midi": 49,
          "time": 160.93233750000027,
          "velocity": 1,
          "duration": 0.12288145833332464
        },
        {
          "name": "C#3",
          "midi": 49,
          "time": 161.05945625000027,
          "velocity": 1,
          "duration": 0.12288145833332464
        },
        {
          "name": "C#3",
          "midi": 49,
          "time": 161.18657500000026,
          "velocity": 1,
          "duration": 0.12288145833332464
        },
        {
          "name": "C#3",
          "midi": 49,
          "time": 161.44081250000025,
          "velocity": 1,
          "duration": 0.12288145833332464
        },
        {
          "name": "C#3",
          "midi": 49,
          "time": 161.56793125000024,
          "velocity": 1,
          "duration": 0.12288145833332464
        },
        {
          "name": "C#3",
          "midi": 49,
          "time": 161.69505000000024,
          "velocity": 1,
          "duration": 0.12288145833332464
        },
        {
          "name": "C#3",
          "midi": 49,
          "time": 161.94928750000022,
          "velocity": 1,
          "duration": 0.12288145833332464
        },
        {
          "name": "C#3",
          "midi": 49,
          "time": 162.07640625000022,
          "velocity": 1,
          "duration": 0.12288145833332464
        },
        {
          "name": "C#3",
          "midi": 49,
          "time": 162.2035250000002,
          "velocity": 1,
          "duration": 0.12288145833332464
        },
        {
          "name": "C#3",
          "midi": 49,
          "time": 162.4577625000002,
          "velocity": 1,
          "duration": 0.12288145833332464
        },
        {
          "name": "C#3",
          "midi": 49,
          "time": 162.5848812500002,
          "velocity": 1,
          "duration": 0.12288145833332464
        },
        {
          "name": "E3",
          "midi": 52,
          "time": 162.96623750000018,
          "velocity": 1,
          "duration": 0.11016958333334514
        },
        {
          "name": "E3",
          "midi": 52,
          "time": 163.2204750000002,
          "velocity": 1,
          "duration": 0.36864437500000236
        },
        {
          "name": "E3",
          "midi": 52,
          "time": 163.7289500000002,
          "velocity": 1,
          "duration": 0.13135604166666326
        },
        {
          "name": "E3",
          "midi": 52,
          "time": 163.98318750000018,
          "velocity": 1,
          "duration": 0.37711895833334097
        },
        {
          "name": "E3",
          "midi": 52,
          "time": 164.4916625000002,
          "velocity": 1,
          "duration": 0.6822039583333321
        },
        {
          "name": "F#2",
          "midi": 42,
          "time": 166.7798000000002,
          "velocity": 1,
          "duration": 0.12288145833332464
        },
        {
          "name": "F#2",
          "midi": 42,
          "time": 167.03403750000018,
          "velocity": 1,
          "duration": 0.12288145833332464
        },
        {
          "name": "F#2",
          "midi": 42,
          "time": 167.16115625000018,
          "velocity": 1,
          "duration": 0.12288145833332464
        },
        {
          "name": "F#2",
          "midi": 42,
          "time": 167.28827500000017,
          "velocity": 1,
          "duration": 0.12288145833332464
        },
        {
          "name": "F#2",
          "midi": 42,
          "time": 167.54251250000016,
          "velocity": 1,
          "duration": 0.12288145833332464
        },
        {
          "name": "F#2",
          "midi": 42,
          "time": 167.66963125000015,
          "velocity": 1,
          "duration": 0.12288145833332464
        },
        {
          "name": "F#2",
          "midi": 42,
          "time": 167.79675000000015,
          "velocity": 1,
          "duration": 0.12288145833332464
        },
        {
          "name": "F#2",
          "midi": 42,
          "time": 168.05098750000013,
          "velocity": 1,
          "duration": 0.12288145833332464
        },
        {
          "name": "F#2",
          "midi": 42,
          "time": 168.17810625000013,
          "velocity": 1,
          "duration": 0.12288145833332464
        },
        {
          "name": "F#2",
          "midi": 42,
          "time": 168.30522500000012,
          "velocity": 1,
          "duration": 0.12288145833332464
        },
        {
          "name": "F#2",
          "midi": 42,
          "time": 168.5594625000001,
          "velocity": 1,
          "duration": 0.12288145833332464
        },
        {
          "name": "D2",
          "midi": 38,
          "time": 168.8137000000001,
          "velocity": 1,
          "duration": 0.12288145833332464
        },
        {
          "name": "D2",
          "midi": 38,
          "time": 169.06793750000008,
          "velocity": 1,
          "duration": 0.12288145833332464
        },
        {
          "name": "D2",
          "midi": 38,
          "time": 169.19505625000008,
          "velocity": 1,
          "duration": 0.12288145833332464
        },
        {
          "name": "D2",
          "midi": 38,
          "time": 169.32217500000007,
          "velocity": 1,
          "duration": 0.12288145833332464
        },
        {
          "name": "D2",
          "midi": 38,
          "time": 169.57641250000006,
          "velocity": 1,
          "duration": 0.12288145833332464
        },
        {
          "name": "D2",
          "midi": 38,
          "time": 169.70353125000005,
          "velocity": 1,
          "duration": 0.12288145833332464
        },
        {
          "name": "D2",
          "midi": 38,
          "time": 169.83065000000005,
          "velocity": 1,
          "duration": 0.12288145833332464
        },
        {
          "name": "D2",
          "midi": 38,
          "time": 170.08488750000004,
          "velocity": 1,
          "duration": 0.12288145833332464
        },
        {
          "name": "D2",
          "midi": 38,
          "time": 170.21200625000003,
          "velocity": 1,
          "duration": 0.12288145833332464
        },
        {
          "name": "D2",
          "midi": 38,
          "time": 170.33912500000002,
          "velocity": 1,
          "duration": 0.12288145833332464
        },
        {
          "name": "D2",
          "midi": 38,
          "time": 170.5933625,
          "velocity": 1,
          "duration": 0.12288145833332464
        },
        {
          "name": "B2",
          "midi": 47,
          "time": 170.8476,
          "velocity": 1,
          "duration": 0.12288145833332464
        },
        {
          "name": "B2",
          "midi": 47,
          "time": 171.1018375,
          "velocity": 1,
          "duration": 0.12288145833332464
        },
        {
          "name": "B2",
          "midi": 47,
          "time": 171.22895624999998,
          "velocity": 1,
          "duration": 0.12288145833332464
        },
        {
          "name": "B2",
          "midi": 47,
          "time": 171.35607499999998,
          "velocity": 1,
          "duration": 0.12288145833332464
        },
        {
          "name": "B2",
          "midi": 47,
          "time": 171.61031249999996,
          "velocity": 1,
          "duration": 0.12288145833332464
        },
        {
          "name": "B2",
          "midi": 47,
          "time": 171.73743124999996,
          "velocity": 1,
          "duration": 0.12288145833332464
        },
        {
          "name": "B2",
          "midi": 47,
          "time": 171.86454999999995,
          "velocity": 1,
          "duration": 0.12288145833332464
        },
        {
          "name": "B2",
          "midi": 47,
          "time": 172.11878749999994,
          "velocity": 1,
          "duration": 0.12288145833332464
        },
        {
          "name": "B2",
          "midi": 47,
          "time": 172.24590624999993,
          "velocity": 1,
          "duration": 0.12288145833332464
        },
        {
          "name": "B2",
          "midi": 47,
          "time": 172.37302499999993,
          "velocity": 1,
          "duration": 0.12288145833332464
        },
        {
          "name": "B2",
          "midi": 47,
          "time": 172.62726249999992,
          "velocity": 1,
          "duration": 0.12288145833332464
        },
        {
          "name": "E2",
          "midi": 40,
          "time": 172.8814999999999,
          "velocity": 1,
          "duration": 0.12288145833332464
        },
        {
          "name": "E2",
          "midi": 40,
          "time": 173.1357374999999,
          "velocity": 1,
          "duration": 0.12288145833332464
        },
        {
          "name": "E2",
          "midi": 40,
          "time": 173.26285624999988,
          "velocity": 1,
          "duration": 0.12288145833332464
        },
        {
          "name": "E2",
          "midi": 40,
          "time": 173.38997499999988,
          "velocity": 1,
          "duration": 0.12288145833332464
        },
        {
          "name": "E2",
          "midi": 40,
          "time": 173.64421249999987,
          "velocity": 1,
          "duration": 0.12288145833332464
        },
        {
          "name": "E2",
          "midi": 40,
          "time": 173.77133124999986,
          "velocity": 1,
          "duration": 0.12288145833332464
        },
        {
          "name": "E2",
          "midi": 40,
          "time": 173.89844999999985,
          "velocity": 1,
          "duration": 0.12288145833332464
        },
        {
          "name": "E2",
          "midi": 40,
          "time": 174.15268749999984,
          "velocity": 1,
          "duration": 0.12288145833332464
        },
        {
          "name": "E2",
          "midi": 40,
          "time": 174.27980624999984,
          "velocity": 1,
          "duration": 0.12288145833332464
        },
        {
          "name": "E2",
          "midi": 40,
          "time": 174.40692499999983,
          "velocity": 1,
          "duration": 0.12288145833332464
        },
        {
          "name": "E2",
          "midi": 40,
          "time": 174.66116249999982,
          "velocity": 1,
          "duration": 0.12288145833332464
        },
        {
          "name": "F#2",
          "midi": 42,
          "time": 174.9153999999998,
          "velocity": 1,
          "duration": 0.12288145833332464
        },
        {
          "name": "F#2",
          "midi": 42,
          "time": 175.1696374999998,
          "velocity": 1,
          "duration": 0.12288145833332464
        },
        {
          "name": "F#2",
          "midi": 42,
          "time": 175.2967562499998,
          "velocity": 1,
          "duration": 0.12288145833332464
        },
        {
          "name": "F#2",
          "midi": 42,
          "time": 175.42387499999978,
          "velocity": 1,
          "duration": 0.12288145833332464
        },
        {
          "name": "F#2",
          "midi": 42,
          "time": 175.67811249999977,
          "velocity": 1,
          "duration": 0.12288145833332464
        },
        {
          "name": "F#2",
          "midi": 42,
          "time": 175.80523124999976,
          "velocity": 1,
          "duration": 0.12288145833332464
        },
        {
          "name": "F#2",
          "midi": 42,
          "time": 175.93234999999976,
          "velocity": 1,
          "duration": 0.12288145833332464
        },
        {
          "name": "F#2",
          "midi": 42,
          "time": 176.18658749999975,
          "velocity": 1,
          "duration": 0.12288145833332464
        },
        {
          "name": "F#2",
          "midi": 42,
          "time": 176.31370624999974,
          "velocity": 1,
          "duration": 0.12288145833332464
        },
        {
          "name": "F#2",
          "midi": 42,
          "time": 176.44082499999973,
          "velocity": 1,
          "duration": 0.12288145833332464
        },
        {
          "name": "F#2",
          "midi": 42,
          "time": 176.69506249999972,
          "velocity": 1,
          "duration": 0.12288145833332464
        },
        {
          "name": "D2",
          "midi": 38,
          "time": 176.9492999999997,
          "velocity": 1,
          "duration": 0.12288145833332464
        },
        {
          "name": "D2",
          "midi": 38,
          "time": 177.2035374999997,
          "velocity": 1,
          "duration": 0.12288145833332464
        },
        {
          "name": "D2",
          "midi": 38,
          "time": 177.3306562499997,
          "velocity": 1,
          "duration": 0.12288145833332464
        },
        {
          "name": "D2",
          "midi": 38,
          "time": 177.45777499999969,
          "velocity": 1,
          "duration": 0.12288145833332464
        },
        {
          "name": "D2",
          "midi": 38,
          "time": 177.71201249999967,
          "velocity": 1,
          "duration": 0.12288145833332464
        },
        {
          "name": "D2",
          "midi": 38,
          "time": 177.83913124999967,
          "velocity": 1,
          "duration": 0.12288145833332464
        },
        {
          "name": "D2",
          "midi": 38,
          "time": 177.96624999999966,
          "velocity": 1,
          "duration": 0.12288145833332464
        },
        {
          "name": "D2",
          "midi": 38,
          "time": 178.22048749999965,
          "velocity": 1,
          "duration": 0.12288145833332464
        },
        {
          "name": "D2",
          "midi": 38,
          "time": 178.34760624999964,
          "velocity": 1,
          "duration": 0.12288145833332464
        },
        {
          "name": "D2",
          "midi": 38,
          "time": 178.47472499999964,
          "velocity": 1,
          "duration": 0.12288145833332464
        },
        {
          "name": "D2",
          "midi": 38,
          "time": 178.72896249999962,
          "velocity": 1,
          "duration": 0.12288145833332464
        },
        {
          "name": "B2",
          "midi": 47,
          "time": 178.9831999999996,
          "velocity": 1,
          "duration": 0.12288145833332464
        },
        {
          "name": "B2",
          "midi": 47,
          "time": 179.2374374999996,
          "velocity": 1,
          "duration": 0.12288145833332464
        },
        {
          "name": "B2",
          "midi": 47,
          "time": 179.3645562499996,
          "velocity": 1,
          "duration": 0.12288145833332464
        },
        {
          "name": "B2",
          "midi": 47,
          "time": 179.4916749999996,
          "velocity": 1,
          "duration": 0.12288145833332464
        },
        {
          "name": "B2",
          "midi": 47,
          "time": 179.74591249999958,
          "velocity": 1,
          "duration": 0.12288145833332464
        },
        {
          "name": "B2",
          "midi": 47,
          "time": 179.87303124999957,
          "velocity": 1,
          "duration": 0.12288145833332464
        },
        {
          "name": "B2",
          "midi": 47,
          "time": 180.00014999999956,
          "velocity": 1,
          "duration": 0.12288145833332464
        },
        {
          "name": "B2",
          "midi": 47,
          "time": 180.25438749999955,
          "velocity": 1,
          "duration": 0.12288145833332464
        },
        {
          "name": "B2",
          "midi": 47,
          "time": 180.38150624999955,
          "velocity": 1,
          "duration": 0.12288145833332464
        },
        {
          "name": "B2",
          "midi": 47,
          "time": 180.50862499999954,
          "velocity": 1,
          "duration": 0.12288145833332464
        },
        {
          "name": "B2",
          "midi": 47,
          "time": 180.76286249999953,
          "velocity": 1,
          "duration": 0.12288145833332464
        },
        {
          "name": "E2",
          "midi": 40,
          "time": 181.01709999999952,
          "velocity": 1,
          "duration": 0.12288145833332464
        },
        {
          "name": "E2",
          "midi": 40,
          "time": 181.2713374999995,
          "velocity": 1,
          "duration": 0.12288145833332464
        },
        {
          "name": "E2",
          "midi": 40,
          "time": 181.3984562499995,
          "velocity": 1,
          "duration": 0.12288145833332464
        },
        {
          "name": "E2",
          "midi": 40,
          "time": 181.5255749999995,
          "velocity": 1,
          "duration": 0.12288145833332464
        },
        {
          "name": "E2",
          "midi": 40,
          "time": 181.77981249999948,
          "velocity": 1,
          "duration": 0.12288145833332464
        },
        {
          "name": "E2",
          "midi": 40,
          "time": 181.90693124999947,
          "velocity": 1,
          "duration": 0.12288145833332464
        },
        {
          "name": "E2",
          "midi": 40,
          "time": 182.03404999999947,
          "velocity": 1,
          "duration": 0.12288145833332464
        },
        {
          "name": "E2",
          "midi": 40,
          "time": 182.28828749999946,
          "velocity": 1,
          "duration": 0.12288145833332464
        },
        {
          "name": "E2",
          "midi": 40,
          "time": 182.41540624999945,
          "velocity": 1,
          "duration": 0.12288145833332464
        },
        {
          "name": "E2",
          "midi": 40,
          "time": 182.54252499999944,
          "velocity": 1,
          "duration": 0.12288145833332464
        },
        {
          "name": "E2",
          "midi": 40,
          "time": 182.79676249999943,
          "velocity": 1,
          "duration": 0.12288145833332464
        },
        {
          "name": "F#2",
          "midi": 42,
          "time": 183.05099999999942,
          "velocity": 1,
          "duration": 0.12288145833332464
        },
        {
          "name": "F#2",
          "midi": 42,
          "time": 183.3052374999994,
          "velocity": 1,
          "duration": 0.12288145833332464
        },
        {
          "name": "F#2",
          "midi": 42,
          "time": 183.4323562499994,
          "velocity": 1,
          "duration": 0.12288145833332464
        },
        {
          "name": "F#2",
          "midi": 42,
          "time": 183.5594749999994,
          "velocity": 1,
          "duration": 0.12288145833332464
        },
        {
          "name": "F#2",
          "midi": 42,
          "time": 183.81371249999938,
          "velocity": 1,
          "duration": 0.12288145833332464
        },
        {
          "name": "F#2",
          "midi": 42,
          "time": 183.94083124999938,
          "velocity": 1,
          "duration": 0.12288145833332464
        },
        {
          "name": "G#2",
          "midi": 44,
          "time": 184.06794999999937,
          "velocity": 1,
          "duration": 0.12288145833332464
        },
        {
          "name": "G#2",
          "midi": 44,
          "time": 184.32218749999936,
          "velocity": 1,
          "duration": 0.12288145833332464
        },
        {
          "name": "G#2",
          "midi": 44,
          "time": 184.44930624999935,
          "velocity": 1,
          "duration": 0.12288145833332464
        },
        {
          "name": "G#2",
          "midi": 44,
          "time": 184.57642499999935,
          "velocity": 1,
          "duration": 0.12288145833332464
        },
        {
          "name": "G#2",
          "midi": 44,
          "time": 184.83066249999933,
          "velocity": 1,
          "duration": 0.12288145833332464
        },
        {
          "name": "G#2",
          "midi": 44,
          "time": 184.95778124999933,
          "velocity": 1,
          "duration": 0.12288145833332464
        },
        {
          "name": "A2",
          "midi": 45,
          "time": 185.08489999999932,
          "velocity": 1,
          "duration": 0.12288145833332464
        },
        {
          "name": "A2",
          "midi": 45,
          "time": 185.3391374999993,
          "velocity": 1,
          "duration": 0.12288145833332464
        },
        {
          "name": "A2",
          "midi": 45,
          "time": 185.4662562499993,
          "velocity": 1,
          "duration": 0.12288145833332464
        },
        {
          "name": "A2",
          "midi": 45,
          "time": 185.5933749999993,
          "velocity": 1,
          "duration": 0.12288145833332464
        },
        {
          "name": "A2",
          "midi": 45,
          "time": 185.8476124999993,
          "velocity": 1,
          "duration": 0.12288145833332464
        },
        {
          "name": "A2",
          "midi": 45,
          "time": 185.97473124999928,
          "velocity": 1,
          "duration": 0.12288145833332464
        },
        {
          "name": "D3",
          "midi": 50,
          "time": 186.10184999999927,
          "velocity": 1,
          "duration": 0.12288145833332464
        },
        {
          "name": "D3",
          "midi": 50,
          "time": 186.35608749999926,
          "velocity": 1,
          "duration": 0.12288145833332464
        },
        {
          "name": "D3",
          "midi": 50,
          "time": 186.48320624999926,
          "velocity": 1,
          "duration": 0.12288145833332464
        },
        {
          "name": "D3",
          "midi": 50,
          "time": 186.61032499999925,
          "velocity": 1,
          "duration": 0.12288145833332464
        },
        {
          "name": "D3",
          "midi": 50,
          "time": 186.86456249999924,
          "velocity": 1,
          "duration": 0.12288145833332464
        },
        {
          "name": "D3",
          "midi": 50,
          "time": 186.99168124999923,
          "velocity": 1,
          "duration": 0.12288145833332464
        },
        {
          "name": "C#3",
          "midi": 49,
          "time": 187.11879999999923,
          "velocity": 1,
          "duration": 0.12288145833332464
        },
        {
          "name": "C#3",
          "midi": 49,
          "time": 187.3730374999992,
          "velocity": 1,
          "duration": 0.12288145833332464
        },
        {
          "name": "C#3",
          "midi": 49,
          "time": 187.5001562499992,
          "velocity": 1,
          "duration": 0.12288145833332464
        },
        {
          "name": "C#3",
          "midi": 49,
          "time": 187.6272749999992,
          "velocity": 1,
          "duration": 0.12288145833332464
        },
        {
          "name": "C#3",
          "midi": 49,
          "time": 187.8815124999992,
          "velocity": 1,
          "duration": 0.12288145833332464
        },
        {
          "name": "C#3",
          "midi": 49,
          "time": 188.00863124999918,
          "velocity": 1,
          "duration": 0.12288145833332464
        },
        {
          "name": "C#3",
          "midi": 49,
          "time": 188.13574999999918,
          "velocity": 1,
          "duration": 0.12288145833332464
        },
        {
          "name": "C#3",
          "midi": 49,
          "time": 188.38998749999917,
          "velocity": 1,
          "duration": 0.12288145833332464
        },
        {
          "name": "C#3",
          "midi": 49,
          "time": 188.51710624999916,
          "velocity": 1,
          "duration": 0.12288145833332464
        },
        {
          "name": "C#3",
          "midi": 49,
          "time": 188.64422499999915,
          "velocity": 1,
          "duration": 0.12288145833332464
        },
        {
          "name": "C#3",
          "midi": 49,
          "time": 188.89846249999914,
          "velocity": 1,
          "duration": 0.12288145833332464
        },
        {
          "name": "C#3",
          "midi": 49,
          "time": 189.02558124999914,
          "velocity": 1,
          "duration": 0.12288145833332464
        },
        {
          "name": "C#3",
          "midi": 49,
          "time": 189.15269999999913,
          "velocity": 1,
          "duration": 0.12288145833332464
        },
        {
          "name": "C#3",
          "midi": 49,
          "time": 189.40693749999912,
          "velocity": 1,
          "duration": 0.12288145833332464
        },
        {
          "name": "C#3",
          "midi": 49,
          "time": 189.5340562499991,
          "velocity": 1,
          "duration": 0.12288145833332464
        },
        {
          "name": "C#3",
          "midi": 49,
          "time": 189.6611749999991,
          "velocity": 1,
          "duration": 0.12288145833332464
        },
        {
          "name": "C#3",
          "midi": 49,
          "time": 189.9154124999991,
          "velocity": 1,
          "duration": 0.12288145833332464
        },
        {
          "name": "C#3",
          "midi": 49,
          "time": 190.0425312499991,
          "velocity": 1,
          "duration": 0.12288145833332464
        },
        {
          "name": "C#3",
          "midi": 49,
          "time": 190.16964999999908,
          "velocity": 1,
          "duration": 0.12288145833332464
        },
        {
          "name": "C#3",
          "midi": 49,
          "time": 190.42388749999907,
          "velocity": 1,
          "duration": 0.12288145833332464
        },
        {
          "name": "C#3",
          "midi": 49,
          "time": 190.55100624999906,
          "velocity": 1,
          "duration": 0.12288145833332464
        },
        {
          "name": "C#3",
          "midi": 49,
          "time": 190.67812499999906,
          "velocity": 1,
          "duration": 0.12288145833332464
        },
        {
          "name": "C#3",
          "midi": 49,
          "time": 190.93236249999904,
          "velocity": 1,
          "duration": 0.12288145833332464
        },
        {
          "name": "C#3",
          "midi": 49,
          "time": 191.05948124999904,
          "velocity": 1,
          "duration": 0.12288145833332464
        },
        {
          "name": "F#2",
          "midi": 42,
          "time": 191.18659999999903,
          "velocity": 1,
          "duration": 4.139833958333327
        },
        {
          "name": "B2",
          "midi": 47,
          "time": 195.25439999999904,
          "velocity": 1,
          "duration": 0.12288145833332464
        },
        {
          "name": "B2",
          "midi": 47,
          "time": 195.50863749999903,
          "velocity": 1,
          "duration": 0.12288145833332464
        },
        {
          "name": "B2",
          "midi": 47,
          "time": 195.63575624999902,
          "velocity": 1,
          "duration": 0.12288145833332464
        },
        {
          "name": "B2",
          "midi": 47,
          "time": 195.762874999999,
          "velocity": 1,
          "duration": 0.12288145833332464
        },
        {
          "name": "B2",
          "midi": 47,
          "time": 196.017112499999,
          "velocity": 1,
          "duration": 0.12288145833332464
        },
        {
          "name": "B2",
          "midi": 47,
          "time": 196.144231249999,
          "velocity": 1,
          "duration": 0.12288145833332464
        },
        {
          "name": "B2",
          "midi": 47,
          "time": 196.271349999999,
          "velocity": 1,
          "duration": 0.12288145833332464
        },
        {
          "name": "B2",
          "midi": 47,
          "time": 196.52558749999898,
          "velocity": 1,
          "duration": 0.12288145833332464
        },
        {
          "name": "B2",
          "midi": 47,
          "time": 196.65270624999897,
          "velocity": 1,
          "duration": 0.12288145833332464
        },
        {
          "name": "B2",
          "midi": 47,
          "time": 196.77982499999897,
          "velocity": 1,
          "duration": 0.12288145833332464
        },
        {
          "name": "B2",
          "midi": 47,
          "time": 197.03406249999895,
          "velocity": 1,
          "duration": 0.12288145833332464
        },
        {
          "name": "A2",
          "midi": 45,
          "time": 197.28829999999894,
          "velocity": 1,
          "duration": 0.12288145833332464
        },
        {
          "name": "A2",
          "midi": 45,
          "time": 197.54253749999893,
          "velocity": 1,
          "duration": 0.12288145833332464
        },
        {
          "name": "A2",
          "midi": 45,
          "time": 197.66965624999892,
          "velocity": 1,
          "duration": 0.12288145833332464
        },
        {
          "name": "A2",
          "midi": 45,
          "time": 197.79677499999892,
          "velocity": 1,
          "duration": 0.12288145833332464
        },
        {
          "name": "A2",
          "midi": 45,
          "time": 198.0510124999989,
          "velocity": 1,
          "duration": 0.12288145833332464
        },
        {
          "name": "A2",
          "midi": 45,
          "time": 198.1781312499989,
          "velocity": 1,
          "duration": 0.12288145833332464
        },
        {
          "name": "A2",
          "midi": 45,
          "time": 198.3052499999989,
          "velocity": 1,
          "duration": 0.12288145833332464
        },
        {
          "name": "A2",
          "midi": 45,
          "time": 198.55948749999888,
          "velocity": 1,
          "duration": 0.12288145833332464
        },
        {
          "name": "A2",
          "midi": 45,
          "time": 198.68660624999887,
          "velocity": 1,
          "duration": 0.12288145833332464
        },
        {
          "name": "A2",
          "midi": 45,
          "time": 198.81372499999887,
          "velocity": 1,
          "duration": 0.12288145833332464
        },
        {
          "name": "A2",
          "midi": 45,
          "time": 199.06796249999886,
          "velocity": 1,
          "duration": 0.12288145833332464
        },
        {
          "name": "D3",
          "midi": 50,
          "time": 199.32219999999884,
          "velocity": 1,
          "duration": 0.12288145833332464
        },
        {
          "name": "D3",
          "midi": 50,
          "time": 199.57643749999883,
          "velocity": 1,
          "duration": 0.12288145833332464
        },
        {
          "name": "D3",
          "midi": 50,
          "time": 199.70355624999883,
          "velocity": 1,
          "duration": 0.12288145833332464
        },
        {
          "name": "D3",
          "midi": 50,
          "time": 199.83067499999882,
          "velocity": 1,
          "duration": 0.12288145833332464
        },
        {
          "name": "D3",
          "midi": 50,
          "time": 200.0849124999988,
          "velocity": 1,
          "duration": 0.12288145833332464
        },
        {
          "name": "D3",
          "midi": 50,
          "time": 200.2120312499988,
          "velocity": 1,
          "duration": 0.12288145833332464
        },
        {
          "name": "D3",
          "midi": 50,
          "time": 200.3391499999988,
          "velocity": 1,
          "duration": 0.12288145833332464
        },
        {
          "name": "D3",
          "midi": 50,
          "time": 200.59338749999878,
          "velocity": 1,
          "duration": 0.12288145833332464
        },
        {
          "name": "D3",
          "midi": 50,
          "time": 200.72050624999878,
          "velocity": 1,
          "duration": 0.12288145833332464
        },
        {
          "name": "D3",
          "midi": 50,
          "time": 200.84762499999877,
          "velocity": 1,
          "duration": 0.12288145833332464
        },
        {
          "name": "D3",
          "midi": 50,
          "time": 201.10186249999876,
          "velocity": 1,
          "duration": 0.12288145833332464
        },
        {
          "name": "G2",
          "midi": 43,
          "time": 201.35609999999875,
          "velocity": 1,
          "duration": 0.12288145833332464
        },
        {
          "name": "G2",
          "midi": 43,
          "time": 201.61033749999874,
          "velocity": 1,
          "duration": 0.12288145833332464
        },
        {
          "name": "G2",
          "midi": 43,
          "time": 201.73745624999873,
          "velocity": 1,
          "duration": 0.12288145833332464
        },
        {
          "name": "G2",
          "midi": 43,
          "time": 201.86457499999872,
          "velocity": 1,
          "duration": 0.12288145833332464
        },
        {
          "name": "G2",
          "midi": 43,
          "time": 202.1188124999987,
          "velocity": 1,
          "duration": 0.12288145833332464
        },
        {
          "name": "G2",
          "midi": 43,
          "time": 202.2459312499987,
          "velocity": 1,
          "duration": 0.12288145833332464
        },
        {
          "name": "F#2",
          "midi": 42,
          "time": 202.3730499999987,
          "velocity": 1,
          "duration": 0.12288145833332464
        },
        {
          "name": "F#2",
          "midi": 42,
          "time": 202.6272874999987,
          "velocity": 1,
          "duration": 0.12288145833332464
        },
        {
          "name": "F#2",
          "midi": 42,
          "time": 202.75440624999868,
          "velocity": 1,
          "duration": 0.12288145833332464
        },
        {
          "name": "F#2",
          "midi": 42,
          "time": 202.88152499999867,
          "velocity": 1,
          "duration": 0.12288145833332464
        },
        {
          "name": "F#2",
          "midi": 42,
          "time": 203.13576249999866,
          "velocity": 1,
          "duration": 0.12288145833332464
        },
        {
          "name": "E2",
          "midi": 40,
          "time": 203.38999999999865,
          "velocity": 1,
          "duration": 0.12288145833332464
        },
        {
          "name": "E2",
          "midi": 40,
          "time": 203.64423749999864,
          "velocity": 1,
          "duration": 0.12288145833332464
        },
        {
          "name": "E2",
          "midi": 40,
          "time": 203.77135624999863,
          "velocity": 1,
          "duration": 0.12288145833332464
        },
        {
          "name": "E2",
          "midi": 40,
          "time": 203.89847499999863,
          "velocity": 1,
          "duration": 0.12288145833332464
        },
        {
          "name": "E2",
          "midi": 40,
          "time": 204.15271249999861,
          "velocity": 1,
          "duration": 0.12288145833332464
        },
        {
          "name": "E2",
          "midi": 40,
          "time": 204.2798312499986,
          "velocity": 1,
          "duration": 0.12288145833332464
        },
        {
          "name": "E2",
          "midi": 40,
          "time": 204.4069499999986,
          "velocity": 1,
          "duration": 0.12288145833332464
        },
        {
          "name": "E2",
          "midi": 40,
          "time": 204.6611874999986,
          "velocity": 1,
          "duration": 0.12288145833332464
        },
        {
          "name": "E2",
          "midi": 40,
          "time": 204.78830624999858,
          "velocity": 1,
          "duration": 0.12288145833332464
        },
        {
          "name": "E2",
          "midi": 40,
          "time": 204.91542499999858,
          "velocity": 1,
          "duration": 0.12288145833332464
        },
        {
          "name": "E2",
          "midi": 40,
          "time": 205.16966249999857,
          "velocity": 1,
          "duration": 0.12288145833332464
        },
        {
          "name": "A2",
          "midi": 45,
          "time": 205.42389999999855,
          "velocity": 1,
          "duration": 0.12288145833332464
        },
        {
          "name": "A2",
          "midi": 45,
          "time": 205.67813749999854,
          "velocity": 1,
          "duration": 0.12288145833332464
        },
        {
          "name": "A2",
          "midi": 45,
          "time": 205.80525624999854,
          "velocity": 1,
          "duration": 0.12288145833332464
        },
        {
          "name": "A2",
          "midi": 45,
          "time": 205.93237499999853,
          "velocity": 1,
          "duration": 0.12288145833332464
        },
        {
          "name": "A2",
          "midi": 45,
          "time": 206.18661249999852,
          "velocity": 1,
          "duration": 0.12288145833332464
        },
        {
          "name": "A2",
          "midi": 45,
          "time": 206.3137312499985,
          "velocity": 1,
          "duration": 0.12288145833332464
        },
        {
          "name": "A2",
          "midi": 45,
          "time": 206.4408499999985,
          "velocity": 1,
          "duration": 0.12288145833332464
        },
        {
          "name": "A2",
          "midi": 45,
          "time": 206.6950874999985,
          "velocity": 1,
          "duration": 0.12288145833332464
        },
        {
          "name": "A2",
          "midi": 45,
          "time": 206.8222062499985,
          "velocity": 1,
          "duration": 0.12288145833332464
        },
        {
          "name": "A2",
          "midi": 45,
          "time": 206.94932499999848,
          "velocity": 1,
          "duration": 0.12288145833332464
        },
        {
          "name": "A2",
          "midi": 45,
          "time": 207.20356249999847,
          "velocity": 1,
          "duration": 0.12288145833332464
        },
        {
          "name": "B2",
          "midi": 47,
          "time": 207.45779999999846,
          "velocity": 1,
          "duration": 0.12288145833332464
        },
        {
          "name": "B2",
          "midi": 47,
          "time": 207.71203749999844,
          "velocity": 1,
          "duration": 0.12288145833332464
        },
        {
          "name": "B2",
          "midi": 47,
          "time": 207.83915624999844,
          "velocity": 1,
          "duration": 0.12288145833332464
        },
        {
          "name": "B2",
          "midi": 47,
          "time": 207.96627499999843,
          "velocity": 1,
          "duration": 0.12288145833332464
        },
        {
          "name": "B2",
          "midi": 47,
          "time": 208.22051249999842,
          "velocity": 1,
          "duration": 0.12288145833332464
        },
        {
          "name": "B2",
          "midi": 47,
          "time": 208.34763124999841,
          "velocity": 1,
          "duration": 0.12288145833332464
        },
        {
          "name": "B2",
          "midi": 47,
          "time": 208.4747499999984,
          "velocity": 1,
          "duration": 0.12288145833332464
        },
        {
          "name": "B2",
          "midi": 47,
          "time": 208.7289874999984,
          "velocity": 1,
          "duration": 0.12288145833332464
        },
        {
          "name": "B2",
          "midi": 47,
          "time": 208.8561062499984,
          "velocity": 1,
          "duration": 0.12288145833332464
        },
        {
          "name": "B2",
          "midi": 47,
          "time": 208.98322499999838,
          "velocity": 1,
          "duration": 0.12288145833332464
        },
        {
          "name": "B2",
          "midi": 47,
          "time": 209.23746249999837,
          "velocity": 1,
          "duration": 0.12288145833332464
        },
        {
          "name": "F#2",
          "midi": 42,
          "time": 209.49169999999836,
          "velocity": 1,
          "duration": 0.12288145833332464
        },
        {
          "name": "F#2",
          "midi": 42,
          "time": 209.74593749999835,
          "velocity": 1,
          "duration": 0.12288145833332464
        },
        {
          "name": "F#2",
          "midi": 42,
          "time": 209.87305624999834,
          "velocity": 1,
          "duration": 0.12288145833332464
        },
        {
          "name": "F#2",
          "midi": 42,
          "time": 210.00017499999834,
          "velocity": 1,
          "duration": 0.12288145833332464
        },
        {
          "name": "F#2",
          "midi": 42,
          "time": 210.25441249999832,
          "velocity": 1,
          "duration": 0.12288145833332464
        },
        {
          "name": "F#2",
          "midi": 42,
          "time": 210.38153124999832,
          "velocity": 1,
          "duration": 0.12288145833332464
        },
        {
          "name": "F#2",
          "midi": 42,
          "time": 210.5086499999983,
          "velocity": 1,
          "duration": 0.12288145833332464
        },
        {
          "name": "F#2",
          "midi": 42,
          "time": 210.7628874999983,
          "velocity": 1,
          "duration": 0.12288145833332464
        },
        {
          "name": "F#2",
          "midi": 42,
          "time": 210.8900062499983,
          "velocity": 1,
          "duration": 0.12288145833332464
        },
        {
          "name": "F#2",
          "midi": 42,
          "time": 211.0171249999983,
          "velocity": 1,
          "duration": 0.12288145833332464
        },
        {
          "name": "F#2",
          "midi": 42,
          "time": 211.27136249999828,
          "velocity": 1,
          "duration": 0.12288145833332464
        },
        {
          "name": "B2",
          "midi": 47,
          "time": 211.52559999999826,
          "velocity": 1,
          "duration": 0.12288145833332464
        },
        {
          "name": "B2",
          "midi": 47,
          "time": 211.77983749999825,
          "velocity": 1,
          "duration": 0.12288145833332464
        },
        {
          "name": "B2",
          "midi": 47,
          "time": 211.90695624999825,
          "velocity": 1,
          "duration": 0.12288145833332464
        },
        {
          "name": "B2",
          "midi": 47,
          "time": 212.03407499999824,
          "velocity": 1,
          "duration": 0.12288145833332464
        },
        {
          "name": "B2",
          "midi": 47,
          "time": 212.28831249999823,
          "velocity": 1,
          "duration": 0.12288145833332464
        },
        {
          "name": "B2",
          "midi": 47,
          "time": 212.41543124999822,
          "velocity": 1,
          "duration": 0.12288145833332464
        },
        {
          "name": "B2",
          "midi": 47,
          "time": 212.54254999999822,
          "velocity": 1,
          "duration": 0.12288145833332464
        },
        {
          "name": "B2",
          "midi": 47,
          "time": 212.7967874999982,
          "velocity": 1,
          "duration": 0.12288145833332464
        },
        {
          "name": "B2",
          "midi": 47,
          "time": 212.9239062499982,
          "velocity": 1,
          "duration": 0.12288145833332464
        },
        {
          "name": "B2",
          "midi": 47,
          "time": 213.0510249999982,
          "velocity": 1,
          "duration": 0.12288145833332464
        },
        {
          "name": "B2",
          "midi": 47,
          "time": 213.30526249999818,
          "velocity": 1,
          "duration": 0.12288145833332464
        },
        {
          "name": "A2",
          "midi": 45,
          "time": 213.55949999999817,
          "velocity": 1,
          "duration": 0.12288145833332464
        },
        {
          "name": "A2",
          "midi": 45,
          "time": 213.81373749999815,
          "velocity": 1,
          "duration": 0.12288145833332464
        },
        {
          "name": "A2",
          "midi": 45,
          "time": 213.94085624999815,
          "velocity": 1,
          "duration": 0.12288145833332464
        },
        {
          "name": "A2",
          "midi": 45,
          "time": 214.06797499999814,
          "velocity": 1,
          "duration": 0.12288145833332464
        },
        {
          "name": "A2",
          "midi": 45,
          "time": 214.32221249999813,
          "velocity": 1,
          "duration": 0.12288145833332464
        },
        {
          "name": "A2",
          "midi": 45,
          "time": 214.44933124999812,
          "velocity": 1,
          "duration": 0.12288145833332464
        },
        {
          "name": "A2",
          "midi": 45,
          "time": 214.57644999999812,
          "velocity": 1,
          "duration": 0.12288145833332464
        },
        {
          "name": "A2",
          "midi": 45,
          "time": 214.8306874999981,
          "velocity": 1,
          "duration": 0.12288145833332464
        },
        {
          "name": "A2",
          "midi": 45,
          "time": 214.9578062499981,
          "velocity": 1,
          "duration": 0.12288145833332464
        },
        {
          "name": "A2",
          "midi": 45,
          "time": 215.0849249999981,
          "velocity": 1,
          "duration": 0.12288145833332464
        },
        {
          "name": "A2",
          "midi": 45,
          "time": 215.33916249999808,
          "velocity": 1,
          "duration": 0.12288145833332464
        },
        {
          "name": "D3",
          "midi": 50,
          "time": 215.59339999999807,
          "velocity": 1,
          "duration": 0.12288145833332464
        },
        {
          "name": "D3",
          "midi": 50,
          "time": 215.84763749999806,
          "velocity": 1,
          "duration": 0.12288145833332464
        },
        {
          "name": "D3",
          "midi": 50,
          "time": 215.97475624999805,
          "velocity": 1,
          "duration": 0.12288145833332464
        },
        {
          "name": "D3",
          "midi": 50,
          "time": 216.10187499999805,
          "velocity": 1,
          "duration": 0.12288145833332464
        },
        {
          "name": "D3",
          "midi": 50,
          "time": 216.35611249999803,
          "velocity": 1,
          "duration": 0.12288145833332464
        },
        {
          "name": "D3",
          "midi": 50,
          "time": 216.48323124999803,
          "velocity": 1,
          "duration": 0.12288145833332464
        },
        {
          "name": "D3",
          "midi": 50,
          "time": 216.61034999999802,
          "velocity": 1,
          "duration": 0.12288145833332464
        },
        {
          "name": "D3",
          "midi": 50,
          "time": 216.864587499998,
          "velocity": 1,
          "duration": 0.12288145833332464
        },
        {
          "name": "D3",
          "midi": 50,
          "time": 216.991706249998,
          "velocity": 1,
          "duration": 0.12288145833332464
        },
        {
          "name": "D3",
          "midi": 50,
          "time": 217.118824999998,
          "velocity": 1,
          "duration": 0.12288145833332464
        },
        {
          "name": "D3",
          "midi": 50,
          "time": 217.37306249999799,
          "velocity": 1,
          "duration": 0.12288145833332464
        },
        {
          "name": "G2",
          "midi": 43,
          "time": 217.62729999999797,
          "velocity": 1,
          "duration": 0.12288145833332464
        },
        {
          "name": "G2",
          "midi": 43,
          "time": 217.88153749999796,
          "velocity": 1,
          "duration": 0.12288145833332464
        },
        {
          "name": "G2",
          "midi": 43,
          "time": 218.00865624999796,
          "velocity": 1,
          "duration": 0.12288145833332464
        },
        {
          "name": "G2",
          "midi": 43,
          "time": 218.13577499999795,
          "velocity": 1,
          "duration": 0.12288145833332464
        },
        {
          "name": "G2",
          "midi": 43,
          "time": 218.39001249999794,
          "velocity": 1,
          "duration": 0.12288145833332464
        },
        {
          "name": "G2",
          "midi": 43,
          "time": 218.51713124999793,
          "velocity": 1,
          "duration": 0.12288145833332464
        },
        {
          "name": "F#2",
          "midi": 42,
          "time": 218.64424999999792,
          "velocity": 1,
          "duration": 0.12288145833332464
        },
        {
          "name": "F#2",
          "midi": 42,
          "time": 218.8984874999979,
          "velocity": 1,
          "duration": 0.12288145833332464
        },
        {
          "name": "F#2",
          "midi": 42,
          "time": 219.0256062499979,
          "velocity": 1,
          "duration": 0.12288145833332464
        },
        {
          "name": "F#2",
          "midi": 42,
          "time": 219.1527249999979,
          "velocity": 1,
          "duration": 0.12288145833332464
        },
        {
          "name": "F#2",
          "midi": 42,
          "time": 219.4069624999979,
          "velocity": 1,
          "duration": 0.12288145833332464
        },
        {
          "name": "E2",
          "midi": 40,
          "time": 219.66119999999788,
          "velocity": 1,
          "duration": 0.12288145833332464
        },
        {
          "name": "E2",
          "midi": 40,
          "time": 219.91543749999786,
          "velocity": 1,
          "duration": 0.12288145833332464
        },
        {
          "name": "E2",
          "midi": 40,
          "time": 220.04255624999786,
          "velocity": 1,
          "duration": 0.12288145833332464
        },
        {
          "name": "E2",
          "midi": 40,
          "time": 220.16967499999785,
          "velocity": 1,
          "duration": 0.12288145833332464
        },
        {
          "name": "E2",
          "midi": 40,
          "time": 220.42391249999784,
          "velocity": 1,
          "duration": 0.12288145833332464
        },
        {
          "name": "E2",
          "midi": 40,
          "time": 220.55103124999783,
          "velocity": 1,
          "duration": 0.12288145833332464
        },
        {
          "name": "E2",
          "midi": 40,
          "time": 220.67814999999783,
          "velocity": 1,
          "duration": 0.12288145833332464
        },
        {
          "name": "E2",
          "midi": 40,
          "time": 220.93238749999782,
          "velocity": 1,
          "duration": 0.12288145833332464
        },
        {
          "name": "E2",
          "midi": 40,
          "time": 221.0595062499978,
          "velocity": 1,
          "duration": 0.12288145833332464
        },
        {
          "name": "E2",
          "midi": 40,
          "time": 221.1866249999978,
          "velocity": 1,
          "duration": 0.12288145833332464
        },
        {
          "name": "E2",
          "midi": 40,
          "time": 221.4408624999978,
          "velocity": 1,
          "duration": 0.12288145833332464
        },
        {
          "name": "A2",
          "midi": 45,
          "time": 221.69509999999778,
          "velocity": 1,
          "duration": 0.12288145833332464
        },
        {
          "name": "A2",
          "midi": 45,
          "time": 221.94933749999777,
          "velocity": 1,
          "duration": 0.12288145833332464
        },
        {
          "name": "A2",
          "midi": 45,
          "time": 222.07645624999776,
          "velocity": 1,
          "duration": 0.12288145833332464
        },
        {
          "name": "A2",
          "midi": 45,
          "time": 222.20357499999776,
          "velocity": 1,
          "duration": 0.12288145833332464
        },
        {
          "name": "A2",
          "midi": 45,
          "time": 222.45781249999774,
          "velocity": 1,
          "duration": 0.12288145833332464
        },
        {
          "name": "A2",
          "midi": 45,
          "time": 222.58493124999774,
          "velocity": 1,
          "duration": 0.12288145833332464
        },
        {
          "name": "A2",
          "midi": 45,
          "time": 222.71204999999773,
          "velocity": 1,
          "duration": 0.12288145833332464
        },
        {
          "name": "A2",
          "midi": 45,
          "time": 222.96628749999772,
          "velocity": 1,
          "duration": 0.12288145833332464
        },
        {
          "name": "A2",
          "midi": 45,
          "time": 223.0934062499977,
          "velocity": 1,
          "duration": 0.12288145833332464
        },
        {
          "name": "A2",
          "midi": 45,
          "time": 223.2205249999977,
          "velocity": 1,
          "duration": 0.12288145833332464
        },
        {
          "name": "A2",
          "midi": 45,
          "time": 223.4747624999977,
          "velocity": 1,
          "duration": 0.12288145833332464
        },
        {
          "name": "B2",
          "midi": 47,
          "time": 223.72899999999768,
          "velocity": 1,
          "duration": 0.12288145833332464
        },
        {
          "name": "B2",
          "midi": 47,
          "time": 223.98323749999767,
          "velocity": 1,
          "duration": 0.12288145833332464
        },
        {
          "name": "B2",
          "midi": 47,
          "time": 224.11035624999766,
          "velocity": 1,
          "duration": 0.12288145833332464
        },
        {
          "name": "B2",
          "midi": 47,
          "time": 224.23747499999766,
          "velocity": 1,
          "duration": 0.12288145833332464
        },
        {
          "name": "B2",
          "midi": 47,
          "time": 224.49171249999765,
          "velocity": 1,
          "duration": 0.12288145833332464
        },
        {
          "name": "B2",
          "midi": 47,
          "time": 224.61883124999764,
          "velocity": 1,
          "duration": 0.12288145833332464
        },
        {
          "name": "B2",
          "midi": 47,
          "time": 224.74594999999763,
          "velocity": 1,
          "duration": 0.12288145833332464
        },
        {
          "name": "B2",
          "midi": 47,
          "time": 225.00018749999762,
          "velocity": 1,
          "duration": 0.12288145833332464
        },
        {
          "name": "B2",
          "midi": 47,
          "time": 225.12730624999762,
          "velocity": 1,
          "duration": 0.12288145833332464
        },
        {
          "name": "B2",
          "midi": 47,
          "time": 225.2544249999976,
          "velocity": 1,
          "duration": 0.12288145833332464
        },
        {
          "name": "B2",
          "midi": 47,
          "time": 225.5086624999976,
          "velocity": 1,
          "duration": 0.12288145833332464
        },
        {
          "name": "C#3",
          "midi": 49,
          "time": 225.7628999999976,
          "velocity": 1,
          "duration": 0.12288145833332464
        },
        {
          "name": "C#3",
          "midi": 49,
          "time": 226.01713749999757,
          "velocity": 1,
          "duration": 0.12288145833332464
        },
        {
          "name": "C#3",
          "midi": 49,
          "time": 226.14425624999757,
          "velocity": 1,
          "duration": 0.12288145833332464
        },
        {
          "name": "C#3",
          "midi": 49,
          "time": 226.27137499999756,
          "velocity": 1,
          "duration": 0.12288145833332464
        },
        {
          "name": "C#3",
          "midi": 49,
          "time": 226.52561249999755,
          "velocity": 1,
          "duration": 0.12288145833332464
        },
        {
          "name": "C#3",
          "midi": 49,
          "time": 226.65273124999754,
          "velocity": 1,
          "duration": 0.12288145833332464
        },
        {
          "name": "C#3",
          "midi": 49,
          "time": 226.77984999999754,
          "velocity": 1,
          "duration": 0.12288145833332464
        },
        {
          "name": "C#3",
          "midi": 49,
          "time": 227.03408749999753,
          "velocity": 1,
          "duration": 0.12288145833332464
        },
        {
          "name": "C#3",
          "midi": 49,
          "time": 227.16120624999752,
          "velocity": 1,
          "duration": 0.12288145833332464
        },
        {
          "name": "C#3",
          "midi": 49,
          "time": 227.2883249999975,
          "velocity": 1,
          "duration": 0.12288145833332464
        },
        {
          "name": "C#3",
          "midi": 49,
          "time": 227.5425624999975,
          "velocity": 1,
          "duration": 0.12288145833332464
        },
        {
          "name": "F#2",
          "midi": 42,
          "time": 227.80103729166416,
          "velocity": 1,
          "duration": 0.5127122916666735
        },
        {
          "name": "C#3",
          "midi": 49,
          "time": 229.5637506249975,
          "velocity": 1,
          "duration": 0.27966125000000375
        },
        {
          "name": "D3",
          "midi": 50,
          "time": 229.8306999999975,
          "velocity": 1,
          "duration": 0.45339020833333166
        },
        {
          "name": "B2",
          "midi": 47,
          "time": 231.8900237499975,
          "velocity": 1,
          "duration": 0.5338987499999917
        },
        {
          "name": "D3",
          "midi": 50,
          "time": 233.63155062499752,
          "velocity": 1,
          "duration": 0.2627120833333265
        },
        {
          "name": "E3",
          "midi": 52,
          "time": 233.90697458333085,
          "velocity": 1,
          "duration": 0.5000004166666656
        },
        {
          "name": "E2",
          "midi": 40,
          "time": 235.6781624999975,
          "velocity": 0.6299212598425197,
          "duration": 0.250000208333347
        },
        {
          "name": "F#2",
          "midi": 42,
          "time": 235.93239999999753,
          "velocity": 1,
          "duration": 0.7627124999999921
        },
        {
          "name": "C#3",
          "midi": 49,
          "time": 237.71206249999753,
          "velocity": 1,
          "duration": 0.2542374999999879
        },
        {
          "name": "D3",
          "midi": 50,
          "time": 237.96629999999752,
          "velocity": 1,
          "duration": 0.7627124999999921
        },
        {
          "name": "B2",
          "midi": 47,
          "time": 240.0001999999975,
          "velocity": 1,
          "duration": 0.8898312499999861
        },
        {
          "name": "D3",
          "midi": 50,
          "time": 241.77986249999748,
          "velocity": 1,
          "duration": 0.2542374999999879
        },
        {
          "name": "E3",
          "midi": 52,
          "time": 242.03409999999747,
          "velocity": 1,
          "duration": 0.7627124999999921
        },
        {
          "name": "F#2",
          "midi": 42,
          "time": 244.06799999999745,
          "velocity": 1,
          "duration": 1.0127127083333392
        },
        {
          "name": "G#2",
          "midi": 44,
          "time": 245.08494999999746,
          "velocity": 1,
          "duration": 1.0127127083333392
        },
        {
          "name": "A2",
          "midi": 45,
          "time": 246.10189999999747,
          "velocity": 1,
          "duration": 0.250000208333347
        },
        {
          "name": "G#2",
          "midi": 44,
          "time": 246.3561374999975,
          "velocity": 1,
          "duration": 0.250000208333347
        },
        {
          "name": "F#2",
          "midi": 42,
          "time": 246.6103749999975,
          "velocity": 1,
          "duration": 0.250000208333347
        },
        {
          "name": "E2",
          "midi": 40,
          "time": 246.86461249999752,
          "velocity": 1,
          "duration": 0.250000208333347
        },
        {
          "name": "D2",
          "midi": 38,
          "time": 247.11884999999754,
          "velocity": 1,
          "duration": 0.5042377083333349
        },
        {
          "name": "D2",
          "midi": 38,
          "time": 247.62732499999754,
          "velocity": 1,
          "duration": 0.5042377083333349
        },
        {
          "name": "C#2",
          "midi": 37,
          "time": 248.13579999999754,
          "velocity": 1,
          "duration": 4.063562708333336
        },
        {
          "name": "F#2",
          "midi": 42,
          "time": 252.20359999999755,
          "velocity": 1,
          "duration": 0.12288145833332464
        },
        {
          "name": "F#2",
          "midi": 42,
          "time": 252.45783749999754,
          "velocity": 1,
          "duration": 0.12288145833332464
        },
        {
          "name": "F#2",
          "midi": 42,
          "time": 252.58495624999753,
          "velocity": 1,
          "duration": 0.12288145833332464
        },
        {
          "name": "F#2",
          "midi": 42,
          "time": 252.71207499999753,
          "velocity": 1,
          "duration": 0.12288145833332464
        },
        {
          "name": "F#2",
          "midi": 42,
          "time": 252.9663124999975,
          "velocity": 1,
          "duration": 0.12288145833332464
        },
        {
          "name": "F#2",
          "midi": 42,
          "time": 253.0934312499975,
          "velocity": 1,
          "duration": 0.12288145833332464
        },
        {
          "name": "F#2",
          "midi": 42,
          "time": 253.2205499999975,
          "velocity": 1,
          "duration": 0.12288145833332464
        },
        {
          "name": "F#2",
          "midi": 42,
          "time": 253.4747874999975,
          "velocity": 1,
          "duration": 0.12288145833332464
        },
        {
          "name": "F#2",
          "midi": 42,
          "time": 253.60190624999748,
          "velocity": 1,
          "duration": 0.12288145833332464
        },
        {
          "name": "F#2",
          "midi": 42,
          "time": 253.72902499999748,
          "velocity": 1,
          "duration": 0.12288145833332464
        },
        {
          "name": "F#2",
          "midi": 42,
          "time": 253.98326249999747,
          "velocity": 1,
          "duration": 0.12288145833332464
        },
        {
          "name": "D2",
          "midi": 38,
          "time": 254.23749999999745,
          "velocity": 1,
          "duration": 0.12288145833332464
        },
        {
          "name": "D2",
          "midi": 38,
          "time": 254.49173749999744,
          "velocity": 1,
          "duration": 0.12288145833332464
        },
        {
          "name": "D2",
          "midi": 38,
          "time": 254.61885624999744,
          "velocity": 1,
          "duration": 0.12288145833332464
        },
        {
          "name": "D2",
          "midi": 38,
          "time": 254.74597499999743,
          "velocity": 1,
          "duration": 0.12288145833332464
        },
        {
          "name": "D2",
          "midi": 38,
          "time": 255.00021249999742,
          "velocity": 1,
          "duration": 0.12288145833332464
        },
        {
          "name": "D2",
          "midi": 38,
          "time": 255.1273312499974,
          "velocity": 1,
          "duration": 0.12288145833332464
        },
        {
          "name": "D2",
          "midi": 38,
          "time": 255.2544499999974,
          "velocity": 1,
          "duration": 0.12288145833332464
        },
        {
          "name": "D2",
          "midi": 38,
          "time": 255.5086874999974,
          "velocity": 1,
          "duration": 0.12288145833332464
        },
        {
          "name": "D2",
          "midi": 38,
          "time": 255.6358062499974,
          "velocity": 1,
          "duration": 0.12288145833332464
        },
        {
          "name": "D2",
          "midi": 38,
          "time": 255.76292499999738,
          "velocity": 1,
          "duration": 0.12288145833332464
        },
        {
          "name": "D2",
          "midi": 38,
          "time": 256.01716249999737,
          "velocity": 1,
          "duration": 0.12288145833332464
        },
        {
          "name": "B2",
          "midi": 47,
          "time": 256.27139999999736,
          "velocity": 1,
          "duration": 0.12288145833332464
        },
        {
          "name": "B2",
          "midi": 47,
          "time": 256.52563749999734,
          "velocity": 1,
          "duration": 0.12288145833332464
        },
        {
          "name": "B2",
          "midi": 47,
          "time": 256.6527562499973,
          "velocity": 1,
          "duration": 0.12288145833332464
        },
        {
          "name": "B2",
          "midi": 47,
          "time": 256.7798749999973,
          "velocity": 1,
          "duration": 0.12288145833332464
        },
        {
          "name": "B2",
          "midi": 47,
          "time": 257.03411249999726,
          "velocity": 1,
          "duration": 0.12288145833332464
        },
        {
          "name": "B2",
          "midi": 47,
          "time": 257.16123124999723,
          "velocity": 1,
          "duration": 0.12288145833332464
        },
        {
          "name": "B2",
          "midi": 47,
          "time": 257.2883499999972,
          "velocity": 1,
          "duration": 0.12288145833332464
        },
        {
          "name": "B2",
          "midi": 47,
          "time": 257.5425874999972,
          "velocity": 1,
          "duration": 0.12288145833332464
        },
        {
          "name": "B2",
          "midi": 47,
          "time": 257.66970624999715,
          "velocity": 1,
          "duration": 0.12288145833332464
        },
        {
          "name": "B2",
          "midi": 47,
          "time": 257.7968249999971,
          "velocity": 1,
          "duration": 0.12288145833332464
        },
        {
          "name": "B2",
          "midi": 47,
          "time": 258.0510624999971,
          "velocity": 1,
          "duration": 0.12288145833332464
        },
        {
          "name": "E2",
          "midi": 40,
          "time": 258.3052999999971,
          "velocity": 1,
          "duration": 0.12288145833332464
        },
        {
          "name": "E2",
          "midi": 40,
          "time": 258.5595374999971,
          "velocity": 1,
          "duration": 0.12288145833332464
        },
        {
          "name": "E2",
          "midi": 40,
          "time": 258.68665624999704,
          "velocity": 1,
          "duration": 0.12288145833332464
        },
        {
          "name": "E2",
          "midi": 40,
          "time": 258.813774999997,
          "velocity": 1,
          "duration": 0.12288145833332464
        },
        {
          "name": "E2",
          "midi": 40,
          "time": 259.068012499997,
          "velocity": 1,
          "duration": 0.12288145833332464
        },
        {
          "name": "E2",
          "midi": 40,
          "time": 259.19513124999696,
          "velocity": 1,
          "duration": 0.12288145833332464
        },
        {
          "name": "E2",
          "midi": 40,
          "time": 259.3222499999969,
          "velocity": 1,
          "duration": 0.12288145833332464
        },
        {
          "name": "E2",
          "midi": 40,
          "time": 259.5764874999969,
          "velocity": 1,
          "duration": 0.12288145833332464
        },
        {
          "name": "E2",
          "midi": 40,
          "time": 259.7036062499969,
          "velocity": 1,
          "duration": 0.12288145833332464
        },
        {
          "name": "E2",
          "midi": 40,
          "time": 259.83072499999685,
          "velocity": 1,
          "duration": 0.12288145833332464
        },
        {
          "name": "E2",
          "midi": 40,
          "time": 260.08496249999683,
          "velocity": 1,
          "duration": 0.12288145833332464
        },
        {
          "name": "F#2",
          "midi": 42,
          "time": 260.3391999999968,
          "velocity": 1,
          "duration": 0.12288145833332464
        },
        {
          "name": "F#2",
          "midi": 42,
          "time": 260.5934374999968,
          "velocity": 1,
          "duration": 0.12288145833332464
        },
        {
          "name": "F#2",
          "midi": 42,
          "time": 260.7205562499968,
          "velocity": 1,
          "duration": 0.12288145833332464
        },
        {
          "name": "F#2",
          "midi": 42,
          "time": 260.84767499999674,
          "velocity": 1,
          "duration": 0.12288145833332464
        },
        {
          "name": "F#2",
          "midi": 42,
          "time": 261.10191249999673,
          "velocity": 1,
          "duration": 0.12288145833332464
        },
        {
          "name": "F#2",
          "midi": 42,
          "time": 261.2290312499967,
          "velocity": 1,
          "duration": 0.12288145833332464
        },
        {
          "name": "F#2",
          "midi": 42,
          "time": 261.35614999999666,
          "velocity": 1,
          "duration": 0.12288145833332464
        },
        {
          "name": "F#2",
          "midi": 42,
          "time": 261.61038749999665,
          "velocity": 1,
          "duration": 0.12288145833332464
        },
        {
          "name": "F#2",
          "midi": 42,
          "time": 261.7375062499966,
          "velocity": 1,
          "duration": 0.12288145833332464
        },
        {
          "name": "F#2",
          "midi": 42,
          "time": 261.8646249999966,
          "velocity": 1,
          "duration": 0.12288145833332464
        },
        {
          "name": "F#2",
          "midi": 42,
          "time": 262.11886249999657,
          "velocity": 1,
          "duration": 0.12288145833332464
        },
        {
          "name": "D2",
          "midi": 38,
          "time": 262.37309999999655,
          "velocity": 1,
          "duration": 0.12288145833332464
        },
        {
          "name": "D2",
          "midi": 38,
          "time": 262.62733749999654,
          "velocity": 1,
          "duration": 0.12288145833332464
        },
        {
          "name": "D2",
          "midi": 38,
          "time": 262.7544562499965,
          "velocity": 1,
          "duration": 0.12288145833332464
        },
        {
          "name": "D2",
          "midi": 38,
          "time": 262.8815749999965,
          "velocity": 1,
          "duration": 0.12288145833332464
        },
        {
          "name": "D2",
          "midi": 38,
          "time": 263.13581249999646,
          "velocity": 1,
          "duration": 0.12288145833332464
        },
        {
          "name": "D2",
          "midi": 38,
          "time": 263.2629312499964,
          "velocity": 1,
          "duration": 0.12288145833332464
        },
        {
          "name": "D2",
          "midi": 38,
          "time": 263.3900499999964,
          "velocity": 1,
          "duration": 0.12288145833332464
        },
        {
          "name": "D2",
          "midi": 38,
          "time": 263.6442874999964,
          "velocity": 1,
          "duration": 0.12288145833332464
        },
        {
          "name": "D2",
          "midi": 38,
          "time": 263.77140624999635,
          "velocity": 1,
          "duration": 0.12288145833332464
        },
        {
          "name": "D2",
          "midi": 38,
          "time": 263.8985249999963,
          "velocity": 1,
          "duration": 0.12288145833332464
        },
        {
          "name": "D2",
          "midi": 38,
          "time": 264.1527624999963,
          "velocity": 1,
          "duration": 0.12288145833332464
        },
        {
          "name": "B2",
          "midi": 47,
          "time": 264.4069999999963,
          "velocity": 1,
          "duration": 0.12288145833332464
        },
        {
          "name": "B2",
          "midi": 47,
          "time": 264.6612374999963,
          "velocity": 1,
          "duration": 0.12288145833332464
        },
        {
          "name": "B2",
          "midi": 47,
          "time": 264.78835624999624,
          "velocity": 1,
          "duration": 0.12288145833332464
        },
        {
          "name": "B2",
          "midi": 47,
          "time": 264.9154749999962,
          "velocity": 1,
          "duration": 0.12288145833332464
        },
        {
          "name": "B2",
          "midi": 47,
          "time": 265.1697124999962,
          "velocity": 1,
          "duration": 0.12288145833332464
        },
        {
          "name": "B2",
          "midi": 47,
          "time": 265.29683124999616,
          "velocity": 1,
          "duration": 0.12288145833332464
        },
        {
          "name": "B2",
          "midi": 47,
          "time": 265.4239499999961,
          "velocity": 1,
          "duration": 0.12288145833332464
        },
        {
          "name": "B2",
          "midi": 47,
          "time": 265.6781874999961,
          "velocity": 1,
          "duration": 0.12288145833332464
        },
        {
          "name": "B2",
          "midi": 47,
          "time": 265.8053062499961,
          "velocity": 1,
          "duration": 0.12288145833332464
        },
        {
          "name": "B2",
          "midi": 47,
          "time": 265.93242499999604,
          "velocity": 1,
          "duration": 0.12288145833332464
        },
        {
          "name": "B2",
          "midi": 47,
          "time": 266.18666249999603,
          "velocity": 1,
          "duration": 0.12288145833332464
        },
        {
          "name": "E2",
          "midi": 40,
          "time": 266.440899999996,
          "velocity": 1,
          "duration": 0.12288145833332464
        },
        {
          "name": "E2",
          "midi": 40,
          "time": 266.695137499996,
          "velocity": 1,
          "duration": 0.12288145833332464
        },
        {
          "name": "E2",
          "midi": 40,
          "time": 266.822256249996,
          "velocity": 1,
          "duration": 0.12288145833332464
        },
        {
          "name": "E2",
          "midi": 40,
          "time": 266.94937499999594,
          "velocity": 1,
          "duration": 0.12288145833332464
        },
        {
          "name": "E2",
          "midi": 40,
          "time": 267.2036124999959,
          "velocity": 1,
          "duration": 0.12288145833332464
        },
        {
          "name": "E2",
          "midi": 40,
          "time": 267.3307312499959,
          "velocity": 1,
          "duration": 0.12288145833332464
        },
        {
          "name": "E2",
          "midi": 40,
          "time": 267.45784999999586,
          "velocity": 1,
          "duration": 0.12288145833332464
        },
        {
          "name": "E2",
          "midi": 40,
          "time": 267.71208749999585,
          "velocity": 1,
          "duration": 0.12288145833332464
        },
        {
          "name": "E2",
          "midi": 40,
          "time": 267.8392062499958,
          "velocity": 1,
          "duration": 0.12288145833332464
        },
        {
          "name": "E2",
          "midi": 40,
          "time": 267.9663249999958,
          "velocity": 1,
          "duration": 0.12288145833332464
        },
        {
          "name": "E2",
          "midi": 40,
          "time": 268.22056249999576,
          "velocity": 1,
          "duration": 0.12288145833332464
        },
        {
          "name": "F#2",
          "midi": 42,
          "time": 268.47479999999575,
          "velocity": 1,
          "duration": 0.12288145833332464
        },
        {
          "name": "F#2",
          "midi": 42,
          "time": 268.72903749999574,
          "velocity": 1,
          "duration": 0.12288145833332464
        },
        {
          "name": "F#2",
          "midi": 42,
          "time": 268.8561562499957,
          "velocity": 1,
          "duration": 0.12288145833332464
        },
        {
          "name": "F#2",
          "midi": 42,
          "time": 268.9832749999957,
          "velocity": 1,
          "duration": 0.12288145833332464
        },
        {
          "name": "F#2",
          "midi": 42,
          "time": 269.23751249999566,
          "velocity": 1,
          "duration": 0.12288145833332464
        },
        {
          "name": "F#2",
          "midi": 42,
          "time": 269.3646312499956,
          "velocity": 1,
          "duration": 0.12288145833332464
        },
        {
          "name": "G#2",
          "midi": 44,
          "time": 269.4917499999956,
          "velocity": 1,
          "duration": 0.12288145833332464
        },
        {
          "name": "G#2",
          "midi": 44,
          "time": 269.7459874999956,
          "velocity": 1,
          "duration": 0.12288145833332464
        },
        {
          "name": "G#2",
          "midi": 44,
          "time": 269.87310624999554,
          "velocity": 1,
          "duration": 0.12288145833332464
        },
        {
          "name": "G#2",
          "midi": 44,
          "time": 270.0002249999955,
          "velocity": 1,
          "duration": 0.12288145833332464
        },
        {
          "name": "G#2",
          "midi": 44,
          "time": 270.2544624999955,
          "velocity": 1,
          "duration": 0.12288145833332464
        },
        {
          "name": "G#2",
          "midi": 44,
          "time": 270.38158124999546,
          "velocity": 1,
          "duration": 0.12288145833332464
        },
        {
          "name": "A2",
          "midi": 45,
          "time": 270.50869999999543,
          "velocity": 1,
          "duration": 0.12288145833332464
        },
        {
          "name": "A2",
          "midi": 45,
          "time": 270.7629374999954,
          "velocity": 1,
          "duration": 0.12288145833332464
        },
        {
          "name": "A2",
          "midi": 45,
          "time": 270.8900562499954,
          "velocity": 1,
          "duration": 0.12288145833332464
        },
        {
          "name": "A2",
          "midi": 45,
          "time": 271.01717499999535,
          "velocity": 1,
          "duration": 0.12288145833332464
        },
        {
          "name": "A2",
          "midi": 45,
          "time": 271.27141249999534,
          "velocity": 1,
          "duration": 0.12288145833332464
        },
        {
          "name": "A2",
          "midi": 45,
          "time": 271.3985312499953,
          "velocity": 1,
          "duration": 0.12288145833332464
        },
        {
          "name": "D3",
          "midi": 50,
          "time": 271.52564999999527,
          "velocity": 1,
          "duration": 0.12288145833332464
        },
        {
          "name": "D3",
          "midi": 50,
          "time": 271.77988749999525,
          "velocity": 1,
          "duration": 0.12288145833332464
        },
        {
          "name": "D3",
          "midi": 50,
          "time": 271.9070062499952,
          "velocity": 1,
          "duration": 0.12288145833332464
        },
        {
          "name": "D3",
          "midi": 50,
          "time": 272.0341249999952,
          "velocity": 1,
          "duration": 0.12288145833332464
        },
        {
          "name": "D3",
          "midi": 50,
          "time": 272.2883624999952,
          "velocity": 1,
          "duration": 0.12288145833332464
        },
        {
          "name": "D3",
          "midi": 50,
          "time": 272.41548124999514,
          "velocity": 1,
          "duration": 0.12288145833332464
        },
        {
          "name": "C#3",
          "midi": 49,
          "time": 272.5425999999951,
          "velocity": 1,
          "duration": 0.12288145833332464
        },
        {
          "name": "C#3",
          "midi": 49,
          "time": 272.7968374999951,
          "velocity": 1,
          "duration": 0.12288145833332464
        },
        {
          "name": "C#3",
          "midi": 49,
          "time": 272.92395624999506,
          "velocity": 1,
          "duration": 0.12288145833332464
        },
        {
          "name": "C#3",
          "midi": 49,
          "time": 273.051074999995,
          "velocity": 1,
          "duration": 0.12288145833332464
        },
        {
          "name": "C#3",
          "midi": 49,
          "time": 273.305312499995,
          "velocity": 1,
          "duration": 0.12288145833332464
        },
        {
          "name": "C#3",
          "midi": 49,
          "time": 273.432431249995,
          "velocity": 1,
          "duration": 0.12288145833332464
        },
        {
          "name": "C#3",
          "midi": 49,
          "time": 273.55954999999494,
          "velocity": 1,
          "duration": 0.12288145833332464
        },
        {
          "name": "C#3",
          "midi": 49,
          "time": 273.81378749999493,
          "velocity": 1,
          "duration": 0.12288145833332464
        },
        {
          "name": "C#3",
          "midi": 49,
          "time": 273.9409062499949,
          "velocity": 1,
          "duration": 0.12288145833332464
        },
        {
          "name": "C#3",
          "midi": 49,
          "time": 274.06802499999486,
          "velocity": 1,
          "duration": 0.12288145833332464
        },
        {
          "name": "C#3",
          "midi": 49,
          "time": 274.32226249999485,
          "velocity": 1,
          "duration": 0.12288145833332464
        },
        {
          "name": "C#3",
          "midi": 49,
          "time": 274.4493812499948,
          "velocity": 1,
          "duration": 0.12288145833332464
        },
        {
          "name": "C#3",
          "midi": 49,
          "time": 274.5764999999948,
          "velocity": 1,
          "duration": 1.9067812499999945
        },
        {
          "name": "F#2",
          "midi": 42,
          "time": 276.6103999999948,
          "velocity": 1,
          "duration": 0.12288145833332464
        },
        {
          "name": "F#2",
          "midi": 42,
          "time": 276.8646374999948,
          "velocity": 1,
          "duration": 0.12288145833332464
        },
        {
          "name": "F#2",
          "midi": 42,
          "time": 276.99175624999475,
          "velocity": 1,
          "duration": 0.12288145833332464
        },
        {
          "name": "F#2",
          "midi": 42,
          "time": 277.1188749999947,
          "velocity": 1,
          "duration": 0.12288145833332464
        },
        {
          "name": "F#2",
          "midi": 42,
          "time": 277.3731124999947,
          "velocity": 1,
          "duration": 0.12288145833332464
        },
        {
          "name": "F#2",
          "midi": 42,
          "time": 277.50023124999467,
          "velocity": 1,
          "duration": 0.12288145833332464
        },
        {
          "name": "F#2",
          "midi": 42,
          "time": 277.62734999999464,
          "velocity": 1,
          "duration": 0.12288145833332464
        },
        {
          "name": "F#2",
          "midi": 42,
          "time": 277.8815874999946,
          "velocity": 1,
          "duration": 0.12288145833332464
        },
        {
          "name": "F#2",
          "midi": 42,
          "time": 278.0087062499946,
          "velocity": 1,
          "duration": 0.12288145833332464
        },
        {
          "name": "F#2",
          "midi": 42,
          "time": 278.13582499999455,
          "velocity": 1,
          "duration": 0.12288145833332464
        },
        {
          "name": "F#2",
          "midi": 42,
          "time": 278.39006249999454,
          "velocity": 1,
          "duration": 0.12288145833332464
        },
        {
          "name": "D2",
          "midi": 38,
          "time": 278.64429999999453,
          "velocity": 1,
          "duration": 0.12288145833332464
        },
        {
          "name": "D2",
          "midi": 38,
          "time": 278.8985374999945,
          "velocity": 1,
          "duration": 0.12288145833332464
        },
        {
          "name": "D2",
          "midi": 38,
          "time": 279.0256562499945,
          "velocity": 1,
          "duration": 0.12288145833332464
        },
        {
          "name": "D2",
          "midi": 38,
          "time": 279.15277499999445,
          "velocity": 1,
          "duration": 0.12288145833332464
        },
        {
          "name": "D2",
          "midi": 38,
          "time": 279.40701249999444,
          "velocity": 1,
          "duration": 0.12288145833332464
        },
        {
          "name": "D2",
          "midi": 38,
          "time": 279.5341312499944,
          "velocity": 1,
          "duration": 0.12288145833332464
        },
        {
          "name": "D2",
          "midi": 38,
          "time": 279.66124999999437,
          "velocity": 1,
          "duration": 0.12288145833332464
        },
        {
          "name": "D2",
          "midi": 38,
          "time": 279.91548749999436,
          "velocity": 1,
          "duration": 0.12288145833332464
        },
        {
          "name": "D2",
          "midi": 38,
          "time": 280.0426062499943,
          "velocity": 1,
          "duration": 0.12288145833332464
        },
        {
          "name": "D2",
          "midi": 38,
          "time": 280.1697249999943,
          "velocity": 1,
          "duration": 0.12288145833332464
        },
        {
          "name": "D2",
          "midi": 38,
          "time": 280.4239624999943,
          "velocity": 1,
          "duration": 0.12288145833332464
        },
        {
          "name": "B2",
          "midi": 47,
          "time": 280.67819999999426,
          "velocity": 1,
          "duration": 0.12288145833332464
        },
        {
          "name": "B2",
          "midi": 47,
          "time": 280.93243749999425,
          "velocity": 1,
          "duration": 0.12288145833332464
        },
        {
          "name": "B2",
          "midi": 47,
          "time": 281.0595562499942,
          "velocity": 1,
          "duration": 0.12288145833332464
        },
        {
          "name": "B2",
          "midi": 47,
          "time": 281.1866749999942,
          "velocity": 1,
          "duration": 0.12288145833332464
        },
        {
          "name": "B2",
          "midi": 47,
          "time": 281.44091249999417,
          "velocity": 1,
          "duration": 0.12288145833332464
        },
        {
          "name": "B2",
          "midi": 47,
          "time": 281.56803124999414,
          "velocity": 1,
          "duration": 0.12288145833332464
        },
        {
          "name": "B2",
          "midi": 47,
          "time": 281.6951499999941,
          "velocity": 1,
          "duration": 0.12288145833332464
        },
        {
          "name": "B2",
          "midi": 47,
          "time": 281.9493874999941,
          "velocity": 1,
          "duration": 0.12288145833332464
        },
        {
          "name": "B2",
          "midi": 47,
          "time": 282.07650624999405,
          "velocity": 1,
          "duration": 0.12288145833332464
        },
        {
          "name": "B2",
          "midi": 47,
          "time": 282.203624999994,
          "velocity": 1,
          "duration": 0.12288145833332464
        },
        {
          "name": "B2",
          "midi": 47,
          "time": 282.457862499994,
          "velocity": 1,
          "duration": 0.12288145833332464
        },
        {
          "name": "E2",
          "midi": 40,
          "time": 282.712099999994,
          "velocity": 1,
          "duration": 0.12288145833332464
        },
        {
          "name": "E2",
          "midi": 40,
          "time": 282.966337499994,
          "velocity": 1,
          "duration": 0.12288145833332464
        },
        {
          "name": "E2",
          "midi": 40,
          "time": 283.09345624999395,
          "velocity": 1,
          "duration": 0.12288145833332464
        },
        {
          "name": "E2",
          "midi": 40,
          "time": 283.2205749999939,
          "velocity": 1,
          "duration": 0.12288145833332464
        },
        {
          "name": "E2",
          "midi": 40,
          "time": 283.4748124999939,
          "velocity": 1,
          "duration": 0.12288145833332464
        },
        {
          "name": "E2",
          "midi": 40,
          "time": 283.60193124999387,
          "velocity": 1,
          "duration": 0.12288145833332464
        },
        {
          "name": "E2",
          "midi": 40,
          "time": 283.72904999999383,
          "velocity": 1,
          "duration": 0.12288145833332464
        },
        {
          "name": "E2",
          "midi": 40,
          "time": 283.9832874999938,
          "velocity": 1,
          "duration": 0.12288145833332464
        },
        {
          "name": "E2",
          "midi": 40,
          "time": 284.1104062499938,
          "velocity": 1,
          "duration": 0.12288145833332464
        },
        {
          "name": "E2",
          "midi": 40,
          "time": 284.23752499999375,
          "velocity": 1,
          "duration": 0.12288145833332464
        },
        {
          "name": "E2",
          "midi": 40,
          "time": 284.49176249999374,
          "velocity": 1,
          "duration": 0.12288145833332464
        },
        {
          "name": "F#2",
          "midi": 42,
          "time": 284.7459999999937,
          "velocity": 1,
          "duration": 0.12288145833332464
        },
        {
          "name": "F#2",
          "midi": 42,
          "time": 285.0002374999937,
          "velocity": 1,
          "duration": 0.12288145833332464
        },
        {
          "name": "F#2",
          "midi": 42,
          "time": 285.1273562499937,
          "velocity": 1,
          "duration": 0.12288145833332464
        },
        {
          "name": "F#2",
          "midi": 42,
          "time": 285.25447499999365,
          "velocity": 1,
          "duration": 0.12288145833332464
        },
        {
          "name": "F#2",
          "midi": 42,
          "time": 285.50871249999363,
          "velocity": 1,
          "duration": 0.12288145833332464
        },
        {
          "name": "F#2",
          "midi": 42,
          "time": 285.6358312499936,
          "velocity": 1,
          "duration": 0.12288145833332464
        },
        {
          "name": "F#2",
          "midi": 42,
          "time": 285.76294999999357,
          "velocity": 1,
          "duration": 0.12288145833332464
        },
        {
          "name": "F#2",
          "midi": 42,
          "time": 286.01718749999355,
          "velocity": 1,
          "duration": 0.12288145833332464
        },
        {
          "name": "F#2",
          "midi": 42,
          "time": 286.1443062499935,
          "velocity": 1,
          "duration": 0.12288145833332464
        },
        {
          "name": "F#2",
          "midi": 42,
          "time": 286.2714249999935,
          "velocity": 1,
          "duration": 0.12288145833332464
        },
        {
          "name": "F#2",
          "midi": 42,
          "time": 286.5256624999935,
          "velocity": 1,
          "duration": 0.12288145833332464
        },
        {
          "name": "D2",
          "midi": 38,
          "time": 286.77989999999346,
          "velocity": 1,
          "duration": 0.12288145833332464
        },
        {
          "name": "D2",
          "midi": 38,
          "time": 287.03413749999345,
          "velocity": 1,
          "duration": 0.12288145833332464
        },
        {
          "name": "D2",
          "midi": 38,
          "time": 287.1612562499934,
          "velocity": 1,
          "duration": 0.12288145833332464
        },
        {
          "name": "D2",
          "midi": 38,
          "time": 287.2883749999934,
          "velocity": 1,
          "duration": 0.12288145833332464
        },
        {
          "name": "D2",
          "midi": 38,
          "time": 287.54261249999337,
          "velocity": 1,
          "duration": 0.12288145833332464
        },
        {
          "name": "D2",
          "midi": 38,
          "time": 287.66973124999333,
          "velocity": 1,
          "duration": 0.12288145833332464
        },
        {
          "name": "D2",
          "midi": 38,
          "time": 287.7968499999933,
          "velocity": 1,
          "duration": 0.12288145833332464
        },
        {
          "name": "D2",
          "midi": 38,
          "time": 288.0510874999933,
          "velocity": 1,
          "duration": 0.12288145833332464
        },
        {
          "name": "D2",
          "midi": 38,
          "time": 288.17820624999325,
          "velocity": 1,
          "duration": 0.12288145833332464
        },
        {
          "name": "D2",
          "midi": 38,
          "time": 288.3053249999932,
          "velocity": 1,
          "duration": 0.12288145833332464
        },
        {
          "name": "D2",
          "midi": 38,
          "time": 288.5595624999932,
          "velocity": 1,
          "duration": 0.12288145833332464
        },
        {
          "name": "B2",
          "midi": 47,
          "time": 288.8137999999932,
          "velocity": 1,
          "duration": 0.12288145833332464
        },
        {
          "name": "B2",
          "midi": 47,
          "time": 289.0680374999932,
          "velocity": 1,
          "duration": 0.12288145833332464
        },
        {
          "name": "B2",
          "midi": 47,
          "time": 289.19515624999315,
          "velocity": 1,
          "duration": 0.12288145833332464
        },
        {
          "name": "B2",
          "midi": 47,
          "time": 289.3222749999931,
          "velocity": 1,
          "duration": 0.12288145833332464
        },
        {
          "name": "B2",
          "midi": 47,
          "time": 289.5765124999931,
          "velocity": 1,
          "duration": 0.12288145833332464
        },
        {
          "name": "B2",
          "midi": 47,
          "time": 289.70363124999307,
          "velocity": 1,
          "duration": 0.12288145833332464
        },
        {
          "name": "B2",
          "midi": 47,
          "time": 289.83074999999303,
          "velocity": 1,
          "duration": 0.12288145833332464
        },
        {
          "name": "B2",
          "midi": 47,
          "time": 290.084987499993,
          "velocity": 1,
          "duration": 0.12288145833332464
        },
        {
          "name": "B2",
          "midi": 47,
          "time": 290.212106249993,
          "velocity": 1,
          "duration": 0.12288145833332464
        },
        {
          "name": "B2",
          "midi": 47,
          "time": 290.33922499999295,
          "velocity": 1,
          "duration": 0.12288145833332464
        },
        {
          "name": "B2",
          "midi": 47,
          "time": 290.59346249999294,
          "velocity": 1,
          "duration": 0.12288145833332464
        },
        {
          "name": "E2",
          "midi": 40,
          "time": 290.8476999999929,
          "velocity": 1,
          "duration": 0.12288145833332464
        },
        {
          "name": "E2",
          "midi": 40,
          "time": 291.1019374999929,
          "velocity": 1,
          "duration": 0.12288145833332464
        },
        {
          "name": "E2",
          "midi": 40,
          "time": 291.2290562499929,
          "velocity": 1,
          "duration": 0.12288145833332464
        },
        {
          "name": "E2",
          "midi": 40,
          "time": 291.35617499999285,
          "velocity": 1,
          "duration": 0.12288145833332464
        },
        {
          "name": "E2",
          "midi": 40,
          "time": 291.61041249999283,
          "velocity": 1,
          "duration": 0.12288145833332464
        },
        {
          "name": "E2",
          "midi": 40,
          "time": 291.7375312499928,
          "velocity": 1,
          "duration": 0.12288145833332464
        },
        {
          "name": "E2",
          "midi": 40,
          "time": 291.86464999999276,
          "velocity": 1,
          "duration": 0.12288145833332464
        },
        {
          "name": "E2",
          "midi": 40,
          "time": 292.11888749999275,
          "velocity": 1,
          "duration": 0.12288145833332464
        },
        {
          "name": "E2",
          "midi": 40,
          "time": 292.2460062499927,
          "velocity": 1,
          "duration": 0.12288145833332464
        },
        {
          "name": "E2",
          "midi": 40,
          "time": 292.3731249999927,
          "velocity": 1,
          "duration": 0.12288145833332464
        },
        {
          "name": "E2",
          "midi": 40,
          "time": 292.62736249999267,
          "velocity": 1,
          "duration": 0.12288145833332464
        },
        {
          "name": "F#2",
          "midi": 42,
          "time": 292.88159999999266,
          "velocity": 1,
          "duration": 0.12288145833332464
        },
        {
          "name": "F#2",
          "midi": 42,
          "time": 293.13583749999265,
          "velocity": 1,
          "duration": 0.12288145833332464
        },
        {
          "name": "F#2",
          "midi": 42,
          "time": 293.2629562499926,
          "velocity": 1,
          "duration": 0.12288145833332464
        },
        {
          "name": "F#2",
          "midi": 42,
          "time": 293.3900749999926,
          "velocity": 1,
          "duration": 0.12288145833332464
        },
        {
          "name": "F#2",
          "midi": 42,
          "time": 293.64431249999257,
          "velocity": 1,
          "duration": 0.12288145833332464
        },
        {
          "name": "F#2",
          "midi": 42,
          "time": 293.77143124999253,
          "velocity": 1,
          "duration": 0.12288145833332464
        },
        {
          "name": "G#2",
          "midi": 44,
          "time": 293.8985499999925,
          "velocity": 1,
          "duration": 0.12288145833332464
        },
        {
          "name": "G#2",
          "midi": 44,
          "time": 294.1527874999925,
          "velocity": 1,
          "duration": 0.12288145833332464
        },
        {
          "name": "G#2",
          "midi": 44,
          "time": 294.27990624999245,
          "velocity": 1,
          "duration": 0.12288145833332464
        },
        {
          "name": "G#2",
          "midi": 44,
          "time": 294.4070249999924,
          "velocity": 1,
          "duration": 0.12288145833332464
        },
        {
          "name": "G#2",
          "midi": 44,
          "time": 294.6612624999924,
          "velocity": 1,
          "duration": 0.12288145833332464
        },
        {
          "name": "G#2",
          "midi": 44,
          "time": 294.78838124999237,
          "velocity": 1,
          "duration": 0.12288145833332464
        },
        {
          "name": "A2",
          "midi": 45,
          "time": 294.91549999999233,
          "velocity": 1,
          "duration": 0.12288145833332464
        },
        {
          "name": "A2",
          "midi": 45,
          "time": 295.1697374999923,
          "velocity": 1,
          "duration": 0.12288145833332464
        },
        {
          "name": "A2",
          "midi": 45,
          "time": 295.2968562499923,
          "velocity": 1,
          "duration": 0.12288145833332464
        },
        {
          "name": "A2",
          "midi": 45,
          "time": 295.42397499999225,
          "velocity": 1,
          "duration": 0.12288145833332464
        },
        {
          "name": "A2",
          "midi": 45,
          "time": 295.67821249999224,
          "velocity": 1,
          "duration": 0.12288145833332464
        },
        {
          "name": "A2",
          "midi": 45,
          "time": 295.8053312499922,
          "velocity": 1,
          "duration": 0.12288145833332464
        },
        {
          "name": "D3",
          "midi": 50,
          "time": 295.9324499999922,
          "velocity": 1,
          "duration": 0.12288145833332464
        },
        {
          "name": "D3",
          "midi": 50,
          "time": 296.18668749999216,
          "velocity": 1,
          "duration": 0.12288145833332464
        },
        {
          "name": "D3",
          "midi": 50,
          "time": 296.3138062499921,
          "velocity": 1,
          "duration": 0.12288145833332464
        },
        {
          "name": "D3",
          "midi": 50,
          "time": 296.4409249999921,
          "velocity": 1,
          "duration": 0.12288145833332464
        },
        {
          "name": "D3",
          "midi": 50,
          "time": 296.6951624999921,
          "velocity": 1,
          "duration": 0.12288145833332464
        },
        {
          "name": "D3",
          "midi": 50,
          "time": 296.82228124999205,
          "velocity": 1,
          "duration": 0.12288145833332464
        },
        {
          "name": "C#3",
          "midi": 49,
          "time": 296.949399999992,
          "velocity": 1,
          "duration": 0.12288145833332464
        },
        {
          "name": "C#3",
          "midi": 49,
          "time": 297.203637499992,
          "velocity": 1,
          "duration": 0.12288145833332464
        },
        {
          "name": "C#3",
          "midi": 49,
          "time": 297.33075624999196,
          "velocity": 1,
          "duration": 0.12288145833332464
        },
        {
          "name": "C#3",
          "midi": 49,
          "time": 297.45787499999193,
          "velocity": 1,
          "duration": 0.12288145833332464
        },
        {
          "name": "C#3",
          "midi": 49,
          "time": 297.7121124999919,
          "velocity": 1,
          "duration": 0.12288145833332464
        },
        {
          "name": "C#3",
          "midi": 49,
          "time": 297.8392312499919,
          "velocity": 1,
          "duration": 0.12288145833332464
        },
        {
          "name": "C#3",
          "midi": 49,
          "time": 297.96634999999185,
          "velocity": 1,
          "duration": 0.12288145833332464
        },
        {
          "name": "C#3",
          "midi": 49,
          "time": 298.22058749999184,
          "velocity": 1,
          "duration": 0.12288145833332464
        },
        {
          "name": "C#3",
          "midi": 49,
          "time": 298.3477062499918,
          "velocity": 1,
          "duration": 0.12288145833332464
        },
        {
          "name": "C#3",
          "midi": 49,
          "time": 298.47482499999177,
          "velocity": 1,
          "duration": 0.12288145833332464
        },
        {
          "name": "C#3",
          "midi": 49,
          "time": 298.72906249999176,
          "velocity": 1,
          "duration": 0.12288145833332464
        },
        {
          "name": "C#3",
          "midi": 49,
          "time": 298.8561812499917,
          "velocity": 1,
          "duration": 0.12288145833332464
        },
        {
          "name": "C#3",
          "midi": 49,
          "time": 298.9832999999917,
          "velocity": 1,
          "duration": 1.9067812499999945
        },
        {
          "name": "F#2",
          "midi": 42,
          "time": 301.0171999999917,
          "velocity": 1,
          "duration": 0.12288145833332464
        },
        {
          "name": "F#2",
          "midi": 42,
          "time": 301.2714374999917,
          "velocity": 1,
          "duration": 0.12288145833332464
        },
        {
          "name": "F#2",
          "midi": 42,
          "time": 301.39855624999166,
          "velocity": 1,
          "duration": 0.12288145833332464
        },
        {
          "name": "F#2",
          "midi": 42,
          "time": 301.5256749999916,
          "velocity": 1,
          "duration": 0.12288145833332464
        },
        {
          "name": "F#2",
          "midi": 42,
          "time": 301.7799124999916,
          "velocity": 1,
          "duration": 0.12288145833332464
        },
        {
          "name": "F#2",
          "midi": 42,
          "time": 301.9070312499916,
          "velocity": 1,
          "duration": 0.12288145833332464
        },
        {
          "name": "F#2",
          "midi": 42,
          "time": 302.03414999999154,
          "velocity": 1,
          "duration": 0.12288145833332464
        },
        {
          "name": "F#2",
          "midi": 42,
          "time": 302.28838749999153,
          "velocity": 1,
          "duration": 0.12288145833332464
        },
        {
          "name": "F#2",
          "midi": 42,
          "time": 302.4155062499915,
          "velocity": 1,
          "duration": 0.12288145833332464
        },
        {
          "name": "F#2",
          "midi": 42,
          "time": 302.54262499999146,
          "velocity": 1,
          "duration": 0.12288145833332464
        },
        {
          "name": "F#2",
          "midi": 42,
          "time": 302.79686249999145,
          "velocity": 1,
          "duration": 0.12288145833332464
        },
        {
          "name": "D2",
          "midi": 38,
          "time": 303.05109999999144,
          "velocity": 1,
          "duration": 0.12288145833332464
        },
        {
          "name": "D2",
          "midi": 38,
          "time": 303.3053374999914,
          "velocity": 1,
          "duration": 0.12288145833332464
        },
        {
          "name": "D2",
          "midi": 38,
          "time": 303.4324562499914,
          "velocity": 1,
          "duration": 0.12288145833332464
        },
        {
          "name": "D2",
          "midi": 38,
          "time": 303.55957499999136,
          "velocity": 1,
          "duration": 0.12288145833332464
        },
        {
          "name": "D2",
          "midi": 38,
          "time": 303.81381249999134,
          "velocity": 1,
          "duration": 0.12288145833332464
        },
        {
          "name": "D2",
          "midi": 38,
          "time": 303.9409312499913,
          "velocity": 1,
          "duration": 0.12288145833332464
        },
        {
          "name": "D2",
          "midi": 38,
          "time": 304.0680499999913,
          "velocity": 1,
          "duration": 0.12288145833332464
        },
        {
          "name": "D2",
          "midi": 38,
          "time": 304.32228749999126,
          "velocity": 1,
          "duration": 0.12288145833332464
        },
        {
          "name": "D2",
          "midi": 38,
          "time": 304.4494062499912,
          "velocity": 1,
          "duration": 0.12288145833332464
        },
        {
          "name": "D2",
          "midi": 38,
          "time": 304.5765249999912,
          "velocity": 1,
          "duration": 0.12288145833332464
        },
        {
          "name": "D2",
          "midi": 38,
          "time": 304.8307624999912,
          "velocity": 1,
          "duration": 0.12288145833332464
        },
        {
          "name": "B2",
          "midi": 47,
          "time": 305.08499999999117,
          "velocity": 1,
          "duration": 0.12288145833332464
        },
        {
          "name": "B2",
          "midi": 47,
          "time": 305.33923749999116,
          "velocity": 1,
          "duration": 0.12288145833332464
        },
        {
          "name": "B2",
          "midi": 47,
          "time": 305.4663562499911,
          "velocity": 1,
          "duration": 0.12288145833332464
        },
        {
          "name": "B2",
          "midi": 47,
          "time": 305.5934749999911,
          "velocity": 1,
          "duration": 0.12288145833332464
        },
        {
          "name": "B2",
          "midi": 47,
          "time": 305.8477124999911,
          "velocity": 1,
          "duration": 0.12288145833332464
        },
        {
          "name": "B2",
          "midi": 47,
          "time": 305.97483124999104,
          "velocity": 1,
          "duration": 0.12288145833332464
        },
        {
          "name": "B2",
          "midi": 47,
          "time": 306.101949999991,
          "velocity": 1,
          "duration": 0.12288145833332464
        },
        {
          "name": "B2",
          "midi": 47,
          "time": 306.356187499991,
          "velocity": 1,
          "duration": 0.12288145833332464
        },
        {
          "name": "B2",
          "midi": 47,
          "time": 306.48330624999096,
          "velocity": 1,
          "duration": 0.12288145833332464
        },
        {
          "name": "B2",
          "midi": 47,
          "time": 306.6104249999909,
          "velocity": 1,
          "duration": 0.12288145833332464
        },
        {
          "name": "B2",
          "midi": 47,
          "time": 306.8646624999909,
          "velocity": 1,
          "duration": 0.12288145833332464
        },
        {
          "name": "E2",
          "midi": 40,
          "time": 307.1188999999909,
          "velocity": 1,
          "duration": 0.12288145833332464
        },
        {
          "name": "E2",
          "midi": 40,
          "time": 307.3731374999909,
          "velocity": 1,
          "duration": 0.12288145833332464
        },
        {
          "name": "E2",
          "midi": 40,
          "time": 307.50025624999085,
          "velocity": 1,
          "duration": 0.12288145833332464
        },
        {
          "name": "E2",
          "midi": 40,
          "time": 307.6273749999908,
          "velocity": 1,
          "duration": 0.12288145833332464
        },
        {
          "name": "E2",
          "midi": 40,
          "time": 307.8816124999908,
          "velocity": 1,
          "duration": 0.12288145833332464
        },
        {
          "name": "E2",
          "midi": 40,
          "time": 308.0087312499908,
          "velocity": 1,
          "duration": 0.12288145833332464
        },
        {
          "name": "E2",
          "midi": 40,
          "time": 308.13584999999074,
          "velocity": 1,
          "duration": 0.12288145833332464
        },
        {
          "name": "E2",
          "midi": 40,
          "time": 308.3900874999907,
          "velocity": 1,
          "duration": 0.12288145833332464
        },
        {
          "name": "E2",
          "midi": 40,
          "time": 308.5172062499907,
          "velocity": 1,
          "duration": 0.12288145833332464
        },
        {
          "name": "E2",
          "midi": 40,
          "time": 308.64432499999066,
          "velocity": 1,
          "duration": 0.12288145833332464
        },
        {
          "name": "E2",
          "midi": 40,
          "time": 308.89856249999065,
          "velocity": 1,
          "duration": 0.12288145833332464
        },
        {
          "name": "F#2",
          "midi": 42,
          "time": 309.15279999999063,
          "velocity": 1,
          "duration": 0.12288145833332464
        },
        {
          "name": "F#2",
          "midi": 42,
          "time": 309.4070374999906,
          "velocity": 1,
          "duration": 0.12288145833332464
        },
        {
          "name": "F#2",
          "midi": 42,
          "time": 309.5341562499906,
          "velocity": 1,
          "duration": 0.12288145833332464
        },
        {
          "name": "F#2",
          "midi": 42,
          "time": 309.66127499999055,
          "velocity": 1,
          "duration": 0.12288145833332464
        },
        {
          "name": "F#2",
          "midi": 42,
          "time": 309.91551249999054,
          "velocity": 1,
          "duration": 0.12288145833332464
        },
        {
          "name": "F#2",
          "midi": 42,
          "time": 310.0426312499905,
          "velocity": 1,
          "duration": 0.12288145833332464
        },
        {
          "name": "F#2",
          "midi": 42,
          "time": 310.1697499999905,
          "velocity": 1,
          "duration": 0.12288145833332464
        },
        {
          "name": "F#2",
          "midi": 42,
          "time": 310.42398749999046,
          "velocity": 1,
          "duration": 0.12288145833332464
        },
        {
          "name": "F#2",
          "midi": 42,
          "time": 310.5511062499904,
          "velocity": 1,
          "duration": 0.12288145833332464
        },
        {
          "name": "F#2",
          "midi": 42,
          "time": 310.6782249999904,
          "velocity": 1,
          "duration": 0.12288145833332464
        },
        {
          "name": "F#2",
          "midi": 42,
          "time": 310.9324624999904,
          "velocity": 1,
          "duration": 0.12288145833332464
        },
        {
          "name": "D2",
          "midi": 38,
          "time": 311.18669999999037,
          "velocity": 1,
          "duration": 0.12288145833332464
        },
        {
          "name": "D2",
          "midi": 38,
          "time": 311.44093749999035,
          "velocity": 1,
          "duration": 0.12288145833332464
        },
        {
          "name": "D2",
          "midi": 38,
          "time": 311.5680562499903,
          "velocity": 1,
          "duration": 0.12288145833332464
        },
        {
          "name": "D2",
          "midi": 38,
          "time": 311.6951749999903,
          "velocity": 1,
          "duration": 0.12288145833332464
        },
        {
          "name": "D2",
          "midi": 38,
          "time": 311.9494124999903,
          "velocity": 1,
          "duration": 0.12288145833332464
        },
        {
          "name": "D2",
          "midi": 38,
          "time": 312.07653124999024,
          "velocity": 1,
          "duration": 0.12288145833332464
        },
        {
          "name": "D2",
          "midi": 38,
          "time": 312.2036499999902,
          "velocity": 1,
          "duration": 0.12288145833332464
        },
        {
          "name": "D2",
          "midi": 38,
          "time": 312.4578874999902,
          "velocity": 1,
          "duration": 0.12288145833332464
        },
        {
          "name": "D2",
          "midi": 38,
          "time": 312.58500624999016,
          "velocity": 1,
          "duration": 0.12288145833332464
        },
        {
          "name": "D2",
          "midi": 38,
          "time": 312.7121249999901,
          "velocity": 1,
          "duration": 0.12288145833332464
        },
        {
          "name": "D2",
          "midi": 38,
          "time": 312.9663624999901,
          "velocity": 1,
          "duration": 0.12288145833332464
        },
        {
          "name": "B2",
          "midi": 47,
          "time": 313.2205999999901,
          "velocity": 1,
          "duration": 0.12288145833332464
        },
        {
          "name": "B2",
          "midi": 47,
          "time": 313.4748374999901,
          "velocity": 1,
          "duration": 0.12288145833332464
        },
        {
          "name": "B2",
          "midi": 47,
          "time": 313.60195624999005,
          "velocity": 1,
          "duration": 0.12288145833332464
        },
        {
          "name": "B2",
          "midi": 47,
          "time": 313.72907499999,
          "velocity": 1,
          "duration": 0.12288145833332464
        },
        {
          "name": "B2",
          "midi": 47,
          "time": 313.98331249999,
          "velocity": 1,
          "duration": 0.12288145833332464
        },
        {
          "name": "B2",
          "midi": 47,
          "time": 314.11043124999,
          "velocity": 1,
          "duration": 0.12288145833332464
        },
        {
          "name": "B2",
          "midi": 47,
          "time": 314.23754999998994,
          "velocity": 1,
          "duration": 0.12288145833332464
        },
        {
          "name": "B2",
          "midi": 47,
          "time": 314.4917874999899,
          "velocity": 1,
          "duration": 0.12288145833332464
        },
        {
          "name": "B2",
          "midi": 47,
          "time": 314.6189062499899,
          "velocity": 1,
          "duration": 0.12288145833332464
        },
        {
          "name": "B2",
          "midi": 47,
          "time": 314.74602499998986,
          "velocity": 1,
          "duration": 0.12288145833332464
        },
        {
          "name": "B2",
          "midi": 47,
          "time": 315.00026249998984,
          "velocity": 1,
          "duration": 0.12288145833332464
        },
        {
          "name": "E2",
          "midi": 40,
          "time": 315.25449999998983,
          "velocity": 1,
          "duration": 0.12288145833332464
        },
        {
          "name": "E2",
          "midi": 40,
          "time": 315.5087374999898,
          "velocity": 1,
          "duration": 0.12288145833332464
        },
        {
          "name": "E2",
          "midi": 40,
          "time": 315.6358562499898,
          "velocity": 1,
          "duration": 0.12288145833332464
        },
        {
          "name": "E2",
          "midi": 40,
          "time": 315.76297499998975,
          "velocity": 1,
          "duration": 0.12288145833332464
        },
        {
          "name": "E2",
          "midi": 40,
          "time": 316.01721249998974,
          "velocity": 1,
          "duration": 0.12288145833332464
        },
        {
          "name": "E2",
          "midi": 40,
          "time": 316.1443312499897,
          "velocity": 1,
          "duration": 0.12288145833332464
        },
        {
          "name": "E2",
          "midi": 40,
          "time": 316.27144999998967,
          "velocity": 1,
          "duration": 0.12288145833332464
        },
        {
          "name": "E2",
          "midi": 40,
          "time": 316.52568749998966,
          "velocity": 1,
          "duration": 0.12288145833332464
        },
        {
          "name": "E2",
          "midi": 40,
          "time": 316.6528062499896,
          "velocity": 1,
          "duration": 0.12288145833332464
        },
        {
          "name": "E2",
          "midi": 40,
          "time": 316.7799249999896,
          "velocity": 1,
          "duration": 0.12288145833332464
        },
        {
          "name": "E2",
          "midi": 40,
          "time": 317.0341624999896,
          "velocity": 1,
          "duration": 0.12288145833332464
        },
        {
          "name": "F#2",
          "midi": 42,
          "time": 317.28839999998957,
          "velocity": 1,
          "duration": 0.12288145833332464
        },
        {
          "name": "F#2",
          "midi": 42,
          "time": 317.54263749998955,
          "velocity": 1,
          "duration": 0.12288145833332464
        },
        {
          "name": "F#2",
          "midi": 42,
          "time": 317.6697562499895,
          "velocity": 1,
          "duration": 0.12288145833332464
        },
        {
          "name": "F#2",
          "midi": 42,
          "time": 317.7968749999895,
          "velocity": 1,
          "duration": 0.12288145833332464
        },
        {
          "name": "F#2",
          "midi": 42,
          "time": 318.0511124999895,
          "velocity": 1,
          "duration": 0.12288145833332464
        },
        {
          "name": "F#2",
          "midi": 42,
          "time": 318.17823124998944,
          "velocity": 1,
          "duration": 0.12288145833332464
        },
        {
          "name": "G#2",
          "midi": 44,
          "time": 318.3053499999894,
          "velocity": 1,
          "duration": 0.12288145833332464
        },
        {
          "name": "G#2",
          "midi": 44,
          "time": 318.5595874999894,
          "velocity": 1,
          "duration": 0.12288145833332464
        },
        {
          "name": "G#2",
          "midi": 44,
          "time": 318.68670624998936,
          "velocity": 1,
          "duration": 0.12288145833332464
        },
        {
          "name": "G#2",
          "midi": 44,
          "time": 318.8138249999893,
          "velocity": 1,
          "duration": 0.12288145833332464
        },
        {
          "name": "G#2",
          "midi": 44,
          "time": 319.0680624999893,
          "velocity": 1,
          "duration": 0.12288145833332464
        },
        {
          "name": "G#2",
          "midi": 44,
          "time": 319.1951812499893,
          "velocity": 1,
          "duration": 0.12288145833332464
        },
        {
          "name": "A2",
          "midi": 45,
          "time": 319.32229999998924,
          "velocity": 1,
          "duration": 0.12288145833332464
        },
        {
          "name": "A2",
          "midi": 45,
          "time": 319.57653749998923,
          "velocity": 1,
          "duration": 0.12288145833332464
        },
        {
          "name": "A2",
          "midi": 45,
          "time": 319.7036562499892,
          "velocity": 1,
          "duration": 0.12288145833332464
        },
        {
          "name": "A2",
          "midi": 45,
          "time": 319.83077499998916,
          "velocity": 1,
          "duration": 0.12288145833332464
        },
        {
          "name": "A2",
          "midi": 45,
          "time": 320.08501249998915,
          "velocity": 1,
          "duration": 0.12288145833332464
        },
        {
          "name": "A2",
          "midi": 45,
          "time": 320.2121312499891,
          "velocity": 1,
          "duration": 0.12288145833332464
        },
        {
          "name": "D3",
          "midi": 50,
          "time": 320.3392499999891,
          "velocity": 1,
          "duration": 0.12288145833332464
        },
        {
          "name": "D3",
          "midi": 50,
          "time": 320.59348749998907,
          "velocity": 1,
          "duration": 0.12288145833332464
        },
        {
          "name": "D3",
          "midi": 50,
          "time": 320.72060624998903,
          "velocity": 1,
          "duration": 0.12288145833332464
        },
        {
          "name": "D3",
          "midi": 50,
          "time": 320.847724999989,
          "velocity": 1,
          "duration": 0.12288145833332464
        },
        {
          "name": "D3",
          "midi": 50,
          "time": 321.101962499989,
          "velocity": 1,
          "duration": 0.12288145833332464
        },
        {
          "name": "D3",
          "midi": 50,
          "time": 321.22908124998895,
          "velocity": 1,
          "duration": 0.12288145833332464
        },
        {
          "name": "C#3",
          "midi": 49,
          "time": 321.3561999999889,
          "velocity": 1,
          "duration": 0.12288145833332464
        },
        {
          "name": "C#3",
          "midi": 49,
          "time": 321.6104374999889,
          "velocity": 1,
          "duration": 0.12288145833332464
        },
        {
          "name": "C#3",
          "midi": 49,
          "time": 321.73755624998887,
          "velocity": 1,
          "duration": 0.12288145833332464
        },
        {
          "name": "C#3",
          "midi": 49,
          "time": 321.86467499998884,
          "velocity": 1,
          "duration": 0.12288145833332464
        },
        {
          "name": "C#3",
          "midi": 49,
          "time": 322.1189124999888,
          "velocity": 1,
          "duration": 0.12288145833332464
        },
        {
          "name": "C#3",
          "midi": 49,
          "time": 322.2460312499888,
          "velocity": 1,
          "duration": 0.12288145833332464
        },
        {
          "name": "C#3",
          "midi": 49,
          "time": 322.37314999998875,
          "velocity": 1,
          "duration": 0.12288145833332464
        },
        {
          "name": "C#3",
          "midi": 49,
          "time": 322.62738749998874,
          "velocity": 1,
          "duration": 0.12288145833332464
        },
        {
          "name": "C#3",
          "midi": 49,
          "time": 322.7545062499887,
          "velocity": 1,
          "duration": 0.12288145833332464
        },
        {
          "name": "C#3",
          "midi": 49,
          "time": 322.8816249999887,
          "velocity": 1,
          "duration": 0.12288145833332464
        },
        {
          "name": "C#3",
          "midi": 49,
          "time": 323.13586249998866,
          "velocity": 1,
          "duration": 0.12288145833332464
        },
        {
          "name": "C#3",
          "midi": 49,
          "time": 323.2629812499886,
          "velocity": 1,
          "duration": 0.12288145833332464
        },
        {
          "name": "C#3",
          "midi": 49,
          "time": 323.3900999999886,
          "velocity": 1,
          "duration": 1.9067812499999945
        }
      ],
      "controlChanges": {
        "7": [
          {
            "number": 7,
            "time": 0.7330514583333333,
            "value": 1
          },
          {
            "number": 7,
            "time": 1.7457641666666666,
            "value": 1
          }
        ],
        "91": [
          {
            "number": 91,
            "time": 0.7288141666666667,
            "value": 1
          }
        ],
        "93": [
          {
            "number": 93,
            "time": 0.7203395833333334,
            "value": 1
          }
        ]
      },
      "id": 10,
      "name": "drive guitar",
      "instrumentNumber": 30,
      "instrumentFamily": "drums",
      "channelNumber": 10,
      "isPercussion": true
    },
    {
      "startTime": 2.0339,
      "duration": 48.80936270833335,
      "length": 23,
      "notes": [
        {
          "name": "C1",
          "midi": 24,
          "time": 2.0339,
          "velocity": 1,
          "duration": 2.0296627083333334
        },
        {
          "name": "C1",
          "midi": 24,
          "time": 4.0678,
          "velocity": 1,
          "duration": 2.0296627083333334
        },
        {
          "name": "C1",
          "midi": 24,
          "time": 6.1017,
          "velocity": 1,
          "duration": 2.0296627083333343
        },
        {
          "name": "C1",
          "midi": 24,
          "time": 8.135600000000002,
          "velocity": 1,
          "duration": 2.0296627083333334
        },
        {
          "name": "C1",
          "midi": 24,
          "time": 10.169500000000003,
          "velocity": 1,
          "duration": 2.0296627083333334
        },
        {
          "name": "C1",
          "midi": 24,
          "time": 12.203400000000004,
          "velocity": 1,
          "duration": 2.0296627083333334
        },
        {
          "name": "C1",
          "midi": 24,
          "time": 14.237300000000005,
          "velocity": 1,
          "duration": 2.0296627083333334
        },
        {
          "name": "C1",
          "midi": 24,
          "time": 16.271200000000004,
          "velocity": 1,
          "duration": 2.0296627083333334
        },
        {
          "name": "C1",
          "midi": 24,
          "time": 18.305100000000003,
          "velocity": 1,
          "duration": 2.0296627083333334
        },
        {
          "name": "C1",
          "midi": 24,
          "time": 20.339000000000002,
          "velocity": 1,
          "duration": 2.0296627083333334
        },
        {
          "name": "C1",
          "midi": 24,
          "time": 22.3729,
          "velocity": 1,
          "duration": 2.0296627083333334
        },
        {
          "name": "C1",
          "midi": 24,
          "time": 24.4068,
          "velocity": 1,
          "duration": 2.0296627083333334
        },
        {
          "name": "C1",
          "midi": 24,
          "time": 26.4407,
          "velocity": 1,
          "duration": 2.0296627083333334
        },
        {
          "name": "C1",
          "midi": 24,
          "time": 28.4746,
          "velocity": 1,
          "duration": 2.0296627083333334
        },
        {
          "name": "C1",
          "midi": 24,
          "time": 30.508499999999998,
          "velocity": 1,
          "duration": 2.0296627083333334
        },
        {
          "name": "C1",
          "midi": 24,
          "time": 32.5424,
          "velocity": 1,
          "duration": 2.0296627083333334
        },
        {
          "name": "C1",
          "midi": 24,
          "time": 34.5763,
          "velocity": 1,
          "duration": 2.0296627083333334
        },
        {
          "name": "C1",
          "midi": 24,
          "time": 36.610200000000006,
          "velocity": 1,
          "duration": 2.0296627083333334
        },
        {
          "name": "C1",
          "midi": 24,
          "time": 38.64410000000001,
          "velocity": 1,
          "duration": 2.0296627083333334
        },
        {
          "name": "C1",
          "midi": 24,
          "time": 40.67800000000001,
          "velocity": 1,
          "duration": 2.0296627083333334
        },
        {
          "name": "C1",
          "midi": 24,
          "time": 42.711900000000014,
          "velocity": 1,
          "duration": 2.0296627083333334
        },
        {
          "name": "C1",
          "midi": 24,
          "time": 44.74580000000002,
          "velocity": 1,
          "duration": 2.0296627083333334
        },
        {
          "name": "C1",
          "midi": 24,
          "time": 46.77970000000002,
          "velocity": 1,
          "duration": 2.0296627083333334
        }
      ],
      "controlChanges": {
        "7": [
          {
            "number": 7,
            "time": 0.7542379166666666,
            "value": 1
          },
          {
            "number": 7,
            "time": 1.728815,
            "value": 1
          }
        ],
        "32": [
          {
            "number": 32,
            "time": 0.7457633333333333,
            "value": 0.023622047244094488
          }
        ]
      },
      "id": 11,
      "name": "effect",
      "instrumentNumber": 127,
      "instrument": "gunshot",
      "instrumentFamily": "sound effects",
      "channelNumber": 11,
      "isPercussion": false
    },
    {
      "startTime": 52.89411187500001,
      "duration": 322.38162458333267,
      "length": 68,
      "notes": [
        {
          "name": "A3",
          "midi": 57,
          "time": 52.89411187500001,
          "velocity": 0.984251968503937,
          "duration": 1.012712708333332
        },
        {
          "name": "A3",
          "midi": 57,
          "time": 69.165311875,
          "velocity": 0.984251968503937,
          "duration": 1.0127127083333392
        },
        {
          "name": "A3",
          "midi": 57,
          "time": 70.18226187500001,
          "velocity": 0.984251968503937,
          "duration": 1.0127127083333392
        },
        {
          "name": "A3",
          "midi": 57,
          "time": 71.19921187500002,
          "velocity": 0.9921259842519685,
          "duration": 1.0127127083333392
        },
        {
          "name": "A3",
          "midi": 57,
          "time": 72.21616187500003,
          "velocity": 0.984251968503937,
          "duration": 1.0127127083333392
        },
        {
          "name": "A3",
          "midi": 57,
          "time": 73.23311187500003,
          "velocity": 0.9763779527559056,
          "duration": 1.0127127083333392
        },
        {
          "name": "A3",
          "midi": 57,
          "time": 77.28820000000005,
          "velocity": 0.952755905511811,
          "duration": 0.2500002083333328
        },
        {
          "name": "A3",
          "midi": 57,
          "time": 85.42380000000004,
          "velocity": 0.952755905511811,
          "duration": 0.2500002083333328
        },
        {
          "name": "A3",
          "midi": 57,
          "time": 97.62720000000004,
          "velocity": 0.905511811023622,
          "duration": 1.0127127083333392
        },
        {
          "name": "A3",
          "midi": 57,
          "time": 98.64415000000005,
          "velocity": 0.937007874015748,
          "duration": 1.0127127083333392
        },
        {
          "name": "A3",
          "midi": 57,
          "time": 99.66110000000006,
          "velocity": 0.9212598425196851,
          "duration": 1.0127127083333392
        },
        {
          "name": "A3",
          "midi": 57,
          "time": 117.96620000000007,
          "velocity": 0.9448818897637795,
          "duration": 0.5042377083333349
        },
        {
          "name": "A3",
          "midi": 57,
          "time": 134.23740000000006,
          "velocity": 0.952755905511811,
          "duration": 0.250000208333347
        },
        {
          "name": "A3",
          "midi": 57,
          "time": 146.44080000000008,
          "velocity": 0.905511811023622,
          "duration": 1.0127127083333392
        },
        {
          "name": "A3",
          "midi": 57,
          "time": 147.4577500000001,
          "velocity": 0.937007874015748,
          "duration": 1.0127127083333392
        },
        {
          "name": "A3",
          "midi": 57,
          "time": 148.4747000000001,
          "velocity": 0.9212598425196851,
          "duration": 1.0127127083333392
        },
        {
          "name": "A3",
          "midi": 57,
          "time": 183.0637118750001,
          "velocity": 0.984251968503937,
          "duration": 1.0127127083333392
        },
        {
          "name": "A3",
          "midi": 57,
          "time": 184.08066187500012,
          "velocity": 0.984251968503937,
          "duration": 1.0127127083333392
        },
        {
          "name": "A3",
          "midi": 57,
          "time": 185.09761187500013,
          "velocity": 0.9921259842519685,
          "duration": 1.0127127083333392
        },
        {
          "name": "A3",
          "midi": 57,
          "time": 186.11456187500013,
          "velocity": 0.984251968503937,
          "duration": 1.0127127083333392
        },
        {
          "name": "A3",
          "midi": 57,
          "time": 187.13151187500014,
          "velocity": 0.9763779527559056,
          "duration": 1.0127127083333392
        },
        {
          "name": "A3",
          "midi": 57,
          "time": 191.18660000000014,
          "velocity": 1,
          "duration": 0.5042377083333349
        },
        {
          "name": "A3",
          "midi": 57,
          "time": 195.25440000000015,
          "velocity": 1,
          "duration": 0.1652543749999893
        },
        {
          "name": "A3",
          "midi": 57,
          "time": 201.39423562500014,
          "velocity": 1,
          "duration": 0.330508750000007
        },
        {
          "name": "A3",
          "midi": 57,
          "time": 202.4027110416668,
          "velocity": 1,
          "duration": 0.4067799999999977
        },
        {
          "name": "A3",
          "midi": 57,
          "time": 203.39000000000013,
          "velocity": 1,
          "duration": 0.44491562499999304
        },
        {
          "name": "A3",
          "midi": 57,
          "time": 211.5256000000001,
          "velocity": 1,
          "duration": 0.1652543749999893
        },
        {
          "name": "A3",
          "midi": 57,
          "time": 217.6654356250001,
          "velocity": 1,
          "duration": 0.330508750000007
        },
        {
          "name": "A3",
          "midi": 57,
          "time": 218.67391104166677,
          "velocity": 1,
          "duration": 0.4067799999999977
        },
        {
          "name": "A3",
          "midi": 57,
          "time": 219.6612000000001,
          "velocity": 1,
          "duration": 0.44491562499999304
        },
        {
          "name": "C#3",
          "midi": 49,
          "time": 227.79680000000008,
          "velocity": 1,
          "duration": 0.3813562500000103
        },
        {
          "name": "C#3",
          "midi": 49,
          "time": 229.57646250000008,
          "velocity": 1,
          "duration": 0.12711874999999395
        },
        {
          "name": "C#3",
          "midi": 49,
          "time": 229.83070000000006,
          "velocity": 1,
          "duration": 0.3813562500000103
        },
        {
          "name": "C#3",
          "midi": 49,
          "time": 231.86460000000008,
          "velocity": 1,
          "duration": 0.3813562500000103
        },
        {
          "name": "C#3",
          "midi": 49,
          "time": 233.64426250000008,
          "velocity": 1,
          "duration": 0.12711874999999395
        },
        {
          "name": "C#3",
          "midi": 49,
          "time": 233.89850000000007,
          "velocity": 1,
          "duration": 0.2542374999999879
        },
        {
          "name": "C#3",
          "midi": 49,
          "time": 235.93240000000006,
          "velocity": 1,
          "duration": 0.3813562500000103
        },
        {
          "name": "C#3",
          "midi": 49,
          "time": 237.71206250000006,
          "velocity": 1,
          "duration": 0.12711874999999395
        },
        {
          "name": "C#3",
          "midi": 49,
          "time": 237.96630000000005,
          "velocity": 1,
          "duration": 0.3813562500000103
        },
        {
          "name": "C#3",
          "midi": 49,
          "time": 240.00020000000006,
          "velocity": 1,
          "duration": 0.3813562500000103
        },
        {
          "name": "C#3",
          "midi": 49,
          "time": 241.77986250000006,
          "velocity": 1,
          "duration": 0.12711874999999395
        },
        {
          "name": "C#3",
          "midi": 49,
          "time": 242.03410000000005,
          "velocity": 1,
          "duration": 0.2542374999999879
        },
        {
          "name": "A3",
          "midi": 57,
          "time": 244.06800000000004,
          "velocity": 1,
          "duration": 0.7627124999999921
        },
        {
          "name": "A3",
          "midi": 57,
          "time": 245.08495000000002,
          "velocity": 1,
          "duration": 0.7627124999999921
        },
        {
          "name": "A3",
          "midi": 57,
          "time": 246.1019,
          "velocity": 1,
          "duration": 0.12711874999999395
        },
        {
          "name": "A3",
          "midi": 57,
          "time": 246.3561375,
          "velocity": 1,
          "duration": 0.12711874999999395
        },
        {
          "name": "A3",
          "midi": 57,
          "time": 246.61037499999998,
          "velocity": 1,
          "duration": 0.12711874999999395
        },
        {
          "name": "A3",
          "midi": 57,
          "time": 246.86461249999996,
          "velocity": 1,
          "duration": 0.12711874999999395
        },
        {
          "name": "A3",
          "midi": 57,
          "time": 247.11884999999995,
          "velocity": 1,
          "duration": 0.3813562500000103
        },
        {
          "name": "A3",
          "midi": 57,
          "time": 247.62732499999996,
          "velocity": 1,
          "duration": 0.3813562500000103
        },
        {
          "name": "A3",
          "midi": 57,
          "time": 248.13579999999996,
          "velocity": 1,
          "duration": 1.9067812499999945
        },
        {
          "name": "A3",
          "midi": 57,
          "time": 250.16969999999995,
          "velocity": 1,
          "duration": 1.7796625000000006
        },
        {
          "name": "A3",
          "midi": 57,
          "time": 252.21631187499995,
          "velocity": 0.984251968503937,
          "duration": 1.0127127083333392
        },
        {
          "name": "A3",
          "midi": 57,
          "time": 268.48751187499994,
          "velocity": 0.984251968503937,
          "duration": 1.0127127083333107
        },
        {
          "name": "A3",
          "midi": 57,
          "time": 269.5044618749999,
          "velocity": 0.984251968503937,
          "duration": 1.0127127083333107
        },
        {
          "name": "A3",
          "midi": 57,
          "time": 270.52141187499984,
          "velocity": 0.9921259842519685,
          "duration": 1.0127127083333107
        },
        {
          "name": "A3",
          "midi": 57,
          "time": 271.5383618749998,
          "velocity": 0.984251968503937,
          "duration": 1.0127127083333107
        },
        {
          "name": "A3",
          "midi": 57,
          "time": 272.55531187499975,
          "velocity": 0.9763779527559056,
          "duration": 1.0127127083333107
        },
        {
          "name": "A3",
          "midi": 57,
          "time": 292.89431187499974,
          "velocity": 0.984251968503937,
          "duration": 1.0127127083333107
        },
        {
          "name": "A3",
          "midi": 57,
          "time": 293.9112618749997,
          "velocity": 0.984251968503937,
          "duration": 1.0127127083333107
        },
        {
          "name": "A3",
          "midi": 57,
          "time": 294.92821187499965,
          "velocity": 0.9921259842519685,
          "duration": 1.0127127083333107
        },
        {
          "name": "A3",
          "midi": 57,
          "time": 295.9451618749996,
          "velocity": 0.984251968503937,
          "duration": 1.0127127083333107
        },
        {
          "name": "A3",
          "midi": 57,
          "time": 296.96211187499955,
          "velocity": 0.9763779527559056,
          "duration": 1.0127127083333107
        },
        {
          "name": "A3",
          "midi": 57,
          "time": 317.30111187499955,
          "velocity": 0.984251968503937,
          "duration": 1.0127127083333107
        },
        {
          "name": "A3",
          "midi": 57,
          "time": 318.3180618749995,
          "velocity": 0.984251968503937,
          "duration": 1.0127127083333107
        },
        {
          "name": "A3",
          "midi": 57,
          "time": 319.33501187499945,
          "velocity": 0.9921259842519685,
          "duration": 1.0127127083333107
        },
        {
          "name": "A3",
          "midi": 57,
          "time": 320.3519618749994,
          "velocity": 0.984251968503937,
          "duration": 1.0127127083333107
        },
        {
          "name": "A3",
          "midi": 57,
          "time": 321.36891187499936,
          "velocity": 0.9763779527559056,
          "duration": 1.0127127083333107
        }
      ],
      "controlChanges": {
        "7": [
          {
            "number": 7,
            "time": 0.711865,
            "value": 1
          },
          {
            "number": 7,
            "time": 1.7372895833333333,
            "value": 1
          }
        ]
      },
      "id": 12,
      "name": "crash",
      "instrumentNumber": 16,
      "instrument": "power kit",
      "instrumentFamily": "drums",
      "channelNumber": 9,
      "isPercussion": true
    },
    {
      "startTime": 52.8814,
      "duration": 325.16976249999794,
      "length": 466,
      "notes": [
        {
          "name": "A#2",
          "midi": 46,
          "time": 52.8814,
          "velocity": 1,
          "duration": 0.885593958333331
        },
        {
          "name": "A#2",
          "midi": 46,
          "time": 53.6441125,
          "velocity": 0.8031496062992126,
          "duration": 0.2500002083333328
        },
        {
          "name": "A#2",
          "midi": 46,
          "time": 53.89835,
          "velocity": 1,
          "duration": 1.012712708333332
        },
        {
          "name": "A#2",
          "midi": 46,
          "time": 54.9153,
          "velocity": 1,
          "duration": 0.885593958333331
        },
        {
          "name": "A#2",
          "midi": 46,
          "time": 55.6780125,
          "velocity": 0.8031496062992126,
          "duration": 0.2500002083333328
        },
        {
          "name": "A#2",
          "midi": 46,
          "time": 55.93225,
          "velocity": 1,
          "duration": 1.012712708333332
        },
        {
          "name": "A#2",
          "midi": 46,
          "time": 56.949200000000005,
          "velocity": 1,
          "duration": 0.885593958333331
        },
        {
          "name": "A#2",
          "midi": 46,
          "time": 57.711912500000004,
          "velocity": 0.8031496062992126,
          "duration": 0.2500002083333328
        },
        {
          "name": "A#2",
          "midi": 46,
          "time": 57.966150000000006,
          "velocity": 1,
          "duration": 1.012712708333332
        },
        {
          "name": "A#2",
          "midi": 46,
          "time": 58.98310000000001,
          "velocity": 1,
          "duration": 0.885593958333331
        },
        {
          "name": "A#2",
          "midi": 46,
          "time": 59.74581250000001,
          "velocity": 0.8031496062992126,
          "duration": 0.2500002083333328
        },
        {
          "name": "A#2",
          "midi": 46,
          "time": 60.00005000000001,
          "velocity": 1,
          "duration": 1.012712708333332
        },
        {
          "name": "A#2",
          "midi": 46,
          "time": 61.01700000000001,
          "velocity": 1,
          "duration": 0.885593958333331
        },
        {
          "name": "A#2",
          "midi": 46,
          "time": 61.77971250000001,
          "velocity": 0.8031496062992126,
          "duration": 0.2500002083333328
        },
        {
          "name": "A#2",
          "midi": 46,
          "time": 62.03395000000001,
          "velocity": 1,
          "duration": 1.012712708333332
        },
        {
          "name": "A#2",
          "midi": 46,
          "time": 63.05090000000001,
          "velocity": 1,
          "duration": 0.885593958333331
        },
        {
          "name": "A#2",
          "midi": 46,
          "time": 63.81361250000001,
          "velocity": 0.8031496062992126,
          "duration": 0.2500002083333257
        },
        {
          "name": "A#2",
          "midi": 46,
          "time": 64.06785,
          "velocity": 1,
          "duration": 1.0127127083333392
        },
        {
          "name": "A#2",
          "midi": 46,
          "time": 65.08480000000002,
          "velocity": 1,
          "duration": 0.8855939583333452
        },
        {
          "name": "A#2",
          "midi": 46,
          "time": 65.84751250000002,
          "velocity": 0.8031496062992126,
          "duration": 0.2500002083333328
        },
        {
          "name": "A#2",
          "midi": 46,
          "time": 66.10175000000002,
          "velocity": 1,
          "duration": 1.0127127083333392
        },
        {
          "name": "A#2",
          "midi": 46,
          "time": 67.11870000000003,
          "velocity": 1,
          "duration": 0.8855939583333452
        },
        {
          "name": "A#2",
          "midi": 46,
          "time": 67.88141250000004,
          "velocity": 0.8031496062992126,
          "duration": 0.2500002083333328
        },
        {
          "name": "A#2",
          "midi": 46,
          "time": 68.13565000000004,
          "velocity": 1,
          "duration": 1.0127127083333392
        },
        {
          "name": "A#2",
          "midi": 46,
          "time": 69.15260000000005,
          "velocity": 1,
          "duration": 0.8855939583333452
        },
        {
          "name": "A#2",
          "midi": 46,
          "time": 69.91531250000006,
          "velocity": 0.8031496062992126,
          "duration": 0.2500002083333328
        },
        {
          "name": "A#2",
          "midi": 46,
          "time": 70.16955000000006,
          "velocity": 1,
          "duration": 1.0127127083333392
        },
        {
          "name": "A#2",
          "midi": 46,
          "time": 71.18650000000007,
          "velocity": 1,
          "duration": 0.8855939583333452
        },
        {
          "name": "A#2",
          "midi": 46,
          "time": 71.94921250000007,
          "velocity": 0.8031496062992126,
          "duration": 0.2500002083333328
        },
        {
          "name": "A#2",
          "midi": 46,
          "time": 72.20345000000007,
          "velocity": 1,
          "duration": 1.0127127083333392
        },
        {
          "name": "A#2",
          "midi": 46,
          "time": 73.22040000000008,
          "velocity": 1,
          "duration": 0.8855939583333452
        },
        {
          "name": "A#2",
          "midi": 46,
          "time": 73.98311250000009,
          "velocity": 0.8031496062992126,
          "duration": 0.2500002083333328
        },
        {
          "name": "A#2",
          "midi": 46,
          "time": 74.23735000000009,
          "velocity": 1,
          "duration": 1.0127127083333392
        },
        {
          "name": "A#2",
          "midi": 46,
          "time": 75.2543000000001,
          "velocity": 1,
          "duration": 0.8855939583333452
        },
        {
          "name": "A#2",
          "midi": 46,
          "time": 76.0170125000001,
          "velocity": 0.8031496062992126,
          "duration": 0.2500002083333328
        },
        {
          "name": "A#2",
          "midi": 46,
          "time": 76.27125000000011,
          "velocity": 1,
          "duration": 1.0127127083333392
        },
        {
          "name": "A#2",
          "midi": 46,
          "time": 77.28820000000012,
          "velocity": 1,
          "duration": 0.8855939583333452
        },
        {
          "name": "A#2",
          "midi": 46,
          "time": 78.05091250000012,
          "velocity": 0.8031496062992126,
          "duration": 0.2500002083333328
        },
        {
          "name": "A#2",
          "midi": 46,
          "time": 78.30515000000013,
          "velocity": 1,
          "duration": 1.0127127083333392
        },
        {
          "name": "A#2",
          "midi": 46,
          "time": 79.32210000000013,
          "velocity": 1,
          "duration": 0.8855939583333452
        },
        {
          "name": "A#2",
          "midi": 46,
          "time": 80.08481250000014,
          "velocity": 0.8031496062992126,
          "duration": 0.2500002083333328
        },
        {
          "name": "A#2",
          "midi": 46,
          "time": 80.33905000000014,
          "velocity": 1,
          "duration": 1.0127127083333392
        },
        {
          "name": "A#2",
          "midi": 46,
          "time": 81.35600000000015,
          "velocity": 1,
          "duration": 0.8855939583333452
        },
        {
          "name": "A#2",
          "midi": 46,
          "time": 82.11871250000016,
          "velocity": 0.8031496062992126,
          "duration": 0.2500002083333328
        },
        {
          "name": "A#2",
          "midi": 46,
          "time": 82.37295000000016,
          "velocity": 1,
          "duration": 1.0127127083333392
        },
        {
          "name": "A#2",
          "midi": 46,
          "time": 83.38990000000017,
          "velocity": 1,
          "duration": 0.8855939583333452
        },
        {
          "name": "A#2",
          "midi": 46,
          "time": 84.15261250000017,
          "velocity": 0.8031496062992126,
          "duration": 0.2500002083333328
        },
        {
          "name": "A#2",
          "midi": 46,
          "time": 84.40685000000018,
          "velocity": 1,
          "duration": 1.0127127083333392
        },
        {
          "name": "A#2",
          "midi": 46,
          "time": 85.42380000000018,
          "velocity": 1,
          "duration": 0.8855939583333452
        },
        {
          "name": "A#2",
          "midi": 46,
          "time": 86.18651250000019,
          "velocity": 0.8031496062992126,
          "duration": 0.2500002083333328
        },
        {
          "name": "A#2",
          "midi": 46,
          "time": 86.4407500000002,
          "velocity": 1,
          "duration": 1.0127127083333392
        },
        {
          "name": "A#2",
          "midi": 46,
          "time": 87.4577000000002,
          "velocity": 1,
          "duration": 0.8855939583333452
        },
        {
          "name": "A#2",
          "midi": 46,
          "time": 88.22041250000021,
          "velocity": 0.8031496062992126,
          "duration": 0.2500002083333328
        },
        {
          "name": "A#2",
          "midi": 46,
          "time": 88.47465000000021,
          "velocity": 1,
          "duration": 1.0127127083333392
        },
        {
          "name": "A#2",
          "midi": 46,
          "time": 89.49160000000022,
          "velocity": 1,
          "duration": 0.8855939583333452
        },
        {
          "name": "A#2",
          "midi": 46,
          "time": 90.25431250000022,
          "velocity": 0.8031496062992126,
          "duration": 0.2500002083333328
        },
        {
          "name": "A#2",
          "midi": 46,
          "time": 90.50855000000023,
          "velocity": 1,
          "duration": 1.0127127083333392
        },
        {
          "name": "A#2",
          "midi": 46,
          "time": 91.52550000000024,
          "velocity": 1,
          "duration": 0.8855939583333452
        },
        {
          "name": "A#2",
          "midi": 46,
          "time": 92.28821250000024,
          "velocity": 0.8031496062992126,
          "duration": 0.2500002083333328
        },
        {
          "name": "A#2",
          "midi": 46,
          "time": 92.54245000000024,
          "velocity": 1,
          "duration": 1.0127127083333392
        },
        {
          "name": "A#2",
          "midi": 46,
          "time": 93.55940000000025,
          "velocity": 1,
          "duration": 0.8855939583333452
        },
        {
          "name": "A#2",
          "midi": 46,
          "time": 94.32211250000026,
          "velocity": 0.8031496062992126,
          "duration": 0.2500002083333328
        },
        {
          "name": "A#2",
          "midi": 46,
          "time": 94.57635000000026,
          "velocity": 1,
          "duration": 1.0127127083333392
        },
        {
          "name": "A#2",
          "midi": 46,
          "time": 95.59330000000027,
          "velocity": 1,
          "duration": 0.8855939583333452
        },
        {
          "name": "A#2",
          "midi": 46,
          "time": 96.35601250000028,
          "velocity": 0.8031496062992126,
          "duration": 0.2500002083333328
        },
        {
          "name": "A#2",
          "midi": 46,
          "time": 96.61025000000028,
          "velocity": 1,
          "duration": 1.0127127083333392
        },
        {
          "name": "A#2",
          "midi": 46,
          "time": 97.62720000000029,
          "velocity": 1,
          "duration": 0.8855939583333452
        },
        {
          "name": "A#2",
          "midi": 46,
          "time": 98.38991250000029,
          "velocity": 0.8031496062992126,
          "duration": 0.2500002083333328
        },
        {
          "name": "A#2",
          "midi": 46,
          "time": 98.6441500000003,
          "velocity": 1,
          "duration": 1.0127127083333392
        },
        {
          "name": "A#2",
          "midi": 46,
          "time": 99.6611000000003,
          "velocity": 1,
          "duration": 0.8855939583333452
        },
        {
          "name": "A#2",
          "midi": 46,
          "time": 100.42381250000031,
          "velocity": 0.8031496062992126,
          "duration": 0.2500002083333328
        },
        {
          "name": "A#2",
          "midi": 46,
          "time": 100.67805000000031,
          "velocity": 1,
          "duration": 1.0127127083333392
        },
        {
          "name": "A#2",
          "midi": 46,
          "time": 101.69500000000032,
          "velocity": 1,
          "duration": 0.8855939583333452
        },
        {
          "name": "A#2",
          "midi": 46,
          "time": 102.45771250000033,
          "velocity": 0.8031496062992126,
          "duration": 0.2500002083333328
        },
        {
          "name": "A#2",
          "midi": 46,
          "time": 102.71195000000033,
          "velocity": 1,
          "duration": 1.0127127083333392
        },
        {
          "name": "A#2",
          "midi": 46,
          "time": 103.72890000000034,
          "velocity": 1,
          "duration": 0.8855939583333452
        },
        {
          "name": "A#2",
          "midi": 46,
          "time": 104.49161250000034,
          "velocity": 0.8031496062992126,
          "duration": 0.2500002083333328
        },
        {
          "name": "A#2",
          "midi": 46,
          "time": 104.74585000000035,
          "velocity": 1,
          "duration": 1.0127127083333392
        },
        {
          "name": "A#2",
          "midi": 46,
          "time": 105.76280000000035,
          "velocity": 1,
          "duration": 0.8855939583333452
        },
        {
          "name": "A#2",
          "midi": 46,
          "time": 106.52551250000036,
          "velocity": 0.8031496062992126,
          "duration": 0.2500002083333328
        },
        {
          "name": "A#2",
          "midi": 46,
          "time": 106.77975000000036,
          "velocity": 1,
          "duration": 1.0127127083333392
        },
        {
          "name": "A#2",
          "midi": 46,
          "time": 107.79670000000037,
          "velocity": 1,
          "duration": 0.8855939583333452
        },
        {
          "name": "A#2",
          "midi": 46,
          "time": 108.55941250000038,
          "velocity": 0.8031496062992126,
          "duration": 0.2500002083333328
        },
        {
          "name": "A#2",
          "midi": 46,
          "time": 108.81365000000038,
          "velocity": 1,
          "duration": 1.0127127083333392
        },
        {
          "name": "A#2",
          "midi": 46,
          "time": 109.83060000000039,
          "velocity": 1,
          "duration": 0.8855939583333452
        },
        {
          "name": "A#2",
          "midi": 46,
          "time": 110.5933125000004,
          "velocity": 0.8031496062992126,
          "duration": 0.2500002083333328
        },
        {
          "name": "A#2",
          "midi": 46,
          "time": 110.8475500000004,
          "velocity": 1,
          "duration": 1.0127127083333392
        },
        {
          "name": "A#2",
          "midi": 46,
          "time": 111.8645000000004,
          "velocity": 1,
          "duration": 0.8855939583333452
        },
        {
          "name": "A#2",
          "midi": 46,
          "time": 112.62721250000041,
          "velocity": 0.8031496062992126,
          "duration": 0.2500002083333328
        },
        {
          "name": "A#2",
          "midi": 46,
          "time": 112.88145000000041,
          "velocity": 1,
          "duration": 1.0127127083333392
        },
        {
          "name": "A#2",
          "midi": 46,
          "time": 114.15263750000042,
          "velocity": 1,
          "duration": 0.10169500000000653
        },
        {
          "name": "A#2",
          "midi": 46,
          "time": 114.40687500000043,
          "velocity": 1,
          "duration": 0.29661041666666677
        },
        {
          "name": "A#2",
          "midi": 46,
          "time": 114.91535000000043,
          "velocity": 1,
          "duration": 0.12711874999999395
        },
        {
          "name": "A#2",
          "midi": 46,
          "time": 115.16958750000042,
          "velocity": 1,
          "duration": 0.2330510416666698
        },
        {
          "name": "A#2",
          "midi": 46,
          "time": 115.67806250000042,
          "velocity": 1,
          "duration": 0.3855935416666654
        },
        {
          "name": "A#2",
          "midi": 46,
          "time": 117.96620000000043,
          "velocity": 1,
          "duration": 0.8855939583333452
        },
        {
          "name": "A#2",
          "midi": 46,
          "time": 118.72891250000043,
          "velocity": 0.8031496062992126,
          "duration": 0.2500002083333328
        },
        {
          "name": "A#2",
          "midi": 46,
          "time": 118.98315000000044,
          "velocity": 1,
          "duration": 1.0127127083333392
        },
        {
          "name": "A#2",
          "midi": 46,
          "time": 120.00010000000044,
          "velocity": 1,
          "duration": 0.8855939583333452
        },
        {
          "name": "A#2",
          "midi": 46,
          "time": 120.76281250000045,
          "velocity": 0.8031496062992126,
          "duration": 0.2500002083333328
        },
        {
          "name": "A#2",
          "midi": 46,
          "time": 121.01705000000045,
          "velocity": 1,
          "duration": 1.0127127083333392
        },
        {
          "name": "A#2",
          "midi": 46,
          "time": 122.03400000000046,
          "velocity": 1,
          "duration": 0.8855939583333452
        },
        {
          "name": "A#2",
          "midi": 46,
          "time": 122.79671250000047,
          "velocity": 0.8031496062992126,
          "duration": 0.2500002083333328
        },
        {
          "name": "A#2",
          "midi": 46,
          "time": 123.05095000000047,
          "velocity": 1,
          "duration": 1.0127127083333392
        },
        {
          "name": "A#2",
          "midi": 46,
          "time": 124.06790000000048,
          "velocity": 1,
          "duration": 0.8855939583333452
        },
        {
          "name": "A#2",
          "midi": 46,
          "time": 124.83061250000048,
          "velocity": 0.8031496062992126,
          "duration": 0.2500002083333328
        },
        {
          "name": "A#2",
          "midi": 46,
          "time": 125.08485000000049,
          "velocity": 1,
          "duration": 1.0127127083333392
        },
        {
          "name": "A#2",
          "midi": 46,
          "time": 126.1018000000005,
          "velocity": 1,
          "duration": 0.8855939583333452
        },
        {
          "name": "A#2",
          "midi": 46,
          "time": 126.8645125000005,
          "velocity": 0.8031496062992126,
          "duration": 0.2500002083333328
        },
        {
          "name": "A#2",
          "midi": 46,
          "time": 127.1187500000005,
          "velocity": 1,
          "duration": 1.012712708333325
        },
        {
          "name": "A#2",
          "midi": 46,
          "time": 128.1357000000005,
          "velocity": 1,
          "duration": 0.8855939583333168
        },
        {
          "name": "A#2",
          "midi": 46,
          "time": 128.8984125000005,
          "velocity": 0.8031496062992126,
          "duration": 0.2500002083333186
        },
        {
          "name": "A#2",
          "midi": 46,
          "time": 129.15265000000048,
          "velocity": 1,
          "duration": 1.0127127083333392
        },
        {
          "name": "A#2",
          "midi": 46,
          "time": 130.1696000000005,
          "velocity": 1,
          "duration": 0.8855939583333168
        },
        {
          "name": "A#2",
          "midi": 46,
          "time": 130.93231250000048,
          "velocity": 0.8031496062992126,
          "duration": 0.2500002083333186
        },
        {
          "name": "A#2",
          "midi": 46,
          "time": 131.18655000000047,
          "velocity": 1,
          "duration": 1.0127127083333392
        },
        {
          "name": "A#2",
          "midi": 46,
          "time": 132.20350000000047,
          "velocity": 1,
          "duration": 0.8855939583333168
        },
        {
          "name": "A#2",
          "midi": 46,
          "time": 132.96621250000047,
          "velocity": 0.8031496062992126,
          "duration": 0.2500002083333186
        },
        {
          "name": "A#2",
          "midi": 46,
          "time": 133.22045000000045,
          "velocity": 1,
          "duration": 1.0127127083333392
        },
        {
          "name": "A#2",
          "midi": 46,
          "time": 134.23740000000046,
          "velocity": 1,
          "duration": 0.8855939583333168
        },
        {
          "name": "A#2",
          "midi": 46,
          "time": 135.00011250000045,
          "velocity": 0.8031496062992126,
          "duration": 0.2500002083333186
        },
        {
          "name": "A#2",
          "midi": 46,
          "time": 135.25435000000044,
          "velocity": 1,
          "duration": 1.0127127083333392
        },
        {
          "name": "A#2",
          "midi": 46,
          "time": 136.27130000000045,
          "velocity": 1,
          "duration": 0.8855939583333168
        },
        {
          "name": "A#2",
          "midi": 46,
          "time": 137.03401250000044,
          "velocity": 0.8031496062992126,
          "duration": 0.2500002083333186
        },
        {
          "name": "A#2",
          "midi": 46,
          "time": 137.28825000000043,
          "velocity": 1,
          "duration": 1.0127127083333392
        },
        {
          "name": "A#2",
          "midi": 46,
          "time": 138.30520000000044,
          "velocity": 1,
          "duration": 0.8855939583333168
        },
        {
          "name": "A#2",
          "midi": 46,
          "time": 139.06791250000043,
          "velocity": 0.8031496062992126,
          "duration": 0.2500002083333186
        },
        {
          "name": "A#2",
          "midi": 46,
          "time": 139.32215000000042,
          "velocity": 1,
          "duration": 1.0127127083333392
        },
        {
          "name": "A#2",
          "midi": 46,
          "time": 140.33910000000043,
          "velocity": 1,
          "duration": 0.8855939583333168
        },
        {
          "name": "A#2",
          "midi": 46,
          "time": 141.10181250000042,
          "velocity": 0.8031496062992126,
          "duration": 0.2500002083333186
        },
        {
          "name": "A#2",
          "midi": 46,
          "time": 141.3560500000004,
          "velocity": 1,
          "duration": 1.0127127083333392
        },
        {
          "name": "A#2",
          "midi": 46,
          "time": 142.37300000000042,
          "velocity": 1,
          "duration": 0.8855939583333168
        },
        {
          "name": "A#2",
          "midi": 46,
          "time": 143.1357125000004,
          "velocity": 0.8031496062992126,
          "duration": 0.2500002083333186
        },
        {
          "name": "A#2",
          "midi": 46,
          "time": 143.3899500000004,
          "velocity": 1,
          "duration": 1.0127127083333392
        },
        {
          "name": "A#2",
          "midi": 46,
          "time": 144.4069000000004,
          "velocity": 1,
          "duration": 0.8855939583333168
        },
        {
          "name": "A#2",
          "midi": 46,
          "time": 145.1696125000004,
          "velocity": 0.8031496062992126,
          "duration": 0.2500002083333186
        },
        {
          "name": "A#2",
          "midi": 46,
          "time": 145.42385000000039,
          "velocity": 1,
          "duration": 1.0127127083333392
        },
        {
          "name": "A#2",
          "midi": 46,
          "time": 146.4408000000004,
          "velocity": 1,
          "duration": 0.8855939583333168
        },
        {
          "name": "A#2",
          "midi": 46,
          "time": 147.2035125000004,
          "velocity": 0.8031496062992126,
          "duration": 0.2500002083333186
        },
        {
          "name": "A#2",
          "midi": 46,
          "time": 147.45775000000037,
          "velocity": 1,
          "duration": 1.0127127083333392
        },
        {
          "name": "A#2",
          "midi": 46,
          "time": 148.47470000000038,
          "velocity": 1,
          "duration": 0.8855939583333168
        },
        {
          "name": "A#2",
          "midi": 46,
          "time": 149.23741250000037,
          "velocity": 0.8031496062992126,
          "duration": 0.2500002083333186
        },
        {
          "name": "A#2",
          "midi": 46,
          "time": 149.49165000000036,
          "velocity": 1,
          "duration": 1.0127127083333392
        },
        {
          "name": "A#2",
          "midi": 46,
          "time": 150.50860000000037,
          "velocity": 1,
          "duration": 0.8855939583333168
        },
        {
          "name": "A#2",
          "midi": 46,
          "time": 151.27131250000036,
          "velocity": 0.8031496062992126,
          "duration": 0.2500002083333186
        },
        {
          "name": "A#2",
          "midi": 46,
          "time": 151.52555000000035,
          "velocity": 1,
          "duration": 1.0127127083333392
        },
        {
          "name": "A#2",
          "midi": 46,
          "time": 152.54250000000036,
          "velocity": 1,
          "duration": 0.8855939583333168
        },
        {
          "name": "A#2",
          "midi": 46,
          "time": 153.30521250000035,
          "velocity": 0.8031496062992126,
          "duration": 0.2500002083333186
        },
        {
          "name": "A#2",
          "midi": 46,
          "time": 153.55945000000034,
          "velocity": 1,
          "duration": 1.0127127083333392
        },
        {
          "name": "A#2",
          "midi": 46,
          "time": 154.57640000000035,
          "velocity": 1,
          "duration": 0.8855939583333168
        },
        {
          "name": "A#2",
          "midi": 46,
          "time": 155.33911250000034,
          "velocity": 0.8031496062992126,
          "duration": 0.2500002083333186
        },
        {
          "name": "A#2",
          "midi": 46,
          "time": 155.59335000000033,
          "velocity": 1,
          "duration": 1.0127127083333392
        },
        {
          "name": "A#2",
          "midi": 46,
          "time": 156.61030000000034,
          "velocity": 1,
          "duration": 0.8855939583333168
        },
        {
          "name": "A#2",
          "midi": 46,
          "time": 157.37301250000033,
          "velocity": 0.8031496062992126,
          "duration": 0.2500002083333186
        },
        {
          "name": "A#2",
          "midi": 46,
          "time": 157.62725000000032,
          "velocity": 1,
          "duration": 1.0127127083333392
        },
        {
          "name": "A#2",
          "midi": 46,
          "time": 158.64420000000032,
          "velocity": 1,
          "duration": 0.8855939583333168
        },
        {
          "name": "A#2",
          "midi": 46,
          "time": 159.40691250000032,
          "velocity": 0.8031496062992126,
          "duration": 0.2500002083333186
        },
        {
          "name": "A#2",
          "midi": 46,
          "time": 159.6611500000003,
          "velocity": 1,
          "duration": 1.0127127083333392
        },
        {
          "name": "A#2",
          "midi": 46,
          "time": 160.6781000000003,
          "velocity": 1,
          "duration": 0.8855939583333168
        },
        {
          "name": "A#2",
          "midi": 46,
          "time": 161.4408125000003,
          "velocity": 0.8031496062992126,
          "duration": 0.2500002083333186
        },
        {
          "name": "A#2",
          "midi": 46,
          "time": 161.6950500000003,
          "velocity": 1,
          "duration": 1.0127127083333392
        },
        {
          "name": "A#2",
          "midi": 46,
          "time": 162.9662375000003,
          "velocity": 1,
          "duration": 0.10169500000000653
        },
        {
          "name": "A#2",
          "midi": 46,
          "time": 163.2204750000003,
          "velocity": 1,
          "duration": 0.29661041666665255
        },
        {
          "name": "A#2",
          "midi": 46,
          "time": 163.72895000000028,
          "velocity": 1,
          "duration": 0.12711874999999395
        },
        {
          "name": "A#2",
          "midi": 46,
          "time": 163.98318750000027,
          "velocity": 1,
          "duration": 0.2330510416666698
        },
        {
          "name": "A#2",
          "midi": 46,
          "time": 164.49166250000027,
          "velocity": 1,
          "duration": 0.3855935416666796
        },
        {
          "name": "A#2",
          "midi": 46,
          "time": 166.77980000000028,
          "velocity": 1,
          "duration": 0.8855939583333168
        },
        {
          "name": "A#2",
          "midi": 46,
          "time": 167.54251250000027,
          "velocity": 0.8031496062992126,
          "duration": 0.2500002083333186
        },
        {
          "name": "A#2",
          "midi": 46,
          "time": 167.79675000000026,
          "velocity": 1,
          "duration": 1.0127127083333392
        },
        {
          "name": "A#2",
          "midi": 46,
          "time": 168.81370000000027,
          "velocity": 1,
          "duration": 0.8855939583333168
        },
        {
          "name": "A#2",
          "midi": 46,
          "time": 169.57641250000026,
          "velocity": 0.8031496062992126,
          "duration": 0.2500002083333186
        },
        {
          "name": "A#2",
          "midi": 46,
          "time": 169.83065000000025,
          "velocity": 1,
          "duration": 1.0127127083333392
        },
        {
          "name": "A#2",
          "midi": 46,
          "time": 170.84760000000026,
          "velocity": 1,
          "duration": 0.8855939583333168
        },
        {
          "name": "A#2",
          "midi": 46,
          "time": 171.61031250000025,
          "velocity": 0.8031496062992126,
          "duration": 0.2500002083333186
        },
        {
          "name": "A#2",
          "midi": 46,
          "time": 171.86455000000024,
          "velocity": 1,
          "duration": 1.0127127083333392
        },
        {
          "name": "A#2",
          "midi": 46,
          "time": 172.88150000000024,
          "velocity": 1,
          "duration": 0.8855939583333168
        },
        {
          "name": "A#2",
          "midi": 46,
          "time": 173.64421250000024,
          "velocity": 0.8031496062992126,
          "duration": 0.2500002083333186
        },
        {
          "name": "A#2",
          "midi": 46,
          "time": 173.89845000000022,
          "velocity": 1,
          "duration": 1.0127127083333392
        },
        {
          "name": "A#2",
          "midi": 46,
          "time": 174.91540000000023,
          "velocity": 1,
          "duration": 0.8855939583333168
        },
        {
          "name": "A#2",
          "midi": 46,
          "time": 175.67811250000022,
          "velocity": 0.8031496062992126,
          "duration": 0.2500002083333186
        },
        {
          "name": "A#2",
          "midi": 46,
          "time": 175.9323500000002,
          "velocity": 1,
          "duration": 1.0127127083333392
        },
        {
          "name": "A#2",
          "midi": 46,
          "time": 176.94930000000022,
          "velocity": 1,
          "duration": 0.8855939583333168
        },
        {
          "name": "A#2",
          "midi": 46,
          "time": 177.7120125000002,
          "velocity": 0.8031496062992126,
          "duration": 0.2500002083333186
        },
        {
          "name": "A#2",
          "midi": 46,
          "time": 177.9662500000002,
          "velocity": 1,
          "duration": 1.0127127083333392
        },
        {
          "name": "A#2",
          "midi": 46,
          "time": 178.9832000000002,
          "velocity": 1,
          "duration": 0.8855939583333168
        },
        {
          "name": "A#2",
          "midi": 46,
          "time": 179.7459125000002,
          "velocity": 0.8031496062992126,
          "duration": 0.2500002083333186
        },
        {
          "name": "A#2",
          "midi": 46,
          "time": 180.0001500000002,
          "velocity": 1,
          "duration": 1.0127127083333392
        },
        {
          "name": "A#2",
          "midi": 46,
          "time": 181.0171000000002,
          "velocity": 1,
          "duration": 0.8855939583333168
        },
        {
          "name": "A#2",
          "midi": 46,
          "time": 181.7798125000002,
          "velocity": 0.8031496062992126,
          "duration": 0.2500002083333186
        },
        {
          "name": "A#2",
          "midi": 46,
          "time": 182.03405000000018,
          "velocity": 1,
          "duration": 1.0127127083333392
        },
        {
          "name": "A#2",
          "midi": 46,
          "time": 183.0510000000002,
          "velocity": 1,
          "duration": 0.8855939583333168
        },
        {
          "name": "A#2",
          "midi": 46,
          "time": 183.81371250000018,
          "velocity": 0.8031496062992126,
          "duration": 0.2500002083333186
        },
        {
          "name": "A#2",
          "midi": 46,
          "time": 184.06795000000017,
          "velocity": 1,
          "duration": 1.0127127083333392
        },
        {
          "name": "A#2",
          "midi": 46,
          "time": 185.08490000000018,
          "velocity": 1,
          "duration": 0.8855939583333168
        },
        {
          "name": "A#2",
          "midi": 46,
          "time": 185.84761250000017,
          "velocity": 0.8031496062992126,
          "duration": 0.2500002083333186
        },
        {
          "name": "A#2",
          "midi": 46,
          "time": 186.10185000000016,
          "velocity": 1,
          "duration": 1.0127127083333392
        },
        {
          "name": "A#2",
          "midi": 46,
          "time": 187.11880000000016,
          "velocity": 1,
          "duration": 0.8855939583333168
        },
        {
          "name": "A#2",
          "midi": 46,
          "time": 187.88151250000016,
          "velocity": 0.8031496062992126,
          "duration": 0.2500002083333186
        },
        {
          "name": "A#2",
          "midi": 46,
          "time": 188.13575000000014,
          "velocity": 1,
          "duration": 1.0127127083333392
        },
        {
          "name": "A#2",
          "midi": 46,
          "time": 189.15270000000015,
          "velocity": 1,
          "duration": 0.8855939583333168
        },
        {
          "name": "A#2",
          "midi": 46,
          "time": 189.91541250000014,
          "velocity": 0.8031496062992126,
          "duration": 0.2500002083333186
        },
        {
          "name": "A#2",
          "midi": 46,
          "time": 190.16965000000013,
          "velocity": 1,
          "duration": 1.0127127083333392
        },
        {
          "name": "D3",
          "midi": 50,
          "time": 191.18660000000014,
          "velocity": 1,
          "duration": 0.1652543749999893
        },
        {
          "name": "D3",
          "midi": 50,
          "time": 191.3560916666668,
          "velocity": 1,
          "duration": 0.1652543749999893
        },
        {
          "name": "C3",
          "midi": 48,
          "time": 191.52558333333346,
          "velocity": 1,
          "duration": 0.1652543749999893
        },
        {
          "name": "C3",
          "midi": 48,
          "time": 191.69507500000012,
          "velocity": 1,
          "duration": 0.1652543749999893
        },
        {
          "name": "B2",
          "midi": 47,
          "time": 191.86456666666678,
          "velocity": 1,
          "duration": 0.1652543749999893
        },
        {
          "name": "B2",
          "midi": 47,
          "time": 192.03405833333343,
          "velocity": 1,
          "duration": 0.1652543749999893
        },
        {
          "name": "A2",
          "midi": 45,
          "time": 192.2035500000001,
          "velocity": 1,
          "duration": 0.1652543749999893
        },
        {
          "name": "A2",
          "midi": 45,
          "time": 192.37304166666675,
          "velocity": 1,
          "duration": 0.1652543749999893
        },
        {
          "name": "G2",
          "midi": 43,
          "time": 192.5425333333334,
          "velocity": 1,
          "duration": 0.1652543749999893
        },
        {
          "name": "D3",
          "midi": 50,
          "time": 193.22050000000007,
          "velocity": 1,
          "duration": 0.08050854166666
        },
        {
          "name": "D3",
          "midi": 50,
          "time": 193.3052458333334,
          "velocity": 0.7795275590551181,
          "duration": 0.08050854166666
        },
        {
          "name": "D3",
          "midi": 50,
          "time": 193.38999166666673,
          "velocity": 0.7480314960629921,
          "duration": 0.08050854166666
        },
        {
          "name": "C3",
          "midi": 48,
          "time": 193.47473750000006,
          "velocity": 0.7559055118110236,
          "duration": 0.08050854166666
        },
        {
          "name": "C3",
          "midi": 48,
          "time": 193.5594833333334,
          "velocity": 0.7559055118110236,
          "duration": 0.08050854166666
        },
        {
          "name": "C3",
          "midi": 48,
          "time": 193.64422916666672,
          "velocity": 0.7559055118110236,
          "duration": 0.08050854166666
        },
        {
          "name": "B2",
          "midi": 47,
          "time": 193.72897500000005,
          "velocity": 0.8031496062992126,
          "duration": 0.08050854166666
        },
        {
          "name": "B2",
          "midi": 47,
          "time": 193.81372083333338,
          "velocity": 0.7244094488188977,
          "duration": 0.08050854166666
        },
        {
          "name": "B2",
          "midi": 47,
          "time": 193.8984666666667,
          "velocity": 0.7637795275590551,
          "duration": 0.08050854166666
        },
        {
          "name": "A2",
          "midi": 45,
          "time": 193.98321250000004,
          "velocity": 0.7716535433070866,
          "duration": 0.08050854166666
        },
        {
          "name": "A2",
          "midi": 45,
          "time": 194.06795833333337,
          "velocity": 0.7637795275590551,
          "duration": 0.08050854166666
        },
        {
          "name": "A2",
          "midi": 45,
          "time": 194.1527041666667,
          "velocity": 0.8031496062992126,
          "duration": 0.08050854166666
        },
        {
          "name": "G2",
          "midi": 43,
          "time": 194.23745000000002,
          "velocity": 0.7322834645669292,
          "duration": 0.08050854166666
        },
        {
          "name": "G2",
          "midi": 43,
          "time": 194.32219583333335,
          "velocity": 0.7401574803149606,
          "duration": 0.08050854166666
        },
        {
          "name": "G2",
          "midi": 43,
          "time": 194.40694166666668,
          "velocity": 0.7480314960629921,
          "duration": 0.08050854166666
        },
        {
          "name": "G2",
          "midi": 43,
          "time": 194.4916875,
          "velocity": 0.7244094488188977,
          "duration": 0.08050854166666
        },
        {
          "name": "G2",
          "midi": 43,
          "time": 194.57643333333334,
          "velocity": 0.7559055118110236,
          "duration": 0.08050854166666
        },
        {
          "name": "G2",
          "midi": 43,
          "time": 194.66117916666667,
          "velocity": 0.7401574803149606,
          "duration": 0.08050854166666
        },
        {
          "name": "A#2",
          "midi": 46,
          "time": 195.2544,
          "velocity": 1,
          "duration": 0.8855939583333168
        },
        {
          "name": "A#2",
          "midi": 46,
          "time": 196.0171125,
          "velocity": 0.7480314960629921,
          "duration": 0.2500002083333186
        },
        {
          "name": "A#2",
          "midi": 46,
          "time": 196.27134999999998,
          "velocity": 1,
          "duration": 1.0127127083333392
        },
        {
          "name": "A#2",
          "midi": 46,
          "time": 197.2883,
          "velocity": 1,
          "duration": 0.8855939583333168
        },
        {
          "name": "A#2",
          "midi": 46,
          "time": 198.05101249999998,
          "velocity": 0.889763779527559,
          "duration": 0.2500002083333186
        },
        {
          "name": "A#2",
          "midi": 46,
          "time": 198.30524999999997,
          "velocity": 1,
          "duration": 1.0127127083333392
        },
        {
          "name": "A#2",
          "midi": 46,
          "time": 199.32219999999998,
          "velocity": 1,
          "duration": 0.8855939583333168
        },
        {
          "name": "A#2",
          "midi": 46,
          "time": 200.08491249999997,
          "velocity": 0.905511811023622,
          "duration": 0.2500002083333186
        },
        {
          "name": "A#2",
          "midi": 46,
          "time": 200.33914999999996,
          "velocity": 1,
          "duration": 1.0127127083333392
        },
        {
          "name": "A#2",
          "midi": 46,
          "time": 201.35609999999997,
          "velocity": 1,
          "duration": 0.8855939583333168
        },
        {
          "name": "A#2",
          "midi": 46,
          "time": 202.11881249999996,
          "velocity": 0.8503937007874016,
          "duration": 0.2500002083333186
        },
        {
          "name": "A#2",
          "midi": 46,
          "time": 202.37304999999995,
          "velocity": 1,
          "duration": 1.0127127083333392
        },
        {
          "name": "A#2",
          "midi": 46,
          "time": 203.38999999999996,
          "velocity": 1,
          "duration": 0.8855939583333168
        },
        {
          "name": "A#2",
          "midi": 46,
          "time": 204.15271249999995,
          "velocity": 0.905511811023622,
          "duration": 0.2500002083333186
        },
        {
          "name": "A#2",
          "midi": 46,
          "time": 204.40694999999994,
          "velocity": 1,
          "duration": 1.0127127083333392
        },
        {
          "name": "A#2",
          "midi": 46,
          "time": 205.42389999999995,
          "velocity": 1,
          "duration": 0.8855939583333168
        },
        {
          "name": "A#2",
          "midi": 46,
          "time": 206.18661249999994,
          "velocity": 0.8267716535433071,
          "duration": 0.2500002083333186
        },
        {
          "name": "A#2",
          "midi": 46,
          "time": 206.44084999999993,
          "velocity": 1,
          "duration": 1.0127127083333392
        },
        {
          "name": "A#2",
          "midi": 46,
          "time": 207.45779999999993,
          "velocity": 1,
          "duration": 0.8855939583333168
        },
        {
          "name": "A#2",
          "midi": 46,
          "time": 208.22051249999993,
          "velocity": 0.8031496062992126,
          "duration": 0.2500002083333186
        },
        {
          "name": "A#2",
          "midi": 46,
          "time": 208.47474999999991,
          "velocity": 1,
          "duration": 1.0127127083333392
        },
        {
          "name": "A#2",
          "midi": 46,
          "time": 209.49169999999992,
          "velocity": 1,
          "duration": 0.8855939583333168
        },
        {
          "name": "A#2",
          "midi": 46,
          "time": 210.25441249999992,
          "velocity": 0.8267716535433071,
          "duration": 0.2500002083333186
        },
        {
          "name": "A#2",
          "midi": 46,
          "time": 210.5086499999999,
          "velocity": 1,
          "duration": 1.0127127083333392
        },
        {
          "name": "A#2",
          "midi": 46,
          "time": 211.5255999999999,
          "velocity": 1,
          "duration": 0.8855939583333168
        },
        {
          "name": "A#2",
          "midi": 46,
          "time": 212.2883124999999,
          "velocity": 0.7480314960629921,
          "duration": 0.2500002083333186
        },
        {
          "name": "A#2",
          "midi": 46,
          "time": 212.5425499999999,
          "velocity": 1,
          "duration": 1.0127127083333392
        },
        {
          "name": "A#2",
          "midi": 46,
          "time": 213.5594999999999,
          "velocity": 1,
          "duration": 0.8855939583333168
        },
        {
          "name": "A#2",
          "midi": 46,
          "time": 214.3222124999999,
          "velocity": 0.889763779527559,
          "duration": 0.2500002083333186
        },
        {
          "name": "A#2",
          "midi": 46,
          "time": 214.57644999999988,
          "velocity": 1,
          "duration": 1.0127127083333392
        },
        {
          "name": "A#2",
          "midi": 46,
          "time": 215.5933999999999,
          "velocity": 1,
          "duration": 0.8855939583333168
        },
        {
          "name": "A#2",
          "midi": 46,
          "time": 216.35611249999988,
          "velocity": 0.905511811023622,
          "duration": 0.2500002083333186
        },
        {
          "name": "A#2",
          "midi": 46,
          "time": 216.61034999999987,
          "velocity": 1,
          "duration": 1.0127127083333392
        },
        {
          "name": "A#2",
          "midi": 46,
          "time": 217.62729999999988,
          "velocity": 1,
          "duration": 0.8855939583333168
        },
        {
          "name": "A#2",
          "midi": 46,
          "time": 218.39001249999987,
          "velocity": 0.8503937007874016,
          "duration": 0.2500002083333186
        },
        {
          "name": "A#2",
          "midi": 46,
          "time": 218.64424999999986,
          "velocity": 1,
          "duration": 1.0127127083333392
        },
        {
          "name": "A#2",
          "midi": 46,
          "time": 219.66119999999987,
          "velocity": 1,
          "duration": 0.8855939583333168
        },
        {
          "name": "A#2",
          "midi": 46,
          "time": 220.42391249999986,
          "velocity": 0.905511811023622,
          "duration": 0.2500002083333186
        },
        {
          "name": "A#2",
          "midi": 46,
          "time": 220.67814999999985,
          "velocity": 1,
          "duration": 1.0127127083333392
        },
        {
          "name": "A#2",
          "midi": 46,
          "time": 221.69509999999985,
          "velocity": 1,
          "duration": 0.8855939583333168
        },
        {
          "name": "A#2",
          "midi": 46,
          "time": 222.45781249999985,
          "velocity": 0.8267716535433071,
          "duration": 0.2500002083333186
        },
        {
          "name": "A#2",
          "midi": 46,
          "time": 222.71204999999983,
          "velocity": 1,
          "duration": 1.0127127083333392
        },
        {
          "name": "A#2",
          "midi": 46,
          "time": 223.72899999999984,
          "velocity": 1,
          "duration": 0.8855939583333168
        },
        {
          "name": "A#2",
          "midi": 46,
          "time": 224.49171249999984,
          "velocity": 0.8031496062992126,
          "duration": 0.2500002083333186
        },
        {
          "name": "A#2",
          "midi": 46,
          "time": 224.74594999999982,
          "velocity": 1,
          "duration": 1.0127127083333392
        },
        {
          "name": "A#2",
          "midi": 46,
          "time": 225.76289999999983,
          "velocity": 1,
          "duration": 0.8855939583333168
        },
        {
          "name": "A#2",
          "midi": 46,
          "time": 226.52561249999982,
          "velocity": 0.8267716535433071,
          "duration": 0.2500002083333186
        },
        {
          "name": "A#2",
          "midi": 46,
          "time": 226.7798499999998,
          "velocity": 1,
          "duration": 1.0127127083333392
        },
        {
          "name": "A#2",
          "midi": 46,
          "time": 227.79679999999982,
          "velocity": 1,
          "duration": 0.12288145833332464
        },
        {
          "name": "A#2",
          "midi": 46,
          "time": 228.1781562499998,
          "velocity": 1,
          "duration": 0.12288145833332464
        },
        {
          "name": "A#2",
          "midi": 46,
          "time": 228.3052749999998,
          "velocity": 1,
          "duration": 0.12288145833332464
        },
        {
          "name": "A#2",
          "midi": 46,
          "time": 228.68663124999978,
          "velocity": 1,
          "duration": 0.12288145833332464
        },
        {
          "name": "A#2",
          "midi": 46,
          "time": 228.81374999999977,
          "velocity": 1,
          "duration": 0.12288145833332464
        },
        {
          "name": "A#2",
          "midi": 46,
          "time": 229.19510624999975,
          "velocity": 1,
          "duration": 0.12288145833332464
        },
        {
          "name": "A#2",
          "midi": 46,
          "time": 229.32222499999975,
          "velocity": 1,
          "duration": 0.12288145833332464
        },
        {
          "name": "A#2",
          "midi": 46,
          "time": 229.83069999999975,
          "velocity": 1,
          "duration": 0.12288145833332464
        },
        {
          "name": "A#2",
          "midi": 46,
          "time": 230.21205624999973,
          "velocity": 1,
          "duration": 0.12288145833332464
        },
        {
          "name": "A#2",
          "midi": 46,
          "time": 230.33917499999973,
          "velocity": 1,
          "duration": 0.12288145833332464
        },
        {
          "name": "A#2",
          "midi": 46,
          "time": 230.7205312499997,
          "velocity": 1,
          "duration": 0.12288145833332464
        },
        {
          "name": "A#2",
          "midi": 46,
          "time": 230.8476499999997,
          "velocity": 1,
          "duration": 0.12288145833332464
        },
        {
          "name": "A#2",
          "midi": 46,
          "time": 231.22900624999968,
          "velocity": 1,
          "duration": 0.12288145833332464
        },
        {
          "name": "A#2",
          "midi": 46,
          "time": 231.35612499999968,
          "velocity": 1,
          "duration": 0.12288145833332464
        },
        {
          "name": "A#2",
          "midi": 46,
          "time": 231.86459999999968,
          "velocity": 1,
          "duration": 0.12288145833332464
        },
        {
          "name": "A#2",
          "midi": 46,
          "time": 232.24595624999967,
          "velocity": 1,
          "duration": 0.12288145833332464
        },
        {
          "name": "A#2",
          "midi": 46,
          "time": 232.37307499999966,
          "velocity": 1,
          "duration": 0.12288145833332464
        },
        {
          "name": "A#2",
          "midi": 46,
          "time": 232.75443124999964,
          "velocity": 1,
          "duration": 0.12288145833332464
        },
        {
          "name": "A#2",
          "midi": 46,
          "time": 232.88154999999963,
          "velocity": 1,
          "duration": 0.12288145833332464
        },
        {
          "name": "A#2",
          "midi": 46,
          "time": 233.26290624999962,
          "velocity": 1,
          "duration": 0.12288145833332464
        },
        {
          "name": "A#2",
          "midi": 46,
          "time": 233.3900249999996,
          "velocity": 1,
          "duration": 0.12288145833332464
        },
        {
          "name": "A#2",
          "midi": 46,
          "time": 233.89849999999961,
          "velocity": 1,
          "duration": 0.12288145833332464
        },
        {
          "name": "A#2",
          "midi": 46,
          "time": 234.2798562499996,
          "velocity": 1,
          "duration": 0.12288145833332464
        },
        {
          "name": "A#2",
          "midi": 46,
          "time": 234.4069749999996,
          "velocity": 1,
          "duration": 0.12288145833332464
        },
        {
          "name": "A#2",
          "midi": 46,
          "time": 234.78833124999957,
          "velocity": 1,
          "duration": 0.12288145833332464
        },
        {
          "name": "A#2",
          "midi": 46,
          "time": 234.91544999999957,
          "velocity": 1,
          "duration": 0.12288145833332464
        },
        {
          "name": "A#2",
          "midi": 46,
          "time": 235.29680624999955,
          "velocity": 1,
          "duration": 0.12288145833332464
        },
        {
          "name": "A#2",
          "midi": 46,
          "time": 235.42392499999954,
          "velocity": 1,
          "duration": 0.12288145833332464
        },
        {
          "name": "A#2",
          "midi": 46,
          "time": 235.93239999999955,
          "velocity": 1,
          "duration": 0.12288145833332464
        },
        {
          "name": "A#2",
          "midi": 46,
          "time": 236.31375624999953,
          "velocity": 1,
          "duration": 0.12288145833332464
        },
        {
          "name": "A#2",
          "midi": 46,
          "time": 236.44087499999952,
          "velocity": 1,
          "duration": 0.12288145833332464
        },
        {
          "name": "A#2",
          "midi": 46,
          "time": 236.8222312499995,
          "velocity": 1,
          "duration": 0.12288145833332464
        },
        {
          "name": "A#2",
          "midi": 46,
          "time": 236.9493499999995,
          "velocity": 1,
          "duration": 0.12288145833332464
        },
        {
          "name": "A#2",
          "midi": 46,
          "time": 237.33070624999948,
          "velocity": 1,
          "duration": 0.12288145833332464
        },
        {
          "name": "A#2",
          "midi": 46,
          "time": 237.45782499999947,
          "velocity": 1,
          "duration": 0.12288145833332464
        },
        {
          "name": "A#2",
          "midi": 46,
          "time": 237.96629999999948,
          "velocity": 1,
          "duration": 0.12288145833332464
        },
        {
          "name": "A#2",
          "midi": 46,
          "time": 238.34765624999946,
          "velocity": 1,
          "duration": 0.12288145833332464
        },
        {
          "name": "A#2",
          "midi": 46,
          "time": 238.47477499999945,
          "velocity": 1,
          "duration": 0.12288145833332464
        },
        {
          "name": "A#2",
          "midi": 46,
          "time": 238.85613124999944,
          "velocity": 1,
          "duration": 0.12288145833332464
        },
        {
          "name": "A#2",
          "midi": 46,
          "time": 238.98324999999943,
          "velocity": 1,
          "duration": 0.12288145833332464
        },
        {
          "name": "A#2",
          "midi": 46,
          "time": 239.3646062499994,
          "velocity": 1,
          "duration": 0.12288145833332464
        },
        {
          "name": "A#2",
          "midi": 46,
          "time": 239.4917249999994,
          "velocity": 1,
          "duration": 0.12288145833332464
        },
        {
          "name": "A#2",
          "midi": 46,
          "time": 240.0001999999994,
          "velocity": 1,
          "duration": 0.12288145833332464
        },
        {
          "name": "A#2",
          "midi": 46,
          "time": 240.3815562499994,
          "velocity": 1,
          "duration": 0.12288145833332464
        },
        {
          "name": "A#2",
          "midi": 46,
          "time": 240.50867499999939,
          "velocity": 1,
          "duration": 0.12288145833332464
        },
        {
          "name": "A#2",
          "midi": 46,
          "time": 240.89003124999937,
          "velocity": 1,
          "duration": 0.12288145833332464
        },
        {
          "name": "A#2",
          "midi": 46,
          "time": 241.01714999999936,
          "velocity": 1,
          "duration": 0.12288145833332464
        },
        {
          "name": "A#2",
          "midi": 46,
          "time": 241.39850624999934,
          "velocity": 1,
          "duration": 0.12288145833332464
        },
        {
          "name": "A#2",
          "midi": 46,
          "time": 241.52562499999934,
          "velocity": 1,
          "duration": 0.12288145833332464
        },
        {
          "name": "A#2",
          "midi": 46,
          "time": 242.03409999999934,
          "velocity": 1,
          "duration": 0.12711874999999395
        },
        {
          "name": "A#2",
          "midi": 46,
          "time": 242.41545624999932,
          "velocity": 1,
          "duration": 0.12711874999999395
        },
        {
          "name": "A#2",
          "midi": 46,
          "time": 242.54257499999932,
          "velocity": 1,
          "duration": 0.12711874999999395
        },
        {
          "name": "A#2",
          "midi": 46,
          "time": 242.9239312499993,
          "velocity": 1,
          "duration": 0.12711874999999395
        },
        {
          "name": "A#2",
          "midi": 46,
          "time": 243.0510499999993,
          "velocity": 1,
          "duration": 0.12711874999999395
        },
        {
          "name": "A#2",
          "midi": 46,
          "time": 243.43240624999927,
          "velocity": 1,
          "duration": 0.12711874999999395
        },
        {
          "name": "A#2",
          "midi": 46,
          "time": 243.55952499999927,
          "velocity": 1,
          "duration": 0.12711874999999395
        },
        {
          "name": "A#2",
          "midi": 46,
          "time": 244.06799999999927,
          "velocity": 1,
          "duration": 0.6355937499999982
        },
        {
          "name": "A#2",
          "midi": 46,
          "time": 244.57647499999928,
          "velocity": 1,
          "duration": 0.38135624999998186
        },
        {
          "name": "A#2",
          "midi": 46,
          "time": 244.83071249999927,
          "velocity": 1,
          "duration": 0.2500002083333186
        },
        {
          "name": "A#2",
          "midi": 46,
          "time": 244.95783124999926,
          "velocity": 1,
          "duration": 0.12711874999999395
        },
        {
          "name": "A#2",
          "midi": 46,
          "time": 245.08494999999925,
          "velocity": 1,
          "duration": 0.6355937499999982
        },
        {
          "name": "A#2",
          "midi": 46,
          "time": 245.59342499999926,
          "velocity": 1,
          "duration": 0.38135624999998186
        },
        {
          "name": "A#2",
          "midi": 46,
          "time": 245.84766249999925,
          "velocity": 1,
          "duration": 0.2500002083333186
        },
        {
          "name": "A#2",
          "midi": 46,
          "time": 245.97478124999924,
          "velocity": 1,
          "duration": 0.12711874999999395
        },
        {
          "name": "A#2",
          "midi": 46,
          "time": 246.10189999999923,
          "velocity": 1,
          "duration": 0.12711874999999395
        },
        {
          "name": "A#2",
          "midi": 46,
          "time": 246.35613749999922,
          "velocity": 1,
          "duration": 0.12711874999999395
        },
        {
          "name": "A#2",
          "midi": 46,
          "time": 246.6103749999992,
          "velocity": 1,
          "duration": 0.12711874999999395
        },
        {
          "name": "A#2",
          "midi": 46,
          "time": 246.6103749999992,
          "velocity": 1,
          "duration": 0.38135624999998186
        },
        {
          "name": "A#2",
          "midi": 46,
          "time": 246.8646124999992,
          "velocity": 1,
          "duration": 0.2500002083333186
        },
        {
          "name": "A#2",
          "midi": 46,
          "time": 247.11884999999918,
          "velocity": 1,
          "duration": 0.2542374999999879
        },
        {
          "name": "A#2",
          "midi": 46,
          "time": 247.62732499999916,
          "velocity": 1,
          "duration": 0.3813562500000103
        },
        {
          "name": "A#2",
          "midi": 46,
          "time": 247.62732499999916,
          "velocity": 1,
          "duration": 0.5042377083333349
        },
        {
          "name": "A#2",
          "midi": 46,
          "time": 248.13579999999916,
          "velocity": 1,
          "duration": 1.0127127083333392
        },
        {
          "name": "A#2",
          "midi": 46,
          "time": 248.64427499999917,
          "velocity": 1,
          "duration": 0.6355937499999982
        },
        {
          "name": "A#2",
          "midi": 46,
          "time": 249.66122499999918,
          "velocity": 1,
          "duration": 0.5042377083333349
        },
        {
          "name": "A#2",
          "midi": 46,
          "time": 252.20359999999917,
          "velocity": 1,
          "duration": 0.8855939583333168
        },
        {
          "name": "A#2",
          "midi": 46,
          "time": 252.96631249999916,
          "velocity": 0.8031496062992126,
          "duration": 0.2500002083333186
        },
        {
          "name": "A#2",
          "midi": 46,
          "time": 253.22054999999915,
          "velocity": 1,
          "duration": 1.0127127083333392
        },
        {
          "name": "A#2",
          "midi": 46,
          "time": 254.23749999999916,
          "velocity": 1,
          "duration": 0.8855939583333168
        },
        {
          "name": "A#2",
          "midi": 46,
          "time": 255.00021249999915,
          "velocity": 0.8031496062992126,
          "duration": 0.2500002083333186
        },
        {
          "name": "A#2",
          "midi": 46,
          "time": 255.25444999999914,
          "velocity": 1,
          "duration": 1.0127127083333392
        },
        {
          "name": "A#2",
          "midi": 46,
          "time": 256.2713999999991,
          "velocity": 1,
          "duration": 0.8855939583333452
        },
        {
          "name": "A#2",
          "midi": 46,
          "time": 257.03411249999914,
          "velocity": 0.8031496062992126,
          "duration": 0.250000208333347
        },
        {
          "name": "A#2",
          "midi": 46,
          "time": 257.2883499999991,
          "velocity": 1,
          "duration": 1.0127127083333107
        },
        {
          "name": "A#2",
          "midi": 46,
          "time": 258.3052999999991,
          "velocity": 1,
          "duration": 0.8855939583333452
        },
        {
          "name": "A#2",
          "midi": 46,
          "time": 259.0680124999991,
          "velocity": 0.8031496062992126,
          "duration": 0.250000208333347
        },
        {
          "name": "A#2",
          "midi": 46,
          "time": 259.3222499999991,
          "velocity": 1,
          "duration": 1.0127127083333107
        },
        {
          "name": "A#2",
          "midi": 46,
          "time": 260.33919999999904,
          "velocity": 1,
          "duration": 0.8855939583333452
        },
        {
          "name": "A#2",
          "midi": 46,
          "time": 261.10191249999906,
          "velocity": 0.8031496062992126,
          "duration": 0.250000208333347
        },
        {
          "name": "A#2",
          "midi": 46,
          "time": 261.35614999999905,
          "velocity": 1,
          "duration": 1.0127127083333107
        },
        {
          "name": "A#2",
          "midi": 46,
          "time": 262.373099999999,
          "velocity": 1,
          "duration": 0.8855939583333452
        },
        {
          "name": "A#2",
          "midi": 46,
          "time": 263.135812499999,
          "velocity": 0.8031496062992126,
          "duration": 0.250000208333347
        },
        {
          "name": "A#2",
          "midi": 46,
          "time": 263.390049999999,
          "velocity": 1,
          "duration": 1.0127127083333107
        },
        {
          "name": "A#2",
          "midi": 46,
          "time": 264.40699999999896,
          "velocity": 1,
          "duration": 0.8855939583333452
        },
        {
          "name": "A#2",
          "midi": 46,
          "time": 265.169712499999,
          "velocity": 0.8031496062992126,
          "duration": 0.250000208333347
        },
        {
          "name": "A#2",
          "midi": 46,
          "time": 265.42394999999897,
          "velocity": 1,
          "duration": 1.0127127083333107
        },
        {
          "name": "A#2",
          "midi": 46,
          "time": 266.4408999999989,
          "velocity": 1,
          "duration": 0.8855939583333452
        },
        {
          "name": "A#2",
          "midi": 46,
          "time": 267.20361249999894,
          "velocity": 0.8031496062992126,
          "duration": 0.250000208333347
        },
        {
          "name": "A#2",
          "midi": 46,
          "time": 267.4578499999989,
          "velocity": 1,
          "duration": 1.0127127083333107
        },
        {
          "name": "A#2",
          "midi": 46,
          "time": 268.4747999999989,
          "velocity": 1,
          "duration": 0.8855939583333452
        },
        {
          "name": "A#2",
          "midi": 46,
          "time": 269.2375124999989,
          "velocity": 0.8031496062992126,
          "duration": 0.250000208333347
        },
        {
          "name": "A#2",
          "midi": 46,
          "time": 269.4917499999989,
          "velocity": 1,
          "duration": 1.0127127083333107
        },
        {
          "name": "A#2",
          "midi": 46,
          "time": 270.50869999999884,
          "velocity": 1,
          "duration": 0.8855939583333452
        },
        {
          "name": "A#2",
          "midi": 46,
          "time": 271.27141249999886,
          "velocity": 0.8031496062992126,
          "duration": 0.250000208333347
        },
        {
          "name": "A#2",
          "midi": 46,
          "time": 271.52564999999885,
          "velocity": 1,
          "duration": 1.0127127083333107
        },
        {
          "name": "A#2",
          "midi": 46,
          "time": 272.5425999999988,
          "velocity": 1,
          "duration": 0.8855939583333452
        },
        {
          "name": "A#2",
          "midi": 46,
          "time": 273.3053124999988,
          "velocity": 0.8031496062992126,
          "duration": 0.250000208333347
        },
        {
          "name": "A#2",
          "midi": 46,
          "time": 273.5595499999988,
          "velocity": 1,
          "duration": 1.0127127083333107
        },
        {
          "name": "A#2",
          "midi": 46,
          "time": 274.57649999999876,
          "velocity": 1,
          "duration": 0.2542374999999879
        },
        {
          "name": "C#3",
          "midi": 49,
          "time": 274.83073749999875,
          "velocity": 1,
          "duration": 0.12711875000002237
        },
        {
          "name": "C#3",
          "midi": 49,
          "time": 275.21209374999876,
          "velocity": 1,
          "duration": 0.12711875000002237
        },
        {
          "name": "C#3",
          "midi": 49,
          "time": 275.59344999999877,
          "velocity": 1,
          "duration": 0.3813562500000103
        },
        {
          "name": "A#2",
          "midi": 46,
          "time": 276.1019249999988,
          "velocity": 1,
          "duration": 0.2542374999999879
        },
        {
          "name": "A#2",
          "midi": 46,
          "time": 276.6103999999988,
          "velocity": 1,
          "duration": 0.8855939583333452
        },
        {
          "name": "A#2",
          "midi": 46,
          "time": 277.3731124999988,
          "velocity": 0.8031496062992126,
          "duration": 0.250000208333347
        },
        {
          "name": "A#2",
          "midi": 46,
          "time": 277.6273499999988,
          "velocity": 1,
          "duration": 1.0127127083333107
        },
        {
          "name": "A#2",
          "midi": 46,
          "time": 278.64429999999874,
          "velocity": 1,
          "duration": 0.8855939583333452
        },
        {
          "name": "A#2",
          "midi": 46,
          "time": 279.40701249999876,
          "velocity": 0.8031496062992126,
          "duration": 0.250000208333347
        },
        {
          "name": "A#2",
          "midi": 46,
          "time": 279.66124999999874,
          "velocity": 1,
          "duration": 1.0127127083333107
        },
        {
          "name": "A#2",
          "midi": 46,
          "time": 280.6781999999987,
          "velocity": 1,
          "duration": 0.8855939583333452
        },
        {
          "name": "A#2",
          "midi": 46,
          "time": 281.4409124999987,
          "velocity": 0.8031496062992126,
          "duration": 0.250000208333347
        },
        {
          "name": "A#2",
          "midi": 46,
          "time": 281.6951499999987,
          "velocity": 1,
          "duration": 1.0127127083333107
        },
        {
          "name": "A#2",
          "midi": 46,
          "time": 282.71209999999866,
          "velocity": 1,
          "duration": 0.8855939583333452
        },
        {
          "name": "A#2",
          "midi": 46,
          "time": 283.4748124999987,
          "velocity": 0.8031496062992126,
          "duration": 0.250000208333347
        },
        {
          "name": "A#2",
          "midi": 46,
          "time": 283.72904999999867,
          "velocity": 1,
          "duration": 1.0127127083333107
        },
        {
          "name": "A#2",
          "midi": 46,
          "time": 284.7459999999986,
          "velocity": 1,
          "duration": 0.8855939583333452
        },
        {
          "name": "A#2",
          "midi": 46,
          "time": 285.50871249999864,
          "velocity": 0.8031496062992126,
          "duration": 0.250000208333347
        },
        {
          "name": "A#2",
          "midi": 46,
          "time": 285.7629499999986,
          "velocity": 1,
          "duration": 1.0127127083333107
        },
        {
          "name": "A#2",
          "midi": 46,
          "time": 286.7798999999986,
          "velocity": 1,
          "duration": 0.8855939583333452
        },
        {
          "name": "A#2",
          "midi": 46,
          "time": 287.5426124999986,
          "velocity": 0.8031496062992126,
          "duration": 0.250000208333347
        },
        {
          "name": "A#2",
          "midi": 46,
          "time": 287.7968499999986,
          "velocity": 1,
          "duration": 1.0127127083333107
        },
        {
          "name": "A#2",
          "midi": 46,
          "time": 288.81379999999854,
          "velocity": 1,
          "duration": 0.8855939583333452
        },
        {
          "name": "A#2",
          "midi": 46,
          "time": 289.57651249999856,
          "velocity": 0.8031496062992126,
          "duration": 0.250000208333347
        },
        {
          "name": "A#2",
          "midi": 46,
          "time": 289.83074999999855,
          "velocity": 1,
          "duration": 1.0127127083333107
        },
        {
          "name": "A#2",
          "midi": 46,
          "time": 290.8476999999985,
          "velocity": 1,
          "duration": 0.8855939583333452
        },
        {
          "name": "A#2",
          "midi": 46,
          "time": 291.6104124999985,
          "velocity": 0.8031496062992126,
          "duration": 0.250000208333347
        },
        {
          "name": "A#2",
          "midi": 46,
          "time": 291.8646499999985,
          "velocity": 1,
          "duration": 1.0127127083333107
        },
        {
          "name": "A#2",
          "midi": 46,
          "time": 292.88159999999846,
          "velocity": 1,
          "duration": 0.8855939583333452
        },
        {
          "name": "A#2",
          "midi": 46,
          "time": 293.6443124999985,
          "velocity": 0.8031496062992126,
          "duration": 0.250000208333347
        },
        {
          "name": "A#2",
          "midi": 46,
          "time": 293.89854999999847,
          "velocity": 1,
          "duration": 1.0127127083333107
        },
        {
          "name": "A#2",
          "midi": 46,
          "time": 294.9154999999984,
          "velocity": 1,
          "duration": 0.8855939583333452
        },
        {
          "name": "A#2",
          "midi": 46,
          "time": 295.67821249999844,
          "velocity": 0.8031496062992126,
          "duration": 0.250000208333347
        },
        {
          "name": "A#2",
          "midi": 46,
          "time": 295.9324499999984,
          "velocity": 1,
          "duration": 1.0127127083333107
        },
        {
          "name": "A#2",
          "midi": 46,
          "time": 296.9493999999984,
          "velocity": 1,
          "duration": 0.8855939583333452
        },
        {
          "name": "A#2",
          "midi": 46,
          "time": 297.7121124999984,
          "velocity": 0.8031496062992126,
          "duration": 0.250000208333347
        },
        {
          "name": "A#2",
          "midi": 46,
          "time": 297.9663499999984,
          "velocity": 1,
          "duration": 1.0127127083333107
        },
        {
          "name": "A#2",
          "midi": 46,
          "time": 298.98329999999834,
          "velocity": 1,
          "duration": 0.2542374999999879
        },
        {
          "name": "C#3",
          "midi": 49,
          "time": 299.2375374999983,
          "velocity": 1,
          "duration": 0.12711875000002237
        },
        {
          "name": "C#3",
          "midi": 49,
          "time": 299.61889374999834,
          "velocity": 1,
          "duration": 0.12711875000002237
        },
        {
          "name": "C#3",
          "midi": 49,
          "time": 300.00024999999835,
          "velocity": 1,
          "duration": 0.3813562500000103
        },
        {
          "name": "A#2",
          "midi": 46,
          "time": 300.5087249999984,
          "velocity": 1,
          "duration": 0.2542374999999879
        },
        {
          "name": "A#2",
          "midi": 46,
          "time": 301.01719999999835,
          "velocity": 1,
          "duration": 0.8855939583333452
        },
        {
          "name": "A#2",
          "midi": 46,
          "time": 301.7799124999984,
          "velocity": 0.8031496062992126,
          "duration": 0.250000208333347
        },
        {
          "name": "A#2",
          "midi": 46,
          "time": 302.03414999999836,
          "velocity": 1,
          "duration": 1.0127127083333107
        },
        {
          "name": "A#2",
          "midi": 46,
          "time": 303.0510999999983,
          "velocity": 1,
          "duration": 0.8855939583333452
        },
        {
          "name": "A#2",
          "midi": 46,
          "time": 303.81381249999833,
          "velocity": 0.8031496062992126,
          "duration": 0.250000208333347
        },
        {
          "name": "A#2",
          "midi": 46,
          "time": 304.0680499999983,
          "velocity": 1,
          "duration": 1.0127127083333107
        },
        {
          "name": "A#2",
          "midi": 46,
          "time": 305.0849999999983,
          "velocity": 1,
          "duration": 0.8855939583333452
        },
        {
          "name": "A#2",
          "midi": 46,
          "time": 305.8477124999983,
          "velocity": 0.8031496062992126,
          "duration": 0.250000208333347
        },
        {
          "name": "A#2",
          "midi": 46,
          "time": 306.1019499999983,
          "velocity": 1,
          "duration": 1.0127127083333107
        },
        {
          "name": "A#2",
          "midi": 46,
          "time": 307.11889999999823,
          "velocity": 1,
          "duration": 0.8855939583333452
        },
        {
          "name": "A#2",
          "midi": 46,
          "time": 307.88161249999825,
          "velocity": 0.8031496062992126,
          "duration": 0.250000208333347
        },
        {
          "name": "A#2",
          "midi": 46,
          "time": 308.13584999999824,
          "velocity": 1,
          "duration": 1.0127127083333107
        },
        {
          "name": "A#2",
          "midi": 46,
          "time": 309.1527999999982,
          "velocity": 1,
          "duration": 0.8855939583333452
        },
        {
          "name": "A#2",
          "midi": 46,
          "time": 309.9155124999982,
          "velocity": 0.8031496062992126,
          "duration": 0.250000208333347
        },
        {
          "name": "A#2",
          "midi": 46,
          "time": 310.1697499999982,
          "velocity": 1,
          "duration": 1.0127127083333107
        },
        {
          "name": "A#2",
          "midi": 46,
          "time": 311.18669999999815,
          "velocity": 1,
          "duration": 0.8855939583333452
        },
        {
          "name": "A#2",
          "midi": 46,
          "time": 311.9494124999982,
          "velocity": 0.8031496062992126,
          "duration": 0.250000208333347
        },
        {
          "name": "A#2",
          "midi": 46,
          "time": 312.20364999999816,
          "velocity": 1,
          "duration": 1.0127127083333107
        },
        {
          "name": "A#2",
          "midi": 46,
          "time": 313.2205999999981,
          "velocity": 1,
          "duration": 0.8855939583333452
        },
        {
          "name": "A#2",
          "midi": 46,
          "time": 313.98331249999814,
          "velocity": 0.8031496062992126,
          "duration": 0.250000208333347
        },
        {
          "name": "A#2",
          "midi": 46,
          "time": 314.2375499999981,
          "velocity": 1,
          "duration": 1.0127127083333107
        },
        {
          "name": "A#2",
          "midi": 46,
          "time": 315.2544999999981,
          "velocity": 1,
          "duration": 0.8855939583333452
        },
        {
          "name": "A#2",
          "midi": 46,
          "time": 316.0172124999981,
          "velocity": 0.8031496062992126,
          "duration": 0.250000208333347
        },
        {
          "name": "A#2",
          "midi": 46,
          "time": 316.2714499999981,
          "velocity": 1,
          "duration": 1.0127127083333107
        },
        {
          "name": "A#2",
          "midi": 46,
          "time": 317.28839999999803,
          "velocity": 1,
          "duration": 0.8855939583333452
        },
        {
          "name": "A#2",
          "midi": 46,
          "time": 318.05111249999806,
          "velocity": 0.8031496062992126,
          "duration": 0.250000208333347
        },
        {
          "name": "A#2",
          "midi": 46,
          "time": 318.30534999999804,
          "velocity": 1,
          "duration": 1.0127127083333107
        },
        {
          "name": "A#2",
          "midi": 46,
          "time": 319.322299999998,
          "velocity": 1,
          "duration": 0.8855939583333452
        },
        {
          "name": "A#2",
          "midi": 46,
          "time": 320.085012499998,
          "velocity": 0.8031496062992126,
          "duration": 0.250000208333347
        },
        {
          "name": "A#2",
          "midi": 46,
          "time": 320.339249999998,
          "velocity": 1,
          "duration": 1.0127127083333107
        },
        {
          "name": "A#2",
          "midi": 46,
          "time": 321.35619999999795,
          "velocity": 1,
          "duration": 0.8855939583333452
        },
        {
          "name": "A#2",
          "midi": 46,
          "time": 322.118912499998,
          "velocity": 0.8031496062992126,
          "duration": 0.250000208333347
        },
        {
          "name": "A#2",
          "midi": 46,
          "time": 322.37314999999796,
          "velocity": 1,
          "duration": 1.0127127083333107
        },
        {
          "name": "A#2",
          "midi": 46,
          "time": 323.3900999999979,
          "velocity": 1,
          "duration": 0.2542374999999879
        },
        {
          "name": "C#3",
          "midi": 49,
          "time": 323.6443374999979,
          "velocity": 1,
          "duration": 0.12711875000002237
        },
        {
          "name": "C#3",
          "midi": 49,
          "time": 324.0256937499979,
          "velocity": 1,
          "duration": 0.12711875000002237
        },
        {
          "name": "C#3",
          "midi": 49,
          "time": 324.4070499999979,
          "velocity": 1,
          "duration": 0.3813562500000103
        },
        {
          "name": "A#2",
          "midi": 46,
          "time": 324.91552499999796,
          "velocity": 1,
          "duration": 0.2542374999999879
        }
      ],
      "controlChanges": {
        "7": [
          {
            "number": 7,
            "time": 0.711865,
            "value": 1
          }
        ]
      },
      "id": 13,
      "name": "hihats",
      "channelNumber": 9,
      "isPercussion": true
    },
    {
      "startTime": 50.72038125,
      "duration": 325.2968812499932,
      "length": 1029,
      "notes": [
        {
          "name": "B1",
          "midi": 35,
          "time": 50.72038125,
          "velocity": 1,
          "duration": 0.12288145833333175
        },
        {
          "name": "C3",
          "midi": 48,
          "time": 50.847500000000004,
          "velocity": 1,
          "duration": 0.12288145833333175
        },
        {
          "name": "C3",
          "midi": 48,
          "time": 50.974618750000005,
          "velocity": 1,
          "duration": 0.12288145833333175
        },
        {
          "name": "B1",
          "midi": 35,
          "time": 51.22885625,
          "velocity": 1,
          "duration": 0.12288145833333175
        },
        {
          "name": "B2",
          "midi": 47,
          "time": 51.355975,
          "velocity": 1,
          "duration": 0.12288145833333175
        },
        {
          "name": "B2",
          "midi": 47,
          "time": 51.48309375,
          "velocity": 1,
          "duration": 0.12288145833333175
        },
        {
          "name": "B1",
          "midi": 35,
          "time": 51.73733125,
          "velocity": 1,
          "duration": 0.12288145833333175
        },
        {
          "name": "A2",
          "midi": 45,
          "time": 51.86445,
          "velocity": 1,
          "duration": 0.12288145833333175
        },
        {
          "name": "A2",
          "midi": 45,
          "time": 51.99156875,
          "velocity": 1,
          "duration": 0.12288145833333175
        },
        {
          "name": "B1",
          "midi": 35,
          "time": 52.245806249999994,
          "velocity": 1,
          "duration": 0.12288145833333175
        },
        {
          "name": "A#2",
          "midi": 46,
          "time": 52.372924999999995,
          "velocity": 1,
          "duration": 0.12288145833333175
        },
        {
          "name": "D2",
          "midi": 38,
          "time": 52.372924999999995,
          "velocity": 1,
          "duration": 0.12288145833333175
        },
        {
          "name": "C2",
          "midi": 36,
          "time": 52.88139999999999,
          "velocity": 1,
          "duration": 0.12288145833333175
        },
        {
          "name": "C2",
          "midi": 36,
          "time": 53.26275624999999,
          "velocity": 1,
          "duration": 0.12288145833333175
        },
        {
          "name": "D2",
          "midi": 38,
          "time": 53.38987499999999,
          "velocity": 1,
          "duration": 0.12288145833333175
        },
        {
          "name": "C2",
          "midi": 36,
          "time": 53.644112499999984,
          "velocity": 1,
          "duration": 0.12288145833333175
        },
        {
          "name": "C2",
          "midi": 36,
          "time": 53.89834999999998,
          "velocity": 1,
          "duration": 0.12288145833333175
        },
        {
          "name": "C2",
          "midi": 36,
          "time": 54.279706249999975,
          "velocity": 1,
          "duration": 0.12288145833333175
        },
        {
          "name": "D2",
          "midi": 38,
          "time": 54.40682499999998,
          "velocity": 1,
          "duration": 0.12288145833333175
        },
        {
          "name": "C2",
          "midi": 36,
          "time": 54.66106249999997,
          "velocity": 1,
          "duration": 0.12288145833333175
        },
        {
          "name": "C2",
          "midi": 36,
          "time": 54.91529999999997,
          "velocity": 1,
          "duration": 0.12288145833333175
        },
        {
          "name": "C2",
          "midi": 36,
          "time": 55.29665624999996,
          "velocity": 1,
          "duration": 0.12288145833333175
        },
        {
          "name": "D2",
          "midi": 38,
          "time": 55.423774999999964,
          "velocity": 1,
          "duration": 0.12288145833333175
        },
        {
          "name": "C2",
          "midi": 36,
          "time": 55.67801249999996,
          "velocity": 1,
          "duration": 0.12288145833333175
        },
        {
          "name": "C2",
          "midi": 36,
          "time": 55.932249999999954,
          "velocity": 1,
          "duration": 0.12288145833333175
        },
        {
          "name": "C2",
          "midi": 36,
          "time": 56.31360624999995,
          "velocity": 1,
          "duration": 0.12288145833333175
        },
        {
          "name": "D2",
          "midi": 38,
          "time": 56.44072499999995,
          "velocity": 1,
          "duration": 0.12288145833333175
        },
        {
          "name": "C2",
          "midi": 36,
          "time": 56.694962499999946,
          "velocity": 1,
          "duration": 0.12288145833333175
        },
        {
          "name": "C2",
          "midi": 36,
          "time": 56.94919999999994,
          "velocity": 1,
          "duration": 0.12288145833333175
        },
        {
          "name": "C2",
          "midi": 36,
          "time": 57.33055624999994,
          "velocity": 1,
          "duration": 0.12288145833333175
        },
        {
          "name": "D2",
          "midi": 38,
          "time": 57.45767499999994,
          "velocity": 1,
          "duration": 0.12288145833333175
        },
        {
          "name": "C2",
          "midi": 36,
          "time": 57.71191249999993,
          "velocity": 1,
          "duration": 0.12288145833333175
        },
        {
          "name": "C2",
          "midi": 36,
          "time": 57.96614999999993,
          "velocity": 1,
          "duration": 0.12288145833333175
        },
        {
          "name": "C2",
          "midi": 36,
          "time": 58.347506249999924,
          "velocity": 1,
          "duration": 0.12288145833333175
        },
        {
          "name": "D2",
          "midi": 38,
          "time": 58.474624999999925,
          "velocity": 1,
          "duration": 0.12288145833333175
        },
        {
          "name": "C2",
          "midi": 36,
          "time": 58.72886249999992,
          "velocity": 1,
          "duration": 0.12288145833333175
        },
        {
          "name": "C2",
          "midi": 36,
          "time": 58.983099999999915,
          "velocity": 1,
          "duration": 0.12288145833333175
        },
        {
          "name": "C2",
          "midi": 36,
          "time": 59.36445624999991,
          "velocity": 1,
          "duration": 0.12288145833333175
        },
        {
          "name": "D2",
          "midi": 38,
          "time": 59.49157499999991,
          "velocity": 1,
          "duration": 0.12288145833333175
        },
        {
          "name": "C2",
          "midi": 36,
          "time": 59.74581249999991,
          "velocity": 1,
          "duration": 0.12288145833333175
        },
        {
          "name": "C2",
          "midi": 36,
          "time": 60.0000499999999,
          "velocity": 1,
          "duration": 0.12288145833333175
        },
        {
          "name": "C2",
          "midi": 36,
          "time": 60.3814062499999,
          "velocity": 1,
          "duration": 0.12288145833333175
        },
        {
          "name": "D2",
          "midi": 38,
          "time": 60.5085249999999,
          "velocity": 1,
          "duration": 0.12288145833333175
        },
        {
          "name": "C2",
          "midi": 36,
          "time": 60.762762499999894,
          "velocity": 1,
          "duration": 0.12288145833333175
        },
        {
          "name": "C2",
          "midi": 36,
          "time": 61.01699999999989,
          "velocity": 1,
          "duration": 0.12288145833333175
        },
        {
          "name": "C2",
          "midi": 36,
          "time": 61.398356249999885,
          "velocity": 1,
          "duration": 0.12288145833333175
        },
        {
          "name": "D2",
          "midi": 38,
          "time": 61.52547499999989,
          "velocity": 1,
          "duration": 0.12288145833333175
        },
        {
          "name": "C2",
          "midi": 36,
          "time": 61.77971249999988,
          "velocity": 1,
          "duration": 0.12288145833333175
        },
        {
          "name": "C2",
          "midi": 36,
          "time": 62.03394999999988,
          "velocity": 1,
          "duration": 0.12288145833333175
        },
        {
          "name": "C2",
          "midi": 36,
          "time": 62.41530624999987,
          "velocity": 1,
          "duration": 0.12288145833333175
        },
        {
          "name": "D2",
          "midi": 38,
          "time": 62.542424999999874,
          "velocity": 1,
          "duration": 0.12288145833333175
        },
        {
          "name": "C2",
          "midi": 36,
          "time": 62.79666249999987,
          "velocity": 1,
          "duration": 0.12288145833333175
        },
        {
          "name": "C2",
          "midi": 36,
          "time": 63.050899999999864,
          "velocity": 1,
          "duration": 0.12288145833333175
        },
        {
          "name": "C2",
          "midi": 36,
          "time": 63.43225624999986,
          "velocity": 1,
          "duration": 0.12288145833333175
        },
        {
          "name": "D2",
          "midi": 38,
          "time": 63.55937499999986,
          "velocity": 1,
          "duration": 0.12288145833333175
        },
        {
          "name": "C2",
          "midi": 36,
          "time": 63.813612499999856,
          "velocity": 1,
          "duration": 0.12288145833333175
        },
        {
          "name": "C2",
          "midi": 36,
          "time": 64.06784999999985,
          "velocity": 1,
          "duration": 0.12288145833333886
        },
        {
          "name": "C2",
          "midi": 36,
          "time": 64.44920624999986,
          "velocity": 1,
          "duration": 0.12288145833333886
        },
        {
          "name": "D2",
          "midi": 38,
          "time": 64.57632499999987,
          "velocity": 1,
          "duration": 0.12288145833333886
        },
        {
          "name": "C2",
          "midi": 36,
          "time": 64.83056249999987,
          "velocity": 1,
          "duration": 0.12288145833333886
        },
        {
          "name": "C2",
          "midi": 36,
          "time": 65.08479999999987,
          "velocity": 1,
          "duration": 0.12288145833333886
        },
        {
          "name": "C2",
          "midi": 36,
          "time": 65.46615624999988,
          "velocity": 1,
          "duration": 0.12288145833333886
        },
        {
          "name": "D2",
          "midi": 38,
          "time": 65.59327499999989,
          "velocity": 1,
          "duration": 0.12288145833333886
        },
        {
          "name": "C2",
          "midi": 36,
          "time": 65.8475124999999,
          "velocity": 1,
          "duration": 0.12288145833333886
        },
        {
          "name": "C2",
          "midi": 36,
          "time": 66.1017499999999,
          "velocity": 1,
          "duration": 0.12288145833333886
        },
        {
          "name": "C2",
          "midi": 36,
          "time": 66.4831062499999,
          "velocity": 1,
          "duration": 0.12288145833333886
        },
        {
          "name": "D2",
          "midi": 38,
          "time": 66.61022499999991,
          "velocity": 1,
          "duration": 0.12288145833333886
        },
        {
          "name": "C2",
          "midi": 36,
          "time": 66.86446249999992,
          "velocity": 1,
          "duration": 0.12288145833333886
        },
        {
          "name": "C2",
          "midi": 36,
          "time": 67.11869999999992,
          "velocity": 1,
          "duration": 0.12288145833333886
        },
        {
          "name": "C2",
          "midi": 36,
          "time": 67.50005624999993,
          "velocity": 1,
          "duration": 0.12288145833333886
        },
        {
          "name": "D2",
          "midi": 38,
          "time": 67.62717499999994,
          "velocity": 1,
          "duration": 0.12288145833333886
        },
        {
          "name": "C2",
          "midi": 36,
          "time": 67.88141249999994,
          "velocity": 1,
          "duration": 0.12288145833333886
        },
        {
          "name": "C2",
          "midi": 36,
          "time": 68.13564999999994,
          "velocity": 1,
          "duration": 0.12288145833333886
        },
        {
          "name": "C2",
          "midi": 36,
          "time": 68.51700624999995,
          "velocity": 1,
          "duration": 0.12288145833333886
        },
        {
          "name": "D2",
          "midi": 38,
          "time": 68.64412499999996,
          "velocity": 1,
          "duration": 0.12288145833333886
        },
        {
          "name": "C2",
          "midi": 36,
          "time": 68.89836249999996,
          "velocity": 1,
          "duration": 0.12288145833333886
        },
        {
          "name": "C2",
          "midi": 36,
          "time": 69.15259999999996,
          "velocity": 1,
          "duration": 0.12288145833333886
        },
        {
          "name": "C2",
          "midi": 36,
          "time": 69.53395624999997,
          "velocity": 1,
          "duration": 0.12288145833333886
        },
        {
          "name": "D2",
          "midi": 38,
          "time": 69.66107499999998,
          "velocity": 1,
          "duration": 0.12288145833333886
        },
        {
          "name": "C2",
          "midi": 36,
          "time": 69.91531249999998,
          "velocity": 1,
          "duration": 0.12288145833333886
        },
        {
          "name": "C2",
          "midi": 36,
          "time": 70.16954999999999,
          "velocity": 1,
          "duration": 0.12288145833333886
        },
        {
          "name": "C2",
          "midi": 36,
          "time": 70.55090625,
          "velocity": 1,
          "duration": 0.12288145833333886
        },
        {
          "name": "D2",
          "midi": 38,
          "time": 70.678025,
          "velocity": 1,
          "duration": 0.12288145833333886
        },
        {
          "name": "C2",
          "midi": 36,
          "time": 70.93226250000001,
          "velocity": 1,
          "duration": 0.12288145833333886
        },
        {
          "name": "C2",
          "midi": 36,
          "time": 71.18650000000001,
          "velocity": 1,
          "duration": 0.12288145833333886
        },
        {
          "name": "C2",
          "midi": 36,
          "time": 71.56785625000002,
          "velocity": 1,
          "duration": 0.12288145833333886
        },
        {
          "name": "D2",
          "midi": 38,
          "time": 71.69497500000003,
          "velocity": 1,
          "duration": 0.12288145833333886
        },
        {
          "name": "C2",
          "midi": 36,
          "time": 71.94921250000003,
          "velocity": 1,
          "duration": 0.12288145833333886
        },
        {
          "name": "C2",
          "midi": 36,
          "time": 72.20345000000003,
          "velocity": 1,
          "duration": 0.12288145833333886
        },
        {
          "name": "C2",
          "midi": 36,
          "time": 72.58480625000004,
          "velocity": 1,
          "duration": 0.12288145833333886
        },
        {
          "name": "D2",
          "midi": 38,
          "time": 72.71192500000005,
          "velocity": 1,
          "duration": 0.12288145833333886
        },
        {
          "name": "C2",
          "midi": 36,
          "time": 72.96616250000005,
          "velocity": 1,
          "duration": 0.12288145833333886
        },
        {
          "name": "C2",
          "midi": 36,
          "time": 73.22040000000005,
          "velocity": 1,
          "duration": 0.12288145833333886
        },
        {
          "name": "C2",
          "midi": 36,
          "time": 73.60175625000007,
          "velocity": 1,
          "duration": 0.12288145833333886
        },
        {
          "name": "D2",
          "midi": 38,
          "time": 73.72887500000007,
          "velocity": 1,
          "duration": 0.12288145833333886
        },
        {
          "name": "C2",
          "midi": 36,
          "time": 73.98311250000008,
          "velocity": 1,
          "duration": 0.12288145833333886
        },
        {
          "name": "C2",
          "midi": 36,
          "time": 74.23735000000008,
          "velocity": 1,
          "duration": 0.12288145833333886
        },
        {
          "name": "C2",
          "midi": 36,
          "time": 74.61870625000009,
          "velocity": 1,
          "duration": 0.12288145833333886
        },
        {
          "name": "D2",
          "midi": 38,
          "time": 74.7458250000001,
          "velocity": 1,
          "duration": 0.12288145833333886
        },
        {
          "name": "C2",
          "midi": 36,
          "time": 75.0000625000001,
          "velocity": 1,
          "duration": 0.12288145833333886
        },
        {
          "name": "C2",
          "midi": 36,
          "time": 75.2543000000001,
          "velocity": 1,
          "duration": 0.12288145833333886
        },
        {
          "name": "C2",
          "midi": 36,
          "time": 75.63565625000011,
          "velocity": 1,
          "duration": 0.12288145833333886
        },
        {
          "name": "D2",
          "midi": 38,
          "time": 75.76277500000012,
          "velocity": 1,
          "duration": 0.12288145833333886
        },
        {
          "name": "C2",
          "midi": 36,
          "time": 76.01701250000012,
          "velocity": 1,
          "duration": 0.12288145833333886
        },
        {
          "name": "C2",
          "midi": 36,
          "time": 76.27125000000012,
          "velocity": 1,
          "duration": 0.12288145833333886
        },
        {
          "name": "C2",
          "midi": 36,
          "time": 76.65260625000013,
          "velocity": 1,
          "duration": 0.12288145833333886
        },
        {
          "name": "D2",
          "midi": 38,
          "time": 76.77972500000014,
          "velocity": 1,
          "duration": 0.12288145833333886
        },
        {
          "name": "C2",
          "midi": 36,
          "time": 77.03396250000014,
          "velocity": 1,
          "duration": 0.12288145833333886
        },
        {
          "name": "D2",
          "midi": 38,
          "time": 77.03396250000014,
          "velocity": 1,
          "duration": 0.12288145833333886
        },
        {
          "name": "D2",
          "midi": 38,
          "time": 77.16108125000015,
          "velocity": 1,
          "duration": 0.12288145833333886
        },
        {
          "name": "C2",
          "midi": 36,
          "time": 77.28820000000016,
          "velocity": 1,
          "duration": 0.12288145833333886
        },
        {
          "name": "C2",
          "midi": 36,
          "time": 77.66955625000017,
          "velocity": 1,
          "duration": 0.12288145833333886
        },
        {
          "name": "D2",
          "midi": 38,
          "time": 77.79667500000018,
          "velocity": 1,
          "duration": 0.12288145833333886
        },
        {
          "name": "C2",
          "midi": 36,
          "time": 78.05091250000018,
          "velocity": 1,
          "duration": 0.12288145833333886
        },
        {
          "name": "C2",
          "midi": 36,
          "time": 78.30515000000018,
          "velocity": 1,
          "duration": 0.12288145833333886
        },
        {
          "name": "C2",
          "midi": 36,
          "time": 78.68650625000019,
          "velocity": 1,
          "duration": 0.12288145833333886
        },
        {
          "name": "D2",
          "midi": 38,
          "time": 78.8136250000002,
          "velocity": 1,
          "duration": 0.12288145833333886
        },
        {
          "name": "C2",
          "midi": 36,
          "time": 79.0678625000002,
          "velocity": 1,
          "duration": 0.12288145833333886
        },
        {
          "name": "C2",
          "midi": 36,
          "time": 79.3221000000002,
          "velocity": 1,
          "duration": 0.12288145833333886
        },
        {
          "name": "C2",
          "midi": 36,
          "time": 79.70345625000022,
          "velocity": 1,
          "duration": 0.12288145833333886
        },
        {
          "name": "D2",
          "midi": 38,
          "time": 79.83057500000022,
          "velocity": 1,
          "duration": 0.12288145833333886
        },
        {
          "name": "C2",
          "midi": 36,
          "time": 80.08481250000023,
          "velocity": 1,
          "duration": 0.12288145833333886
        },
        {
          "name": "C2",
          "midi": 36,
          "time": 80.33905000000023,
          "velocity": 1,
          "duration": 0.12288145833333886
        },
        {
          "name": "C2",
          "midi": 36,
          "time": 80.72040625000024,
          "velocity": 1,
          "duration": 0.12288145833333886
        },
        {
          "name": "D2",
          "midi": 38,
          "time": 80.84752500000025,
          "velocity": 1,
          "duration": 0.12288145833333886
        },
        {
          "name": "C2",
          "midi": 36,
          "time": 81.10176250000025,
          "velocity": 1,
          "duration": 0.12288145833333886
        },
        {
          "name": "C2",
          "midi": 36,
          "time": 81.35600000000025,
          "velocity": 1,
          "duration": 0.12288145833333886
        },
        {
          "name": "C2",
          "midi": 36,
          "time": 81.73735625000026,
          "velocity": 1,
          "duration": 0.12288145833333886
        },
        {
          "name": "D2",
          "midi": 38,
          "time": 81.86447500000027,
          "velocity": 1,
          "duration": 0.12288145833333886
        },
        {
          "name": "C2",
          "midi": 36,
          "time": 82.11871250000027,
          "velocity": 1,
          "duration": 0.12288145833333886
        },
        {
          "name": "C2",
          "midi": 36,
          "time": 82.37295000000027,
          "velocity": 1,
          "duration": 0.12288145833333886
        },
        {
          "name": "C2",
          "midi": 36,
          "time": 82.75430625000028,
          "velocity": 1,
          "duration": 0.12288145833333886
        },
        {
          "name": "D2",
          "midi": 38,
          "time": 82.88142500000029,
          "velocity": 1,
          "duration": 0.12288145833333886
        },
        {
          "name": "C2",
          "midi": 36,
          "time": 83.1356625000003,
          "velocity": 1,
          "duration": 0.12288145833333886
        },
        {
          "name": "C2",
          "midi": 36,
          "time": 83.3899000000003,
          "velocity": 1,
          "duration": 0.12288145833333886
        },
        {
          "name": "C2",
          "midi": 36,
          "time": 83.7712562500003,
          "velocity": 1,
          "duration": 0.12288145833333886
        },
        {
          "name": "D2",
          "midi": 38,
          "time": 83.89837500000031,
          "velocity": 1,
          "duration": 0.12288145833333886
        },
        {
          "name": "C2",
          "midi": 36,
          "time": 84.15261250000032,
          "velocity": 1,
          "duration": 0.12288145833333886
        },
        {
          "name": "C2",
          "midi": 36,
          "time": 84.40685000000032,
          "velocity": 1,
          "duration": 0.12288145833333886
        },
        {
          "name": "C2",
          "midi": 36,
          "time": 84.78820625000033,
          "velocity": 1,
          "duration": 0.12288145833333886
        },
        {
          "name": "D2",
          "midi": 38,
          "time": 84.91532500000034,
          "velocity": 1,
          "duration": 0.12288145833333886
        },
        {
          "name": "C2",
          "midi": 36,
          "time": 85.16956250000034,
          "velocity": 1,
          "duration": 0.12288145833333886
        },
        {
          "name": "C2",
          "midi": 36,
          "time": 85.42380000000034,
          "velocity": 1,
          "duration": 0.12288145833333886
        },
        {
          "name": "C2",
          "midi": 36,
          "time": 85.80515625000035,
          "velocity": 1,
          "duration": 0.12288145833333886
        },
        {
          "name": "D2",
          "midi": 38,
          "time": 85.93227500000036,
          "velocity": 1,
          "duration": 0.12288145833333886
        },
        {
          "name": "C2",
          "midi": 36,
          "time": 86.18651250000036,
          "velocity": 1,
          "duration": 0.12288145833333886
        },
        {
          "name": "C2",
          "midi": 36,
          "time": 86.44075000000036,
          "velocity": 1,
          "duration": 0.12288145833333886
        },
        {
          "name": "C2",
          "midi": 36,
          "time": 86.82210625000037,
          "velocity": 1,
          "duration": 0.12288145833333886
        },
        {
          "name": "D2",
          "midi": 38,
          "time": 86.94922500000038,
          "velocity": 1,
          "duration": 0.12288145833333886
        },
        {
          "name": "C2",
          "midi": 36,
          "time": 87.20346250000038,
          "velocity": 1,
          "duration": 0.12288145833333886
        },
        {
          "name": "C2",
          "midi": 36,
          "time": 87.45770000000039,
          "velocity": 1,
          "duration": 0.12288145833333886
        },
        {
          "name": "C2",
          "midi": 36,
          "time": 87.8390562500004,
          "velocity": 1,
          "duration": 0.12288145833333886
        },
        {
          "name": "D2",
          "midi": 38,
          "time": 87.9661750000004,
          "velocity": 1,
          "duration": 0.12288145833333886
        },
        {
          "name": "C2",
          "midi": 36,
          "time": 88.2204125000004,
          "velocity": 1,
          "duration": 0.12288145833333886
        },
        {
          "name": "C2",
          "midi": 36,
          "time": 88.47465000000041,
          "velocity": 1,
          "duration": 0.12288145833333886
        },
        {
          "name": "C2",
          "midi": 36,
          "time": 88.85600625000042,
          "velocity": 1,
          "duration": 0.12288145833333886
        },
        {
          "name": "D2",
          "midi": 38,
          "time": 88.98312500000043,
          "velocity": 1,
          "duration": 0.12288145833333886
        },
        {
          "name": "C2",
          "midi": 36,
          "time": 89.23736250000043,
          "velocity": 1,
          "duration": 0.12288145833333886
        },
        {
          "name": "C2",
          "midi": 36,
          "time": 89.49160000000043,
          "velocity": 1,
          "duration": 0.12288145833333886
        },
        {
          "name": "C2",
          "midi": 36,
          "time": 89.87295625000044,
          "velocity": 1,
          "duration": 0.12288145833333886
        },
        {
          "name": "D2",
          "midi": 38,
          "time": 90.00007500000045,
          "velocity": 1,
          "duration": 0.12288145833333886
        },
        {
          "name": "C2",
          "midi": 36,
          "time": 90.25431250000045,
          "velocity": 1,
          "duration": 0.12288145833333886
        },
        {
          "name": "C2",
          "midi": 36,
          "time": 90.50855000000045,
          "velocity": 1,
          "duration": 0.12288145833333886
        },
        {
          "name": "C2",
          "midi": 36,
          "time": 90.88990625000046,
          "velocity": 1,
          "duration": 0.12288145833333886
        },
        {
          "name": "D2",
          "midi": 38,
          "time": 91.01702500000047,
          "velocity": 1,
          "duration": 0.12288145833333886
        },
        {
          "name": "C2",
          "midi": 36,
          "time": 91.27126250000047,
          "velocity": 1,
          "duration": 0.12288145833333886
        },
        {
          "name": "C2",
          "midi": 36,
          "time": 91.52550000000048,
          "velocity": 1,
          "duration": 0.12288145833333886
        },
        {
          "name": "C2",
          "midi": 36,
          "time": 91.90685625000049,
          "velocity": 1,
          "duration": 0.12288145833333886
        },
        {
          "name": "D2",
          "midi": 38,
          "time": 92.0339750000005,
          "velocity": 1,
          "duration": 0.12288145833333886
        },
        {
          "name": "C2",
          "midi": 36,
          "time": 92.2882125000005,
          "velocity": 1,
          "duration": 0.12288145833333886
        },
        {
          "name": "C2",
          "midi": 36,
          "time": 92.5424500000005,
          "velocity": 1,
          "duration": 0.12288145833333886
        },
        {
          "name": "C2",
          "midi": 36,
          "time": 92.92380625000051,
          "velocity": 1,
          "duration": 0.12288145833333886
        },
        {
          "name": "D2",
          "midi": 38,
          "time": 93.05092500000052,
          "velocity": 1,
          "duration": 0.12288145833333886
        },
        {
          "name": "C2",
          "midi": 36,
          "time": 93.30516250000052,
          "velocity": 1,
          "duration": 0.12288145833333886
        },
        {
          "name": "C2",
          "midi": 36,
          "time": 93.55940000000052,
          "velocity": 1,
          "duration": 0.12288145833333886
        },
        {
          "name": "C2",
          "midi": 36,
          "time": 93.94075625000053,
          "velocity": 1,
          "duration": 0.12288145833333886
        },
        {
          "name": "D2",
          "midi": 38,
          "time": 94.06787500000054,
          "velocity": 1,
          "duration": 0.12288145833333886
        },
        {
          "name": "C2",
          "midi": 36,
          "time": 94.32211250000054,
          "velocity": 1,
          "duration": 0.12288145833333886
        },
        {
          "name": "C2",
          "midi": 36,
          "time": 94.57635000000055,
          "velocity": 1,
          "duration": 0.12288145833333886
        },
        {
          "name": "C2",
          "midi": 36,
          "time": 94.95770625000056,
          "velocity": 1,
          "duration": 0.12288145833333886
        },
        {
          "name": "D2",
          "midi": 38,
          "time": 95.08482500000056,
          "velocity": 1,
          "duration": 0.12288145833333886
        },
        {
          "name": "C2",
          "midi": 36,
          "time": 95.33906250000057,
          "velocity": 1,
          "duration": 0.12288145833333886
        },
        {
          "name": "C2",
          "midi": 36,
          "time": 95.59330000000057,
          "velocity": 1,
          "duration": 0.12288145833333886
        },
        {
          "name": "C2",
          "midi": 36,
          "time": 95.97465625000058,
          "velocity": 1,
          "duration": 0.12288145833333886
        },
        {
          "name": "D2",
          "midi": 38,
          "time": 96.10177500000059,
          "velocity": 1,
          "duration": 0.12288145833333886
        },
        {
          "name": "C2",
          "midi": 36,
          "time": 96.35601250000059,
          "velocity": 1,
          "duration": 0.12288145833333886
        },
        {
          "name": "C2",
          "midi": 36,
          "time": 96.61025000000059,
          "velocity": 1,
          "duration": 0.12288145833333886
        },
        {
          "name": "C2",
          "midi": 36,
          "time": 96.9916062500006,
          "velocity": 1,
          "duration": 0.12288145833333886
        },
        {
          "name": "D2",
          "midi": 38,
          "time": 97.11872500000061,
          "velocity": 1,
          "duration": 0.12288145833333886
        },
        {
          "name": "C2",
          "midi": 36,
          "time": 97.37296250000061,
          "velocity": 1,
          "duration": 0.12288145833333886
        },
        {
          "name": "C2",
          "midi": 36,
          "time": 97.62720000000061,
          "velocity": 1,
          "duration": 0.12288145833333886
        },
        {
          "name": "C2",
          "midi": 36,
          "time": 98.00855625000062,
          "velocity": 1,
          "duration": 0.12288145833333886
        },
        {
          "name": "D2",
          "midi": 38,
          "time": 98.13567500000063,
          "velocity": 1,
          "duration": 0.12288145833333886
        },
        {
          "name": "C2",
          "midi": 36,
          "time": 98.38991250000063,
          "velocity": 1,
          "duration": 0.12288145833333886
        },
        {
          "name": "C2",
          "midi": 36,
          "time": 98.64415000000064,
          "velocity": 1,
          "duration": 0.12288145833333886
        },
        {
          "name": "C2",
          "midi": 36,
          "time": 99.02550625000065,
          "velocity": 1,
          "duration": 0.12288145833333886
        },
        {
          "name": "D2",
          "midi": 38,
          "time": 99.15262500000065,
          "velocity": 1,
          "duration": 0.12288145833333886
        },
        {
          "name": "C2",
          "midi": 36,
          "time": 99.40686250000066,
          "velocity": 1,
          "duration": 0.12288145833333886
        },
        {
          "name": "C2",
          "midi": 36,
          "time": 99.66110000000066,
          "velocity": 1,
          "duration": 0.12288145833333886
        },
        {
          "name": "C2",
          "midi": 36,
          "time": 100.04245625000067,
          "velocity": 1,
          "duration": 0.12288145833333886
        },
        {
          "name": "D2",
          "midi": 38,
          "time": 100.16957500000068,
          "velocity": 1,
          "duration": 0.12288145833333886
        },
        {
          "name": "C2",
          "midi": 36,
          "time": 100.42381250000068,
          "velocity": 1,
          "duration": 0.12288145833333886
        },
        {
          "name": "C2",
          "midi": 36,
          "time": 100.67805000000068,
          "velocity": 1,
          "duration": 0.12288145833333886
        },
        {
          "name": "C2",
          "midi": 36,
          "time": 101.05940625000069,
          "velocity": 1,
          "duration": 0.12288145833333886
        },
        {
          "name": "D2",
          "midi": 38,
          "time": 101.1865250000007,
          "velocity": 1,
          "duration": 0.12288145833333886
        },
        {
          "name": "C2",
          "midi": 36,
          "time": 101.4407625000007,
          "velocity": 1,
          "duration": 0.12288145833333886
        },
        {
          "name": "C2",
          "midi": 36,
          "time": 101.6950000000007,
          "velocity": 1,
          "duration": 0.12288145833333886
        },
        {
          "name": "C2",
          "midi": 36,
          "time": 102.07635625000071,
          "velocity": 1,
          "duration": 0.12288145833333886
        },
        {
          "name": "D2",
          "midi": 38,
          "time": 102.20347500000072,
          "velocity": 1,
          "duration": 0.12288145833333886
        },
        {
          "name": "C2",
          "midi": 36,
          "time": 102.45771250000072,
          "velocity": 1,
          "duration": 0.12288145833333886
        },
        {
          "name": "C2",
          "midi": 36,
          "time": 102.71195000000073,
          "velocity": 1,
          "duration": 0.12288145833333886
        },
        {
          "name": "C2",
          "midi": 36,
          "time": 103.09330625000074,
          "velocity": 1,
          "duration": 0.12288145833333886
        },
        {
          "name": "D2",
          "midi": 38,
          "time": 103.22042500000074,
          "velocity": 1,
          "duration": 0.12288145833333886
        },
        {
          "name": "C2",
          "midi": 36,
          "time": 103.47466250000075,
          "velocity": 1,
          "duration": 0.12288145833333886
        },
        {
          "name": "C2",
          "midi": 36,
          "time": 103.72890000000075,
          "velocity": 1,
          "duration": 0.12288145833333886
        },
        {
          "name": "C2",
          "midi": 36,
          "time": 104.11025625000076,
          "velocity": 1,
          "duration": 0.12288145833333886
        },
        {
          "name": "D2",
          "midi": 38,
          "time": 104.23737500000077,
          "velocity": 1,
          "duration": 0.12288145833333886
        },
        {
          "name": "C2",
          "midi": 36,
          "time": 104.49161250000077,
          "velocity": 1,
          "duration": 0.12288145833333886
        },
        {
          "name": "C2",
          "midi": 36,
          "time": 104.74585000000077,
          "velocity": 1,
          "duration": 0.12288145833333886
        },
        {
          "name": "C2",
          "midi": 36,
          "time": 105.12720625000078,
          "velocity": 1,
          "duration": 0.12288145833333886
        },
        {
          "name": "D2",
          "midi": 38,
          "time": 105.25432500000079,
          "velocity": 1,
          "duration": 0.12288145833333886
        },
        {
          "name": "C2",
          "midi": 36,
          "time": 105.50856250000079,
          "velocity": 1,
          "duration": 0.12288145833333886
        },
        {
          "name": "C2",
          "midi": 36,
          "time": 105.7628000000008,
          "velocity": 1,
          "duration": 0.12288145833333886
        },
        {
          "name": "C2",
          "midi": 36,
          "time": 106.1441562500008,
          "velocity": 1,
          "duration": 0.12288145833333886
        },
        {
          "name": "D2",
          "midi": 38,
          "time": 106.27127500000081,
          "velocity": 1,
          "duration": 0.12288145833333886
        },
        {
          "name": "C2",
          "midi": 36,
          "time": 106.52551250000081,
          "velocity": 1,
          "duration": 0.12288145833333886
        },
        {
          "name": "C2",
          "midi": 36,
          "time": 106.77975000000082,
          "velocity": 1,
          "duration": 0.12288145833333886
        },
        {
          "name": "C2",
          "midi": 36,
          "time": 107.16110625000083,
          "velocity": 1,
          "duration": 0.12288145833333886
        },
        {
          "name": "D2",
          "midi": 38,
          "time": 107.28822500000084,
          "velocity": 1,
          "duration": 0.12288145833333886
        },
        {
          "name": "C2",
          "midi": 36,
          "time": 107.54246250000084,
          "velocity": 1,
          "duration": 0.12288145833333886
        },
        {
          "name": "C2",
          "midi": 36,
          "time": 107.79670000000084,
          "velocity": 1,
          "duration": 0.12288145833333886
        },
        {
          "name": "C2",
          "midi": 36,
          "time": 108.17805625000085,
          "velocity": 1,
          "duration": 0.12288145833333886
        },
        {
          "name": "D2",
          "midi": 38,
          "time": 108.30517500000086,
          "velocity": 1,
          "duration": 0.12288145833333886
        },
        {
          "name": "C2",
          "midi": 36,
          "time": 108.55941250000086,
          "velocity": 1,
          "duration": 0.12288145833333886
        },
        {
          "name": "C2",
          "midi": 36,
          "time": 108.81365000000086,
          "velocity": 1,
          "duration": 0.12288145833333886
        },
        {
          "name": "C2",
          "midi": 36,
          "time": 109.19500625000087,
          "velocity": 1,
          "duration": 0.12288145833333886
        },
        {
          "name": "D2",
          "midi": 38,
          "time": 109.32212500000088,
          "velocity": 1,
          "duration": 0.12288145833333886
        },
        {
          "name": "C2",
          "midi": 36,
          "time": 109.57636250000088,
          "velocity": 1,
          "duration": 0.12288145833333886
        },
        {
          "name": "C2",
          "midi": 36,
          "time": 109.83060000000089,
          "velocity": 1,
          "duration": 0.12288145833333886
        },
        {
          "name": "C2",
          "midi": 36,
          "time": 110.2119562500009,
          "velocity": 1,
          "duration": 0.12288145833333886
        },
        {
          "name": "D2",
          "midi": 38,
          "time": 110.3390750000009,
          "velocity": 1,
          "duration": 0.12288145833333886
        },
        {
          "name": "C2",
          "midi": 36,
          "time": 110.5933125000009,
          "velocity": 1,
          "duration": 0.12288145833333886
        },
        {
          "name": "C2",
          "midi": 36,
          "time": 110.84755000000091,
          "velocity": 1,
          "duration": 0.12288145833333886
        },
        {
          "name": "C2",
          "midi": 36,
          "time": 111.22890625000092,
          "velocity": 1,
          "duration": 0.12288145833333886
        },
        {
          "name": "D2",
          "midi": 38,
          "time": 111.35602500000093,
          "velocity": 1,
          "duration": 0.12288145833333886
        },
        {
          "name": "C2",
          "midi": 36,
          "time": 111.61026250000093,
          "velocity": 1,
          "duration": 0.12288145833333886
        },
        {
          "name": "C2",
          "midi": 36,
          "time": 111.89839833333427,
          "velocity": 1,
          "duration": 0.12288145833333886
        },
        {
          "name": "C2",
          "midi": 36,
          "time": 112.24585625000094,
          "velocity": 1,
          "duration": 0.12288145833333886
        },
        {
          "name": "D2",
          "midi": 38,
          "time": 112.37297500000095,
          "velocity": 1,
          "duration": 0.12288145833333886
        },
        {
          "name": "C2",
          "midi": 36,
          "time": 112.62721250000095,
          "velocity": 1,
          "duration": 0.12288145833333886
        },
        {
          "name": "C2",
          "midi": 36,
          "time": 112.88145000000095,
          "velocity": 1,
          "duration": 0.12288145833333886
        },
        {
          "name": "C2",
          "midi": 36,
          "time": 113.26280625000096,
          "velocity": 1,
          "duration": 0.12288145833333886
        },
        {
          "name": "D2",
          "midi": 38,
          "time": 113.38992500000097,
          "velocity": 1,
          "duration": 0.12288145833333886
        },
        {
          "name": "D2",
          "midi": 38,
          "time": 113.64416250000097,
          "velocity": 1,
          "duration": 0.12288145833333886
        },
        {
          "name": "C2",
          "midi": 36,
          "time": 113.89840000000098,
          "velocity": 1,
          "duration": 0.19067812500000514
        },
        {
          "name": "D2",
          "midi": 38,
          "time": 114.15263750000098,
          "velocity": 1,
          "duration": 0.10593229166666163
        },
        {
          "name": "D2",
          "midi": 38,
          "time": 114.40687500000097,
          "velocity": 1,
          "duration": 0.13983062500000187
        },
        {
          "name": "C2",
          "midi": 36,
          "time": 114.66111250000097,
          "velocity": 1,
          "duration": 0.14830520833332628
        },
        {
          "name": "D2",
          "midi": 38,
          "time": 114.91535000000096,
          "velocity": 1,
          "duration": 0.0847458333333293
        },
        {
          "name": "D2",
          "midi": 38,
          "time": 115.16958750000096,
          "velocity": 1,
          "duration": 0.22033916666666187
        },
        {
          "name": "C2",
          "midi": 36,
          "time": 115.42382500000096,
          "velocity": 1,
          "duration": 0.13135604166666326
        },
        {
          "name": "D2",
          "midi": 38,
          "time": 115.67806250000096,
          "velocity": 1,
          "duration": 0.5042377083333349
        },
        {
          "name": "G2",
          "midi": 43,
          "time": 117.39416562500097,
          "velocity": 1,
          "duration": 0.13983062500000187
        },
        {
          "name": "D2",
          "midi": 38,
          "time": 117.45772500000096,
          "velocity": 1,
          "duration": 0.3093222916666747
        },
        {
          "name": "C2",
          "midi": 36,
          "time": 117.96620000000097,
          "velocity": 1,
          "duration": 0.12288145833333886
        },
        {
          "name": "C2",
          "midi": 36,
          "time": 118.34755625000098,
          "velocity": 1,
          "duration": 0.12288145833333886
        },
        {
          "name": "D2",
          "midi": 38,
          "time": 118.47467500000099,
          "velocity": 1,
          "duration": 0.12288145833333886
        },
        {
          "name": "C2",
          "midi": 36,
          "time": 118.72891250000099,
          "velocity": 1,
          "duration": 0.12288145833333886
        },
        {
          "name": "C2",
          "midi": 36,
          "time": 118.98315000000099,
          "velocity": 1,
          "duration": 0.12288145833333886
        },
        {
          "name": "C2",
          "midi": 36,
          "time": 119.364506250001,
          "velocity": 1,
          "duration": 0.12288145833333886
        },
        {
          "name": "D2",
          "midi": 38,
          "time": 119.49162500000101,
          "velocity": 1,
          "duration": 0.12288145833333886
        },
        {
          "name": "C2",
          "midi": 36,
          "time": 119.74586250000101,
          "velocity": 1,
          "duration": 0.12288145833333886
        },
        {
          "name": "C2",
          "midi": 36,
          "time": 120.00010000000101,
          "velocity": 1,
          "duration": 0.12288145833333886
        },
        {
          "name": "C2",
          "midi": 36,
          "time": 120.38145625000102,
          "velocity": 1,
          "duration": 0.12288145833333886
        },
        {
          "name": "D2",
          "midi": 38,
          "time": 120.50857500000103,
          "velocity": 1,
          "duration": 0.12288145833333886
        },
        {
          "name": "C2",
          "midi": 36,
          "time": 120.76281250000103,
          "velocity": 1,
          "duration": 0.12288145833333886
        },
        {
          "name": "C2",
          "midi": 36,
          "time": 121.01705000000103,
          "velocity": 1,
          "duration": 0.12288145833333886
        },
        {
          "name": "C2",
          "midi": 36,
          "time": 121.39840625000105,
          "velocity": 1,
          "duration": 0.12288145833333886
        },
        {
          "name": "D2",
          "midi": 38,
          "time": 121.52552500000105,
          "velocity": 1,
          "duration": 0.12288145833333886
        },
        {
          "name": "C2",
          "midi": 36,
          "time": 121.77976250000106,
          "velocity": 1,
          "duration": 0.12288145833333886
        },
        {
          "name": "C2",
          "midi": 36,
          "time": 122.03400000000106,
          "velocity": 1,
          "duration": 0.12288145833333886
        },
        {
          "name": "C2",
          "midi": 36,
          "time": 122.41535625000107,
          "velocity": 1,
          "duration": 0.12288145833333886
        },
        {
          "name": "D2",
          "midi": 38,
          "time": 122.54247500000108,
          "velocity": 1,
          "duration": 0.12288145833333886
        },
        {
          "name": "C2",
          "midi": 36,
          "time": 122.79671250000108,
          "velocity": 1,
          "duration": 0.12288145833333886
        },
        {
          "name": "C2",
          "midi": 36,
          "time": 123.05095000000108,
          "velocity": 1,
          "duration": 0.12288145833333886
        },
        {
          "name": "C2",
          "midi": 36,
          "time": 123.43230625000109,
          "velocity": 1,
          "duration": 0.12288145833333886
        },
        {
          "name": "D2",
          "midi": 38,
          "time": 123.5594250000011,
          "velocity": 1,
          "duration": 0.12288145833333886
        },
        {
          "name": "C2",
          "midi": 36,
          "time": 123.8136625000011,
          "velocity": 1,
          "duration": 0.12288145833333886
        },
        {
          "name": "C2",
          "midi": 36,
          "time": 124.0679000000011,
          "velocity": 1,
          "duration": 0.12288145833333886
        },
        {
          "name": "C2",
          "midi": 36,
          "time": 124.44925625000111,
          "velocity": 1,
          "duration": 0.12288145833333886
        },
        {
          "name": "D2",
          "midi": 38,
          "time": 124.57637500000112,
          "velocity": 1,
          "duration": 0.12288145833333886
        },
        {
          "name": "C2",
          "midi": 36,
          "time": 124.83061250000112,
          "velocity": 1,
          "duration": 0.12288145833333886
        },
        {
          "name": "C2",
          "midi": 36,
          "time": 125.08485000000113,
          "velocity": 1,
          "duration": 0.12288145833333886
        },
        {
          "name": "C2",
          "midi": 36,
          "time": 125.46620625000114,
          "velocity": 1,
          "duration": 0.12288145833333886
        },
        {
          "name": "D2",
          "midi": 38,
          "time": 125.59332500000114,
          "velocity": 1,
          "duration": 0.12288145833333886
        },
        {
          "name": "C2",
          "midi": 36,
          "time": 125.84756250000115,
          "velocity": 1,
          "duration": 0.12288145833333886
        },
        {
          "name": "C2",
          "midi": 36,
          "time": 126.10180000000115,
          "velocity": 1,
          "duration": 0.12288145833333886
        },
        {
          "name": "C2",
          "midi": 36,
          "time": 126.48315625000116,
          "velocity": 1,
          "duration": 0.12288145833333886
        },
        {
          "name": "D2",
          "midi": 38,
          "time": 126.61027500000117,
          "velocity": 1,
          "duration": 0.12288145833333886
        },
        {
          "name": "C2",
          "midi": 36,
          "time": 126.86451250000117,
          "velocity": 1,
          "duration": 0.12288145833333886
        },
        {
          "name": "C2",
          "midi": 36,
          "time": 127.11875000000117,
          "velocity": 1,
          "duration": 0.12288145833333886
        },
        {
          "name": "C2",
          "midi": 36,
          "time": 127.50010625000118,
          "velocity": 1,
          "duration": 0.12288145833333886
        },
        {
          "name": "D2",
          "midi": 38,
          "time": 127.62722500000119,
          "velocity": 1,
          "duration": 0.12288145833333886
        },
        {
          "name": "C2",
          "midi": 36,
          "time": 127.88146250000119,
          "velocity": 1,
          "duration": 0.12288145833332464
        },
        {
          "name": "C2",
          "midi": 36,
          "time": 128.13570000000118,
          "velocity": 1,
          "duration": 0.12288145833332464
        },
        {
          "name": "C2",
          "midi": 36,
          "time": 128.51705625000116,
          "velocity": 1,
          "duration": 0.12288145833332464
        },
        {
          "name": "D2",
          "midi": 38,
          "time": 128.64417500000116,
          "velocity": 1,
          "duration": 0.12288145833332464
        },
        {
          "name": "C2",
          "midi": 36,
          "time": 128.89841250000114,
          "velocity": 1,
          "duration": 0.12288145833332464
        },
        {
          "name": "C2",
          "midi": 36,
          "time": 129.15265000000113,
          "velocity": 1,
          "duration": 0.12288145833332464
        },
        {
          "name": "C2",
          "midi": 36,
          "time": 129.5340062500011,
          "velocity": 1,
          "duration": 0.12288145833332464
        },
        {
          "name": "D2",
          "midi": 38,
          "time": 129.6611250000011,
          "velocity": 1,
          "duration": 0.12288145833332464
        },
        {
          "name": "C2",
          "midi": 36,
          "time": 129.9153625000011,
          "velocity": 1,
          "duration": 0.12288145833332464
        },
        {
          "name": "C2",
          "midi": 36,
          "time": 130.16960000000108,
          "velocity": 1,
          "duration": 0.12288145833332464
        },
        {
          "name": "C2",
          "midi": 36,
          "time": 130.55095625000106,
          "velocity": 1,
          "duration": 0.12288145833332464
        },
        {
          "name": "D2",
          "midi": 38,
          "time": 130.67807500000106,
          "velocity": 1,
          "duration": 0.12288145833332464
        },
        {
          "name": "C2",
          "midi": 36,
          "time": 130.93231250000105,
          "velocity": 1,
          "duration": 0.12288145833332464
        },
        {
          "name": "C2",
          "midi": 36,
          "time": 131.18655000000103,
          "velocity": 1,
          "duration": 0.12288145833332464
        },
        {
          "name": "C2",
          "midi": 36,
          "time": 131.56790625000102,
          "velocity": 1,
          "duration": 0.12288145833332464
        },
        {
          "name": "D2",
          "midi": 38,
          "time": 131.695025000001,
          "velocity": 1,
          "duration": 0.12288145833332464
        },
        {
          "name": "C2",
          "midi": 36,
          "time": 131.949262500001,
          "velocity": 1,
          "duration": 0.12288145833332464
        },
        {
          "name": "C2",
          "midi": 36,
          "time": 132.203500000001,
          "velocity": 1,
          "duration": 0.12288145833332464
        },
        {
          "name": "C2",
          "midi": 36,
          "time": 132.58485625000097,
          "velocity": 1,
          "duration": 0.12288145833332464
        },
        {
          "name": "D2",
          "midi": 38,
          "time": 132.71197500000096,
          "velocity": 1,
          "duration": 0.12288145833332464
        },
        {
          "name": "C2",
          "midi": 36,
          "time": 132.96621250000095,
          "velocity": 1,
          "duration": 0.12288145833332464
        },
        {
          "name": "C2",
          "midi": 36,
          "time": 133.22045000000094,
          "velocity": 1,
          "duration": 0.12288145833332464
        },
        {
          "name": "C2",
          "midi": 36,
          "time": 133.60180625000092,
          "velocity": 1,
          "duration": 0.12288145833332464
        },
        {
          "name": "D2",
          "midi": 38,
          "time": 133.7289250000009,
          "velocity": 1,
          "duration": 0.12288145833332464
        },
        {
          "name": "C2",
          "midi": 36,
          "time": 133.9831625000009,
          "velocity": 1,
          "duration": 0.12288145833332464
        },
        {
          "name": "C2",
          "midi": 36,
          "time": 134.2374000000009,
          "velocity": 1,
          "duration": 0.12288145833332464
        },
        {
          "name": "C2",
          "midi": 36,
          "time": 134.61875625000087,
          "velocity": 1,
          "duration": 0.12288145833332464
        },
        {
          "name": "D2",
          "midi": 38,
          "time": 134.74587500000086,
          "velocity": 1,
          "duration": 0.12288145833332464
        },
        {
          "name": "C2",
          "midi": 36,
          "time": 135.00011250000085,
          "velocity": 1,
          "duration": 0.12288145833332464
        },
        {
          "name": "C2",
          "midi": 36,
          "time": 135.25435000000084,
          "velocity": 1,
          "duration": 0.12288145833332464
        },
        {
          "name": "C2",
          "midi": 36,
          "time": 135.63570625000082,
          "velocity": 1,
          "duration": 0.12288145833332464
        },
        {
          "name": "D2",
          "midi": 38,
          "time": 135.76282500000082,
          "velocity": 1,
          "duration": 0.12288145833332464
        },
        {
          "name": "C2",
          "midi": 36,
          "time": 136.0170625000008,
          "velocity": 1,
          "duration": 0.12288145833332464
        },
        {
          "name": "C2",
          "midi": 36,
          "time": 136.2713000000008,
          "velocity": 1,
          "duration": 0.12288145833332464
        },
        {
          "name": "C2",
          "midi": 36,
          "time": 136.65265625000077,
          "velocity": 1,
          "duration": 0.12288145833332464
        },
        {
          "name": "D2",
          "midi": 38,
          "time": 136.77977500000077,
          "velocity": 1,
          "duration": 0.12288145833332464
        },
        {
          "name": "C2",
          "midi": 36,
          "time": 137.03401250000076,
          "velocity": 1,
          "duration": 0.12288145833332464
        },
        {
          "name": "C2",
          "midi": 36,
          "time": 137.28825000000074,
          "velocity": 1,
          "duration": 0.12288145833332464
        },
        {
          "name": "C2",
          "midi": 36,
          "time": 137.66960625000073,
          "velocity": 1,
          "duration": 0.12288145833332464
        },
        {
          "name": "D2",
          "midi": 38,
          "time": 137.79672500000072,
          "velocity": 1,
          "duration": 0.12288145833332464
        },
        {
          "name": "C2",
          "midi": 36,
          "time": 138.0509625000007,
          "velocity": 1,
          "duration": 0.12288145833332464
        },
        {
          "name": "C2",
          "midi": 36,
          "time": 138.3052000000007,
          "velocity": 1,
          "duration": 0.12288145833332464
        },
        {
          "name": "C2",
          "midi": 36,
          "time": 138.68655625000068,
          "velocity": 1,
          "duration": 0.12288145833332464
        },
        {
          "name": "D2",
          "midi": 38,
          "time": 138.81367500000067,
          "velocity": 1,
          "duration": 0.12288145833332464
        },
        {
          "name": "C2",
          "midi": 36,
          "time": 139.06791250000066,
          "velocity": 1,
          "duration": 0.12288145833332464
        },
        {
          "name": "C2",
          "midi": 36,
          "time": 139.32215000000065,
          "velocity": 1,
          "duration": 0.12288145833332464
        },
        {
          "name": "C2",
          "midi": 36,
          "time": 139.70350625000063,
          "velocity": 1,
          "duration": 0.12288145833332464
        },
        {
          "name": "D2",
          "midi": 38,
          "time": 139.83062500000062,
          "velocity": 1,
          "duration": 0.12288145833332464
        },
        {
          "name": "C2",
          "midi": 36,
          "time": 140.0848625000006,
          "velocity": 1,
          "duration": 0.12288145833332464
        },
        {
          "name": "C2",
          "midi": 36,
          "time": 140.3391000000006,
          "velocity": 1,
          "duration": 0.12288145833332464
        },
        {
          "name": "C2",
          "midi": 36,
          "time": 140.72045625000058,
          "velocity": 1,
          "duration": 0.12288145833332464
        },
        {
          "name": "D2",
          "midi": 38,
          "time": 140.84757500000057,
          "velocity": 1,
          "duration": 0.12288145833332464
        },
        {
          "name": "C2",
          "midi": 36,
          "time": 141.10181250000056,
          "velocity": 1,
          "duration": 0.12288145833332464
        },
        {
          "name": "C2",
          "midi": 36,
          "time": 141.35605000000055,
          "velocity": 1,
          "duration": 0.12288145833332464
        },
        {
          "name": "C2",
          "midi": 36,
          "time": 141.73740625000053,
          "velocity": 1,
          "duration": 0.12288145833332464
        },
        {
          "name": "D2",
          "midi": 38,
          "time": 141.86452500000053,
          "velocity": 1,
          "duration": 0.12288145833332464
        },
        {
          "name": "C2",
          "midi": 36,
          "time": 142.1187625000005,
          "velocity": 1,
          "duration": 0.12288145833332464
        },
        {
          "name": "C2",
          "midi": 36,
          "time": 142.3730000000005,
          "velocity": 1,
          "duration": 0.12288145833332464
        },
        {
          "name": "C2",
          "midi": 36,
          "time": 142.75435625000048,
          "velocity": 1,
          "duration": 0.12288145833332464
        },
        {
          "name": "D2",
          "midi": 38,
          "time": 142.88147500000048,
          "velocity": 1,
          "duration": 0.12288145833332464
        },
        {
          "name": "C2",
          "midi": 36,
          "time": 143.13571250000047,
          "velocity": 1,
          "duration": 0.12288145833332464
        },
        {
          "name": "C2",
          "midi": 36,
          "time": 143.38995000000045,
          "velocity": 1,
          "duration": 0.12288145833332464
        },
        {
          "name": "C2",
          "midi": 36,
          "time": 143.77130625000044,
          "velocity": 1,
          "duration": 0.12288145833332464
        },
        {
          "name": "D2",
          "midi": 38,
          "time": 143.89842500000043,
          "velocity": 1,
          "duration": 0.12288145833332464
        },
        {
          "name": "C2",
          "midi": 36,
          "time": 144.15266250000042,
          "velocity": 1,
          "duration": 0.12288145833332464
        },
        {
          "name": "C2",
          "midi": 36,
          "time": 144.4069000000004,
          "velocity": 1,
          "duration": 0.12288145833332464
        },
        {
          "name": "C2",
          "midi": 36,
          "time": 144.7882562500004,
          "velocity": 1,
          "duration": 0.12288145833332464
        },
        {
          "name": "D2",
          "midi": 38,
          "time": 144.91537500000038,
          "velocity": 1,
          "duration": 0.12288145833332464
        },
        {
          "name": "C2",
          "midi": 36,
          "time": 145.16961250000037,
          "velocity": 1,
          "duration": 0.12288145833332464
        },
        {
          "name": "C2",
          "midi": 36,
          "time": 145.42385000000036,
          "velocity": 1,
          "duration": 0.12288145833332464
        },
        {
          "name": "C2",
          "midi": 36,
          "time": 145.80520625000034,
          "velocity": 1,
          "duration": 0.12288145833332464
        },
        {
          "name": "D2",
          "midi": 38,
          "time": 145.93232500000033,
          "velocity": 1,
          "duration": 0.12288145833332464
        },
        {
          "name": "C2",
          "midi": 36,
          "time": 146.18656250000032,
          "velocity": 1,
          "duration": 0.12288145833332464
        },
        {
          "name": "C2",
          "midi": 36,
          "time": 146.4408000000003,
          "velocity": 1,
          "duration": 0.12288145833332464
        },
        {
          "name": "C2",
          "midi": 36,
          "time": 146.8221562500003,
          "velocity": 1,
          "duration": 0.12288145833332464
        },
        {
          "name": "D2",
          "midi": 38,
          "time": 146.94927500000028,
          "velocity": 1,
          "duration": 0.12288145833332464
        },
        {
          "name": "C2",
          "midi": 36,
          "time": 147.20351250000027,
          "velocity": 1,
          "duration": 0.12288145833332464
        },
        {
          "name": "C2",
          "midi": 36,
          "time": 147.45775000000026,
          "velocity": 1,
          "duration": 0.12288145833332464
        },
        {
          "name": "C2",
          "midi": 36,
          "time": 147.83910625000024,
          "velocity": 1,
          "duration": 0.12288145833332464
        },
        {
          "name": "D2",
          "midi": 38,
          "time": 147.96622500000024,
          "velocity": 1,
          "duration": 0.12288145833332464
        },
        {
          "name": "C2",
          "midi": 36,
          "time": 148.22046250000022,
          "velocity": 1,
          "duration": 0.12288145833332464
        },
        {
          "name": "C2",
          "midi": 36,
          "time": 148.4747000000002,
          "velocity": 1,
          "duration": 0.12288145833332464
        },
        {
          "name": "C2",
          "midi": 36,
          "time": 148.8560562500002,
          "velocity": 1,
          "duration": 0.12288145833332464
        },
        {
          "name": "D2",
          "midi": 38,
          "time": 148.9831750000002,
          "velocity": 1,
          "duration": 0.12288145833332464
        },
        {
          "name": "C2",
          "midi": 36,
          "time": 149.23741250000018,
          "velocity": 1,
          "duration": 0.12288145833332464
        },
        {
          "name": "C2",
          "midi": 36,
          "time": 149.49165000000016,
          "velocity": 1,
          "duration": 0.12288145833332464
        },
        {
          "name": "C2",
          "midi": 36,
          "time": 149.87300625000015,
          "velocity": 1,
          "duration": 0.12288145833332464
        },
        {
          "name": "D2",
          "midi": 38,
          "time": 150.00012500000014,
          "velocity": 1,
          "duration": 0.12288145833332464
        },
        {
          "name": "C2",
          "midi": 36,
          "time": 150.25436250000013,
          "velocity": 1,
          "duration": 0.12288145833332464
        },
        {
          "name": "C2",
          "midi": 36,
          "time": 150.50860000000011,
          "velocity": 1,
          "duration": 0.12288145833332464
        },
        {
          "name": "C2",
          "midi": 36,
          "time": 150.8899562500001,
          "velocity": 1,
          "duration": 0.12288145833332464
        },
        {
          "name": "D2",
          "midi": 38,
          "time": 151.0170750000001,
          "velocity": 1,
          "duration": 0.12288145833332464
        },
        {
          "name": "C2",
          "midi": 36,
          "time": 151.27131250000008,
          "velocity": 1,
          "duration": 0.12288145833332464
        },
        {
          "name": "C2",
          "midi": 36,
          "time": 151.52555000000007,
          "velocity": 1,
          "duration": 0.12288145833332464
        },
        {
          "name": "C2",
          "midi": 36,
          "time": 151.90690625000005,
          "velocity": 1,
          "duration": 0.12288145833332464
        },
        {
          "name": "D2",
          "midi": 38,
          "time": 152.03402500000004,
          "velocity": 1,
          "duration": 0.12288145833332464
        },
        {
          "name": "C2",
          "midi": 36,
          "time": 152.28826250000003,
          "velocity": 1,
          "duration": 0.12288145833332464
        },
        {
          "name": "C2",
          "midi": 36,
          "time": 152.54250000000002,
          "velocity": 1,
          "duration": 0.12288145833332464
        },
        {
          "name": "C2",
          "midi": 36,
          "time": 152.92385625,
          "velocity": 1,
          "duration": 0.12288145833332464
        },
        {
          "name": "D2",
          "midi": 38,
          "time": 153.050975,
          "velocity": 1,
          "duration": 0.12288145833332464
        },
        {
          "name": "C2",
          "midi": 36,
          "time": 153.30521249999998,
          "velocity": 1,
          "duration": 0.12288145833332464
        },
        {
          "name": "C2",
          "midi": 36,
          "time": 153.55944999999997,
          "velocity": 1,
          "duration": 0.12288145833332464
        },
        {
          "name": "C2",
          "midi": 36,
          "time": 153.94080624999995,
          "velocity": 1,
          "duration": 0.12288145833332464
        },
        {
          "name": "D2",
          "midi": 38,
          "time": 154.06792499999995,
          "velocity": 1,
          "duration": 0.12288145833332464
        },
        {
          "name": "C2",
          "midi": 36,
          "time": 154.32216249999993,
          "velocity": 1,
          "duration": 0.12288145833332464
        },
        {
          "name": "C2",
          "midi": 36,
          "time": 154.57639999999992,
          "velocity": 1,
          "duration": 0.12288145833332464
        },
        {
          "name": "C2",
          "midi": 36,
          "time": 154.9577562499999,
          "velocity": 1,
          "duration": 0.12288145833332464
        },
        {
          "name": "D2",
          "midi": 38,
          "time": 155.0848749999999,
          "velocity": 1,
          "duration": 0.12288145833332464
        },
        {
          "name": "C2",
          "midi": 36,
          "time": 155.33911249999989,
          "velocity": 1,
          "duration": 0.12288145833332464
        },
        {
          "name": "C2",
          "midi": 36,
          "time": 155.59334999999987,
          "velocity": 1,
          "duration": 0.12288145833332464
        },
        {
          "name": "C2",
          "midi": 36,
          "time": 155.97470624999985,
          "velocity": 1,
          "duration": 0.12288145833332464
        },
        {
          "name": "D2",
          "midi": 38,
          "time": 156.10182499999985,
          "velocity": 1,
          "duration": 0.12288145833332464
        },
        {
          "name": "C2",
          "midi": 36,
          "time": 156.35606249999984,
          "velocity": 1,
          "duration": 0.12288145833332464
        },
        {
          "name": "C2",
          "midi": 36,
          "time": 156.61029999999982,
          "velocity": 1,
          "duration": 0.12288145833332464
        },
        {
          "name": "C2",
          "midi": 36,
          "time": 156.9916562499998,
          "velocity": 1,
          "duration": 0.12288145833332464
        },
        {
          "name": "D2",
          "midi": 38,
          "time": 157.1187749999998,
          "velocity": 1,
          "duration": 0.12288145833332464
        },
        {
          "name": "C2",
          "midi": 36,
          "time": 157.3730124999998,
          "velocity": 1,
          "duration": 0.12288145833332464
        },
        {
          "name": "C2",
          "midi": 36,
          "time": 157.62724999999978,
          "velocity": 1,
          "duration": 0.12288145833332464
        },
        {
          "name": "C2",
          "midi": 36,
          "time": 158.00860624999976,
          "velocity": 1,
          "duration": 0.12288145833332464
        },
        {
          "name": "D2",
          "midi": 38,
          "time": 158.13572499999975,
          "velocity": 1,
          "duration": 0.12288145833332464
        },
        {
          "name": "C2",
          "midi": 36,
          "time": 158.38996249999974,
          "velocity": 1,
          "duration": 0.12288145833332464
        },
        {
          "name": "C2",
          "midi": 36,
          "time": 158.64419999999973,
          "velocity": 1,
          "duration": 0.12288145833332464
        },
        {
          "name": "C2",
          "midi": 36,
          "time": 159.0255562499997,
          "velocity": 1,
          "duration": 0.12288145833332464
        },
        {
          "name": "D2",
          "midi": 38,
          "time": 159.1526749999997,
          "velocity": 1,
          "duration": 0.12288145833332464
        },
        {
          "name": "C2",
          "midi": 36,
          "time": 159.4069124999997,
          "velocity": 1,
          "duration": 0.12288145833332464
        },
        {
          "name": "C2",
          "midi": 36,
          "time": 159.66114999999968,
          "velocity": 1,
          "duration": 0.12288145833332464
        },
        {
          "name": "C2",
          "midi": 36,
          "time": 160.04250624999966,
          "velocity": 1,
          "duration": 0.12288145833332464
        },
        {
          "name": "D2",
          "midi": 38,
          "time": 160.16962499999966,
          "velocity": 1,
          "duration": 0.12288145833332464
        },
        {
          "name": "C2",
          "midi": 36,
          "time": 160.42386249999964,
          "velocity": 1,
          "duration": 0.12288145833332464
        },
        {
          "name": "C2",
          "midi": 36,
          "time": 160.71199833333296,
          "velocity": 1,
          "duration": 0.12288145833332464
        },
        {
          "name": "C2",
          "midi": 36,
          "time": 161.0594562499996,
          "velocity": 1,
          "duration": 0.12288145833332464
        },
        {
          "name": "D2",
          "midi": 38,
          "time": 161.1865749999996,
          "velocity": 1,
          "duration": 0.12288145833332464
        },
        {
          "name": "C2",
          "midi": 36,
          "time": 161.4408124999996,
          "velocity": 1,
          "duration": 0.12288145833332464
        },
        {
          "name": "C2",
          "midi": 36,
          "time": 161.69504999999958,
          "velocity": 1,
          "duration": 0.12288145833332464
        },
        {
          "name": "C2",
          "midi": 36,
          "time": 162.07640624999956,
          "velocity": 1,
          "duration": 0.12288145833332464
        },
        {
          "name": "D2",
          "midi": 38,
          "time": 162.20352499999956,
          "velocity": 1,
          "duration": 0.12288145833332464
        },
        {
          "name": "D2",
          "midi": 38,
          "time": 162.45776249999955,
          "velocity": 1,
          "duration": 0.12288145833332464
        },
        {
          "name": "C2",
          "midi": 36,
          "time": 162.71199999999953,
          "velocity": 1,
          "duration": 0.19067812500000514
        },
        {
          "name": "D2",
          "midi": 38,
          "time": 162.96623749999955,
          "velocity": 1,
          "duration": 0.10593229166667584
        },
        {
          "name": "D2",
          "midi": 38,
          "time": 163.22047499999957,
          "velocity": 1,
          "duration": 0.13983062500000187
        },
        {
          "name": "C2",
          "midi": 36,
          "time": 163.47471249999955,
          "velocity": 1,
          "duration": 0.1483052083333405
        },
        {
          "name": "D2",
          "midi": 38,
          "time": 163.72894999999957,
          "velocity": 1,
          "duration": 0.0847458333333293
        },
        {
          "name": "D2",
          "midi": 38,
          "time": 163.98318749999956,
          "velocity": 1,
          "duration": 0.22033916666666187
        },
        {
          "name": "C2",
          "midi": 36,
          "time": 164.23742499999955,
          "velocity": 1,
          "duration": 0.13135604166666326
        },
        {
          "name": "D2",
          "midi": 38,
          "time": 164.49166249999953,
          "velocity": 1,
          "duration": 0.5042377083333349
        },
        {
          "name": "G2",
          "midi": 43,
          "time": 166.20776562499952,
          "velocity": 1,
          "duration": 0.13983062500000187
        },
        {
          "name": "D2",
          "midi": 38,
          "time": 166.27132499999954,
          "velocity": 1,
          "duration": 0.3093222916666605
        },
        {
          "name": "C2",
          "midi": 36,
          "time": 166.77979999999954,
          "velocity": 1,
          "duration": 0.12288145833332464
        },
        {
          "name": "C2",
          "midi": 36,
          "time": 167.16115624999952,
          "velocity": 1,
          "duration": 0.12288145833332464
        },
        {
          "name": "D2",
          "midi": 38,
          "time": 167.28827499999952,
          "velocity": 1,
          "duration": 0.12288145833332464
        },
        {
          "name": "C2",
          "midi": 36,
          "time": 167.5425124999995,
          "velocity": 1,
          "duration": 0.12288145833332464
        },
        {
          "name": "C2",
          "midi": 36,
          "time": 167.7967499999995,
          "velocity": 1,
          "duration": 0.12288145833332464
        },
        {
          "name": "C2",
          "midi": 36,
          "time": 168.17810624999947,
          "velocity": 1,
          "duration": 0.12288145833332464
        },
        {
          "name": "D2",
          "midi": 38,
          "time": 168.30522499999947,
          "velocity": 1,
          "duration": 0.12288145833332464
        },
        {
          "name": "C2",
          "midi": 36,
          "time": 168.55946249999946,
          "velocity": 1,
          "duration": 0.12288145833332464
        },
        {
          "name": "C2",
          "midi": 36,
          "time": 168.81369999999944,
          "velocity": 1,
          "duration": 0.12288145833332464
        },
        {
          "name": "C2",
          "midi": 36,
          "time": 169.19505624999942,
          "velocity": 1,
          "duration": 0.12288145833332464
        },
        {
          "name": "D2",
          "midi": 38,
          "time": 169.32217499999942,
          "velocity": 1,
          "duration": 0.12288145833332464
        },
        {
          "name": "C2",
          "midi": 36,
          "time": 169.5764124999994,
          "velocity": 1,
          "duration": 0.12288145833332464
        },
        {
          "name": "C2",
          "midi": 36,
          "time": 169.8306499999994,
          "velocity": 1,
          "duration": 0.12288145833332464
        },
        {
          "name": "C2",
          "midi": 36,
          "time": 170.21200624999938,
          "velocity": 1,
          "duration": 0.12288145833332464
        },
        {
          "name": "D2",
          "midi": 38,
          "time": 170.33912499999937,
          "velocity": 1,
          "duration": 0.12288145833332464
        },
        {
          "name": "C2",
          "midi": 36,
          "time": 170.59336249999936,
          "velocity": 1,
          "duration": 0.12288145833332464
        },
        {
          "name": "C2",
          "midi": 36,
          "time": 170.84759999999935,
          "velocity": 1,
          "duration": 0.12288145833332464
        },
        {
          "name": "C2",
          "midi": 36,
          "time": 171.22895624999933,
          "velocity": 1,
          "duration": 0.12288145833332464
        },
        {
          "name": "D2",
          "midi": 38,
          "time": 171.35607499999932,
          "velocity": 1,
          "duration": 0.12288145833332464
        },
        {
          "name": "C2",
          "midi": 36,
          "time": 171.6103124999993,
          "velocity": 1,
          "duration": 0.12288145833332464
        },
        {
          "name": "C2",
          "midi": 36,
          "time": 171.8645499999993,
          "velocity": 1,
          "duration": 0.12288145833332464
        },
        {
          "name": "C2",
          "midi": 36,
          "time": 172.24590624999928,
          "velocity": 1,
          "duration": 0.12288145833332464
        },
        {
          "name": "D2",
          "midi": 38,
          "time": 172.37302499999927,
          "velocity": 1,
          "duration": 0.12288145833332464
        },
        {
          "name": "C2",
          "midi": 36,
          "time": 172.62726249999926,
          "velocity": 1,
          "duration": 0.12288145833332464
        },
        {
          "name": "C2",
          "midi": 36,
          "time": 172.88149999999925,
          "velocity": 1,
          "duration": 0.12288145833332464
        },
        {
          "name": "C2",
          "midi": 36,
          "time": 173.26285624999923,
          "velocity": 1,
          "duration": 0.12288145833332464
        },
        {
          "name": "D2",
          "midi": 38,
          "time": 173.38997499999923,
          "velocity": 1,
          "duration": 0.12288145833332464
        },
        {
          "name": "C2",
          "midi": 36,
          "time": 173.6442124999992,
          "velocity": 1,
          "duration": 0.12288145833332464
        },
        {
          "name": "C2",
          "midi": 36,
          "time": 173.8984499999992,
          "velocity": 1,
          "duration": 0.12288145833332464
        },
        {
          "name": "C2",
          "midi": 36,
          "time": 174.27980624999918,
          "velocity": 1,
          "duration": 0.12288145833332464
        },
        {
          "name": "D2",
          "midi": 38,
          "time": 174.40692499999918,
          "velocity": 1,
          "duration": 0.12288145833332464
        },
        {
          "name": "C2",
          "midi": 36,
          "time": 174.66116249999916,
          "velocity": 1,
          "duration": 0.12288145833332464
        },
        {
          "name": "C2",
          "midi": 36,
          "time": 174.91539999999915,
          "velocity": 1,
          "duration": 0.12288145833332464
        },
        {
          "name": "C2",
          "midi": 36,
          "time": 175.29675624999913,
          "velocity": 1,
          "duration": 0.12288145833332464
        },
        {
          "name": "D2",
          "midi": 38,
          "time": 175.42387499999913,
          "velocity": 1,
          "duration": 0.12288145833332464
        },
        {
          "name": "C2",
          "midi": 36,
          "time": 175.67811249999912,
          "velocity": 1,
          "duration": 0.12288145833332464
        },
        {
          "name": "C2",
          "midi": 36,
          "time": 175.9323499999991,
          "velocity": 1,
          "duration": 0.12288145833332464
        },
        {
          "name": "C2",
          "midi": 36,
          "time": 176.3137062499991,
          "velocity": 1,
          "duration": 0.12288145833332464
        },
        {
          "name": "D2",
          "midi": 38,
          "time": 176.44082499999908,
          "velocity": 1,
          "duration": 0.12288145833332464
        },
        {
          "name": "C2",
          "midi": 36,
          "time": 176.69506249999907,
          "velocity": 1,
          "duration": 0.12288145833332464
        },
        {
          "name": "C2",
          "midi": 36,
          "time": 176.94929999999906,
          "velocity": 1,
          "duration": 0.12288145833332464
        },
        {
          "name": "C2",
          "midi": 36,
          "time": 177.33065624999904,
          "velocity": 1,
          "duration": 0.12288145833332464
        },
        {
          "name": "D2",
          "midi": 38,
          "time": 177.45777499999903,
          "velocity": 1,
          "duration": 0.12288145833332464
        },
        {
          "name": "C2",
          "midi": 36,
          "time": 177.71201249999902,
          "velocity": 1,
          "duration": 0.12288145833332464
        },
        {
          "name": "C2",
          "midi": 36,
          "time": 177.966249999999,
          "velocity": 1,
          "duration": 0.12288145833332464
        },
        {
          "name": "C2",
          "midi": 36,
          "time": 178.347606249999,
          "velocity": 1,
          "duration": 0.12288145833332464
        },
        {
          "name": "D2",
          "midi": 38,
          "time": 178.47472499999898,
          "velocity": 1,
          "duration": 0.12288145833332464
        },
        {
          "name": "C2",
          "midi": 36,
          "time": 178.72896249999897,
          "velocity": 1,
          "duration": 0.12288145833332464
        },
        {
          "name": "C2",
          "midi": 36,
          "time": 178.98319999999896,
          "velocity": 1,
          "duration": 0.12288145833332464
        },
        {
          "name": "C2",
          "midi": 36,
          "time": 179.36455624999894,
          "velocity": 1,
          "duration": 0.12288145833332464
        },
        {
          "name": "D2",
          "midi": 38,
          "time": 179.49167499999893,
          "velocity": 1,
          "duration": 0.12288145833332464
        },
        {
          "name": "C2",
          "midi": 36,
          "time": 179.74591249999892,
          "velocity": 1,
          "duration": 0.12288145833332464
        },
        {
          "name": "C2",
          "midi": 36,
          "time": 180.0001499999989,
          "velocity": 1,
          "duration": 0.12288145833332464
        },
        {
          "name": "C2",
          "midi": 36,
          "time": 180.3815062499989,
          "velocity": 1,
          "duration": 0.12288145833332464
        },
        {
          "name": "D2",
          "midi": 38,
          "time": 180.5086249999989,
          "velocity": 1,
          "duration": 0.12288145833332464
        },
        {
          "name": "C2",
          "midi": 36,
          "time": 180.76286249999887,
          "velocity": 1,
          "duration": 0.12288145833332464
        },
        {
          "name": "C2",
          "midi": 36,
          "time": 181.01709999999886,
          "velocity": 1,
          "duration": 0.12288145833332464
        },
        {
          "name": "C2",
          "midi": 36,
          "time": 181.39845624999884,
          "velocity": 1,
          "duration": 0.12288145833332464
        },
        {
          "name": "D2",
          "midi": 38,
          "time": 181.52557499999884,
          "velocity": 1,
          "duration": 0.12288145833332464
        },
        {
          "name": "C2",
          "midi": 36,
          "time": 181.77981249999883,
          "velocity": 1,
          "duration": 0.12288145833332464
        },
        {
          "name": "C2",
          "midi": 36,
          "time": 182.0340499999988,
          "velocity": 1,
          "duration": 0.12288145833332464
        },
        {
          "name": "C2",
          "midi": 36,
          "time": 182.4154062499988,
          "velocity": 1,
          "duration": 0.12288145833332464
        },
        {
          "name": "D2",
          "midi": 38,
          "time": 182.5425249999988,
          "velocity": 1,
          "duration": 0.12288145833332464
        },
        {
          "name": "C2",
          "midi": 36,
          "time": 182.79676249999878,
          "velocity": 1,
          "duration": 0.12288145833332464
        },
        {
          "name": "C2",
          "midi": 36,
          "time": 183.05099999999877,
          "velocity": 1,
          "duration": 0.12288145833332464
        },
        {
          "name": "C2",
          "midi": 36,
          "time": 183.43235624999875,
          "velocity": 1,
          "duration": 0.12288145833332464
        },
        {
          "name": "D2",
          "midi": 38,
          "time": 183.55947499999874,
          "velocity": 1,
          "duration": 0.12288145833332464
        },
        {
          "name": "C2",
          "midi": 36,
          "time": 183.81371249999873,
          "velocity": 1,
          "duration": 0.12288145833332464
        },
        {
          "name": "C2",
          "midi": 36,
          "time": 184.06794999999872,
          "velocity": 1,
          "duration": 0.12288145833332464
        },
        {
          "name": "C2",
          "midi": 36,
          "time": 184.4493062499987,
          "velocity": 1,
          "duration": 0.12288145833332464
        },
        {
          "name": "D2",
          "midi": 38,
          "time": 184.5764249999987,
          "velocity": 1,
          "duration": 0.12288145833332464
        },
        {
          "name": "C2",
          "midi": 36,
          "time": 184.83066249999868,
          "velocity": 1,
          "duration": 0.12288145833332464
        },
        {
          "name": "C2",
          "midi": 36,
          "time": 185.08489999999867,
          "velocity": 1,
          "duration": 0.12288145833332464
        },
        {
          "name": "C2",
          "midi": 36,
          "time": 185.46625624999865,
          "velocity": 1,
          "duration": 0.12288145833332464
        },
        {
          "name": "D2",
          "midi": 38,
          "time": 185.59337499999864,
          "velocity": 1,
          "duration": 0.12288145833332464
        },
        {
          "name": "C2",
          "midi": 36,
          "time": 185.84761249999863,
          "velocity": 1,
          "duration": 0.12288145833332464
        },
        {
          "name": "C2",
          "midi": 36,
          "time": 186.10184999999862,
          "velocity": 1,
          "duration": 0.12288145833332464
        },
        {
          "name": "C2",
          "midi": 36,
          "time": 186.4832062499986,
          "velocity": 1,
          "duration": 0.12288145833332464
        },
        {
          "name": "D2",
          "midi": 38,
          "time": 186.6103249999986,
          "velocity": 1,
          "duration": 0.12288145833332464
        },
        {
          "name": "C2",
          "midi": 36,
          "time": 186.86456249999858,
          "velocity": 1,
          "duration": 0.12288145833332464
        },
        {
          "name": "C2",
          "midi": 36,
          "time": 187.11879999999857,
          "velocity": 1,
          "duration": 0.12288145833332464
        },
        {
          "name": "C2",
          "midi": 36,
          "time": 187.50015624999855,
          "velocity": 1,
          "duration": 0.12288145833332464
        },
        {
          "name": "D2",
          "midi": 38,
          "time": 187.62727499999855,
          "velocity": 1,
          "duration": 0.12288145833332464
        },
        {
          "name": "C2",
          "midi": 36,
          "time": 187.88151249999854,
          "velocity": 1,
          "duration": 0.12288145833332464
        },
        {
          "name": "C2",
          "midi": 36,
          "time": 188.13574999999852,
          "velocity": 1,
          "duration": 0.12288145833332464
        },
        {
          "name": "C2",
          "midi": 36,
          "time": 188.5171062499985,
          "velocity": 1,
          "duration": 0.12288145833332464
        },
        {
          "name": "D2",
          "midi": 38,
          "time": 188.6442249999985,
          "velocity": 1,
          "duration": 0.12288145833332464
        },
        {
          "name": "C2",
          "midi": 36,
          "time": 188.8984624999985,
          "velocity": 1,
          "duration": 0.12288145833332464
        },
        {
          "name": "C2",
          "midi": 36,
          "time": 189.15269999999848,
          "velocity": 1,
          "duration": 0.12288145833332464
        },
        {
          "name": "C2",
          "midi": 36,
          "time": 189.53405624999846,
          "velocity": 1,
          "duration": 0.12288145833332464
        },
        {
          "name": "D2",
          "midi": 38,
          "time": 189.66117499999845,
          "velocity": 1,
          "duration": 0.12288145833332464
        },
        {
          "name": "C2",
          "midi": 36,
          "time": 189.91541249999844,
          "velocity": 1,
          "duration": 0.12288145833332464
        },
        {
          "name": "C2",
          "midi": 36,
          "time": 190.16964999999843,
          "velocity": 1,
          "duration": 0.12288145833332464
        },
        {
          "name": "C2",
          "midi": 36,
          "time": 190.5510062499984,
          "velocity": 1,
          "duration": 0.12288145833332464
        },
        {
          "name": "D2",
          "midi": 38,
          "time": 190.6781249999984,
          "velocity": 1,
          "duration": 0.12288145833332464
        },
        {
          "name": "C2",
          "midi": 36,
          "time": 190.9323624999984,
          "velocity": 1,
          "duration": 0.12288145833332464
        },
        {
          "name": "D2",
          "midi": 38,
          "time": 190.9323624999984,
          "velocity": 1,
          "duration": 0.12288145833332464
        },
        {
          "name": "D2",
          "midi": 38,
          "time": 191.05948124999838,
          "velocity": 1,
          "duration": 0.12288145833332464
        },
        {
          "name": "C2",
          "midi": 36,
          "time": 191.18659999999838,
          "velocity": 1,
          "duration": 0.5042377083333065
        },
        {
          "name": "D2",
          "midi": 38,
          "time": 191.44083749999837,
          "velocity": 1,
          "duration": 0.12711874999999395
        },
        {
          "name": "D2",
          "midi": 38,
          "time": 191.69507499999835,
          "velocity": 1,
          "duration": 0.12711874999999395
        },
        {
          "name": "D2",
          "midi": 38,
          "time": 191.82219374999835,
          "velocity": 1,
          "duration": 0.12711874999999395
        },
        {
          "name": "D2",
          "midi": 38,
          "time": 192.07643124999834,
          "velocity": 1,
          "duration": 0.12711874999999395
        },
        {
          "name": "D2",
          "midi": 38,
          "time": 192.20354999999833,
          "velocity": 1,
          "duration": 0.12711874999999395
        },
        {
          "name": "D2",
          "midi": 38,
          "time": 192.45778749999832,
          "velocity": 1,
          "duration": 0.12711874999999395
        },
        {
          "name": "D2",
          "midi": 38,
          "time": 192.5849062499983,
          "velocity": 1,
          "duration": 0.12711874999999395
        },
        {
          "name": "D2",
          "midi": 38,
          "time": 192.8391437499983,
          "velocity": 1,
          "duration": 0.12711874999999395
        },
        {
          "name": "D2",
          "midi": 38,
          "time": 192.9662624999983,
          "velocity": 1,
          "duration": 0.12711874999999395
        },
        {
          "name": "D2",
          "midi": 38,
          "time": 193.22049999999828,
          "velocity": 1,
          "duration": 0.12711874999999395
        },
        {
          "name": "D2",
          "midi": 38,
          "time": 193.47473749999827,
          "velocity": 1,
          "duration": 0.12711874999999395
        },
        {
          "name": "D2",
          "midi": 38,
          "time": 193.72897499999826,
          "velocity": 1,
          "duration": 0.12711874999999395
        },
        {
          "name": "D2",
          "midi": 38,
          "time": 193.85609374999825,
          "velocity": 1,
          "duration": 0.12711874999999395
        },
        {
          "name": "D2",
          "midi": 38,
          "time": 194.11033124999824,
          "velocity": 1,
          "duration": 0.12711874999999395
        },
        {
          "name": "D2",
          "midi": 38,
          "time": 194.23744999999823,
          "velocity": 1,
          "duration": 0.12711874999999395
        },
        {
          "name": "D2",
          "midi": 38,
          "time": 194.49168749999822,
          "velocity": 1,
          "duration": 0.12711874999999395
        },
        {
          "name": "D2",
          "midi": 38,
          "time": 194.61880624999822,
          "velocity": 1,
          "duration": 0.12711874999999395
        },
        {
          "name": "D2",
          "midi": 38,
          "time": 194.8730437499982,
          "velocity": 1,
          "duration": 0.12711874999999395
        },
        {
          "name": "D2",
          "midi": 38,
          "time": 195.0001624999982,
          "velocity": 1,
          "duration": 0.12711874999999395
        },
        {
          "name": "C2",
          "midi": 36,
          "time": 195.25439999999818,
          "velocity": 1,
          "duration": 0.12288145833332464
        },
        {
          "name": "C2",
          "midi": 36,
          "time": 195.63575624999817,
          "velocity": 1,
          "duration": 0.12288145833332464
        },
        {
          "name": "D2",
          "midi": 38,
          "time": 195.76287499999816,
          "velocity": 1,
          "duration": 0.12288145833332464
        },
        {
          "name": "C2",
          "midi": 36,
          "time": 196.01711249999815,
          "velocity": 1,
          "duration": 0.12288145833332464
        },
        {
          "name": "C2",
          "midi": 36,
          "time": 196.27134999999814,
          "velocity": 1,
          "duration": 0.12288145833332464
        },
        {
          "name": "C2",
          "midi": 36,
          "time": 196.65270624999812,
          "velocity": 1,
          "duration": 0.12288145833332464
        },
        {
          "name": "D2",
          "midi": 38,
          "time": 196.7798249999981,
          "velocity": 1,
          "duration": 0.12288145833332464
        },
        {
          "name": "C2",
          "midi": 36,
          "time": 197.0340624999981,
          "velocity": 1,
          "duration": 0.12288145833332464
        },
        {
          "name": "C2",
          "midi": 36,
          "time": 197.2882999999981,
          "velocity": 1,
          "duration": 0.12288145833332464
        },
        {
          "name": "C2",
          "midi": 36,
          "time": 197.66965624999807,
          "velocity": 1,
          "duration": 0.12288145833332464
        },
        {
          "name": "D2",
          "midi": 38,
          "time": 197.79677499999806,
          "velocity": 1,
          "duration": 0.12288145833332464
        },
        {
          "name": "C2",
          "midi": 36,
          "time": 198.05101249999805,
          "velocity": 1,
          "duration": 0.12288145833332464
        },
        {
          "name": "C2",
          "midi": 36,
          "time": 198.30524999999804,
          "velocity": 1,
          "duration": 0.12288145833332464
        },
        {
          "name": "C2",
          "midi": 36,
          "time": 198.68660624999802,
          "velocity": 1,
          "duration": 0.12288145833332464
        },
        {
          "name": "D2",
          "midi": 38,
          "time": 198.81372499999802,
          "velocity": 1,
          "duration": 0.12288145833332464
        },
        {
          "name": "C2",
          "midi": 36,
          "time": 199.067962499998,
          "velocity": 1,
          "duration": 0.12288145833332464
        },
        {
          "name": "C2",
          "midi": 36,
          "time": 199.322199999998,
          "velocity": 1,
          "duration": 0.12288145833332464
        },
        {
          "name": "C2",
          "midi": 36,
          "time": 199.70355624999797,
          "velocity": 1,
          "duration": 0.12288145833332464
        },
        {
          "name": "D2",
          "midi": 38,
          "time": 199.83067499999797,
          "velocity": 1,
          "duration": 0.12288145833332464
        },
        {
          "name": "C2",
          "midi": 36,
          "time": 200.08491249999796,
          "velocity": 1,
          "duration": 0.12288145833332464
        },
        {
          "name": "C2",
          "midi": 36,
          "time": 200.33914999999794,
          "velocity": 1,
          "duration": 0.12288145833332464
        },
        {
          "name": "C2",
          "midi": 36,
          "time": 200.72050624999792,
          "velocity": 1,
          "duration": 0.12288145833332464
        },
        {
          "name": "D2",
          "midi": 38,
          "time": 200.84762499999792,
          "velocity": 1,
          "duration": 0.12288145833332464
        },
        {
          "name": "C2",
          "midi": 36,
          "time": 201.1018624999979,
          "velocity": 1,
          "duration": 0.12288145833332464
        },
        {
          "name": "C2",
          "midi": 36,
          "time": 201.3560999999979,
          "velocity": 1,
          "duration": 0.12288145833332464
        },
        {
          "name": "C2",
          "midi": 36,
          "time": 201.73745624999788,
          "velocity": 1,
          "duration": 0.12288145833332464
        },
        {
          "name": "D2",
          "midi": 38,
          "time": 201.86457499999787,
          "velocity": 1,
          "duration": 0.12288145833332464
        },
        {
          "name": "C2",
          "midi": 36,
          "time": 202.11881249999786,
          "velocity": 1,
          "duration": 0.12288145833332464
        },
        {
          "name": "C2",
          "midi": 36,
          "time": 202.37304999999785,
          "velocity": 1,
          "duration": 0.12288145833332464
        },
        {
          "name": "C2",
          "midi": 36,
          "time": 202.75440624999783,
          "velocity": 1,
          "duration": 0.12288145833332464
        },
        {
          "name": "D2",
          "midi": 38,
          "time": 202.88152499999782,
          "velocity": 1,
          "duration": 0.12288145833332464
        },
        {
          "name": "C2",
          "midi": 36,
          "time": 203.1357624999978,
          "velocity": 1,
          "duration": 0.12288145833332464
        },
        {
          "name": "C2",
          "midi": 36,
          "time": 203.3899999999978,
          "velocity": 1,
          "duration": 0.12288145833332464
        },
        {
          "name": "C2",
          "midi": 36,
          "time": 203.77135624999778,
          "velocity": 1,
          "duration": 0.12288145833332464
        },
        {
          "name": "D2",
          "midi": 38,
          "time": 203.89847499999777,
          "velocity": 1,
          "duration": 0.12288145833332464
        },
        {
          "name": "C2",
          "midi": 36,
          "time": 204.15271249999776,
          "velocity": 1,
          "duration": 0.12288145833332464
        },
        {
          "name": "C2",
          "midi": 36,
          "time": 204.40694999999775,
          "velocity": 1,
          "duration": 0.12288145833332464
        },
        {
          "name": "C2",
          "midi": 36,
          "time": 204.78830624999773,
          "velocity": 1,
          "duration": 0.12288145833332464
        },
        {
          "name": "D2",
          "midi": 38,
          "time": 204.91542499999773,
          "velocity": 1,
          "duration": 0.12288145833332464
        },
        {
          "name": "C2",
          "midi": 36,
          "time": 205.1696624999977,
          "velocity": 1,
          "duration": 0.12288145833332464
        },
        {
          "name": "C2",
          "midi": 36,
          "time": 205.4238999999977,
          "velocity": 1,
          "duration": 0.12288145833332464
        },
        {
          "name": "C2",
          "midi": 36,
          "time": 205.80525624999768,
          "velocity": 1,
          "duration": 0.12288145833332464
        },
        {
          "name": "D2",
          "midi": 38,
          "time": 205.93237499999768,
          "velocity": 1,
          "duration": 0.12288145833332464
        },
        {
          "name": "C2",
          "midi": 36,
          "time": 206.18661249999766,
          "velocity": 1,
          "duration": 0.12288145833332464
        },
        {
          "name": "C2",
          "midi": 36,
          "time": 206.44084999999765,
          "velocity": 1,
          "duration": 0.12288145833332464
        },
        {
          "name": "C2",
          "midi": 36,
          "time": 206.82220624999763,
          "velocity": 1,
          "duration": 0.12288145833332464
        },
        {
          "name": "D2",
          "midi": 38,
          "time": 206.94932499999763,
          "velocity": 1,
          "duration": 0.12288145833332464
        },
        {
          "name": "C2",
          "midi": 36,
          "time": 207.20356249999762,
          "velocity": 1,
          "duration": 0.12288145833332464
        },
        {
          "name": "C2",
          "midi": 36,
          "time": 207.4577999999976,
          "velocity": 1,
          "duration": 0.12288145833332464
        },
        {
          "name": "C2",
          "midi": 36,
          "time": 207.8391562499976,
          "velocity": 1,
          "duration": 0.12288145833332464
        },
        {
          "name": "D2",
          "midi": 38,
          "time": 207.96627499999758,
          "velocity": 1,
          "duration": 0.12288145833332464
        },
        {
          "name": "C2",
          "midi": 36,
          "time": 208.22051249999757,
          "velocity": 1,
          "duration": 0.12288145833332464
        },
        {
          "name": "C2",
          "midi": 36,
          "time": 208.47474999999756,
          "velocity": 1,
          "duration": 0.12288145833332464
        },
        {
          "name": "C2",
          "midi": 36,
          "time": 208.85610624999754,
          "velocity": 1,
          "duration": 0.12288145833332464
        },
        {
          "name": "D2",
          "midi": 38,
          "time": 208.98322499999753,
          "velocity": 1,
          "duration": 0.12288145833332464
        },
        {
          "name": "C2",
          "midi": 36,
          "time": 209.23746249999752,
          "velocity": 1,
          "duration": 0.12288145833332464
        },
        {
          "name": "C2",
          "midi": 36,
          "time": 209.4916999999975,
          "velocity": 1,
          "duration": 0.12288145833332464
        },
        {
          "name": "C2",
          "midi": 36,
          "time": 209.8730562499975,
          "velocity": 1,
          "duration": 0.12288145833332464
        },
        {
          "name": "D2",
          "midi": 38,
          "time": 210.00017499999748,
          "velocity": 1,
          "duration": 0.12288145833332464
        },
        {
          "name": "C2",
          "midi": 36,
          "time": 210.25441249999747,
          "velocity": 1,
          "duration": 0.12288145833332464
        },
        {
          "name": "C2",
          "midi": 36,
          "time": 210.50864999999746,
          "velocity": 1,
          "duration": 0.12288145833332464
        },
        {
          "name": "C2",
          "midi": 36,
          "time": 210.89000624999744,
          "velocity": 1,
          "duration": 0.12288145833332464
        },
        {
          "name": "D2",
          "midi": 38,
          "time": 211.01712499999743,
          "velocity": 1,
          "duration": 0.12288145833332464
        },
        {
          "name": "C2",
          "midi": 36,
          "time": 211.27136249999742,
          "velocity": 1,
          "duration": 0.12288145833332464
        },
        {
          "name": "C2",
          "midi": 36,
          "time": 211.5255999999974,
          "velocity": 1,
          "duration": 0.12288145833332464
        },
        {
          "name": "C2",
          "midi": 36,
          "time": 211.9069562499974,
          "velocity": 1,
          "duration": 0.12288145833332464
        },
        {
          "name": "D2",
          "midi": 38,
          "time": 212.0340749999974,
          "velocity": 1,
          "duration": 0.12288145833332464
        },
        {
          "name": "C2",
          "midi": 36,
          "time": 212.28831249999737,
          "velocity": 1,
          "duration": 0.12288145833332464
        },
        {
          "name": "C2",
          "midi": 36,
          "time": 212.54254999999736,
          "velocity": 1,
          "duration": 0.12288145833332464
        },
        {
          "name": "C2",
          "midi": 36,
          "time": 212.92390624999734,
          "velocity": 1,
          "duration": 0.12288145833332464
        },
        {
          "name": "D2",
          "midi": 38,
          "time": 213.05102499999734,
          "velocity": 1,
          "duration": 0.12288145833332464
        },
        {
          "name": "C2",
          "midi": 36,
          "time": 213.30526249999733,
          "velocity": 1,
          "duration": 0.12288145833332464
        },
        {
          "name": "C2",
          "midi": 36,
          "time": 213.5594999999973,
          "velocity": 1,
          "duration": 0.12288145833332464
        },
        {
          "name": "C2",
          "midi": 36,
          "time": 213.9408562499973,
          "velocity": 1,
          "duration": 0.12288145833332464
        },
        {
          "name": "D2",
          "midi": 38,
          "time": 214.0679749999973,
          "velocity": 1,
          "duration": 0.12288145833332464
        },
        {
          "name": "C2",
          "midi": 36,
          "time": 214.32221249999728,
          "velocity": 1,
          "duration": 0.12288145833332464
        },
        {
          "name": "C2",
          "midi": 36,
          "time": 214.57644999999727,
          "velocity": 1,
          "duration": 0.12288145833332464
        },
        {
          "name": "C2",
          "midi": 36,
          "time": 214.95780624999725,
          "velocity": 1,
          "duration": 0.12288145833332464
        },
        {
          "name": "D2",
          "midi": 38,
          "time": 215.08492499999724,
          "velocity": 1,
          "duration": 0.12288145833332464
        },
        {
          "name": "C2",
          "midi": 36,
          "time": 215.33916249999723,
          "velocity": 1,
          "duration": 0.12288145833332464
        },
        {
          "name": "C2",
          "midi": 36,
          "time": 215.59339999999722,
          "velocity": 1,
          "duration": 0.12288145833332464
        },
        {
          "name": "C2",
          "midi": 36,
          "time": 215.9747562499972,
          "velocity": 1,
          "duration": 0.12288145833332464
        },
        {
          "name": "D2",
          "midi": 38,
          "time": 216.1018749999972,
          "velocity": 1,
          "duration": 0.12288145833332464
        },
        {
          "name": "C2",
          "midi": 36,
          "time": 216.35611249999718,
          "velocity": 1,
          "duration": 0.12288145833332464
        },
        {
          "name": "C2",
          "midi": 36,
          "time": 216.61034999999717,
          "velocity": 1,
          "duration": 0.12288145833332464
        },
        {
          "name": "C2",
          "midi": 36,
          "time": 216.99170624999715,
          "velocity": 1,
          "duration": 0.12288145833332464
        },
        {
          "name": "D2",
          "midi": 38,
          "time": 217.11882499999714,
          "velocity": 1,
          "duration": 0.12288145833332464
        },
        {
          "name": "C2",
          "midi": 36,
          "time": 217.37306249999713,
          "velocity": 1,
          "duration": 0.12288145833332464
        },
        {
          "name": "C2",
          "midi": 36,
          "time": 217.62729999999712,
          "velocity": 1,
          "duration": 0.12288145833332464
        },
        {
          "name": "C2",
          "midi": 36,
          "time": 218.0086562499971,
          "velocity": 1,
          "duration": 0.12288145833332464
        },
        {
          "name": "D2",
          "midi": 38,
          "time": 218.1357749999971,
          "velocity": 1,
          "duration": 0.12288145833332464
        },
        {
          "name": "C2",
          "midi": 36,
          "time": 218.39001249999708,
          "velocity": 1,
          "duration": 0.12288145833332464
        },
        {
          "name": "C2",
          "midi": 36,
          "time": 218.64424999999707,
          "velocity": 1,
          "duration": 0.12288145833332464
        },
        {
          "name": "C2",
          "midi": 36,
          "time": 219.02560624999705,
          "velocity": 1,
          "duration": 0.12288145833332464
        },
        {
          "name": "D2",
          "midi": 38,
          "time": 219.15272499999705,
          "velocity": 1,
          "duration": 0.12288145833332464
        },
        {
          "name": "C2",
          "midi": 36,
          "time": 219.40696249999704,
          "velocity": 1,
          "duration": 0.12288145833332464
        },
        {
          "name": "C2",
          "midi": 36,
          "time": 219.66119999999702,
          "velocity": 1,
          "duration": 0.12288145833332464
        },
        {
          "name": "C2",
          "midi": 36,
          "time": 220.042556249997,
          "velocity": 1,
          "duration": 0.12288145833332464
        },
        {
          "name": "D2",
          "midi": 38,
          "time": 220.169674999997,
          "velocity": 1,
          "duration": 0.12288145833332464
        },
        {
          "name": "C2",
          "midi": 36,
          "time": 220.423912499997,
          "velocity": 1,
          "duration": 0.12288145833332464
        },
        {
          "name": "C2",
          "midi": 36,
          "time": 220.67814999999698,
          "velocity": 1,
          "duration": 0.12288145833332464
        },
        {
          "name": "C2",
          "midi": 36,
          "time": 221.05950624999696,
          "velocity": 1,
          "duration": 0.12288145833332464
        },
        {
          "name": "D2",
          "midi": 38,
          "time": 221.18662499999695,
          "velocity": 1,
          "duration": 0.12288145833332464
        },
        {
          "name": "C2",
          "midi": 36,
          "time": 221.44086249999694,
          "velocity": 1,
          "duration": 0.12288145833332464
        },
        {
          "name": "C2",
          "midi": 36,
          "time": 221.69509999999693,
          "velocity": 1,
          "duration": 0.12288145833332464
        },
        {
          "name": "C2",
          "midi": 36,
          "time": 222.0764562499969,
          "velocity": 1,
          "duration": 0.12288145833332464
        },
        {
          "name": "D2",
          "midi": 38,
          "time": 222.2035749999969,
          "velocity": 1,
          "duration": 0.12288145833332464
        },
        {
          "name": "C2",
          "midi": 36,
          "time": 222.4578124999969,
          "velocity": 1,
          "duration": 0.12288145833332464
        },
        {
          "name": "C2",
          "midi": 36,
          "time": 222.71204999999688,
          "velocity": 1,
          "duration": 0.12288145833332464
        },
        {
          "name": "C2",
          "midi": 36,
          "time": 223.09340624999686,
          "velocity": 1,
          "duration": 0.12288145833332464
        },
        {
          "name": "D2",
          "midi": 38,
          "time": 223.22052499999685,
          "velocity": 1,
          "duration": 0.12288145833332464
        },
        {
          "name": "C2",
          "midi": 36,
          "time": 223.47476249999684,
          "velocity": 1,
          "duration": 0.12288145833332464
        },
        {
          "name": "C2",
          "midi": 36,
          "time": 223.72899999999683,
          "velocity": 1,
          "duration": 0.12288145833332464
        },
        {
          "name": "C2",
          "midi": 36,
          "time": 224.1103562499968,
          "velocity": 1,
          "duration": 0.12288145833332464
        },
        {
          "name": "D2",
          "midi": 38,
          "time": 224.2374749999968,
          "velocity": 1,
          "duration": 0.12288145833332464
        },
        {
          "name": "C2",
          "midi": 36,
          "time": 224.4917124999968,
          "velocity": 1,
          "duration": 0.12288145833332464
        },
        {
          "name": "C2",
          "midi": 36,
          "time": 224.74594999999678,
          "velocity": 1,
          "duration": 0.12288145833332464
        },
        {
          "name": "C2",
          "midi": 36,
          "time": 225.12730624999676,
          "velocity": 1,
          "duration": 0.12288145833332464
        },
        {
          "name": "D2",
          "midi": 38,
          "time": 225.25442499999676,
          "velocity": 1,
          "duration": 0.12288145833332464
        },
        {
          "name": "C2",
          "midi": 36,
          "time": 225.50866249999675,
          "velocity": 1,
          "duration": 0.12288145833332464
        },
        {
          "name": "C2",
          "midi": 36,
          "time": 225.76289999999673,
          "velocity": 1,
          "duration": 0.12288145833332464
        },
        {
          "name": "C2",
          "midi": 36,
          "time": 226.14425624999672,
          "velocity": 1,
          "duration": 0.12288145833332464
        },
        {
          "name": "D2",
          "midi": 38,
          "time": 226.2713749999967,
          "velocity": 1,
          "duration": 0.12288145833332464
        },
        {
          "name": "C2",
          "midi": 36,
          "time": 226.5256124999967,
          "velocity": 1,
          "duration": 0.12288145833332464
        },
        {
          "name": "C2",
          "midi": 36,
          "time": 226.77984999999669,
          "velocity": 1,
          "duration": 0.12288145833332464
        },
        {
          "name": "C2",
          "midi": 36,
          "time": 227.16120624999667,
          "velocity": 1,
          "duration": 0.12288145833332464
        },
        {
          "name": "D2",
          "midi": 38,
          "time": 227.28832499999666,
          "velocity": 1,
          "duration": 0.12288145833332464
        },
        {
          "name": "C2",
          "midi": 36,
          "time": 227.54256249999665,
          "velocity": 1,
          "duration": 0.12288145833332464
        },
        {
          "name": "C2",
          "midi": 36,
          "time": 227.79679999999664,
          "velocity": 1,
          "duration": 0.3813562500000103
        },
        {
          "name": "C2",
          "midi": 36,
          "time": 229.57646249999664,
          "velocity": 1,
          "duration": 0.12711874999999395
        },
        {
          "name": "C2",
          "midi": 36,
          "time": 229.83069999999663,
          "velocity": 1,
          "duration": 0.3813562500000103
        },
        {
          "name": "C2",
          "midi": 36,
          "time": 231.86459999999664,
          "velocity": 1,
          "duration": 0.3813562500000103
        },
        {
          "name": "C2",
          "midi": 36,
          "time": 233.64426249999664,
          "velocity": 1,
          "duration": 0.12711874999999395
        },
        {
          "name": "C2",
          "midi": 36,
          "time": 233.89849999999663,
          "velocity": 1,
          "duration": 0.2542374999999879
        },
        {
          "name": "C2",
          "midi": 36,
          "time": 235.67816249999663,
          "velocity": 1,
          "duration": 0.12711874999999395
        },
        {
          "name": "C2",
          "midi": 36,
          "time": 235.93239999999662,
          "velocity": 1,
          "duration": 0.3813562500000103
        },
        {
          "name": "D2",
          "midi": 38,
          "time": 236.44087499999662,
          "velocity": 1,
          "duration": 0.5042377083333349
        },
        {
          "name": "D2",
          "midi": 38,
          "time": 237.45782499999663,
          "velocity": 1,
          "duration": 0.5042377083333065
        },
        {
          "name": "C2",
          "midi": 36,
          "time": 237.71206249999662,
          "velocity": 1,
          "duration": 0.12711874999999395
        },
        {
          "name": "C2",
          "midi": 36,
          "time": 237.9662999999966,
          "velocity": 1,
          "duration": 0.3813562500000103
        },
        {
          "name": "D2",
          "midi": 38,
          "time": 238.4747749999966,
          "velocity": 1,
          "duration": 0.5042377083333349
        },
        {
          "name": "D2",
          "midi": 38,
          "time": 239.49172499999662,
          "velocity": 1,
          "duration": 0.5042377083333349
        },
        {
          "name": "C2",
          "midi": 36,
          "time": 240.00019999999662,
          "velocity": 1,
          "duration": 0.3813562500000103
        },
        {
          "name": "D2",
          "midi": 38,
          "time": 240.50867499999663,
          "velocity": 1,
          "duration": 0.5042377083333349
        },
        {
          "name": "D2",
          "midi": 38,
          "time": 241.52562499999664,
          "velocity": 1,
          "duration": 0.5042377083333065
        },
        {
          "name": "C2",
          "midi": 36,
          "time": 241.77986249999663,
          "velocity": 1,
          "duration": 0.12711874999999395
        },
        {
          "name": "C2",
          "midi": 36,
          "time": 242.0340999999966,
          "velocity": 1,
          "duration": 0.2542374999999879
        },
        {
          "name": "D2",
          "midi": 38,
          "time": 242.5425749999966,
          "velocity": 1,
          "duration": 0.5042377083333349
        },
        {
          "name": "D2",
          "midi": 38,
          "time": 243.5595249999966,
          "velocity": 1,
          "duration": 0.5042377083333065
        },
        {
          "name": "C2",
          "midi": 36,
          "time": 243.81376249999659,
          "velocity": 1,
          "duration": 0.12711874999999395
        },
        {
          "name": "C2",
          "midi": 36,
          "time": 244.06799999999657,
          "velocity": 1,
          "duration": 0.6355937499999982
        },
        {
          "name": "D2",
          "midi": 38,
          "time": 244.83071249999657,
          "velocity": 1,
          "duration": 0.12288145833332464
        },
        {
          "name": "D2",
          "midi": 38,
          "time": 244.95783124999656,
          "velocity": 1,
          "duration": 0.12288145833332464
        },
        {
          "name": "C2",
          "midi": 36,
          "time": 245.08494999999655,
          "velocity": 1,
          "duration": 0.6355937499999982
        },
        {
          "name": "D2",
          "midi": 38,
          "time": 245.84766249999655,
          "velocity": 1,
          "duration": 0.12288145833332464
        },
        {
          "name": "D2",
          "midi": 38,
          "time": 245.97478124999654,
          "velocity": 1,
          "duration": 0.12288145833332464
        },
        {
          "name": "C2",
          "midi": 36,
          "time": 246.10189999999653,
          "velocity": 1,
          "duration": 0.12711874999999395
        },
        {
          "name": "C2",
          "midi": 36,
          "time": 246.35613749999652,
          "velocity": 1,
          "duration": 0.12711874999999395
        },
        {
          "name": "C2",
          "midi": 36,
          "time": 246.6103749999965,
          "velocity": 1,
          "duration": 0.12711874999999395
        },
        {
          "name": "C2",
          "midi": 36,
          "time": 246.8646124999965,
          "velocity": 1,
          "duration": 0.12711874999999395
        },
        {
          "name": "C2",
          "midi": 36,
          "time": 247.11884999999648,
          "velocity": 1,
          "duration": 0.3813562500000103
        },
        {
          "name": "C2",
          "midi": 36,
          "time": 247.6273249999965,
          "velocity": 1,
          "duration": 0.2542374999999879
        },
        {
          "name": "C2",
          "midi": 36,
          "time": 248.13579999999646,
          "velocity": 1,
          "duration": 1.6525437500000066
        },
        {
          "name": "B1",
          "midi": 35,
          "time": 250.04258124999646,
          "velocity": 1,
          "duration": 0.12288145833332464
        },
        {
          "name": "C2",
          "midi": 36,
          "time": 250.16969999999645,
          "velocity": 1,
          "duration": 1.3983062499999335
        },
        {
          "name": "C3",
          "midi": 48,
          "time": 250.16969999999645,
          "velocity": 1,
          "duration": 0.12288145833332464
        },
        {
          "name": "C3",
          "midi": 48,
          "time": 250.29681874999645,
          "velocity": 1,
          "duration": 0.12288145833332464
        },
        {
          "name": "B1",
          "midi": 35,
          "time": 250.55105624999644,
          "velocity": 1,
          "duration": 0.12288145833332464
        },
        {
          "name": "B2",
          "midi": 47,
          "time": 250.67817499999643,
          "velocity": 1,
          "duration": 0.12288145833332464
        },
        {
          "name": "B2",
          "midi": 47,
          "time": 250.80529374999642,
          "velocity": 1,
          "duration": 0.12288145833332464
        },
        {
          "name": "B1",
          "midi": 35,
          "time": 251.0595312499964,
          "velocity": 1,
          "duration": 0.12288145833332464
        },
        {
          "name": "A2",
          "midi": 45,
          "time": 251.1866499999964,
          "velocity": 1,
          "duration": 0.12288145833332464
        },
        {
          "name": "A2",
          "midi": 45,
          "time": 251.3137687499964,
          "velocity": 1,
          "duration": 0.12288145833332464
        },
        {
          "name": "B1",
          "midi": 35,
          "time": 251.5680062499964,
          "velocity": 1,
          "duration": 0.12288145833332464
        },
        {
          "name": "A#2",
          "midi": 46,
          "time": 251.69512499999638,
          "velocity": 1,
          "duration": 0.12288145833332464
        },
        {
          "name": "D2",
          "midi": 38,
          "time": 251.69512499999638,
          "velocity": 1,
          "duration": 0.12288145833332464
        },
        {
          "name": "C2",
          "midi": 36,
          "time": 252.20359999999638,
          "velocity": 1,
          "duration": 0.12288145833332464
        },
        {
          "name": "C2",
          "midi": 36,
          "time": 252.58495624999637,
          "velocity": 1,
          "duration": 0.12288145833332464
        },
        {
          "name": "D2",
          "midi": 38,
          "time": 252.71207499999636,
          "velocity": 1,
          "duration": 0.12288145833332464
        },
        {
          "name": "C2",
          "midi": 36,
          "time": 252.96631249999635,
          "velocity": 1,
          "duration": 0.12288145833332464
        },
        {
          "name": "C2",
          "midi": 36,
          "time": 253.22054999999634,
          "velocity": 1,
          "duration": 0.12288145833332464
        },
        {
          "name": "C2",
          "midi": 36,
          "time": 253.60190624999632,
          "velocity": 1,
          "duration": 0.12288145833332464
        },
        {
          "name": "D2",
          "midi": 38,
          "time": 253.7290249999963,
          "velocity": 1,
          "duration": 0.12288145833332464
        },
        {
          "name": "C2",
          "midi": 36,
          "time": 253.9832624999963,
          "velocity": 1,
          "duration": 0.12288145833332464
        },
        {
          "name": "C2",
          "midi": 36,
          "time": 254.2374999999963,
          "velocity": 1,
          "duration": 0.12288145833332464
        },
        {
          "name": "C2",
          "midi": 36,
          "time": 254.61885624999627,
          "velocity": 1,
          "duration": 0.12288145833332464
        },
        {
          "name": "D2",
          "midi": 38,
          "time": 254.74597499999626,
          "velocity": 1,
          "duration": 0.12288145833332464
        },
        {
          "name": "C2",
          "midi": 36,
          "time": 255.00021249999625,
          "velocity": 1,
          "duration": 0.12288145833332464
        },
        {
          "name": "C2",
          "midi": 36,
          "time": 255.25444999999624,
          "velocity": 1,
          "duration": 0.12288145833332464
        },
        {
          "name": "C2",
          "midi": 36,
          "time": 255.63580624999622,
          "velocity": 1,
          "duration": 0.12288145833332464
        },
        {
          "name": "D2",
          "midi": 38,
          "time": 255.76292499999622,
          "velocity": 1,
          "duration": 0.12288145833332464
        },
        {
          "name": "C2",
          "midi": 36,
          "time": 256.01716249999623,
          "velocity": 1,
          "duration": 0.12288145833332464
        },
        {
          "name": "C2",
          "midi": 36,
          "time": 256.2713999999962,
          "velocity": 1,
          "duration": 0.12288145833332464
        },
        {
          "name": "C2",
          "midi": 36,
          "time": 256.65275624999623,
          "velocity": 1,
          "duration": 0.12288145833332464
        },
        {
          "name": "D2",
          "midi": 38,
          "time": 256.7798749999962,
          "velocity": 1,
          "duration": 0.12288145833332464
        },
        {
          "name": "C2",
          "midi": 36,
          "time": 257.0341124999962,
          "velocity": 1,
          "duration": 0.12288145833332464
        },
        {
          "name": "C2",
          "midi": 36,
          "time": 257.28834999999617,
          "velocity": 1,
          "duration": 0.12288145833332464
        },
        {
          "name": "C2",
          "midi": 36,
          "time": 257.6697062499962,
          "velocity": 1,
          "duration": 0.12288145833332464
        },
        {
          "name": "D2",
          "midi": 38,
          "time": 257.79682499999615,
          "velocity": 1,
          "duration": 0.12288145833332464
        },
        {
          "name": "C2",
          "midi": 36,
          "time": 258.05106249999614,
          "velocity": 1,
          "duration": 0.12288145833332464
        },
        {
          "name": "C2",
          "midi": 36,
          "time": 258.3052999999961,
          "velocity": 1,
          "duration": 0.12288145833332464
        },
        {
          "name": "C2",
          "midi": 36,
          "time": 258.68665624999613,
          "velocity": 1,
          "duration": 0.12288145833332464
        },
        {
          "name": "D2",
          "midi": 38,
          "time": 258.8137749999961,
          "velocity": 1,
          "duration": 0.12288145833332464
        },
        {
          "name": "C2",
          "midi": 36,
          "time": 259.0680124999961,
          "velocity": 1,
          "duration": 0.12288145833332464
        },
        {
          "name": "C2",
          "midi": 36,
          "time": 259.3222499999961,
          "velocity": 1,
          "duration": 0.12288145833332464
        },
        {
          "name": "C2",
          "midi": 36,
          "time": 259.7036062499961,
          "velocity": 1,
          "duration": 0.12288145833332464
        },
        {
          "name": "D2",
          "midi": 38,
          "time": 259.83072499999605,
          "velocity": 1,
          "duration": 0.12288145833332464
        },
        {
          "name": "C2",
          "midi": 36,
          "time": 260.08496249999604,
          "velocity": 1,
          "duration": 0.12288145833332464
        },
        {
          "name": "C2",
          "midi": 36,
          "time": 260.339199999996,
          "velocity": 1,
          "duration": 0.12288145833332464
        },
        {
          "name": "C2",
          "midi": 36,
          "time": 260.72055624999604,
          "velocity": 1,
          "duration": 0.12288145833332464
        },
        {
          "name": "D2",
          "midi": 38,
          "time": 260.847674999996,
          "velocity": 1,
          "duration": 0.12288145833332464
        },
        {
          "name": "C2",
          "midi": 36,
          "time": 261.101912499996,
          "velocity": 1,
          "duration": 0.12288145833332464
        },
        {
          "name": "C2",
          "midi": 36,
          "time": 261.356149999996,
          "velocity": 1,
          "duration": 0.12288145833332464
        },
        {
          "name": "C2",
          "midi": 36,
          "time": 261.737506249996,
          "velocity": 1,
          "duration": 0.12288145833332464
        },
        {
          "name": "D2",
          "midi": 38,
          "time": 261.86462499999595,
          "velocity": 1,
          "duration": 0.12288145833332464
        },
        {
          "name": "C2",
          "midi": 36,
          "time": 262.11886249999594,
          "velocity": 1,
          "duration": 0.12288145833332464
        },
        {
          "name": "C2",
          "midi": 36,
          "time": 262.37309999999593,
          "velocity": 1,
          "duration": 0.12288145833332464
        },
        {
          "name": "C2",
          "midi": 36,
          "time": 262.75445624999594,
          "velocity": 1,
          "duration": 0.12288145833332464
        },
        {
          "name": "D2",
          "midi": 38,
          "time": 262.8815749999959,
          "velocity": 1,
          "duration": 0.12288145833332464
        },
        {
          "name": "C2",
          "midi": 36,
          "time": 263.1358124999959,
          "velocity": 1,
          "duration": 0.12288145833332464
        },
        {
          "name": "C2",
          "midi": 36,
          "time": 263.3900499999959,
          "velocity": 1,
          "duration": 0.12288145833332464
        },
        {
          "name": "C2",
          "midi": 36,
          "time": 263.7714062499959,
          "velocity": 1,
          "duration": 0.12288145833332464
        },
        {
          "name": "D2",
          "midi": 38,
          "time": 263.89852499999586,
          "velocity": 1,
          "duration": 0.12288145833332464
        },
        {
          "name": "C2",
          "midi": 36,
          "time": 264.15276249999584,
          "velocity": 1,
          "duration": 0.12288145833332464
        },
        {
          "name": "C2",
          "midi": 36,
          "time": 264.40699999999583,
          "velocity": 1,
          "duration": 0.12288145833332464
        },
        {
          "name": "C2",
          "midi": 36,
          "time": 264.78835624999584,
          "velocity": 1,
          "duration": 0.12288145833332464
        },
        {
          "name": "D2",
          "midi": 38,
          "time": 264.9154749999958,
          "velocity": 1,
          "duration": 0.12288145833332464
        },
        {
          "name": "C2",
          "midi": 36,
          "time": 265.1697124999958,
          "velocity": 1,
          "duration": 0.12288145833332464
        },
        {
          "name": "C2",
          "midi": 36,
          "time": 265.4239499999958,
          "velocity": 1,
          "duration": 0.12288145833332464
        },
        {
          "name": "C2",
          "midi": 36,
          "time": 265.8053062499958,
          "velocity": 1,
          "duration": 0.12288145833332464
        },
        {
          "name": "D2",
          "midi": 38,
          "time": 265.93242499999576,
          "velocity": 1,
          "duration": 0.12288145833332464
        },
        {
          "name": "C2",
          "midi": 36,
          "time": 266.18666249999575,
          "velocity": 1,
          "duration": 0.12288145833332464
        },
        {
          "name": "C2",
          "midi": 36,
          "time": 266.44089999999574,
          "velocity": 1,
          "duration": 0.12288145833332464
        },
        {
          "name": "C2",
          "midi": 36,
          "time": 266.82225624999575,
          "velocity": 1,
          "duration": 0.12288145833332464
        },
        {
          "name": "D2",
          "midi": 38,
          "time": 266.9493749999957,
          "velocity": 1,
          "duration": 0.12288145833332464
        },
        {
          "name": "C2",
          "midi": 36,
          "time": 267.2036124999957,
          "velocity": 1,
          "duration": 0.12288145833332464
        },
        {
          "name": "C2",
          "midi": 36,
          "time": 267.4578499999957,
          "velocity": 1,
          "duration": 0.12288145833332464
        },
        {
          "name": "C2",
          "midi": 36,
          "time": 267.8392062499957,
          "velocity": 1,
          "duration": 0.12288145833332464
        },
        {
          "name": "D2",
          "midi": 38,
          "time": 267.96632499999566,
          "velocity": 1,
          "duration": 0.12288145833332464
        },
        {
          "name": "C2",
          "midi": 36,
          "time": 268.22056249999565,
          "velocity": 1,
          "duration": 0.12288145833332464
        },
        {
          "name": "C2",
          "midi": 36,
          "time": 268.47479999999564,
          "velocity": 1,
          "duration": 0.12288145833332464
        },
        {
          "name": "C2",
          "midi": 36,
          "time": 268.85615624999565,
          "velocity": 1,
          "duration": 0.12288145833332464
        },
        {
          "name": "D2",
          "midi": 38,
          "time": 268.9832749999956,
          "velocity": 1,
          "duration": 0.12288145833332464
        },
        {
          "name": "C2",
          "midi": 36,
          "time": 269.2375124999956,
          "velocity": 1,
          "duration": 0.12288145833332464
        },
        {
          "name": "C2",
          "midi": 36,
          "time": 269.4917499999956,
          "velocity": 1,
          "duration": 0.12288145833332464
        },
        {
          "name": "C2",
          "midi": 36,
          "time": 269.8731062499956,
          "velocity": 1,
          "duration": 0.12288145833332464
        },
        {
          "name": "D2",
          "midi": 38,
          "time": 270.00022499999557,
          "velocity": 1,
          "duration": 0.12288145833332464
        },
        {
          "name": "C2",
          "midi": 36,
          "time": 270.25446249999555,
          "velocity": 1,
          "duration": 0.12288145833332464
        },
        {
          "name": "C2",
          "midi": 36,
          "time": 270.50869999999554,
          "velocity": 1,
          "duration": 0.12288145833332464
        },
        {
          "name": "C2",
          "midi": 36,
          "time": 270.89005624999555,
          "velocity": 1,
          "duration": 0.12288145833332464
        },
        {
          "name": "D2",
          "midi": 38,
          "time": 271.0171749999955,
          "velocity": 1,
          "duration": 0.12288145833332464
        },
        {
          "name": "C2",
          "midi": 36,
          "time": 271.2714124999955,
          "velocity": 1,
          "duration": 0.12288145833332464
        },
        {
          "name": "C2",
          "midi": 36,
          "time": 271.5256499999955,
          "velocity": 1,
          "duration": 0.12288145833332464
        },
        {
          "name": "C2",
          "midi": 36,
          "time": 271.9070062499955,
          "velocity": 1,
          "duration": 0.12288145833332464
        },
        {
          "name": "D2",
          "midi": 38,
          "time": 272.03412499999547,
          "velocity": 1,
          "duration": 0.12288145833332464
        },
        {
          "name": "C2",
          "midi": 36,
          "time": 272.28836249999546,
          "velocity": 1,
          "duration": 0.12288145833332464
        },
        {
          "name": "C2",
          "midi": 36,
          "time": 272.54259999999545,
          "velocity": 1,
          "duration": 0.12288145833332464
        },
        {
          "name": "C2",
          "midi": 36,
          "time": 272.92395624999546,
          "velocity": 1,
          "duration": 0.12288145833332464
        },
        {
          "name": "D2",
          "midi": 38,
          "time": 273.0510749999954,
          "velocity": 1,
          "duration": 0.12288145833332464
        },
        {
          "name": "C2",
          "midi": 36,
          "time": 273.3053124999954,
          "velocity": 1,
          "duration": 0.12288145833332464
        },
        {
          "name": "C2",
          "midi": 36,
          "time": 273.5595499999954,
          "velocity": 1,
          "duration": 0.12288145833332464
        },
        {
          "name": "C2",
          "midi": 36,
          "time": 273.9409062499954,
          "velocity": 1,
          "duration": 0.12288145833332464
        },
        {
          "name": "D2",
          "midi": 38,
          "time": 274.0680249999954,
          "velocity": 1,
          "duration": 0.12288145833332464
        },
        {
          "name": "C2",
          "midi": 36,
          "time": 274.32226249999536,
          "velocity": 1,
          "duration": 0.12288145833332464
        },
        {
          "name": "D2",
          "midi": 38,
          "time": 274.57649999999535,
          "velocity": 1,
          "duration": 0.2542374999999879
        },
        {
          "name": "C2",
          "midi": 36,
          "time": 274.83073749999534,
          "velocity": 1,
          "duration": 0.2542374999999879
        },
        {
          "name": "C2",
          "midi": 36,
          "time": 275.21209374999535,
          "velocity": 1,
          "duration": 0.12711875000002237
        },
        {
          "name": "C2",
          "midi": 36,
          "time": 275.59344999999536,
          "velocity": 1,
          "duration": 0.2542374999999879
        },
        {
          "name": "C2",
          "midi": 36,
          "time": 275.84768749999535,
          "velocity": 0.8110236220472441,
          "duration": 0.12288145833332464
        },
        {
          "name": "C2",
          "midi": 36,
          "time": 275.9748062499953,
          "velocity": 0.8267716535433071,
          "duration": 0.12288145833332464
        },
        {
          "name": "D2",
          "midi": 38,
          "time": 276.1019249999953,
          "velocity": 1,
          "duration": 0.3813562500000103
        },
        {
          "name": "C2",
          "midi": 36,
          "time": 276.6103999999953,
          "velocity": 1,
          "duration": 0.12288145833332464
        },
        {
          "name": "C2",
          "midi": 36,
          "time": 276.9917562499953,
          "velocity": 1,
          "duration": 0.12288145833332464
        },
        {
          "name": "D2",
          "midi": 38,
          "time": 277.1188749999953,
          "velocity": 1,
          "duration": 0.12288145833332464
        },
        {
          "name": "C2",
          "midi": 36,
          "time": 277.3731124999953,
          "velocity": 1,
          "duration": 0.12288145833332464
        },
        {
          "name": "C2",
          "midi": 36,
          "time": 277.62734999999526,
          "velocity": 1,
          "duration": 0.12288145833332464
        },
        {
          "name": "C2",
          "midi": 36,
          "time": 278.00870624999527,
          "velocity": 1,
          "duration": 0.12288145833332464
        },
        {
          "name": "D2",
          "midi": 38,
          "time": 278.13582499999524,
          "velocity": 1,
          "duration": 0.12288145833332464
        },
        {
          "name": "C2",
          "midi": 36,
          "time": 278.3900624999952,
          "velocity": 1,
          "duration": 0.12288145833332464
        },
        {
          "name": "C2",
          "midi": 36,
          "time": 278.6442999999952,
          "velocity": 1,
          "duration": 0.12288145833332464
        },
        {
          "name": "C2",
          "midi": 36,
          "time": 279.0256562499952,
          "velocity": 1,
          "duration": 0.12288145833332464
        },
        {
          "name": "D2",
          "midi": 38,
          "time": 279.1527749999952,
          "velocity": 1,
          "duration": 0.12288145833332464
        },
        {
          "name": "C2",
          "midi": 36,
          "time": 279.4070124999952,
          "velocity": 1,
          "duration": 0.12288145833332464
        },
        {
          "name": "C2",
          "midi": 36,
          "time": 279.66124999999516,
          "velocity": 1,
          "duration": 0.12288145833332464
        },
        {
          "name": "C2",
          "midi": 36,
          "time": 280.0426062499952,
          "velocity": 1,
          "duration": 0.12288145833332464
        },
        {
          "name": "D2",
          "midi": 38,
          "time": 280.16972499999514,
          "velocity": 1,
          "duration": 0.12288145833332464
        },
        {
          "name": "C2",
          "midi": 36,
          "time": 280.4239624999951,
          "velocity": 1,
          "duration": 0.12288145833332464
        },
        {
          "name": "C2",
          "midi": 36,
          "time": 280.6781999999951,
          "velocity": 1,
          "duration": 0.12288145833332464
        },
        {
          "name": "C2",
          "midi": 36,
          "time": 281.0595562499951,
          "velocity": 1,
          "duration": 0.12288145833332464
        },
        {
          "name": "D2",
          "midi": 38,
          "time": 281.1866749999951,
          "velocity": 1,
          "duration": 0.12288145833332464
        },
        {
          "name": "C2",
          "midi": 36,
          "time": 281.4409124999951,
          "velocity": 1,
          "duration": 0.12288145833332464
        },
        {
          "name": "C2",
          "midi": 36,
          "time": 281.69514999999507,
          "velocity": 1,
          "duration": 0.12288145833332464
        },
        {
          "name": "C2",
          "midi": 36,
          "time": 282.0765062499951,
          "velocity": 1,
          "duration": 0.12288145833332464
        },
        {
          "name": "D2",
          "midi": 38,
          "time": 282.20362499999504,
          "velocity": 1,
          "duration": 0.12288145833332464
        },
        {
          "name": "C2",
          "midi": 36,
          "time": 282.45786249999503,
          "velocity": 1,
          "duration": 0.12288145833332464
        },
        {
          "name": "C2",
          "midi": 36,
          "time": 282.712099999995,
          "velocity": 1,
          "duration": 0.12288145833332464
        },
        {
          "name": "C2",
          "midi": 36,
          "time": 283.09345624999503,
          "velocity": 1,
          "duration": 0.12288145833332464
        },
        {
          "name": "D2",
          "midi": 38,
          "time": 283.220574999995,
          "velocity": 1,
          "duration": 0.12288145833332464
        },
        {
          "name": "C2",
          "midi": 36,
          "time": 283.474812499995,
          "velocity": 1,
          "duration": 0.12288145833332464
        },
        {
          "name": "C2",
          "midi": 36,
          "time": 283.72904999999497,
          "velocity": 1,
          "duration": 0.12288145833332464
        },
        {
          "name": "C2",
          "midi": 36,
          "time": 284.110406249995,
          "velocity": 1,
          "duration": 0.12288145833332464
        },
        {
          "name": "D2",
          "midi": 38,
          "time": 284.23752499999495,
          "velocity": 1,
          "duration": 0.12288145833332464
        },
        {
          "name": "C2",
          "midi": 36,
          "time": 284.49176249999493,
          "velocity": 1,
          "duration": 0.12288145833332464
        },
        {
          "name": "C2",
          "midi": 36,
          "time": 284.7459999999949,
          "velocity": 1,
          "duration": 0.12288145833332464
        },
        {
          "name": "C2",
          "midi": 36,
          "time": 285.12735624999493,
          "velocity": 1,
          "duration": 0.12288145833332464
        },
        {
          "name": "D2",
          "midi": 38,
          "time": 285.2544749999949,
          "velocity": 1,
          "duration": 0.12288145833332464
        },
        {
          "name": "C2",
          "midi": 36,
          "time": 285.5087124999949,
          "velocity": 1,
          "duration": 0.12288145833332464
        },
        {
          "name": "C2",
          "midi": 36,
          "time": 285.7629499999949,
          "velocity": 1,
          "duration": 0.12288145833332464
        },
        {
          "name": "C2",
          "midi": 36,
          "time": 286.1443062499949,
          "velocity": 1,
          "duration": 0.12288145833332464
        },
        {
          "name": "D2",
          "midi": 38,
          "time": 286.27142499999485,
          "velocity": 1,
          "duration": 0.12288145833332464
        },
        {
          "name": "C2",
          "midi": 36,
          "time": 286.52566249999484,
          "velocity": 1,
          "duration": 0.12288145833332464
        },
        {
          "name": "C2",
          "midi": 36,
          "time": 286.7798999999948,
          "velocity": 1,
          "duration": 0.12288145833332464
        },
        {
          "name": "C2",
          "midi": 36,
          "time": 287.16125624999484,
          "velocity": 1,
          "duration": 0.12288145833332464
        },
        {
          "name": "D2",
          "midi": 38,
          "time": 287.2883749999948,
          "velocity": 1,
          "duration": 0.12288145833332464
        },
        {
          "name": "C2",
          "midi": 36,
          "time": 287.5426124999948,
          "velocity": 1,
          "duration": 0.12288145833332464
        },
        {
          "name": "C2",
          "midi": 36,
          "time": 287.7968499999948,
          "velocity": 1,
          "duration": 0.12288145833332464
        },
        {
          "name": "C2",
          "midi": 36,
          "time": 288.1782062499948,
          "velocity": 1,
          "duration": 0.12288145833332464
        },
        {
          "name": "D2",
          "midi": 38,
          "time": 288.30532499999475,
          "velocity": 1,
          "duration": 0.12288145833332464
        },
        {
          "name": "C2",
          "midi": 36,
          "time": 288.55956249999474,
          "velocity": 1,
          "duration": 0.12288145833332464
        },
        {
          "name": "C2",
          "midi": 36,
          "time": 288.8137999999947,
          "velocity": 1,
          "duration": 0.12288145833332464
        },
        {
          "name": "C2",
          "midi": 36,
          "time": 289.19515624999474,
          "velocity": 1,
          "duration": 0.12288145833332464
        },
        {
          "name": "D2",
          "midi": 38,
          "time": 289.3222749999947,
          "velocity": 1,
          "duration": 0.12288145833332464
        },
        {
          "name": "C2",
          "midi": 36,
          "time": 289.5765124999947,
          "velocity": 1,
          "duration": 0.12288145833332464
        },
        {
          "name": "C2",
          "midi": 36,
          "time": 289.8307499999947,
          "velocity": 1,
          "duration": 0.12288145833332464
        },
        {
          "name": "C2",
          "midi": 36,
          "time": 290.2121062499947,
          "velocity": 1,
          "duration": 0.12288145833332464
        },
        {
          "name": "D2",
          "midi": 38,
          "time": 290.33922499999466,
          "velocity": 1,
          "duration": 0.12288145833332464
        },
        {
          "name": "C2",
          "midi": 36,
          "time": 290.59346249999464,
          "velocity": 1,
          "duration": 0.12288145833332464
        },
        {
          "name": "C2",
          "midi": 36,
          "time": 290.84769999999463,
          "velocity": 1,
          "duration": 0.12288145833332464
        },
        {
          "name": "C2",
          "midi": 36,
          "time": 291.22905624999464,
          "velocity": 1,
          "duration": 0.12288145833332464
        },
        {
          "name": "D2",
          "midi": 38,
          "time": 291.3561749999946,
          "velocity": 1,
          "duration": 0.12288145833332464
        },
        {
          "name": "C2",
          "midi": 36,
          "time": 291.6104124999946,
          "velocity": 1,
          "duration": 0.12288145833332464
        },
        {
          "name": "C2",
          "midi": 36,
          "time": 291.8646499999946,
          "velocity": 1,
          "duration": 0.12288145833332464
        },
        {
          "name": "C2",
          "midi": 36,
          "time": 292.2460062499946,
          "velocity": 1,
          "duration": 0.12288145833332464
        },
        {
          "name": "D2",
          "midi": 38,
          "time": 292.37312499999456,
          "velocity": 1,
          "duration": 0.12288145833332464
        },
        {
          "name": "C2",
          "midi": 36,
          "time": 292.62736249999455,
          "velocity": 1,
          "duration": 0.12288145833332464
        },
        {
          "name": "C2",
          "midi": 36,
          "time": 292.88159999999453,
          "velocity": 1,
          "duration": 0.12288145833332464
        },
        {
          "name": "C2",
          "midi": 36,
          "time": 293.26295624999455,
          "velocity": 1,
          "duration": 0.12288145833332464
        },
        {
          "name": "D2",
          "midi": 38,
          "time": 293.3900749999945,
          "velocity": 1,
          "duration": 0.12288145833332464
        },
        {
          "name": "C2",
          "midi": 36,
          "time": 293.6443124999945,
          "velocity": 1,
          "duration": 0.12288145833332464
        },
        {
          "name": "C2",
          "midi": 36,
          "time": 293.8985499999945,
          "velocity": 1,
          "duration": 0.12288145833332464
        },
        {
          "name": "C2",
          "midi": 36,
          "time": 294.2799062499945,
          "velocity": 1,
          "duration": 0.12288145833332464
        },
        {
          "name": "D2",
          "midi": 38,
          "time": 294.40702499999446,
          "velocity": 1,
          "duration": 0.12288145833332464
        },
        {
          "name": "C2",
          "midi": 36,
          "time": 294.66126249999445,
          "velocity": 1,
          "duration": 0.12288145833332464
        },
        {
          "name": "C2",
          "midi": 36,
          "time": 294.91549999999444,
          "velocity": 1,
          "duration": 0.12288145833332464
        },
        {
          "name": "C2",
          "midi": 36,
          "time": 295.29685624999445,
          "velocity": 1,
          "duration": 0.12288145833332464
        },
        {
          "name": "D2",
          "midi": 38,
          "time": 295.4239749999944,
          "velocity": 1,
          "duration": 0.12288145833332464
        },
        {
          "name": "C2",
          "midi": 36,
          "time": 295.6782124999944,
          "velocity": 1,
          "duration": 0.12288145833332464
        },
        {
          "name": "C2",
          "midi": 36,
          "time": 295.9324499999944,
          "velocity": 1,
          "duration": 0.12288145833332464
        },
        {
          "name": "C2",
          "midi": 36,
          "time": 296.3138062499944,
          "velocity": 1,
          "duration": 0.12288145833332464
        },
        {
          "name": "D2",
          "midi": 38,
          "time": 296.44092499999437,
          "velocity": 1,
          "duration": 0.12288145833332464
        },
        {
          "name": "C2",
          "midi": 36,
          "time": 296.69516249999435,
          "velocity": 1,
          "duration": 0.12288145833332464
        },
        {
          "name": "C2",
          "midi": 36,
          "time": 296.94939999999434,
          "velocity": 1,
          "duration": 0.12288145833332464
        },
        {
          "name": "C2",
          "midi": 36,
          "time": 297.33075624999435,
          "velocity": 1,
          "duration": 0.12288145833332464
        },
        {
          "name": "D2",
          "midi": 38,
          "time": 297.4578749999943,
          "velocity": 1,
          "duration": 0.12288145833332464
        },
        {
          "name": "C2",
          "midi": 36,
          "time": 297.7121124999943,
          "velocity": 1,
          "duration": 0.12288145833332464
        },
        {
          "name": "C2",
          "midi": 36,
          "time": 297.9663499999943,
          "velocity": 1,
          "duration": 0.12288145833332464
        },
        {
          "name": "C2",
          "midi": 36,
          "time": 298.3477062499943,
          "velocity": 1,
          "duration": 0.12288145833332464
        },
        {
          "name": "D2",
          "midi": 38,
          "time": 298.47482499999427,
          "velocity": 1,
          "duration": 0.12288145833332464
        },
        {
          "name": "C2",
          "midi": 36,
          "time": 298.72906249999426,
          "velocity": 1,
          "duration": 0.12288145833332464
        },
        {
          "name": "D2",
          "midi": 38,
          "time": 298.98329999999424,
          "velocity": 1,
          "duration": 0.2542374999999879
        },
        {
          "name": "C2",
          "midi": 36,
          "time": 299.23753749999423,
          "velocity": 1,
          "duration": 0.2542374999999879
        },
        {
          "name": "C2",
          "midi": 36,
          "time": 299.61889374999424,
          "velocity": 1,
          "duration": 0.12711875000002237
        },
        {
          "name": "C2",
          "midi": 36,
          "time": 300.00024999999425,
          "velocity": 1,
          "duration": 0.2542374999999879
        },
        {
          "name": "C2",
          "midi": 36,
          "time": 300.25448749999424,
          "velocity": 0.9448818897637795,
          "duration": 0.12288145833332464
        },
        {
          "name": "C2",
          "midi": 36,
          "time": 300.3816062499942,
          "velocity": 0.968503937007874,
          "duration": 0.12288145833332464
        },
        {
          "name": "D2",
          "midi": 38,
          "time": 300.5087249999942,
          "velocity": 1,
          "duration": 0.3813562500000103
        },
        {
          "name": "C2",
          "midi": 36,
          "time": 301.0171999999942,
          "velocity": 1,
          "duration": 0.12288145833332464
        },
        {
          "name": "C2",
          "midi": 36,
          "time": 301.39855624999416,
          "velocity": 1,
          "duration": 0.12288145833332464
        },
        {
          "name": "D2",
          "midi": 38,
          "time": 301.5256749999941,
          "velocity": 1,
          "duration": 0.12288145833332464
        },
        {
          "name": "C2",
          "midi": 36,
          "time": 301.7799124999941,
          "velocity": 1,
          "duration": 0.12288145833332464
        },
        {
          "name": "C2",
          "midi": 36,
          "time": 302.0341499999941,
          "velocity": 1,
          "duration": 0.12288145833332464
        },
        {
          "name": "C2",
          "midi": 36,
          "time": 302.41550624999405,
          "velocity": 1,
          "duration": 0.12288145833332464
        },
        {
          "name": "D2",
          "midi": 38,
          "time": 302.542624999994,
          "velocity": 1,
          "duration": 0.12288145833332464
        },
        {
          "name": "C2",
          "midi": 36,
          "time": 302.796862499994,
          "velocity": 1,
          "duration": 0.12288145833332464
        },
        {
          "name": "C2",
          "midi": 36,
          "time": 303.051099999994,
          "velocity": 1,
          "duration": 0.12288145833332464
        },
        {
          "name": "C2",
          "midi": 36,
          "time": 303.432456249994,
          "velocity": 1,
          "duration": 0.12288145833338149
        },
        {
          "name": "D2",
          "midi": 38,
          "time": 303.559574999994,
          "velocity": 1,
          "duration": 0.12288145833332464
        },
        {
          "name": "C2",
          "midi": 36,
          "time": 303.813812499994,
          "velocity": 1,
          "duration": 0.12288145833332464
        },
        {
          "name": "C2",
          "midi": 36,
          "time": 304.068049999994,
          "velocity": 1,
          "duration": 0.12288145833332464
        },
        {
          "name": "C2",
          "midi": 36,
          "time": 304.449406249994,
          "velocity": 1,
          "duration": 0.12288145833332464
        },
        {
          "name": "D2",
          "midi": 38,
          "time": 304.576524999994,
          "velocity": 1,
          "duration": 0.12288145833338149
        },
        {
          "name": "C2",
          "midi": 36,
          "time": 304.830762499994,
          "velocity": 1,
          "duration": 0.12288145833332464
        },
        {
          "name": "C2",
          "midi": 36,
          "time": 305.084999999994,
          "velocity": 1,
          "duration": 0.12288145833332464
        },
        {
          "name": "C2",
          "midi": 36,
          "time": 305.466356249994,
          "velocity": 1,
          "duration": 0.12288145833332464
        },
        {
          "name": "D2",
          "midi": 38,
          "time": 305.593474999994,
          "velocity": 1,
          "duration": 0.12288145833338149
        },
        {
          "name": "C2",
          "midi": 36,
          "time": 305.84771249999403,
          "velocity": 1,
          "duration": 0.12288145833332464
        },
        {
          "name": "C2",
          "midi": 36,
          "time": 306.1019499999941,
          "velocity": 1,
          "duration": 0.12288145833332464
        },
        {
          "name": "C2",
          "midi": 36,
          "time": 306.4833062499941,
          "velocity": 1,
          "duration": 0.12288145833332464
        },
        {
          "name": "D2",
          "midi": 38,
          "time": 306.61042499999405,
          "velocity": 1,
          "duration": 0.12288145833332464
        },
        {
          "name": "C2",
          "midi": 36,
          "time": 306.86466249999404,
          "velocity": 1,
          "duration": 0.12288145833332464
        },
        {
          "name": "C2",
          "midi": 36,
          "time": 307.118899999994,
          "velocity": 1,
          "duration": 0.12288145833332464
        },
        {
          "name": "C2",
          "midi": 36,
          "time": 307.500256249994,
          "velocity": 1,
          "duration": 0.12288145833332464
        },
        {
          "name": "D2",
          "midi": 38,
          "time": 307.62737499999395,
          "velocity": 1,
          "duration": 0.12288145833332464
        },
        {
          "name": "C2",
          "midi": 36,
          "time": 307.88161249999393,
          "velocity": 1,
          "duration": 0.12288145833332464
        },
        {
          "name": "C2",
          "midi": 36,
          "time": 308.1358499999939,
          "velocity": 1,
          "duration": 0.12288145833332464
        },
        {
          "name": "C2",
          "midi": 36,
          "time": 308.5172062499939,
          "velocity": 1,
          "duration": 0.12288145833332464
        },
        {
          "name": "D2",
          "midi": 38,
          "time": 308.64432499999384,
          "velocity": 1,
          "duration": 0.12288145833332464
        },
        {
          "name": "C2",
          "midi": 36,
          "time": 308.89856249999383,
          "velocity": 1,
          "duration": 0.12288145833332464
        },
        {
          "name": "C2",
          "midi": 36,
          "time": 309.1527999999938,
          "velocity": 1,
          "duration": 0.12288145833332464
        },
        {
          "name": "C2",
          "midi": 36,
          "time": 309.5341562499938,
          "velocity": 1,
          "duration": 0.12288145833332464
        },
        {
          "name": "D2",
          "midi": 38,
          "time": 309.6612749999938,
          "velocity": 1,
          "duration": 0.12288145833332464
        },
        {
          "name": "C2",
          "midi": 36,
          "time": 309.9155124999938,
          "velocity": 1,
          "duration": 0.12288145833332464
        },
        {
          "name": "C2",
          "midi": 36,
          "time": 310.16974999999377,
          "velocity": 1,
          "duration": 0.12288145833332464
        },
        {
          "name": "C2",
          "midi": 36,
          "time": 310.5511062499938,
          "velocity": 1,
          "duration": 0.12288145833332464
        },
        {
          "name": "D2",
          "midi": 38,
          "time": 310.67822499999374,
          "velocity": 1,
          "duration": 0.12288145833332464
        },
        {
          "name": "C2",
          "midi": 36,
          "time": 310.93246249999373,
          "velocity": 1,
          "duration": 0.12288145833332464
        },
        {
          "name": "C2",
          "midi": 36,
          "time": 311.1866999999937,
          "velocity": 1,
          "duration": 0.12288145833332464
        },
        {
          "name": "C2",
          "midi": 36,
          "time": 311.56805624999373,
          "velocity": 1,
          "duration": 0.12288145833332464
        },
        {
          "name": "D2",
          "midi": 38,
          "time": 311.6951749999937,
          "velocity": 1,
          "duration": 0.12288145833338149
        },
        {
          "name": "C2",
          "midi": 36,
          "time": 311.94941249999374,
          "velocity": 1,
          "duration": 0.12288145833332464
        },
        {
          "name": "C2",
          "midi": 36,
          "time": 312.2036499999938,
          "velocity": 1,
          "duration": 0.12288145833332464
        },
        {
          "name": "C2",
          "midi": 36,
          "time": 312.5850062499938,
          "velocity": 1,
          "duration": 0.12288145833332464
        },
        {
          "name": "D2",
          "midi": 38,
          "time": 312.71212499999376,
          "velocity": 1,
          "duration": 0.12288145833332464
        },
        {
          "name": "C2",
          "midi": 36,
          "time": 312.96636249999375,
          "velocity": 1,
          "duration": 0.12288145833332464
        },
        {
          "name": "C2",
          "midi": 36,
          "time": 313.22059999999374,
          "velocity": 1,
          "duration": 0.12288145833332464
        },
        {
          "name": "C2",
          "midi": 36,
          "time": 313.6019562499937,
          "velocity": 1,
          "duration": 0.12288145833332464
        },
        {
          "name": "D2",
          "midi": 38,
          "time": 313.72907499999366,
          "velocity": 1,
          "duration": 0.12288145833332464
        },
        {
          "name": "C2",
          "midi": 36,
          "time": 313.98331249999364,
          "velocity": 1,
          "duration": 0.12288145833332464
        },
        {
          "name": "C2",
          "midi": 36,
          "time": 314.23754999999363,
          "velocity": 1,
          "duration": 0.12288145833338149
        },
        {
          "name": "C2",
          "midi": 36,
          "time": 314.61890624999364,
          "velocity": 1,
          "duration": 0.12288145833332464
        },
        {
          "name": "D2",
          "midi": 38,
          "time": 314.7460249999936,
          "velocity": 1,
          "duration": 0.12288145833332464
        },
        {
          "name": "C2",
          "midi": 36,
          "time": 315.0002624999936,
          "velocity": 1,
          "duration": 0.12288145833338149
        },
        {
          "name": "C2",
          "midi": 36,
          "time": 315.25449999999364,
          "velocity": 1,
          "duration": 0.12288145833332464
        },
        {
          "name": "C2",
          "midi": 36,
          "time": 315.63585624999365,
          "velocity": 1,
          "duration": 0.12288145833332464
        },
        {
          "name": "D2",
          "midi": 38,
          "time": 315.7629749999936,
          "velocity": 1,
          "duration": 0.12288145833332464
        },
        {
          "name": "C2",
          "midi": 36,
          "time": 316.0172124999936,
          "velocity": 1,
          "duration": 0.12288145833332464
        },
        {
          "name": "C2",
          "midi": 36,
          "time": 316.2714499999936,
          "velocity": 1,
          "duration": 0.12288145833332464
        },
        {
          "name": "C2",
          "midi": 36,
          "time": 316.6528062499936,
          "velocity": 1,
          "duration": 0.12288145833332464
        },
        {
          "name": "D2",
          "midi": 38,
          "time": 316.77992499999357,
          "velocity": 1,
          "duration": 0.12288145833332464
        },
        {
          "name": "C2",
          "midi": 36,
          "time": 317.03416249999356,
          "velocity": 1,
          "duration": 0.12288145833332464
        },
        {
          "name": "C2",
          "midi": 36,
          "time": 317.28839999999354,
          "velocity": 1,
          "duration": 0.12288145833332464
        },
        {
          "name": "C2",
          "midi": 36,
          "time": 317.66975624999355,
          "velocity": 1,
          "duration": 0.12288145833332464
        },
        {
          "name": "D2",
          "midi": 38,
          "time": 317.7968749999935,
          "velocity": 1,
          "duration": 0.12288145833332464
        },
        {
          "name": "C2",
          "midi": 36,
          "time": 318.0511124999935,
          "velocity": 1,
          "duration": 0.12288145833332464
        },
        {
          "name": "C2",
          "midi": 36,
          "time": 318.3053499999935,
          "velocity": 1,
          "duration": 0.12288145833332464
        },
        {
          "name": "C2",
          "midi": 36,
          "time": 318.6867062499935,
          "velocity": 1,
          "duration": 0.12288145833332464
        },
        {
          "name": "D2",
          "midi": 38,
          "time": 318.81382499999347,
          "velocity": 1,
          "duration": 0.12288145833332464
        },
        {
          "name": "C2",
          "midi": 36,
          "time": 319.06806249999346,
          "velocity": 1,
          "duration": 0.12288145833332464
        },
        {
          "name": "C2",
          "midi": 36,
          "time": 319.32229999999345,
          "velocity": 1,
          "duration": 0.12288145833332464
        },
        {
          "name": "C2",
          "midi": 36,
          "time": 319.7036562499934,
          "velocity": 1,
          "duration": 0.12288145833332464
        },
        {
          "name": "D2",
          "midi": 38,
          "time": 319.83077499999337,
          "velocity": 1,
          "duration": 0.12288145833332464
        },
        {
          "name": "C2",
          "midi": 36,
          "time": 320.08501249999335,
          "velocity": 1,
          "duration": 0.12288145833332464
        },
        {
          "name": "C2",
          "midi": 36,
          "time": 320.33924999999334,
          "velocity": 1,
          "duration": 0.12288145833338149
        },
        {
          "name": "C2",
          "midi": 36,
          "time": 320.72060624999335,
          "velocity": 1,
          "duration": 0.12288145833332464
        },
        {
          "name": "D2",
          "midi": 38,
          "time": 320.8477249999933,
          "velocity": 1,
          "duration": 0.12288145833332464
        },
        {
          "name": "C2",
          "midi": 36,
          "time": 321.1019624999933,
          "velocity": 1,
          "duration": 0.12288145833338149
        },
        {
          "name": "C2",
          "midi": 36,
          "time": 321.35619999999335,
          "velocity": 1,
          "duration": 0.12288145833332464
        },
        {
          "name": "C2",
          "midi": 36,
          "time": 321.7375562499933,
          "velocity": 1,
          "duration": 0.12288145833332464
        },
        {
          "name": "D2",
          "midi": 38,
          "time": 321.86467499999327,
          "velocity": 1,
          "duration": 0.12288145833332464
        },
        {
          "name": "C2",
          "midi": 36,
          "time": 322.11891249999326,
          "velocity": 1,
          "duration": 0.12288145833338149
        },
        {
          "name": "C2",
          "midi": 36,
          "time": 322.3731499999933,
          "velocity": 1,
          "duration": 0.12288145833332464
        },
        {
          "name": "C2",
          "midi": 36,
          "time": 322.7545062499933,
          "velocity": 1,
          "duration": 0.12288145833332464
        },
        {
          "name": "D2",
          "midi": 38,
          "time": 322.8816249999933,
          "velocity": 1,
          "duration": 0.12288145833332464
        },
        {
          "name": "C2",
          "midi": 36,
          "time": 323.13586249999327,
          "velocity": 1,
          "duration": 0.12288145833332464
        },
        {
          "name": "D2",
          "midi": 38,
          "time": 323.39009999999325,
          "velocity": 1,
          "duration": 0.2542374999999879
        },
        {
          "name": "C2",
          "midi": 36,
          "time": 323.64433749999324,
          "velocity": 1,
          "duration": 0.25423750000004475
        },
        {
          "name": "C2",
          "midi": 36,
          "time": 324.0256937499933,
          "velocity": 1,
          "duration": 0.12711875000002237
        },
        {
          "name": "C2",
          "midi": 36,
          "time": 324.4070499999933,
          "velocity": 1,
          "duration": 0.25423749999993106
        },
        {
          "name": "C2",
          "midi": 36,
          "time": 324.66128749999325,
          "velocity": 0.9448818897637795,
          "duration": 0.12288145833332464
        },
        {
          "name": "C2",
          "midi": 36,
          "time": 324.7884062499932,
          "velocity": 0.968503937007874,
          "duration": 0.12288145833332464
        },
        {
          "name": "D2",
          "midi": 38,
          "time": 324.9155249999932,
          "velocity": 1,
          "duration": 0.3813562500000103
        }
      ],
      "controlChanges": {
        "7": [
          {
            "number": 7,
            "time": 0.711865,
            "value": 1
          },
          {
            "number": 7,
            "time": 301.0171999999942,
            "value": 1
          },
          {
            "number": 7,
            "time": 301.2078781249942,
            "value": 0.9921259842519685
          },
          {
            "number": 7,
            "time": 301.39855624999416,
            "value": 0.984251968503937
          },
          {
            "number": 7,
            "time": 301.5934716666608,
            "value": 0.9763779527559056
          },
          {
            "number": 7,
            "time": 301.78414979166075,
            "value": 0.968503937007874
          },
          {
            "number": 7,
            "time": 301.9748279166608,
            "value": 0.9606299212598425
          },
          {
            "number": 7,
            "time": 302.1697433333274,
            "value": 0.952755905511811
          },
          {
            "number": 7,
            "time": 302.3604214583274,
            "value": 0.9448818897637795
          },
          {
            "number": 7,
            "time": 302.55109958332736,
            "value": 0.937007874015748
          },
          {
            "number": 7,
            "time": 302.74601499999403,
            "value": 0.9291338582677166
          },
          {
            "number": 7,
            "time": 302.936693124994,
            "value": 0.9212598425196851
          },
          {
            "number": 7,
            "time": 303.127371249994,
            "value": 0.9133858267716536
          },
          {
            "number": 7,
            "time": 303.32228666666066,
            "value": 0.905511811023622
          },
          {
            "number": 7,
            "time": 303.5129647916607,
            "value": 0.8976377952755905
          },
          {
            "number": 7,
            "time": 303.70364291666067,
            "value": 0.889763779527559
          },
          {
            "number": 7,
            "time": 303.89855833332734,
            "value": 0.8818897637795275
          },
          {
            "number": 7,
            "time": 304.0892364583273,
            "value": 0.8740157480314961
          },
          {
            "number": 7,
            "time": 304.27991458332735,
            "value": 0.8661417322834646
          },
          {
            "number": 7,
            "time": 304.47482999999403,
            "value": 0.8582677165354331
          },
          {
            "number": 7,
            "time": 304.665508124994,
            "value": 0.8503937007874016
          },
          {
            "number": 7,
            "time": 304.85618624999404,
            "value": 0.84251968503937
          },
          {
            "number": 7,
            "time": 305.05110166666066,
            "value": 0.8346456692913385
          },
          {
            "number": 7,
            "time": 305.2417797916607,
            "value": 0.8267716535433071
          },
          {
            "number": 7,
            "time": 305.43245791666067,
            "value": 0.8188976377952756
          },
          {
            "number": 7,
            "time": 305.62737333332734,
            "value": 0.8110236220472441
          },
          {
            "number": 7,
            "time": 305.8180514583274,
            "value": 0.8031496062992126
          },
          {
            "number": 7,
            "time": 306.01296687499405,
            "value": 0.7952755905511811
          },
          {
            "number": 7,
            "time": 306.2036449999941,
            "value": 0.7874015748031497
          },
          {
            "number": 7,
            "time": 306.39432312499406,
            "value": 0.7795275590551181
          },
          {
            "number": 7,
            "time": 306.58923854166073,
            "value": 0.7716535433070866
          },
          {
            "number": 7,
            "time": 306.7799166666607,
            "value": 0.7637795275590551
          },
          {
            "number": 7,
            "time": 306.9705947916607,
            "value": 0.7559055118110236
          },
          {
            "number": 7,
            "time": 307.16551020832736,
            "value": 0.7480314960629921
          },
          {
            "number": 7,
            "time": 307.35618833332734,
            "value": 0.7401574803149606
          },
          {
            "number": 7,
            "time": 307.5468664583273,
            "value": 0.7322834645669292
          },
          {
            "number": 7,
            "time": 307.74178187499393,
            "value": 0.7244094488188977
          },
          {
            "number": 7,
            "time": 307.9324599999939,
            "value": 0.7165354330708661
          },
          {
            "number": 7,
            "time": 308.12313812499394,
            "value": 0.7086614173228346
          },
          {
            "number": 7,
            "time": 308.31805354166056,
            "value": 0.7007874015748031
          },
          {
            "number": 7,
            "time": 308.50873166666054,
            "value": 0.6929133858267716
          },
          {
            "number": 7,
            "time": 308.6994097916605,
            "value": 0.6850393700787402
          },
          {
            "number": 7,
            "time": 308.8943252083272,
            "value": 0.6771653543307087
          },
          {
            "number": 7,
            "time": 309.08500333332717,
            "value": 0.6692913385826772
          },
          {
            "number": 7,
            "time": 309.27568145832714,
            "value": 0.6614173228346457
          },
          {
            "number": 7,
            "time": 309.4705968749938,
            "value": 0.6535433070866141
          },
          {
            "number": 7,
            "time": 309.6612749999938,
            "value": 0.6456692913385826
          },
          {
            "number": 7,
            "time": 309.85195312499377,
            "value": 0.6377952755905512
          },
          {
            "number": 7,
            "time": 310.04686854166044,
            "value": 0.6299212598425197
          },
          {
            "number": 7,
            "time": 310.2375466666604,
            "value": 0.6220472440944882
          },
          {
            "number": 7,
            "time": 310.42822479166045,
            "value": 0.6141732283464567
          },
          {
            "number": 7,
            "time": 310.62314020832713,
            "value": 0.6062992125984252
          },
          {
            "number": 7,
            "time": 310.81381833332705,
            "value": 0.5984251968503937
          },
          {
            "number": 7,
            "time": 311.0087337499937,
            "value": 0.5905511811023622
          },
          {
            "number": 7,
            "time": 311.1994118749937,
            "value": 0.5826771653543307
          },
          {
            "number": 7,
            "time": 311.39008999999373,
            "value": 0.5748031496062992
          },
          {
            "number": 7,
            "time": 311.5850054166604,
            "value": 0.5669291338582677
          },
          {
            "number": 7,
            "time": 311.7756835416604,
            "value": 0.5590551181102362
          },
          {
            "number": 7,
            "time": 311.9663616666604,
            "value": 0.5511811023622047
          },
          {
            "number": 7,
            "time": 312.1612770833271,
            "value": 0.5433070866141733
          },
          {
            "number": 7,
            "time": 312.3519552083271,
            "value": 0.5354330708661418
          },
          {
            "number": 7,
            "time": 312.5426333333271,
            "value": 0.5275590551181102
          },
          {
            "number": 7,
            "time": 312.7375487499938,
            "value": 0.5196850393700787
          },
          {
            "number": 7,
            "time": 312.92822687499375,
            "value": 0.5118110236220472
          },
          {
            "number": 7,
            "time": 313.11890499999373,
            "value": 0.5039370078740157
          },
          {
            "number": 7,
            "time": 313.3138204166604,
            "value": 0.49606299212598426
          },
          {
            "number": 7,
            "time": 313.5044985416604,
            "value": 0.4881889763779528
          },
          {
            "number": 7,
            "time": 313.69517666666036,
            "value": 0.48031496062992124
          },
          {
            "number": 7,
            "time": 313.890092083327,
            "value": 0.47244094488188976
          },
          {
            "number": 7,
            "time": 314.08077020832695,
            "value": 0.4645669291338583
          },
          {
            "number": 7,
            "time": 314.271448333327,
            "value": 0.4566929133858268
          },
          {
            "number": 7,
            "time": 314.46636374999366,
            "value": 0.44881889763779526
          },
          {
            "number": 7,
            "time": 314.65704187499364,
            "value": 0.4409448818897638
          },
          {
            "number": 7,
            "time": 314.8477199999936,
            "value": 0.4330708661417323
          },
          {
            "number": 7,
            "time": 315.0426354166603,
            "value": 0.4251968503937008
          },
          {
            "number": 7,
            "time": 315.2333135416603,
            "value": 0.41732283464566927
          },
          {
            "number": 7,
            "time": 315.4239916666603,
            "value": 0.4094488188976378
          },
          {
            "number": 7,
            "time": 315.618907083327,
            "value": 0.4015748031496063
          },
          {
            "number": 7,
            "time": 315.80958520832695,
            "value": 0.3937007874015748
          },
          {
            "number": 7,
            "time": 316.0045006249936,
            "value": 0.3858267716535433
          },
          {
            "number": 7,
            "time": 316.1951787499936,
            "value": 0.3779527559055118
          },
          {
            "number": 7,
            "time": 316.3858568749936,
            "value": 0.3700787401574803
          },
          {
            "number": 7,
            "time": 316.58077229166025,
            "value": 0.36220472440944884
          },
          {
            "number": 7,
            "time": 316.7714504166603,
            "value": 0.3543307086614173
          },
          {
            "number": 7,
            "time": 316.9621285416602,
            "value": 0.3464566929133858
          },
          {
            "number": 7,
            "time": 317.1570439583269,
            "value": 0.33858267716535434
          },
          {
            "number": 7,
            "time": 317.34772208332686,
            "value": 0.33070866141732286
          },
          {
            "number": 7,
            "time": 317.5384002083269,
            "value": 0.3228346456692913
          },
          {
            "number": 7,
            "time": 317.73331562499357,
            "value": 0.31496062992125984
          },
          {
            "number": 7,
            "time": 317.9239937499935,
            "value": 0.30708661417322836
          },
          {
            "number": 7,
            "time": 318.1146718749935,
            "value": 0.2992125984251969
          },
          {
            "number": 7,
            "time": 318.30958729166014,
            "value": 0.29133858267716534
          },
          {
            "number": 7,
            "time": 318.50026541666017,
            "value": 0.28346456692913385
          },
          {
            "number": 7,
            "time": 318.69094354166015,
            "value": 0.2755905511811024
          },
          {
            "number": 7,
            "time": 318.8858589583268,
            "value": 0.2677165354330709
          },
          {
            "number": 7,
            "time": 319.0765370833268,
            "value": 0.25984251968503935
          },
          {
            "number": 7,
            "time": 319.2672152083268,
            "value": 0.25196850393700787
          },
          {
            "number": 7,
            "time": 319.46213062499345,
            "value": 0.2440944881889764
          },
          {
            "number": 7,
            "time": 319.6528087499934,
            "value": 0.23622047244094488
          },
          {
            "number": 7,
            "time": 319.84348687499335,
            "value": 0.2283464566929134
          },
          {
            "number": 7,
            "time": 320.03840229166,
            "value": 0.2204724409448819
          },
          {
            "number": 7,
            "time": 320.22908041666,
            "value": 0.2125984251968504
          },
          {
            "number": 7,
            "time": 320.41975854166003,
            "value": 0.2047244094488189
          },
          {
            "number": 7,
            "time": 320.6146739583267,
            "value": 0.1968503937007874
          },
          {
            "number": 7,
            "time": 320.8053520833267,
            "value": 0.1889763779527559
          },
          {
            "number": 7,
            "time": 321.0002674999933,
            "value": 0.18110236220472442
          },
          {
            "number": 7,
            "time": 321.19094562499333,
            "value": 0.1732283464566929
          },
          {
            "number": 7,
            "time": 321.38162374999337,
            "value": 0.16535433070866143
          },
          {
            "number": 7,
            "time": 321.57653916666,
            "value": 0.15748031496062992
          },
          {
            "number": 7,
            "time": 321.76721729165996,
            "value": 0.14960629921259844
          },
          {
            "number": 7,
            "time": 321.95789541665994,
            "value": 0.14173228346456693
          },
          {
            "number": 7,
            "time": 322.1528108333266,
            "value": 0.13385826771653545
          },
          {
            "number": 7,
            "time": 322.34348895832665,
            "value": 0.12598425196850394
          },
          {
            "number": 7,
            "time": 322.5341670833266,
            "value": 0.11811023622047244
          },
          {
            "number": 7,
            "time": 322.7290824999933,
            "value": 0.11023622047244094
          },
          {
            "number": 7,
            "time": 322.9197606249933,
            "value": 0.10236220472440945
          },
          {
            "number": 7,
            "time": 323.11043874999325,
            "value": 0.09448818897637795
          },
          {
            "number": 7,
            "time": 323.3053541666599,
            "value": 0.08661417322834646
          },
          {
            "number": 7,
            "time": 323.4960322916599,
            "value": 0.07874015748031496
          },
          {
            "number": 7,
            "time": 323.68671041665993,
            "value": 0.07086614173228346
          },
          {
            "number": 7,
            "time": 323.8816258333266,
            "value": 0.06299212598425197
          },
          {
            "number": 7,
            "time": 324.07230395832664,
            "value": 0.05511811023622047
          },
          {
            "number": 7,
            "time": 324.2629820833267,
            "value": 0.047244094488188976
          },
          {
            "number": 7,
            "time": 324.4578974999933,
            "value": 0.03937007874015748
          },
          {
            "number": 7,
            "time": 324.64857562499327,
            "value": 0.031496062992125984
          },
          {
            "number": 7,
            "time": 324.8392537499932,
            "value": 0.023622047244094488
          },
          {
            "number": 7,
            "time": 325.03416916665986,
            "value": 0.015748031496062992
          },
          {
            "number": 7,
            "time": 325.22484729165984,
            "value": 0.007874015748031496
          },
          {
            "number": 7,
            "time": 325.4197627083265,
            "value": 0
          }
        ],
        "91": [
          {
            "number": 91,
            "time": 1.01695,
            "value": 1
          }
        ]
      },
      "id": 14,
      "name": "drums",
      "channelNumber": 9,
      "isPercussion": true
    }
  ]
}