{
  "header": {
    "PPQ": 240,
    "timeSignature": [
      4,
      4
    ],
    "bpm": 160,
    "name": ""
  },
  "tempo": [
    {
      "absoluteTime": 0,
      "seconds": 0,
      "bpm": 160
    }
  ],
  "timeSignature": [
    {
      "absoluteTime": 0,
      "seconds": 0,
      "numerator": 4,
      "denominator": 2,
      "click": 24,
      "notesQ": 8
    }
  ],
  "startTime": 0,
  "duration": 199.80000000000118,
  "tracks": [
    {
      "startTime": 0,
      "duration": 0,
      "length": 0,
      "notes": [],
      "controlChanges": {},
      "id": 0
    },
    {
      "startTime": 12,
      "duration": 199.8,
      "length": 357,
      "notes": [
        {
          "name": "A4",
          "midi": 69,
          "time": 12,
          "velocity": 0.7874015748031497,
          "duration": 1.4250000000000007
        },
        {
          "name": "F5",
          "midi": 77,
          "time": 12,
          "velocity": 0.7874015748031497,
          "duration": 1.4250000000000007
        },
        {
          "name": "C5",
          "midi": 72,
          "time": 13.5,
          "velocity": 0.7874015748031497,
          "duration": 1.0687499999999996
        },
        {
          "name": "E5",
          "midi": 76,
          "time": 13.5,
          "velocity": 0.7874015748031497,
          "duration": 1.0687499999999996
        },
        {
          "name": "A#4",
          "midi": 70,
          "time": 14.625,
          "velocity": 0.7874015748031497,
          "duration": 0.1875
        },
        {
          "name": "D5",
          "midi": 74,
          "time": 14.625,
          "velocity": 0.7874015748031497,
          "duration": 0.1875
        },
        {
          "name": "F4",
          "midi": 65,
          "time": 15,
          "velocity": 0.7874015748031497,
          "duration": 1.4250000000000007
        },
        {
          "name": "C5",
          "midi": 72,
          "time": 15,
          "velocity": 0.7874015748031497,
          "duration": 2.4281250000000014
        },
        {
          "name": "D4",
          "midi": 62,
          "time": 16.5,
          "velocity": 0.7874015748031497,
          "duration": 0.9281250000000014
        },
        {
          "name": "A#4",
          "midi": 70,
          "time": 17.4375,
          "velocity": 0.7874015748031497,
          "duration": 0.5062500000000014
        },
        {
          "name": "E4",
          "midi": 64,
          "time": 17.4375,
          "velocity": 0.7874015748031497,
          "duration": 0.5062500000000014
        },
        {
          "name": "F4",
          "midi": 65,
          "time": 18,
          "velocity": 0.7874015748031497,
          "duration": 1.0796874999999986
        },
        {
          "name": "A4",
          "midi": 69,
          "time": 18,
          "velocity": 0.7874015748031497,
          "duration": 1.0796874999999986
        },
        {
          "name": "F4",
          "midi": 65,
          "time": 19.125,
          "velocity": 0.7874015748031497,
          "duration": 0.1875
        },
        {
          "name": "A4",
          "midi": 69,
          "time": 19.125,
          "velocity": 0.7874015748031497,
          "duration": 0.1875
        },
        {
          "name": "C4",
          "midi": 60,
          "time": 19.5,
          "velocity": 0.7874015748031497,
          "duration": 1.0796874999999986
        },
        {
          "name": "G4",
          "midi": 67,
          "time": 19.5,
          "velocity": 0.7874015748031497,
          "duration": 1.0796874999999986
        },
        {
          "name": "G4",
          "midi": 67,
          "time": 20.625,
          "velocity": 0.7874015748031497,
          "duration": 0.09375
        },
        {
          "name": "C4",
          "midi": 60,
          "time": 20.625,
          "velocity": 0.7874015748031497,
          "duration": 0.09375
        },
        {
          "name": "F4",
          "midi": 65,
          "time": 20.8125,
          "velocity": 0.7874015748031497,
          "duration": 0.09375
        },
        {
          "name": "A3",
          "midi": 57,
          "time": 20.8125,
          "velocity": 0.7874015748031497,
          "duration": 0.09375
        },
        {
          "name": "A3",
          "midi": 57,
          "time": 21,
          "velocity": 0.7874015748031497,
          "duration": 1.1999999999999993
        },
        {
          "name": "F4",
          "midi": 65,
          "time": 21,
          "velocity": 0.7874015748031497,
          "duration": 1.1999999999999993
        },
        {
          "name": "C5",
          "midi": 72,
          "time": 29.4375,
          "velocity": 0.7874015748031497,
          "duration": 0.4499999999999993
        },
        {
          "name": "E4",
          "midi": 64,
          "time": 29.4375,
          "velocity": 0.7874015748031497,
          "duration": 0.4499999999999993
        },
        {
          "name": "F4",
          "midi": 65,
          "time": 30,
          "velocity": 0.7874015748031497,
          "duration": 1.0687500000000014
        },
        {
          "name": "D5",
          "midi": 74,
          "time": 30,
          "velocity": 0.7874015748031497,
          "duration": 1.0687500000000014
        },
        {
          "name": "F4",
          "midi": 65,
          "time": 31.125,
          "velocity": 0.7874015748031497,
          "duration": 0.1875
        },
        {
          "name": "D5",
          "midi": 74,
          "time": 31.125,
          "velocity": 0.7874015748031497,
          "duration": 0.1875
        },
        {
          "name": "G4",
          "midi": 67,
          "time": 31.5,
          "velocity": 0.7874015748031497,
          "duration": 1.0687500000000014
        },
        {
          "name": "E5",
          "midi": 76,
          "time": 31.5,
          "velocity": 0.7874015748031497,
          "duration": 1.0687500000000014
        },
        {
          "name": "G4",
          "midi": 67,
          "time": 32.625,
          "velocity": 0.7874015748031497,
          "duration": 0.09375
        },
        {
          "name": "E5",
          "midi": 76,
          "time": 32.625,
          "velocity": 0.7874015748031497,
          "duration": 0.09375
        },
        {
          "name": "F5",
          "midi": 77,
          "time": 32.8125,
          "velocity": 0.7874015748031497,
          "duration": 0.09375
        },
        {
          "name": "A4",
          "midi": 69,
          "time": 32.8125,
          "velocity": 0.7874015748031497,
          "duration": 0.09375
        },
        {
          "name": "A4",
          "midi": 69,
          "time": 33,
          "velocity": 0.7874015748031497,
          "duration": 1.2000000000000028
        },
        {
          "name": "F5",
          "midi": 77,
          "time": 33,
          "velocity": 0.7874015748031497,
          "duration": 1.2000000000000028
        },
        {
          "name": "C5",
          "midi": 72,
          "time": 36,
          "velocity": 1,
          "duration": 1.4249999999999972
        },
        {
          "name": "G#5",
          "midi": 80,
          "time": 36,
          "velocity": 1,
          "duration": 1.4249999999999972
        },
        {
          "name": "G5",
          "midi": 79,
          "time": 37.5,
          "velocity": 1,
          "duration": 1.0687500000000014
        },
        {
          "name": "D#5",
          "midi": 75,
          "time": 37.5,
          "velocity": 1,
          "duration": 1.0687500000000014
        },
        {
          "name": "F5",
          "midi": 77,
          "time": 38.625,
          "velocity": 1,
          "duration": 0.1875
        },
        {
          "name": "C#5",
          "midi": 73,
          "time": 38.625,
          "velocity": 1,
          "duration": 0.1875
        },
        {
          "name": "D#5",
          "midi": 75,
          "time": 39,
          "velocity": 1,
          "duration": 2.4281250000000014
        },
        {
          "name": "G#4",
          "midi": 68,
          "time": 39,
          "velocity": 1,
          "duration": 1.4249999999999972
        },
        {
          "name": "F4",
          "midi": 65,
          "time": 40.5,
          "velocity": 1,
          "duration": 0.9281250000000014
        },
        {
          "name": "G4",
          "midi": 67,
          "time": 41.4375,
          "velocity": 1,
          "duration": 0.45000000000000284
        },
        {
          "name": "C#5",
          "midi": 73,
          "time": 41.4375,
          "velocity": 1,
          "duration": 0.45000000000000284
        },
        {
          "name": "G#4",
          "midi": 68,
          "time": 42,
          "velocity": 1,
          "duration": 1.0687500000000014
        },
        {
          "name": "C5",
          "midi": 72,
          "time": 42,
          "velocity": 1,
          "duration": 1.0687500000000014
        },
        {
          "name": "G#4",
          "midi": 68,
          "time": 43.125,
          "velocity": 1,
          "duration": 0.1875
        },
        {
          "name": "C5",
          "midi": 72,
          "time": 43.125,
          "velocity": 1,
          "duration": 0.1875
        },
        {
          "name": "A#4",
          "midi": 70,
          "time": 43.5,
          "velocity": 1,
          "duration": 1.0687500000000014
        },
        {
          "name": "D#4",
          "midi": 63,
          "time": 43.5,
          "velocity": 1,
          "duration": 1.0687500000000014
        },
        {
          "name": "A#4",
          "midi": 70,
          "time": 44.625,
          "velocity": 1,
          "duration": 0.09375
        },
        {
          "name": "D#4",
          "midi": 63,
          "time": 44.625,
          "velocity": 1,
          "duration": 0.09375
        },
        {
          "name": "G#4",
          "midi": 68,
          "time": 44.8125,
          "velocity": 1,
          "duration": 0.09375
        },
        {
          "name": "C4",
          "midi": 60,
          "time": 44.8125,
          "velocity": 1,
          "duration": 0.09375
        },
        {
          "name": "G#4",
          "midi": 68,
          "time": 45,
          "velocity": 1,
          "duration": 1.2000000000000028
        },
        {
          "name": "C4",
          "midi": 60,
          "time": 45,
          "velocity": 1,
          "duration": 1.2000000000000028
        },
        {
          "name": "D#5",
          "midi": 75,
          "time": 53.4375,
          "velocity": 1,
          "duration": 0.45000000000000284
        },
        {
          "name": "G4",
          "midi": 67,
          "time": 53.4375,
          "velocity": 1,
          "duration": 0.45000000000000284
        },
        {
          "name": "G#4",
          "midi": 68,
          "time": 54,
          "velocity": 1,
          "duration": 1.0687500000000014
        },
        {
          "name": "F5",
          "midi": 77,
          "time": 54,
          "velocity": 1,
          "duration": 1.0687500000000014
        },
        {
          "name": "G#4",
          "midi": 68,
          "time": 55.125,
          "velocity": 1,
          "duration": 0.1875
        },
        {
          "name": "F5",
          "midi": 77,
          "time": 55.125,
          "velocity": 1,
          "duration": 0.1875
        },
        {
          "name": "G5",
          "midi": 79,
          "time": 55.5,
          "velocity": 1,
          "duration": 1.0687500000000014
        },
        {
          "name": "A#4",
          "midi": 70,
          "time": 55.5,
          "velocity": 1,
          "duration": 1.0687500000000014
        },
        {
          "name": "G5",
          "midi": 79,
          "time": 56.625,
          "velocity": 1,
          "duration": 0.09375
        },
        {
          "name": "A#4",
          "midi": 70,
          "time": 56.625,
          "velocity": 1,
          "duration": 0.09375
        },
        {
          "name": "C5",
          "midi": 72,
          "time": 56.8125,
          "velocity": 1,
          "duration": 0.09375
        },
        {
          "name": "G#5",
          "midi": 80,
          "time": 56.8125,
          "velocity": 1,
          "duration": 0.09375
        },
        {
          "name": "G#5",
          "midi": 80,
          "time": 57,
          "velocity": 1,
          "duration": 1.2000000000000028
        },
        {
          "name": "C5",
          "midi": 72,
          "time": 57,
          "velocity": 1,
          "duration": 1.2000000000000028
        },
        {
          "name": "A4",
          "midi": 69,
          "time": 66,
          "velocity": 0.7874015748031497,
          "duration": 1.4249999999999972
        },
        {
          "name": "F5",
          "midi": 77,
          "time": 66,
          "velocity": 0.7874015748031497,
          "duration": 1.4249999999999972
        },
        {
          "name": "E5",
          "midi": 76,
          "time": 67.5,
          "velocity": 0.7874015748031497,
          "duration": 1.0687499999999943
        },
        {
          "name": "C5",
          "midi": 72,
          "time": 67.5,
          "velocity": 0.7874015748031497,
          "duration": 1.0687499999999943
        },
        {
          "name": "D5",
          "midi": 74,
          "time": 68.625,
          "velocity": 0.7874015748031497,
          "duration": 0.1875
        },
        {
          "name": "A#4",
          "midi": 70,
          "time": 68.625,
          "velocity": 0.7874015748031497,
          "duration": 0.1875
        },
        {
          "name": "C5",
          "midi": 72,
          "time": 69,
          "velocity": 0.7874015748031497,
          "duration": 2.4281249999999943
        },
        {
          "name": "F4",
          "midi": 65,
          "time": 69,
          "velocity": 0.7874015748031497,
          "duration": 1.4249999999999972
        },
        {
          "name": "D4",
          "midi": 62,
          "time": 70.5,
          "velocity": 0.7874015748031497,
          "duration": 0.9281249999999943
        },
        {
          "name": "A#4",
          "midi": 70,
          "time": 71.4375,
          "velocity": 0.7874015748031497,
          "duration": 0.45000000000000284
        },
        {
          "name": "E4",
          "midi": 64,
          "time": 71.4375,
          "velocity": 0.7874015748031497,
          "duration": 0.45000000000000284
        },
        {
          "name": "F4",
          "midi": 65,
          "time": 72,
          "velocity": 0.7874015748031497,
          "duration": 1.0687499999999943
        },
        {
          "name": "A4",
          "midi": 69,
          "time": 72,
          "velocity": 0.7874015748031497,
          "duration": 1.0687499999999943
        },
        {
          "name": "A4",
          "midi": 69,
          "time": 73.125,
          "velocity": 0.7874015748031497,
          "duration": 0.1875
        },
        {
          "name": "F4",
          "midi": 65,
          "time": 73.125,
          "velocity": 0.7874015748031497,
          "duration": 0.1875
        },
        {
          "name": "G4",
          "midi": 67,
          "time": 73.5,
          "velocity": 0.7874015748031497,
          "duration": 1.0687499999999943
        },
        {
          "name": "C4",
          "midi": 60,
          "time": 73.5,
          "velocity": 0.7874015748031497,
          "duration": 1.0687499999999943
        },
        {
          "name": "C4",
          "midi": 60,
          "time": 74.625,
          "velocity": 0.7874015748031497,
          "duration": 0.09375
        },
        {
          "name": "G4",
          "midi": 67,
          "time": 74.625,
          "velocity": 0.7874015748031497,
          "duration": 0.09375
        },
        {
          "name": "F4",
          "midi": 65,
          "time": 74.8125,
          "velocity": 0.7874015748031497,
          "duration": 0.09375
        },
        {
          "name": "A3",
          "midi": 57,
          "time": 74.8125,
          "velocity": 0.7874015748031497,
          "duration": 0.09375
        },
        {
          "name": "F4",
          "midi": 65,
          "time": 75,
          "velocity": 0.7874015748031497,
          "duration": 1.2000000000000028
        },
        {
          "name": "A3",
          "midi": 57,
          "time": 75,
          "velocity": 0.7874015748031497,
          "duration": 1.2000000000000028
        },
        {
          "name": "C5",
          "midi": 72,
          "time": 83.4375,
          "velocity": 0.7874015748031497,
          "duration": 0.45000000000000284
        },
        {
          "name": "E4",
          "midi": 64,
          "time": 83.4375,
          "velocity": 0.7874015748031497,
          "duration": 0.45000000000000284
        },
        {
          "name": "D5",
          "midi": 74,
          "time": 84,
          "velocity": 0.7874015748031497,
          "duration": 1.0687499999999943
        },
        {
          "name": "F4",
          "midi": 65,
          "time": 84,
          "velocity": 0.7874015748031497,
          "duration": 1.0687499999999943
        },
        {
          "name": "A#4",
          "midi": 70,
          "time": 84,
          "velocity": 0.7874015748031497,
          "duration": 1.0687499999999943
        },
        {
          "name": "D5",
          "midi": 74,
          "time": 85.125,
          "velocity": 0.7874015748031497,
          "duration": 0.1875
        },
        {
          "name": "A#4",
          "midi": 70,
          "time": 85.125,
          "velocity": 0.7874015748031497,
          "duration": 0.1875
        },
        {
          "name": "F4",
          "midi": 65,
          "time": 85.125,
          "velocity": 0.7874015748031497,
          "duration": 0.1875
        },
        {
          "name": "A#4",
          "midi": 70,
          "time": 85.5,
          "velocity": 0.7874015748031497,
          "duration": 1.0687499999999943
        },
        {
          "name": "E5",
          "midi": 76,
          "time": 85.5,
          "velocity": 0.7874015748031497,
          "duration": 1.0687499999999943
        },
        {
          "name": "G4",
          "midi": 67,
          "time": 85.5,
          "velocity": 0.7874015748031497,
          "duration": 1.0687499999999943
        },
        {
          "name": "E5",
          "midi": 76,
          "time": 86.625,
          "velocity": 0.7874015748031497,
          "duration": 0.09375
        },
        {
          "name": "G4",
          "midi": 67,
          "time": 86.625,
          "velocity": 0.7874015748031497,
          "duration": 0.09375
        },
        {
          "name": "A#4",
          "midi": 70,
          "time": 86.625,
          "velocity": 0.7874015748031497,
          "duration": 0.09375
        },
        {
          "name": "F5",
          "midi": 77,
          "time": 86.8125,
          "velocity": 0.7874015748031497,
          "duration": 0.09375
        },
        {
          "name": "A4",
          "midi": 69,
          "time": 86.8125,
          "velocity": 0.7874015748031497,
          "duration": 0.09375
        },
        {
          "name": "F5",
          "midi": 77,
          "time": 87,
          "velocity": 0.7874015748031497,
          "duration": 1.2000000000000028
        },
        {
          "name": "A4",
          "midi": 69,
          "time": 87,
          "velocity": 0.7874015748031497,
          "duration": 1.2000000000000028
        },
        {
          "name": "F5",
          "midi": 77,
          "time": 89.625,
          "velocity": 1,
          "duration": 0.29999999999999716
        },
        {
          "name": "F5",
          "midi": 77,
          "time": 90,
          "velocity": 1,
          "duration": 0.29999999999999716
        },
        {
          "name": "E5",
          "midi": 76,
          "time": 90.375,
          "velocity": 1,
          "duration": 0.29999999999999716
        },
        {
          "name": "D5",
          "midi": 74,
          "time": 90.75,
          "velocity": 1,
          "duration": 0.29999999999999716
        },
        {
          "name": "C5",
          "midi": 72,
          "time": 91.125,
          "velocity": 1,
          "duration": 0.29999999999999716
        },
        {
          "name": "C5",
          "midi": 72,
          "time": 91.5,
          "velocity": 1,
          "duration": 0.45000000000000284
        },
        {
          "name": "A#4",
          "midi": 70,
          "time": 92.0625,
          "velocity": 1,
          "duration": 0.15000000000000568
        },
        {
          "name": "A4",
          "midi": 69,
          "time": 92.25,
          "velocity": 1,
          "duration": 0.29999999999999716
        },
        {
          "name": "F5",
          "midi": 77,
          "time": 92.625,
          "velocity": 1,
          "duration": 0.29999999999999716
        },
        {
          "name": "F5",
          "midi": 77,
          "time": 93,
          "velocity": 1,
          "duration": 0.29999999999999716
        },
        {
          "name": "E5",
          "midi": 76,
          "time": 93.375,
          "velocity": 1,
          "duration": 0.29999999999999716
        },
        {
          "name": "D5",
          "midi": 74,
          "time": 93.75,
          "velocity": 1,
          "duration": 0.29999999999999716
        },
        {
          "name": "C5",
          "midi": 72,
          "time": 94.125,
          "velocity": 1,
          "duration": 0.29999999999999716
        },
        {
          "name": "C5",
          "midi": 72,
          "time": 94.6875,
          "velocity": 1,
          "duration": 0.29999999999999716
        },
        {
          "name": "E4",
          "midi": 64,
          "time": 94.6875,
          "velocity": 1,
          "duration": 0.29999999999999716
        },
        {
          "name": "E4",
          "midi": 64,
          "time": 95.0625,
          "velocity": 1,
          "duration": 0.15000000000000568
        },
        {
          "name": "A#4",
          "midi": 70,
          "time": 95.0625,
          "velocity": 1,
          "duration": 0.15000000000000568
        },
        {
          "name": "F4",
          "midi": 65,
          "time": 95.25,
          "velocity": 1,
          "duration": 0.29999999999999716
        },
        {
          "name": "A4",
          "midi": 69,
          "time": 95.25,
          "velocity": 1,
          "duration": 0.29999999999999716
        },
        {
          "name": "A4",
          "midi": 69,
          "time": 95.625,
          "velocity": 1,
          "duration": 0.29999999999999716
        },
        {
          "name": "F4",
          "midi": 65,
          "time": 95.625,
          "velocity": 1,
          "duration": 0.29999999999999716
        },
        {
          "name": "A4",
          "midi": 69,
          "time": 96,
          "velocity": 0.7874015748031497,
          "duration": 0.29999999999999716
        },
        {
          "name": "A4",
          "midi": 69,
          "time": 96.375,
          "velocity": 0.7874015748031497,
          "duration": 0.29999999999999716
        },
        {
          "name": "A4",
          "midi": 69,
          "time": 96.75,
          "velocity": 0.7874015748031497,
          "duration": 0.29999999999999716
        },
        {
          "name": "A4",
          "midi": 69,
          "time": 97.125,
          "velocity": 0.7874015748031497,
          "duration": 0.15000000000000568
        },
        {
          "name": "A#4",
          "midi": 70,
          "time": 97.3125,
          "velocity": 0.7874015748031497,
          "duration": 0.15000000000000568
        },
        {
          "name": "C5",
          "midi": 72,
          "time": 97.5,
          "velocity": 0.7874015748031497,
          "duration": 0.9000000000000057
        },
        {
          "name": "A#4",
          "midi": 70,
          "time": 98.625,
          "velocity": 0.7874015748031497,
          "duration": 0.15000000000000568
        },
        {
          "name": "A4",
          "midi": 69,
          "time": 98.8125,
          "velocity": 0.7874015748031497,
          "duration": 0.15000000000000568
        },
        {
          "name": "G4",
          "midi": 67,
          "time": 99,
          "velocity": 0.7874015748031497,
          "duration": 0.29999999999999716
        },
        {
          "name": "G4",
          "midi": 67,
          "time": 99.375,
          "velocity": 0.7874015748031497,
          "duration": 0.29999999999999716
        },
        {
          "name": "G4",
          "midi": 67,
          "time": 99.75,
          "velocity": 0.7874015748031497,
          "duration": 0.29999999999999716
        },
        {
          "name": "G4",
          "midi": 67,
          "time": 100.125,
          "velocity": 0.7874015748031497,
          "duration": 0.15000000000000568
        },
        {
          "name": "A4",
          "midi": 69,
          "time": 100.3125,
          "velocity": 0.7874015748031497,
          "duration": 0.15000000000000568
        },
        {
          "name": "A#4",
          "midi": 70,
          "time": 100.5,
          "velocity": 0.7874015748031497,
          "duration": 0.9000000000000057
        },
        {
          "name": "A4",
          "midi": 69,
          "time": 101.4375,
          "velocity": 0.7874015748031497,
          "duration": 0.07500000000000284
        },
        {
          "name": "A#4",
          "midi": 70,
          "time": 101.53125,
          "velocity": 0.7874015748031497,
          "duration": 0.07500000000000284
        },
        {
          "name": "A4",
          "midi": 69,
          "time": 101.625,
          "velocity": 0.7874015748031497,
          "duration": 0.15000000000000568
        },
        {
          "name": "G4",
          "midi": 67,
          "time": 101.8125,
          "velocity": 0.7874015748031497,
          "duration": 0.15000000000000568
        },
        {
          "name": "F4",
          "midi": 65,
          "time": 102,
          "velocity": 0.7874015748031497,
          "duration": 0.29999999999999716
        },
        {
          "name": "A4",
          "midi": 69,
          "time": 102.375,
          "velocity": 0.7874015748031497,
          "duration": 0.5999999999999943
        },
        {
          "name": "F5",
          "midi": 77,
          "time": 102.375,
          "velocity": 0.7874015748031497,
          "duration": 0.5999999999999943
        },
        {
          "name": "A#4",
          "midi": 70,
          "time": 103.125,
          "velocity": 0.7874015748031497,
          "duration": 0.29999999999999716
        },
        {
          "name": "D5",
          "midi": 74,
          "time": 103.125,
          "velocity": 0.7874015748031497,
          "duration": 0.29999999999999716
        },
        {
          "name": "C5",
          "midi": 72,
          "time": 103.5,
          "velocity": 0.7874015748031497,
          "duration": 0.45000000000000284
        },
        {
          "name": "A4",
          "midi": 69,
          "time": 103.5,
          "velocity": 0.7874015748031497,
          "duration": 0.45000000000000284
        },
        {
          "name": "A#4",
          "midi": 70,
          "time": 104.0625,
          "velocity": 0.7874015748031497,
          "duration": 0.15000000000000568
        },
        {
          "name": "G4",
          "midi": 67,
          "time": 104.0625,
          "velocity": 0.7874015748031497,
          "duration": 0.15000000000000568
        },
        {
          "name": "A4",
          "midi": 69,
          "time": 104.25,
          "velocity": 0.7874015748031497,
          "duration": 0.29999999999999716
        },
        {
          "name": "F4",
          "midi": 65,
          "time": 104.25,
          "velocity": 0.7874015748031497,
          "duration": 0.29999999999999716
        },
        {
          "name": "G4",
          "midi": 67,
          "time": 104.625,
          "velocity": 0.7874015748031497,
          "duration": 0.29999999999999716
        },
        {
          "name": "A#4",
          "midi": 70,
          "time": 104.625,
          "velocity": 0.7874015748031497,
          "duration": 0.29999999999999716
        },
        {
          "name": "A4",
          "midi": 69,
          "time": 105,
          "velocity": 0.7874015748031497,
          "duration": 0.5999999999999943
        },
        {
          "name": "G4",
          "midi": 67,
          "time": 105.75,
          "velocity": 0.7874015748031497,
          "duration": 0.45000000000000284
        },
        {
          "name": "E4",
          "midi": 64,
          "time": 105.75,
          "velocity": 0.7874015748031497,
          "duration": 0.45000000000000284
        },
        {
          "name": "D4",
          "midi": 62,
          "time": 106.3125,
          "velocity": 0.7874015748031497,
          "duration": 0.15000000000000568
        },
        {
          "name": "F4",
          "midi": 65,
          "time": 106.3125,
          "velocity": 0.7874015748031497,
          "duration": 0.15000000000000568
        },
        {
          "name": "E4",
          "midi": 64,
          "time": 106.5,
          "velocity": 0.7874015748031497,
          "duration": 0.45000000000000284
        },
        {
          "name": "G4",
          "midi": 67,
          "time": 106.5,
          "velocity": 0.7874015748031497,
          "duration": 0.45000000000000284
        },
        {
          "name": "C4",
          "midi": 60,
          "time": 107.0625,
          "velocity": 0.7874015748031497,
          "duration": 0.15000000000000568
        },
        {
          "name": "E4",
          "midi": 64,
          "time": 107.25,
          "velocity": 0.7874015748031497,
          "duration": 0.29999999999999716
        },
        {
          "name": "G4",
          "midi": 67,
          "time": 107.625,
          "velocity": 0.7874015748031497,
          "duration": 0.29999999999999716
        },
        {
          "name": "G4",
          "midi": 67,
          "time": 108.1875,
          "velocity": 0.7874015748031497,
          "duration": 0.15000000000000568
        },
        {
          "name": "C5",
          "midi": 72,
          "time": 108.375,
          "velocity": 0.7952755905511811,
          "duration": 0.15000000000000568
        },
        {
          "name": "D5",
          "midi": 74,
          "time": 108.5625,
          "velocity": 0.7952755905511811,
          "duration": 0.15000000000000568
        },
        {
          "name": "C5",
          "midi": 72,
          "time": 108.9375,
          "velocity": 0.8031496062992126,
          "duration": 0.15000000000000568
        },
        {
          "name": "D5",
          "midi": 74,
          "time": 109.125,
          "velocity": 0.8031496062992126,
          "duration": 0.15000000000000568
        },
        {
          "name": "E5",
          "midi": 76,
          "time": 109.3125,
          "velocity": 0.8110236220472441,
          "duration": 0.15000000000000568
        },
        {
          "name": "E5",
          "midi": 76,
          "time": 109.5,
          "velocity": 0.8110236220472441,
          "duration": 0.15000000000000568
        },
        {
          "name": "D5",
          "midi": 74,
          "time": 109.6875,
          "velocity": 0.8110236220472441,
          "duration": 0.15000000000000568
        },
        {
          "name": "C5",
          "midi": 72,
          "time": 109.875,
          "velocity": 0.8188976377952756,
          "duration": 0.15000000000000568
        },
        {
          "name": "D5",
          "midi": 74,
          "time": 110.0625,
          "velocity": 0.8188976377952756,
          "duration": 0.15000000000000568
        },
        {
          "name": "C5",
          "midi": 72,
          "time": 110.25,
          "velocity": 0.8267716535433071,
          "duration": 0.29999999999999716
        },
        {
          "name": "B4",
          "midi": 71,
          "time": 110.625,
          "velocity": 0.8267716535433071,
          "duration": 0.15000000000000568
        },
        {
          "name": "C5",
          "midi": 72,
          "time": 110.8125,
          "velocity": 0.8346456692913385,
          "duration": 0.15000000000000568
        },
        {
          "name": "C5",
          "midi": 72,
          "time": 111,
          "velocity": 0.8346456692913385,
          "duration": 2.203125
        },
        {
          "name": "F4",
          "midi": 65,
          "time": 113.625,
          "velocity": 0.8740157480314961,
          "duration": 0.15000000000000568
        },
        {
          "name": "D4",
          "midi": 62,
          "time": 113.625,
          "velocity": 0.8740157480314961,
          "duration": 0.15000000000000568
        },
        {
          "name": "E4",
          "midi": 64,
          "time": 113.8125,
          "velocity": 0.8818897637795275,
          "duration": 0.15000000000000568
        },
        {
          "name": "E4",
          "midi": 64,
          "time": 114,
          "velocity": 0.889763779527559,
          "duration": 0.15000000000000568
        },
        {
          "name": "C4",
          "midi": 60,
          "time": 114,
          "velocity": 0.889763779527559,
          "duration": 0.15000000000000568
        },
        {
          "name": "D4",
          "midi": 62,
          "time": 114.1875,
          "velocity": 0.8976377952755905,
          "duration": 0.15000000000000568
        },
        {
          "name": "C4",
          "midi": 60,
          "time": 114.375,
          "velocity": 0.905511811023622,
          "duration": 2.325000000000003
        },
        {
          "name": "A4",
          "midi": 69,
          "time": 117,
          "velocity": 0.7874015748031497,
          "duration": 1.4249999999999972
        },
        {
          "name": "F5",
          "midi": 77,
          "time": 117,
          "velocity": 0.7874015748031497,
          "duration": 1.4249999999999972
        },
        {
          "name": "C5",
          "midi": 72,
          "time": 118.5,
          "velocity": 0.7874015748031497,
          "duration": 1.0687499999999943
        },
        {
          "name": "E5",
          "midi": 76,
          "time": 118.5,
          "velocity": 0.7874015748031497,
          "duration": 1.0687499999999943
        },
        {
          "name": "A#4",
          "midi": 70,
          "time": 119.625,
          "velocity": 0.7874015748031497,
          "duration": 0.1875
        },
        {
          "name": "D5",
          "midi": 74,
          "time": 119.625,
          "velocity": 0.7874015748031497,
          "duration": 0.1875
        },
        {
          "name": "F4",
          "midi": 65,
          "time": 120,
          "velocity": 0.7874015748031497,
          "duration": 1.4249999999999972
        },
        {
          "name": "C5",
          "midi": 72,
          "time": 120,
          "velocity": 0.7874015748031497,
          "duration": 2.4281249999999943
        },
        {
          "name": "D4",
          "midi": 62,
          "time": 121.5,
          "velocity": 0.7874015748031497,
          "duration": 0.9281249999999943
        },
        {
          "name": "A#4",
          "midi": 70,
          "time": 122.4375,
          "velocity": 0.7874015748031497,
          "duration": 0.5062499999999943
        },
        {
          "name": "E4",
          "midi": 64,
          "time": 122.4375,
          "velocity": 0.7874015748031497,
          "duration": 0.5062499999999943
        },
        {
          "name": "F4",
          "midi": 65,
          "time": 123,
          "velocity": 0.7874015748031497,
          "duration": 1.0796875000000057
        },
        {
          "name": "A4",
          "midi": 69,
          "time": 123,
          "velocity": 0.7874015748031497,
          "duration": 1.0796875000000057
        },
        {
          "name": "F4",
          "midi": 65,
          "time": 124.125,
          "velocity": 0.7874015748031497,
          "duration": 0.1875
        },
        {
          "name": "A4",
          "midi": 69,
          "time": 124.125,
          "velocity": 0.7874015748031497,
          "duration": 0.1875
        },
        {
          "name": "C4",
          "midi": 60,
          "time": 124.5,
          "velocity": 0.7874015748031497,
          "duration": 1.0796875000000057
        },
        {
          "name": "G4",
          "midi": 67,
          "time": 124.5,
          "velocity": 0.7874015748031497,
          "duration": 1.0796875000000057
        },
        {
          "name": "G4",
          "midi": 67,
          "time": 125.625,
          "velocity": 0.7874015748031497,
          "duration": 0.09375
        },
        {
          "name": "C4",
          "midi": 60,
          "time": 125.625,
          "velocity": 0.7874015748031497,
          "duration": 0.09375
        },
        {
          "name": "F4",
          "midi": 65,
          "time": 125.8125,
          "velocity": 0.7874015748031497,
          "duration": 0.09375
        },
        {
          "name": "A3",
          "midi": 57,
          "time": 125.8125,
          "velocity": 0.7874015748031497,
          "duration": 0.09375
        },
        {
          "name": "A3",
          "midi": 57,
          "time": 126,
          "velocity": 0.7874015748031497,
          "duration": 1.2000000000000028
        },
        {
          "name": "F4",
          "midi": 65,
          "time": 126,
          "velocity": 0.7874015748031497,
          "duration": 1.2000000000000028
        },
        {
          "name": "C5",
          "midi": 72,
          "time": 134.4375,
          "velocity": 0.7874015748031497,
          "duration": 0.44999999999998863
        },
        {
          "name": "E4",
          "midi": 64,
          "time": 134.4375,
          "velocity": 0.7874015748031497,
          "duration": 0.44999999999998863
        },
        {
          "name": "F4",
          "midi": 65,
          "time": 135,
          "velocity": 0.7874015748031497,
          "duration": 1.0687499999999943
        },
        {
          "name": "D5",
          "midi": 74,
          "time": 135,
          "velocity": 0.7874015748031497,
          "duration": 1.0687499999999943
        },
        {
          "name": "F4",
          "midi": 65,
          "time": 136.125,
          "velocity": 0.7874015748031497,
          "duration": 0.1875
        },
        {
          "name": "D5",
          "midi": 74,
          "time": 136.125,
          "velocity": 0.7874015748031497,
          "duration": 0.1875
        },
        {
          "name": "G4",
          "midi": 67,
          "time": 136.5,
          "velocity": 0.7874015748031497,
          "duration": 1.0687499999999943
        },
        {
          "name": "E5",
          "midi": 76,
          "time": 136.5,
          "velocity": 0.7874015748031497,
          "duration": 1.0687499999999943
        },
        {
          "name": "G4",
          "midi": 67,
          "time": 137.625,
          "velocity": 0.7874015748031497,
          "duration": 0.09375
        },
        {
          "name": "E5",
          "midi": 76,
          "time": 137.625,
          "velocity": 0.7874015748031497,
          "duration": 0.09375
        },
        {
          "name": "F5",
          "midi": 77,
          "time": 137.8125,
          "velocity": 0.7874015748031497,
          "duration": 0.09375
        },
        {
          "name": "A4",
          "midi": 69,
          "time": 137.8125,
          "velocity": 0.7874015748031497,
          "duration": 0.09375
        },
        {
          "name": "A4",
          "midi": 69,
          "time": 138,
          "velocity": 0.7874015748031497,
          "duration": 1.1999999999999886
        },
        {
          "name": "F5",
          "midi": 77,
          "time": 138,
          "velocity": 0.7874015748031497,
          "duration": 1.1999999999999886
        },
        {
          "name": "C5",
          "midi": 72,
          "time": 141,
          "velocity": 1,
          "duration": 1.4250000000000114
        },
        {
          "name": "G#5",
          "midi": 80,
          "time": 141,
          "velocity": 1,
          "duration": 1.4250000000000114
        },
        {
          "name": "G5",
          "midi": 79,
          "time": 142.5,
          "velocity": 1,
          "duration": 1.0687499999999943
        },
        {
          "name": "D#5",
          "midi": 75,
          "time": 142.5,
          "velocity": 1,
          "duration": 1.0687499999999943
        },
        {
          "name": "F5",
          "midi": 77,
          "time": 143.625,
          "velocity": 1,
          "duration": 0.1875
        },
        {
          "name": "C#5",
          "midi": 73,
          "time": 143.625,
          "velocity": 1,
          "duration": 0.1875
        },
        {
          "name": "D#5",
          "midi": 75,
          "time": 144,
          "velocity": 1,
          "duration": 2.4281249999999943
        },
        {
          "name": "G#4",
          "midi": 68,
          "time": 144,
          "velocity": 1,
          "duration": 1.4250000000000114
        },
        {
          "name": "F4",
          "midi": 65,
          "time": 145.5,
          "velocity": 1,
          "duration": 0.9281249999999943
        },
        {
          "name": "G4",
          "midi": 67,
          "time": 146.4375,
          "velocity": 1,
          "duration": 0.44999999999998863
        },
        {
          "name": "C#5",
          "midi": 73,
          "time": 146.4375,
          "velocity": 1,
          "duration": 0.44999999999998863
        },
        {
          "name": "G#4",
          "midi": 68,
          "time": 147,
          "velocity": 1,
          "duration": 1.0687499999999943
        },
        {
          "name": "C5",
          "midi": 72,
          "time": 147,
          "velocity": 1,
          "duration": 1.0687499999999943
        },
        {
          "name": "G#4",
          "midi": 68,
          "time": 148.125,
          "velocity": 1,
          "duration": 0.1875
        },
        {
          "name": "C5",
          "midi": 72,
          "time": 148.125,
          "velocity": 1,
          "duration": 0.1875
        },
        {
          "name": "A#4",
          "midi": 70,
          "time": 148.5,
          "velocity": 1,
          "duration": 1.0687499999999943
        },
        {
          "name": "D#4",
          "midi": 63,
          "time": 148.5,
          "velocity": 1,
          "duration": 1.0687499999999943
        },
        {
          "name": "A#4",
          "midi": 70,
          "time": 149.625,
          "velocity": 1,
          "duration": 0.09375
        },
        {
          "name": "D#4",
          "midi": 63,
          "time": 149.625,
          "velocity": 1,
          "duration": 0.09375
        },
        {
          "name": "G#4",
          "midi": 68,
          "time": 149.8125,
          "velocity": 1,
          "duration": 0.09375
        },
        {
          "name": "C4",
          "midi": 60,
          "time": 149.8125,
          "velocity": 1,
          "duration": 0.09375
        },
        {
          "name": "G#4",
          "midi": 68,
          "time": 150,
          "velocity": 1,
          "duration": 1.1999999999999886
        },
        {
          "name": "C4",
          "midi": 60,
          "time": 150,
          "velocity": 1,
          "duration": 1.1999999999999886
        },
        {
          "name": "D#5",
          "midi": 75,
          "time": 158.4375,
          "velocity": 1,
          "duration": 0.44999999999998863
        },
        {
          "name": "G4",
          "midi": 67,
          "time": 158.4375,
          "velocity": 1,
          "duration": 0.44999999999998863
        },
        {
          "name": "G#4",
          "midi": 68,
          "time": 159,
          "velocity": 1,
          "duration": 1.0687499999999943
        },
        {
          "name": "F5",
          "midi": 77,
          "time": 159,
          "velocity": 1,
          "duration": 1.0687499999999943
        },
        {
          "name": "G#4",
          "midi": 68,
          "time": 160.125,
          "velocity": 1,
          "duration": 0.1875
        },
        {
          "name": "F5",
          "midi": 77,
          "time": 160.125,
          "velocity": 1,
          "duration": 0.1875
        },
        {
          "name": "G5",
          "midi": 79,
          "time": 160.5,
          "velocity": 1,
          "duration": 1.0687499999999943
        },
        {
          "name": "A#4",
          "midi": 70,
          "time": 160.5,
          "velocity": 1,
          "duration": 1.0687499999999943
        },
        {
          "name": "G5",
          "midi": 79,
          "time": 161.625,
          "velocity": 1,
          "duration": 0.09375
        },
        {
          "name": "A#4",
          "midi": 70,
          "time": 161.625,
          "velocity": 1,
          "duration": 0.09375
        },
        {
          "name": "C5",
          "midi": 72,
          "time": 161.8125,
          "velocity": 1,
          "duration": 0.09375
        },
        {
          "name": "G#5",
          "midi": 80,
          "time": 161.8125,
          "velocity": 1,
          "duration": 0.09375
        },
        {
          "name": "G#5",
          "midi": 80,
          "time": 162,
          "velocity": 1,
          "duration": 1.1999999999999886
        },
        {
          "name": "C5",
          "midi": 72,
          "time": 162,
          "velocity": 1,
          "duration": 1.1999999999999886
        },
        {
          "name": "F5",
          "midi": 77,
          "time": 171,
          "velocity": 0.7874015748031497,
          "duration": 1.4250000000000114
        },
        {
          "name": "A4",
          "midi": 69,
          "time": 171,
          "velocity": 0.7874015748031497,
          "duration": 1.4250000000000114
        },
        {
          "name": "C5",
          "midi": 72,
          "time": 172.5,
          "velocity": 0.7874015748031497,
          "duration": 1.0687499999999943
        },
        {
          "name": "E5",
          "midi": 76,
          "time": 172.5,
          "velocity": 0.7874015748031497,
          "duration": 1.0687499999999943
        },
        {
          "name": "D5",
          "midi": 74,
          "time": 173.625,
          "velocity": 0.7874015748031497,
          "duration": 0.1875
        },
        {
          "name": "A#4",
          "midi": 70,
          "time": 173.625,
          "velocity": 0.7874015748031497,
          "duration": 0.1875
        },
        {
          "name": "C5",
          "midi": 72,
          "time": 174,
          "velocity": 0.7874015748031497,
          "duration": 2.4281249999999943
        },
        {
          "name": "F4",
          "midi": 65,
          "time": 174,
          "velocity": 0.7874015748031497,
          "duration": 1.4250000000000114
        },
        {
          "name": "D4",
          "midi": 62,
          "time": 175.5,
          "velocity": 0.7874015748031497,
          "duration": 0.9281249999999943
        },
        {
          "name": "E4",
          "midi": 64,
          "time": 176.4375,
          "velocity": 0.7874015748031497,
          "duration": 0.44999999999998863
        },
        {
          "name": "A#4",
          "midi": 70,
          "time": 176.4375,
          "velocity": 0.7874015748031497,
          "duration": 0.44999999999998863
        },
        {
          "name": "A4",
          "midi": 69,
          "time": 177,
          "velocity": 0.7874015748031497,
          "duration": 0.35624999999998863
        },
        {
          "name": "A4",
          "midi": 69,
          "time": 177.375,
          "velocity": 0.7874015748031497,
          "duration": 0.35624999999998863
        },
        {
          "name": "A4",
          "midi": 69,
          "time": 177.75,
          "velocity": 0.7874015748031497,
          "duration": 0.35624999999998863
        },
        {
          "name": "A4",
          "midi": 69,
          "time": 178.125,
          "velocity": 0.7874015748031497,
          "duration": 0.09375
        },
        {
          "name": "A#4",
          "midi": 70,
          "time": 178.3125,
          "velocity": 0.7874015748031497,
          "duration": 0.09375
        },
        {
          "name": "G4",
          "midi": 67,
          "time": 178.5,
          "velocity": 0.7874015748031497,
          "duration": 1.0687499999999943
        },
        {
          "name": "C4",
          "midi": 60,
          "time": 178.5,
          "velocity": 0.7874015748031497,
          "duration": 1.0687499999999943
        },
        {
          "name": "C5",
          "midi": 72,
          "time": 178.5,
          "velocity": 0.7874015748031497,
          "duration": 1.0687499999999943
        },
        {
          "name": "G4",
          "midi": 67,
          "time": 179.625,
          "velocity": 0.7874015748031497,
          "duration": 0.09375
        },
        {
          "name": "C4",
          "midi": 60,
          "time": 179.625,
          "velocity": 0.7874015748031497,
          "duration": 0.09375
        },
        {
          "name": "F4",
          "midi": 65,
          "time": 179.8125,
          "velocity": 0.7874015748031497,
          "duration": 0.09375
        },
        {
          "name": "A3",
          "midi": 57,
          "time": 179.8125,
          "velocity": 0.7874015748031497,
          "duration": 0.09375
        },
        {
          "name": "F4",
          "midi": 65,
          "time": 180,
          "velocity": 0.7874015748031497,
          "duration": 1.1999999999999886
        },
        {
          "name": "A3",
          "midi": 57,
          "time": 180,
          "velocity": 0.7874015748031497,
          "duration": 1.1999999999999886
        },
        {
          "name": "A4",
          "midi": 69,
          "time": 183,
          "velocity": 0.7874015748031497,
          "duration": 0.35624999999998863
        },
        {
          "name": "A4",
          "midi": 69,
          "time": 183.375,
          "velocity": 0.7874015748031497,
          "duration": 0.35624999999998863
        },
        {
          "name": "A4",
          "midi": 69,
          "time": 183.75,
          "velocity": 0.7874015748031497,
          "duration": 0.35624999999998863
        },
        {
          "name": "A4",
          "midi": 69,
          "time": 184.125,
          "velocity": 0.7874015748031497,
          "duration": 0.09375
        },
        {
          "name": "A#4",
          "midi": 70,
          "time": 184.3125,
          "velocity": 0.7874015748031497,
          "duration": 0.09375
        },
        {
          "name": "C5",
          "midi": 72,
          "time": 184.5,
          "velocity": 0.7874015748031497,
          "duration": 1.0687499999999943
        },
        {
          "name": "C5",
          "midi": 72,
          "time": 185.625,
          "velocity": 0.7874015748031497,
          "duration": 0.09375
        },
        {
          "name": "A#4",
          "midi": 70,
          "time": 185.8125,
          "velocity": 0.7874015748031497,
          "duration": 0.09375
        },
        {
          "name": "A4",
          "midi": 69,
          "time": 186,
          "velocity": 0.7874015748031497,
          "duration": 0.35624999999998863
        },
        {
          "name": "A4",
          "midi": 69,
          "time": 186.375,
          "velocity": 0.7874015748031497,
          "duration": 0.35624999999998863
        },
        {
          "name": "A4",
          "midi": 69,
          "time": 186.75,
          "velocity": 0.7874015748031497,
          "duration": 0.35624999999998863
        },
        {
          "name": "A4",
          "midi": 69,
          "time": 187.125,
          "velocity": 0.7874015748031497,
          "duration": 0.09375
        },
        {
          "name": "A#4",
          "midi": 70,
          "time": 187.3125,
          "velocity": 0.7874015748031497,
          "duration": 0.09375
        },
        {
          "name": "F4",
          "midi": 65,
          "time": 187.5,
          "velocity": 0.7874015748031497,
          "duration": 0.9281249999999943
        },
        {
          "name": "C5",
          "midi": 72,
          "time": 187.5,
          "velocity": 0.7874015748031497,
          "duration": 0.9281249999999943
        },
        {
          "name": "D4",
          "midi": 62,
          "time": 187.5,
          "velocity": 0.7874015748031497,
          "duration": 0.9281249999999943
        },
        {
          "name": "E4",
          "midi": 64,
          "time": 188.4375,
          "velocity": 0.7874015748031497,
          "duration": 0.44999999999998863
        },
        {
          "name": "G4",
          "midi": 67,
          "time": 188.4375,
          "velocity": 0.7874015748031497,
          "duration": 0.44999999999998863
        },
        {
          "name": "C5",
          "midi": 72,
          "time": 188.4375,
          "velocity": 0.7874015748031497,
          "duration": 0.44999999999998863
        },
        {
          "name": "D5",
          "midi": 74,
          "time": 189,
          "velocity": 0.7874015748031497,
          "duration": 1.0687499999999943
        },
        {
          "name": "F4",
          "midi": 65,
          "time": 189,
          "velocity": 0.7874015748031497,
          "duration": 1.0687499999999943
        },
        {
          "name": "A#4",
          "midi": 70,
          "time": 189,
          "velocity": 0.7874015748031497,
          "duration": 1.0687499999999943
        },
        {
          "name": "F4",
          "midi": 65,
          "time": 190.125,
          "velocity": 0.7874015748031497,
          "duration": 0.1875
        },
        {
          "name": "D5",
          "midi": 74,
          "time": 190.125,
          "velocity": 0.7874015748031497,
          "duration": 0.1875
        },
        {
          "name": "A#4",
          "midi": 70,
          "time": 190.125,
          "velocity": 0.7874015748031497,
          "duration": 0.1875
        },
        {
          "name": "E5",
          "midi": 76,
          "time": 190.5,
          "velocity": 0.7874015748031497,
          "duration": 1.0687499999999943
        },
        {
          "name": "G4",
          "midi": 67,
          "time": 190.5,
          "velocity": 0.7874015748031497,
          "duration": 1.0687499999999943
        },
        {
          "name": "A#4",
          "midi": 70,
          "time": 190.5,
          "velocity": 0.7874015748031497,
          "duration": 1.0687499999999943
        },
        {
          "name": "A#4",
          "midi": 70,
          "time": 191.625,
          "velocity": 0.7874015748031497,
          "duration": 0.09375
        },
        {
          "name": "G4",
          "midi": 67,
          "time": 191.625,
          "velocity": 0.7874015748031497,
          "duration": 0.09375
        },
        {
          "name": "E5",
          "midi": 76,
          "time": 191.625,
          "velocity": 0.7874015748031497,
          "duration": 0.09375
        },
        {
          "name": "F5",
          "midi": 77,
          "time": 191.8125,
          "velocity": 0.7874015748031497,
          "duration": 0.09375
        },
        {
          "name": "A4",
          "midi": 69,
          "time": 191.8125,
          "velocity": 0.7874015748031497,
          "duration": 0.09375
        },
        {
          "name": "F5",
          "midi": 77,
          "time": 192,
          "velocity": 0.7874015748031497,
          "duration": 0.9281249999999943
        },
        {
          "name": "A4",
          "midi": 69,
          "time": 192,
          "velocity": 0.7874015748031497,
          "duration": 0.9281249999999943
        },
        {
          "name": "F4",
          "midi": 65,
          "time": 192.9375,
          "velocity": 0.7874015748031497,
          "duration": 0.15000000000000568
        },
        {
          "name": "A4",
          "midi": 69,
          "time": 193.125,
          "velocity": 0.7874015748031497,
          "duration": 0.15000000000000568
        },
        {
          "name": "C5",
          "midi": 72,
          "time": 193.3125,
          "velocity": 0.7874015748031497,
          "duration": 0.15000000000000568
        },
        {
          "name": "E4",
          "midi": 64,
          "time": 193.5,
          "velocity": 0.7874015748031497,
          "duration": 0.9281249999999943
        },
        {
          "name": "G4",
          "midi": 67,
          "time": 193.5,
          "velocity": 0.7874015748031497,
          "duration": 0.9281249999999943
        },
        {
          "name": "C5",
          "midi": 72,
          "time": 193.5,
          "velocity": 0.7874015748031497,
          "duration": 0.9281249999999943
        },
        {
          "name": "E4",
          "midi": 64,
          "time": 194.4375,
          "velocity": 0.7874015748031497,
          "duration": 0.15000000000000568
        },
        {
          "name": "G4",
          "midi": 67,
          "time": 194.625,
          "velocity": 0.7874015748031497,
          "duration": 0.15000000000000568
        },
        {
          "name": "C5",
          "midi": 72,
          "time": 194.8125,
          "velocity": 0.7874015748031497,
          "duration": 0.15000000000000568
        },
        {
          "name": "A4",
          "midi": 69,
          "time": 195,
          "velocity": 0.7874015748031497,
          "duration": 0.9281249999999943
        },
        {
          "name": "F4",
          "midi": 65,
          "time": 195,
          "velocity": 0.7874015748031497,
          "duration": 0.9281249999999943
        },
        {
          "name": "C5",
          "midi": 72,
          "time": 195,
          "velocity": 0.7874015748031497,
          "duration": 0.9281249999999943
        },
        {
          "name": "F4",
          "midi": 65,
          "time": 195.9375,
          "velocity": 0.7874015748031497,
          "duration": 0.15000000000000568
        },
        {
          "name": "A4",
          "midi": 69,
          "time": 196.125,
          "velocity": 0.7874015748031497,
          "duration": 0.15000000000000568
        },
        {
          "name": "C5",
          "midi": 72,
          "time": 196.3125,
          "velocity": 0.7874015748031497,
          "duration": 0.15000000000000568
        },
        {
          "name": "F4",
          "midi": 65,
          "time": 196.5,
          "velocity": 0.7874015748031497,
          "duration": 0.9281249999999943
        },
        {
          "name": "C5",
          "midi": 72,
          "time": 196.5,
          "velocity": 0.7874015748031497,
          "duration": 0.9281249999999943
        },
        {
          "name": "A#4",
          "midi": 70,
          "time": 196.5,
          "velocity": 0.7874015748031497,
          "duration": 0.9281249999999943
        },
        {
          "name": "D4",
          "midi": 62,
          "time": 196.5,
          "velocity": 0.7874015748031497,
          "duration": 0.9281249999999943
        },
        {
          "name": "G4",
          "midi": 67,
          "time": 197.4375,
          "velocity": 0.7874015748031497,
          "duration": 0.44999999999998863
        },
        {
          "name": "C5",
          "midi": 72,
          "time": 197.4375,
          "velocity": 0.7874015748031497,
          "duration": 0.44999999999998863
        },
        {
          "name": "E4",
          "midi": 64,
          "time": 197.4375,
          "velocity": 0.7874015748031497,
          "duration": 0.44999999999998863
        },
        {
          "name": "C5",
          "midi": 72,
          "time": 198,
          "velocity": 0.7874015748031497,
          "duration": 1.8000000000000114
        },
        {
          "name": "A4",
          "midi": 69,
          "time": 198,
          "velocity": 0.7874015748031497,
          "duration": 1.8000000000000114
        },
        {
          "name": "F4",
          "midi": 65,
          "time": 198,
          "velocity": 0.7874015748031497,
          "duration": 1.8000000000000114
        }
      ],
      "controlChanges": {
        "7": [
          {
            "number": 7,
            "time": 0,
            "value": 1
          }
        ]
      },
      "id": 1,
      "name": "Joy to the World",
      "instrumentNumber": 61,
      "instrumentFamily": "drums",
      "channelNumber": 10,
      "isPercussion": true
    },
    {
      "startTime": 6,
      "duration": 182.925,
      "length": 773,
      "notes": [
        {
          "name": "F5",
          "midi": 77,
          "time": 6,
          "velocity": 1,
          "duration": 0.15000000000000036
        },
        {
          "name": "E5",
          "midi": 76,
          "time": 6.1875,
          "velocity": 1,
          "duration": 0.15000000000000036
        },
        {
          "name": "C5",
          "midi": 72,
          "time": 6.375,
          "velocity": 1,
          "duration": 0.15000000000000036
        },
        {
          "name": "F5",
          "midi": 77,
          "time": 6.5625,
          "velocity": 1,
          "duration": 0.15000000000000036
        },
        {
          "name": "E5",
          "midi": 76,
          "time": 6.75,
          "velocity": 1,
          "duration": 0.15000000000000036
        },
        {
          "name": "C5",
          "midi": 72,
          "time": 6.9375,
          "velocity": 1,
          "duration": 0.15000000000000036
        },
        {
          "name": "F5",
          "midi": 77,
          "time": 7.125,
          "velocity": 1,
          "duration": 0.15000000000000036
        },
        {
          "name": "E5",
          "midi": 76,
          "time": 7.3125,
          "velocity": 1,
          "duration": 0.15000000000000036
        },
        {
          "name": "C5",
          "midi": 72,
          "time": 7.5,
          "velocity": 1,
          "duration": 0.15000000000000036
        },
        {
          "name": "F5",
          "midi": 77,
          "time": 7.6875,
          "velocity": 1,
          "duration": 0.15000000000000036
        },
        {
          "name": "E5",
          "midi": 76,
          "time": 7.875,
          "velocity": 1,
          "duration": 0.15000000000000036
        },
        {
          "name": "C5",
          "midi": 72,
          "time": 8.0625,
          "velocity": 1,
          "duration": 0.15000000000000036
        },
        {
          "name": "F5",
          "midi": 77,
          "time": 8.25,
          "velocity": 1,
          "duration": 0.15000000000000036
        },
        {
          "name": "E5",
          "midi": 76,
          "time": 8.4375,
          "velocity": 1,
          "duration": 0.15000000000000036
        },
        {
          "name": "C5",
          "midi": 72,
          "time": 8.625,
          "velocity": 1,
          "duration": 0.15000000000000036
        },
        {
          "name": "F5",
          "midi": 77,
          "time": 8.8125,
          "velocity": 1,
          "duration": 0.15000000000000036
        },
        {
          "name": "E5",
          "midi": 76,
          "time": 9,
          "velocity": 1,
          "duration": 0.15000000000000036
        },
        {
          "name": "C5",
          "midi": 72,
          "time": 9.1875,
          "velocity": 1,
          "duration": 0.15000000000000036
        },
        {
          "name": "F5",
          "midi": 77,
          "time": 9.375,
          "velocity": 1,
          "duration": 0.15000000000000036
        },
        {
          "name": "E5",
          "midi": 76,
          "time": 9.5625,
          "velocity": 1,
          "duration": 0.15000000000000036
        },
        {
          "name": "C5",
          "midi": 72,
          "time": 9.75,
          "velocity": 1,
          "duration": 0.15000000000000036
        },
        {
          "name": "F5",
          "midi": 77,
          "time": 9.9375,
          "velocity": 1,
          "duration": 0.15000000000000036
        },
        {
          "name": "E5",
          "midi": 76,
          "time": 10.125,
          "velocity": 1,
          "duration": 0.15000000000000036
        },
        {
          "name": "C5",
          "midi": 72,
          "time": 10.3125,
          "velocity": 1,
          "duration": 0.15000000000000036
        },
        {
          "name": "C5",
          "midi": 72,
          "time": 10.5,
          "velocity": 1,
          "duration": 0.15000000000000036
        },
        {
          "name": "C5",
          "midi": 72,
          "time": 10.6875,
          "velocity": 1,
          "duration": 0.15000000000000036
        },
        {
          "name": "C5",
          "midi": 72,
          "time": 10.875,
          "velocity": 1,
          "duration": 0.15000000000000036
        },
        {
          "name": "C5",
          "midi": 72,
          "time": 11.0625,
          "velocity": 1,
          "duration": 0.15000000000000036
        },
        {
          "name": "C5",
          "midi": 72,
          "time": 11.25,
          "velocity": 1,
          "duration": 0.15000000000000036
        },
        {
          "name": "C5",
          "midi": 72,
          "time": 11.4375,
          "velocity": 1,
          "duration": 0.15000000000000036
        },
        {
          "name": "D5",
          "midi": 74,
          "time": 11.625,
          "velocity": 1,
          "duration": 0.15000000000000036
        },
        {
          "name": "E5",
          "midi": 76,
          "time": 11.8125,
          "velocity": 1,
          "duration": 0.15000000000000036
        },
        {
          "name": "F5",
          "midi": 77,
          "time": 12,
          "velocity": 1,
          "duration": 1.1999999999999993
        },
        {
          "name": "D#6",
          "midi": 87,
          "time": 36,
          "velocity": 0.5039370078740157,
          "duration": 0.07500000000000284
        },
        {
          "name": "G#5",
          "midi": 80,
          "time": 36,
          "velocity": 0.5039370078740157,
          "duration": 0.07500000000000284
        },
        {
          "name": "G#6",
          "midi": 92,
          "time": 36.09375,
          "velocity": 0.5039370078740157,
          "duration": 0.07500000000000284
        },
        {
          "name": "G#5",
          "midi": 80,
          "time": 36.1875,
          "velocity": 0.5039370078740157,
          "duration": 0.07500000000000284
        },
        {
          "name": "G#6",
          "midi": 92,
          "time": 36.28125,
          "velocity": 0.5039370078740157,
          "duration": 0.07500000000000284
        },
        {
          "name": "G#5",
          "midi": 80,
          "time": 36.375,
          "velocity": 0.5039370078740157,
          "duration": 0.07500000000000284
        },
        {
          "name": "A#5",
          "midi": 82,
          "time": 36.375,
          "velocity": 0.5039370078740157,
          "duration": 0.07500000000000284
        },
        {
          "name": "G#6",
          "midi": 92,
          "time": 36.46875,
          "velocity": 0.5039370078740157,
          "duration": 0.07500000000000284
        },
        {
          "name": "G#5",
          "midi": 80,
          "time": 36.5625,
          "velocity": 0.5039370078740157,
          "duration": 0.07500000000000284
        },
        {
          "name": "G#6",
          "midi": 92,
          "time": 36.65625,
          "velocity": 0.5039370078740157,
          "duration": 0.07500000000000284
        },
        {
          "name": "G#5",
          "midi": 80,
          "time": 36.75,
          "velocity": 0.5039370078740157,
          "duration": 0.07500000000000284
        },
        {
          "name": "D#6",
          "midi": 87,
          "time": 36.75,
          "velocity": 0.5039370078740157,
          "duration": 0.07500000000000284
        },
        {
          "name": "G#6",
          "midi": 92,
          "time": 36.84375,
          "velocity": 0.5039370078740157,
          "duration": 0.07500000000000284
        },
        {
          "name": "G#5",
          "midi": 80,
          "time": 36.9375,
          "velocity": 0.5039370078740157,
          "duration": 0.07500000000000284
        },
        {
          "name": "G#6",
          "midi": 92,
          "time": 37.03125,
          "velocity": 0.5039370078740157,
          "duration": 0.07500000000000284
        },
        {
          "name": "A#5",
          "midi": 82,
          "time": 37.125,
          "velocity": 0.5039370078740157,
          "duration": 0.07500000000000284
        },
        {
          "name": "G#5",
          "midi": 80,
          "time": 37.125,
          "velocity": 0.5039370078740157,
          "duration": 0.07500000000000284
        },
        {
          "name": "G#6",
          "midi": 92,
          "time": 37.21875,
          "velocity": 0.5039370078740157,
          "duration": 0.07500000000000284
        },
        {
          "name": "G#5",
          "midi": 80,
          "time": 37.3125,
          "velocity": 0.5039370078740157,
          "duration": 0.07500000000000284
        },
        {
          "name": "G#6",
          "midi": 92,
          "time": 37.40625,
          "velocity": 0.5039370078740157,
          "duration": 0.07500000000000284
        },
        {
          "name": "D#6",
          "midi": 87,
          "time": 37.5,
          "velocity": 0.5039370078740157,
          "duration": 0.07500000000000284
        },
        {
          "name": "G#5",
          "midi": 80,
          "time": 37.5,
          "velocity": 0.5039370078740157,
          "duration": 0.07500000000000284
        },
        {
          "name": "G#6",
          "midi": 92,
          "time": 37.59375,
          "velocity": 0.5039370078740157,
          "duration": 0.07500000000000284
        },
        {
          "name": "G#5",
          "midi": 80,
          "time": 37.6875,
          "velocity": 0.5039370078740157,
          "duration": 0.07500000000000284
        },
        {
          "name": "G#6",
          "midi": 92,
          "time": 37.78125,
          "velocity": 0.5039370078740157,
          "duration": 0.07500000000000284
        },
        {
          "name": "G#5",
          "midi": 80,
          "time": 37.875,
          "velocity": 0.5039370078740157,
          "duration": 0.07500000000000284
        },
        {
          "name": "A#5",
          "midi": 82,
          "time": 37.875,
          "velocity": 0.5039370078740157,
          "duration": 0.07500000000000284
        },
        {
          "name": "G#6",
          "midi": 92,
          "time": 37.96875,
          "velocity": 0.5039370078740157,
          "duration": 0.07500000000000284
        },
        {
          "name": "G#5",
          "midi": 80,
          "time": 38.0625,
          "velocity": 0.5039370078740157,
          "duration": 0.07500000000000284
        },
        {
          "name": "G#6",
          "midi": 92,
          "time": 38.15625,
          "velocity": 0.5039370078740157,
          "duration": 0.07500000000000284
        },
        {
          "name": "G#5",
          "midi": 80,
          "time": 38.25,
          "velocity": 0.5039370078740157,
          "duration": 0.07500000000000284
        },
        {
          "name": "D#6",
          "midi": 87,
          "time": 38.25,
          "velocity": 0.5039370078740157,
          "duration": 0.07500000000000284
        },
        {
          "name": "G#6",
          "midi": 92,
          "time": 38.34375,
          "velocity": 0.5039370078740157,
          "duration": 0.07500000000000284
        },
        {
          "name": "G#5",
          "midi": 80,
          "time": 38.4375,
          "velocity": 0.5039370078740157,
          "duration": 0.07500000000000284
        },
        {
          "name": "G#6",
          "midi": 92,
          "time": 38.53125,
          "velocity": 0.5039370078740157,
          "duration": 0.07500000000000284
        },
        {
          "name": "A#5",
          "midi": 82,
          "time": 38.625,
          "velocity": 0.5039370078740157,
          "duration": 0.07500000000000284
        },
        {
          "name": "G#5",
          "midi": 80,
          "time": 38.625,
          "velocity": 0.5039370078740157,
          "duration": 0.07500000000000284
        },
        {
          "name": "G#6",
          "midi": 92,
          "time": 38.71875,
          "velocity": 0.5039370078740157,
          "duration": 0.07500000000000284
        },
        {
          "name": "G#5",
          "midi": 80,
          "time": 38.8125,
          "velocity": 0.5039370078740157,
          "duration": 0.07500000000000284
        },
        {
          "name": "G#6",
          "midi": 92,
          "time": 38.90625,
          "velocity": 0.5039370078740157,
          "duration": 0.07500000000000284
        },
        {
          "name": "G#5",
          "midi": 80,
          "time": 39,
          "velocity": 0.5039370078740157,
          "duration": 0.07500000000000284
        },
        {
          "name": "D#6",
          "midi": 87,
          "time": 39,
          "velocity": 0.5039370078740157,
          "duration": 0.07500000000000284
        },
        {
          "name": "G#6",
          "midi": 92,
          "time": 39.09375,
          "velocity": 0.5039370078740157,
          "duration": 0.07500000000000284
        },
        {
          "name": "G#5",
          "midi": 80,
          "time": 39.1875,
          "velocity": 0.5039370078740157,
          "duration": 0.07500000000000284
        },
        {
          "name": "G#6",
          "midi": 92,
          "time": 39.28125,
          "velocity": 0.5039370078740157,
          "duration": 0.07500000000000284
        },
        {
          "name": "G#5",
          "midi": 80,
          "time": 39.375,
          "velocity": 0.5039370078740157,
          "duration": 0.07500000000000284
        },
        {
          "name": "A#5",
          "midi": 82,
          "time": 39.375,
          "velocity": 0.5039370078740157,
          "duration": 0.07500000000000284
        },
        {
          "name": "G#6",
          "midi": 92,
          "time": 39.46875,
          "velocity": 0.5039370078740157,
          "duration": 0.07500000000000284
        },
        {
          "name": "G#5",
          "midi": 80,
          "time": 39.5625,
          "velocity": 0.5039370078740157,
          "duration": 0.07500000000000284
        },
        {
          "name": "G#6",
          "midi": 92,
          "time": 39.65625,
          "velocity": 0.5039370078740157,
          "duration": 0.07500000000000284
        },
        {
          "name": "G#5",
          "midi": 80,
          "time": 39.75,
          "velocity": 0.5039370078740157,
          "duration": 0.07500000000000284
        },
        {
          "name": "D#6",
          "midi": 87,
          "time": 39.75,
          "velocity": 0.5039370078740157,
          "duration": 0.07500000000000284
        },
        {
          "name": "G#6",
          "midi": 92,
          "time": 39.84375,
          "velocity": 0.5039370078740157,
          "duration": 0.07500000000000284
        },
        {
          "name": "G#5",
          "midi": 80,
          "time": 39.9375,
          "velocity": 0.5039370078740157,
          "duration": 0.07500000000000284
        },
        {
          "name": "G#6",
          "midi": 92,
          "time": 40.03125,
          "velocity": 0.5039370078740157,
          "duration": 0.07500000000000284
        },
        {
          "name": "A#5",
          "midi": 82,
          "time": 40.125,
          "velocity": 0.5039370078740157,
          "duration": 0.07500000000000284
        },
        {
          "name": "G#5",
          "midi": 80,
          "time": 40.125,
          "velocity": 0.5039370078740157,
          "duration": 0.07500000000000284
        },
        {
          "name": "G#6",
          "midi": 92,
          "time": 40.21875,
          "velocity": 0.5039370078740157,
          "duration": 0.07500000000000284
        },
        {
          "name": "G#5",
          "midi": 80,
          "time": 40.3125,
          "velocity": 0.5039370078740157,
          "duration": 0.07500000000000284
        },
        {
          "name": "G#6",
          "midi": 92,
          "time": 40.40625,
          "velocity": 0.5039370078740157,
          "duration": 0.07500000000000284
        },
        {
          "name": "G#5",
          "midi": 80,
          "time": 40.5,
          "velocity": 0.5039370078740157,
          "duration": 0.07500000000000284
        },
        {
          "name": "D#6",
          "midi": 87,
          "time": 40.5,
          "velocity": 0.5039370078740157,
          "duration": 0.07500000000000284
        },
        {
          "name": "G#6",
          "midi": 92,
          "time": 40.59375,
          "velocity": 0.5039370078740157,
          "duration": 0.07500000000000284
        },
        {
          "name": "G#5",
          "midi": 80,
          "time": 40.6875,
          "velocity": 0.5039370078740157,
          "duration": 0.07500000000000284
        },
        {
          "name": "G#6",
          "midi": 92,
          "time": 40.78125,
          "velocity": 0.5039370078740157,
          "duration": 0.07500000000000284
        },
        {
          "name": "A#5",
          "midi": 82,
          "time": 40.875,
          "velocity": 0.5039370078740157,
          "duration": 0.07500000000000284
        },
        {
          "name": "G#5",
          "midi": 80,
          "time": 40.875,
          "velocity": 0.5039370078740157,
          "duration": 0.07500000000000284
        },
        {
          "name": "G#6",
          "midi": 92,
          "time": 40.96875,
          "velocity": 0.5039370078740157,
          "duration": 0.07500000000000284
        },
        {
          "name": "G#5",
          "midi": 80,
          "time": 41.0625,
          "velocity": 0.5039370078740157,
          "duration": 0.07500000000000284
        },
        {
          "name": "G#6",
          "midi": 92,
          "time": 41.15625,
          "velocity": 0.5039370078740157,
          "duration": 0.07500000000000284
        },
        {
          "name": "G#5",
          "midi": 80,
          "time": 41.25,
          "velocity": 0.5039370078740157,
          "duration": 0.07500000000000284
        },
        {
          "name": "D#6",
          "midi": 87,
          "time": 41.25,
          "velocity": 0.5039370078740157,
          "duration": 0.07500000000000284
        },
        {
          "name": "G#6",
          "midi": 92,
          "time": 41.34375,
          "velocity": 0.5039370078740157,
          "duration": 0.07500000000000284
        },
        {
          "name": "G#5",
          "midi": 80,
          "time": 41.4375,
          "velocity": 0.5039370078740157,
          "duration": 0.07500000000000284
        },
        {
          "name": "G#6",
          "midi": 92,
          "time": 41.53125,
          "velocity": 0.5039370078740157,
          "duration": 0.07500000000000284
        },
        {
          "name": "G#5",
          "midi": 80,
          "time": 41.625,
          "velocity": 0.5039370078740157,
          "duration": 0.07500000000000284
        },
        {
          "name": "A#5",
          "midi": 82,
          "time": 41.625,
          "velocity": 0.5039370078740157,
          "duration": 0.07500000000000284
        },
        {
          "name": "G#6",
          "midi": 92,
          "time": 41.71875,
          "velocity": 0.5039370078740157,
          "duration": 0.07500000000000284
        },
        {
          "name": "G#5",
          "midi": 80,
          "time": 41.8125,
          "velocity": 0.5039370078740157,
          "duration": 0.07500000000000284
        },
        {
          "name": "G#6",
          "midi": 92,
          "time": 41.90625,
          "velocity": 0.5039370078740157,
          "duration": 0.07500000000000284
        },
        {
          "name": "D#6",
          "midi": 87,
          "time": 42,
          "velocity": 0.5039370078740157,
          "duration": 0.07500000000000284
        },
        {
          "name": "G#5",
          "midi": 80,
          "time": 42,
          "velocity": 0.5039370078740157,
          "duration": 0.07500000000000284
        },
        {
          "name": "G#6",
          "midi": 92,
          "time": 42.09375,
          "velocity": 0.5039370078740157,
          "duration": 0.07500000000000284
        },
        {
          "name": "G#5",
          "midi": 80,
          "time": 42.1875,
          "velocity": 0.5039370078740157,
          "duration": 0.07500000000000284
        },
        {
          "name": "G#6",
          "midi": 92,
          "time": 42.28125,
          "velocity": 0.5039370078740157,
          "duration": 0.07500000000000284
        },
        {
          "name": "A#5",
          "midi": 82,
          "time": 42.375,
          "velocity": 0.5039370078740157,
          "duration": 0.07500000000000284
        },
        {
          "name": "G#5",
          "midi": 80,
          "time": 42.375,
          "velocity": 0.5039370078740157,
          "duration": 0.07500000000000284
        },
        {
          "name": "G#6",
          "midi": 92,
          "time": 42.46875,
          "velocity": 0.5039370078740157,
          "duration": 0.07500000000000284
        },
        {
          "name": "G#5",
          "midi": 80,
          "time": 42.5625,
          "velocity": 0.5039370078740157,
          "duration": 0.07500000000000284
        },
        {
          "name": "G#6",
          "midi": 92,
          "time": 42.65625,
          "velocity": 0.5039370078740157,
          "duration": 0.07500000000000284
        },
        {
          "name": "D#6",
          "midi": 87,
          "time": 42.75,
          "velocity": 0.5039370078740157,
          "duration": 0.07500000000000284
        },
        {
          "name": "G#5",
          "midi": 80,
          "time": 42.75,
          "velocity": 0.5039370078740157,
          "duration": 0.07500000000000284
        },
        {
          "name": "G#6",
          "midi": 92,
          "time": 42.84375,
          "velocity": 0.5039370078740157,
          "duration": 0.07500000000000284
        },
        {
          "name": "G#5",
          "midi": 80,
          "time": 42.9375,
          "velocity": 0.5039370078740157,
          "duration": 0.07500000000000284
        },
        {
          "name": "G#6",
          "midi": 92,
          "time": 43.03125,
          "velocity": 0.5039370078740157,
          "duration": 0.07500000000000284
        },
        {
          "name": "G#5",
          "midi": 80,
          "time": 43.125,
          "velocity": 0.5039370078740157,
          "duration": 0.07500000000000284
        },
        {
          "name": "A#5",
          "midi": 82,
          "time": 43.125,
          "velocity": 0.5039370078740157,
          "duration": 0.07500000000000284
        },
        {
          "name": "G#6",
          "midi": 92,
          "time": 43.21875,
          "velocity": 0.5039370078740157,
          "duration": 0.07500000000000284
        },
        {
          "name": "G#5",
          "midi": 80,
          "time": 43.3125,
          "velocity": 0.5039370078740157,
          "duration": 0.07500000000000284
        },
        {
          "name": "G#6",
          "midi": 92,
          "time": 43.40625,
          "velocity": 0.5039370078740157,
          "duration": 0.07500000000000284
        },
        {
          "name": "D#6",
          "midi": 87,
          "time": 43.5,
          "velocity": 0.5039370078740157,
          "duration": 0.07500000000000284
        },
        {
          "name": "G#5",
          "midi": 80,
          "time": 43.5,
          "velocity": 0.5039370078740157,
          "duration": 0.07500000000000284
        },
        {
          "name": "G#6",
          "midi": 92,
          "time": 43.59375,
          "velocity": 0.5039370078740157,
          "duration": 0.07500000000000284
        },
        {
          "name": "G#5",
          "midi": 80,
          "time": 43.6875,
          "velocity": 0.5039370078740157,
          "duration": 0.07500000000000284
        },
        {
          "name": "G#6",
          "midi": 92,
          "time": 43.78125,
          "velocity": 0.5039370078740157,
          "duration": 0.07500000000000284
        },
        {
          "name": "G#5",
          "midi": 80,
          "time": 43.875,
          "velocity": 0.5039370078740157,
          "duration": 0.07500000000000284
        },
        {
          "name": "A#5",
          "midi": 82,
          "time": 43.875,
          "velocity": 0.5039370078740157,
          "duration": 0.07500000000000284
        },
        {
          "name": "G#6",
          "midi": 92,
          "time": 43.96875,
          "velocity": 0.5039370078740157,
          "duration": 0.07500000000000284
        },
        {
          "name": "G#5",
          "midi": 80,
          "time": 44.0625,
          "velocity": 0.5039370078740157,
          "duration": 0.07500000000000284
        },
        {
          "name": "G#6",
          "midi": 92,
          "time": 44.15625,
          "velocity": 0.5039370078740157,
          "duration": 0.07500000000000284
        },
        {
          "name": "G#5",
          "midi": 80,
          "time": 44.25,
          "velocity": 0.5039370078740157,
          "duration": 0.07500000000000284
        },
        {
          "name": "D#6",
          "midi": 87,
          "time": 44.25,
          "velocity": 0.5039370078740157,
          "duration": 0.07500000000000284
        },
        {
          "name": "G#6",
          "midi": 92,
          "time": 44.34375,
          "velocity": 0.5039370078740157,
          "duration": 0.07500000000000284
        },
        {
          "name": "G#5",
          "midi": 80,
          "time": 44.4375,
          "velocity": 0.5039370078740157,
          "duration": 0.07500000000000284
        },
        {
          "name": "G#6",
          "midi": 92,
          "time": 44.53125,
          "velocity": 0.5039370078740157,
          "duration": 0.07500000000000284
        },
        {
          "name": "G#5",
          "midi": 80,
          "time": 44.625,
          "velocity": 0.5039370078740157,
          "duration": 0.07500000000000284
        },
        {
          "name": "A#5",
          "midi": 82,
          "time": 44.625,
          "velocity": 0.5039370078740157,
          "duration": 0.07500000000000284
        },
        {
          "name": "G#6",
          "midi": 92,
          "time": 44.71875,
          "velocity": 0.5039370078740157,
          "duration": 0.07500000000000284
        },
        {
          "name": "G#5",
          "midi": 80,
          "time": 44.8125,
          "velocity": 0.5039370078740157,
          "duration": 0.07500000000000284
        },
        {
          "name": "G#6",
          "midi": 92,
          "time": 44.90625,
          "velocity": 0.5039370078740157,
          "duration": 0.07500000000000284
        },
        {
          "name": "D#6",
          "midi": 87,
          "time": 45,
          "velocity": 0.5039370078740157,
          "duration": 0.07500000000000284
        },
        {
          "name": "G#5",
          "midi": 80,
          "time": 45,
          "velocity": 0.5039370078740157,
          "duration": 0.07500000000000284
        },
        {
          "name": "G#6",
          "midi": 92,
          "time": 45.09375,
          "velocity": 0.5039370078740157,
          "duration": 0.07500000000000284
        },
        {
          "name": "G#5",
          "midi": 80,
          "time": 45.1875,
          "velocity": 0.5039370078740157,
          "duration": 0.07500000000000284
        },
        {
          "name": "G#6",
          "midi": 92,
          "time": 45.28125,
          "velocity": 0.5039370078740157,
          "duration": 0.07500000000000284
        },
        {
          "name": "A#5",
          "midi": 82,
          "time": 45.375,
          "velocity": 0.5039370078740157,
          "duration": 0.07500000000000284
        },
        {
          "name": "G#5",
          "midi": 80,
          "time": 45.375,
          "velocity": 0.5039370078740157,
          "duration": 0.07500000000000284
        },
        {
          "name": "G#6",
          "midi": 92,
          "time": 45.46875,
          "velocity": 0.5039370078740157,
          "duration": 0.07500000000000284
        },
        {
          "name": "G#5",
          "midi": 80,
          "time": 45.5625,
          "velocity": 0.5039370078740157,
          "duration": 0.07500000000000284
        },
        {
          "name": "G#6",
          "midi": 92,
          "time": 45.65625,
          "velocity": 0.5039370078740157,
          "duration": 0.07500000000000284
        },
        {
          "name": "D#6",
          "midi": 87,
          "time": 45.75,
          "velocity": 0.5039370078740157,
          "duration": 0.07500000000000284
        },
        {
          "name": "G#5",
          "midi": 80,
          "time": 45.75,
          "velocity": 0.5039370078740157,
          "duration": 0.07500000000000284
        },
        {
          "name": "G#6",
          "midi": 92,
          "time": 45.84375,
          "velocity": 0.5039370078740157,
          "duration": 0.07500000000000284
        },
        {
          "name": "G#5",
          "midi": 80,
          "time": 45.9375,
          "velocity": 0.5039370078740157,
          "duration": 0.07500000000000284
        },
        {
          "name": "G#6",
          "midi": 92,
          "time": 46.03125,
          "velocity": 0.5039370078740157,
          "duration": 0.07500000000000284
        },
        {
          "name": "A#5",
          "midi": 82,
          "time": 46.125,
          "velocity": 0.5039370078740157,
          "duration": 0.07500000000000284
        },
        {
          "name": "G#5",
          "midi": 80,
          "time": 46.125,
          "velocity": 0.5039370078740157,
          "duration": 0.07500000000000284
        },
        {
          "name": "G#6",
          "midi": 92,
          "time": 46.21875,
          "velocity": 0.5039370078740157,
          "duration": 0.07500000000000284
        },
        {
          "name": "G#5",
          "midi": 80,
          "time": 46.3125,
          "velocity": 0.5039370078740157,
          "duration": 0.07500000000000284
        },
        {
          "name": "G#6",
          "midi": 92,
          "time": 46.40625,
          "velocity": 0.5039370078740157,
          "duration": 0.07500000000000284
        },
        {
          "name": "D#6",
          "midi": 87,
          "time": 46.5,
          "velocity": 0.5039370078740157,
          "duration": 0.07500000000000284
        },
        {
          "name": "G#5",
          "midi": 80,
          "time": 46.5,
          "velocity": 0.5039370078740157,
          "duration": 0.07500000000000284
        },
        {
          "name": "G#6",
          "midi": 92,
          "time": 46.59375,
          "velocity": 0.5039370078740157,
          "duration": 0.07500000000000284
        },
        {
          "name": "G#5",
          "midi": 80,
          "time": 46.6875,
          "velocity": 0.5039370078740157,
          "duration": 0.07500000000000284
        },
        {
          "name": "G#6",
          "midi": 92,
          "time": 46.78125,
          "velocity": 0.5039370078740157,
          "duration": 0.07500000000000284
        },
        {
          "name": "G#5",
          "midi": 80,
          "time": 46.875,
          "velocity": 0.5039370078740157,
          "duration": 0.07500000000000284
        },
        {
          "name": "A#5",
          "midi": 82,
          "time": 46.875,
          "velocity": 0.5039370078740157,
          "duration": 0.07500000000000284
        },
        {
          "name": "G#6",
          "midi": 92,
          "time": 46.96875,
          "velocity": 0.5039370078740157,
          "duration": 0.07500000000000284
        },
        {
          "name": "G#5",
          "midi": 80,
          "time": 47.0625,
          "velocity": 0.5039370078740157,
          "duration": 0.07500000000000284
        },
        {
          "name": "G#6",
          "midi": 92,
          "time": 47.15625,
          "velocity": 0.5039370078740157,
          "duration": 0.07500000000000284
        },
        {
          "name": "G#5",
          "midi": 80,
          "time": 47.25,
          "velocity": 0.5039370078740157,
          "duration": 0.07500000000000284
        },
        {
          "name": "D#6",
          "midi": 87,
          "time": 47.25,
          "velocity": 0.5039370078740157,
          "duration": 0.07500000000000284
        },
        {
          "name": "G#6",
          "midi": 92,
          "time": 47.34375,
          "velocity": 0.5039370078740157,
          "duration": 0.07500000000000284
        },
        {
          "name": "G#5",
          "midi": 80,
          "time": 47.4375,
          "velocity": 0.5039370078740157,
          "duration": 0.07500000000000284
        },
        {
          "name": "G#6",
          "midi": 92,
          "time": 47.53125,
          "velocity": 0.5039370078740157,
          "duration": 0.07500000000000284
        },
        {
          "name": "G#5",
          "midi": 80,
          "time": 47.625,
          "velocity": 0.5039370078740157,
          "duration": 0.07500000000000284
        },
        {
          "name": "A#5",
          "midi": 82,
          "time": 47.625,
          "velocity": 0.5039370078740157,
          "duration": 0.07500000000000284
        },
        {
          "name": "G#6",
          "midi": 92,
          "time": 47.71875,
          "velocity": 0.5039370078740157,
          "duration": 0.07500000000000284
        },
        {
          "name": "G#5",
          "midi": 80,
          "time": 47.8125,
          "velocity": 0.5039370078740157,
          "duration": 0.07500000000000284
        },
        {
          "name": "G#6",
          "midi": 92,
          "time": 47.90625,
          "velocity": 0.5039370078740157,
          "duration": 0.07500000000000284
        },
        {
          "name": "G#5",
          "midi": 80,
          "time": 48,
          "velocity": 0.5039370078740157,
          "duration": 0.07500000000000284
        },
        {
          "name": "D#6",
          "midi": 87,
          "time": 48,
          "velocity": 0.5039370078740157,
          "duration": 0.07500000000000284
        },
        {
          "name": "G#6",
          "midi": 92,
          "time": 48.09375,
          "velocity": 0.5039370078740157,
          "duration": 0.07500000000000284
        },
        {
          "name": "G#5",
          "midi": 80,
          "time": 48.1875,
          "velocity": 0.5039370078740157,
          "duration": 0.07500000000000284
        },
        {
          "name": "G#6",
          "midi": 92,
          "time": 48.28125,
          "velocity": 0.5039370078740157,
          "duration": 0.07500000000000284
        },
        {
          "name": "A#5",
          "midi": 82,
          "time": 48.375,
          "velocity": 0.5039370078740157,
          "duration": 0.07500000000000284
        },
        {
          "name": "G#5",
          "midi": 80,
          "time": 48.375,
          "velocity": 0.5039370078740157,
          "duration": 0.07500000000000284
        },
        {
          "name": "G#6",
          "midi": 92,
          "time": 48.46875,
          "velocity": 0.5039370078740157,
          "duration": 0.07500000000000284
        },
        {
          "name": "G#5",
          "midi": 80,
          "time": 48.5625,
          "velocity": 0.5039370078740157,
          "duration": 0.07500000000000284
        },
        {
          "name": "G#6",
          "midi": 92,
          "time": 48.65625,
          "velocity": 0.5039370078740157,
          "duration": 0.07500000000000284
        },
        {
          "name": "G#5",
          "midi": 80,
          "time": 48.75,
          "velocity": 0.5039370078740157,
          "duration": 0.07500000000000284
        },
        {
          "name": "D#6",
          "midi": 87,
          "time": 48.75,
          "velocity": 0.5039370078740157,
          "duration": 0.07500000000000284
        },
        {
          "name": "G#6",
          "midi": 92,
          "time": 48.84375,
          "velocity": 0.5039370078740157,
          "duration": 0.07500000000000284
        },
        {
          "name": "G#5",
          "midi": 80,
          "time": 48.9375,
          "velocity": 0.5039370078740157,
          "duration": 0.07500000000000284
        },
        {
          "name": "G#6",
          "midi": 92,
          "time": 49.03125,
          "velocity": 0.5039370078740157,
          "duration": 0.07500000000000284
        },
        {
          "name": "G#5",
          "midi": 80,
          "time": 49.125,
          "velocity": 0.5039370078740157,
          "duration": 0.07500000000000284
        },
        {
          "name": "A#5",
          "midi": 82,
          "time": 49.125,
          "velocity": 0.5039370078740157,
          "duration": 0.07500000000000284
        },
        {
          "name": "G#6",
          "midi": 92,
          "time": 49.21875,
          "velocity": 0.5039370078740157,
          "duration": 0.07500000000000284
        },
        {
          "name": "G#5",
          "midi": 80,
          "time": 49.3125,
          "velocity": 0.5039370078740157,
          "duration": 0.07500000000000284
        },
        {
          "name": "G#6",
          "midi": 92,
          "time": 49.40625,
          "velocity": 0.5039370078740157,
          "duration": 0.07500000000000284
        },
        {
          "name": "G#5",
          "midi": 80,
          "time": 49.5,
          "velocity": 0.5039370078740157,
          "duration": 0.07500000000000284
        },
        {
          "name": "D#6",
          "midi": 87,
          "time": 49.5,
          "velocity": 0.5039370078740157,
          "duration": 0.07500000000000284
        },
        {
          "name": "G#6",
          "midi": 92,
          "time": 49.59375,
          "velocity": 0.5039370078740157,
          "duration": 0.07500000000000284
        },
        {
          "name": "G#5",
          "midi": 80,
          "time": 49.6875,
          "velocity": 0.5039370078740157,
          "duration": 0.07500000000000284
        },
        {
          "name": "G#6",
          "midi": 92,
          "time": 49.78125,
          "velocity": 0.5039370078740157,
          "duration": 0.07500000000000284
        },
        {
          "name": "G#5",
          "midi": 80,
          "time": 49.875,
          "velocity": 0.5039370078740157,
          "duration": 0.07500000000000284
        },
        {
          "name": "A#5",
          "midi": 82,
          "time": 49.875,
          "velocity": 0.5039370078740157,
          "duration": 0.07500000000000284
        },
        {
          "name": "G#6",
          "midi": 92,
          "time": 49.96875,
          "velocity": 0.5039370078740157,
          "duration": 0.07500000000000284
        },
        {
          "name": "G#5",
          "midi": 80,
          "time": 50.0625,
          "velocity": 0.5039370078740157,
          "duration": 0.07500000000000284
        },
        {
          "name": "G#6",
          "midi": 92,
          "time": 50.15625,
          "velocity": 0.5039370078740157,
          "duration": 0.07500000000000284
        },
        {
          "name": "D#6",
          "midi": 87,
          "time": 50.25,
          "velocity": 0.5039370078740157,
          "duration": 0.07500000000000284
        },
        {
          "name": "G#5",
          "midi": 80,
          "time": 50.25,
          "velocity": 0.5039370078740157,
          "duration": 0.07500000000000284
        },
        {
          "name": "G#6",
          "midi": 92,
          "time": 50.34375,
          "velocity": 0.5039370078740157,
          "duration": 0.07500000000000284
        },
        {
          "name": "G#5",
          "midi": 80,
          "time": 50.4375,
          "velocity": 0.5039370078740157,
          "duration": 0.07500000000000284
        },
        {
          "name": "G#6",
          "midi": 92,
          "time": 50.53125,
          "velocity": 0.5039370078740157,
          "duration": 0.07500000000000284
        },
        {
          "name": "A#5",
          "midi": 82,
          "time": 50.625,
          "velocity": 0.5039370078740157,
          "duration": 0.07500000000000284
        },
        {
          "name": "G#5",
          "midi": 80,
          "time": 50.625,
          "velocity": 0.5039370078740157,
          "duration": 0.07500000000000284
        },
        {
          "name": "G#6",
          "midi": 92,
          "time": 50.71875,
          "velocity": 0.5039370078740157,
          "duration": 0.07500000000000284
        },
        {
          "name": "G#5",
          "midi": 80,
          "time": 50.8125,
          "velocity": 0.5039370078740157,
          "duration": 0.07500000000000284
        },
        {
          "name": "G#6",
          "midi": 92,
          "time": 50.90625,
          "velocity": 0.5039370078740157,
          "duration": 0.07500000000000284
        },
        {
          "name": "D#6",
          "midi": 87,
          "time": 51,
          "velocity": 0.5039370078740157,
          "duration": 0.07500000000000284
        },
        {
          "name": "G#5",
          "midi": 80,
          "time": 51,
          "velocity": 0.5039370078740157,
          "duration": 0.07500000000000284
        },
        {
          "name": "G#6",
          "midi": 92,
          "time": 51.09375,
          "velocity": 0.5039370078740157,
          "duration": 0.07500000000000284
        },
        {
          "name": "G#5",
          "midi": 80,
          "time": 51.1875,
          "velocity": 0.5039370078740157,
          "duration": 0.07500000000000284
        },
        {
          "name": "G#6",
          "midi": 92,
          "time": 51.28125,
          "velocity": 0.5039370078740157,
          "duration": 0.07500000000000284
        },
        {
          "name": "G#5",
          "midi": 80,
          "time": 51.375,
          "velocity": 0.5039370078740157,
          "duration": 0.07500000000000284
        },
        {
          "name": "A#5",
          "midi": 82,
          "time": 51.375,
          "velocity": 0.5039370078740157,
          "duration": 0.07500000000000284
        },
        {
          "name": "G#6",
          "midi": 92,
          "time": 51.46875,
          "velocity": 0.5039370078740157,
          "duration": 0.07500000000000284
        },
        {
          "name": "G#5",
          "midi": 80,
          "time": 51.5625,
          "velocity": 0.5039370078740157,
          "duration": 0.07500000000000284
        },
        {
          "name": "G#6",
          "midi": 92,
          "time": 51.65625,
          "velocity": 0.5039370078740157,
          "duration": 0.07500000000000284
        },
        {
          "name": "G#5",
          "midi": 80,
          "time": 51.75,
          "velocity": 0.5039370078740157,
          "duration": 0.07500000000000284
        },
        {
          "name": "D#6",
          "midi": 87,
          "time": 51.75,
          "velocity": 0.5039370078740157,
          "duration": 0.07500000000000284
        },
        {
          "name": "G#6",
          "midi": 92,
          "time": 51.84375,
          "velocity": 0.5039370078740157,
          "duration": 0.07500000000000284
        },
        {
          "name": "G#5",
          "midi": 80,
          "time": 51.9375,
          "velocity": 0.5039370078740157,
          "duration": 0.07500000000000284
        },
        {
          "name": "G#6",
          "midi": 92,
          "time": 52.03125,
          "velocity": 0.5039370078740157,
          "duration": 0.07500000000000284
        },
        {
          "name": "G#5",
          "midi": 80,
          "time": 52.125,
          "velocity": 0.5039370078740157,
          "duration": 0.07500000000000284
        },
        {
          "name": "A#5",
          "midi": 82,
          "time": 52.125,
          "velocity": 0.5039370078740157,
          "duration": 0.07500000000000284
        },
        {
          "name": "G#6",
          "midi": 92,
          "time": 52.21875,
          "velocity": 0.5039370078740157,
          "duration": 0.07500000000000284
        },
        {
          "name": "G#5",
          "midi": 80,
          "time": 52.3125,
          "velocity": 0.5039370078740157,
          "duration": 0.07500000000000284
        },
        {
          "name": "G#6",
          "midi": 92,
          "time": 52.40625,
          "velocity": 0.5039370078740157,
          "duration": 0.07500000000000284
        },
        {
          "name": "G#5",
          "midi": 80,
          "time": 52.5,
          "velocity": 0.5039370078740157,
          "duration": 0.07500000000000284
        },
        {
          "name": "D#6",
          "midi": 87,
          "time": 52.5,
          "velocity": 0.5039370078740157,
          "duration": 0.07500000000000284
        },
        {
          "name": "G#6",
          "midi": 92,
          "time": 52.59375,
          "velocity": 0.5039370078740157,
          "duration": 0.07500000000000284
        },
        {
          "name": "G#5",
          "midi": 80,
          "time": 52.6875,
          "velocity": 0.5039370078740157,
          "duration": 0.07500000000000284
        },
        {
          "name": "G#6",
          "midi": 92,
          "time": 52.78125,
          "velocity": 0.5039370078740157,
          "duration": 0.07500000000000284
        },
        {
          "name": "G#5",
          "midi": 80,
          "time": 52.875,
          "velocity": 0.5039370078740157,
          "duration": 0.07500000000000284
        },
        {
          "name": "A#5",
          "midi": 82,
          "time": 52.875,
          "velocity": 0.5039370078740157,
          "duration": 0.07500000000000284
        },
        {
          "name": "G#6",
          "midi": 92,
          "time": 52.96875,
          "velocity": 0.5039370078740157,
          "duration": 0.07500000000000284
        },
        {
          "name": "G#5",
          "midi": 80,
          "time": 53.0625,
          "velocity": 0.5039370078740157,
          "duration": 0.07500000000000284
        },
        {
          "name": "G#6",
          "midi": 92,
          "time": 53.15625,
          "velocity": 0.5039370078740157,
          "duration": 0.07500000000000284
        },
        {
          "name": "D#6",
          "midi": 87,
          "time": 53.25,
          "velocity": 0.5039370078740157,
          "duration": 0.07500000000000284
        },
        {
          "name": "G#5",
          "midi": 80,
          "time": 53.25,
          "velocity": 0.5039370078740157,
          "duration": 0.07500000000000284
        },
        {
          "name": "G#6",
          "midi": 92,
          "time": 53.34375,
          "velocity": 0.5039370078740157,
          "duration": 0.07500000000000284
        },
        {
          "name": "G#5",
          "midi": 80,
          "time": 53.4375,
          "velocity": 0.5039370078740157,
          "duration": 0.07500000000000284
        },
        {
          "name": "G#6",
          "midi": 92,
          "time": 53.53125,
          "velocity": 0.5039370078740157,
          "duration": 0.07500000000000284
        },
        {
          "name": "A#5",
          "midi": 82,
          "time": 53.625,
          "velocity": 0.5039370078740157,
          "duration": 0.07500000000000284
        },
        {
          "name": "G#5",
          "midi": 80,
          "time": 53.625,
          "velocity": 0.5039370078740157,
          "duration": 0.07500000000000284
        },
        {
          "name": "G#6",
          "midi": 92,
          "time": 53.71875,
          "velocity": 0.5039370078740157,
          "duration": 0.07500000000000284
        },
        {
          "name": "G#5",
          "midi": 80,
          "time": 53.8125,
          "velocity": 0.5039370078740157,
          "duration": 0.07500000000000284
        },
        {
          "name": "G#6",
          "midi": 92,
          "time": 53.90625,
          "velocity": 0.5039370078740157,
          "duration": 0.07500000000000284
        },
        {
          "name": "G#5",
          "midi": 80,
          "time": 54,
          "velocity": 0.5039370078740157,
          "duration": 0.07500000000000284
        },
        {
          "name": "D#6",
          "midi": 87,
          "time": 54,
          "velocity": 0.5039370078740157,
          "duration": 0.07500000000000284
        },
        {
          "name": "G#6",
          "midi": 92,
          "time": 54.09375,
          "velocity": 0.5039370078740157,
          "duration": 0.07500000000000284
        },
        {
          "name": "G#5",
          "midi": 80,
          "time": 54.1875,
          "velocity": 0.5039370078740157,
          "duration": 0.07500000000000284
        },
        {
          "name": "G#6",
          "midi": 92,
          "time": 54.28125,
          "velocity": 0.5039370078740157,
          "duration": 0.07500000000000284
        },
        {
          "name": "G#5",
          "midi": 80,
          "time": 54.375,
          "velocity": 0.5039370078740157,
          "duration": 0.07500000000000284
        },
        {
          "name": "A#5",
          "midi": 82,
          "time": 54.375,
          "velocity": 0.5039370078740157,
          "duration": 0.07500000000000284
        },
        {
          "name": "G#6",
          "midi": 92,
          "time": 54.46875,
          "velocity": 0.5039370078740157,
          "duration": 0.07500000000000284
        },
        {
          "name": "G#5",
          "midi": 80,
          "time": 54.5625,
          "velocity": 0.5039370078740157,
          "duration": 0.07500000000000284
        },
        {
          "name": "G#6",
          "midi": 92,
          "time": 54.65625,
          "velocity": 0.5039370078740157,
          "duration": 0.07500000000000284
        },
        {
          "name": "D#6",
          "midi": 87,
          "time": 54.75,
          "velocity": 0.5039370078740157,
          "duration": 0.07500000000000284
        },
        {
          "name": "G#5",
          "midi": 80,
          "time": 54.75,
          "velocity": 0.5039370078740157,
          "duration": 0.07500000000000284
        },
        {
          "name": "G#6",
          "midi": 92,
          "time": 54.84375,
          "velocity": 0.5039370078740157,
          "duration": 0.07500000000000284
        },
        {
          "name": "G#5",
          "midi": 80,
          "time": 54.9375,
          "velocity": 0.5039370078740157,
          "duration": 0.07500000000000284
        },
        {
          "name": "G#6",
          "midi": 92,
          "time": 55.03125,
          "velocity": 0.5039370078740157,
          "duration": 0.07500000000000284
        },
        {
          "name": "G#5",
          "midi": 80,
          "time": 55.125,
          "velocity": 0.5039370078740157,
          "duration": 0.07500000000000284
        },
        {
          "name": "A#5",
          "midi": 82,
          "time": 55.125,
          "velocity": 0.5039370078740157,
          "duration": 0.07500000000000284
        },
        {
          "name": "G#6",
          "midi": 92,
          "time": 55.21875,
          "velocity": 0.5039370078740157,
          "duration": 0.07500000000000284
        },
        {
          "name": "G#5",
          "midi": 80,
          "time": 55.3125,
          "velocity": 0.5039370078740157,
          "duration": 0.07500000000000284
        },
        {
          "name": "G#6",
          "midi": 92,
          "time": 55.40625,
          "velocity": 0.5039370078740157,
          "duration": 0.07500000000000284
        },
        {
          "name": "G#5",
          "midi": 80,
          "time": 55.5,
          "velocity": 0.5039370078740157,
          "duration": 0.07500000000000284
        },
        {
          "name": "D#6",
          "midi": 87,
          "time": 55.5,
          "velocity": 0.5039370078740157,
          "duration": 0.07500000000000284
        },
        {
          "name": "G#6",
          "midi": 92,
          "time": 55.59375,
          "velocity": 0.5039370078740157,
          "duration": 0.07500000000000284
        },
        {
          "name": "G#5",
          "midi": 80,
          "time": 55.6875,
          "velocity": 0.5039370078740157,
          "duration": 0.07500000000000284
        },
        {
          "name": "G#6",
          "midi": 92,
          "time": 55.78125,
          "velocity": 0.5039370078740157,
          "duration": 0.07500000000000284
        },
        {
          "name": "G#5",
          "midi": 80,
          "time": 55.875,
          "velocity": 0.5039370078740157,
          "duration": 0.07500000000000284
        },
        {
          "name": "A#5",
          "midi": 82,
          "time": 55.875,
          "velocity": 0.5039370078740157,
          "duration": 0.07500000000000284
        },
        {
          "name": "G#6",
          "midi": 92,
          "time": 55.96875,
          "velocity": 0.5039370078740157,
          "duration": 0.07500000000000284
        },
        {
          "name": "G#5",
          "midi": 80,
          "time": 56.0625,
          "velocity": 0.5039370078740157,
          "duration": 0.07500000000000284
        },
        {
          "name": "G#6",
          "midi": 92,
          "time": 56.15625,
          "velocity": 0.5039370078740157,
          "duration": 0.07500000000000284
        },
        {
          "name": "D#6",
          "midi": 87,
          "time": 56.25,
          "velocity": 0.5039370078740157,
          "duration": 0.07500000000000284
        },
        {
          "name": "G#5",
          "midi": 80,
          "time": 56.25,
          "velocity": 0.5039370078740157,
          "duration": 0.07500000000000284
        },
        {
          "name": "G#6",
          "midi": 92,
          "time": 56.34375,
          "velocity": 0.5039370078740157,
          "duration": 0.07500000000000284
        },
        {
          "name": "G#5",
          "midi": 80,
          "time": 56.4375,
          "velocity": 0.5039370078740157,
          "duration": 0.07500000000000284
        },
        {
          "name": "G#6",
          "midi": 92,
          "time": 56.53125,
          "velocity": 0.5039370078740157,
          "duration": 0.07500000000000284
        },
        {
          "name": "G#5",
          "midi": 80,
          "time": 56.625,
          "velocity": 0.5039370078740157,
          "duration": 0.07500000000000284
        },
        {
          "name": "A#5",
          "midi": 82,
          "time": 56.625,
          "velocity": 0.5039370078740157,
          "duration": 0.07500000000000284
        },
        {
          "name": "G#6",
          "midi": 92,
          "time": 56.71875,
          "velocity": 0.5039370078740157,
          "duration": 0.07500000000000284
        },
        {
          "name": "G#5",
          "midi": 80,
          "time": 56.8125,
          "velocity": 0.5039370078740157,
          "duration": 0.07500000000000284
        },
        {
          "name": "G#6",
          "midi": 92,
          "time": 56.90625,
          "velocity": 0.5039370078740157,
          "duration": 0.07500000000000284
        },
        {
          "name": "G#5",
          "midi": 80,
          "time": 57,
          "velocity": 0.5039370078740157,
          "duration": 0.07500000000000284
        },
        {
          "name": "D#6",
          "midi": 87,
          "time": 57,
          "velocity": 0.5039370078740157,
          "duration": 0.07500000000000284
        },
        {
          "name": "G#6",
          "midi": 92,
          "time": 57.09375,
          "velocity": 0.5039370078740157,
          "duration": 0.07500000000000284
        },
        {
          "name": "G#5",
          "midi": 80,
          "time": 57.1875,
          "velocity": 0.5039370078740157,
          "duration": 0.07500000000000284
        },
        {
          "name": "G#6",
          "midi": 92,
          "time": 57.28125,
          "velocity": 0.5039370078740157,
          "duration": 0.07500000000000284
        },
        {
          "name": "G#5",
          "midi": 80,
          "time": 57.375,
          "velocity": 0.5039370078740157,
          "duration": 0.07500000000000284
        },
        {
          "name": "A#5",
          "midi": 82,
          "time": 57.375,
          "velocity": 0.5039370078740157,
          "duration": 0.07500000000000284
        },
        {
          "name": "G#6",
          "midi": 92,
          "time": 57.46875,
          "velocity": 0.5039370078740157,
          "duration": 0.07500000000000284
        },
        {
          "name": "G#5",
          "midi": 80,
          "time": 57.5625,
          "velocity": 0.5039370078740157,
          "duration": 0.07500000000000284
        },
        {
          "name": "G#6",
          "midi": 92,
          "time": 57.65625,
          "velocity": 0.5039370078740157,
          "duration": 0.07500000000000284
        },
        {
          "name": "D#6",
          "midi": 87,
          "time": 57.75,
          "velocity": 0.5039370078740157,
          "duration": 0.07500000000000284
        },
        {
          "name": "G#5",
          "midi": 80,
          "time": 57.75,
          "velocity": 0.5039370078740157,
          "duration": 0.07500000000000284
        },
        {
          "name": "G#6",
          "midi": 92,
          "time": 57.84375,
          "velocity": 0.5039370078740157,
          "duration": 0.07500000000000284
        },
        {
          "name": "G#5",
          "midi": 80,
          "time": 57.9375,
          "velocity": 0.5039370078740157,
          "duration": 0.07500000000000284
        },
        {
          "name": "G#6",
          "midi": 92,
          "time": 58.03125,
          "velocity": 0.5039370078740157,
          "duration": 0.07500000000000284
        },
        {
          "name": "A#5",
          "midi": 82,
          "time": 58.125,
          "velocity": 0.5039370078740157,
          "duration": 0.07500000000000284
        },
        {
          "name": "G#5",
          "midi": 80,
          "time": 58.125,
          "velocity": 0.5039370078740157,
          "duration": 0.07500000000000284
        },
        {
          "name": "G#6",
          "midi": 92,
          "time": 58.21875,
          "velocity": 0.5039370078740157,
          "duration": 0.07500000000000284
        },
        {
          "name": "G#5",
          "midi": 80,
          "time": 58.3125,
          "velocity": 0.5039370078740157,
          "duration": 0.07500000000000284
        },
        {
          "name": "G#6",
          "midi": 92,
          "time": 58.40625,
          "velocity": 0.5039370078740157,
          "duration": 0.07500000000000284
        },
        {
          "name": "G#5",
          "midi": 80,
          "time": 58.5,
          "velocity": 0.5039370078740157,
          "duration": 0.07500000000000284
        },
        {
          "name": "D#6",
          "midi": 87,
          "time": 58.5,
          "velocity": 0.5039370078740157,
          "duration": 0.07500000000000284
        },
        {
          "name": "G#6",
          "midi": 92,
          "time": 58.59375,
          "velocity": 0.5039370078740157,
          "duration": 0.07500000000000284
        },
        {
          "name": "G#5",
          "midi": 80,
          "time": 58.6875,
          "velocity": 0.5039370078740157,
          "duration": 0.07500000000000284
        },
        {
          "name": "G#6",
          "midi": 92,
          "time": 58.78125,
          "velocity": 0.5039370078740157,
          "duration": 0.07500000000000284
        },
        {
          "name": "G#5",
          "midi": 80,
          "time": 58.875,
          "velocity": 0.5039370078740157,
          "duration": 0.07500000000000284
        },
        {
          "name": "A#5",
          "midi": 82,
          "time": 58.875,
          "velocity": 0.5039370078740157,
          "duration": 0.07500000000000284
        },
        {
          "name": "G#6",
          "midi": 92,
          "time": 58.96875,
          "velocity": 0.5039370078740157,
          "duration": 0.07500000000000284
        },
        {
          "name": "G#5",
          "midi": 80,
          "time": 59.0625,
          "velocity": 0.5039370078740157,
          "duration": 0.07500000000000284
        },
        {
          "name": "G#6",
          "midi": 92,
          "time": 59.15625,
          "velocity": 0.5039370078740157,
          "duration": 0.07500000000000284
        },
        {
          "name": "G#5",
          "midi": 80,
          "time": 59.25,
          "velocity": 0.5039370078740157,
          "duration": 0.07500000000000284
        },
        {
          "name": "D#6",
          "midi": 87,
          "time": 59.25,
          "velocity": 0.5039370078740157,
          "duration": 0.07500000000000284
        },
        {
          "name": "G#6",
          "midi": 92,
          "time": 59.34375,
          "velocity": 0.5039370078740157,
          "duration": 0.07500000000000284
        },
        {
          "name": "G#5",
          "midi": 80,
          "time": 59.4375,
          "velocity": 0.5039370078740157,
          "duration": 0.07500000000000284
        },
        {
          "name": "G#6",
          "midi": 92,
          "time": 59.53125,
          "velocity": 0.5039370078740157,
          "duration": 0.07500000000000284
        },
        {
          "name": "A#5",
          "midi": 82,
          "time": 59.625,
          "velocity": 0.5039370078740157,
          "duration": 0.07500000000000284
        },
        {
          "name": "G#5",
          "midi": 80,
          "time": 59.625,
          "velocity": 0.5039370078740157,
          "duration": 0.07500000000000284
        },
        {
          "name": "G#6",
          "midi": 92,
          "time": 59.71875,
          "velocity": 0.5039370078740157,
          "duration": 0.07500000000000284
        },
        {
          "name": "G#5",
          "midi": 80,
          "time": 59.8125,
          "velocity": 0.5039370078740157,
          "duration": 0.07500000000000284
        },
        {
          "name": "G#6",
          "midi": 92,
          "time": 59.90625,
          "velocity": 0.5039370078740157,
          "duration": 0.07500000000000284
        },
        {
          "name": "F5",
          "midi": 77,
          "time": 60,
          "velocity": 1,
          "duration": 0.14999999999999858
        },
        {
          "name": "E5",
          "midi": 76,
          "time": 60.1875,
          "velocity": 1,
          "duration": 0.14999999999999858
        },
        {
          "name": "C5",
          "midi": 72,
          "time": 60.375,
          "velocity": 1,
          "duration": 0.14999999999999858
        },
        {
          "name": "F5",
          "midi": 77,
          "time": 60.5625,
          "velocity": 1,
          "duration": 0.14999999999999858
        },
        {
          "name": "E5",
          "midi": 76,
          "time": 60.75,
          "velocity": 1,
          "duration": 0.14999999999999858
        },
        {
          "name": "C5",
          "midi": 72,
          "time": 60.9375,
          "velocity": 1,
          "duration": 0.14999999999999858
        },
        {
          "name": "F5",
          "midi": 77,
          "time": 61.125,
          "velocity": 1,
          "duration": 0.14999999999999858
        },
        {
          "name": "E5",
          "midi": 76,
          "time": 61.3125,
          "velocity": 1,
          "duration": 0.14999999999999858
        },
        {
          "name": "C5",
          "midi": 72,
          "time": 61.5,
          "velocity": 1,
          "duration": 0.14999999999999858
        },
        {
          "name": "F5",
          "midi": 77,
          "time": 61.6875,
          "velocity": 1,
          "duration": 0.14999999999999858
        },
        {
          "name": "E5",
          "midi": 76,
          "time": 61.875,
          "velocity": 1,
          "duration": 0.14999999999999858
        },
        {
          "name": "C5",
          "midi": 72,
          "time": 62.0625,
          "velocity": 1,
          "duration": 0.14999999999999858
        },
        {
          "name": "F5",
          "midi": 77,
          "time": 62.25,
          "velocity": 1,
          "duration": 0.14999999999999858
        },
        {
          "name": "C5",
          "midi": 72,
          "time": 62.4375,
          "velocity": 1,
          "duration": 0.14999999999999858
        },
        {
          "name": "D5",
          "midi": 74,
          "time": 62.625,
          "velocity": 1,
          "duration": 0.14999999999999858
        },
        {
          "name": "E5",
          "midi": 76,
          "time": 62.8125,
          "velocity": 1,
          "duration": 0.14999999999999858
        },
        {
          "name": "F5",
          "midi": 77,
          "time": 63,
          "velocity": 1,
          "duration": 0.8999999999999986
        },
        {
          "name": "C6",
          "midi": 84,
          "time": 111,
          "velocity": 0.8346456692913385,
          "duration": 0.15000000000000568
        },
        {
          "name": "B5",
          "midi": 83,
          "time": 111.1875,
          "velocity": 0.8346456692913385,
          "duration": 0.15000000000000568
        },
        {
          "name": "G5",
          "midi": 79,
          "time": 111.375,
          "velocity": 0.84251968503937,
          "duration": 0.15000000000000568
        },
        {
          "name": "C6",
          "midi": 84,
          "time": 111.5625,
          "velocity": 0.84251968503937,
          "duration": 0.15000000000000568
        },
        {
          "name": "B5",
          "midi": 83,
          "time": 111.75,
          "velocity": 0.8503937007874016,
          "duration": 0.15000000000000568
        },
        {
          "name": "G5",
          "midi": 79,
          "time": 111.9375,
          "velocity": 0.8503937007874016,
          "duration": 0.15000000000000568
        },
        {
          "name": "C6",
          "midi": 84,
          "time": 112.125,
          "velocity": 0.8503937007874016,
          "duration": 0.15000000000000568
        },
        {
          "name": "B5",
          "midi": 83,
          "time": 112.3125,
          "velocity": 0.8582677165354331,
          "duration": 0.15000000000000568
        },
        {
          "name": "G5",
          "midi": 79,
          "time": 112.5,
          "velocity": 0.8582677165354331,
          "duration": 0.15000000000000568
        },
        {
          "name": "C6",
          "midi": 84,
          "time": 112.6875,
          "velocity": 0.8582677165354331,
          "duration": 0.15000000000000568
        },
        {
          "name": "B5",
          "midi": 83,
          "time": 112.875,
          "velocity": 0.8661417322834646,
          "duration": 0.15000000000000568
        },
        {
          "name": "G5",
          "midi": 79,
          "time": 113.0625,
          "velocity": 0.8661417322834646,
          "duration": 0.15000000000000568
        },
        {
          "name": "C6",
          "midi": 84,
          "time": 113.25,
          "velocity": 0.8740157480314961,
          "duration": 0.15000000000000568
        },
        {
          "name": "B5",
          "midi": 83,
          "time": 113.4375,
          "velocity": 0.8740157480314961,
          "duration": 0.15000000000000568
        },
        {
          "name": "G5",
          "midi": 79,
          "time": 113.625,
          "velocity": 0.8740157480314961,
          "duration": 0.15000000000000568
        },
        {
          "name": "C6",
          "midi": 84,
          "time": 113.8125,
          "velocity": 0.8818897637795275,
          "duration": 0.15000000000000568
        },
        {
          "name": "C6",
          "midi": 84,
          "time": 114,
          "velocity": 0.889763779527559,
          "duration": 0.15000000000000568
        },
        {
          "name": "B5",
          "midi": 83,
          "time": 114.1875,
          "velocity": 0.8976377952755905,
          "duration": 0.15000000000000568
        },
        {
          "name": "G5",
          "midi": 79,
          "time": 114.375,
          "velocity": 0.905511811023622,
          "duration": 0.15000000000000568
        },
        {
          "name": "C6",
          "midi": 84,
          "time": 114.5625,
          "velocity": 0.9133858267716536,
          "duration": 0.15000000000000568
        },
        {
          "name": "B5",
          "midi": 83,
          "time": 114.75,
          "velocity": 0.9212598425196851,
          "duration": 0.15000000000000568
        },
        {
          "name": "G5",
          "midi": 79,
          "time": 114.9375,
          "velocity": 0.9212598425196851,
          "duration": 0.15000000000000568
        },
        {
          "name": "C6",
          "midi": 84,
          "time": 115.125,
          "velocity": 0.9291338582677166,
          "duration": 0.15000000000000568
        },
        {
          "name": "B5",
          "midi": 83,
          "time": 115.3125,
          "velocity": 0.937007874015748,
          "duration": 0.15000000000000568
        },
        {
          "name": "G5",
          "midi": 79,
          "time": 115.5,
          "velocity": 0.9448818897637795,
          "duration": 0.15000000000000568
        },
        {
          "name": "C6",
          "midi": 84,
          "time": 115.6875,
          "velocity": 0.952755905511811,
          "duration": 0.15000000000000568
        },
        {
          "name": "B5",
          "midi": 83,
          "time": 115.875,
          "velocity": 0.9606299212598425,
          "duration": 0.15000000000000568
        },
        {
          "name": "G5",
          "midi": 79,
          "time": 116.0625,
          "velocity": 0.968503937007874,
          "duration": 0.15000000000000568
        },
        {
          "name": "C6",
          "midi": 84,
          "time": 116.25,
          "velocity": 0.9763779527559056,
          "duration": 0.15000000000000568
        },
        {
          "name": "A#5",
          "midi": 82,
          "time": 116.4375,
          "velocity": 0.9763779527559056,
          "duration": 0.15000000000000568
        },
        {
          "name": "A5",
          "midi": 81,
          "time": 116.625,
          "velocity": 0.984251968503937,
          "duration": 0.15000000000000568
        },
        {
          "name": "G5",
          "midi": 79,
          "time": 116.8125,
          "velocity": 0.9921259842519685,
          "duration": 0.15000000000000568
        },
        {
          "name": "F5",
          "midi": 77,
          "time": 117,
          "velocity": 1,
          "duration": 1.2000000000000028
        },
        {
          "name": "D#6",
          "midi": 87,
          "time": 141,
          "velocity": 0.5039370078740157,
          "duration": 0.07499999999998863
        },
        {
          "name": "G#5",
          "midi": 80,
          "time": 141,
          "velocity": 0.5039370078740157,
          "duration": 0.07499999999998863
        },
        {
          "name": "G#6",
          "midi": 92,
          "time": 141.09375,
          "velocity": 0.5039370078740157,
          "duration": 0.07499999999998863
        },
        {
          "name": "G#5",
          "midi": 80,
          "time": 141.1875,
          "velocity": 0.5039370078740157,
          "duration": 0.07499999999998863
        },
        {
          "name": "G#6",
          "midi": 92,
          "time": 141.28125,
          "velocity": 0.5039370078740157,
          "duration": 0.07499999999998863
        },
        {
          "name": "G#5",
          "midi": 80,
          "time": 141.375,
          "velocity": 0.5039370078740157,
          "duration": 0.07499999999998863
        },
        {
          "name": "A#5",
          "midi": 82,
          "time": 141.375,
          "velocity": 0.5039370078740157,
          "duration": 0.07499999999998863
        },
        {
          "name": "G#6",
          "midi": 92,
          "time": 141.46875,
          "velocity": 0.5039370078740157,
          "duration": 0.07499999999998863
        },
        {
          "name": "G#5",
          "midi": 80,
          "time": 141.5625,
          "velocity": 0.5039370078740157,
          "duration": 0.07499999999998863
        },
        {
          "name": "G#6",
          "midi": 92,
          "time": 141.65625,
          "velocity": 0.5039370078740157,
          "duration": 0.07499999999998863
        },
        {
          "name": "G#5",
          "midi": 80,
          "time": 141.75,
          "velocity": 0.5039370078740157,
          "duration": 0.07499999999998863
        },
        {
          "name": "D#6",
          "midi": 87,
          "time": 141.75,
          "velocity": 0.5039370078740157,
          "duration": 0.07499999999998863
        },
        {
          "name": "G#6",
          "midi": 92,
          "time": 141.84375,
          "velocity": 0.5039370078740157,
          "duration": 0.07499999999998863
        },
        {
          "name": "G#5",
          "midi": 80,
          "time": 141.9375,
          "velocity": 0.5039370078740157,
          "duration": 0.07499999999998863
        },
        {
          "name": "G#6",
          "midi": 92,
          "time": 142.03125,
          "velocity": 0.5039370078740157,
          "duration": 0.07499999999998863
        },
        {
          "name": "A#5",
          "midi": 82,
          "time": 142.125,
          "velocity": 0.5039370078740157,
          "duration": 0.07499999999998863
        },
        {
          "name": "G#5",
          "midi": 80,
          "time": 142.125,
          "velocity": 0.5039370078740157,
          "duration": 0.07499999999998863
        },
        {
          "name": "G#6",
          "midi": 92,
          "time": 142.21875,
          "velocity": 0.5039370078740157,
          "duration": 0.07499999999998863
        },
        {
          "name": "G#5",
          "midi": 80,
          "time": 142.3125,
          "velocity": 0.5039370078740157,
          "duration": 0.07499999999998863
        },
        {
          "name": "G#6",
          "midi": 92,
          "time": 142.40625,
          "velocity": 0.5039370078740157,
          "duration": 0.07499999999998863
        },
        {
          "name": "D#6",
          "midi": 87,
          "time": 142.5,
          "velocity": 0.5039370078740157,
          "duration": 0.07499999999998863
        },
        {
          "name": "G#5",
          "midi": 80,
          "time": 142.5,
          "velocity": 0.5039370078740157,
          "duration": 0.07499999999998863
        },
        {
          "name": "G#6",
          "midi": 92,
          "time": 142.59375,
          "velocity": 0.5039370078740157,
          "duration": 0.07499999999998863
        },
        {
          "name": "G#5",
          "midi": 80,
          "time": 142.6875,
          "velocity": 0.5039370078740157,
          "duration": 0.07499999999998863
        },
        {
          "name": "G#6",
          "midi": 92,
          "time": 142.78125,
          "velocity": 0.5039370078740157,
          "duration": 0.07499999999998863
        },
        {
          "name": "G#5",
          "midi": 80,
          "time": 142.875,
          "velocity": 0.5039370078740157,
          "duration": 0.07499999999998863
        },
        {
          "name": "A#5",
          "midi": 82,
          "time": 142.875,
          "velocity": 0.5039370078740157,
          "duration": 0.07499999999998863
        },
        {
          "name": "G#6",
          "midi": 92,
          "time": 142.96875,
          "velocity": 0.5039370078740157,
          "duration": 0.07499999999998863
        },
        {
          "name": "G#5",
          "midi": 80,
          "time": 143.0625,
          "velocity": 0.5039370078740157,
          "duration": 0.07499999999998863
        },
        {
          "name": "G#6",
          "midi": 92,
          "time": 143.15625,
          "velocity": 0.5039370078740157,
          "duration": 0.07499999999998863
        },
        {
          "name": "G#5",
          "midi": 80,
          "time": 143.25,
          "velocity": 0.5039370078740157,
          "duration": 0.07499999999998863
        },
        {
          "name": "D#6",
          "midi": 87,
          "time": 143.25,
          "velocity": 0.5039370078740157,
          "duration": 0.07499999999998863
        },
        {
          "name": "G#6",
          "midi": 92,
          "time": 143.34375,
          "velocity": 0.5039370078740157,
          "duration": 0.07499999999998863
        },
        {
          "name": "G#5",
          "midi": 80,
          "time": 143.4375,
          "velocity": 0.5039370078740157,
          "duration": 0.07499999999998863
        },
        {
          "name": "G#6",
          "midi": 92,
          "time": 143.53125,
          "velocity": 0.5039370078740157,
          "duration": 0.07499999999998863
        },
        {
          "name": "A#5",
          "midi": 82,
          "time": 143.625,
          "velocity": 0.5039370078740157,
          "duration": 0.07499999999998863
        },
        {
          "name": "G#5",
          "midi": 80,
          "time": 143.625,
          "velocity": 0.5039370078740157,
          "duration": 0.07499999999998863
        },
        {
          "name": "G#6",
          "midi": 92,
          "time": 143.71875,
          "velocity": 0.5039370078740157,
          "duration": 0.07499999999998863
        },
        {
          "name": "G#5",
          "midi": 80,
          "time": 143.8125,
          "velocity": 0.5039370078740157,
          "duration": 0.07499999999998863
        },
        {
          "name": "G#6",
          "midi": 92,
          "time": 143.90625,
          "velocity": 0.5039370078740157,
          "duration": 0.07499999999998863
        },
        {
          "name": "G#5",
          "midi": 80,
          "time": 144,
          "velocity": 0.5039370078740157,
          "duration": 0.07499999999998863
        },
        {
          "name": "D#6",
          "midi": 87,
          "time": 144,
          "velocity": 0.5039370078740157,
          "duration": 0.07499999999998863
        },
        {
          "name": "G#6",
          "midi": 92,
          "time": 144.09375,
          "velocity": 0.5039370078740157,
          "duration": 0.07499999999998863
        },
        {
          "name": "G#5",
          "midi": 80,
          "time": 144.1875,
          "velocity": 0.5039370078740157,
          "duration": 0.07499999999998863
        },
        {
          "name": "G#6",
          "midi": 92,
          "time": 144.28125,
          "velocity": 0.5039370078740157,
          "duration": 0.07499999999998863
        },
        {
          "name": "G#5",
          "midi": 80,
          "time": 144.375,
          "velocity": 0.5039370078740157,
          "duration": 0.07499999999998863
        },
        {
          "name": "A#5",
          "midi": 82,
          "time": 144.375,
          "velocity": 0.5039370078740157,
          "duration": 0.07499999999998863
        },
        {
          "name": "G#6",
          "midi": 92,
          "time": 144.46875,
          "velocity": 0.5039370078740157,
          "duration": 0.07499999999998863
        },
        {
          "name": "G#5",
          "midi": 80,
          "time": 144.5625,
          "velocity": 0.5039370078740157,
          "duration": 0.07499999999998863
        },
        {
          "name": "G#6",
          "midi": 92,
          "time": 144.65625,
          "velocity": 0.5039370078740157,
          "duration": 0.07499999999998863
        },
        {
          "name": "G#5",
          "midi": 80,
          "time": 144.75,
          "velocity": 0.5039370078740157,
          "duration": 0.07499999999998863
        },
        {
          "name": "D#6",
          "midi": 87,
          "time": 144.75,
          "velocity": 0.5039370078740157,
          "duration": 0.07499999999998863
        },
        {
          "name": "G#6",
          "midi": 92,
          "time": 144.84375,
          "velocity": 0.5039370078740157,
          "duration": 0.07499999999998863
        },
        {
          "name": "G#5",
          "midi": 80,
          "time": 144.9375,
          "velocity": 0.5039370078740157,
          "duration": 0.07499999999998863
        },
        {
          "name": "G#6",
          "midi": 92,
          "time": 145.03125,
          "velocity": 0.5039370078740157,
          "duration": 0.07499999999998863
        },
        {
          "name": "A#5",
          "midi": 82,
          "time": 145.125,
          "velocity": 0.5039370078740157,
          "duration": 0.07499999999998863
        },
        {
          "name": "G#5",
          "midi": 80,
          "time": 145.125,
          "velocity": 0.5039370078740157,
          "duration": 0.07499999999998863
        },
        {
          "name": "G#6",
          "midi": 92,
          "time": 145.21875,
          "velocity": 0.5039370078740157,
          "duration": 0.07499999999998863
        },
        {
          "name": "G#5",
          "midi": 80,
          "time": 145.3125,
          "velocity": 0.5039370078740157,
          "duration": 0.07499999999998863
        },
        {
          "name": "G#6",
          "midi": 92,
          "time": 145.40625,
          "velocity": 0.5039370078740157,
          "duration": 0.07499999999998863
        },
        {
          "name": "G#5",
          "midi": 80,
          "time": 145.5,
          "velocity": 0.5039370078740157,
          "duration": 0.07499999999998863
        },
        {
          "name": "D#6",
          "midi": 87,
          "time": 145.5,
          "velocity": 0.5039370078740157,
          "duration": 0.07499999999998863
        },
        {
          "name": "G#6",
          "midi": 92,
          "time": 145.59375,
          "velocity": 0.5039370078740157,
          "duration": 0.07499999999998863
        },
        {
          "name": "G#5",
          "midi": 80,
          "time": 145.6875,
          "velocity": 0.5039370078740157,
          "duration": 0.07499999999998863
        },
        {
          "name": "G#6",
          "midi": 92,
          "time": 145.78125,
          "velocity": 0.5039370078740157,
          "duration": 0.07499999999998863
        },
        {
          "name": "A#5",
          "midi": 82,
          "time": 145.875,
          "velocity": 0.5039370078740157,
          "duration": 0.07499999999998863
        },
        {
          "name": "G#5",
          "midi": 80,
          "time": 145.875,
          "velocity": 0.5039370078740157,
          "duration": 0.07499999999998863
        },
        {
          "name": "G#6",
          "midi": 92,
          "time": 145.96875,
          "velocity": 0.5039370078740157,
          "duration": 0.07499999999998863
        },
        {
          "name": "G#5",
          "midi": 80,
          "time": 146.0625,
          "velocity": 0.5039370078740157,
          "duration": 0.07499999999998863
        },
        {
          "name": "G#6",
          "midi": 92,
          "time": 146.15625,
          "velocity": 0.5039370078740157,
          "duration": 0.07499999999998863
        },
        {
          "name": "G#5",
          "midi": 80,
          "time": 146.25,
          "velocity": 0.5039370078740157,
          "duration": 0.07499999999998863
        },
        {
          "name": "D#6",
          "midi": 87,
          "time": 146.25,
          "velocity": 0.5039370078740157,
          "duration": 0.07499999999998863
        },
        {
          "name": "G#6",
          "midi": 92,
          "time": 146.34375,
          "velocity": 0.5039370078740157,
          "duration": 0.07499999999998863
        },
        {
          "name": "G#5",
          "midi": 80,
          "time": 146.4375,
          "velocity": 0.5039370078740157,
          "duration": 0.07499999999998863
        },
        {
          "name": "G#6",
          "midi": 92,
          "time": 146.53125,
          "velocity": 0.5039370078740157,
          "duration": 0.07499999999998863
        },
        {
          "name": "G#5",
          "midi": 80,
          "time": 146.625,
          "velocity": 0.5039370078740157,
          "duration": 0.07499999999998863
        },
        {
          "name": "A#5",
          "midi": 82,
          "time": 146.625,
          "velocity": 0.5039370078740157,
          "duration": 0.07499999999998863
        },
        {
          "name": "G#6",
          "midi": 92,
          "time": 146.71875,
          "velocity": 0.5039370078740157,
          "duration": 0.07499999999998863
        },
        {
          "name": "G#5",
          "midi": 80,
          "time": 146.8125,
          "velocity": 0.5039370078740157,
          "duration": 0.07499999999998863
        },
        {
          "name": "G#6",
          "midi": 92,
          "time": 146.90625,
          "velocity": 0.5039370078740157,
          "duration": 0.07499999999998863
        },
        {
          "name": "D#6",
          "midi": 87,
          "time": 147,
          "velocity": 0.5039370078740157,
          "duration": 0.07499999999998863
        },
        {
          "name": "G#5",
          "midi": 80,
          "time": 147,
          "velocity": 0.5039370078740157,
          "duration": 0.07499999999998863
        },
        {
          "name": "G#6",
          "midi": 92,
          "time": 147.09375,
          "velocity": 0.5039370078740157,
          "duration": 0.07499999999998863
        },
        {
          "name": "G#5",
          "midi": 80,
          "time": 147.1875,
          "velocity": 0.5039370078740157,
          "duration": 0.07499999999998863
        },
        {
          "name": "G#6",
          "midi": 92,
          "time": 147.28125,
          "velocity": 0.5039370078740157,
          "duration": 0.07499999999998863
        },
        {
          "name": "A#5",
          "midi": 82,
          "time": 147.375,
          "velocity": 0.5039370078740157,
          "duration": 0.07499999999998863
        },
        {
          "name": "G#5",
          "midi": 80,
          "time": 147.375,
          "velocity": 0.5039370078740157,
          "duration": 0.07499999999998863
        },
        {
          "name": "G#6",
          "midi": 92,
          "time": 147.46875,
          "velocity": 0.5039370078740157,
          "duration": 0.07499999999998863
        },
        {
          "name": "G#5",
          "midi": 80,
          "time": 147.5625,
          "velocity": 0.5039370078740157,
          "duration": 0.07499999999998863
        },
        {
          "name": "G#6",
          "midi": 92,
          "time": 147.65625,
          "velocity": 0.5039370078740157,
          "duration": 0.07499999999998863
        },
        {
          "name": "D#6",
          "midi": 87,
          "time": 147.75,
          "velocity": 0.5039370078740157,
          "duration": 0.07499999999998863
        },
        {
          "name": "G#5",
          "midi": 80,
          "time": 147.75,
          "velocity": 0.5039370078740157,
          "duration": 0.07499999999998863
        },
        {
          "name": "G#6",
          "midi": 92,
          "time": 147.84375,
          "velocity": 0.5039370078740157,
          "duration": 0.07499999999998863
        },
        {
          "name": "G#5",
          "midi": 80,
          "time": 147.9375,
          "velocity": 0.5039370078740157,
          "duration": 0.07499999999998863
        },
        {
          "name": "G#6",
          "midi": 92,
          "time": 148.03125,
          "velocity": 0.5039370078740157,
          "duration": 0.07499999999998863
        },
        {
          "name": "G#5",
          "midi": 80,
          "time": 148.125,
          "velocity": 0.5039370078740157,
          "duration": 0.07499999999998863
        },
        {
          "name": "A#5",
          "midi": 82,
          "time": 148.125,
          "velocity": 0.5039370078740157,
          "duration": 0.07499999999998863
        },
        {
          "name": "G#6",
          "midi": 92,
          "time": 148.21875,
          "velocity": 0.5039370078740157,
          "duration": 0.07499999999998863
        },
        {
          "name": "G#5",
          "midi": 80,
          "time": 148.3125,
          "velocity": 0.5039370078740157,
          "duration": 0.07499999999998863
        },
        {
          "name": "G#6",
          "midi": 92,
          "time": 148.40625,
          "velocity": 0.5039370078740157,
          "duration": 0.07499999999998863
        },
        {
          "name": "D#6",
          "midi": 87,
          "time": 148.5,
          "velocity": 0.5039370078740157,
          "duration": 0.07499999999998863
        },
        {
          "name": "G#5",
          "midi": 80,
          "time": 148.5,
          "velocity": 0.5039370078740157,
          "duration": 0.07499999999998863
        },
        {
          "name": "G#6",
          "midi": 92,
          "time": 148.59375,
          "velocity": 0.5039370078740157,
          "duration": 0.07499999999998863
        },
        {
          "name": "G#5",
          "midi": 80,
          "time": 148.6875,
          "velocity": 0.5039370078740157,
          "duration": 0.07499999999998863
        },
        {
          "name": "G#6",
          "midi": 92,
          "time": 148.78125,
          "velocity": 0.5039370078740157,
          "duration": 0.07499999999998863
        },
        {
          "name": "G#5",
          "midi": 80,
          "time": 148.875,
          "velocity": 0.5039370078740157,
          "duration": 0.07499999999998863
        },
        {
          "name": "A#5",
          "midi": 82,
          "time": 148.875,
          "velocity": 0.5039370078740157,
          "duration": 0.07499999999998863
        },
        {
          "name": "G#6",
          "midi": 92,
          "time": 148.96875,
          "velocity": 0.5039370078740157,
          "duration": 0.07499999999998863
        },
        {
          "name": "G#5",
          "midi": 80,
          "time": 149.0625,
          "velocity": 0.5039370078740157,
          "duration": 0.07499999999998863
        },
        {
          "name": "G#6",
          "midi": 92,
          "time": 149.15625,
          "velocity": 0.5039370078740157,
          "duration": 0.07499999999998863
        },
        {
          "name": "G#5",
          "midi": 80,
          "time": 149.25,
          "velocity": 0.5039370078740157,
          "duration": 0.07499999999998863
        },
        {
          "name": "D#6",
          "midi": 87,
          "time": 149.25,
          "velocity": 0.5039370078740157,
          "duration": 0.07499999999998863
        },
        {
          "name": "G#6",
          "midi": 92,
          "time": 149.34375,
          "velocity": 0.5039370078740157,
          "duration": 0.07499999999998863
        },
        {
          "name": "G#5",
          "midi": 80,
          "time": 149.4375,
          "velocity": 0.5039370078740157,
          "duration": 0.07499999999998863
        },
        {
          "name": "G#6",
          "midi": 92,
          "time": 149.53125,
          "velocity": 0.5039370078740157,
          "duration": 0.07499999999998863
        },
        {
          "name": "G#5",
          "midi": 80,
          "time": 149.625,
          "velocity": 0.5039370078740157,
          "duration": 0.07499999999998863
        },
        {
          "name": "A#5",
          "midi": 82,
          "time": 149.625,
          "velocity": 0.5039370078740157,
          "duration": 0.07499999999998863
        },
        {
          "name": "G#6",
          "midi": 92,
          "time": 149.71875,
          "velocity": 0.5039370078740157,
          "duration": 0.07499999999998863
        },
        {
          "name": "G#5",
          "midi": 80,
          "time": 149.8125,
          "velocity": 0.5039370078740157,
          "duration": 0.07499999999998863
        },
        {
          "name": "G#6",
          "midi": 92,
          "time": 149.90625,
          "velocity": 0.5039370078740157,
          "duration": 0.07499999999998863
        },
        {
          "name": "D#6",
          "midi": 87,
          "time": 150,
          "velocity": 0.5039370078740157,
          "duration": 0.07499999999998863
        },
        {
          "name": "G#5",
          "midi": 80,
          "time": 150,
          "velocity": 0.5039370078740157,
          "duration": 0.07499999999998863
        },
        {
          "name": "G#6",
          "midi": 92,
          "time": 150.09375,
          "velocity": 0.5039370078740157,
          "duration": 0.07499999999998863
        },
        {
          "name": "G#5",
          "midi": 80,
          "time": 150.1875,
          "velocity": 0.5039370078740157,
          "duration": 0.07499999999998863
        },
        {
          "name": "G#6",
          "midi": 92,
          "time": 150.28125,
          "velocity": 0.5039370078740157,
          "duration": 0.07499999999998863
        },
        {
          "name": "A#5",
          "midi": 82,
          "time": 150.375,
          "velocity": 0.5039370078740157,
          "duration": 0.07499999999998863
        },
        {
          "name": "G#5",
          "midi": 80,
          "time": 150.375,
          "velocity": 0.5039370078740157,
          "duration": 0.07499999999998863
        },
        {
          "name": "G#6",
          "midi": 92,
          "time": 150.46875,
          "velocity": 0.5039370078740157,
          "duration": 0.07499999999998863
        },
        {
          "name": "G#5",
          "midi": 80,
          "time": 150.5625,
          "velocity": 0.5039370078740157,
          "duration": 0.07499999999998863
        },
        {
          "name": "G#6",
          "midi": 92,
          "time": 150.65625,
          "velocity": 0.5039370078740157,
          "duration": 0.07499999999998863
        },
        {
          "name": "D#6",
          "midi": 87,
          "time": 150.75,
          "velocity": 0.5039370078740157,
          "duration": 0.07499999999998863
        },
        {
          "name": "G#5",
          "midi": 80,
          "time": 150.75,
          "velocity": 0.5039370078740157,
          "duration": 0.07499999999998863
        },
        {
          "name": "G#6",
          "midi": 92,
          "time": 150.84375,
          "velocity": 0.5039370078740157,
          "duration": 0.07499999999998863
        },
        {
          "name": "G#5",
          "midi": 80,
          "time": 150.9375,
          "velocity": 0.5039370078740157,
          "duration": 0.07499999999998863
        },
        {
          "name": "G#6",
          "midi": 92,
          "time": 151.03125,
          "velocity": 0.5039370078740157,
          "duration": 0.07499999999998863
        },
        {
          "name": "A#5",
          "midi": 82,
          "time": 151.125,
          "velocity": 0.5039370078740157,
          "duration": 0.07499999999998863
        },
        {
          "name": "G#5",
          "midi": 80,
          "time": 151.125,
          "velocity": 0.5039370078740157,
          "duration": 0.07499999999998863
        },
        {
          "name": "G#6",
          "midi": 92,
          "time": 151.21875,
          "velocity": 0.5039370078740157,
          "duration": 0.07499999999998863
        },
        {
          "name": "G#5",
          "midi": 80,
          "time": 151.3125,
          "velocity": 0.5039370078740157,
          "duration": 0.07499999999998863
        },
        {
          "name": "G#6",
          "midi": 92,
          "time": 151.40625,
          "velocity": 0.5039370078740157,
          "duration": 0.07499999999998863
        },
        {
          "name": "D#6",
          "midi": 87,
          "time": 151.5,
          "velocity": 0.5039370078740157,
          "duration": 0.07499999999998863
        },
        {
          "name": "G#5",
          "midi": 80,
          "time": 151.5,
          "velocity": 0.5039370078740157,
          "duration": 0.07499999999998863
        },
        {
          "name": "G#6",
          "midi": 92,
          "time": 151.59375,
          "velocity": 0.5039370078740157,
          "duration": 0.07499999999998863
        },
        {
          "name": "G#5",
          "midi": 80,
          "time": 151.6875,
          "velocity": 0.5039370078740157,
          "duration": 0.07499999999998863
        },
        {
          "name": "G#6",
          "midi": 92,
          "time": 151.78125,
          "velocity": 0.5039370078740157,
          "duration": 0.07499999999998863
        },
        {
          "name": "G#5",
          "midi": 80,
          "time": 151.875,
          "velocity": 0.5039370078740157,
          "duration": 0.07499999999998863
        },
        {
          "name": "A#5",
          "midi": 82,
          "time": 151.875,
          "velocity": 0.5039370078740157,
          "duration": 0.07499999999998863
        },
        {
          "name": "G#6",
          "midi": 92,
          "time": 151.96875,
          "velocity": 0.5039370078740157,
          "duration": 0.07499999999998863
        },
        {
          "name": "G#5",
          "midi": 80,
          "time": 152.0625,
          "velocity": 0.5039370078740157,
          "duration": 0.07499999999998863
        },
        {
          "name": "G#6",
          "midi": 92,
          "time": 152.15625,
          "velocity": 0.5039370078740157,
          "duration": 0.07499999999998863
        },
        {
          "name": "G#5",
          "midi": 80,
          "time": 152.25,
          "velocity": 0.5039370078740157,
          "duration": 0.07499999999998863
        },
        {
          "name": "D#6",
          "midi": 87,
          "time": 152.25,
          "velocity": 0.5039370078740157,
          "duration": 0.07499999999998863
        },
        {
          "name": "G#6",
          "midi": 92,
          "time": 152.34375,
          "velocity": 0.5039370078740157,
          "duration": 0.07499999999998863
        },
        {
          "name": "G#5",
          "midi": 80,
          "time": 152.4375,
          "velocity": 0.5039370078740157,
          "duration": 0.07499999999998863
        },
        {
          "name": "G#6",
          "midi": 92,
          "time": 152.53125,
          "velocity": 0.5039370078740157,
          "duration": 0.07499999999998863
        },
        {
          "name": "G#5",
          "midi": 80,
          "time": 152.625,
          "velocity": 0.5039370078740157,
          "duration": 0.07499999999998863
        },
        {
          "name": "A#5",
          "midi": 82,
          "time": 152.625,
          "velocity": 0.5039370078740157,
          "duration": 0.07499999999998863
        },
        {
          "name": "G#6",
          "midi": 92,
          "time": 152.71875,
          "velocity": 0.5039370078740157,
          "duration": 0.07499999999998863
        },
        {
          "name": "G#5",
          "midi": 80,
          "time": 152.8125,
          "velocity": 0.5039370078740157,
          "duration": 0.07499999999998863
        },
        {
          "name": "G#6",
          "midi": 92,
          "time": 152.90625,
          "velocity": 0.5039370078740157,
          "duration": 0.07499999999998863
        },
        {
          "name": "G#5",
          "midi": 80,
          "time": 153,
          "velocity": 0.5039370078740157,
          "duration": 0.07499999999998863
        },
        {
          "name": "D#6",
          "midi": 87,
          "time": 153,
          "velocity": 0.5039370078740157,
          "duration": 0.07499999999998863
        },
        {
          "name": "G#6",
          "midi": 92,
          "time": 153.09375,
          "velocity": 0.5039370078740157,
          "duration": 0.07499999999998863
        },
        {
          "name": "G#5",
          "midi": 80,
          "time": 153.1875,
          "velocity": 0.5039370078740157,
          "duration": 0.07499999999998863
        },
        {
          "name": "G#6",
          "midi": 92,
          "time": 153.28125,
          "velocity": 0.5039370078740157,
          "duration": 0.07499999999998863
        },
        {
          "name": "A#5",
          "midi": 82,
          "time": 153.375,
          "velocity": 0.5039370078740157,
          "duration": 0.07499999999998863
        },
        {
          "name": "G#5",
          "midi": 80,
          "time": 153.375,
          "velocity": 0.5039370078740157,
          "duration": 0.07499999999998863
        },
        {
          "name": "G#6",
          "midi": 92,
          "time": 153.46875,
          "velocity": 0.5039370078740157,
          "duration": 0.07499999999998863
        },
        {
          "name": "G#5",
          "midi": 80,
          "time": 153.5625,
          "velocity": 0.5039370078740157,
          "duration": 0.07499999999998863
        },
        {
          "name": "G#6",
          "midi": 92,
          "time": 153.65625,
          "velocity": 0.5039370078740157,
          "duration": 0.07499999999998863
        },
        {
          "name": "G#5",
          "midi": 80,
          "time": 153.75,
          "velocity": 0.5039370078740157,
          "duration": 0.07499999999998863
        },
        {
          "name": "D#6",
          "midi": 87,
          "time": 153.75,
          "velocity": 0.5039370078740157,
          "duration": 0.07499999999998863
        },
        {
          "name": "G#6",
          "midi": 92,
          "time": 153.84375,
          "velocity": 0.5039370078740157,
          "duration": 0.07499999999998863
        },
        {
          "name": "G#5",
          "midi": 80,
          "time": 153.9375,
          "velocity": 0.5039370078740157,
          "duration": 0.07499999999998863
        },
        {
          "name": "G#6",
          "midi": 92,
          "time": 154.03125,
          "velocity": 0.5039370078740157,
          "duration": 0.07499999999998863
        },
        {
          "name": "G#5",
          "midi": 80,
          "time": 154.125,
          "velocity": 0.5039370078740157,
          "duration": 0.07499999999998863
        },
        {
          "name": "A#5",
          "midi": 82,
          "time": 154.125,
          "velocity": 0.5039370078740157,
          "duration": 0.07499999999998863
        },
        {
          "name": "G#6",
          "midi": 92,
          "time": 154.21875,
          "velocity": 0.5039370078740157,
          "duration": 0.07499999999998863
        },
        {
          "name": "G#5",
          "midi": 80,
          "time": 154.3125,
          "velocity": 0.5039370078740157,
          "duration": 0.07499999999998863
        },
        {
          "name": "G#6",
          "midi": 92,
          "time": 154.40625,
          "velocity": 0.5039370078740157,
          "duration": 0.07499999999998863
        },
        {
          "name": "G#5",
          "midi": 80,
          "time": 154.5,
          "velocity": 0.5039370078740157,
          "duration": 0.07499999999998863
        },
        {
          "name": "D#6",
          "midi": 87,
          "time": 154.5,
          "velocity": 0.5039370078740157,
          "duration": 0.07499999999998863
        },
        {
          "name": "G#6",
          "midi": 92,
          "time": 154.59375,
          "velocity": 0.5039370078740157,
          "duration": 0.07499999999998863
        },
        {
          "name": "G#5",
          "midi": 80,
          "time": 154.6875,
          "velocity": 0.5039370078740157,
          "duration": 0.07499999999998863
        },
        {
          "name": "G#6",
          "midi": 92,
          "time": 154.78125,
          "velocity": 0.5039370078740157,
          "duration": 0.07499999999998863
        },
        {
          "name": "G#5",
          "midi": 80,
          "time": 154.875,
          "velocity": 0.5039370078740157,
          "duration": 0.07499999999998863
        },
        {
          "name": "A#5",
          "midi": 82,
          "time": 154.875,
          "velocity": 0.5039370078740157,
          "duration": 0.07499999999998863
        },
        {
          "name": "G#6",
          "midi": 92,
          "time": 154.96875,
          "velocity": 0.5039370078740157,
          "duration": 0.07499999999998863
        },
        {
          "name": "G#5",
          "midi": 80,
          "time": 155.0625,
          "velocity": 0.5039370078740157,
          "duration": 0.07499999999998863
        },
        {
          "name": "G#6",
          "midi": 92,
          "time": 155.15625,
          "velocity": 0.5039370078740157,
          "duration": 0.07499999999998863
        },
        {
          "name": "D#6",
          "midi": 87,
          "time": 155.25,
          "velocity": 0.5039370078740157,
          "duration": 0.07499999999998863
        },
        {
          "name": "G#5",
          "midi": 80,
          "time": 155.25,
          "velocity": 0.5039370078740157,
          "duration": 0.07499999999998863
        },
        {
          "name": "G#6",
          "midi": 92,
          "time": 155.34375,
          "velocity": 0.5039370078740157,
          "duration": 0.07499999999998863
        },
        {
          "name": "G#5",
          "midi": 80,
          "time": 155.4375,
          "velocity": 0.5039370078740157,
          "duration": 0.07499999999998863
        },
        {
          "name": "G#6",
          "midi": 92,
          "time": 155.53125,
          "velocity": 0.5039370078740157,
          "duration": 0.07499999999998863
        },
        {
          "name": "A#5",
          "midi": 82,
          "time": 155.625,
          "velocity": 0.5039370078740157,
          "duration": 0.07499999999998863
        },
        {
          "name": "G#5",
          "midi": 80,
          "time": 155.625,
          "velocity": 0.5039370078740157,
          "duration": 0.07499999999998863
        },
        {
          "name": "G#6",
          "midi": 92,
          "time": 155.71875,
          "velocity": 0.5039370078740157,
          "duration": 0.07499999999998863
        },
        {
          "name": "G#5",
          "midi": 80,
          "time": 155.8125,
          "velocity": 0.5039370078740157,
          "duration": 0.07499999999998863
        },
        {
          "name": "G#6",
          "midi": 92,
          "time": 155.90625,
          "velocity": 0.5039370078740157,
          "duration": 0.07499999999998863
        },
        {
          "name": "D#6",
          "midi": 87,
          "time": 156,
          "velocity": 0.5039370078740157,
          "duration": 0.07499999999998863
        },
        {
          "name": "G#5",
          "midi": 80,
          "time": 156,
          "velocity": 0.5039370078740157,
          "duration": 0.07499999999998863
        },
        {
          "name": "G#6",
          "midi": 92,
          "time": 156.09375,
          "velocity": 0.5039370078740157,
          "duration": 0.07499999999998863
        },
        {
          "name": "G#5",
          "midi": 80,
          "time": 156.1875,
          "velocity": 0.5039370078740157,
          "duration": 0.07499999999998863
        },
        {
          "name": "G#6",
          "midi": 92,
          "time": 156.28125,
          "velocity": 0.5039370078740157,
          "duration": 0.07499999999998863
        },
        {
          "name": "G#5",
          "midi": 80,
          "time": 156.375,
          "velocity": 0.5039370078740157,
          "duration": 0.07499999999998863
        },
        {
          "name": "A#5",
          "midi": 82,
          "time": 156.375,
          "velocity": 0.5039370078740157,
          "duration": 0.07499999999998863
        },
        {
          "name": "G#6",
          "midi": 92,
          "time": 156.46875,
          "velocity": 0.5039370078740157,
          "duration": 0.07499999999998863
        },
        {
          "name": "G#5",
          "midi": 80,
          "time": 156.5625,
          "velocity": 0.5039370078740157,
          "duration": 0.07499999999998863
        },
        {
          "name": "G#6",
          "midi": 92,
          "time": 156.65625,
          "velocity": 0.5039370078740157,
          "duration": 0.07499999999998863
        },
        {
          "name": "G#5",
          "midi": 80,
          "time": 156.75,
          "velocity": 0.5039370078740157,
          "duration": 0.07499999999998863
        },
        {
          "name": "D#6",
          "midi": 87,
          "time": 156.75,
          "velocity": 0.5039370078740157,
          "duration": 0.07499999999998863
        },
        {
          "name": "G#6",
          "midi": 92,
          "time": 156.84375,
          "velocity": 0.5039370078740157,
          "duration": 0.07499999999998863
        },
        {
          "name": "G#5",
          "midi": 80,
          "time": 156.9375,
          "velocity": 0.5039370078740157,
          "duration": 0.07499999999998863
        },
        {
          "name": "G#6",
          "midi": 92,
          "time": 157.03125,
          "velocity": 0.5039370078740157,
          "duration": 0.07499999999998863
        },
        {
          "name": "G#5",
          "midi": 80,
          "time": 157.125,
          "velocity": 0.5039370078740157,
          "duration": 0.07499999999998863
        },
        {
          "name": "A#5",
          "midi": 82,
          "time": 157.125,
          "velocity": 0.5039370078740157,
          "duration": 0.07499999999998863
        },
        {
          "name": "G#6",
          "midi": 92,
          "time": 157.21875,
          "velocity": 0.5039370078740157,
          "duration": 0.07499999999998863
        },
        {
          "name": "G#5",
          "midi": 80,
          "time": 157.3125,
          "velocity": 0.5039370078740157,
          "duration": 0.07499999999998863
        },
        {
          "name": "G#6",
          "midi": 92,
          "time": 157.40625,
          "velocity": 0.5039370078740157,
          "duration": 0.07499999999998863
        },
        {
          "name": "G#5",
          "midi": 80,
          "time": 157.5,
          "velocity": 0.5039370078740157,
          "duration": 0.07499999999998863
        },
        {
          "name": "D#6",
          "midi": 87,
          "time": 157.5,
          "velocity": 0.5039370078740157,
          "duration": 0.07499999999998863
        },
        {
          "name": "G#6",
          "midi": 92,
          "time": 157.59375,
          "velocity": 0.5039370078740157,
          "duration": 0.07499999999998863
        },
        {
          "name": "G#5",
          "midi": 80,
          "time": 157.6875,
          "velocity": 0.5039370078740157,
          "duration": 0.07499999999998863
        },
        {
          "name": "G#6",
          "midi": 92,
          "time": 157.78125,
          "velocity": 0.5039370078740157,
          "duration": 0.07499999999998863
        },
        {
          "name": "G#5",
          "midi": 80,
          "time": 157.875,
          "velocity": 0.5039370078740157,
          "duration": 0.07499999999998863
        },
        {
          "name": "A#5",
          "midi": 82,
          "time": 157.875,
          "velocity": 0.5039370078740157,
          "duration": 0.07499999999998863
        },
        {
          "name": "G#6",
          "midi": 92,
          "time": 157.96875,
          "velocity": 0.5039370078740157,
          "duration": 0.07499999999998863
        },
        {
          "name": "G#5",
          "midi": 80,
          "time": 158.0625,
          "velocity": 0.5039370078740157,
          "duration": 0.07499999999998863
        },
        {
          "name": "G#6",
          "midi": 92,
          "time": 158.15625,
          "velocity": 0.5039370078740157,
          "duration": 0.07499999999998863
        },
        {
          "name": "D#6",
          "midi": 87,
          "time": 158.25,
          "velocity": 0.5039370078740157,
          "duration": 0.07499999999998863
        },
        {
          "name": "G#5",
          "midi": 80,
          "time": 158.25,
          "velocity": 0.5039370078740157,
          "duration": 0.07499999999998863
        },
        {
          "name": "G#6",
          "midi": 92,
          "time": 158.34375,
          "velocity": 0.5039370078740157,
          "duration": 0.07499999999998863
        },
        {
          "name": "G#5",
          "midi": 80,
          "time": 158.4375,
          "velocity": 0.5039370078740157,
          "duration": 0.07499999999998863
        },
        {
          "name": "G#6",
          "midi": 92,
          "time": 158.53125,
          "velocity": 0.5039370078740157,
          "duration": 0.07499999999998863
        },
        {
          "name": "A#5",
          "midi": 82,
          "time": 158.625,
          "velocity": 0.5039370078740157,
          "duration": 0.07499999999998863
        },
        {
          "name": "G#5",
          "midi": 80,
          "time": 158.625,
          "velocity": 0.5039370078740157,
          "duration": 0.07499999999998863
        },
        {
          "name": "G#6",
          "midi": 92,
          "time": 158.71875,
          "velocity": 0.5039370078740157,
          "duration": 0.07499999999998863
        },
        {
          "name": "G#5",
          "midi": 80,
          "time": 158.8125,
          "velocity": 0.5039370078740157,
          "duration": 0.07499999999998863
        },
        {
          "name": "G#6",
          "midi": 92,
          "time": 158.90625,
          "velocity": 0.5039370078740157,
          "duration": 0.07499999999998863
        },
        {
          "name": "G#5",
          "midi": 80,
          "time": 159,
          "velocity": 0.5039370078740157,
          "duration": 0.07499999999998863
        },
        {
          "name": "D#6",
          "midi": 87,
          "time": 159,
          "velocity": 0.5039370078740157,
          "duration": 0.07499999999998863
        },
        {
          "name": "G#6",
          "midi": 92,
          "time": 159.09375,
          "velocity": 0.5039370078740157,
          "duration": 0.07499999999998863
        },
        {
          "name": "G#5",
          "midi": 80,
          "time": 159.1875,
          "velocity": 0.5039370078740157,
          "duration": 0.07499999999998863
        },
        {
          "name": "G#6",
          "midi": 92,
          "time": 159.28125,
          "velocity": 0.5039370078740157,
          "duration": 0.07499999999998863
        },
        {
          "name": "G#5",
          "midi": 80,
          "time": 159.375,
          "velocity": 0.5039370078740157,
          "duration": 0.07499999999998863
        },
        {
          "name": "A#5",
          "midi": 82,
          "time": 159.375,
          "velocity": 0.5039370078740157,
          "duration": 0.07499999999998863
        },
        {
          "name": "G#6",
          "midi": 92,
          "time": 159.46875,
          "velocity": 0.5039370078740157,
          "duration": 0.07499999999998863
        },
        {
          "name": "G#5",
          "midi": 80,
          "time": 159.5625,
          "velocity": 0.5039370078740157,
          "duration": 0.07499999999998863
        },
        {
          "name": "G#6",
          "midi": 92,
          "time": 159.65625,
          "velocity": 0.5039370078740157,
          "duration": 0.07499999999998863
        },
        {
          "name": "D#6",
          "midi": 87,
          "time": 159.75,
          "velocity": 0.5039370078740157,
          "duration": 0.07499999999998863
        },
        {
          "name": "G#5",
          "midi": 80,
          "time": 159.75,
          "velocity": 0.5039370078740157,
          "duration": 0.07499999999998863
        },
        {
          "name": "G#6",
          "midi": 92,
          "time": 159.84375,
          "velocity": 0.5039370078740157,
          "duration": 0.07499999999998863
        },
        {
          "name": "G#5",
          "midi": 80,
          "time": 159.9375,
          "velocity": 0.5039370078740157,
          "duration": 0.07499999999998863
        },
        {
          "name": "G#6",
          "midi": 92,
          "time": 160.03125,
          "velocity": 0.5039370078740157,
          "duration": 0.07499999999998863
        },
        {
          "name": "G#5",
          "midi": 80,
          "time": 160.125,
          "velocity": 0.5039370078740157,
          "duration": 0.07499999999998863
        },
        {
          "name": "A#5",
          "midi": 82,
          "time": 160.125,
          "velocity": 0.5039370078740157,
          "duration": 0.07499999999998863
        },
        {
          "name": "G#6",
          "midi": 92,
          "time": 160.21875,
          "velocity": 0.5039370078740157,
          "duration": 0.07499999999998863
        },
        {
          "name": "G#5",
          "midi": 80,
          "time": 160.3125,
          "velocity": 0.5039370078740157,
          "duration": 0.07499999999998863
        },
        {
          "name": "G#6",
          "midi": 92,
          "time": 160.40625,
          "velocity": 0.5039370078740157,
          "duration": 0.07499999999998863
        },
        {
          "name": "G#5",
          "midi": 80,
          "time": 160.5,
          "velocity": 0.5039370078740157,
          "duration": 0.07499999999998863
        },
        {
          "name": "D#6",
          "midi": 87,
          "time": 160.5,
          "velocity": 0.5039370078740157,
          "duration": 0.07499999999998863
        },
        {
          "name": "G#6",
          "midi": 92,
          "time": 160.59375,
          "velocity": 0.5039370078740157,
          "duration": 0.07499999999998863
        },
        {
          "name": "G#5",
          "midi": 80,
          "time": 160.6875,
          "velocity": 0.5039370078740157,
          "duration": 0.07499999999998863
        },
        {
          "name": "G#6",
          "midi": 92,
          "time": 160.78125,
          "velocity": 0.5039370078740157,
          "duration": 0.07499999999998863
        },
        {
          "name": "G#5",
          "midi": 80,
          "time": 160.875,
          "velocity": 0.5039370078740157,
          "duration": 0.07499999999998863
        },
        {
          "name": "A#5",
          "midi": 82,
          "time": 160.875,
          "velocity": 0.5039370078740157,
          "duration": 0.07499999999998863
        },
        {
          "name": "G#6",
          "midi": 92,
          "time": 160.96875,
          "velocity": 0.5039370078740157,
          "duration": 0.07499999999998863
        },
        {
          "name": "G#5",
          "midi": 80,
          "time": 161.0625,
          "velocity": 0.5039370078740157,
          "duration": 0.07499999999998863
        },
        {
          "name": "G#6",
          "midi": 92,
          "time": 161.15625,
          "velocity": 0.5039370078740157,
          "duration": 0.07499999999998863
        },
        {
          "name": "D#6",
          "midi": 87,
          "time": 161.25,
          "velocity": 0.5039370078740157,
          "duration": 0.07499999999998863
        },
        {
          "name": "G#5",
          "midi": 80,
          "time": 161.25,
          "velocity": 0.5039370078740157,
          "duration": 0.07499999999998863
        },
        {
          "name": "G#6",
          "midi": 92,
          "time": 161.34375,
          "velocity": 0.5039370078740157,
          "duration": 0.07499999999998863
        },
        {
          "name": "G#5",
          "midi": 80,
          "time": 161.4375,
          "velocity": 0.5039370078740157,
          "duration": 0.07499999999998863
        },
        {
          "name": "G#6",
          "midi": 92,
          "time": 161.53125,
          "velocity": 0.5039370078740157,
          "duration": 0.07499999999998863
        },
        {
          "name": "G#5",
          "midi": 80,
          "time": 161.625,
          "velocity": 0.5039370078740157,
          "duration": 0.07499999999998863
        },
        {
          "name": "A#5",
          "midi": 82,
          "time": 161.625,
          "velocity": 0.5039370078740157,
          "duration": 0.07499999999998863
        },
        {
          "name": "G#6",
          "midi": 92,
          "time": 161.71875,
          "velocity": 0.5039370078740157,
          "duration": 0.07499999999998863
        },
        {
          "name": "G#5",
          "midi": 80,
          "time": 161.8125,
          "velocity": 0.5039370078740157,
          "duration": 0.07499999999998863
        },
        {
          "name": "G#6",
          "midi": 92,
          "time": 161.90625,
          "velocity": 0.5039370078740157,
          "duration": 0.07499999999998863
        },
        {
          "name": "G#5",
          "midi": 80,
          "time": 162,
          "velocity": 0.5039370078740157,
          "duration": 0.07499999999998863
        },
        {
          "name": "D#6",
          "midi": 87,
          "time": 162,
          "velocity": 0.5039370078740157,
          "duration": 0.07499999999998863
        },
        {
          "name": "G#6",
          "midi": 92,
          "time": 162.09375,
          "velocity": 0.5039370078740157,
          "duration": 0.07499999999998863
        },
        {
          "name": "G#5",
          "midi": 80,
          "time": 162.1875,
          "velocity": 0.5039370078740157,
          "duration": 0.07499999999998863
        },
        {
          "name": "G#6",
          "midi": 92,
          "time": 162.28125,
          "velocity": 0.5039370078740157,
          "duration": 0.07499999999998863
        },
        {
          "name": "G#5",
          "midi": 80,
          "time": 162.375,
          "velocity": 0.5039370078740157,
          "duration": 0.07499999999998863
        },
        {
          "name": "A#5",
          "midi": 82,
          "time": 162.375,
          "velocity": 0.5039370078740157,
          "duration": 0.07499999999998863
        },
        {
          "name": "G#6",
          "midi": 92,
          "time": 162.46875,
          "velocity": 0.5039370078740157,
          "duration": 0.07499999999998863
        },
        {
          "name": "G#5",
          "midi": 80,
          "time": 162.5625,
          "velocity": 0.5039370078740157,
          "duration": 0.07499999999998863
        },
        {
          "name": "G#6",
          "midi": 92,
          "time": 162.65625,
          "velocity": 0.5039370078740157,
          "duration": 0.07499999999998863
        },
        {
          "name": "D#6",
          "midi": 87,
          "time": 162.75,
          "velocity": 0.5039370078740157,
          "duration": 0.07499999999998863
        },
        {
          "name": "G#5",
          "midi": 80,
          "time": 162.75,
          "velocity": 0.5039370078740157,
          "duration": 0.07499999999998863
        },
        {
          "name": "G#6",
          "midi": 92,
          "time": 162.84375,
          "velocity": 0.5039370078740157,
          "duration": 0.07499999999998863
        },
        {
          "name": "G#5",
          "midi": 80,
          "time": 162.9375,
          "velocity": 0.5039370078740157,
          "duration": 0.07499999999998863
        },
        {
          "name": "G#6",
          "midi": 92,
          "time": 163.03125,
          "velocity": 0.5039370078740157,
          "duration": 0.07499999999998863
        },
        {
          "name": "A#5",
          "midi": 82,
          "time": 163.125,
          "velocity": 0.5039370078740157,
          "duration": 0.07499999999998863
        },
        {
          "name": "G#5",
          "midi": 80,
          "time": 163.125,
          "velocity": 0.5039370078740157,
          "duration": 0.07499999999998863
        },
        {
          "name": "G#6",
          "midi": 92,
          "time": 163.21875,
          "velocity": 0.5039370078740157,
          "duration": 0.07499999999998863
        },
        {
          "name": "G#5",
          "midi": 80,
          "time": 163.3125,
          "velocity": 0.5039370078740157,
          "duration": 0.07499999999998863
        },
        {
          "name": "G#6",
          "midi": 92,
          "time": 163.40625,
          "velocity": 0.5039370078740157,
          "duration": 0.07499999999998863
        },
        {
          "name": "G#5",
          "midi": 80,
          "time": 163.5,
          "velocity": 0.5039370078740157,
          "duration": 0.07499999999998863
        },
        {
          "name": "D#6",
          "midi": 87,
          "time": 163.5,
          "velocity": 0.5039370078740157,
          "duration": 0.07499999999998863
        },
        {
          "name": "G#6",
          "midi": 92,
          "time": 163.59375,
          "velocity": 0.5039370078740157,
          "duration": 0.07499999999998863
        },
        {
          "name": "G#5",
          "midi": 80,
          "time": 163.6875,
          "velocity": 0.5039370078740157,
          "duration": 0.07499999999998863
        },
        {
          "name": "G#6",
          "midi": 92,
          "time": 163.78125,
          "velocity": 0.5039370078740157,
          "duration": 0.07499999999998863
        },
        {
          "name": "G#5",
          "midi": 80,
          "time": 163.875,
          "velocity": 0.5039370078740157,
          "duration": 0.07499999999998863
        },
        {
          "name": "A#5",
          "midi": 82,
          "time": 163.875,
          "velocity": 0.5039370078740157,
          "duration": 0.07499999999998863
        },
        {
          "name": "G#6",
          "midi": 92,
          "time": 163.96875,
          "velocity": 0.5039370078740157,
          "duration": 0.07499999999998863
        },
        {
          "name": "G#5",
          "midi": 80,
          "time": 164.0625,
          "velocity": 0.5039370078740157,
          "duration": 0.07499999999998863
        },
        {
          "name": "G#6",
          "midi": 92,
          "time": 164.15625,
          "velocity": 0.5039370078740157,
          "duration": 0.07499999999998863
        },
        {
          "name": "G#5",
          "midi": 80,
          "time": 164.25,
          "velocity": 0.5039370078740157,
          "duration": 0.07499999999998863
        },
        {
          "name": "D#6",
          "midi": 87,
          "time": 164.25,
          "velocity": 0.5039370078740157,
          "duration": 0.07499999999998863
        },
        {
          "name": "G#6",
          "midi": 92,
          "time": 164.34375,
          "velocity": 0.5039370078740157,
          "duration": 0.07499999999998863
        },
        {
          "name": "G#5",
          "midi": 80,
          "time": 164.4375,
          "velocity": 0.5039370078740157,
          "duration": 0.07499999999998863
        },
        {
          "name": "G#6",
          "midi": 92,
          "time": 164.53125,
          "velocity": 0.5039370078740157,
          "duration": 0.07499999999998863
        },
        {
          "name": "A#5",
          "midi": 82,
          "time": 164.625,
          "velocity": 0.5039370078740157,
          "duration": 0.07499999999998863
        },
        {
          "name": "G#5",
          "midi": 80,
          "time": 164.625,
          "velocity": 0.5039370078740157,
          "duration": 0.07499999999998863
        },
        {
          "name": "G#6",
          "midi": 92,
          "time": 164.71875,
          "velocity": 0.5039370078740157,
          "duration": 0.07499999999998863
        },
        {
          "name": "G#5",
          "midi": 80,
          "time": 164.8125,
          "velocity": 0.5039370078740157,
          "duration": 0.07499999999998863
        },
        {
          "name": "G#6",
          "midi": 92,
          "time": 164.90625,
          "velocity": 0.5039370078740157,
          "duration": 0.07499999999998863
        },
        {
          "name": "F5",
          "midi": 77,
          "time": 165,
          "velocity": 1,
          "duration": 0.30000000000001137
        },
        {
          "name": "E5",
          "midi": 76,
          "time": 165.375,
          "velocity": 1,
          "duration": 0.30000000000001137
        },
        {
          "name": "D5",
          "midi": 74,
          "time": 165.75,
          "velocity": 1,
          "duration": 0.30000000000001137
        },
        {
          "name": "C5",
          "midi": 72,
          "time": 166.125,
          "velocity": 1,
          "duration": 0.30000000000001137
        },
        {
          "name": "C5",
          "midi": 72,
          "time": 166.5,
          "velocity": 1,
          "duration": 0.44999999999998863
        },
        {
          "name": "A#4",
          "midi": 70,
          "time": 167.0625,
          "velocity": 1,
          "duration": 0.15000000000000568
        },
        {
          "name": "A4",
          "midi": 69,
          "time": 167.25,
          "velocity": 1,
          "duration": 0.30000000000001137
        },
        {
          "name": "F5",
          "midi": 77,
          "time": 167.625,
          "velocity": 1,
          "duration": 0.30000000000001137
        },
        {
          "name": "F5",
          "midi": 77,
          "time": 168,
          "velocity": 1,
          "duration": 0.30000000000001137
        },
        {
          "name": "E5",
          "midi": 76,
          "time": 168.375,
          "velocity": 1,
          "duration": 0.30000000000001137
        },
        {
          "name": "D5",
          "midi": 74,
          "time": 168.75,
          "velocity": 1,
          "duration": 0.30000000000001137
        },
        {
          "name": "C5",
          "midi": 72,
          "time": 169.125,
          "velocity": 1,
          "duration": 0.15000000000000568
        },
        {
          "name": "C5",
          "midi": 72,
          "time": 169.3125,
          "velocity": 1,
          "duration": 0.07499999999998863
        },
        {
          "name": "D5",
          "midi": 74,
          "time": 169.40625,
          "velocity": 1,
          "duration": 0.07499999999998863
        },
        {
          "name": "C5",
          "midi": 72,
          "time": 169.5,
          "velocity": 1,
          "duration": 0.44999999999998863
        },
        {
          "name": "A#4",
          "midi": 70,
          "time": 170.0625,
          "velocity": 1,
          "duration": 0.15000000000000568
        },
        {
          "name": "A4",
          "midi": 69,
          "time": 170.25,
          "velocity": 1,
          "duration": 0.30000000000001137
        },
        {
          "name": "F5",
          "midi": 77,
          "time": 170.625,
          "velocity": 1,
          "duration": 0.30000000000001137
        },
        {
          "name": "F5",
          "midi": 77,
          "time": 171,
          "velocity": 1,
          "duration": 0.30000000000001137
        },
        {
          "name": "E5",
          "midi": 76,
          "time": 171.375,
          "velocity": 1,
          "duration": 0.30000000000001137
        },
        {
          "name": "D5",
          "midi": 74,
          "time": 171.75,
          "velocity": 1,
          "duration": 0.30000000000001137
        },
        {
          "name": "C5",
          "midi": 72,
          "time": 172.125,
          "velocity": 1,
          "duration": 0.30000000000001137
        },
        {
          "name": "C5",
          "midi": 72,
          "time": 172.5,
          "velocity": 1,
          "duration": 0.44999999999998863
        },
        {
          "name": "A#4",
          "midi": 70,
          "time": 173.0625,
          "velocity": 1,
          "duration": 0.15000000000000568
        },
        {
          "name": "A4",
          "midi": 69,
          "time": 173.25,
          "velocity": 1,
          "duration": 0.30000000000001137
        },
        {
          "name": "F5",
          "midi": 77,
          "time": 173.625,
          "velocity": 1,
          "duration": 0.30000000000001137
        },
        {
          "name": "F5",
          "midi": 77,
          "time": 174,
          "velocity": 1,
          "duration": 0.30000000000001137
        },
        {
          "name": "E5",
          "midi": 76,
          "time": 174.375,
          "velocity": 1,
          "duration": 0.30000000000001137
        },
        {
          "name": "D5",
          "midi": 74,
          "time": 174.75,
          "velocity": 1,
          "duration": 0.30000000000001137
        },
        {
          "name": "C5",
          "midi": 72,
          "time": 175.125,
          "velocity": 1,
          "duration": 0.30000000000001137
        },
        {
          "name": "C5",
          "midi": 72,
          "time": 175.5,
          "velocity": 1,
          "duration": 0.44999999999998863
        },
        {
          "name": "A#4",
          "midi": 70,
          "time": 176.0625,
          "velocity": 1,
          "duration": 0.15000000000000568
        },
        {
          "name": "A4",
          "midi": 69,
          "time": 176.25,
          "velocity": 1,
          "duration": 0.30000000000001137
        },
        {
          "name": "F4",
          "midi": 65,
          "time": 176.625,
          "velocity": 1,
          "duration": 0.30000000000001137
        },
        {
          "name": "F4",
          "midi": 65,
          "time": 177,
          "velocity": 1,
          "duration": 0.30000000000001137
        },
        {
          "name": "E4",
          "midi": 64,
          "time": 177.375,
          "velocity": 1,
          "duration": 0.30000000000001137
        },
        {
          "name": "D4",
          "midi": 62,
          "time": 177.75,
          "velocity": 1,
          "duration": 0.30000000000001137
        },
        {
          "name": "C4",
          "midi": 60,
          "time": 178.125,
          "velocity": 1,
          "duration": 0.30000000000001137
        },
        {
          "name": "C4",
          "midi": 60,
          "time": 178.5,
          "velocity": 1,
          "duration": 0.44999999999998863
        },
        {
          "name": "A#3",
          "midi": 58,
          "time": 179.0625,
          "velocity": 1,
          "duration": 0.15000000000000568
        },
        {
          "name": "A3",
          "midi": 57,
          "time": 179.25,
          "velocity": 1,
          "duration": 0.30000000000001137
        },
        {
          "name": "F4",
          "midi": 65,
          "time": 179.625,
          "velocity": 1,
          "duration": 0.30000000000001137
        },
        {
          "name": "F4",
          "midi": 65,
          "time": 180,
          "velocity": 1,
          "duration": 0.30000000000001137
        },
        {
          "name": "E4",
          "midi": 64,
          "time": 180.375,
          "velocity": 1,
          "duration": 0.30000000000001137
        },
        {
          "name": "D4",
          "midi": 62,
          "time": 180.75,
          "velocity": 1,
          "duration": 0.30000000000001137
        },
        {
          "name": "C4",
          "midi": 60,
          "time": 181.125,
          "velocity": 1,
          "duration": 0.30000000000001137
        },
        {
          "name": "C4",
          "midi": 60,
          "time": 181.5,
          "velocity": 1,
          "duration": 0.44999999999998863
        },
        {
          "name": "A#3",
          "midi": 58,
          "time": 182.0625,
          "velocity": 1,
          "duration": 0.15000000000000568
        },
        {
          "name": "A3",
          "midi": 57,
          "time": 182.25,
          "velocity": 1,
          "duration": 0.30000000000001137
        },
        {
          "name": "F4",
          "midi": 65,
          "time": 182.625,
          "velocity": 1,
          "duration": 0.30000000000001137
        }
      ],
      "controlChanges": {
        "7": [
          {
            "number": 7,
            "time": 0,
            "value": 0.9606299212598425
          }
        ]
      },
      "id": 2,
      "name": "Mannheim Steamroller",
      "instrumentNumber": 98,
      "instrument": "fx 3 (crystal)",
      "instrumentFamily": "synth effects",
      "channelNumber": 1,
      "isPercussion": false
    },
    {
      "startTime": 0,
      "duration": 199.79999999999916,
      "length": 1651,
      "notes": [
        {
          "name": "F4",
          "midi": 65,
          "time": 0,
          "velocity": 0.7086614173228346,
          "duration": 0.9000000000000001
        },
        {
          "name": "A3",
          "midi": 57,
          "time": 0,
          "velocity": 0.7086614173228346,
          "duration": 0.9000000000000001
        },
        {
          "name": "F2",
          "midi": 41,
          "time": 0,
          "velocity": 0.7086614173228346,
          "duration": 0.30000000000000004
        },
        {
          "name": "C4",
          "midi": 60,
          "time": 0,
          "velocity": 0.7086614173228346,
          "duration": 0.9000000000000001
        },
        {
          "name": "F3",
          "midi": 53,
          "time": 0.37500000000000006,
          "velocity": 0.7086614173228346,
          "duration": 0.15000000000000008
        },
        {
          "name": "F2",
          "midi": 41,
          "time": 0.5625000000000001,
          "velocity": 0.7086614173228346,
          "duration": 0.15000000000000002
        },
        {
          "name": "F2",
          "midi": 41,
          "time": 0.7500000000000001,
          "velocity": 0.7086614173228346,
          "duration": 0.30000000000000016
        },
        {
          "name": "F3",
          "midi": 53,
          "time": 1.1250000000000002,
          "velocity": 0.7086614173228346,
          "duration": 0.15000000000000013
        },
        {
          "name": "F4",
          "midi": 65,
          "time": 1.1250000000000002,
          "velocity": 0.7086614173228346,
          "duration": 0.30000000000000027
        },
        {
          "name": "C4",
          "midi": 60,
          "time": 1.1250000000000002,
          "velocity": 0.7086614173228346,
          "duration": 0.30000000000000027
        },
        {
          "name": "A3",
          "midi": 57,
          "time": 1.1250000000000002,
          "velocity": 0.7086614173228346,
          "duration": 0.30000000000000027
        },
        {
          "name": "F2",
          "midi": 41,
          "time": 1.3125000000000004,
          "velocity": 0.7086614173228346,
          "duration": 0.15000000000000013
        },
        {
          "name": "C4",
          "midi": 60,
          "time": 1.5000000000000007,
          "velocity": 0.7086614173228346,
          "duration": 0.6000000000000003
        },
        {
          "name": "G3",
          "midi": 55,
          "time": 1.5000000000000007,
          "velocity": 0.7086614173228346,
          "duration": 0.6000000000000003
        },
        {
          "name": "F2",
          "midi": 41,
          "time": 1.5000000000000007,
          "velocity": 0.7086614173228346,
          "duration": 0.30000000000000004
        },
        {
          "name": "E4",
          "midi": 64,
          "time": 1.5000000000000007,
          "velocity": 0.7086614173228346,
          "duration": 0.6000000000000003
        },
        {
          "name": "F3",
          "midi": 53,
          "time": 1.8750000000000007,
          "velocity": 0.7086614173228346,
          "duration": 0.15000000000000013
        },
        {
          "name": "F2",
          "midi": 41,
          "time": 2.062500000000001,
          "velocity": 0.7086614173228346,
          "duration": 0.1499999999999999
        },
        {
          "name": "F2",
          "midi": 41,
          "time": 2.250000000000001,
          "velocity": 0.7086614173228346,
          "duration": 0.2999999999999998
        },
        {
          "name": "G3",
          "midi": 55,
          "time": 2.437500000000001,
          "velocity": 0.7086614173228346,
          "duration": 0.1499999999999999
        },
        {
          "name": "F3",
          "midi": 53,
          "time": 2.625000000000001,
          "velocity": 0.7086614173228346,
          "duration": 0.1499999999999999
        },
        {
          "name": "E4",
          "midi": 64,
          "time": 2.625000000000001,
          "velocity": 0.7086614173228346,
          "duration": 0.2999999999999998
        },
        {
          "name": "C4",
          "midi": 60,
          "time": 2.625000000000001,
          "velocity": 0.7086614173228346,
          "duration": 0.2999999999999998
        },
        {
          "name": "F2",
          "midi": 41,
          "time": 2.812500000000001,
          "velocity": 0.7086614173228346,
          "duration": 0.1499999999999999
        },
        {
          "name": "F4",
          "midi": 65,
          "time": 3.000000000000001,
          "velocity": 0.7086614173228346,
          "duration": 0.6000000000000001
        },
        {
          "name": "C4",
          "midi": 60,
          "time": 3.000000000000001,
          "velocity": 0.7086614173228346,
          "duration": 0.6000000000000001
        },
        {
          "name": "F2",
          "midi": 41,
          "time": 3.000000000000001,
          "velocity": 0.7086614173228346,
          "duration": 0.2999999999999998
        },
        {
          "name": "A3",
          "midi": 57,
          "time": 3.000000000000001,
          "velocity": 0.7086614173228346,
          "duration": 0.6000000000000001
        },
        {
          "name": "F3",
          "midi": 53,
          "time": 3.375000000000001,
          "velocity": 0.7086614173228346,
          "duration": 0.1499999999999999
        },
        {
          "name": "F2",
          "midi": 41,
          "time": 3.562500000000001,
          "velocity": 0.7086614173228346,
          "duration": 0.1499999999999999
        },
        {
          "name": "F2",
          "midi": 41,
          "time": 3.750000000000001,
          "velocity": 0.7086614173228346,
          "duration": 0.2999999999999998
        },
        {
          "name": "A3",
          "midi": 57,
          "time": 3.937500000000001,
          "velocity": 0.7086614173228346,
          "duration": 0.14999999999999947
        },
        {
          "name": "C4",
          "midi": 60,
          "time": 4.125,
          "velocity": 0.7086614173228346,
          "duration": 0.15000000000000036
        },
        {
          "name": "F3",
          "midi": 53,
          "time": 4.125,
          "velocity": 0.7086614173228346,
          "duration": 0.15000000000000036
        },
        {
          "name": "F4",
          "midi": 65,
          "time": 4.3125,
          "velocity": 0.7086614173228346,
          "duration": 0.15000000000000036
        },
        {
          "name": "F2",
          "midi": 41,
          "time": 4.3125,
          "velocity": 0.7086614173228346,
          "duration": 0.15000000000000036
        },
        {
          "name": "F2",
          "midi": 41,
          "time": 4.5,
          "velocity": 0.7086614173228346,
          "duration": 0.2999999999999998
        },
        {
          "name": "A#3",
          "midi": 58,
          "time": 4.5,
          "velocity": 0.7086614173228346,
          "duration": 0.9000000000000004
        },
        {
          "name": "D4",
          "midi": 62,
          "time": 4.5,
          "velocity": 0.7086614173228346,
          "duration": 0.9000000000000004
        },
        {
          "name": "F3",
          "midi": 53,
          "time": 4.875,
          "velocity": 0.7086614173228346,
          "duration": 0.15000000000000036
        },
        {
          "name": "F2",
          "midi": 41,
          "time": 5.0625,
          "velocity": 0.7086614173228346,
          "duration": 0.15000000000000036
        },
        {
          "name": "F2",
          "midi": 41,
          "time": 5.25,
          "velocity": 0.7086614173228346,
          "duration": 0.15000000000000036
        },
        {
          "name": "C3",
          "midi": 48,
          "time": 5.4375,
          "velocity": 0.7086614173228346,
          "duration": 0.2999999999999998
        },
        {
          "name": "G3",
          "midi": 55,
          "time": 5.4375,
          "velocity": 0.7086614173228346,
          "duration": 0.4500000000000002
        },
        {
          "name": "E4",
          "midi": 64,
          "time": 5.4375,
          "velocity": 0.7086614173228346,
          "duration": 0.4500000000000002
        },
        {
          "name": "C4",
          "midi": 60,
          "time": 5.4375,
          "velocity": 0.7086614173228346,
          "duration": 0.4500000000000002
        },
        {
          "name": "F2",
          "midi": 41,
          "time": 5.8125,
          "velocity": 0.7086614173228346,
          "duration": 0.15000000000000036
        },
        {
          "name": "C4",
          "midi": 60,
          "time": 6,
          "velocity": 0.7086614173228346,
          "duration": 0.9000000000000004
        },
        {
          "name": "A3",
          "midi": 57,
          "time": 6,
          "velocity": 0.7086614173228346,
          "duration": 0.9000000000000004
        },
        {
          "name": "F4",
          "midi": 65,
          "time": 6,
          "velocity": 0.7086614173228346,
          "duration": 0.9000000000000004
        },
        {
          "name": "F2",
          "midi": 41,
          "time": 6,
          "velocity": 0.7086614173228346,
          "duration": 0.2999999999999998
        },
        {
          "name": "F3",
          "midi": 53,
          "time": 6.375,
          "velocity": 0.7086614173228346,
          "duration": 0.15000000000000036
        },
        {
          "name": "F2",
          "midi": 41,
          "time": 6.5625,
          "velocity": 0.7086614173228346,
          "duration": 0.15000000000000036
        },
        {
          "name": "F2",
          "midi": 41,
          "time": 6.75,
          "velocity": 0.7086614173228346,
          "duration": 0.3000000000000007
        },
        {
          "name": "F3",
          "midi": 53,
          "time": 7.125000000000001,
          "velocity": 0.7086614173228346,
          "duration": 0.15000000000000036
        },
        {
          "name": "F4",
          "midi": 65,
          "time": 7.125000000000001,
          "velocity": 0.7086614173228346,
          "duration": 0.2999999999999998
        },
        {
          "name": "A3",
          "midi": 57,
          "time": 7.125000000000001,
          "velocity": 0.7086614173228346,
          "duration": 0.2999999999999998
        },
        {
          "name": "C4",
          "midi": 60,
          "time": 7.125000000000001,
          "velocity": 0.7086614173228346,
          "duration": 0.2999999999999998
        },
        {
          "name": "F2",
          "midi": 41,
          "time": 7.312500000000001,
          "velocity": 0.7086614173228346,
          "duration": 0.14999999999999947
        },
        {
          "name": "G3",
          "midi": 55,
          "time": 7.5,
          "velocity": 0.7086614173228346,
          "duration": 0.5999999999999996
        },
        {
          "name": "E4",
          "midi": 64,
          "time": 7.5,
          "velocity": 0.7086614173228346,
          "duration": 0.5999999999999996
        },
        {
          "name": "C4",
          "midi": 60,
          "time": 7.5,
          "velocity": 0.7086614173228346,
          "duration": 0.5999999999999996
        },
        {
          "name": "F2",
          "midi": 41,
          "time": 7.5,
          "velocity": 0.7086614173228346,
          "duration": 0.2999999999999998
        },
        {
          "name": "F3",
          "midi": 53,
          "time": 7.875,
          "velocity": 0.7086614173228346,
          "duration": 0.15000000000000036
        },
        {
          "name": "F2",
          "midi": 41,
          "time": 8.0625,
          "velocity": 0.7086614173228346,
          "duration": 0.15000000000000036
        },
        {
          "name": "F2",
          "midi": 41,
          "time": 8.25,
          "velocity": 0.7086614173228346,
          "duration": 0.3000000000000007
        },
        {
          "name": "G3",
          "midi": 55,
          "time": 8.4375,
          "velocity": 0.7086614173228346,
          "duration": 0.15000000000000036
        },
        {
          "name": "F3",
          "midi": 53,
          "time": 8.625,
          "velocity": 0.7086614173228346,
          "duration": 0.15000000000000036
        },
        {
          "name": "C4",
          "midi": 60,
          "time": 8.625,
          "velocity": 0.7086614173228346,
          "duration": 0.3000000000000007
        },
        {
          "name": "E4",
          "midi": 64,
          "time": 8.625,
          "velocity": 0.7086614173228346,
          "duration": 0.3000000000000007
        },
        {
          "name": "F2",
          "midi": 41,
          "time": 8.8125,
          "velocity": 0.7086614173228346,
          "duration": 0.15000000000000036
        },
        {
          "name": "C4",
          "midi": 60,
          "time": 9,
          "velocity": 0.7086614173228346,
          "duration": 0.5999999999999996
        },
        {
          "name": "A3",
          "midi": 57,
          "time": 9,
          "velocity": 0.7086614173228346,
          "duration": 0.5999999999999996
        },
        {
          "name": "F4",
          "midi": 65,
          "time": 9,
          "velocity": 0.7086614173228346,
          "duration": 0.5999999999999996
        },
        {
          "name": "F2",
          "midi": 41,
          "time": 9,
          "velocity": 0.7086614173228346,
          "duration": 0.3000000000000007
        },
        {
          "name": "F3",
          "midi": 53,
          "time": 9.375,
          "velocity": 0.7086614173228346,
          "duration": 0.15000000000000036
        },
        {
          "name": "F2",
          "midi": 41,
          "time": 9.5625,
          "velocity": 0.7086614173228346,
          "duration": 0.15000000000000036
        },
        {
          "name": "F2",
          "midi": 41,
          "time": 9.75,
          "velocity": 0.7086614173228346,
          "duration": 0.3000000000000007
        },
        {
          "name": "A3",
          "midi": 57,
          "time": 9.9375,
          "velocity": 0.7086614173228346,
          "duration": 0.15000000000000036
        },
        {
          "name": "C4",
          "midi": 60,
          "time": 10.125,
          "velocity": 0.7086614173228346,
          "duration": 0.15000000000000036
        },
        {
          "name": "F3",
          "midi": 53,
          "time": 10.125,
          "velocity": 0.7086614173228346,
          "duration": 0.15000000000000036
        },
        {
          "name": "F2",
          "midi": 41,
          "time": 10.3125,
          "velocity": 0.7086614173228346,
          "duration": 0.15000000000000036
        },
        {
          "name": "F4",
          "midi": 65,
          "time": 10.3125,
          "velocity": 0.7086614173228346,
          "duration": 0.15000000000000036
        },
        {
          "name": "D4",
          "midi": 62,
          "time": 10.5,
          "velocity": 0.7086614173228346,
          "duration": 0.9000000000000004
        },
        {
          "name": "F2",
          "midi": 41,
          "time": 10.5,
          "velocity": 0.7086614173228346,
          "duration": 0.3000000000000007
        },
        {
          "name": "A#3",
          "midi": 58,
          "time": 10.5,
          "velocity": 0.7086614173228346,
          "duration": 0.9000000000000004
        },
        {
          "name": "F3",
          "midi": 53,
          "time": 10.875,
          "velocity": 0.7086614173228346,
          "duration": 0.15000000000000036
        },
        {
          "name": "F2",
          "midi": 41,
          "time": 11.0625,
          "velocity": 0.7086614173228346,
          "duration": 0.15000000000000036
        },
        {
          "name": "F2",
          "midi": 41,
          "time": 11.25,
          "velocity": 0.7086614173228346,
          "duration": 0.15000000000000036
        },
        {
          "name": "C3",
          "midi": 48,
          "time": 11.4375,
          "velocity": 0.7086614173228346,
          "duration": 0.3000000000000007
        },
        {
          "name": "G3",
          "midi": 55,
          "time": 11.4375,
          "velocity": 0.7086614173228346,
          "duration": 0.4499999999999993
        },
        {
          "name": "C4",
          "midi": 60,
          "time": 11.4375,
          "velocity": 0.7086614173228346,
          "duration": 0.4499999999999993
        },
        {
          "name": "E4",
          "midi": 64,
          "time": 11.4375,
          "velocity": 0.7086614173228346,
          "duration": 0.4499999999999993
        },
        {
          "name": "F2",
          "midi": 41,
          "time": 11.8125,
          "velocity": 0.7086614173228346,
          "duration": 0.14999999999999858
        },
        {
          "name": "C4",
          "midi": 60,
          "time": 11.999999999999998,
          "velocity": 0.7086614173228346,
          "duration": 0.9000000000000004
        },
        {
          "name": "A3",
          "midi": 57,
          "time": 11.999999999999998,
          "velocity": 0.7086614173228346,
          "duration": 0.9000000000000004
        },
        {
          "name": "F4",
          "midi": 65,
          "time": 11.999999999999998,
          "velocity": 0.7086614173228346,
          "duration": 0.9000000000000004
        },
        {
          "name": "F2",
          "midi": 41,
          "time": 11.999999999999998,
          "velocity": 0.7086614173228346,
          "duration": 0.3000000000000007
        },
        {
          "name": "F3",
          "midi": 53,
          "time": 12.374999999999998,
          "velocity": 0.7086614173228346,
          "duration": 0.15000000000000036
        },
        {
          "name": "F2",
          "midi": 41,
          "time": 12.562499999999998,
          "velocity": 0.7086614173228346,
          "duration": 0.15000000000000036
        },
        {
          "name": "F2",
          "midi": 41,
          "time": 12.749999999999998,
          "velocity": 0.7086614173228346,
          "duration": 0.3000000000000007
        },
        {
          "name": "F3",
          "midi": 53,
          "time": 13.124999999999998,
          "velocity": 0.7086614173228346,
          "duration": 0.15000000000000036
        },
        {
          "name": "A3",
          "midi": 57,
          "time": 13.124999999999998,
          "velocity": 0.7086614173228346,
          "duration": 0.3000000000000007
        },
        {
          "name": "C4",
          "midi": 60,
          "time": 13.124999999999998,
          "velocity": 0.7086614173228346,
          "duration": 0.3000000000000007
        },
        {
          "name": "F4",
          "midi": 65,
          "time": 13.124999999999998,
          "velocity": 0.7086614173228346,
          "duration": 0.3000000000000007
        },
        {
          "name": "F2",
          "midi": 41,
          "time": 13.312499999999998,
          "velocity": 0.7086614173228346,
          "duration": 0.15000000000000036
        },
        {
          "name": "C4",
          "midi": 60,
          "time": 13.499999999999998,
          "velocity": 0.7086614173228346,
          "duration": 0.5999999999999996
        },
        {
          "name": "G3",
          "midi": 55,
          "time": 13.499999999999998,
          "velocity": 0.7086614173228346,
          "duration": 0.5999999999999996
        },
        {
          "name": "E4",
          "midi": 64,
          "time": 13.499999999999998,
          "velocity": 0.7086614173228346,
          "duration": 0.5999999999999996
        },
        {
          "name": "F2",
          "midi": 41,
          "time": 13.499999999999998,
          "velocity": 0.7086614173228346,
          "duration": 0.3000000000000007
        },
        {
          "name": "F3",
          "midi": 53,
          "time": 13.874999999999998,
          "velocity": 0.7086614173228346,
          "duration": 0.15000000000000036
        },
        {
          "name": "F2",
          "midi": 41,
          "time": 14.062499999999998,
          "velocity": 0.7086614173228346,
          "duration": 0.15000000000000036
        },
        {
          "name": "F2",
          "midi": 41,
          "time": 14.249999999999998,
          "velocity": 0.7086614173228346,
          "duration": 0.3000000000000007
        },
        {
          "name": "G3",
          "midi": 55,
          "time": 14.437499999999998,
          "velocity": 0.7086614173228346,
          "duration": 0.15000000000000036
        },
        {
          "name": "F3",
          "midi": 53,
          "time": 14.624999999999998,
          "velocity": 0.7086614173228346,
          "duration": 0.15000000000000036
        },
        {
          "name": "C4",
          "midi": 60,
          "time": 14.624999999999998,
          "velocity": 0.7086614173228346,
          "duration": 0.3000000000000007
        },
        {
          "name": "E4",
          "midi": 64,
          "time": 14.624999999999998,
          "velocity": 0.7086614173228346,
          "duration": 0.3000000000000007
        },
        {
          "name": "F2",
          "midi": 41,
          "time": 14.812499999999998,
          "velocity": 0.7086614173228346,
          "duration": 0.15000000000000036
        },
        {
          "name": "A3",
          "midi": 57,
          "time": 14.999999999999998,
          "velocity": 0.7086614173228346,
          "duration": 0.5999999999999996
        },
        {
          "name": "F4",
          "midi": 65,
          "time": 14.999999999999998,
          "velocity": 0.7086614173228346,
          "duration": 0.5999999999999996
        },
        {
          "name": "C4",
          "midi": 60,
          "time": 14.999999999999998,
          "velocity": 0.7086614173228346,
          "duration": 0.5999999999999996
        },
        {
          "name": "F2",
          "midi": 41,
          "time": 14.999999999999998,
          "velocity": 0.7086614173228346,
          "duration": 0.3000000000000007
        },
        {
          "name": "F3",
          "midi": 53,
          "time": 15.374999999999998,
          "velocity": 0.7086614173228346,
          "duration": 0.15000000000000036
        },
        {
          "name": "F2",
          "midi": 41,
          "time": 15.562499999999998,
          "velocity": 0.7086614173228346,
          "duration": 0.15000000000000036
        },
        {
          "name": "F2",
          "midi": 41,
          "time": 15.749999999999998,
          "velocity": 0.7086614173228346,
          "duration": 0.29999999999999893
        },
        {
          "name": "A3",
          "midi": 57,
          "time": 15.937499999999998,
          "velocity": 0.7086614173228346,
          "duration": 0.15000000000000036
        },
        {
          "name": "C4",
          "midi": 60,
          "time": 16.125,
          "velocity": 0.7086614173228346,
          "duration": 0.14999999999999858
        },
        {
          "name": "F3",
          "midi": 53,
          "time": 16.125,
          "velocity": 0.7086614173228346,
          "duration": 0.14999999999999858
        },
        {
          "name": "F4",
          "midi": 65,
          "time": 16.3125,
          "velocity": 0.7086614173228346,
          "duration": 0.14999999999999858
        },
        {
          "name": "F2",
          "midi": 41,
          "time": 16.3125,
          "velocity": 0.7086614173228346,
          "duration": 0.14999999999999858
        },
        {
          "name": "D4",
          "midi": 62,
          "time": 16.5,
          "velocity": 0.7086614173228346,
          "duration": 0.8999999999999986
        },
        {
          "name": "A#3",
          "midi": 58,
          "time": 16.5,
          "velocity": 0.7086614173228346,
          "duration": 0.8999999999999986
        },
        {
          "name": "F2",
          "midi": 41,
          "time": 16.5,
          "velocity": 0.7086614173228346,
          "duration": 0.3000000000000007
        },
        {
          "name": "F3",
          "midi": 53,
          "time": 16.875,
          "velocity": 0.7086614173228346,
          "duration": 0.14999999999999858
        },
        {
          "name": "F2",
          "midi": 41,
          "time": 17.0625,
          "velocity": 0.7086614173228346,
          "duration": 0.14999999999999858
        },
        {
          "name": "F2",
          "midi": 41,
          "time": 17.25,
          "velocity": 0.7086614173228346,
          "duration": 0.14999999999999858
        },
        {
          "name": "C3",
          "midi": 48,
          "time": 17.4375,
          "velocity": 0.7086614173228346,
          "duration": 0.3000000000000007
        },
        {
          "name": "G3",
          "midi": 55,
          "time": 17.4375,
          "velocity": 0.7086614173228346,
          "duration": 0.4499999999999993
        },
        {
          "name": "C4",
          "midi": 60,
          "time": 17.4375,
          "velocity": 0.7086614173228346,
          "duration": 0.4499999999999993
        },
        {
          "name": "E4",
          "midi": 64,
          "time": 17.4375,
          "velocity": 0.7086614173228346,
          "duration": 0.4499999999999993
        },
        {
          "name": "F2",
          "midi": 41,
          "time": 17.8125,
          "velocity": 0.7086614173228346,
          "duration": 0.14999999999999858
        },
        {
          "name": "C4",
          "midi": 60,
          "time": 18,
          "velocity": 0.7086614173228346,
          "duration": 0.8999999999999986
        },
        {
          "name": "F4",
          "midi": 65,
          "time": 18,
          "velocity": 0.7086614173228346,
          "duration": 0.8999999999999986
        },
        {
          "name": "A3",
          "midi": 57,
          "time": 18,
          "velocity": 0.7086614173228346,
          "duration": 0.8999999999999986
        },
        {
          "name": "F2",
          "midi": 41,
          "time": 18,
          "velocity": 0.7086614173228346,
          "duration": 0.3000000000000007
        },
        {
          "name": "F3",
          "midi": 53,
          "time": 18.375,
          "velocity": 0.7086614173228346,
          "duration": 0.14999999999999858
        },
        {
          "name": "F2",
          "midi": 41,
          "time": 18.5625,
          "velocity": 0.7086614173228346,
          "duration": 0.14999999999999858
        },
        {
          "name": "F2",
          "midi": 41,
          "time": 18.75,
          "velocity": 0.7086614173228346,
          "duration": 0.29999999999999716
        },
        {
          "name": "F3",
          "midi": 53,
          "time": 19.124999999999996,
          "velocity": 0.7086614173228346,
          "duration": 0.14999999999999858
        },
        {
          "name": "C4",
          "midi": 60,
          "time": 19.124999999999996,
          "velocity": 0.7086614173228346,
          "duration": 0.3000000000000007
        },
        {
          "name": "F4",
          "midi": 65,
          "time": 19.124999999999996,
          "velocity": 0.7086614173228346,
          "duration": 0.3000000000000007
        },
        {
          "name": "A3",
          "midi": 57,
          "time": 19.124999999999996,
          "velocity": 0.7086614173228346,
          "duration": 0.3000000000000007
        },
        {
          "name": "F2",
          "midi": 41,
          "time": 19.312499999999996,
          "velocity": 0.7086614173228346,
          "duration": 0.15000000000000213
        },
        {
          "name": "G3",
          "midi": 55,
          "time": 19.5,
          "velocity": 0.7086614173228346,
          "duration": 0.6000000000000014
        },
        {
          "name": "E4",
          "midi": 64,
          "time": 19.5,
          "velocity": 0.7086614173228346,
          "duration": 0.6000000000000014
        },
        {
          "name": "C4",
          "midi": 60,
          "time": 19.5,
          "velocity": 0.7086614173228346,
          "duration": 0.6000000000000014
        },
        {
          "name": "F2",
          "midi": 41,
          "time": 19.5,
          "velocity": 0.7086614173228346,
          "duration": 0.3000000000000007
        },
        {
          "name": "F3",
          "midi": 53,
          "time": 19.875,
          "velocity": 0.7086614173228346,
          "duration": 0.14999999999999858
        },
        {
          "name": "F2",
          "midi": 41,
          "time": 20.0625,
          "velocity": 0.7086614173228346,
          "duration": 0.15000000000000213
        },
        {
          "name": "F2",
          "midi": 41,
          "time": 20.250000000000004,
          "velocity": 0.7086614173228346,
          "duration": 0.3000000000000007
        },
        {
          "name": "G3",
          "midi": 55,
          "time": 20.437500000000004,
          "velocity": 0.7086614173228346,
          "duration": 0.15000000000000213
        },
        {
          "name": "F3",
          "midi": 53,
          "time": 20.625000000000007,
          "velocity": 0.7086614173228346,
          "duration": 0.14999999999999858
        },
        {
          "name": "E4",
          "midi": 64,
          "time": 20.625000000000007,
          "velocity": 0.7086614173228346,
          "duration": 0.3000000000000007
        },
        {
          "name": "C4",
          "midi": 60,
          "time": 20.625000000000007,
          "velocity": 0.7086614173228346,
          "duration": 0.3000000000000007
        },
        {
          "name": "F2",
          "midi": 41,
          "time": 20.812500000000007,
          "velocity": 0.7086614173228346,
          "duration": 0.15000000000000213
        },
        {
          "name": "C4",
          "midi": 60,
          "time": 21.00000000000001,
          "velocity": 0.7086614173228346,
          "duration": 0.6000000000000014
        },
        {
          "name": "F4",
          "midi": 65,
          "time": 21.00000000000001,
          "velocity": 0.7086614173228346,
          "duration": 0.6000000000000014
        },
        {
          "name": "A3",
          "midi": 57,
          "time": 21.00000000000001,
          "velocity": 0.7086614173228346,
          "duration": 0.6000000000000014
        },
        {
          "name": "F2",
          "midi": 41,
          "time": 21.00000000000001,
          "velocity": 0.7086614173228346,
          "duration": 0.3000000000000007
        },
        {
          "name": "F3",
          "midi": 53,
          "time": 21.37500000000001,
          "velocity": 0.7086614173228346,
          "duration": 0.14999999999999858
        },
        {
          "name": "F2",
          "midi": 41,
          "time": 21.56250000000001,
          "velocity": 0.7086614173228346,
          "duration": 0.15000000000000213
        },
        {
          "name": "F2",
          "midi": 41,
          "time": 21.750000000000014,
          "velocity": 0.7086614173228346,
          "duration": 0.3000000000000007
        },
        {
          "name": "A3",
          "midi": 57,
          "time": 21.937500000000014,
          "velocity": 0.7086614173228346,
          "duration": 0.15000000000000213
        },
        {
          "name": "F3",
          "midi": 53,
          "time": 22.125000000000018,
          "velocity": 0.7086614173228346,
          "duration": 0.14999999999999858
        },
        {
          "name": "C4",
          "midi": 60,
          "time": 22.125000000000018,
          "velocity": 0.7086614173228346,
          "duration": 0.14999999999999858
        },
        {
          "name": "F4",
          "midi": 65,
          "time": 22.312500000000018,
          "velocity": 0.7086614173228346,
          "duration": 0.14999999999999858
        },
        {
          "name": "F2",
          "midi": 41,
          "time": 22.312500000000018,
          "velocity": 0.7086614173228346,
          "duration": 0.14999999999999858
        },
        {
          "name": "D4",
          "midi": 62,
          "time": 22.500000000000018,
          "velocity": 0.7086614173228346,
          "duration": 0.8999999999999986
        },
        {
          "name": "A#3",
          "midi": 58,
          "time": 22.500000000000018,
          "velocity": 0.7086614173228346,
          "duration": 0.8999999999999986
        },
        {
          "name": "F2",
          "midi": 41,
          "time": 22.500000000000018,
          "velocity": 0.7086614173228346,
          "duration": 0.3000000000000007
        },
        {
          "name": "F3",
          "midi": 53,
          "time": 22.875000000000018,
          "velocity": 0.7086614173228346,
          "duration": 0.14999999999999858
        },
        {
          "name": "F2",
          "midi": 41,
          "time": 23.062500000000018,
          "velocity": 0.7086614173228346,
          "duration": 0.14999999999999858
        },
        {
          "name": "F2",
          "midi": 41,
          "time": 23.250000000000018,
          "velocity": 0.7086614173228346,
          "duration": 0.14999999999999858
        },
        {
          "name": "G3",
          "midi": 55,
          "time": 23.437500000000018,
          "velocity": 0.7086614173228346,
          "duration": 0.4499999999999993
        },
        {
          "name": "C3",
          "midi": 48,
          "time": 23.437500000000018,
          "velocity": 0.7086614173228346,
          "duration": 0.3000000000000007
        },
        {
          "name": "E4",
          "midi": 64,
          "time": 23.437500000000018,
          "velocity": 0.7086614173228346,
          "duration": 0.4499999999999993
        },
        {
          "name": "C4",
          "midi": 60,
          "time": 23.437500000000018,
          "velocity": 0.7086614173228346,
          "duration": 0.4499999999999993
        },
        {
          "name": "F2",
          "midi": 41,
          "time": 23.812500000000018,
          "velocity": 0.7086614173228346,
          "duration": 0.14999999999999858
        },
        {
          "name": "A3",
          "midi": 57,
          "time": 24.000000000000018,
          "velocity": 0.7086614173228346,
          "duration": 0.8999999999999986
        },
        {
          "name": "F4",
          "midi": 65,
          "time": 24.000000000000018,
          "velocity": 0.7086614173228346,
          "duration": 0.8999999999999986
        },
        {
          "name": "C4",
          "midi": 60,
          "time": 24.000000000000018,
          "velocity": 0.7086614173228346,
          "duration": 0.8999999999999986
        },
        {
          "name": "F2",
          "midi": 41,
          "time": 24.000000000000018,
          "velocity": 0.7086614173228346,
          "duration": 0.3000000000000007
        },
        {
          "name": "F3",
          "midi": 53,
          "time": 24.375000000000018,
          "velocity": 0.7086614173228346,
          "duration": 0.14999999999999858
        },
        {
          "name": "F2",
          "midi": 41,
          "time": 24.562500000000018,
          "velocity": 0.7086614173228346,
          "duration": 0.14999999999999858
        },
        {
          "name": "F2",
          "midi": 41,
          "time": 24.750000000000018,
          "velocity": 0.7086614173228346,
          "duration": 0.29999999999999716
        },
        {
          "name": "F3",
          "midi": 53,
          "time": 25.125000000000014,
          "velocity": 0.7086614173228346,
          "duration": 0.14999999999999858
        },
        {
          "name": "C4",
          "midi": 60,
          "time": 25.125000000000014,
          "velocity": 0.7086614173228346,
          "duration": 0.3000000000000007
        },
        {
          "name": "A3",
          "midi": 57,
          "time": 25.125000000000014,
          "velocity": 0.7086614173228346,
          "duration": 0.3000000000000007
        },
        {
          "name": "F4",
          "midi": 65,
          "time": 25.125000000000014,
          "velocity": 0.7086614173228346,
          "duration": 0.3000000000000007
        },
        {
          "name": "F2",
          "midi": 41,
          "time": 25.312500000000014,
          "velocity": 0.7086614173228346,
          "duration": 0.15000000000000213
        },
        {
          "name": "E4",
          "midi": 64,
          "time": 25.500000000000018,
          "velocity": 0.7086614173228346,
          "duration": 0.6000000000000014
        },
        {
          "name": "G3",
          "midi": 55,
          "time": 25.500000000000018,
          "velocity": 0.7086614173228346,
          "duration": 0.6000000000000014
        },
        {
          "name": "C4",
          "midi": 60,
          "time": 25.500000000000018,
          "velocity": 0.7086614173228346,
          "duration": 0.6000000000000014
        },
        {
          "name": "F2",
          "midi": 41,
          "time": 25.500000000000018,
          "velocity": 0.7086614173228346,
          "duration": 0.3000000000000007
        },
        {
          "name": "F3",
          "midi": 53,
          "time": 25.875000000000018,
          "velocity": 0.7086614173228346,
          "duration": 0.14999999999999858
        },
        {
          "name": "F2",
          "midi": 41,
          "time": 26.062500000000018,
          "velocity": 0.7086614173228346,
          "duration": 0.15000000000000213
        },
        {
          "name": "F2",
          "midi": 41,
          "time": 26.25000000000002,
          "velocity": 0.7086614173228346,
          "duration": 0.3000000000000007
        },
        {
          "name": "G3",
          "midi": 55,
          "time": 26.43750000000002,
          "velocity": 0.7086614173228346,
          "duration": 0.15000000000000213
        },
        {
          "name": "F3",
          "midi": 53,
          "time": 26.625000000000025,
          "velocity": 0.7086614173228346,
          "duration": 0.14999999999999858
        },
        {
          "name": "C4",
          "midi": 60,
          "time": 26.625000000000025,
          "velocity": 0.7086614173228346,
          "duration": 0.3000000000000007
        },
        {
          "name": "E4",
          "midi": 64,
          "time": 26.625000000000025,
          "velocity": 0.7086614173228346,
          "duration": 0.3000000000000007
        },
        {
          "name": "F2",
          "midi": 41,
          "time": 26.812500000000025,
          "velocity": 0.7086614173228346,
          "duration": 0.15000000000000213
        },
        {
          "name": "A3",
          "midi": 57,
          "time": 27.00000000000003,
          "velocity": 0.7086614173228346,
          "duration": 0.6000000000000014
        },
        {
          "name": "C4",
          "midi": 60,
          "time": 27.00000000000003,
          "velocity": 0.7086614173228346,
          "duration": 0.6000000000000014
        },
        {
          "name": "F4",
          "midi": 65,
          "time": 27.00000000000003,
          "velocity": 0.7086614173228346,
          "duration": 0.6000000000000014
        },
        {
          "name": "F2",
          "midi": 41,
          "time": 27.00000000000003,
          "velocity": 0.7086614173228346,
          "duration": 0.3000000000000007
        },
        {
          "name": "F3",
          "midi": 53,
          "time": 27.37500000000003,
          "velocity": 0.7086614173228346,
          "duration": 0.14999999999999858
        },
        {
          "name": "F2",
          "midi": 41,
          "time": 27.56250000000003,
          "velocity": 0.7086614173228346,
          "duration": 0.15000000000000213
        },
        {
          "name": "F2",
          "midi": 41,
          "time": 27.750000000000032,
          "velocity": 0.7086614173228346,
          "duration": 0.3000000000000007
        },
        {
          "name": "A3",
          "midi": 57,
          "time": 27.937500000000032,
          "velocity": 0.7086614173228346,
          "duration": 0.15000000000000213
        },
        {
          "name": "F3",
          "midi": 53,
          "time": 28.125000000000036,
          "velocity": 0.7086614173228346,
          "duration": 0.14999999999999858
        },
        {
          "name": "C4",
          "midi": 60,
          "time": 28.125000000000036,
          "velocity": 0.7086614173228346,
          "duration": 0.14999999999999858
        },
        {
          "name": "F2",
          "midi": 41,
          "time": 28.312500000000036,
          "velocity": 0.7086614173228346,
          "duration": 0.14999999999999858
        },
        {
          "name": "F4",
          "midi": 65,
          "time": 28.312500000000036,
          "velocity": 0.7086614173228346,
          "duration": 0.14999999999999858
        },
        {
          "name": "A#3",
          "midi": 58,
          "time": 28.500000000000036,
          "velocity": 0.7086614173228346,
          "duration": 0.8999999999999986
        },
        {
          "name": "D4",
          "midi": 62,
          "time": 28.500000000000036,
          "velocity": 0.7086614173228346,
          "duration": 0.8999999999999986
        },
        {
          "name": "F2",
          "midi": 41,
          "time": 28.500000000000036,
          "velocity": 0.7086614173228346,
          "duration": 0.3000000000000007
        },
        {
          "name": "F3",
          "midi": 53,
          "time": 28.875000000000036,
          "velocity": 0.7086614173228346,
          "duration": 0.14999999999999858
        },
        {
          "name": "F2",
          "midi": 41,
          "time": 29.062500000000036,
          "velocity": 0.7086614173228346,
          "duration": 0.14999999999999858
        },
        {
          "name": "F2",
          "midi": 41,
          "time": 29.250000000000036,
          "velocity": 0.7086614173228346,
          "duration": 0.14999999999999858
        },
        {
          "name": "C3",
          "midi": 48,
          "time": 29.437500000000036,
          "velocity": 0.7086614173228346,
          "duration": 0.3000000000000007
        },
        {
          "name": "G3",
          "midi": 55,
          "time": 29.437500000000036,
          "velocity": 0.7086614173228346,
          "duration": 0.4499999999999993
        },
        {
          "name": "C4",
          "midi": 60,
          "time": 29.437500000000036,
          "velocity": 0.7086614173228346,
          "duration": 0.4499999999999993
        },
        {
          "name": "E4",
          "midi": 64,
          "time": 29.437500000000036,
          "velocity": 0.7086614173228346,
          "duration": 0.4499999999999993
        },
        {
          "name": "F2",
          "midi": 41,
          "time": 29.812500000000036,
          "velocity": 0.7086614173228346,
          "duration": 0.14999999999999858
        },
        {
          "name": "F4",
          "midi": 65,
          "time": 30.000000000000036,
          "velocity": 0.7086614173228346,
          "duration": 0.8999999999999986
        },
        {
          "name": "A#3",
          "midi": 58,
          "time": 30.000000000000036,
          "velocity": 0.7086614173228346,
          "duration": 0.8999999999999986
        },
        {
          "name": "D4",
          "midi": 62,
          "time": 30.000000000000036,
          "velocity": 0.7086614173228346,
          "duration": 0.8999999999999986
        },
        {
          "name": "F2",
          "midi": 41,
          "time": 30.000000000000036,
          "velocity": 0.7086614173228346,
          "duration": 0.3000000000000007
        },
        {
          "name": "F3",
          "midi": 53,
          "time": 30.375000000000036,
          "velocity": 0.7086614173228346,
          "duration": 0.14999999999999858
        },
        {
          "name": "F2",
          "midi": 41,
          "time": 30.562500000000036,
          "velocity": 0.7086614173228346,
          "duration": 0.14999999999999858
        },
        {
          "name": "F2",
          "midi": 41,
          "time": 30.750000000000036,
          "velocity": 0.7086614173228346,
          "duration": 0.29999999999999716
        },
        {
          "name": "F3",
          "midi": 53,
          "time": 31.125000000000032,
          "velocity": 0.7086614173228346,
          "duration": 0.14999999999999858
        },
        {
          "name": "A#3",
          "midi": 58,
          "time": 31.125000000000032,
          "velocity": 0.7086614173228346,
          "duration": 0.3000000000000007
        },
        {
          "name": "F4",
          "midi": 65,
          "time": 31.125000000000032,
          "velocity": 0.7086614173228346,
          "duration": 0.3000000000000007
        },
        {
          "name": "D4",
          "midi": 62,
          "time": 31.125000000000032,
          "velocity": 0.7086614173228346,
          "duration": 0.3000000000000007
        },
        {
          "name": "F2",
          "midi": 41,
          "time": 31.312500000000032,
          "velocity": 0.7086614173228346,
          "duration": 0.15000000000000213
        },
        {
          "name": "G3",
          "midi": 55,
          "time": 31.500000000000036,
          "velocity": 0.7086614173228346,
          "duration": 0.8999999999999986
        },
        {
          "name": "C4",
          "midi": 60,
          "time": 31.500000000000036,
          "velocity": 0.7086614173228346,
          "duration": 0.8999999999999986
        },
        {
          "name": "E4",
          "midi": 64,
          "time": 31.500000000000036,
          "velocity": 0.7086614173228346,
          "duration": 0.8999999999999986
        },
        {
          "name": "A#3",
          "midi": 58,
          "time": 31.500000000000036,
          "velocity": 0.7086614173228346,
          "duration": 0.8999999999999986
        },
        {
          "name": "F2",
          "midi": 41,
          "time": 31.500000000000036,
          "velocity": 0.7086614173228346,
          "duration": 0.3000000000000007
        },
        {
          "name": "F3",
          "midi": 53,
          "time": 31.875000000000036,
          "velocity": 0.7086614173228346,
          "duration": 0.14999999999999858
        },
        {
          "name": "F2",
          "midi": 41,
          "time": 32.062500000000036,
          "velocity": 0.7086614173228346,
          "duration": 0.14999999999999858
        },
        {
          "name": "F2",
          "midi": 41,
          "time": 32.250000000000036,
          "velocity": 0.7086614173228346,
          "duration": 0.29999999999999716
        },
        {
          "name": "G3",
          "midi": 55,
          "time": 32.437500000000036,
          "velocity": 0.7086614173228346,
          "duration": 0.14999999999999858
        },
        {
          "name": "F3",
          "midi": 53,
          "time": 32.625000000000036,
          "velocity": 0.7086614173228346,
          "duration": 0.14999999999999858
        },
        {
          "name": "C4",
          "midi": 60,
          "time": 32.625000000000036,
          "velocity": 0.7086614173228346,
          "duration": 0.29999999999999716
        },
        {
          "name": "E4",
          "midi": 64,
          "time": 32.625000000000036,
          "velocity": 0.7086614173228346,
          "duration": 0.29999999999999716
        },
        {
          "name": "F2",
          "midi": 41,
          "time": 32.812500000000036,
          "velocity": 0.7086614173228346,
          "duration": 0.14999999999999858
        },
        {
          "name": "A3",
          "midi": 57,
          "time": 33.000000000000036,
          "velocity": 0.7086614173228346,
          "duration": 0.6000000000000014
        },
        {
          "name": "C4",
          "midi": 60,
          "time": 33.000000000000036,
          "velocity": 0.7086614173228346,
          "duration": 0.6000000000000014
        },
        {
          "name": "F4",
          "midi": 65,
          "time": 33.000000000000036,
          "velocity": 0.7086614173228346,
          "duration": 0.6000000000000014
        },
        {
          "name": "F2",
          "midi": 41,
          "time": 33.000000000000036,
          "velocity": 0.7086614173228346,
          "duration": 0.29999999999999716
        },
        {
          "name": "F3",
          "midi": 53,
          "time": 33.375000000000036,
          "velocity": 0.7086614173228346,
          "duration": 0.14999999999999858
        },
        {
          "name": "F2",
          "midi": 41,
          "time": 33.562500000000036,
          "velocity": 0.7086614173228346,
          "duration": 0.14999999999999858
        },
        {
          "name": "F2",
          "midi": 41,
          "time": 33.750000000000036,
          "velocity": 0.7086614173228346,
          "duration": 0.29999999999999716
        },
        {
          "name": "A3",
          "midi": 57,
          "time": 33.937500000000036,
          "velocity": 0.7086614173228346,
          "duration": 0.14999999999999858
        },
        {
          "name": "C4",
          "midi": 60,
          "time": 34.125000000000036,
          "velocity": 0.7086614173228346,
          "duration": 0.14999999999999858
        },
        {
          "name": "F3",
          "midi": 53,
          "time": 34.125000000000036,
          "velocity": 0.7086614173228346,
          "duration": 0.14999999999999858
        },
        {
          "name": "F2",
          "midi": 41,
          "time": 34.312500000000036,
          "velocity": 0.7086614173228346,
          "duration": 0.14999999999999858
        },
        {
          "name": "F4",
          "midi": 65,
          "time": 34.312500000000036,
          "velocity": 0.7086614173228346,
          "duration": 0.14999999999999858
        },
        {
          "name": "D4",
          "midi": 62,
          "time": 34.500000000000036,
          "velocity": 0.7086614173228346,
          "duration": 0.8999999999999986
        },
        {
          "name": "A#3",
          "midi": 58,
          "time": 34.500000000000036,
          "velocity": 0.7086614173228346,
          "duration": 0.8999999999999986
        },
        {
          "name": "F2",
          "midi": 41,
          "time": 34.500000000000036,
          "velocity": 0.7086614173228346,
          "duration": 0.29999999999999716
        },
        {
          "name": "F3",
          "midi": 53,
          "time": 34.875000000000036,
          "velocity": 0.7086614173228346,
          "duration": 0.14999999999999858
        },
        {
          "name": "F2",
          "midi": 41,
          "time": 35.062500000000036,
          "velocity": 0.7086614173228346,
          "duration": 0.14999999999999858
        },
        {
          "name": "F2",
          "midi": 41,
          "time": 35.250000000000036,
          "velocity": 0.7086614173228346,
          "duration": 0.14999999999999858
        },
        {
          "name": "E4",
          "midi": 64,
          "time": 35.437500000000036,
          "velocity": 0.7086614173228346,
          "duration": 0.45000000000000284
        },
        {
          "name": "C3",
          "midi": 48,
          "time": 35.437500000000036,
          "velocity": 0.7086614173228346,
          "duration": 0.29999999999999716
        },
        {
          "name": "G3",
          "midi": 55,
          "time": 35.437500000000036,
          "velocity": 0.7086614173228346,
          "duration": 0.45000000000000284
        },
        {
          "name": "C4",
          "midi": 60,
          "time": 35.437500000000036,
          "velocity": 0.7086614173228346,
          "duration": 0.45000000000000284
        },
        {
          "name": "F2",
          "midi": 41,
          "time": 35.812500000000036,
          "velocity": 0.7086614173228346,
          "duration": 0.15000000000000568
        },
        {
          "name": "C4",
          "midi": 60,
          "time": 36.00000000000004,
          "velocity": 0.7086614173228346,
          "duration": 0.8999999999999986
        },
        {
          "name": "D#4",
          "midi": 63,
          "time": 36.00000000000004,
          "velocity": 0.7086614173228346,
          "duration": 0.8999999999999986
        },
        {
          "name": "G#4",
          "midi": 68,
          "time": 36.00000000000004,
          "velocity": 0.7086614173228346,
          "duration": 0.8999999999999986
        },
        {
          "name": "G#2",
          "midi": 44,
          "time": 36.00000000000004,
          "velocity": 0.7086614173228346,
          "duration": 0.29999999999999716
        },
        {
          "name": "G#3",
          "midi": 56,
          "time": 36.37500000000004,
          "velocity": 0.7086614173228346,
          "duration": 0.14999999999999858
        },
        {
          "name": "G#2",
          "midi": 44,
          "time": 36.56250000000004,
          "velocity": 0.7086614173228346,
          "duration": 0.14999999999999858
        },
        {
          "name": "G#2",
          "midi": 44,
          "time": 36.75000000000004,
          "velocity": 0.7086614173228346,
          "duration": 0.29999999999999716
        },
        {
          "name": "G#3",
          "midi": 56,
          "time": 37.12500000000004,
          "velocity": 0.7086614173228346,
          "duration": 0.14999999999999858
        },
        {
          "name": "C4",
          "midi": 60,
          "time": 37.12500000000004,
          "velocity": 0.7086614173228346,
          "duration": 0.29999999999999716
        },
        {
          "name": "D#4",
          "midi": 63,
          "time": 37.12500000000004,
          "velocity": 0.7086614173228346,
          "duration": 0.29999999999999716
        },
        {
          "name": "G#4",
          "midi": 68,
          "time": 37.12500000000004,
          "velocity": 0.7086614173228346,
          "duration": 0.29999999999999716
        },
        {
          "name": "G#2",
          "midi": 44,
          "time": 37.31250000000004,
          "velocity": 0.7086614173228346,
          "duration": 0.14999999999999858
        },
        {
          "name": "D#4",
          "midi": 63,
          "time": 37.50000000000004,
          "velocity": 0.7086614173228346,
          "duration": 0.6000000000000014
        },
        {
          "name": "G4",
          "midi": 67,
          "time": 37.50000000000004,
          "velocity": 0.7086614173228346,
          "duration": 0.6000000000000014
        },
        {
          "name": "A#3",
          "midi": 58,
          "time": 37.50000000000004,
          "velocity": 0.7086614173228346,
          "duration": 0.6000000000000014
        },
        {
          "name": "G#2",
          "midi": 44,
          "time": 37.50000000000004,
          "velocity": 0.7086614173228346,
          "duration": 0.29999999999999716
        },
        {
          "name": "G#3",
          "midi": 56,
          "time": 37.87500000000004,
          "velocity": 0.7086614173228346,
          "duration": 0.14999999999999858
        },
        {
          "name": "G#2",
          "midi": 44,
          "time": 38.06250000000004,
          "velocity": 0.7086614173228346,
          "duration": 0.14999999999999858
        },
        {
          "name": "G#2",
          "midi": 44,
          "time": 38.25000000000004,
          "velocity": 0.7086614173228346,
          "duration": 0.29999999999999716
        },
        {
          "name": "A#3",
          "midi": 58,
          "time": 38.43750000000004,
          "velocity": 0.7086614173228346,
          "duration": 0.14999999999999858
        },
        {
          "name": "G#3",
          "midi": 56,
          "time": 38.62500000000004,
          "velocity": 0.7086614173228346,
          "duration": 0.14999999999999858
        },
        {
          "name": "G4",
          "midi": 67,
          "time": 38.62500000000004,
          "velocity": 0.7086614173228346,
          "duration": 0.29999999999999716
        },
        {
          "name": "D#4",
          "midi": 63,
          "time": 38.62500000000004,
          "velocity": 0.7086614173228346,
          "duration": 0.29999999999999716
        },
        {
          "name": "G#2",
          "midi": 44,
          "time": 38.81250000000004,
          "velocity": 0.7086614173228346,
          "duration": 0.14999999999999858
        },
        {
          "name": "C4",
          "midi": 60,
          "time": 39.00000000000004,
          "velocity": 0.7086614173228346,
          "duration": 0.6000000000000014
        },
        {
          "name": "D#4",
          "midi": 63,
          "time": 39.00000000000004,
          "velocity": 0.7086614173228346,
          "duration": 0.6000000000000014
        },
        {
          "name": "G#4",
          "midi": 68,
          "time": 39.00000000000004,
          "velocity": 0.7086614173228346,
          "duration": 0.6000000000000014
        },
        {
          "name": "G#2",
          "midi": 44,
          "time": 39.00000000000004,
          "velocity": 0.7086614173228346,
          "duration": 0.29999999999999716
        },
        {
          "name": "G#3",
          "midi": 56,
          "time": 39.37500000000004,
          "velocity": 0.7086614173228346,
          "duration": 0.14999999999999858
        },
        {
          "name": "G#2",
          "midi": 44,
          "time": 39.56250000000004,
          "velocity": 0.7086614173228346,
          "duration": 0.14999999999999858
        },
        {
          "name": "G#2",
          "midi": 44,
          "time": 39.75000000000004,
          "velocity": 0.7086614173228346,
          "duration": 0.29999999999999716
        },
        {
          "name": "C4",
          "midi": 60,
          "time": 39.93750000000004,
          "velocity": 0.7086614173228346,
          "duration": 0.14999999999999858
        },
        {
          "name": "G#3",
          "midi": 56,
          "time": 40.12500000000004,
          "velocity": 0.7086614173228346,
          "duration": 0.14999999999999858
        },
        {
          "name": "D#4",
          "midi": 63,
          "time": 40.12500000000004,
          "velocity": 0.7086614173228346,
          "duration": 0.14999999999999858
        },
        {
          "name": "G#2",
          "midi": 44,
          "time": 40.31250000000004,
          "velocity": 0.7086614173228346,
          "duration": 0.14999999999999858
        },
        {
          "name": "G#4",
          "midi": 68,
          "time": 40.31250000000004,
          "velocity": 0.7086614173228346,
          "duration": 0.14999999999999858
        },
        {
          "name": "G#2",
          "midi": 44,
          "time": 40.50000000000004,
          "velocity": 0.7086614173228346,
          "duration": 0.29999999999999716
        },
        {
          "name": "C#4",
          "midi": 61,
          "time": 40.50000000000004,
          "velocity": 0.7086614173228346,
          "duration": 0.8999999999999986
        },
        {
          "name": "F4",
          "midi": 65,
          "time": 40.50000000000004,
          "velocity": 0.7086614173228346,
          "duration": 0.8999999999999986
        },
        {
          "name": "G#3",
          "midi": 56,
          "time": 40.87500000000004,
          "velocity": 0.7086614173228346,
          "duration": 0.14999999999999858
        },
        {
          "name": "G#2",
          "midi": 44,
          "time": 41.06250000000004,
          "velocity": 0.7086614173228346,
          "duration": 0.14999999999999858
        },
        {
          "name": "G#2",
          "midi": 44,
          "time": 41.25000000000004,
          "velocity": 0.7086614173228346,
          "duration": 0.14999999999999858
        },
        {
          "name": "D#3",
          "midi": 51,
          "time": 41.43750000000004,
          "velocity": 0.7086614173228346,
          "duration": 0.29999999999999716
        },
        {
          "name": "G4",
          "midi": 67,
          "time": 41.43750000000004,
          "velocity": 0.7086614173228346,
          "duration": 0.45000000000000284
        },
        {
          "name": "D#4",
          "midi": 63,
          "time": 41.43750000000004,
          "velocity": 0.7086614173228346,
          "duration": 0.45000000000000284
        },
        {
          "name": "A#3",
          "midi": 58,
          "time": 41.43750000000004,
          "velocity": 0.7086614173228346,
          "duration": 0.45000000000000284
        },
        {
          "name": "G#2",
          "midi": 44,
          "time": 41.81250000000004,
          "velocity": 0.7086614173228346,
          "duration": 0.15000000000000568
        },
        {
          "name": "G#4",
          "midi": 68,
          "time": 42.00000000000005,
          "velocity": 0.7086614173228346,
          "duration": 0.8999999999999986
        },
        {
          "name": "D#4",
          "midi": 63,
          "time": 42.00000000000005,
          "velocity": 0.7086614173228346,
          "duration": 0.8999999999999986
        },
        {
          "name": "C4",
          "midi": 60,
          "time": 42.00000000000005,
          "velocity": 0.7086614173228346,
          "duration": 0.8999999999999986
        },
        {
          "name": "G#2",
          "midi": 44,
          "time": 42.00000000000005,
          "velocity": 0.7086614173228346,
          "duration": 0.29999999999999716
        },
        {
          "name": "G#3",
          "midi": 56,
          "time": 42.37500000000005,
          "velocity": 0.7086614173228346,
          "duration": 0.14999999999999858
        },
        {
          "name": "G#2",
          "midi": 44,
          "time": 42.56250000000005,
          "velocity": 0.7086614173228346,
          "duration": 0.14999999999999858
        },
        {
          "name": "G#2",
          "midi": 44,
          "time": 42.75000000000005,
          "velocity": 0.7086614173228346,
          "duration": 0.29999999999999716
        },
        {
          "name": "G#3",
          "midi": 56,
          "time": 43.12500000000005,
          "velocity": 0.7086614173228346,
          "duration": 0.14999999999999858
        },
        {
          "name": "C4",
          "midi": 60,
          "time": 43.12500000000005,
          "velocity": 0.7086614173228346,
          "duration": 0.29999999999999716
        },
        {
          "name": "G#4",
          "midi": 68,
          "time": 43.12500000000005,
          "velocity": 0.7086614173228346,
          "duration": 0.29999999999999716
        },
        {
          "name": "D#4",
          "midi": 63,
          "time": 43.12500000000005,
          "velocity": 0.7086614173228346,
          "duration": 0.29999999999999716
        },
        {
          "name": "G#2",
          "midi": 44,
          "time": 43.31250000000005,
          "velocity": 0.7086614173228346,
          "duration": 0.14999999999999858
        },
        {
          "name": "G4",
          "midi": 67,
          "time": 43.50000000000005,
          "velocity": 0.7086614173228346,
          "duration": 0.6000000000000014
        },
        {
          "name": "A#3",
          "midi": 58,
          "time": 43.50000000000005,
          "velocity": 0.7086614173228346,
          "duration": 0.6000000000000014
        },
        {
          "name": "D#4",
          "midi": 63,
          "time": 43.50000000000005,
          "velocity": 0.7086614173228346,
          "duration": 0.6000000000000014
        },
        {
          "name": "G#2",
          "midi": 44,
          "time": 43.50000000000005,
          "velocity": 0.7086614173228346,
          "duration": 0.29999999999999716
        },
        {
          "name": "G#3",
          "midi": 56,
          "time": 43.87500000000005,
          "velocity": 0.7086614173228346,
          "duration": 0.14999999999999858
        },
        {
          "name": "G#2",
          "midi": 44,
          "time": 44.06250000000005,
          "velocity": 0.7086614173228346,
          "duration": 0.14999999999999858
        },
        {
          "name": "G#2",
          "midi": 44,
          "time": 44.25000000000005,
          "velocity": 0.7086614173228346,
          "duration": 0.29999999999999716
        },
        {
          "name": "A#3",
          "midi": 58,
          "time": 44.43750000000005,
          "velocity": 0.7086614173228346,
          "duration": 0.14999999999999858
        },
        {
          "name": "G#3",
          "midi": 56,
          "time": 44.62500000000005,
          "velocity": 0.7086614173228346,
          "duration": 0.14999999999999858
        },
        {
          "name": "D#4",
          "midi": 63,
          "time": 44.62500000000005,
          "velocity": 0.7086614173228346,
          "duration": 0.29999999999999716
        },
        {
          "name": "G4",
          "midi": 67,
          "time": 44.62500000000005,
          "velocity": 0.7086614173228346,
          "duration": 0.29999999999999716
        },
        {
          "name": "G#2",
          "midi": 44,
          "time": 44.81250000000005,
          "velocity": 0.7086614173228346,
          "duration": 0.14999999999999858
        },
        {
          "name": "G#4",
          "midi": 68,
          "time": 45.00000000000005,
          "velocity": 0.7086614173228346,
          "duration": 0.6000000000000014
        },
        {
          "name": "C4",
          "midi": 60,
          "time": 45.00000000000005,
          "velocity": 0.7086614173228346,
          "duration": 0.6000000000000014
        },
        {
          "name": "D#4",
          "midi": 63,
          "time": 45.00000000000005,
          "velocity": 0.7086614173228346,
          "duration": 0.6000000000000014
        },
        {
          "name": "G#2",
          "midi": 44,
          "time": 45.00000000000005,
          "velocity": 0.7086614173228346,
          "duration": 0.29999999999999716
        },
        {
          "name": "G#3",
          "midi": 56,
          "time": 45.37500000000005,
          "velocity": 0.7086614173228346,
          "duration": 0.14999999999999858
        },
        {
          "name": "G#2",
          "midi": 44,
          "time": 45.56250000000005,
          "velocity": 0.7086614173228346,
          "duration": 0.14999999999999858
        },
        {
          "name": "G#2",
          "midi": 44,
          "time": 45.75000000000005,
          "velocity": 0.7086614173228346,
          "duration": 0.29999999999999716
        },
        {
          "name": "C4",
          "midi": 60,
          "time": 45.93750000000005,
          "velocity": 0.7086614173228346,
          "duration": 0.14999999999999858
        },
        {
          "name": "G#3",
          "midi": 56,
          "time": 46.12500000000005,
          "velocity": 0.7086614173228346,
          "duration": 0.14999999999999858
        },
        {
          "name": "D#4",
          "midi": 63,
          "time": 46.12500000000005,
          "velocity": 0.7086614173228346,
          "duration": 0.14999999999999858
        },
        {
          "name": "G#2",
          "midi": 44,
          "time": 46.31250000000005,
          "velocity": 0.7086614173228346,
          "duration": 0.14999999999999858
        },
        {
          "name": "G#4",
          "midi": 68,
          "time": 46.31250000000005,
          "velocity": 0.7086614173228346,
          "duration": 0.14999999999999858
        },
        {
          "name": "C#4",
          "midi": 61,
          "time": 46.50000000000005,
          "velocity": 0.7086614173228346,
          "duration": 0.8999999999999986
        },
        {
          "name": "F4",
          "midi": 65,
          "time": 46.50000000000005,
          "velocity": 0.7086614173228346,
          "duration": 0.8999999999999986
        },
        {
          "name": "G#2",
          "midi": 44,
          "time": 46.50000000000005,
          "velocity": 0.7086614173228346,
          "duration": 0.29999999999999716
        },
        {
          "name": "G#3",
          "midi": 56,
          "time": 46.87500000000005,
          "velocity": 0.7086614173228346,
          "duration": 0.14999999999999858
        },
        {
          "name": "G#2",
          "midi": 44,
          "time": 47.06250000000005,
          "velocity": 0.7086614173228346,
          "duration": 0.14999999999999858
        },
        {
          "name": "G#2",
          "midi": 44,
          "time": 47.25000000000005,
          "velocity": 0.7086614173228346,
          "duration": 0.14999999999999858
        },
        {
          "name": "G4",
          "midi": 67,
          "time": 47.43750000000005,
          "velocity": 0.7086614173228346,
          "duration": 0.45000000000000284
        },
        {
          "name": "D#4",
          "midi": 63,
          "time": 47.43750000000005,
          "velocity": 0.7086614173228346,
          "duration": 0.45000000000000284
        },
        {
          "name": "D#3",
          "midi": 51,
          "time": 47.43750000000005,
          "velocity": 0.7086614173228346,
          "duration": 0.29999999999999716
        },
        {
          "name": "A#3",
          "midi": 58,
          "time": 47.43750000000005,
          "velocity": 0.7086614173228346,
          "duration": 0.45000000000000284
        },
        {
          "name": "G#2",
          "midi": 44,
          "time": 47.81250000000005,
          "velocity": 0.7086614173228346,
          "duration": 0.15000000000000568
        },
        {
          "name": "C4",
          "midi": 60,
          "time": 48.00000000000006,
          "velocity": 0.7086614173228346,
          "duration": 0.8999999999999986
        },
        {
          "name": "G#4",
          "midi": 68,
          "time": 48.00000000000006,
          "velocity": 0.7086614173228346,
          "duration": 0.8999999999999986
        },
        {
          "name": "D#4",
          "midi": 63,
          "time": 48.00000000000006,
          "velocity": 0.7086614173228346,
          "duration": 0.8999999999999986
        },
        {
          "name": "G#2",
          "midi": 44,
          "time": 48.00000000000006,
          "velocity": 0.7086614173228346,
          "duration": 0.29999999999999716
        },
        {
          "name": "G#3",
          "midi": 56,
          "time": 48.37500000000006,
          "velocity": 0.7086614173228346,
          "duration": 0.14999999999999858
        },
        {
          "name": "G#2",
          "midi": 44,
          "time": 48.56250000000006,
          "velocity": 0.7086614173228346,
          "duration": 0.14999999999999858
        },
        {
          "name": "G#2",
          "midi": 44,
          "time": 48.75000000000006,
          "velocity": 0.7086614173228346,
          "duration": 0.29999999999999716
        },
        {
          "name": "G#3",
          "midi": 56,
          "time": 49.12500000000006,
          "velocity": 0.7086614173228346,
          "duration": 0.14999999999999858
        },
        {
          "name": "C4",
          "midi": 60,
          "time": 49.12500000000006,
          "velocity": 0.7086614173228346,
          "duration": 0.29999999999999716
        },
        {
          "name": "D#4",
          "midi": 63,
          "time": 49.12500000000006,
          "velocity": 0.7086614173228346,
          "duration": 0.29999999999999716
        },
        {
          "name": "G#4",
          "midi": 68,
          "time": 49.12500000000006,
          "velocity": 0.7086614173228346,
          "duration": 0.29999999999999716
        },
        {
          "name": "G#2",
          "midi": 44,
          "time": 49.31250000000006,
          "velocity": 0.7086614173228346,
          "duration": 0.14999999999999858
        },
        {
          "name": "A#3",
          "midi": 58,
          "time": 49.50000000000006,
          "velocity": 0.7086614173228346,
          "duration": 0.6000000000000014
        },
        {
          "name": "G4",
          "midi": 67,
          "time": 49.50000000000006,
          "velocity": 0.7086614173228346,
          "duration": 0.6000000000000014
        },
        {
          "name": "D#4",
          "midi": 63,
          "time": 49.50000000000006,
          "velocity": 0.7086614173228346,
          "duration": 0.6000000000000014
        },
        {
          "name": "G#2",
          "midi": 44,
          "time": 49.50000000000006,
          "velocity": 0.7086614173228346,
          "duration": 0.29999999999999716
        },
        {
          "name": "G#3",
          "midi": 56,
          "time": 49.87500000000006,
          "velocity": 0.7086614173228346,
          "duration": 0.14999999999999858
        },
        {
          "name": "G#2",
          "midi": 44,
          "time": 50.06250000000006,
          "velocity": 0.7086614173228346,
          "duration": 0.14999999999999858
        },
        {
          "name": "G#2",
          "midi": 44,
          "time": 50.25000000000006,
          "velocity": 0.7086614173228346,
          "duration": 0.29999999999999716
        },
        {
          "name": "A#3",
          "midi": 58,
          "time": 50.43750000000006,
          "velocity": 0.7086614173228346,
          "duration": 0.14999999999999858
        },
        {
          "name": "G#3",
          "midi": 56,
          "time": 50.62500000000006,
          "velocity": 0.7086614173228346,
          "duration": 0.14999999999999858
        },
        {
          "name": "G4",
          "midi": 67,
          "time": 50.62500000000006,
          "velocity": 0.7086614173228346,
          "duration": 0.29999999999999716
        },
        {
          "name": "D#4",
          "midi": 63,
          "time": 50.62500000000006,
          "velocity": 0.7086614173228346,
          "duration": 0.29999999999999716
        },
        {
          "name": "G#2",
          "midi": 44,
          "time": 50.81250000000006,
          "velocity": 0.7086614173228346,
          "duration": 0.14999999999999858
        },
        {
          "name": "D#4",
          "midi": 63,
          "time": 51.00000000000006,
          "velocity": 0.7086614173228346,
          "duration": 0.6000000000000014
        },
        {
          "name": "C4",
          "midi": 60,
          "time": 51.00000000000006,
          "velocity": 0.7086614173228346,
          "duration": 0.6000000000000014
        },
        {
          "name": "G#4",
          "midi": 68,
          "time": 51.00000000000006,
          "velocity": 0.7086614173228346,
          "duration": 0.6000000000000014
        },
        {
          "name": "G#2",
          "midi": 44,
          "time": 51.00000000000006,
          "velocity": 0.7086614173228346,
          "duration": 0.29999999999999716
        },
        {
          "name": "G#3",
          "midi": 56,
          "time": 51.37500000000006,
          "velocity": 0.7086614173228346,
          "duration": 0.14999999999999858
        },
        {
          "name": "G#2",
          "midi": 44,
          "time": 51.56250000000006,
          "velocity": 0.7086614173228346,
          "duration": 0.14999999999999858
        },
        {
          "name": "G#2",
          "midi": 44,
          "time": 51.75000000000006,
          "velocity": 0.7086614173228346,
          "duration": 0.29999999999999716
        },
        {
          "name": "C4",
          "midi": 60,
          "time": 51.93750000000006,
          "velocity": 0.7086614173228346,
          "duration": 0.14999999999999858
        },
        {
          "name": "G#3",
          "midi": 56,
          "time": 52.12500000000006,
          "velocity": 0.7086614173228346,
          "duration": 0.14999999999999858
        },
        {
          "name": "D#4",
          "midi": 63,
          "time": 52.12500000000006,
          "velocity": 0.7086614173228346,
          "duration": 0.14999999999999858
        },
        {
          "name": "G#4",
          "midi": 68,
          "time": 52.31250000000006,
          "velocity": 0.7086614173228346,
          "duration": 0.14999999999999858
        },
        {
          "name": "G#2",
          "midi": 44,
          "time": 52.31250000000006,
          "velocity": 0.7086614173228346,
          "duration": 0.14999999999999858
        },
        {
          "name": "F4",
          "midi": 65,
          "time": 52.50000000000006,
          "velocity": 0.7086614173228346,
          "duration": 0.8999999999999986
        },
        {
          "name": "C#4",
          "midi": 61,
          "time": 52.50000000000006,
          "velocity": 0.7086614173228346,
          "duration": 0.8999999999999986
        },
        {
          "name": "G#2",
          "midi": 44,
          "time": 52.50000000000006,
          "velocity": 0.7086614173228346,
          "duration": 0.29999999999999716
        },
        {
          "name": "G#3",
          "midi": 56,
          "time": 52.87500000000006,
          "velocity": 0.7086614173228346,
          "duration": 0.14999999999999858
        },
        {
          "name": "G#2",
          "midi": 44,
          "time": 53.06250000000006,
          "velocity": 0.7086614173228346,
          "duration": 0.14999999999999858
        },
        {
          "name": "G#2",
          "midi": 44,
          "time": 53.25000000000006,
          "velocity": 0.7086614173228346,
          "duration": 0.14999999999999858
        },
        {
          "name": "D#3",
          "midi": 51,
          "time": 53.43750000000006,
          "velocity": 0.7086614173228346,
          "duration": 0.29999999999999716
        },
        {
          "name": "A#3",
          "midi": 58,
          "time": 53.43750000000006,
          "velocity": 0.7086614173228346,
          "duration": 0.45000000000000284
        },
        {
          "name": "G4",
          "midi": 67,
          "time": 53.43750000000006,
          "velocity": 0.7086614173228346,
          "duration": 0.45000000000000284
        },
        {
          "name": "D#4",
          "midi": 63,
          "time": 53.43750000000006,
          "velocity": 0.7086614173228346,
          "duration": 0.45000000000000284
        },
        {
          "name": "G#2",
          "midi": 44,
          "time": 53.81250000000006,
          "velocity": 0.7086614173228346,
          "duration": 0.15000000000000568
        },
        {
          "name": "F4",
          "midi": 65,
          "time": 54.000000000000064,
          "velocity": 0.7086614173228346,
          "duration": 0.8999999999999986
        },
        {
          "name": "G#4",
          "midi": 68,
          "time": 54.000000000000064,
          "velocity": 0.7086614173228346,
          "duration": 0.8999999999999986
        },
        {
          "name": "C#4",
          "midi": 61,
          "time": 54.000000000000064,
          "velocity": 0.7086614173228346,
          "duration": 0.8999999999999986
        },
        {
          "name": "G#2",
          "midi": 44,
          "time": 54.000000000000064,
          "velocity": 0.7086614173228346,
          "duration": 0.29999999999999716
        },
        {
          "name": "G#3",
          "midi": 56,
          "time": 54.375000000000064,
          "velocity": 0.7086614173228346,
          "duration": 0.14999999999999858
        },
        {
          "name": "G#2",
          "midi": 44,
          "time": 54.562500000000064,
          "velocity": 0.7086614173228346,
          "duration": 0.14999999999999858
        },
        {
          "name": "G#2",
          "midi": 44,
          "time": 54.750000000000064,
          "velocity": 0.7086614173228346,
          "duration": 0.29999999999999716
        },
        {
          "name": "G#3",
          "midi": 56,
          "time": 55.125000000000064,
          "velocity": 0.7086614173228346,
          "duration": 0.14999999999999858
        },
        {
          "name": "F4",
          "midi": 65,
          "time": 55.125000000000064,
          "velocity": 0.7086614173228346,
          "duration": 0.29999999999999716
        },
        {
          "name": "G#4",
          "midi": 68,
          "time": 55.125000000000064,
          "velocity": 0.7086614173228346,
          "duration": 0.29999999999999716
        },
        {
          "name": "C#4",
          "midi": 61,
          "time": 55.125000000000064,
          "velocity": 0.7086614173228346,
          "duration": 0.29999999999999716
        },
        {
          "name": "G#2",
          "midi": 44,
          "time": 55.312500000000064,
          "velocity": 0.7086614173228346,
          "duration": 0.14999999999999858
        },
        {
          "name": "D#4",
          "midi": 63,
          "time": 55.500000000000064,
          "velocity": 0.7086614173228346,
          "duration": 0.8999999999999986
        },
        {
          "name": "G4",
          "midi": 67,
          "time": 55.500000000000064,
          "velocity": 0.7086614173228346,
          "duration": 0.8999999999999986
        },
        {
          "name": "A#3",
          "midi": 58,
          "time": 55.500000000000064,
          "velocity": 0.7086614173228346,
          "duration": 0.8999999999999986
        },
        {
          "name": "G#2",
          "midi": 44,
          "time": 55.500000000000064,
          "velocity": 0.7086614173228346,
          "duration": 0.29999999999999716
        },
        {
          "name": "G#3",
          "midi": 56,
          "time": 55.875000000000064,
          "velocity": 0.7086614173228346,
          "duration": 0.14999999999999858
        },
        {
          "name": "G#2",
          "midi": 44,
          "time": 56.062500000000064,
          "velocity": 0.7086614173228346,
          "duration": 0.14999999999999858
        },
        {
          "name": "G#2",
          "midi": 44,
          "time": 56.250000000000064,
          "velocity": 0.7086614173228346,
          "duration": 0.29999999999999716
        },
        {
          "name": "A#3",
          "midi": 58,
          "time": 56.437500000000064,
          "velocity": 0.7086614173228346,
          "duration": 0.14999999999999858
        },
        {
          "name": "G#3",
          "midi": 56,
          "time": 56.625000000000064,
          "velocity": 0.7086614173228346,
          "duration": 0.14999999999999858
        },
        {
          "name": "D#4",
          "midi": 63,
          "time": 56.625000000000064,
          "velocity": 0.7086614173228346,
          "duration": 0.29999999999999716
        },
        {
          "name": "G4",
          "midi": 67,
          "time": 56.625000000000064,
          "velocity": 0.7086614173228346,
          "duration": 0.29999999999999716
        },
        {
          "name": "G#2",
          "midi": 44,
          "time": 56.812500000000064,
          "velocity": 0.7086614173228346,
          "duration": 0.14999999999999858
        },
        {
          "name": "D#4",
          "midi": 63,
          "time": 57.000000000000064,
          "velocity": 0.7086614173228346,
          "duration": 0.6000000000000014
        },
        {
          "name": "C4",
          "midi": 60,
          "time": 57.000000000000064,
          "velocity": 0.7086614173228346,
          "duration": 0.6000000000000014
        },
        {
          "name": "G#4",
          "midi": 68,
          "time": 57.000000000000064,
          "velocity": 0.7086614173228346,
          "duration": 0.6000000000000014
        },
        {
          "name": "G#2",
          "midi": 44,
          "time": 57.000000000000064,
          "velocity": 0.7086614173228346,
          "duration": 0.29999999999999716
        },
        {
          "name": "G#3",
          "midi": 56,
          "time": 57.375000000000064,
          "velocity": 0.7086614173228346,
          "duration": 0.14999999999999858
        },
        {
          "name": "G#2",
          "midi": 44,
          "time": 57.562500000000064,
          "velocity": 0.7086614173228346,
          "duration": 0.14999999999999858
        },
        {
          "name": "G#2",
          "midi": 44,
          "time": 57.750000000000064,
          "velocity": 0.7086614173228346,
          "duration": 0.29999999999999716
        },
        {
          "name": "C4",
          "midi": 60,
          "time": 57.937500000000064,
          "velocity": 0.7086614173228346,
          "duration": 0.14999999999999858
        },
        {
          "name": "G#3",
          "midi": 56,
          "time": 58.125000000000064,
          "velocity": 0.7086614173228346,
          "duration": 0.14999999999999858
        },
        {
          "name": "D#4",
          "midi": 63,
          "time": 58.125000000000064,
          "velocity": 0.7086614173228346,
          "duration": 0.14999999999999858
        },
        {
          "name": "G#4",
          "midi": 68,
          "time": 58.312500000000064,
          "velocity": 0.7086614173228346,
          "duration": 0.14999999999999858
        },
        {
          "name": "G#2",
          "midi": 44,
          "time": 58.312500000000064,
          "velocity": 0.7086614173228346,
          "duration": 0.14999999999999858
        },
        {
          "name": "C#4",
          "midi": 61,
          "time": 58.500000000000064,
          "velocity": 0.7086614173228346,
          "duration": 0.8999999999999986
        },
        {
          "name": "F4",
          "midi": 65,
          "time": 58.500000000000064,
          "velocity": 0.7086614173228346,
          "duration": 0.8999999999999986
        },
        {
          "name": "G#2",
          "midi": 44,
          "time": 58.500000000000064,
          "velocity": 0.7086614173228346,
          "duration": 0.29999999999999716
        },
        {
          "name": "G#3",
          "midi": 56,
          "time": 58.875000000000064,
          "velocity": 0.7086614173228346,
          "duration": 0.14999999999999858
        },
        {
          "name": "G#2",
          "midi": 44,
          "time": 59.062500000000064,
          "velocity": 0.7086614173228346,
          "duration": 0.14999999999999858
        },
        {
          "name": "G#2",
          "midi": 44,
          "time": 59.250000000000064,
          "velocity": 0.7086614173228346,
          "duration": 0.14999999999999858
        },
        {
          "name": "D#4",
          "midi": 63,
          "time": 59.437500000000064,
          "velocity": 0.7086614173228346,
          "duration": 0.45000000000000284
        },
        {
          "name": "G4",
          "midi": 67,
          "time": 59.437500000000064,
          "velocity": 0.7086614173228346,
          "duration": 0.45000000000000284
        },
        {
          "name": "D#3",
          "midi": 51,
          "time": 59.437500000000064,
          "velocity": 0.7086614173228346,
          "duration": 0.29999999999999716
        },
        {
          "name": "A#3",
          "midi": 58,
          "time": 59.437500000000064,
          "velocity": 0.7086614173228346,
          "duration": 0.45000000000000284
        },
        {
          "name": "G#2",
          "midi": 44,
          "time": 59.812500000000064,
          "velocity": 0.7086614173228346,
          "duration": 0.15000000000000568
        },
        {
          "name": "A3",
          "midi": 57,
          "time": 60.00000000000007,
          "velocity": 0.7086614173228346,
          "duration": 0.8999999999999986
        },
        {
          "name": "C4",
          "midi": 60,
          "time": 60.00000000000007,
          "velocity": 0.7086614173228346,
          "duration": 0.8999999999999986
        },
        {
          "name": "F4",
          "midi": 65,
          "time": 60.00000000000007,
          "velocity": 0.7086614173228346,
          "duration": 0.8999999999999986
        },
        {
          "name": "F2",
          "midi": 41,
          "time": 60.00000000000007,
          "velocity": 0.7086614173228346,
          "duration": 0.29999999999999716
        },
        {
          "name": "F3",
          "midi": 53,
          "time": 60.37500000000007,
          "velocity": 0.7086614173228346,
          "duration": 0.14999999999999858
        },
        {
          "name": "F2",
          "midi": 41,
          "time": 60.56250000000007,
          "velocity": 0.7086614173228346,
          "duration": 0.14999999999999858
        },
        {
          "name": "F2",
          "midi": 41,
          "time": 60.75000000000007,
          "velocity": 0.7086614173228346,
          "duration": 0.29999999999999716
        },
        {
          "name": "F3",
          "midi": 53,
          "time": 61.12500000000007,
          "velocity": 0.7086614173228346,
          "duration": 0.14999999999999858
        },
        {
          "name": "F4",
          "midi": 65,
          "time": 61.12500000000007,
          "velocity": 0.7086614173228346,
          "duration": 0.29999999999999716
        },
        {
          "name": "C4",
          "midi": 60,
          "time": 61.12500000000007,
          "velocity": 0.7086614173228346,
          "duration": 0.29999999999999716
        },
        {
          "name": "A3",
          "midi": 57,
          "time": 61.12500000000007,
          "velocity": 0.7086614173228346,
          "duration": 0.29999999999999716
        },
        {
          "name": "F2",
          "midi": 41,
          "time": 61.31250000000007,
          "velocity": 0.7086614173228346,
          "duration": 0.14999999999999858
        },
        {
          "name": "C4",
          "midi": 60,
          "time": 61.50000000000007,
          "velocity": 0.7086614173228346,
          "duration": 0.6000000000000014
        },
        {
          "name": "G3",
          "midi": 55,
          "time": 61.50000000000007,
          "velocity": 0.7086614173228346,
          "duration": 0.6000000000000014
        },
        {
          "name": "E4",
          "midi": 64,
          "time": 61.50000000000007,
          "velocity": 0.7086614173228346,
          "duration": 0.6000000000000014
        },
        {
          "name": "F2",
          "midi": 41,
          "time": 61.50000000000007,
          "velocity": 0.7086614173228346,
          "duration": 0.29999999999999716
        },
        {
          "name": "F3",
          "midi": 53,
          "time": 61.87500000000007,
          "velocity": 0.7086614173228346,
          "duration": 0.14999999999999858
        },
        {
          "name": "F2",
          "midi": 41,
          "time": 62.06250000000007,
          "velocity": 0.7086614173228346,
          "duration": 0.14999999999999858
        },
        {
          "name": "F2",
          "midi": 41,
          "time": 62.25000000000007,
          "velocity": 0.7086614173228346,
          "duration": 0.29999999999999716
        },
        {
          "name": "G3",
          "midi": 55,
          "time": 62.43750000000007,
          "velocity": 0.7086614173228346,
          "duration": 0.14999999999999858
        },
        {
          "name": "F3",
          "midi": 53,
          "time": 62.62500000000007,
          "velocity": 0.7086614173228346,
          "duration": 0.14999999999999858
        },
        {
          "name": "E4",
          "midi": 64,
          "time": 62.62500000000007,
          "velocity": 0.7086614173228346,
          "duration": 0.29999999999999716
        },
        {
          "name": "C4",
          "midi": 60,
          "time": 62.62500000000007,
          "velocity": 0.7086614173228346,
          "duration": 0.29999999999999716
        },
        {
          "name": "F2",
          "midi": 41,
          "time": 62.81250000000007,
          "velocity": 0.7086614173228346,
          "duration": 0.14999999999999858
        },
        {
          "name": "A3",
          "midi": 57,
          "time": 63.00000000000007,
          "velocity": 0.7086614173228346,
          "duration": 0.6000000000000014
        },
        {
          "name": "F4",
          "midi": 65,
          "time": 63.00000000000007,
          "velocity": 0.7086614173228346,
          "duration": 0.6000000000000014
        },
        {
          "name": "C4",
          "midi": 60,
          "time": 63.00000000000007,
          "velocity": 0.7086614173228346,
          "duration": 0.6000000000000014
        },
        {
          "name": "F2",
          "midi": 41,
          "time": 63.00000000000007,
          "velocity": 0.7086614173228346,
          "duration": 0.29999999999999716
        },
        {
          "name": "F3",
          "midi": 53,
          "time": 63.37500000000007,
          "velocity": 0.7086614173228346,
          "duration": 0.14999999999999858
        },
        {
          "name": "F2",
          "midi": 41,
          "time": 63.56250000000007,
          "velocity": 0.7086614173228346,
          "duration": 0.14999999999999858
        },
        {
          "name": "F2",
          "midi": 41,
          "time": 63.75000000000007,
          "velocity": 0.7086614173228346,
          "duration": 0.29999999999999716
        },
        {
          "name": "A3",
          "midi": 57,
          "time": 63.93750000000007,
          "velocity": 0.7086614173228346,
          "duration": 0.14999999999999147
        },
        {
          "name": "C4",
          "midi": 60,
          "time": 64.12500000000006,
          "velocity": 0.7086614173228346,
          "duration": 0.15000000000000568
        },
        {
          "name": "F3",
          "midi": 53,
          "time": 64.12500000000006,
          "velocity": 0.7086614173228346,
          "duration": 0.15000000000000568
        },
        {
          "name": "F4",
          "midi": 65,
          "time": 64.31250000000006,
          "velocity": 0.7086614173228346,
          "duration": 0.15000000000000568
        },
        {
          "name": "F2",
          "midi": 41,
          "time": 64.31250000000006,
          "velocity": 0.7086614173228346,
          "duration": 0.15000000000000568
        },
        {
          "name": "A#3",
          "midi": 58,
          "time": 64.50000000000006,
          "velocity": 0.7086614173228346,
          "duration": 0.9000000000000057
        },
        {
          "name": "D4",
          "midi": 62,
          "time": 64.50000000000006,
          "velocity": 0.7086614173228346,
          "duration": 0.9000000000000057
        },
        {
          "name": "F2",
          "midi": 41,
          "time": 64.50000000000006,
          "velocity": 0.7086614173228346,
          "duration": 0.29999999999999716
        },
        {
          "name": "F3",
          "midi": 53,
          "time": 64.87500000000006,
          "velocity": 0.7086614173228346,
          "duration": 0.15000000000000568
        },
        {
          "name": "F2",
          "midi": 41,
          "time": 65.06250000000006,
          "velocity": 0.7086614173228346,
          "duration": 0.15000000000000568
        },
        {
          "name": "F2",
          "midi": 41,
          "time": 65.25000000000006,
          "velocity": 0.7086614173228346,
          "duration": 0.15000000000000568
        },
        {
          "name": "E4",
          "midi": 64,
          "time": 65.43750000000006,
          "velocity": 0.7086614173228346,
          "duration": 0.45000000000000284
        },
        {
          "name": "C3",
          "midi": 48,
          "time": 65.43750000000006,
          "velocity": 0.7086614173228346,
          "duration": 0.29999999999999716
        },
        {
          "name": "C4",
          "midi": 60,
          "time": 65.43750000000006,
          "velocity": 0.7086614173228346,
          "duration": 0.45000000000000284
        },
        {
          "name": "G3",
          "midi": 55,
          "time": 65.43750000000006,
          "velocity": 0.7086614173228346,
          "duration": 0.45000000000000284
        },
        {
          "name": "F2",
          "midi": 41,
          "time": 65.81250000000006,
          "velocity": 0.7086614173228346,
          "duration": 0.15000000000000568
        },
        {
          "name": "F4",
          "midi": 65,
          "time": 66.00000000000006,
          "velocity": 0.7086614173228346,
          "duration": 0.9000000000000057
        },
        {
          "name": "C4",
          "midi": 60,
          "time": 66.00000000000006,
          "velocity": 0.7086614173228346,
          "duration": 0.9000000000000057
        },
        {
          "name": "A3",
          "midi": 57,
          "time": 66.00000000000006,
          "velocity": 0.7086614173228346,
          "duration": 0.9000000000000057
        },
        {
          "name": "F2",
          "midi": 41,
          "time": 66.00000000000006,
          "velocity": 0.7086614173228346,
          "duration": 0.29999999999999716
        },
        {
          "name": "F3",
          "midi": 53,
          "time": 66.37500000000006,
          "velocity": 0.7086614173228346,
          "duration": 0.15000000000000568
        },
        {
          "name": "F2",
          "midi": 41,
          "time": 66.56250000000006,
          "velocity": 0.7086614173228346,
          "duration": 0.15000000000000568
        },
        {
          "name": "F2",
          "midi": 41,
          "time": 66.75000000000006,
          "velocity": 0.7086614173228346,
          "duration": 0.30000000000001137
        },
        {
          "name": "F3",
          "midi": 53,
          "time": 67.12500000000007,
          "velocity": 0.7086614173228346,
          "duration": 0.15000000000000568
        },
        {
          "name": "A3",
          "midi": 57,
          "time": 67.12500000000007,
          "velocity": 0.7086614173228346,
          "duration": 0.29999999999999716
        },
        {
          "name": "F4",
          "midi": 65,
          "time": 67.12500000000007,
          "velocity": 0.7086614173228346,
          "duration": 0.29999999999999716
        },
        {
          "name": "C4",
          "midi": 60,
          "time": 67.12500000000007,
          "velocity": 0.7086614173228346,
          "duration": 0.29999999999999716
        },
        {
          "name": "F2",
          "midi": 41,
          "time": 67.31250000000007,
          "velocity": 0.7086614173228346,
          "duration": 0.14999999999999147
        },
        {
          "name": "E4",
          "midi": 64,
          "time": 67.50000000000006,
          "velocity": 0.7086614173228346,
          "duration": 0.5999999999999943
        },
        {
          "name": "G3",
          "midi": 55,
          "time": 67.50000000000006,
          "velocity": 0.7086614173228346,
          "duration": 0.5999999999999943
        },
        {
          "name": "C4",
          "midi": 60,
          "time": 67.50000000000006,
          "velocity": 0.7086614173228346,
          "duration": 0.5999999999999943
        },
        {
          "name": "F2",
          "midi": 41,
          "time": 67.50000000000006,
          "velocity": 0.7086614173228346,
          "duration": 0.29999999999999716
        },
        {
          "name": "F3",
          "midi": 53,
          "time": 67.87500000000006,
          "velocity": 0.7086614173228346,
          "duration": 0.15000000000000568
        },
        {
          "name": "F2",
          "midi": 41,
          "time": 68.06250000000006,
          "velocity": 0.7086614173228346,
          "duration": 0.14999999999999147
        },
        {
          "name": "F2",
          "midi": 41,
          "time": 68.25000000000004,
          "velocity": 0.7086614173228346,
          "duration": 0.29999999999999716
        },
        {
          "name": "G3",
          "midi": 55,
          "time": 68.43750000000004,
          "velocity": 0.7086614173228346,
          "duration": 0.14999999999999147
        },
        {
          "name": "F3",
          "midi": 53,
          "time": 68.62500000000003,
          "velocity": 0.7086614173228346,
          "duration": 0.15000000000000568
        },
        {
          "name": "C4",
          "midi": 60,
          "time": 68.62500000000003,
          "velocity": 0.7086614173228346,
          "duration": 0.29999999999999716
        },
        {
          "name": "E4",
          "midi": 64,
          "time": 68.62500000000003,
          "velocity": 0.7086614173228346,
          "duration": 0.29999999999999716
        },
        {
          "name": "F2",
          "midi": 41,
          "time": 68.81250000000003,
          "velocity": 0.7086614173228346,
          "duration": 0.14999999999999147
        },
        {
          "name": "C4",
          "midi": 60,
          "time": 69.00000000000001,
          "velocity": 0.7086614173228346,
          "duration": 0.5999999999999943
        },
        {
          "name": "F4",
          "midi": 65,
          "time": 69.00000000000001,
          "velocity": 0.7086614173228346,
          "duration": 0.5999999999999943
        },
        {
          "name": "A3",
          "midi": 57,
          "time": 69.00000000000001,
          "velocity": 0.7086614173228346,
          "duration": 0.5999999999999943
        },
        {
          "name": "F2",
          "midi": 41,
          "time": 69.00000000000001,
          "velocity": 0.7086614173228346,
          "duration": 0.29999999999999716
        },
        {
          "name": "F3",
          "midi": 53,
          "time": 69.37500000000001,
          "velocity": 0.7086614173228346,
          "duration": 0.15000000000000568
        },
        {
          "name": "F2",
          "midi": 41,
          "time": 69.56250000000001,
          "velocity": 0.7086614173228346,
          "duration": 0.14999999999999147
        },
        {
          "name": "F2",
          "midi": 41,
          "time": 69.75,
          "velocity": 0.7086614173228346,
          "duration": 0.29999999999999716
        },
        {
          "name": "A3",
          "midi": 57,
          "time": 69.9375,
          "velocity": 0.7086614173228346,
          "duration": 0.14999999999999147
        },
        {
          "name": "F3",
          "midi": 53,
          "time": 70.12499999999999,
          "velocity": 0.7086614173228346,
          "duration": 0.15000000000000568
        },
        {
          "name": "C4",
          "midi": 60,
          "time": 70.12499999999999,
          "velocity": 0.7086614173228346,
          "duration": 0.15000000000000568
        },
        {
          "name": "F4",
          "midi": 65,
          "time": 70.31249999999999,
          "velocity": 0.7086614173228346,
          "duration": 0.15000000000000568
        },
        {
          "name": "F2",
          "midi": 41,
          "time": 70.31249999999999,
          "velocity": 0.7086614173228346,
          "duration": 0.15000000000000568
        },
        {
          "name": "F2",
          "midi": 41,
          "time": 70.49999999999999,
          "velocity": 0.7086614173228346,
          "duration": 0.29999999999999716
        },
        {
          "name": "A#3",
          "midi": 58,
          "time": 70.49999999999999,
          "velocity": 0.7086614173228346,
          "duration": 0.9000000000000057
        },
        {
          "name": "D4",
          "midi": 62,
          "time": 70.49999999999999,
          "velocity": 0.7086614173228346,
          "duration": 0.9000000000000057
        },
        {
          "name": "F3",
          "midi": 53,
          "time": 70.87499999999999,
          "velocity": 0.7086614173228346,
          "duration": 0.15000000000000568
        },
        {
          "name": "F2",
          "midi": 41,
          "time": 71.06249999999999,
          "velocity": 0.7086614173228346,
          "duration": 0.15000000000000568
        },
        {
          "name": "F2",
          "midi": 41,
          "time": 71.24999999999999,
          "velocity": 0.7086614173228346,
          "duration": 0.15000000000000568
        },
        {
          "name": "C3",
          "midi": 48,
          "time": 71.43749999999999,
          "velocity": 0.7086614173228346,
          "duration": 0.29999999999999716
        },
        {
          "name": "E4",
          "midi": 64,
          "time": 71.43749999999999,
          "velocity": 0.7086614173228346,
          "duration": 0.45000000000000284
        },
        {
          "name": "G3",
          "midi": 55,
          "time": 71.43749999999999,
          "velocity": 0.7086614173228346,
          "duration": 0.45000000000000284
        },
        {
          "name": "C4",
          "midi": 60,
          "time": 71.43749999999999,
          "velocity": 0.7086614173228346,
          "duration": 0.45000000000000284
        },
        {
          "name": "F2",
          "midi": 41,
          "time": 71.81249999999999,
          "velocity": 0.7086614173228346,
          "duration": 0.15000000000000568
        },
        {
          "name": "F4",
          "midi": 65,
          "time": 71.99999999999999,
          "velocity": 0.7086614173228346,
          "duration": 0.9000000000000057
        },
        {
          "name": "A3",
          "midi": 57,
          "time": 71.99999999999999,
          "velocity": 0.7086614173228346,
          "duration": 0.9000000000000057
        },
        {
          "name": "C4",
          "midi": 60,
          "time": 71.99999999999999,
          "velocity": 0.7086614173228346,
          "duration": 0.9000000000000057
        },
        {
          "name": "F2",
          "midi": 41,
          "time": 71.99999999999999,
          "velocity": 0.7086614173228346,
          "duration": 0.29999999999999716
        },
        {
          "name": "F3",
          "midi": 53,
          "time": 72.37499999999999,
          "velocity": 0.7086614173228346,
          "duration": 0.15000000000000568
        },
        {
          "name": "F2",
          "midi": 41,
          "time": 72.56249999999999,
          "velocity": 0.7086614173228346,
          "duration": 0.15000000000000568
        },
        {
          "name": "F2",
          "midi": 41,
          "time": 72.74999999999999,
          "velocity": 0.7086614173228346,
          "duration": 0.30000000000001137
        },
        {
          "name": "F3",
          "midi": 53,
          "time": 73.125,
          "velocity": 0.7086614173228346,
          "duration": 0.15000000000000568
        },
        {
          "name": "A3",
          "midi": 57,
          "time": 73.125,
          "velocity": 0.7086614173228346,
          "duration": 0.29999999999999716
        },
        {
          "name": "F4",
          "midi": 65,
          "time": 73.125,
          "velocity": 0.7086614173228346,
          "duration": 0.29999999999999716
        },
        {
          "name": "C4",
          "midi": 60,
          "time": 73.125,
          "velocity": 0.7086614173228346,
          "duration": 0.29999999999999716
        },
        {
          "name": "F2",
          "midi": 41,
          "time": 73.3125,
          "velocity": 0.7086614173228346,
          "duration": 0.14999999999999147
        },
        {
          "name": "E4",
          "midi": 64,
          "time": 73.49999999999999,
          "velocity": 0.7086614173228346,
          "duration": 0.5999999999999943
        },
        {
          "name": "C4",
          "midi": 60,
          "time": 73.49999999999999,
          "velocity": 0.7086614173228346,
          "duration": 0.5999999999999943
        },
        {
          "name": "G3",
          "midi": 55,
          "time": 73.49999999999999,
          "velocity": 0.7086614173228346,
          "duration": 0.5999999999999943
        },
        {
          "name": "F2",
          "midi": 41,
          "time": 73.49999999999999,
          "velocity": 0.7086614173228346,
          "duration": 0.29999999999999716
        },
        {
          "name": "F3",
          "midi": 53,
          "time": 73.87499999999999,
          "velocity": 0.7086614173228346,
          "duration": 0.15000000000000568
        },
        {
          "name": "F2",
          "midi": 41,
          "time": 74.06249999999999,
          "velocity": 0.7086614173228346,
          "duration": 0.14999999999999147
        },
        {
          "name": "F2",
          "midi": 41,
          "time": 74.24999999999997,
          "velocity": 0.7086614173228346,
          "duration": 0.29999999999999716
        },
        {
          "name": "G3",
          "midi": 55,
          "time": 74.43749999999997,
          "velocity": 0.7086614173228346,
          "duration": 0.14999999999999147
        },
        {
          "name": "F3",
          "midi": 53,
          "time": 74.62499999999996,
          "velocity": 0.7086614173228346,
          "duration": 0.15000000000000568
        },
        {
          "name": "E4",
          "midi": 64,
          "time": 74.62499999999996,
          "velocity": 0.7086614173228346,
          "duration": 0.29999999999999716
        },
        {
          "name": "C4",
          "midi": 60,
          "time": 74.62499999999996,
          "velocity": 0.7086614173228346,
          "duration": 0.29999999999999716
        },
        {
          "name": "F2",
          "midi": 41,
          "time": 74.81249999999996,
          "velocity": 0.7086614173228346,
          "duration": 0.14999999999999147
        },
        {
          "name": "A3",
          "midi": 57,
          "time": 74.99999999999994,
          "velocity": 0.7086614173228346,
          "duration": 0.5999999999999943
        },
        {
          "name": "C4",
          "midi": 60,
          "time": 74.99999999999994,
          "velocity": 0.7086614173228346,
          "duration": 0.5999999999999943
        },
        {
          "name": "F4",
          "midi": 65,
          "time": 74.99999999999994,
          "velocity": 0.7086614173228346,
          "duration": 0.5999999999999943
        },
        {
          "name": "F2",
          "midi": 41,
          "time": 74.99999999999994,
          "velocity": 0.7086614173228346,
          "duration": 0.29999999999999716
        },
        {
          "name": "F3",
          "midi": 53,
          "time": 75.37499999999994,
          "velocity": 0.7086614173228346,
          "duration": 0.15000000000000568
        },
        {
          "name": "F2",
          "midi": 41,
          "time": 75.56249999999994,
          "velocity": 0.7086614173228346,
          "duration": 0.14999999999999147
        },
        {
          "name": "F2",
          "midi": 41,
          "time": 75.74999999999993,
          "velocity": 0.7086614173228346,
          "duration": 0.29999999999999716
        },
        {
          "name": "A3",
          "midi": 57,
          "time": 75.93749999999993,
          "velocity": 0.7086614173228346,
          "duration": 0.14999999999999147
        },
        {
          "name": "C4",
          "midi": 60,
          "time": 76.12499999999991,
          "velocity": 0.7086614173228346,
          "duration": 0.15000000000000568
        },
        {
          "name": "F3",
          "midi": 53,
          "time": 76.12499999999991,
          "velocity": 0.7086614173228346,
          "duration": 0.15000000000000568
        },
        {
          "name": "F2",
          "midi": 41,
          "time": 76.31249999999991,
          "velocity": 0.7086614173228346,
          "duration": 0.15000000000000568
        },
        {
          "name": "F4",
          "midi": 65,
          "time": 76.31249999999991,
          "velocity": 0.7086614173228346,
          "duration": 0.15000000000000568
        },
        {
          "name": "A#3",
          "midi": 58,
          "time": 76.49999999999991,
          "velocity": 0.7086614173228346,
          "duration": 0.9000000000000057
        },
        {
          "name": "D4",
          "midi": 62,
          "time": 76.49999999999991,
          "velocity": 0.7086614173228346,
          "duration": 0.9000000000000057
        },
        {
          "name": "F2",
          "midi": 41,
          "time": 76.49999999999991,
          "velocity": 0.7086614173228346,
          "duration": 0.29999999999999716
        },
        {
          "name": "F3",
          "midi": 53,
          "time": 76.87499999999991,
          "velocity": 0.7086614173228346,
          "duration": 0.15000000000000568
        },
        {
          "name": "F2",
          "midi": 41,
          "time": 77.06249999999991,
          "velocity": 0.7086614173228346,
          "duration": 0.15000000000000568
        },
        {
          "name": "F2",
          "midi": 41,
          "time": 77.24999999999991,
          "velocity": 0.7086614173228346,
          "duration": 0.15000000000000568
        },
        {
          "name": "E4",
          "midi": 64,
          "time": 77.43749999999991,
          "velocity": 0.7086614173228346,
          "duration": 0.45000000000000284
        },
        {
          "name": "C3",
          "midi": 48,
          "time": 77.43749999999991,
          "velocity": 0.7086614173228346,
          "duration": 0.29999999999999716
        },
        {
          "name": "C4",
          "midi": 60,
          "time": 77.43749999999991,
          "velocity": 0.7086614173228346,
          "duration": 0.45000000000000284
        },
        {
          "name": "G3",
          "midi": 55,
          "time": 77.43749999999991,
          "velocity": 0.7086614173228346,
          "duration": 0.45000000000000284
        },
        {
          "name": "F2",
          "midi": 41,
          "time": 77.81249999999991,
          "velocity": 0.7086614173228346,
          "duration": 0.15000000000000568
        },
        {
          "name": "C4",
          "midi": 60,
          "time": 77.99999999999991,
          "velocity": 0.7086614173228346,
          "duration": 0.9000000000000057
        },
        {
          "name": "A3",
          "midi": 57,
          "time": 77.99999999999991,
          "velocity": 0.7086614173228346,
          "duration": 0.9000000000000057
        },
        {
          "name": "F4",
          "midi": 65,
          "time": 77.99999999999991,
          "velocity": 0.7086614173228346,
          "duration": 0.9000000000000057
        },
        {
          "name": "F2",
          "midi": 41,
          "time": 77.99999999999991,
          "velocity": 0.7086614173228346,
          "duration": 0.29999999999999716
        },
        {
          "name": "F3",
          "midi": 53,
          "time": 78.37499999999991,
          "velocity": 0.7086614173228346,
          "duration": 0.15000000000000568
        },
        {
          "name": "F2",
          "midi": 41,
          "time": 78.56249999999991,
          "velocity": 0.7086614173228346,
          "duration": 0.15000000000000568
        },
        {
          "name": "F2",
          "midi": 41,
          "time": 78.74999999999991,
          "velocity": 0.7086614173228346,
          "duration": 0.30000000000001137
        },
        {
          "name": "F3",
          "midi": 53,
          "time": 79.12499999999993,
          "velocity": 0.7086614173228346,
          "duration": 0.15000000000000568
        },
        {
          "name": "C4",
          "midi": 60,
          "time": 79.12499999999993,
          "velocity": 0.7086614173228346,
          "duration": 0.29999999999999716
        },
        {
          "name": "A3",
          "midi": 57,
          "time": 79.12499999999993,
          "velocity": 0.7086614173228346,
          "duration": 0.29999999999999716
        },
        {
          "name": "F4",
          "midi": 65,
          "time": 79.12499999999993,
          "velocity": 0.7086614173228346,
          "duration": 0.29999999999999716
        },
        {
          "name": "F2",
          "midi": 41,
          "time": 79.31249999999993,
          "velocity": 0.7086614173228346,
          "duration": 0.14999999999999147
        },
        {
          "name": "G3",
          "midi": 55,
          "time": 79.49999999999991,
          "velocity": 0.7086614173228346,
          "duration": 0.5999999999999943
        },
        {
          "name": "C4",
          "midi": 60,
          "time": 79.49999999999991,
          "velocity": 0.7086614173228346,
          "duration": 0.5999999999999943
        },
        {
          "name": "E4",
          "midi": 64,
          "time": 79.49999999999991,
          "velocity": 0.7086614173228346,
          "duration": 0.5999999999999943
        },
        {
          "name": "F2",
          "midi": 41,
          "time": 79.49999999999991,
          "velocity": 0.7086614173228346,
          "duration": 0.29999999999999716
        },
        {
          "name": "F3",
          "midi": 53,
          "time": 79.87499999999991,
          "velocity": 0.7086614173228346,
          "duration": 0.15000000000000568
        },
        {
          "name": "F2",
          "midi": 41,
          "time": 80.06249999999991,
          "velocity": 0.7086614173228346,
          "duration": 0.14999999999999147
        },
        {
          "name": "F2",
          "midi": 41,
          "time": 80.2499999999999,
          "velocity": 0.7086614173228346,
          "duration": 0.29999999999999716
        },
        {
          "name": "G3",
          "midi": 55,
          "time": 80.4374999999999,
          "velocity": 0.7086614173228346,
          "duration": 0.14999999999999147
        },
        {
          "name": "F3",
          "midi": 53,
          "time": 80.62499999999989,
          "velocity": 0.7086614173228346,
          "duration": 0.15000000000000568
        },
        {
          "name": "E4",
          "midi": 64,
          "time": 80.62499999999989,
          "velocity": 0.7086614173228346,
          "duration": 0.29999999999999716
        },
        {
          "name": "C4",
          "midi": 60,
          "time": 80.62499999999989,
          "velocity": 0.7086614173228346,
          "duration": 0.29999999999999716
        },
        {
          "name": "F2",
          "midi": 41,
          "time": 80.81249999999989,
          "velocity": 0.7086614173228346,
          "duration": 0.14999999999999147
        },
        {
          "name": "F4",
          "midi": 65,
          "time": 80.99999999999987,
          "velocity": 0.7086614173228346,
          "duration": 0.5999999999999943
        },
        {
          "name": "C4",
          "midi": 60,
          "time": 80.99999999999987,
          "velocity": 0.7086614173228346,
          "duration": 0.5999999999999943
        },
        {
          "name": "A3",
          "midi": 57,
          "time": 80.99999999999987,
          "velocity": 0.7086614173228346,
          "duration": 0.5999999999999943
        },
        {
          "name": "F2",
          "midi": 41,
          "time": 80.99999999999987,
          "velocity": 0.7086614173228346,
          "duration": 0.29999999999999716
        },
        {
          "name": "F3",
          "midi": 53,
          "time": 81.37499999999987,
          "velocity": 0.7086614173228346,
          "duration": 0.15000000000000568
        },
        {
          "name": "F2",
          "midi": 41,
          "time": 81.56249999999987,
          "velocity": 0.7086614173228346,
          "duration": 0.14999999999999147
        },
        {
          "name": "F2",
          "midi": 41,
          "time": 81.74999999999986,
          "velocity": 0.7086614173228346,
          "duration": 0.29999999999999716
        },
        {
          "name": "A3",
          "midi": 57,
          "time": 81.93749999999986,
          "velocity": 0.7086614173228346,
          "duration": 0.14999999999999147
        },
        {
          "name": "F3",
          "midi": 53,
          "time": 82.12499999999984,
          "velocity": 0.7086614173228346,
          "duration": 0.15000000000000568
        },
        {
          "name": "C4",
          "midi": 60,
          "time": 82.12499999999984,
          "velocity": 0.7086614173228346,
          "duration": 0.15000000000000568
        },
        {
          "name": "F4",
          "midi": 65,
          "time": 82.31249999999984,
          "velocity": 0.7086614173228346,
          "duration": 0.15000000000000568
        },
        {
          "name": "F2",
          "midi": 41,
          "time": 82.31249999999984,
          "velocity": 0.7086614173228346,
          "duration": 0.15000000000000568
        },
        {
          "name": "D4",
          "midi": 62,
          "time": 82.49999999999984,
          "velocity": 0.7086614173228346,
          "duration": 0.9000000000000057
        },
        {
          "name": "A#3",
          "midi": 58,
          "time": 82.49999999999984,
          "velocity": 0.7086614173228346,
          "duration": 0.9000000000000057
        },
        {
          "name": "F2",
          "midi": 41,
          "time": 82.49999999999984,
          "velocity": 0.7086614173228346,
          "duration": 0.29999999999999716
        },
        {
          "name": "F3",
          "midi": 53,
          "time": 82.87499999999984,
          "velocity": 0.7086614173228346,
          "duration": 0.15000000000000568
        },
        {
          "name": "F2",
          "midi": 41,
          "time": 83.06249999999984,
          "velocity": 0.7086614173228346,
          "duration": 0.15000000000000568
        },
        {
          "name": "F2",
          "midi": 41,
          "time": 83.24999999999984,
          "velocity": 0.7086614173228346,
          "duration": 0.15000000000000568
        },
        {
          "name": "C3",
          "midi": 48,
          "time": 83.43749999999984,
          "velocity": 0.7086614173228346,
          "duration": 0.29999999999999716
        },
        {
          "name": "C4",
          "midi": 60,
          "time": 83.43749999999984,
          "velocity": 0.7086614173228346,
          "duration": 0.45000000000000284
        },
        {
          "name": "E4",
          "midi": 64,
          "time": 83.43749999999984,
          "velocity": 0.7086614173228346,
          "duration": 0.45000000000000284
        },
        {
          "name": "G3",
          "midi": 55,
          "time": 83.43749999999984,
          "velocity": 0.7086614173228346,
          "duration": 0.45000000000000284
        },
        {
          "name": "F2",
          "midi": 41,
          "time": 83.81249999999984,
          "velocity": 0.7086614173228346,
          "duration": 0.15000000000000568
        },
        {
          "name": "F4",
          "midi": 65,
          "time": 83.99999999999984,
          "velocity": 0.7086614173228346,
          "duration": 0.9000000000000057
        },
        {
          "name": "A#3",
          "midi": 58,
          "time": 83.99999999999984,
          "velocity": 0.7086614173228346,
          "duration": 0.9000000000000057
        },
        {
          "name": "D4",
          "midi": 62,
          "time": 83.99999999999984,
          "velocity": 0.7086614173228346,
          "duration": 0.9000000000000057
        },
        {
          "name": "F2",
          "midi": 41,
          "time": 83.99999999999984,
          "velocity": 0.7086614173228346,
          "duration": 0.29999999999999716
        },
        {
          "name": "F3",
          "midi": 53,
          "time": 84.37499999999984,
          "velocity": 0.7086614173228346,
          "duration": 0.15000000000000568
        },
        {
          "name": "F2",
          "midi": 41,
          "time": 84.56249999999984,
          "velocity": 0.7086614173228346,
          "duration": 0.15000000000000568
        },
        {
          "name": "F2",
          "midi": 41,
          "time": 84.74999999999984,
          "velocity": 0.7086614173228346,
          "duration": 0.30000000000001137
        },
        {
          "name": "F3",
          "midi": 53,
          "time": 85.12499999999986,
          "velocity": 0.7086614173228346,
          "duration": 0.15000000000000568
        },
        {
          "name": "F4",
          "midi": 65,
          "time": 85.12499999999986,
          "velocity": 0.7086614173228346,
          "duration": 0.29999999999999716
        },
        {
          "name": "A#3",
          "midi": 58,
          "time": 85.12499999999986,
          "velocity": 0.7086614173228346,
          "duration": 0.29999999999999716
        },
        {
          "name": "D4",
          "midi": 62,
          "time": 85.12499999999986,
          "velocity": 0.7086614173228346,
          "duration": 0.29999999999999716
        },
        {
          "name": "F2",
          "midi": 41,
          "time": 85.31249999999986,
          "velocity": 0.7086614173228346,
          "duration": 0.14999999999999147
        },
        {
          "name": "E4",
          "midi": 64,
          "time": 85.49999999999984,
          "velocity": 0.7086614173228346,
          "duration": 0.9000000000000057
        },
        {
          "name": "C4",
          "midi": 60,
          "time": 85.49999999999984,
          "velocity": 0.7086614173228346,
          "duration": 0.9000000000000057
        },
        {
          "name": "G3",
          "midi": 55,
          "time": 85.49999999999984,
          "velocity": 0.7086614173228346,
          "duration": 0.9000000000000057
        },
        {
          "name": "A#3",
          "midi": 58,
          "time": 85.49999999999984,
          "velocity": 0.7086614173228346,
          "duration": 0.9000000000000057
        },
        {
          "name": "F2",
          "midi": 41,
          "time": 85.49999999999984,
          "velocity": 0.7086614173228346,
          "duration": 0.29999999999999716
        },
        {
          "name": "F3",
          "midi": 53,
          "time": 85.87499999999984,
          "velocity": 0.7086614173228346,
          "duration": 0.15000000000000568
        },
        {
          "name": "F2",
          "midi": 41,
          "time": 86.06249999999984,
          "velocity": 0.7086614173228346,
          "duration": 0.15000000000000568
        },
        {
          "name": "F2",
          "midi": 41,
          "time": 86.24999999999984,
          "velocity": 0.7086614173228346,
          "duration": 0.29999999999999716
        },
        {
          "name": "G3",
          "midi": 55,
          "time": 86.43749999999984,
          "velocity": 0.7086614173228346,
          "duration": 0.14999999999999147
        },
        {
          "name": "F3",
          "midi": 53,
          "time": 86.62499999999983,
          "velocity": 0.7086614173228346,
          "duration": 0.15000000000000568
        },
        {
          "name": "E4",
          "midi": 64,
          "time": 86.62499999999983,
          "velocity": 0.7086614173228346,
          "duration": 0.29999999999999716
        },
        {
          "name": "C4",
          "midi": 60,
          "time": 86.62499999999983,
          "velocity": 0.7086614173228346,
          "duration": 0.29999999999999716
        },
        {
          "name": "F2",
          "midi": 41,
          "time": 86.81249999999983,
          "velocity": 0.7086614173228346,
          "duration": 0.14999999999999147
        },
        {
          "name": "C4",
          "midi": 60,
          "time": 86.99999999999982,
          "velocity": 0.7086614173228346,
          "duration": 0.5999999999999943
        },
        {
          "name": "F4",
          "midi": 65,
          "time": 86.99999999999982,
          "velocity": 0.7086614173228346,
          "duration": 0.5999999999999943
        },
        {
          "name": "A3",
          "midi": 57,
          "time": 86.99999999999982,
          "velocity": 0.7086614173228346,
          "duration": 0.5999999999999943
        },
        {
          "name": "F2",
          "midi": 41,
          "time": 86.99999999999982,
          "velocity": 0.7086614173228346,
          "duration": 0.29999999999999716
        },
        {
          "name": "F3",
          "midi": 53,
          "time": 87.37499999999982,
          "velocity": 0.7086614173228346,
          "duration": 0.15000000000000568
        },
        {
          "name": "F2",
          "midi": 41,
          "time": 87.56249999999982,
          "velocity": 0.7086614173228346,
          "duration": 0.14999999999999147
        },
        {
          "name": "F2",
          "midi": 41,
          "time": 87.7499999999998,
          "velocity": 0.7086614173228346,
          "duration": 0.29999999999999716
        },
        {
          "name": "A3",
          "midi": 57,
          "time": 87.9374999999998,
          "velocity": 0.7086614173228346,
          "duration": 0.14999999999999147
        },
        {
          "name": "C4",
          "midi": 60,
          "time": 88.12499999999979,
          "velocity": 0.7086614173228346,
          "duration": 0.15000000000000568
        },
        {
          "name": "F3",
          "midi": 53,
          "time": 88.12499999999979,
          "velocity": 0.7086614173228346,
          "duration": 0.15000000000000568
        },
        {
          "name": "F2",
          "midi": 41,
          "time": 88.31249999999979,
          "velocity": 0.7086614173228346,
          "duration": 0.15000000000000568
        },
        {
          "name": "F4",
          "midi": 65,
          "time": 88.31249999999979,
          "velocity": 0.7086614173228346,
          "duration": 0.15000000000000568
        },
        {
          "name": "D4",
          "midi": 62,
          "time": 88.49999999999979,
          "velocity": 0.7086614173228346,
          "duration": 0.9000000000000057
        },
        {
          "name": "A#3",
          "midi": 58,
          "time": 88.49999999999979,
          "velocity": 0.7086614173228346,
          "duration": 0.9000000000000057
        },
        {
          "name": "F2",
          "midi": 41,
          "time": 88.49999999999979,
          "velocity": 0.7086614173228346,
          "duration": 0.29999999999999716
        },
        {
          "name": "F3",
          "midi": 53,
          "time": 88.87499999999979,
          "velocity": 0.7086614173228346,
          "duration": 0.15000000000000568
        },
        {
          "name": "F2",
          "midi": 41,
          "time": 89.06249999999979,
          "velocity": 0.7086614173228346,
          "duration": 0.15000000000000568
        },
        {
          "name": "F2",
          "midi": 41,
          "time": 89.24999999999979,
          "velocity": 0.7086614173228346,
          "duration": 0.15000000000000568
        },
        {
          "name": "C5",
          "midi": 72,
          "time": 89.43749999999979,
          "velocity": 0.7086614173228346,
          "duration": 0.45000000000000284
        },
        {
          "name": "F5",
          "midi": 77,
          "time": 89.43749999999979,
          "velocity": 0.7086614173228346,
          "duration": 0.15000000000000568
        },
        {
          "name": "C3",
          "midi": 48,
          "time": 89.43749999999979,
          "velocity": 0.7086614173228346,
          "duration": 0.29999999999999716
        },
        {
          "name": "E5",
          "midi": 76,
          "time": 89.43749999999979,
          "velocity": 0.7086614173228346,
          "duration": 0.45000000000000284
        },
        {
          "name": "G4",
          "midi": 67,
          "time": 89.43749999999979,
          "velocity": 0.7086614173228346,
          "duration": 0.45000000000000284
        },
        {
          "name": "F5",
          "midi": 77,
          "time": 89.62499999999979,
          "velocity": 0.7086614173228346,
          "duration": 0.29999999999999716
        },
        {
          "name": "F2",
          "midi": 41,
          "time": 89.81249999999979,
          "velocity": 0.7086614173228346,
          "duration": 0.14999999999999147
        },
        {
          "name": "A4",
          "midi": 69,
          "time": 89.99999999999977,
          "velocity": 1,
          "duration": 0.5999999999999943
        },
        {
          "name": "C5",
          "midi": 72,
          "time": 89.99999999999977,
          "velocity": 1,
          "duration": 0.5999999999999943
        },
        {
          "name": "F2",
          "midi": 41,
          "time": 89.99999999999977,
          "velocity": 1,
          "duration": 0.45000000000000284
        },
        {
          "name": "F3",
          "midi": 53,
          "time": 89.99999999999977,
          "velocity": 1,
          "duration": 0.45000000000000284
        },
        {
          "name": "F5",
          "midi": 77,
          "time": 89.99999999999977,
          "velocity": 1,
          "duration": 0.29999999999999716
        },
        {
          "name": "E5",
          "midi": 76,
          "time": 90.37499999999977,
          "velocity": 1,
          "duration": 0.29999999999999716
        },
        {
          "name": "F2",
          "midi": 41,
          "time": 90.56249999999977,
          "velocity": 1,
          "duration": 0.14999999999999147
        },
        {
          "name": "F3",
          "midi": 53,
          "time": 90.56249999999977,
          "velocity": 1,
          "duration": 0.14999999999999147
        },
        {
          "name": "F4",
          "midi": 65,
          "time": 90.74999999999976,
          "velocity": 1,
          "duration": 0.5999999999999943
        },
        {
          "name": "D5",
          "midi": 74,
          "time": 90.74999999999976,
          "velocity": 1,
          "duration": 0.29999999999999716
        },
        {
          "name": "F2",
          "midi": 41,
          "time": 90.74999999999976,
          "velocity": 1,
          "duration": 0.45000000000000284
        },
        {
          "name": "F3",
          "midi": 53,
          "time": 90.74999999999976,
          "velocity": 1,
          "duration": 0.45000000000000284
        },
        {
          "name": "A#4",
          "midi": 70,
          "time": 90.74999999999976,
          "velocity": 1,
          "duration": 0.5999999999999943
        },
        {
          "name": "C5",
          "midi": 72,
          "time": 91.12499999999976,
          "velocity": 1,
          "duration": 0.29999999999999716
        },
        {
          "name": "F2",
          "midi": 41,
          "time": 91.31249999999976,
          "velocity": 1,
          "duration": 0.14999999999999147
        },
        {
          "name": "F3",
          "midi": 53,
          "time": 91.31249999999976,
          "velocity": 1,
          "duration": 0.14999999999999147
        },
        {
          "name": "C5",
          "midi": 72,
          "time": 91.49999999999974,
          "velocity": 1,
          "duration": 0.45000000000000284
        },
        {
          "name": "F3",
          "midi": 53,
          "time": 91.49999999999974,
          "velocity": 1,
          "duration": 0.45000000000000284
        },
        {
          "name": "G4",
          "midi": 67,
          "time": 91.49999999999974,
          "velocity": 1,
          "duration": 0.5999999999999943
        },
        {
          "name": "E4",
          "midi": 64,
          "time": 91.49999999999974,
          "velocity": 1,
          "duration": 0.5999999999999943
        },
        {
          "name": "F2",
          "midi": 41,
          "time": 91.49999999999974,
          "velocity": 1,
          "duration": 0.45000000000000284
        },
        {
          "name": "F2",
          "midi": 41,
          "time": 92.06249999999974,
          "velocity": 1,
          "duration": 0.14999999999999147
        },
        {
          "name": "F3",
          "midi": 53,
          "time": 92.06249999999974,
          "velocity": 1,
          "duration": 0.14999999999999147
        },
        {
          "name": "A#4",
          "midi": 70,
          "time": 92.06249999999974,
          "velocity": 1,
          "duration": 0.14999999999999147
        },
        {
          "name": "F2",
          "midi": 41,
          "time": 92.24999999999973,
          "velocity": 1,
          "duration": 0.45000000000000284
        },
        {
          "name": "A4",
          "midi": 69,
          "time": 92.24999999999973,
          "velocity": 1,
          "duration": 0.29999999999999716
        },
        {
          "name": "F4",
          "midi": 65,
          "time": 92.24999999999973,
          "velocity": 1,
          "duration": 0.29999999999999716
        },
        {
          "name": "F3",
          "midi": 53,
          "time": 92.24999999999973,
          "velocity": 1,
          "duration": 0.45000000000000284
        },
        {
          "name": "F5",
          "midi": 77,
          "time": 92.62499999999973,
          "velocity": 1,
          "duration": 0.29999999999999716
        },
        {
          "name": "F3",
          "midi": 53,
          "time": 92.81249999999973,
          "velocity": 1,
          "duration": 0.14999999999999147
        },
        {
          "name": "F2",
          "midi": 41,
          "time": 92.81249999999973,
          "velocity": 1,
          "duration": 0.14999999999999147
        },
        {
          "name": "A4",
          "midi": 69,
          "time": 92.99999999999972,
          "velocity": 1,
          "duration": 0.5999999999999943
        },
        {
          "name": "C5",
          "midi": 72,
          "time": 92.99999999999972,
          "velocity": 1,
          "duration": 0.5999999999999943
        },
        {
          "name": "F2",
          "midi": 41,
          "time": 92.99999999999972,
          "velocity": 1,
          "duration": 0.45000000000000284
        },
        {
          "name": "F3",
          "midi": 53,
          "time": 92.99999999999972,
          "velocity": 1,
          "duration": 0.45000000000000284
        },
        {
          "name": "F5",
          "midi": 77,
          "time": 92.99999999999972,
          "velocity": 1,
          "duration": 0.29999999999999716
        },
        {
          "name": "E5",
          "midi": 76,
          "time": 93.37499999999972,
          "velocity": 1,
          "duration": 0.29999999999999716
        },
        {
          "name": "F3",
          "midi": 53,
          "time": 93.56249999999972,
          "velocity": 1,
          "duration": 0.14999999999999147
        },
        {
          "name": "F2",
          "midi": 41,
          "time": 93.56249999999972,
          "velocity": 1,
          "duration": 0.14999999999999147
        },
        {
          "name": "F4",
          "midi": 65,
          "time": 93.7499999999997,
          "velocity": 1,
          "duration": 0.5999999999999943
        },
        {
          "name": "D5",
          "midi": 74,
          "time": 93.7499999999997,
          "velocity": 1,
          "duration": 0.29999999999999716
        },
        {
          "name": "F3",
          "midi": 53,
          "time": 93.7499999999997,
          "velocity": 1,
          "duration": 0.45000000000000284
        },
        {
          "name": "F2",
          "midi": 41,
          "time": 93.7499999999997,
          "velocity": 1,
          "duration": 0.45000000000000284
        },
        {
          "name": "A#4",
          "midi": 70,
          "time": 93.7499999999997,
          "velocity": 1,
          "duration": 0.5999999999999943
        },
        {
          "name": "C5",
          "midi": 72,
          "time": 94.1249999999997,
          "velocity": 1,
          "duration": 0.29999999999999716
        },
        {
          "name": "F2",
          "midi": 41,
          "time": 94.3124999999997,
          "velocity": 1,
          "duration": 0.14999999999999147
        },
        {
          "name": "F3",
          "midi": 53,
          "time": 94.3124999999997,
          "velocity": 1,
          "duration": 0.14999999999999147
        },
        {
          "name": "G4",
          "midi": 67,
          "time": 94.68749999999969,
          "velocity": 1,
          "duration": 0.29999999999999716
        },
        {
          "name": "C2",
          "midi": 36,
          "time": 94.68749999999969,
          "velocity": 1,
          "duration": 0.29999999999999716
        },
        {
          "name": "E4",
          "midi": 64,
          "time": 94.68749999999969,
          "velocity": 1,
          "duration": 0.29999999999999716
        },
        {
          "name": "C5",
          "midi": 72,
          "time": 94.68749999999969,
          "velocity": 1,
          "duration": 0.29999999999999716
        },
        {
          "name": "C3",
          "midi": 48,
          "time": 94.68749999999969,
          "velocity": 1,
          "duration": 0.29999999999999716
        },
        {
          "name": "G4",
          "midi": 67,
          "time": 95.06249999999969,
          "velocity": 1,
          "duration": 0.15000000000000568
        },
        {
          "name": "C2",
          "midi": 36,
          "time": 95.06249999999969,
          "velocity": 1,
          "duration": 0.15000000000000568
        },
        {
          "name": "E4",
          "midi": 64,
          "time": 95.06249999999969,
          "velocity": 1,
          "duration": 0.15000000000000568
        },
        {
          "name": "C3",
          "midi": 48,
          "time": 95.06249999999969,
          "velocity": 1,
          "duration": 0.15000000000000568
        },
        {
          "name": "A#4",
          "midi": 70,
          "time": 95.06249999999969,
          "velocity": 1,
          "duration": 0.15000000000000568
        },
        {
          "name": "A4",
          "midi": 69,
          "time": 95.24999999999969,
          "velocity": 1,
          "duration": 0.29999999999999716
        },
        {
          "name": "F4",
          "midi": 65,
          "time": 95.24999999999969,
          "velocity": 1,
          "duration": 0.29999999999999716
        },
        {
          "name": "F2",
          "midi": 41,
          "time": 95.24999999999969,
          "velocity": 1,
          "duration": 0.5999999999999943
        },
        {
          "name": "F3",
          "midi": 53,
          "time": 95.24999999999969,
          "velocity": 1,
          "duration": 0.5999999999999943
        },
        {
          "name": "A4",
          "midi": 69,
          "time": 95.62499999999969,
          "velocity": 1,
          "duration": 0.29999999999999716
        },
        {
          "name": "A4",
          "midi": 69,
          "time": 95.99999999999969,
          "velocity": 0.7086614173228346,
          "duration": 0.3375000000000057
        },
        {
          "name": "F2",
          "midi": 41,
          "time": 95.99999999999969,
          "velocity": 0.7086614173228346,
          "duration": 0.15000000000000568
        },
        {
          "name": "F4",
          "midi": 65,
          "time": 95.99999999999969,
          "velocity": 0.7086614173228346,
          "duration": 0.15000000000000568
        },
        {
          "name": "C5",
          "midi": 72,
          "time": 96.18749999999969,
          "velocity": 0.7086614173228346,
          "duration": 0.15000000000000568
        },
        {
          "name": "C3",
          "midi": 48,
          "time": 96.18749999999969,
          "velocity": 0.7086614173228346,
          "duration": 0.15000000000000568
        },
        {
          "name": "F5",
          "midi": 77,
          "time": 96.37499999999969,
          "velocity": 0.7086614173228346,
          "duration": 0.15000000000000568
        },
        {
          "name": "F3",
          "midi": 53,
          "time": 96.37499999999969,
          "velocity": 0.7086614173228346,
          "duration": 0.15000000000000568
        },
        {
          "name": "A4",
          "midi": 69,
          "time": 96.37499999999969,
          "velocity": 0.7086614173228346,
          "duration": 0.3375000000000057
        },
        {
          "name": "C3",
          "midi": 48,
          "time": 96.56249999999969,
          "velocity": 0.7086614173228346,
          "duration": 0.15000000000000568
        },
        {
          "name": "C5",
          "midi": 72,
          "time": 96.56249999999969,
          "velocity": 0.7086614173228346,
          "duration": 0.15000000000000568
        },
        {
          "name": "A4",
          "midi": 69,
          "time": 96.74999999999969,
          "velocity": 0.7086614173228346,
          "duration": 0.3375000000000057
        },
        {
          "name": "F4",
          "midi": 65,
          "time": 96.74999999999969,
          "velocity": 0.7086614173228346,
          "duration": 0.15000000000000568
        },
        {
          "name": "F2",
          "midi": 41,
          "time": 96.74999999999969,
          "velocity": 0.7086614173228346,
          "duration": 0.15000000000000568
        },
        {
          "name": "C3",
          "midi": 48,
          "time": 96.93749999999969,
          "velocity": 0.7086614173228346,
          "duration": 0.15000000000000568
        },
        {
          "name": "C5",
          "midi": 72,
          "time": 96.93749999999969,
          "velocity": 0.7086614173228346,
          "duration": 0.15000000000000568
        },
        {
          "name": "A4",
          "midi": 69,
          "time": 97.12499999999969,
          "velocity": 0.7086614173228346,
          "duration": 0.15000000000000568
        },
        {
          "name": "F3",
          "midi": 53,
          "time": 97.12499999999969,
          "velocity": 0.7086614173228346,
          "duration": 0.15000000000000568
        },
        {
          "name": "F5",
          "midi": 77,
          "time": 97.12499999999969,
          "velocity": 0.7086614173228346,
          "duration": 0.15000000000000568
        },
        {
          "name": "A#4",
          "midi": 70,
          "time": 97.31249999999969,
          "velocity": 0.7086614173228346,
          "duration": 0.15000000000000568
        },
        {
          "name": "C3",
          "midi": 48,
          "time": 97.31249999999969,
          "velocity": 0.7086614173228346,
          "duration": 0.15000000000000568
        },
        {
          "name": "C5",
          "midi": 72,
          "time": 97.31249999999969,
          "velocity": 0.7086614173228346,
          "duration": 0.15000000000000568
        },
        {
          "name": "A4",
          "midi": 69,
          "time": 97.49999999999969,
          "velocity": 0.7086614173228346,
          "duration": 0.15000000000000568
        },
        {
          "name": "F2",
          "midi": 41,
          "time": 97.49999999999969,
          "velocity": 0.7086614173228346,
          "duration": 0.15000000000000568
        },
        {
          "name": "C5",
          "midi": 72,
          "time": 97.49999999999969,
          "velocity": 0.7086614173228346,
          "duration": 1.0875000000000057
        },
        {
          "name": "C3",
          "midi": 48,
          "time": 97.68749999999969,
          "velocity": 0.7086614173228346,
          "duration": 0.15000000000000568
        },
        {
          "name": "F4",
          "midi": 65,
          "time": 97.68749999999969,
          "velocity": 0.7086614173228346,
          "duration": 0.15000000000000568
        },
        {
          "name": "F3",
          "midi": 53,
          "time": 97.87499999999969,
          "velocity": 0.7086614173228346,
          "duration": 0.15000000000000568
        },
        {
          "name": "A4",
          "midi": 69,
          "time": 97.87499999999969,
          "velocity": 0.7086614173228346,
          "duration": 0.15000000000000568
        },
        {
          "name": "C3",
          "midi": 48,
          "time": 98.06249999999969,
          "velocity": 0.7086614173228346,
          "duration": 0.15000000000000568
        },
        {
          "name": "A4",
          "midi": 69,
          "time": 98.06249999999969,
          "velocity": 0.7086614173228346,
          "duration": 0.15000000000000568
        },
        {
          "name": "A2",
          "midi": 45,
          "time": 98.24999999999969,
          "velocity": 0.7086614173228346,
          "duration": 0.15000000000000568
        },
        {
          "name": "A#4",
          "midi": 70,
          "time": 98.24999999999969,
          "velocity": 0.7086614173228346,
          "duration": 0.15000000000000568
        },
        {
          "name": "F3",
          "midi": 53,
          "time": 98.43749999999969,
          "velocity": 0.7086614173228346,
          "duration": 0.15000000000000568
        },
        {
          "name": "A4",
          "midi": 69,
          "time": 98.43749999999969,
          "velocity": 0.7086614173228346,
          "duration": 0.15000000000000568
        },
        {
          "name": "C4",
          "midi": 60,
          "time": 98.62499999999969,
          "velocity": 0.7086614173228346,
          "duration": 0.15000000000000568
        },
        {
          "name": "G4",
          "midi": 67,
          "time": 98.62499999999969,
          "velocity": 0.7086614173228346,
          "duration": 0.15000000000000568
        },
        {
          "name": "A#4",
          "midi": 70,
          "time": 98.62499999999969,
          "velocity": 0.7086614173228346,
          "duration": 0.15000000000000568
        },
        {
          "name": "F3",
          "midi": 53,
          "time": 98.81249999999969,
          "velocity": 0.7086614173228346,
          "duration": 0.15000000000000568
        },
        {
          "name": "A4",
          "midi": 69,
          "time": 98.81249999999969,
          "velocity": 0.7086614173228346,
          "duration": 0.15000000000000568
        },
        {
          "name": "F4",
          "midi": 65,
          "time": 98.81249999999969,
          "velocity": 0.7086614173228346,
          "duration": 0.15000000000000568
        },
        {
          "name": "G4",
          "midi": 67,
          "time": 98.99999999999969,
          "velocity": 0.7086614173228346,
          "duration": 0.29999999999999716
        },
        {
          "name": "F4",
          "midi": 65,
          "time": 98.99999999999969,
          "velocity": 0.7086614173228346,
          "duration": 0.29999999999999716
        },
        {
          "name": "C3",
          "midi": 48,
          "time": 98.99999999999969,
          "velocity": 0.7086614173228346,
          "duration": 0.15000000000000568
        },
        {
          "name": "G3",
          "midi": 55,
          "time": 99.18749999999969,
          "velocity": 0.7086614173228346,
          "duration": 0.14999999999999147
        },
        {
          "name": "G4",
          "midi": 67,
          "time": 99.37499999999967,
          "velocity": 0.7086614173228346,
          "duration": 0.3375000000000057
        },
        {
          "name": "C4",
          "midi": 60,
          "time": 99.37499999999967,
          "velocity": 0.7086614173228346,
          "duration": 0.15000000000000568
        },
        {
          "name": "E4",
          "midi": 64,
          "time": 99.37499999999967,
          "velocity": 0.7086614173228346,
          "duration": 0.15000000000000568
        },
        {
          "name": "C3",
          "midi": 48,
          "time": 99.56249999999967,
          "velocity": 0.7086614173228346,
          "duration": 0.15000000000000568
        },
        {
          "name": "D4",
          "midi": 62,
          "time": 99.56249999999967,
          "velocity": 0.7086614173228346,
          "duration": 0.15000000000000568
        },
        {
          "name": "G4",
          "midi": 67,
          "time": 99.74999999999967,
          "velocity": 0.7086614173228346,
          "duration": 0.29999999999999716
        },
        {
          "name": "E4",
          "midi": 64,
          "time": 99.74999999999967,
          "velocity": 0.7086614173228346,
          "duration": 0.29999999999999716
        },
        {
          "name": "C3",
          "midi": 48,
          "time": 99.74999999999967,
          "velocity": 0.7086614173228346,
          "duration": 0.15000000000000568
        },
        {
          "name": "G3",
          "midi": 55,
          "time": 99.93749999999967,
          "velocity": 0.7086614173228346,
          "duration": 0.14999999999999147
        },
        {
          "name": "C4",
          "midi": 60,
          "time": 100.12499999999966,
          "velocity": 0.7086614173228346,
          "duration": 0.15000000000000568
        },
        {
          "name": "E4",
          "midi": 64,
          "time": 100.12499999999966,
          "velocity": 0.7086614173228346,
          "duration": 0.15000000000000568
        },
        {
          "name": "G4",
          "midi": 67,
          "time": 100.12499999999966,
          "velocity": 0.7086614173228346,
          "duration": 0.15000000000000568
        },
        {
          "name": "F4",
          "midi": 65,
          "time": 100.31249999999966,
          "velocity": 0.7086614173228346,
          "duration": 0.15000000000000568
        },
        {
          "name": "A4",
          "midi": 69,
          "time": 100.31249999999966,
          "velocity": 0.7086614173228346,
          "duration": 0.15000000000000568
        },
        {
          "name": "C3",
          "midi": 48,
          "time": 100.31249999999966,
          "velocity": 0.7086614173228346,
          "duration": 0.15000000000000568
        },
        {
          "name": "A#4",
          "midi": 70,
          "time": 100.49999999999966,
          "velocity": 0.7086614173228346,
          "duration": 0.8999999999999915
        },
        {
          "name": "C3",
          "midi": 48,
          "time": 100.49999999999966,
          "velocity": 0.7086614173228346,
          "duration": 0.15000000000000568
        },
        {
          "name": "G4",
          "midi": 67,
          "time": 100.49999999999966,
          "velocity": 0.7086614173228346,
          "duration": 0.29999999999999716
        },
        {
          "name": "G3",
          "midi": 55,
          "time": 100.68749999999966,
          "velocity": 0.7086614173228346,
          "duration": 0.14999999999999147
        },
        {
          "name": "G4",
          "midi": 67,
          "time": 100.87499999999964,
          "velocity": 0.7086614173228346,
          "duration": 0.15000000000000568
        },
        {
          "name": "C4",
          "midi": 60,
          "time": 100.87499999999964,
          "velocity": 0.7086614173228346,
          "duration": 0.15000000000000568
        },
        {
          "name": "F4",
          "midi": 65,
          "time": 101.06249999999964,
          "velocity": 0.7086614173228346,
          "duration": 0.15000000000000568
        },
        {
          "name": "C3",
          "midi": 48,
          "time": 101.06249999999964,
          "velocity": 0.7086614173228346,
          "duration": 0.15000000000000568
        },
        {
          "name": "E4",
          "midi": 64,
          "time": 101.24999999999964,
          "velocity": 0.7086614173228346,
          "duration": 0.15000000000000568
        },
        {
          "name": "C3",
          "midi": 48,
          "time": 101.24999999999964,
          "velocity": 0.7086614173228346,
          "duration": 0.15000000000000568
        },
        {
          "name": "G3",
          "midi": 55,
          "time": 101.43749999999964,
          "velocity": 0.7086614173228346,
          "duration": 0.15000000000000568
        },
        {
          "name": "F4",
          "midi": 65,
          "time": 101.43749999999964,
          "velocity": 0.7086614173228346,
          "duration": 0.07500000000000284
        },
        {
          "name": "A4",
          "midi": 69,
          "time": 101.43749999999964,
          "velocity": 0.7086614173228346,
          "duration": 0.07500000000000284
        },
        {
          "name": "G4",
          "midi": 67,
          "time": 101.53124999999964,
          "velocity": 0.7086614173228346,
          "duration": 0.07500000000000284
        },
        {
          "name": "A#4",
          "midi": 70,
          "time": 101.53124999999964,
          "velocity": 0.7086614173228346,
          "duration": 0.07500000000000284
        },
        {
          "name": "F4",
          "midi": 65,
          "time": 101.62499999999964,
          "velocity": 0.7086614173228346,
          "duration": 0.15000000000000568
        },
        {
          "name": "C4",
          "midi": 60,
          "time": 101.62499999999964,
          "velocity": 0.7086614173228346,
          "duration": 0.15000000000000568
        },
        {
          "name": "A4",
          "midi": 69,
          "time": 101.62499999999964,
          "velocity": 0.7086614173228346,
          "duration": 0.15000000000000568
        },
        {
          "name": "C3",
          "midi": 48,
          "time": 101.81249999999964,
          "velocity": 0.7086614173228346,
          "duration": 0.15000000000000568
        },
        {
          "name": "E4",
          "midi": 64,
          "time": 101.81249999999964,
          "velocity": 0.7086614173228346,
          "duration": 0.15000000000000568
        },
        {
          "name": "G4",
          "midi": 67,
          "time": 101.81249999999964,
          "velocity": 0.7086614173228346,
          "duration": 0.15000000000000568
        },
        {
          "name": "F2",
          "midi": 41,
          "time": 101.99999999999964,
          "velocity": 0.7086614173228346,
          "duration": 0.29999999999999716
        },
        {
          "name": "F4",
          "midi": 65,
          "time": 101.99999999999964,
          "velocity": 0.7086614173228346,
          "duration": 0.29999999999999716
        },
        {
          "name": "F3",
          "midi": 53,
          "time": 102.37499999999964,
          "velocity": 0.7086614173228346,
          "duration": 0.15000000000000568
        },
        {
          "name": "F4",
          "midi": 65,
          "time": 102.37499999999964,
          "velocity": 0.7086614173228346,
          "duration": 0.15000000000000568
        },
        {
          "name": "F5",
          "midi": 77,
          "time": 102.37499999999964,
          "velocity": 0.7086614173228346,
          "duration": 0.7124999999999915
        },
        {
          "name": "A4",
          "midi": 69,
          "time": 102.37499999999964,
          "velocity": 0.7086614173228346,
          "duration": 0.7124999999999915
        },
        {
          "name": "F4",
          "midi": 65,
          "time": 102.56249999999964,
          "velocity": 0.7086614173228346,
          "duration": 0.07500000000000284
        },
        {
          "name": "F2",
          "midi": 41,
          "time": 102.56249999999964,
          "velocity": 0.7086614173228346,
          "duration": 0.07500000000000284
        },
        {
          "name": "G2",
          "midi": 43,
          "time": 102.65624999999964,
          "velocity": 0.7086614173228346,
          "duration": 0.07500000000000284
        },
        {
          "name": "G4",
          "midi": 67,
          "time": 102.65624999999964,
          "velocity": 0.7086614173228346,
          "duration": 0.07500000000000284
        },
        {
          "name": "A2",
          "midi": 45,
          "time": 102.74999999999964,
          "velocity": 0.7086614173228346,
          "duration": 0.29999999999999716
        },
        {
          "name": "A3",
          "midi": 57,
          "time": 102.74999999999964,
          "velocity": 0.7086614173228346,
          "duration": 0.29999999999999716
        },
        {
          "name": "F4",
          "midi": 65,
          "time": 102.93749999999964,
          "velocity": 0.7086614173228346,
          "duration": 0.14999999999999147
        },
        {
          "name": "A#3",
          "midi": 58,
          "time": 103.12499999999963,
          "velocity": 0.7086614173228346,
          "duration": 0.29999999999999716
        },
        {
          "name": "A#2",
          "midi": 46,
          "time": 103.12499999999963,
          "velocity": 0.7086614173228346,
          "duration": 0.29999999999999716
        },
        {
          "name": "A#4",
          "midi": 70,
          "time": 103.12499999999963,
          "velocity": 0.7086614173228346,
          "duration": 0.35625000000000284
        },
        {
          "name": "D5",
          "midi": 74,
          "time": 103.12499999999963,
          "velocity": 0.7086614173228346,
          "duration": 0.35625000000000284
        },
        {
          "name": "C5",
          "midi": 72,
          "time": 103.31249999999963,
          "velocity": 0.7086614173228346,
          "duration": 0.07500000000000284
        },
        {
          "name": "A3",
          "midi": 57,
          "time": 103.49999999999963,
          "velocity": 0.7086614173228346,
          "duration": 0.45000000000000284
        },
        {
          "name": "A4",
          "midi": 69,
          "time": 103.49999999999963,
          "velocity": 0.7086614173228346,
          "duration": 0.45000000000000284
        },
        {
          "name": "A2",
          "midi": 45,
          "time": 103.49999999999963,
          "velocity": 0.7086614173228346,
          "duration": 0.45000000000000284
        },
        {
          "name": "C5",
          "midi": 72,
          "time": 103.49999999999963,
          "velocity": 0.7086614173228346,
          "duration": 0.45000000000000284
        },
        {
          "name": "G4",
          "midi": 67,
          "time": 104.06249999999963,
          "velocity": 0.7086614173228346,
          "duration": 0.15000000000000568
        },
        {
          "name": "A2",
          "midi": 45,
          "time": 104.06249999999963,
          "velocity": 0.7086614173228346,
          "duration": 0.15000000000000568
        },
        {
          "name": "A#4",
          "midi": 70,
          "time": 104.06249999999963,
          "velocity": 0.7086614173228346,
          "duration": 0.15000000000000568
        },
        {
          "name": "A3",
          "midi": 57,
          "time": 104.06249999999963,
          "velocity": 0.7086614173228346,
          "duration": 0.15000000000000568
        },
        {
          "name": "A4",
          "midi": 69,
          "time": 104.24999999999963,
          "velocity": 0.7086614173228346,
          "duration": 0.29999999999999716
        },
        {
          "name": "A3",
          "midi": 57,
          "time": 104.24999999999963,
          "velocity": 0.7086614173228346,
          "duration": 0.29999999999999716
        },
        {
          "name": "F4",
          "midi": 65,
          "time": 104.24999999999963,
          "velocity": 0.7086614173228346,
          "duration": 0.29999999999999716
        },
        {
          "name": "A2",
          "midi": 45,
          "time": 104.24999999999963,
          "velocity": 0.7086614173228346,
          "duration": 0.29999999999999716
        },
        {
          "name": "A#3",
          "midi": 58,
          "time": 104.62499999999963,
          "velocity": 0.7086614173228346,
          "duration": 0.29999999999999716
        },
        {
          "name": "A#2",
          "midi": 46,
          "time": 104.62499999999963,
          "velocity": 0.7086614173228346,
          "duration": 0.29999999999999716
        },
        {
          "name": "A#4",
          "midi": 70,
          "time": 104.62499999999963,
          "velocity": 0.7086614173228346,
          "duration": 0.35625000000000284
        },
        {
          "name": "G4",
          "midi": 67,
          "time": 104.62499999999963,
          "velocity": 0.7086614173228346,
          "duration": 0.35625000000000284
        },
        {
          "name": "A4",
          "midi": 69,
          "time": 104.81249999999963,
          "velocity": 0.7086614173228346,
          "duration": 0.07500000000000284
        },
        {
          "name": "F4",
          "midi": 65,
          "time": 104.99999999999963,
          "velocity": 0.7086614173228346,
          "duration": 0.3375000000000057
        },
        {
          "name": "C3",
          "midi": 48,
          "time": 104.99999999999963,
          "velocity": 0.7086614173228346,
          "duration": 0.45000000000000284
        },
        {
          "name": "A4",
          "midi": 69,
          "time": 104.99999999999963,
          "velocity": 0.7086614173228346,
          "duration": 0.7125000000000057
        },
        {
          "name": "C4",
          "midi": 60,
          "time": 104.99999999999963,
          "velocity": 0.7086614173228346,
          "duration": 0.45000000000000284
        },
        {
          "name": "E4",
          "midi": 64,
          "time": 105.37499999999963,
          "velocity": 0.7086614173228346,
          "duration": 0.15000000000000568
        },
        {
          "name": "C2",
          "midi": 36,
          "time": 105.56249999999963,
          "velocity": 0.7086614173228346,
          "duration": 0.15000000000000568
        },
        {
          "name": "D4",
          "midi": 62,
          "time": 105.56249999999963,
          "velocity": 0.7086614173228346,
          "duration": 0.15000000000000568
        },
        {
          "name": "C3",
          "midi": 48,
          "time": 105.56249999999963,
          "velocity": 0.7086614173228346,
          "duration": 0.15000000000000568
        },
        {
          "name": "G4",
          "midi": 67,
          "time": 105.74999999999963,
          "velocity": 0.7086614173228346,
          "duration": 0.45000000000000284
        },
        {
          "name": "C3",
          "midi": 48,
          "time": 105.74999999999963,
          "velocity": 0.7086614173228346,
          "duration": 0.45000000000000284
        },
        {
          "name": "C2",
          "midi": 36,
          "time": 105.74999999999963,
          "velocity": 0.7086614173228346,
          "duration": 0.45000000000000284
        },
        {
          "name": "E4",
          "midi": 64,
          "time": 105.74999999999963,
          "velocity": 0.7086614173228346,
          "duration": 0.45000000000000284
        },
        {
          "name": "C2",
          "midi": 36,
          "time": 106.31249999999963,
          "velocity": 0.7086614173228346,
          "duration": 0.15000000000000568
        },
        {
          "name": "D4",
          "midi": 62,
          "time": 106.31249999999963,
          "velocity": 0.7086614173228346,
          "duration": 0.15000000000000568
        },
        {
          "name": "F4",
          "midi": 65,
          "time": 106.31249999999963,
          "velocity": 0.7086614173228346,
          "duration": 0.15000000000000568
        },
        {
          "name": "C3",
          "midi": 48,
          "time": 106.31249999999963,
          "velocity": 0.7086614173228346,
          "duration": 0.15000000000000568
        },
        {
          "name": "E4",
          "midi": 64,
          "time": 106.49999999999963,
          "velocity": 0.7086614173228346,
          "duration": 0.45000000000000284
        },
        {
          "name": "C3",
          "midi": 48,
          "time": 106.49999999999963,
          "velocity": 0.7086614173228346,
          "duration": 0.45000000000000284
        },
        {
          "name": "C2",
          "midi": 36,
          "time": 106.49999999999963,
          "velocity": 0.7086614173228346,
          "duration": 0.45000000000000284
        },
        {
          "name": "G4",
          "midi": 67,
          "time": 106.49999999999963,
          "velocity": 0.7086614173228346,
          "duration": 0.45000000000000284
        },
        {
          "name": "C4",
          "midi": 60,
          "time": 107.06249999999963,
          "velocity": 0.7086614173228346,
          "duration": 0.15000000000000568
        },
        {
          "name": "C3",
          "midi": 48,
          "time": 107.06249999999963,
          "velocity": 0.7086614173228346,
          "duration": 0.15000000000000568
        },
        {
          "name": "C2",
          "midi": 36,
          "time": 107.06249999999963,
          "velocity": 0.7086614173228346,
          "duration": 0.15000000000000568
        },
        {
          "name": "C2",
          "midi": 36,
          "time": 107.24999999999963,
          "velocity": 0.7086614173228346,
          "duration": 0.45000000000000284
        },
        {
          "name": "E4",
          "midi": 64,
          "time": 107.24999999999963,
          "velocity": 0.7086614173228346,
          "duration": 0.29999999999999716
        },
        {
          "name": "C3",
          "midi": 48,
          "time": 107.24999999999963,
          "velocity": 0.7086614173228346,
          "duration": 0.45000000000000284
        },
        {
          "name": "G4",
          "midi": 67,
          "time": 107.62499999999963,
          "velocity": 0.7086614173228346,
          "duration": 0.29999999999999716
        },
        {
          "name": "C3",
          "midi": 48,
          "time": 107.81249999999963,
          "velocity": 0.7086614173228346,
          "duration": 0.14999999999999147
        },
        {
          "name": "C2",
          "midi": 36,
          "time": 107.81249999999963,
          "velocity": 0.7086614173228346,
          "duration": 0.14999999999999147
        },
        {
          "name": "C2",
          "midi": 36,
          "time": 107.99999999999962,
          "velocity": 0.7086614173228346,
          "duration": 0.45000000000000284
        },
        {
          "name": "C3",
          "midi": 48,
          "time": 107.99999999999962,
          "velocity": 0.7086614173228346,
          "duration": 0.45000000000000284
        },
        {
          "name": "G4",
          "midi": 67,
          "time": 108.18749999999962,
          "velocity": 0.7165354330708661,
          "duration": 0.15000000000000568
        },
        {
          "name": "C5",
          "midi": 72,
          "time": 108.37499999999962,
          "velocity": 0.7165354330708661,
          "duration": 0.15000000000000568
        },
        {
          "name": "C2",
          "midi": 36,
          "time": 108.56249999999962,
          "velocity": 0.7244094488188977,
          "duration": 0.15000000000000568
        },
        {
          "name": "C3",
          "midi": 48,
          "time": 108.56249999999962,
          "velocity": 0.7244094488188977,
          "duration": 0.15000000000000568
        },
        {
          "name": "D5",
          "midi": 74,
          "time": 108.56249999999962,
          "velocity": 0.7244094488188977,
          "duration": 0.15000000000000568
        },
        {
          "name": "C3",
          "midi": 48,
          "time": 108.74999999999962,
          "velocity": 0.7322834645669292,
          "duration": 0.45000000000000284
        },
        {
          "name": "C2",
          "midi": 36,
          "time": 108.74999999999962,
          "velocity": 0.7322834645669292,
          "duration": 0.45000000000000284
        },
        {
          "name": "C5",
          "midi": 72,
          "time": 108.93749999999962,
          "velocity": 0.7322834645669292,
          "duration": 0.15000000000000568
        },
        {
          "name": "D5",
          "midi": 74,
          "time": 109.12499999999962,
          "velocity": 0.7401574803149606,
          "duration": 0.15000000000000568
        },
        {
          "name": "E5",
          "midi": 76,
          "time": 109.31249999999962,
          "velocity": 0.7480314960629921,
          "duration": 0.15000000000000568
        },
        {
          "name": "C3",
          "midi": 48,
          "time": 109.31249999999962,
          "velocity": 0.7480314960629921,
          "duration": 0.15000000000000568
        },
        {
          "name": "C2",
          "midi": 36,
          "time": 109.31249999999962,
          "velocity": 0.7480314960629921,
          "duration": 0.15000000000000568
        },
        {
          "name": "C3",
          "midi": 48,
          "time": 109.49999999999962,
          "velocity": 0.7480314960629921,
          "duration": 0.45000000000000284
        },
        {
          "name": "C2",
          "midi": 36,
          "time": 109.49999999999962,
          "velocity": 0.7480314960629921,
          "duration": 0.45000000000000284
        },
        {
          "name": "E5",
          "midi": 76,
          "time": 109.49999999999962,
          "velocity": 0.7480314960629921,
          "duration": 0.15000000000000568
        },
        {
          "name": "D5",
          "midi": 74,
          "time": 109.68749999999962,
          "velocity": 0.7559055118110236,
          "duration": 0.15000000000000568
        },
        {
          "name": "C5",
          "midi": 72,
          "time": 109.87499999999962,
          "velocity": 0.7637795275590551,
          "duration": 0.15000000000000568
        },
        {
          "name": "C3",
          "midi": 48,
          "time": 110.06249999999962,
          "velocity": 0.7637795275590551,
          "duration": 0.15000000000000568
        },
        {
          "name": "D5",
          "midi": 74,
          "time": 110.06249999999962,
          "velocity": 0.7637795275590551,
          "duration": 0.15000000000000568
        },
        {
          "name": "C2",
          "midi": 36,
          "time": 110.06249999999962,
          "velocity": 0.7637795275590551,
          "duration": 0.15000000000000568
        },
        {
          "name": "C5",
          "midi": 72,
          "time": 110.24999999999962,
          "velocity": 0.7716535433070866,
          "duration": 0.29999999999999716
        },
        {
          "name": "C3",
          "midi": 48,
          "time": 110.24999999999962,
          "velocity": 0.7716535433070866,
          "duration": 0.29999999999999716
        },
        {
          "name": "C2",
          "midi": 36,
          "time": 110.24999999999962,
          "velocity": 0.7716535433070866,
          "duration": 0.29999999999999716
        },
        {
          "name": "G2",
          "midi": 43,
          "time": 110.62499999999962,
          "velocity": 0.7795275590551181,
          "duration": 0.15000000000000568
        },
        {
          "name": "B4",
          "midi": 71,
          "time": 110.62499999999962,
          "velocity": 0.7795275590551181,
          "duration": 0.15000000000000568
        },
        {
          "name": "C5",
          "midi": 72,
          "time": 110.81249999999962,
          "velocity": 0.7874015748031497,
          "duration": 0.15000000000000568
        },
        {
          "name": "G2",
          "midi": 43,
          "time": 110.81249999999962,
          "velocity": 0.7874015748031497,
          "duration": 0.15000000000000568
        },
        {
          "name": "C2",
          "midi": 36,
          "time": 110.99999999999962,
          "velocity": 0.7952755905511811,
          "duration": 0.45000000000000284
        },
        {
          "name": "C3",
          "midi": 48,
          "time": 110.99999999999962,
          "velocity": 0.7952755905511811,
          "duration": 0.45000000000000284
        },
        {
          "name": "C6",
          "midi": 84,
          "time": 110.99999999999962,
          "velocity": 0.7952755905511811,
          "duration": 0.15000000000000568
        },
        {
          "name": "B5",
          "midi": 83,
          "time": 111.18749999999962,
          "velocity": 0.7952755905511811,
          "duration": 0.15000000000000568
        },
        {
          "name": "G5",
          "midi": 79,
          "time": 111.37499999999962,
          "velocity": 0.8031496062992126,
          "duration": 0.15000000000000568
        },
        {
          "name": "C6",
          "midi": 84,
          "time": 111.56249999999962,
          "velocity": 0.8031496062992126,
          "duration": 0.15000000000000568
        },
        {
          "name": "C3",
          "midi": 48,
          "time": 111.56249999999962,
          "velocity": 0.8031496062992126,
          "duration": 0.15000000000000568
        },
        {
          "name": "C2",
          "midi": 36,
          "time": 111.56249999999962,
          "velocity": 0.8031496062992126,
          "duration": 0.15000000000000568
        },
        {
          "name": "C3",
          "midi": 48,
          "time": 111.74999999999962,
          "velocity": 0.8110236220472441,
          "duration": 0.45000000000000284
        },
        {
          "name": "B5",
          "midi": 83,
          "time": 111.74999999999962,
          "velocity": 0.8110236220472441,
          "duration": 0.15000000000000568
        },
        {
          "name": "C2",
          "midi": 36,
          "time": 111.74999999999962,
          "velocity": 0.8110236220472441,
          "duration": 0.45000000000000284
        },
        {
          "name": "G5",
          "midi": 79,
          "time": 111.93749999999962,
          "velocity": 0.8188976377952756,
          "duration": 0.15000000000000568
        },
        {
          "name": "C6",
          "midi": 84,
          "time": 112.12499999999962,
          "velocity": 0.8188976377952756,
          "duration": 0.15000000000000568
        },
        {
          "name": "C3",
          "midi": 48,
          "time": 112.31249999999962,
          "velocity": 0.8267716535433071,
          "duration": 0.15000000000000568
        },
        {
          "name": "C2",
          "midi": 36,
          "time": 112.31249999999962,
          "velocity": 0.8267716535433071,
          "duration": 0.15000000000000568
        },
        {
          "name": "B5",
          "midi": 83,
          "time": 112.31249999999962,
          "velocity": 0.8267716535433071,
          "duration": 0.15000000000000568
        },
        {
          "name": "C2",
          "midi": 36,
          "time": 112.49999999999962,
          "velocity": 0.8346456692913385,
          "duration": 0.45000000000000284
        },
        {
          "name": "C3",
          "midi": 48,
          "time": 112.49999999999962,
          "velocity": 0.8346456692913385,
          "duration": 0.45000000000000284
        },
        {
          "name": "G5",
          "midi": 79,
          "time": 112.49999999999962,
          "velocity": 0.8346456692913385,
          "duration": 0.15000000000000568
        },
        {
          "name": "C6",
          "midi": 84,
          "time": 112.68749999999962,
          "velocity": 0.8346456692913385,
          "duration": 0.15000000000000568
        },
        {
          "name": "B5",
          "midi": 83,
          "time": 112.87499999999962,
          "velocity": 0.84251968503937,
          "duration": 0.15000000000000568
        },
        {
          "name": "G5",
          "midi": 79,
          "time": 113.06249999999962,
          "velocity": 0.8503937007874016,
          "duration": 0.15000000000000568
        },
        {
          "name": "C3",
          "midi": 48,
          "time": 113.06249999999962,
          "velocity": 0.8503937007874016,
          "duration": 0.15000000000000568
        },
        {
          "name": "C2",
          "midi": 36,
          "time": 113.06249999999962,
          "velocity": 0.8503937007874016,
          "duration": 0.15000000000000568
        },
        {
          "name": "C3",
          "midi": 48,
          "time": 113.24999999999962,
          "velocity": 0.8503937007874016,
          "duration": 0.29999999999999716
        },
        {
          "name": "C2",
          "midi": 36,
          "time": 113.24999999999962,
          "velocity": 0.8503937007874016,
          "duration": 0.29999999999999716
        },
        {
          "name": "C6",
          "midi": 84,
          "time": 113.24999999999962,
          "velocity": 0.8503937007874016,
          "duration": 0.15000000000000568
        },
        {
          "name": "B5",
          "midi": 83,
          "time": 113.43749999999962,
          "velocity": 0.8582677165354331,
          "duration": 0.14999999999999147
        },
        {
          "name": "G5",
          "midi": 79,
          "time": 113.6249999999996,
          "velocity": 0.8661417322834646,
          "duration": 0.15000000000000568
        },
        {
          "name": "G2",
          "midi": 43,
          "time": 113.6249999999996,
          "velocity": 0.8661417322834646,
          "duration": 0.15000000000000568
        },
        {
          "name": "G2",
          "midi": 43,
          "time": 113.8124999999996,
          "velocity": 0.8661417322834646,
          "duration": 0.15000000000000568
        },
        {
          "name": "C6",
          "midi": 84,
          "time": 113.8124999999996,
          "velocity": 0.8661417322834646,
          "duration": 0.15000000000000568
        },
        {
          "name": "C2",
          "midi": 36,
          "time": 113.9999999999996,
          "velocity": 0.8818897637795275,
          "duration": 0.45000000000000284
        },
        {
          "name": "C3",
          "midi": 48,
          "time": 113.9999999999996,
          "velocity": 0.8818897637795275,
          "duration": 0.45000000000000284
        },
        {
          "name": "C6",
          "midi": 84,
          "time": 113.9999999999996,
          "velocity": 0.8818897637795275,
          "duration": 0.15000000000000568
        },
        {
          "name": "B5",
          "midi": 83,
          "time": 114.1874999999996,
          "velocity": 0.889763779527559,
          "duration": 0.15000000000000568
        },
        {
          "name": "G5",
          "midi": 79,
          "time": 114.3749999999996,
          "velocity": 0.8976377952755905,
          "duration": 0.15000000000000568
        },
        {
          "name": "C3",
          "midi": 48,
          "time": 114.5624999999996,
          "velocity": 0.905511811023622,
          "duration": 0.15000000000000568
        },
        {
          "name": "C6",
          "midi": 84,
          "time": 114.5624999999996,
          "velocity": 0.905511811023622,
          "duration": 0.15000000000000568
        },
        {
          "name": "C2",
          "midi": 36,
          "time": 114.5624999999996,
          "velocity": 0.905511811023622,
          "duration": 0.15000000000000568
        },
        {
          "name": "B5",
          "midi": 83,
          "time": 114.7499999999996,
          "velocity": 0.9133858267716536,
          "duration": 0.15000000000000568
        },
        {
          "name": "C3",
          "midi": 48,
          "time": 114.7499999999996,
          "velocity": 0.9133858267716536,
          "duration": 0.45000000000000284
        },
        {
          "name": "C2",
          "midi": 36,
          "time": 114.7499999999996,
          "velocity": 0.9133858267716536,
          "duration": 0.45000000000000284
        },
        {
          "name": "G5",
          "midi": 79,
          "time": 114.9374999999996,
          "velocity": 0.9212598425196851,
          "duration": 0.15000000000000568
        },
        {
          "name": "C6",
          "midi": 84,
          "time": 115.1249999999996,
          "velocity": 0.9291338582677166,
          "duration": 0.15000000000000568
        },
        {
          "name": "C3",
          "midi": 48,
          "time": 115.3124999999996,
          "velocity": 0.937007874015748,
          "duration": 0.15000000000000568
        },
        {
          "name": "C2",
          "midi": 36,
          "time": 115.3124999999996,
          "velocity": 0.937007874015748,
          "duration": 0.15000000000000568
        },
        {
          "name": "B5",
          "midi": 83,
          "time": 115.3124999999996,
          "velocity": 0.937007874015748,
          "duration": 0.15000000000000568
        },
        {
          "name": "C2",
          "midi": 36,
          "time": 115.4999999999996,
          "velocity": 0.9448818897637795,
          "duration": 0.45000000000000284
        },
        {
          "name": "C3",
          "midi": 48,
          "time": 115.4999999999996,
          "velocity": 0.9448818897637795,
          "duration": 0.45000000000000284
        },
        {
          "name": "G5",
          "midi": 79,
          "time": 115.4999999999996,
          "velocity": 0.9448818897637795,
          "duration": 0.15000000000000568
        },
        {
          "name": "C6",
          "midi": 84,
          "time": 115.6874999999996,
          "velocity": 0.9448818897637795,
          "duration": 0.15000000000000568
        },
        {
          "name": "B5",
          "midi": 83,
          "time": 115.8749999999996,
          "velocity": 0.952755905511811,
          "duration": 0.15000000000000568
        },
        {
          "name": "G5",
          "midi": 79,
          "time": 116.0624999999996,
          "velocity": 0.9606299212598425,
          "duration": 0.15000000000000568
        },
        {
          "name": "C2",
          "midi": 36,
          "time": 116.0624999999996,
          "velocity": 0.9606299212598425,
          "duration": 0.15000000000000568
        },
        {
          "name": "C3",
          "midi": 48,
          "time": 116.0624999999996,
          "velocity": 0.9606299212598425,
          "duration": 0.15000000000000568
        },
        {
          "name": "C6",
          "midi": 84,
          "time": 116.2499999999996,
          "velocity": 0.968503937007874,
          "duration": 0.15000000000000568
        },
        {
          "name": "C2",
          "midi": 36,
          "time": 116.2499999999996,
          "velocity": 0.968503937007874,
          "duration": 0.15000000000000568
        },
        {
          "name": "C3",
          "midi": 48,
          "time": 116.2499999999996,
          "velocity": 0.968503937007874,
          "duration": 0.15000000000000568
        },
        {
          "name": "A#5",
          "midi": 82,
          "time": 116.4374999999996,
          "velocity": 0.9763779527559056,
          "duration": 0.15000000000000568
        },
        {
          "name": "A#2",
          "midi": 46,
          "time": 116.4374999999996,
          "velocity": 0.9763779527559056,
          "duration": 0.15000000000000568
        },
        {
          "name": "A2",
          "midi": 45,
          "time": 116.6249999999996,
          "velocity": 0.984251968503937,
          "duration": 0.15000000000000568
        },
        {
          "name": "A5",
          "midi": 81,
          "time": 116.6249999999996,
          "velocity": 0.984251968503937,
          "duration": 0.15000000000000568
        },
        {
          "name": "G2",
          "midi": 43,
          "time": 116.8124999999996,
          "velocity": 0.9921259842519685,
          "duration": 0.15000000000000568
        },
        {
          "name": "G5",
          "midi": 79,
          "time": 116.8124999999996,
          "velocity": 0.9921259842519685,
          "duration": 0.15000000000000568
        },
        {
          "name": "C4",
          "midi": 60,
          "time": 116.9999999999996,
          "velocity": 0.7086614173228346,
          "duration": 0.9000000000000057
        },
        {
          "name": "A3",
          "midi": 57,
          "time": 116.9999999999996,
          "velocity": 0.7086614173228346,
          "duration": 0.9000000000000057
        },
        {
          "name": "F4",
          "midi": 65,
          "time": 116.9999999999996,
          "velocity": 0.7086614173228346,
          "duration": 0.9000000000000057
        },
        {
          "name": "F2",
          "midi": 41,
          "time": 116.9999999999996,
          "velocity": 0.7086614173228346,
          "duration": 0.29999999999999716
        },
        {
          "name": "F3",
          "midi": 53,
          "time": 117.3749999999996,
          "velocity": 0.7086614173228346,
          "duration": 0.15000000000000568
        },
        {
          "name": "F2",
          "midi": 41,
          "time": 117.5624999999996,
          "velocity": 0.7086614173228346,
          "duration": 0.15000000000000568
        },
        {
          "name": "F2",
          "midi": 41,
          "time": 117.7499999999996,
          "velocity": 0.7086614173228346,
          "duration": 0.30000000000001137
        },
        {
          "name": "F3",
          "midi": 53,
          "time": 118.12499999999962,
          "velocity": 0.7086614173228346,
          "duration": 0.15000000000000568
        },
        {
          "name": "A3",
          "midi": 57,
          "time": 118.12499999999962,
          "velocity": 0.7086614173228346,
          "duration": 0.29999999999999716
        },
        {
          "name": "C4",
          "midi": 60,
          "time": 118.12499999999962,
          "velocity": 0.7086614173228346,
          "duration": 0.29999999999999716
        },
        {
          "name": "F4",
          "midi": 65,
          "time": 118.12499999999962,
          "velocity": 0.7086614173228346,
          "duration": 0.29999999999999716
        },
        {
          "name": "F2",
          "midi": 41,
          "time": 118.31249999999962,
          "velocity": 0.7086614173228346,
          "duration": 0.14999999999999147
        },
        {
          "name": "C4",
          "midi": 60,
          "time": 118.4999999999996,
          "velocity": 0.7086614173228346,
          "duration": 0.5999999999999943
        },
        {
          "name": "G3",
          "midi": 55,
          "time": 118.4999999999996,
          "velocity": 0.7086614173228346,
          "duration": 0.5999999999999943
        },
        {
          "name": "E4",
          "midi": 64,
          "time": 118.4999999999996,
          "velocity": 0.7086614173228346,
          "duration": 0.5999999999999943
        },
        {
          "name": "F2",
          "midi": 41,
          "time": 118.4999999999996,
          "velocity": 0.7086614173228346,
          "duration": 0.29999999999999716
        },
        {
          "name": "F3",
          "midi": 53,
          "time": 118.8749999999996,
          "velocity": 0.7086614173228346,
          "duration": 0.15000000000000568
        },
        {
          "name": "F2",
          "midi": 41,
          "time": 119.0624999999996,
          "velocity": 0.7086614173228346,
          "duration": 0.14999999999999147
        },
        {
          "name": "F2",
          "midi": 41,
          "time": 119.24999999999959,
          "velocity": 0.7086614173228346,
          "duration": 0.29999999999999716
        },
        {
          "name": "G3",
          "midi": 55,
          "time": 119.43749999999959,
          "velocity": 0.7086614173228346,
          "duration": 0.14999999999999147
        },
        {
          "name": "F3",
          "midi": 53,
          "time": 119.62499999999957,
          "velocity": 0.7086614173228346,
          "duration": 0.15000000000000568
        },
        {
          "name": "C4",
          "midi": 60,
          "time": 119.62499999999957,
          "velocity": 0.7086614173228346,
          "duration": 0.29999999999999716
        },
        {
          "name": "E4",
          "midi": 64,
          "time": 119.62499999999957,
          "velocity": 0.7086614173228346,
          "duration": 0.29999999999999716
        },
        {
          "name": "F2",
          "midi": 41,
          "time": 119.81249999999957,
          "velocity": 0.7086614173228346,
          "duration": 0.14999999999999147
        },
        {
          "name": "A3",
          "midi": 57,
          "time": 119.99999999999956,
          "velocity": 0.7086614173228346,
          "duration": 0.5999999999999943
        },
        {
          "name": "F4",
          "midi": 65,
          "time": 119.99999999999956,
          "velocity": 0.7086614173228346,
          "duration": 0.5999999999999943
        },
        {
          "name": "C4",
          "midi": 60,
          "time": 119.99999999999956,
          "velocity": 0.7086614173228346,
          "duration": 0.5999999999999943
        },
        {
          "name": "F2",
          "midi": 41,
          "time": 119.99999999999956,
          "velocity": 0.7086614173228346,
          "duration": 0.29999999999999716
        },
        {
          "name": "F3",
          "midi": 53,
          "time": 120.37499999999956,
          "velocity": 0.7086614173228346,
          "duration": 0.15000000000000568
        },
        {
          "name": "F2",
          "midi": 41,
          "time": 120.56249999999956,
          "velocity": 0.7086614173228346,
          "duration": 0.14999999999999147
        },
        {
          "name": "F2",
          "midi": 41,
          "time": 120.74999999999955,
          "velocity": 0.7086614173228346,
          "duration": 0.29999999999999716
        },
        {
          "name": "A3",
          "midi": 57,
          "time": 120.93749999999955,
          "velocity": 0.7086614173228346,
          "duration": 0.14999999999999147
        },
        {
          "name": "C4",
          "midi": 60,
          "time": 121.12499999999953,
          "velocity": 0.7086614173228346,
          "duration": 0.15000000000000568
        },
        {
          "name": "F3",
          "midi": 53,
          "time": 121.12499999999953,
          "velocity": 0.7086614173228346,
          "duration": 0.15000000000000568
        },
        {
          "name": "F4",
          "midi": 65,
          "time": 121.31249999999953,
          "velocity": 0.7086614173228346,
          "duration": 0.15000000000000568
        },
        {
          "name": "F2",
          "midi": 41,
          "time": 121.31249999999953,
          "velocity": 0.7086614173228346,
          "duration": 0.15000000000000568
        },
        {
          "name": "D4",
          "midi": 62,
          "time": 121.49999999999953,
          "velocity": 0.7086614173228346,
          "duration": 0.9000000000000057
        },
        {
          "name": "A#3",
          "midi": 58,
          "time": 121.49999999999953,
          "velocity": 0.7086614173228346,
          "duration": 0.9000000000000057
        },
        {
          "name": "F2",
          "midi": 41,
          "time": 121.49999999999953,
          "velocity": 0.7086614173228346,
          "duration": 0.29999999999999716
        },
        {
          "name": "F3",
          "midi": 53,
          "time": 121.87499999999953,
          "velocity": 0.7086614173228346,
          "duration": 0.15000000000000568
        },
        {
          "name": "F2",
          "midi": 41,
          "time": 122.06249999999953,
          "velocity": 0.7086614173228346,
          "duration": 0.15000000000000568
        },
        {
          "name": "F2",
          "midi": 41,
          "time": 122.24999999999953,
          "velocity": 0.7086614173228346,
          "duration": 0.15000000000000568
        },
        {
          "name": "C3",
          "midi": 48,
          "time": 122.43749999999953,
          "velocity": 0.7086614173228346,
          "duration": 0.29999999999999716
        },
        {
          "name": "G3",
          "midi": 55,
          "time": 122.43749999999953,
          "velocity": 0.7086614173228346,
          "duration": 0.45000000000000284
        },
        {
          "name": "C4",
          "midi": 60,
          "time": 122.43749999999953,
          "velocity": 0.7086614173228346,
          "duration": 0.45000000000000284
        },
        {
          "name": "E4",
          "midi": 64,
          "time": 122.43749999999953,
          "velocity": 0.7086614173228346,
          "duration": 0.45000000000000284
        },
        {
          "name": "F2",
          "midi": 41,
          "time": 122.81249999999953,
          "velocity": 0.7086614173228346,
          "duration": 0.15000000000000568
        },
        {
          "name": "C4",
          "midi": 60,
          "time": 122.99999999999953,
          "velocity": 0.7086614173228346,
          "duration": 0.9000000000000057
        },
        {
          "name": "F4",
          "midi": 65,
          "time": 122.99999999999953,
          "velocity": 0.7086614173228346,
          "duration": 0.9000000000000057
        },
        {
          "name": "A3",
          "midi": 57,
          "time": 122.99999999999953,
          "velocity": 0.7086614173228346,
          "duration": 0.9000000000000057
        },
        {
          "name": "F2",
          "midi": 41,
          "time": 122.99999999999953,
          "velocity": 0.7086614173228346,
          "duration": 0.29999999999999716
        },
        {
          "name": "F3",
          "midi": 53,
          "time": 123.37499999999953,
          "velocity": 0.7086614173228346,
          "duration": 0.15000000000000568
        },
        {
          "name": "F2",
          "midi": 41,
          "time": 123.56249999999953,
          "velocity": 0.7086614173228346,
          "duration": 0.15000000000000568
        },
        {
          "name": "F2",
          "midi": 41,
          "time": 123.74999999999953,
          "velocity": 0.7086614173228346,
          "duration": 0.30000000000001137
        },
        {
          "name": "F3",
          "midi": 53,
          "time": 124.12499999999955,
          "velocity": 0.7086614173228346,
          "duration": 0.15000000000000568
        },
        {
          "name": "C4",
          "midi": 60,
          "time": 124.12499999999955,
          "velocity": 0.7086614173228346,
          "duration": 0.29999999999999716
        },
        {
          "name": "F4",
          "midi": 65,
          "time": 124.12499999999955,
          "velocity": 0.7086614173228346,
          "duration": 0.29999999999999716
        },
        {
          "name": "A3",
          "midi": 57,
          "time": 124.12499999999955,
          "velocity": 0.7086614173228346,
          "duration": 0.29999999999999716
        },
        {
          "name": "F2",
          "midi": 41,
          "time": 124.31249999999955,
          "velocity": 0.7086614173228346,
          "duration": 0.14999999999999147
        },
        {
          "name": "G3",
          "midi": 55,
          "time": 124.49999999999953,
          "velocity": 0.7086614173228346,
          "duration": 0.5999999999999943
        },
        {
          "name": "E4",
          "midi": 64,
          "time": 124.49999999999953,
          "velocity": 0.7086614173228346,
          "duration": 0.5999999999999943
        },
        {
          "name": "C4",
          "midi": 60,
          "time": 124.49999999999953,
          "velocity": 0.7086614173228346,
          "duration": 0.5999999999999943
        },
        {
          "name": "F2",
          "midi": 41,
          "time": 124.49999999999953,
          "velocity": 0.7086614173228346,
          "duration": 0.29999999999999716
        },
        {
          "name": "F3",
          "midi": 53,
          "time": 124.87499999999953,
          "velocity": 0.7086614173228346,
          "duration": 0.15000000000000568
        },
        {
          "name": "F2",
          "midi": 41,
          "time": 125.06249999999953,
          "velocity": 0.7086614173228346,
          "duration": 0.14999999999999147
        },
        {
          "name": "F2",
          "midi": 41,
          "time": 125.24999999999952,
          "velocity": 0.7086614173228346,
          "duration": 0.29999999999999716
        },
        {
          "name": "G3",
          "midi": 55,
          "time": 125.43749999999952,
          "velocity": 0.7086614173228346,
          "duration": 0.14999999999999147
        },
        {
          "name": "F3",
          "midi": 53,
          "time": 125.6249999999995,
          "velocity": 0.7086614173228346,
          "duration": 0.15000000000000568
        },
        {
          "name": "E4",
          "midi": 64,
          "time": 125.6249999999995,
          "velocity": 0.7086614173228346,
          "duration": 0.29999999999999716
        },
        {
          "name": "C4",
          "midi": 60,
          "time": 125.6249999999995,
          "velocity": 0.7086614173228346,
          "duration": 0.29999999999999716
        },
        {
          "name": "F2",
          "midi": 41,
          "time": 125.8124999999995,
          "velocity": 0.7086614173228346,
          "duration": 0.14999999999999147
        },
        {
          "name": "C4",
          "midi": 60,
          "time": 125.99999999999949,
          "velocity": 0.7086614173228346,
          "duration": 0.5999999999999943
        },
        {
          "name": "F4",
          "midi": 65,
          "time": 125.99999999999949,
          "velocity": 0.7086614173228346,
          "duration": 0.5999999999999943
        },
        {
          "name": "A3",
          "midi": 57,
          "time": 125.99999999999949,
          "velocity": 0.7086614173228346,
          "duration": 0.5999999999999943
        },
        {
          "name": "F2",
          "midi": 41,
          "time": 125.99999999999949,
          "velocity": 0.7086614173228346,
          "duration": 0.29999999999999716
        },
        {
          "name": "F3",
          "midi": 53,
          "time": 126.37499999999949,
          "velocity": 0.7086614173228346,
          "duration": 0.15000000000000568
        },
        {
          "name": "F2",
          "midi": 41,
          "time": 126.56249999999949,
          "velocity": 0.7086614173228346,
          "duration": 0.14999999999999147
        },
        {
          "name": "F2",
          "midi": 41,
          "time": 126.74999999999947,
          "velocity": 0.7086614173228346,
          "duration": 0.29999999999999716
        },
        {
          "name": "A3",
          "midi": 57,
          "time": 126.93749999999947,
          "velocity": 0.7086614173228346,
          "duration": 0.14999999999999147
        },
        {
          "name": "F3",
          "midi": 53,
          "time": 127.12499999999946,
          "velocity": 0.7086614173228346,
          "duration": 0.15000000000000568
        },
        {
          "name": "C4",
          "midi": 60,
          "time": 127.12499999999946,
          "velocity": 0.7086614173228346,
          "duration": 0.15000000000000568
        },
        {
          "name": "F4",
          "midi": 65,
          "time": 127.31249999999946,
          "velocity": 0.7086614173228346,
          "duration": 0.15000000000000568
        },
        {
          "name": "F2",
          "midi": 41,
          "time": 127.31249999999946,
          "velocity": 0.7086614173228346,
          "duration": 0.15000000000000568
        },
        {
          "name": "D4",
          "midi": 62,
          "time": 127.49999999999946,
          "velocity": 0.7086614173228346,
          "duration": 0.9000000000000057
        },
        {
          "name": "A#3",
          "midi": 58,
          "time": 127.49999999999946,
          "velocity": 0.7086614173228346,
          "duration": 0.9000000000000057
        },
        {
          "name": "F2",
          "midi": 41,
          "time": 127.49999999999946,
          "velocity": 0.7086614173228346,
          "duration": 0.29999999999999716
        },
        {
          "name": "F3",
          "midi": 53,
          "time": 127.87499999999946,
          "velocity": 0.7086614173228346,
          "duration": 0.15000000000000568
        },
        {
          "name": "F2",
          "midi": 41,
          "time": 128.06249999999946,
          "velocity": 0.7086614173228346,
          "duration": 0.15000000000000568
        },
        {
          "name": "F2",
          "midi": 41,
          "time": 128.24999999999946,
          "velocity": 0.7086614173228346,
          "duration": 0.15000000000000568
        },
        {
          "name": "G3",
          "midi": 55,
          "time": 128.43749999999946,
          "velocity": 0.7086614173228346,
          "duration": 0.44999999999998863
        },
        {
          "name": "C3",
          "midi": 48,
          "time": 128.43749999999946,
          "velocity": 0.7086614173228346,
          "duration": 0.30000000000001137
        },
        {
          "name": "E4",
          "midi": 64,
          "time": 128.43749999999946,
          "velocity": 0.7086614173228346,
          "duration": 0.44999999999998863
        },
        {
          "name": "C4",
          "midi": 60,
          "time": 128.43749999999946,
          "velocity": 0.7086614173228346,
          "duration": 0.44999999999998863
        },
        {
          "name": "F2",
          "midi": 41,
          "time": 128.81249999999946,
          "velocity": 0.7086614173228346,
          "duration": 0.14999999999997726
        },
        {
          "name": "A3",
          "midi": 57,
          "time": 128.99999999999943,
          "velocity": 0.7086614173228346,
          "duration": 0.9000000000000057
        },
        {
          "name": "F4",
          "midi": 65,
          "time": 128.99999999999943,
          "velocity": 0.7086614173228346,
          "duration": 0.9000000000000057
        },
        {
          "name": "C4",
          "midi": 60,
          "time": 128.99999999999943,
          "velocity": 0.7086614173228346,
          "duration": 0.9000000000000057
        },
        {
          "name": "F2",
          "midi": 41,
          "time": 128.99999999999943,
          "velocity": 0.7086614173228346,
          "duration": 0.30000000000001137
        },
        {
          "name": "F3",
          "midi": 53,
          "time": 129.37499999999943,
          "velocity": 0.7086614173228346,
          "duration": 0.15000000000000568
        },
        {
          "name": "F2",
          "midi": 41,
          "time": 129.56249999999943,
          "velocity": 0.7086614173228346,
          "duration": 0.15000000000000568
        },
        {
          "name": "F2",
          "midi": 41,
          "time": 129.74999999999943,
          "velocity": 0.7086614173228346,
          "duration": 0.30000000000001137
        },
        {
          "name": "F3",
          "midi": 53,
          "time": 130.12499999999943,
          "velocity": 0.7086614173228346,
          "duration": 0.15000000000000568
        },
        {
          "name": "C4",
          "midi": 60,
          "time": 130.12499999999943,
          "velocity": 0.7086614173228346,
          "duration": 0.30000000000001137
        },
        {
          "name": "A3",
          "midi": 57,
          "time": 130.12499999999943,
          "velocity": 0.7086614173228346,
          "duration": 0.30000000000001137
        },
        {
          "name": "F4",
          "midi": 65,
          "time": 130.12499999999943,
          "velocity": 0.7086614173228346,
          "duration": 0.30000000000001137
        },
        {
          "name": "F2",
          "midi": 41,
          "time": 130.31249999999943,
          "velocity": 0.7086614173228346,
          "duration": 0.15000000000000568
        },
        {
          "name": "E4",
          "midi": 64,
          "time": 130.49999999999943,
          "velocity": 0.7086614173228346,
          "duration": 0.5999999999999943
        },
        {
          "name": "G3",
          "midi": 55,
          "time": 130.49999999999943,
          "velocity": 0.7086614173228346,
          "duration": 0.5999999999999943
        },
        {
          "name": "C4",
          "midi": 60,
          "time": 130.49999999999943,
          "velocity": 0.7086614173228346,
          "duration": 0.5999999999999943
        },
        {
          "name": "F2",
          "midi": 41,
          "time": 130.49999999999943,
          "velocity": 0.7086614173228346,
          "duration": 0.30000000000001137
        },
        {
          "name": "F3",
          "midi": 53,
          "time": 130.87499999999943,
          "velocity": 0.7086614173228346,
          "duration": 0.15000000000000568
        },
        {
          "name": "F2",
          "midi": 41,
          "time": 131.06249999999943,
          "velocity": 0.7086614173228346,
          "duration": 0.15000000000000568
        },
        {
          "name": "F2",
          "midi": 41,
          "time": 131.24999999999943,
          "velocity": 0.7086614173228346,
          "duration": 0.30000000000001137
        },
        {
          "name": "G3",
          "midi": 55,
          "time": 131.43749999999943,
          "velocity": 0.7086614173228346,
          "duration": 0.15000000000000568
        },
        {
          "name": "F3",
          "midi": 53,
          "time": 131.62499999999943,
          "velocity": 0.7086614173228346,
          "duration": 0.15000000000000568
        },
        {
          "name": "C4",
          "midi": 60,
          "time": 131.62499999999943,
          "velocity": 0.7086614173228346,
          "duration": 0.30000000000001137
        },
        {
          "name": "E4",
          "midi": 64,
          "time": 131.62499999999943,
          "velocity": 0.7086614173228346,
          "duration": 0.30000000000001137
        },
        {
          "name": "F2",
          "midi": 41,
          "time": 131.81249999999943,
          "velocity": 0.7086614173228346,
          "duration": 0.15000000000000568
        },
        {
          "name": "A3",
          "midi": 57,
          "time": 131.99999999999943,
          "velocity": 0.7086614173228346,
          "duration": 0.5999999999999943
        },
        {
          "name": "C4",
          "midi": 60,
          "time": 131.99999999999943,
          "velocity": 0.7086614173228346,
          "duration": 0.5999999999999943
        },
        {
          "name": "F4",
          "midi": 65,
          "time": 131.99999999999943,
          "velocity": 0.7086614173228346,
          "duration": 0.5999999999999943
        },
        {
          "name": "F2",
          "midi": 41,
          "time": 131.99999999999943,
          "velocity": 0.7086614173228346,
          "duration": 0.30000000000001137
        },
        {
          "name": "F3",
          "midi": 53,
          "time": 132.37499999999943,
          "velocity": 0.7086614173228346,
          "duration": 0.15000000000000568
        },
        {
          "name": "F2",
          "midi": 41,
          "time": 132.56249999999943,
          "velocity": 0.7086614173228346,
          "duration": 0.15000000000000568
        },
        {
          "name": "F2",
          "midi": 41,
          "time": 132.74999999999943,
          "velocity": 0.7086614173228346,
          "duration": 0.30000000000001137
        },
        {
          "name": "A3",
          "midi": 57,
          "time": 132.93749999999943,
          "velocity": 0.7086614173228346,
          "duration": 0.15000000000000568
        },
        {
          "name": "F3",
          "midi": 53,
          "time": 133.12499999999943,
          "velocity": 0.7086614173228346,
          "duration": 0.15000000000000568
        },
        {
          "name": "C4",
          "midi": 60,
          "time": 133.12499999999943,
          "velocity": 0.7086614173228346,
          "duration": 0.15000000000000568
        },
        {
          "name": "F2",
          "midi": 41,
          "time": 133.31249999999943,
          "velocity": 0.7086614173228346,
          "duration": 0.15000000000000568
        },
        {
          "name": "F4",
          "midi": 65,
          "time": 133.31249999999943,
          "velocity": 0.7086614173228346,
          "duration": 0.15000000000000568
        },
        {
          "name": "A#3",
          "midi": 58,
          "time": 133.49999999999943,
          "velocity": 0.7086614173228346,
          "duration": 0.9000000000000057
        },
        {
          "name": "D4",
          "midi": 62,
          "time": 133.49999999999943,
          "velocity": 0.7086614173228346,
          "duration": 0.9000000000000057
        },
        {
          "name": "F2",
          "midi": 41,
          "time": 133.49999999999943,
          "velocity": 0.7086614173228346,
          "duration": 0.30000000000001137
        },
        {
          "name": "F3",
          "midi": 53,
          "time": 133.87499999999943,
          "velocity": 0.7086614173228346,
          "duration": 0.15000000000000568
        },
        {
          "name": "F2",
          "midi": 41,
          "time": 134.06249999999943,
          "velocity": 0.7086614173228346,
          "duration": 0.15000000000000568
        },
        {
          "name": "F2",
          "midi": 41,
          "time": 134.24999999999943,
          "velocity": 0.7086614173228346,
          "duration": 0.15000000000000568
        },
        {
          "name": "C3",
          "midi": 48,
          "time": 134.43749999999943,
          "velocity": 0.7086614173228346,
          "duration": 0.30000000000001137
        },
        {
          "name": "G3",
          "midi": 55,
          "time": 134.43749999999943,
          "velocity": 0.7086614173228346,
          "duration": 0.44999999999998863
        },
        {
          "name": "C4",
          "midi": 60,
          "time": 134.43749999999943,
          "velocity": 0.7086614173228346,
          "duration": 0.44999999999998863
        },
        {
          "name": "E4",
          "midi": 64,
          "time": 134.43749999999943,
          "velocity": 0.7086614173228346,
          "duration": 0.44999999999998863
        },
        {
          "name": "F2",
          "midi": 41,
          "time": 134.81249999999943,
          "velocity": 0.7086614173228346,
          "duration": 0.14999999999997726
        },
        {
          "name": "F4",
          "midi": 65,
          "time": 134.9999999999994,
          "velocity": 0.7086614173228346,
          "duration": 0.9000000000000057
        },
        {
          "name": "A#3",
          "midi": 58,
          "time": 134.9999999999994,
          "velocity": 0.7086614173228346,
          "duration": 0.9000000000000057
        },
        {
          "name": "D4",
          "midi": 62,
          "time": 134.9999999999994,
          "velocity": 0.7086614173228346,
          "duration": 0.9000000000000057
        },
        {
          "name": "F2",
          "midi": 41,
          "time": 134.9999999999994,
          "velocity": 0.7086614173228346,
          "duration": 0.30000000000001137
        },
        {
          "name": "F3",
          "midi": 53,
          "time": 135.3749999999994,
          "velocity": 0.7086614173228346,
          "duration": 0.15000000000000568
        },
        {
          "name": "F2",
          "midi": 41,
          "time": 135.5624999999994,
          "velocity": 0.7086614173228346,
          "duration": 0.15000000000000568
        },
        {
          "name": "F2",
          "midi": 41,
          "time": 135.7499999999994,
          "velocity": 0.7086614173228346,
          "duration": 0.30000000000001137
        },
        {
          "name": "F3",
          "midi": 53,
          "time": 136.1249999999994,
          "velocity": 0.7086614173228346,
          "duration": 0.15000000000000568
        },
        {
          "name": "A#3",
          "midi": 58,
          "time": 136.1249999999994,
          "velocity": 0.7086614173228346,
          "duration": 0.30000000000001137
        },
        {
          "name": "F4",
          "midi": 65,
          "time": 136.1249999999994,
          "velocity": 0.7086614173228346,
          "duration": 0.30000000000001137
        },
        {
          "name": "D4",
          "midi": 62,
          "time": 136.1249999999994,
          "velocity": 0.7086614173228346,
          "duration": 0.30000000000001137
        },
        {
          "name": "F2",
          "midi": 41,
          "time": 136.3124999999994,
          "velocity": 0.7086614173228346,
          "duration": 0.15000000000000568
        },
        {
          "name": "G3",
          "midi": 55,
          "time": 136.4999999999994,
          "velocity": 0.7086614173228346,
          "duration": 0.9000000000000057
        },
        {
          "name": "C4",
          "midi": 60,
          "time": 136.4999999999994,
          "velocity": 0.7086614173228346,
          "duration": 0.9000000000000057
        },
        {
          "name": "E4",
          "midi": 64,
          "time": 136.4999999999994,
          "velocity": 0.7086614173228346,
          "duration": 0.9000000000000057
        },
        {
          "name": "A#3",
          "midi": 58,
          "time": 136.4999999999994,
          "velocity": 0.7086614173228346,
          "duration": 0.9000000000000057
        },
        {
          "name": "F2",
          "midi": 41,
          "time": 136.4999999999994,
          "velocity": 0.7086614173228346,
          "duration": 0.30000000000001137
        },
        {
          "name": "F3",
          "midi": 53,
          "time": 136.8749999999994,
          "velocity": 0.7086614173228346,
          "duration": 0.15000000000000568
        },
        {
          "name": "F2",
          "midi": 41,
          "time": 137.0624999999994,
          "velocity": 0.7086614173228346,
          "duration": 0.15000000000000568
        },
        {
          "name": "F2",
          "midi": 41,
          "time": 137.2499999999994,
          "velocity": 0.7086614173228346,
          "duration": 0.30000000000001137
        },
        {
          "name": "G3",
          "midi": 55,
          "time": 137.4374999999994,
          "velocity": 0.7086614173228346,
          "duration": 0.15000000000000568
        },
        {
          "name": "F3",
          "midi": 53,
          "time": 137.6249999999994,
          "velocity": 0.7086614173228346,
          "duration": 0.15000000000000568
        },
        {
          "name": "C4",
          "midi": 60,
          "time": 137.6249999999994,
          "velocity": 0.7086614173228346,
          "duration": 0.30000000000001137
        },
        {
          "name": "E4",
          "midi": 64,
          "time": 137.6249999999994,
          "velocity": 0.7086614173228346,
          "duration": 0.30000000000001137
        },
        {
          "name": "F2",
          "midi": 41,
          "time": 137.8124999999994,
          "velocity": 0.7086614173228346,
          "duration": 0.15000000000000568
        },
        {
          "name": "A3",
          "midi": 57,
          "time": 137.9999999999994,
          "velocity": 0.7086614173228346,
          "duration": 0.5999999999999943
        },
        {
          "name": "C4",
          "midi": 60,
          "time": 137.9999999999994,
          "velocity": 0.7086614173228346,
          "duration": 0.5999999999999943
        },
        {
          "name": "F4",
          "midi": 65,
          "time": 137.9999999999994,
          "velocity": 0.7086614173228346,
          "duration": 0.5999999999999943
        },
        {
          "name": "F2",
          "midi": 41,
          "time": 137.9999999999994,
          "velocity": 0.7086614173228346,
          "duration": 0.30000000000001137
        },
        {
          "name": "F3",
          "midi": 53,
          "time": 138.3749999999994,
          "velocity": 0.7086614173228346,
          "duration": 0.15000000000000568
        },
        {
          "name": "F2",
          "midi": 41,
          "time": 138.5624999999994,
          "velocity": 0.7086614173228346,
          "duration": 0.15000000000000568
        },
        {
          "name": "F2",
          "midi": 41,
          "time": 138.7499999999994,
          "velocity": 0.7086614173228346,
          "duration": 0.30000000000001137
        },
        {
          "name": "A3",
          "midi": 57,
          "time": 138.9374999999994,
          "velocity": 0.7086614173228346,
          "duration": 0.15000000000000568
        },
        {
          "name": "C4",
          "midi": 60,
          "time": 139.1249999999994,
          "velocity": 0.7086614173228346,
          "duration": 0.15000000000000568
        },
        {
          "name": "F3",
          "midi": 53,
          "time": 139.1249999999994,
          "velocity": 0.7086614173228346,
          "duration": 0.15000000000000568
        },
        {
          "name": "F2",
          "midi": 41,
          "time": 139.3124999999994,
          "velocity": 0.7086614173228346,
          "duration": 0.15000000000000568
        },
        {
          "name": "F4",
          "midi": 65,
          "time": 139.3124999999994,
          "velocity": 0.7086614173228346,
          "duration": 0.15000000000000568
        },
        {
          "name": "D4",
          "midi": 62,
          "time": 139.4999999999994,
          "velocity": 0.7086614173228346,
          "duration": 0.9000000000000057
        },
        {
          "name": "A#3",
          "midi": 58,
          "time": 139.4999999999994,
          "velocity": 0.7086614173228346,
          "duration": 0.9000000000000057
        },
        {
          "name": "F2",
          "midi": 41,
          "time": 139.4999999999994,
          "velocity": 0.7086614173228346,
          "duration": 0.30000000000001137
        },
        {
          "name": "F3",
          "midi": 53,
          "time": 139.8749999999994,
          "velocity": 0.7086614173228346,
          "duration": 0.15000000000000568
        },
        {
          "name": "F2",
          "midi": 41,
          "time": 140.0624999999994,
          "velocity": 0.7086614173228346,
          "duration": 0.15000000000000568
        },
        {
          "name": "F2",
          "midi": 41,
          "time": 140.2499999999994,
          "velocity": 0.7086614173228346,
          "duration": 0.15000000000000568
        },
        {
          "name": "E4",
          "midi": 64,
          "time": 140.4374999999994,
          "velocity": 0.7086614173228346,
          "duration": 0.44999999999998863
        },
        {
          "name": "C3",
          "midi": 48,
          "time": 140.4374999999994,
          "velocity": 0.7086614173228346,
          "duration": 0.30000000000001137
        },
        {
          "name": "G3",
          "midi": 55,
          "time": 140.4374999999994,
          "velocity": 0.7086614173228346,
          "duration": 0.44999999999998863
        },
        {
          "name": "C4",
          "midi": 60,
          "time": 140.4374999999994,
          "velocity": 0.7086614173228346,
          "duration": 0.44999999999998863
        },
        {
          "name": "F2",
          "midi": 41,
          "time": 140.8124999999994,
          "velocity": 0.7086614173228346,
          "duration": 0.14999999999997726
        },
        {
          "name": "C4",
          "midi": 60,
          "time": 140.99999999999937,
          "velocity": 0.7086614173228346,
          "duration": 0.9000000000000057
        },
        {
          "name": "D#4",
          "midi": 63,
          "time": 140.99999999999937,
          "velocity": 0.7086614173228346,
          "duration": 0.9000000000000057
        },
        {
          "name": "G#4",
          "midi": 68,
          "time": 140.99999999999937,
          "velocity": 0.7086614173228346,
          "duration": 0.9000000000000057
        },
        {
          "name": "G#2",
          "midi": 44,
          "time": 140.99999999999937,
          "velocity": 0.7086614173228346,
          "duration": 0.30000000000001137
        },
        {
          "name": "G#3",
          "midi": 56,
          "time": 141.37499999999937,
          "velocity": 0.7086614173228346,
          "duration": 0.15000000000000568
        },
        {
          "name": "G#2",
          "midi": 44,
          "time": 141.56249999999937,
          "velocity": 0.7086614173228346,
          "duration": 0.15000000000000568
        },
        {
          "name": "G#2",
          "midi": 44,
          "time": 141.74999999999937,
          "velocity": 0.7086614173228346,
          "duration": 0.30000000000001137
        },
        {
          "name": "G#3",
          "midi": 56,
          "time": 142.12499999999937,
          "velocity": 0.7086614173228346,
          "duration": 0.15000000000000568
        },
        {
          "name": "C4",
          "midi": 60,
          "time": 142.12499999999937,
          "velocity": 0.7086614173228346,
          "duration": 0.30000000000001137
        },
        {
          "name": "D#4",
          "midi": 63,
          "time": 142.12499999999937,
          "velocity": 0.7086614173228346,
          "duration": 0.30000000000001137
        },
        {
          "name": "G#4",
          "midi": 68,
          "time": 142.12499999999937,
          "velocity": 0.7086614173228346,
          "duration": 0.30000000000001137
        },
        {
          "name": "G#2",
          "midi": 44,
          "time": 142.31249999999937,
          "velocity": 0.7086614173228346,
          "duration": 0.15000000000000568
        },
        {
          "name": "D#4",
          "midi": 63,
          "time": 142.49999999999937,
          "velocity": 0.7086614173228346,
          "duration": 0.5999999999999943
        },
        {
          "name": "G4",
          "midi": 67,
          "time": 142.49999999999937,
          "velocity": 0.7086614173228346,
          "duration": 0.5999999999999943
        },
        {
          "name": "A#3",
          "midi": 58,
          "time": 142.49999999999937,
          "velocity": 0.7086614173228346,
          "duration": 0.5999999999999943
        },
        {
          "name": "G#2",
          "midi": 44,
          "time": 142.49999999999937,
          "velocity": 0.7086614173228346,
          "duration": 0.30000000000001137
        },
        {
          "name": "G#3",
          "midi": 56,
          "time": 142.87499999999937,
          "velocity": 0.7086614173228346,
          "duration": 0.15000000000000568
        },
        {
          "name": "G#2",
          "midi": 44,
          "time": 143.06249999999937,
          "velocity": 0.7086614173228346,
          "duration": 0.15000000000000568
        },
        {
          "name": "G#2",
          "midi": 44,
          "time": 143.24999999999937,
          "velocity": 0.7086614173228346,
          "duration": 0.30000000000001137
        },
        {
          "name": "A#3",
          "midi": 58,
          "time": 143.43749999999937,
          "velocity": 0.7086614173228346,
          "duration": 0.15000000000000568
        },
        {
          "name": "G#3",
          "midi": 56,
          "time": 143.62499999999937,
          "velocity": 0.7086614173228346,
          "duration": 0.15000000000000568
        },
        {
          "name": "G4",
          "midi": 67,
          "time": 143.62499999999937,
          "velocity": 0.7086614173228346,
          "duration": 0.30000000000001137
        },
        {
          "name": "D#4",
          "midi": 63,
          "time": 143.62499999999937,
          "velocity": 0.7086614173228346,
          "duration": 0.30000000000001137
        },
        {
          "name": "G#2",
          "midi": 44,
          "time": 143.81249999999937,
          "velocity": 0.7086614173228346,
          "duration": 0.15000000000000568
        },
        {
          "name": "C4",
          "midi": 60,
          "time": 143.99999999999937,
          "velocity": 0.7086614173228346,
          "duration": 0.5999999999999943
        },
        {
          "name": "D#4",
          "midi": 63,
          "time": 143.99999999999937,
          "velocity": 0.7086614173228346,
          "duration": 0.5999999999999943
        },
        {
          "name": "G#4",
          "midi": 68,
          "time": 143.99999999999937,
          "velocity": 0.7086614173228346,
          "duration": 0.5999999999999943
        },
        {
          "name": "G#2",
          "midi": 44,
          "time": 143.99999999999937,
          "velocity": 0.7086614173228346,
          "duration": 0.30000000000001137
        },
        {
          "name": "G#3",
          "midi": 56,
          "time": 144.37499999999937,
          "velocity": 0.7086614173228346,
          "duration": 0.15000000000000568
        },
        {
          "name": "G#2",
          "midi": 44,
          "time": 144.56249999999937,
          "velocity": 0.7086614173228346,
          "duration": 0.15000000000000568
        },
        {
          "name": "G#2",
          "midi": 44,
          "time": 144.74999999999937,
          "velocity": 0.7086614173228346,
          "duration": 0.30000000000001137
        },
        {
          "name": "C4",
          "midi": 60,
          "time": 144.93749999999937,
          "velocity": 0.7086614173228346,
          "duration": 0.15000000000000568
        },
        {
          "name": "G#3",
          "midi": 56,
          "time": 145.12499999999937,
          "velocity": 0.7086614173228346,
          "duration": 0.15000000000000568
        },
        {
          "name": "D#4",
          "midi": 63,
          "time": 145.12499999999937,
          "velocity": 0.7086614173228346,
          "duration": 0.15000000000000568
        },
        {
          "name": "G#2",
          "midi": 44,
          "time": 145.31249999999937,
          "velocity": 0.7086614173228346,
          "duration": 0.15000000000000568
        },
        {
          "name": "G#4",
          "midi": 68,
          "time": 145.31249999999937,
          "velocity": 0.7086614173228346,
          "duration": 0.15000000000000568
        },
        {
          "name": "G#2",
          "midi": 44,
          "time": 145.49999999999937,
          "velocity": 0.7086614173228346,
          "duration": 0.30000000000001137
        },
        {
          "name": "C#4",
          "midi": 61,
          "time": 145.49999999999937,
          "velocity": 0.7086614173228346,
          "duration": 0.9000000000000057
        },
        {
          "name": "F4",
          "midi": 65,
          "time": 145.49999999999937,
          "velocity": 0.7086614173228346,
          "duration": 0.9000000000000057
        },
        {
          "name": "G#3",
          "midi": 56,
          "time": 145.87499999999937,
          "velocity": 0.7086614173228346,
          "duration": 0.15000000000000568
        },
        {
          "name": "G#2",
          "midi": 44,
          "time": 146.06249999999937,
          "velocity": 0.7086614173228346,
          "duration": 0.15000000000000568
        },
        {
          "name": "G#2",
          "midi": 44,
          "time": 146.24999999999937,
          "velocity": 0.7086614173228346,
          "duration": 0.15000000000000568
        },
        {
          "name": "D#3",
          "midi": 51,
          "time": 146.43749999999937,
          "velocity": 0.7086614173228346,
          "duration": 0.30000000000001137
        },
        {
          "name": "G4",
          "midi": 67,
          "time": 146.43749999999937,
          "velocity": 0.7086614173228346,
          "duration": 0.44999999999998863
        },
        {
          "name": "D#4",
          "midi": 63,
          "time": 146.43749999999937,
          "velocity": 0.7086614173228346,
          "duration": 0.44999999999998863
        },
        {
          "name": "A#3",
          "midi": 58,
          "time": 146.43749999999937,
          "velocity": 0.7086614173228346,
          "duration": 0.44999999999998863
        },
        {
          "name": "G#2",
          "midi": 44,
          "time": 146.81249999999937,
          "velocity": 0.7086614173228346,
          "duration": 0.14999999999997726
        },
        {
          "name": "G#4",
          "midi": 68,
          "time": 146.99999999999935,
          "velocity": 0.7086614173228346,
          "duration": 0.9000000000000057
        },
        {
          "name": "D#4",
          "midi": 63,
          "time": 146.99999999999935,
          "velocity": 0.7086614173228346,
          "duration": 0.9000000000000057
        },
        {
          "name": "C4",
          "midi": 60,
          "time": 146.99999999999935,
          "velocity": 0.7086614173228346,
          "duration": 0.9000000000000057
        },
        {
          "name": "G#2",
          "midi": 44,
          "time": 146.99999999999935,
          "velocity": 0.7086614173228346,
          "duration": 0.30000000000001137
        },
        {
          "name": "G#3",
          "midi": 56,
          "time": 147.37499999999935,
          "velocity": 0.7086614173228346,
          "duration": 0.15000000000000568
        },
        {
          "name": "G#2",
          "midi": 44,
          "time": 147.56249999999935,
          "velocity": 0.7086614173228346,
          "duration": 0.15000000000000568
        },
        {
          "name": "G#2",
          "midi": 44,
          "time": 147.74999999999935,
          "velocity": 0.7086614173228346,
          "duration": 0.30000000000001137
        },
        {
          "name": "G#3",
          "midi": 56,
          "time": 148.12499999999935,
          "velocity": 0.7086614173228346,
          "duration": 0.15000000000000568
        },
        {
          "name": "C4",
          "midi": 60,
          "time": 148.12499999999935,
          "velocity": 0.7086614173228346,
          "duration": 0.30000000000001137
        },
        {
          "name": "G#4",
          "midi": 68,
          "time": 148.12499999999935,
          "velocity": 0.7086614173228346,
          "duration": 0.30000000000001137
        },
        {
          "name": "D#4",
          "midi": 63,
          "time": 148.12499999999935,
          "velocity": 0.7086614173228346,
          "duration": 0.30000000000001137
        },
        {
          "name": "G#2",
          "midi": 44,
          "time": 148.31249999999935,
          "velocity": 0.7086614173228346,
          "duration": 0.15000000000000568
        },
        {
          "name": "G4",
          "midi": 67,
          "time": 148.49999999999935,
          "velocity": 0.7086614173228346,
          "duration": 0.5999999999999943
        },
        {
          "name": "A#3",
          "midi": 58,
          "time": 148.49999999999935,
          "velocity": 0.7086614173228346,
          "duration": 0.5999999999999943
        },
        {
          "name": "D#4",
          "midi": 63,
          "time": 148.49999999999935,
          "velocity": 0.7086614173228346,
          "duration": 0.5999999999999943
        },
        {
          "name": "G#2",
          "midi": 44,
          "time": 148.49999999999935,
          "velocity": 0.7086614173228346,
          "duration": 0.30000000000001137
        },
        {
          "name": "G#3",
          "midi": 56,
          "time": 148.87499999999935,
          "velocity": 0.7086614173228346,
          "duration": 0.15000000000000568
        },
        {
          "name": "G#2",
          "midi": 44,
          "time": 149.06249999999935,
          "velocity": 0.7086614173228346,
          "duration": 0.15000000000000568
        },
        {
          "name": "G#2",
          "midi": 44,
          "time": 149.24999999999935,
          "velocity": 0.7086614173228346,
          "duration": 0.30000000000001137
        },
        {
          "name": "A#3",
          "midi": 58,
          "time": 149.43749999999935,
          "velocity": 0.7086614173228346,
          "duration": 0.15000000000000568
        },
        {
          "name": "G#3",
          "midi": 56,
          "time": 149.62499999999935,
          "velocity": 0.7086614173228346,
          "duration": 0.15000000000000568
        },
        {
          "name": "D#4",
          "midi": 63,
          "time": 149.62499999999935,
          "velocity": 0.7086614173228346,
          "duration": 0.30000000000001137
        },
        {
          "name": "G4",
          "midi": 67,
          "time": 149.62499999999935,
          "velocity": 0.7086614173228346,
          "duration": 0.30000000000001137
        },
        {
          "name": "G#2",
          "midi": 44,
          "time": 149.81249999999935,
          "velocity": 0.7086614173228346,
          "duration": 0.15000000000000568
        },
        {
          "name": "G#4",
          "midi": 68,
          "time": 149.99999999999935,
          "velocity": 0.7086614173228346,
          "duration": 0.5999999999999943
        },
        {
          "name": "C4",
          "midi": 60,
          "time": 149.99999999999935,
          "velocity": 0.7086614173228346,
          "duration": 0.5999999999999943
        },
        {
          "name": "D#4",
          "midi": 63,
          "time": 149.99999999999935,
          "velocity": 0.7086614173228346,
          "duration": 0.5999999999999943
        },
        {
          "name": "G#2",
          "midi": 44,
          "time": 149.99999999999935,
          "velocity": 0.7086614173228346,
          "duration": 0.30000000000001137
        },
        {
          "name": "G#3",
          "midi": 56,
          "time": 150.37499999999935,
          "velocity": 0.7086614173228346,
          "duration": 0.15000000000000568
        },
        {
          "name": "G#2",
          "midi": 44,
          "time": 150.56249999999935,
          "velocity": 0.7086614173228346,
          "duration": 0.15000000000000568
        },
        {
          "name": "G#2",
          "midi": 44,
          "time": 150.74999999999935,
          "velocity": 0.7086614173228346,
          "duration": 0.30000000000001137
        },
        {
          "name": "C4",
          "midi": 60,
          "time": 150.93749999999935,
          "velocity": 0.7086614173228346,
          "duration": 0.15000000000000568
        },
        {
          "name": "G#3",
          "midi": 56,
          "time": 151.12499999999935,
          "velocity": 0.7086614173228346,
          "duration": 0.15000000000000568
        },
        {
          "name": "D#4",
          "midi": 63,
          "time": 151.12499999999935,
          "velocity": 0.7086614173228346,
          "duration": 0.15000000000000568
        },
        {
          "name": "G#2",
          "midi": 44,
          "time": 151.31249999999935,
          "velocity": 0.7086614173228346,
          "duration": 0.15000000000000568
        },
        {
          "name": "G#4",
          "midi": 68,
          "time": 151.31249999999935,
          "velocity": 0.7086614173228346,
          "duration": 0.15000000000000568
        },
        {
          "name": "C#4",
          "midi": 61,
          "time": 151.49999999999935,
          "velocity": 0.7086614173228346,
          "duration": 0.9000000000000057
        },
        {
          "name": "F4",
          "midi": 65,
          "time": 151.49999999999935,
          "velocity": 0.7086614173228346,
          "duration": 0.9000000000000057
        },
        {
          "name": "G#2",
          "midi": 44,
          "time": 151.49999999999935,
          "velocity": 0.7086614173228346,
          "duration": 0.30000000000001137
        },
        {
          "name": "G#3",
          "midi": 56,
          "time": 151.87499999999935,
          "velocity": 0.7086614173228346,
          "duration": 0.15000000000000568
        },
        {
          "name": "G#2",
          "midi": 44,
          "time": 152.06249999999935,
          "velocity": 0.7086614173228346,
          "duration": 0.15000000000000568
        },
        {
          "name": "G#2",
          "midi": 44,
          "time": 152.24999999999935,
          "velocity": 0.7086614173228346,
          "duration": 0.15000000000000568
        },
        {
          "name": "G4",
          "midi": 67,
          "time": 152.43749999999935,
          "velocity": 0.7086614173228346,
          "duration": 0.44999999999998863
        },
        {
          "name": "D#4",
          "midi": 63,
          "time": 152.43749999999935,
          "velocity": 0.7086614173228346,
          "duration": 0.44999999999998863
        },
        {
          "name": "D#3",
          "midi": 51,
          "time": 152.43749999999935,
          "velocity": 0.7086614173228346,
          "duration": 0.30000000000001137
        },
        {
          "name": "A#3",
          "midi": 58,
          "time": 152.43749999999935,
          "velocity": 0.7086614173228346,
          "duration": 0.44999999999998863
        },
        {
          "name": "G#2",
          "midi": 44,
          "time": 152.81249999999935,
          "velocity": 0.7086614173228346,
          "duration": 0.14999999999997726
        },
        {
          "name": "C4",
          "midi": 60,
          "time": 152.99999999999932,
          "velocity": 0.7086614173228346,
          "duration": 0.9000000000000057
        },
        {
          "name": "G#4",
          "midi": 68,
          "time": 152.99999999999932,
          "velocity": 0.7086614173228346,
          "duration": 0.9000000000000057
        },
        {
          "name": "D#4",
          "midi": 63,
          "time": 152.99999999999932,
          "velocity": 0.7086614173228346,
          "duration": 0.9000000000000057
        },
        {
          "name": "G#2",
          "midi": 44,
          "time": 152.99999999999932,
          "velocity": 0.7086614173228346,
          "duration": 0.30000000000001137
        },
        {
          "name": "G#3",
          "midi": 56,
          "time": 153.37499999999932,
          "velocity": 0.7086614173228346,
          "duration": 0.15000000000000568
        },
        {
          "name": "G#2",
          "midi": 44,
          "time": 153.56249999999932,
          "velocity": 0.7086614173228346,
          "duration": 0.15000000000000568
        },
        {
          "name": "G#2",
          "midi": 44,
          "time": 153.74999999999932,
          "velocity": 0.7086614173228346,
          "duration": 0.30000000000001137
        },
        {
          "name": "G#3",
          "midi": 56,
          "time": 154.12499999999932,
          "velocity": 0.7086614173228346,
          "duration": 0.15000000000000568
        },
        {
          "name": "C4",
          "midi": 60,
          "time": 154.12499999999932,
          "velocity": 0.7086614173228346,
          "duration": 0.30000000000001137
        },
        {
          "name": "D#4",
          "midi": 63,
          "time": 154.12499999999932,
          "velocity": 0.7086614173228346,
          "duration": 0.30000000000001137
        },
        {
          "name": "G#4",
          "midi": 68,
          "time": 154.12499999999932,
          "velocity": 0.7086614173228346,
          "duration": 0.30000000000001137
        },
        {
          "name": "G#2",
          "midi": 44,
          "time": 154.31249999999932,
          "velocity": 0.7086614173228346,
          "duration": 0.15000000000000568
        },
        {
          "name": "A#3",
          "midi": 58,
          "time": 154.49999999999932,
          "velocity": 0.7086614173228346,
          "duration": 0.5999999999999943
        },
        {
          "name": "G4",
          "midi": 67,
          "time": 154.49999999999932,
          "velocity": 0.7086614173228346,
          "duration": 0.5999999999999943
        },
        {
          "name": "D#4",
          "midi": 63,
          "time": 154.49999999999932,
          "velocity": 0.7086614173228346,
          "duration": 0.5999999999999943
        },
        {
          "name": "G#2",
          "midi": 44,
          "time": 154.49999999999932,
          "velocity": 0.7086614173228346,
          "duration": 0.30000000000001137
        },
        {
          "name": "G#3",
          "midi": 56,
          "time": 154.87499999999932,
          "velocity": 0.7086614173228346,
          "duration": 0.15000000000000568
        },
        {
          "name": "G#2",
          "midi": 44,
          "time": 155.06249999999932,
          "velocity": 0.7086614173228346,
          "duration": 0.15000000000000568
        },
        {
          "name": "G#2",
          "midi": 44,
          "time": 155.24999999999932,
          "velocity": 0.7086614173228346,
          "duration": 0.30000000000001137
        },
        {
          "name": "A#3",
          "midi": 58,
          "time": 155.43749999999932,
          "velocity": 0.7086614173228346,
          "duration": 0.15000000000000568
        },
        {
          "name": "G#3",
          "midi": 56,
          "time": 155.62499999999932,
          "velocity": 0.7086614173228346,
          "duration": 0.15000000000000568
        },
        {
          "name": "G4",
          "midi": 67,
          "time": 155.62499999999932,
          "velocity": 0.7086614173228346,
          "duration": 0.30000000000001137
        },
        {
          "name": "D#4",
          "midi": 63,
          "time": 155.62499999999932,
          "velocity": 0.7086614173228346,
          "duration": 0.30000000000001137
        },
        {
          "name": "G#2",
          "midi": 44,
          "time": 155.81249999999932,
          "velocity": 0.7086614173228346,
          "duration": 0.15000000000000568
        },
        {
          "name": "D#4",
          "midi": 63,
          "time": 155.99999999999932,
          "velocity": 0.7086614173228346,
          "duration": 0.5999999999999943
        },
        {
          "name": "C4",
          "midi": 60,
          "time": 155.99999999999932,
          "velocity": 0.7086614173228346,
          "duration": 0.5999999999999943
        },
        {
          "name": "G#4",
          "midi": 68,
          "time": 155.99999999999932,
          "velocity": 0.7086614173228346,
          "duration": 0.5999999999999943
        },
        {
          "name": "G#2",
          "midi": 44,
          "time": 155.99999999999932,
          "velocity": 0.7086614173228346,
          "duration": 0.30000000000001137
        },
        {
          "name": "G#3",
          "midi": 56,
          "time": 156.37499999999932,
          "velocity": 0.7086614173228346,
          "duration": 0.15000000000000568
        },
        {
          "name": "G#2",
          "midi": 44,
          "time": 156.56249999999932,
          "velocity": 0.7086614173228346,
          "duration": 0.15000000000000568
        },
        {
          "name": "G#2",
          "midi": 44,
          "time": 156.74999999999932,
          "velocity": 0.7086614173228346,
          "duration": 0.30000000000001137
        },
        {
          "name": "C4",
          "midi": 60,
          "time": 156.93749999999932,
          "velocity": 0.7086614173228346,
          "duration": 0.15000000000000568
        },
        {
          "name": "G#3",
          "midi": 56,
          "time": 157.12499999999932,
          "velocity": 0.7086614173228346,
          "duration": 0.15000000000000568
        },
        {
          "name": "D#4",
          "midi": 63,
          "time": 157.12499999999932,
          "velocity": 0.7086614173228346,
          "duration": 0.15000000000000568
        },
        {
          "name": "G#4",
          "midi": 68,
          "time": 157.31249999999932,
          "velocity": 0.7086614173228346,
          "duration": 0.15000000000000568
        },
        {
          "name": "G#2",
          "midi": 44,
          "time": 157.31249999999932,
          "velocity": 0.7086614173228346,
          "duration": 0.15000000000000568
        },
        {
          "name": "F4",
          "midi": 65,
          "time": 157.49999999999932,
          "velocity": 0.7086614173228346,
          "duration": 0.9000000000000057
        },
        {
          "name": "C#4",
          "midi": 61,
          "time": 157.49999999999932,
          "velocity": 0.7086614173228346,
          "duration": 0.9000000000000057
        },
        {
          "name": "G#2",
          "midi": 44,
          "time": 157.49999999999932,
          "velocity": 0.7086614173228346,
          "duration": 0.30000000000001137
        },
        {
          "name": "G#3",
          "midi": 56,
          "time": 157.87499999999932,
          "velocity": 0.7086614173228346,
          "duration": 0.15000000000000568
        },
        {
          "name": "G#2",
          "midi": 44,
          "time": 158.06249999999932,
          "velocity": 0.7086614173228346,
          "duration": 0.15000000000000568
        },
        {
          "name": "G#2",
          "midi": 44,
          "time": 158.24999999999932,
          "velocity": 0.7086614173228346,
          "duration": 0.15000000000000568
        },
        {
          "name": "D#3",
          "midi": 51,
          "time": 158.43749999999932,
          "velocity": 0.7086614173228346,
          "duration": 0.30000000000001137
        },
        {
          "name": "A#3",
          "midi": 58,
          "time": 158.43749999999932,
          "velocity": 0.7086614173228346,
          "duration": 0.44999999999998863
        },
        {
          "name": "G4",
          "midi": 67,
          "time": 158.43749999999932,
          "velocity": 0.7086614173228346,
          "duration": 0.44999999999998863
        },
        {
          "name": "D#4",
          "midi": 63,
          "time": 158.43749999999932,
          "velocity": 0.7086614173228346,
          "duration": 0.44999999999998863
        },
        {
          "name": "G#2",
          "midi": 44,
          "time": 158.81249999999932,
          "velocity": 0.7086614173228346,
          "duration": 0.14999999999997726
        },
        {
          "name": "F4",
          "midi": 65,
          "time": 158.9999999999993,
          "velocity": 0.7086614173228346,
          "duration": 0.9000000000000057
        },
        {
          "name": "G#4",
          "midi": 68,
          "time": 158.9999999999993,
          "velocity": 0.7086614173228346,
          "duration": 0.9000000000000057
        },
        {
          "name": "C#4",
          "midi": 61,
          "time": 158.9999999999993,
          "velocity": 0.7086614173228346,
          "duration": 0.9000000000000057
        },
        {
          "name": "G#2",
          "midi": 44,
          "time": 158.9999999999993,
          "velocity": 0.7086614173228346,
          "duration": 0.30000000000001137
        },
        {
          "name": "G#3",
          "midi": 56,
          "time": 159.3749999999993,
          "velocity": 0.7086614173228346,
          "duration": 0.15000000000000568
        },
        {
          "name": "G#2",
          "midi": 44,
          "time": 159.5624999999993,
          "velocity": 0.7086614173228346,
          "duration": 0.15000000000000568
        },
        {
          "name": "G#2",
          "midi": 44,
          "time": 159.7499999999993,
          "velocity": 0.7086614173228346,
          "duration": 0.30000000000001137
        },
        {
          "name": "G#3",
          "midi": 56,
          "time": 160.1249999999993,
          "velocity": 0.7086614173228346,
          "duration": 0.15000000000000568
        },
        {
          "name": "F4",
          "midi": 65,
          "time": 160.1249999999993,
          "velocity": 0.7086614173228346,
          "duration": 0.30000000000001137
        },
        {
          "name": "G#4",
          "midi": 68,
          "time": 160.1249999999993,
          "velocity": 0.7086614173228346,
          "duration": 0.30000000000001137
        },
        {
          "name": "C#4",
          "midi": 61,
          "time": 160.1249999999993,
          "velocity": 0.7086614173228346,
          "duration": 0.30000000000001137
        },
        {
          "name": "G#2",
          "midi": 44,
          "time": 160.3124999999993,
          "velocity": 0.7086614173228346,
          "duration": 0.15000000000000568
        },
        {
          "name": "D#4",
          "midi": 63,
          "time": 160.4999999999993,
          "velocity": 0.7086614173228346,
          "duration": 0.9000000000000057
        },
        {
          "name": "G4",
          "midi": 67,
          "time": 160.4999999999993,
          "velocity": 0.7086614173228346,
          "duration": 0.9000000000000057
        },
        {
          "name": "A#3",
          "midi": 58,
          "time": 160.4999999999993,
          "velocity": 0.7086614173228346,
          "duration": 0.9000000000000057
        },
        {
          "name": "G#2",
          "midi": 44,
          "time": 160.4999999999993,
          "velocity": 0.7086614173228346,
          "duration": 0.30000000000001137
        },
        {
          "name": "G#3",
          "midi": 56,
          "time": 160.8749999999993,
          "velocity": 0.7086614173228346,
          "duration": 0.15000000000000568
        },
        {
          "name": "G#2",
          "midi": 44,
          "time": 161.0624999999993,
          "velocity": 0.7086614173228346,
          "duration": 0.15000000000000568
        },
        {
          "name": "G#2",
          "midi": 44,
          "time": 161.2499999999993,
          "velocity": 0.7086614173228346,
          "duration": 0.30000000000001137
        },
        {
          "name": "A#3",
          "midi": 58,
          "time": 161.4374999999993,
          "velocity": 0.7086614173228346,
          "duration": 0.15000000000000568
        },
        {
          "name": "G#3",
          "midi": 56,
          "time": 161.6249999999993,
          "velocity": 0.7086614173228346,
          "duration": 0.15000000000000568
        },
        {
          "name": "D#4",
          "midi": 63,
          "time": 161.6249999999993,
          "velocity": 0.7086614173228346,
          "duration": 0.30000000000001137
        },
        {
          "name": "G4",
          "midi": 67,
          "time": 161.6249999999993,
          "velocity": 0.7086614173228346,
          "duration": 0.30000000000001137
        },
        {
          "name": "G#2",
          "midi": 44,
          "time": 161.8124999999993,
          "velocity": 0.7086614173228346,
          "duration": 0.15000000000000568
        },
        {
          "name": "D#4",
          "midi": 63,
          "time": 161.9999999999993,
          "velocity": 0.7086614173228346,
          "duration": 0.5999999999999943
        },
        {
          "name": "C4",
          "midi": 60,
          "time": 161.9999999999993,
          "velocity": 0.7086614173228346,
          "duration": 0.5999999999999943
        },
        {
          "name": "G#4",
          "midi": 68,
          "time": 161.9999999999993,
          "velocity": 0.7086614173228346,
          "duration": 0.5999999999999943
        },
        {
          "name": "G#2",
          "midi": 44,
          "time": 161.9999999999993,
          "velocity": 0.7086614173228346,
          "duration": 0.30000000000001137
        },
        {
          "name": "G#3",
          "midi": 56,
          "time": 162.3749999999993,
          "velocity": 0.7086614173228346,
          "duration": 0.15000000000000568
        },
        {
          "name": "G#2",
          "midi": 44,
          "time": 162.5624999999993,
          "velocity": 0.7086614173228346,
          "duration": 0.15000000000000568
        },
        {
          "name": "G#2",
          "midi": 44,
          "time": 162.7499999999993,
          "velocity": 0.7086614173228346,
          "duration": 0.30000000000001137
        },
        {
          "name": "C4",
          "midi": 60,
          "time": 162.9374999999993,
          "velocity": 0.7086614173228346,
          "duration": 0.15000000000000568
        },
        {
          "name": "G#3",
          "midi": 56,
          "time": 163.1249999999993,
          "velocity": 0.7086614173228346,
          "duration": 0.15000000000000568
        },
        {
          "name": "D#4",
          "midi": 63,
          "time": 163.1249999999993,
          "velocity": 0.7086614173228346,
          "duration": 0.15000000000000568
        },
        {
          "name": "G#4",
          "midi": 68,
          "time": 163.3124999999993,
          "velocity": 0.7086614173228346,
          "duration": 0.15000000000000568
        },
        {
          "name": "G#2",
          "midi": 44,
          "time": 163.3124999999993,
          "velocity": 0.7086614173228346,
          "duration": 0.15000000000000568
        },
        {
          "name": "C#4",
          "midi": 61,
          "time": 163.4999999999993,
          "velocity": 0.7086614173228346,
          "duration": 0.9000000000000057
        },
        {
          "name": "F4",
          "midi": 65,
          "time": 163.4999999999993,
          "velocity": 0.7086614173228346,
          "duration": 0.9000000000000057
        },
        {
          "name": "G#2",
          "midi": 44,
          "time": 163.4999999999993,
          "velocity": 0.7086614173228346,
          "duration": 0.30000000000001137
        },
        {
          "name": "G#3",
          "midi": 56,
          "time": 163.8749999999993,
          "velocity": 0.7086614173228346,
          "duration": 0.15000000000000568
        },
        {
          "name": "G#2",
          "midi": 44,
          "time": 164.0624999999993,
          "velocity": 0.7086614173228346,
          "duration": 0.15000000000000568
        },
        {
          "name": "G#2",
          "midi": 44,
          "time": 164.2499999999993,
          "velocity": 0.7086614173228346,
          "duration": 0.15000000000000568
        },
        {
          "name": "D#4",
          "midi": 63,
          "time": 164.4374999999993,
          "velocity": 0.7086614173228346,
          "duration": 0.44999999999998863
        },
        {
          "name": "G4",
          "midi": 67,
          "time": 164.4374999999993,
          "velocity": 0.7086614173228346,
          "duration": 0.44999999999998863
        },
        {
          "name": "D#3",
          "midi": 51,
          "time": 164.4374999999993,
          "velocity": 0.7086614173228346,
          "duration": 0.30000000000001137
        },
        {
          "name": "A#3",
          "midi": 58,
          "time": 164.4374999999993,
          "velocity": 0.7086614173228346,
          "duration": 0.44999999999998863
        },
        {
          "name": "G#2",
          "midi": 44,
          "time": 164.8124999999993,
          "velocity": 0.7086614173228346,
          "duration": 0.14999999999997726
        },
        {
          "name": "F4",
          "midi": 65,
          "time": 164.99999999999926,
          "velocity": 0.7086614173228346,
          "duration": 0.9000000000000057
        },
        {
          "name": "C4",
          "midi": 60,
          "time": 164.99999999999926,
          "velocity": 0.7086614173228346,
          "duration": 0.9000000000000057
        },
        {
          "name": "A3",
          "midi": 57,
          "time": 164.99999999999926,
          "velocity": 0.7086614173228346,
          "duration": 0.9000000000000057
        },
        {
          "name": "F2",
          "midi": 41,
          "time": 164.99999999999926,
          "velocity": 0.7086614173228346,
          "duration": 0.30000000000001137
        },
        {
          "name": "F3",
          "midi": 53,
          "time": 165.37499999999926,
          "velocity": 0.7086614173228346,
          "duration": 0.15000000000000568
        },
        {
          "name": "F2",
          "midi": 41,
          "time": 165.56249999999926,
          "velocity": 0.7086614173228346,
          "duration": 0.15000000000000568
        },
        {
          "name": "F2",
          "midi": 41,
          "time": 165.74999999999926,
          "velocity": 0.7086614173228346,
          "duration": 0.30000000000001137
        },
        {
          "name": "F3",
          "midi": 53,
          "time": 166.12499999999926,
          "velocity": 0.7086614173228346,
          "duration": 0.15000000000000568
        },
        {
          "name": "F4",
          "midi": 65,
          "time": 166.12499999999926,
          "velocity": 0.7086614173228346,
          "duration": 0.30000000000001137
        },
        {
          "name": "A3",
          "midi": 57,
          "time": 166.12499999999926,
          "velocity": 0.7086614173228346,
          "duration": 0.30000000000001137
        },
        {
          "name": "C4",
          "midi": 60,
          "time": 166.12499999999926,
          "velocity": 0.7086614173228346,
          "duration": 0.30000000000001137
        },
        {
          "name": "F2",
          "midi": 41,
          "time": 166.31249999999926,
          "velocity": 0.7086614173228346,
          "duration": 0.15000000000000568
        },
        {
          "name": "C4",
          "midi": 60,
          "time": 166.49999999999926,
          "velocity": 0.7086614173228346,
          "duration": 0.5999999999999943
        },
        {
          "name": "E4",
          "midi": 64,
          "time": 166.49999999999926,
          "velocity": 0.7086614173228346,
          "duration": 0.5999999999999943
        },
        {
          "name": "G3",
          "midi": 55,
          "time": 166.49999999999926,
          "velocity": 0.7086614173228346,
          "duration": 0.5999999999999943
        },
        {
          "name": "F2",
          "midi": 41,
          "time": 166.49999999999926,
          "velocity": 0.7086614173228346,
          "duration": 0.30000000000001137
        },
        {
          "name": "F3",
          "midi": 53,
          "time": 166.87499999999926,
          "velocity": 0.7086614173228346,
          "duration": 0.15000000000000568
        },
        {
          "name": "F2",
          "midi": 41,
          "time": 167.06249999999926,
          "velocity": 0.7086614173228346,
          "duration": 0.15000000000000568
        },
        {
          "name": "F2",
          "midi": 41,
          "time": 167.24999999999926,
          "velocity": 0.7086614173228346,
          "duration": 0.30000000000001137
        },
        {
          "name": "G3",
          "midi": 55,
          "time": 167.43749999999926,
          "velocity": 0.7086614173228346,
          "duration": 0.15000000000000568
        },
        {
          "name": "F3",
          "midi": 53,
          "time": 167.62499999999926,
          "velocity": 0.7086614173228346,
          "duration": 0.15000000000000568
        },
        {
          "name": "E4",
          "midi": 64,
          "time": 167.62499999999926,
          "velocity": 0.7086614173228346,
          "duration": 0.30000000000001137
        },
        {
          "name": "C4",
          "midi": 60,
          "time": 167.62499999999926,
          "velocity": 0.7086614173228346,
          "duration": 0.30000000000001137
        },
        {
          "name": "F2",
          "midi": 41,
          "time": 167.81249999999926,
          "velocity": 0.7086614173228346,
          "duration": 0.15000000000000568
        },
        {
          "name": "F4",
          "midi": 65,
          "time": 167.99999999999926,
          "velocity": 0.7086614173228346,
          "duration": 0.5999999999999943
        },
        {
          "name": "A3",
          "midi": 57,
          "time": 167.99999999999926,
          "velocity": 0.7086614173228346,
          "duration": 0.5999999999999943
        },
        {
          "name": "F2",
          "midi": 41,
          "time": 167.99999999999926,
          "velocity": 0.7086614173228346,
          "duration": 0.30000000000001137
        },
        {
          "name": "C4",
          "midi": 60,
          "time": 167.99999999999926,
          "velocity": 0.7086614173228346,
          "duration": 0.5999999999999943
        },
        {
          "name": "F3",
          "midi": 53,
          "time": 168.37499999999926,
          "velocity": 0.7086614173228346,
          "duration": 0.15000000000000568
        },
        {
          "name": "F2",
          "midi": 41,
          "time": 168.56249999999926,
          "velocity": 0.7086614173228346,
          "duration": 0.15000000000000568
        },
        {
          "name": "F2",
          "midi": 41,
          "time": 168.74999999999926,
          "velocity": 0.7086614173228346,
          "duration": 0.30000000000001137
        },
        {
          "name": "A3",
          "midi": 57,
          "time": 168.93749999999926,
          "velocity": 0.7086614173228346,
          "duration": 0.15000000000000568
        },
        {
          "name": "C4",
          "midi": 60,
          "time": 169.12499999999926,
          "velocity": 0.7086614173228346,
          "duration": 0.15000000000000568
        },
        {
          "name": "F3",
          "midi": 53,
          "time": 169.12499999999926,
          "velocity": 0.7086614173228346,
          "duration": 0.15000000000000568
        },
        {
          "name": "F4",
          "midi": 65,
          "time": 169.31249999999926,
          "velocity": 0.7086614173228346,
          "duration": 0.15000000000000568
        },
        {
          "name": "F2",
          "midi": 41,
          "time": 169.31249999999926,
          "velocity": 0.7086614173228346,
          "duration": 0.15000000000000568
        },
        {
          "name": "F2",
          "midi": 41,
          "time": 169.49999999999926,
          "velocity": 0.7086614173228346,
          "duration": 0.30000000000001137
        },
        {
          "name": "A#3",
          "midi": 58,
          "time": 169.49999999999926,
          "velocity": 0.7086614173228346,
          "duration": 0.9000000000000057
        },
        {
          "name": "D4",
          "midi": 62,
          "time": 169.49999999999926,
          "velocity": 0.7086614173228346,
          "duration": 0.9000000000000057
        },
        {
          "name": "F3",
          "midi": 53,
          "time": 169.87499999999926,
          "velocity": 0.7086614173228346,
          "duration": 0.15000000000000568
        },
        {
          "name": "F2",
          "midi": 41,
          "time": 170.06249999999926,
          "velocity": 0.7086614173228346,
          "duration": 0.15000000000000568
        },
        {
          "name": "F2",
          "midi": 41,
          "time": 170.24999999999926,
          "velocity": 0.7086614173228346,
          "duration": 0.15000000000000568
        },
        {
          "name": "E4",
          "midi": 64,
          "time": 170.43749999999926,
          "velocity": 0.7086614173228346,
          "duration": 0.44999999999998863
        },
        {
          "name": "C3",
          "midi": 48,
          "time": 170.43749999999926,
          "velocity": 0.7086614173228346,
          "duration": 0.30000000000001137
        },
        {
          "name": "G3",
          "midi": 55,
          "time": 170.43749999999926,
          "velocity": 0.7086614173228346,
          "duration": 0.44999999999998863
        },
        {
          "name": "C4",
          "midi": 60,
          "time": 170.43749999999926,
          "velocity": 0.7086614173228346,
          "duration": 0.44999999999998863
        },
        {
          "name": "F2",
          "midi": 41,
          "time": 170.81249999999926,
          "velocity": 0.7086614173228346,
          "duration": 0.14999999999997726
        },
        {
          "name": "A3",
          "midi": 57,
          "time": 170.99999999999923,
          "velocity": 0.7086614173228346,
          "duration": 0.9000000000000057
        },
        {
          "name": "C4",
          "midi": 60,
          "time": 170.99999999999923,
          "velocity": 0.7086614173228346,
          "duration": 0.9000000000000057
        },
        {
          "name": "F4",
          "midi": 65,
          "time": 170.99999999999923,
          "velocity": 0.7086614173228346,
          "duration": 0.9000000000000057
        },
        {
          "name": "F2",
          "midi": 41,
          "time": 170.99999999999923,
          "velocity": 0.7086614173228346,
          "duration": 0.30000000000001137
        },
        {
          "name": "F3",
          "midi": 53,
          "time": 171.37499999999923,
          "velocity": 0.7086614173228346,
          "duration": 0.15000000000000568
        },
        {
          "name": "F2",
          "midi": 41,
          "time": 171.56249999999923,
          "velocity": 0.7086614173228346,
          "duration": 0.15000000000000568
        },
        {
          "name": "F2",
          "midi": 41,
          "time": 171.74999999999923,
          "velocity": 0.7086614173228346,
          "duration": 0.30000000000001137
        },
        {
          "name": "F3",
          "midi": 53,
          "time": 172.12499999999923,
          "velocity": 0.7086614173228346,
          "duration": 0.15000000000000568
        },
        {
          "name": "A3",
          "midi": 57,
          "time": 172.12499999999923,
          "velocity": 0.7086614173228346,
          "duration": 0.30000000000001137
        },
        {
          "name": "C4",
          "midi": 60,
          "time": 172.12499999999923,
          "velocity": 0.7086614173228346,
          "duration": 0.30000000000001137
        },
        {
          "name": "F4",
          "midi": 65,
          "time": 172.12499999999923,
          "velocity": 0.7086614173228346,
          "duration": 0.30000000000001137
        },
        {
          "name": "F2",
          "midi": 41,
          "time": 172.31249999999923,
          "velocity": 0.7086614173228346,
          "duration": 0.15000000000000568
        },
        {
          "name": "C4",
          "midi": 60,
          "time": 172.49999999999923,
          "velocity": 0.7086614173228346,
          "duration": 0.5999999999999943
        },
        {
          "name": "E4",
          "midi": 64,
          "time": 172.49999999999923,
          "velocity": 0.7086614173228346,
          "duration": 0.5999999999999943
        },
        {
          "name": "G3",
          "midi": 55,
          "time": 172.49999999999923,
          "velocity": 0.7086614173228346,
          "duration": 0.5999999999999943
        },
        {
          "name": "F2",
          "midi": 41,
          "time": 172.49999999999923,
          "velocity": 0.7086614173228346,
          "duration": 0.30000000000001137
        },
        {
          "name": "F3",
          "midi": 53,
          "time": 172.87499999999923,
          "velocity": 0.7086614173228346,
          "duration": 0.15000000000000568
        },
        {
          "name": "F2",
          "midi": 41,
          "time": 173.06249999999923,
          "velocity": 0.7086614173228346,
          "duration": 0.15000000000000568
        },
        {
          "name": "F2",
          "midi": 41,
          "time": 173.24999999999923,
          "velocity": 0.7086614173228346,
          "duration": 0.30000000000001137
        },
        {
          "name": "G3",
          "midi": 55,
          "time": 173.43749999999923,
          "velocity": 0.7086614173228346,
          "duration": 0.15000000000000568
        },
        {
          "name": "F3",
          "midi": 53,
          "time": 173.62499999999923,
          "velocity": 0.7086614173228346,
          "duration": 0.15000000000000568
        },
        {
          "name": "E4",
          "midi": 64,
          "time": 173.62499999999923,
          "velocity": 0.7086614173228346,
          "duration": 0.30000000000001137
        },
        {
          "name": "C4",
          "midi": 60,
          "time": 173.62499999999923,
          "velocity": 0.7086614173228346,
          "duration": 0.30000000000001137
        },
        {
          "name": "F2",
          "midi": 41,
          "time": 173.81249999999923,
          "velocity": 0.7086614173228346,
          "duration": 0.15000000000000568
        },
        {
          "name": "F4",
          "midi": 65,
          "time": 173.99999999999923,
          "velocity": 0.7086614173228346,
          "duration": 0.5999999999999943
        },
        {
          "name": "C4",
          "midi": 60,
          "time": 173.99999999999923,
          "velocity": 0.7086614173228346,
          "duration": 0.5999999999999943
        },
        {
          "name": "A3",
          "midi": 57,
          "time": 173.99999999999923,
          "velocity": 0.7086614173228346,
          "duration": 0.5999999999999943
        },
        {
          "name": "F2",
          "midi": 41,
          "time": 173.99999999999923,
          "velocity": 0.7086614173228346,
          "duration": 0.30000000000001137
        },
        {
          "name": "F3",
          "midi": 53,
          "time": 174.37499999999923,
          "velocity": 0.7086614173228346,
          "duration": 0.15000000000000568
        },
        {
          "name": "F2",
          "midi": 41,
          "time": 174.56249999999923,
          "velocity": 0.7086614173228346,
          "duration": 0.15000000000000568
        },
        {
          "name": "F2",
          "midi": 41,
          "time": 174.74999999999923,
          "velocity": 0.7086614173228346,
          "duration": 0.30000000000001137
        },
        {
          "name": "A3",
          "midi": 57,
          "time": 174.93749999999923,
          "velocity": 0.7086614173228346,
          "duration": 0.15000000000000568
        },
        {
          "name": "C4",
          "midi": 60,
          "time": 175.12499999999923,
          "velocity": 0.7086614173228346,
          "duration": 0.15000000000000568
        },
        {
          "name": "F3",
          "midi": 53,
          "time": 175.12499999999923,
          "velocity": 0.7086614173228346,
          "duration": 0.15000000000000568
        },
        {
          "name": "F4",
          "midi": 65,
          "time": 175.31249999999923,
          "velocity": 0.7086614173228346,
          "duration": 0.15000000000000568
        },
        {
          "name": "F2",
          "midi": 41,
          "time": 175.31249999999923,
          "velocity": 0.7086614173228346,
          "duration": 0.15000000000000568
        },
        {
          "name": "D4",
          "midi": 62,
          "time": 175.49999999999923,
          "velocity": 0.7086614173228346,
          "duration": 0.9000000000000057
        },
        {
          "name": "A#3",
          "midi": 58,
          "time": 175.49999999999923,
          "velocity": 0.7086614173228346,
          "duration": 0.9000000000000057
        },
        {
          "name": "F2",
          "midi": 41,
          "time": 175.49999999999923,
          "velocity": 0.7086614173228346,
          "duration": 0.30000000000001137
        },
        {
          "name": "F3",
          "midi": 53,
          "time": 175.87499999999923,
          "velocity": 0.7086614173228346,
          "duration": 0.15000000000000568
        },
        {
          "name": "F2",
          "midi": 41,
          "time": 176.06249999999923,
          "velocity": 0.7086614173228346,
          "duration": 0.15000000000000568
        },
        {
          "name": "F2",
          "midi": 41,
          "time": 176.24999999999923,
          "velocity": 0.7086614173228346,
          "duration": 0.15000000000000568
        },
        {
          "name": "C3",
          "midi": 48,
          "time": 176.43749999999923,
          "velocity": 0.7086614173228346,
          "duration": 0.30000000000001137
        },
        {
          "name": "G3",
          "midi": 55,
          "time": 176.43749999999923,
          "velocity": 0.7086614173228346,
          "duration": 0.44999999999998863
        },
        {
          "name": "E4",
          "midi": 64,
          "time": 176.43749999999923,
          "velocity": 0.7086614173228346,
          "duration": 0.44999999999998863
        },
        {
          "name": "C4",
          "midi": 60,
          "time": 176.43749999999923,
          "velocity": 0.7086614173228346,
          "duration": 0.44999999999998863
        },
        {
          "name": "F2",
          "midi": 41,
          "time": 176.81249999999923,
          "velocity": 0.7086614173228346,
          "duration": 0.14999999999997726
        },
        {
          "name": "C4",
          "midi": 60,
          "time": 176.9999999999992,
          "velocity": 0.7086614173228346,
          "duration": 0.9000000000000057
        },
        {
          "name": "F4",
          "midi": 65,
          "time": 176.9999999999992,
          "velocity": 0.7086614173228346,
          "duration": 0.9000000000000057
        },
        {
          "name": "F2",
          "midi": 41,
          "time": 176.9999999999992,
          "velocity": 0.7086614173228346,
          "duration": 0.30000000000001137
        },
        {
          "name": "A3",
          "midi": 57,
          "time": 176.9999999999992,
          "velocity": 0.7086614173228346,
          "duration": 0.9000000000000057
        },
        {
          "name": "F3",
          "midi": 53,
          "time": 177.3749999999992,
          "velocity": 0.7086614173228346,
          "duration": 0.15000000000000568
        },
        {
          "name": "F2",
          "midi": 41,
          "time": 177.5624999999992,
          "velocity": 0.7086614173228346,
          "duration": 0.15000000000000568
        },
        {
          "name": "F2",
          "midi": 41,
          "time": 177.7499999999992,
          "velocity": 0.7086614173228346,
          "duration": 0.30000000000001137
        },
        {
          "name": "F3",
          "midi": 53,
          "time": 178.1249999999992,
          "velocity": 0.7086614173228346,
          "duration": 0.15000000000000568
        },
        {
          "name": "F4",
          "midi": 65,
          "time": 178.1249999999992,
          "velocity": 0.7086614173228346,
          "duration": 0.30000000000001137
        },
        {
          "name": "C4",
          "midi": 60,
          "time": 178.1249999999992,
          "velocity": 0.7086614173228346,
          "duration": 0.30000000000001137
        },
        {
          "name": "A3",
          "midi": 57,
          "time": 178.1249999999992,
          "velocity": 0.7086614173228346,
          "duration": 0.30000000000001137
        },
        {
          "name": "F2",
          "midi": 41,
          "time": 178.3124999999992,
          "velocity": 0.7086614173228346,
          "duration": 0.15000000000000568
        },
        {
          "name": "G3",
          "midi": 55,
          "time": 178.4999999999992,
          "velocity": 0.7086614173228346,
          "duration": 0.5999999999999943
        },
        {
          "name": "C4",
          "midi": 60,
          "time": 178.4999999999992,
          "velocity": 0.7086614173228346,
          "duration": 0.5999999999999943
        },
        {
          "name": "E4",
          "midi": 64,
          "time": 178.4999999999992,
          "velocity": 0.7086614173228346,
          "duration": 0.5999999999999943
        },
        {
          "name": "F2",
          "midi": 41,
          "time": 178.4999999999992,
          "velocity": 0.7086614173228346,
          "duration": 0.30000000000001137
        },
        {
          "name": "F3",
          "midi": 53,
          "time": 178.8749999999992,
          "velocity": 0.7086614173228346,
          "duration": 0.15000000000000568
        },
        {
          "name": "F2",
          "midi": 41,
          "time": 179.0624999999992,
          "velocity": 0.7086614173228346,
          "duration": 0.15000000000000568
        },
        {
          "name": "F2",
          "midi": 41,
          "time": 179.2499999999992,
          "velocity": 0.7086614173228346,
          "duration": 0.30000000000001137
        },
        {
          "name": "G3",
          "midi": 55,
          "time": 179.4374999999992,
          "velocity": 0.7086614173228346,
          "duration": 0.15000000000000568
        },
        {
          "name": "F3",
          "midi": 53,
          "time": 179.6249999999992,
          "velocity": 0.7086614173228346,
          "duration": 0.15000000000000568
        },
        {
          "name": "C4",
          "midi": 60,
          "time": 179.6249999999992,
          "velocity": 0.7086614173228346,
          "duration": 0.30000000000001137
        },
        {
          "name": "E4",
          "midi": 64,
          "time": 179.6249999999992,
          "velocity": 0.7086614173228346,
          "duration": 0.30000000000001137
        },
        {
          "name": "F2",
          "midi": 41,
          "time": 179.8124999999992,
          "velocity": 0.7086614173228346,
          "duration": 0.15000000000000568
        },
        {
          "name": "C4",
          "midi": 60,
          "time": 179.9999999999992,
          "velocity": 0.7086614173228346,
          "duration": 0.5999999999999943
        },
        {
          "name": "F4",
          "midi": 65,
          "time": 179.9999999999992,
          "velocity": 0.7086614173228346,
          "duration": 0.5999999999999943
        },
        {
          "name": "A3",
          "midi": 57,
          "time": 179.9999999999992,
          "velocity": 0.7086614173228346,
          "duration": 0.5999999999999943
        },
        {
          "name": "F2",
          "midi": 41,
          "time": 179.9999999999992,
          "velocity": 0.7086614173228346,
          "duration": 0.30000000000001137
        },
        {
          "name": "F3",
          "midi": 53,
          "time": 180.3749999999992,
          "velocity": 0.7086614173228346,
          "duration": 0.15000000000000568
        },
        {
          "name": "F2",
          "midi": 41,
          "time": 180.5624999999992,
          "velocity": 0.7086614173228346,
          "duration": 0.15000000000000568
        },
        {
          "name": "F2",
          "midi": 41,
          "time": 180.7499999999992,
          "velocity": 0.7086614173228346,
          "duration": 0.30000000000001137
        },
        {
          "name": "A3",
          "midi": 57,
          "time": 180.9374999999992,
          "velocity": 0.7086614173228346,
          "duration": 0.15000000000000568
        },
        {
          "name": "C4",
          "midi": 60,
          "time": 181.1249999999992,
          "velocity": 0.7086614173228346,
          "duration": 0.15000000000000568
        },
        {
          "name": "F3",
          "midi": 53,
          "time": 181.1249999999992,
          "velocity": 0.7086614173228346,
          "duration": 0.15000000000000568
        },
        {
          "name": "F4",
          "midi": 65,
          "time": 181.3124999999992,
          "velocity": 0.7086614173228346,
          "duration": 0.15000000000000568
        },
        {
          "name": "F2",
          "midi": 41,
          "time": 181.3124999999992,
          "velocity": 0.7086614173228346,
          "duration": 0.15000000000000568
        },
        {
          "name": "D4",
          "midi": 62,
          "time": 181.4999999999992,
          "velocity": 0.7086614173228346,
          "duration": 0.9000000000000057
        },
        {
          "name": "F2",
          "midi": 41,
          "time": 181.4999999999992,
          "velocity": 0.7086614173228346,
          "duration": 0.30000000000001137
        },
        {
          "name": "A#3",
          "midi": 58,
          "time": 181.4999999999992,
          "velocity": 0.7086614173228346,
          "duration": 0.9000000000000057
        },
        {
          "name": "F3",
          "midi": 53,
          "time": 181.8749999999992,
          "velocity": 0.7086614173228346,
          "duration": 0.15000000000000568
        },
        {
          "name": "F2",
          "midi": 41,
          "time": 182.0624999999992,
          "velocity": 0.7086614173228346,
          "duration": 0.15000000000000568
        },
        {
          "name": "F2",
          "midi": 41,
          "time": 182.2499999999992,
          "velocity": 0.7086614173228346,
          "duration": 0.15000000000000568
        },
        {
          "name": "C4",
          "midi": 60,
          "time": 182.4374999999992,
          "velocity": 0.7086614173228346,
          "duration": 0.44999999999998863
        },
        {
          "name": "C3",
          "midi": 48,
          "time": 182.4374999999992,
          "velocity": 0.7086614173228346,
          "duration": 0.30000000000001137
        },
        {
          "name": "E4",
          "midi": 64,
          "time": 182.4374999999992,
          "velocity": 0.7086614173228346,
          "duration": 0.44999999999998863
        },
        {
          "name": "G3",
          "midi": 55,
          "time": 182.4374999999992,
          "velocity": 0.7086614173228346,
          "duration": 0.44999999999998863
        },
        {
          "name": "F2",
          "midi": 41,
          "time": 182.8124999999992,
          "velocity": 0.7086614173228346,
          "duration": 0.14999999999997726
        },
        {
          "name": "A3",
          "midi": 57,
          "time": 182.99999999999918,
          "velocity": 0.7086614173228346,
          "duration": 0.9000000000000057
        },
        {
          "name": "C4",
          "midi": 60,
          "time": 182.99999999999918,
          "velocity": 0.7086614173228346,
          "duration": 0.9000000000000057
        },
        {
          "name": "F2",
          "midi": 41,
          "time": 182.99999999999918,
          "velocity": 0.7086614173228346,
          "duration": 0.30000000000001137
        },
        {
          "name": "F4",
          "midi": 65,
          "time": 182.99999999999918,
          "velocity": 0.7086614173228346,
          "duration": 0.9000000000000057
        },
        {
          "name": "F3",
          "midi": 53,
          "time": 183.37499999999918,
          "velocity": 0.7086614173228346,
          "duration": 0.15000000000000568
        },
        {
          "name": "F2",
          "midi": 41,
          "time": 183.56249999999918,
          "velocity": 0.7086614173228346,
          "duration": 0.15000000000000568
        },
        {
          "name": "F2",
          "midi": 41,
          "time": 183.74999999999918,
          "velocity": 0.7086614173228346,
          "duration": 0.30000000000001137
        },
        {
          "name": "F3",
          "midi": 53,
          "time": 184.12499999999918,
          "velocity": 0.7086614173228346,
          "duration": 0.15000000000000568
        },
        {
          "name": "C4",
          "midi": 60,
          "time": 184.12499999999918,
          "velocity": 0.7086614173228346,
          "duration": 0.30000000000001137
        },
        {
          "name": "A3",
          "midi": 57,
          "time": 184.12499999999918,
          "velocity": 0.7086614173228346,
          "duration": 0.30000000000001137
        },
        {
          "name": "F4",
          "midi": 65,
          "time": 184.12499999999918,
          "velocity": 0.7086614173228346,
          "duration": 0.30000000000001137
        },
        {
          "name": "F2",
          "midi": 41,
          "time": 184.31249999999918,
          "velocity": 0.7086614173228346,
          "duration": 0.15000000000000568
        },
        {
          "name": "E4",
          "midi": 64,
          "time": 184.49999999999918,
          "velocity": 0.7086614173228346,
          "duration": 0.5999999999999943
        },
        {
          "name": "C4",
          "midi": 60,
          "time": 184.49999999999918,
          "velocity": 0.7086614173228346,
          "duration": 0.5999999999999943
        },
        {
          "name": "G3",
          "midi": 55,
          "time": 184.49999999999918,
          "velocity": 0.7086614173228346,
          "duration": 0.5999999999999943
        },
        {
          "name": "F2",
          "midi": 41,
          "time": 184.49999999999918,
          "velocity": 0.7086614173228346,
          "duration": 0.30000000000001137
        },
        {
          "name": "F3",
          "midi": 53,
          "time": 184.87499999999918,
          "velocity": 0.7086614173228346,
          "duration": 0.15000000000000568
        },
        {
          "name": "F2",
          "midi": 41,
          "time": 185.06249999999918,
          "velocity": 0.7086614173228346,
          "duration": 0.15000000000000568
        },
        {
          "name": "F2",
          "midi": 41,
          "time": 185.24999999999918,
          "velocity": 0.7086614173228346,
          "duration": 0.30000000000001137
        },
        {
          "name": "G3",
          "midi": 55,
          "time": 185.43749999999918,
          "velocity": 0.7086614173228346,
          "duration": 0.15000000000000568
        },
        {
          "name": "F3",
          "midi": 53,
          "time": 185.62499999999918,
          "velocity": 0.7086614173228346,
          "duration": 0.15000000000000568
        },
        {
          "name": "E4",
          "midi": 64,
          "time": 185.62499999999918,
          "velocity": 0.7086614173228346,
          "duration": 0.30000000000001137
        },
        {
          "name": "C4",
          "midi": 60,
          "time": 185.62499999999918,
          "velocity": 0.7086614173228346,
          "duration": 0.30000000000001137
        },
        {
          "name": "F2",
          "midi": 41,
          "time": 185.81249999999918,
          "velocity": 0.7086614173228346,
          "duration": 0.15000000000000568
        },
        {
          "name": "F4",
          "midi": 65,
          "time": 185.99999999999918,
          "velocity": 0.7086614173228346,
          "duration": 0.5999999999999943
        },
        {
          "name": "A3",
          "midi": 57,
          "time": 185.99999999999918,
          "velocity": 0.7086614173228346,
          "duration": 0.5999999999999943
        },
        {
          "name": "F2",
          "midi": 41,
          "time": 185.99999999999918,
          "velocity": 0.7086614173228346,
          "duration": 0.30000000000001137
        },
        {
          "name": "C4",
          "midi": 60,
          "time": 185.99999999999918,
          "velocity": 0.7086614173228346,
          "duration": 0.5999999999999943
        },
        {
          "name": "F3",
          "midi": 53,
          "time": 186.37499999999918,
          "velocity": 0.7086614173228346,
          "duration": 0.15000000000000568
        },
        {
          "name": "F2",
          "midi": 41,
          "time": 186.56249999999918,
          "velocity": 0.7086614173228346,
          "duration": 0.15000000000000568
        },
        {
          "name": "F2",
          "midi": 41,
          "time": 186.74999999999918,
          "velocity": 0.7086614173228346,
          "duration": 0.30000000000001137
        },
        {
          "name": "A3",
          "midi": 57,
          "time": 186.93749999999918,
          "velocity": 0.7086614173228346,
          "duration": 0.15000000000000568
        },
        {
          "name": "F3",
          "midi": 53,
          "time": 187.12499999999918,
          "velocity": 0.7086614173228346,
          "duration": 0.15000000000000568
        },
        {
          "name": "C4",
          "midi": 60,
          "time": 187.12499999999918,
          "velocity": 0.7086614173228346,
          "duration": 0.15000000000000568
        },
        {
          "name": "F2",
          "midi": 41,
          "time": 187.31249999999918,
          "velocity": 0.7086614173228346,
          "duration": 0.15000000000000568
        },
        {
          "name": "F4",
          "midi": 65,
          "time": 187.31249999999918,
          "velocity": 0.7086614173228346,
          "duration": 0.15000000000000568
        },
        {
          "name": "A#3",
          "midi": 58,
          "time": 187.49999999999918,
          "velocity": 0.7086614173228346,
          "duration": 0.9000000000000057
        },
        {
          "name": "F2",
          "midi": 41,
          "time": 187.49999999999918,
          "velocity": 0.7086614173228346,
          "duration": 0.30000000000001137
        },
        {
          "name": "D4",
          "midi": 62,
          "time": 187.49999999999918,
          "velocity": 0.7086614173228346,
          "duration": 0.9000000000000057
        },
        {
          "name": "F3",
          "midi": 53,
          "time": 187.87499999999918,
          "velocity": 0.7086614173228346,
          "duration": 0.15000000000000568
        },
        {
          "name": "F2",
          "midi": 41,
          "time": 188.06249999999918,
          "velocity": 0.7086614173228346,
          "duration": 0.15000000000000568
        },
        {
          "name": "F2",
          "midi": 41,
          "time": 188.24999999999918,
          "velocity": 0.7086614173228346,
          "duration": 0.15000000000000568
        },
        {
          "name": "C3",
          "midi": 48,
          "time": 188.43749999999918,
          "velocity": 0.7086614173228346,
          "duration": 0.30000000000001137
        },
        {
          "name": "E4",
          "midi": 64,
          "time": 188.43749999999918,
          "velocity": 0.7086614173228346,
          "duration": 0.44999999999998863
        },
        {
          "name": "G3",
          "midi": 55,
          "time": 188.43749999999918,
          "velocity": 0.7086614173228346,
          "duration": 0.44999999999998863
        },
        {
          "name": "C4",
          "midi": 60,
          "time": 188.43749999999918,
          "velocity": 0.7086614173228346,
          "duration": 0.44999999999998863
        },
        {
          "name": "F2",
          "midi": 41,
          "time": 188.81249999999918,
          "velocity": 0.7086614173228346,
          "duration": 0.14999999999997726
        },
        {
          "name": "D4",
          "midi": 62,
          "time": 188.99999999999915,
          "velocity": 0.7086614173228346,
          "duration": 0.9000000000000057
        },
        {
          "name": "F4",
          "midi": 65,
          "time": 188.99999999999915,
          "velocity": 0.7086614173228346,
          "duration": 0.9000000000000057
        },
        {
          "name": "A#3",
          "midi": 58,
          "time": 188.99999999999915,
          "velocity": 0.7086614173228346,
          "duration": 0.9000000000000057
        },
        {
          "name": "F2",
          "midi": 41,
          "time": 188.99999999999915,
          "velocity": 0.7086614173228346,
          "duration": 0.30000000000001137
        },
        {
          "name": "F3",
          "midi": 53,
          "time": 189.37499999999915,
          "velocity": 0.7086614173228346,
          "duration": 0.15000000000000568
        },
        {
          "name": "F2",
          "midi": 41,
          "time": 189.56249999999915,
          "velocity": 0.7086614173228346,
          "duration": 0.15000000000000568
        },
        {
          "name": "F2",
          "midi": 41,
          "time": 189.74999999999915,
          "velocity": 0.7086614173228346,
          "duration": 0.30000000000001137
        },
        {
          "name": "F3",
          "midi": 53,
          "time": 190.12499999999915,
          "velocity": 0.7086614173228346,
          "duration": 0.15000000000000568
        },
        {
          "name": "F4",
          "midi": 65,
          "time": 190.12499999999915,
          "velocity": 0.7086614173228346,
          "duration": 0.30000000000001137
        },
        {
          "name": "A#3",
          "midi": 58,
          "time": 190.12499999999915,
          "velocity": 0.7086614173228346,
          "duration": 0.30000000000001137
        },
        {
          "name": "D4",
          "midi": 62,
          "time": 190.12499999999915,
          "velocity": 0.7086614173228346,
          "duration": 0.30000000000001137
        },
        {
          "name": "F2",
          "midi": 41,
          "time": 190.31249999999915,
          "velocity": 0.7086614173228346,
          "duration": 0.15000000000000568
        },
        {
          "name": "E4",
          "midi": 64,
          "time": 190.49999999999915,
          "velocity": 0.7086614173228346,
          "duration": 0.9000000000000057
        },
        {
          "name": "C4",
          "midi": 60,
          "time": 190.49999999999915,
          "velocity": 0.7086614173228346,
          "duration": 0.9000000000000057
        },
        {
          "name": "G3",
          "midi": 55,
          "time": 190.49999999999915,
          "velocity": 0.7086614173228346,
          "duration": 0.9000000000000057
        },
        {
          "name": "A#3",
          "midi": 58,
          "time": 190.49999999999915,
          "velocity": 0.7086614173228346,
          "duration": 0.9000000000000057
        },
        {
          "name": "F2",
          "midi": 41,
          "time": 190.49999999999915,
          "velocity": 0.7086614173228346,
          "duration": 0.30000000000001137
        },
        {
          "name": "F3",
          "midi": 53,
          "time": 190.87499999999915,
          "velocity": 0.7086614173228346,
          "duration": 0.15000000000000568
        },
        {
          "name": "F2",
          "midi": 41,
          "time": 191.06249999999915,
          "velocity": 0.7086614173228346,
          "duration": 0.15000000000000568
        },
        {
          "name": "F2",
          "midi": 41,
          "time": 191.24999999999915,
          "velocity": 0.7086614173228346,
          "duration": 0.30000000000001137
        },
        {
          "name": "G3",
          "midi": 55,
          "time": 191.43749999999915,
          "velocity": 0.7086614173228346,
          "duration": 0.15000000000000568
        },
        {
          "name": "F3",
          "midi": 53,
          "time": 191.62499999999915,
          "velocity": 0.7086614173228346,
          "duration": 0.15000000000000568
        },
        {
          "name": "E4",
          "midi": 64,
          "time": 191.62499999999915,
          "velocity": 0.7086614173228346,
          "duration": 0.30000000000001137
        },
        {
          "name": "C4",
          "midi": 60,
          "time": 191.62499999999915,
          "velocity": 0.7086614173228346,
          "duration": 0.30000000000001137
        },
        {
          "name": "F2",
          "midi": 41,
          "time": 191.81249999999915,
          "velocity": 0.7086614173228346,
          "duration": 0.15000000000000568
        },
        {
          "name": "F4",
          "midi": 65,
          "time": 191.99999999999915,
          "velocity": 0.7086614173228346,
          "duration": 0.5999999999999943
        },
        {
          "name": "C4",
          "midi": 60,
          "time": 191.99999999999915,
          "velocity": 0.7086614173228346,
          "duration": 0.5999999999999943
        },
        {
          "name": "A3",
          "midi": 57,
          "time": 191.99999999999915,
          "velocity": 0.7086614173228346,
          "duration": 0.5999999999999943
        },
        {
          "name": "F2",
          "midi": 41,
          "time": 191.99999999999915,
          "velocity": 0.7086614173228346,
          "duration": 0.30000000000001137
        },
        {
          "name": "F3",
          "midi": 53,
          "time": 192.37499999999915,
          "velocity": 0.7086614173228346,
          "duration": 0.15000000000000568
        },
        {
          "name": "F2",
          "midi": 41,
          "time": 192.56249999999915,
          "velocity": 0.7086614173228346,
          "duration": 0.15000000000000568
        },
        {
          "name": "F2",
          "midi": 41,
          "time": 192.74999999999915,
          "velocity": 0.7086614173228346,
          "duration": 0.30000000000001137
        },
        {
          "name": "A3",
          "midi": 57,
          "time": 192.93749999999915,
          "velocity": 0.7086614173228346,
          "duration": 0.15000000000000568
        },
        {
          "name": "C4",
          "midi": 60,
          "time": 193.12499999999915,
          "velocity": 0.7086614173228346,
          "duration": 0.15000000000000568
        },
        {
          "name": "F3",
          "midi": 53,
          "time": 193.12499999999915,
          "velocity": 0.7086614173228346,
          "duration": 0.15000000000000568
        },
        {
          "name": "F4",
          "midi": 65,
          "time": 193.31249999999915,
          "velocity": 0.7086614173228346,
          "duration": 0.15000000000000568
        },
        {
          "name": "F2",
          "midi": 41,
          "time": 193.31249999999915,
          "velocity": 0.7086614173228346,
          "duration": 0.15000000000000568
        },
        {
          "name": "E4",
          "midi": 64,
          "time": 193.49999999999915,
          "velocity": 0.7086614173228346,
          "duration": 0.5999999999999943
        },
        {
          "name": "C4",
          "midi": 60,
          "time": 193.49999999999915,
          "velocity": 0.7086614173228346,
          "duration": 0.5999999999999943
        },
        {
          "name": "G3",
          "midi": 55,
          "time": 193.49999999999915,
          "velocity": 0.7086614173228346,
          "duration": 0.5999999999999943
        },
        {
          "name": "F2",
          "midi": 41,
          "time": 193.49999999999915,
          "velocity": 0.7086614173228346,
          "duration": 0.30000000000001137
        },
        {
          "name": "F3",
          "midi": 53,
          "time": 193.87499999999915,
          "velocity": 0.7086614173228346,
          "duration": 0.15000000000000568
        },
        {
          "name": "F2",
          "midi": 41,
          "time": 194.06249999999915,
          "velocity": 0.7086614173228346,
          "duration": 0.15000000000000568
        },
        {
          "name": "F2",
          "midi": 41,
          "time": 194.24999999999915,
          "velocity": 0.7086614173228346,
          "duration": 0.30000000000001137
        },
        {
          "name": "G3",
          "midi": 55,
          "time": 194.43749999999915,
          "velocity": 0.7086614173228346,
          "duration": 0.15000000000000568
        },
        {
          "name": "F3",
          "midi": 53,
          "time": 194.62499999999915,
          "velocity": 0.7086614173228346,
          "duration": 0.15000000000000568
        },
        {
          "name": "C4",
          "midi": 60,
          "time": 194.62499999999915,
          "velocity": 0.7086614173228346,
          "duration": 0.30000000000001137
        },
        {
          "name": "E4",
          "midi": 64,
          "time": 194.62499999999915,
          "velocity": 0.7086614173228346,
          "duration": 0.30000000000001137
        },
        {
          "name": "F2",
          "midi": 41,
          "time": 194.81249999999915,
          "velocity": 0.7086614173228346,
          "duration": 0.15000000000000568
        },
        {
          "name": "C4",
          "midi": 60,
          "time": 194.99999999999915,
          "velocity": 0.7086614173228346,
          "duration": 0.5999999999999943
        },
        {
          "name": "F4",
          "midi": 65,
          "time": 194.99999999999915,
          "velocity": 0.7086614173228346,
          "duration": 0.5999999999999943
        },
        {
          "name": "A3",
          "midi": 57,
          "time": 194.99999999999915,
          "velocity": 0.7086614173228346,
          "duration": 0.5999999999999943
        },
        {
          "name": "F2",
          "midi": 41,
          "time": 194.99999999999915,
          "velocity": 0.7086614173228346,
          "duration": 0.30000000000001137
        },
        {
          "name": "F3",
          "midi": 53,
          "time": 195.37499999999915,
          "velocity": 0.7086614173228346,
          "duration": 0.15000000000000568
        },
        {
          "name": "F2",
          "midi": 41,
          "time": 195.56249999999915,
          "velocity": 0.7086614173228346,
          "duration": 0.15000000000000568
        },
        {
          "name": "F2",
          "midi": 41,
          "time": 195.74999999999915,
          "velocity": 0.7086614173228346,
          "duration": 0.30000000000001137
        },
        {
          "name": "A3",
          "midi": 57,
          "time": 195.93749999999915,
          "velocity": 0.7086614173228346,
          "duration": 0.15000000000000568
        },
        {
          "name": "C4",
          "midi": 60,
          "time": 196.12499999999915,
          "velocity": 0.7086614173228346,
          "duration": 0.15000000000000568
        },
        {
          "name": "F3",
          "midi": 53,
          "time": 196.12499999999915,
          "velocity": 0.7086614173228346,
          "duration": 0.15000000000000568
        },
        {
          "name": "F2",
          "midi": 41,
          "time": 196.31249999999915,
          "velocity": 0.7086614173228346,
          "duration": 0.15000000000000568
        },
        {
          "name": "F4",
          "midi": 65,
          "time": 196.31249999999915,
          "velocity": 0.7086614173228346,
          "duration": 0.15000000000000568
        },
        {
          "name": "F2",
          "midi": 41,
          "time": 196.49999999999915,
          "velocity": 0.7086614173228346,
          "duration": 0.30000000000001137
        },
        {
          "name": "A#3",
          "midi": 58,
          "time": 196.49999999999915,
          "velocity": 0.7086614173228346,
          "duration": 0.9000000000000057
        },
        {
          "name": "D4",
          "midi": 62,
          "time": 196.49999999999915,
          "velocity": 0.7086614173228346,
          "duration": 0.9000000000000057
        },
        {
          "name": "G4",
          "midi": 67,
          "time": 196.49999999999915,
          "velocity": 0.7086614173228346,
          "duration": 0.9000000000000057
        },
        {
          "name": "F3",
          "midi": 53,
          "time": 196.87499999999915,
          "velocity": 0.7086614173228346,
          "duration": 0.15000000000000568
        },
        {
          "name": "F2",
          "midi": 41,
          "time": 197.06249999999915,
          "velocity": 0.7086614173228346,
          "duration": 0.15000000000000568
        },
        {
          "name": "F2",
          "midi": 41,
          "time": 197.24999999999915,
          "velocity": 0.7086614173228346,
          "duration": 0.15000000000000568
        },
        {
          "name": "G4",
          "midi": 67,
          "time": 197.43749999999915,
          "velocity": 0.7086614173228346,
          "duration": 0.44999999999998863
        },
        {
          "name": "E4",
          "midi": 64,
          "time": 197.43749999999915,
          "velocity": 0.7086614173228346,
          "duration": 0.44999999999998863
        },
        {
          "name": "C4",
          "midi": 60,
          "time": 197.43749999999915,
          "velocity": 0.7086614173228346,
          "duration": 0.44999999999998863
        },
        {
          "name": "F2",
          "midi": 41,
          "time": 197.43749999999915,
          "velocity": 0.7086614173228346,
          "duration": 0.44999999999998863
        },
        {
          "name": "F4",
          "midi": 65,
          "time": 197.99999999999915,
          "velocity": 0.7086614173228346,
          "duration": 1.8000000000000114
        },
        {
          "name": "C4",
          "midi": 60,
          "time": 197.99999999999915,
          "velocity": 0.7086614173228346,
          "duration": 1.8000000000000114
        },
        {
          "name": "A3",
          "midi": 57,
          "time": 197.99999999999915,
          "velocity": 0.7086614173228346,
          "duration": 1.8000000000000114
        },
        {
          "name": "F3",
          "midi": 53,
          "time": 197.99999999999915,
          "velocity": 0.7086614173228346,
          "duration": 1.8000000000000114
        },
        {
          "name": "F2",
          "midi": 41,
          "time": 197.99999999999915,
          "velocity": 0.7086614173228346,
          "duration": 1.8000000000000114
        }
      ],
      "controlChanges": {
        "7": [
          {
            "number": 7,
            "time": 0,
            "value": 0.952755905511811
          }
        ]
      },
      "id": 3,
      "name": "Christmas in the Aire",
      "instrumentNumber": 6,
      "instrument": "harpsichord",
      "instrumentFamily": "piano",
      "channelNumber": 2,
      "isPercussion": false
    },
    {
      "startTime": 0,
      "duration": 199.80000000000118,
      "length": 2392,
      "notes": [
        {
          "name": "F2",
          "midi": 41,
          "time": 0,
          "velocity": 0.7086614173228346,
          "duration": 0.30000000000000004
        },
        {
          "name": "A3",
          "midi": 57,
          "time": 0,
          "velocity": 0.7086614173228346,
          "duration": 0.9000000000000001
        },
        {
          "name": "C4",
          "midi": 60,
          "time": 0,
          "velocity": 0.7086614173228346,
          "duration": 0.9000000000000001
        },
        {
          "name": "F4",
          "midi": 65,
          "time": 0,
          "velocity": 0.7086614173228346,
          "duration": 0.9000000000000001
        },
        {
          "name": "F3",
          "midi": 53,
          "time": 0.37500000000000006,
          "velocity": 0.7086614173228346,
          "duration": 0.15000000000000008
        },
        {
          "name": "F2",
          "midi": 41,
          "time": 0.5625000000000001,
          "velocity": 0.7086614173228346,
          "duration": 0.15000000000000002
        },
        {
          "name": "F2",
          "midi": 41,
          "time": 0.7500000000000001,
          "velocity": 0.7086614173228346,
          "duration": 0.30000000000000016
        },
        {
          "name": "F3",
          "midi": 53,
          "time": 1.1250000000000002,
          "velocity": 0.7086614173228346,
          "duration": 0.15000000000000013
        },
        {
          "name": "A3",
          "midi": 57,
          "time": 1.1250000000000002,
          "velocity": 0.7086614173228346,
          "duration": 0.30000000000000027
        },
        {
          "name": "F4",
          "midi": 65,
          "time": 1.1250000000000002,
          "velocity": 0.7086614173228346,
          "duration": 0.30000000000000027
        },
        {
          "name": "C4",
          "midi": 60,
          "time": 1.1250000000000002,
          "velocity": 0.7086614173228346,
          "duration": 0.30000000000000027
        },
        {
          "name": "F2",
          "midi": 41,
          "time": 1.3125000000000004,
          "velocity": 0.7086614173228346,
          "duration": 0.15000000000000013
        },
        {
          "name": "F2",
          "midi": 41,
          "time": 1.5000000000000007,
          "velocity": 0.7086614173228346,
          "duration": 0.30000000000000004
        },
        {
          "name": "E4",
          "midi": 64,
          "time": 1.5000000000000007,
          "velocity": 0.7086614173228346,
          "duration": 0.6000000000000003
        },
        {
          "name": "C4",
          "midi": 60,
          "time": 1.5000000000000007,
          "velocity": 0.7086614173228346,
          "duration": 0.6000000000000003
        },
        {
          "name": "G3",
          "midi": 55,
          "time": 1.5000000000000007,
          "velocity": 0.7086614173228346,
          "duration": 0.6000000000000003
        },
        {
          "name": "F3",
          "midi": 53,
          "time": 1.8750000000000007,
          "velocity": 0.7086614173228346,
          "duration": 0.15000000000000013
        },
        {
          "name": "F2",
          "midi": 41,
          "time": 2.062500000000001,
          "velocity": 0.7086614173228346,
          "duration": 0.1499999999999999
        },
        {
          "name": "F2",
          "midi": 41,
          "time": 2.250000000000001,
          "velocity": 0.7086614173228346,
          "duration": 0.2999999999999998
        },
        {
          "name": "G3",
          "midi": 55,
          "time": 2.437500000000001,
          "velocity": 0.7086614173228346,
          "duration": 0.1499999999999999
        },
        {
          "name": "F3",
          "midi": 53,
          "time": 2.625000000000001,
          "velocity": 0.7086614173228346,
          "duration": 0.1499999999999999
        },
        {
          "name": "E4",
          "midi": 64,
          "time": 2.625000000000001,
          "velocity": 0.7086614173228346,
          "duration": 0.2999999999999998
        },
        {
          "name": "C4",
          "midi": 60,
          "time": 2.625000000000001,
          "velocity": 0.7086614173228346,
          "duration": 0.2999999999999998
        },
        {
          "name": "F2",
          "midi": 41,
          "time": 2.812500000000001,
          "velocity": 0.7086614173228346,
          "duration": 0.1499999999999999
        },
        {
          "name": "F2",
          "midi": 41,
          "time": 3.000000000000001,
          "velocity": 0.7086614173228346,
          "duration": 0.2999999999999998
        },
        {
          "name": "F4",
          "midi": 65,
          "time": 3.000000000000001,
          "velocity": 0.7086614173228346,
          "duration": 0.6000000000000001
        },
        {
          "name": "C4",
          "midi": 60,
          "time": 3.000000000000001,
          "velocity": 0.7086614173228346,
          "duration": 0.6000000000000001
        },
        {
          "name": "A3",
          "midi": 57,
          "time": 3.000000000000001,
          "velocity": 0.7086614173228346,
          "duration": 0.6000000000000001
        },
        {
          "name": "F3",
          "midi": 53,
          "time": 3.375000000000001,
          "velocity": 0.7086614173228346,
          "duration": 0.1499999999999999
        },
        {
          "name": "F2",
          "midi": 41,
          "time": 3.562500000000001,
          "velocity": 0.7086614173228346,
          "duration": 0.1499999999999999
        },
        {
          "name": "F2",
          "midi": 41,
          "time": 3.750000000000001,
          "velocity": 0.7086614173228346,
          "duration": 0.2999999999999998
        },
        {
          "name": "A3",
          "midi": 57,
          "time": 3.937500000000001,
          "velocity": 0.7086614173228346,
          "duration": 0.14999999999999947
        },
        {
          "name": "C4",
          "midi": 60,
          "time": 4.125,
          "velocity": 0.7086614173228346,
          "duration": 0.15000000000000036
        },
        {
          "name": "F3",
          "midi": 53,
          "time": 4.125,
          "velocity": 0.7086614173228346,
          "duration": 0.15000000000000036
        },
        {
          "name": "F2",
          "midi": 41,
          "time": 4.3125,
          "velocity": 0.7086614173228346,
          "duration": 0.15000000000000036
        },
        {
          "name": "F4",
          "midi": 65,
          "time": 4.3125,
          "velocity": 0.7086614173228346,
          "duration": 0.15000000000000036
        },
        {
          "name": "F2",
          "midi": 41,
          "time": 4.5,
          "velocity": 0.7086614173228346,
          "duration": 0.2999999999999998
        },
        {
          "name": "D4",
          "midi": 62,
          "time": 4.5,
          "velocity": 0.7086614173228346,
          "duration": 0.9000000000000004
        },
        {
          "name": "A#3",
          "midi": 58,
          "time": 4.5,
          "velocity": 0.7086614173228346,
          "duration": 0.9000000000000004
        },
        {
          "name": "F3",
          "midi": 53,
          "time": 4.875,
          "velocity": 0.7086614173228346,
          "duration": 0.15000000000000036
        },
        {
          "name": "F2",
          "midi": 41,
          "time": 5.0625,
          "velocity": 0.7086614173228346,
          "duration": 0.15000000000000036
        },
        {
          "name": "F2",
          "midi": 41,
          "time": 5.25,
          "velocity": 0.7086614173228346,
          "duration": 0.15000000000000036
        },
        {
          "name": "C3",
          "midi": 48,
          "time": 5.4375,
          "velocity": 0.7086614173228346,
          "duration": 0.2999999999999998
        },
        {
          "name": "C4",
          "midi": 60,
          "time": 5.4375,
          "velocity": 0.7086614173228346,
          "duration": 0.4500000000000002
        },
        {
          "name": "G3",
          "midi": 55,
          "time": 5.4375,
          "velocity": 0.7086614173228346,
          "duration": 0.4500000000000002
        },
        {
          "name": "E4",
          "midi": 64,
          "time": 5.4375,
          "velocity": 0.7086614173228346,
          "duration": 0.4500000000000002
        },
        {
          "name": "F2",
          "midi": 41,
          "time": 5.8125,
          "velocity": 0.7086614173228346,
          "duration": 0.15000000000000036
        },
        {
          "name": "F2",
          "midi": 41,
          "time": 6,
          "velocity": 0.7086614173228346,
          "duration": 0.2999999999999998
        },
        {
          "name": "F4",
          "midi": 65,
          "time": 6,
          "velocity": 0.7086614173228346,
          "duration": 0.8999999999999995
        },
        {
          "name": "C4",
          "midi": 60,
          "time": 6,
          "velocity": 0.7086614173228346,
          "duration": 0.8999999999999995
        },
        {
          "name": "A3",
          "midi": 57,
          "time": 6,
          "velocity": 0.7086614173228346,
          "duration": 0.8999999999999995
        },
        {
          "name": "F5",
          "midi": 77,
          "time": 6,
          "velocity": 0.7086614173228346,
          "duration": 0.15000000000000036
        },
        {
          "name": "E5",
          "midi": 76,
          "time": 6.1875,
          "velocity": 0.7086614173228346,
          "duration": 0.14999999999999947
        },
        {
          "name": "F3",
          "midi": 53,
          "time": 6.374999999999999,
          "velocity": 0.7086614173228346,
          "duration": 0.15000000000000036
        },
        {
          "name": "C5",
          "midi": 72,
          "time": 6.374999999999999,
          "velocity": 0.7086614173228346,
          "duration": 0.15000000000000036
        },
        {
          "name": "F5",
          "midi": 77,
          "time": 6.562499999999999,
          "velocity": 0.7086614173228346,
          "duration": 0.15000000000000036
        },
        {
          "name": "F2",
          "midi": 41,
          "time": 6.562499999999999,
          "velocity": 0.7086614173228346,
          "duration": 0.15000000000000036
        },
        {
          "name": "E5",
          "midi": 76,
          "time": 6.749999999999999,
          "velocity": 0.7086614173228346,
          "duration": 0.15000000000000036
        },
        {
          "name": "F2",
          "midi": 41,
          "time": 6.749999999999999,
          "velocity": 0.7086614173228346,
          "duration": 0.2999999999999998
        },
        {
          "name": "C5",
          "midi": 72,
          "time": 6.937499999999999,
          "velocity": 0.7086614173228346,
          "duration": 0.14999999999999947
        },
        {
          "name": "F3",
          "midi": 53,
          "time": 7.124999999999998,
          "velocity": 0.7086614173228346,
          "duration": 0.15000000000000036
        },
        {
          "name": "F5",
          "midi": 77,
          "time": 7.124999999999998,
          "velocity": 0.7086614173228346,
          "duration": 0.15000000000000036
        },
        {
          "name": "A3",
          "midi": 57,
          "time": 7.124999999999998,
          "velocity": 0.7086614173228346,
          "duration": 0.2999999999999998
        },
        {
          "name": "C4",
          "midi": 60,
          "time": 7.124999999999998,
          "velocity": 0.7086614173228346,
          "duration": 0.2999999999999998
        },
        {
          "name": "F4",
          "midi": 65,
          "time": 7.124999999999998,
          "velocity": 0.7086614173228346,
          "duration": 0.2999999999999998
        },
        {
          "name": "F2",
          "midi": 41,
          "time": 7.312499999999998,
          "velocity": 0.7086614173228346,
          "duration": 0.14999999999999947
        },
        {
          "name": "E5",
          "midi": 76,
          "time": 7.312499999999998,
          "velocity": 0.7086614173228346,
          "duration": 0.14999999999999947
        },
        {
          "name": "F2",
          "midi": 41,
          "time": 7.499999999999997,
          "velocity": 0.7086614173228346,
          "duration": 0.2999999999999998
        },
        {
          "name": "E4",
          "midi": 64,
          "time": 7.499999999999997,
          "velocity": 0.7086614173228346,
          "duration": 0.5999999999999988
        },
        {
          "name": "C4",
          "midi": 60,
          "time": 7.499999999999997,
          "velocity": 0.7086614173228346,
          "duration": 0.5999999999999988
        },
        {
          "name": "G3",
          "midi": 55,
          "time": 7.499999999999997,
          "velocity": 0.7086614173228346,
          "duration": 0.5999999999999988
        },
        {
          "name": "C5",
          "midi": 72,
          "time": 7.499999999999997,
          "velocity": 0.7086614173228346,
          "duration": 0.15000000000000036
        },
        {
          "name": "F5",
          "midi": 77,
          "time": 7.687499999999997,
          "velocity": 0.7086614173228346,
          "duration": 0.14999999999999947
        },
        {
          "name": "F3",
          "midi": 53,
          "time": 7.8749999999999964,
          "velocity": 0.7086614173228346,
          "duration": 0.15000000000000036
        },
        {
          "name": "E5",
          "midi": 76,
          "time": 7.8749999999999964,
          "velocity": 0.7086614173228346,
          "duration": 0.15000000000000036
        },
        {
          "name": "C5",
          "midi": 72,
          "time": 8.062499999999996,
          "velocity": 0.7086614173228346,
          "duration": 0.15000000000000036
        },
        {
          "name": "F2",
          "midi": 41,
          "time": 8.062499999999996,
          "velocity": 0.7086614173228346,
          "duration": 0.15000000000000036
        },
        {
          "name": "F5",
          "midi": 77,
          "time": 8.249999999999996,
          "velocity": 0.7086614173228346,
          "duration": 0.15000000000000036
        },
        {
          "name": "F2",
          "midi": 41,
          "time": 8.249999999999996,
          "velocity": 0.7086614173228346,
          "duration": 0.3000000000000007
        },
        {
          "name": "G3",
          "midi": 55,
          "time": 8.437499999999996,
          "velocity": 0.7086614173228346,
          "duration": 0.15000000000000036
        },
        {
          "name": "E5",
          "midi": 76,
          "time": 8.437499999999996,
          "velocity": 0.7086614173228346,
          "duration": 0.15000000000000036
        },
        {
          "name": "C5",
          "midi": 72,
          "time": 8.624999999999996,
          "velocity": 0.7086614173228346,
          "duration": 0.15000000000000036
        },
        {
          "name": "F3",
          "midi": 53,
          "time": 8.624999999999996,
          "velocity": 0.7086614173228346,
          "duration": 0.15000000000000036
        },
        {
          "name": "E4",
          "midi": 64,
          "time": 8.624999999999996,
          "velocity": 0.7086614173228346,
          "duration": 0.3000000000000007
        },
        {
          "name": "C4",
          "midi": 60,
          "time": 8.624999999999996,
          "velocity": 0.7086614173228346,
          "duration": 0.3000000000000007
        },
        {
          "name": "F2",
          "midi": 41,
          "time": 8.812499999999996,
          "velocity": 0.7086614173228346,
          "duration": 0.15000000000000036
        },
        {
          "name": "F5",
          "midi": 77,
          "time": 8.812499999999996,
          "velocity": 0.7086614173228346,
          "duration": 0.15000000000000036
        },
        {
          "name": "F2",
          "midi": 41,
          "time": 8.999999999999996,
          "velocity": 0.7086614173228346,
          "duration": 0.3000000000000007
        },
        {
          "name": "C4",
          "midi": 60,
          "time": 8.999999999999996,
          "velocity": 0.7086614173228346,
          "duration": 0.5999999999999996
        },
        {
          "name": "F4",
          "midi": 65,
          "time": 8.999999999999996,
          "velocity": 0.7086614173228346,
          "duration": 0.5999999999999996
        },
        {
          "name": "A3",
          "midi": 57,
          "time": 8.999999999999996,
          "velocity": 0.7086614173228346,
          "duration": 0.5999999999999996
        },
        {
          "name": "E5",
          "midi": 76,
          "time": 8.999999999999996,
          "velocity": 0.7086614173228346,
          "duration": 0.15000000000000036
        },
        {
          "name": "C5",
          "midi": 72,
          "time": 9.187499999999996,
          "velocity": 0.7086614173228346,
          "duration": 0.15000000000000036
        },
        {
          "name": "F3",
          "midi": 53,
          "time": 9.374999999999996,
          "velocity": 0.7086614173228346,
          "duration": 0.15000000000000036
        },
        {
          "name": "F5",
          "midi": 77,
          "time": 9.374999999999996,
          "velocity": 0.7086614173228346,
          "duration": 0.15000000000000036
        },
        {
          "name": "E5",
          "midi": 76,
          "time": 9.562499999999996,
          "velocity": 0.7086614173228346,
          "duration": 0.15000000000000036
        },
        {
          "name": "F2",
          "midi": 41,
          "time": 9.562499999999996,
          "velocity": 0.7086614173228346,
          "duration": 0.15000000000000036
        },
        {
          "name": "C5",
          "midi": 72,
          "time": 9.749999999999996,
          "velocity": 0.7086614173228346,
          "duration": 0.15000000000000036
        },
        {
          "name": "F2",
          "midi": 41,
          "time": 9.749999999999996,
          "velocity": 0.7086614173228346,
          "duration": 0.3000000000000007
        },
        {
          "name": "A3",
          "midi": 57,
          "time": 9.937499999999996,
          "velocity": 0.7086614173228346,
          "duration": 0.15000000000000036
        },
        {
          "name": "F5",
          "midi": 77,
          "time": 9.937499999999996,
          "velocity": 0.7086614173228346,
          "duration": 0.15000000000000036
        },
        {
          "name": "C4",
          "midi": 60,
          "time": 10.124999999999996,
          "velocity": 0.7086614173228346,
          "duration": 0.15000000000000036
        },
        {
          "name": "F3",
          "midi": 53,
          "time": 10.124999999999996,
          "velocity": 0.7086614173228346,
          "duration": 0.15000000000000036
        },
        {
          "name": "E5",
          "midi": 76,
          "time": 10.124999999999996,
          "velocity": 0.7086614173228346,
          "duration": 0.15000000000000036
        },
        {
          "name": "F2",
          "midi": 41,
          "time": 10.312499999999996,
          "velocity": 0.7086614173228346,
          "duration": 0.15000000000000036
        },
        {
          "name": "C5",
          "midi": 72,
          "time": 10.312499999999996,
          "velocity": 0.7086614173228346,
          "duration": 0.15000000000000036
        },
        {
          "name": "F4",
          "midi": 65,
          "time": 10.312499999999996,
          "velocity": 0.7086614173228346,
          "duration": 0.15000000000000036
        },
        {
          "name": "F2",
          "midi": 41,
          "time": 10.499999999999996,
          "velocity": 0.7086614173228346,
          "duration": 0.3000000000000007
        },
        {
          "name": "C5",
          "midi": 72,
          "time": 10.499999999999996,
          "velocity": 0.7086614173228346,
          "duration": 0.15000000000000036
        },
        {
          "name": "A#3",
          "midi": 58,
          "time": 10.499999999999996,
          "velocity": 0.7086614173228346,
          "duration": 0.9000000000000004
        },
        {
          "name": "D4",
          "midi": 62,
          "time": 10.499999999999996,
          "velocity": 0.7086614173228346,
          "duration": 0.9000000000000004
        },
        {
          "name": "C5",
          "midi": 72,
          "time": 10.687499999999996,
          "velocity": 0.7086614173228346,
          "duration": 0.15000000000000036
        },
        {
          "name": "F3",
          "midi": 53,
          "time": 10.874999999999996,
          "velocity": 0.7086614173228346,
          "duration": 0.15000000000000036
        },
        {
          "name": "C5",
          "midi": 72,
          "time": 10.874999999999996,
          "velocity": 0.7086614173228346,
          "duration": 0.15000000000000036
        },
        {
          "name": "C5",
          "midi": 72,
          "time": 11.062499999999996,
          "velocity": 0.7086614173228346,
          "duration": 0.15000000000000036
        },
        {
          "name": "F2",
          "midi": 41,
          "time": 11.062499999999996,
          "velocity": 0.7086614173228346,
          "duration": 0.15000000000000036
        },
        {
          "name": "F2",
          "midi": 41,
          "time": 11.249999999999996,
          "velocity": 0.7086614173228346,
          "duration": 0.15000000000000036
        },
        {
          "name": "C5",
          "midi": 72,
          "time": 11.249999999999996,
          "velocity": 0.7086614173228346,
          "duration": 0.15000000000000036
        },
        {
          "name": "C5",
          "midi": 72,
          "time": 11.437499999999996,
          "velocity": 0.7086614173228346,
          "duration": 0.15000000000000036
        },
        {
          "name": "C3",
          "midi": 48,
          "time": 11.437499999999996,
          "velocity": 0.7086614173228346,
          "duration": 0.3000000000000007
        },
        {
          "name": "E4",
          "midi": 64,
          "time": 11.437499999999996,
          "velocity": 0.7086614173228346,
          "duration": 0.4499999999999993
        },
        {
          "name": "C4",
          "midi": 60,
          "time": 11.437499999999996,
          "velocity": 0.7086614173228346,
          "duration": 0.4499999999999993
        },
        {
          "name": "G3",
          "midi": 55,
          "time": 11.437499999999996,
          "velocity": 0.7086614173228346,
          "duration": 0.4499999999999993
        },
        {
          "name": "D5",
          "midi": 74,
          "time": 11.624999999999996,
          "velocity": 0.7086614173228346,
          "duration": 0.15000000000000036
        },
        {
          "name": "F2",
          "midi": 41,
          "time": 11.812499999999996,
          "velocity": 0.7086614173228346,
          "duration": 0.14999999999999858
        },
        {
          "name": "E5",
          "midi": 76,
          "time": 11.812499999999996,
          "velocity": 0.7086614173228346,
          "duration": 0.14999999999999858
        },
        {
          "name": "F5",
          "midi": 77,
          "time": 11.999999999999995,
          "velocity": 0.7086614173228346,
          "duration": 1.4250000000000007
        },
        {
          "name": "F2",
          "midi": 41,
          "time": 11.999999999999995,
          "velocity": 0.7086614173228346,
          "duration": 0.3000000000000007
        },
        {
          "name": "F4",
          "midi": 65,
          "time": 11.999999999999995,
          "velocity": 0.7086614173228346,
          "duration": 0.9000000000000004
        },
        {
          "name": "C4",
          "midi": 60,
          "time": 11.999999999999995,
          "velocity": 0.7086614173228346,
          "duration": 0.9000000000000004
        },
        {
          "name": "A3",
          "midi": 57,
          "time": 11.999999999999995,
          "velocity": 0.7086614173228346,
          "duration": 0.9000000000000004
        },
        {
          "name": "F3",
          "midi": 53,
          "time": 12.374999999999995,
          "velocity": 0.7086614173228346,
          "duration": 0.15000000000000036
        },
        {
          "name": "F2",
          "midi": 41,
          "time": 12.562499999999995,
          "velocity": 0.7086614173228346,
          "duration": 0.15000000000000036
        },
        {
          "name": "F2",
          "midi": 41,
          "time": 12.749999999999995,
          "velocity": 0.7086614173228346,
          "duration": 0.3000000000000007
        },
        {
          "name": "F3",
          "midi": 53,
          "time": 13.124999999999995,
          "velocity": 0.7086614173228346,
          "duration": 0.15000000000000036
        },
        {
          "name": "C4",
          "midi": 60,
          "time": 13.124999999999995,
          "velocity": 0.7086614173228346,
          "duration": 0.3000000000000007
        },
        {
          "name": "A3",
          "midi": 57,
          "time": 13.124999999999995,
          "velocity": 0.7086614173228346,
          "duration": 0.3000000000000007
        },
        {
          "name": "F4",
          "midi": 65,
          "time": 13.124999999999995,
          "velocity": 0.7086614173228346,
          "duration": 0.3000000000000007
        },
        {
          "name": "F2",
          "midi": 41,
          "time": 13.312499999999995,
          "velocity": 0.7086614173228346,
          "duration": 0.15000000000000036
        },
        {
          "name": "F2",
          "midi": 41,
          "time": 13.499999999999995,
          "velocity": 0.7086614173228346,
          "duration": 0.3000000000000007
        },
        {
          "name": "G3",
          "midi": 55,
          "time": 13.499999999999995,
          "velocity": 0.7086614173228346,
          "duration": 0.5999999999999996
        },
        {
          "name": "C4",
          "midi": 60,
          "time": 13.499999999999995,
          "velocity": 0.7086614173228346,
          "duration": 0.5999999999999996
        },
        {
          "name": "E4",
          "midi": 64,
          "time": 13.499999999999995,
          "velocity": 0.7086614173228346,
          "duration": 0.5999999999999996
        },
        {
          "name": "F3",
          "midi": 53,
          "time": 13.874999999999995,
          "velocity": 0.7086614173228346,
          "duration": 0.15000000000000036
        },
        {
          "name": "F2",
          "midi": 41,
          "time": 14.062499999999995,
          "velocity": 0.7086614173228346,
          "duration": 0.15000000000000036
        },
        {
          "name": "F2",
          "midi": 41,
          "time": 14.249999999999995,
          "velocity": 0.7086614173228346,
          "duration": 0.3000000000000007
        },
        {
          "name": "G3",
          "midi": 55,
          "time": 14.437499999999995,
          "velocity": 0.7086614173228346,
          "duration": 0.15000000000000036
        },
        {
          "name": "F3",
          "midi": 53,
          "time": 14.624999999999995,
          "velocity": 0.7086614173228346,
          "duration": 0.15000000000000036
        },
        {
          "name": "E4",
          "midi": 64,
          "time": 14.624999999999995,
          "velocity": 0.7086614173228346,
          "duration": 0.3000000000000007
        },
        {
          "name": "C4",
          "midi": 60,
          "time": 14.624999999999995,
          "velocity": 0.7086614173228346,
          "duration": 0.3000000000000007
        },
        {
          "name": "F2",
          "midi": 41,
          "time": 14.812499999999995,
          "velocity": 0.7086614173228346,
          "duration": 0.15000000000000036
        },
        {
          "name": "F2",
          "midi": 41,
          "time": 14.999999999999995,
          "velocity": 0.7086614173228346,
          "duration": 0.3000000000000007
        },
        {
          "name": "C4",
          "midi": 60,
          "time": 14.999999999999995,
          "velocity": 0.7086614173228346,
          "duration": 0.5999999999999996
        },
        {
          "name": "A3",
          "midi": 57,
          "time": 14.999999999999995,
          "velocity": 0.7086614173228346,
          "duration": 0.5999999999999996
        },
        {
          "name": "F4",
          "midi": 65,
          "time": 14.999999999999995,
          "velocity": 0.7086614173228346,
          "duration": 0.5999999999999996
        },
        {
          "name": "F3",
          "midi": 53,
          "time": 15.374999999999995,
          "velocity": 0.7086614173228346,
          "duration": 0.15000000000000036
        },
        {
          "name": "F2",
          "midi": 41,
          "time": 15.562499999999995,
          "velocity": 0.7086614173228346,
          "duration": 0.15000000000000036
        },
        {
          "name": "F2",
          "midi": 41,
          "time": 15.749999999999995,
          "velocity": 0.7086614173228346,
          "duration": 0.29999999999999893
        },
        {
          "name": "A3",
          "midi": 57,
          "time": 15.937499999999995,
          "velocity": 0.7086614173228346,
          "duration": 0.15000000000000036
        },
        {
          "name": "F3",
          "midi": 53,
          "time": 16.124999999999996,
          "velocity": 0.7086614173228346,
          "duration": 0.14999999999999858
        },
        {
          "name": "C4",
          "midi": 60,
          "time": 16.124999999999996,
          "velocity": 0.7086614173228346,
          "duration": 0.14999999999999858
        },
        {
          "name": "F4",
          "midi": 65,
          "time": 16.312499999999996,
          "velocity": 0.7086614173228346,
          "duration": 0.14999999999999858
        },
        {
          "name": "F2",
          "midi": 41,
          "time": 16.312499999999996,
          "velocity": 0.7086614173228346,
          "duration": 0.14999999999999858
        },
        {
          "name": "F2",
          "midi": 41,
          "time": 16.499999999999996,
          "velocity": 0.7086614173228346,
          "duration": 0.3000000000000007
        },
        {
          "name": "D4",
          "midi": 62,
          "time": 16.499999999999996,
          "velocity": 0.7086614173228346,
          "duration": 0.8999999999999986
        },
        {
          "name": "A#3",
          "midi": 58,
          "time": 16.499999999999996,
          "velocity": 0.7086614173228346,
          "duration": 0.8999999999999986
        },
        {
          "name": "F3",
          "midi": 53,
          "time": 16.874999999999996,
          "velocity": 0.7086614173228346,
          "duration": 0.14999999999999858
        },
        {
          "name": "F2",
          "midi": 41,
          "time": 17.062499999999996,
          "velocity": 0.7086614173228346,
          "duration": 0.14999999999999858
        },
        {
          "name": "F2",
          "midi": 41,
          "time": 17.249999999999996,
          "velocity": 0.7086614173228346,
          "duration": 0.14999999999999858
        },
        {
          "name": "C3",
          "midi": 48,
          "time": 17.437499999999996,
          "velocity": 0.7086614173228346,
          "duration": 0.3000000000000007
        },
        {
          "name": "E4",
          "midi": 64,
          "time": 17.437499999999996,
          "velocity": 0.7086614173228346,
          "duration": 0.4499999999999993
        },
        {
          "name": "G3",
          "midi": 55,
          "time": 17.437499999999996,
          "velocity": 0.7086614173228346,
          "duration": 0.4499999999999993
        },
        {
          "name": "C4",
          "midi": 60,
          "time": 17.437499999999996,
          "velocity": 0.7086614173228346,
          "duration": 0.4499999999999993
        },
        {
          "name": "F2",
          "midi": 41,
          "time": 17.812499999999996,
          "velocity": 0.7086614173228346,
          "duration": 0.14999999999999858
        },
        {
          "name": "F2",
          "midi": 41,
          "time": 17.999999999999996,
          "velocity": 0.7086614173228346,
          "duration": 0.3000000000000007
        },
        {
          "name": "F4",
          "midi": 65,
          "time": 17.999999999999996,
          "velocity": 0.7086614173228346,
          "duration": 0.8999999999999986
        },
        {
          "name": "A3",
          "midi": 57,
          "time": 17.999999999999996,
          "velocity": 0.7086614173228346,
          "duration": 0.8999999999999986
        },
        {
          "name": "C4",
          "midi": 60,
          "time": 17.999999999999996,
          "velocity": 0.7086614173228346,
          "duration": 0.8999999999999986
        },
        {
          "name": "F3",
          "midi": 53,
          "time": 18.374999999999996,
          "velocity": 0.7086614173228346,
          "duration": 0.14999999999999858
        },
        {
          "name": "F2",
          "midi": 41,
          "time": 18.562499999999996,
          "velocity": 0.7086614173228346,
          "duration": 0.14999999999999858
        },
        {
          "name": "F2",
          "midi": 41,
          "time": 18.749999999999996,
          "velocity": 0.7086614173228346,
          "duration": 0.29999999999999716
        },
        {
          "name": "F3",
          "midi": 53,
          "time": 19.124999999999993,
          "velocity": 0.7086614173228346,
          "duration": 0.14999999999999858
        },
        {
          "name": "F4",
          "midi": 65,
          "time": 19.124999999999993,
          "velocity": 0.7086614173228346,
          "duration": 0.3000000000000007
        },
        {
          "name": "C4",
          "midi": 60,
          "time": 19.124999999999993,
          "velocity": 0.7086614173228346,
          "duration": 0.3000000000000007
        },
        {
          "name": "A3",
          "midi": 57,
          "time": 19.124999999999993,
          "velocity": 0.7086614173228346,
          "duration": 0.3000000000000007
        },
        {
          "name": "F2",
          "midi": 41,
          "time": 19.312499999999993,
          "velocity": 0.7086614173228346,
          "duration": 0.15000000000000213
        },
        {
          "name": "E4",
          "midi": 64,
          "time": 19.499999999999996,
          "velocity": 0.7086614173228346,
          "duration": 0.6000000000000014
        },
        {
          "name": "F2",
          "midi": 41,
          "time": 19.499999999999996,
          "velocity": 0.7086614173228346,
          "duration": 0.3000000000000007
        },
        {
          "name": "C4",
          "midi": 60,
          "time": 19.499999999999996,
          "velocity": 0.7086614173228346,
          "duration": 0.6000000000000014
        },
        {
          "name": "G3",
          "midi": 55,
          "time": 19.499999999999996,
          "velocity": 0.7086614173228346,
          "duration": 0.6000000000000014
        },
        {
          "name": "F3",
          "midi": 53,
          "time": 19.874999999999996,
          "velocity": 0.7086614173228346,
          "duration": 0.14999999999999858
        },
        {
          "name": "F2",
          "midi": 41,
          "time": 20.062499999999996,
          "velocity": 0.7086614173228346,
          "duration": 0.15000000000000213
        },
        {
          "name": "F2",
          "midi": 41,
          "time": 20.25,
          "velocity": 0.7086614173228346,
          "duration": 0.3000000000000007
        },
        {
          "name": "G3",
          "midi": 55,
          "time": 20.4375,
          "velocity": 0.7086614173228346,
          "duration": 0.15000000000000213
        },
        {
          "name": "F3",
          "midi": 53,
          "time": 20.625000000000004,
          "velocity": 0.7086614173228346,
          "duration": 0.14999999999999858
        },
        {
          "name": "E4",
          "midi": 64,
          "time": 20.625000000000004,
          "velocity": 0.7086614173228346,
          "duration": 0.3000000000000007
        },
        {
          "name": "C4",
          "midi": 60,
          "time": 20.625000000000004,
          "velocity": 0.7086614173228346,
          "duration": 0.3000000000000007
        },
        {
          "name": "F2",
          "midi": 41,
          "time": 20.812500000000004,
          "velocity": 0.7086614173228346,
          "duration": 0.15000000000000213
        },
        {
          "name": "F2",
          "midi": 41,
          "time": 21.000000000000007,
          "velocity": 0.7086614173228346,
          "duration": 0.3000000000000007
        },
        {
          "name": "C4",
          "midi": 60,
          "time": 21.000000000000007,
          "velocity": 0.7086614173228346,
          "duration": 0.6000000000000014
        },
        {
          "name": "F4",
          "midi": 65,
          "time": 21.000000000000007,
          "velocity": 0.7086614173228346,
          "duration": 0.6000000000000014
        },
        {
          "name": "A3",
          "midi": 57,
          "time": 21.000000000000007,
          "velocity": 0.7086614173228346,
          "duration": 0.6000000000000014
        },
        {
          "name": "F3",
          "midi": 53,
          "time": 21.375000000000007,
          "velocity": 0.7086614173228346,
          "duration": 0.14999999999999858
        },
        {
          "name": "F2",
          "midi": 41,
          "time": 21.562500000000007,
          "velocity": 0.7086614173228346,
          "duration": 0.15000000000000213
        },
        {
          "name": "F2",
          "midi": 41,
          "time": 21.75000000000001,
          "velocity": 0.7086614173228346,
          "duration": 0.3000000000000007
        },
        {
          "name": "A3",
          "midi": 57,
          "time": 21.93750000000001,
          "velocity": 0.7086614173228346,
          "duration": 0.15000000000000213
        },
        {
          "name": "C4",
          "midi": 60,
          "time": 22.125000000000014,
          "velocity": 0.7086614173228346,
          "duration": 0.14999999999999858
        },
        {
          "name": "F3",
          "midi": 53,
          "time": 22.125000000000014,
          "velocity": 0.7086614173228346,
          "duration": 0.14999999999999858
        },
        {
          "name": "F2",
          "midi": 41,
          "time": 22.312500000000014,
          "velocity": 0.7086614173228346,
          "duration": 0.14999999999999858
        },
        {
          "name": "F4",
          "midi": 65,
          "time": 22.312500000000014,
          "velocity": 0.7086614173228346,
          "duration": 0.14999999999999858
        },
        {
          "name": "F2",
          "midi": 41,
          "time": 22.500000000000014,
          "velocity": 0.7086614173228346,
          "duration": 0.3000000000000007
        },
        {
          "name": "D4",
          "midi": 62,
          "time": 22.500000000000014,
          "velocity": 0.7086614173228346,
          "duration": 0.8999999999999986
        },
        {
          "name": "A#3",
          "midi": 58,
          "time": 22.500000000000014,
          "velocity": 0.7086614173228346,
          "duration": 0.8999999999999986
        },
        {
          "name": "F3",
          "midi": 53,
          "time": 22.875000000000014,
          "velocity": 0.7086614173228346,
          "duration": 0.14999999999999858
        },
        {
          "name": "F2",
          "midi": 41,
          "time": 23.062500000000014,
          "velocity": 0.7086614173228346,
          "duration": 0.14999999999999858
        },
        {
          "name": "F2",
          "midi": 41,
          "time": 23.250000000000014,
          "velocity": 0.7086614173228346,
          "duration": 0.14999999999999858
        },
        {
          "name": "C3",
          "midi": 48,
          "time": 23.437500000000014,
          "velocity": 0.7086614173228346,
          "duration": 0.3000000000000007
        },
        {
          "name": "E4",
          "midi": 64,
          "time": 23.437500000000014,
          "velocity": 0.7086614173228346,
          "duration": 0.4499999999999993
        },
        {
          "name": "C4",
          "midi": 60,
          "time": 23.437500000000014,
          "velocity": 0.7086614173228346,
          "duration": 0.4499999999999993
        },
        {
          "name": "G3",
          "midi": 55,
          "time": 23.437500000000014,
          "velocity": 0.7086614173228346,
          "duration": 0.4499999999999993
        },
        {
          "name": "F2",
          "midi": 41,
          "time": 23.812500000000014,
          "velocity": 0.7086614173228346,
          "duration": 0.14999999999999858
        },
        {
          "name": "F4",
          "midi": 65,
          "time": 24.000000000000014,
          "velocity": 0.7086614173228346,
          "duration": 0.8999999999999986
        },
        {
          "name": "F2",
          "midi": 41,
          "time": 24.000000000000014,
          "velocity": 0.7086614173228346,
          "duration": 0.3000000000000007
        },
        {
          "name": "A3",
          "midi": 57,
          "time": 24.000000000000014,
          "velocity": 0.7086614173228346,
          "duration": 0.8999999999999986
        },
        {
          "name": "C4",
          "midi": 60,
          "time": 24.000000000000014,
          "velocity": 0.7086614173228346,
          "duration": 0.8999999999999986
        },
        {
          "name": "F3",
          "midi": 53,
          "time": 24.375000000000014,
          "velocity": 0.7086614173228346,
          "duration": 0.14999999999999858
        },
        {
          "name": "F2",
          "midi": 41,
          "time": 24.562500000000014,
          "velocity": 0.7086614173228346,
          "duration": 0.14999999999999858
        },
        {
          "name": "F2",
          "midi": 41,
          "time": 24.750000000000014,
          "velocity": 0.7086614173228346,
          "duration": 0.29999999999999716
        },
        {
          "name": "F3",
          "midi": 53,
          "time": 25.12500000000001,
          "velocity": 0.7086614173228346,
          "duration": 0.14999999999999858
        },
        {
          "name": "A3",
          "midi": 57,
          "time": 25.12500000000001,
          "velocity": 0.7086614173228346,
          "duration": 0.3000000000000007
        },
        {
          "name": "F4",
          "midi": 65,
          "time": 25.12500000000001,
          "velocity": 0.7086614173228346,
          "duration": 0.3000000000000007
        },
        {
          "name": "C4",
          "midi": 60,
          "time": 25.12500000000001,
          "velocity": 0.7086614173228346,
          "duration": 0.3000000000000007
        },
        {
          "name": "F2",
          "midi": 41,
          "time": 25.31250000000001,
          "velocity": 0.7086614173228346,
          "duration": 0.15000000000000213
        },
        {
          "name": "C4",
          "midi": 60,
          "time": 25.500000000000014,
          "velocity": 0.7086614173228346,
          "duration": 0.6000000000000014
        },
        {
          "name": "F2",
          "midi": 41,
          "time": 25.500000000000014,
          "velocity": 0.7086614173228346,
          "duration": 0.3000000000000007
        },
        {
          "name": "E4",
          "midi": 64,
          "time": 25.500000000000014,
          "velocity": 0.7086614173228346,
          "duration": 0.6000000000000014
        },
        {
          "name": "G3",
          "midi": 55,
          "time": 25.500000000000014,
          "velocity": 0.7086614173228346,
          "duration": 0.6000000000000014
        },
        {
          "name": "F3",
          "midi": 53,
          "time": 25.875000000000014,
          "velocity": 0.7086614173228346,
          "duration": 0.14999999999999858
        },
        {
          "name": "F2",
          "midi": 41,
          "time": 26.062500000000014,
          "velocity": 0.7086614173228346,
          "duration": 0.15000000000000213
        },
        {
          "name": "F2",
          "midi": 41,
          "time": 26.250000000000018,
          "velocity": 0.7086614173228346,
          "duration": 0.3000000000000007
        },
        {
          "name": "G3",
          "midi": 55,
          "time": 26.437500000000018,
          "velocity": 0.7086614173228346,
          "duration": 0.15000000000000213
        },
        {
          "name": "F3",
          "midi": 53,
          "time": 26.62500000000002,
          "velocity": 0.7086614173228346,
          "duration": 0.14999999999999858
        },
        {
          "name": "C4",
          "midi": 60,
          "time": 26.62500000000002,
          "velocity": 0.7086614173228346,
          "duration": 0.3000000000000007
        },
        {
          "name": "E4",
          "midi": 64,
          "time": 26.62500000000002,
          "velocity": 0.7086614173228346,
          "duration": 0.3000000000000007
        },
        {
          "name": "F2",
          "midi": 41,
          "time": 26.81250000000002,
          "velocity": 0.7086614173228346,
          "duration": 0.15000000000000213
        },
        {
          "name": "F4",
          "midi": 65,
          "time": 27.000000000000025,
          "velocity": 0.7086614173228346,
          "duration": 0.6000000000000014
        },
        {
          "name": "F2",
          "midi": 41,
          "time": 27.000000000000025,
          "velocity": 0.7086614173228346,
          "duration": 0.3000000000000007
        },
        {
          "name": "A3",
          "midi": 57,
          "time": 27.000000000000025,
          "velocity": 0.7086614173228346,
          "duration": 0.6000000000000014
        },
        {
          "name": "C4",
          "midi": 60,
          "time": 27.000000000000025,
          "velocity": 0.7086614173228346,
          "duration": 0.6000000000000014
        },
        {
          "name": "F3",
          "midi": 53,
          "time": 27.375000000000025,
          "velocity": 0.7086614173228346,
          "duration": 0.14999999999999858
        },
        {
          "name": "F2",
          "midi": 41,
          "time": 27.562500000000025,
          "velocity": 0.7086614173228346,
          "duration": 0.15000000000000213
        },
        {
          "name": "F2",
          "midi": 41,
          "time": 27.75000000000003,
          "velocity": 0.7086614173228346,
          "duration": 0.3000000000000007
        },
        {
          "name": "A3",
          "midi": 57,
          "time": 27.93750000000003,
          "velocity": 0.7086614173228346,
          "duration": 0.15000000000000213
        },
        {
          "name": "C4",
          "midi": 60,
          "time": 28.125000000000032,
          "velocity": 0.7086614173228346,
          "duration": 0.14999999999999858
        },
        {
          "name": "F3",
          "midi": 53,
          "time": 28.125000000000032,
          "velocity": 0.7086614173228346,
          "duration": 0.14999999999999858
        },
        {
          "name": "F2",
          "midi": 41,
          "time": 28.312500000000032,
          "velocity": 0.7086614173228346,
          "duration": 0.14999999999999858
        },
        {
          "name": "F4",
          "midi": 65,
          "time": 28.312500000000032,
          "velocity": 0.7086614173228346,
          "duration": 0.14999999999999858
        },
        {
          "name": "F2",
          "midi": 41,
          "time": 28.500000000000032,
          "velocity": 0.7086614173228346,
          "duration": 0.3000000000000007
        },
        {
          "name": "A#3",
          "midi": 58,
          "time": 28.500000000000032,
          "velocity": 0.7086614173228346,
          "duration": 0.8999999999999986
        },
        {
          "name": "D4",
          "midi": 62,
          "time": 28.500000000000032,
          "velocity": 0.7086614173228346,
          "duration": 0.8999999999999986
        },
        {
          "name": "F3",
          "midi": 53,
          "time": 28.875000000000032,
          "velocity": 0.7086614173228346,
          "duration": 0.14999999999999858
        },
        {
          "name": "F2",
          "midi": 41,
          "time": 29.062500000000032,
          "velocity": 0.7086614173228346,
          "duration": 0.14999999999999858
        },
        {
          "name": "F2",
          "midi": 41,
          "time": 29.250000000000032,
          "velocity": 0.7086614173228346,
          "duration": 0.14999999999999858
        },
        {
          "name": "C3",
          "midi": 48,
          "time": 29.437500000000032,
          "velocity": 0.7086614173228346,
          "duration": 0.3000000000000007
        },
        {
          "name": "C4",
          "midi": 60,
          "time": 29.437500000000032,
          "velocity": 0.7086614173228346,
          "duration": 0.4499999999999993
        },
        {
          "name": "E4",
          "midi": 64,
          "time": 29.437500000000032,
          "velocity": 0.7086614173228346,
          "duration": 0.4499999999999993
        },
        {
          "name": "G3",
          "midi": 55,
          "time": 29.437500000000032,
          "velocity": 0.7086614173228346,
          "duration": 0.4499999999999993
        },
        {
          "name": "F2",
          "midi": 41,
          "time": 29.812500000000032,
          "velocity": 0.7086614173228346,
          "duration": 0.14999999999999858
        },
        {
          "name": "F2",
          "midi": 41,
          "time": 30.000000000000032,
          "velocity": 0.7086614173228346,
          "duration": 0.3000000000000007
        },
        {
          "name": "A#3",
          "midi": 58,
          "time": 30.000000000000032,
          "velocity": 0.7086614173228346,
          "duration": 0.8999999999999986
        },
        {
          "name": "D4",
          "midi": 62,
          "time": 30.000000000000032,
          "velocity": 0.7086614173228346,
          "duration": 0.8999999999999986
        },
        {
          "name": "F4",
          "midi": 65,
          "time": 30.000000000000032,
          "velocity": 0.7086614173228346,
          "duration": 0.8999999999999986
        },
        {
          "name": "F3",
          "midi": 53,
          "time": 30.375000000000032,
          "velocity": 0.7086614173228346,
          "duration": 0.14999999999999858
        },
        {
          "name": "F2",
          "midi": 41,
          "time": 30.562500000000032,
          "velocity": 0.7086614173228346,
          "duration": 0.14999999999999858
        },
        {
          "name": "F2",
          "midi": 41,
          "time": 30.750000000000032,
          "velocity": 0.7086614173228346,
          "duration": 0.29999999999999716
        },
        {
          "name": "F3",
          "midi": 53,
          "time": 31.12500000000003,
          "velocity": 0.7086614173228346,
          "duration": 0.14999999999999858
        },
        {
          "name": "F4",
          "midi": 65,
          "time": 31.12500000000003,
          "velocity": 0.7086614173228346,
          "duration": 0.3000000000000007
        },
        {
          "name": "D4",
          "midi": 62,
          "time": 31.12500000000003,
          "velocity": 0.7086614173228346,
          "duration": 0.3000000000000007
        },
        {
          "name": "A#3",
          "midi": 58,
          "time": 31.12500000000003,
          "velocity": 0.7086614173228346,
          "duration": 0.3000000000000007
        },
        {
          "name": "F2",
          "midi": 41,
          "time": 31.31250000000003,
          "velocity": 0.7086614173228346,
          "duration": 0.15000000000000213
        },
        {
          "name": "F2",
          "midi": 41,
          "time": 31.500000000000032,
          "velocity": 0.7086614173228346,
          "duration": 0.3000000000000007
        },
        {
          "name": "C4",
          "midi": 60,
          "time": 31.500000000000032,
          "velocity": 0.7086614173228346,
          "duration": 0.9000000000000021
        },
        {
          "name": "G3",
          "midi": 55,
          "time": 31.500000000000032,
          "velocity": 0.7086614173228346,
          "duration": 0.9000000000000021
        },
        {
          "name": "A#3",
          "midi": 58,
          "time": 31.500000000000032,
          "velocity": 0.7086614173228346,
          "duration": 0.9000000000000021
        },
        {
          "name": "E4",
          "midi": 64,
          "time": 31.500000000000032,
          "velocity": 0.7086614173228346,
          "duration": 0.9000000000000021
        },
        {
          "name": "F3",
          "midi": 53,
          "time": 31.875000000000032,
          "velocity": 0.7086614173228346,
          "duration": 0.15000000000000213
        },
        {
          "name": "F2",
          "midi": 41,
          "time": 32.062500000000036,
          "velocity": 0.7086614173228346,
          "duration": 0.14999999999999858
        },
        {
          "name": "F2",
          "midi": 41,
          "time": 32.250000000000036,
          "velocity": 0.7086614173228346,
          "duration": 0.29999999999999716
        },
        {
          "name": "G3",
          "midi": 55,
          "time": 32.437500000000036,
          "velocity": 0.7086614173228346,
          "duration": 0.14999999999999858
        },
        {
          "name": "F3",
          "midi": 53,
          "time": 32.625000000000036,
          "velocity": 0.7086614173228346,
          "duration": 0.14999999999999858
        },
        {
          "name": "E4",
          "midi": 64,
          "time": 32.625000000000036,
          "velocity": 0.7086614173228346,
          "duration": 0.29999999999999716
        },
        {
          "name": "C4",
          "midi": 60,
          "time": 32.625000000000036,
          "velocity": 0.7086614173228346,
          "duration": 0.29999999999999716
        },
        {
          "name": "F2",
          "midi": 41,
          "time": 32.812500000000036,
          "velocity": 0.7086614173228346,
          "duration": 0.14999999999999858
        },
        {
          "name": "F2",
          "midi": 41,
          "time": 33.000000000000036,
          "velocity": 0.7086614173228346,
          "duration": 0.29999999999999716
        },
        {
          "name": "C4",
          "midi": 60,
          "time": 33.000000000000036,
          "velocity": 0.7086614173228346,
          "duration": 0.6000000000000014
        },
        {
          "name": "F4",
          "midi": 65,
          "time": 33.000000000000036,
          "velocity": 0.7086614173228346,
          "duration": 0.6000000000000014
        },
        {
          "name": "A3",
          "midi": 57,
          "time": 33.000000000000036,
          "velocity": 0.7086614173228346,
          "duration": 0.6000000000000014
        },
        {
          "name": "F3",
          "midi": 53,
          "time": 33.375000000000036,
          "velocity": 0.7086614173228346,
          "duration": 0.14999999999999858
        },
        {
          "name": "F2",
          "midi": 41,
          "time": 33.562500000000036,
          "velocity": 0.7086614173228346,
          "duration": 0.14999999999999858
        },
        {
          "name": "F2",
          "midi": 41,
          "time": 33.750000000000036,
          "velocity": 0.7086614173228346,
          "duration": 0.29999999999999716
        },
        {
          "name": "A3",
          "midi": 57,
          "time": 33.937500000000036,
          "velocity": 0.7086614173228346,
          "duration": 0.14999999999999858
        },
        {
          "name": "F3",
          "midi": 53,
          "time": 34.125000000000036,
          "velocity": 0.7086614173228346,
          "duration": 0.14999999999999858
        },
        {
          "name": "C4",
          "midi": 60,
          "time": 34.125000000000036,
          "velocity": 0.7086614173228346,
          "duration": 0.14999999999999858
        },
        {
          "name": "F2",
          "midi": 41,
          "time": 34.312500000000036,
          "velocity": 0.7086614173228346,
          "duration": 0.14999999999999858
        },
        {
          "name": "F4",
          "midi": 65,
          "time": 34.312500000000036,
          "velocity": 0.7086614173228346,
          "duration": 0.14999999999999858
        },
        {
          "name": "F2",
          "midi": 41,
          "time": 34.500000000000036,
          "velocity": 0.7086614173228346,
          "duration": 0.29999999999999716
        },
        {
          "name": "A#3",
          "midi": 58,
          "time": 34.500000000000036,
          "velocity": 0.7086614173228346,
          "duration": 0.8999999999999986
        },
        {
          "name": "D4",
          "midi": 62,
          "time": 34.500000000000036,
          "velocity": 0.7086614173228346,
          "duration": 0.8999999999999986
        },
        {
          "name": "F3",
          "midi": 53,
          "time": 34.875000000000036,
          "velocity": 0.7086614173228346,
          "duration": 0.14999999999999858
        },
        {
          "name": "F2",
          "midi": 41,
          "time": 35.062500000000036,
          "velocity": 0.7086614173228346,
          "duration": 0.14999999999999858
        },
        {
          "name": "F2",
          "midi": 41,
          "time": 35.250000000000036,
          "velocity": 0.7086614173228346,
          "duration": 0.14999999999999858
        },
        {
          "name": "C3",
          "midi": 48,
          "time": 35.437500000000036,
          "velocity": 0.7086614173228346,
          "duration": 0.29999999999999716
        },
        {
          "name": "G3",
          "midi": 55,
          "time": 35.437500000000036,
          "velocity": 0.7086614173228346,
          "duration": 0.45000000000000284
        },
        {
          "name": "C4",
          "midi": 60,
          "time": 35.437500000000036,
          "velocity": 0.7086614173228346,
          "duration": 0.45000000000000284
        },
        {
          "name": "E4",
          "midi": 64,
          "time": 35.437500000000036,
          "velocity": 0.7086614173228346,
          "duration": 0.45000000000000284
        },
        {
          "name": "F2",
          "midi": 41,
          "time": 35.812500000000036,
          "velocity": 0.7086614173228346,
          "duration": 0.15000000000000568
        },
        {
          "name": "G#2",
          "midi": 44,
          "time": 36.00000000000004,
          "velocity": 0.7086614173228346,
          "duration": 0.29999999999999716
        },
        {
          "name": "D#6",
          "midi": 87,
          "time": 36.00000000000004,
          "velocity": 0.7086614173228346,
          "duration": 0.07500000000000284
        },
        {
          "name": "G#5",
          "midi": 80,
          "time": 36.00000000000004,
          "velocity": 0.7086614173228346,
          "duration": 0.07500000000000284
        },
        {
          "name": "G#4",
          "midi": 68,
          "time": 36.00000000000004,
          "velocity": 0.7086614173228346,
          "duration": 0.8999999999999773
        },
        {
          "name": "D#4",
          "midi": 63,
          "time": 36.00000000000004,
          "velocity": 0.7086614173228346,
          "duration": 0.8999999999999773
        },
        {
          "name": "C4",
          "midi": 60,
          "time": 36.00000000000004,
          "velocity": 0.7086614173228346,
          "duration": 0.8999999999999773
        },
        {
          "name": "G#6",
          "midi": 92,
          "time": 36.09375000000004,
          "velocity": 0.7086614173228346,
          "duration": 0.07500000000000284
        },
        {
          "name": "G#5",
          "midi": 80,
          "time": 36.18750000000004,
          "velocity": 0.7086614173228346,
          "duration": 0.07500000000000284
        },
        {
          "name": "G#6",
          "midi": 92,
          "time": 36.28125000000004,
          "velocity": 0.7086614173228346,
          "duration": 0.07499999999999574
        },
        {
          "name": "G#3",
          "midi": 56,
          "time": 36.375000000000036,
          "velocity": 0.7086614173228346,
          "duration": 0.14999999999999858
        },
        {
          "name": "G#5",
          "midi": 80,
          "time": 36.375000000000036,
          "velocity": 0.7086614173228346,
          "duration": 0.07500000000000284
        },
        {
          "name": "A#5",
          "midi": 82,
          "time": 36.375000000000036,
          "velocity": 0.7086614173228346,
          "duration": 0.07500000000000284
        },
        {
          "name": "G#6",
          "midi": 92,
          "time": 36.468750000000036,
          "velocity": 0.7086614173228346,
          "duration": 0.07499999999999574
        },
        {
          "name": "G#5",
          "midi": 80,
          "time": 36.56250000000003,
          "velocity": 0.7086614173228346,
          "duration": 0.07500000000000284
        },
        {
          "name": "G#2",
          "midi": 44,
          "time": 36.56250000000003,
          "velocity": 0.7086614173228346,
          "duration": 0.14999999999999858
        },
        {
          "name": "G#6",
          "midi": 92,
          "time": 36.65625000000003,
          "velocity": 0.7086614173228346,
          "duration": 0.07499999999999574
        },
        {
          "name": "G#5",
          "midi": 80,
          "time": 36.75000000000002,
          "velocity": 0.7086614173228346,
          "duration": 0.07500000000000284
        },
        {
          "name": "G#2",
          "midi": 44,
          "time": 36.75000000000002,
          "velocity": 0.7086614173228346,
          "duration": 0.29999999999999005
        },
        {
          "name": "D#6",
          "midi": 87,
          "time": 36.75000000000002,
          "velocity": 0.7086614173228346,
          "duration": 0.07500000000000284
        },
        {
          "name": "G#6",
          "midi": 92,
          "time": 36.84375000000002,
          "velocity": 0.7086614173228346,
          "duration": 0.07499999999999574
        },
        {
          "name": "G#5",
          "midi": 80,
          "time": 36.937500000000014,
          "velocity": 0.7086614173228346,
          "duration": 0.07500000000000284
        },
        {
          "name": "G#6",
          "midi": 92,
          "time": 37.031250000000014,
          "velocity": 0.7086614173228346,
          "duration": 0.07499999999999574
        },
        {
          "name": "G#4",
          "midi": 68,
          "time": 37.12500000000001,
          "velocity": 0.7086614173228346,
          "duration": 0.29999999999999005
        },
        {
          "name": "D#4",
          "midi": 63,
          "time": 37.12500000000001,
          "velocity": 0.7086614173228346,
          "duration": 0.29999999999999005
        },
        {
          "name": "C4",
          "midi": 60,
          "time": 37.12500000000001,
          "velocity": 0.7086614173228346,
          "duration": 0.29999999999999005
        },
        {
          "name": "G#5",
          "midi": 80,
          "time": 37.12500000000001,
          "velocity": 0.7086614173228346,
          "duration": 0.07500000000000284
        },
        {
          "name": "A#5",
          "midi": 82,
          "time": 37.12500000000001,
          "velocity": 0.7086614173228346,
          "duration": 0.07500000000000284
        },
        {
          "name": "G#3",
          "midi": 56,
          "time": 37.12500000000001,
          "velocity": 0.7086614173228346,
          "duration": 0.14999999999999858
        },
        {
          "name": "G#6",
          "midi": 92,
          "time": 37.21875000000001,
          "velocity": 0.7086614173228346,
          "duration": 0.07499999999999574
        },
        {
          "name": "G#5",
          "midi": 80,
          "time": 37.3125,
          "velocity": 0.7086614173228346,
          "duration": 0.07500000000000284
        },
        {
          "name": "G#2",
          "midi": 44,
          "time": 37.3125,
          "velocity": 0.7086614173228346,
          "duration": 0.14999999999999858
        },
        {
          "name": "G#6",
          "midi": 92,
          "time": 37.40625,
          "velocity": 0.7086614173228346,
          "duration": 0.07499999999999574
        },
        {
          "name": "G4",
          "midi": 67,
          "time": 37.49999999999999,
          "velocity": 0.7086614173228346,
          "duration": 0.5999999999999872
        },
        {
          "name": "G#5",
          "midi": 80,
          "time": 37.49999999999999,
          "velocity": 0.7086614173228346,
          "duration": 0.07500000000000284
        },
        {
          "name": "D#6",
          "midi": 87,
          "time": 37.49999999999999,
          "velocity": 0.7086614173228346,
          "duration": 0.07500000000000284
        },
        {
          "name": "G#2",
          "midi": 44,
          "time": 37.49999999999999,
          "velocity": 0.7086614173228346,
          "duration": 0.29999999999999716
        },
        {
          "name": "A#3",
          "midi": 58,
          "time": 37.49999999999999,
          "velocity": 0.7086614173228346,
          "duration": 0.5999999999999872
        },
        {
          "name": "D#4",
          "midi": 63,
          "time": 37.49999999999999,
          "velocity": 0.7086614173228346,
          "duration": 0.5999999999999872
        },
        {
          "name": "G#6",
          "midi": 92,
          "time": 37.59374999999999,
          "velocity": 0.7086614173228346,
          "duration": 0.07500000000000284
        },
        {
          "name": "G#5",
          "midi": 80,
          "time": 37.68749999999999,
          "velocity": 0.7086614173228346,
          "duration": 0.07500000000000284
        },
        {
          "name": "G#6",
          "midi": 92,
          "time": 37.78124999999999,
          "velocity": 0.7086614173228346,
          "duration": 0.07499999999999574
        },
        {
          "name": "G#3",
          "midi": 56,
          "time": 37.874999999999986,
          "velocity": 0.7086614173228346,
          "duration": 0.14999999999999858
        },
        {
          "name": "A#5",
          "midi": 82,
          "time": 37.874999999999986,
          "velocity": 0.7086614173228346,
          "duration": 0.07500000000000284
        },
        {
          "name": "G#5",
          "midi": 80,
          "time": 37.874999999999986,
          "velocity": 0.7086614173228346,
          "duration": 0.07500000000000284
        },
        {
          "name": "G#6",
          "midi": 92,
          "time": 37.968749999999986,
          "velocity": 0.7086614173228346,
          "duration": 0.07499999999999574
        },
        {
          "name": "G#5",
          "midi": 80,
          "time": 38.06249999999998,
          "velocity": 0.7086614173228346,
          "duration": 0.07500000000000284
        },
        {
          "name": "G#2",
          "midi": 44,
          "time": 38.06249999999998,
          "velocity": 0.7086614173228346,
          "duration": 0.14999999999999858
        },
        {
          "name": "G#6",
          "midi": 92,
          "time": 38.15624999999998,
          "velocity": 0.7086614173228346,
          "duration": 0.07499999999999574
        },
        {
          "name": "G#2",
          "midi": 44,
          "time": 38.24999999999997,
          "velocity": 0.7086614173228346,
          "duration": 0.29999999999999716
        },
        {
          "name": "G#5",
          "midi": 80,
          "time": 38.24999999999997,
          "velocity": 0.7086614173228346,
          "duration": 0.07500000000000284
        },
        {
          "name": "D#6",
          "midi": 87,
          "time": 38.24999999999997,
          "velocity": 0.7086614173228346,
          "duration": 0.07500000000000284
        },
        {
          "name": "G#6",
          "midi": 92,
          "time": 38.34374999999997,
          "velocity": 0.7086614173228346,
          "duration": 0.07500000000000284
        },
        {
          "name": "A#3",
          "midi": 58,
          "time": 38.43749999999997,
          "velocity": 0.7086614173228346,
          "duration": 0.14999999999999858
        },
        {
          "name": "G#5",
          "midi": 80,
          "time": 38.43749999999997,
          "velocity": 0.7086614173228346,
          "duration": 0.07500000000000284
        },
        {
          "name": "G#6",
          "midi": 92,
          "time": 38.53124999999997,
          "velocity": 0.7086614173228346,
          "duration": 0.07499999999999574
        },
        {
          "name": "D#4",
          "midi": 63,
          "time": 38.624999999999964,
          "velocity": 0.7086614173228346,
          "duration": 0.29999999999999005
        },
        {
          "name": "G4",
          "midi": 67,
          "time": 38.624999999999964,
          "velocity": 0.7086614173228346,
          "duration": 0.29999999999999005
        },
        {
          "name": "A#5",
          "midi": 82,
          "time": 38.624999999999964,
          "velocity": 0.7086614173228346,
          "duration": 0.07500000000000284
        },
        {
          "name": "G#5",
          "midi": 80,
          "time": 38.624999999999964,
          "velocity": 0.7086614173228346,
          "duration": 0.07500000000000284
        },
        {
          "name": "G#3",
          "midi": 56,
          "time": 38.624999999999964,
          "velocity": 0.7086614173228346,
          "duration": 0.14999999999999858
        },
        {
          "name": "G#6",
          "midi": 92,
          "time": 38.718749999999964,
          "velocity": 0.7086614173228346,
          "duration": 0.07499999999999574
        },
        {
          "name": "G#5",
          "midi": 80,
          "time": 38.81249999999996,
          "velocity": 0.7086614173228346,
          "duration": 0.07500000000000284
        },
        {
          "name": "G#2",
          "midi": 44,
          "time": 38.81249999999996,
          "velocity": 0.7086614173228346,
          "duration": 0.14999999999999858
        },
        {
          "name": "G#6",
          "midi": 92,
          "time": 38.90624999999996,
          "velocity": 0.7086614173228346,
          "duration": 0.07499999999999574
        },
        {
          "name": "G#4",
          "midi": 68,
          "time": 38.99999999999995,
          "velocity": 0.7086614173228346,
          "duration": 0.5999999999999872
        },
        {
          "name": "G#5",
          "midi": 80,
          "time": 38.99999999999995,
          "velocity": 0.7086614173228346,
          "duration": 0.07500000000000284
        },
        {
          "name": "D#6",
          "midi": 87,
          "time": 38.99999999999995,
          "velocity": 0.7086614173228346,
          "duration": 0.07500000000000284
        },
        {
          "name": "D#4",
          "midi": 63,
          "time": 38.99999999999995,
          "velocity": 0.7086614173228346,
          "duration": 0.5999999999999872
        },
        {
          "name": "G#2",
          "midi": 44,
          "time": 38.99999999999995,
          "velocity": 0.7086614173228346,
          "duration": 0.29999999999999716
        },
        {
          "name": "C4",
          "midi": 60,
          "time": 38.99999999999995,
          "velocity": 0.7086614173228346,
          "duration": 0.5999999999999872
        },
        {
          "name": "G#6",
          "midi": 92,
          "time": 39.09374999999995,
          "velocity": 0.7086614173228346,
          "duration": 0.07500000000000284
        },
        {
          "name": "G#5",
          "midi": 80,
          "time": 39.18749999999995,
          "velocity": 0.7086614173228346,
          "duration": 0.07500000000000284
        },
        {
          "name": "G#6",
          "midi": 92,
          "time": 39.28124999999995,
          "velocity": 0.7086614173228346,
          "duration": 0.07499999999999574
        },
        {
          "name": "A#5",
          "midi": 82,
          "time": 39.37499999999994,
          "velocity": 0.7086614173228346,
          "duration": 0.07500000000000284
        },
        {
          "name": "G#3",
          "midi": 56,
          "time": 39.37499999999994,
          "velocity": 0.7086614173228346,
          "duration": 0.14999999999999858
        },
        {
          "name": "G#5",
          "midi": 80,
          "time": 39.37499999999994,
          "velocity": 0.7086614173228346,
          "duration": 0.07500000000000284
        },
        {
          "name": "G#6",
          "midi": 92,
          "time": 39.46874999999994,
          "velocity": 0.7086614173228346,
          "duration": 0.07499999999999574
        },
        {
          "name": "G#5",
          "midi": 80,
          "time": 39.562499999999936,
          "velocity": 0.7086614173228346,
          "duration": 0.07500000000000284
        },
        {
          "name": "G#2",
          "midi": 44,
          "time": 39.562499999999936,
          "velocity": 0.7086614173228346,
          "duration": 0.14999999999999858
        },
        {
          "name": "G#6",
          "midi": 92,
          "time": 39.656249999999936,
          "velocity": 0.7086614173228346,
          "duration": 0.07499999999999574
        },
        {
          "name": "G#5",
          "midi": 80,
          "time": 39.74999999999993,
          "velocity": 0.7086614173228346,
          "duration": 0.07500000000000284
        },
        {
          "name": "G#2",
          "midi": 44,
          "time": 39.74999999999993,
          "velocity": 0.7086614173228346,
          "duration": 0.29999999999999716
        },
        {
          "name": "D#6",
          "midi": 87,
          "time": 39.74999999999993,
          "velocity": 0.7086614173228346,
          "duration": 0.07500000000000284
        },
        {
          "name": "G#6",
          "midi": 92,
          "time": 39.84374999999993,
          "velocity": 0.7086614173228346,
          "duration": 0.07500000000000284
        },
        {
          "name": "C4",
          "midi": 60,
          "time": 39.93749999999993,
          "velocity": 0.7086614173228346,
          "duration": 0.14999999999999858
        },
        {
          "name": "G#5",
          "midi": 80,
          "time": 39.93749999999993,
          "velocity": 0.7086614173228346,
          "duration": 0.07500000000000284
        },
        {
          "name": "G#6",
          "midi": 92,
          "time": 40.03124999999993,
          "velocity": 0.7086614173228346,
          "duration": 0.07499999999999574
        },
        {
          "name": "A#5",
          "midi": 82,
          "time": 40.12499999999992,
          "velocity": 0.7086614173228346,
          "duration": 0.07500000000000284
        },
        {
          "name": "G#5",
          "midi": 80,
          "time": 40.12499999999992,
          "velocity": 0.7086614173228346,
          "duration": 0.07500000000000284
        },
        {
          "name": "D#4",
          "midi": 63,
          "time": 40.12499999999992,
          "velocity": 0.7086614173228346,
          "duration": 0.14999999999999858
        },
        {
          "name": "G#3",
          "midi": 56,
          "time": 40.12499999999992,
          "velocity": 0.7086614173228346,
          "duration": 0.14999999999999858
        },
        {
          "name": "G#6",
          "midi": 92,
          "time": 40.21874999999992,
          "velocity": 0.7086614173228346,
          "duration": 0.07499999999999574
        },
        {
          "name": "G#5",
          "midi": 80,
          "time": 40.312499999999915,
          "velocity": 0.7086614173228346,
          "duration": 0.07500000000000284
        },
        {
          "name": "G#4",
          "midi": 68,
          "time": 40.312499999999915,
          "velocity": 0.7086614173228346,
          "duration": 0.14999999999999858
        },
        {
          "name": "G#2",
          "midi": 44,
          "time": 40.312499999999915,
          "velocity": 0.7086614173228346,
          "duration": 0.14999999999999858
        },
        {
          "name": "G#6",
          "midi": 92,
          "time": 40.406249999999915,
          "velocity": 0.7086614173228346,
          "duration": 0.07499999999999574
        },
        {
          "name": "F4",
          "midi": 65,
          "time": 40.49999999999991,
          "velocity": 0.7086614173228346,
          "duration": 0.8999999999999773
        },
        {
          "name": "G#2",
          "midi": 44,
          "time": 40.49999999999991,
          "velocity": 0.7086614173228346,
          "duration": 0.29999999999999716
        },
        {
          "name": "D#6",
          "midi": 87,
          "time": 40.49999999999991,
          "velocity": 0.7086614173228346,
          "duration": 0.07500000000000284
        },
        {
          "name": "G#5",
          "midi": 80,
          "time": 40.49999999999991,
          "velocity": 0.7086614173228346,
          "duration": 0.07500000000000284
        },
        {
          "name": "C#4",
          "midi": 61,
          "time": 40.49999999999991,
          "velocity": 0.7086614173228346,
          "duration": 0.8999999999999773
        },
        {
          "name": "G#6",
          "midi": 92,
          "time": 40.59374999999991,
          "velocity": 0.7086614173228346,
          "duration": 0.07500000000000284
        },
        {
          "name": "G#5",
          "midi": 80,
          "time": 40.68749999999991,
          "velocity": 0.7086614173228346,
          "duration": 0.07500000000000284
        },
        {
          "name": "G#6",
          "midi": 92,
          "time": 40.78124999999991,
          "velocity": 0.7086614173228346,
          "duration": 0.07499999999999574
        },
        {
          "name": "G#3",
          "midi": 56,
          "time": 40.8749999999999,
          "velocity": 0.7086614173228346,
          "duration": 0.14999999999999858
        },
        {
          "name": "G#5",
          "midi": 80,
          "time": 40.8749999999999,
          "velocity": 0.7086614173228346,
          "duration": 0.07500000000000284
        },
        {
          "name": "A#5",
          "midi": 82,
          "time": 40.8749999999999,
          "velocity": 0.7086614173228346,
          "duration": 0.07500000000000284
        },
        {
          "name": "G#6",
          "midi": 92,
          "time": 40.9687499999999,
          "velocity": 0.7086614173228346,
          "duration": 0.07499999999999574
        },
        {
          "name": "G#5",
          "midi": 80,
          "time": 41.06249999999989,
          "velocity": 0.7086614173228346,
          "duration": 0.07500000000000284
        },
        {
          "name": "G#2",
          "midi": 44,
          "time": 41.06249999999989,
          "velocity": 0.7086614173228346,
          "duration": 0.14999999999999858
        },
        {
          "name": "G#6",
          "midi": 92,
          "time": 41.15624999999989,
          "velocity": 0.7086614173228346,
          "duration": 0.07499999999999574
        },
        {
          "name": "D#6",
          "midi": 87,
          "time": 41.249999999999886,
          "velocity": 0.7086614173228346,
          "duration": 0.07500000000000284
        },
        {
          "name": "G#5",
          "midi": 80,
          "time": 41.249999999999886,
          "velocity": 0.7086614173228346,
          "duration": 0.07500000000000284
        },
        {
          "name": "G#2",
          "midi": 44,
          "time": 41.249999999999886,
          "velocity": 0.7086614173228346,
          "duration": 0.14999999999999858
        },
        {
          "name": "G#6",
          "midi": 92,
          "time": 41.343749999999886,
          "velocity": 0.7086614173228346,
          "duration": 0.07499999999999574
        },
        {
          "name": "G#5",
          "midi": 80,
          "time": 41.43749999999988,
          "velocity": 0.7086614173228346,
          "duration": 0.07500000000000284
        },
        {
          "name": "D#3",
          "midi": 51,
          "time": 41.43749999999988,
          "velocity": 0.7086614173228346,
          "duration": 0.29999999999999716
        },
        {
          "name": "G4",
          "midi": 67,
          "time": 41.43749999999988,
          "velocity": 0.7086614173228346,
          "duration": 0.44999999999999574
        },
        {
          "name": "A#3",
          "midi": 58,
          "time": 41.43749999999988,
          "velocity": 0.7086614173228346,
          "duration": 0.44999999999999574
        },
        {
          "name": "D#4",
          "midi": 63,
          "time": 41.43749999999988,
          "velocity": 0.7086614173228346,
          "duration": 0.44999999999999574
        },
        {
          "name": "G#6",
          "midi": 92,
          "time": 41.53124999999988,
          "velocity": 0.7086614173228346,
          "duration": 0.07500000000000284
        },
        {
          "name": "G#5",
          "midi": 80,
          "time": 41.62499999999988,
          "velocity": 0.7086614173228346,
          "duration": 0.07500000000000284
        },
        {
          "name": "A#5",
          "midi": 82,
          "time": 41.62499999999988,
          "velocity": 0.7086614173228346,
          "duration": 0.07500000000000284
        },
        {
          "name": "G#6",
          "midi": 92,
          "time": 41.71874999999988,
          "velocity": 0.7086614173228346,
          "duration": 0.07499999999999574
        },
        {
          "name": "G#5",
          "midi": 80,
          "time": 41.81249999999987,
          "velocity": 0.7086614173228346,
          "duration": 0.07500000000000284
        },
        {
          "name": "G#2",
          "midi": 44,
          "time": 41.81249999999987,
          "velocity": 0.7086614173228346,
          "duration": 0.14999999999999858
        },
        {
          "name": "G#6",
          "midi": 92,
          "time": 41.90624999999987,
          "velocity": 0.7086614173228346,
          "duration": 0.07499999999999574
        },
        {
          "name": "G#2",
          "midi": 44,
          "time": 41.999999999999865,
          "velocity": 0.7086614173228346,
          "duration": 0.29999999999999716
        },
        {
          "name": "G#5",
          "midi": 80,
          "time": 41.999999999999865,
          "velocity": 0.7086614173228346,
          "duration": 0.07500000000000284
        },
        {
          "name": "D#6",
          "midi": 87,
          "time": 41.999999999999865,
          "velocity": 0.7086614173228346,
          "duration": 0.07500000000000284
        },
        {
          "name": "C4",
          "midi": 60,
          "time": 41.999999999999865,
          "velocity": 0.7086614173228346,
          "duration": 0.8999999999999773
        },
        {
          "name": "D#4",
          "midi": 63,
          "time": 41.999999999999865,
          "velocity": 0.7086614173228346,
          "duration": 0.8999999999999773
        },
        {
          "name": "G#4",
          "midi": 68,
          "time": 41.999999999999865,
          "velocity": 0.7086614173228346,
          "duration": 0.8999999999999773
        },
        {
          "name": "G#6",
          "midi": 92,
          "time": 42.093749999999865,
          "velocity": 0.7086614173228346,
          "duration": 0.07500000000000284
        },
        {
          "name": "G#5",
          "midi": 80,
          "time": 42.187499999999865,
          "velocity": 0.7086614173228346,
          "duration": 0.07500000000000284
        },
        {
          "name": "G#6",
          "midi": 92,
          "time": 42.281249999999865,
          "velocity": 0.7086614173228346,
          "duration": 0.07499999999999574
        },
        {
          "name": "G#3",
          "midi": 56,
          "time": 42.37499999999986,
          "velocity": 0.7086614173228346,
          "duration": 0.14999999999999858
        },
        {
          "name": "G#5",
          "midi": 80,
          "time": 42.37499999999986,
          "velocity": 0.7086614173228346,
          "duration": 0.07500000000000284
        },
        {
          "name": "A#5",
          "midi": 82,
          "time": 42.37499999999986,
          "velocity": 0.7086614173228346,
          "duration": 0.07500000000000284
        },
        {
          "name": "G#6",
          "midi": 92,
          "time": 42.46874999999986,
          "velocity": 0.7086614173228346,
          "duration": 0.07499999999999574
        },
        {
          "name": "G#5",
          "midi": 80,
          "time": 42.56249999999985,
          "velocity": 0.7086614173228346,
          "duration": 0.07500000000000284
        },
        {
          "name": "G#2",
          "midi": 44,
          "time": 42.56249999999985,
          "velocity": 0.7086614173228346,
          "duration": 0.14999999999999858
        },
        {
          "name": "G#6",
          "midi": 92,
          "time": 42.65624999999985,
          "velocity": 0.7086614173228346,
          "duration": 0.07499999999999574
        },
        {
          "name": "G#5",
          "midi": 80,
          "time": 42.749999999999844,
          "velocity": 0.7086614173228346,
          "duration": 0.07500000000000284
        },
        {
          "name": "G#2",
          "midi": 44,
          "time": 42.749999999999844,
          "velocity": 0.7086614173228346,
          "duration": 0.29999999999999005
        },
        {
          "name": "D#6",
          "midi": 87,
          "time": 42.749999999999844,
          "velocity": 0.7086614173228346,
          "duration": 0.07500000000000284
        },
        {
          "name": "G#6",
          "midi": 92,
          "time": 42.843749999999844,
          "velocity": 0.7086614173228346,
          "duration": 0.07499999999999574
        },
        {
          "name": "G#5",
          "midi": 80,
          "time": 42.93749999999984,
          "velocity": 0.7086614173228346,
          "duration": 0.07500000000000284
        },
        {
          "name": "G#6",
          "midi": 92,
          "time": 43.03124999999984,
          "velocity": 0.7086614173228346,
          "duration": 0.07499999999999574
        },
        {
          "name": "D#4",
          "midi": 63,
          "time": 43.12499999999983,
          "velocity": 0.7086614173228346,
          "duration": 0.29999999999999005
        },
        {
          "name": "G#4",
          "midi": 68,
          "time": 43.12499999999983,
          "velocity": 0.7086614173228346,
          "duration": 0.29999999999999005
        },
        {
          "name": "C4",
          "midi": 60,
          "time": 43.12499999999983,
          "velocity": 0.7086614173228346,
          "duration": 0.29999999999999005
        },
        {
          "name": "G#5",
          "midi": 80,
          "time": 43.12499999999983,
          "velocity": 0.7086614173228346,
          "duration": 0.07500000000000284
        },
        {
          "name": "A#5",
          "midi": 82,
          "time": 43.12499999999983,
          "velocity": 0.7086614173228346,
          "duration": 0.07500000000000284
        },
        {
          "name": "G#3",
          "midi": 56,
          "time": 43.12499999999983,
          "velocity": 0.7086614173228346,
          "duration": 0.14999999999999858
        },
        {
          "name": "G#6",
          "midi": 92,
          "time": 43.21874999999983,
          "velocity": 0.7086614173228346,
          "duration": 0.07499999999999574
        },
        {
          "name": "G#5",
          "midi": 80,
          "time": 43.31249999999982,
          "velocity": 0.7086614173228346,
          "duration": 0.07500000000000284
        },
        {
          "name": "G#2",
          "midi": 44,
          "time": 43.31249999999982,
          "velocity": 0.7086614173228346,
          "duration": 0.14999999999999858
        },
        {
          "name": "G#6",
          "midi": 92,
          "time": 43.40624999999982,
          "velocity": 0.7086614173228346,
          "duration": 0.07499999999999574
        },
        {
          "name": "D#4",
          "midi": 63,
          "time": 43.499999999999815,
          "velocity": 0.7086614173228346,
          "duration": 0.5999999999999872
        },
        {
          "name": "D#6",
          "midi": 87,
          "time": 43.499999999999815,
          "velocity": 0.7086614173228346,
          "duration": 0.07500000000000284
        },
        {
          "name": "G#5",
          "midi": 80,
          "time": 43.499999999999815,
          "velocity": 0.7086614173228346,
          "duration": 0.07500000000000284
        },
        {
          "name": "A#3",
          "midi": 58,
          "time": 43.499999999999815,
          "velocity": 0.7086614173228346,
          "duration": 0.5999999999999872
        },
        {
          "name": "G#2",
          "midi": 44,
          "time": 43.499999999999815,
          "velocity": 0.7086614173228346,
          "duration": 0.29999999999999716
        },
        {
          "name": "G4",
          "midi": 67,
          "time": 43.499999999999815,
          "velocity": 0.7086614173228346,
          "duration": 0.5999999999999872
        },
        {
          "name": "G#6",
          "midi": 92,
          "time": 43.593749999999815,
          "velocity": 0.7086614173228346,
          "duration": 0.07500000000000284
        },
        {
          "name": "G#5",
          "midi": 80,
          "time": 43.687499999999815,
          "velocity": 0.7086614173228346,
          "duration": 0.07500000000000284
        },
        {
          "name": "G#6",
          "midi": 92,
          "time": 43.781249999999815,
          "velocity": 0.7086614173228346,
          "duration": 0.07499999999999574
        },
        {
          "name": "G#5",
          "midi": 80,
          "time": 43.87499999999981,
          "velocity": 0.7086614173228346,
          "duration": 0.07500000000000284
        },
        {
          "name": "G#3",
          "midi": 56,
          "time": 43.87499999999981,
          "velocity": 0.7086614173228346,
          "duration": 0.14999999999999858
        },
        {
          "name": "A#5",
          "midi": 82,
          "time": 43.87499999999981,
          "velocity": 0.7086614173228346,
          "duration": 0.07500000000000284
        },
        {
          "name": "G#6",
          "midi": 92,
          "time": 43.96874999999981,
          "velocity": 0.7086614173228346,
          "duration": 0.07499999999999574
        },
        {
          "name": "G#5",
          "midi": 80,
          "time": 44.0624999999998,
          "velocity": 0.7086614173228346,
          "duration": 0.07500000000000284
        },
        {
          "name": "G#2",
          "midi": 44,
          "time": 44.0624999999998,
          "velocity": 0.7086614173228346,
          "duration": 0.14999999999999858
        },
        {
          "name": "G#6",
          "midi": 92,
          "time": 44.1562499999998,
          "velocity": 0.7086614173228346,
          "duration": 0.07499999999999574
        },
        {
          "name": "G#2",
          "midi": 44,
          "time": 44.249999999999794,
          "velocity": 0.7086614173228346,
          "duration": 0.29999999999999716
        },
        {
          "name": "D#6",
          "midi": 87,
          "time": 44.249999999999794,
          "velocity": 0.7086614173228346,
          "duration": 0.07500000000000284
        },
        {
          "name": "G#5",
          "midi": 80,
          "time": 44.249999999999794,
          "velocity": 0.7086614173228346,
          "duration": 0.07500000000000284
        },
        {
          "name": "G#6",
          "midi": 92,
          "time": 44.343749999999794,
          "velocity": 0.7086614173228346,
          "duration": 0.07500000000000284
        },
        {
          "name": "A#3",
          "midi": 58,
          "time": 44.437499999999794,
          "velocity": 0.7086614173228346,
          "duration": 0.14999999999999858
        },
        {
          "name": "G#5",
          "midi": 80,
          "time": 44.437499999999794,
          "velocity": 0.7086614173228346,
          "duration": 0.07500000000000284
        },
        {
          "name": "G#6",
          "midi": 92,
          "time": 44.531249999999794,
          "velocity": 0.7086614173228346,
          "duration": 0.07499999999999574
        },
        {
          "name": "G4",
          "midi": 67,
          "time": 44.62499999999979,
          "velocity": 0.7086614173228346,
          "duration": 0.29999999999999005
        },
        {
          "name": "D#4",
          "midi": 63,
          "time": 44.62499999999979,
          "velocity": 0.7086614173228346,
          "duration": 0.29999999999999005
        },
        {
          "name": "G#5",
          "midi": 80,
          "time": 44.62499999999979,
          "velocity": 0.7086614173228346,
          "duration": 0.07500000000000284
        },
        {
          "name": "A#5",
          "midi": 82,
          "time": 44.62499999999979,
          "velocity": 0.7086614173228346,
          "duration": 0.07500000000000284
        },
        {
          "name": "G#3",
          "midi": 56,
          "time": 44.62499999999979,
          "velocity": 0.7086614173228346,
          "duration": 0.14999999999999858
        },
        {
          "name": "G#6",
          "midi": 92,
          "time": 44.71874999999979,
          "velocity": 0.7086614173228346,
          "duration": 0.07499999999999574
        },
        {
          "name": "G#5",
          "midi": 80,
          "time": 44.81249999999978,
          "velocity": 0.7086614173228346,
          "duration": 0.07500000000000284
        },
        {
          "name": "G#2",
          "midi": 44,
          "time": 44.81249999999978,
          "velocity": 0.7086614173228346,
          "duration": 0.14999999999999858
        },
        {
          "name": "G#6",
          "midi": 92,
          "time": 44.90624999999978,
          "velocity": 0.7086614173228346,
          "duration": 0.07499999999999574
        },
        {
          "name": "D#4",
          "midi": 63,
          "time": 44.99999999999977,
          "velocity": 0.7086614173228346,
          "duration": 0.5999999999999872
        },
        {
          "name": "D#6",
          "midi": 87,
          "time": 44.99999999999977,
          "velocity": 0.7086614173228346,
          "duration": 0.07500000000000284
        },
        {
          "name": "G#5",
          "midi": 80,
          "time": 44.99999999999977,
          "velocity": 0.7086614173228346,
          "duration": 0.07500000000000284
        },
        {
          "name": "C4",
          "midi": 60,
          "time": 44.99999999999977,
          "velocity": 0.7086614173228346,
          "duration": 0.5999999999999872
        },
        {
          "name": "G#2",
          "midi": 44,
          "time": 44.99999999999977,
          "velocity": 0.7086614173228346,
          "duration": 0.29999999999999716
        },
        {
          "name": "G#4",
          "midi": 68,
          "time": 44.99999999999977,
          "velocity": 0.7086614173228346,
          "duration": 0.5999999999999872
        },
        {
          "name": "G#6",
          "midi": 92,
          "time": 45.09374999999977,
          "velocity": 0.7086614173228346,
          "duration": 0.07500000000000284
        },
        {
          "name": "G#5",
          "midi": 80,
          "time": 45.18749999999977,
          "velocity": 0.7086614173228346,
          "duration": 0.07500000000000284
        },
        {
          "name": "G#6",
          "midi": 92,
          "time": 45.28124999999977,
          "velocity": 0.7086614173228346,
          "duration": 0.07499999999999574
        },
        {
          "name": "G#5",
          "midi": 80,
          "time": 45.374999999999766,
          "velocity": 0.7086614173228346,
          "duration": 0.07500000000000284
        },
        {
          "name": "G#3",
          "midi": 56,
          "time": 45.374999999999766,
          "velocity": 0.7086614173228346,
          "duration": 0.14999999999999858
        },
        {
          "name": "A#5",
          "midi": 82,
          "time": 45.374999999999766,
          "velocity": 0.7086614173228346,
          "duration": 0.07500000000000284
        },
        {
          "name": "G#6",
          "midi": 92,
          "time": 45.468749999999766,
          "velocity": 0.7086614173228346,
          "duration": 0.07499999999999574
        },
        {
          "name": "G#5",
          "midi": 80,
          "time": 45.56249999999976,
          "velocity": 0.7086614173228346,
          "duration": 0.07500000000000284
        },
        {
          "name": "G#2",
          "midi": 44,
          "time": 45.56249999999976,
          "velocity": 0.7086614173228346,
          "duration": 0.14999999999999858
        },
        {
          "name": "G#6",
          "midi": 92,
          "time": 45.65624999999976,
          "velocity": 0.7086614173228346,
          "duration": 0.07499999999999574
        },
        {
          "name": "G#5",
          "midi": 80,
          "time": 45.74999999999975,
          "velocity": 0.7086614173228346,
          "duration": 0.07500000000000284
        },
        {
          "name": "G#2",
          "midi": 44,
          "time": 45.74999999999975,
          "velocity": 0.7086614173228346,
          "duration": 0.29999999999999716
        },
        {
          "name": "D#6",
          "midi": 87,
          "time": 45.74999999999975,
          "velocity": 0.7086614173228346,
          "duration": 0.07500000000000284
        },
        {
          "name": "G#6",
          "midi": 92,
          "time": 45.84374999999975,
          "velocity": 0.7086614173228346,
          "duration": 0.07500000000000284
        },
        {
          "name": "C4",
          "midi": 60,
          "time": 45.93749999999975,
          "velocity": 0.7086614173228346,
          "duration": 0.14999999999999858
        },
        {
          "name": "G#5",
          "midi": 80,
          "time": 45.93749999999975,
          "velocity": 0.7086614173228346,
          "duration": 0.07500000000000284
        },
        {
          "name": "G#6",
          "midi": 92,
          "time": 46.03124999999975,
          "velocity": 0.7086614173228346,
          "duration": 0.07499999999999574
        },
        {
          "name": "A#5",
          "midi": 82,
          "time": 46.124999999999744,
          "velocity": 0.7086614173228346,
          "duration": 0.07500000000000284
        },
        {
          "name": "G#5",
          "midi": 80,
          "time": 46.124999999999744,
          "velocity": 0.7086614173228346,
          "duration": 0.07500000000000284
        },
        {
          "name": "D#4",
          "midi": 63,
          "time": 46.124999999999744,
          "velocity": 0.7086614173228346,
          "duration": 0.14999999999999858
        },
        {
          "name": "G#3",
          "midi": 56,
          "time": 46.124999999999744,
          "velocity": 0.7086614173228346,
          "duration": 0.14999999999999858
        },
        {
          "name": "G#6",
          "midi": 92,
          "time": 46.218749999999744,
          "velocity": 0.7086614173228346,
          "duration": 0.07499999999999574
        },
        {
          "name": "G#5",
          "midi": 80,
          "time": 46.31249999999974,
          "velocity": 0.7086614173228346,
          "duration": 0.07500000000000284
        },
        {
          "name": "G#2",
          "midi": 44,
          "time": 46.31249999999974,
          "velocity": 0.7086614173228346,
          "duration": 0.14999999999999858
        },
        {
          "name": "G#4",
          "midi": 68,
          "time": 46.31249999999974,
          "velocity": 0.7086614173228346,
          "duration": 0.14999999999999858
        },
        {
          "name": "G#6",
          "midi": 92,
          "time": 46.40624999999974,
          "velocity": 0.7086614173228346,
          "duration": 0.07499999999999574
        },
        {
          "name": "G#5",
          "midi": 80,
          "time": 46.49999999999973,
          "velocity": 0.7086614173228346,
          "duration": 0.07500000000000284
        },
        {
          "name": "G#2",
          "midi": 44,
          "time": 46.49999999999973,
          "velocity": 0.7086614173228346,
          "duration": 0.29999999999999716
        },
        {
          "name": "D#6",
          "midi": 87,
          "time": 46.49999999999973,
          "velocity": 0.7086614173228346,
          "duration": 0.07500000000000284
        },
        {
          "name": "F4",
          "midi": 65,
          "time": 46.49999999999973,
          "velocity": 0.7086614173228346,
          "duration": 0.8999999999999773
        },
        {
          "name": "C#4",
          "midi": 61,
          "time": 46.49999999999973,
          "velocity": 0.7086614173228346,
          "duration": 0.8999999999999773
        },
        {
          "name": "G#6",
          "midi": 92,
          "time": 46.59374999999973,
          "velocity": 0.7086614173228346,
          "duration": 0.07500000000000284
        },
        {
          "name": "G#5",
          "midi": 80,
          "time": 46.68749999999973,
          "velocity": 0.7086614173228346,
          "duration": 0.07500000000000284
        },
        {
          "name": "G#6",
          "midi": 92,
          "time": 46.78124999999973,
          "velocity": 0.7086614173228346,
          "duration": 0.07499999999999574
        },
        {
          "name": "G#3",
          "midi": 56,
          "time": 46.87499999999972,
          "velocity": 0.7086614173228346,
          "duration": 0.14999999999999858
        },
        {
          "name": "G#5",
          "midi": 80,
          "time": 46.87499999999972,
          "velocity": 0.7086614173228346,
          "duration": 0.07500000000000284
        },
        {
          "name": "A#5",
          "midi": 82,
          "time": 46.87499999999972,
          "velocity": 0.7086614173228346,
          "duration": 0.07500000000000284
        },
        {
          "name": "G#6",
          "midi": 92,
          "time": 46.96874999999972,
          "velocity": 0.7086614173228346,
          "duration": 0.07499999999999574
        },
        {
          "name": "G#5",
          "midi": 80,
          "time": 47.062499999999716,
          "velocity": 0.7086614173228346,
          "duration": 0.07500000000000284
        },
        {
          "name": "G#2",
          "midi": 44,
          "time": 47.062499999999716,
          "velocity": 0.7086614173228346,
          "duration": 0.14999999999999858
        },
        {
          "name": "G#6",
          "midi": 92,
          "time": 47.156249999999716,
          "velocity": 0.7086614173228346,
          "duration": 0.07499999999999574
        },
        {
          "name": "D#6",
          "midi": 87,
          "time": 47.24999999999971,
          "velocity": 0.7086614173228346,
          "duration": 0.07500000000000284
        },
        {
          "name": "G#5",
          "midi": 80,
          "time": 47.24999999999971,
          "velocity": 0.7086614173228346,
          "duration": 0.07500000000000284
        },
        {
          "name": "G#2",
          "midi": 44,
          "time": 47.24999999999971,
          "velocity": 0.7086614173228346,
          "duration": 0.14999999999999858
        },
        {
          "name": "G#6",
          "midi": 92,
          "time": 47.34374999999971,
          "velocity": 0.7086614173228346,
          "duration": 0.07499999999999574
        },
        {
          "name": "G#5",
          "midi": 80,
          "time": 47.4374999999997,
          "velocity": 0.7086614173228346,
          "duration": 0.07500000000000284
        },
        {
          "name": "D#3",
          "midi": 51,
          "time": 47.4374999999997,
          "velocity": 0.7086614173228346,
          "duration": 0.29999999999999716
        },
        {
          "name": "A#3",
          "midi": 58,
          "time": 47.4374999999997,
          "velocity": 0.7086614173228346,
          "duration": 0.44999999999999574
        },
        {
          "name": "G4",
          "midi": 67,
          "time": 47.4374999999997,
          "velocity": 0.7086614173228346,
          "duration": 0.44999999999999574
        },
        {
          "name": "D#4",
          "midi": 63,
          "time": 47.4374999999997,
          "velocity": 0.7086614173228346,
          "duration": 0.44999999999999574
        },
        {
          "name": "G#6",
          "midi": 92,
          "time": 47.5312499999997,
          "velocity": 0.7086614173228346,
          "duration": 0.07500000000000284
        },
        {
          "name": "A#5",
          "midi": 82,
          "time": 47.6249999999997,
          "velocity": 0.7086614173228346,
          "duration": 0.07500000000000284
        },
        {
          "name": "G#5",
          "midi": 80,
          "time": 47.6249999999997,
          "velocity": 0.7086614173228346,
          "duration": 0.07500000000000284
        },
        {
          "name": "G#6",
          "midi": 92,
          "time": 47.7187499999997,
          "velocity": 0.7086614173228346,
          "duration": 0.07499999999999574
        },
        {
          "name": "G#5",
          "midi": 80,
          "time": 47.812499999999694,
          "velocity": 0.7086614173228346,
          "duration": 0.07500000000000284
        },
        {
          "name": "G#2",
          "midi": 44,
          "time": 47.812499999999694,
          "velocity": 0.7086614173228346,
          "duration": 0.14999999999999858
        },
        {
          "name": "G#6",
          "midi": 92,
          "time": 47.906249999999694,
          "velocity": 0.7086614173228346,
          "duration": 0.07499999999999574
        },
        {
          "name": "G#5",
          "midi": 80,
          "time": 47.99999999999969,
          "velocity": 0.7086614173228346,
          "duration": 0.07500000000000284
        },
        {
          "name": "D#6",
          "midi": 87,
          "time": 47.99999999999969,
          "velocity": 0.7086614173228346,
          "duration": 0.07500000000000284
        },
        {
          "name": "D#4",
          "midi": 63,
          "time": 47.99999999999969,
          "velocity": 0.7086614173228346,
          "duration": 0.8999999999999773
        },
        {
          "name": "G#4",
          "midi": 68,
          "time": 47.99999999999969,
          "velocity": 0.7086614173228346,
          "duration": 0.8999999999999773
        },
        {
          "name": "C4",
          "midi": 60,
          "time": 47.99999999999969,
          "velocity": 0.7086614173228346,
          "duration": 0.8999999999999773
        },
        {
          "name": "G#2",
          "midi": 44,
          "time": 47.99999999999969,
          "velocity": 0.7086614173228346,
          "duration": 0.29999999999999716
        },
        {
          "name": "G#6",
          "midi": 92,
          "time": 48.09374999999969,
          "velocity": 0.7086614173228346,
          "duration": 0.07500000000000284
        },
        {
          "name": "G#5",
          "midi": 80,
          "time": 48.18749999999969,
          "velocity": 0.7086614173228346,
          "duration": 0.07500000000000284
        },
        {
          "name": "G#6",
          "midi": 92,
          "time": 48.28124999999969,
          "velocity": 0.7086614173228346,
          "duration": 0.07499999999999574
        },
        {
          "name": "G#3",
          "midi": 56,
          "time": 48.37499999999968,
          "velocity": 0.7086614173228346,
          "duration": 0.14999999999999858
        },
        {
          "name": "A#5",
          "midi": 82,
          "time": 48.37499999999968,
          "velocity": 0.7086614173228346,
          "duration": 0.07500000000000284
        },
        {
          "name": "G#5",
          "midi": 80,
          "time": 48.37499999999968,
          "velocity": 0.7086614173228346,
          "duration": 0.07500000000000284
        },
        {
          "name": "G#6",
          "midi": 92,
          "time": 48.46874999999968,
          "velocity": 0.7086614173228346,
          "duration": 0.07499999999999574
        },
        {
          "name": "G#5",
          "midi": 80,
          "time": 48.56249999999967,
          "velocity": 0.7086614173228346,
          "duration": 0.07500000000000284
        },
        {
          "name": "G#2",
          "midi": 44,
          "time": 48.56249999999967,
          "velocity": 0.7086614173228346,
          "duration": 0.14999999999999858
        },
        {
          "name": "G#6",
          "midi": 92,
          "time": 48.65624999999967,
          "velocity": 0.7086614173228346,
          "duration": 0.07499999999999574
        },
        {
          "name": "G#5",
          "midi": 80,
          "time": 48.749999999999666,
          "velocity": 0.7086614173228346,
          "duration": 0.07500000000000284
        },
        {
          "name": "G#2",
          "midi": 44,
          "time": 48.749999999999666,
          "velocity": 0.7086614173228346,
          "duration": 0.29999999999999005
        },
        {
          "name": "D#6",
          "midi": 87,
          "time": 48.749999999999666,
          "velocity": 0.7086614173228346,
          "duration": 0.07500000000000284
        },
        {
          "name": "G#6",
          "midi": 92,
          "time": 48.843749999999666,
          "velocity": 0.7086614173228346,
          "duration": 0.07499999999999574
        },
        {
          "name": "G#5",
          "midi": 80,
          "time": 48.93749999999966,
          "velocity": 0.7086614173228346,
          "duration": 0.07500000000000284
        },
        {
          "name": "G#6",
          "midi": 92,
          "time": 49.03124999999966,
          "velocity": 0.7086614173228346,
          "duration": 0.07499999999999574
        },
        {
          "name": "G#4",
          "midi": 68,
          "time": 49.12499999999965,
          "velocity": 0.7086614173228346,
          "duration": 0.29999999999999005
        },
        {
          "name": "C4",
          "midi": 60,
          "time": 49.12499999999965,
          "velocity": 0.7086614173228346,
          "duration": 0.29999999999999005
        },
        {
          "name": "D#4",
          "midi": 63,
          "time": 49.12499999999965,
          "velocity": 0.7086614173228346,
          "duration": 0.29999999999999005
        },
        {
          "name": "G#5",
          "midi": 80,
          "time": 49.12499999999965,
          "velocity": 0.7086614173228346,
          "duration": 0.07500000000000284
        },
        {
          "name": "A#5",
          "midi": 82,
          "time": 49.12499999999965,
          "velocity": 0.7086614173228346,
          "duration": 0.07500000000000284
        },
        {
          "name": "G#3",
          "midi": 56,
          "time": 49.12499999999965,
          "velocity": 0.7086614173228346,
          "duration": 0.14999999999999858
        },
        {
          "name": "G#6",
          "midi": 92,
          "time": 49.21874999999965,
          "velocity": 0.7086614173228346,
          "duration": 0.07499999999999574
        },
        {
          "name": "G#5",
          "midi": 80,
          "time": 49.312499999999645,
          "velocity": 0.7086614173228346,
          "duration": 0.07500000000000284
        },
        {
          "name": "G#2",
          "midi": 44,
          "time": 49.312499999999645,
          "velocity": 0.7086614173228346,
          "duration": 0.14999999999999858
        },
        {
          "name": "G#6",
          "midi": 92,
          "time": 49.406249999999645,
          "velocity": 0.7086614173228346,
          "duration": 0.07499999999999574
        },
        {
          "name": "A#3",
          "midi": 58,
          "time": 49.49999999999964,
          "velocity": 0.7086614173228346,
          "duration": 0.5999999999999872
        },
        {
          "name": "D#6",
          "midi": 87,
          "time": 49.49999999999964,
          "velocity": 0.7086614173228346,
          "duration": 0.07500000000000284
        },
        {
          "name": "G#5",
          "midi": 80,
          "time": 49.49999999999964,
          "velocity": 0.7086614173228346,
          "duration": 0.07500000000000284
        },
        {
          "name": "G4",
          "midi": 67,
          "time": 49.49999999999964,
          "velocity": 0.7086614173228346,
          "duration": 0.5999999999999872
        },
        {
          "name": "G#2",
          "midi": 44,
          "time": 49.49999999999964,
          "velocity": 0.7086614173228346,
          "duration": 0.29999999999999716
        },
        {
          "name": "D#4",
          "midi": 63,
          "time": 49.49999999999964,
          "velocity": 0.7086614173228346,
          "duration": 0.5999999999999872
        },
        {
          "name": "G#6",
          "midi": 92,
          "time": 49.59374999999964,
          "velocity": 0.7086614173228346,
          "duration": 0.07500000000000284
        },
        {
          "name": "G#5",
          "midi": 80,
          "time": 49.68749999999964,
          "velocity": 0.7086614173228346,
          "duration": 0.07500000000000284
        },
        {
          "name": "G#6",
          "midi": 92,
          "time": 49.78124999999964,
          "velocity": 0.7086614173228346,
          "duration": 0.07499999999999574
        },
        {
          "name": "G#3",
          "midi": 56,
          "time": 49.87499999999963,
          "velocity": 0.7086614173228346,
          "duration": 0.14999999999999858
        },
        {
          "name": "G#5",
          "midi": 80,
          "time": 49.87499999999963,
          "velocity": 0.7086614173228346,
          "duration": 0.07500000000000284
        },
        {
          "name": "A#5",
          "midi": 82,
          "time": 49.87499999999963,
          "velocity": 0.7086614173228346,
          "duration": 0.07500000000000284
        },
        {
          "name": "G#6",
          "midi": 92,
          "time": 49.96874999999963,
          "velocity": 0.7086614173228346,
          "duration": 0.07499999999999574
        },
        {
          "name": "G#5",
          "midi": 80,
          "time": 50.06249999999962,
          "velocity": 0.7086614173228346,
          "duration": 0.07500000000000284
        },
        {
          "name": "G#2",
          "midi": 44,
          "time": 50.06249999999962,
          "velocity": 0.7086614173228346,
          "duration": 0.14999999999999858
        },
        {
          "name": "G#6",
          "midi": 92,
          "time": 50.15624999999962,
          "velocity": 0.7086614173228346,
          "duration": 0.07499999999999574
        },
        {
          "name": "G#2",
          "midi": 44,
          "time": 50.249999999999616,
          "velocity": 0.7086614173228346,
          "duration": 0.29999999999999716
        },
        {
          "name": "D#6",
          "midi": 87,
          "time": 50.249999999999616,
          "velocity": 0.7086614173228346,
          "duration": 0.07500000000000284
        },
        {
          "name": "G#5",
          "midi": 80,
          "time": 50.249999999999616,
          "velocity": 0.7086614173228346,
          "duration": 0.07500000000000284
        },
        {
          "name": "G#6",
          "midi": 92,
          "time": 50.343749999999616,
          "velocity": 0.7086614173228346,
          "duration": 0.07500000000000284
        },
        {
          "name": "A#3",
          "midi": 58,
          "time": 50.437499999999616,
          "velocity": 0.7086614173228346,
          "duration": 0.14999999999999858
        },
        {
          "name": "G#5",
          "midi": 80,
          "time": 50.437499999999616,
          "velocity": 0.7086614173228346,
          "duration": 0.07500000000000284
        },
        {
          "name": "G#6",
          "midi": 92,
          "time": 50.531249999999616,
          "velocity": 0.7086614173228346,
          "duration": 0.07499999999999574
        },
        {
          "name": "G4",
          "midi": 67,
          "time": 50.62499999999961,
          "velocity": 0.7086614173228346,
          "duration": 0.29999999999999005
        },
        {
          "name": "D#4",
          "midi": 63,
          "time": 50.62499999999961,
          "velocity": 0.7086614173228346,
          "duration": 0.29999999999999005
        },
        {
          "name": "G#5",
          "midi": 80,
          "time": 50.62499999999961,
          "velocity": 0.7086614173228346,
          "duration": 0.07500000000000284
        },
        {
          "name": "A#5",
          "midi": 82,
          "time": 50.62499999999961,
          "velocity": 0.7086614173228346,
          "duration": 0.07500000000000284
        },
        {
          "name": "G#3",
          "midi": 56,
          "time": 50.62499999999961,
          "velocity": 0.7086614173228346,
          "duration": 0.14999999999999858
        },
        {
          "name": "G#6",
          "midi": 92,
          "time": 50.71874999999961,
          "velocity": 0.7086614173228346,
          "duration": 0.07499999999999574
        },
        {
          "name": "G#5",
          "midi": 80,
          "time": 50.8124999999996,
          "velocity": 0.7086614173228346,
          "duration": 0.07500000000000284
        },
        {
          "name": "G#2",
          "midi": 44,
          "time": 50.8124999999996,
          "velocity": 0.7086614173228346,
          "duration": 0.14999999999999858
        },
        {
          "name": "G#6",
          "midi": 92,
          "time": 50.9062499999996,
          "velocity": 0.7086614173228346,
          "duration": 0.07499999999999574
        },
        {
          "name": "C4",
          "midi": 60,
          "time": 50.999999999999595,
          "velocity": 0.7086614173228346,
          "duration": 0.5999999999999872
        },
        {
          "name": "D#6",
          "midi": 87,
          "time": 50.999999999999595,
          "velocity": 0.7086614173228346,
          "duration": 0.07500000000000284
        },
        {
          "name": "G#5",
          "midi": 80,
          "time": 50.999999999999595,
          "velocity": 0.7086614173228346,
          "duration": 0.07500000000000284
        },
        {
          "name": "G#4",
          "midi": 68,
          "time": 50.999999999999595,
          "velocity": 0.7086614173228346,
          "duration": 0.5999999999999872
        },
        {
          "name": "D#4",
          "midi": 63,
          "time": 50.999999999999595,
          "velocity": 0.7086614173228346,
          "duration": 0.5999999999999872
        },
        {
          "name": "G#2",
          "midi": 44,
          "time": 50.999999999999595,
          "velocity": 0.7086614173228346,
          "duration": 0.29999999999999716
        },
        {
          "name": "G#6",
          "midi": 92,
          "time": 51.093749999999595,
          "velocity": 0.7086614173228346,
          "duration": 0.07500000000000284
        },
        {
          "name": "G#5",
          "midi": 80,
          "time": 51.187499999999595,
          "velocity": 0.7086614173228346,
          "duration": 0.07500000000000284
        },
        {
          "name": "G#6",
          "midi": 92,
          "time": 51.281249999999595,
          "velocity": 0.7086614173228346,
          "duration": 0.07499999999999574
        },
        {
          "name": "G#5",
          "midi": 80,
          "time": 51.37499999999959,
          "velocity": 0.7086614173228346,
          "duration": 0.07500000000000284
        },
        {
          "name": "G#3",
          "midi": 56,
          "time": 51.37499999999959,
          "velocity": 0.7086614173228346,
          "duration": 0.14999999999999858
        },
        {
          "name": "A#5",
          "midi": 82,
          "time": 51.37499999999959,
          "velocity": 0.7086614173228346,
          "duration": 0.07500000000000284
        },
        {
          "name": "G#6",
          "midi": 92,
          "time": 51.46874999999959,
          "velocity": 0.7086614173228346,
          "duration": 0.07499999999999574
        },
        {
          "name": "G#5",
          "midi": 80,
          "time": 51.56249999999958,
          "velocity": 0.7086614173228346,
          "duration": 0.07500000000000284
        },
        {
          "name": "G#2",
          "midi": 44,
          "time": 51.56249999999958,
          "velocity": 0.7086614173228346,
          "duration": 0.14999999999999858
        },
        {
          "name": "G#6",
          "midi": 92,
          "time": 51.65624999999958,
          "velocity": 0.7086614173228346,
          "duration": 0.07499999999999574
        },
        {
          "name": "G#2",
          "midi": 44,
          "time": 51.749999999999574,
          "velocity": 0.7086614173228346,
          "duration": 0.29999999999999716
        },
        {
          "name": "D#6",
          "midi": 87,
          "time": 51.749999999999574,
          "velocity": 0.7086614173228346,
          "duration": 0.07500000000000284
        },
        {
          "name": "G#5",
          "midi": 80,
          "time": 51.749999999999574,
          "velocity": 0.7086614173228346,
          "duration": 0.07500000000000284
        },
        {
          "name": "G#6",
          "midi": 92,
          "time": 51.843749999999574,
          "velocity": 0.7086614173228346,
          "duration": 0.07500000000000284
        },
        {
          "name": "C4",
          "midi": 60,
          "time": 51.937499999999574,
          "velocity": 0.7086614173228346,
          "duration": 0.14999999999999858
        },
        {
          "name": "G#5",
          "midi": 80,
          "time": 51.937499999999574,
          "velocity": 0.7086614173228346,
          "duration": 0.07500000000000284
        },
        {
          "name": "G#6",
          "midi": 92,
          "time": 52.031249999999574,
          "velocity": 0.7086614173228346,
          "duration": 0.07499999999999574
        },
        {
          "name": "G#5",
          "midi": 80,
          "time": 52.12499999999957,
          "velocity": 0.7086614173228346,
          "duration": 0.07500000000000284
        },
        {
          "name": "A#5",
          "midi": 82,
          "time": 52.12499999999957,
          "velocity": 0.7086614173228346,
          "duration": 0.07500000000000284
        },
        {
          "name": "G#3",
          "midi": 56,
          "time": 52.12499999999957,
          "velocity": 0.7086614173228346,
          "duration": 0.14999999999999858
        },
        {
          "name": "D#4",
          "midi": 63,
          "time": 52.12499999999957,
          "velocity": 0.7086614173228346,
          "duration": 0.14999999999999858
        },
        {
          "name": "G#6",
          "midi": 92,
          "time": 52.21874999999957,
          "velocity": 0.7086614173228346,
          "duration": 0.07499999999999574
        },
        {
          "name": "G#5",
          "midi": 80,
          "time": 52.31249999999956,
          "velocity": 0.7086614173228346,
          "duration": 0.07500000000000284
        },
        {
          "name": "G#2",
          "midi": 44,
          "time": 52.31249999999956,
          "velocity": 0.7086614173228346,
          "duration": 0.14999999999999858
        },
        {
          "name": "G#4",
          "midi": 68,
          "time": 52.31249999999956,
          "velocity": 0.7086614173228346,
          "duration": 0.14999999999999858
        },
        {
          "name": "G#6",
          "midi": 92,
          "time": 52.40624999999956,
          "velocity": 0.7086614173228346,
          "duration": 0.07499999999999574
        },
        {
          "name": "D#6",
          "midi": 87,
          "time": 52.49999999999955,
          "velocity": 0.7086614173228346,
          "duration": 0.07500000000000284
        },
        {
          "name": "G#2",
          "midi": 44,
          "time": 52.49999999999955,
          "velocity": 0.7086614173228346,
          "duration": 0.29999999999999716
        },
        {
          "name": "G#5",
          "midi": 80,
          "time": 52.49999999999955,
          "velocity": 0.7086614173228346,
          "duration": 0.07500000000000284
        },
        {
          "name": "C#4",
          "midi": 61,
          "time": 52.49999999999955,
          "velocity": 0.7086614173228346,
          "duration": 0.8999999999999773
        },
        {
          "name": "F4",
          "midi": 65,
          "time": 52.49999999999955,
          "velocity": 0.7086614173228346,
          "duration": 0.8999999999999773
        },
        {
          "name": "G#6",
          "midi": 92,
          "time": 52.59374999999955,
          "velocity": 0.7086614173228346,
          "duration": 0.07500000000000284
        },
        {
          "name": "G#5",
          "midi": 80,
          "time": 52.68749999999955,
          "velocity": 0.7086614173228346,
          "duration": 0.07500000000000284
        },
        {
          "name": "G#6",
          "midi": 92,
          "time": 52.78124999999955,
          "velocity": 0.7086614173228346,
          "duration": 0.07499999999999574
        },
        {
          "name": "G#3",
          "midi": 56,
          "time": 52.874999999999545,
          "velocity": 0.7086614173228346,
          "duration": 0.14999999999999858
        },
        {
          "name": "G#5",
          "midi": 80,
          "time": 52.874999999999545,
          "velocity": 0.7086614173228346,
          "duration": 0.07500000000000284
        },
        {
          "name": "A#5",
          "midi": 82,
          "time": 52.874999999999545,
          "velocity": 0.7086614173228346,
          "duration": 0.07500000000000284
        },
        {
          "name": "G#6",
          "midi": 92,
          "time": 52.968749999999545,
          "velocity": 0.7086614173228346,
          "duration": 0.07499999999999574
        },
        {
          "name": "G#5",
          "midi": 80,
          "time": 53.06249999999954,
          "velocity": 0.7086614173228346,
          "duration": 0.07500000000000284
        },
        {
          "name": "G#2",
          "midi": 44,
          "time": 53.06249999999954,
          "velocity": 0.7086614173228346,
          "duration": 0.14999999999999858
        },
        {
          "name": "G#6",
          "midi": 92,
          "time": 53.15624999999954,
          "velocity": 0.7086614173228346,
          "duration": 0.07499999999999574
        },
        {
          "name": "G#5",
          "midi": 80,
          "time": 53.24999999999953,
          "velocity": 0.7086614173228346,
          "duration": 0.07500000000000284
        },
        {
          "name": "D#6",
          "midi": 87,
          "time": 53.24999999999953,
          "velocity": 0.7086614173228346,
          "duration": 0.07500000000000284
        },
        {
          "name": "G#2",
          "midi": 44,
          "time": 53.24999999999953,
          "velocity": 0.7086614173228346,
          "duration": 0.14999999999999858
        },
        {
          "name": "G#6",
          "midi": 92,
          "time": 53.34374999999953,
          "velocity": 0.7086614173228346,
          "duration": 0.07499999999999574
        },
        {
          "name": "G#5",
          "midi": 80,
          "time": 53.437499999999524,
          "velocity": 0.7086614173228346,
          "duration": 0.07500000000000284
        },
        {
          "name": "D#3",
          "midi": 51,
          "time": 53.437499999999524,
          "velocity": 0.7086614173228346,
          "duration": 0.29999999999999716
        },
        {
          "name": "G4",
          "midi": 67,
          "time": 53.437499999999524,
          "velocity": 0.7086614173228346,
          "duration": 0.44999999999999574
        },
        {
          "name": "D#4",
          "midi": 63,
          "time": 53.437499999999524,
          "velocity": 0.7086614173228346,
          "duration": 0.44999999999999574
        },
        {
          "name": "A#3",
          "midi": 58,
          "time": 53.437499999999524,
          "velocity": 0.7086614173228346,
          "duration": 0.44999999999999574
        },
        {
          "name": "G#6",
          "midi": 92,
          "time": 53.531249999999524,
          "velocity": 0.7086614173228346,
          "duration": 0.07500000000000284
        },
        {
          "name": "G#5",
          "midi": 80,
          "time": 53.624999999999524,
          "velocity": 0.7086614173228346,
          "duration": 0.07500000000000284
        },
        {
          "name": "A#5",
          "midi": 82,
          "time": 53.624999999999524,
          "velocity": 0.7086614173228346,
          "duration": 0.07500000000000284
        },
        {
          "name": "G#6",
          "midi": 92,
          "time": 53.718749999999524,
          "velocity": 0.7086614173228346,
          "duration": 0.07499999999999574
        },
        {
          "name": "G#5",
          "midi": 80,
          "time": 53.81249999999952,
          "velocity": 0.7086614173228346,
          "duration": 0.07500000000000284
        },
        {
          "name": "G#2",
          "midi": 44,
          "time": 53.81249999999952,
          "velocity": 0.7086614173228346,
          "duration": 0.14999999999999858
        },
        {
          "name": "G#6",
          "midi": 92,
          "time": 53.90624999999952,
          "velocity": 0.7086614173228346,
          "duration": 0.07499999999999574
        },
        {
          "name": "G#2",
          "midi": 44,
          "time": 53.99999999999951,
          "velocity": 0.7086614173228346,
          "duration": 0.29999999999999716
        },
        {
          "name": "D#6",
          "midi": 87,
          "time": 53.99999999999951,
          "velocity": 0.7086614173228346,
          "duration": 0.07500000000000284
        },
        {
          "name": "G#5",
          "midi": 80,
          "time": 53.99999999999951,
          "velocity": 0.7086614173228346,
          "duration": 0.07500000000000284
        },
        {
          "name": "G#4",
          "midi": 68,
          "time": 53.99999999999951,
          "velocity": 0.7086614173228346,
          "duration": 0.8999999999999773
        },
        {
          "name": "F4",
          "midi": 65,
          "time": 53.99999999999951,
          "velocity": 0.7086614173228346,
          "duration": 0.8999999999999773
        },
        {
          "name": "C#4",
          "midi": 61,
          "time": 53.99999999999951,
          "velocity": 0.7086614173228346,
          "duration": 0.8999999999999773
        },
        {
          "name": "G#6",
          "midi": 92,
          "time": 54.09374999999951,
          "velocity": 0.7086614173228346,
          "duration": 0.07500000000000284
        },
        {
          "name": "G#5",
          "midi": 80,
          "time": 54.18749999999951,
          "velocity": 0.7086614173228346,
          "duration": 0.07500000000000284
        },
        {
          "name": "G#6",
          "midi": 92,
          "time": 54.28124999999951,
          "velocity": 0.7086614173228346,
          "duration": 0.07499999999999574
        },
        {
          "name": "G#3",
          "midi": 56,
          "time": 54.3749999999995,
          "velocity": 0.7086614173228346,
          "duration": 0.14999999999999858
        },
        {
          "name": "A#5",
          "midi": 82,
          "time": 54.3749999999995,
          "velocity": 0.7086614173228346,
          "duration": 0.07500000000000284
        },
        {
          "name": "G#5",
          "midi": 80,
          "time": 54.3749999999995,
          "velocity": 0.7086614173228346,
          "duration": 0.07500000000000284
        },
        {
          "name": "G#6",
          "midi": 92,
          "time": 54.4687499999995,
          "velocity": 0.7086614173228346,
          "duration": 0.07499999999999574
        },
        {
          "name": "G#5",
          "midi": 80,
          "time": 54.562499999999496,
          "velocity": 0.7086614173228346,
          "duration": 0.07500000000000284
        },
        {
          "name": "G#2",
          "midi": 44,
          "time": 54.562499999999496,
          "velocity": 0.7086614173228346,
          "duration": 0.14999999999999858
        },
        {
          "name": "G#6",
          "midi": 92,
          "time": 54.656249999999496,
          "velocity": 0.7086614173228346,
          "duration": 0.07499999999999574
        },
        {
          "name": "G#5",
          "midi": 80,
          "time": 54.74999999999949,
          "velocity": 0.7086614173228346,
          "duration": 0.07500000000000284
        },
        {
          "name": "G#2",
          "midi": 44,
          "time": 54.74999999999949,
          "velocity": 0.7086614173228346,
          "duration": 0.29999999999999005
        },
        {
          "name": "D#6",
          "midi": 87,
          "time": 54.74999999999949,
          "velocity": 0.7086614173228346,
          "duration": 0.07500000000000284
        },
        {
          "name": "G#6",
          "midi": 92,
          "time": 54.84374999999949,
          "velocity": 0.7086614173228346,
          "duration": 0.07499999999999574
        },
        {
          "name": "G#5",
          "midi": 80,
          "time": 54.93749999999948,
          "velocity": 0.7086614173228346,
          "duration": 0.07500000000000284
        },
        {
          "name": "G#6",
          "midi": 92,
          "time": 55.03124999999948,
          "velocity": 0.7086614173228346,
          "duration": 0.07499999999999574
        },
        {
          "name": "C#4",
          "midi": 61,
          "time": 55.124999999999474,
          "velocity": 0.7086614173228346,
          "duration": 0.29999999999999005
        },
        {
          "name": "F4",
          "midi": 65,
          "time": 55.124999999999474,
          "velocity": 0.7086614173228346,
          "duration": 0.29999999999999005
        },
        {
          "name": "G#4",
          "midi": 68,
          "time": 55.124999999999474,
          "velocity": 0.7086614173228346,
          "duration": 0.29999999999999005
        },
        {
          "name": "G#5",
          "midi": 80,
          "time": 55.124999999999474,
          "velocity": 0.7086614173228346,
          "duration": 0.07500000000000284
        },
        {
          "name": "A#5",
          "midi": 82,
          "time": 55.124999999999474,
          "velocity": 0.7086614173228346,
          "duration": 0.07500000000000284
        },
        {
          "name": "G#3",
          "midi": 56,
          "time": 55.124999999999474,
          "velocity": 0.7086614173228346,
          "duration": 0.14999999999999858
        },
        {
          "name": "G#6",
          "midi": 92,
          "time": 55.218749999999474,
          "velocity": 0.7086614173228346,
          "duration": 0.07499999999999574
        },
        {
          "name": "G#5",
          "midi": 80,
          "time": 55.31249999999947,
          "velocity": 0.7086614173228346,
          "duration": 0.07500000000000284
        },
        {
          "name": "G#2",
          "midi": 44,
          "time": 55.31249999999947,
          "velocity": 0.7086614173228346,
          "duration": 0.14999999999999858
        },
        {
          "name": "G#6",
          "midi": 92,
          "time": 55.40624999999947,
          "velocity": 0.7086614173228346,
          "duration": 0.07499999999999574
        },
        {
          "name": "G#2",
          "midi": 44,
          "time": 55.49999999999946,
          "velocity": 0.7086614173228346,
          "duration": 0.29999999999999716
        },
        {
          "name": "D#6",
          "midi": 87,
          "time": 55.49999999999946,
          "velocity": 0.7086614173228346,
          "duration": 0.07500000000000284
        },
        {
          "name": "G#5",
          "midi": 80,
          "time": 55.49999999999946,
          "velocity": 0.7086614173228346,
          "duration": 0.07500000000000284
        },
        {
          "name": "A#3",
          "midi": 58,
          "time": 55.49999999999946,
          "velocity": 0.7086614173228346,
          "duration": 0.8999999999999773
        },
        {
          "name": "G4",
          "midi": 67,
          "time": 55.49999999999946,
          "velocity": 0.7086614173228346,
          "duration": 0.8999999999999773
        },
        {
          "name": "D#4",
          "midi": 63,
          "time": 55.49999999999946,
          "velocity": 0.7086614173228346,
          "duration": 0.8999999999999773
        },
        {
          "name": "G#6",
          "midi": 92,
          "time": 55.59374999999946,
          "velocity": 0.7086614173228346,
          "duration": 0.07500000000000284
        },
        {
          "name": "G#5",
          "midi": 80,
          "time": 55.68749999999946,
          "velocity": 0.7086614173228346,
          "duration": 0.07500000000000284
        },
        {
          "name": "G#6",
          "midi": 92,
          "time": 55.78124999999946,
          "velocity": 0.7086614173228346,
          "duration": 0.07499999999999574
        },
        {
          "name": "A#5",
          "midi": 82,
          "time": 55.87499999999945,
          "velocity": 0.7086614173228346,
          "duration": 0.07500000000000284
        },
        {
          "name": "G#3",
          "midi": 56,
          "time": 55.87499999999945,
          "velocity": 0.7086614173228346,
          "duration": 0.14999999999999858
        },
        {
          "name": "G#5",
          "midi": 80,
          "time": 55.87499999999945,
          "velocity": 0.7086614173228346,
          "duration": 0.07500000000000284
        },
        {
          "name": "G#6",
          "midi": 92,
          "time": 55.96874999999945,
          "velocity": 0.7086614173228346,
          "duration": 0.07499999999999574
        },
        {
          "name": "G#5",
          "midi": 80,
          "time": 56.062499999999446,
          "velocity": 0.7086614173228346,
          "duration": 0.07500000000000284
        },
        {
          "name": "G#2",
          "midi": 44,
          "time": 56.062499999999446,
          "velocity": 0.7086614173228346,
          "duration": 0.14999999999999858
        },
        {
          "name": "G#6",
          "midi": 92,
          "time": 56.156249999999446,
          "velocity": 0.7086614173228346,
          "duration": 0.07499999999999574
        },
        {
          "name": "G#2",
          "midi": 44,
          "time": 56.24999999999944,
          "velocity": 0.7086614173228346,
          "duration": 0.29999999999999005
        },
        {
          "name": "G#5",
          "midi": 80,
          "time": 56.24999999999944,
          "velocity": 0.7086614173228346,
          "duration": 0.07500000000000284
        },
        {
          "name": "D#6",
          "midi": 87,
          "time": 56.24999999999944,
          "velocity": 0.7086614173228346,
          "duration": 0.07500000000000284
        },
        {
          "name": "G#6",
          "midi": 92,
          "time": 56.34374999999944,
          "velocity": 0.7086614173228346,
          "duration": 0.07499999999999574
        },
        {
          "name": "A#3",
          "midi": 58,
          "time": 56.43749999999943,
          "velocity": 0.7086614173228346,
          "duration": 0.14999999999999858
        },
        {
          "name": "G#5",
          "midi": 80,
          "time": 56.43749999999943,
          "velocity": 0.7086614173228346,
          "duration": 0.07500000000000284
        },
        {
          "name": "G#6",
          "midi": 92,
          "time": 56.53124999999943,
          "velocity": 0.7086614173228346,
          "duration": 0.07499999999999574
        },
        {
          "name": "D#4",
          "midi": 63,
          "time": 56.624999999999424,
          "velocity": 0.7086614173228346,
          "duration": 0.29999999999999005
        },
        {
          "name": "G4",
          "midi": 67,
          "time": 56.624999999999424,
          "velocity": 0.7086614173228346,
          "duration": 0.29999999999999005
        },
        {
          "name": "G#5",
          "midi": 80,
          "time": 56.624999999999424,
          "velocity": 0.7086614173228346,
          "duration": 0.07500000000000284
        },
        {
          "name": "A#5",
          "midi": 82,
          "time": 56.624999999999424,
          "velocity": 0.7086614173228346,
          "duration": 0.07500000000000284
        },
        {
          "name": "G#3",
          "midi": 56,
          "time": 56.624999999999424,
          "velocity": 0.7086614173228346,
          "duration": 0.14999999999999858
        },
        {
          "name": "G#6",
          "midi": 92,
          "time": 56.718749999999424,
          "velocity": 0.7086614173228346,
          "duration": 0.07499999999999574
        },
        {
          "name": "G#5",
          "midi": 80,
          "time": 56.81249999999942,
          "velocity": 0.7086614173228346,
          "duration": 0.07500000000000284
        },
        {
          "name": "G#2",
          "midi": 44,
          "time": 56.81249999999942,
          "velocity": 0.7086614173228346,
          "duration": 0.14999999999999858
        },
        {
          "name": "G#6",
          "midi": 92,
          "time": 56.90624999999942,
          "velocity": 0.7086614173228346,
          "duration": 0.07499999999999574
        },
        {
          "name": "G#4",
          "midi": 68,
          "time": 56.99999999999941,
          "velocity": 0.7086614173228346,
          "duration": 0.5999999999999872
        },
        {
          "name": "D#6",
          "midi": 87,
          "time": 56.99999999999941,
          "velocity": 0.7086614173228346,
          "duration": 0.07500000000000284
        },
        {
          "name": "G#5",
          "midi": 80,
          "time": 56.99999999999941,
          "velocity": 0.7086614173228346,
          "duration": 0.07500000000000284
        },
        {
          "name": "D#4",
          "midi": 63,
          "time": 56.99999999999941,
          "velocity": 0.7086614173228346,
          "duration": 0.5999999999999872
        },
        {
          "name": "G#2",
          "midi": 44,
          "time": 56.99999999999941,
          "velocity": 0.7086614173228346,
          "duration": 0.29999999999999716
        },
        {
          "name": "C4",
          "midi": 60,
          "time": 56.99999999999941,
          "velocity": 0.7086614173228346,
          "duration": 0.5999999999999872
        },
        {
          "name": "G#6",
          "midi": 92,
          "time": 57.09374999999941,
          "velocity": 0.7086614173228346,
          "duration": 0.07500000000000284
        },
        {
          "name": "G#5",
          "midi": 80,
          "time": 57.18749999999941,
          "velocity": 0.7086614173228346,
          "duration": 0.07500000000000284
        },
        {
          "name": "G#6",
          "midi": 92,
          "time": 57.28124999999941,
          "velocity": 0.7086614173228346,
          "duration": 0.07499999999999574
        },
        {
          "name": "G#5",
          "midi": 80,
          "time": 57.3749999999994,
          "velocity": 0.7086614173228346,
          "duration": 0.07500000000000284
        },
        {
          "name": "G#3",
          "midi": 56,
          "time": 57.3749999999994,
          "velocity": 0.7086614173228346,
          "duration": 0.14999999999999858
        },
        {
          "name": "A#5",
          "midi": 82,
          "time": 57.3749999999994,
          "velocity": 0.7086614173228346,
          "duration": 0.07500000000000284
        },
        {
          "name": "G#6",
          "midi": 92,
          "time": 57.4687499999994,
          "velocity": 0.7086614173228346,
          "duration": 0.07499999999999574
        },
        {
          "name": "G#5",
          "midi": 80,
          "time": 57.562499999999396,
          "velocity": 0.7086614173228346,
          "duration": 0.07500000000000284
        },
        {
          "name": "G#2",
          "midi": 44,
          "time": 57.562499999999396,
          "velocity": 0.7086614173228346,
          "duration": 0.14999999999999858
        },
        {
          "name": "G#6",
          "midi": 92,
          "time": 57.656249999999396,
          "velocity": 0.7086614173228346,
          "duration": 0.07499999999999574
        },
        {
          "name": "G#2",
          "midi": 44,
          "time": 57.74999999999939,
          "velocity": 0.7086614173228346,
          "duration": 0.29999999999999716
        },
        {
          "name": "G#5",
          "midi": 80,
          "time": 57.74999999999939,
          "velocity": 0.7086614173228346,
          "duration": 0.07500000000000284
        },
        {
          "name": "D#6",
          "midi": 87,
          "time": 57.74999999999939,
          "velocity": 0.7086614173228346,
          "duration": 0.07500000000000284
        },
        {
          "name": "G#6",
          "midi": 92,
          "time": 57.84374999999939,
          "velocity": 0.7086614173228346,
          "duration": 0.07500000000000284
        },
        {
          "name": "C4",
          "midi": 60,
          "time": 57.93749999999939,
          "velocity": 0.7086614173228346,
          "duration": 0.14999999999999858
        },
        {
          "name": "G#5",
          "midi": 80,
          "time": 57.93749999999939,
          "velocity": 0.7086614173228346,
          "duration": 0.07500000000000284
        },
        {
          "name": "G#6",
          "midi": 92,
          "time": 58.03124999999939,
          "velocity": 0.7086614173228346,
          "duration": 0.07499999999999574
        },
        {
          "name": "G#5",
          "midi": 80,
          "time": 58.12499999999938,
          "velocity": 0.7086614173228346,
          "duration": 0.07500000000000284
        },
        {
          "name": "A#5",
          "midi": 82,
          "time": 58.12499999999938,
          "velocity": 0.7086614173228346,
          "duration": 0.07500000000000284
        },
        {
          "name": "D#4",
          "midi": 63,
          "time": 58.12499999999938,
          "velocity": 0.7086614173228346,
          "duration": 0.14999999999999858
        },
        {
          "name": "G#3",
          "midi": 56,
          "time": 58.12499999999938,
          "velocity": 0.7086614173228346,
          "duration": 0.14999999999999858
        },
        {
          "name": "G#6",
          "midi": 92,
          "time": 58.21874999999938,
          "velocity": 0.7086614173228346,
          "duration": 0.07499999999999574
        },
        {
          "name": "G#5",
          "midi": 80,
          "time": 58.312499999999375,
          "velocity": 0.7086614173228346,
          "duration": 0.07500000000000284
        },
        {
          "name": "G#4",
          "midi": 68,
          "time": 58.312499999999375,
          "velocity": 0.7086614173228346,
          "duration": 0.14999999999999858
        },
        {
          "name": "G#2",
          "midi": 44,
          "time": 58.312499999999375,
          "velocity": 0.7086614173228346,
          "duration": 0.14999999999999858
        },
        {
          "name": "G#6",
          "midi": 92,
          "time": 58.406249999999375,
          "velocity": 0.7086614173228346,
          "duration": 0.07499999999999574
        },
        {
          "name": "G#2",
          "midi": 44,
          "time": 58.49999999999937,
          "velocity": 0.7086614173228346,
          "duration": 0.29999999999999716
        },
        {
          "name": "D#6",
          "midi": 87,
          "time": 58.49999999999937,
          "velocity": 0.7086614173228346,
          "duration": 0.07500000000000284
        },
        {
          "name": "G#5",
          "midi": 80,
          "time": 58.49999999999937,
          "velocity": 0.7086614173228346,
          "duration": 0.07500000000000284
        },
        {
          "name": "F4",
          "midi": 65,
          "time": 58.49999999999937,
          "velocity": 0.7086614173228346,
          "duration": 0.8999999999999773
        },
        {
          "name": "C#4",
          "midi": 61,
          "time": 58.49999999999937,
          "velocity": 0.7086614173228346,
          "duration": 0.8999999999999773
        },
        {
          "name": "G#6",
          "midi": 92,
          "time": 58.59374999999937,
          "velocity": 0.7086614173228346,
          "duration": 0.07500000000000284
        },
        {
          "name": "G#5",
          "midi": 80,
          "time": 58.68749999999937,
          "velocity": 0.7086614173228346,
          "duration": 0.07500000000000284
        },
        {
          "name": "G#6",
          "midi": 92,
          "time": 58.78124999999937,
          "velocity": 0.7086614173228346,
          "duration": 0.07499999999999574
        },
        {
          "name": "G#3",
          "midi": 56,
          "time": 58.87499999999936,
          "velocity": 0.7086614173228346,
          "duration": 0.14999999999999858
        },
        {
          "name": "A#5",
          "midi": 82,
          "time": 58.87499999999936,
          "velocity": 0.7086614173228346,
          "duration": 0.07500000000000284
        },
        {
          "name": "G#5",
          "midi": 80,
          "time": 58.87499999999936,
          "velocity": 0.7086614173228346,
          "duration": 0.07500000000000284
        },
        {
          "name": "G#6",
          "midi": 92,
          "time": 58.96874999999936,
          "velocity": 0.7086614173228346,
          "duration": 0.07499999999999574
        },
        {
          "name": "G#5",
          "midi": 80,
          "time": 59.06249999999935,
          "velocity": 0.7086614173228346,
          "duration": 0.07500000000000284
        },
        {
          "name": "G#2",
          "midi": 44,
          "time": 59.06249999999935,
          "velocity": 0.7086614173228346,
          "duration": 0.14999999999999858
        },
        {
          "name": "G#6",
          "midi": 92,
          "time": 59.15624999999935,
          "velocity": 0.7086614173228346,
          "duration": 0.07499999999999574
        },
        {
          "name": "G#5",
          "midi": 80,
          "time": 59.249999999999346,
          "velocity": 0.7086614173228346,
          "duration": 0.07500000000000284
        },
        {
          "name": "D#6",
          "midi": 87,
          "time": 59.249999999999346,
          "velocity": 0.7086614173228346,
          "duration": 0.07500000000000284
        },
        {
          "name": "G#2",
          "midi": 44,
          "time": 59.249999999999346,
          "velocity": 0.7086614173228346,
          "duration": 0.14999999999999858
        },
        {
          "name": "G#6",
          "midi": 92,
          "time": 59.343749999999346,
          "velocity": 0.7086614173228346,
          "duration": 0.07499999999999574
        },
        {
          "name": "G#5",
          "midi": 80,
          "time": 59.43749999999934,
          "velocity": 0.7086614173228346,
          "duration": 0.07500000000000284
        },
        {
          "name": "D#3",
          "midi": 51,
          "time": 59.43749999999934,
          "velocity": 0.7086614173228346,
          "duration": 0.29999999999999716
        },
        {
          "name": "G4",
          "midi": 67,
          "time": 59.43749999999934,
          "velocity": 0.7086614173228346,
          "duration": 0.44999999999999574
        },
        {
          "name": "A#3",
          "midi": 58,
          "time": 59.43749999999934,
          "velocity": 0.7086614173228346,
          "duration": 0.44999999999999574
        },
        {
          "name": "D#4",
          "midi": 63,
          "time": 59.43749999999934,
          "velocity": 0.7086614173228346,
          "duration": 0.44999999999999574
        },
        {
          "name": "G#6",
          "midi": 92,
          "time": 59.53124999999934,
          "velocity": 0.7086614173228346,
          "duration": 0.07500000000000284
        },
        {
          "name": "G#5",
          "midi": 80,
          "time": 59.62499999999934,
          "velocity": 0.7086614173228346,
          "duration": 0.07500000000000284
        },
        {
          "name": "A#5",
          "midi": 82,
          "time": 59.62499999999934,
          "velocity": 0.7086614173228346,
          "duration": 0.07500000000000284
        },
        {
          "name": "G#6",
          "midi": 92,
          "time": 59.71874999999934,
          "velocity": 0.7086614173228346,
          "duration": 0.07499999999999574
        },
        {
          "name": "G#5",
          "midi": 80,
          "time": 59.81249999999933,
          "velocity": 0.7086614173228346,
          "duration": 0.07500000000000284
        },
        {
          "name": "G#2",
          "midi": 44,
          "time": 59.81249999999933,
          "velocity": 0.7086614173228346,
          "duration": 0.14999999999999858
        },
        {
          "name": "G#6",
          "midi": 92,
          "time": 59.90624999999933,
          "velocity": 0.7086614173228346,
          "duration": 0.07499999999999574
        },
        {
          "name": "F2",
          "midi": 41,
          "time": 59.999999999999325,
          "velocity": 0.7086614173228346,
          "duration": 0.29999999999999716
        },
        {
          "name": "F5",
          "midi": 77,
          "time": 59.999999999999325,
          "velocity": 0.7086614173228346,
          "duration": 0.14999999999999858
        },
        {
          "name": "A3",
          "midi": 57,
          "time": 59.999999999999325,
          "velocity": 0.7086614173228346,
          "duration": 0.8999999999999986
        },
        {
          "name": "C4",
          "midi": 60,
          "time": 59.999999999999325,
          "velocity": 0.7086614173228346,
          "duration": 0.8999999999999986
        },
        {
          "name": "F4",
          "midi": 65,
          "time": 59.999999999999325,
          "velocity": 0.7086614173228346,
          "duration": 0.8999999999999986
        },
        {
          "name": "E5",
          "midi": 76,
          "time": 60.187499999999325,
          "velocity": 0.7086614173228346,
          "duration": 0.14999999999999858
        },
        {
          "name": "F3",
          "midi": 53,
          "time": 60.374999999999325,
          "velocity": 0.7086614173228346,
          "duration": 0.14999999999999858
        },
        {
          "name": "C5",
          "midi": 72,
          "time": 60.374999999999325,
          "velocity": 0.7086614173228346,
          "duration": 0.14999999999999858
        },
        {
          "name": "F2",
          "midi": 41,
          "time": 60.562499999999325,
          "velocity": 0.7086614173228346,
          "duration": 0.14999999999999858
        },
        {
          "name": "F5",
          "midi": 77,
          "time": 60.562499999999325,
          "velocity": 0.7086614173228346,
          "duration": 0.14999999999999858
        },
        {
          "name": "E5",
          "midi": 76,
          "time": 60.749999999999325,
          "velocity": 0.7086614173228346,
          "duration": 0.14999999999999858
        },
        {
          "name": "F2",
          "midi": 41,
          "time": 60.749999999999325,
          "velocity": 0.7086614173228346,
          "duration": 0.29999999999999716
        },
        {
          "name": "C5",
          "midi": 72,
          "time": 60.937499999999325,
          "velocity": 0.7086614173228346,
          "duration": 0.14999999999999858
        },
        {
          "name": "F3",
          "midi": 53,
          "time": 61.124999999999325,
          "velocity": 0.7086614173228346,
          "duration": 0.14999999999999858
        },
        {
          "name": "F5",
          "midi": 77,
          "time": 61.124999999999325,
          "velocity": 0.7086614173228346,
          "duration": 0.14999999999999858
        },
        {
          "name": "A3",
          "midi": 57,
          "time": 61.124999999999325,
          "velocity": 0.7086614173228346,
          "duration": 0.29999999999999716
        },
        {
          "name": "F4",
          "midi": 65,
          "time": 61.124999999999325,
          "velocity": 0.7086614173228346,
          "duration": 0.29999999999999716
        },
        {
          "name": "C4",
          "midi": 60,
          "time": 61.124999999999325,
          "velocity": 0.7086614173228346,
          "duration": 0.29999999999999716
        },
        {
          "name": "F2",
          "midi": 41,
          "time": 61.312499999999325,
          "velocity": 0.7086614173228346,
          "duration": 0.14999999999999858
        },
        {
          "name": "E5",
          "midi": 76,
          "time": 61.312499999999325,
          "velocity": 0.7086614173228346,
          "duration": 0.14999999999999858
        },
        {
          "name": "F2",
          "midi": 41,
          "time": 61.499999999999325,
          "velocity": 0.7086614173228346,
          "duration": 0.29999999999999716
        },
        {
          "name": "G3",
          "midi": 55,
          "time": 61.499999999999325,
          "velocity": 0.7086614173228346,
          "duration": 0.6000000000000014
        },
        {
          "name": "C4",
          "midi": 60,
          "time": 61.499999999999325,
          "velocity": 0.7086614173228346,
          "duration": 0.6000000000000014
        },
        {
          "name": "E4",
          "midi": 64,
          "time": 61.499999999999325,
          "velocity": 0.7086614173228346,
          "duration": 0.6000000000000014
        },
        {
          "name": "C5",
          "midi": 72,
          "time": 61.499999999999325,
          "velocity": 0.7086614173228346,
          "duration": 0.14999999999999858
        },
        {
          "name": "F5",
          "midi": 77,
          "time": 61.687499999999325,
          "velocity": 0.7086614173228346,
          "duration": 0.14999999999999858
        },
        {
          "name": "E5",
          "midi": 76,
          "time": 61.874999999999325,
          "velocity": 0.7086614173228346,
          "duration": 0.14999999999999858
        },
        {
          "name": "F3",
          "midi": 53,
          "time": 61.874999999999325,
          "velocity": 0.7086614173228346,
          "duration": 0.14999999999999858
        },
        {
          "name": "C5",
          "midi": 72,
          "time": 62.062499999999325,
          "velocity": 0.7086614173228346,
          "duration": 0.14999999999999858
        },
        {
          "name": "F2",
          "midi": 41,
          "time": 62.062499999999325,
          "velocity": 0.7086614173228346,
          "duration": 0.14999999999999858
        },
        {
          "name": "F5",
          "midi": 77,
          "time": 62.249999999999325,
          "velocity": 0.7086614173228346,
          "duration": 0.14999999999999858
        },
        {
          "name": "F2",
          "midi": 41,
          "time": 62.249999999999325,
          "velocity": 0.7086614173228346,
          "duration": 0.29999999999999716
        },
        {
          "name": "C5",
          "midi": 72,
          "time": 62.437499999999325,
          "velocity": 0.7086614173228346,
          "duration": 0.14999999999999858
        },
        {
          "name": "G3",
          "midi": 55,
          "time": 62.437499999999325,
          "velocity": 0.7086614173228346,
          "duration": 0.14999999999999858
        },
        {
          "name": "D5",
          "midi": 74,
          "time": 62.624999999999325,
          "velocity": 0.7086614173228346,
          "duration": 0.14999999999999858
        },
        {
          "name": "F3",
          "midi": 53,
          "time": 62.624999999999325,
          "velocity": 0.7086614173228346,
          "duration": 0.14999999999999858
        },
        {
          "name": "E4",
          "midi": 64,
          "time": 62.624999999999325,
          "velocity": 0.7086614173228346,
          "duration": 0.29999999999999716
        },
        {
          "name": "C4",
          "midi": 60,
          "time": 62.624999999999325,
          "velocity": 0.7086614173228346,
          "duration": 0.29999999999999716
        },
        {
          "name": "F2",
          "midi": 41,
          "time": 62.812499999999325,
          "velocity": 0.7086614173228346,
          "duration": 0.14999999999999858
        },
        {
          "name": "E5",
          "midi": 76,
          "time": 62.812499999999325,
          "velocity": 0.7086614173228346,
          "duration": 0.14999999999999858
        },
        {
          "name": "F5",
          "midi": 77,
          "time": 62.999999999999325,
          "velocity": 0.7086614173228346,
          "duration": 0.8999999999999986
        },
        {
          "name": "A3",
          "midi": 57,
          "time": 62.999999999999325,
          "velocity": 0.7086614173228346,
          "duration": 0.6000000000000014
        },
        {
          "name": "F2",
          "midi": 41,
          "time": 62.999999999999325,
          "velocity": 0.7086614173228346,
          "duration": 0.29999999999999716
        },
        {
          "name": "C4",
          "midi": 60,
          "time": 62.999999999999325,
          "velocity": 0.7086614173228346,
          "duration": 0.6000000000000014
        },
        {
          "name": "F4",
          "midi": 65,
          "time": 62.999999999999325,
          "velocity": 0.7086614173228346,
          "duration": 0.6000000000000014
        },
        {
          "name": "F3",
          "midi": 53,
          "time": 63.374999999999325,
          "velocity": 0.7086614173228346,
          "duration": 0.14999999999999858
        },
        {
          "name": "F2",
          "midi": 41,
          "time": 63.562499999999325,
          "velocity": 0.7086614173228346,
          "duration": 0.14999999999999858
        },
        {
          "name": "F2",
          "midi": 41,
          "time": 63.749999999999325,
          "velocity": 0.7086614173228346,
          "duration": 0.30000000000000426
        },
        {
          "name": "A3",
          "midi": 57,
          "time": 63.937499999999325,
          "velocity": 0.7086614173228346,
          "duration": 0.14999999999999858
        },
        {
          "name": "F3",
          "midi": 53,
          "time": 64.12499999999932,
          "velocity": 0.7086614173228346,
          "duration": 0.15000000000000568
        },
        {
          "name": "C4",
          "midi": 60,
          "time": 64.12499999999932,
          "velocity": 0.7086614173228346,
          "duration": 0.15000000000000568
        },
        {
          "name": "F2",
          "midi": 41,
          "time": 64.31249999999932,
          "velocity": 0.7086614173228346,
          "duration": 0.15000000000000568
        },
        {
          "name": "F4",
          "midi": 65,
          "time": 64.31249999999932,
          "velocity": 0.7086614173228346,
          "duration": 0.15000000000000568
        },
        {
          "name": "F2",
          "midi": 41,
          "time": 64.49999999999932,
          "velocity": 0.7086614173228346,
          "duration": 0.29999999999999716
        },
        {
          "name": "D4",
          "midi": 62,
          "time": 64.49999999999932,
          "velocity": 0.7086614173228346,
          "duration": 0.9000000000000057
        },
        {
          "name": "A#3",
          "midi": 58,
          "time": 64.49999999999932,
          "velocity": 0.7086614173228346,
          "duration": 0.9000000000000057
        },
        {
          "name": "F3",
          "midi": 53,
          "time": 64.87499999999932,
          "velocity": 0.7086614173228346,
          "duration": 0.15000000000000568
        },
        {
          "name": "F2",
          "midi": 41,
          "time": 65.06249999999932,
          "velocity": 0.7086614173228346,
          "duration": 0.15000000000000568
        },
        {
          "name": "F2",
          "midi": 41,
          "time": 65.24999999999932,
          "velocity": 0.7086614173228346,
          "duration": 0.15000000000000568
        },
        {
          "name": "C3",
          "midi": 48,
          "time": 65.43749999999932,
          "velocity": 0.7086614173228346,
          "duration": 0.29999999999999716
        },
        {
          "name": "E4",
          "midi": 64,
          "time": 65.43749999999932,
          "velocity": 0.7086614173228346,
          "duration": 0.45000000000000284
        },
        {
          "name": "C4",
          "midi": 60,
          "time": 65.43749999999932,
          "velocity": 0.7086614173228346,
          "duration": 0.45000000000000284
        },
        {
          "name": "G3",
          "midi": 55,
          "time": 65.43749999999932,
          "velocity": 0.7086614173228346,
          "duration": 0.45000000000000284
        },
        {
          "name": "F2",
          "midi": 41,
          "time": 65.81249999999932,
          "velocity": 0.7086614173228346,
          "duration": 0.15000000000000568
        },
        {
          "name": "C4",
          "midi": 60,
          "time": 65.99999999999932,
          "velocity": 0.7086614173228346,
          "duration": 0.9000000000000057
        },
        {
          "name": "F2",
          "midi": 41,
          "time": 65.99999999999932,
          "velocity": 0.7086614173228346,
          "duration": 0.29999999999999716
        },
        {
          "name": "A3",
          "midi": 57,
          "time": 65.99999999999932,
          "velocity": 0.7086614173228346,
          "duration": 0.9000000000000057
        },
        {
          "name": "F4",
          "midi": 65,
          "time": 65.99999999999932,
          "velocity": 0.7086614173228346,
          "duration": 0.9000000000000057
        },
        {
          "name": "F3",
          "midi": 53,
          "time": 66.37499999999932,
          "velocity": 0.7086614173228346,
          "duration": 0.15000000000000568
        },
        {
          "name": "F2",
          "midi": 41,
          "time": 66.56249999999932,
          "velocity": 0.7086614173228346,
          "duration": 0.15000000000000568
        },
        {
          "name": "F2",
          "midi": 41,
          "time": 66.74999999999932,
          "velocity": 0.7086614173228346,
          "duration": 0.30000000000001137
        },
        {
          "name": "F3",
          "midi": 53,
          "time": 67.12499999999933,
          "velocity": 0.7086614173228346,
          "duration": 0.15000000000000568
        },
        {
          "name": "F4",
          "midi": 65,
          "time": 67.12499999999933,
          "velocity": 0.7086614173228346,
          "duration": 0.29999999999999716
        },
        {
          "name": "A3",
          "midi": 57,
          "time": 67.12499999999933,
          "velocity": 0.7086614173228346,
          "duration": 0.29999999999999716
        },
        {
          "name": "C4",
          "midi": 60,
          "time": 67.12499999999933,
          "velocity": 0.7086614173228346,
          "duration": 0.29999999999999716
        },
        {
          "name": "F2",
          "midi": 41,
          "time": 67.31249999999933,
          "velocity": 0.7086614173228346,
          "duration": 0.14999999999999147
        },
        {
          "name": "F2",
          "midi": 41,
          "time": 67.49999999999932,
          "velocity": 0.7086614173228346,
          "duration": 0.29999999999999716
        },
        {
          "name": "G3",
          "midi": 55,
          "time": 67.49999999999932,
          "velocity": 0.7086614173228346,
          "duration": 0.5999999999999943
        },
        {
          "name": "C4",
          "midi": 60,
          "time": 67.49999999999932,
          "velocity": 0.7086614173228346,
          "duration": 0.5999999999999943
        },
        {
          "name": "E4",
          "midi": 64,
          "time": 67.49999999999932,
          "velocity": 0.7086614173228346,
          "duration": 0.5999999999999943
        },
        {
          "name": "F3",
          "midi": 53,
          "time": 67.87499999999932,
          "velocity": 0.7086614173228346,
          "duration": 0.15000000000000568
        },
        {
          "name": "F2",
          "midi": 41,
          "time": 68.06249999999932,
          "velocity": 0.7086614173228346,
          "duration": 0.14999999999999147
        },
        {
          "name": "F2",
          "midi": 41,
          "time": 68.2499999999993,
          "velocity": 0.7086614173228346,
          "duration": 0.29999999999999716
        },
        {
          "name": "G3",
          "midi": 55,
          "time": 68.4374999999993,
          "velocity": 0.7086614173228346,
          "duration": 0.14999999999999147
        },
        {
          "name": "F3",
          "midi": 53,
          "time": 68.62499999999929,
          "velocity": 0.7086614173228346,
          "duration": 0.15000000000000568
        },
        {
          "name": "E4",
          "midi": 64,
          "time": 68.62499999999929,
          "velocity": 0.7086614173228346,
          "duration": 0.29999999999999716
        },
        {
          "name": "C4",
          "midi": 60,
          "time": 68.62499999999929,
          "velocity": 0.7086614173228346,
          "duration": 0.29999999999999716
        },
        {
          "name": "F2",
          "midi": 41,
          "time": 68.81249999999929,
          "velocity": 0.7086614173228346,
          "duration": 0.14999999999999147
        },
        {
          "name": "F4",
          "midi": 65,
          "time": 68.99999999999928,
          "velocity": 0.7086614173228346,
          "duration": 0.5999999999999943
        },
        {
          "name": "F2",
          "midi": 41,
          "time": 68.99999999999928,
          "velocity": 0.7086614173228346,
          "duration": 0.29999999999999716
        },
        {
          "name": "C4",
          "midi": 60,
          "time": 68.99999999999928,
          "velocity": 0.7086614173228346,
          "duration": 0.5999999999999943
        },
        {
          "name": "A3",
          "midi": 57,
          "time": 68.99999999999928,
          "velocity": 0.7086614173228346,
          "duration": 0.5999999999999943
        },
        {
          "name": "F3",
          "midi": 53,
          "time": 69.37499999999928,
          "velocity": 0.7086614173228346,
          "duration": 0.15000000000000568
        },
        {
          "name": "F2",
          "midi": 41,
          "time": 69.56249999999928,
          "velocity": 0.7086614173228346,
          "duration": 0.14999999999999147
        },
        {
          "name": "F2",
          "midi": 41,
          "time": 69.74999999999926,
          "velocity": 0.7086614173228346,
          "duration": 0.29999999999999716
        },
        {
          "name": "A3",
          "midi": 57,
          "time": 69.93749999999926,
          "velocity": 0.7086614173228346,
          "duration": 0.14999999999999147
        },
        {
          "name": "F3",
          "midi": 53,
          "time": 70.12499999999925,
          "velocity": 0.7086614173228346,
          "duration": 0.15000000000000568
        },
        {
          "name": "C4",
          "midi": 60,
          "time": 70.12499999999925,
          "velocity": 0.7086614173228346,
          "duration": 0.15000000000000568
        },
        {
          "name": "F4",
          "midi": 65,
          "time": 70.31249999999925,
          "velocity": 0.7086614173228346,
          "duration": 0.15000000000000568
        },
        {
          "name": "F2",
          "midi": 41,
          "time": 70.31249999999925,
          "velocity": 0.7086614173228346,
          "duration": 0.15000000000000568
        },
        {
          "name": "F2",
          "midi": 41,
          "time": 70.49999999999925,
          "velocity": 0.7086614173228346,
          "duration": 0.29999999999999716
        },
        {
          "name": "D4",
          "midi": 62,
          "time": 70.49999999999925,
          "velocity": 0.7086614173228346,
          "duration": 0.9000000000000057
        },
        {
          "name": "A#3",
          "midi": 58,
          "time": 70.49999999999925,
          "velocity": 0.7086614173228346,
          "duration": 0.9000000000000057
        },
        {
          "name": "F3",
          "midi": 53,
          "time": 70.87499999999925,
          "velocity": 0.7086614173228346,
          "duration": 0.15000000000000568
        },
        {
          "name": "F2",
          "midi": 41,
          "time": 71.06249999999925,
          "velocity": 0.7086614173228346,
          "duration": 0.15000000000000568
        },
        {
          "name": "F2",
          "midi": 41,
          "time": 71.24999999999925,
          "velocity": 0.7086614173228346,
          "duration": 0.15000000000000568
        },
        {
          "name": "C3",
          "midi": 48,
          "time": 71.43749999999925,
          "velocity": 0.7086614173228346,
          "duration": 0.29999999999999716
        },
        {
          "name": "E4",
          "midi": 64,
          "time": 71.43749999999925,
          "velocity": 0.7086614173228346,
          "duration": 0.45000000000000284
        },
        {
          "name": "G3",
          "midi": 55,
          "time": 71.43749999999925,
          "velocity": 0.7086614173228346,
          "duration": 0.45000000000000284
        },
        {
          "name": "C4",
          "midi": 60,
          "time": 71.43749999999925,
          "velocity": 0.7086614173228346,
          "duration": 0.45000000000000284
        },
        {
          "name": "F2",
          "midi": 41,
          "time": 71.81249999999925,
          "velocity": 0.7086614173228346,
          "duration": 0.15000000000000568
        },
        {
          "name": "A3",
          "midi": 57,
          "time": 71.99999999999925,
          "velocity": 0.7086614173228346,
          "duration": 0.9000000000000057
        },
        {
          "name": "F2",
          "midi": 41,
          "time": 71.99999999999925,
          "velocity": 0.7086614173228346,
          "duration": 0.29999999999999716
        },
        {
          "name": "F4",
          "midi": 65,
          "time": 71.99999999999925,
          "velocity": 0.7086614173228346,
          "duration": 0.9000000000000057
        },
        {
          "name": "C4",
          "midi": 60,
          "time": 71.99999999999925,
          "velocity": 0.7086614173228346,
          "duration": 0.9000000000000057
        },
        {
          "name": "F3",
          "midi": 53,
          "time": 72.37499999999925,
          "velocity": 0.7086614173228346,
          "duration": 0.15000000000000568
        },
        {
          "name": "F2",
          "midi": 41,
          "time": 72.56249999999925,
          "velocity": 0.7086614173228346,
          "duration": 0.15000000000000568
        },
        {
          "name": "F2",
          "midi": 41,
          "time": 72.74999999999925,
          "velocity": 0.7086614173228346,
          "duration": 0.30000000000001137
        },
        {
          "name": "F3",
          "midi": 53,
          "time": 73.12499999999926,
          "velocity": 0.7086614173228346,
          "duration": 0.15000000000000568
        },
        {
          "name": "F4",
          "midi": 65,
          "time": 73.12499999999926,
          "velocity": 0.7086614173228346,
          "duration": 0.29999999999999716
        },
        {
          "name": "A3",
          "midi": 57,
          "time": 73.12499999999926,
          "velocity": 0.7086614173228346,
          "duration": 0.29999999999999716
        },
        {
          "name": "C4",
          "midi": 60,
          "time": 73.12499999999926,
          "velocity": 0.7086614173228346,
          "duration": 0.29999999999999716
        },
        {
          "name": "F2",
          "midi": 41,
          "time": 73.31249999999926,
          "velocity": 0.7086614173228346,
          "duration": 0.14999999999999147
        },
        {
          "name": "C4",
          "midi": 60,
          "time": 73.49999999999925,
          "velocity": 0.7086614173228346,
          "duration": 0.5999999999999943
        },
        {
          "name": "F2",
          "midi": 41,
          "time": 73.49999999999925,
          "velocity": 0.7086614173228346,
          "duration": 0.29999999999999716
        },
        {
          "name": "G3",
          "midi": 55,
          "time": 73.49999999999925,
          "velocity": 0.7086614173228346,
          "duration": 0.5999999999999943
        },
        {
          "name": "E4",
          "midi": 64,
          "time": 73.49999999999925,
          "velocity": 0.7086614173228346,
          "duration": 0.5999999999999943
        },
        {
          "name": "F3",
          "midi": 53,
          "time": 73.87499999999925,
          "velocity": 0.7086614173228346,
          "duration": 0.15000000000000568
        },
        {
          "name": "F2",
          "midi": 41,
          "time": 74.06249999999925,
          "velocity": 0.7086614173228346,
          "duration": 0.14999999999999147
        },
        {
          "name": "F2",
          "midi": 41,
          "time": 74.24999999999923,
          "velocity": 0.7086614173228346,
          "duration": 0.29999999999999716
        },
        {
          "name": "G3",
          "midi": 55,
          "time": 74.43749999999923,
          "velocity": 0.7086614173228346,
          "duration": 0.14999999999999147
        },
        {
          "name": "F3",
          "midi": 53,
          "time": 74.62499999999922,
          "velocity": 0.7086614173228346,
          "duration": 0.15000000000000568
        },
        {
          "name": "C4",
          "midi": 60,
          "time": 74.62499999999922,
          "velocity": 0.7086614173228346,
          "duration": 0.29999999999999716
        },
        {
          "name": "E4",
          "midi": 64,
          "time": 74.62499999999922,
          "velocity": 0.7086614173228346,
          "duration": 0.29999999999999716
        },
        {
          "name": "F2",
          "midi": 41,
          "time": 74.81249999999922,
          "velocity": 0.7086614173228346,
          "duration": 0.14999999999999147
        },
        {
          "name": "F4",
          "midi": 65,
          "time": 74.9999999999992,
          "velocity": 0.7086614173228346,
          "duration": 0.5999999999999943
        },
        {
          "name": "F2",
          "midi": 41,
          "time": 74.9999999999992,
          "velocity": 0.7086614173228346,
          "duration": 0.29999999999999716
        },
        {
          "name": "C4",
          "midi": 60,
          "time": 74.9999999999992,
          "velocity": 0.7086614173228346,
          "duration": 0.5999999999999943
        },
        {
          "name": "A3",
          "midi": 57,
          "time": 74.9999999999992,
          "velocity": 0.7086614173228346,
          "duration": 0.5999999999999943
        },
        {
          "name": "F3",
          "midi": 53,
          "time": 75.3749999999992,
          "velocity": 0.7086614173228346,
          "duration": 0.15000000000000568
        },
        {
          "name": "F2",
          "midi": 41,
          "time": 75.5624999999992,
          "velocity": 0.7086614173228346,
          "duration": 0.14999999999999147
        },
        {
          "name": "F2",
          "midi": 41,
          "time": 75.74999999999919,
          "velocity": 0.7086614173228346,
          "duration": 0.29999999999999716
        },
        {
          "name": "A3",
          "midi": 57,
          "time": 75.93749999999919,
          "velocity": 0.7086614173228346,
          "duration": 0.14999999999999147
        },
        {
          "name": "C4",
          "midi": 60,
          "time": 76.12499999999918,
          "velocity": 0.7086614173228346,
          "duration": 0.15000000000000568
        },
        {
          "name": "F3",
          "midi": 53,
          "time": 76.12499999999918,
          "velocity": 0.7086614173228346,
          "duration": 0.15000000000000568
        },
        {
          "name": "F4",
          "midi": 65,
          "time": 76.31249999999918,
          "velocity": 0.7086614173228346,
          "duration": 0.15000000000000568
        },
        {
          "name": "F2",
          "midi": 41,
          "time": 76.31249999999918,
          "velocity": 0.7086614173228346,
          "duration": 0.15000000000000568
        },
        {
          "name": "F2",
          "midi": 41,
          "time": 76.49999999999918,
          "velocity": 0.7086614173228346,
          "duration": 0.29999999999999716
        },
        {
          "name": "D4",
          "midi": 62,
          "time": 76.49999999999918,
          "velocity": 0.7086614173228346,
          "duration": 0.9000000000000057
        },
        {
          "name": "A#3",
          "midi": 58,
          "time": 76.49999999999918,
          "velocity": 0.7086614173228346,
          "duration": 0.9000000000000057
        },
        {
          "name": "F3",
          "midi": 53,
          "time": 76.87499999999918,
          "velocity": 0.7086614173228346,
          "duration": 0.15000000000000568
        },
        {
          "name": "F2",
          "midi": 41,
          "time": 77.06249999999918,
          "velocity": 0.7086614173228346,
          "duration": 0.15000000000000568
        },
        {
          "name": "F2",
          "midi": 41,
          "time": 77.24999999999918,
          "velocity": 0.7086614173228346,
          "duration": 0.15000000000000568
        },
        {
          "name": "C3",
          "midi": 48,
          "time": 77.43749999999918,
          "velocity": 0.7086614173228346,
          "duration": 0.29999999999999716
        },
        {
          "name": "C4",
          "midi": 60,
          "time": 77.43749999999918,
          "velocity": 0.7086614173228346,
          "duration": 0.45000000000000284
        },
        {
          "name": "G3",
          "midi": 55,
          "time": 77.43749999999918,
          "velocity": 0.7086614173228346,
          "duration": 0.45000000000000284
        },
        {
          "name": "E4",
          "midi": 64,
          "time": 77.43749999999918,
          "velocity": 0.7086614173228346,
          "duration": 0.45000000000000284
        },
        {
          "name": "F2",
          "midi": 41,
          "time": 77.81249999999918,
          "velocity": 0.7086614173228346,
          "duration": 0.15000000000000568
        },
        {
          "name": "A3",
          "midi": 57,
          "time": 77.99999999999918,
          "velocity": 0.7086614173228346,
          "duration": 0.9000000000000057
        },
        {
          "name": "F4",
          "midi": 65,
          "time": 77.99999999999918,
          "velocity": 0.7086614173228346,
          "duration": 0.9000000000000057
        },
        {
          "name": "F2",
          "midi": 41,
          "time": 77.99999999999918,
          "velocity": 0.7086614173228346,
          "duration": 0.29999999999999716
        },
        {
          "name": "C4",
          "midi": 60,
          "time": 77.99999999999918,
          "velocity": 0.7086614173228346,
          "duration": 0.9000000000000057
        },
        {
          "name": "F3",
          "midi": 53,
          "time": 78.37499999999918,
          "velocity": 0.7086614173228346,
          "duration": 0.15000000000000568
        },
        {
          "name": "F2",
          "midi": 41,
          "time": 78.56249999999918,
          "velocity": 0.7086614173228346,
          "duration": 0.15000000000000568
        },
        {
          "name": "F2",
          "midi": 41,
          "time": 78.74999999999918,
          "velocity": 0.7086614173228346,
          "duration": 0.30000000000001137
        },
        {
          "name": "F3",
          "midi": 53,
          "time": 79.12499999999919,
          "velocity": 0.7086614173228346,
          "duration": 0.15000000000000568
        },
        {
          "name": "C4",
          "midi": 60,
          "time": 79.12499999999919,
          "velocity": 0.7086614173228346,
          "duration": 0.29999999999999716
        },
        {
          "name": "F4",
          "midi": 65,
          "time": 79.12499999999919,
          "velocity": 0.7086614173228346,
          "duration": 0.29999999999999716
        },
        {
          "name": "A3",
          "midi": 57,
          "time": 79.12499999999919,
          "velocity": 0.7086614173228346,
          "duration": 0.29999999999999716
        },
        {
          "name": "F2",
          "midi": 41,
          "time": 79.31249999999919,
          "velocity": 0.7086614173228346,
          "duration": 0.14999999999999147
        },
        {
          "name": "G3",
          "midi": 55,
          "time": 79.49999999999918,
          "velocity": 0.7086614173228346,
          "duration": 0.5999999999999943
        },
        {
          "name": "F2",
          "midi": 41,
          "time": 79.49999999999918,
          "velocity": 0.7086614173228346,
          "duration": 0.29999999999999716
        },
        {
          "name": "E4",
          "midi": 64,
          "time": 79.49999999999918,
          "velocity": 0.7086614173228346,
          "duration": 0.5999999999999943
        },
        {
          "name": "C4",
          "midi": 60,
          "time": 79.49999999999918,
          "velocity": 0.7086614173228346,
          "duration": 0.5999999999999943
        },
        {
          "name": "F3",
          "midi": 53,
          "time": 79.87499999999918,
          "velocity": 0.7086614173228346,
          "duration": 0.15000000000000568
        },
        {
          "name": "F2",
          "midi": 41,
          "time": 80.06249999999918,
          "velocity": 0.7086614173228346,
          "duration": 0.14999999999999147
        },
        {
          "name": "F2",
          "midi": 41,
          "time": 80.24999999999916,
          "velocity": 0.7086614173228346,
          "duration": 0.29999999999999716
        },
        {
          "name": "G3",
          "midi": 55,
          "time": 80.43749999999916,
          "velocity": 0.7086614173228346,
          "duration": 0.14999999999999147
        },
        {
          "name": "F3",
          "midi": 53,
          "time": 80.62499999999915,
          "velocity": 0.7086614173228346,
          "duration": 0.15000000000000568
        },
        {
          "name": "C4",
          "midi": 60,
          "time": 80.62499999999915,
          "velocity": 0.7086614173228346,
          "duration": 0.29999999999999716
        },
        {
          "name": "E4",
          "midi": 64,
          "time": 80.62499999999915,
          "velocity": 0.7086614173228346,
          "duration": 0.29999999999999716
        },
        {
          "name": "F2",
          "midi": 41,
          "time": 80.81249999999915,
          "velocity": 0.7086614173228346,
          "duration": 0.14999999999999147
        },
        {
          "name": "A3",
          "midi": 57,
          "time": 80.99999999999913,
          "velocity": 0.7086614173228346,
          "duration": 0.5999999999999943
        },
        {
          "name": "C4",
          "midi": 60,
          "time": 80.99999999999913,
          "velocity": 0.7086614173228346,
          "duration": 0.5999999999999943
        },
        {
          "name": "F2",
          "midi": 41,
          "time": 80.99999999999913,
          "velocity": 0.7086614173228346,
          "duration": 0.29999999999999716
        },
        {
          "name": "F4",
          "midi": 65,
          "time": 80.99999999999913,
          "velocity": 0.7086614173228346,
          "duration": 0.5999999999999943
        },
        {
          "name": "F3",
          "midi": 53,
          "time": 81.37499999999913,
          "velocity": 0.7086614173228346,
          "duration": 0.15000000000000568
        },
        {
          "name": "F2",
          "midi": 41,
          "time": 81.56249999999913,
          "velocity": 0.7086614173228346,
          "duration": 0.14999999999999147
        },
        {
          "name": "F2",
          "midi": 41,
          "time": 81.74999999999912,
          "velocity": 0.7086614173228346,
          "duration": 0.29999999999999716
        },
        {
          "name": "A3",
          "midi": 57,
          "time": 81.93749999999912,
          "velocity": 0.7086614173228346,
          "duration": 0.14999999999999147
        },
        {
          "name": "F3",
          "midi": 53,
          "time": 82.1249999999991,
          "velocity": 0.7086614173228346,
          "duration": 0.15000000000000568
        },
        {
          "name": "C4",
          "midi": 60,
          "time": 82.1249999999991,
          "velocity": 0.7086614173228346,
          "duration": 0.15000000000000568
        },
        {
          "name": "F4",
          "midi": 65,
          "time": 82.3124999999991,
          "velocity": 0.7086614173228346,
          "duration": 0.15000000000000568
        },
        {
          "name": "F2",
          "midi": 41,
          "time": 82.3124999999991,
          "velocity": 0.7086614173228346,
          "duration": 0.15000000000000568
        },
        {
          "name": "D4",
          "midi": 62,
          "time": 82.4999999999991,
          "velocity": 0.7086614173228346,
          "duration": 0.9000000000000057
        },
        {
          "name": "F2",
          "midi": 41,
          "time": 82.4999999999991,
          "velocity": 0.7086614173228346,
          "duration": 0.29999999999999716
        },
        {
          "name": "A#3",
          "midi": 58,
          "time": 82.4999999999991,
          "velocity": 0.7086614173228346,
          "duration": 0.9000000000000057
        },
        {
          "name": "F3",
          "midi": 53,
          "time": 82.8749999999991,
          "velocity": 0.7086614173228346,
          "duration": 0.15000000000000568
        },
        {
          "name": "F2",
          "midi": 41,
          "time": 83.0624999999991,
          "velocity": 0.7086614173228346,
          "duration": 0.15000000000000568
        },
        {
          "name": "F2",
          "midi": 41,
          "time": 83.2499999999991,
          "velocity": 0.7086614173228346,
          "duration": 0.15000000000000568
        },
        {
          "name": "C3",
          "midi": 48,
          "time": 83.4374999999991,
          "velocity": 0.7086614173228346,
          "duration": 0.29999999999999716
        },
        {
          "name": "C4",
          "midi": 60,
          "time": 83.4374999999991,
          "velocity": 0.7086614173228346,
          "duration": 0.45000000000000284
        },
        {
          "name": "E4",
          "midi": 64,
          "time": 83.4374999999991,
          "velocity": 0.7086614173228346,
          "duration": 0.45000000000000284
        },
        {
          "name": "G3",
          "midi": 55,
          "time": 83.4374999999991,
          "velocity": 0.7086614173228346,
          "duration": 0.45000000000000284
        },
        {
          "name": "F2",
          "midi": 41,
          "time": 83.8124999999991,
          "velocity": 0.7086614173228346,
          "duration": 0.15000000000000568
        },
        {
          "name": "F2",
          "midi": 41,
          "time": 83.9999999999991,
          "velocity": 0.7086614173228346,
          "duration": 0.29999999999999716
        },
        {
          "name": "F4",
          "midi": 65,
          "time": 83.9999999999991,
          "velocity": 0.7086614173228346,
          "duration": 0.9000000000000057
        },
        {
          "name": "A#3",
          "midi": 58,
          "time": 83.9999999999991,
          "velocity": 0.7086614173228346,
          "duration": 0.9000000000000057
        },
        {
          "name": "D4",
          "midi": 62,
          "time": 83.9999999999991,
          "velocity": 0.7086614173228346,
          "duration": 0.9000000000000057
        },
        {
          "name": "F3",
          "midi": 53,
          "time": 84.3749999999991,
          "velocity": 0.7086614173228346,
          "duration": 0.15000000000000568
        },
        {
          "name": "F2",
          "midi": 41,
          "time": 84.5624999999991,
          "velocity": 0.7086614173228346,
          "duration": 0.15000000000000568
        },
        {
          "name": "F2",
          "midi": 41,
          "time": 84.7499999999991,
          "velocity": 0.7086614173228346,
          "duration": 0.30000000000001137
        },
        {
          "name": "F3",
          "midi": 53,
          "time": 85.12499999999912,
          "velocity": 0.7086614173228346,
          "duration": 0.15000000000000568
        },
        {
          "name": "D4",
          "midi": 62,
          "time": 85.12499999999912,
          "velocity": 0.7086614173228346,
          "duration": 0.29999999999999716
        },
        {
          "name": "A#3",
          "midi": 58,
          "time": 85.12499999999912,
          "velocity": 0.7086614173228346,
          "duration": 0.29999999999999716
        },
        {
          "name": "F4",
          "midi": 65,
          "time": 85.12499999999912,
          "velocity": 0.7086614173228346,
          "duration": 0.29999999999999716
        },
        {
          "name": "F2",
          "midi": 41,
          "time": 85.31249999999912,
          "velocity": 0.7086614173228346,
          "duration": 0.14999999999999147
        },
        {
          "name": "F2",
          "midi": 41,
          "time": 85.4999999999991,
          "velocity": 0.7086614173228346,
          "duration": 0.29999999999999716
        },
        {
          "name": "E4",
          "midi": 64,
          "time": 85.4999999999991,
          "velocity": 0.7086614173228346,
          "duration": 0.9000000000000057
        },
        {
          "name": "C4",
          "midi": 60,
          "time": 85.4999999999991,
          "velocity": 0.7086614173228346,
          "duration": 0.9000000000000057
        },
        {
          "name": "A#3",
          "midi": 58,
          "time": 85.4999999999991,
          "velocity": 0.7086614173228346,
          "duration": 0.9000000000000057
        },
        {
          "name": "G3",
          "midi": 55,
          "time": 85.4999999999991,
          "velocity": 0.7086614173228346,
          "duration": 0.9000000000000057
        },
        {
          "name": "F3",
          "midi": 53,
          "time": 85.8749999999991,
          "velocity": 0.7086614173228346,
          "duration": 0.15000000000000568
        },
        {
          "name": "F2",
          "midi": 41,
          "time": 86.0624999999991,
          "velocity": 0.7086614173228346,
          "duration": 0.15000000000000568
        },
        {
          "name": "F2",
          "midi": 41,
          "time": 86.2499999999991,
          "velocity": 0.7086614173228346,
          "duration": 0.29999999999999716
        },
        {
          "name": "G3",
          "midi": 55,
          "time": 86.4374999999991,
          "velocity": 0.7086614173228346,
          "duration": 0.14999999999999147
        },
        {
          "name": "F3",
          "midi": 53,
          "time": 86.62499999999909,
          "velocity": 0.7086614173228346,
          "duration": 0.15000000000000568
        },
        {
          "name": "E4",
          "midi": 64,
          "time": 86.62499999999909,
          "velocity": 0.7086614173228346,
          "duration": 0.29999999999999716
        },
        {
          "name": "C4",
          "midi": 60,
          "time": 86.62499999999909,
          "velocity": 0.7086614173228346,
          "duration": 0.29999999999999716
        },
        {
          "name": "F2",
          "midi": 41,
          "time": 86.81249999999909,
          "velocity": 0.7086614173228346,
          "duration": 0.14999999999999147
        },
        {
          "name": "C4",
          "midi": 60,
          "time": 86.99999999999908,
          "velocity": 0.7086614173228346,
          "duration": 0.5999999999999943
        },
        {
          "name": "F2",
          "midi": 41,
          "time": 86.99999999999908,
          "velocity": 0.7086614173228346,
          "duration": 0.29999999999999716
        },
        {
          "name": "A3",
          "midi": 57,
          "time": 86.99999999999908,
          "velocity": 0.7086614173228346,
          "duration": 0.5999999999999943
        },
        {
          "name": "F4",
          "midi": 65,
          "time": 86.99999999999908,
          "velocity": 0.7086614173228346,
          "duration": 0.5999999999999943
        },
        {
          "name": "F3",
          "midi": 53,
          "time": 87.37499999999908,
          "velocity": 0.7086614173228346,
          "duration": 0.15000000000000568
        },
        {
          "name": "F2",
          "midi": 41,
          "time": 87.56249999999908,
          "velocity": 0.7086614173228346,
          "duration": 0.14999999999999147
        },
        {
          "name": "F2",
          "midi": 41,
          "time": 87.74999999999906,
          "velocity": 0.7086614173228346,
          "duration": 0.29999999999999716
        },
        {
          "name": "A3",
          "midi": 57,
          "time": 87.93749999999906,
          "velocity": 0.7086614173228346,
          "duration": 0.14999999999999147
        },
        {
          "name": "F3",
          "midi": 53,
          "time": 88.12499999999905,
          "velocity": 0.7086614173228346,
          "duration": 0.15000000000000568
        },
        {
          "name": "C4",
          "midi": 60,
          "time": 88.12499999999905,
          "velocity": 0.7086614173228346,
          "duration": 0.15000000000000568
        },
        {
          "name": "F2",
          "midi": 41,
          "time": 88.31249999999905,
          "velocity": 0.7086614173228346,
          "duration": 0.15000000000000568
        },
        {
          "name": "F4",
          "midi": 65,
          "time": 88.31249999999905,
          "velocity": 0.7086614173228346,
          "duration": 0.15000000000000568
        },
        {
          "name": "A#3",
          "midi": 58,
          "time": 88.49999999999905,
          "velocity": 0.7086614173228346,
          "duration": 0.9000000000000057
        },
        {
          "name": "D4",
          "midi": 62,
          "time": 88.49999999999905,
          "velocity": 0.7086614173228346,
          "duration": 0.9000000000000057
        },
        {
          "name": "F2",
          "midi": 41,
          "time": 88.49999999999905,
          "velocity": 0.7086614173228346,
          "duration": 0.29999999999999716
        },
        {
          "name": "F3",
          "midi": 53,
          "time": 88.87499999999905,
          "velocity": 0.7086614173228346,
          "duration": 0.15000000000000568
        },
        {
          "name": "F2",
          "midi": 41,
          "time": 89.06249999999905,
          "velocity": 0.7086614173228346,
          "duration": 0.15000000000000568
        },
        {
          "name": "F2",
          "midi": 41,
          "time": 89.24999999999905,
          "velocity": 0.7086614173228346,
          "duration": 0.15000000000000568
        },
        {
          "name": "F5",
          "midi": 77,
          "time": 89.43749999999905,
          "velocity": 0.7086614173228346,
          "duration": 0.15000000000000568
        },
        {
          "name": "C3",
          "midi": 48,
          "time": 89.43749999999905,
          "velocity": 0.7086614173228346,
          "duration": 0.29999999999999716
        },
        {
          "name": "C5",
          "midi": 72,
          "time": 89.43749999999905,
          "velocity": 0.7086614173228346,
          "duration": 0.45000000000000284
        },
        {
          "name": "E5",
          "midi": 76,
          "time": 89.43749999999905,
          "velocity": 0.7086614173228346,
          "duration": 0.45000000000000284
        },
        {
          "name": "G4",
          "midi": 67,
          "time": 89.43749999999905,
          "velocity": 0.7086614173228346,
          "duration": 0.45000000000000284
        },
        {
          "name": "F5",
          "midi": 77,
          "time": 89.62499999999905,
          "velocity": 0.7086614173228346,
          "duration": 0.29999999999999716
        },
        {
          "name": "F2",
          "midi": 41,
          "time": 89.81249999999905,
          "velocity": 0.7086614173228346,
          "duration": 0.14999999999999147
        },
        {
          "name": "F2",
          "midi": 41,
          "time": 89.99999999999903,
          "velocity": 1,
          "duration": 0.45000000000000284
        },
        {
          "name": "F3",
          "midi": 53,
          "time": 89.99999999999903,
          "velocity": 1,
          "duration": 0.45000000000000284
        },
        {
          "name": "F5",
          "midi": 77,
          "time": 89.99999999999903,
          "velocity": 1,
          "duration": 0.29999999999999716
        },
        {
          "name": "A4",
          "midi": 69,
          "time": 89.99999999999903,
          "velocity": 1,
          "duration": 0.5999999999999943
        },
        {
          "name": "C5",
          "midi": 72,
          "time": 89.99999999999903,
          "velocity": 1,
          "duration": 0.5999999999999943
        },
        {
          "name": "E5",
          "midi": 76,
          "time": 90.37499999999903,
          "velocity": 1,
          "duration": 0.29999999999999716
        },
        {
          "name": "F3",
          "midi": 53,
          "time": 90.56249999999903,
          "velocity": 1,
          "duration": 0.14999999999999147
        },
        {
          "name": "F2",
          "midi": 41,
          "time": 90.56249999999903,
          "velocity": 1,
          "duration": 0.14999999999999147
        },
        {
          "name": "D5",
          "midi": 74,
          "time": 90.74999999999902,
          "velocity": 1,
          "duration": 0.29999999999999716
        },
        {
          "name": "F2",
          "midi": 41,
          "time": 90.74999999999902,
          "velocity": 1,
          "duration": 0.45000000000000284
        },
        {
          "name": "F3",
          "midi": 53,
          "time": 90.74999999999902,
          "velocity": 1,
          "duration": 0.45000000000000284
        },
        {
          "name": "A#4",
          "midi": 70,
          "time": 90.74999999999902,
          "velocity": 1,
          "duration": 0.5999999999999943
        },
        {
          "name": "F4",
          "midi": 65,
          "time": 90.74999999999902,
          "velocity": 1,
          "duration": 0.5999999999999943
        },
        {
          "name": "C5",
          "midi": 72,
          "time": 91.12499999999902,
          "velocity": 1,
          "duration": 0.29999999999999716
        },
        {
          "name": "F2",
          "midi": 41,
          "time": 91.31249999999902,
          "velocity": 1,
          "duration": 0.14999999999999147
        },
        {
          "name": "F3",
          "midi": 53,
          "time": 91.31249999999902,
          "velocity": 1,
          "duration": 0.14999999999999147
        },
        {
          "name": "F2",
          "midi": 41,
          "time": 91.499999999999,
          "velocity": 1,
          "duration": 0.45000000000000284
        },
        {
          "name": "F3",
          "midi": 53,
          "time": 91.499999999999,
          "velocity": 1,
          "duration": 0.45000000000000284
        },
        {
          "name": "C5",
          "midi": 72,
          "time": 91.499999999999,
          "velocity": 1,
          "duration": 0.45000000000000284
        },
        {
          "name": "E4",
          "midi": 64,
          "time": 91.499999999999,
          "velocity": 1,
          "duration": 0.5999999999999943
        },
        {
          "name": "G4",
          "midi": 67,
          "time": 91.499999999999,
          "velocity": 1,
          "duration": 0.5999999999999943
        },
        {
          "name": "F3",
          "midi": 53,
          "time": 92.062499999999,
          "velocity": 1,
          "duration": 0.14999999999999147
        },
        {
          "name": "F2",
          "midi": 41,
          "time": 92.062499999999,
          "velocity": 1,
          "duration": 0.14999999999999147
        },
        {
          "name": "A#4",
          "midi": 70,
          "time": 92.062499999999,
          "velocity": 1,
          "duration": 0.14999999999999147
        },
        {
          "name": "F4",
          "midi": 65,
          "time": 92.24999999999899,
          "velocity": 1,
          "duration": 0.29999999999999716
        },
        {
          "name": "A4",
          "midi": 69,
          "time": 92.24999999999899,
          "velocity": 1,
          "duration": 0.29999999999999716
        },
        {
          "name": "F3",
          "midi": 53,
          "time": 92.24999999999899,
          "velocity": 1,
          "duration": 0.45000000000000284
        },
        {
          "name": "F2",
          "midi": 41,
          "time": 92.24999999999899,
          "velocity": 1,
          "duration": 0.45000000000000284
        },
        {
          "name": "F5",
          "midi": 77,
          "time": 92.62499999999899,
          "velocity": 1,
          "duration": 0.29999999999999716
        },
        {
          "name": "F3",
          "midi": 53,
          "time": 92.81249999999899,
          "velocity": 1,
          "duration": 0.14999999999999147
        },
        {
          "name": "F2",
          "midi": 41,
          "time": 92.81249999999899,
          "velocity": 1,
          "duration": 0.14999999999999147
        },
        {
          "name": "F3",
          "midi": 53,
          "time": 92.99999999999898,
          "velocity": 1,
          "duration": 0.45000000000000284
        },
        {
          "name": "F2",
          "midi": 41,
          "time": 92.99999999999898,
          "velocity": 1,
          "duration": 0.45000000000000284
        },
        {
          "name": "F5",
          "midi": 77,
          "time": 92.99999999999898,
          "velocity": 1,
          "duration": 0.29999999999999716
        },
        {
          "name": "C5",
          "midi": 72,
          "time": 92.99999999999898,
          "velocity": 1,
          "duration": 0.5999999999999943
        },
        {
          "name": "A4",
          "midi": 69,
          "time": 92.99999999999898,
          "velocity": 1,
          "duration": 0.5999999999999943
        },
        {
          "name": "E5",
          "midi": 76,
          "time": 93.37499999999898,
          "velocity": 1,
          "duration": 0.29999999999999716
        },
        {
          "name": "F2",
          "midi": 41,
          "time": 93.56249999999898,
          "velocity": 1,
          "duration": 0.14999999999999147
        },
        {
          "name": "F3",
          "midi": 53,
          "time": 93.56249999999898,
          "velocity": 1,
          "duration": 0.14999999999999147
        },
        {
          "name": "D5",
          "midi": 74,
          "time": 93.74999999999896,
          "velocity": 1,
          "duration": 0.29999999999999716
        },
        {
          "name": "F3",
          "midi": 53,
          "time": 93.74999999999896,
          "velocity": 1,
          "duration": 0.45000000000000284
        },
        {
          "name": "F2",
          "midi": 41,
          "time": 93.74999999999896,
          "velocity": 1,
          "duration": 0.45000000000000284
        },
        {
          "name": "F4",
          "midi": 65,
          "time": 93.74999999999896,
          "velocity": 1,
          "duration": 0.5999999999999943
        },
        {
          "name": "A#4",
          "midi": 70,
          "time": 93.74999999999896,
          "velocity": 1,
          "duration": 0.5999999999999943
        },
        {
          "name": "C5",
          "midi": 72,
          "time": 94.12499999999896,
          "velocity": 1,
          "duration": 0.29999999999999716
        },
        {
          "name": "F3",
          "midi": 53,
          "time": 94.31249999999896,
          "velocity": 1,
          "duration": 0.14999999999999147
        },
        {
          "name": "F2",
          "midi": 41,
          "time": 94.31249999999896,
          "velocity": 1,
          "duration": 0.14999999999999147
        },
        {
          "name": "C3",
          "midi": 48,
          "time": 94.68749999999895,
          "velocity": 1,
          "duration": 0.29999999999999716
        },
        {
          "name": "E4",
          "midi": 64,
          "time": 94.68749999999895,
          "velocity": 1,
          "duration": 0.29999999999999716
        },
        {
          "name": "C2",
          "midi": 36,
          "time": 94.68749999999895,
          "velocity": 1,
          "duration": 0.29999999999999716
        },
        {
          "name": "G4",
          "midi": 67,
          "time": 94.68749999999895,
          "velocity": 1,
          "duration": 0.29999999999999716
        },
        {
          "name": "C5",
          "midi": 72,
          "time": 94.68749999999895,
          "velocity": 1,
          "duration": 0.29999999999999716
        },
        {
          "name": "C3",
          "midi": 48,
          "time": 95.06249999999895,
          "velocity": 1,
          "duration": 0.15000000000000568
        },
        {
          "name": "C2",
          "midi": 36,
          "time": 95.06249999999895,
          "velocity": 1,
          "duration": 0.15000000000000568
        },
        {
          "name": "A#4",
          "midi": 70,
          "time": 95.06249999999895,
          "velocity": 1,
          "duration": 0.15000000000000568
        },
        {
          "name": "E4",
          "midi": 64,
          "time": 95.06249999999895,
          "velocity": 1,
          "duration": 0.15000000000000568
        },
        {
          "name": "G4",
          "midi": 67,
          "time": 95.06249999999895,
          "velocity": 1,
          "duration": 0.15000000000000568
        },
        {
          "name": "A4",
          "midi": 69,
          "time": 95.24999999999895,
          "velocity": 1,
          "duration": 0.29999999999999716
        },
        {
          "name": "F4",
          "midi": 65,
          "time": 95.24999999999895,
          "velocity": 1,
          "duration": 0.29999999999999716
        },
        {
          "name": "F2",
          "midi": 41,
          "time": 95.24999999999895,
          "velocity": 1,
          "duration": 0.5999999999999943
        },
        {
          "name": "F3",
          "midi": 53,
          "time": 95.24999999999895,
          "velocity": 1,
          "duration": 0.5999999999999943
        },
        {
          "name": "A4",
          "midi": 69,
          "time": 95.62499999999895,
          "velocity": 1,
          "duration": 0.29999999999999716
        },
        {
          "name": "F2",
          "midi": 41,
          "time": 95.99999999999895,
          "velocity": 0.7086614173228346,
          "duration": 0.45000000000000284
        },
        {
          "name": "F3",
          "midi": 53,
          "time": 95.99999999999895,
          "velocity": 0.7086614173228346,
          "duration": 0.45000000000000284
        },
        {
          "name": "A4",
          "midi": 69,
          "time": 95.99999999999895,
          "velocity": 0.7086614173228346,
          "duration": 0.3375000000000057
        },
        {
          "name": "F4",
          "midi": 65,
          "time": 95.99999999999895,
          "velocity": 0.7086614173228346,
          "duration": 0.15000000000000568
        },
        {
          "name": "C5",
          "midi": 72,
          "time": 96.18749999999895,
          "velocity": 0.7086614173228346,
          "duration": 0.15000000000000568
        },
        {
          "name": "A4",
          "midi": 69,
          "time": 96.37499999999895,
          "velocity": 0.7086614173228346,
          "duration": 0.3375000000000057
        },
        {
          "name": "F5",
          "midi": 77,
          "time": 96.37499999999895,
          "velocity": 0.7086614173228346,
          "duration": 0.15000000000000568
        },
        {
          "name": "F2",
          "midi": 41,
          "time": 96.56249999999895,
          "velocity": 0.7086614173228346,
          "duration": 0.15000000000000568
        },
        {
          "name": "F3",
          "midi": 53,
          "time": 96.56249999999895,
          "velocity": 0.7086614173228346,
          "duration": 0.15000000000000568
        },
        {
          "name": "C5",
          "midi": 72,
          "time": 96.56249999999895,
          "velocity": 0.7086614173228346,
          "duration": 0.15000000000000568
        },
        {
          "name": "F4",
          "midi": 65,
          "time": 96.74999999999895,
          "velocity": 0.7086614173228346,
          "duration": 0.15000000000000568
        },
        {
          "name": "A4",
          "midi": 69,
          "time": 96.74999999999895,
          "velocity": 0.7086614173228346,
          "duration": 0.3375000000000057
        },
        {
          "name": "F2",
          "midi": 41,
          "time": 96.74999999999895,
          "velocity": 0.7086614173228346,
          "duration": 0.45000000000000284
        },
        {
          "name": "F3",
          "midi": 53,
          "time": 96.74999999999895,
          "velocity": 0.7086614173228346,
          "duration": 0.45000000000000284
        },
        {
          "name": "C5",
          "midi": 72,
          "time": 96.93749999999895,
          "velocity": 0.7086614173228346,
          "duration": 0.15000000000000568
        },
        {
          "name": "F5",
          "midi": 77,
          "time": 97.12499999999895,
          "velocity": 0.7086614173228346,
          "duration": 0.15000000000000568
        },
        {
          "name": "A4",
          "midi": 69,
          "time": 97.12499999999895,
          "velocity": 0.7086614173228346,
          "duration": 0.15000000000000568
        },
        {
          "name": "F3",
          "midi": 53,
          "time": 97.31249999999895,
          "velocity": 0.7086614173228346,
          "duration": 0.15000000000000568
        },
        {
          "name": "C5",
          "midi": 72,
          "time": 97.31249999999895,
          "velocity": 0.7086614173228346,
          "duration": 0.15000000000000568
        },
        {
          "name": "F2",
          "midi": 41,
          "time": 97.31249999999895,
          "velocity": 0.7086614173228346,
          "duration": 0.15000000000000568
        },
        {
          "name": "A#4",
          "midi": 70,
          "time": 97.31249999999895,
          "velocity": 0.7086614173228346,
          "duration": 0.15000000000000568
        },
        {
          "name": "F3",
          "midi": 53,
          "time": 97.49999999999895,
          "velocity": 0.7086614173228346,
          "duration": 0.45000000000000284
        },
        {
          "name": "F2",
          "midi": 41,
          "time": 97.49999999999895,
          "velocity": 0.7086614173228346,
          "duration": 0.45000000000000284
        },
        {
          "name": "A4",
          "midi": 69,
          "time": 97.49999999999895,
          "velocity": 0.7086614173228346,
          "duration": 0.15000000000000568
        },
        {
          "name": "C5",
          "midi": 72,
          "time": 97.49999999999895,
          "velocity": 0.7086614173228346,
          "duration": 1.0874999999999915
        },
        {
          "name": "F4",
          "midi": 65,
          "time": 97.68749999999895,
          "velocity": 0.7086614173228346,
          "duration": 0.15000000000000568
        },
        {
          "name": "A4",
          "midi": 69,
          "time": 97.87499999999895,
          "velocity": 0.7086614173228346,
          "duration": 0.15000000000000568
        },
        {
          "name": "F3",
          "midi": 53,
          "time": 98.06249999999895,
          "velocity": 0.7086614173228346,
          "duration": 0.15000000000000568
        },
        {
          "name": "A4",
          "midi": 69,
          "time": 98.06249999999895,
          "velocity": 0.7086614173228346,
          "duration": 0.15000000000000568
        },
        {
          "name": "F2",
          "midi": 41,
          "time": 98.06249999999895,
          "velocity": 0.7086614173228346,
          "duration": 0.15000000000000568
        },
        {
          "name": "A#4",
          "midi": 70,
          "time": 98.24999999999895,
          "velocity": 0.7086614173228346,
          "duration": 0.15000000000000568
        },
        {
          "name": "A3",
          "midi": 57,
          "time": 98.24999999999895,
          "velocity": 0.7086614173228346,
          "duration": 0.29999999999999716
        },
        {
          "name": "A2",
          "midi": 45,
          "time": 98.24999999999895,
          "velocity": 0.7086614173228346,
          "duration": 0.29999999999999716
        },
        {
          "name": "A4",
          "midi": 69,
          "time": 98.43749999999895,
          "velocity": 0.7086614173228346,
          "duration": 0.14999999999999147
        },
        {
          "name": "A#4",
          "midi": 70,
          "time": 98.62499999999893,
          "velocity": 0.7086614173228346,
          "duration": 0.15000000000000568
        },
        {
          "name": "G4",
          "midi": 67,
          "time": 98.62499999999893,
          "velocity": 0.7086614173228346,
          "duration": 0.15000000000000568
        },
        {
          "name": "A#3",
          "midi": 58,
          "time": 98.62499999999893,
          "velocity": 0.7086614173228346,
          "duration": 0.29999999999999716
        },
        {
          "name": "A#2",
          "midi": 46,
          "time": 98.62499999999893,
          "velocity": 0.7086614173228346,
          "duration": 0.29999999999999716
        },
        {
          "name": "F4",
          "midi": 65,
          "time": 98.81249999999893,
          "velocity": 0.7086614173228346,
          "duration": 0.14999999999999147
        },
        {
          "name": "A4",
          "midi": 69,
          "time": 98.81249999999893,
          "velocity": 0.7086614173228346,
          "duration": 0.14999999999999147
        },
        {
          "name": "C3",
          "midi": 48,
          "time": 98.99999999999892,
          "velocity": 0.7086614173228346,
          "duration": 0.45000000000000284
        },
        {
          "name": "C4",
          "midi": 60,
          "time": 98.99999999999892,
          "velocity": 0.7086614173228346,
          "duration": 0.45000000000000284
        },
        {
          "name": "G4",
          "midi": 67,
          "time": 98.99999999999892,
          "velocity": 0.7086614173228346,
          "duration": 0.29999999999999716
        },
        {
          "name": "F4",
          "midi": 65,
          "time": 98.99999999999892,
          "velocity": 0.7086614173228346,
          "duration": 0.29999999999999716
        },
        {
          "name": "G4",
          "midi": 67,
          "time": 99.37499999999892,
          "velocity": 0.7086614173228346,
          "duration": 0.3375000000000057
        },
        {
          "name": "E4",
          "midi": 64,
          "time": 99.37499999999892,
          "velocity": 0.7086614173228346,
          "duration": 0.15000000000000568
        },
        {
          "name": "D4",
          "midi": 62,
          "time": 99.56249999999892,
          "velocity": 0.7086614173228346,
          "duration": 0.15000000000000568
        },
        {
          "name": "C2",
          "midi": 36,
          "time": 99.56249999999892,
          "velocity": 0.7086614173228346,
          "duration": 0.15000000000000568
        },
        {
          "name": "C3",
          "midi": 48,
          "time": 99.56249999999892,
          "velocity": 0.7086614173228346,
          "duration": 0.15000000000000568
        },
        {
          "name": "C3",
          "midi": 48,
          "time": 99.74999999999892,
          "velocity": 0.7086614173228346,
          "duration": 0.45000000000000284
        },
        {
          "name": "E4",
          "midi": 64,
          "time": 99.74999999999892,
          "velocity": 0.7086614173228346,
          "duration": 0.29999999999999716
        },
        {
          "name": "G4",
          "midi": 67,
          "time": 99.74999999999892,
          "velocity": 0.7086614173228346,
          "duration": 0.29999999999999716
        },
        {
          "name": "C2",
          "midi": 36,
          "time": 99.74999999999892,
          "velocity": 0.7086614173228346,
          "duration": 0.45000000000000284
        },
        {
          "name": "E4",
          "midi": 64,
          "time": 100.12499999999892,
          "velocity": 0.7086614173228346,
          "duration": 0.15000000000000568
        },
        {
          "name": "G4",
          "midi": 67,
          "time": 100.12499999999892,
          "velocity": 0.7086614173228346,
          "duration": 0.15000000000000568
        },
        {
          "name": "C2",
          "midi": 36,
          "time": 100.31249999999892,
          "velocity": 0.7086614173228346,
          "duration": 0.15000000000000568
        },
        {
          "name": "C3",
          "midi": 48,
          "time": 100.31249999999892,
          "velocity": 0.7086614173228346,
          "duration": 0.15000000000000568
        },
        {
          "name": "F4",
          "midi": 65,
          "time": 100.31249999999892,
          "velocity": 0.7086614173228346,
          "duration": 0.15000000000000568
        },
        {
          "name": "A4",
          "midi": 69,
          "time": 100.31249999999892,
          "velocity": 0.7086614173228346,
          "duration": 0.15000000000000568
        },
        {
          "name": "C3",
          "midi": 48,
          "time": 100.49999999999892,
          "velocity": 0.7086614173228346,
          "duration": 0.45000000000000284
        },
        {
          "name": "A#4",
          "midi": 70,
          "time": 100.49999999999892,
          "velocity": 0.7086614173228346,
          "duration": 0.9000000000000057
        },
        {
          "name": "G4",
          "midi": 67,
          "time": 100.49999999999892,
          "velocity": 0.7086614173228346,
          "duration": 0.29999999999999716
        },
        {
          "name": "C2",
          "midi": 36,
          "time": 100.49999999999892,
          "velocity": 0.7086614173228346,
          "duration": 0.45000000000000284
        },
        {
          "name": "G4",
          "midi": 67,
          "time": 100.87499999999892,
          "velocity": 0.7086614173228346,
          "duration": 0.15000000000000568
        },
        {
          "name": "F4",
          "midi": 65,
          "time": 101.06249999999892,
          "velocity": 0.7086614173228346,
          "duration": 0.15000000000000568
        },
        {
          "name": "C2",
          "midi": 36,
          "time": 101.06249999999892,
          "velocity": 0.7086614173228346,
          "duration": 0.15000000000000568
        },
        {
          "name": "C3",
          "midi": 48,
          "time": 101.06249999999892,
          "velocity": 0.7086614173228346,
          "duration": 0.15000000000000568
        },
        {
          "name": "C2",
          "midi": 36,
          "time": 101.24999999999892,
          "velocity": 0.7086614173228346,
          "duration": 0.29999999999999716
        },
        {
          "name": "C3",
          "midi": 48,
          "time": 101.24999999999892,
          "velocity": 0.7086614173228346,
          "duration": 0.29999999999999716
        },
        {
          "name": "E4",
          "midi": 64,
          "time": 101.24999999999892,
          "velocity": 0.7086614173228346,
          "duration": 0.15000000000000568
        },
        {
          "name": "F4",
          "midi": 65,
          "time": 101.43749999999892,
          "velocity": 0.7086614173228346,
          "duration": 0.07500000000000284
        },
        {
          "name": "A4",
          "midi": 69,
          "time": 101.43749999999892,
          "velocity": 0.7086614173228346,
          "duration": 0.07500000000000284
        },
        {
          "name": "A#4",
          "midi": 70,
          "time": 101.53124999999892,
          "velocity": 0.7086614173228346,
          "duration": 0.07500000000000284
        },
        {
          "name": "G4",
          "midi": 67,
          "time": 101.53124999999892,
          "velocity": 0.7086614173228346,
          "duration": 0.07500000000000284
        },
        {
          "name": "F4",
          "midi": 65,
          "time": 101.62499999999892,
          "velocity": 0.7086614173228346,
          "duration": 0.15000000000000568
        },
        {
          "name": "A4",
          "midi": 69,
          "time": 101.62499999999892,
          "velocity": 0.7086614173228346,
          "duration": 0.15000000000000568
        },
        {
          "name": "C3",
          "midi": 48,
          "time": 101.62499999999892,
          "velocity": 0.7086614173228346,
          "duration": 0.29999999999999716
        },
        {
          "name": "C2",
          "midi": 36,
          "time": 101.62499999999892,
          "velocity": 0.7086614173228346,
          "duration": 0.29999999999999716
        },
        {
          "name": "E4",
          "midi": 64,
          "time": 101.81249999999892,
          "velocity": 0.7086614173228346,
          "duration": 0.14999999999999147
        },
        {
          "name": "G4",
          "midi": 67,
          "time": 101.81249999999892,
          "velocity": 0.7086614173228346,
          "duration": 0.14999999999999147
        },
        {
          "name": "F3",
          "midi": 53,
          "time": 101.9999999999989,
          "velocity": 0.7086614173228346,
          "duration": 0.45000000000000284
        },
        {
          "name": "F2",
          "midi": 41,
          "time": 101.9999999999989,
          "velocity": 0.7086614173228346,
          "duration": 0.45000000000000284
        },
        {
          "name": "F4",
          "midi": 65,
          "time": 101.9999999999989,
          "velocity": 0.7086614173228346,
          "duration": 0.29999999999999716
        },
        {
          "name": "A4",
          "midi": 69,
          "time": 102.3749999999989,
          "velocity": 0.7086614173228346,
          "duration": 0.7124999999999915
        },
        {
          "name": "F5",
          "midi": 77,
          "time": 102.3749999999989,
          "velocity": 0.7086614173228346,
          "duration": 0.7124999999999915
        },
        {
          "name": "F4",
          "midi": 65,
          "time": 102.3749999999989,
          "velocity": 0.7086614173228346,
          "duration": 0.15000000000000568
        },
        {
          "name": "F4",
          "midi": 65,
          "time": 102.5624999999989,
          "velocity": 0.7086614173228346,
          "duration": 0.07500000000000284
        },
        {
          "name": "F3",
          "midi": 53,
          "time": 102.5624999999989,
          "velocity": 0.7086614173228346,
          "duration": 0.15000000000000568
        },
        {
          "name": "F2",
          "midi": 41,
          "time": 102.5624999999989,
          "velocity": 0.7086614173228346,
          "duration": 0.15000000000000568
        },
        {
          "name": "G4",
          "midi": 67,
          "time": 102.6562499999989,
          "velocity": 0.7086614173228346,
          "duration": 0.07500000000000284
        },
        {
          "name": "F2",
          "midi": 41,
          "time": 102.7499999999989,
          "velocity": 0.7086614173228346,
          "duration": 0.29999999999999716
        },
        {
          "name": "F3",
          "midi": 53,
          "time": 102.7499999999989,
          "velocity": 0.7086614173228346,
          "duration": 0.29999999999999716
        },
        {
          "name": "F4",
          "midi": 65,
          "time": 102.9374999999989,
          "velocity": 0.7086614173228346,
          "duration": 0.14999999999999147
        },
        {
          "name": "A#1",
          "midi": 34,
          "time": 103.12499999999889,
          "velocity": 0.7086614173228346,
          "duration": 0.29999999999999716
        },
        {
          "name": "A#2",
          "midi": 46,
          "time": 103.12499999999889,
          "velocity": 0.7086614173228346,
          "duration": 0.29999999999999716
        },
        {
          "name": "A#4",
          "midi": 70,
          "time": 103.12499999999889,
          "velocity": 0.7086614173228346,
          "duration": 0.35625000000000284
        },
        {
          "name": "D5",
          "midi": 74,
          "time": 103.12499999999889,
          "velocity": 0.7086614173228346,
          "duration": 0.35625000000000284
        },
        {
          "name": "C5",
          "midi": 72,
          "time": 103.31249999999889,
          "velocity": 0.7086614173228346,
          "duration": 0.07500000000000284
        },
        {
          "name": "A1",
          "midi": 33,
          "time": 103.49999999999889,
          "velocity": 0.7086614173228346,
          "duration": 0.29999999999999716
        },
        {
          "name": "A4",
          "midi": 69,
          "time": 103.49999999999889,
          "velocity": 0.7086614173228346,
          "duration": 0.45000000000000284
        },
        {
          "name": "C5",
          "midi": 72,
          "time": 103.49999999999889,
          "velocity": 0.7086614173228346,
          "duration": 0.45000000000000284
        },
        {
          "name": "A2",
          "midi": 45,
          "time": 103.49999999999889,
          "velocity": 0.7086614173228346,
          "duration": 0.29999999999999716
        },
        {
          "name": "A1",
          "midi": 33,
          "time": 104.06249999999889,
          "velocity": 0.7086614173228346,
          "duration": 0.15000000000000568
        },
        {
          "name": "A2",
          "midi": 45,
          "time": 104.06249999999889,
          "velocity": 0.7086614173228346,
          "duration": 0.15000000000000568
        },
        {
          "name": "G4",
          "midi": 67,
          "time": 104.06249999999889,
          "velocity": 0.7086614173228346,
          "duration": 0.15000000000000568
        },
        {
          "name": "A#4",
          "midi": 70,
          "time": 104.06249999999889,
          "velocity": 0.7086614173228346,
          "duration": 0.15000000000000568
        },
        {
          "name": "A1",
          "midi": 33,
          "time": 104.24999999999889,
          "velocity": 0.7086614173228346,
          "duration": 0.29999999999999716
        },
        {
          "name": "F4",
          "midi": 65,
          "time": 104.24999999999889,
          "velocity": 0.7086614173228346,
          "duration": 0.29999999999999716
        },
        {
          "name": "A4",
          "midi": 69,
          "time": 104.24999999999889,
          "velocity": 0.7086614173228346,
          "duration": 0.29999999999999716
        },
        {
          "name": "A2",
          "midi": 45,
          "time": 104.24999999999889,
          "velocity": 0.7086614173228346,
          "duration": 0.29999999999999716
        },
        {
          "name": "A#1",
          "midi": 34,
          "time": 104.62499999999889,
          "velocity": 0.7086614173228346,
          "duration": 0.29999999999999716
        },
        {
          "name": "A#2",
          "midi": 46,
          "time": 104.62499999999889,
          "velocity": 0.7086614173228346,
          "duration": 0.29999999999999716
        },
        {
          "name": "G4",
          "midi": 67,
          "time": 104.62499999999889,
          "velocity": 0.7086614173228346,
          "duration": 0.35625000000000284
        },
        {
          "name": "A#4",
          "midi": 70,
          "time": 104.62499999999889,
          "velocity": 0.7086614173228346,
          "duration": 0.35625000000000284
        },
        {
          "name": "A4",
          "midi": 69,
          "time": 104.81249999999889,
          "velocity": 0.7086614173228346,
          "duration": 0.07500000000000284
        },
        {
          "name": "F4",
          "midi": 65,
          "time": 104.99999999999889,
          "velocity": 0.7086614173228346,
          "duration": 0.3375000000000057
        },
        {
          "name": "A4",
          "midi": 69,
          "time": 104.99999999999889,
          "velocity": 0.7086614173228346,
          "duration": 0.7125000000000057
        },
        {
          "name": "C2",
          "midi": 36,
          "time": 104.99999999999889,
          "velocity": 0.7086614173228346,
          "duration": 0.45000000000000284
        },
        {
          "name": "C3",
          "midi": 48,
          "time": 104.99999999999889,
          "velocity": 0.7086614173228346,
          "duration": 0.45000000000000284
        },
        {
          "name": "E4",
          "midi": 64,
          "time": 105.37499999999889,
          "velocity": 0.7086614173228346,
          "duration": 0.15000000000000568
        },
        {
          "name": "C3",
          "midi": 48,
          "time": 105.56249999999889,
          "velocity": 0.7086614173228346,
          "duration": 0.15000000000000568
        },
        {
          "name": "C2",
          "midi": 36,
          "time": 105.56249999999889,
          "velocity": 0.7086614173228346,
          "duration": 0.15000000000000568
        },
        {
          "name": "D4",
          "midi": 62,
          "time": 105.56249999999889,
          "velocity": 0.7086614173228346,
          "duration": 0.15000000000000568
        },
        {
          "name": "G4",
          "midi": 67,
          "time": 105.74999999999889,
          "velocity": 0.7086614173228346,
          "duration": 0.45000000000000284
        },
        {
          "name": "C3",
          "midi": 48,
          "time": 105.74999999999889,
          "velocity": 0.7086614173228346,
          "duration": 0.45000000000000284
        },
        {
          "name": "C2",
          "midi": 36,
          "time": 105.74999999999889,
          "velocity": 0.7086614173228346,
          "duration": 0.45000000000000284
        },
        {
          "name": "E4",
          "midi": 64,
          "time": 105.74999999999889,
          "velocity": 0.7086614173228346,
          "duration": 0.45000000000000284
        },
        {
          "name": "D4",
          "midi": 62,
          "time": 106.31249999999889,
          "velocity": 0.7086614173228346,
          "duration": 0.15000000000000568
        },
        {
          "name": "C2",
          "midi": 36,
          "time": 106.31249999999889,
          "velocity": 0.7086614173228346,
          "duration": 0.15000000000000568
        },
        {
          "name": "F4",
          "midi": 65,
          "time": 106.31249999999889,
          "velocity": 0.7086614173228346,
          "duration": 0.15000000000000568
        },
        {
          "name": "C3",
          "midi": 48,
          "time": 106.31249999999889,
          "velocity": 0.7086614173228346,
          "duration": 0.15000000000000568
        },
        {
          "name": "E4",
          "midi": 64,
          "time": 106.49999999999889,
          "velocity": 0.7086614173228346,
          "duration": 0.45000000000000284
        },
        {
          "name": "G4",
          "midi": 67,
          "time": 106.49999999999889,
          "velocity": 0.7086614173228346,
          "duration": 0.45000000000000284
        },
        {
          "name": "C2",
          "midi": 36,
          "time": 106.49999999999889,
          "velocity": 0.7086614173228346,
          "duration": 0.45000000000000284
        },
        {
          "name": "C3",
          "midi": 48,
          "time": 106.49999999999889,
          "velocity": 0.7086614173228346,
          "duration": 0.45000000000000284
        },
        {
          "name": "C2",
          "midi": 36,
          "time": 107.06249999999889,
          "velocity": 0.7086614173228346,
          "duration": 0.15000000000000568
        },
        {
          "name": "C4",
          "midi": 60,
          "time": 107.06249999999889,
          "velocity": 0.7086614173228346,
          "duration": 0.15000000000000568
        },
        {
          "name": "C3",
          "midi": 48,
          "time": 107.06249999999889,
          "velocity": 0.7086614173228346,
          "duration": 0.15000000000000568
        },
        {
          "name": "E4",
          "midi": 64,
          "time": 107.24999999999889,
          "velocity": 0.7086614173228346,
          "duration": 0.29999999999999716
        },
        {
          "name": "C3",
          "midi": 48,
          "time": 107.24999999999889,
          "velocity": 0.7086614173228346,
          "duration": 0.45000000000000284
        },
        {
          "name": "C2",
          "midi": 36,
          "time": 107.24999999999889,
          "velocity": 0.7086614173228346,
          "duration": 0.45000000000000284
        },
        {
          "name": "G4",
          "midi": 67,
          "time": 107.62499999999889,
          "velocity": 0.7086614173228346,
          "duration": 0.29999999999999716
        },
        {
          "name": "C2",
          "midi": 36,
          "time": 107.81249999999889,
          "velocity": 0.7086614173228346,
          "duration": 0.14999999999999147
        },
        {
          "name": "C3",
          "midi": 48,
          "time": 107.81249999999889,
          "velocity": 0.7086614173228346,
          "duration": 0.14999999999999147
        },
        {
          "name": "C2",
          "midi": 36,
          "time": 107.99999999999888,
          "velocity": 0.7086614173228346,
          "duration": 0.45000000000000284
        },
        {
          "name": "C3",
          "midi": 48,
          "time": 107.99999999999888,
          "velocity": 0.7086614173228346,
          "duration": 0.45000000000000284
        },
        {
          "name": "G4",
          "midi": 67,
          "time": 108.18749999999888,
          "velocity": 0.7165354330708661,
          "duration": 0.15000000000000568
        },
        {
          "name": "C5",
          "midi": 72,
          "time": 108.37499999999888,
          "velocity": 0.7165354330708661,
          "duration": 0.15000000000000568
        },
        {
          "name": "C3",
          "midi": 48,
          "time": 108.56249999999888,
          "velocity": 0.7244094488188977,
          "duration": 0.15000000000000568
        },
        {
          "name": "C2",
          "midi": 36,
          "time": 108.56249999999888,
          "velocity": 0.7244094488188977,
          "duration": 0.15000000000000568
        },
        {
          "name": "D5",
          "midi": 74,
          "time": 108.56249999999888,
          "velocity": 0.7244094488188977,
          "duration": 0.15000000000000568
        },
        {
          "name": "C3",
          "midi": 48,
          "time": 108.74999999999888,
          "velocity": 0.7322834645669292,
          "duration": 0.45000000000000284
        },
        {
          "name": "C2",
          "midi": 36,
          "time": 108.74999999999888,
          "velocity": 0.7322834645669292,
          "duration": 0.45000000000000284
        },
        {
          "name": "C5",
          "midi": 72,
          "time": 108.93749999999888,
          "velocity": 0.7322834645669292,
          "duration": 0.15000000000000568
        },
        {
          "name": "D5",
          "midi": 74,
          "time": 109.12499999999888,
          "velocity": 0.7401574803149606,
          "duration": 0.15000000000000568
        },
        {
          "name": "E5",
          "midi": 76,
          "time": 109.31249999999888,
          "velocity": 0.7480314960629921,
          "duration": 0.15000000000000568
        },
        {
          "name": "C2",
          "midi": 36,
          "time": 109.31249999999888,
          "velocity": 0.7480314960629921,
          "duration": 0.15000000000000568
        },
        {
          "name": "C3",
          "midi": 48,
          "time": 109.31249999999888,
          "velocity": 0.7480314960629921,
          "duration": 0.15000000000000568
        },
        {
          "name": "C3",
          "midi": 48,
          "time": 109.49999999999888,
          "velocity": 0.7480314960629921,
          "duration": 0.45000000000000284
        },
        {
          "name": "C2",
          "midi": 36,
          "time": 109.49999999999888,
          "velocity": 0.7480314960629921,
          "duration": 0.45000000000000284
        },
        {
          "name": "E5",
          "midi": 76,
          "time": 109.49999999999888,
          "velocity": 0.7480314960629921,
          "duration": 0.15000000000000568
        },
        {
          "name": "D5",
          "midi": 74,
          "time": 109.68749999999888,
          "velocity": 0.7559055118110236,
          "duration": 0.15000000000000568
        },
        {
          "name": "C5",
          "midi": 72,
          "time": 109.87499999999888,
          "velocity": 0.7637795275590551,
          "duration": 0.15000000000000568
        },
        {
          "name": "C3",
          "midi": 48,
          "time": 110.06249999999888,
          "velocity": 0.7637795275590551,
          "duration": 0.15000000000000568
        },
        {
          "name": "D5",
          "midi": 74,
          "time": 110.06249999999888,
          "velocity": 0.7637795275590551,
          "duration": 0.15000000000000568
        },
        {
          "name": "C2",
          "midi": 36,
          "time": 110.06249999999888,
          "velocity": 0.7637795275590551,
          "duration": 0.15000000000000568
        },
        {
          "name": "C2",
          "midi": 36,
          "time": 110.24999999999888,
          "velocity": 0.7716535433070866,
          "duration": 0.29999999999999716
        },
        {
          "name": "C5",
          "midi": 72,
          "time": 110.24999999999888,
          "velocity": 0.7716535433070866,
          "duration": 0.29999999999999716
        },
        {
          "name": "C3",
          "midi": 48,
          "time": 110.24999999999888,
          "velocity": 0.7716535433070866,
          "duration": 0.29999999999999716
        },
        {
          "name": "B4",
          "midi": 71,
          "time": 110.62499999999888,
          "velocity": 0.7795275590551181,
          "duration": 0.15000000000000568
        },
        {
          "name": "G2",
          "midi": 43,
          "time": 110.62499999999888,
          "velocity": 0.7795275590551181,
          "duration": 0.15000000000000568
        },
        {
          "name": "G2",
          "midi": 43,
          "time": 110.81249999999888,
          "velocity": 0.7874015748031497,
          "duration": 0.15000000000000568
        },
        {
          "name": "C5",
          "midi": 72,
          "time": 110.81249999999888,
          "velocity": 0.7874015748031497,
          "duration": 0.15000000000000568
        },
        {
          "name": "C2",
          "midi": 36,
          "time": 110.99999999999888,
          "velocity": 0.7952755905511811,
          "duration": 0.45000000000000284
        },
        {
          "name": "C3",
          "midi": 48,
          "time": 110.99999999999888,
          "velocity": 0.7952755905511811,
          "duration": 0.45000000000000284
        },
        {
          "name": "C6",
          "midi": 84,
          "time": 110.99999999999888,
          "velocity": 0.7952755905511811,
          "duration": 0.15000000000000568
        },
        {
          "name": "B5",
          "midi": 83,
          "time": 111.18749999999888,
          "velocity": 0.7952755905511811,
          "duration": 0.15000000000000568
        },
        {
          "name": "G5",
          "midi": 79,
          "time": 111.37499999999888,
          "velocity": 0.8031496062992126,
          "duration": 0.15000000000000568
        },
        {
          "name": "C3",
          "midi": 48,
          "time": 111.56249999999888,
          "velocity": 0.8031496062992126,
          "duration": 0.15000000000000568
        },
        {
          "name": "C6",
          "midi": 84,
          "time": 111.56249999999888,
          "velocity": 0.8031496062992126,
          "duration": 0.15000000000000568
        },
        {
          "name": "C2",
          "midi": 36,
          "time": 111.56249999999888,
          "velocity": 0.8031496062992126,
          "duration": 0.15000000000000568
        },
        {
          "name": "B5",
          "midi": 83,
          "time": 111.74999999999888,
          "velocity": 0.8110236220472441,
          "duration": 0.15000000000000568
        },
        {
          "name": "C2",
          "midi": 36,
          "time": 111.74999999999888,
          "velocity": 0.8110236220472441,
          "duration": 0.45000000000000284
        },
        {
          "name": "C3",
          "midi": 48,
          "time": 111.74999999999888,
          "velocity": 0.8110236220472441,
          "duration": 0.45000000000000284
        },
        {
          "name": "G5",
          "midi": 79,
          "time": 111.93749999999888,
          "velocity": 0.8188976377952756,
          "duration": 0.15000000000000568
        },
        {
          "name": "C6",
          "midi": 84,
          "time": 112.12499999999888,
          "velocity": 0.8188976377952756,
          "duration": 0.15000000000000568
        },
        {
          "name": "B5",
          "midi": 83,
          "time": 112.31249999999888,
          "velocity": 0.8267716535433071,
          "duration": 0.15000000000000568
        },
        {
          "name": "C3",
          "midi": 48,
          "time": 112.31249999999888,
          "velocity": 0.8267716535433071,
          "duration": 0.15000000000000568
        },
        {
          "name": "C2",
          "midi": 36,
          "time": 112.31249999999888,
          "velocity": 0.8267716535433071,
          "duration": 0.15000000000000568
        },
        {
          "name": "C2",
          "midi": 36,
          "time": 112.49999999999888,
          "velocity": 0.8346456692913385,
          "duration": 0.45000000000000284
        },
        {
          "name": "C3",
          "midi": 48,
          "time": 112.49999999999888,
          "velocity": 0.8346456692913385,
          "duration": 0.45000000000000284
        },
        {
          "name": "G5",
          "midi": 79,
          "time": 112.49999999999888,
          "velocity": 0.8346456692913385,
          "duration": 0.15000000000000568
        },
        {
          "name": "C6",
          "midi": 84,
          "time": 112.68749999999888,
          "velocity": 0.8346456692913385,
          "duration": 0.15000000000000568
        },
        {
          "name": "B5",
          "midi": 83,
          "time": 112.87499999999888,
          "velocity": 0.84251968503937,
          "duration": 0.15000000000000568
        },
        {
          "name": "G5",
          "midi": 79,
          "time": 113.06249999999888,
          "velocity": 0.8503937007874016,
          "duration": 0.15000000000000568
        },
        {
          "name": "C3",
          "midi": 48,
          "time": 113.06249999999888,
          "velocity": 0.8503937007874016,
          "duration": 0.15000000000000568
        },
        {
          "name": "C2",
          "midi": 36,
          "time": 113.06249999999888,
          "velocity": 0.8503937007874016,
          "duration": 0.15000000000000568
        },
        {
          "name": "C6",
          "midi": 84,
          "time": 113.24999999999888,
          "velocity": 0.8503937007874016,
          "duration": 0.15000000000000568
        },
        {
          "name": "C2",
          "midi": 36,
          "time": 113.24999999999888,
          "velocity": 0.8503937007874016,
          "duration": 0.29999999999999716
        },
        {
          "name": "C3",
          "midi": 48,
          "time": 113.24999999999888,
          "velocity": 0.8503937007874016,
          "duration": 0.29999999999999716
        },
        {
          "name": "B5",
          "midi": 83,
          "time": 113.43749999999888,
          "velocity": 0.8582677165354331,
          "duration": 0.14999999999999147
        },
        {
          "name": "G5",
          "midi": 79,
          "time": 113.62499999999886,
          "velocity": 0.8661417322834646,
          "duration": 0.15000000000000568
        },
        {
          "name": "G2",
          "midi": 43,
          "time": 113.62499999999886,
          "velocity": 0.8661417322834646,
          "duration": 0.15000000000000568
        },
        {
          "name": "G2",
          "midi": 43,
          "time": 113.81249999999886,
          "velocity": 0.8661417322834646,
          "duration": 0.15000000000000568
        },
        {
          "name": "C6",
          "midi": 84,
          "time": 113.81249999999886,
          "velocity": 0.8661417322834646,
          "duration": 0.15000000000000568
        },
        {
          "name": "C3",
          "midi": 48,
          "time": 113.99999999999886,
          "velocity": 0.8818897637795275,
          "duration": 0.45000000000000284
        },
        {
          "name": "C2",
          "midi": 36,
          "time": 113.99999999999886,
          "velocity": 0.8818897637795275,
          "duration": 0.45000000000000284
        },
        {
          "name": "C6",
          "midi": 84,
          "time": 113.99999999999886,
          "velocity": 0.8818897637795275,
          "duration": 0.15000000000000568
        },
        {
          "name": "B5",
          "midi": 83,
          "time": 114.18749999999886,
          "velocity": 0.889763779527559,
          "duration": 0.15000000000000568
        },
        {
          "name": "G5",
          "midi": 79,
          "time": 114.37499999999886,
          "velocity": 0.8976377952755905,
          "duration": 0.15000000000000568
        },
        {
          "name": "C2",
          "midi": 36,
          "time": 114.56249999999886,
          "velocity": 0.905511811023622,
          "duration": 0.15000000000000568
        },
        {
          "name": "C6",
          "midi": 84,
          "time": 114.56249999999886,
          "velocity": 0.905511811023622,
          "duration": 0.15000000000000568
        },
        {
          "name": "C3",
          "midi": 48,
          "time": 114.56249999999886,
          "velocity": 0.905511811023622,
          "duration": 0.15000000000000568
        },
        {
          "name": "B5",
          "midi": 83,
          "time": 114.74999999999886,
          "velocity": 0.9133858267716536,
          "duration": 0.15000000000000568
        },
        {
          "name": "C2",
          "midi": 36,
          "time": 114.74999999999886,
          "velocity": 0.9133858267716536,
          "duration": 0.45000000000000284
        },
        {
          "name": "C3",
          "midi": 48,
          "time": 114.74999999999886,
          "velocity": 0.9133858267716536,
          "duration": 0.45000000000000284
        },
        {
          "name": "G5",
          "midi": 79,
          "time": 114.93749999999886,
          "velocity": 0.9212598425196851,
          "duration": 0.15000000000000568
        },
        {
          "name": "C6",
          "midi": 84,
          "time": 115.12499999999886,
          "velocity": 0.9291338582677166,
          "duration": 0.15000000000000568
        },
        {
          "name": "C3",
          "midi": 48,
          "time": 115.31249999999886,
          "velocity": 0.937007874015748,
          "duration": 0.15000000000000568
        },
        {
          "name": "B5",
          "midi": 83,
          "time": 115.31249999999886,
          "velocity": 0.937007874015748,
          "duration": 0.15000000000000568
        },
        {
          "name": "C2",
          "midi": 36,
          "time": 115.31249999999886,
          "velocity": 0.937007874015748,
          "duration": 0.15000000000000568
        },
        {
          "name": "C3",
          "midi": 48,
          "time": 115.49999999999886,
          "velocity": 0.9448818897637795,
          "duration": 0.45000000000000284
        },
        {
          "name": "C2",
          "midi": 36,
          "time": 115.49999999999886,
          "velocity": 0.9448818897637795,
          "duration": 0.45000000000000284
        },
        {
          "name": "G5",
          "midi": 79,
          "time": 115.49999999999886,
          "velocity": 0.9448818897637795,
          "duration": 0.15000000000000568
        },
        {
          "name": "C6",
          "midi": 84,
          "time": 115.68749999999886,
          "velocity": 0.9448818897637795,
          "duration": 0.15000000000000568
        },
        {
          "name": "B5",
          "midi": 83,
          "time": 115.87499999999886,
          "velocity": 0.952755905511811,
          "duration": 0.15000000000000568
        },
        {
          "name": "C3",
          "midi": 48,
          "time": 116.06249999999886,
          "velocity": 0.9606299212598425,
          "duration": 0.15000000000000568
        },
        {
          "name": "G5",
          "midi": 79,
          "time": 116.06249999999886,
          "velocity": 0.9606299212598425,
          "duration": 0.15000000000000568
        },
        {
          "name": "C2",
          "midi": 36,
          "time": 116.06249999999886,
          "velocity": 0.9606299212598425,
          "duration": 0.15000000000000568
        },
        {
          "name": "C2",
          "midi": 36,
          "time": 116.24999999999886,
          "velocity": 0.968503937007874,
          "duration": 0.15000000000000568
        },
        {
          "name": "C3",
          "midi": 48,
          "time": 116.24999999999886,
          "velocity": 0.968503937007874,
          "duration": 0.15000000000000568
        },
        {
          "name": "C6",
          "midi": 84,
          "time": 116.24999999999886,
          "velocity": 0.968503937007874,
          "duration": 0.15000000000000568
        },
        {
          "name": "A#5",
          "midi": 82,
          "time": 116.43749999999886,
          "velocity": 0.9763779527559056,
          "duration": 0.15000000000000568
        },
        {
          "name": "A#2",
          "midi": 46,
          "time": 116.43749999999886,
          "velocity": 0.9763779527559056,
          "duration": 0.15000000000000568
        },
        {
          "name": "A2",
          "midi": 45,
          "time": 116.62499999999886,
          "velocity": 0.984251968503937,
          "duration": 0.15000000000000568
        },
        {
          "name": "A5",
          "midi": 81,
          "time": 116.62499999999886,
          "velocity": 0.984251968503937,
          "duration": 0.15000000000000568
        },
        {
          "name": "G5",
          "midi": 79,
          "time": 116.81249999999886,
          "velocity": 0.9921259842519685,
          "duration": 0.15000000000000568
        },
        {
          "name": "G2",
          "midi": 43,
          "time": 116.81249999999886,
          "velocity": 0.9921259842519685,
          "duration": 0.15000000000000568
        },
        {
          "name": "F5",
          "midi": 77,
          "time": 116.99999999999886,
          "velocity": 0.7086614173228346,
          "duration": 1.4250000000000114
        },
        {
          "name": "F2",
          "midi": 41,
          "time": 116.99999999999886,
          "velocity": 0.7086614173228346,
          "duration": 0.29999999999999716
        },
        {
          "name": "F4",
          "midi": 65,
          "time": 116.99999999999886,
          "velocity": 0.7086614173228346,
          "duration": 0.9000000000000057
        },
        {
          "name": "C4",
          "midi": 60,
          "time": 116.99999999999886,
          "velocity": 0.7086614173228346,
          "duration": 0.9000000000000057
        },
        {
          "name": "A3",
          "midi": 57,
          "time": 116.99999999999886,
          "velocity": 0.7086614173228346,
          "duration": 0.9000000000000057
        },
        {
          "name": "F3",
          "midi": 53,
          "time": 117.37499999999886,
          "velocity": 0.7086614173228346,
          "duration": 0.15000000000000568
        },
        {
          "name": "F2",
          "midi": 41,
          "time": 117.56249999999886,
          "velocity": 0.7086614173228346,
          "duration": 0.15000000000000568
        },
        {
          "name": "F2",
          "midi": 41,
          "time": 117.74999999999886,
          "velocity": 0.7086614173228346,
          "duration": 0.30000000000001137
        },
        {
          "name": "F3",
          "midi": 53,
          "time": 118.12499999999888,
          "velocity": 0.7086614173228346,
          "duration": 0.15000000000000568
        },
        {
          "name": "C4",
          "midi": 60,
          "time": 118.12499999999888,
          "velocity": 0.7086614173228346,
          "duration": 0.29999999999999716
        },
        {
          "name": "A3",
          "midi": 57,
          "time": 118.12499999999888,
          "velocity": 0.7086614173228346,
          "duration": 0.29999999999999716
        },
        {
          "name": "F4",
          "midi": 65,
          "time": 118.12499999999888,
          "velocity": 0.7086614173228346,
          "duration": 0.29999999999999716
        },
        {
          "name": "F2",
          "midi": 41,
          "time": 118.31249999999888,
          "velocity": 0.7086614173228346,
          "duration": 0.14999999999999147
        },
        {
          "name": "F2",
          "midi": 41,
          "time": 118.49999999999886,
          "velocity": 0.7086614173228346,
          "duration": 0.29999999999999716
        },
        {
          "name": "G3",
          "midi": 55,
          "time": 118.49999999999886,
          "velocity": 0.7086614173228346,
          "duration": 0.5999999999999943
        },
        {
          "name": "C4",
          "midi": 60,
          "time": 118.49999999999886,
          "velocity": 0.7086614173228346,
          "duration": 0.5999999999999943
        },
        {
          "name": "E4",
          "midi": 64,
          "time": 118.49999999999886,
          "velocity": 0.7086614173228346,
          "duration": 0.5999999999999943
        },
        {
          "name": "F3",
          "midi": 53,
          "time": 118.87499999999886,
          "velocity": 0.7086614173228346,
          "duration": 0.15000000000000568
        },
        {
          "name": "F2",
          "midi": 41,
          "time": 119.06249999999886,
          "velocity": 0.7086614173228346,
          "duration": 0.14999999999999147
        },
        {
          "name": "F2",
          "midi": 41,
          "time": 119.24999999999885,
          "velocity": 0.7086614173228346,
          "duration": 0.29999999999999716
        },
        {
          "name": "G3",
          "midi": 55,
          "time": 119.43749999999885,
          "velocity": 0.7086614173228346,
          "duration": 0.14999999999999147
        },
        {
          "name": "F3",
          "midi": 53,
          "time": 119.62499999999883,
          "velocity": 0.7086614173228346,
          "duration": 0.15000000000000568
        },
        {
          "name": "E4",
          "midi": 64,
          "time": 119.62499999999883,
          "velocity": 0.7086614173228346,
          "duration": 0.29999999999999716
        },
        {
          "name": "C4",
          "midi": 60,
          "time": 119.62499999999883,
          "velocity": 0.7086614173228346,
          "duration": 0.29999999999999716
        },
        {
          "name": "F2",
          "midi": 41,
          "time": 119.81249999999883,
          "velocity": 0.7086614173228346,
          "duration": 0.14999999999999147
        },
        {
          "name": "F2",
          "midi": 41,
          "time": 119.99999999999882,
          "velocity": 0.7086614173228346,
          "duration": 0.29999999999999716
        },
        {
          "name": "C4",
          "midi": 60,
          "time": 119.99999999999882,
          "velocity": 0.7086614173228346,
          "duration": 0.5999999999999943
        },
        {
          "name": "A3",
          "midi": 57,
          "time": 119.99999999999882,
          "velocity": 0.7086614173228346,
          "duration": 0.5999999999999943
        },
        {
          "name": "F4",
          "midi": 65,
          "time": 119.99999999999882,
          "velocity": 0.7086614173228346,
          "duration": 0.5999999999999943
        },
        {
          "name": "F3",
          "midi": 53,
          "time": 120.37499999999882,
          "velocity": 0.7086614173228346,
          "duration": 0.15000000000000568
        },
        {
          "name": "F2",
          "midi": 41,
          "time": 120.56249999999882,
          "velocity": 0.7086614173228346,
          "duration": 0.14999999999999147
        },
        {
          "name": "F2",
          "midi": 41,
          "time": 120.7499999999988,
          "velocity": 0.7086614173228346,
          "duration": 0.29999999999999716
        },
        {
          "name": "A3",
          "midi": 57,
          "time": 120.9374999999988,
          "velocity": 0.7086614173228346,
          "duration": 0.14999999999999147
        },
        {
          "name": "F3",
          "midi": 53,
          "time": 121.12499999999879,
          "velocity": 0.7086614173228346,
          "duration": 0.15000000000000568
        },
        {
          "name": "C4",
          "midi": 60,
          "time": 121.12499999999879,
          "velocity": 0.7086614173228346,
          "duration": 0.15000000000000568
        },
        {
          "name": "F4",
          "midi": 65,
          "time": 121.31249999999879,
          "velocity": 0.7086614173228346,
          "duration": 0.15000000000000568
        },
        {
          "name": "F2",
          "midi": 41,
          "time": 121.31249999999879,
          "velocity": 0.7086614173228346,
          "duration": 0.15000000000000568
        },
        {
          "name": "F2",
          "midi": 41,
          "time": 121.49999999999879,
          "velocity": 0.7086614173228346,
          "duration": 0.29999999999999716
        },
        {
          "name": "D4",
          "midi": 62,
          "time": 121.49999999999879,
          "velocity": 0.7086614173228346,
          "duration": 0.9000000000000057
        },
        {
          "name": "A#3",
          "midi": 58,
          "time": 121.49999999999879,
          "velocity": 0.7086614173228346,
          "duration": 0.9000000000000057
        },
        {
          "name": "F3",
          "midi": 53,
          "time": 121.87499999999879,
          "velocity": 0.7086614173228346,
          "duration": 0.15000000000000568
        },
        {
          "name": "F2",
          "midi": 41,
          "time": 122.06249999999879,
          "velocity": 0.7086614173228346,
          "duration": 0.15000000000000568
        },
        {
          "name": "F2",
          "midi": 41,
          "time": 122.24999999999879,
          "velocity": 0.7086614173228346,
          "duration": 0.15000000000000568
        },
        {
          "name": "C3",
          "midi": 48,
          "time": 122.43749999999879,
          "velocity": 0.7086614173228346,
          "duration": 0.29999999999999716
        },
        {
          "name": "E4",
          "midi": 64,
          "time": 122.43749999999879,
          "velocity": 0.7086614173228346,
          "duration": 0.45000000000000284
        },
        {
          "name": "G3",
          "midi": 55,
          "time": 122.43749999999879,
          "velocity": 0.7086614173228346,
          "duration": 0.45000000000000284
        },
        {
          "name": "C4",
          "midi": 60,
          "time": 122.43749999999879,
          "velocity": 0.7086614173228346,
          "duration": 0.45000000000000284
        },
        {
          "name": "F2",
          "midi": 41,
          "time": 122.81249999999879,
          "velocity": 0.7086614173228346,
          "duration": 0.15000000000000568
        },
        {
          "name": "F2",
          "midi": 41,
          "time": 122.99999999999879,
          "velocity": 0.7086614173228346,
          "duration": 0.29999999999999716
        },
        {
          "name": "F4",
          "midi": 65,
          "time": 122.99999999999879,
          "velocity": 0.7086614173228346,
          "duration": 0.9000000000000057
        },
        {
          "name": "A3",
          "midi": 57,
          "time": 122.99999999999879,
          "velocity": 0.7086614173228346,
          "duration": 0.9000000000000057
        },
        {
          "name": "C4",
          "midi": 60,
          "time": 122.99999999999879,
          "velocity": 0.7086614173228346,
          "duration": 0.9000000000000057
        },
        {
          "name": "F3",
          "midi": 53,
          "time": 123.37499999999879,
          "velocity": 0.7086614173228346,
          "duration": 0.15000000000000568
        },
        {
          "name": "F2",
          "midi": 41,
          "time": 123.56249999999879,
          "velocity": 0.7086614173228346,
          "duration": 0.15000000000000568
        },
        {
          "name": "F2",
          "midi": 41,
          "time": 123.74999999999879,
          "velocity": 0.7086614173228346,
          "duration": 0.30000000000001137
        },
        {
          "name": "F3",
          "midi": 53,
          "time": 124.1249999999988,
          "velocity": 0.7086614173228346,
          "duration": 0.15000000000000568
        },
        {
          "name": "F4",
          "midi": 65,
          "time": 124.1249999999988,
          "velocity": 0.7086614173228346,
          "duration": 0.29999999999999716
        },
        {
          "name": "C4",
          "midi": 60,
          "time": 124.1249999999988,
          "velocity": 0.7086614173228346,
          "duration": 0.29999999999999716
        },
        {
          "name": "A3",
          "midi": 57,
          "time": 124.1249999999988,
          "velocity": 0.7086614173228346,
          "duration": 0.29999999999999716
        },
        {
          "name": "F2",
          "midi": 41,
          "time": 124.3124999999988,
          "velocity": 0.7086614173228346,
          "duration": 0.14999999999999147
        },
        {
          "name": "E4",
          "midi": 64,
          "time": 124.49999999999879,
          "velocity": 0.7086614173228346,
          "duration": 0.5999999999999943
        },
        {
          "name": "F2",
          "midi": 41,
          "time": 124.49999999999879,
          "velocity": 0.7086614173228346,
          "duration": 0.29999999999999716
        },
        {
          "name": "C4",
          "midi": 60,
          "time": 124.49999999999879,
          "velocity": 0.7086614173228346,
          "duration": 0.5999999999999943
        },
        {
          "name": "G3",
          "midi": 55,
          "time": 124.49999999999879,
          "velocity": 0.7086614173228346,
          "duration": 0.5999999999999943
        },
        {
          "name": "F3",
          "midi": 53,
          "time": 124.87499999999879,
          "velocity": 0.7086614173228346,
          "duration": 0.15000000000000568
        },
        {
          "name": "F2",
          "midi": 41,
          "time": 125.06249999999879,
          "velocity": 0.7086614173228346,
          "duration": 0.14999999999999147
        },
        {
          "name": "F2",
          "midi": 41,
          "time": 125.24999999999878,
          "velocity": 0.7086614173228346,
          "duration": 0.29999999999999716
        },
        {
          "name": "G3",
          "midi": 55,
          "time": 125.43749999999878,
          "velocity": 0.7086614173228346,
          "duration": 0.14999999999999147
        },
        {
          "name": "F3",
          "midi": 53,
          "time": 125.62499999999876,
          "velocity": 0.7086614173228346,
          "duration": 0.15000000000000568
        },
        {
          "name": "E4",
          "midi": 64,
          "time": 125.62499999999876,
          "velocity": 0.7086614173228346,
          "duration": 0.29999999999999716
        },
        {
          "name": "C4",
          "midi": 60,
          "time": 125.62499999999876,
          "velocity": 0.7086614173228346,
          "duration": 0.29999999999999716
        },
        {
          "name": "F2",
          "midi": 41,
          "time": 125.81249999999876,
          "velocity": 0.7086614173228346,
          "duration": 0.14999999999999147
        },
        {
          "name": "F2",
          "midi": 41,
          "time": 125.99999999999875,
          "velocity": 0.7086614173228346,
          "duration": 0.29999999999999716
        },
        {
          "name": "C4",
          "midi": 60,
          "time": 125.99999999999875,
          "velocity": 0.7086614173228346,
          "duration": 0.5999999999999943
        },
        {
          "name": "F4",
          "midi": 65,
          "time": 125.99999999999875,
          "velocity": 0.7086614173228346,
          "duration": 0.5999999999999943
        },
        {
          "name": "A3",
          "midi": 57,
          "time": 125.99999999999875,
          "velocity": 0.7086614173228346,
          "duration": 0.5999999999999943
        },
        {
          "name": "F3",
          "midi": 53,
          "time": 126.37499999999875,
          "velocity": 0.7086614173228346,
          "duration": 0.15000000000000568
        },
        {
          "name": "F2",
          "midi": 41,
          "time": 126.56249999999875,
          "velocity": 0.7086614173228346,
          "duration": 0.14999999999999147
        },
        {
          "name": "F2",
          "midi": 41,
          "time": 126.74999999999874,
          "velocity": 0.7086614173228346,
          "duration": 0.29999999999999716
        },
        {
          "name": "A3",
          "midi": 57,
          "time": 126.93749999999874,
          "velocity": 0.7086614173228346,
          "duration": 0.14999999999999147
        },
        {
          "name": "C4",
          "midi": 60,
          "time": 127.12499999999872,
          "velocity": 0.7086614173228346,
          "duration": 0.15000000000000568
        },
        {
          "name": "F3",
          "midi": 53,
          "time": 127.12499999999872,
          "velocity": 0.7086614173228346,
          "duration": 0.15000000000000568
        },
        {
          "name": "F2",
          "midi": 41,
          "time": 127.31249999999872,
          "velocity": 0.7086614173228346,
          "duration": 0.15000000000000568
        },
        {
          "name": "F4",
          "midi": 65,
          "time": 127.31249999999872,
          "velocity": 0.7086614173228346,
          "duration": 0.15000000000000568
        },
        {
          "name": "F2",
          "midi": 41,
          "time": 127.49999999999872,
          "velocity": 0.7086614173228346,
          "duration": 0.29999999999999716
        },
        {
          "name": "D4",
          "midi": 62,
          "time": 127.49999999999872,
          "velocity": 0.7086614173228346,
          "duration": 0.9000000000000057
        },
        {
          "name": "A#3",
          "midi": 58,
          "time": 127.49999999999872,
          "velocity": 0.7086614173228346,
          "duration": 0.9000000000000057
        },
        {
          "name": "F3",
          "midi": 53,
          "time": 127.87499999999872,
          "velocity": 0.7086614173228346,
          "duration": 0.15000000000000568
        },
        {
          "name": "F2",
          "midi": 41,
          "time": 128.06249999999872,
          "velocity": 0.7086614173228346,
          "duration": 0.15000000000000568
        },
        {
          "name": "F2",
          "midi": 41,
          "time": 128.24999999999872,
          "velocity": 0.7086614173228346,
          "duration": 0.15000000000000568
        },
        {
          "name": "C3",
          "midi": 48,
          "time": 128.43749999999872,
          "velocity": 0.7086614173228346,
          "duration": 0.30000000000001137
        },
        {
          "name": "E4",
          "midi": 64,
          "time": 128.43749999999872,
          "velocity": 0.7086614173228346,
          "duration": 0.44999999999998863
        },
        {
          "name": "C4",
          "midi": 60,
          "time": 128.43749999999872,
          "velocity": 0.7086614173228346,
          "duration": 0.44999999999998863
        },
        {
          "name": "G3",
          "midi": 55,
          "time": 128.43749999999872,
          "velocity": 0.7086614173228346,
          "duration": 0.44999999999998863
        },
        {
          "name": "F2",
          "midi": 41,
          "time": 128.81249999999872,
          "velocity": 0.7086614173228346,
          "duration": 0.14999999999997726
        },
        {
          "name": "F4",
          "midi": 65,
          "time": 128.9999999999987,
          "velocity": 0.7086614173228346,
          "duration": 0.9000000000000057
        },
        {
          "name": "F2",
          "midi": 41,
          "time": 128.9999999999987,
          "velocity": 0.7086614173228346,
          "duration": 0.30000000000001137
        },
        {
          "name": "A3",
          "midi": 57,
          "time": 128.9999999999987,
          "velocity": 0.7086614173228346,
          "duration": 0.9000000000000057
        },
        {
          "name": "C4",
          "midi": 60,
          "time": 128.9999999999987,
          "velocity": 0.7086614173228346,
          "duration": 0.9000000000000057
        },
        {
          "name": "F3",
          "midi": 53,
          "time": 129.3749999999987,
          "velocity": 0.7086614173228346,
          "duration": 0.15000000000000568
        },
        {
          "name": "F2",
          "midi": 41,
          "time": 129.5624999999987,
          "velocity": 0.7086614173228346,
          "duration": 0.15000000000000568
        },
        {
          "name": "F2",
          "midi": 41,
          "time": 129.7499999999987,
          "velocity": 0.7086614173228346,
          "duration": 0.30000000000001137
        },
        {
          "name": "F3",
          "midi": 53,
          "time": 130.1249999999987,
          "velocity": 0.7086614173228346,
          "duration": 0.15000000000000568
        },
        {
          "name": "A3",
          "midi": 57,
          "time": 130.1249999999987,
          "velocity": 0.7086614173228346,
          "duration": 0.30000000000001137
        },
        {
          "name": "F4",
          "midi": 65,
          "time": 130.1249999999987,
          "velocity": 0.7086614173228346,
          "duration": 0.30000000000001137
        },
        {
          "name": "C4",
          "midi": 60,
          "time": 130.1249999999987,
          "velocity": 0.7086614173228346,
          "duration": 0.30000000000001137
        },
        {
          "name": "F2",
          "midi": 41,
          "time": 130.3124999999987,
          "velocity": 0.7086614173228346,
          "duration": 0.15000000000000568
        },
        {
          "name": "C4",
          "midi": 60,
          "time": 130.4999999999987,
          "velocity": 0.7086614173228346,
          "duration": 0.5999999999999943
        },
        {
          "name": "F2",
          "midi": 41,
          "time": 130.4999999999987,
          "velocity": 0.7086614173228346,
          "duration": 0.30000000000001137
        },
        {
          "name": "E4",
          "midi": 64,
          "time": 130.4999999999987,
          "velocity": 0.7086614173228346,
          "duration": 0.5999999999999943
        },
        {
          "name": "G3",
          "midi": 55,
          "time": 130.4999999999987,
          "velocity": 0.7086614173228346,
          "duration": 0.5999999999999943
        },
        {
          "name": "F3",
          "midi": 53,
          "time": 130.8749999999987,
          "velocity": 0.7086614173228346,
          "duration": 0.15000000000000568
        },
        {
          "name": "F2",
          "midi": 41,
          "time": 131.0624999999987,
          "velocity": 0.7086614173228346,
          "duration": 0.15000000000000568
        },
        {
          "name": "F2",
          "midi": 41,
          "time": 131.2499999999987,
          "velocity": 0.7086614173228346,
          "duration": 0.30000000000001137
        },
        {
          "name": "G3",
          "midi": 55,
          "time": 131.4374999999987,
          "velocity": 0.7086614173228346,
          "duration": 0.15000000000000568
        },
        {
          "name": "F3",
          "midi": 53,
          "time": 131.6249999999987,
          "velocity": 0.7086614173228346,
          "duration": 0.15000000000000568
        },
        {
          "name": "C4",
          "midi": 60,
          "time": 131.6249999999987,
          "velocity": 0.7086614173228346,
          "duration": 0.30000000000001137
        },
        {
          "name": "E4",
          "midi": 64,
          "time": 131.6249999999987,
          "velocity": 0.7086614173228346,
          "duration": 0.30000000000001137
        },
        {
          "name": "F2",
          "midi": 41,
          "time": 131.8124999999987,
          "velocity": 0.7086614173228346,
          "duration": 0.15000000000000568
        },
        {
          "name": "F4",
          "midi": 65,
          "time": 131.9999999999987,
          "velocity": 0.7086614173228346,
          "duration": 0.5999999999999943
        },
        {
          "name": "F2",
          "midi": 41,
          "time": 131.9999999999987,
          "velocity": 0.7086614173228346,
          "duration": 0.30000000000001137
        },
        {
          "name": "A3",
          "midi": 57,
          "time": 131.9999999999987,
          "velocity": 0.7086614173228346,
          "duration": 0.5999999999999943
        },
        {
          "name": "C4",
          "midi": 60,
          "time": 131.9999999999987,
          "velocity": 0.7086614173228346,
          "duration": 0.5999999999999943
        },
        {
          "name": "F3",
          "midi": 53,
          "time": 132.3749999999987,
          "velocity": 0.7086614173228346,
          "duration": 0.15000000000000568
        },
        {
          "name": "F2",
          "midi": 41,
          "time": 132.5624999999987,
          "velocity": 0.7086614173228346,
          "duration": 0.15000000000000568
        },
        {
          "name": "F2",
          "midi": 41,
          "time": 132.7499999999987,
          "velocity": 0.7086614173228346,
          "duration": 0.30000000000001137
        },
        {
          "name": "A3",
          "midi": 57,
          "time": 132.9374999999987,
          "velocity": 0.7086614173228346,
          "duration": 0.15000000000000568
        },
        {
          "name": "C4",
          "midi": 60,
          "time": 133.1249999999987,
          "velocity": 0.7086614173228346,
          "duration": 0.15000000000000568
        },
        {
          "name": "F3",
          "midi": 53,
          "time": 133.1249999999987,
          "velocity": 0.7086614173228346,
          "duration": 0.15000000000000568
        },
        {
          "name": "F2",
          "midi": 41,
          "time": 133.3124999999987,
          "velocity": 0.7086614173228346,
          "duration": 0.15000000000000568
        },
        {
          "name": "F4",
          "midi": 65,
          "time": 133.3124999999987,
          "velocity": 0.7086614173228346,
          "duration": 0.15000000000000568
        },
        {
          "name": "F2",
          "midi": 41,
          "time": 133.4999999999987,
          "velocity": 0.7086614173228346,
          "duration": 0.30000000000001137
        },
        {
          "name": "A#3",
          "midi": 58,
          "time": 133.4999999999987,
          "velocity": 0.7086614173228346,
          "duration": 0.9000000000000057
        },
        {
          "name": "D4",
          "midi": 62,
          "time": 133.4999999999987,
          "velocity": 0.7086614173228346,
          "duration": 0.9000000000000057
        },
        {
          "name": "F3",
          "midi": 53,
          "time": 133.8749999999987,
          "velocity": 0.7086614173228346,
          "duration": 0.15000000000000568
        },
        {
          "name": "F2",
          "midi": 41,
          "time": 134.0624999999987,
          "velocity": 0.7086614173228346,
          "duration": 0.15000000000000568
        },
        {
          "name": "F2",
          "midi": 41,
          "time": 134.2499999999987,
          "velocity": 0.7086614173228346,
          "duration": 0.15000000000000568
        },
        {
          "name": "C3",
          "midi": 48,
          "time": 134.4374999999987,
          "velocity": 0.7086614173228346,
          "duration": 0.30000000000001137
        },
        {
          "name": "C4",
          "midi": 60,
          "time": 134.4374999999987,
          "velocity": 0.7086614173228346,
          "duration": 0.44999999999998863
        },
        {
          "name": "E4",
          "midi": 64,
          "time": 134.4374999999987,
          "velocity": 0.7086614173228346,
          "duration": 0.44999999999998863
        },
        {
          "name": "G3",
          "midi": 55,
          "time": 134.4374999999987,
          "velocity": 0.7086614173228346,
          "duration": 0.44999999999998863
        },
        {
          "name": "F2",
          "midi": 41,
          "time": 134.8124999999987,
          "velocity": 0.7086614173228346,
          "duration": 0.14999999999997726
        },
        {
          "name": "F2",
          "midi": 41,
          "time": 134.99999999999866,
          "velocity": 0.7086614173228346,
          "duration": 0.30000000000001137
        },
        {
          "name": "A#3",
          "midi": 58,
          "time": 134.99999999999866,
          "velocity": 0.7086614173228346,
          "duration": 0.9000000000000057
        },
        {
          "name": "D4",
          "midi": 62,
          "time": 134.99999999999866,
          "velocity": 0.7086614173228346,
          "duration": 0.9000000000000057
        },
        {
          "name": "F4",
          "midi": 65,
          "time": 134.99999999999866,
          "velocity": 0.7086614173228346,
          "duration": 0.9000000000000057
        },
        {
          "name": "F3",
          "midi": 53,
          "time": 135.37499999999866,
          "velocity": 0.7086614173228346,
          "duration": 0.15000000000000568
        },
        {
          "name": "F2",
          "midi": 41,
          "time": 135.56249999999866,
          "velocity": 0.7086614173228346,
          "duration": 0.15000000000000568
        },
        {
          "name": "F2",
          "midi": 41,
          "time": 135.74999999999866,
          "velocity": 0.7086614173228346,
          "duration": 0.30000000000001137
        },
        {
          "name": "F3",
          "midi": 53,
          "time": 136.12499999999866,
          "velocity": 0.7086614173228346,
          "duration": 0.15000000000000568
        },
        {
          "name": "F4",
          "midi": 65,
          "time": 136.12499999999866,
          "velocity": 0.7086614173228346,
          "duration": 0.30000000000001137
        },
        {
          "name": "D4",
          "midi": 62,
          "time": 136.12499999999866,
          "velocity": 0.7086614173228346,
          "duration": 0.30000000000001137
        },
        {
          "name": "A#3",
          "midi": 58,
          "time": 136.12499999999866,
          "velocity": 0.7086614173228346,
          "duration": 0.30000000000001137
        },
        {
          "name": "F2",
          "midi": 41,
          "time": 136.31249999999866,
          "velocity": 0.7086614173228346,
          "duration": 0.15000000000000568
        },
        {
          "name": "F2",
          "midi": 41,
          "time": 136.49999999999866,
          "velocity": 0.7086614173228346,
          "duration": 0.30000000000001137
        },
        {
          "name": "C4",
          "midi": 60,
          "time": 136.49999999999866,
          "velocity": 0.7086614173228346,
          "duration": 0.9000000000000057
        },
        {
          "name": "G3",
          "midi": 55,
          "time": 136.49999999999866,
          "velocity": 0.7086614173228346,
          "duration": 0.9000000000000057
        },
        {
          "name": "A#3",
          "midi": 58,
          "time": 136.49999999999866,
          "velocity": 0.7086614173228346,
          "duration": 0.9000000000000057
        },
        {
          "name": "E4",
          "midi": 64,
          "time": 136.49999999999866,
          "velocity": 0.7086614173228346,
          "duration": 0.9000000000000057
        },
        {
          "name": "F3",
          "midi": 53,
          "time": 136.87499999999866,
          "velocity": 0.7086614173228346,
          "duration": 0.15000000000000568
        },
        {
          "name": "F2",
          "midi": 41,
          "time": 137.06249999999866,
          "velocity": 0.7086614173228346,
          "duration": 0.15000000000000568
        },
        {
          "name": "F2",
          "midi": 41,
          "time": 137.24999999999866,
          "velocity": 0.7086614173228346,
          "duration": 0.30000000000001137
        },
        {
          "name": "G3",
          "midi": 55,
          "time": 137.43749999999866,
          "velocity": 0.7086614173228346,
          "duration": 0.15000000000000568
        },
        {
          "name": "F3",
          "midi": 53,
          "time": 137.62499999999866,
          "velocity": 0.7086614173228346,
          "duration": 0.15000000000000568
        },
        {
          "name": "E4",
          "midi": 64,
          "time": 137.62499999999866,
          "velocity": 0.7086614173228346,
          "duration": 0.30000000000001137
        },
        {
          "name": "C4",
          "midi": 60,
          "time": 137.62499999999866,
          "velocity": 0.7086614173228346,
          "duration": 0.30000000000001137
        },
        {
          "name": "F2",
          "midi": 41,
          "time": 137.81249999999866,
          "velocity": 0.7086614173228346,
          "duration": 0.15000000000000568
        },
        {
          "name": "F2",
          "midi": 41,
          "time": 137.99999999999866,
          "velocity": 0.7086614173228346,
          "duration": 0.30000000000001137
        },
        {
          "name": "C4",
          "midi": 60,
          "time": 137.99999999999866,
          "velocity": 0.7086614173228346,
          "duration": 0.5999999999999943
        },
        {
          "name": "F4",
          "midi": 65,
          "time": 137.99999999999866,
          "velocity": 0.7086614173228346,
          "duration": 0.5999999999999943
        },
        {
          "name": "A3",
          "midi": 57,
          "time": 137.99999999999866,
          "velocity": 0.7086614173228346,
          "duration": 0.5999999999999943
        },
        {
          "name": "F3",
          "midi": 53,
          "time": 138.37499999999866,
          "velocity": 0.7086614173228346,
          "duration": 0.15000000000000568
        },
        {
          "name": "F2",
          "midi": 41,
          "time": 138.56249999999866,
          "velocity": 0.7086614173228346,
          "duration": 0.15000000000000568
        },
        {
          "name": "F2",
          "midi": 41,
          "time": 138.74999999999866,
          "velocity": 0.7086614173228346,
          "duration": 0.30000000000001137
        },
        {
          "name": "A3",
          "midi": 57,
          "time": 138.93749999999866,
          "velocity": 0.7086614173228346,
          "duration": 0.15000000000000568
        },
        {
          "name": "F3",
          "midi": 53,
          "time": 139.12499999999866,
          "velocity": 0.7086614173228346,
          "duration": 0.15000000000000568
        },
        {
          "name": "C4",
          "midi": 60,
          "time": 139.12499999999866,
          "velocity": 0.7086614173228346,
          "duration": 0.15000000000000568
        },
        {
          "name": "F2",
          "midi": 41,
          "time": 139.31249999999866,
          "velocity": 0.7086614173228346,
          "duration": 0.15000000000000568
        },
        {
          "name": "F4",
          "midi": 65,
          "time": 139.31249999999866,
          "velocity": 0.7086614173228346,
          "duration": 0.15000000000000568
        },
        {
          "name": "F2",
          "midi": 41,
          "time": 139.49999999999866,
          "velocity": 0.7086614173228346,
          "duration": 0.30000000000001137
        },
        {
          "name": "A#3",
          "midi": 58,
          "time": 139.49999999999866,
          "velocity": 0.7086614173228346,
          "duration": 0.9000000000000057
        },
        {
          "name": "D4",
          "midi": 62,
          "time": 139.49999999999866,
          "velocity": 0.7086614173228346,
          "duration": 0.9000000000000057
        },
        {
          "name": "F3",
          "midi": 53,
          "time": 139.87499999999866,
          "velocity": 0.7086614173228346,
          "duration": 0.15000000000000568
        },
        {
          "name": "F2",
          "midi": 41,
          "time": 140.06249999999866,
          "velocity": 0.7086614173228346,
          "duration": 0.15000000000000568
        },
        {
          "name": "F2",
          "midi": 41,
          "time": 140.24999999999866,
          "velocity": 0.7086614173228346,
          "duration": 0.15000000000000568
        },
        {
          "name": "C3",
          "midi": 48,
          "time": 140.43749999999866,
          "velocity": 0.7086614173228346,
          "duration": 0.30000000000001137
        },
        {
          "name": "G3",
          "midi": 55,
          "time": 140.43749999999866,
          "velocity": 0.7086614173228346,
          "duration": 0.44999999999998863
        },
        {
          "name": "C4",
          "midi": 60,
          "time": 140.43749999999866,
          "velocity": 0.7086614173228346,
          "duration": 0.44999999999998863
        },
        {
          "name": "E4",
          "midi": 64,
          "time": 140.43749999999866,
          "velocity": 0.7086614173228346,
          "duration": 0.44999999999998863
        },
        {
          "name": "F2",
          "midi": 41,
          "time": 140.81249999999866,
          "velocity": 0.7086614173228346,
          "duration": 0.14999999999997726
        },
        {
          "name": "G#2",
          "midi": 44,
          "time": 140.99999999999864,
          "velocity": 0.7086614173228346,
          "duration": 0.30000000000001137
        },
        {
          "name": "D#6",
          "midi": 87,
          "time": 140.99999999999864,
          "velocity": 0.7086614173228346,
          "duration": 0.07499999999998863
        },
        {
          "name": "G#5",
          "midi": 80,
          "time": 140.99999999999864,
          "velocity": 0.7086614173228346,
          "duration": 0.07499999999998863
        },
        {
          "name": "G#4",
          "midi": 68,
          "time": 140.99999999999864,
          "velocity": 0.7086614173228346,
          "duration": 0.900000000000091
        },
        {
          "name": "D#4",
          "midi": 63,
          "time": 140.99999999999864,
          "velocity": 0.7086614173228346,
          "duration": 0.900000000000091
        },
        {
          "name": "C4",
          "midi": 60,
          "time": 140.99999999999864,
          "velocity": 0.7086614173228346,
          "duration": 0.900000000000091
        },
        {
          "name": "G#6",
          "midi": 92,
          "time": 141.09374999999864,
          "velocity": 0.7086614173228346,
          "duration": 0.07499999999998863
        },
        {
          "name": "G#5",
          "midi": 80,
          "time": 141.18749999999864,
          "velocity": 0.7086614173228346,
          "duration": 0.07499999999998863
        },
        {
          "name": "G#6",
          "midi": 92,
          "time": 141.28124999999864,
          "velocity": 0.7086614173228346,
          "duration": 0.07500000000001705
        },
        {
          "name": "G#3",
          "midi": 56,
          "time": 141.37499999999866,
          "velocity": 0.7086614173228346,
          "duration": 0.15000000000000568
        },
        {
          "name": "G#5",
          "midi": 80,
          "time": 141.37499999999866,
          "velocity": 0.7086614173228346,
          "duration": 0.07499999999998863
        },
        {
          "name": "A#5",
          "midi": 82,
          "time": 141.37499999999866,
          "velocity": 0.7086614173228346,
          "duration": 0.07499999999998863
        },
        {
          "name": "G#6",
          "midi": 92,
          "time": 141.46874999999866,
          "velocity": 0.7086614173228346,
          "duration": 0.07500000000001705
        },
        {
          "name": "G#5",
          "midi": 80,
          "time": 141.5624999999987,
          "velocity": 0.7086614173228346,
          "duration": 0.07499999999998863
        },
        {
          "name": "G#2",
          "midi": 44,
          "time": 141.5624999999987,
          "velocity": 0.7086614173228346,
          "duration": 0.15000000000000568
        },
        {
          "name": "G#6",
          "midi": 92,
          "time": 141.6562499999987,
          "velocity": 0.7086614173228346,
          "duration": 0.07500000000001705
        },
        {
          "name": "G#5",
          "midi": 80,
          "time": 141.74999999999872,
          "velocity": 0.7086614173228346,
          "duration": 0.07499999999998863
        },
        {
          "name": "G#2",
          "midi": 44,
          "time": 141.74999999999872,
          "velocity": 0.7086614173228346,
          "duration": 0.3000000000000398
        },
        {
          "name": "D#6",
          "midi": 87,
          "time": 141.74999999999872,
          "velocity": 0.7086614173228346,
          "duration": 0.07499999999998863
        },
        {
          "name": "G#6",
          "midi": 92,
          "time": 141.84374999999872,
          "velocity": 0.7086614173228346,
          "duration": 0.07500000000001705
        },
        {
          "name": "G#5",
          "midi": 80,
          "time": 141.93749999999875,
          "velocity": 0.7086614173228346,
          "duration": 0.07499999999998863
        },
        {
          "name": "G#6",
          "midi": 92,
          "time": 142.03124999999875,
          "velocity": 0.7086614173228346,
          "duration": 0.07500000000001705
        },
        {
          "name": "G#4",
          "midi": 68,
          "time": 142.12499999999878,
          "velocity": 0.7086614173228346,
          "duration": 0.3000000000000398
        },
        {
          "name": "D#4",
          "midi": 63,
          "time": 142.12499999999878,
          "velocity": 0.7086614173228346,
          "duration": 0.3000000000000398
        },
        {
          "name": "C4",
          "midi": 60,
          "time": 142.12499999999878,
          "velocity": 0.7086614173228346,
          "duration": 0.3000000000000398
        },
        {
          "name": "G#5",
          "midi": 80,
          "time": 142.12499999999878,
          "velocity": 0.7086614173228346,
          "duration": 0.07499999999998863
        },
        {
          "name": "A#5",
          "midi": 82,
          "time": 142.12499999999878,
          "velocity": 0.7086614173228346,
          "duration": 0.07499999999998863
        },
        {
          "name": "G#3",
          "midi": 56,
          "time": 142.12499999999878,
          "velocity": 0.7086614173228346,
          "duration": 0.15000000000000568
        },
        {
          "name": "G#6",
          "midi": 92,
          "time": 142.21874999999878,
          "velocity": 0.7086614173228346,
          "duration": 0.07500000000001705
        },
        {
          "name": "G#5",
          "midi": 80,
          "time": 142.3124999999988,
          "velocity": 0.7086614173228346,
          "duration": 0.07499999999998863
        },
        {
          "name": "G#2",
          "midi": 44,
          "time": 142.3124999999988,
          "velocity": 0.7086614173228346,
          "duration": 0.15000000000000568
        },
        {
          "name": "G#6",
          "midi": 92,
          "time": 142.4062499999988,
          "velocity": 0.7086614173228346,
          "duration": 0.07500000000001705
        },
        {
          "name": "G4",
          "midi": 67,
          "time": 142.49999999999883,
          "velocity": 0.7086614173228346,
          "duration": 0.6000000000000512
        },
        {
          "name": "G#5",
          "midi": 80,
          "time": 142.49999999999883,
          "velocity": 0.7086614173228346,
          "duration": 0.07499999999998863
        },
        {
          "name": "D#6",
          "midi": 87,
          "time": 142.49999999999883,
          "velocity": 0.7086614173228346,
          "duration": 0.07499999999998863
        },
        {
          "name": "G#2",
          "midi": 44,
          "time": 142.49999999999883,
          "velocity": 0.7086614173228346,
          "duration": 0.30000000000001137
        },
        {
          "name": "A#3",
          "midi": 58,
          "time": 142.49999999999883,
          "velocity": 0.7086614173228346,
          "duration": 0.6000000000000512
        },
        {
          "name": "D#4",
          "midi": 63,
          "time": 142.49999999999883,
          "velocity": 0.7086614173228346,
          "duration": 0.6000000000000512
        },
        {
          "name": "G#6",
          "midi": 92,
          "time": 142.59374999999883,
          "velocity": 0.7086614173228346,
          "duration": 0.07499999999998863
        },
        {
          "name": "G#5",
          "midi": 80,
          "time": 142.68749999999883,
          "velocity": 0.7086614173228346,
          "duration": 0.07499999999998863
        },
        {
          "name": "G#6",
          "midi": 92,
          "time": 142.78124999999883,
          "velocity": 0.7086614173228346,
          "duration": 0.07500000000001705
        },
        {
          "name": "G#3",
          "midi": 56,
          "time": 142.87499999999886,
          "velocity": 0.7086614173228346,
          "duration": 0.15000000000000568
        },
        {
          "name": "A#5",
          "midi": 82,
          "time": 142.87499999999886,
          "velocity": 0.7086614173228346,
          "duration": 0.07499999999998863
        },
        {
          "name": "G#5",
          "midi": 80,
          "time": 142.87499999999886,
          "velocity": 0.7086614173228346,
          "duration": 0.07499999999998863
        },
        {
          "name": "G#6",
          "midi": 92,
          "time": 142.96874999999886,
          "velocity": 0.7086614173228346,
          "duration": 0.07500000000001705
        },
        {
          "name": "G#5",
          "midi": 80,
          "time": 143.0624999999989,
          "velocity": 0.7086614173228346,
          "duration": 0.07499999999998863
        },
        {
          "name": "G#2",
          "midi": 44,
          "time": 143.0624999999989,
          "velocity": 0.7086614173228346,
          "duration": 0.15000000000000568
        },
        {
          "name": "G#6",
          "midi": 92,
          "time": 143.1562499999989,
          "velocity": 0.7086614173228346,
          "duration": 0.07500000000001705
        },
        {
          "name": "G#2",
          "midi": 44,
          "time": 143.24999999999892,
          "velocity": 0.7086614173228346,
          "duration": 0.30000000000001137
        },
        {
          "name": "G#5",
          "midi": 80,
          "time": 143.24999999999892,
          "velocity": 0.7086614173228346,
          "duration": 0.07499999999998863
        },
        {
          "name": "D#6",
          "midi": 87,
          "time": 143.24999999999892,
          "velocity": 0.7086614173228346,
          "duration": 0.07499999999998863
        },
        {
          "name": "G#6",
          "midi": 92,
          "time": 143.34374999999892,
          "velocity": 0.7086614173228346,
          "duration": 0.07499999999998863
        },
        {
          "name": "A#3",
          "midi": 58,
          "time": 143.43749999999892,
          "velocity": 0.7086614173228346,
          "duration": 0.15000000000000568
        },
        {
          "name": "G#5",
          "midi": 80,
          "time": 143.43749999999892,
          "velocity": 0.7086614173228346,
          "duration": 0.07499999999998863
        },
        {
          "name": "G#6",
          "midi": 92,
          "time": 143.53124999999892,
          "velocity": 0.7086614173228346,
          "duration": 0.07500000000001705
        },
        {
          "name": "D#4",
          "midi": 63,
          "time": 143.62499999999895,
          "velocity": 0.7086614173228346,
          "duration": 0.3000000000000398
        },
        {
          "name": "G4",
          "midi": 67,
          "time": 143.62499999999895,
          "velocity": 0.7086614173228346,
          "duration": 0.3000000000000398
        },
        {
          "name": "A#5",
          "midi": 82,
          "time": 143.62499999999895,
          "velocity": 0.7086614173228346,
          "duration": 0.07499999999998863
        },
        {
          "name": "G#5",
          "midi": 80,
          "time": 143.62499999999895,
          "velocity": 0.7086614173228346,
          "duration": 0.07499999999998863
        },
        {
          "name": "G#3",
          "midi": 56,
          "time": 143.62499999999895,
          "velocity": 0.7086614173228346,
          "duration": 0.15000000000000568
        },
        {
          "name": "G#6",
          "midi": 92,
          "time": 143.71874999999895,
          "velocity": 0.7086614173228346,
          "duration": 0.07500000000001705
        },
        {
          "name": "G#5",
          "midi": 80,
          "time": 143.81249999999898,
          "velocity": 0.7086614173228346,
          "duration": 0.07499999999998863
        },
        {
          "name": "G#2",
          "midi": 44,
          "time": 143.81249999999898,
          "velocity": 0.7086614173228346,
          "duration": 0.15000000000000568
        },
        {
          "name": "G#6",
          "midi": 92,
          "time": 143.90624999999898,
          "velocity": 0.7086614173228346,
          "duration": 0.07500000000001705
        },
        {
          "name": "G#4",
          "midi": 68,
          "time": 143.999999999999,
          "velocity": 0.7086614173228346,
          "duration": 0.6000000000000512
        },
        {
          "name": "G#5",
          "midi": 80,
          "time": 143.999999999999,
          "velocity": 0.7086614173228346,
          "duration": 0.07499999999998863
        },
        {
          "name": "D#6",
          "midi": 87,
          "time": 143.999999999999,
          "velocity": 0.7086614173228346,
          "duration": 0.07499999999998863
        },
        {
          "name": "D#4",
          "midi": 63,
          "time": 143.999999999999,
          "velocity": 0.7086614173228346,
          "duration": 0.6000000000000512
        },
        {
          "name": "G#2",
          "midi": 44,
          "time": 143.999999999999,
          "velocity": 0.7086614173228346,
          "duration": 0.30000000000001137
        },
        {
          "name": "C4",
          "midi": 60,
          "time": 143.999999999999,
          "velocity": 0.7086614173228346,
          "duration": 0.6000000000000512
        },
        {
          "name": "G#6",
          "midi": 92,
          "time": 144.093749999999,
          "velocity": 0.7086614173228346,
          "duration": 0.07499999999998863
        },
        {
          "name": "G#5",
          "midi": 80,
          "time": 144.187499999999,
          "velocity": 0.7086614173228346,
          "duration": 0.07499999999998863
        },
        {
          "name": "G#6",
          "midi": 92,
          "time": 144.281249999999,
          "velocity": 0.7086614173228346,
          "duration": 0.07500000000001705
        },
        {
          "name": "A#5",
          "midi": 82,
          "time": 144.37499999999903,
          "velocity": 0.7086614173228346,
          "duration": 0.07499999999998863
        },
        {
          "name": "G#3",
          "midi": 56,
          "time": 144.37499999999903,
          "velocity": 0.7086614173228346,
          "duration": 0.15000000000000568
        },
        {
          "name": "G#5",
          "midi": 80,
          "time": 144.37499999999903,
          "velocity": 0.7086614173228346,
          "duration": 0.07499999999998863
        },
        {
          "name": "G#6",
          "midi": 92,
          "time": 144.46874999999903,
          "velocity": 0.7086614173228346,
          "duration": 0.07500000000001705
        },
        {
          "name": "G#5",
          "midi": 80,
          "time": 144.56249999999906,
          "velocity": 0.7086614173228346,
          "duration": 0.07499999999998863
        },
        {
          "name": "G#2",
          "midi": 44,
          "time": 144.56249999999906,
          "velocity": 0.7086614173228346,
          "duration": 0.15000000000000568
        },
        {
          "name": "G#6",
          "midi": 92,
          "time": 144.65624999999906,
          "velocity": 0.7086614173228346,
          "duration": 0.07500000000001705
        },
        {
          "name": "G#5",
          "midi": 80,
          "time": 144.7499999999991,
          "velocity": 0.7086614173228346,
          "duration": 0.07499999999998863
        },
        {
          "name": "G#2",
          "midi": 44,
          "time": 144.7499999999991,
          "velocity": 0.7086614173228346,
          "duration": 0.30000000000001137
        },
        {
          "name": "D#6",
          "midi": 87,
          "time": 144.7499999999991,
          "velocity": 0.7086614173228346,
          "duration": 0.07499999999998863
        },
        {
          "name": "G#6",
          "midi": 92,
          "time": 144.8437499999991,
          "velocity": 0.7086614173228346,
          "duration": 0.07499999999998863
        },
        {
          "name": "C4",
          "midi": 60,
          "time": 144.9374999999991,
          "velocity": 0.7086614173228346,
          "duration": 0.15000000000000568
        },
        {
          "name": "G#5",
          "midi": 80,
          "time": 144.9374999999991,
          "velocity": 0.7086614173228346,
          "duration": 0.07499999999998863
        },
        {
          "name": "G#6",
          "midi": 92,
          "time": 145.0312499999991,
          "velocity": 0.7086614173228346,
          "duration": 0.07500000000001705
        },
        {
          "name": "A#5",
          "midi": 82,
          "time": 145.12499999999912,
          "velocity": 0.7086614173228346,
          "duration": 0.07499999999998863
        },
        {
          "name": "G#5",
          "midi": 80,
          "time": 145.12499999999912,
          "velocity": 0.7086614173228346,
          "duration": 0.07499999999998863
        },
        {
          "name": "D#4",
          "midi": 63,
          "time": 145.12499999999912,
          "velocity": 0.7086614173228346,
          "duration": 0.15000000000000568
        },
        {
          "name": "G#3",
          "midi": 56,
          "time": 145.12499999999912,
          "velocity": 0.7086614173228346,
          "duration": 0.15000000000000568
        },
        {
          "name": "G#6",
          "midi": 92,
          "time": 145.21874999999912,
          "velocity": 0.7086614173228346,
          "duration": 0.07500000000001705
        },
        {
          "name": "G#5",
          "midi": 80,
          "time": 145.31249999999915,
          "velocity": 0.7086614173228346,
          "duration": 0.07499999999998863
        },
        {
          "name": "G#4",
          "midi": 68,
          "time": 145.31249999999915,
          "velocity": 0.7086614173228346,
          "duration": 0.15000000000000568
        },
        {
          "name": "G#2",
          "midi": 44,
          "time": 145.31249999999915,
          "velocity": 0.7086614173228346,
          "duration": 0.15000000000000568
        },
        {
          "name": "G#6",
          "midi": 92,
          "time": 145.40624999999915,
          "velocity": 0.7086614173228346,
          "duration": 0.07500000000001705
        },
        {
          "name": "F4",
          "midi": 65,
          "time": 145.49999999999918,
          "velocity": 0.7086614173228346,
          "duration": 0.900000000000091
        },
        {
          "name": "G#2",
          "midi": 44,
          "time": 145.49999999999918,
          "velocity": 0.7086614173228346,
          "duration": 0.30000000000001137
        },
        {
          "name": "D#6",
          "midi": 87,
          "time": 145.49999999999918,
          "velocity": 0.7086614173228346,
          "duration": 0.07499999999998863
        },
        {
          "name": "G#5",
          "midi": 80,
          "time": 145.49999999999918,
          "velocity": 0.7086614173228346,
          "duration": 0.07499999999998863
        },
        {
          "name": "C#4",
          "midi": 61,
          "time": 145.49999999999918,
          "velocity": 0.7086614173228346,
          "duration": 0.900000000000091
        },
        {
          "name": "G#6",
          "midi": 92,
          "time": 145.59374999999918,
          "velocity": 0.7086614173228346,
          "duration": 0.07499999999998863
        },
        {
          "name": "G#5",
          "midi": 80,
          "time": 145.68749999999918,
          "velocity": 0.7086614173228346,
          "duration": 0.07499999999998863
        },
        {
          "name": "G#6",
          "midi": 92,
          "time": 145.78124999999918,
          "velocity": 0.7086614173228346,
          "duration": 0.07500000000001705
        },
        {
          "name": "G#3",
          "midi": 56,
          "time": 145.8749999999992,
          "velocity": 0.7086614173228346,
          "duration": 0.15000000000000568
        },
        {
          "name": "G#5",
          "midi": 80,
          "time": 145.8749999999992,
          "velocity": 0.7086614173228346,
          "duration": 0.07499999999998863
        },
        {
          "name": "A#5",
          "midi": 82,
          "time": 145.8749999999992,
          "velocity": 0.7086614173228346,
          "duration": 0.07499999999998863
        },
        {
          "name": "G#6",
          "midi": 92,
          "time": 145.9687499999992,
          "velocity": 0.7086614173228346,
          "duration": 0.07500000000001705
        },
        {
          "name": "G#5",
          "midi": 80,
          "time": 146.06249999999923,
          "velocity": 0.7086614173228346,
          "duration": 0.07499999999998863
        },
        {
          "name": "G#2",
          "midi": 44,
          "time": 146.06249999999923,
          "velocity": 0.7086614173228346,
          "duration": 0.15000000000000568
        },
        {
          "name": "G#6",
          "midi": 92,
          "time": 146.15624999999923,
          "velocity": 0.7086614173228346,
          "duration": 0.07500000000001705
        },
        {
          "name": "D#6",
          "midi": 87,
          "time": 146.24999999999926,
          "velocity": 0.7086614173228346,
          "duration": 0.07499999999998863
        },
        {
          "name": "G#5",
          "midi": 80,
          "time": 146.24999999999926,
          "velocity": 0.7086614173228346,
          "duration": 0.07499999999998863
        },
        {
          "name": "G#2",
          "midi": 44,
          "time": 146.24999999999926,
          "velocity": 0.7086614173228346,
          "duration": 0.15000000000000568
        },
        {
          "name": "G#6",
          "midi": 92,
          "time": 146.34374999999926,
          "velocity": 0.7086614173228346,
          "duration": 0.07500000000001705
        },
        {
          "name": "G#5",
          "midi": 80,
          "time": 146.4374999999993,
          "velocity": 0.7086614173228346,
          "duration": 0.07499999999998863
        },
        {
          "name": "D#3",
          "midi": 51,
          "time": 146.4374999999993,
          "velocity": 0.7086614173228346,
          "duration": 0.30000000000001137
        },
        {
          "name": "G4",
          "midi": 67,
          "time": 146.4374999999993,
          "velocity": 0.7086614173228346,
          "duration": 0.45000000000001705
        },
        {
          "name": "A#3",
          "midi": 58,
          "time": 146.4374999999993,
          "velocity": 0.7086614173228346,
          "duration": 0.45000000000001705
        },
        {
          "name": "D#4",
          "midi": 63,
          "time": 146.4374999999993,
          "velocity": 0.7086614173228346,
          "duration": 0.45000000000001705
        },
        {
          "name": "G#6",
          "midi": 92,
          "time": 146.5312499999993,
          "velocity": 0.7086614173228346,
          "duration": 0.07499999999998863
        },
        {
          "name": "G#5",
          "midi": 80,
          "time": 146.6249999999993,
          "velocity": 0.7086614173228346,
          "duration": 0.07499999999998863
        },
        {
          "name": "A#5",
          "midi": 82,
          "time": 146.6249999999993,
          "velocity": 0.7086614173228346,
          "duration": 0.07499999999998863
        },
        {
          "name": "G#6",
          "midi": 92,
          "time": 146.7187499999993,
          "velocity": 0.7086614173228346,
          "duration": 0.07500000000001705
        },
        {
          "name": "G#5",
          "midi": 80,
          "time": 146.81249999999932,
          "velocity": 0.7086614173228346,
          "duration": 0.07499999999998863
        },
        {
          "name": "G#2",
          "midi": 44,
          "time": 146.81249999999932,
          "velocity": 0.7086614173228346,
          "duration": 0.15000000000000568
        },
        {
          "name": "G#6",
          "midi": 92,
          "time": 146.90624999999932,
          "velocity": 0.7086614173228346,
          "duration": 0.07500000000001705
        },
        {
          "name": "G#2",
          "midi": 44,
          "time": 146.99999999999935,
          "velocity": 0.7086614173228346,
          "duration": 0.30000000000001137
        },
        {
          "name": "G#5",
          "midi": 80,
          "time": 146.99999999999935,
          "velocity": 0.7086614173228346,
          "duration": 0.07499999999998863
        },
        {
          "name": "D#6",
          "midi": 87,
          "time": 146.99999999999935,
          "velocity": 0.7086614173228346,
          "duration": 0.07499999999998863
        },
        {
          "name": "C4",
          "midi": 60,
          "time": 146.99999999999935,
          "velocity": 0.7086614173228346,
          "duration": 0.900000000000091
        },
        {
          "name": "D#4",
          "midi": 63,
          "time": 146.99999999999935,
          "velocity": 0.7086614173228346,
          "duration": 0.900000000000091
        },
        {
          "name": "G#4",
          "midi": 68,
          "time": 146.99999999999935,
          "velocity": 0.7086614173228346,
          "duration": 0.900000000000091
        },
        {
          "name": "G#6",
          "midi": 92,
          "time": 147.09374999999935,
          "velocity": 0.7086614173228346,
          "duration": 0.07499999999998863
        },
        {
          "name": "G#5",
          "midi": 80,
          "time": 147.18749999999935,
          "velocity": 0.7086614173228346,
          "duration": 0.07499999999998863
        },
        {
          "name": "G#6",
          "midi": 92,
          "time": 147.28124999999935,
          "velocity": 0.7086614173228346,
          "duration": 0.07500000000001705
        },
        {
          "name": "G#3",
          "midi": 56,
          "time": 147.37499999999937,
          "velocity": 0.7086614173228346,
          "duration": 0.15000000000000568
        },
        {
          "name": "G#5",
          "midi": 80,
          "time": 147.37499999999937,
          "velocity": 0.7086614173228346,
          "duration": 0.07499999999998863
        },
        {
          "name": "A#5",
          "midi": 82,
          "time": 147.37499999999937,
          "velocity": 0.7086614173228346,
          "duration": 0.07499999999998863
        },
        {
          "name": "G#6",
          "midi": 92,
          "time": 147.46874999999937,
          "velocity": 0.7086614173228346,
          "duration": 0.07500000000001705
        },
        {
          "name": "G#5",
          "midi": 80,
          "time": 147.5624999999994,
          "velocity": 0.7086614173228346,
          "duration": 0.07499999999998863
        },
        {
          "name": "G#2",
          "midi": 44,
          "time": 147.5624999999994,
          "velocity": 0.7086614173228346,
          "duration": 0.15000000000000568
        },
        {
          "name": "G#6",
          "midi": 92,
          "time": 147.6562499999994,
          "velocity": 0.7086614173228346,
          "duration": 0.07500000000001705
        },
        {
          "name": "G#5",
          "midi": 80,
          "time": 147.74999999999943,
          "velocity": 0.7086614173228346,
          "duration": 0.07499999999998863
        },
        {
          "name": "G#2",
          "midi": 44,
          "time": 147.74999999999943,
          "velocity": 0.7086614173228346,
          "duration": 0.3000000000000398
        },
        {
          "name": "D#6",
          "midi": 87,
          "time": 147.74999999999943,
          "velocity": 0.7086614173228346,
          "duration": 0.07499999999998863
        },
        {
          "name": "G#6",
          "midi": 92,
          "time": 147.84374999999943,
          "velocity": 0.7086614173228346,
          "duration": 0.07500000000001705
        },
        {
          "name": "G#5",
          "midi": 80,
          "time": 147.93749999999946,
          "velocity": 0.7086614173228346,
          "duration": 0.07499999999998863
        },
        {
          "name": "G#6",
          "midi": 92,
          "time": 148.03124999999946,
          "velocity": 0.7086614173228346,
          "duration": 0.07500000000001705
        },
        {
          "name": "D#4",
          "midi": 63,
          "time": 148.1249999999995,
          "velocity": 0.7086614173228346,
          "duration": 0.3000000000000398
        },
        {
          "name": "G#4",
          "midi": 68,
          "time": 148.1249999999995,
          "velocity": 0.7086614173228346,
          "duration": 0.3000000000000398
        },
        {
          "name": "C4",
          "midi": 60,
          "time": 148.1249999999995,
          "velocity": 0.7086614173228346,
          "duration": 0.3000000000000398
        },
        {
          "name": "G#5",
          "midi": 80,
          "time": 148.1249999999995,
          "velocity": 0.7086614173228346,
          "duration": 0.07499999999998863
        },
        {
          "name": "A#5",
          "midi": 82,
          "time": 148.1249999999995,
          "velocity": 0.7086614173228346,
          "duration": 0.07499999999998863
        },
        {
          "name": "G#3",
          "midi": 56,
          "time": 148.1249999999995,
          "velocity": 0.7086614173228346,
          "duration": 0.15000000000000568
        },
        {
          "name": "G#6",
          "midi": 92,
          "time": 148.2187499999995,
          "velocity": 0.7086614173228346,
          "duration": 0.07500000000001705
        },
        {
          "name": "G#5",
          "midi": 80,
          "time": 148.31249999999952,
          "velocity": 0.7086614173228346,
          "duration": 0.07499999999998863
        },
        {
          "name": "G#2",
          "midi": 44,
          "time": 148.31249999999952,
          "velocity": 0.7086614173228346,
          "duration": 0.15000000000000568
        },
        {
          "name": "G#6",
          "midi": 92,
          "time": 148.40624999999952,
          "velocity": 0.7086614173228346,
          "duration": 0.07500000000001705
        },
        {
          "name": "D#4",
          "midi": 63,
          "time": 148.49999999999955,
          "velocity": 0.7086614173228346,
          "duration": 0.6000000000000512
        },
        {
          "name": "D#6",
          "midi": 87,
          "time": 148.49999999999955,
          "velocity": 0.7086614173228346,
          "duration": 0.07499999999998863
        },
        {
          "name": "G#5",
          "midi": 80,
          "time": 148.49999999999955,
          "velocity": 0.7086614173228346,
          "duration": 0.07499999999998863
        },
        {
          "name": "A#3",
          "midi": 58,
          "time": 148.49999999999955,
          "velocity": 0.7086614173228346,
          "duration": 0.6000000000000512
        },
        {
          "name": "G#2",
          "midi": 44,
          "time": 148.49999999999955,
          "velocity": 0.7086614173228346,
          "duration": 0.30000000000001137
        },
        {
          "name": "G4",
          "midi": 67,
          "time": 148.49999999999955,
          "velocity": 0.7086614173228346,
          "duration": 0.6000000000000512
        },
        {
          "name": "G#6",
          "midi": 92,
          "time": 148.59374999999955,
          "velocity": 0.7086614173228346,
          "duration": 0.07499999999998863
        },
        {
          "name": "G#5",
          "midi": 80,
          "time": 148.68749999999955,
          "velocity": 0.7086614173228346,
          "duration": 0.07499999999998863
        },
        {
          "name": "G#6",
          "midi": 92,
          "time": 148.78124999999955,
          "velocity": 0.7086614173228346,
          "duration": 0.07500000000001705
        },
        {
          "name": "G#5",
          "midi": 80,
          "time": 148.87499999999957,
          "velocity": 0.7086614173228346,
          "duration": 0.07499999999998863
        },
        {
          "name": "G#3",
          "midi": 56,
          "time": 148.87499999999957,
          "velocity": 0.7086614173228346,
          "duration": 0.15000000000000568
        },
        {
          "name": "A#5",
          "midi": 82,
          "time": 148.87499999999957,
          "velocity": 0.7086614173228346,
          "duration": 0.07499999999998863
        },
        {
          "name": "G#6",
          "midi": 92,
          "time": 148.96874999999957,
          "velocity": 0.7086614173228346,
          "duration": 0.07500000000001705
        },
        {
          "name": "G#5",
          "midi": 80,
          "time": 149.0624999999996,
          "velocity": 0.7086614173228346,
          "duration": 0.07499999999998863
        },
        {
          "name": "G#2",
          "midi": 44,
          "time": 149.0624999999996,
          "velocity": 0.7086614173228346,
          "duration": 0.15000000000000568
        },
        {
          "name": "G#6",
          "midi": 92,
          "time": 149.1562499999996,
          "velocity": 0.7086614173228346,
          "duration": 0.07500000000001705
        },
        {
          "name": "G#2",
          "midi": 44,
          "time": 149.24999999999963,
          "velocity": 0.7086614173228346,
          "duration": 0.30000000000001137
        },
        {
          "name": "D#6",
          "midi": 87,
          "time": 149.24999999999963,
          "velocity": 0.7086614173228346,
          "duration": 0.07499999999998863
        },
        {
          "name": "G#5",
          "midi": 80,
          "time": 149.24999999999963,
          "velocity": 0.7086614173228346,
          "duration": 0.07499999999998863
        },
        {
          "name": "G#6",
          "midi": 92,
          "time": 149.34374999999963,
          "velocity": 0.7086614173228346,
          "duration": 0.07499999999998863
        },
        {
          "name": "A#3",
          "midi": 58,
          "time": 149.43749999999963,
          "velocity": 0.7086614173228346,
          "duration": 0.15000000000000568
        },
        {
          "name": "G#5",
          "midi": 80,
          "time": 149.43749999999963,
          "velocity": 0.7086614173228346,
          "duration": 0.07499999999998863
        },
        {
          "name": "G#6",
          "midi": 92,
          "time": 149.53124999999963,
          "velocity": 0.7086614173228346,
          "duration": 0.07500000000001705
        },
        {
          "name": "G4",
          "midi": 67,
          "time": 149.62499999999966,
          "velocity": 0.7086614173228346,
          "duration": 0.3000000000000398
        },
        {
          "name": "D#4",
          "midi": 63,
          "time": 149.62499999999966,
          "velocity": 0.7086614173228346,
          "duration": 0.3000000000000398
        },
        {
          "name": "G#5",
          "midi": 80,
          "time": 149.62499999999966,
          "velocity": 0.7086614173228346,
          "duration": 0.07499999999998863
        },
        {
          "name": "A#5",
          "midi": 82,
          "time": 149.62499999999966,
          "velocity": 0.7086614173228346,
          "duration": 0.07499999999998863
        },
        {
          "name": "G#3",
          "midi": 56,
          "time": 149.62499999999966,
          "velocity": 0.7086614173228346,
          "duration": 0.15000000000000568
        },
        {
          "name": "G#6",
          "midi": 92,
          "time": 149.71874999999966,
          "velocity": 0.7086614173228346,
          "duration": 0.07500000000001705
        },
        {
          "name": "G#5",
          "midi": 80,
          "time": 149.8124999999997,
          "velocity": 0.7086614173228346,
          "duration": 0.07499999999998863
        },
        {
          "name": "G#2",
          "midi": 44,
          "time": 149.8124999999997,
          "velocity": 0.7086614173228346,
          "duration": 0.15000000000000568
        },
        {
          "name": "G#6",
          "midi": 92,
          "time": 149.9062499999997,
          "velocity": 0.7086614173228346,
          "duration": 0.07500000000001705
        },
        {
          "name": "D#4",
          "midi": 63,
          "time": 149.99999999999972,
          "velocity": 0.7086614173228346,
          "duration": 0.6000000000000512
        },
        {
          "name": "D#6",
          "midi": 87,
          "time": 149.99999999999972,
          "velocity": 0.7086614173228346,
          "duration": 0.07499999999998863
        },
        {
          "name": "G#5",
          "midi": 80,
          "time": 149.99999999999972,
          "velocity": 0.7086614173228346,
          "duration": 0.07499999999998863
        },
        {
          "name": "C4",
          "midi": 60,
          "time": 149.99999999999972,
          "velocity": 0.7086614173228346,
          "duration": 0.6000000000000512
        },
        {
          "name": "G#2",
          "midi": 44,
          "time": 149.99999999999972,
          "velocity": 0.7086614173228346,
          "duration": 0.30000000000001137
        },
        {
          "name": "G#4",
          "midi": 68,
          "time": 149.99999999999972,
          "velocity": 0.7086614173228346,
          "duration": 0.6000000000000512
        },
        {
          "name": "G#6",
          "midi": 92,
          "time": 150.09374999999972,
          "velocity": 0.7086614173228346,
          "duration": 0.07499999999998863
        },
        {
          "name": "G#5",
          "midi": 80,
          "time": 150.18749999999972,
          "velocity": 0.7086614173228346,
          "duration": 0.07499999999998863
        },
        {
          "name": "G#6",
          "midi": 92,
          "time": 150.28124999999972,
          "velocity": 0.7086614173228346,
          "duration": 0.07500000000001705
        },
        {
          "name": "G#5",
          "midi": 80,
          "time": 150.37499999999974,
          "velocity": 0.7086614173228346,
          "duration": 0.07499999999998863
        },
        {
          "name": "G#3",
          "midi": 56,
          "time": 150.37499999999974,
          "velocity": 0.7086614173228346,
          "duration": 0.15000000000000568
        },
        {
          "name": "A#5",
          "midi": 82,
          "time": 150.37499999999974,
          "velocity": 0.7086614173228346,
          "duration": 0.07499999999998863
        },
        {
          "name": "G#6",
          "midi": 92,
          "time": 150.46874999999974,
          "velocity": 0.7086614173228346,
          "duration": 0.07500000000001705
        },
        {
          "name": "G#5",
          "midi": 80,
          "time": 150.56249999999977,
          "velocity": 0.7086614173228346,
          "duration": 0.07499999999998863
        },
        {
          "name": "G#2",
          "midi": 44,
          "time": 150.56249999999977,
          "velocity": 0.7086614173228346,
          "duration": 0.15000000000000568
        },
        {
          "name": "G#6",
          "midi": 92,
          "time": 150.65624999999977,
          "velocity": 0.7086614173228346,
          "duration": 0.07500000000001705
        },
        {
          "name": "G#5",
          "midi": 80,
          "time": 150.7499999999998,
          "velocity": 0.7086614173228346,
          "duration": 0.07499999999998863
        },
        {
          "name": "G#2",
          "midi": 44,
          "time": 150.7499999999998,
          "velocity": 0.7086614173228346,
          "duration": 0.30000000000001137
        },
        {
          "name": "D#6",
          "midi": 87,
          "time": 150.7499999999998,
          "velocity": 0.7086614173228346,
          "duration": 0.07499999999998863
        },
        {
          "name": "G#6",
          "midi": 92,
          "time": 150.8437499999998,
          "velocity": 0.7086614173228346,
          "duration": 0.07499999999998863
        },
        {
          "name": "C4",
          "midi": 60,
          "time": 150.9374999999998,
          "velocity": 0.7086614173228346,
          "duration": 0.15000000000000568
        },
        {
          "name": "G#5",
          "midi": 80,
          "time": 150.9374999999998,
          "velocity": 0.7086614173228346,
          "duration": 0.07499999999998863
        },
        {
          "name": "G#6",
          "midi": 92,
          "time": 151.0312499999998,
          "velocity": 0.7086614173228346,
          "duration": 0.07500000000001705
        },
        {
          "name": "A#5",
          "midi": 82,
          "time": 151.12499999999983,
          "velocity": 0.7086614173228346,
          "duration": 0.07499999999998863
        },
        {
          "name": "G#5",
          "midi": 80,
          "time": 151.12499999999983,
          "velocity": 0.7086614173228346,
          "duration": 0.07499999999998863
        },
        {
          "name": "D#4",
          "midi": 63,
          "time": 151.12499999999983,
          "velocity": 0.7086614173228346,
          "duration": 0.15000000000000568
        },
        {
          "name": "G#3",
          "midi": 56,
          "time": 151.12499999999983,
          "velocity": 0.7086614173228346,
          "duration": 0.15000000000000568
        },
        {
          "name": "G#6",
          "midi": 92,
          "time": 151.21874999999983,
          "velocity": 0.7086614173228346,
          "duration": 0.07500000000001705
        },
        {
          "name": "G#5",
          "midi": 80,
          "time": 151.31249999999986,
          "velocity": 0.7086614173228346,
          "duration": 0.07499999999998863
        },
        {
          "name": "G#2",
          "midi": 44,
          "time": 151.31249999999986,
          "velocity": 0.7086614173228346,
          "duration": 0.15000000000000568
        },
        {
          "name": "G#4",
          "midi": 68,
          "time": 151.31249999999986,
          "velocity": 0.7086614173228346,
          "duration": 0.15000000000000568
        },
        {
          "name": "G#6",
          "midi": 92,
          "time": 151.40624999999986,
          "velocity": 0.7086614173228346,
          "duration": 0.07500000000001705
        },
        {
          "name": "G#5",
          "midi": 80,
          "time": 151.4999999999999,
          "velocity": 0.7086614173228346,
          "duration": 0.07499999999998863
        },
        {
          "name": "G#2",
          "midi": 44,
          "time": 151.4999999999999,
          "velocity": 0.7086614173228346,
          "duration": 0.30000000000001137
        },
        {
          "name": "D#6",
          "midi": 87,
          "time": 151.4999999999999,
          "velocity": 0.7086614173228346,
          "duration": 0.07499999999998863
        },
        {
          "name": "F4",
          "midi": 65,
          "time": 151.4999999999999,
          "velocity": 0.7086614173228346,
          "duration": 0.900000000000091
        },
        {
          "name": "C#4",
          "midi": 61,
          "time": 151.4999999999999,
          "velocity": 0.7086614173228346,
          "duration": 0.900000000000091
        },
        {
          "name": "G#6",
          "midi": 92,
          "time": 151.5937499999999,
          "velocity": 0.7086614173228346,
          "duration": 0.07499999999998863
        },
        {
          "name": "G#5",
          "midi": 80,
          "time": 151.6874999999999,
          "velocity": 0.7086614173228346,
          "duration": 0.07499999999998863
        },
        {
          "name": "G#6",
          "midi": 92,
          "time": 151.7812499999999,
          "velocity": 0.7086614173228346,
          "duration": 0.07500000000001705
        },
        {
          "name": "G#3",
          "midi": 56,
          "time": 151.87499999999991,
          "velocity": 0.7086614173228346,
          "duration": 0.15000000000000568
        },
        {
          "name": "G#5",
          "midi": 80,
          "time": 151.87499999999991,
          "velocity": 0.7086614173228346,
          "duration": 0.07499999999998863
        },
        {
          "name": "A#5",
          "midi": 82,
          "time": 151.87499999999991,
          "velocity": 0.7086614173228346,
          "duration": 0.07499999999998863
        },
        {
          "name": "G#6",
          "midi": 92,
          "time": 151.96874999999991,
          "velocity": 0.7086614173228346,
          "duration": 0.07500000000001705
        },
        {
          "name": "G#5",
          "midi": 80,
          "time": 152.06249999999994,
          "velocity": 0.7086614173228346,
          "duration": 0.07499999999998863
        },
        {
          "name": "G#2",
          "midi": 44,
          "time": 152.06249999999994,
          "velocity": 0.7086614173228346,
          "duration": 0.15000000000000568
        },
        {
          "name": "G#6",
          "midi": 92,
          "time": 152.15624999999994,
          "velocity": 0.7086614173228346,
          "duration": 0.07500000000001705
        },
        {
          "name": "D#6",
          "midi": 87,
          "time": 152.24999999999997,
          "velocity": 0.7086614173228346,
          "duration": 0.07499999999998863
        },
        {
          "name": "G#5",
          "midi": 80,
          "time": 152.24999999999997,
          "velocity": 0.7086614173228346,
          "duration": 0.07499999999998863
        },
        {
          "name": "G#2",
          "midi": 44,
          "time": 152.24999999999997,
          "velocity": 0.7086614173228346,
          "duration": 0.15000000000000568
        },
        {
          "name": "G#6",
          "midi": 92,
          "time": 152.34374999999997,
          "velocity": 0.7086614173228346,
          "duration": 0.07500000000001705
        },
        {
          "name": "G#5",
          "midi": 80,
          "time": 152.4375,
          "velocity": 0.7086614173228346,
          "duration": 0.07499999999998863
        },
        {
          "name": "D#3",
          "midi": 51,
          "time": 152.4375,
          "velocity": 0.7086614173228346,
          "duration": 0.30000000000001137
        },
        {
          "name": "A#3",
          "midi": 58,
          "time": 152.4375,
          "velocity": 0.7086614173228346,
          "duration": 0.45000000000001705
        },
        {
          "name": "G4",
          "midi": 67,
          "time": 152.4375,
          "velocity": 0.7086614173228346,
          "duration": 0.45000000000001705
        },
        {
          "name": "D#4",
          "midi": 63,
          "time": 152.4375,
          "velocity": 0.7086614173228346,
          "duration": 0.45000000000001705
        },
        {
          "name": "G#6",
          "midi": 92,
          "time": 152.53125,
          "velocity": 0.7086614173228346,
          "duration": 0.07499999999998863
        },
        {
          "name": "A#5",
          "midi": 82,
          "time": 152.625,
          "velocity": 0.7086614173228346,
          "duration": 0.07499999999998863
        },
        {
          "name": "G#5",
          "midi": 80,
          "time": 152.625,
          "velocity": 0.7086614173228346,
          "duration": 0.07499999999998863
        },
        {
          "name": "G#6",
          "midi": 92,
          "time": 152.71875,
          "velocity": 0.7086614173228346,
          "duration": 0.07500000000001705
        },
        {
          "name": "G#5",
          "midi": 80,
          "time": 152.81250000000003,
          "velocity": 0.7086614173228346,
          "duration": 0.07499999999998863
        },
        {
          "name": "G#2",
          "midi": 44,
          "time": 152.81250000000003,
          "velocity": 0.7086614173228346,
          "duration": 0.15000000000000568
        },
        {
          "name": "G#6",
          "midi": 92,
          "time": 152.90625000000003,
          "velocity": 0.7086614173228346,
          "duration": 0.07500000000001705
        },
        {
          "name": "G#5",
          "midi": 80,
          "time": 153.00000000000006,
          "velocity": 0.7086614173228346,
          "duration": 0.07499999999998863
        },
        {
          "name": "D#6",
          "midi": 87,
          "time": 153.00000000000006,
          "velocity": 0.7086614173228346,
          "duration": 0.07499999999998863
        },
        {
          "name": "D#4",
          "midi": 63,
          "time": 153.00000000000006,
          "velocity": 0.7086614173228346,
          "duration": 0.900000000000091
        },
        {
          "name": "G#4",
          "midi": 68,
          "time": 153.00000000000006,
          "velocity": 0.7086614173228346,
          "duration": 0.900000000000091
        },
        {
          "name": "C4",
          "midi": 60,
          "time": 153.00000000000006,
          "velocity": 0.7086614173228346,
          "duration": 0.900000000000091
        },
        {
          "name": "G#2",
          "midi": 44,
          "time": 153.00000000000006,
          "velocity": 0.7086614173228346,
          "duration": 0.30000000000001137
        },
        {
          "name": "G#6",
          "midi": 92,
          "time": 153.09375000000006,
          "velocity": 0.7086614173228346,
          "duration": 0.07499999999998863
        },
        {
          "name": "G#5",
          "midi": 80,
          "time": 153.18750000000006,
          "velocity": 0.7086614173228346,
          "duration": 0.07499999999998863
        },
        {
          "name": "G#6",
          "midi": 92,
          "time": 153.28125000000006,
          "velocity": 0.7086614173228346,
          "duration": 0.07500000000001705
        },
        {
          "name": "G#3",
          "midi": 56,
          "time": 153.37500000000009,
          "velocity": 0.7086614173228346,
          "duration": 0.15000000000000568
        },
        {
          "name": "A#5",
          "midi": 82,
          "time": 153.37500000000009,
          "velocity": 0.7086614173228346,
          "duration": 0.07499999999998863
        },
        {
          "name": "G#5",
          "midi": 80,
          "time": 153.37500000000009,
          "velocity": 0.7086614173228346,
          "duration": 0.07499999999998863
        },
        {
          "name": "G#6",
          "midi": 92,
          "time": 153.46875000000009,
          "velocity": 0.7086614173228346,
          "duration": 0.07500000000001705
        },
        {
          "name": "G#5",
          "midi": 80,
          "time": 153.5625000000001,
          "velocity": 0.7086614173228346,
          "duration": 0.07499999999998863
        },
        {
          "name": "G#2",
          "midi": 44,
          "time": 153.5625000000001,
          "velocity": 0.7086614173228346,
          "duration": 0.15000000000000568
        },
        {
          "name": "G#6",
          "midi": 92,
          "time": 153.6562500000001,
          "velocity": 0.7086614173228346,
          "duration": 0.07500000000001705
        },
        {
          "name": "G#5",
          "midi": 80,
          "time": 153.75000000000014,
          "velocity": 0.7086614173228346,
          "duration": 0.07499999999998863
        },
        {
          "name": "G#2",
          "midi": 44,
          "time": 153.75000000000014,
          "velocity": 0.7086614173228346,
          "duration": 0.3000000000000398
        },
        {
          "name": "D#6",
          "midi": 87,
          "time": 153.75000000000014,
          "velocity": 0.7086614173228346,
          "duration": 0.07499999999998863
        },
        {
          "name": "G#6",
          "midi": 92,
          "time": 153.84375000000014,
          "velocity": 0.7086614173228346,
          "duration": 0.07500000000001705
        },
        {
          "name": "G#5",
          "midi": 80,
          "time": 153.93750000000017,
          "velocity": 0.7086614173228346,
          "duration": 0.07499999999998863
        },
        {
          "name": "G#6",
          "midi": 92,
          "time": 154.03125000000017,
          "velocity": 0.7086614173228346,
          "duration": 0.07500000000001705
        },
        {
          "name": "G#4",
          "midi": 68,
          "time": 154.1250000000002,
          "velocity": 0.7086614173228346,
          "duration": 0.3000000000000398
        },
        {
          "name": "C4",
          "midi": 60,
          "time": 154.1250000000002,
          "velocity": 0.7086614173228346,
          "duration": 0.3000000000000398
        },
        {
          "name": "D#4",
          "midi": 63,
          "time": 154.1250000000002,
          "velocity": 0.7086614173228346,
          "duration": 0.3000000000000398
        },
        {
          "name": "G#5",
          "midi": 80,
          "time": 154.1250000000002,
          "velocity": 0.7086614173228346,
          "duration": 0.07499999999998863
        },
        {
          "name": "A#5",
          "midi": 82,
          "time": 154.1250000000002,
          "velocity": 0.7086614173228346,
          "duration": 0.07499999999998863
        },
        {
          "name": "G#3",
          "midi": 56,
          "time": 154.1250000000002,
          "velocity": 0.7086614173228346,
          "duration": 0.15000000000000568
        },
        {
          "name": "G#6",
          "midi": 92,
          "time": 154.2187500000002,
          "velocity": 0.7086614173228346,
          "duration": 0.07500000000001705
        },
        {
          "name": "G#5",
          "midi": 80,
          "time": 154.31250000000023,
          "velocity": 0.7086614173228346,
          "duration": 0.07499999999998863
        },
        {
          "name": "G#2",
          "midi": 44,
          "time": 154.31250000000023,
          "velocity": 0.7086614173228346,
          "duration": 0.15000000000000568
        },
        {
          "name": "G#6",
          "midi": 92,
          "time": 154.40625000000023,
          "velocity": 0.7086614173228346,
          "duration": 0.07500000000001705
        },
        {
          "name": "A#3",
          "midi": 58,
          "time": 154.50000000000026,
          "velocity": 0.7086614173228346,
          "duration": 0.6000000000000512
        },
        {
          "name": "D#6",
          "midi": 87,
          "time": 154.50000000000026,
          "velocity": 0.7086614173228346,
          "duration": 0.07499999999998863
        },
        {
          "name": "G#5",
          "midi": 80,
          "time": 154.50000000000026,
          "velocity": 0.7086614173228346,
          "duration": 0.07499999999998863
        },
        {
          "name": "G4",
          "midi": 67,
          "time": 154.50000000000026,
          "velocity": 0.7086614173228346,
          "duration": 0.6000000000000512
        },
        {
          "name": "G#2",
          "midi": 44,
          "time": 154.50000000000026,
          "velocity": 0.7086614173228346,
          "duration": 0.30000000000001137
        },
        {
          "name": "D#4",
          "midi": 63,
          "time": 154.50000000000026,
          "velocity": 0.7086614173228346,
          "duration": 0.6000000000000512
        },
        {
          "name": "G#6",
          "midi": 92,
          "time": 154.59375000000026,
          "velocity": 0.7086614173228346,
          "duration": 0.07499999999998863
        },
        {
          "name": "G#5",
          "midi": 80,
          "time": 154.68750000000026,
          "velocity": 0.7086614173228346,
          "duration": 0.07499999999998863
        },
        {
          "name": "G#6",
          "midi": 92,
          "time": 154.78125000000026,
          "velocity": 0.7086614173228346,
          "duration": 0.07500000000001705
        },
        {
          "name": "G#3",
          "midi": 56,
          "time": 154.87500000000028,
          "velocity": 0.7086614173228346,
          "duration": 0.15000000000000568
        },
        {
          "name": "G#5",
          "midi": 80,
          "time": 154.87500000000028,
          "velocity": 0.7086614173228346,
          "duration": 0.07499999999998863
        },
        {
          "name": "A#5",
          "midi": 82,
          "time": 154.87500000000028,
          "velocity": 0.7086614173228346,
          "duration": 0.07499999999998863
        },
        {
          "name": "G#6",
          "midi": 92,
          "time": 154.96875000000028,
          "velocity": 0.7086614173228346,
          "duration": 0.07500000000001705
        },
        {
          "name": "G#5",
          "midi": 80,
          "time": 155.0625000000003,
          "velocity": 0.7086614173228346,
          "duration": 0.07499999999998863
        },
        {
          "name": "G#2",
          "midi": 44,
          "time": 155.0625000000003,
          "velocity": 0.7086614173228346,
          "duration": 0.15000000000000568
        },
        {
          "name": "G#6",
          "midi": 92,
          "time": 155.1562500000003,
          "velocity": 0.7086614173228346,
          "duration": 0.07500000000001705
        },
        {
          "name": "G#2",
          "midi": 44,
          "time": 155.25000000000034,
          "velocity": 0.7086614173228346,
          "duration": 0.30000000000001137
        },
        {
          "name": "D#6",
          "midi": 87,
          "time": 155.25000000000034,
          "velocity": 0.7086614173228346,
          "duration": 0.07499999999998863
        },
        {
          "name": "G#5",
          "midi": 80,
          "time": 155.25000000000034,
          "velocity": 0.7086614173228346,
          "duration": 0.07499999999998863
        },
        {
          "name": "G#6",
          "midi": 92,
          "time": 155.34375000000034,
          "velocity": 0.7086614173228346,
          "duration": 0.07499999999998863
        },
        {
          "name": "A#3",
          "midi": 58,
          "time": 155.43750000000034,
          "velocity": 0.7086614173228346,
          "duration": 0.15000000000000568
        },
        {
          "name": "G#5",
          "midi": 80,
          "time": 155.43750000000034,
          "velocity": 0.7086614173228346,
          "duration": 0.07499999999998863
        },
        {
          "name": "G#6",
          "midi": 92,
          "time": 155.53125000000034,
          "velocity": 0.7086614173228346,
          "duration": 0.07500000000001705
        },
        {
          "name": "G4",
          "midi": 67,
          "time": 155.62500000000037,
          "velocity": 0.7086614173228346,
          "duration": 0.3000000000000398
        },
        {
          "name": "D#4",
          "midi": 63,
          "time": 155.62500000000037,
          "velocity": 0.7086614173228346,
          "duration": 0.3000000000000398
        },
        {
          "name": "G#5",
          "midi": 80,
          "time": 155.62500000000037,
          "velocity": 0.7086614173228346,
          "duration": 0.07499999999998863
        },
        {
          "name": "A#5",
          "midi": 82,
          "time": 155.62500000000037,
          "velocity": 0.7086614173228346,
          "duration": 0.07499999999998863
        },
        {
          "name": "G#3",
          "midi": 56,
          "time": 155.62500000000037,
          "velocity": 0.7086614173228346,
          "duration": 0.15000000000000568
        },
        {
          "name": "G#6",
          "midi": 92,
          "time": 155.71875000000037,
          "velocity": 0.7086614173228346,
          "duration": 0.07500000000001705
        },
        {
          "name": "G#5",
          "midi": 80,
          "time": 155.8125000000004,
          "velocity": 0.7086614173228346,
          "duration": 0.07499999999998863
        },
        {
          "name": "G#2",
          "midi": 44,
          "time": 155.8125000000004,
          "velocity": 0.7086614173228346,
          "duration": 0.15000000000000568
        },
        {
          "name": "G#6",
          "midi": 92,
          "time": 155.9062500000004,
          "velocity": 0.7086614173228346,
          "duration": 0.07500000000001705
        },
        {
          "name": "C4",
          "midi": 60,
          "time": 156.00000000000043,
          "velocity": 0.7086614173228346,
          "duration": 0.6000000000000512
        },
        {
          "name": "D#6",
          "midi": 87,
          "time": 156.00000000000043,
          "velocity": 0.7086614173228346,
          "duration": 0.07499999999998863
        },
        {
          "name": "G#5",
          "midi": 80,
          "time": 156.00000000000043,
          "velocity": 0.7086614173228346,
          "duration": 0.07499999999998863
        },
        {
          "name": "G#4",
          "midi": 68,
          "time": 156.00000000000043,
          "velocity": 0.7086614173228346,
          "duration": 0.6000000000000512
        },
        {
          "name": "D#4",
          "midi": 63,
          "time": 156.00000000000043,
          "velocity": 0.7086614173228346,
          "duration": 0.6000000000000512
        },
        {
          "name": "G#2",
          "midi": 44,
          "time": 156.00000000000043,
          "velocity": 0.7086614173228346,
          "duration": 0.30000000000001137
        },
        {
          "name": "G#6",
          "midi": 92,
          "time": 156.09375000000043,
          "velocity": 0.7086614173228346,
          "duration": 0.07499999999998863
        },
        {
          "name": "G#5",
          "midi": 80,
          "time": 156.18750000000043,
          "velocity": 0.7086614173228346,
          "duration": 0.07499999999998863
        },
        {
          "name": "G#6",
          "midi": 92,
          "time": 156.28125000000043,
          "velocity": 0.7086614173228346,
          "duration": 0.07500000000001705
        },
        {
          "name": "G#5",
          "midi": 80,
          "time": 156.37500000000045,
          "velocity": 0.7086614173228346,
          "duration": 0.07499999999998863
        },
        {
          "name": "G#3",
          "midi": 56,
          "time": 156.37500000000045,
          "velocity": 0.7086614173228346,
          "duration": 0.15000000000000568
        },
        {
          "name": "A#5",
          "midi": 82,
          "time": 156.37500000000045,
          "velocity": 0.7086614173228346,
          "duration": 0.07499999999998863
        },
        {
          "name": "G#6",
          "midi": 92,
          "time": 156.46875000000045,
          "velocity": 0.7086614173228346,
          "duration": 0.07500000000001705
        },
        {
          "name": "G#5",
          "midi": 80,
          "time": 156.56250000000048,
          "velocity": 0.7086614173228346,
          "duration": 0.07499999999998863
        },
        {
          "name": "G#2",
          "midi": 44,
          "time": 156.56250000000048,
          "velocity": 0.7086614173228346,
          "duration": 0.15000000000000568
        },
        {
          "name": "G#6",
          "midi": 92,
          "time": 156.65625000000048,
          "velocity": 0.7086614173228346,
          "duration": 0.07500000000001705
        },
        {
          "name": "G#2",
          "midi": 44,
          "time": 156.7500000000005,
          "velocity": 0.7086614173228346,
          "duration": 0.30000000000001137
        },
        {
          "name": "D#6",
          "midi": 87,
          "time": 156.7500000000005,
          "velocity": 0.7086614173228346,
          "duration": 0.07499999999998863
        },
        {
          "name": "G#5",
          "midi": 80,
          "time": 156.7500000000005,
          "velocity": 0.7086614173228346,
          "duration": 0.07499999999998863
        },
        {
          "name": "G#6",
          "midi": 92,
          "time": 156.8437500000005,
          "velocity": 0.7086614173228346,
          "duration": 0.07499999999998863
        },
        {
          "name": "C4",
          "midi": 60,
          "time": 156.9375000000005,
          "velocity": 0.7086614173228346,
          "duration": 0.15000000000000568
        },
        {
          "name": "G#5",
          "midi": 80,
          "time": 156.9375000000005,
          "velocity": 0.7086614173228346,
          "duration": 0.07499999999998863
        },
        {
          "name": "G#6",
          "midi": 92,
          "time": 157.0312500000005,
          "velocity": 0.7086614173228346,
          "duration": 0.07500000000001705
        },
        {
          "name": "G#5",
          "midi": 80,
          "time": 157.12500000000054,
          "velocity": 0.7086614173228346,
          "duration": 0.07499999999998863
        },
        {
          "name": "A#5",
          "midi": 82,
          "time": 157.12500000000054,
          "velocity": 0.7086614173228346,
          "duration": 0.07499999999998863
        },
        {
          "name": "G#3",
          "midi": 56,
          "time": 157.12500000000054,
          "velocity": 0.7086614173228346,
          "duration": 0.15000000000000568
        },
        {
          "name": "D#4",
          "midi": 63,
          "time": 157.12500000000054,
          "velocity": 0.7086614173228346,
          "duration": 0.15000000000000568
        },
        {
          "name": "G#6",
          "midi": 92,
          "time": 157.21875000000054,
          "velocity": 0.7086614173228346,
          "duration": 0.07500000000001705
        },
        {
          "name": "G#5",
          "midi": 80,
          "time": 157.31250000000057,
          "velocity": 0.7086614173228346,
          "duration": 0.07499999999998863
        },
        {
          "name": "G#2",
          "midi": 44,
          "time": 157.31250000000057,
          "velocity": 0.7086614173228346,
          "duration": 0.15000000000000568
        },
        {
          "name": "G#4",
          "midi": 68,
          "time": 157.31250000000057,
          "velocity": 0.7086614173228346,
          "duration": 0.15000000000000568
        },
        {
          "name": "G#6",
          "midi": 92,
          "time": 157.40625000000057,
          "velocity": 0.7086614173228346,
          "duration": 0.07500000000001705
        },
        {
          "name": "D#6",
          "midi": 87,
          "time": 157.5000000000006,
          "velocity": 0.7086614173228346,
          "duration": 0.07499999999998863
        },
        {
          "name": "G#2",
          "midi": 44,
          "time": 157.5000000000006,
          "velocity": 0.7086614173228346,
          "duration": 0.30000000000001137
        },
        {
          "name": "G#5",
          "midi": 80,
          "time": 157.5000000000006,
          "velocity": 0.7086614173228346,
          "duration": 0.07499999999998863
        },
        {
          "name": "C#4",
          "midi": 61,
          "time": 157.5000000000006,
          "velocity": 0.7086614173228346,
          "duration": 0.900000000000091
        },
        {
          "name": "F4",
          "midi": 65,
          "time": 157.5000000000006,
          "velocity": 0.7086614173228346,
          "duration": 0.900000000000091
        },
        {
          "name": "G#6",
          "midi": 92,
          "time": 157.5937500000006,
          "velocity": 0.7086614173228346,
          "duration": 0.07499999999998863
        },
        {
          "name": "G#5",
          "midi": 80,
          "time": 157.6875000000006,
          "velocity": 0.7086614173228346,
          "duration": 0.07499999999998863
        },
        {
          "name": "G#6",
          "midi": 92,
          "time": 157.7812500000006,
          "velocity": 0.7086614173228346,
          "duration": 0.07500000000001705
        },
        {
          "name": "G#3",
          "midi": 56,
          "time": 157.87500000000063,
          "velocity": 0.7086614173228346,
          "duration": 0.15000000000000568
        },
        {
          "name": "G#5",
          "midi": 80,
          "time": 157.87500000000063,
          "velocity": 0.7086614173228346,
          "duration": 0.07499999999998863
        },
        {
          "name": "A#5",
          "midi": 82,
          "time": 157.87500000000063,
          "velocity": 0.7086614173228346,
          "duration": 0.07499999999998863
        },
        {
          "name": "G#6",
          "midi": 92,
          "time": 157.96875000000063,
          "velocity": 0.7086614173228346,
          "duration": 0.07500000000001705
        },
        {
          "name": "G#5",
          "midi": 80,
          "time": 158.06250000000065,
          "velocity": 0.7086614173228346,
          "duration": 0.07499999999998863
        },
        {
          "name": "G#2",
          "midi": 44,
          "time": 158.06250000000065,
          "velocity": 0.7086614173228346,
          "duration": 0.15000000000000568
        },
        {
          "name": "G#6",
          "midi": 92,
          "time": 158.15625000000065,
          "velocity": 0.7086614173228346,
          "duration": 0.07500000000001705
        },
        {
          "name": "G#5",
          "midi": 80,
          "time": 158.25000000000068,
          "velocity": 0.7086614173228346,
          "duration": 0.07499999999998863
        },
        {
          "name": "D#6",
          "midi": 87,
          "time": 158.25000000000068,
          "velocity": 0.7086614173228346,
          "duration": 0.07499999999998863
        },
        {
          "name": "G#2",
          "midi": 44,
          "time": 158.25000000000068,
          "velocity": 0.7086614173228346,
          "duration": 0.15000000000000568
        },
        {
          "name": "G#6",
          "midi": 92,
          "time": 158.34375000000068,
          "velocity": 0.7086614173228346,
          "duration": 0.07500000000001705
        },
        {
          "name": "G#5",
          "midi": 80,
          "time": 158.4375000000007,
          "velocity": 0.7086614173228346,
          "duration": 0.07499999999998863
        },
        {
          "name": "D#3",
          "midi": 51,
          "time": 158.4375000000007,
          "velocity": 0.7086614173228346,
          "duration": 0.30000000000001137
        },
        {
          "name": "G4",
          "midi": 67,
          "time": 158.4375000000007,
          "velocity": 0.7086614173228346,
          "duration": 0.45000000000001705
        },
        {
          "name": "D#4",
          "midi": 63,
          "time": 158.4375000000007,
          "velocity": 0.7086614173228346,
          "duration": 0.45000000000001705
        },
        {
          "name": "A#3",
          "midi": 58,
          "time": 158.4375000000007,
          "velocity": 0.7086614173228346,
          "duration": 0.45000000000001705
        },
        {
          "name": "G#6",
          "midi": 92,
          "time": 158.5312500000007,
          "velocity": 0.7086614173228346,
          "duration": 0.07499999999998863
        },
        {
          "name": "G#5",
          "midi": 80,
          "time": 158.6250000000007,
          "velocity": 0.7086614173228346,
          "duration": 0.07499999999998863
        },
        {
          "name": "A#5",
          "midi": 82,
          "time": 158.6250000000007,
          "velocity": 0.7086614173228346,
          "duration": 0.07499999999998863
        },
        {
          "name": "G#6",
          "midi": 92,
          "time": 158.7187500000007,
          "velocity": 0.7086614173228346,
          "duration": 0.07500000000001705
        },
        {
          "name": "G#5",
          "midi": 80,
          "time": 158.81250000000074,
          "velocity": 0.7086614173228346,
          "duration": 0.07499999999998863
        },
        {
          "name": "G#2",
          "midi": 44,
          "time": 158.81250000000074,
          "velocity": 0.7086614173228346,
          "duration": 0.15000000000000568
        },
        {
          "name": "G#6",
          "midi": 92,
          "time": 158.90625000000074,
          "velocity": 0.7086614173228346,
          "duration": 0.07500000000001705
        },
        {
          "name": "G#2",
          "midi": 44,
          "time": 159.00000000000077,
          "velocity": 0.7086614173228346,
          "duration": 0.30000000000001137
        },
        {
          "name": "D#6",
          "midi": 87,
          "time": 159.00000000000077,
          "velocity": 0.7086614173228346,
          "duration": 0.07499999999998863
        },
        {
          "name": "G#5",
          "midi": 80,
          "time": 159.00000000000077,
          "velocity": 0.7086614173228346,
          "duration": 0.07499999999998863
        },
        {
          "name": "G#4",
          "midi": 68,
          "time": 159.00000000000077,
          "velocity": 0.7086614173228346,
          "duration": 0.900000000000091
        },
        {
          "name": "F4",
          "midi": 65,
          "time": 159.00000000000077,
          "velocity": 0.7086614173228346,
          "duration": 0.900000000000091
        },
        {
          "name": "C#4",
          "midi": 61,
          "time": 159.00000000000077,
          "velocity": 0.7086614173228346,
          "duration": 0.900000000000091
        },
        {
          "name": "G#6",
          "midi": 92,
          "time": 159.09375000000077,
          "velocity": 0.7086614173228346,
          "duration": 0.07499999999998863
        },
        {
          "name": "G#5",
          "midi": 80,
          "time": 159.18750000000077,
          "velocity": 0.7086614173228346,
          "duration": 0.07499999999998863
        },
        {
          "name": "G#6",
          "midi": 92,
          "time": 159.28125000000077,
          "velocity": 0.7086614173228346,
          "duration": 0.07500000000001705
        },
        {
          "name": "G#3",
          "midi": 56,
          "time": 159.3750000000008,
          "velocity": 0.7086614173228346,
          "duration": 0.15000000000000568
        },
        {
          "name": "A#5",
          "midi": 82,
          "time": 159.3750000000008,
          "velocity": 0.7086614173228346,
          "duration": 0.07499999999998863
        },
        {
          "name": "G#5",
          "midi": 80,
          "time": 159.3750000000008,
          "velocity": 0.7086614173228346,
          "duration": 0.07499999999998863
        },
        {
          "name": "G#6",
          "midi": 92,
          "time": 159.4687500000008,
          "velocity": 0.7086614173228346,
          "duration": 0.07500000000001705
        },
        {
          "name": "G#5",
          "midi": 80,
          "time": 159.56250000000082,
          "velocity": 0.7086614173228346,
          "duration": 0.07499999999998863
        },
        {
          "name": "G#2",
          "midi": 44,
          "time": 159.56250000000082,
          "velocity": 0.7086614173228346,
          "duration": 0.15000000000000568
        },
        {
          "name": "G#6",
          "midi": 92,
          "time": 159.65625000000082,
          "velocity": 0.7086614173228346,
          "duration": 0.07500000000001705
        },
        {
          "name": "G#5",
          "midi": 80,
          "time": 159.75000000000085,
          "velocity": 0.7086614173228346,
          "duration": 0.07499999999998863
        },
        {
          "name": "G#2",
          "midi": 44,
          "time": 159.75000000000085,
          "velocity": 0.7086614173228346,
          "duration": 0.3000000000000398
        },
        {
          "name": "D#6",
          "midi": 87,
          "time": 159.75000000000085,
          "velocity": 0.7086614173228346,
          "duration": 0.07499999999998863
        },
        {
          "name": "G#6",
          "midi": 92,
          "time": 159.84375000000085,
          "velocity": 0.7086614173228346,
          "duration": 0.07500000000001705
        },
        {
          "name": "G#5",
          "midi": 80,
          "time": 159.93750000000088,
          "velocity": 0.7086614173228346,
          "duration": 0.07499999999998863
        },
        {
          "name": "G#6",
          "midi": 92,
          "time": 160.03125000000088,
          "velocity": 0.7086614173228346,
          "duration": 0.07500000000001705
        },
        {
          "name": "C#4",
          "midi": 61,
          "time": 160.1250000000009,
          "velocity": 0.7086614173228346,
          "duration": 0.3000000000000398
        },
        {
          "name": "F4",
          "midi": 65,
          "time": 160.1250000000009,
          "velocity": 0.7086614173228346,
          "duration": 0.3000000000000398
        },
        {
          "name": "G#4",
          "midi": 68,
          "time": 160.1250000000009,
          "velocity": 0.7086614173228346,
          "duration": 0.3000000000000398
        },
        {
          "name": "G#5",
          "midi": 80,
          "time": 160.1250000000009,
          "velocity": 0.7086614173228346,
          "duration": 0.07499999999998863
        },
        {
          "name": "A#5",
          "midi": 82,
          "time": 160.1250000000009,
          "velocity": 0.7086614173228346,
          "duration": 0.07499999999998863
        },
        {
          "name": "G#3",
          "midi": 56,
          "time": 160.1250000000009,
          "velocity": 0.7086614173228346,
          "duration": 0.15000000000000568
        },
        {
          "name": "G#6",
          "midi": 92,
          "time": 160.2187500000009,
          "velocity": 0.7086614173228346,
          "duration": 0.07500000000001705
        },
        {
          "name": "G#5",
          "midi": 80,
          "time": 160.31250000000094,
          "velocity": 0.7086614173228346,
          "duration": 0.07499999999998863
        },
        {
          "name": "G#2",
          "midi": 44,
          "time": 160.31250000000094,
          "velocity": 0.7086614173228346,
          "duration": 0.15000000000000568
        },
        {
          "name": "G#6",
          "midi": 92,
          "time": 160.40625000000094,
          "velocity": 0.7086614173228346,
          "duration": 0.07500000000001705
        },
        {
          "name": "G#2",
          "midi": 44,
          "time": 160.50000000000097,
          "velocity": 0.7086614173228346,
          "duration": 0.30000000000001137
        },
        {
          "name": "D#6",
          "midi": 87,
          "time": 160.50000000000097,
          "velocity": 0.7086614173228346,
          "duration": 0.07499999999998863
        },
        {
          "name": "G#5",
          "midi": 80,
          "time": 160.50000000000097,
          "velocity": 0.7086614173228346,
          "duration": 0.07499999999998863
        },
        {
          "name": "A#3",
          "midi": 58,
          "time": 160.50000000000097,
          "velocity": 0.7086614173228346,
          "duration": 0.900000000000091
        },
        {
          "name": "G4",
          "midi": 67,
          "time": 160.50000000000097,
          "velocity": 0.7086614173228346,
          "duration": 0.900000000000091
        },
        {
          "name": "D#4",
          "midi": 63,
          "time": 160.50000000000097,
          "velocity": 0.7086614173228346,
          "duration": 0.900000000000091
        },
        {
          "name": "G#6",
          "midi": 92,
          "time": 160.59375000000097,
          "velocity": 0.7086614173228346,
          "duration": 0.07499999999998863
        },
        {
          "name": "G#5",
          "midi": 80,
          "time": 160.68750000000097,
          "velocity": 0.7086614173228346,
          "duration": 0.07499999999998863
        },
        {
          "name": "G#6",
          "midi": 92,
          "time": 160.78125000000097,
          "velocity": 0.7086614173228346,
          "duration": 0.07500000000001705
        },
        {
          "name": "A#5",
          "midi": 82,
          "time": 160.875000000001,
          "velocity": 0.7086614173228346,
          "duration": 0.07499999999998863
        },
        {
          "name": "G#3",
          "midi": 56,
          "time": 160.875000000001,
          "velocity": 0.7086614173228346,
          "duration": 0.15000000000000568
        },
        {
          "name": "G#5",
          "midi": 80,
          "time": 160.875000000001,
          "velocity": 0.7086614173228346,
          "duration": 0.07499999999998863
        },
        {
          "name": "G#6",
          "midi": 92,
          "time": 160.968750000001,
          "velocity": 0.7086614173228346,
          "duration": 0.07500000000001705
        },
        {
          "name": "G#5",
          "midi": 80,
          "time": 161.06250000000102,
          "velocity": 0.7086614173228346,
          "duration": 0.07499999999998863
        },
        {
          "name": "G#2",
          "midi": 44,
          "time": 161.06250000000102,
          "velocity": 0.7086614173228346,
          "duration": 0.15000000000000568
        },
        {
          "name": "G#6",
          "midi": 92,
          "time": 161.15625000000102,
          "velocity": 0.7086614173228346,
          "duration": 0.07500000000001705
        },
        {
          "name": "G#2",
          "midi": 44,
          "time": 161.25000000000105,
          "velocity": 0.7086614173228346,
          "duration": 0.3000000000000398
        },
        {
          "name": "G#5",
          "midi": 80,
          "time": 161.25000000000105,
          "velocity": 0.7086614173228346,
          "duration": 0.07499999999998863
        },
        {
          "name": "D#6",
          "midi": 87,
          "time": 161.25000000000105,
          "velocity": 0.7086614173228346,
          "duration": 0.07499999999998863
        },
        {
          "name": "G#6",
          "midi": 92,
          "time": 161.34375000000105,
          "velocity": 0.7086614173228346,
          "duration": 0.07500000000001705
        },
        {
          "name": "A#3",
          "midi": 58,
          "time": 161.43750000000108,
          "velocity": 0.7086614173228346,
          "duration": 0.15000000000000568
        },
        {
          "name": "G#5",
          "midi": 80,
          "time": 161.43750000000108,
          "velocity": 0.7086614173228346,
          "duration": 0.07499999999998863
        },
        {
          "name": "G#6",
          "midi": 92,
          "time": 161.53125000000108,
          "velocity": 0.7086614173228346,
          "duration": 0.07500000000001705
        },
        {
          "name": "D#4",
          "midi": 63,
          "time": 161.6250000000011,
          "velocity": 0.7086614173228346,
          "duration": 0.3000000000000398
        },
        {
          "name": "G4",
          "midi": 67,
          "time": 161.6250000000011,
          "velocity": 0.7086614173228346,
          "duration": 0.3000000000000398
        },
        {
          "name": "G#5",
          "midi": 80,
          "time": 161.6250000000011,
          "velocity": 0.7086614173228346,
          "duration": 0.07499999999998863
        },
        {
          "name": "A#5",
          "midi": 82,
          "time": 161.6250000000011,
          "velocity": 0.7086614173228346,
          "duration": 0.07499999999998863
        },
        {
          "name": "G#3",
          "midi": 56,
          "time": 161.6250000000011,
          "velocity": 0.7086614173228346,
          "duration": 0.15000000000000568
        },
        {
          "name": "G#6",
          "midi": 92,
          "time": 161.7187500000011,
          "velocity": 0.7086614173228346,
          "duration": 0.07500000000001705
        },
        {
          "name": "G#5",
          "midi": 80,
          "time": 161.81250000000114,
          "velocity": 0.7086614173228346,
          "duration": 0.07499999999998863
        },
        {
          "name": "G#2",
          "midi": 44,
          "time": 161.81250000000114,
          "velocity": 0.7086614173228346,
          "duration": 0.15000000000000568
        },
        {
          "name": "G#6",
          "midi": 92,
          "time": 161.90625000000114,
          "velocity": 0.7086614173228346,
          "duration": 0.07500000000001705
        },
        {
          "name": "G#4",
          "midi": 68,
          "time": 162.00000000000117,
          "velocity": 0.7086614173228346,
          "duration": 0.6000000000000512
        },
        {
          "name": "D#6",
          "midi": 87,
          "time": 162.00000000000117,
          "velocity": 0.7086614173228346,
          "duration": 0.07499999999998863
        },
        {
          "name": "G#5",
          "midi": 80,
          "time": 162.00000000000117,
          "velocity": 0.7086614173228346,
          "duration": 0.07499999999998863
        },
        {
          "name": "D#4",
          "midi": 63,
          "time": 162.00000000000117,
          "velocity": 0.7086614173228346,
          "duration": 0.6000000000000512
        },
        {
          "name": "G#2",
          "midi": 44,
          "time": 162.00000000000117,
          "velocity": 0.7086614173228346,
          "duration": 0.30000000000001137
        },
        {
          "name": "C4",
          "midi": 60,
          "time": 162.00000000000117,
          "velocity": 0.7086614173228346,
          "duration": 0.6000000000000512
        },
        {
          "name": "G#6",
          "midi": 92,
          "time": 162.09375000000117,
          "velocity": 0.7086614173228346,
          "duration": 0.07499999999998863
        },
        {
          "name": "G#5",
          "midi": 80,
          "time": 162.18750000000117,
          "velocity": 0.7086614173228346,
          "duration": 0.07499999999998863
        },
        {
          "name": "G#6",
          "midi": 92,
          "time": 162.28125000000117,
          "velocity": 0.7086614173228346,
          "duration": 0.07500000000001705
        },
        {
          "name": "G#5",
          "midi": 80,
          "time": 162.3750000000012,
          "velocity": 0.7086614173228346,
          "duration": 0.07499999999998863
        },
        {
          "name": "G#3",
          "midi": 56,
          "time": 162.3750000000012,
          "velocity": 0.7086614173228346,
          "duration": 0.15000000000000568
        },
        {
          "name": "A#5",
          "midi": 82,
          "time": 162.3750000000012,
          "velocity": 0.7086614173228346,
          "duration": 0.07499999999998863
        },
        {
          "name": "G#6",
          "midi": 92,
          "time": 162.4687500000012,
          "velocity": 0.7086614173228346,
          "duration": 0.07500000000001705
        },
        {
          "name": "G#5",
          "midi": 80,
          "time": 162.56250000000122,
          "velocity": 0.7086614173228346,
          "duration": 0.07499999999998863
        },
        {
          "name": "G#2",
          "midi": 44,
          "time": 162.56250000000122,
          "velocity": 0.7086614173228346,
          "duration": 0.15000000000000568
        },
        {
          "name": "G#6",
          "midi": 92,
          "time": 162.65625000000122,
          "velocity": 0.7086614173228346,
          "duration": 0.07500000000001705
        },
        {
          "name": "G#2",
          "midi": 44,
          "time": 162.75000000000125,
          "velocity": 0.7086614173228346,
          "duration": 0.30000000000001137
        },
        {
          "name": "G#5",
          "midi": 80,
          "time": 162.75000000000125,
          "velocity": 0.7086614173228346,
          "duration": 0.07499999999998863
        },
        {
          "name": "D#6",
          "midi": 87,
          "time": 162.75000000000125,
          "velocity": 0.7086614173228346,
          "duration": 0.07499999999998863
        },
        {
          "name": "G#6",
          "midi": 92,
          "time": 162.84375000000125,
          "velocity": 0.7086614173228346,
          "duration": 0.07499999999998863
        },
        {
          "name": "C4",
          "midi": 60,
          "time": 162.93750000000125,
          "velocity": 0.7086614173228346,
          "duration": 0.15000000000000568
        },
        {
          "name": "G#5",
          "midi": 80,
          "time": 162.93750000000125,
          "velocity": 0.7086614173228346,
          "duration": 0.07499999999998863
        },
        {
          "name": "G#6",
          "midi": 92,
          "time": 163.03125000000125,
          "velocity": 0.7086614173228346,
          "duration": 0.07500000000001705
        },
        {
          "name": "G#5",
          "midi": 80,
          "time": 163.12500000000128,
          "velocity": 0.7086614173228346,
          "duration": 0.07499999999998863
        },
        {
          "name": "A#5",
          "midi": 82,
          "time": 163.12500000000128,
          "velocity": 0.7086614173228346,
          "duration": 0.07499999999998863
        },
        {
          "name": "D#4",
          "midi": 63,
          "time": 163.12500000000128,
          "velocity": 0.7086614173228346,
          "duration": 0.15000000000000568
        },
        {
          "name": "G#3",
          "midi": 56,
          "time": 163.12500000000128,
          "velocity": 0.7086614173228346,
          "duration": 0.15000000000000568
        },
        {
          "name": "G#6",
          "midi": 92,
          "time": 163.21875000000128,
          "velocity": 0.7086614173228346,
          "duration": 0.07500000000001705
        },
        {
          "name": "G#5",
          "midi": 80,
          "time": 163.3125000000013,
          "velocity": 0.7086614173228346,
          "duration": 0.07499999999998863
        },
        {
          "name": "G#4",
          "midi": 68,
          "time": 163.3125000000013,
          "velocity": 0.7086614173228346,
          "duration": 0.15000000000000568
        },
        {
          "name": "G#2",
          "midi": 44,
          "time": 163.3125000000013,
          "velocity": 0.7086614173228346,
          "duration": 0.15000000000000568
        },
        {
          "name": "G#6",
          "midi": 92,
          "time": 163.4062500000013,
          "velocity": 0.7086614173228346,
          "duration": 0.07500000000001705
        },
        {
          "name": "G#2",
          "midi": 44,
          "time": 163.50000000000134,
          "velocity": 0.7086614173228346,
          "duration": 0.30000000000001137
        },
        {
          "name": "D#6",
          "midi": 87,
          "time": 163.50000000000134,
          "velocity": 0.7086614173228346,
          "duration": 0.07499999999998863
        },
        {
          "name": "G#5",
          "midi": 80,
          "time": 163.50000000000134,
          "velocity": 0.7086614173228346,
          "duration": 0.07499999999998863
        },
        {
          "name": "F4",
          "midi": 65,
          "time": 163.50000000000134,
          "velocity": 0.7086614173228346,
          "duration": 0.900000000000091
        },
        {
          "name": "C#4",
          "midi": 61,
          "time": 163.50000000000134,
          "velocity": 0.7086614173228346,
          "duration": 0.900000000000091
        },
        {
          "name": "G#6",
          "midi": 92,
          "time": 163.59375000000134,
          "velocity": 0.7086614173228346,
          "duration": 0.07499999999998863
        },
        {
          "name": "G#5",
          "midi": 80,
          "time": 163.68750000000134,
          "velocity": 0.7086614173228346,
          "duration": 0.07499999999998863
        },
        {
          "name": "G#6",
          "midi": 92,
          "time": 163.78125000000134,
          "velocity": 0.7086614173228346,
          "duration": 0.07500000000001705
        },
        {
          "name": "G#3",
          "midi": 56,
          "time": 163.87500000000136,
          "velocity": 0.7086614173228346,
          "duration": 0.15000000000000568
        },
        {
          "name": "A#5",
          "midi": 82,
          "time": 163.87500000000136,
          "velocity": 0.7086614173228346,
          "duration": 0.07499999999998863
        },
        {
          "name": "G#5",
          "midi": 80,
          "time": 163.87500000000136,
          "velocity": 0.7086614173228346,
          "duration": 0.07499999999998863
        },
        {
          "name": "G#6",
          "midi": 92,
          "time": 163.96875000000136,
          "velocity": 0.7086614173228346,
          "duration": 0.07500000000001705
        },
        {
          "name": "G#5",
          "midi": 80,
          "time": 164.0625000000014,
          "velocity": 0.7086614173228346,
          "duration": 0.07499999999998863
        },
        {
          "name": "G#2",
          "midi": 44,
          "time": 164.0625000000014,
          "velocity": 0.7086614173228346,
          "duration": 0.15000000000000568
        },
        {
          "name": "G#6",
          "midi": 92,
          "time": 164.1562500000014,
          "velocity": 0.7086614173228346,
          "duration": 0.07500000000001705
        },
        {
          "name": "G#5",
          "midi": 80,
          "time": 164.25000000000142,
          "velocity": 0.7086614173228346,
          "duration": 0.07499999999998863
        },
        {
          "name": "D#6",
          "midi": 87,
          "time": 164.25000000000142,
          "velocity": 0.7086614173228346,
          "duration": 0.07499999999998863
        },
        {
          "name": "G#2",
          "midi": 44,
          "time": 164.25000000000142,
          "velocity": 0.7086614173228346,
          "duration": 0.15000000000000568
        },
        {
          "name": "G#6",
          "midi": 92,
          "time": 164.34375000000142,
          "velocity": 0.7086614173228346,
          "duration": 0.07500000000001705
        },
        {
          "name": "G#5",
          "midi": 80,
          "time": 164.43750000000145,
          "velocity": 0.7086614173228346,
          "duration": 0.07499999999998863
        },
        {
          "name": "D#3",
          "midi": 51,
          "time": 164.43750000000145,
          "velocity": 0.7086614173228346,
          "duration": 0.30000000000001137
        },
        {
          "name": "G4",
          "midi": 67,
          "time": 164.43750000000145,
          "velocity": 0.7086614173228346,
          "duration": 0.45000000000001705
        },
        {
          "name": "A#3",
          "midi": 58,
          "time": 164.43750000000145,
          "velocity": 0.7086614173228346,
          "duration": 0.45000000000001705
        },
        {
          "name": "D#4",
          "midi": 63,
          "time": 164.43750000000145,
          "velocity": 0.7086614173228346,
          "duration": 0.45000000000001705
        },
        {
          "name": "G#6",
          "midi": 92,
          "time": 164.53125000000145,
          "velocity": 0.7086614173228346,
          "duration": 0.07499999999998863
        },
        {
          "name": "G#5",
          "midi": 80,
          "time": 164.62500000000145,
          "velocity": 0.7086614173228346,
          "duration": 0.07499999999998863
        },
        {
          "name": "A#5",
          "midi": 82,
          "time": 164.62500000000145,
          "velocity": 0.7086614173228346,
          "duration": 0.07499999999998863
        },
        {
          "name": "G#6",
          "midi": 92,
          "time": 164.71875000000145,
          "velocity": 0.7086614173228346,
          "duration": 0.07500000000001705
        },
        {
          "name": "G#5",
          "midi": 80,
          "time": 164.81250000000148,
          "velocity": 0.7086614173228346,
          "duration": 0.07499999999998863
        },
        {
          "name": "G#2",
          "midi": 44,
          "time": 164.81250000000148,
          "velocity": 0.7086614173228346,
          "duration": 0.15000000000000568
        },
        {
          "name": "G#6",
          "midi": 92,
          "time": 164.90625000000148,
          "velocity": 0.7086614173228346,
          "duration": 0.07500000000001705
        },
        {
          "name": "C4",
          "midi": 60,
          "time": 165.0000000000015,
          "velocity": 0.7086614173228346,
          "duration": 0.9000000000000057
        },
        {
          "name": "F4",
          "midi": 65,
          "time": 165.0000000000015,
          "velocity": 0.7086614173228346,
          "duration": 0.9000000000000057
        },
        {
          "name": "F2",
          "midi": 41,
          "time": 165.0000000000015,
          "velocity": 0.7086614173228346,
          "duration": 0.30000000000001137
        },
        {
          "name": "F5",
          "midi": 77,
          "time": 165.0000000000015,
          "velocity": 0.7086614173228346,
          "duration": 0.30000000000001137
        },
        {
          "name": "A3",
          "midi": 57,
          "time": 165.0000000000015,
          "velocity": 0.7086614173228346,
          "duration": 0.9000000000000057
        },
        {
          "name": "F3",
          "midi": 53,
          "time": 165.3750000000015,
          "velocity": 0.7086614173228346,
          "duration": 0.15000000000000568
        },
        {
          "name": "E5",
          "midi": 76,
          "time": 165.3750000000015,
          "velocity": 0.7086614173228346,
          "duration": 0.30000000000001137
        },
        {
          "name": "F2",
          "midi": 41,
          "time": 165.5625000000015,
          "velocity": 0.7086614173228346,
          "duration": 0.15000000000000568
        },
        {
          "name": "F2",
          "midi": 41,
          "time": 165.7500000000015,
          "velocity": 0.7086614173228346,
          "duration": 0.30000000000001137
        },
        {
          "name": "D5",
          "midi": 74,
          "time": 165.7500000000015,
          "velocity": 0.7086614173228346,
          "duration": 0.30000000000001137
        },
        {
          "name": "F3",
          "midi": 53,
          "time": 166.1250000000015,
          "velocity": 0.7086614173228346,
          "duration": 0.15000000000000568
        },
        {
          "name": "F4",
          "midi": 65,
          "time": 166.1250000000015,
          "velocity": 0.7086614173228346,
          "duration": 0.30000000000001137
        },
        {
          "name": "A3",
          "midi": 57,
          "time": 166.1250000000015,
          "velocity": 0.7086614173228346,
          "duration": 0.30000000000001137
        },
        {
          "name": "C5",
          "midi": 72,
          "time": 166.1250000000015,
          "velocity": 0.7086614173228346,
          "duration": 0.30000000000001137
        },
        {
          "name": "C4",
          "midi": 60,
          "time": 166.1250000000015,
          "velocity": 0.7086614173228346,
          "duration": 0.30000000000001137
        },
        {
          "name": "F2",
          "midi": 41,
          "time": 166.3125000000015,
          "velocity": 0.7086614173228346,
          "duration": 0.15000000000000568
        },
        {
          "name": "E4",
          "midi": 64,
          "time": 166.5000000000015,
          "velocity": 0.7086614173228346,
          "duration": 0.5999999999999659
        },
        {
          "name": "F2",
          "midi": 41,
          "time": 166.5000000000015,
          "velocity": 0.7086614173228346,
          "duration": 0.30000000000001137
        },
        {
          "name": "C5",
          "midi": 72,
          "time": 166.5000000000015,
          "velocity": 0.7086614173228346,
          "duration": 0.44999999999998863
        },
        {
          "name": "G3",
          "midi": 55,
          "time": 166.5000000000015,
          "velocity": 0.7086614173228346,
          "duration": 0.5999999999999659
        },
        {
          "name": "C4",
          "midi": 60,
          "time": 166.5000000000015,
          "velocity": 0.7086614173228346,
          "duration": 0.5999999999999659
        },
        {
          "name": "F3",
          "midi": 53,
          "time": 166.8750000000015,
          "velocity": 0.7086614173228346,
          "duration": 0.14999999999997726
        },
        {
          "name": "A#4",
          "midi": 70,
          "time": 167.06250000000148,
          "velocity": 0.7086614173228346,
          "duration": 0.15000000000000568
        },
        {
          "name": "F2",
          "midi": 41,
          "time": 167.06250000000148,
          "velocity": 0.7086614173228346,
          "duration": 0.15000000000000568
        },
        {
          "name": "F2",
          "midi": 41,
          "time": 167.25000000000148,
          "velocity": 0.7086614173228346,
          "duration": 0.30000000000001137
        },
        {
          "name": "A4",
          "midi": 69,
          "time": 167.25000000000148,
          "velocity": 0.7086614173228346,
          "duration": 0.30000000000001137
        },
        {
          "name": "G3",
          "midi": 55,
          "time": 167.43750000000148,
          "velocity": 0.7086614173228346,
          "duration": 0.15000000000000568
        },
        {
          "name": "F3",
          "midi": 53,
          "time": 167.62500000000148,
          "velocity": 0.7086614173228346,
          "duration": 0.15000000000000568
        },
        {
          "name": "C4",
          "midi": 60,
          "time": 167.62500000000148,
          "velocity": 0.7086614173228346,
          "duration": 0.30000000000001137
        },
        {
          "name": "F5",
          "midi": 77,
          "time": 167.62500000000148,
          "velocity": 0.7086614173228346,
          "duration": 0.30000000000001137
        },
        {
          "name": "E4",
          "midi": 64,
          "time": 167.62500000000148,
          "velocity": 0.7086614173228346,
          "duration": 0.30000000000001137
        },
        {
          "name": "F2",
          "midi": 41,
          "time": 167.81250000000148,
          "velocity": 0.7086614173228346,
          "duration": 0.15000000000000568
        },
        {
          "name": "C4",
          "midi": 60,
          "time": 168.00000000000148,
          "velocity": 0.7086614173228346,
          "duration": 0.5999999999999943
        },
        {
          "name": "A3",
          "midi": 57,
          "time": 168.00000000000148,
          "velocity": 0.7086614173228346,
          "duration": 0.5999999999999943
        },
        {
          "name": "F4",
          "midi": 65,
          "time": 168.00000000000148,
          "velocity": 0.7086614173228346,
          "duration": 0.5999999999999943
        },
        {
          "name": "F2",
          "midi": 41,
          "time": 168.00000000000148,
          "velocity": 0.7086614173228346,
          "duration": 0.30000000000001137
        },
        {
          "name": "F5",
          "midi": 77,
          "time": 168.00000000000148,
          "velocity": 0.7086614173228346,
          "duration": 0.30000000000001137
        },
        {
          "name": "F3",
          "midi": 53,
          "time": 168.37500000000148,
          "velocity": 0.7086614173228346,
          "duration": 0.15000000000000568
        },
        {
          "name": "E5",
          "midi": 76,
          "time": 168.37500000000148,
          "velocity": 0.7086614173228346,
          "duration": 0.29999999999998295
        },
        {
          "name": "F2",
          "midi": 41,
          "time": 168.56250000000148,
          "velocity": 0.7086614173228346,
          "duration": 0.14999999999997726
        },
        {
          "name": "D5",
          "midi": 74,
          "time": 168.75000000000145,
          "velocity": 0.7086614173228346,
          "duration": 0.30000000000001137
        },
        {
          "name": "F2",
          "midi": 41,
          "time": 168.75000000000145,
          "velocity": 0.7086614173228346,
          "duration": 0.30000000000001137
        },
        {
          "name": "A3",
          "midi": 57,
          "time": 168.93750000000145,
          "velocity": 0.7086614173228346,
          "duration": 0.15000000000000568
        },
        {
          "name": "C5",
          "midi": 72,
          "time": 169.12500000000145,
          "velocity": 0.7086614173228346,
          "duration": 0.15000000000000568
        },
        {
          "name": "F3",
          "midi": 53,
          "time": 169.12500000000145,
          "velocity": 0.7086614173228346,
          "duration": 0.15000000000000568
        },
        {
          "name": "C4",
          "midi": 60,
          "time": 169.12500000000145,
          "velocity": 0.7086614173228346,
          "duration": 0.15000000000000568
        },
        {
          "name": "C5",
          "midi": 72,
          "time": 169.31250000000145,
          "velocity": 0.7086614173228346,
          "duration": 0.07499999999998863
        },
        {
          "name": "F2",
          "midi": 41,
          "time": 169.31250000000145,
          "velocity": 0.7086614173228346,
          "duration": 0.15000000000000568
        },
        {
          "name": "F4",
          "midi": 65,
          "time": 169.31250000000145,
          "velocity": 0.7086614173228346,
          "duration": 0.15000000000000568
        },
        {
          "name": "D5",
          "midi": 74,
          "time": 169.40625000000145,
          "velocity": 0.7086614173228346,
          "duration": 0.07500000000001705
        },
        {
          "name": "A#3",
          "midi": 58,
          "time": 169.50000000000148,
          "velocity": 0.7086614173228346,
          "duration": 0.8999999999999773
        },
        {
          "name": "D4",
          "midi": 62,
          "time": 169.50000000000148,
          "velocity": 0.7086614173228346,
          "duration": 0.8999999999999773
        },
        {
          "name": "C5",
          "midi": 72,
          "time": 169.50000000000148,
          "velocity": 0.7086614173228346,
          "duration": 0.44999999999998863
        },
        {
          "name": "F2",
          "midi": 41,
          "time": 169.50000000000148,
          "velocity": 0.7086614173228346,
          "duration": 0.30000000000001137
        },
        {
          "name": "F3",
          "midi": 53,
          "time": 169.87500000000148,
          "velocity": 0.7086614173228346,
          "duration": 0.14999999999997726
        },
        {
          "name": "F2",
          "midi": 41,
          "time": 170.06250000000145,
          "velocity": 0.7086614173228346,
          "duration": 0.15000000000000568
        },
        {
          "name": "A#4",
          "midi": 70,
          "time": 170.06250000000145,
          "velocity": 0.7086614173228346,
          "duration": 0.15000000000000568
        },
        {
          "name": "A4",
          "midi": 69,
          "time": 170.25000000000145,
          "velocity": 0.7086614173228346,
          "duration": 0.30000000000001137
        },
        {
          "name": "F2",
          "midi": 41,
          "time": 170.25000000000145,
          "velocity": 0.7086614173228346,
          "duration": 0.15000000000000568
        },
        {
          "name": "C3",
          "midi": 48,
          "time": 170.43750000000145,
          "velocity": 0.7086614173228346,
          "duration": 0.30000000000001137
        },
        {
          "name": "C4",
          "midi": 60,
          "time": 170.43750000000145,
          "velocity": 0.7086614173228346,
          "duration": 0.44999999999998863
        },
        {
          "name": "G3",
          "midi": 55,
          "time": 170.43750000000145,
          "velocity": 0.7086614173228346,
          "duration": 0.44999999999998863
        },
        {
          "name": "E4",
          "midi": 64,
          "time": 170.43750000000145,
          "velocity": 0.7086614173228346,
          "duration": 0.44999999999998863
        },
        {
          "name": "F4",
          "midi": 65,
          "time": 170.62500000000145,
          "velocity": 0.7086614173228346,
          "duration": 0.29999999999998295
        },
        {
          "name": "F2",
          "midi": 41,
          "time": 170.81250000000145,
          "velocity": 0.7086614173228346,
          "duration": 0.14999999999997726
        },
        {
          "name": "F4",
          "midi": 65,
          "time": 171.00000000000142,
          "velocity": 0.7086614173228346,
          "duration": 0.9000000000000057
        },
        {
          "name": "F5",
          "midi": 77,
          "time": 171.00000000000142,
          "velocity": 0.7086614173228346,
          "duration": 0.30000000000001137
        },
        {
          "name": "F2",
          "midi": 41,
          "time": 171.00000000000142,
          "velocity": 0.7086614173228346,
          "duration": 0.30000000000001137
        },
        {
          "name": "A3",
          "midi": 57,
          "time": 171.00000000000142,
          "velocity": 0.7086614173228346,
          "duration": 0.9000000000000057
        },
        {
          "name": "C4",
          "midi": 60,
          "time": 171.00000000000142,
          "velocity": 0.7086614173228346,
          "duration": 0.9000000000000057
        },
        {
          "name": "F3",
          "midi": 53,
          "time": 171.37500000000142,
          "velocity": 0.7086614173228346,
          "duration": 0.15000000000000568
        },
        {
          "name": "E5",
          "midi": 76,
          "time": 171.37500000000142,
          "velocity": 0.7086614173228346,
          "duration": 0.30000000000001137
        },
        {
          "name": "F2",
          "midi": 41,
          "time": 171.56250000000142,
          "velocity": 0.7086614173228346,
          "duration": 0.15000000000000568
        },
        {
          "name": "D5",
          "midi": 74,
          "time": 171.75000000000142,
          "velocity": 0.7086614173228346,
          "duration": 0.30000000000001137
        },
        {
          "name": "F2",
          "midi": 41,
          "time": 171.75000000000142,
          "velocity": 0.7086614173228346,
          "duration": 0.30000000000001137
        },
        {
          "name": "F3",
          "midi": 53,
          "time": 172.12500000000142,
          "velocity": 0.7086614173228346,
          "duration": 0.15000000000000568
        },
        {
          "name": "F4",
          "midi": 65,
          "time": 172.12500000000142,
          "velocity": 0.7086614173228346,
          "duration": 0.30000000000001137
        },
        {
          "name": "C5",
          "midi": 72,
          "time": 172.12500000000142,
          "velocity": 0.7086614173228346,
          "duration": 0.30000000000001137
        },
        {
          "name": "A3",
          "midi": 57,
          "time": 172.12500000000142,
          "velocity": 0.7086614173228346,
          "duration": 0.30000000000001137
        },
        {
          "name": "C4",
          "midi": 60,
          "time": 172.12500000000142,
          "velocity": 0.7086614173228346,
          "duration": 0.30000000000001137
        },
        {
          "name": "F2",
          "midi": 41,
          "time": 172.31250000000142,
          "velocity": 0.7086614173228346,
          "duration": 0.15000000000000568
        },
        {
          "name": "F2",
          "midi": 41,
          "time": 172.50000000000142,
          "velocity": 0.7086614173228346,
          "duration": 0.30000000000001137
        },
        {
          "name": "C5",
          "midi": 72,
          "time": 172.50000000000142,
          "velocity": 0.7086614173228346,
          "duration": 0.44999999999998863
        },
        {
          "name": "G3",
          "midi": 55,
          "time": 172.50000000000142,
          "velocity": 0.7086614173228346,
          "duration": 0.5999999999999659
        },
        {
          "name": "E4",
          "midi": 64,
          "time": 172.50000000000142,
          "velocity": 0.7086614173228346,
          "duration": 0.5999999999999659
        },
        {
          "name": "C4",
          "midi": 60,
          "time": 172.50000000000142,
          "velocity": 0.7086614173228346,
          "duration": 0.5999999999999659
        },
        {
          "name": "F3",
          "midi": 53,
          "time": 172.87500000000142,
          "velocity": 0.7086614173228346,
          "duration": 0.14999999999997726
        },
        {
          "name": "F2",
          "midi": 41,
          "time": 173.0625000000014,
          "velocity": 0.7086614173228346,
          "duration": 0.15000000000000568
        },
        {
          "name": "A#4",
          "midi": 70,
          "time": 173.0625000000014,
          "velocity": 0.7086614173228346,
          "duration": 0.15000000000000568
        },
        {
          "name": "F2",
          "midi": 41,
          "time": 173.2500000000014,
          "velocity": 0.7086614173228346,
          "duration": 0.30000000000001137
        },
        {
          "name": "A4",
          "midi": 69,
          "time": 173.2500000000014,
          "velocity": 0.7086614173228346,
          "duration": 0.30000000000001137
        },
        {
          "name": "G3",
          "midi": 55,
          "time": 173.4375000000014,
          "velocity": 0.7086614173228346,
          "duration": 0.15000000000000568
        },
        {
          "name": "F3",
          "midi": 53,
          "time": 173.6250000000014,
          "velocity": 0.7086614173228346,
          "duration": 0.15000000000000568
        },
        {
          "name": "E4",
          "midi": 64,
          "time": 173.6250000000014,
          "velocity": 0.7086614173228346,
          "duration": 0.30000000000001137
        },
        {
          "name": "F5",
          "midi": 77,
          "time": 173.6250000000014,
          "velocity": 0.7086614173228346,
          "duration": 0.30000000000001137
        },
        {
          "name": "C4",
          "midi": 60,
          "time": 173.6250000000014,
          "velocity": 0.7086614173228346,
          "duration": 0.30000000000001137
        },
        {
          "name": "F2",
          "midi": 41,
          "time": 173.8125000000014,
          "velocity": 0.7086614173228346,
          "duration": 0.15000000000000568
        },
        {
          "name": "C4",
          "midi": 60,
          "time": 174.0000000000014,
          "velocity": 0.7086614173228346,
          "duration": 0.5999999999999943
        },
        {
          "name": "F2",
          "midi": 41,
          "time": 174.0000000000014,
          "velocity": 0.7086614173228346,
          "duration": 0.30000000000001137
        },
        {
          "name": "F5",
          "midi": 77,
          "time": 174.0000000000014,
          "velocity": 0.7086614173228346,
          "duration": 0.30000000000001137
        },
        {
          "name": "A3",
          "midi": 57,
          "time": 174.0000000000014,
          "velocity": 0.7086614173228346,
          "duration": 0.5999999999999943
        },
        {
          "name": "F4",
          "midi": 65,
          "time": 174.0000000000014,
          "velocity": 0.7086614173228346,
          "duration": 0.5999999999999943
        },
        {
          "name": "F3",
          "midi": 53,
          "time": 174.3750000000014,
          "velocity": 0.7086614173228346,
          "duration": 0.15000000000000568
        },
        {
          "name": "E5",
          "midi": 76,
          "time": 174.3750000000014,
          "velocity": 0.7086614173228346,
          "duration": 0.29999999999998295
        },
        {
          "name": "F2",
          "midi": 41,
          "time": 174.5625000000014,
          "velocity": 0.7086614173228346,
          "duration": 0.14999999999997726
        },
        {
          "name": "D5",
          "midi": 74,
          "time": 174.75000000000136,
          "velocity": 0.7086614173228346,
          "duration": 0.30000000000001137
        },
        {
          "name": "F2",
          "midi": 41,
          "time": 174.75000000000136,
          "velocity": 0.7086614173228346,
          "duration": 0.30000000000001137
        },
        {
          "name": "A3",
          "midi": 57,
          "time": 174.93750000000136,
          "velocity": 0.7086614173228346,
          "duration": 0.15000000000000568
        },
        {
          "name": "F3",
          "midi": 53,
          "time": 175.12500000000136,
          "velocity": 0.7086614173228346,
          "duration": 0.15000000000000568
        },
        {
          "name": "C4",
          "midi": 60,
          "time": 175.12500000000136,
          "velocity": 0.7086614173228346,
          "duration": 0.15000000000000568
        },
        {
          "name": "C5",
          "midi": 72,
          "time": 175.12500000000136,
          "velocity": 0.7086614173228346,
          "duration": 0.30000000000001137
        },
        {
          "name": "F2",
          "midi": 41,
          "time": 175.31250000000136,
          "velocity": 0.7086614173228346,
          "duration": 0.15000000000000568
        },
        {
          "name": "F4",
          "midi": 65,
          "time": 175.31250000000136,
          "velocity": 0.7086614173228346,
          "duration": 0.15000000000000568
        },
        {
          "name": "A#3",
          "midi": 58,
          "time": 175.50000000000136,
          "velocity": 0.7086614173228346,
          "duration": 0.8999999999999773
        },
        {
          "name": "D4",
          "midi": 62,
          "time": 175.50000000000136,
          "velocity": 0.7086614173228346,
          "duration": 0.8999999999999773
        },
        {
          "name": "C5",
          "midi": 72,
          "time": 175.50000000000136,
          "velocity": 0.7086614173228346,
          "duration": 0.44999999999998863
        },
        {
          "name": "F2",
          "midi": 41,
          "time": 175.50000000000136,
          "velocity": 0.7086614173228346,
          "duration": 0.30000000000001137
        },
        {
          "name": "F3",
          "midi": 53,
          "time": 175.87500000000136,
          "velocity": 0.7086614173228346,
          "duration": 0.14999999999997726
        },
        {
          "name": "A#4",
          "midi": 70,
          "time": 176.06250000000134,
          "velocity": 0.7086614173228346,
          "duration": 0.15000000000000568
        },
        {
          "name": "F2",
          "midi": 41,
          "time": 176.06250000000134,
          "velocity": 0.7086614173228346,
          "duration": 0.15000000000000568
        },
        {
          "name": "A4",
          "midi": 69,
          "time": 176.25000000000134,
          "velocity": 0.7086614173228346,
          "duration": 0.30000000000001137
        },
        {
          "name": "F2",
          "midi": 41,
          "time": 176.25000000000134,
          "velocity": 0.7086614173228346,
          "duration": 0.15000000000000568
        },
        {
          "name": "C3",
          "midi": 48,
          "time": 176.43750000000134,
          "velocity": 0.7086614173228346,
          "duration": 0.30000000000001137
        },
        {
          "name": "E4",
          "midi": 64,
          "time": 176.43750000000134,
          "velocity": 0.7086614173228346,
          "duration": 0.44999999999998863
        },
        {
          "name": "G3",
          "midi": 55,
          "time": 176.43750000000134,
          "velocity": 0.7086614173228346,
          "duration": 0.44999999999998863
        },
        {
          "name": "C4",
          "midi": 60,
          "time": 176.43750000000134,
          "velocity": 0.7086614173228346,
          "duration": 0.44999999999998863
        },
        {
          "name": "F5",
          "midi": 77,
          "time": 176.62500000000134,
          "velocity": 0.7086614173228346,
          "duration": 0.29999999999998295
        },
        {
          "name": "F2",
          "midi": 41,
          "time": 176.81250000000134,
          "velocity": 0.7086614173228346,
          "duration": 0.14999999999997726
        },
        {
          "name": "A3",
          "midi": 57,
          "time": 177.0000000000013,
          "velocity": 0.7086614173228346,
          "duration": 0.9000000000000057
        },
        {
          "name": "F4",
          "midi": 65,
          "time": 177.0000000000013,
          "velocity": 0.7086614173228346,
          "duration": 0.30000000000001137
        },
        {
          "name": "C4",
          "midi": 60,
          "time": 177.0000000000013,
          "velocity": 0.7086614173228346,
          "duration": 0.9000000000000057
        },
        {
          "name": "F2",
          "midi": 41,
          "time": 177.0000000000013,
          "velocity": 0.7086614173228346,
          "duration": 0.30000000000001137
        },
        {
          "name": "F4",
          "midi": 65,
          "time": 177.0000000000013,
          "velocity": 0.7086614173228346,
          "duration": 0.9000000000000057
        },
        {
          "name": "F3",
          "midi": 53,
          "time": 177.3750000000013,
          "velocity": 0.7086614173228346,
          "duration": 0.15000000000000568
        },
        {
          "name": "E4",
          "midi": 64,
          "time": 177.3750000000013,
          "velocity": 0.7086614173228346,
          "duration": 0.30000000000001137
        },
        {
          "name": "F2",
          "midi": 41,
          "time": 177.5625000000013,
          "velocity": 0.7086614173228346,
          "duration": 0.15000000000000568
        },
        {
          "name": "F2",
          "midi": 41,
          "time": 177.7500000000013,
          "velocity": 0.7086614173228346,
          "duration": 0.30000000000001137
        },
        {
          "name": "D4",
          "midi": 62,
          "time": 177.7500000000013,
          "velocity": 0.7086614173228346,
          "duration": 0.30000000000001137
        },
        {
          "name": "F3",
          "midi": 53,
          "time": 178.1250000000013,
          "velocity": 0.7086614173228346,
          "duration": 0.15000000000000568
        },
        {
          "name": "A3",
          "midi": 57,
          "time": 178.1250000000013,
          "velocity": 0.7086614173228346,
          "duration": 0.30000000000001137
        },
        {
          "name": "F4",
          "midi": 65,
          "time": 178.1250000000013,
          "velocity": 0.7086614173228346,
          "duration": 0.30000000000001137
        },
        {
          "name": "C4",
          "midi": 60,
          "time": 178.1250000000013,
          "velocity": 0.7086614173228346,
          "duration": 0.30000000000001137
        },
        {
          "name": "C4",
          "midi": 60,
          "time": 178.1250000000013,
          "velocity": 0.7086614173228346,
          "duration": 0.30000000000001137
        },
        {
          "name": "F2",
          "midi": 41,
          "time": 178.3125000000013,
          "velocity": 0.7086614173228346,
          "duration": 0.15000000000000568
        },
        {
          "name": "F2",
          "midi": 41,
          "time": 178.5000000000013,
          "velocity": 0.7086614173228346,
          "duration": 0.30000000000001137
        },
        {
          "name": "C4",
          "midi": 60,
          "time": 178.5000000000013,
          "velocity": 0.7086614173228346,
          "duration": 0.44999999999998863
        },
        {
          "name": "G3",
          "midi": 55,
          "time": 178.5000000000013,
          "velocity": 0.7086614173228346,
          "duration": 0.5999999999999659
        },
        {
          "name": "C4",
          "midi": 60,
          "time": 178.5000000000013,
          "velocity": 0.7086614173228346,
          "duration": 0.5999999999999659
        },
        {
          "name": "E4",
          "midi": 64,
          "time": 178.5000000000013,
          "velocity": 0.7086614173228346,
          "duration": 0.5999999999999659
        },
        {
          "name": "F3",
          "midi": 53,
          "time": 178.8750000000013,
          "velocity": 0.7086614173228346,
          "duration": 0.14999999999997726
        },
        {
          "name": "A#3",
          "midi": 58,
          "time": 179.06250000000128,
          "velocity": 0.7086614173228346,
          "duration": 0.15000000000000568
        },
        {
          "name": "F2",
          "midi": 41,
          "time": 179.06250000000128,
          "velocity": 0.7086614173228346,
          "duration": 0.15000000000000568
        },
        {
          "name": "A3",
          "midi": 57,
          "time": 179.25000000000128,
          "velocity": 0.7086614173228346,
          "duration": 0.30000000000001137
        },
        {
          "name": "F2",
          "midi": 41,
          "time": 179.25000000000128,
          "velocity": 0.7086614173228346,
          "duration": 0.30000000000001137
        },
        {
          "name": "G3",
          "midi": 55,
          "time": 179.43750000000128,
          "velocity": 0.7086614173228346,
          "duration": 0.15000000000000568
        },
        {
          "name": "F3",
          "midi": 53,
          "time": 179.62500000000128,
          "velocity": 0.7086614173228346,
          "duration": 0.15000000000000568
        },
        {
          "name": "F4",
          "midi": 65,
          "time": 179.62500000000128,
          "velocity": 0.7086614173228346,
          "duration": 0.30000000000001137
        },
        {
          "name": "E4",
          "midi": 64,
          "time": 179.62500000000128,
          "velocity": 0.7086614173228346,
          "duration": 0.30000000000001137
        },
        {
          "name": "C4",
          "midi": 60,
          "time": 179.62500000000128,
          "velocity": 0.7086614173228346,
          "duration": 0.30000000000001137
        },
        {
          "name": "F2",
          "midi": 41,
          "time": 179.81250000000128,
          "velocity": 0.7086614173228346,
          "duration": 0.15000000000000568
        },
        {
          "name": "A3",
          "midi": 57,
          "time": 180.00000000000128,
          "velocity": 0.7086614173228346,
          "duration": 0.5999999999999943
        },
        {
          "name": "F4",
          "midi": 65,
          "time": 180.00000000000128,
          "velocity": 0.7086614173228346,
          "duration": 0.30000000000001137
        },
        {
          "name": "F2",
          "midi": 41,
          "time": 180.00000000000128,
          "velocity": 0.7086614173228346,
          "duration": 0.30000000000001137
        },
        {
          "name": "F4",
          "midi": 65,
          "time": 180.00000000000128,
          "velocity": 0.7086614173228346,
          "duration": 0.5999999999999943
        },
        {
          "name": "C4",
          "midi": 60,
          "time": 180.00000000000128,
          "velocity": 0.7086614173228346,
          "duration": 0.5999999999999943
        },
        {
          "name": "F3",
          "midi": 53,
          "time": 180.37500000000128,
          "velocity": 0.7086614173228346,
          "duration": 0.15000000000000568
        },
        {
          "name": "E4",
          "midi": 64,
          "time": 180.37500000000128,
          "velocity": 0.7086614173228346,
          "duration": 0.29999999999998295
        },
        {
          "name": "F2",
          "midi": 41,
          "time": 180.56250000000128,
          "velocity": 0.7086614173228346,
          "duration": 0.14999999999997726
        },
        {
          "name": "D4",
          "midi": 62,
          "time": 180.75000000000125,
          "velocity": 0.7086614173228346,
          "duration": 0.30000000000001137
        },
        {
          "name": "F2",
          "midi": 41,
          "time": 180.75000000000125,
          "velocity": 0.7086614173228346,
          "duration": 0.30000000000001137
        },
        {
          "name": "A3",
          "midi": 57,
          "time": 180.93750000000125,
          "velocity": 0.7086614173228346,
          "duration": 0.15000000000000568
        },
        {
          "name": "F3",
          "midi": 53,
          "time": 181.12500000000125,
          "velocity": 0.7086614173228346,
          "duration": 0.15000000000000568
        },
        {
          "name": "C4",
          "midi": 60,
          "time": 181.12500000000125,
          "velocity": 0.7086614173228346,
          "duration": 0.15000000000000568
        },
        {
          "name": "C4",
          "midi": 60,
          "time": 181.12500000000125,
          "velocity": 0.7086614173228346,
          "duration": 0.30000000000001137
        },
        {
          "name": "F2",
          "midi": 41,
          "time": 181.31250000000125,
          "velocity": 0.7086614173228346,
          "duration": 0.15000000000000568
        },
        {
          "name": "F4",
          "midi": 65,
          "time": 181.31250000000125,
          "velocity": 0.7086614173228346,
          "duration": 0.15000000000000568
        },
        {
          "name": "A#3",
          "midi": 58,
          "time": 181.50000000000125,
          "velocity": 0.7086614173228346,
          "duration": 0.7124999999999773
        },
        {
          "name": "D4",
          "midi": 62,
          "time": 181.50000000000125,
          "velocity": 0.7086614173228346,
          "duration": 0.8999999999999773
        },
        {
          "name": "C4",
          "midi": 60,
          "time": 181.50000000000125,
          "velocity": 0.7086614173228346,
          "duration": 0.44999999999998863
        },
        {
          "name": "F2",
          "midi": 41,
          "time": 181.50000000000125,
          "velocity": 0.7086614173228346,
          "duration": 0.30000000000001137
        },
        {
          "name": "F3",
          "midi": 53,
          "time": 181.87500000000125,
          "velocity": 0.7086614173228346,
          "duration": 0.14999999999997726
        },
        {
          "name": "A#3",
          "midi": 58,
          "time": 182.06250000000122,
          "velocity": 0.7086614173228346,
          "duration": 0.3375000000000057
        },
        {
          "name": "F2",
          "midi": 41,
          "time": 182.06250000000122,
          "velocity": 0.7086614173228346,
          "duration": 0.15000000000000568
        },
        {
          "name": "A3",
          "midi": 57,
          "time": 182.25000000000122,
          "velocity": 0.7086614173228346,
          "duration": 0.30000000000001137
        },
        {
          "name": "F2",
          "midi": 41,
          "time": 182.25000000000122,
          "velocity": 0.7086614173228346,
          "duration": 0.15000000000000568
        },
        {
          "name": "C3",
          "midi": 48,
          "time": 182.43750000000122,
          "velocity": 0.7086614173228346,
          "duration": 0.30000000000001137
        },
        {
          "name": "G3",
          "midi": 55,
          "time": 182.43750000000122,
          "velocity": 0.7086614173228346,
          "duration": 0.44999999999998863
        },
        {
          "name": "E4",
          "midi": 64,
          "time": 182.43750000000122,
          "velocity": 0.7086614173228346,
          "duration": 0.44999999999998863
        },
        {
          "name": "C4",
          "midi": 60,
          "time": 182.43750000000122,
          "velocity": 0.7086614173228346,
          "duration": 0.44999999999998863
        },
        {
          "name": "F4",
          "midi": 65,
          "time": 182.62500000000122,
          "velocity": 0.7086614173228346,
          "duration": 0.29999999999998295
        },
        {
          "name": "F2",
          "midi": 41,
          "time": 182.81250000000122,
          "velocity": 0.7086614173228346,
          "duration": 0.14999999999997726
        },
        {
          "name": "A3",
          "midi": 57,
          "time": 183.0000000000012,
          "velocity": 0.7086614173228346,
          "duration": 0.9000000000000057
        },
        {
          "name": "C4",
          "midi": 60,
          "time": 183.0000000000012,
          "velocity": 0.7086614173228346,
          "duration": 0.9000000000000057
        },
        {
          "name": "F4",
          "midi": 65,
          "time": 183.0000000000012,
          "velocity": 0.7086614173228346,
          "duration": 0.9000000000000057
        },
        {
          "name": "F2",
          "midi": 41,
          "time": 183.0000000000012,
          "velocity": 0.7086614173228346,
          "duration": 0.30000000000001137
        },
        {
          "name": "F3",
          "midi": 53,
          "time": 183.3750000000012,
          "velocity": 0.7086614173228346,
          "duration": 0.15000000000000568
        },
        {
          "name": "F2",
          "midi": 41,
          "time": 183.5625000000012,
          "velocity": 0.7086614173228346,
          "duration": 0.15000000000000568
        },
        {
          "name": "F2",
          "midi": 41,
          "time": 183.7500000000012,
          "velocity": 0.7086614173228346,
          "duration": 0.30000000000001137
        },
        {
          "name": "F3",
          "midi": 53,
          "time": 184.1250000000012,
          "velocity": 0.7086614173228346,
          "duration": 0.15000000000000568
        },
        {
          "name": "C4",
          "midi": 60,
          "time": 184.1250000000012,
          "velocity": 0.7086614173228346,
          "duration": 0.30000000000001137
        },
        {
          "name": "A3",
          "midi": 57,
          "time": 184.1250000000012,
          "velocity": 0.7086614173228346,
          "duration": 0.30000000000001137
        },
        {
          "name": "F4",
          "midi": 65,
          "time": 184.1250000000012,
          "velocity": 0.7086614173228346,
          "duration": 0.30000000000001137
        },
        {
          "name": "F2",
          "midi": 41,
          "time": 184.3125000000012,
          "velocity": 0.7086614173228346,
          "duration": 0.15000000000000568
        },
        {
          "name": "E4",
          "midi": 64,
          "time": 184.5000000000012,
          "velocity": 0.7086614173228346,
          "duration": 0.5999999999999943
        },
        {
          "name": "G3",
          "midi": 55,
          "time": 184.5000000000012,
          "velocity": 0.7086614173228346,
          "duration": 0.5999999999999943
        },
        {
          "name": "F2",
          "midi": 41,
          "time": 184.5000000000012,
          "velocity": 0.7086614173228346,
          "duration": 0.30000000000001137
        },
        {
          "name": "C4",
          "midi": 60,
          "time": 184.5000000000012,
          "velocity": 0.7086614173228346,
          "duration": 0.5999999999999943
        },
        {
          "name": "F3",
          "midi": 53,
          "time": 184.8750000000012,
          "velocity": 0.7086614173228346,
          "duration": 0.15000000000000568
        },
        {
          "name": "F2",
          "midi": 41,
          "time": 185.0625000000012,
          "velocity": 0.7086614173228346,
          "duration": 0.15000000000000568
        },
        {
          "name": "F2",
          "midi": 41,
          "time": 185.2500000000012,
          "velocity": 0.7086614173228346,
          "duration": 0.30000000000001137
        },
        {
          "name": "G3",
          "midi": 55,
          "time": 185.4375000000012,
          "velocity": 0.7086614173228346,
          "duration": 0.15000000000000568
        },
        {
          "name": "F3",
          "midi": 53,
          "time": 185.6250000000012,
          "velocity": 0.7086614173228346,
          "duration": 0.15000000000000568
        },
        {
          "name": "C4",
          "midi": 60,
          "time": 185.6250000000012,
          "velocity": 0.7086614173228346,
          "duration": 0.30000000000001137
        },
        {
          "name": "E4",
          "midi": 64,
          "time": 185.6250000000012,
          "velocity": 0.7086614173228346,
          "duration": 0.30000000000001137
        },
        {
          "name": "F2",
          "midi": 41,
          "time": 185.8125000000012,
          "velocity": 0.7086614173228346,
          "duration": 0.15000000000000568
        },
        {
          "name": "C4",
          "midi": 60,
          "time": 186.0000000000012,
          "velocity": 0.7086614173228346,
          "duration": 0.5999999999999943
        },
        {
          "name": "F4",
          "midi": 65,
          "time": 186.0000000000012,
          "velocity": 0.7086614173228346,
          "duration": 0.5999999999999943
        },
        {
          "name": "A3",
          "midi": 57,
          "time": 186.0000000000012,
          "velocity": 0.7086614173228346,
          "duration": 0.5999999999999943
        },
        {
          "name": "F2",
          "midi": 41,
          "time": 186.0000000000012,
          "velocity": 0.7086614173228346,
          "duration": 0.30000000000001137
        },
        {
          "name": "F3",
          "midi": 53,
          "time": 186.3750000000012,
          "velocity": 0.7086614173228346,
          "duration": 0.15000000000000568
        },
        {
          "name": "F2",
          "midi": 41,
          "time": 186.5625000000012,
          "velocity": 0.7086614173228346,
          "duration": 0.15000000000000568
        },
        {
          "name": "F2",
          "midi": 41,
          "time": 186.7500000000012,
          "velocity": 0.7086614173228346,
          "duration": 0.30000000000001137
        },
        {
          "name": "A3",
          "midi": 57,
          "time": 186.9375000000012,
          "velocity": 0.7086614173228346,
          "duration": 0.15000000000000568
        },
        {
          "name": "C4",
          "midi": 60,
          "time": 187.1250000000012,
          "velocity": 0.7086614173228346,
          "duration": 0.15000000000000568
        },
        {
          "name": "F3",
          "midi": 53,
          "time": 187.1250000000012,
          "velocity": 0.7086614173228346,
          "duration": 0.15000000000000568
        },
        {
          "name": "F4",
          "midi": 65,
          "time": 187.3125000000012,
          "velocity": 0.7086614173228346,
          "duration": 0.15000000000000568
        },
        {
          "name": "F2",
          "midi": 41,
          "time": 187.3125000000012,
          "velocity": 0.7086614173228346,
          "duration": 0.15000000000000568
        },
        {
          "name": "F2",
          "midi": 41,
          "time": 187.5000000000012,
          "velocity": 0.7086614173228346,
          "duration": 0.30000000000001137
        },
        {
          "name": "A#3",
          "midi": 58,
          "time": 187.5000000000012,
          "velocity": 0.7086614173228346,
          "duration": 0.9000000000000057
        },
        {
          "name": "D4",
          "midi": 62,
          "time": 187.5000000000012,
          "velocity": 0.7086614173228346,
          "duration": 0.9000000000000057
        },
        {
          "name": "F3",
          "midi": 53,
          "time": 187.8750000000012,
          "velocity": 0.7086614173228346,
          "duration": 0.15000000000000568
        },
        {
          "name": "F2",
          "midi": 41,
          "time": 188.0625000000012,
          "velocity": 0.7086614173228346,
          "duration": 0.15000000000000568
        },
        {
          "name": "F2",
          "midi": 41,
          "time": 188.2500000000012,
          "velocity": 0.7086614173228346,
          "duration": 0.15000000000000568
        },
        {
          "name": "C3",
          "midi": 48,
          "time": 188.4375000000012,
          "velocity": 0.7086614173228346,
          "duration": 0.30000000000001137
        },
        {
          "name": "C4",
          "midi": 60,
          "time": 188.4375000000012,
          "velocity": 0.7086614173228346,
          "duration": 0.44999999999998863
        },
        {
          "name": "E4",
          "midi": 64,
          "time": 188.4375000000012,
          "velocity": 0.7086614173228346,
          "duration": 0.44999999999998863
        },
        {
          "name": "G3",
          "midi": 55,
          "time": 188.4375000000012,
          "velocity": 0.7086614173228346,
          "duration": 0.44999999999998863
        },
        {
          "name": "F2",
          "midi": 41,
          "time": 188.8125000000012,
          "velocity": 0.7086614173228346,
          "duration": 0.14999999999997726
        },
        {
          "name": "F2",
          "midi": 41,
          "time": 189.00000000000117,
          "velocity": 0.7086614173228346,
          "duration": 0.30000000000001137
        },
        {
          "name": "A#3",
          "midi": 58,
          "time": 189.00000000000117,
          "velocity": 0.7086614173228346,
          "duration": 0.9000000000000057
        },
        {
          "name": "D4",
          "midi": 62,
          "time": 189.00000000000117,
          "velocity": 0.7086614173228346,
          "duration": 0.9000000000000057
        },
        {
          "name": "F4",
          "midi": 65,
          "time": 189.00000000000117,
          "velocity": 0.7086614173228346,
          "duration": 0.9000000000000057
        },
        {
          "name": "F3",
          "midi": 53,
          "time": 189.37500000000117,
          "velocity": 0.7086614173228346,
          "duration": 0.15000000000000568
        },
        {
          "name": "F2",
          "midi": 41,
          "time": 189.56250000000117,
          "velocity": 0.7086614173228346,
          "duration": 0.15000000000000568
        },
        {
          "name": "F2",
          "midi": 41,
          "time": 189.75000000000117,
          "velocity": 0.7086614173228346,
          "duration": 0.30000000000001137
        },
        {
          "name": "F3",
          "midi": 53,
          "time": 190.12500000000117,
          "velocity": 0.7086614173228346,
          "duration": 0.15000000000000568
        },
        {
          "name": "D4",
          "midi": 62,
          "time": 190.12500000000117,
          "velocity": 0.7086614173228346,
          "duration": 0.30000000000001137
        },
        {
          "name": "A#3",
          "midi": 58,
          "time": 190.12500000000117,
          "velocity": 0.7086614173228346,
          "duration": 0.30000000000001137
        },
        {
          "name": "F4",
          "midi": 65,
          "time": 190.12500000000117,
          "velocity": 0.7086614173228346,
          "duration": 0.30000000000001137
        },
        {
          "name": "F2",
          "midi": 41,
          "time": 190.31250000000117,
          "velocity": 0.7086614173228346,
          "duration": 0.15000000000000568
        },
        {
          "name": "F2",
          "midi": 41,
          "time": 190.50000000000117,
          "velocity": 0.7086614173228346,
          "duration": 0.30000000000001137
        },
        {
          "name": "A#3",
          "midi": 58,
          "time": 190.50000000000117,
          "velocity": 0.7086614173228346,
          "duration": 0.9000000000000057
        },
        {
          "name": "G3",
          "midi": 55,
          "time": 190.50000000000117,
          "velocity": 0.7086614173228346,
          "duration": 0.9000000000000057
        },
        {
          "name": "C4",
          "midi": 60,
          "time": 190.50000000000117,
          "velocity": 0.7086614173228346,
          "duration": 0.9000000000000057
        },
        {
          "name": "E4",
          "midi": 64,
          "time": 190.50000000000117,
          "velocity": 0.7086614173228346,
          "duration": 0.9000000000000057
        },
        {
          "name": "F3",
          "midi": 53,
          "time": 190.87500000000117,
          "velocity": 0.7086614173228346,
          "duration": 0.15000000000000568
        },
        {
          "name": "F2",
          "midi": 41,
          "time": 191.06250000000117,
          "velocity": 0.7086614173228346,
          "duration": 0.15000000000000568
        },
        {
          "name": "F2",
          "midi": 41,
          "time": 191.25000000000117,
          "velocity": 0.7086614173228346,
          "duration": 0.30000000000001137
        },
        {
          "name": "G3",
          "midi": 55,
          "time": 191.43750000000117,
          "velocity": 0.7086614173228346,
          "duration": 0.15000000000000568
        },
        {
          "name": "F3",
          "midi": 53,
          "time": 191.62500000000117,
          "velocity": 0.7086614173228346,
          "duration": 0.15000000000000568
        },
        {
          "name": "E4",
          "midi": 64,
          "time": 191.62500000000117,
          "velocity": 0.7086614173228346,
          "duration": 0.30000000000001137
        },
        {
          "name": "C4",
          "midi": 60,
          "time": 191.62500000000117,
          "velocity": 0.7086614173228346,
          "duration": 0.30000000000001137
        },
        {
          "name": "F2",
          "midi": 41,
          "time": 191.81250000000117,
          "velocity": 0.7086614173228346,
          "duration": 0.15000000000000568
        },
        {
          "name": "A3",
          "midi": 57,
          "time": 192.00000000000117,
          "velocity": 0.7086614173228346,
          "duration": 0.5999999999999943
        },
        {
          "name": "F2",
          "midi": 41,
          "time": 192.00000000000117,
          "velocity": 0.7086614173228346,
          "duration": 0.30000000000001137
        },
        {
          "name": "C4",
          "midi": 60,
          "time": 192.00000000000117,
          "velocity": 0.7086614173228346,
          "duration": 0.5999999999999943
        },
        {
          "name": "F4",
          "midi": 65,
          "time": 192.00000000000117,
          "velocity": 0.7086614173228346,
          "duration": 0.5999999999999943
        },
        {
          "name": "F3",
          "midi": 53,
          "time": 192.37500000000117,
          "velocity": 0.7086614173228346,
          "duration": 0.15000000000000568
        },
        {
          "name": "F2",
          "midi": 41,
          "time": 192.56250000000117,
          "velocity": 0.7086614173228346,
          "duration": 0.15000000000000568
        },
        {
          "name": "F2",
          "midi": 41,
          "time": 192.75000000000117,
          "velocity": 0.7086614173228346,
          "duration": 0.30000000000001137
        },
        {
          "name": "A3",
          "midi": 57,
          "time": 192.93750000000117,
          "velocity": 0.7086614173228346,
          "duration": 0.15000000000000568
        },
        {
          "name": "C4",
          "midi": 60,
          "time": 193.12500000000117,
          "velocity": 0.7086614173228346,
          "duration": 0.15000000000000568
        },
        {
          "name": "F3",
          "midi": 53,
          "time": 193.12500000000117,
          "velocity": 0.7086614173228346,
          "duration": 0.15000000000000568
        },
        {
          "name": "F4",
          "midi": 65,
          "time": 193.31250000000117,
          "velocity": 0.7086614173228346,
          "duration": 0.15000000000000568
        },
        {
          "name": "F2",
          "midi": 41,
          "time": 193.31250000000117,
          "velocity": 0.7086614173228346,
          "duration": 0.15000000000000568
        },
        {
          "name": "F2",
          "midi": 41,
          "time": 193.50000000000117,
          "velocity": 0.7086614173228346,
          "duration": 0.30000000000001137
        },
        {
          "name": "E4",
          "midi": 64,
          "time": 193.50000000000117,
          "velocity": 0.7086614173228346,
          "duration": 0.5999999999999943
        },
        {
          "name": "C4",
          "midi": 60,
          "time": 193.50000000000117,
          "velocity": 0.7086614173228346,
          "duration": 0.5999999999999943
        },
        {
          "name": "G3",
          "midi": 55,
          "time": 193.50000000000117,
          "velocity": 0.7086614173228346,
          "duration": 0.5999999999999943
        },
        {
          "name": "F3",
          "midi": 53,
          "time": 193.87500000000117,
          "velocity": 0.7086614173228346,
          "duration": 0.15000000000000568
        },
        {
          "name": "F2",
          "midi": 41,
          "time": 194.06250000000117,
          "velocity": 0.7086614173228346,
          "duration": 0.15000000000000568
        },
        {
          "name": "F2",
          "midi": 41,
          "time": 194.25000000000117,
          "velocity": 0.7086614173228346,
          "duration": 0.30000000000001137
        },
        {
          "name": "G3",
          "midi": 55,
          "time": 194.43750000000117,
          "velocity": 0.7086614173228346,
          "duration": 0.15000000000000568
        },
        {
          "name": "F3",
          "midi": 53,
          "time": 194.62500000000117,
          "velocity": 0.7086614173228346,
          "duration": 0.15000000000000568
        },
        {
          "name": "E4",
          "midi": 64,
          "time": 194.62500000000117,
          "velocity": 0.7086614173228346,
          "duration": 0.30000000000001137
        },
        {
          "name": "C4",
          "midi": 60,
          "time": 194.62500000000117,
          "velocity": 0.7086614173228346,
          "duration": 0.30000000000001137
        },
        {
          "name": "F2",
          "midi": 41,
          "time": 194.81250000000117,
          "velocity": 0.7086614173228346,
          "duration": 0.15000000000000568
        },
        {
          "name": "F2",
          "midi": 41,
          "time": 195.00000000000117,
          "velocity": 0.7086614173228346,
          "duration": 0.30000000000001137
        },
        {
          "name": "F4",
          "midi": 65,
          "time": 195.00000000000117,
          "velocity": 0.7086614173228346,
          "duration": 0.5999999999999943
        },
        {
          "name": "C4",
          "midi": 60,
          "time": 195.00000000000117,
          "velocity": 0.7086614173228346,
          "duration": 0.5999999999999943
        },
        {
          "name": "A3",
          "midi": 57,
          "time": 195.00000000000117,
          "velocity": 0.7086614173228346,
          "duration": 0.5999999999999943
        },
        {
          "name": "F3",
          "midi": 53,
          "time": 195.37500000000117,
          "velocity": 0.7086614173228346,
          "duration": 0.15000000000000568
        },
        {
          "name": "F2",
          "midi": 41,
          "time": 195.56250000000117,
          "velocity": 0.7086614173228346,
          "duration": 0.15000000000000568
        },
        {
          "name": "F2",
          "midi": 41,
          "time": 195.75000000000117,
          "velocity": 0.7086614173228346,
          "duration": 0.30000000000001137
        },
        {
          "name": "A3",
          "midi": 57,
          "time": 195.93750000000117,
          "velocity": 0.7086614173228346,
          "duration": 0.15000000000000568
        },
        {
          "name": "F3",
          "midi": 53,
          "time": 196.12500000000117,
          "velocity": 0.7086614173228346,
          "duration": 0.15000000000000568
        },
        {
          "name": "C4",
          "midi": 60,
          "time": 196.12500000000117,
          "velocity": 0.7086614173228346,
          "duration": 0.15000000000000568
        },
        {
          "name": "F4",
          "midi": 65,
          "time": 196.31250000000117,
          "velocity": 0.7086614173228346,
          "duration": 0.15000000000000568
        },
        {
          "name": "F2",
          "midi": 41,
          "time": 196.31250000000117,
          "velocity": 0.7086614173228346,
          "duration": 0.15000000000000568
        },
        {
          "name": "F2",
          "midi": 41,
          "time": 196.50000000000117,
          "velocity": 0.7086614173228346,
          "duration": 0.30000000000001137
        },
        {
          "name": "A#3",
          "midi": 58,
          "time": 196.50000000000117,
          "velocity": 0.7086614173228346,
          "duration": 0.9000000000000057
        },
        {
          "name": "D4",
          "midi": 62,
          "time": 196.50000000000117,
          "velocity": 0.7086614173228346,
          "duration": 0.9000000000000057
        },
        {
          "name": "G4",
          "midi": 67,
          "time": 196.50000000000117,
          "velocity": 0.7086614173228346,
          "duration": 0.9000000000000057
        },
        {
          "name": "F3",
          "midi": 53,
          "time": 196.87500000000117,
          "velocity": 0.7086614173228346,
          "duration": 0.15000000000000568
        },
        {
          "name": "F2",
          "midi": 41,
          "time": 197.06250000000117,
          "velocity": 0.7086614173228346,
          "duration": 0.15000000000000568
        },
        {
          "name": "F2",
          "midi": 41,
          "time": 197.25000000000117,
          "velocity": 0.7086614173228346,
          "duration": 0.15000000000000568
        },
        {
          "name": "G4",
          "midi": 67,
          "time": 197.43750000000117,
          "velocity": 0.7086614173228346,
          "duration": 0.44999999999998863
        },
        {
          "name": "E4",
          "midi": 64,
          "time": 197.43750000000117,
          "velocity": 0.7086614173228346,
          "duration": 0.44999999999998863
        },
        {
          "name": "C4",
          "midi": 60,
          "time": 197.43750000000117,
          "velocity": 0.7086614173228346,
          "duration": 0.44999999999998863
        },
        {
          "name": "F2",
          "midi": 41,
          "time": 197.43750000000117,
          "velocity": 0.7086614173228346,
          "duration": 0.44999999999998863
        },
        {
          "name": "F4",
          "midi": 65,
          "time": 198.00000000000117,
          "velocity": 0.7086614173228346,
          "duration": 1.8000000000000114
        },
        {
          "name": "C4",
          "midi": 60,
          "time": 198.00000000000117,
          "velocity": 0.7086614173228346,
          "duration": 1.8000000000000114
        },
        {
          "name": "A3",
          "midi": 57,
          "time": 198.00000000000117,
          "velocity": 0.7086614173228346,
          "duration": 1.8000000000000114
        },
        {
          "name": "F3",
          "midi": 53,
          "time": 198.00000000000117,
          "velocity": 0.7086614173228346,
          "duration": 1.8000000000000114
        },
        {
          "name": "F2",
          "midi": 41,
          "time": 198.00000000000117,
          "velocity": 0.7086614173228346,
          "duration": 1.8000000000000114
        }
      ],
      "controlChanges": {
        "7": [
          {
            "number": 7,
            "time": 0,
            "value": 0.9133858267716536
          }
        ]
      },
      "id": 4,
      "name": "arr. Chip Davis",
      "instrumentNumber": 2,
      "instrument": "electric grand piano",
      "instrumentFamily": "piano",
      "channelNumber": 3,
      "isPercussion": false
    },
    {
      "startTime": 36,
      "duration": 198,
      "length": 423,
      "notes": [
        {
          "name": "G#4",
          "midi": 68,
          "time": 36,
          "velocity": 0.25196850393700787,
          "duration": 0.75
        },
        {
          "name": "D#5",
          "midi": 75,
          "time": 36,
          "velocity": 0.25196850393700787,
          "duration": 0.75
        },
        {
          "name": "G#5",
          "midi": 80,
          "time": 36,
          "velocity": 0.25196850393700787,
          "duration": 0.75
        },
        {
          "name": "G#5",
          "midi": 80,
          "time": 36.75,
          "velocity": 0.3228346456692913,
          "duration": 0.75
        },
        {
          "name": "D#5",
          "midi": 75,
          "time": 36.75,
          "velocity": 0.3228346456692913,
          "duration": 0.75
        },
        {
          "name": "G#4",
          "midi": 68,
          "time": 36.75,
          "velocity": 0.3228346456692913,
          "duration": 0.75
        },
        {
          "name": "D#5",
          "midi": 75,
          "time": 37.5,
          "velocity": 0.3858267716535433,
          "duration": 0.75
        },
        {
          "name": "G#5",
          "midi": 80,
          "time": 37.5,
          "velocity": 0.3858267716535433,
          "duration": 0.75
        },
        {
          "name": "G#4",
          "midi": 68,
          "time": 37.5,
          "velocity": 0.3858267716535433,
          "duration": 0.75
        },
        {
          "name": "G#4",
          "midi": 68,
          "time": 38.25,
          "velocity": 0.4566929133858268,
          "duration": 0.75
        },
        {
          "name": "D#5",
          "midi": 75,
          "time": 38.25,
          "velocity": 0.4566929133858268,
          "duration": 0.75
        },
        {
          "name": "G#5",
          "midi": 80,
          "time": 38.25,
          "velocity": 0.4566929133858268,
          "duration": 0.75
        },
        {
          "name": "D#5",
          "midi": 75,
          "time": 39,
          "velocity": 0.5196850393700787,
          "duration": 0.75
        },
        {
          "name": "G#4",
          "midi": 68,
          "time": 39,
          "velocity": 0.5196850393700787,
          "duration": 0.75
        },
        {
          "name": "G#5",
          "midi": 80,
          "time": 39,
          "velocity": 0.5196850393700787,
          "duration": 0.75
        },
        {
          "name": "G#5",
          "midi": 80,
          "time": 39.75,
          "velocity": 0.5905511811023622,
          "duration": 0.75
        },
        {
          "name": "G#4",
          "midi": 68,
          "time": 39.75,
          "velocity": 0.5905511811023622,
          "duration": 0.75
        },
        {
          "name": "D#5",
          "midi": 75,
          "time": 39.75,
          "velocity": 0.5905511811023622,
          "duration": 0.75
        },
        {
          "name": "G#4",
          "midi": 68,
          "time": 40.5,
          "velocity": 0.6535433070866141,
          "duration": 0.75
        },
        {
          "name": "G#5",
          "midi": 80,
          "time": 40.5,
          "velocity": 0.6535433070866141,
          "duration": 0.75
        },
        {
          "name": "D#5",
          "midi": 75,
          "time": 40.5,
          "velocity": 0.6535433070866141,
          "duration": 0.75
        },
        {
          "name": "G#4",
          "midi": 68,
          "time": 41.25,
          "velocity": 0.7244094488188977,
          "duration": 0.75
        },
        {
          "name": "D#5",
          "midi": 75,
          "time": 41.25,
          "velocity": 0.7244094488188977,
          "duration": 0.75
        },
        {
          "name": "G#5",
          "midi": 80,
          "time": 41.25,
          "velocity": 0.7244094488188977,
          "duration": 0.75
        },
        {
          "name": "G#4",
          "midi": 68,
          "time": 42,
          "velocity": 0.7874015748031497,
          "duration": 0.75
        },
        {
          "name": "G#5",
          "midi": 80,
          "time": 42,
          "velocity": 0.7874015748031497,
          "duration": 0.75
        },
        {
          "name": "D#5",
          "midi": 75,
          "time": 42,
          "velocity": 0.7874015748031497,
          "duration": 0.75
        },
        {
          "name": "G#4",
          "midi": 68,
          "time": 42.75,
          "velocity": 0.7165354330708661,
          "duration": 0.75
        },
        {
          "name": "G#5",
          "midi": 80,
          "time": 42.75,
          "velocity": 0.7165354330708661,
          "duration": 0.75
        },
        {
          "name": "D#5",
          "midi": 75,
          "time": 42.75,
          "velocity": 0.7165354330708661,
          "duration": 0.75
        },
        {
          "name": "G#5",
          "midi": 80,
          "time": 43.5,
          "velocity": 0.6535433070866141,
          "duration": 0.75
        },
        {
          "name": "D#5",
          "midi": 75,
          "time": 43.5,
          "velocity": 0.6535433070866141,
          "duration": 0.75
        },
        {
          "name": "G#4",
          "midi": 68,
          "time": 43.5,
          "velocity": 0.6535433070866141,
          "duration": 0.75
        },
        {
          "name": "G#4",
          "midi": 68,
          "time": 44.25,
          "velocity": 0.5826771653543307,
          "duration": 0.75
        },
        {
          "name": "G#5",
          "midi": 80,
          "time": 44.25,
          "velocity": 0.5826771653543307,
          "duration": 0.75
        },
        {
          "name": "D#5",
          "midi": 75,
          "time": 44.25,
          "velocity": 0.5826771653543307,
          "duration": 0.75
        },
        {
          "name": "D#5",
          "midi": 75,
          "time": 45,
          "velocity": 0.5196850393700787,
          "duration": 0.75
        },
        {
          "name": "G#4",
          "midi": 68,
          "time": 45,
          "velocity": 0.5196850393700787,
          "duration": 0.75
        },
        {
          "name": "G#5",
          "midi": 80,
          "time": 45,
          "velocity": 0.5196850393700787,
          "duration": 0.75
        },
        {
          "name": "G#4",
          "midi": 68,
          "time": 45.75,
          "velocity": 0.44881889763779526,
          "duration": 0.75
        },
        {
          "name": "G#5",
          "midi": 80,
          "time": 45.75,
          "velocity": 0.44881889763779526,
          "duration": 0.75
        },
        {
          "name": "D#5",
          "midi": 75,
          "time": 45.75,
          "velocity": 0.44881889763779526,
          "duration": 0.75
        },
        {
          "name": "G#4",
          "midi": 68,
          "time": 46.5,
          "velocity": 0.3858267716535433,
          "duration": 0.75
        },
        {
          "name": "D#5",
          "midi": 75,
          "time": 46.5,
          "velocity": 0.3858267716535433,
          "duration": 0.75
        },
        {
          "name": "G#5",
          "midi": 80,
          "time": 46.5,
          "velocity": 0.3858267716535433,
          "duration": 0.75
        },
        {
          "name": "G#5",
          "midi": 80,
          "time": 47.25,
          "velocity": 0.31496062992125984,
          "duration": 0.75
        },
        {
          "name": "D#5",
          "midi": 75,
          "time": 47.25,
          "velocity": 0.31496062992125984,
          "duration": 0.75
        },
        {
          "name": "G#4",
          "midi": 68,
          "time": 47.25,
          "velocity": 0.31496062992125984,
          "duration": 0.75
        },
        {
          "name": "G#5",
          "midi": 80,
          "time": 48,
          "velocity": 0.25196850393700787,
          "duration": 0.75
        },
        {
          "name": "G#4",
          "midi": 68,
          "time": 48,
          "velocity": 0.25196850393700787,
          "duration": 0.75
        },
        {
          "name": "D#5",
          "midi": 75,
          "time": 48,
          "velocity": 0.25196850393700787,
          "duration": 0.75
        },
        {
          "name": "G#4",
          "midi": 68,
          "time": 48.75,
          "velocity": 0.4015748031496063,
          "duration": 0.75
        },
        {
          "name": "G#5",
          "midi": 80,
          "time": 48.75,
          "velocity": 0.4015748031496063,
          "duration": 0.75
        },
        {
          "name": "D#5",
          "midi": 75,
          "time": 48.75,
          "velocity": 0.4015748031496063,
          "duration": 0.75
        },
        {
          "name": "D#5",
          "midi": 75,
          "time": 49.5,
          "velocity": 0.5433070866141733,
          "duration": 0.75
        },
        {
          "name": "G#4",
          "midi": 68,
          "time": 49.5,
          "velocity": 0.5433070866141733,
          "duration": 0.75
        },
        {
          "name": "G#5",
          "midi": 80,
          "time": 49.5,
          "velocity": 0.5433070866141733,
          "duration": 0.75
        },
        {
          "name": "G#5",
          "midi": 80,
          "time": 50.25,
          "velocity": 0.6929133858267716,
          "duration": 0.75
        },
        {
          "name": "D#5",
          "midi": 75,
          "time": 50.25,
          "velocity": 0.6929133858267716,
          "duration": 0.75
        },
        {
          "name": "G#4",
          "midi": 68,
          "time": 50.25,
          "velocity": 0.6929133858267716,
          "duration": 0.75
        },
        {
          "name": "G#4",
          "midi": 68,
          "time": 51,
          "velocity": 0.7952755905511811,
          "duration": 0.75
        },
        {
          "name": "D#5",
          "midi": 75,
          "time": 51,
          "velocity": 0.7952755905511811,
          "duration": 0.75
        },
        {
          "name": "G#5",
          "midi": 80,
          "time": 51,
          "velocity": 0.7952755905511811,
          "duration": 0.75
        },
        {
          "name": "D#5",
          "midi": 75,
          "time": 51.75,
          "velocity": 0.6377952755905512,
          "duration": 0.75
        },
        {
          "name": "G#4",
          "midi": 68,
          "time": 51.75,
          "velocity": 0.6377952755905512,
          "duration": 0.75
        },
        {
          "name": "G#5",
          "midi": 80,
          "time": 51.75,
          "velocity": 0.6377952755905512,
          "duration": 0.75
        },
        {
          "name": "D#5",
          "midi": 75,
          "time": 52.5,
          "velocity": 0.4881889763779528,
          "duration": 0.75
        },
        {
          "name": "G#5",
          "midi": 80,
          "time": 52.5,
          "velocity": 0.4881889763779528,
          "duration": 0.75
        },
        {
          "name": "G#4",
          "midi": 68,
          "time": 52.5,
          "velocity": 0.4881889763779528,
          "duration": 0.75
        },
        {
          "name": "D#5",
          "midi": 75,
          "time": 53.25,
          "velocity": 0.33858267716535434,
          "duration": 0.75
        },
        {
          "name": "G#5",
          "midi": 80,
          "time": 53.25,
          "velocity": 0.33858267716535434,
          "duration": 0.75
        },
        {
          "name": "G#4",
          "midi": 68,
          "time": 53.25,
          "velocity": 0.33858267716535434,
          "duration": 0.75
        },
        {
          "name": "G#4",
          "midi": 68,
          "time": 54,
          "velocity": 0.25196850393700787,
          "duration": 0.75
        },
        {
          "name": "D#5",
          "midi": 75,
          "time": 54,
          "velocity": 0.25196850393700787,
          "duration": 0.75
        },
        {
          "name": "G#5",
          "midi": 80,
          "time": 54,
          "velocity": 0.25196850393700787,
          "duration": 0.75
        },
        {
          "name": "G#4",
          "midi": 68,
          "time": 54.75,
          "velocity": 0.3464566929133858,
          "duration": 0.75
        },
        {
          "name": "D#5",
          "midi": 75,
          "time": 54.75,
          "velocity": 0.3464566929133858,
          "duration": 0.75
        },
        {
          "name": "G#5",
          "midi": 80,
          "time": 54.75,
          "velocity": 0.3464566929133858,
          "duration": 0.75
        },
        {
          "name": "G#5",
          "midi": 80,
          "time": 55.5,
          "velocity": 0.4409448818897638,
          "duration": 0.75
        },
        {
          "name": "G#4",
          "midi": 68,
          "time": 55.5,
          "velocity": 0.4409448818897638,
          "duration": 0.75
        },
        {
          "name": "D#5",
          "midi": 75,
          "time": 55.5,
          "velocity": 0.4409448818897638,
          "duration": 0.75
        },
        {
          "name": "G#4",
          "midi": 68,
          "time": 56.25,
          "velocity": 0.5354330708661418,
          "duration": 0.75
        },
        {
          "name": "D#5",
          "midi": 75,
          "time": 56.25,
          "velocity": 0.5354330708661418,
          "duration": 0.75
        },
        {
          "name": "G#5",
          "midi": 80,
          "time": 56.25,
          "velocity": 0.5354330708661418,
          "duration": 0.75
        },
        {
          "name": "G#5",
          "midi": 80,
          "time": 57,
          "velocity": 0.6299212598425197,
          "duration": 0.75
        },
        {
          "name": "G#4",
          "midi": 68,
          "time": 57,
          "velocity": 0.6299212598425197,
          "duration": 0.75
        },
        {
          "name": "D#5",
          "midi": 75,
          "time": 57,
          "velocity": 0.6299212598425197,
          "duration": 0.75
        },
        {
          "name": "G#4",
          "midi": 68,
          "time": 57.75,
          "velocity": 0.7165354330708661,
          "duration": 0.75
        },
        {
          "name": "D#5",
          "midi": 75,
          "time": 57.75,
          "velocity": 0.7165354330708661,
          "duration": 0.75
        },
        {
          "name": "G#5",
          "midi": 80,
          "time": 57.75,
          "velocity": 0.7165354330708661,
          "duration": 0.75
        },
        {
          "name": "D#5",
          "midi": 75,
          "time": 58.5,
          "velocity": 0.8110236220472441,
          "duration": 0.75
        },
        {
          "name": "G#5",
          "midi": 80,
          "time": 58.5,
          "velocity": 0.8110236220472441,
          "duration": 0.75
        },
        {
          "name": "G#4",
          "midi": 68,
          "time": 58.5,
          "velocity": 0.8110236220472441,
          "duration": 0.75
        },
        {
          "name": "D#5",
          "midi": 75,
          "time": 59.25,
          "velocity": 0.905511811023622,
          "duration": 0.75
        },
        {
          "name": "G#5",
          "midi": 80,
          "time": 59.25,
          "velocity": 0.905511811023622,
          "duration": 0.75
        },
        {
          "name": "G#4",
          "midi": 68,
          "time": 59.25,
          "velocity": 0.905511811023622,
          "duration": 0.75
        },
        {
          "name": "F4",
          "midi": 65,
          "time": 75,
          "velocity": 0.5433070866141733,
          "duration": 0.75
        },
        {
          "name": "F5",
          "midi": 77,
          "time": 75,
          "velocity": 0.5433070866141733,
          "duration": 0.75
        },
        {
          "name": "C5",
          "midi": 72,
          "time": 75,
          "velocity": 0.5433070866141733,
          "duration": 0.75
        },
        {
          "name": "C5",
          "midi": 72,
          "time": 75.75,
          "velocity": 0.6141732283464567,
          "duration": 0.75
        },
        {
          "name": "F5",
          "midi": 77,
          "time": 75.75,
          "velocity": 0.6141732283464567,
          "duration": 0.75
        },
        {
          "name": "F4",
          "midi": 65,
          "time": 75.75,
          "velocity": 0.6141732283464567,
          "duration": 0.75
        },
        {
          "name": "F4",
          "midi": 65,
          "time": 76.5,
          "velocity": 0.6771653543307087,
          "duration": 0.75
        },
        {
          "name": "C5",
          "midi": 72,
          "time": 76.5,
          "velocity": 0.6771653543307087,
          "duration": 0.75
        },
        {
          "name": "F5",
          "midi": 77,
          "time": 76.5,
          "velocity": 0.6771653543307087,
          "duration": 0.75
        },
        {
          "name": "C5",
          "midi": 72,
          "time": 77.25,
          "velocity": 0.7480314960629921,
          "duration": 0.75
        },
        {
          "name": "F4",
          "midi": 65,
          "time": 77.25,
          "velocity": 0.7480314960629921,
          "duration": 0.75
        },
        {
          "name": "F5",
          "midi": 77,
          "time": 77.25,
          "velocity": 0.7480314960629921,
          "duration": 0.75
        },
        {
          "name": "C4",
          "midi": 60,
          "time": 78,
          "velocity": 0.7086614173228346,
          "duration": 0.75
        },
        {
          "name": "C5",
          "midi": 72,
          "time": 78,
          "velocity": 0.7086614173228346,
          "duration": 0.75
        },
        {
          "name": "F4",
          "midi": 65,
          "time": 78,
          "velocity": 0.7086614173228346,
          "duration": 0.75
        },
        {
          "name": "C4",
          "midi": 60,
          "time": 78.75,
          "velocity": 0.7165354330708661,
          "duration": 0.75
        },
        {
          "name": "F4",
          "midi": 65,
          "time": 78.75,
          "velocity": 0.7165354330708661,
          "duration": 0.75
        },
        {
          "name": "C5",
          "midi": 72,
          "time": 78.75,
          "velocity": 0.7165354330708661,
          "duration": 0.75
        },
        {
          "name": "F4",
          "midi": 65,
          "time": 79.5,
          "velocity": 0.7322834645669292,
          "duration": 0.75
        },
        {
          "name": "C5",
          "midi": 72,
          "time": 79.5,
          "velocity": 0.7322834645669292,
          "duration": 0.75
        },
        {
          "name": "C4",
          "midi": 60,
          "time": 79.5,
          "velocity": 0.7322834645669292,
          "duration": 0.75
        },
        {
          "name": "C4",
          "midi": 60,
          "time": 80.25,
          "velocity": 0.7401574803149606,
          "duration": 0.75
        },
        {
          "name": "F4",
          "midi": 65,
          "time": 80.25,
          "velocity": 0.7401574803149606,
          "duration": 0.75
        },
        {
          "name": "C5",
          "midi": 72,
          "time": 80.25,
          "velocity": 0.7401574803149606,
          "duration": 0.75
        },
        {
          "name": "C4",
          "midi": 60,
          "time": 81,
          "velocity": 0.7480314960629921,
          "duration": 0.75
        },
        {
          "name": "C5",
          "midi": 72,
          "time": 81,
          "velocity": 0.7480314960629921,
          "duration": 0.75
        },
        {
          "name": "F4",
          "midi": 65,
          "time": 81,
          "velocity": 0.7480314960629921,
          "duration": 0.75
        },
        {
          "name": "F4",
          "midi": 65,
          "time": 81.75,
          "velocity": 0.7559055118110236,
          "duration": 0.75
        },
        {
          "name": "C5",
          "midi": 72,
          "time": 81.75,
          "velocity": 0.7559055118110236,
          "duration": 0.75
        },
        {
          "name": "C4",
          "midi": 60,
          "time": 81.75,
          "velocity": 0.7559055118110236,
          "duration": 0.75
        },
        {
          "name": "F4",
          "midi": 65,
          "time": 82.5,
          "velocity": 0.7716535433070866,
          "duration": 0.75
        },
        {
          "name": "C4",
          "midi": 60,
          "time": 82.5,
          "velocity": 0.7716535433070866,
          "duration": 0.75
        },
        {
          "name": "C5",
          "midi": 72,
          "time": 82.5,
          "velocity": 0.7716535433070866,
          "duration": 0.75
        },
        {
          "name": "C4",
          "midi": 60,
          "time": 83.25,
          "velocity": 0.7795275590551181,
          "duration": 0.75
        },
        {
          "name": "C5",
          "midi": 72,
          "time": 83.25,
          "velocity": 0.7795275590551181,
          "duration": 0.75
        },
        {
          "name": "F4",
          "midi": 65,
          "time": 83.25,
          "velocity": 0.7795275590551181,
          "duration": 0.75
        },
        {
          "name": "A#4",
          "midi": 70,
          "time": 84,
          "velocity": 0.7086614173228346,
          "duration": 0.75
        },
        {
          "name": "F4",
          "midi": 65,
          "time": 84,
          "velocity": 0.7086614173228346,
          "duration": 0.75
        },
        {
          "name": "D5",
          "midi": 74,
          "time": 84,
          "velocity": 0.7086614173228346,
          "duration": 0.75
        },
        {
          "name": "D5",
          "midi": 74,
          "time": 84.75,
          "velocity": 0.7480314960629921,
          "duration": 0.75
        },
        {
          "name": "F4",
          "midi": 65,
          "time": 84.75,
          "velocity": 0.7480314960629921,
          "duration": 0.75
        },
        {
          "name": "A#4",
          "midi": 70,
          "time": 84.75,
          "velocity": 0.7480314960629921,
          "duration": 0.75
        },
        {
          "name": "A#4",
          "midi": 70,
          "time": 85.5,
          "velocity": 0.7795275590551181,
          "duration": 0.75
        },
        {
          "name": "G4",
          "midi": 67,
          "time": 85.5,
          "velocity": 0.7795275590551181,
          "duration": 0.75
        },
        {
          "name": "E4",
          "midi": 64,
          "time": 85.5,
          "velocity": 0.7795275590551181,
          "duration": 0.75
        },
        {
          "name": "E4",
          "midi": 64,
          "time": 86.25,
          "velocity": 0.8188976377952756,
          "duration": 0.75
        },
        {
          "name": "G4",
          "midi": 67,
          "time": 86.25,
          "velocity": 0.8188976377952756,
          "duration": 0.75
        },
        {
          "name": "A#4",
          "midi": 70,
          "time": 86.25,
          "velocity": 0.8188976377952756,
          "duration": 0.75
        },
        {
          "name": "F4",
          "midi": 65,
          "time": 87,
          "velocity": 0.8582677165354331,
          "duration": 0.75
        },
        {
          "name": "C4",
          "midi": 60,
          "time": 87,
          "velocity": 0.8582677165354331,
          "duration": 0.75
        },
        {
          "name": "C5",
          "midi": 72,
          "time": 87,
          "velocity": 0.8582677165354331,
          "duration": 0.75
        },
        {
          "name": "C5",
          "midi": 72,
          "time": 87.75,
          "velocity": 0.889763779527559,
          "duration": 0.75
        },
        {
          "name": "F4",
          "midi": 65,
          "time": 87.75,
          "velocity": 0.889763779527559,
          "duration": 0.75
        },
        {
          "name": "C4",
          "midi": 60,
          "time": 87.75,
          "velocity": 0.889763779527559,
          "duration": 0.75
        },
        {
          "name": "F4",
          "midi": 65,
          "time": 88.5,
          "velocity": 0.9291338582677166,
          "duration": 0.75
        },
        {
          "name": "C5",
          "midi": 72,
          "time": 88.5,
          "velocity": 0.9291338582677166,
          "duration": 0.75
        },
        {
          "name": "C4",
          "midi": 60,
          "time": 88.5,
          "velocity": 0.9291338582677166,
          "duration": 0.75
        },
        {
          "name": "F4",
          "midi": 65,
          "time": 89.25,
          "velocity": 0.9606299212598425,
          "duration": 0.3515625
        },
        {
          "name": "C5",
          "midi": 72,
          "time": 89.25,
          "velocity": 0.9606299212598425,
          "duration": 0.3515625
        },
        {
          "name": "C4",
          "midi": 60,
          "time": 89.25,
          "velocity": 0.9606299212598425,
          "duration": 0.3515625
        },
        {
          "name": "F5",
          "midi": 77,
          "time": 89.625,
          "velocity": 0.984251968503937,
          "duration": 0.29999999999999716
        },
        {
          "name": "F5",
          "midi": 77,
          "time": 90,
          "velocity": 1,
          "duration": 0.29999999999999716
        },
        {
          "name": "E5",
          "midi": 76,
          "time": 90.375,
          "velocity": 1,
          "duration": 0.29999999999999716
        },
        {
          "name": "D5",
          "midi": 74,
          "time": 90.75,
          "velocity": 1,
          "duration": 0.29999999999999716
        },
        {
          "name": "C5",
          "midi": 72,
          "time": 91.125,
          "velocity": 1,
          "duration": 0.29999999999999716
        },
        {
          "name": "C5",
          "midi": 72,
          "time": 91.5,
          "velocity": 1,
          "duration": 0.45000000000000284
        },
        {
          "name": "A#4",
          "midi": 70,
          "time": 92.0625,
          "velocity": 1,
          "duration": 0.15000000000000568
        },
        {
          "name": "A4",
          "midi": 69,
          "time": 92.25,
          "velocity": 1,
          "duration": 0.29999999999999716
        },
        {
          "name": "F5",
          "midi": 77,
          "time": 92.625,
          "velocity": 1,
          "duration": 0.29999999999999716
        },
        {
          "name": "F5",
          "midi": 77,
          "time": 93,
          "velocity": 1,
          "duration": 0.29999999999999716
        },
        {
          "name": "E5",
          "midi": 76,
          "time": 93.375,
          "velocity": 1,
          "duration": 0.29999999999999716
        },
        {
          "name": "D5",
          "midi": 74,
          "time": 93.75,
          "velocity": 1,
          "duration": 0.29999999999999716
        },
        {
          "name": "C5",
          "midi": 72,
          "time": 94.125,
          "velocity": 1,
          "duration": 0.29999999999999716
        },
        {
          "name": "E4",
          "midi": 64,
          "time": 94.6875,
          "velocity": 1,
          "duration": 0.29999999999999716
        },
        {
          "name": "C5",
          "midi": 72,
          "time": 94.6875,
          "velocity": 1,
          "duration": 0.29999999999999716
        },
        {
          "name": "E4",
          "midi": 64,
          "time": 95.0625,
          "velocity": 1,
          "duration": 0.15000000000000568
        },
        {
          "name": "A#4",
          "midi": 70,
          "time": 95.0625,
          "velocity": 1,
          "duration": 0.15000000000000568
        },
        {
          "name": "F4",
          "midi": 65,
          "time": 95.25,
          "velocity": 1,
          "duration": 0.29999999999999716
        },
        {
          "name": "A4",
          "midi": 69,
          "time": 95.25,
          "velocity": 1,
          "duration": 0.29999999999999716
        },
        {
          "name": "F4",
          "midi": 65,
          "time": 95.625,
          "velocity": 1,
          "duration": 0.29999999999999716
        },
        {
          "name": "A4",
          "midi": 69,
          "time": 95.625,
          "velocity": 1,
          "duration": 0.29999999999999716
        },
        {
          "name": "A4",
          "midi": 69,
          "time": 96,
          "velocity": 0.7874015748031497,
          "duration": 0.29999999999999716
        },
        {
          "name": "A4",
          "midi": 69,
          "time": 96.375,
          "velocity": 0.7874015748031497,
          "duration": 0.29999999999999716
        },
        {
          "name": "A4",
          "midi": 69,
          "time": 96.75,
          "velocity": 0.7874015748031497,
          "duration": 0.29999999999999716
        },
        {
          "name": "A4",
          "midi": 69,
          "time": 97.125,
          "velocity": 0.7874015748031497,
          "duration": 0.15000000000000568
        },
        {
          "name": "A#4",
          "midi": 70,
          "time": 97.3125,
          "velocity": 0.7874015748031497,
          "duration": 0.15000000000000568
        },
        {
          "name": "C5",
          "midi": 72,
          "time": 97.5,
          "velocity": 0.7874015748031497,
          "duration": 0.9000000000000057
        },
        {
          "name": "A#4",
          "midi": 70,
          "time": 98.625,
          "velocity": 0.7874015748031497,
          "duration": 0.15000000000000568
        },
        {
          "name": "A4",
          "midi": 69,
          "time": 98.8125,
          "velocity": 0.7874015748031497,
          "duration": 0.15000000000000568
        },
        {
          "name": "G4",
          "midi": 67,
          "time": 99,
          "velocity": 0.7874015748031497,
          "duration": 0.29999999999999716
        },
        {
          "name": "G4",
          "midi": 67,
          "time": 99.375,
          "velocity": 0.7874015748031497,
          "duration": 0.29999999999999716
        },
        {
          "name": "G4",
          "midi": 67,
          "time": 99.75,
          "velocity": 0.7874015748031497,
          "duration": 0.29999999999999716
        },
        {
          "name": "G4",
          "midi": 67,
          "time": 100.125,
          "velocity": 0.7874015748031497,
          "duration": 0.15000000000000568
        },
        {
          "name": "A4",
          "midi": 69,
          "time": 100.3125,
          "velocity": 0.7874015748031497,
          "duration": 0.15000000000000568
        },
        {
          "name": "A#4",
          "midi": 70,
          "time": 100.5,
          "velocity": 0.7874015748031497,
          "duration": 0.9000000000000057
        },
        {
          "name": "A4",
          "midi": 69,
          "time": 101.4375,
          "velocity": 0.7874015748031497,
          "duration": 0.07500000000000284
        },
        {
          "name": "A#4",
          "midi": 70,
          "time": 101.53125,
          "velocity": 0.7874015748031497,
          "duration": 0.07500000000000284
        },
        {
          "name": "A4",
          "midi": 69,
          "time": 101.625,
          "velocity": 0.7874015748031497,
          "duration": 0.15000000000000568
        },
        {
          "name": "G4",
          "midi": 67,
          "time": 101.8125,
          "velocity": 0.7874015748031497,
          "duration": 0.15000000000000568
        },
        {
          "name": "F4",
          "midi": 65,
          "time": 102,
          "velocity": 0.7874015748031497,
          "duration": 0.29999999999999716
        },
        {
          "name": "A4",
          "midi": 69,
          "time": 102.375,
          "velocity": 0.7874015748031497,
          "duration": 0.5999999999999943
        },
        {
          "name": "F5",
          "midi": 77,
          "time": 102.375,
          "velocity": 0.7874015748031497,
          "duration": 0.5999999999999943
        },
        {
          "name": "D5",
          "midi": 74,
          "time": 103.125,
          "velocity": 0.7874015748031497,
          "duration": 0.29999999999999716
        },
        {
          "name": "A#4",
          "midi": 70,
          "time": 103.125,
          "velocity": 0.7874015748031497,
          "duration": 0.29999999999999716
        },
        {
          "name": "A4",
          "midi": 69,
          "time": 103.5,
          "velocity": 0.7874015748031497,
          "duration": 0.45000000000000284
        },
        {
          "name": "C5",
          "midi": 72,
          "time": 103.5,
          "velocity": 0.7874015748031497,
          "duration": 0.45000000000000284
        },
        {
          "name": "G4",
          "midi": 67,
          "time": 104.0625,
          "velocity": 0.7874015748031497,
          "duration": 0.15000000000000568
        },
        {
          "name": "A#4",
          "midi": 70,
          "time": 104.0625,
          "velocity": 0.7874015748031497,
          "duration": 0.15000000000000568
        },
        {
          "name": "A4",
          "midi": 69,
          "time": 104.25,
          "velocity": 0.7874015748031497,
          "duration": 0.29999999999999716
        },
        {
          "name": "F4",
          "midi": 65,
          "time": 104.25,
          "velocity": 0.7874015748031497,
          "duration": 0.29999999999999716
        },
        {
          "name": "A#4",
          "midi": 70,
          "time": 104.625,
          "velocity": 0.7874015748031497,
          "duration": 0.29999999999999716
        },
        {
          "name": "G4",
          "midi": 67,
          "time": 104.625,
          "velocity": 0.7874015748031497,
          "duration": 0.29999999999999716
        },
        {
          "name": "A4",
          "midi": 69,
          "time": 105,
          "velocity": 0.7874015748031497,
          "duration": 0.5999999999999943
        },
        {
          "name": "E4",
          "midi": 64,
          "time": 105.75,
          "velocity": 0.7874015748031497,
          "duration": 0.45000000000000284
        },
        {
          "name": "G4",
          "midi": 67,
          "time": 105.75,
          "velocity": 0.7874015748031497,
          "duration": 0.45000000000000284
        },
        {
          "name": "F4",
          "midi": 65,
          "time": 106.3125,
          "velocity": 0.7874015748031497,
          "duration": 0.15000000000000568
        },
        {
          "name": "D4",
          "midi": 62,
          "time": 106.3125,
          "velocity": 0.7874015748031497,
          "duration": 0.15000000000000568
        },
        {
          "name": "G4",
          "midi": 67,
          "time": 106.5,
          "velocity": 0.7874015748031497,
          "duration": 0.45000000000000284
        },
        {
          "name": "E4",
          "midi": 64,
          "time": 106.5,
          "velocity": 0.7874015748031497,
          "duration": 0.45000000000000284
        },
        {
          "name": "C4",
          "midi": 60,
          "time": 107.0625,
          "velocity": 0.7874015748031497,
          "duration": 0.15000000000000568
        },
        {
          "name": "E4",
          "midi": 64,
          "time": 107.25,
          "velocity": 0.7874015748031497,
          "duration": 0.29999999999999716
        },
        {
          "name": "G4",
          "midi": 67,
          "time": 107.625,
          "velocity": 0.7874015748031497,
          "duration": 0.29999999999999716
        },
        {
          "name": "G4",
          "midi": 67,
          "time": 108.1875,
          "velocity": 0.7874015748031497,
          "duration": 0.15000000000000568
        },
        {
          "name": "C5",
          "midi": 72,
          "time": 108.375,
          "velocity": 0.7874015748031497,
          "duration": 0.15000000000000568
        },
        {
          "name": "D5",
          "midi": 74,
          "time": 108.5625,
          "velocity": 0.7874015748031497,
          "duration": 0.15000000000000568
        },
        {
          "name": "C5",
          "midi": 72,
          "time": 108.9375,
          "velocity": 0.7874015748031497,
          "duration": 0.15000000000000568
        },
        {
          "name": "D5",
          "midi": 74,
          "time": 109.125,
          "velocity": 0.7874015748031497,
          "duration": 0.15000000000000568
        },
        {
          "name": "E5",
          "midi": 76,
          "time": 109.3125,
          "velocity": 0.7874015748031497,
          "duration": 0.15000000000000568
        },
        {
          "name": "E5",
          "midi": 76,
          "time": 109.5,
          "velocity": 0.7874015748031497,
          "duration": 0.15000000000000568
        },
        {
          "name": "D5",
          "midi": 74,
          "time": 109.6875,
          "velocity": 0.7874015748031497,
          "duration": 0.15000000000000568
        },
        {
          "name": "C5",
          "midi": 72,
          "time": 109.875,
          "velocity": 0.7874015748031497,
          "duration": 0.15000000000000568
        },
        {
          "name": "D5",
          "midi": 74,
          "time": 110.0625,
          "velocity": 0.7874015748031497,
          "duration": 0.15000000000000568
        },
        {
          "name": "C5",
          "midi": 72,
          "time": 110.25,
          "velocity": 0.7874015748031497,
          "duration": 0.29999999999999716
        },
        {
          "name": "B4",
          "midi": 71,
          "time": 110.625,
          "velocity": 0.7874015748031497,
          "duration": 0.15000000000000568
        },
        {
          "name": "C5",
          "midi": 72,
          "time": 110.8125,
          "velocity": 0.7874015748031497,
          "duration": 0.15000000000000568
        },
        {
          "name": "G5",
          "midi": 79,
          "time": 111,
          "velocity": 0.25196850393700787,
          "duration": 0.75
        },
        {
          "name": "C6",
          "midi": 84,
          "time": 111,
          "velocity": 0.25196850393700787,
          "duration": 0.75
        },
        {
          "name": "C5",
          "midi": 72,
          "time": 111,
          "velocity": 0.25196850393700787,
          "duration": 0.75
        },
        {
          "name": "C5",
          "midi": 72,
          "time": 111.75,
          "velocity": 0.3700787401574803,
          "duration": 0.75
        },
        {
          "name": "C6",
          "midi": 84,
          "time": 111.75,
          "velocity": 0.3700787401574803,
          "duration": 0.75
        },
        {
          "name": "G5",
          "midi": 79,
          "time": 111.75,
          "velocity": 0.3700787401574803,
          "duration": 0.75
        },
        {
          "name": "C5",
          "midi": 72,
          "time": 112.5,
          "velocity": 0.48031496062992124,
          "duration": 0.75
        },
        {
          "name": "G5",
          "midi": 79,
          "time": 112.5,
          "velocity": 0.48031496062992124,
          "duration": 0.75
        },
        {
          "name": "C6",
          "midi": 84,
          "time": 112.5,
          "velocity": 0.48031496062992124,
          "duration": 0.75
        },
        {
          "name": "C6",
          "midi": 84,
          "time": 113.25,
          "velocity": 0.5984251968503937,
          "duration": 0.75
        },
        {
          "name": "G5",
          "midi": 79,
          "time": 113.25,
          "velocity": 0.5984251968503937,
          "duration": 0.75
        },
        {
          "name": "C5",
          "midi": 72,
          "time": 113.25,
          "velocity": 0.5984251968503937,
          "duration": 0.75
        },
        {
          "name": "C5",
          "midi": 72,
          "time": 114,
          "velocity": 0.7165354330708661,
          "duration": 0.75
        },
        {
          "name": "C6",
          "midi": 84,
          "time": 114,
          "velocity": 0.7165354330708661,
          "duration": 0.75
        },
        {
          "name": "G5",
          "midi": 79,
          "time": 114,
          "velocity": 0.7165354330708661,
          "duration": 0.75
        },
        {
          "name": "C6",
          "midi": 84,
          "time": 114.75,
          "velocity": 0.7874015748031497,
          "duration": 0.75
        },
        {
          "name": "G5",
          "midi": 79,
          "time": 114.75,
          "velocity": 0.7874015748031497,
          "duration": 0.75
        },
        {
          "name": "C5",
          "midi": 72,
          "time": 114.75,
          "velocity": 0.7874015748031497,
          "duration": 0.75
        },
        {
          "name": "G5",
          "midi": 79,
          "time": 115.5,
          "velocity": 0.8582677165354331,
          "duration": 0.75
        },
        {
          "name": "C6",
          "midi": 84,
          "time": 115.5,
          "velocity": 0.8582677165354331,
          "duration": 0.75
        },
        {
          "name": "C5",
          "midi": 72,
          "time": 115.5,
          "velocity": 0.8582677165354331,
          "duration": 0.75
        },
        {
          "name": "C6",
          "midi": 84,
          "time": 116.25,
          "velocity": 0.9291338582677166,
          "duration": 0.75
        },
        {
          "name": "C5",
          "midi": 72,
          "time": 116.25,
          "velocity": 0.9291338582677166,
          "duration": 0.75
        },
        {
          "name": "G5",
          "midi": 79,
          "time": 116.25,
          "velocity": 0.9291338582677166,
          "duration": 0.75
        },
        {
          "name": "G#4",
          "midi": 68,
          "time": 141,
          "velocity": 0.25196850393700787,
          "duration": 0.75
        },
        {
          "name": "D#5",
          "midi": 75,
          "time": 141,
          "velocity": 0.25196850393700787,
          "duration": 0.75
        },
        {
          "name": "G#5",
          "midi": 80,
          "time": 141,
          "velocity": 0.25196850393700787,
          "duration": 0.75
        },
        {
          "name": "G#5",
          "midi": 80,
          "time": 141.75,
          "velocity": 0.3228346456692913,
          "duration": 0.75
        },
        {
          "name": "D#5",
          "midi": 75,
          "time": 141.75,
          "velocity": 0.3228346456692913,
          "duration": 0.75
        },
        {
          "name": "G#4",
          "midi": 68,
          "time": 141.75,
          "velocity": 0.3228346456692913,
          "duration": 0.75
        },
        {
          "name": "D#5",
          "midi": 75,
          "time": 142.5,
          "velocity": 0.3858267716535433,
          "duration": 0.75
        },
        {
          "name": "G#5",
          "midi": 80,
          "time": 142.5,
          "velocity": 0.3858267716535433,
          "duration": 0.75
        },
        {
          "name": "G#4",
          "midi": 68,
          "time": 142.5,
          "velocity": 0.3858267716535433,
          "duration": 0.75
        },
        {
          "name": "G#4",
          "midi": 68,
          "time": 143.25,
          "velocity": 0.4566929133858268,
          "duration": 0.75
        },
        {
          "name": "D#5",
          "midi": 75,
          "time": 143.25,
          "velocity": 0.4566929133858268,
          "duration": 0.75
        },
        {
          "name": "G#5",
          "midi": 80,
          "time": 143.25,
          "velocity": 0.4566929133858268,
          "duration": 0.75
        },
        {
          "name": "D#5",
          "midi": 75,
          "time": 144,
          "velocity": 0.5196850393700787,
          "duration": 0.75
        },
        {
          "name": "G#4",
          "midi": 68,
          "time": 144,
          "velocity": 0.5196850393700787,
          "duration": 0.75
        },
        {
          "name": "G#5",
          "midi": 80,
          "time": 144,
          "velocity": 0.5196850393700787,
          "duration": 0.75
        },
        {
          "name": "G#5",
          "midi": 80,
          "time": 144.75,
          "velocity": 0.5905511811023622,
          "duration": 0.75
        },
        {
          "name": "G#4",
          "midi": 68,
          "time": 144.75,
          "velocity": 0.5905511811023622,
          "duration": 0.75
        },
        {
          "name": "D#5",
          "midi": 75,
          "time": 144.75,
          "velocity": 0.5905511811023622,
          "duration": 0.75
        },
        {
          "name": "G#4",
          "midi": 68,
          "time": 145.5,
          "velocity": 0.6535433070866141,
          "duration": 0.75
        },
        {
          "name": "G#5",
          "midi": 80,
          "time": 145.5,
          "velocity": 0.6535433070866141,
          "duration": 0.75
        },
        {
          "name": "D#5",
          "midi": 75,
          "time": 145.5,
          "velocity": 0.6535433070866141,
          "duration": 0.75
        },
        {
          "name": "G#4",
          "midi": 68,
          "time": 146.25,
          "velocity": 0.7244094488188977,
          "duration": 0.75
        },
        {
          "name": "D#5",
          "midi": 75,
          "time": 146.25,
          "velocity": 0.7244094488188977,
          "duration": 0.75
        },
        {
          "name": "G#5",
          "midi": 80,
          "time": 146.25,
          "velocity": 0.7244094488188977,
          "duration": 0.75
        },
        {
          "name": "G#4",
          "midi": 68,
          "time": 147,
          "velocity": 0.7874015748031497,
          "duration": 0.75
        },
        {
          "name": "G#5",
          "midi": 80,
          "time": 147,
          "velocity": 0.7874015748031497,
          "duration": 0.75
        },
        {
          "name": "D#5",
          "midi": 75,
          "time": 147,
          "velocity": 0.7874015748031497,
          "duration": 0.75
        },
        {
          "name": "G#4",
          "midi": 68,
          "time": 147.75,
          "velocity": 0.7165354330708661,
          "duration": 0.75
        },
        {
          "name": "G#5",
          "midi": 80,
          "time": 147.75,
          "velocity": 0.7165354330708661,
          "duration": 0.75
        },
        {
          "name": "D#5",
          "midi": 75,
          "time": 147.75,
          "velocity": 0.7165354330708661,
          "duration": 0.75
        },
        {
          "name": "G#5",
          "midi": 80,
          "time": 148.5,
          "velocity": 0.6535433070866141,
          "duration": 0.75
        },
        {
          "name": "D#5",
          "midi": 75,
          "time": 148.5,
          "velocity": 0.6535433070866141,
          "duration": 0.75
        },
        {
          "name": "G#4",
          "midi": 68,
          "time": 148.5,
          "velocity": 0.6535433070866141,
          "duration": 0.75
        },
        {
          "name": "G#4",
          "midi": 68,
          "time": 149.25,
          "velocity": 0.5826771653543307,
          "duration": 0.75
        },
        {
          "name": "G#5",
          "midi": 80,
          "time": 149.25,
          "velocity": 0.5826771653543307,
          "duration": 0.75
        },
        {
          "name": "D#5",
          "midi": 75,
          "time": 149.25,
          "velocity": 0.5826771653543307,
          "duration": 0.75
        },
        {
          "name": "D#5",
          "midi": 75,
          "time": 150,
          "velocity": 0.5196850393700787,
          "duration": 0.75
        },
        {
          "name": "G#4",
          "midi": 68,
          "time": 150,
          "velocity": 0.5196850393700787,
          "duration": 0.75
        },
        {
          "name": "G#5",
          "midi": 80,
          "time": 150,
          "velocity": 0.5196850393700787,
          "duration": 0.75
        },
        {
          "name": "G#4",
          "midi": 68,
          "time": 150.75,
          "velocity": 0.44881889763779526,
          "duration": 0.75
        },
        {
          "name": "G#5",
          "midi": 80,
          "time": 150.75,
          "velocity": 0.44881889763779526,
          "duration": 0.75
        },
        {
          "name": "D#5",
          "midi": 75,
          "time": 150.75,
          "velocity": 0.44881889763779526,
          "duration": 0.75
        },
        {
          "name": "G#4",
          "midi": 68,
          "time": 151.5,
          "velocity": 0.3858267716535433,
          "duration": 0.75
        },
        {
          "name": "D#5",
          "midi": 75,
          "time": 151.5,
          "velocity": 0.3858267716535433,
          "duration": 0.75
        },
        {
          "name": "G#5",
          "midi": 80,
          "time": 151.5,
          "velocity": 0.3858267716535433,
          "duration": 0.75
        },
        {
          "name": "G#5",
          "midi": 80,
          "time": 152.25,
          "velocity": 0.31496062992125984,
          "duration": 0.75
        },
        {
          "name": "D#5",
          "midi": 75,
          "time": 152.25,
          "velocity": 0.31496062992125984,
          "duration": 0.75
        },
        {
          "name": "G#4",
          "midi": 68,
          "time": 152.25,
          "velocity": 0.31496062992125984,
          "duration": 0.75
        },
        {
          "name": "G#5",
          "midi": 80,
          "time": 153,
          "velocity": 0.25196850393700787,
          "duration": 0.75
        },
        {
          "name": "G#4",
          "midi": 68,
          "time": 153,
          "velocity": 0.25196850393700787,
          "duration": 0.75
        },
        {
          "name": "D#5",
          "midi": 75,
          "time": 153,
          "velocity": 0.25196850393700787,
          "duration": 0.75
        },
        {
          "name": "G#4",
          "midi": 68,
          "time": 153.75,
          "velocity": 0.4015748031496063,
          "duration": 0.75
        },
        {
          "name": "G#5",
          "midi": 80,
          "time": 153.75,
          "velocity": 0.4015748031496063,
          "duration": 0.75
        },
        {
          "name": "D#5",
          "midi": 75,
          "time": 153.75,
          "velocity": 0.4015748031496063,
          "duration": 0.75
        },
        {
          "name": "D#5",
          "midi": 75,
          "time": 154.5,
          "velocity": 0.5433070866141733,
          "duration": 0.75
        },
        {
          "name": "G#4",
          "midi": 68,
          "time": 154.5,
          "velocity": 0.5433070866141733,
          "duration": 0.75
        },
        {
          "name": "G#5",
          "midi": 80,
          "time": 154.5,
          "velocity": 0.5433070866141733,
          "duration": 0.75
        },
        {
          "name": "G#5",
          "midi": 80,
          "time": 155.25,
          "velocity": 0.6929133858267716,
          "duration": 0.75
        },
        {
          "name": "D#5",
          "midi": 75,
          "time": 155.25,
          "velocity": 0.6929133858267716,
          "duration": 0.75
        },
        {
          "name": "G#4",
          "midi": 68,
          "time": 155.25,
          "velocity": 0.6929133858267716,
          "duration": 0.75
        },
        {
          "name": "G#4",
          "midi": 68,
          "time": 156,
          "velocity": 0.7952755905511811,
          "duration": 0.75
        },
        {
          "name": "D#5",
          "midi": 75,
          "time": 156,
          "velocity": 0.7952755905511811,
          "duration": 0.75
        },
        {
          "name": "G#5",
          "midi": 80,
          "time": 156,
          "velocity": 0.7952755905511811,
          "duration": 0.75
        },
        {
          "name": "D#5",
          "midi": 75,
          "time": 156.75,
          "velocity": 0.6377952755905512,
          "duration": 0.75
        },
        {
          "name": "G#4",
          "midi": 68,
          "time": 156.75,
          "velocity": 0.6377952755905512,
          "duration": 0.75
        },
        {
          "name": "G#5",
          "midi": 80,
          "time": 156.75,
          "velocity": 0.6377952755905512,
          "duration": 0.75
        },
        {
          "name": "D#5",
          "midi": 75,
          "time": 157.5,
          "velocity": 0.4881889763779528,
          "duration": 0.75
        },
        {
          "name": "G#5",
          "midi": 80,
          "time": 157.5,
          "velocity": 0.4881889763779528,
          "duration": 0.75
        },
        {
          "name": "G#4",
          "midi": 68,
          "time": 157.5,
          "velocity": 0.4881889763779528,
          "duration": 0.75
        },
        {
          "name": "D#5",
          "midi": 75,
          "time": 158.25,
          "velocity": 0.33858267716535434,
          "duration": 0.75
        },
        {
          "name": "G#5",
          "midi": 80,
          "time": 158.25,
          "velocity": 0.33858267716535434,
          "duration": 0.75
        },
        {
          "name": "G#4",
          "midi": 68,
          "time": 158.25,
          "velocity": 0.33858267716535434,
          "duration": 0.75
        },
        {
          "name": "G#4",
          "midi": 68,
          "time": 159,
          "velocity": 0.25196850393700787,
          "duration": 0.75
        },
        {
          "name": "D#5",
          "midi": 75,
          "time": 159,
          "velocity": 0.25196850393700787,
          "duration": 0.75
        },
        {
          "name": "G#5",
          "midi": 80,
          "time": 159,
          "velocity": 0.25196850393700787,
          "duration": 0.75
        },
        {
          "name": "G#4",
          "midi": 68,
          "time": 159.75,
          "velocity": 0.3464566929133858,
          "duration": 0.75
        },
        {
          "name": "D#5",
          "midi": 75,
          "time": 159.75,
          "velocity": 0.3464566929133858,
          "duration": 0.75
        },
        {
          "name": "G#5",
          "midi": 80,
          "time": 159.75,
          "velocity": 0.3464566929133858,
          "duration": 0.75
        },
        {
          "name": "G#5",
          "midi": 80,
          "time": 160.5,
          "velocity": 0.4409448818897638,
          "duration": 0.75
        },
        {
          "name": "G#4",
          "midi": 68,
          "time": 160.5,
          "velocity": 0.4409448818897638,
          "duration": 0.75
        },
        {
          "name": "D#5",
          "midi": 75,
          "time": 160.5,
          "velocity": 0.4409448818897638,
          "duration": 0.75
        },
        {
          "name": "G#4",
          "midi": 68,
          "time": 161.25,
          "velocity": 0.5354330708661418,
          "duration": 0.75
        },
        {
          "name": "D#5",
          "midi": 75,
          "time": 161.25,
          "velocity": 0.5354330708661418,
          "duration": 0.75
        },
        {
          "name": "G#5",
          "midi": 80,
          "time": 161.25,
          "velocity": 0.5354330708661418,
          "duration": 0.75
        },
        {
          "name": "G#5",
          "midi": 80,
          "time": 162,
          "velocity": 0.6299212598425197,
          "duration": 0.75
        },
        {
          "name": "G#4",
          "midi": 68,
          "time": 162,
          "velocity": 0.6299212598425197,
          "duration": 0.75
        },
        {
          "name": "D#5",
          "midi": 75,
          "time": 162,
          "velocity": 0.6299212598425197,
          "duration": 0.75
        },
        {
          "name": "G#4",
          "midi": 68,
          "time": 162.75,
          "velocity": 0.7165354330708661,
          "duration": 0.75
        },
        {
          "name": "D#5",
          "midi": 75,
          "time": 162.75,
          "velocity": 0.7165354330708661,
          "duration": 0.75
        },
        {
          "name": "G#5",
          "midi": 80,
          "time": 162.75,
          "velocity": 0.7165354330708661,
          "duration": 0.75
        },
        {
          "name": "D#5",
          "midi": 75,
          "time": 163.5,
          "velocity": 0.8110236220472441,
          "duration": 0.75
        },
        {
          "name": "G#5",
          "midi": 80,
          "time": 163.5,
          "velocity": 0.8110236220472441,
          "duration": 0.75
        },
        {
          "name": "G#4",
          "midi": 68,
          "time": 163.5,
          "velocity": 0.8110236220472441,
          "duration": 0.75
        },
        {
          "name": "D#5",
          "midi": 75,
          "time": 164.25,
          "velocity": 0.905511811023622,
          "duration": 0.75
        },
        {
          "name": "G#5",
          "midi": 80,
          "time": 164.25,
          "velocity": 0.905511811023622,
          "duration": 0.75
        },
        {
          "name": "G#4",
          "midi": 68,
          "time": 164.25,
          "velocity": 0.905511811023622,
          "duration": 0.75
        },
        {
          "name": "F4",
          "midi": 65,
          "time": 178.5,
          "velocity": 0.49606299212598426,
          "duration": 0.75
        },
        {
          "name": "F5",
          "midi": 77,
          "time": 178.5,
          "velocity": 0.49606299212598426,
          "duration": 0.75
        },
        {
          "name": "C5",
          "midi": 72,
          "time": 178.5,
          "velocity": 0.49606299212598426,
          "duration": 0.75
        },
        {
          "name": "C5",
          "midi": 72,
          "time": 179.25,
          "velocity": 0.5590551181102362,
          "duration": 0.75
        },
        {
          "name": "F4",
          "midi": 65,
          "time": 179.25,
          "velocity": 0.5590551181102362,
          "duration": 0.75
        },
        {
          "name": "F5",
          "midi": 77,
          "time": 179.25,
          "velocity": 0.5590551181102362,
          "duration": 0.75
        },
        {
          "name": "F4",
          "midi": 65,
          "time": 180,
          "velocity": 0.6220472440944882,
          "duration": 0.75
        },
        {
          "name": "F5",
          "midi": 77,
          "time": 180,
          "velocity": 0.6220472440944882,
          "duration": 0.75
        },
        {
          "name": "C5",
          "midi": 72,
          "time": 180,
          "velocity": 0.6220472440944882,
          "duration": 0.75
        },
        {
          "name": "F5",
          "midi": 77,
          "time": 180.75,
          "velocity": 0.6850393700787402,
          "duration": 0.75
        },
        {
          "name": "F4",
          "midi": 65,
          "time": 180.75,
          "velocity": 0.6850393700787402,
          "duration": 0.75
        },
        {
          "name": "C5",
          "midi": 72,
          "time": 180.75,
          "velocity": 0.6850393700787402,
          "duration": 0.75
        },
        {
          "name": "C5",
          "midi": 72,
          "time": 181.5,
          "velocity": 0.7480314960629921,
          "duration": 0.75
        },
        {
          "name": "F4",
          "midi": 65,
          "time": 181.5,
          "velocity": 0.7480314960629921,
          "duration": 0.75
        },
        {
          "name": "F5",
          "midi": 77,
          "time": 181.5,
          "velocity": 0.7480314960629921,
          "duration": 0.75
        },
        {
          "name": "F5",
          "midi": 77,
          "time": 182.25,
          "velocity": 0.8110236220472441,
          "duration": 0.75
        },
        {
          "name": "F4",
          "midi": 65,
          "time": 182.25,
          "velocity": 0.8110236220472441,
          "duration": 0.75
        },
        {
          "name": "C5",
          "midi": 72,
          "time": 182.25,
          "velocity": 0.8110236220472441,
          "duration": 0.75
        },
        {
          "name": "F4",
          "midi": 65,
          "time": 183,
          "velocity": 0.5039370078740157,
          "duration": 0.75
        },
        {
          "name": "F5",
          "midi": 77,
          "time": 183,
          "velocity": 0.5039370078740157,
          "duration": 0.75
        },
        {
          "name": "C5",
          "midi": 72,
          "time": 183,
          "velocity": 0.5039370078740157,
          "duration": 0.75
        },
        {
          "name": "F4",
          "midi": 65,
          "time": 183.75,
          "velocity": 0.5511811023622047,
          "duration": 0.75
        },
        {
          "name": "C5",
          "midi": 72,
          "time": 183.75,
          "velocity": 0.5511811023622047,
          "duration": 0.75
        },
        {
          "name": "F5",
          "midi": 77,
          "time": 183.75,
          "velocity": 0.5511811023622047,
          "duration": 0.75
        },
        {
          "name": "F4",
          "midi": 65,
          "time": 184.5,
          "velocity": 0.5984251968503937,
          "duration": 0.75
        },
        {
          "name": "F5",
          "midi": 77,
          "time": 184.5,
          "velocity": 0.5984251968503937,
          "duration": 0.75
        },
        {
          "name": "C5",
          "midi": 72,
          "time": 184.5,
          "velocity": 0.5984251968503937,
          "duration": 0.75
        },
        {
          "name": "C5",
          "midi": 72,
          "time": 185.25,
          "velocity": 0.6456692913385826,
          "duration": 0.75
        },
        {
          "name": "F4",
          "midi": 65,
          "time": 185.25,
          "velocity": 0.6456692913385826,
          "duration": 0.75
        },
        {
          "name": "F5",
          "midi": 77,
          "time": 185.25,
          "velocity": 0.6456692913385826,
          "duration": 0.75
        },
        {
          "name": "F4",
          "midi": 65,
          "time": 186,
          "velocity": 0.6929133858267716,
          "duration": 0.75
        },
        {
          "name": "F5",
          "midi": 77,
          "time": 186,
          "velocity": 0.6929133858267716,
          "duration": 0.75
        },
        {
          "name": "C5",
          "midi": 72,
          "time": 186,
          "velocity": 0.6929133858267716,
          "duration": 0.75
        },
        {
          "name": "F4",
          "midi": 65,
          "time": 186.75,
          "velocity": 0.7401574803149606,
          "duration": 0.75
        },
        {
          "name": "F5",
          "midi": 77,
          "time": 186.75,
          "velocity": 0.7401574803149606,
          "duration": 0.75
        },
        {
          "name": "C5",
          "midi": 72,
          "time": 186.75,
          "velocity": 0.7401574803149606,
          "duration": 0.75
        },
        {
          "name": "F4",
          "midi": 65,
          "time": 187.5,
          "velocity": 0.7874015748031497,
          "duration": 0.75
        },
        {
          "name": "F5",
          "midi": 77,
          "time": 187.5,
          "velocity": 0.7874015748031497,
          "duration": 0.75
        },
        {
          "name": "C5",
          "midi": 72,
          "time": 187.5,
          "velocity": 0.7874015748031497,
          "duration": 0.75
        },
        {
          "name": "F4",
          "midi": 65,
          "time": 188.25,
          "velocity": 0.8346456692913385,
          "duration": 0.75
        },
        {
          "name": "C5",
          "midi": 72,
          "time": 188.25,
          "velocity": 0.8346456692913385,
          "duration": 0.75
        },
        {
          "name": "F5",
          "midi": 77,
          "time": 188.25,
          "velocity": 0.8346456692913385,
          "duration": 0.75
        },
        {
          "name": "F4",
          "midi": 65,
          "time": 189,
          "velocity": 0.5039370078740157,
          "duration": 0.75
        },
        {
          "name": "A#4",
          "midi": 70,
          "time": 189,
          "velocity": 0.5039370078740157,
          "duration": 0.75
        },
        {
          "name": "D5",
          "midi": 74,
          "time": 189,
          "velocity": 0.5039370078740157,
          "duration": 0.75
        },
        {
          "name": "D5",
          "midi": 74,
          "time": 189.75,
          "velocity": 0.5511811023622047,
          "duration": 0.75
        },
        {
          "name": "A#4",
          "midi": 70,
          "time": 189.75,
          "velocity": 0.5511811023622047,
          "duration": 0.75
        },
        {
          "name": "F4",
          "midi": 65,
          "time": 189.75,
          "velocity": 0.5511811023622047,
          "duration": 0.75
        },
        {
          "name": "E4",
          "midi": 64,
          "time": 190.5,
          "velocity": 0.6062992125984252,
          "duration": 0.75
        },
        {
          "name": "G4",
          "midi": 67,
          "time": 190.5,
          "velocity": 0.6062992125984252,
          "duration": 0.75
        },
        {
          "name": "A#4",
          "midi": 70,
          "time": 190.5,
          "velocity": 0.6062992125984252,
          "duration": 0.75
        },
        {
          "name": "G4",
          "midi": 67,
          "time": 191.25,
          "velocity": 0.6535433070866141,
          "duration": 0.75
        },
        {
          "name": "E4",
          "midi": 64,
          "time": 191.25,
          "velocity": 0.6535433070866141,
          "duration": 0.75
        },
        {
          "name": "A#4",
          "midi": 70,
          "time": 191.25,
          "velocity": 0.6535433070866141,
          "duration": 0.75
        },
        {
          "name": "C4",
          "midi": 60,
          "time": 192,
          "velocity": 0.7007874015748031,
          "duration": 0.75
        },
        {
          "name": "F4",
          "midi": 65,
          "time": 192,
          "velocity": 0.7007874015748031,
          "duration": 0.75
        },
        {
          "name": "C5",
          "midi": 72,
          "time": 192,
          "velocity": 0.7007874015748031,
          "duration": 0.75
        },
        {
          "name": "C5",
          "midi": 72,
          "time": 192.75,
          "velocity": 0.7559055118110236,
          "duration": 0.75
        },
        {
          "name": "F4",
          "midi": 65,
          "time": 192.75,
          "velocity": 0.7559055118110236,
          "duration": 0.75
        },
        {
          "name": "C4",
          "midi": 60,
          "time": 192.75,
          "velocity": 0.7559055118110236,
          "duration": 0.75
        },
        {
          "name": "F4",
          "midi": 65,
          "time": 193.5,
          "velocity": 0.8031496062992126,
          "duration": 3.375
        },
        {
          "name": "F5",
          "midi": 77,
          "time": 193.5,
          "velocity": 0.8031496062992126,
          "duration": 3.375
        },
        {
          "name": "C5",
          "midi": 72,
          "time": 193.5,
          "velocity": 0.8031496062992126,
          "duration": 3.375
        },
        {
          "name": "F5",
          "midi": 77,
          "time": 196.875,
          "velocity": 0.7007874015748031,
          "duration": 0.375
        },
        {
          "name": "C5",
          "midi": 72,
          "time": 196.875,
          "velocity": 0.7007874015748031,
          "duration": 0.375
        },
        {
          "name": "F4",
          "midi": 65,
          "time": 196.875,
          "velocity": 0.7007874015748031,
          "duration": 0.375
        },
        {
          "name": "F5",
          "midi": 77,
          "time": 197.25,
          "velocity": 0.5275590551181102,
          "duration": 0.375
        },
        {
          "name": "C5",
          "midi": 72,
          "time": 197.25,
          "velocity": 0.5275590551181102,
          "duration": 0.375
        },
        {
          "name": "F4",
          "midi": 65,
          "time": 197.25,
          "velocity": 0.5275590551181102,
          "duration": 0.375
        },
        {
          "name": "F5",
          "midi": 77,
          "time": 197.625,
          "velocity": 0.3543307086614173,
          "duration": 0.375
        },
        {
          "name": "F4",
          "midi": 65,
          "time": 197.625,
          "velocity": 0.3543307086614173,
          "duration": 0.375
        },
        {
          "name": "C5",
          "midi": 72,
          "time": 197.625,
          "velocity": 0.3543307086614173,
          "duration": 0.375
        }
      ],
      "controlChanges": {
        "7": [
          {
            "number": 7,
            "time": 0,
            "value": 0.8661417322834646
          }
        ]
      },
      "id": 5,
      "name": "seq.  Bob D'Errico",
      "instrumentNumber": 48,
      "instrument": "string ensemble 1",
      "instrumentFamily": "ensemble",
      "channelNumber": 4,
      "isPercussion": false
    },
    {
      "startTime": 54,
      "duration": 198,
      "length": 310,
      "notes": [
        {
          "name": "D#5",
          "midi": 75,
          "time": 54,
          "velocity": 0.25196850393700787,
          "duration": 0.75
        },
        {
          "name": "G#5",
          "midi": 80,
          "time": 54,
          "velocity": 0.25196850393700787,
          "duration": 0.75
        },
        {
          "name": "G#4",
          "midi": 68,
          "time": 54,
          "velocity": 0.25196850393700787,
          "duration": 0.75
        },
        {
          "name": "D#5",
          "midi": 75,
          "time": 54.75,
          "velocity": 0.3464566929133858,
          "duration": 0.75
        },
        {
          "name": "G#5",
          "midi": 80,
          "time": 54.75,
          "velocity": 0.3464566929133858,
          "duration": 0.75
        },
        {
          "name": "G#4",
          "midi": 68,
          "time": 54.75,
          "velocity": 0.3464566929133858,
          "duration": 0.75
        },
        {
          "name": "D#5",
          "midi": 75,
          "time": 55.5,
          "velocity": 0.4409448818897638,
          "duration": 0.75
        },
        {
          "name": "G#5",
          "midi": 80,
          "time": 55.5,
          "velocity": 0.4409448818897638,
          "duration": 0.75
        },
        {
          "name": "G#4",
          "midi": 68,
          "time": 55.5,
          "velocity": 0.4409448818897638,
          "duration": 0.75
        },
        {
          "name": "D#5",
          "midi": 75,
          "time": 56.25,
          "velocity": 0.5354330708661418,
          "duration": 0.75
        },
        {
          "name": "G#4",
          "midi": 68,
          "time": 56.25,
          "velocity": 0.5354330708661418,
          "duration": 0.75
        },
        {
          "name": "G#5",
          "midi": 80,
          "time": 56.25,
          "velocity": 0.5354330708661418,
          "duration": 0.75
        },
        {
          "name": "G#5",
          "midi": 80,
          "time": 57,
          "velocity": 0.6299212598425197,
          "duration": 0.75
        },
        {
          "name": "G#4",
          "midi": 68,
          "time": 57,
          "velocity": 0.6299212598425197,
          "duration": 0.75
        },
        {
          "name": "D#5",
          "midi": 75,
          "time": 57,
          "velocity": 0.6299212598425197,
          "duration": 0.75
        },
        {
          "name": "D#5",
          "midi": 75,
          "time": 57.75,
          "velocity": 0.7165354330708661,
          "duration": 0.75
        },
        {
          "name": "G#5",
          "midi": 80,
          "time": 57.75,
          "velocity": 0.7165354330708661,
          "duration": 0.75
        },
        {
          "name": "G#4",
          "midi": 68,
          "time": 57.75,
          "velocity": 0.7165354330708661,
          "duration": 0.75
        },
        {
          "name": "D#5",
          "midi": 75,
          "time": 58.5,
          "velocity": 0.8110236220472441,
          "duration": 0.75
        },
        {
          "name": "G#5",
          "midi": 80,
          "time": 58.5,
          "velocity": 0.8110236220472441,
          "duration": 0.75
        },
        {
          "name": "G#4",
          "midi": 68,
          "time": 58.5,
          "velocity": 0.8110236220472441,
          "duration": 0.75
        },
        {
          "name": "G#5",
          "midi": 80,
          "time": 59.25,
          "velocity": 0.905511811023622,
          "duration": 0.75
        },
        {
          "name": "D#5",
          "midi": 75,
          "time": 59.25,
          "velocity": 0.905511811023622,
          "duration": 0.75
        },
        {
          "name": "G#4",
          "midi": 68,
          "time": 59.25,
          "velocity": 0.905511811023622,
          "duration": 0.75
        },
        {
          "name": "C5",
          "midi": 72,
          "time": 60,
          "velocity": 0.25196850393700787,
          "duration": 0.75
        },
        {
          "name": "F5",
          "midi": 77,
          "time": 60,
          "velocity": 0.25196850393700787,
          "duration": 0.75
        },
        {
          "name": "F4",
          "midi": 65,
          "time": 60,
          "velocity": 0.25196850393700787,
          "duration": 0.75
        },
        {
          "name": "F4",
          "midi": 65,
          "time": 60.75,
          "velocity": 0.3228346456692913,
          "duration": 0.75
        },
        {
          "name": "F5",
          "midi": 77,
          "time": 60.75,
          "velocity": 0.3228346456692913,
          "duration": 0.75
        },
        {
          "name": "C5",
          "midi": 72,
          "time": 60.75,
          "velocity": 0.3228346456692913,
          "duration": 0.75
        },
        {
          "name": "F5",
          "midi": 77,
          "time": 61.5,
          "velocity": 0.3937007874015748,
          "duration": 0.75
        },
        {
          "name": "F4",
          "midi": 65,
          "time": 61.5,
          "velocity": 0.3937007874015748,
          "duration": 0.75
        },
        {
          "name": "C5",
          "midi": 72,
          "time": 61.5,
          "velocity": 0.3937007874015748,
          "duration": 0.75
        },
        {
          "name": "F5",
          "midi": 77,
          "time": 62.25,
          "velocity": 0.4645669291338583,
          "duration": 0.75
        },
        {
          "name": "C5",
          "midi": 72,
          "time": 62.25,
          "velocity": 0.4645669291338583,
          "duration": 0.75
        },
        {
          "name": "F4",
          "midi": 65,
          "time": 62.25,
          "velocity": 0.4645669291338583,
          "duration": 0.75
        },
        {
          "name": "C5",
          "midi": 72,
          "time": 63,
          "velocity": 0.5354330708661418,
          "duration": 0.75
        },
        {
          "name": "F5",
          "midi": 77,
          "time": 63,
          "velocity": 0.5354330708661418,
          "duration": 0.75
        },
        {
          "name": "F4",
          "midi": 65,
          "time": 63,
          "velocity": 0.5354330708661418,
          "duration": 0.75
        },
        {
          "name": "C5",
          "midi": 72,
          "time": 63.75,
          "velocity": 0.6062992125984252,
          "duration": 0.75
        },
        {
          "name": "F4",
          "midi": 65,
          "time": 63.75,
          "velocity": 0.6062992125984252,
          "duration": 0.75
        },
        {
          "name": "F5",
          "midi": 77,
          "time": 63.75,
          "velocity": 0.6062992125984252,
          "duration": 0.75
        },
        {
          "name": "C5",
          "midi": 72,
          "time": 64.5,
          "velocity": 0.6771653543307087,
          "duration": 0.75
        },
        {
          "name": "F5",
          "midi": 77,
          "time": 64.5,
          "velocity": 0.6771653543307087,
          "duration": 0.75
        },
        {
          "name": "F4",
          "midi": 65,
          "time": 64.5,
          "velocity": 0.6771653543307087,
          "duration": 0.75
        },
        {
          "name": "F5",
          "midi": 77,
          "time": 65.25,
          "velocity": 0.7480314960629921,
          "duration": 0.75
        },
        {
          "name": "F4",
          "midi": 65,
          "time": 65.25,
          "velocity": 0.7480314960629921,
          "duration": 0.75
        },
        {
          "name": "C5",
          "midi": 72,
          "time": 65.25,
          "velocity": 0.7480314960629921,
          "duration": 0.75
        },
        {
          "name": "F5",
          "midi": 77,
          "time": 66,
          "velocity": 0.5511811023622047,
          "duration": 0.75
        },
        {
          "name": "F4",
          "midi": 65,
          "time": 66,
          "velocity": 0.5511811023622047,
          "duration": 0.75
        },
        {
          "name": "C5",
          "midi": 72,
          "time": 66,
          "velocity": 0.5511811023622047,
          "duration": 0.75
        },
        {
          "name": "F5",
          "midi": 77,
          "time": 66.75,
          "velocity": 0.5826771653543307,
          "duration": 0.75
        },
        {
          "name": "F4",
          "midi": 65,
          "time": 66.75,
          "velocity": 0.5826771653543307,
          "duration": 0.75
        },
        {
          "name": "C5",
          "midi": 72,
          "time": 66.75,
          "velocity": 0.5826771653543307,
          "duration": 0.75
        },
        {
          "name": "F4",
          "midi": 65,
          "time": 67.5,
          "velocity": 0.6141732283464567,
          "duration": 0.75
        },
        {
          "name": "C5",
          "midi": 72,
          "time": 67.5,
          "velocity": 0.6141732283464567,
          "duration": 0.75
        },
        {
          "name": "F5",
          "midi": 77,
          "time": 67.5,
          "velocity": 0.6141732283464567,
          "duration": 0.75
        },
        {
          "name": "F4",
          "midi": 65,
          "time": 68.25,
          "velocity": 0.6377952755905512,
          "duration": 0.75
        },
        {
          "name": "F5",
          "midi": 77,
          "time": 68.25,
          "velocity": 0.6377952755905512,
          "duration": 0.75
        },
        {
          "name": "C5",
          "midi": 72,
          "time": 68.25,
          "velocity": 0.6377952755905512,
          "duration": 0.75
        },
        {
          "name": "F5",
          "midi": 77,
          "time": 69,
          "velocity": 0.6692913385826772,
          "duration": 0.75
        },
        {
          "name": "C5",
          "midi": 72,
          "time": 69,
          "velocity": 0.6692913385826772,
          "duration": 0.75
        },
        {
          "name": "F4",
          "midi": 65,
          "time": 69,
          "velocity": 0.6692913385826772,
          "duration": 0.75
        },
        {
          "name": "F4",
          "midi": 65,
          "time": 69.75,
          "velocity": 0.7007874015748031,
          "duration": 0.75
        },
        {
          "name": "C5",
          "midi": 72,
          "time": 69.75,
          "velocity": 0.7007874015748031,
          "duration": 0.75
        },
        {
          "name": "F5",
          "midi": 77,
          "time": 69.75,
          "velocity": 0.7007874015748031,
          "duration": 0.75
        },
        {
          "name": "C5",
          "midi": 72,
          "time": 70.5,
          "velocity": 0.7322834645669292,
          "duration": 0.75
        },
        {
          "name": "F5",
          "midi": 77,
          "time": 70.5,
          "velocity": 0.7322834645669292,
          "duration": 0.75
        },
        {
          "name": "F4",
          "midi": 65,
          "time": 70.5,
          "velocity": 0.7322834645669292,
          "duration": 0.75
        },
        {
          "name": "F5",
          "midi": 77,
          "time": 71.25,
          "velocity": 0.7637795275590551,
          "duration": 0.75
        },
        {
          "name": "C5",
          "midi": 72,
          "time": 71.25,
          "velocity": 0.7637795275590551,
          "duration": 0.75
        },
        {
          "name": "F4",
          "midi": 65,
          "time": 71.25,
          "velocity": 0.7637795275590551,
          "duration": 0.75
        },
        {
          "name": "C5",
          "midi": 72,
          "time": 72,
          "velocity": 0.5511811023622047,
          "duration": 0.75
        },
        {
          "name": "F5",
          "midi": 77,
          "time": 72,
          "velocity": 0.5511811023622047,
          "duration": 0.75
        },
        {
          "name": "F4",
          "midi": 65,
          "time": 72,
          "velocity": 0.5511811023622047,
          "duration": 0.75
        },
        {
          "name": "F4",
          "midi": 65,
          "time": 72.75,
          "velocity": 0.5826771653543307,
          "duration": 0.75
        },
        {
          "name": "C5",
          "midi": 72,
          "time": 72.75,
          "velocity": 0.5826771653543307,
          "duration": 0.75
        },
        {
          "name": "F5",
          "midi": 77,
          "time": 72.75,
          "velocity": 0.5826771653543307,
          "duration": 0.75
        },
        {
          "name": "F4",
          "midi": 65,
          "time": 73.5,
          "velocity": 0.6141732283464567,
          "duration": 0.75
        },
        {
          "name": "C5",
          "midi": 72,
          "time": 73.5,
          "velocity": 0.6141732283464567,
          "duration": 0.75
        },
        {
          "name": "F5",
          "midi": 77,
          "time": 73.5,
          "velocity": 0.6141732283464567,
          "duration": 0.75
        },
        {
          "name": "C5",
          "midi": 72,
          "time": 74.25,
          "velocity": 0.6377952755905512,
          "duration": 0.75
        },
        {
          "name": "F4",
          "midi": 65,
          "time": 74.25,
          "velocity": 0.6377952755905512,
          "duration": 0.75
        },
        {
          "name": "F5",
          "midi": 77,
          "time": 74.25,
          "velocity": 0.6377952755905512,
          "duration": 0.75
        },
        {
          "name": "F4",
          "midi": 65,
          "time": 75,
          "velocity": 0.6692913385826772,
          "duration": 0.75
        },
        {
          "name": "C5",
          "midi": 72,
          "time": 75,
          "velocity": 0.6692913385826772,
          "duration": 0.75
        },
        {
          "name": "F5",
          "midi": 77,
          "time": 75,
          "velocity": 0.6692913385826772,
          "duration": 0.75
        },
        {
          "name": "C5",
          "midi": 72,
          "time": 75.75,
          "velocity": 0.7007874015748031,
          "duration": 0.75
        },
        {
          "name": "F4",
          "midi": 65,
          "time": 75.75,
          "velocity": 0.7007874015748031,
          "duration": 0.75
        },
        {
          "name": "F5",
          "midi": 77,
          "time": 75.75,
          "velocity": 0.7007874015748031,
          "duration": 0.75
        },
        {
          "name": "F4",
          "midi": 65,
          "time": 76.5,
          "velocity": 0.7322834645669292,
          "duration": 0.75
        },
        {
          "name": "C5",
          "midi": 72,
          "time": 76.5,
          "velocity": 0.7322834645669292,
          "duration": 0.75
        },
        {
          "name": "F5",
          "midi": 77,
          "time": 76.5,
          "velocity": 0.7322834645669292,
          "duration": 0.75
        },
        {
          "name": "C5",
          "midi": 72,
          "time": 77.25,
          "velocity": 0.7559055118110236,
          "duration": 0.75
        },
        {
          "name": "F4",
          "midi": 65,
          "time": 77.25,
          "velocity": 0.7559055118110236,
          "duration": 0.75
        },
        {
          "name": "F5",
          "midi": 77,
          "time": 77.25,
          "velocity": 0.7559055118110236,
          "duration": 0.75
        },
        {
          "name": "C4",
          "midi": 60,
          "time": 78,
          "velocity": 0.7086614173228346,
          "duration": 0.75
        },
        {
          "name": "F4",
          "midi": 65,
          "time": 78,
          "velocity": 0.7086614173228346,
          "duration": 0.75
        },
        {
          "name": "C5",
          "midi": 72,
          "time": 78,
          "velocity": 0.7086614173228346,
          "duration": 0.75
        },
        {
          "name": "C4",
          "midi": 60,
          "time": 78.75,
          "velocity": 0.7165354330708661,
          "duration": 0.75
        },
        {
          "name": "C5",
          "midi": 72,
          "time": 78.75,
          "velocity": 0.7165354330708661,
          "duration": 0.75
        },
        {
          "name": "F4",
          "midi": 65,
          "time": 78.75,
          "velocity": 0.7165354330708661,
          "duration": 0.75
        },
        {
          "name": "C4",
          "midi": 60,
          "time": 79.5,
          "velocity": 0.7322834645669292,
          "duration": 0.75
        },
        {
          "name": "C5",
          "midi": 72,
          "time": 79.5,
          "velocity": 0.7322834645669292,
          "duration": 0.75
        },
        {
          "name": "F4",
          "midi": 65,
          "time": 79.5,
          "velocity": 0.7322834645669292,
          "duration": 0.75
        },
        {
          "name": "F4",
          "midi": 65,
          "time": 80.25,
          "velocity": 0.7401574803149606,
          "duration": 0.75
        },
        {
          "name": "C5",
          "midi": 72,
          "time": 80.25,
          "velocity": 0.7401574803149606,
          "duration": 0.75
        },
        {
          "name": "C4",
          "midi": 60,
          "time": 80.25,
          "velocity": 0.7401574803149606,
          "duration": 0.75
        },
        {
          "name": "C5",
          "midi": 72,
          "time": 81,
          "velocity": 0.7480314960629921,
          "duration": 0.75
        },
        {
          "name": "F4",
          "midi": 65,
          "time": 81,
          "velocity": 0.7480314960629921,
          "duration": 0.75
        },
        {
          "name": "C4",
          "midi": 60,
          "time": 81,
          "velocity": 0.7480314960629921,
          "duration": 0.75
        },
        {
          "name": "C4",
          "midi": 60,
          "time": 81.75,
          "velocity": 0.7559055118110236,
          "duration": 0.75
        },
        {
          "name": "C5",
          "midi": 72,
          "time": 81.75,
          "velocity": 0.7559055118110236,
          "duration": 0.75
        },
        {
          "name": "F4",
          "midi": 65,
          "time": 81.75,
          "velocity": 0.7559055118110236,
          "duration": 0.75
        },
        {
          "name": "C5",
          "midi": 72,
          "time": 82.5,
          "velocity": 0.7716535433070866,
          "duration": 0.75
        },
        {
          "name": "F4",
          "midi": 65,
          "time": 82.5,
          "velocity": 0.7716535433070866,
          "duration": 0.75
        },
        {
          "name": "C4",
          "midi": 60,
          "time": 82.5,
          "velocity": 0.7716535433070866,
          "duration": 0.75
        },
        {
          "name": "C4",
          "midi": 60,
          "time": 83.25,
          "velocity": 0.7795275590551181,
          "duration": 0.75
        },
        {
          "name": "F4",
          "midi": 65,
          "time": 83.25,
          "velocity": 0.7795275590551181,
          "duration": 0.75
        },
        {
          "name": "C5",
          "midi": 72,
          "time": 83.25,
          "velocity": 0.7795275590551181,
          "duration": 0.75
        },
        {
          "name": "D5",
          "midi": 74,
          "time": 84,
          "velocity": 0.7086614173228346,
          "duration": 0.75
        },
        {
          "name": "A#4",
          "midi": 70,
          "time": 84,
          "velocity": 0.7086614173228346,
          "duration": 0.75
        },
        {
          "name": "F4",
          "midi": 65,
          "time": 84,
          "velocity": 0.7086614173228346,
          "duration": 0.75
        },
        {
          "name": "F4",
          "midi": 65,
          "time": 84.75,
          "velocity": 0.7480314960629921,
          "duration": 0.75
        },
        {
          "name": "D5",
          "midi": 74,
          "time": 84.75,
          "velocity": 0.7480314960629921,
          "duration": 0.75
        },
        {
          "name": "A#4",
          "midi": 70,
          "time": 84.75,
          "velocity": 0.7480314960629921,
          "duration": 0.75
        },
        {
          "name": "A#4",
          "midi": 70,
          "time": 85.5,
          "velocity": 0.7795275590551181,
          "duration": 0.75
        },
        {
          "name": "G4",
          "midi": 67,
          "time": 85.5,
          "velocity": 0.7795275590551181,
          "duration": 0.75
        },
        {
          "name": "E4",
          "midi": 64,
          "time": 85.5,
          "velocity": 0.7795275590551181,
          "duration": 0.75
        },
        {
          "name": "A#4",
          "midi": 70,
          "time": 86.25,
          "velocity": 0.8188976377952756,
          "duration": 0.75
        },
        {
          "name": "E4",
          "midi": 64,
          "time": 86.25,
          "velocity": 0.8188976377952756,
          "duration": 0.75
        },
        {
          "name": "G4",
          "midi": 67,
          "time": 86.25,
          "velocity": 0.8188976377952756,
          "duration": 0.75
        },
        {
          "name": "C5",
          "midi": 72,
          "time": 87,
          "velocity": 0.8582677165354331,
          "duration": 0.75
        },
        {
          "name": "F4",
          "midi": 65,
          "time": 87,
          "velocity": 0.8582677165354331,
          "duration": 0.75
        },
        {
          "name": "C4",
          "midi": 60,
          "time": 87,
          "velocity": 0.8582677165354331,
          "duration": 0.75
        },
        {
          "name": "C4",
          "midi": 60,
          "time": 87.75,
          "velocity": 0.889763779527559,
          "duration": 0.75
        },
        {
          "name": "C5",
          "midi": 72,
          "time": 87.75,
          "velocity": 0.889763779527559,
          "duration": 0.75
        },
        {
          "name": "F4",
          "midi": 65,
          "time": 87.75,
          "velocity": 0.889763779527559,
          "duration": 0.75
        },
        {
          "name": "C4",
          "midi": 60,
          "time": 88.5,
          "velocity": 0.9291338582677166,
          "duration": 0.75
        },
        {
          "name": "F4",
          "midi": 65,
          "time": 88.5,
          "velocity": 0.9291338582677166,
          "duration": 0.75
        },
        {
          "name": "C5",
          "midi": 72,
          "time": 88.5,
          "velocity": 0.9291338582677166,
          "duration": 0.75
        },
        {
          "name": "F4",
          "midi": 65,
          "time": 89.25,
          "velocity": 0.9606299212598425,
          "duration": 0.3515625
        },
        {
          "name": "C4",
          "midi": 60,
          "time": 89.25,
          "velocity": 0.9606299212598425,
          "duration": 0.3515625
        },
        {
          "name": "C5",
          "midi": 72,
          "time": 89.25,
          "velocity": 0.9606299212598425,
          "duration": 0.3515625
        },
        {
          "name": "F5",
          "midi": 77,
          "time": 89.625,
          "velocity": 0.984251968503937,
          "duration": 0.29999999999999716
        },
        {
          "name": "F5",
          "midi": 77,
          "time": 90,
          "velocity": 1,
          "duration": 0.29999999999999716
        },
        {
          "name": "E5",
          "midi": 76,
          "time": 90.375,
          "velocity": 1,
          "duration": 0.29999999999999716
        },
        {
          "name": "D5",
          "midi": 74,
          "time": 90.75,
          "velocity": 1,
          "duration": 0.29999999999999716
        },
        {
          "name": "C5",
          "midi": 72,
          "time": 91.125,
          "velocity": 1,
          "duration": 0.29999999999999716
        },
        {
          "name": "C5",
          "midi": 72,
          "time": 91.5,
          "velocity": 1,
          "duration": 0.45000000000000284
        },
        {
          "name": "A#4",
          "midi": 70,
          "time": 92.0625,
          "velocity": 1,
          "duration": 0.15000000000000568
        },
        {
          "name": "A4",
          "midi": 69,
          "time": 92.25,
          "velocity": 1,
          "duration": 0.29999999999999716
        },
        {
          "name": "F5",
          "midi": 77,
          "time": 92.625,
          "velocity": 1,
          "duration": 0.29999999999999716
        },
        {
          "name": "F5",
          "midi": 77,
          "time": 93,
          "velocity": 1,
          "duration": 0.29999999999999716
        },
        {
          "name": "E5",
          "midi": 76,
          "time": 93.375,
          "velocity": 1,
          "duration": 0.29999999999999716
        },
        {
          "name": "D5",
          "midi": 74,
          "time": 93.75,
          "velocity": 1,
          "duration": 0.29999999999999716
        },
        {
          "name": "C5",
          "midi": 72,
          "time": 94.125,
          "velocity": 1,
          "duration": 0.29999999999999716
        },
        {
          "name": "C5",
          "midi": 72,
          "time": 94.6875,
          "velocity": 1,
          "duration": 0.29999999999999716
        },
        {
          "name": "E4",
          "midi": 64,
          "time": 94.6875,
          "velocity": 1,
          "duration": 0.29999999999999716
        },
        {
          "name": "A#4",
          "midi": 70,
          "time": 95.0625,
          "velocity": 1,
          "duration": 0.15000000000000568
        },
        {
          "name": "E4",
          "midi": 64,
          "time": 95.0625,
          "velocity": 1,
          "duration": 0.15000000000000568
        },
        {
          "name": "A4",
          "midi": 69,
          "time": 95.25,
          "velocity": 1,
          "duration": 0.29999999999999716
        },
        {
          "name": "F4",
          "midi": 65,
          "time": 95.25,
          "velocity": 1,
          "duration": 0.29999999999999716
        },
        {
          "name": "A4",
          "midi": 69,
          "time": 95.625,
          "velocity": 1,
          "duration": 0.29999999999999716
        },
        {
          "name": "F4",
          "midi": 65,
          "time": 95.625,
          "velocity": 1,
          "duration": 0.29999999999999716
        },
        {
          "name": "A4",
          "midi": 69,
          "time": 96,
          "velocity": 0.7874015748031497,
          "duration": 0.29999999999999716
        },
        {
          "name": "A4",
          "midi": 69,
          "time": 96.375,
          "velocity": 0.7874015748031497,
          "duration": 0.29999999999999716
        },
        {
          "name": "A4",
          "midi": 69,
          "time": 96.75,
          "velocity": 0.7874015748031497,
          "duration": 0.29999999999999716
        },
        {
          "name": "A4",
          "midi": 69,
          "time": 97.125,
          "velocity": 0.7874015748031497,
          "duration": 0.15000000000000568
        },
        {
          "name": "A#4",
          "midi": 70,
          "time": 97.3125,
          "velocity": 0.7874015748031497,
          "duration": 0.15000000000000568
        },
        {
          "name": "C5",
          "midi": 72,
          "time": 97.5,
          "velocity": 0.7874015748031497,
          "duration": 0.9000000000000057
        },
        {
          "name": "A#4",
          "midi": 70,
          "time": 98.625,
          "velocity": 0.7874015748031497,
          "duration": 0.15000000000000568
        },
        {
          "name": "A4",
          "midi": 69,
          "time": 98.8125,
          "velocity": 0.7874015748031497,
          "duration": 0.15000000000000568
        },
        {
          "name": "G4",
          "midi": 67,
          "time": 99,
          "velocity": 0.7874015748031497,
          "duration": 0.29999999999999716
        },
        {
          "name": "G4",
          "midi": 67,
          "time": 99.375,
          "velocity": 0.7874015748031497,
          "duration": 0.29999999999999716
        },
        {
          "name": "G4",
          "midi": 67,
          "time": 99.75,
          "velocity": 0.7874015748031497,
          "duration": 0.29999999999999716
        },
        {
          "name": "G4",
          "midi": 67,
          "time": 100.125,
          "velocity": 0.7874015748031497,
          "duration": 0.15000000000000568
        },
        {
          "name": "A4",
          "midi": 69,
          "time": 100.3125,
          "velocity": 0.7874015748031497,
          "duration": 0.15000000000000568
        },
        {
          "name": "A#4",
          "midi": 70,
          "time": 100.5,
          "velocity": 0.7874015748031497,
          "duration": 0.9000000000000057
        },
        {
          "name": "A4",
          "midi": 69,
          "time": 101.4375,
          "velocity": 0.7874015748031497,
          "duration": 0.07500000000000284
        },
        {
          "name": "A#4",
          "midi": 70,
          "time": 101.53125,
          "velocity": 0.7874015748031497,
          "duration": 0.07500000000000284
        },
        {
          "name": "A4",
          "midi": 69,
          "time": 101.625,
          "velocity": 0.7874015748031497,
          "duration": 0.15000000000000568
        },
        {
          "name": "G4",
          "midi": 67,
          "time": 101.8125,
          "velocity": 0.7874015748031497,
          "duration": 0.15000000000000568
        },
        {
          "name": "F4",
          "midi": 65,
          "time": 102,
          "velocity": 0.7874015748031497,
          "duration": 0.29999999999999716
        },
        {
          "name": "A4",
          "midi": 69,
          "time": 102.375,
          "velocity": 0.7874015748031497,
          "duration": 0.5999999999999943
        },
        {
          "name": "F5",
          "midi": 77,
          "time": 102.375,
          "velocity": 0.7874015748031497,
          "duration": 0.5999999999999943
        },
        {
          "name": "D5",
          "midi": 74,
          "time": 103.125,
          "velocity": 0.7874015748031497,
          "duration": 0.29999999999999716
        },
        {
          "name": "A#4",
          "midi": 70,
          "time": 103.125,
          "velocity": 0.7874015748031497,
          "duration": 0.29999999999999716
        },
        {
          "name": "C5",
          "midi": 72,
          "time": 103.5,
          "velocity": 0.7874015748031497,
          "duration": 0.45000000000000284
        },
        {
          "name": "A4",
          "midi": 69,
          "time": 103.5,
          "velocity": 0.7874015748031497,
          "duration": 0.45000000000000284
        },
        {
          "name": "A#4",
          "midi": 70,
          "time": 104.0625,
          "velocity": 0.7874015748031497,
          "duration": 0.15000000000000568
        },
        {
          "name": "G4",
          "midi": 67,
          "time": 104.0625,
          "velocity": 0.7874015748031497,
          "duration": 0.15000000000000568
        },
        {
          "name": "A4",
          "midi": 69,
          "time": 104.25,
          "velocity": 0.7874015748031497,
          "duration": 0.29999999999999716
        },
        {
          "name": "F4",
          "midi": 65,
          "time": 104.25,
          "velocity": 0.7874015748031497,
          "duration": 0.29999999999999716
        },
        {
          "name": "A#4",
          "midi": 70,
          "time": 104.625,
          "velocity": 0.7874015748031497,
          "duration": 0.29999999999999716
        },
        {
          "name": "G4",
          "midi": 67,
          "time": 104.625,
          "velocity": 0.7874015748031497,
          "duration": 0.29999999999999716
        },
        {
          "name": "A4",
          "midi": 69,
          "time": 105,
          "velocity": 0.7874015748031497,
          "duration": 0.5999999999999943
        },
        {
          "name": "E4",
          "midi": 64,
          "time": 105.75,
          "velocity": 0.7874015748031497,
          "duration": 0.45000000000000284
        },
        {
          "name": "G4",
          "midi": 67,
          "time": 105.75,
          "velocity": 0.7874015748031497,
          "duration": 0.45000000000000284
        },
        {
          "name": "D4",
          "midi": 62,
          "time": 106.3125,
          "velocity": 0.7874015748031497,
          "duration": 0.15000000000000568
        },
        {
          "name": "F4",
          "midi": 65,
          "time": 106.3125,
          "velocity": 0.7874015748031497,
          "duration": 0.15000000000000568
        },
        {
          "name": "G4",
          "midi": 67,
          "time": 106.5,
          "velocity": 0.7874015748031497,
          "duration": 0.45000000000000284
        },
        {
          "name": "E4",
          "midi": 64,
          "time": 106.5,
          "velocity": 0.7874015748031497,
          "duration": 0.45000000000000284
        },
        {
          "name": "C4",
          "midi": 60,
          "time": 107.0625,
          "velocity": 0.7874015748031497,
          "duration": 0.15000000000000568
        },
        {
          "name": "E4",
          "midi": 64,
          "time": 107.25,
          "velocity": 0.7874015748031497,
          "duration": 0.29999999999999716
        },
        {
          "name": "G4",
          "midi": 67,
          "time": 107.625,
          "velocity": 0.7874015748031497,
          "duration": 0.29999999999999716
        },
        {
          "name": "G4",
          "midi": 67,
          "time": 108.1875,
          "velocity": 0.7874015748031497,
          "duration": 0.15000000000000568
        },
        {
          "name": "C5",
          "midi": 72,
          "time": 108.375,
          "velocity": 0.7874015748031497,
          "duration": 0.15000000000000568
        },
        {
          "name": "D5",
          "midi": 74,
          "time": 108.5625,
          "velocity": 0.7874015748031497,
          "duration": 0.15000000000000568
        },
        {
          "name": "C5",
          "midi": 72,
          "time": 108.9375,
          "velocity": 0.7874015748031497,
          "duration": 0.15000000000000568
        },
        {
          "name": "D5",
          "midi": 74,
          "time": 109.125,
          "velocity": 0.7874015748031497,
          "duration": 0.15000000000000568
        },
        {
          "name": "E5",
          "midi": 76,
          "time": 109.3125,
          "velocity": 0.7874015748031497,
          "duration": 0.15000000000000568
        },
        {
          "name": "E5",
          "midi": 76,
          "time": 109.5,
          "velocity": 0.7874015748031497,
          "duration": 0.15000000000000568
        },
        {
          "name": "D5",
          "midi": 74,
          "time": 109.6875,
          "velocity": 0.7874015748031497,
          "duration": 0.15000000000000568
        },
        {
          "name": "C5",
          "midi": 72,
          "time": 109.875,
          "velocity": 0.7874015748031497,
          "duration": 0.15000000000000568
        },
        {
          "name": "D5",
          "midi": 74,
          "time": 110.0625,
          "velocity": 0.7874015748031497,
          "duration": 0.15000000000000568
        },
        {
          "name": "C5",
          "midi": 72,
          "time": 110.25,
          "velocity": 0.7874015748031497,
          "duration": 0.29999999999999716
        },
        {
          "name": "B4",
          "midi": 71,
          "time": 110.625,
          "velocity": 0.7874015748031497,
          "duration": 0.15000000000000568
        },
        {
          "name": "C5",
          "midi": 72,
          "time": 110.8125,
          "velocity": 0.7874015748031497,
          "duration": 0.15000000000000568
        },
        {
          "name": "C5",
          "midi": 72,
          "time": 111,
          "velocity": 0.7874015748031497,
          "duration": 1.2000000000000028
        },
        {
          "name": "G5",
          "midi": 79,
          "time": 114,
          "velocity": 0.25196850393700787,
          "duration": 0.75
        },
        {
          "name": "C6",
          "midi": 84,
          "time": 114,
          "velocity": 0.25196850393700787,
          "duration": 0.75
        },
        {
          "name": "C5",
          "midi": 72,
          "time": 114,
          "velocity": 0.25196850393700787,
          "duration": 0.75
        },
        {
          "name": "G5",
          "midi": 79,
          "time": 114.75,
          "velocity": 0.4409448818897638,
          "duration": 0.75
        },
        {
          "name": "C6",
          "midi": 84,
          "time": 114.75,
          "velocity": 0.4409448818897638,
          "duration": 0.75
        },
        {
          "name": "C5",
          "midi": 72,
          "time": 114.75,
          "velocity": 0.4409448818897638,
          "duration": 0.75
        },
        {
          "name": "C6",
          "midi": 84,
          "time": 115.5,
          "velocity": 0.6299212598425197,
          "duration": 0.75
        },
        {
          "name": "C5",
          "midi": 72,
          "time": 115.5,
          "velocity": 0.6299212598425197,
          "duration": 0.75
        },
        {
          "name": "G5",
          "midi": 79,
          "time": 115.5,
          "velocity": 0.6299212598425197,
          "duration": 0.75
        },
        {
          "name": "G5",
          "midi": 79,
          "time": 116.25,
          "velocity": 0.8110236220472441,
          "duration": 0.75
        },
        {
          "name": "C5",
          "midi": 72,
          "time": 116.25,
          "velocity": 0.8110236220472441,
          "duration": 0.75
        },
        {
          "name": "C6",
          "midi": 84,
          "time": 116.25,
          "velocity": 0.8110236220472441,
          "duration": 0.75
        },
        {
          "name": "D#5",
          "midi": 75,
          "time": 159,
          "velocity": 0.25196850393700787,
          "duration": 0.75
        },
        {
          "name": "G#5",
          "midi": 80,
          "time": 159,
          "velocity": 0.25196850393700787,
          "duration": 0.75
        },
        {
          "name": "G#4",
          "midi": 68,
          "time": 159,
          "velocity": 0.25196850393700787,
          "duration": 0.75
        },
        {
          "name": "D#5",
          "midi": 75,
          "time": 159.75,
          "velocity": 0.3464566929133858,
          "duration": 0.75
        },
        {
          "name": "G#5",
          "midi": 80,
          "time": 159.75,
          "velocity": 0.3464566929133858,
          "duration": 0.75
        },
        {
          "name": "G#4",
          "midi": 68,
          "time": 159.75,
          "velocity": 0.3464566929133858,
          "duration": 0.75
        },
        {
          "name": "D#5",
          "midi": 75,
          "time": 160.5,
          "velocity": 0.4409448818897638,
          "duration": 0.75
        },
        {
          "name": "G#5",
          "midi": 80,
          "time": 160.5,
          "velocity": 0.4409448818897638,
          "duration": 0.75
        },
        {
          "name": "G#4",
          "midi": 68,
          "time": 160.5,
          "velocity": 0.4409448818897638,
          "duration": 0.75
        },
        {
          "name": "D#5",
          "midi": 75,
          "time": 161.25,
          "velocity": 0.5354330708661418,
          "duration": 0.75
        },
        {
          "name": "G#4",
          "midi": 68,
          "time": 161.25,
          "velocity": 0.5354330708661418,
          "duration": 0.75
        },
        {
          "name": "G#5",
          "midi": 80,
          "time": 161.25,
          "velocity": 0.5354330708661418,
          "duration": 0.75
        },
        {
          "name": "G#5",
          "midi": 80,
          "time": 162,
          "velocity": 0.6299212598425197,
          "duration": 0.75
        },
        {
          "name": "G#4",
          "midi": 68,
          "time": 162,
          "velocity": 0.6299212598425197,
          "duration": 0.75
        },
        {
          "name": "D#5",
          "midi": 75,
          "time": 162,
          "velocity": 0.6299212598425197,
          "duration": 0.75
        },
        {
          "name": "D#5",
          "midi": 75,
          "time": 162.75,
          "velocity": 0.7165354330708661,
          "duration": 0.75
        },
        {
          "name": "G#5",
          "midi": 80,
          "time": 162.75,
          "velocity": 0.7165354330708661,
          "duration": 0.75
        },
        {
          "name": "G#4",
          "midi": 68,
          "time": 162.75,
          "velocity": 0.7165354330708661,
          "duration": 0.75
        },
        {
          "name": "D#5",
          "midi": 75,
          "time": 163.5,
          "velocity": 0.8110236220472441,
          "duration": 0.75
        },
        {
          "name": "G#5",
          "midi": 80,
          "time": 163.5,
          "velocity": 0.8110236220472441,
          "duration": 0.75
        },
        {
          "name": "G#4",
          "midi": 68,
          "time": 163.5,
          "velocity": 0.8110236220472441,
          "duration": 0.75
        },
        {
          "name": "G#5",
          "midi": 80,
          "time": 164.25,
          "velocity": 0.905511811023622,
          "duration": 0.75
        },
        {
          "name": "D#5",
          "midi": 75,
          "time": 164.25,
          "velocity": 0.905511811023622,
          "duration": 0.75
        },
        {
          "name": "G#4",
          "midi": 68,
          "time": 164.25,
          "velocity": 0.905511811023622,
          "duration": 0.75
        },
        {
          "name": "F4",
          "midi": 65,
          "time": 183,
          "velocity": 0.5039370078740157,
          "duration": 0.75
        },
        {
          "name": "F5",
          "midi": 77,
          "time": 183,
          "velocity": 0.5039370078740157,
          "duration": 0.75
        },
        {
          "name": "C5",
          "midi": 72,
          "time": 183,
          "velocity": 0.5039370078740157,
          "duration": 0.75
        },
        {
          "name": "C5",
          "midi": 72,
          "time": 183.75,
          "velocity": 0.5511811023622047,
          "duration": 0.75
        },
        {
          "name": "F5",
          "midi": 77,
          "time": 183.75,
          "velocity": 0.5511811023622047,
          "duration": 0.75
        },
        {
          "name": "F4",
          "midi": 65,
          "time": 183.75,
          "velocity": 0.5511811023622047,
          "duration": 0.75
        },
        {
          "name": "F4",
          "midi": 65,
          "time": 184.5,
          "velocity": 0.5984251968503937,
          "duration": 0.75
        },
        {
          "name": "F5",
          "midi": 77,
          "time": 184.5,
          "velocity": 0.5984251968503937,
          "duration": 0.75
        },
        {
          "name": "C5",
          "midi": 72,
          "time": 184.5,
          "velocity": 0.5984251968503937,
          "duration": 0.75
        },
        {
          "name": "C5",
          "midi": 72,
          "time": 185.25,
          "velocity": 0.6456692913385826,
          "duration": 0.75
        },
        {
          "name": "F4",
          "midi": 65,
          "time": 185.25,
          "velocity": 0.6456692913385826,
          "duration": 0.75
        },
        {
          "name": "F5",
          "midi": 77,
          "time": 185.25,
          "velocity": 0.6456692913385826,
          "duration": 0.75
        },
        {
          "name": "F4",
          "midi": 65,
          "time": 186,
          "velocity": 0.6929133858267716,
          "duration": 0.75
        },
        {
          "name": "F5",
          "midi": 77,
          "time": 186,
          "velocity": 0.6929133858267716,
          "duration": 0.75
        },
        {
          "name": "C5",
          "midi": 72,
          "time": 186,
          "velocity": 0.6929133858267716,
          "duration": 0.75
        },
        {
          "name": "F4",
          "midi": 65,
          "time": 186.75,
          "velocity": 0.7401574803149606,
          "duration": 0.75
        },
        {
          "name": "F5",
          "midi": 77,
          "time": 186.75,
          "velocity": 0.7401574803149606,
          "duration": 0.75
        },
        {
          "name": "C5",
          "midi": 72,
          "time": 186.75,
          "velocity": 0.7401574803149606,
          "duration": 0.75
        },
        {
          "name": "F4",
          "midi": 65,
          "time": 187.5,
          "velocity": 0.7874015748031497,
          "duration": 0.75
        },
        {
          "name": "F5",
          "midi": 77,
          "time": 187.5,
          "velocity": 0.7874015748031497,
          "duration": 0.75
        },
        {
          "name": "C5",
          "midi": 72,
          "time": 187.5,
          "velocity": 0.7874015748031497,
          "duration": 0.75
        },
        {
          "name": "F4",
          "midi": 65,
          "time": 188.25,
          "velocity": 0.8346456692913385,
          "duration": 0.75
        },
        {
          "name": "C5",
          "midi": 72,
          "time": 188.25,
          "velocity": 0.8346456692913385,
          "duration": 0.75
        },
        {
          "name": "F5",
          "midi": 77,
          "time": 188.25,
          "velocity": 0.8346456692913385,
          "duration": 0.75
        },
        {
          "name": "A#4",
          "midi": 70,
          "time": 189,
          "velocity": 0.5039370078740157,
          "duration": 0.75
        },
        {
          "name": "D5",
          "midi": 74,
          "time": 189,
          "velocity": 0.5039370078740157,
          "duration": 0.75
        },
        {
          "name": "F4",
          "midi": 65,
          "time": 189,
          "velocity": 0.5039370078740157,
          "duration": 0.75
        },
        {
          "name": "D5",
          "midi": 74,
          "time": 189.75,
          "velocity": 0.5511811023622047,
          "duration": 0.75
        },
        {
          "name": "F4",
          "midi": 65,
          "time": 189.75,
          "velocity": 0.5511811023622047,
          "duration": 0.75
        },
        {
          "name": "A#4",
          "midi": 70,
          "time": 189.75,
          "velocity": 0.5511811023622047,
          "duration": 0.75
        },
        {
          "name": "A#4",
          "midi": 70,
          "time": 190.5,
          "velocity": 0.6062992125984252,
          "duration": 0.75
        },
        {
          "name": "G4",
          "midi": 67,
          "time": 190.5,
          "velocity": 0.6062992125984252,
          "duration": 0.75
        },
        {
          "name": "E4",
          "midi": 64,
          "time": 190.5,
          "velocity": 0.6062992125984252,
          "duration": 0.75
        },
        {
          "name": "A#4",
          "midi": 70,
          "time": 191.25,
          "velocity": 0.6535433070866141,
          "duration": 0.75
        },
        {
          "name": "E4",
          "midi": 64,
          "time": 191.25,
          "velocity": 0.6535433070866141,
          "duration": 0.75
        },
        {
          "name": "G4",
          "midi": 67,
          "time": 191.25,
          "velocity": 0.6535433070866141,
          "duration": 0.75
        },
        {
          "name": "F4",
          "midi": 65,
          "time": 192,
          "velocity": 0.7007874015748031,
          "duration": 0.75
        },
        {
          "name": "C5",
          "midi": 72,
          "time": 192,
          "velocity": 0.7007874015748031,
          "duration": 0.75
        },
        {
          "name": "C4",
          "midi": 60,
          "time": 192,
          "velocity": 0.7007874015748031,
          "duration": 0.75
        },
        {
          "name": "C4",
          "midi": 60,
          "time": 192.75,
          "velocity": 0.7559055118110236,
          "duration": 0.75
        },
        {
          "name": "C5",
          "midi": 72,
          "time": 192.75,
          "velocity": 0.7559055118110236,
          "duration": 0.75
        },
        {
          "name": "F4",
          "midi": 65,
          "time": 192.75,
          "velocity": 0.7559055118110236,
          "duration": 0.75
        },
        {
          "name": "F4",
          "midi": 65,
          "time": 193.5,
          "velocity": 0.8031496062992126,
          "duration": 3.375
        },
        {
          "name": "F5",
          "midi": 77,
          "time": 193.5,
          "velocity": 0.8031496062992126,
          "duration": 3.375
        },
        {
          "name": "C5",
          "midi": 72,
          "time": 193.5,
          "velocity": 0.8031496062992126,
          "duration": 3.375
        },
        {
          "name": "F4",
          "midi": 65,
          "time": 196.875,
          "velocity": 0.7007874015748031,
          "duration": 0.375
        },
        {
          "name": "C5",
          "midi": 72,
          "time": 196.875,
          "velocity": 0.7007874015748031,
          "duration": 0.375
        },
        {
          "name": "F5",
          "midi": 77,
          "time": 196.875,
          "velocity": 0.7007874015748031,
          "duration": 0.375
        },
        {
          "name": "F5",
          "midi": 77,
          "time": 197.25,
          "velocity": 0.5275590551181102,
          "duration": 0.375
        },
        {
          "name": "C5",
          "midi": 72,
          "time": 197.25,
          "velocity": 0.5275590551181102,
          "duration": 0.375
        },
        {
          "name": "F4",
          "midi": 65,
          "time": 197.25,
          "velocity": 0.5275590551181102,
          "duration": 0.375
        },
        {
          "name": "F5",
          "midi": 77,
          "time": 197.625,
          "velocity": 0.3543307086614173,
          "duration": 0.375
        },
        {
          "name": "C5",
          "midi": 72,
          "time": 197.625,
          "velocity": 0.3543307086614173,
          "duration": 0.375
        },
        {
          "name": "F4",
          "midi": 65,
          "time": 197.625,
          "velocity": 0.3543307086614173,
          "duration": 0.375
        }
      ],
      "controlChanges": {
        "7": [
          {
            "number": 7,
            "time": 0,
            "value": 0.8661417322834646
          }
        ]
      },
      "id": 6,
      "name": "perc. Nick D'Errico",
      "instrumentNumber": 52,
      "instrument": "choir aahs",
      "instrumentFamily": "ensemble",
      "channelNumber": 5,
      "isPercussion": false
    },
    {
      "startTime": 40.3125,
      "duration": 199.8,
      "length": 147,
      "notes": [
        {
          "name": "G#2",
          "midi": 44,
          "time": 40.3125,
          "velocity": 1,
          "duration": 0.07500000000000284
        },
        {
          "name": "G#2",
          "midi": 44,
          "time": 40.40625,
          "velocity": 1,
          "duration": 0.07500000000000284
        },
        {
          "name": "G#2",
          "midi": 44,
          "time": 40.5,
          "velocity": 1,
          "duration": 0.29999999999999716
        },
        {
          "name": "G#2",
          "midi": 44,
          "time": 46.3125,
          "velocity": 1,
          "duration": 0.07500000000000284
        },
        {
          "name": "G#2",
          "midi": 44,
          "time": 46.40625,
          "velocity": 1,
          "duration": 0.07500000000000284
        },
        {
          "name": "G#2",
          "midi": 44,
          "time": 46.5,
          "velocity": 1,
          "duration": 0.29999999999999716
        },
        {
          "name": "G#2",
          "midi": 44,
          "time": 51.5625,
          "velocity": 1,
          "duration": 0.07500000000000284
        },
        {
          "name": "G#2",
          "midi": 44,
          "time": 51.65625,
          "velocity": 1,
          "duration": 0.07500000000000284
        },
        {
          "name": "G#2",
          "midi": 44,
          "time": 51.75,
          "velocity": 1,
          "duration": 0.29999999999999716
        },
        {
          "name": "G#2",
          "midi": 44,
          "time": 57.5625,
          "velocity": 1,
          "duration": 0.07500000000000284
        },
        {
          "name": "G#2",
          "midi": 44,
          "time": 57.65625,
          "velocity": 1,
          "duration": 0.07500000000000284
        },
        {
          "name": "G#2",
          "midi": 44,
          "time": 57.75,
          "velocity": 1,
          "duration": 0.29999999999999716
        },
        {
          "name": "G#2",
          "midi": 44,
          "time": 58.6875,
          "velocity": 1,
          "duration": 0.07500000000000284
        },
        {
          "name": "G#2",
          "midi": 44,
          "time": 58.78125,
          "velocity": 1,
          "duration": 0.07500000000000284
        },
        {
          "name": "G#2",
          "midi": 44,
          "time": 58.875,
          "velocity": 1,
          "duration": 0.29999999999999716
        },
        {
          "name": "F2",
          "midi": 41,
          "time": 60.5625,
          "velocity": 1,
          "duration": 0.07500000000000284
        },
        {
          "name": "F2",
          "midi": 41,
          "time": 60.65625,
          "velocity": 1,
          "duration": 0.07500000000000284
        },
        {
          "name": "F2",
          "midi": 41,
          "time": 60.75,
          "velocity": 1,
          "duration": 0.6000000000000014
        },
        {
          "name": "F2",
          "midi": 41,
          "time": 63.5625,
          "velocity": 1,
          "duration": 0.07500000000000284
        },
        {
          "name": "F2",
          "midi": 41,
          "time": 63.65625,
          "velocity": 1,
          "duration": 0.07500000000000284
        },
        {
          "name": "F2",
          "midi": 41,
          "time": 63.75,
          "velocity": 1,
          "duration": 0.5999999999999943
        },
        {
          "name": "F2",
          "midi": 41,
          "time": 66.5625,
          "velocity": 1,
          "duration": 0.07500000000000284
        },
        {
          "name": "F2",
          "midi": 41,
          "time": 66.65625,
          "velocity": 1,
          "duration": 0.07500000000000284
        },
        {
          "name": "F2",
          "midi": 41,
          "time": 66.75,
          "velocity": 1,
          "duration": 0.29999999999999716
        },
        {
          "name": "F2",
          "midi": 41,
          "time": 69.5625,
          "velocity": 1,
          "duration": 0.07500000000000284
        },
        {
          "name": "F2",
          "midi": 41,
          "time": 69.65625,
          "velocity": 1,
          "duration": 0.07500000000000284
        },
        {
          "name": "F2",
          "midi": 41,
          "time": 69.75,
          "velocity": 1,
          "duration": 0.29999999999999716
        },
        {
          "name": "F2",
          "midi": 41,
          "time": 70.6875,
          "velocity": 1,
          "duration": 0.07500000000000284
        },
        {
          "name": "F2",
          "midi": 41,
          "time": 70.78125,
          "velocity": 1,
          "duration": 0.07500000000000284
        },
        {
          "name": "F2",
          "midi": 41,
          "time": 70.875,
          "velocity": 1,
          "duration": 0.29999999999999716
        },
        {
          "name": "F2",
          "midi": 41,
          "time": 72.5625,
          "velocity": 1,
          "duration": 0.07500000000000284
        },
        {
          "name": "F2",
          "midi": 41,
          "time": 72.65625,
          "velocity": 1,
          "duration": 0.07500000000000284
        },
        {
          "name": "F2",
          "midi": 41,
          "time": 72.75,
          "velocity": 1,
          "duration": 0.29999999999999716
        },
        {
          "name": "F2",
          "midi": 41,
          "time": 75.5625,
          "velocity": 1,
          "duration": 0.07500000000000284
        },
        {
          "name": "F2",
          "midi": 41,
          "time": 75.65625,
          "velocity": 1,
          "duration": 0.07500000000000284
        },
        {
          "name": "F2",
          "midi": 41,
          "time": 75.75,
          "velocity": 1,
          "duration": 0.29999999999999716
        },
        {
          "name": "F2",
          "midi": 41,
          "time": 78.5625,
          "velocity": 1,
          "duration": 0.07500000000000284
        },
        {
          "name": "F2",
          "midi": 41,
          "time": 78.65625,
          "velocity": 1,
          "duration": 0.07500000000000284
        },
        {
          "name": "F2",
          "midi": 41,
          "time": 78.75,
          "velocity": 1,
          "duration": 0.29999999999999716
        },
        {
          "name": "F2",
          "midi": 41,
          "time": 81.5625,
          "velocity": 1,
          "duration": 0.07500000000000284
        },
        {
          "name": "F2",
          "midi": 41,
          "time": 81.65625,
          "velocity": 1,
          "duration": 0.07500000000000284
        },
        {
          "name": "F2",
          "midi": 41,
          "time": 81.75,
          "velocity": 1,
          "duration": 0.29999999999999716
        },
        {
          "name": "F2",
          "midi": 41,
          "time": 82.6875,
          "velocity": 1,
          "duration": 0.07500000000000284
        },
        {
          "name": "F2",
          "midi": 41,
          "time": 82.78125,
          "velocity": 1,
          "duration": 0.07500000000000284
        },
        {
          "name": "F2",
          "midi": 41,
          "time": 82.875,
          "velocity": 1,
          "duration": 0.29999999999999716
        },
        {
          "name": "F2",
          "midi": 41,
          "time": 84.5625,
          "velocity": 1,
          "duration": 0.07500000000000284
        },
        {
          "name": "F2",
          "midi": 41,
          "time": 84.65625,
          "velocity": 1,
          "duration": 0.07500000000000284
        },
        {
          "name": "F2",
          "midi": 41,
          "time": 84.75,
          "velocity": 1,
          "duration": 0.29999999999999716
        },
        {
          "name": "F2",
          "midi": 41,
          "time": 86.0625,
          "velocity": 1,
          "duration": 0.07500000000000284
        },
        {
          "name": "F2",
          "midi": 41,
          "time": 86.15625,
          "velocity": 1,
          "duration": 0.07500000000000284
        },
        {
          "name": "F2",
          "midi": 41,
          "time": 86.25,
          "velocity": 1,
          "duration": 0.29999999999999716
        },
        {
          "name": "F2",
          "midi": 41,
          "time": 87.5625,
          "velocity": 1,
          "duration": 0.07500000000000284
        },
        {
          "name": "F2",
          "midi": 41,
          "time": 87.65625,
          "velocity": 1,
          "duration": 0.07500000000000284
        },
        {
          "name": "F2",
          "midi": 41,
          "time": 87.75,
          "velocity": 1,
          "duration": 0.29999999999999716
        },
        {
          "name": "F2",
          "midi": 41,
          "time": 88.6875,
          "velocity": 1,
          "duration": 0.07500000000000284
        },
        {
          "name": "F2",
          "midi": 41,
          "time": 88.78125,
          "velocity": 1,
          "duration": 0.07500000000000284
        },
        {
          "name": "F2",
          "midi": 41,
          "time": 88.875,
          "velocity": 1,
          "duration": 0.29999999999999716
        },
        {
          "name": "F2",
          "midi": 41,
          "time": 90,
          "velocity": 1,
          "duration": 0.29999999999999716
        },
        {
          "name": "C3",
          "midi": 48,
          "time": 94.6875,
          "velocity": 1,
          "duration": 0.29999999999999716
        },
        {
          "name": "C3",
          "midi": 48,
          "time": 95.0625,
          "velocity": 1,
          "duration": 0.15000000000000568
        },
        {
          "name": "F2",
          "midi": 41,
          "time": 95.25,
          "velocity": 1,
          "duration": 0.29999999999999716
        },
        {
          "name": "F2",
          "midi": 41,
          "time": 95.625,
          "velocity": 1,
          "duration": 0.29999999999999716
        },
        {
          "name": "C3",
          "midi": 48,
          "time": 107.0625,
          "velocity": 1,
          "duration": 0.07500000000000284
        },
        {
          "name": "C3",
          "midi": 48,
          "time": 107.15625,
          "velocity": 1,
          "duration": 0.07500000000000284
        },
        {
          "name": "C3",
          "midi": 48,
          "time": 107.25,
          "velocity": 1,
          "duration": 0.15000000000000568
        },
        {
          "name": "C3",
          "midi": 48,
          "time": 107.4375,
          "velocity": 1,
          "duration": 0.15000000000000568
        },
        {
          "name": "C3",
          "midi": 48,
          "time": 107.625,
          "velocity": 1,
          "duration": 0.15000000000000568
        },
        {
          "name": "C3",
          "midi": 48,
          "time": 107.8125,
          "velocity": 1,
          "duration": 0.15000000000000568
        },
        {
          "name": "C3",
          "midi": 48,
          "time": 108.1875,
          "velocity": 1,
          "duration": 0.07500000000000284
        },
        {
          "name": "C3",
          "midi": 48,
          "time": 108.28125,
          "velocity": 1,
          "duration": 0.07500000000000284
        },
        {
          "name": "C3",
          "midi": 48,
          "time": 108.375,
          "velocity": 1,
          "duration": 0.15000000000000568
        },
        {
          "name": "C3",
          "midi": 48,
          "time": 108.5625,
          "velocity": 1,
          "duration": 0.15000000000000568
        },
        {
          "name": "C3",
          "midi": 48,
          "time": 108.9375,
          "velocity": 1,
          "duration": 0.07500000000000284
        },
        {
          "name": "C3",
          "midi": 48,
          "time": 109.03125,
          "velocity": 1,
          "duration": 0.07500000000000284
        },
        {
          "name": "C3",
          "midi": 48,
          "time": 109.125,
          "velocity": 1,
          "duration": 0.15000000000000568
        },
        {
          "name": "C3",
          "midi": 48,
          "time": 109.3125,
          "velocity": 1,
          "duration": 0.15000000000000568
        },
        {
          "name": "C3",
          "midi": 48,
          "time": 109.5,
          "velocity": 1,
          "duration": 0.15000000000000568
        },
        {
          "name": "C3",
          "midi": 48,
          "time": 109.6875,
          "velocity": 1,
          "duration": 0.15000000000000568
        },
        {
          "name": "C3",
          "midi": 48,
          "time": 109.875,
          "velocity": 1,
          "duration": 0.15000000000000568
        },
        {
          "name": "C3",
          "midi": 48,
          "time": 110.0625,
          "velocity": 1,
          "duration": 0.15000000000000568
        },
        {
          "name": "C3",
          "midi": 48,
          "time": 110.25,
          "velocity": 1,
          "duration": 0.29999999999999716
        },
        {
          "name": "G2",
          "midi": 43,
          "time": 110.625,
          "velocity": 1,
          "duration": 0.15000000000000568
        },
        {
          "name": "G2",
          "midi": 43,
          "time": 110.8125,
          "velocity": 1,
          "duration": 0.15000000000000568
        },
        {
          "name": "C3",
          "midi": 48,
          "time": 111,
          "velocity": 1,
          "duration": 0.45000000000000284
        },
        {
          "name": "C3",
          "midi": 48,
          "time": 111.5625,
          "velocity": 1,
          "duration": 0.15000000000000568
        },
        {
          "name": "C3",
          "midi": 48,
          "time": 111.75,
          "velocity": 1,
          "duration": 0.45000000000000284
        },
        {
          "name": "C3",
          "midi": 48,
          "time": 112.3125,
          "velocity": 1,
          "duration": 0.07500000000000284
        },
        {
          "name": "C3",
          "midi": 48,
          "time": 112.40625,
          "velocity": 1,
          "duration": 0.07500000000000284
        },
        {
          "name": "C3",
          "midi": 48,
          "time": 112.5,
          "velocity": 1,
          "duration": 0.45000000000000284
        },
        {
          "name": "C3",
          "midi": 48,
          "time": 113.0625,
          "velocity": 1,
          "duration": 0.15000000000000568
        },
        {
          "name": "C3",
          "midi": 48,
          "time": 113.25,
          "velocity": 1,
          "duration": 0.29999999999999716
        },
        {
          "name": "G2",
          "midi": 43,
          "time": 113.625,
          "velocity": 1,
          "duration": 0.15000000000000568
        },
        {
          "name": "G2",
          "midi": 43,
          "time": 113.8125,
          "velocity": 1,
          "duration": 0.15000000000000568
        },
        {
          "name": "C3",
          "midi": 48,
          "time": 114,
          "velocity": 1,
          "duration": 0.45000000000000284
        },
        {
          "name": "C3",
          "midi": 48,
          "time": 114.5625,
          "velocity": 1,
          "duration": 0.15000000000000568
        },
        {
          "name": "C3",
          "midi": 48,
          "time": 114.75,
          "velocity": 1,
          "duration": 0.45000000000000284
        },
        {
          "name": "C3",
          "midi": 48,
          "time": 115.3125,
          "velocity": 1,
          "duration": 0.15000000000000568
        },
        {
          "name": "C3",
          "midi": 48,
          "time": 115.5,
          "velocity": 1,
          "duration": 0.45000000000000284
        },
        {
          "name": "C3",
          "midi": 48,
          "time": 116.0625,
          "velocity": 1,
          "duration": 0.15000000000000568
        },
        {
          "name": "C3",
          "midi": 48,
          "time": 116.25,
          "velocity": 1,
          "duration": 0.29999999999999716
        },
        {
          "name": "C3",
          "midi": 48,
          "time": 116.625,
          "velocity": 1,
          "duration": 0.29999999999999716
        },
        {
          "name": "G#2",
          "midi": 44,
          "time": 145.3125,
          "velocity": 1,
          "duration": 0.07499999999998863
        },
        {
          "name": "G#2",
          "midi": 44,
          "time": 145.40625,
          "velocity": 1,
          "duration": 0.07499999999998863
        },
        {
          "name": "G#2",
          "midi": 44,
          "time": 145.5,
          "velocity": 1,
          "duration": 0.30000000000001137
        },
        {
          "name": "G#2",
          "midi": 44,
          "time": 151.3125,
          "velocity": 1,
          "duration": 0.07499999999998863
        },
        {
          "name": "G#2",
          "midi": 44,
          "time": 151.40625,
          "velocity": 1,
          "duration": 0.07499999999998863
        },
        {
          "name": "G#2",
          "midi": 44,
          "time": 151.5,
          "velocity": 1,
          "duration": 0.30000000000001137
        },
        {
          "name": "G#2",
          "midi": 44,
          "time": 156.5625,
          "velocity": 1,
          "duration": 0.07499999999998863
        },
        {
          "name": "G#2",
          "midi": 44,
          "time": 156.65625,
          "velocity": 1,
          "duration": 0.07499999999998863
        },
        {
          "name": "G#2",
          "midi": 44,
          "time": 156.75,
          "velocity": 1,
          "duration": 0.30000000000001137
        },
        {
          "name": "G#2",
          "midi": 44,
          "time": 162.5625,
          "velocity": 1,
          "duration": 0.07499999999998863
        },
        {
          "name": "G#2",
          "midi": 44,
          "time": 162.65625,
          "velocity": 1,
          "duration": 0.07499999999998863
        },
        {
          "name": "G#2",
          "midi": 44,
          "time": 162.75,
          "velocity": 1,
          "duration": 0.30000000000001137
        },
        {
          "name": "G#2",
          "midi": 44,
          "time": 163.6875,
          "velocity": 1,
          "duration": 0.07499999999998863
        },
        {
          "name": "G#2",
          "midi": 44,
          "time": 163.78125,
          "velocity": 1,
          "duration": 0.07499999999998863
        },
        {
          "name": "G#2",
          "midi": 44,
          "time": 163.875,
          "velocity": 1,
          "duration": 0.30000000000001137
        },
        {
          "name": "F2",
          "midi": 41,
          "time": 165.5625,
          "velocity": 1,
          "duration": 0.07499999999998863
        },
        {
          "name": "F2",
          "midi": 41,
          "time": 165.65625,
          "velocity": 1,
          "duration": 0.07499999999998863
        },
        {
          "name": "F2",
          "midi": 41,
          "time": 165.75,
          "velocity": 1,
          "duration": 0.5999999999999943
        },
        {
          "name": "F2",
          "midi": 41,
          "time": 168.5625,
          "velocity": 1,
          "duration": 0.07499999999998863
        },
        {
          "name": "F2",
          "midi": 41,
          "time": 168.65625,
          "velocity": 1,
          "duration": 0.07499999999998863
        },
        {
          "name": "F2",
          "midi": 41,
          "time": 168.75,
          "velocity": 1,
          "duration": 0.5999999999999943
        },
        {
          "name": "F2",
          "midi": 41,
          "time": 171.5625,
          "velocity": 1,
          "duration": 0.07499999999998863
        },
        {
          "name": "F2",
          "midi": 41,
          "time": 171.65625,
          "velocity": 1,
          "duration": 0.07499999999998863
        },
        {
          "name": "F2",
          "midi": 41,
          "time": 171.75,
          "velocity": 1,
          "duration": 0.5999999999999943
        },
        {
          "name": "F2",
          "midi": 41,
          "time": 174.5625,
          "velocity": 1,
          "duration": 0.07499999999998863
        },
        {
          "name": "F2",
          "midi": 41,
          "time": 174.65625,
          "velocity": 1,
          "duration": 0.07499999999998863
        },
        {
          "name": "F2",
          "midi": 41,
          "time": 174.75,
          "velocity": 1,
          "duration": 0.5999999999999943
        },
        {
          "name": "F2",
          "midi": 41,
          "time": 177.5625,
          "velocity": 1,
          "duration": 0.07499999999998863
        },
        {
          "name": "F2",
          "midi": 41,
          "time": 177.65625,
          "velocity": 1,
          "duration": 0.07499999999998863
        },
        {
          "name": "F2",
          "midi": 41,
          "time": 177.75,
          "velocity": 1,
          "duration": 0.5999999999999943
        },
        {
          "name": "F2",
          "midi": 41,
          "time": 180.5625,
          "velocity": 1,
          "duration": 0.07499999999998863
        },
        {
          "name": "F2",
          "midi": 41,
          "time": 180.65625,
          "velocity": 1,
          "duration": 0.07499999999998863
        },
        {
          "name": "F2",
          "midi": 41,
          "time": 180.75,
          "velocity": 1,
          "duration": 0.5999999999999943
        },
        {
          "name": "F2",
          "midi": 41,
          "time": 183.5625,
          "velocity": 1,
          "duration": 0.07499999999998863
        },
        {
          "name": "F2",
          "midi": 41,
          "time": 183.65625,
          "velocity": 1,
          "duration": 0.07499999999998863
        },
        {
          "name": "F2",
          "midi": 41,
          "time": 183.75,
          "velocity": 1,
          "duration": 0.5999999999999943
        },
        {
          "name": "F2",
          "midi": 41,
          "time": 186.5625,
          "velocity": 1,
          "duration": 0.07499999999998863
        },
        {
          "name": "F2",
          "midi": 41,
          "time": 186.65625,
          "velocity": 1,
          "duration": 0.07499999999998863
        },
        {
          "name": "F2",
          "midi": 41,
          "time": 186.75,
          "velocity": 1,
          "duration": 0.5999999999999943
        },
        {
          "name": "F2",
          "midi": 41,
          "time": 189.5625,
          "velocity": 1,
          "duration": 0.07499999999998863
        },
        {
          "name": "F2",
          "midi": 41,
          "time": 189.65625,
          "velocity": 1,
          "duration": 0.07499999999998863
        },
        {
          "name": "F2",
          "midi": 41,
          "time": 189.75,
          "velocity": 1,
          "duration": 0.5999999999999943
        },
        {
          "name": "F2",
          "midi": 41,
          "time": 191.0625,
          "velocity": 1,
          "duration": 0.07499999999998863
        },
        {
          "name": "F2",
          "midi": 41,
          "time": 191.15625,
          "velocity": 1,
          "duration": 0.07499999999998863
        },
        {
          "name": "F2",
          "midi": 41,
          "time": 191.25,
          "velocity": 1,
          "duration": 0.5999999999999943
        },
        {
          "name": "F2",
          "midi": 41,
          "time": 198,
          "velocity": 1,
          "duration": 1.8000000000000114
        }
      ],
      "controlChanges": {
        "7": [
          {
            "number": 7,
            "time": 0,
            "value": 0.9212598425196851
          }
        ]
      },
      "id": 7,
      "name": "seq. on Passport Rhapsody",
      "instrumentNumber": 47,
      "instrument": "timpani",
      "instrumentFamily": "strings",
      "channelNumber": 6,
      "isPercussion": false
    },
    {
      "startTime": 36,
      "duration": 171.3,
      "length": 18,
      "notes": [
        {
          "name": "G#5",
          "midi": 80,
          "time": 36,
          "velocity": 1,
          "duration": 0.29999999999999716
        },
        {
          "name": "G#5",
          "midi": 80,
          "time": 41.25,
          "velocity": 1,
          "duration": 0.29999999999999716
        },
        {
          "name": "G#5",
          "midi": 80,
          "time": 45,
          "velocity": 1,
          "duration": 0.29999999999999716
        },
        {
          "name": "G#5",
          "midi": 80,
          "time": 47.25,
          "velocity": 1,
          "duration": 0.29999999999999716
        },
        {
          "name": "G#5",
          "midi": 80,
          "time": 52.5,
          "velocity": 1,
          "duration": 0.29999999999999716
        },
        {
          "name": "G#5",
          "midi": 80,
          "time": 57,
          "velocity": 1,
          "duration": 0.29999999999999716
        },
        {
          "name": "F5",
          "midi": 77,
          "time": 60,
          "velocity": 1,
          "duration": 0.29999999999999716
        },
        {
          "name": "F5",
          "midi": 77,
          "time": 66,
          "velocity": 1,
          "duration": 0.29999999999999716
        },
        {
          "name": "F5",
          "midi": 77,
          "time": 77.25,
          "velocity": 1,
          "duration": 0.29999999999999716
        },
        {
          "name": "F5",
          "midi": 77,
          "time": 84,
          "velocity": 1,
          "duration": 0.29999999999999716
        },
        {
          "name": "G#5",
          "midi": 80,
          "time": 141,
          "velocity": 1,
          "duration": 0.30000000000001137
        },
        {
          "name": "G#5",
          "midi": 80,
          "time": 146.25,
          "velocity": 1,
          "duration": 0.30000000000001137
        },
        {
          "name": "G#5",
          "midi": 80,
          "time": 150,
          "velocity": 1,
          "duration": 0.30000000000001137
        },
        {
          "name": "G#5",
          "midi": 80,
          "time": 152.25,
          "velocity": 1,
          "duration": 0.30000000000001137
        },
        {
          "name": "G#5",
          "midi": 80,
          "time": 157.5,
          "velocity": 1,
          "duration": 0.30000000000001137
        },
        {
          "name": "G#5",
          "midi": 80,
          "time": 162,
          "velocity": 1,
          "duration": 0.30000000000001137
        },
        {
          "name": "F5",
          "midi": 77,
          "time": 165,
          "velocity": 1,
          "duration": 0.30000000000001137
        },
        {
          "name": "F5",
          "midi": 77,
          "time": 171,
          "velocity": 0.6299212598425197,
          "duration": 0.30000000000001137
        }
      ],
      "controlChanges": {
        "7": [
          {
            "number": 7,
            "time": 0,
            "value": 0.905511811023622
          }
        ]
      },
      "id": 8,
      "name": "12/5/98",
      "instrumentNumber": 14,
      "instrument": "tubular bells",
      "instrumentFamily": "chromatic percussion",
      "channelNumber": 7,
      "isPercussion": false
    },
    {
      "startTime": 0,
      "duration": 199.8,
      "length": 918,
      "notes": [
        {
          "name": "F2",
          "midi": 41,
          "time": 0,
          "velocity": 1,
          "duration": 0.44999999999999996
        },
        {
          "name": "F1",
          "midi": 29,
          "time": 0,
          "velocity": 1,
          "duration": 0.44999999999999996
        },
        {
          "name": "F1",
          "midi": 29,
          "time": 0.5625,
          "velocity": 1,
          "duration": 0.15000000000000002
        },
        {
          "name": "F2",
          "midi": 41,
          "time": 0.5625,
          "velocity": 1,
          "duration": 0.15000000000000002
        },
        {
          "name": "F2",
          "midi": 41,
          "time": 0.75,
          "velocity": 1,
          "duration": 0.44999999999999996
        },
        {
          "name": "F1",
          "midi": 29,
          "time": 0.75,
          "velocity": 1,
          "duration": 0.44999999999999996
        },
        {
          "name": "F2",
          "midi": 41,
          "time": 1.3125,
          "velocity": 1,
          "duration": 0.1499999999999999
        },
        {
          "name": "F1",
          "midi": 29,
          "time": 1.3125,
          "velocity": 1,
          "duration": 0.1499999999999999
        },
        {
          "name": "F2",
          "midi": 41,
          "time": 1.5,
          "velocity": 1,
          "duration": 0.44999999999999996
        },
        {
          "name": "F1",
          "midi": 29,
          "time": 1.5,
          "velocity": 1,
          "duration": 0.44999999999999996
        },
        {
          "name": "F2",
          "midi": 41,
          "time": 2.0625,
          "velocity": 1,
          "duration": 0.1499999999999999
        },
        {
          "name": "F1",
          "midi": 29,
          "time": 2.0625,
          "velocity": 1,
          "duration": 0.1499999999999999
        },
        {
          "name": "F2",
          "midi": 41,
          "time": 2.25,
          "velocity": 1,
          "duration": 0.4500000000000002
        },
        {
          "name": "F1",
          "midi": 29,
          "time": 2.25,
          "velocity": 1,
          "duration": 0.4500000000000002
        },
        {
          "name": "F2",
          "midi": 41,
          "time": 2.8125,
          "velocity": 1,
          "duration": 0.1499999999999999
        },
        {
          "name": "F1",
          "midi": 29,
          "time": 2.8125,
          "velocity": 1,
          "duration": 0.1499999999999999
        },
        {
          "name": "F2",
          "midi": 41,
          "time": 3,
          "velocity": 1,
          "duration": 0.4500000000000002
        },
        {
          "name": "F1",
          "midi": 29,
          "time": 3,
          "velocity": 1,
          "duration": 0.4500000000000002
        },
        {
          "name": "F2",
          "midi": 41,
          "time": 3.5625,
          "velocity": 1,
          "duration": 0.1499999999999999
        },
        {
          "name": "F1",
          "midi": 29,
          "time": 3.5625,
          "velocity": 1,
          "duration": 0.1499999999999999
        },
        {
          "name": "F2",
          "midi": 41,
          "time": 3.75,
          "velocity": 1,
          "duration": 0.4500000000000002
        },
        {
          "name": "F1",
          "midi": 29,
          "time": 3.75,
          "velocity": 1,
          "duration": 0.4500000000000002
        },
        {
          "name": "F2",
          "midi": 41,
          "time": 4.3125,
          "velocity": 1,
          "duration": 0.15000000000000036
        },
        {
          "name": "F1",
          "midi": 29,
          "time": 4.3125,
          "velocity": 1,
          "duration": 0.15000000000000036
        },
        {
          "name": "F2",
          "midi": 41,
          "time": 4.5,
          "velocity": 1,
          "duration": 0.4500000000000002
        },
        {
          "name": "F1",
          "midi": 29,
          "time": 4.5,
          "velocity": 1,
          "duration": 0.4500000000000002
        },
        {
          "name": "F2",
          "midi": 41,
          "time": 5.0625,
          "velocity": 1,
          "duration": 0.15000000000000036
        },
        {
          "name": "F1",
          "midi": 29,
          "time": 5.0625,
          "velocity": 1,
          "duration": 0.15000000000000036
        },
        {
          "name": "F1",
          "midi": 29,
          "time": 5.25,
          "velocity": 1,
          "duration": 0.15000000000000036
        },
        {
          "name": "C2",
          "midi": 36,
          "time": 5.4375,
          "velocity": 1,
          "duration": 0.2999999999999998
        },
        {
          "name": "F1",
          "midi": 29,
          "time": 5.8125,
          "velocity": 1,
          "duration": 0.15000000000000036
        },
        {
          "name": "F2",
          "midi": 41,
          "time": 6,
          "velocity": 1,
          "duration": 0.4500000000000002
        },
        {
          "name": "F1",
          "midi": 29,
          "time": 6,
          "velocity": 1,
          "duration": 0.4500000000000002
        },
        {
          "name": "F2",
          "midi": 41,
          "time": 6.5625,
          "velocity": 1,
          "duration": 0.15000000000000036
        },
        {
          "name": "F1",
          "midi": 29,
          "time": 6.5625,
          "velocity": 1,
          "duration": 0.15000000000000036
        },
        {
          "name": "F2",
          "midi": 41,
          "time": 6.75,
          "velocity": 1,
          "duration": 0.4500000000000002
        },
        {
          "name": "F1",
          "midi": 29,
          "time": 6.75,
          "velocity": 1,
          "duration": 0.4500000000000002
        },
        {
          "name": "F1",
          "midi": 29,
          "time": 7.3125,
          "velocity": 1,
          "duration": 0.15000000000000036
        },
        {
          "name": "F2",
          "midi": 41,
          "time": 7.3125,
          "velocity": 1,
          "duration": 0.15000000000000036
        },
        {
          "name": "F2",
          "midi": 41,
          "time": 7.5,
          "velocity": 1,
          "duration": 0.4500000000000002
        },
        {
          "name": "F1",
          "midi": 29,
          "time": 7.5,
          "velocity": 1,
          "duration": 0.4500000000000002
        },
        {
          "name": "F1",
          "midi": 29,
          "time": 8.0625,
          "velocity": 1,
          "duration": 0.15000000000000036
        },
        {
          "name": "F2",
          "midi": 41,
          "time": 8.0625,
          "velocity": 1,
          "duration": 0.15000000000000036
        },
        {
          "name": "F2",
          "midi": 41,
          "time": 8.25,
          "velocity": 1,
          "duration": 0.4499999999999993
        },
        {
          "name": "F1",
          "midi": 29,
          "time": 8.25,
          "velocity": 1,
          "duration": 0.4499999999999993
        },
        {
          "name": "F1",
          "midi": 29,
          "time": 8.8125,
          "velocity": 1,
          "duration": 0.15000000000000036
        },
        {
          "name": "F2",
          "midi": 41,
          "time": 8.8125,
          "velocity": 1,
          "duration": 0.15000000000000036
        },
        {
          "name": "F2",
          "midi": 41,
          "time": 9,
          "velocity": 1,
          "duration": 0.4499999999999993
        },
        {
          "name": "F1",
          "midi": 29,
          "time": 9,
          "velocity": 1,
          "duration": 0.4499999999999993
        },
        {
          "name": "F1",
          "midi": 29,
          "time": 9.5625,
          "velocity": 1,
          "duration": 0.15000000000000036
        },
        {
          "name": "F2",
          "midi": 41,
          "time": 9.5625,
          "velocity": 1,
          "duration": 0.15000000000000036
        },
        {
          "name": "F2",
          "midi": 41,
          "time": 9.75,
          "velocity": 1,
          "duration": 0.4499999999999993
        },
        {
          "name": "F1",
          "midi": 29,
          "time": 9.75,
          "velocity": 1,
          "duration": 0.4499999999999993
        },
        {
          "name": "F1",
          "midi": 29,
          "time": 10.3125,
          "velocity": 1,
          "duration": 0.15000000000000036
        },
        {
          "name": "F2",
          "midi": 41,
          "time": 10.3125,
          "velocity": 1,
          "duration": 0.15000000000000036
        },
        {
          "name": "F2",
          "midi": 41,
          "time": 10.5,
          "velocity": 1,
          "duration": 0.4499999999999993
        },
        {
          "name": "F1",
          "midi": 29,
          "time": 10.5,
          "velocity": 1,
          "duration": 0.4499999999999993
        },
        {
          "name": "F1",
          "midi": 29,
          "time": 11.0625,
          "velocity": 1,
          "duration": 0.15000000000000036
        },
        {
          "name": "F2",
          "midi": 41,
          "time": 11.0625,
          "velocity": 1,
          "duration": 0.15000000000000036
        },
        {
          "name": "F1",
          "midi": 29,
          "time": 11.25,
          "velocity": 1,
          "duration": 0.15000000000000036
        },
        {
          "name": "C2",
          "midi": 36,
          "time": 11.4375,
          "velocity": 1,
          "duration": 0.3000000000000007
        },
        {
          "name": "F1",
          "midi": 29,
          "time": 11.8125,
          "velocity": 1,
          "duration": 0.15000000000000036
        },
        {
          "name": "F2",
          "midi": 41,
          "time": 12,
          "velocity": 1,
          "duration": 0.4499999999999993
        },
        {
          "name": "F1",
          "midi": 29,
          "time": 12,
          "velocity": 1,
          "duration": 0.4499999999999993
        },
        {
          "name": "F1",
          "midi": 29,
          "time": 12.5625,
          "velocity": 1,
          "duration": 0.15000000000000036
        },
        {
          "name": "F2",
          "midi": 41,
          "time": 12.5625,
          "velocity": 1,
          "duration": 0.15000000000000036
        },
        {
          "name": "F1",
          "midi": 29,
          "time": 12.75,
          "velocity": 1,
          "duration": 0.4499999999999993
        },
        {
          "name": "F2",
          "midi": 41,
          "time": 12.75,
          "velocity": 1,
          "duration": 0.4499999999999993
        },
        {
          "name": "F1",
          "midi": 29,
          "time": 13.3125,
          "velocity": 1,
          "duration": 0.15000000000000036
        },
        {
          "name": "F2",
          "midi": 41,
          "time": 13.3125,
          "velocity": 1,
          "duration": 0.15000000000000036
        },
        {
          "name": "F2",
          "midi": 41,
          "time": 13.5,
          "velocity": 1,
          "duration": 0.4499999999999993
        },
        {
          "name": "F1",
          "midi": 29,
          "time": 13.5,
          "velocity": 1,
          "duration": 0.4499999999999993
        },
        {
          "name": "F1",
          "midi": 29,
          "time": 14.0625,
          "velocity": 1,
          "duration": 0.15000000000000036
        },
        {
          "name": "F2",
          "midi": 41,
          "time": 14.0625,
          "velocity": 1,
          "duration": 0.15000000000000036
        },
        {
          "name": "F2",
          "midi": 41,
          "time": 14.25,
          "velocity": 1,
          "duration": 0.4499999999999993
        },
        {
          "name": "F1",
          "midi": 29,
          "time": 14.25,
          "velocity": 1,
          "duration": 0.4499999999999993
        },
        {
          "name": "F1",
          "midi": 29,
          "time": 14.8125,
          "velocity": 1,
          "duration": 0.15000000000000036
        },
        {
          "name": "F2",
          "midi": 41,
          "time": 14.8125,
          "velocity": 1,
          "duration": 0.15000000000000036
        },
        {
          "name": "F2",
          "midi": 41,
          "time": 15,
          "velocity": 1,
          "duration": 0.4499999999999993
        },
        {
          "name": "F1",
          "midi": 29,
          "time": 15,
          "velocity": 1,
          "duration": 0.4499999999999993
        },
        {
          "name": "F1",
          "midi": 29,
          "time": 15.5625,
          "velocity": 1,
          "duration": 0.15000000000000036
        },
        {
          "name": "F2",
          "midi": 41,
          "time": 15.5625,
          "velocity": 1,
          "duration": 0.15000000000000036
        },
        {
          "name": "F2",
          "midi": 41,
          "time": 15.75,
          "velocity": 1,
          "duration": 0.4499999999999993
        },
        {
          "name": "F1",
          "midi": 29,
          "time": 15.75,
          "velocity": 1,
          "duration": 0.4499999999999993
        },
        {
          "name": "F2",
          "midi": 41,
          "time": 16.3125,
          "velocity": 1,
          "duration": 0.14999999999999858
        },
        {
          "name": "F1",
          "midi": 29,
          "time": 16.3125,
          "velocity": 1,
          "duration": 0.14999999999999858
        },
        {
          "name": "F1",
          "midi": 29,
          "time": 16.5,
          "velocity": 1,
          "duration": 0.4499999999999993
        },
        {
          "name": "F2",
          "midi": 41,
          "time": 16.5,
          "velocity": 1,
          "duration": 0.4499999999999993
        },
        {
          "name": "F1",
          "midi": 29,
          "time": 17.0625,
          "velocity": 1,
          "duration": 0.14999999999999858
        },
        {
          "name": "F2",
          "midi": 41,
          "time": 17.0625,
          "velocity": 1,
          "duration": 0.14999999999999858
        },
        {
          "name": "F1",
          "midi": 29,
          "time": 17.25,
          "velocity": 1,
          "duration": 0.14999999999999858
        },
        {
          "name": "C2",
          "midi": 36,
          "time": 17.4375,
          "velocity": 1,
          "duration": 0.3000000000000007
        },
        {
          "name": "F1",
          "midi": 29,
          "time": 17.8125,
          "velocity": 1,
          "duration": 0.14999999999999858
        },
        {
          "name": "F1",
          "midi": 29,
          "time": 18,
          "velocity": 1,
          "duration": 0.4499999999999993
        },
        {
          "name": "F2",
          "midi": 41,
          "time": 18,
          "velocity": 1,
          "duration": 0.4499999999999993
        },
        {
          "name": "F1",
          "midi": 29,
          "time": 18.5625,
          "velocity": 1,
          "duration": 0.14999999999999858
        },
        {
          "name": "F2",
          "midi": 41,
          "time": 18.5625,
          "velocity": 1,
          "duration": 0.14999999999999858
        },
        {
          "name": "F2",
          "midi": 41,
          "time": 18.75,
          "velocity": 1,
          "duration": 0.4499999999999993
        },
        {
          "name": "F1",
          "midi": 29,
          "time": 18.75,
          "velocity": 1,
          "duration": 0.4499999999999993
        },
        {
          "name": "F1",
          "midi": 29,
          "time": 19.3125,
          "velocity": 1,
          "duration": 0.14999999999999858
        },
        {
          "name": "F2",
          "midi": 41,
          "time": 19.3125,
          "velocity": 1,
          "duration": 0.14999999999999858
        },
        {
          "name": "F1",
          "midi": 29,
          "time": 19.5,
          "velocity": 1,
          "duration": 0.4499999999999993
        },
        {
          "name": "F2",
          "midi": 41,
          "time": 19.5,
          "velocity": 1,
          "duration": 0.4499999999999993
        },
        {
          "name": "F1",
          "midi": 29,
          "time": 20.0625,
          "velocity": 1,
          "duration": 0.14999999999999858
        },
        {
          "name": "F2",
          "midi": 41,
          "time": 20.0625,
          "velocity": 1,
          "duration": 0.14999999999999858
        },
        {
          "name": "F1",
          "midi": 29,
          "time": 20.25,
          "velocity": 1,
          "duration": 0.4499999999999993
        },
        {
          "name": "F2",
          "midi": 41,
          "time": 20.25,
          "velocity": 1,
          "duration": 0.4499999999999993
        },
        {
          "name": "F1",
          "midi": 29,
          "time": 20.8125,
          "velocity": 1,
          "duration": 0.14999999999999858
        },
        {
          "name": "F2",
          "midi": 41,
          "time": 20.8125,
          "velocity": 1,
          "duration": 0.14999999999999858
        },
        {
          "name": "F1",
          "midi": 29,
          "time": 21,
          "velocity": 1,
          "duration": 0.4499999999999993
        },
        {
          "name": "F2",
          "midi": 41,
          "time": 21,
          "velocity": 1,
          "duration": 0.4499999999999993
        },
        {
          "name": "F1",
          "midi": 29,
          "time": 21.5625,
          "velocity": 1,
          "duration": 0.14999999999999858
        },
        {
          "name": "F2",
          "midi": 41,
          "time": 21.5625,
          "velocity": 1,
          "duration": 0.14999999999999858
        },
        {
          "name": "F2",
          "midi": 41,
          "time": 21.75,
          "velocity": 1,
          "duration": 0.4499999999999993
        },
        {
          "name": "F1",
          "midi": 29,
          "time": 21.75,
          "velocity": 1,
          "duration": 0.4499999999999993
        },
        {
          "name": "F1",
          "midi": 29,
          "time": 22.3125,
          "velocity": 1,
          "duration": 0.14999999999999858
        },
        {
          "name": "F2",
          "midi": 41,
          "time": 22.3125,
          "velocity": 1,
          "duration": 0.14999999999999858
        },
        {
          "name": "F1",
          "midi": 29,
          "time": 22.5,
          "velocity": 1,
          "duration": 0.4499999999999993
        },
        {
          "name": "F2",
          "midi": 41,
          "time": 22.5,
          "velocity": 1,
          "duration": 0.4499999999999993
        },
        {
          "name": "F1",
          "midi": 29,
          "time": 23.0625,
          "velocity": 1,
          "duration": 0.14999999999999858
        },
        {
          "name": "F2",
          "midi": 41,
          "time": 23.0625,
          "velocity": 1,
          "duration": 0.14999999999999858
        },
        {
          "name": "F1",
          "midi": 29,
          "time": 23.25,
          "velocity": 1,
          "duration": 0.14999999999999858
        },
        {
          "name": "C2",
          "midi": 36,
          "time": 23.4375,
          "velocity": 1,
          "duration": 0.3000000000000007
        },
        {
          "name": "F1",
          "midi": 29,
          "time": 23.8125,
          "velocity": 1,
          "duration": 0.14999999999999858
        },
        {
          "name": "F1",
          "midi": 29,
          "time": 24,
          "velocity": 1,
          "duration": 0.4499999999999993
        },
        {
          "name": "F2",
          "midi": 41,
          "time": 24,
          "velocity": 1,
          "duration": 0.4499999999999993
        },
        {
          "name": "F1",
          "midi": 29,
          "time": 24.5625,
          "velocity": 1,
          "duration": 0.14999999999999858
        },
        {
          "name": "F2",
          "midi": 41,
          "time": 24.5625,
          "velocity": 1,
          "duration": 0.14999999999999858
        },
        {
          "name": "F2",
          "midi": 41,
          "time": 24.75,
          "velocity": 1,
          "duration": 0.4499999999999993
        },
        {
          "name": "F1",
          "midi": 29,
          "time": 24.75,
          "velocity": 1,
          "duration": 0.4499999999999993
        },
        {
          "name": "F2",
          "midi": 41,
          "time": 25.3125,
          "velocity": 1,
          "duration": 0.14999999999999858
        },
        {
          "name": "F1",
          "midi": 29,
          "time": 25.3125,
          "velocity": 1,
          "duration": 0.14999999999999858
        },
        {
          "name": "F1",
          "midi": 29,
          "time": 25.5,
          "velocity": 1,
          "duration": 0.4499999999999993
        },
        {
          "name": "F2",
          "midi": 41,
          "time": 25.5,
          "velocity": 1,
          "duration": 0.4499999999999993
        },
        {
          "name": "F1",
          "midi": 29,
          "time": 26.0625,
          "velocity": 1,
          "duration": 0.14999999999999858
        },
        {
          "name": "F2",
          "midi": 41,
          "time": 26.0625,
          "velocity": 1,
          "duration": 0.14999999999999858
        },
        {
          "name": "F1",
          "midi": 29,
          "time": 26.25,
          "velocity": 1,
          "duration": 0.4499999999999993
        },
        {
          "name": "F2",
          "midi": 41,
          "time": 26.25,
          "velocity": 1,
          "duration": 0.4499999999999993
        },
        {
          "name": "F2",
          "midi": 41,
          "time": 26.8125,
          "velocity": 1,
          "duration": 0.14999999999999858
        },
        {
          "name": "F1",
          "midi": 29,
          "time": 26.8125,
          "velocity": 1,
          "duration": 0.14999999999999858
        },
        {
          "name": "F1",
          "midi": 29,
          "time": 27,
          "velocity": 1,
          "duration": 0.4499999999999993
        },
        {
          "name": "F2",
          "midi": 41,
          "time": 27,
          "velocity": 1,
          "duration": 0.4499999999999993
        },
        {
          "name": "F1",
          "midi": 29,
          "time": 27.5625,
          "velocity": 1,
          "duration": 0.14999999999999858
        },
        {
          "name": "F2",
          "midi": 41,
          "time": 27.5625,
          "velocity": 1,
          "duration": 0.14999999999999858
        },
        {
          "name": "F1",
          "midi": 29,
          "time": 27.75,
          "velocity": 1,
          "duration": 0.4499999999999993
        },
        {
          "name": "F2",
          "midi": 41,
          "time": 27.75,
          "velocity": 1,
          "duration": 0.4499999999999993
        },
        {
          "name": "F2",
          "midi": 41,
          "time": 28.3125,
          "velocity": 1,
          "duration": 0.14999999999999858
        },
        {
          "name": "F1",
          "midi": 29,
          "time": 28.3125,
          "velocity": 1,
          "duration": 0.14999999999999858
        },
        {
          "name": "F2",
          "midi": 41,
          "time": 28.5,
          "velocity": 1,
          "duration": 0.4499999999999993
        },
        {
          "name": "F1",
          "midi": 29,
          "time": 28.5,
          "velocity": 1,
          "duration": 0.4499999999999993
        },
        {
          "name": "F2",
          "midi": 41,
          "time": 29.0625,
          "velocity": 1,
          "duration": 0.14999999999999858
        },
        {
          "name": "F1",
          "midi": 29,
          "time": 29.0625,
          "velocity": 1,
          "duration": 0.14999999999999858
        },
        {
          "name": "F1",
          "midi": 29,
          "time": 29.25,
          "velocity": 1,
          "duration": 0.14999999999999858
        },
        {
          "name": "C2",
          "midi": 36,
          "time": 29.4375,
          "velocity": 1,
          "duration": 0.3000000000000007
        },
        {
          "name": "F1",
          "midi": 29,
          "time": 29.8125,
          "velocity": 1,
          "duration": 0.14999999999999858
        },
        {
          "name": "F1",
          "midi": 29,
          "time": 30,
          "velocity": 1,
          "duration": 0.4499999999999993
        },
        {
          "name": "F2",
          "midi": 41,
          "time": 30,
          "velocity": 1,
          "duration": 0.4499999999999993
        },
        {
          "name": "F1",
          "midi": 29,
          "time": 30.5625,
          "velocity": 1,
          "duration": 0.14999999999999858
        },
        {
          "name": "F2",
          "midi": 41,
          "time": 30.5625,
          "velocity": 1,
          "duration": 0.14999999999999858
        },
        {
          "name": "F2",
          "midi": 41,
          "time": 30.75,
          "velocity": 1,
          "duration": 0.4499999999999993
        },
        {
          "name": "F1",
          "midi": 29,
          "time": 30.75,
          "velocity": 1,
          "duration": 0.4499999999999993
        },
        {
          "name": "F1",
          "midi": 29,
          "time": 31.3125,
          "velocity": 1,
          "duration": 0.14999999999999858
        },
        {
          "name": "F2",
          "midi": 41,
          "time": 31.3125,
          "velocity": 1,
          "duration": 0.14999999999999858
        },
        {
          "name": "F1",
          "midi": 29,
          "time": 31.5,
          "velocity": 1,
          "duration": 0.4499999999999993
        },
        {
          "name": "F2",
          "midi": 41,
          "time": 31.5,
          "velocity": 1,
          "duration": 0.4499999999999993
        },
        {
          "name": "F2",
          "midi": 41,
          "time": 32.0625,
          "velocity": 1,
          "duration": 0.14999999999999858
        },
        {
          "name": "F1",
          "midi": 29,
          "time": 32.0625,
          "velocity": 1,
          "duration": 0.14999999999999858
        },
        {
          "name": "F1",
          "midi": 29,
          "time": 32.25,
          "velocity": 1,
          "duration": 0.45000000000000284
        },
        {
          "name": "F2",
          "midi": 41,
          "time": 32.25,
          "velocity": 1,
          "duration": 0.45000000000000284
        },
        {
          "name": "F1",
          "midi": 29,
          "time": 32.8125,
          "velocity": 1,
          "duration": 0.14999999999999858
        },
        {
          "name": "F2",
          "midi": 41,
          "time": 32.8125,
          "velocity": 1,
          "duration": 0.14999999999999858
        },
        {
          "name": "F1",
          "midi": 29,
          "time": 33,
          "velocity": 1,
          "duration": 0.45000000000000284
        },
        {
          "name": "F2",
          "midi": 41,
          "time": 33,
          "velocity": 1,
          "duration": 0.45000000000000284
        },
        {
          "name": "F1",
          "midi": 29,
          "time": 33.5625,
          "velocity": 1,
          "duration": 0.14999999999999858
        },
        {
          "name": "F2",
          "midi": 41,
          "time": 33.5625,
          "velocity": 1,
          "duration": 0.14999999999999858
        },
        {
          "name": "F2",
          "midi": 41,
          "time": 33.75,
          "velocity": 1,
          "duration": 0.45000000000000284
        },
        {
          "name": "F1",
          "midi": 29,
          "time": 33.75,
          "velocity": 1,
          "duration": 0.45000000000000284
        },
        {
          "name": "F1",
          "midi": 29,
          "time": 34.3125,
          "velocity": 1,
          "duration": 0.14999999999999858
        },
        {
          "name": "F2",
          "midi": 41,
          "time": 34.3125,
          "velocity": 1,
          "duration": 0.14999999999999858
        },
        {
          "name": "F2",
          "midi": 41,
          "time": 34.5,
          "velocity": 1,
          "duration": 0.45000000000000284
        },
        {
          "name": "F1",
          "midi": 29,
          "time": 34.5,
          "velocity": 1,
          "duration": 0.45000000000000284
        },
        {
          "name": "F2",
          "midi": 41,
          "time": 35.0625,
          "velocity": 1,
          "duration": 0.14999999999999858
        },
        {
          "name": "F1",
          "midi": 29,
          "time": 35.0625,
          "velocity": 1,
          "duration": 0.14999999999999858
        },
        {
          "name": "F1",
          "midi": 29,
          "time": 35.25,
          "velocity": 1,
          "duration": 0.14999999999999858
        },
        {
          "name": "C2",
          "midi": 36,
          "time": 35.4375,
          "velocity": 1,
          "duration": 0.29999999999999716
        },
        {
          "name": "F1",
          "midi": 29,
          "time": 35.8125,
          "velocity": 1,
          "duration": 0.14999999999999858
        },
        {
          "name": "G#1",
          "midi": 32,
          "time": 36,
          "velocity": 1,
          "duration": 0.45000000000000284
        },
        {
          "name": "G#1",
          "midi": 32,
          "time": 36.5625,
          "velocity": 1,
          "duration": 0.14999999999999858
        },
        {
          "name": "G#1",
          "midi": 32,
          "time": 36.75,
          "velocity": 1,
          "duration": 0.45000000000000284
        },
        {
          "name": "G#1",
          "midi": 32,
          "time": 37.3125,
          "velocity": 1,
          "duration": 0.14999999999999858
        },
        {
          "name": "G#1",
          "midi": 32,
          "time": 37.5,
          "velocity": 1,
          "duration": 0.45000000000000284
        },
        {
          "name": "G#1",
          "midi": 32,
          "time": 38.0625,
          "velocity": 1,
          "duration": 0.14999999999999858
        },
        {
          "name": "G#1",
          "midi": 32,
          "time": 38.25,
          "velocity": 1,
          "duration": 0.45000000000000284
        },
        {
          "name": "G#1",
          "midi": 32,
          "time": 38.8125,
          "velocity": 1,
          "duration": 0.14999999999999858
        },
        {
          "name": "G#1",
          "midi": 32,
          "time": 39,
          "velocity": 1,
          "duration": 0.45000000000000284
        },
        {
          "name": "G#1",
          "midi": 32,
          "time": 39.5625,
          "velocity": 1,
          "duration": 0.14999999999999858
        },
        {
          "name": "G#1",
          "midi": 32,
          "time": 39.75,
          "velocity": 1,
          "duration": 0.45000000000000284
        },
        {
          "name": "G#1",
          "midi": 32,
          "time": 40.3125,
          "velocity": 1,
          "duration": 0.14999999999999858
        },
        {
          "name": "G#1",
          "midi": 32,
          "time": 40.5,
          "velocity": 1,
          "duration": 0.45000000000000284
        },
        {
          "name": "G#1",
          "midi": 32,
          "time": 41.0625,
          "velocity": 1,
          "duration": 0.14999999999999858
        },
        {
          "name": "G#1",
          "midi": 32,
          "time": 41.25,
          "velocity": 1,
          "duration": 0.14999999999999858
        },
        {
          "name": "D#2",
          "midi": 39,
          "time": 41.4375,
          "velocity": 1,
          "duration": 0.29999999999999716
        },
        {
          "name": "G#1",
          "midi": 32,
          "time": 41.8125,
          "velocity": 1,
          "duration": 0.14999999999999858
        },
        {
          "name": "G#1",
          "midi": 32,
          "time": 42,
          "velocity": 1,
          "duration": 0.45000000000000284
        },
        {
          "name": "G#1",
          "midi": 32,
          "time": 42.5625,
          "velocity": 1,
          "duration": 0.14999999999999858
        },
        {
          "name": "G#1",
          "midi": 32,
          "time": 42.75,
          "velocity": 1,
          "duration": 0.45000000000000284
        },
        {
          "name": "G#1",
          "midi": 32,
          "time": 43.3125,
          "velocity": 1,
          "duration": 0.14999999999999858
        },
        {
          "name": "G#1",
          "midi": 32,
          "time": 43.5,
          "velocity": 1,
          "duration": 0.45000000000000284
        },
        {
          "name": "G#1",
          "midi": 32,
          "time": 44.0625,
          "velocity": 1,
          "duration": 0.14999999999999858
        },
        {
          "name": "G#1",
          "midi": 32,
          "time": 44.25,
          "velocity": 1,
          "duration": 0.45000000000000284
        },
        {
          "name": "G#1",
          "midi": 32,
          "time": 44.8125,
          "velocity": 1,
          "duration": 0.14999999999999858
        },
        {
          "name": "G#1",
          "midi": 32,
          "time": 45,
          "velocity": 1,
          "duration": 0.45000000000000284
        },
        {
          "name": "G#1",
          "midi": 32,
          "time": 45.5625,
          "velocity": 1,
          "duration": 0.14999999999999858
        },
        {
          "name": "G#1",
          "midi": 32,
          "time": 45.75,
          "velocity": 1,
          "duration": 0.45000000000000284
        },
        {
          "name": "G#1",
          "midi": 32,
          "time": 46.3125,
          "velocity": 1,
          "duration": 0.14999999999999858
        },
        {
          "name": "G#1",
          "midi": 32,
          "time": 46.5,
          "velocity": 1,
          "duration": 0.45000000000000284
        },
        {
          "name": "G#1",
          "midi": 32,
          "time": 47.0625,
          "velocity": 1,
          "duration": 0.14999999999999858
        },
        {
          "name": "G#1",
          "midi": 32,
          "time": 47.25,
          "velocity": 1,
          "duration": 0.14999999999999858
        },
        {
          "name": "D#2",
          "midi": 39,
          "time": 47.4375,
          "velocity": 1,
          "duration": 0.29999999999999716
        },
        {
          "name": "G#1",
          "midi": 32,
          "time": 47.8125,
          "velocity": 1,
          "duration": 0.14999999999999858
        },
        {
          "name": "G#1",
          "midi": 32,
          "time": 48,
          "velocity": 1,
          "duration": 0.45000000000000284
        },
        {
          "name": "G#1",
          "midi": 32,
          "time": 48.5625,
          "velocity": 1,
          "duration": 0.14999999999999858
        },
        {
          "name": "G#1",
          "midi": 32,
          "time": 48.75,
          "velocity": 1,
          "duration": 0.45000000000000284
        },
        {
          "name": "G#1",
          "midi": 32,
          "time": 49.3125,
          "velocity": 1,
          "duration": 0.14999999999999858
        },
        {
          "name": "G#1",
          "midi": 32,
          "time": 49.5,
          "velocity": 1,
          "duration": 0.45000000000000284
        },
        {
          "name": "G#1",
          "midi": 32,
          "time": 50.0625,
          "velocity": 1,
          "duration": 0.14999999999999858
        },
        {
          "name": "G#1",
          "midi": 32,
          "time": 50.25,
          "velocity": 1,
          "duration": 0.45000000000000284
        },
        {
          "name": "G#1",
          "midi": 32,
          "time": 50.8125,
          "velocity": 1,
          "duration": 0.14999999999999858
        },
        {
          "name": "G#1",
          "midi": 32,
          "time": 51,
          "velocity": 1,
          "duration": 0.45000000000000284
        },
        {
          "name": "G#1",
          "midi": 32,
          "time": 51.5625,
          "velocity": 1,
          "duration": 0.14999999999999858
        },
        {
          "name": "G#1",
          "midi": 32,
          "time": 51.75,
          "velocity": 1,
          "duration": 0.45000000000000284
        },
        {
          "name": "G#1",
          "midi": 32,
          "time": 52.3125,
          "velocity": 1,
          "duration": 0.14999999999999858
        },
        {
          "name": "G#1",
          "midi": 32,
          "time": 52.5,
          "velocity": 1,
          "duration": 0.45000000000000284
        },
        {
          "name": "G#1",
          "midi": 32,
          "time": 53.0625,
          "velocity": 1,
          "duration": 0.14999999999999858
        },
        {
          "name": "G#1",
          "midi": 32,
          "time": 53.25,
          "velocity": 1,
          "duration": 0.14999999999999858
        },
        {
          "name": "D#2",
          "midi": 39,
          "time": 53.4375,
          "velocity": 1,
          "duration": 0.29999999999999716
        },
        {
          "name": "G#1",
          "midi": 32,
          "time": 53.8125,
          "velocity": 1,
          "duration": 0.14999999999999858
        },
        {
          "name": "G#1",
          "midi": 32,
          "time": 54,
          "velocity": 1,
          "duration": 0.45000000000000284
        },
        {
          "name": "G#1",
          "midi": 32,
          "time": 54.5625,
          "velocity": 1,
          "duration": 0.14999999999999858
        },
        {
          "name": "G#1",
          "midi": 32,
          "time": 54.75,
          "velocity": 1,
          "duration": 0.45000000000000284
        },
        {
          "name": "G#1",
          "midi": 32,
          "time": 55.3125,
          "velocity": 1,
          "duration": 0.14999999999999858
        },
        {
          "name": "G#1",
          "midi": 32,
          "time": 55.5,
          "velocity": 1,
          "duration": 0.45000000000000284
        },
        {
          "name": "G#1",
          "midi": 32,
          "time": 56.0625,
          "velocity": 1,
          "duration": 0.14999999999999858
        },
        {
          "name": "G#1",
          "midi": 32,
          "time": 56.25,
          "velocity": 1,
          "duration": 0.45000000000000284
        },
        {
          "name": "G#1",
          "midi": 32,
          "time": 56.8125,
          "velocity": 1,
          "duration": 0.14999999999999858
        },
        {
          "name": "G#1",
          "midi": 32,
          "time": 57,
          "velocity": 1,
          "duration": 0.45000000000000284
        },
        {
          "name": "G#1",
          "midi": 32,
          "time": 57.5625,
          "velocity": 1,
          "duration": 0.14999999999999858
        },
        {
          "name": "G#1",
          "midi": 32,
          "time": 57.75,
          "velocity": 1,
          "duration": 0.45000000000000284
        },
        {
          "name": "G#1",
          "midi": 32,
          "time": 58.3125,
          "velocity": 1,
          "duration": 0.14999999999999858
        },
        {
          "name": "G#1",
          "midi": 32,
          "time": 58.5,
          "velocity": 1,
          "duration": 0.45000000000000284
        },
        {
          "name": "G#1",
          "midi": 32,
          "time": 59.0625,
          "velocity": 1,
          "duration": 0.14999999999999858
        },
        {
          "name": "G#1",
          "midi": 32,
          "time": 59.25,
          "velocity": 1,
          "duration": 0.14999999999999858
        },
        {
          "name": "D#2",
          "midi": 39,
          "time": 59.4375,
          "velocity": 1,
          "duration": 0.29999999999999716
        },
        {
          "name": "G#1",
          "midi": 32,
          "time": 59.8125,
          "velocity": 1,
          "duration": 0.14999999999999858
        },
        {
          "name": "F1",
          "midi": 29,
          "time": 60,
          "velocity": 1,
          "duration": 0.45000000000000284
        },
        {
          "name": "F2",
          "midi": 41,
          "time": 60,
          "velocity": 1,
          "duration": 0.45000000000000284
        },
        {
          "name": "F1",
          "midi": 29,
          "time": 60.5625,
          "velocity": 1,
          "duration": 0.14999999999999858
        },
        {
          "name": "F2",
          "midi": 41,
          "time": 60.5625,
          "velocity": 1,
          "duration": 0.14999999999999858
        },
        {
          "name": "F1",
          "midi": 29,
          "time": 60.75,
          "velocity": 1,
          "duration": 0.45000000000000284
        },
        {
          "name": "F2",
          "midi": 41,
          "time": 60.75,
          "velocity": 1,
          "duration": 0.45000000000000284
        },
        {
          "name": "F1",
          "midi": 29,
          "time": 61.3125,
          "velocity": 1,
          "duration": 0.14999999999999858
        },
        {
          "name": "F2",
          "midi": 41,
          "time": 61.3125,
          "velocity": 1,
          "duration": 0.14999999999999858
        },
        {
          "name": "F1",
          "midi": 29,
          "time": 61.5,
          "velocity": 1,
          "duration": 0.45000000000000284
        },
        {
          "name": "F2",
          "midi": 41,
          "time": 61.5,
          "velocity": 1,
          "duration": 0.45000000000000284
        },
        {
          "name": "F1",
          "midi": 29,
          "time": 62.0625,
          "velocity": 1,
          "duration": 0.14999999999999858
        },
        {
          "name": "F2",
          "midi": 41,
          "time": 62.0625,
          "velocity": 1,
          "duration": 0.14999999999999858
        },
        {
          "name": "F1",
          "midi": 29,
          "time": 62.25,
          "velocity": 1,
          "duration": 0.45000000000000284
        },
        {
          "name": "F2",
          "midi": 41,
          "time": 62.25,
          "velocity": 1,
          "duration": 0.45000000000000284
        },
        {
          "name": "F1",
          "midi": 29,
          "time": 62.8125,
          "velocity": 1,
          "duration": 0.14999999999999858
        },
        {
          "name": "F2",
          "midi": 41,
          "time": 62.8125,
          "velocity": 1,
          "duration": 0.14999999999999858
        },
        {
          "name": "F1",
          "midi": 29,
          "time": 63,
          "velocity": 1,
          "duration": 0.45000000000000284
        },
        {
          "name": "F2",
          "midi": 41,
          "time": 63,
          "velocity": 1,
          "duration": 0.45000000000000284
        },
        {
          "name": "F2",
          "midi": 41,
          "time": 63.5625,
          "velocity": 1,
          "duration": 0.14999999999999858
        },
        {
          "name": "F1",
          "midi": 29,
          "time": 63.5625,
          "velocity": 1,
          "duration": 0.14999999999999858
        },
        {
          "name": "F2",
          "midi": 41,
          "time": 63.75,
          "velocity": 1,
          "duration": 0.45000000000000284
        },
        {
          "name": "F1",
          "midi": 29,
          "time": 63.75,
          "velocity": 1,
          "duration": 0.45000000000000284
        },
        {
          "name": "F2",
          "midi": 41,
          "time": 64.3125,
          "velocity": 1,
          "duration": 0.15000000000000568
        },
        {
          "name": "F1",
          "midi": 29,
          "time": 64.3125,
          "velocity": 1,
          "duration": 0.15000000000000568
        },
        {
          "name": "F1",
          "midi": 29,
          "time": 64.5,
          "velocity": 1,
          "duration": 0.45000000000000284
        },
        {
          "name": "F2",
          "midi": 41,
          "time": 64.5,
          "velocity": 1,
          "duration": 0.45000000000000284
        },
        {
          "name": "F2",
          "midi": 41,
          "time": 65.0625,
          "velocity": 1,
          "duration": 0.15000000000000568
        },
        {
          "name": "F1",
          "midi": 29,
          "time": 65.0625,
          "velocity": 1,
          "duration": 0.15000000000000568
        },
        {
          "name": "F1",
          "midi": 29,
          "time": 65.25,
          "velocity": 1,
          "duration": 0.15000000000000568
        },
        {
          "name": "C2",
          "midi": 36,
          "time": 65.4375,
          "velocity": 1,
          "duration": 0.29999999999999716
        },
        {
          "name": "F1",
          "midi": 29,
          "time": 65.8125,
          "velocity": 1,
          "duration": 0.15000000000000568
        },
        {
          "name": "F1",
          "midi": 29,
          "time": 66,
          "velocity": 1,
          "duration": 0.45000000000000284
        },
        {
          "name": "F2",
          "midi": 41,
          "time": 66,
          "velocity": 1,
          "duration": 0.45000000000000284
        },
        {
          "name": "F2",
          "midi": 41,
          "time": 66.5625,
          "velocity": 1,
          "duration": 0.15000000000000568
        },
        {
          "name": "F1",
          "midi": 29,
          "time": 66.5625,
          "velocity": 1,
          "duration": 0.15000000000000568
        },
        {
          "name": "F2",
          "midi": 41,
          "time": 66.75,
          "velocity": 1,
          "duration": 0.45000000000000284
        },
        {
          "name": "F1",
          "midi": 29,
          "time": 66.75,
          "velocity": 1,
          "duration": 0.45000000000000284
        },
        {
          "name": "F1",
          "midi": 29,
          "time": 67.3125,
          "velocity": 1,
          "duration": 0.15000000000000568
        },
        {
          "name": "F2",
          "midi": 41,
          "time": 67.3125,
          "velocity": 1,
          "duration": 0.15000000000000568
        },
        {
          "name": "F1",
          "midi": 29,
          "time": 67.5,
          "velocity": 1,
          "duration": 0.45000000000000284
        },
        {
          "name": "F2",
          "midi": 41,
          "time": 67.5,
          "velocity": 1,
          "duration": 0.45000000000000284
        },
        {
          "name": "F2",
          "midi": 41,
          "time": 68.0625,
          "velocity": 1,
          "duration": 0.15000000000000568
        },
        {
          "name": "F1",
          "midi": 29,
          "time": 68.0625,
          "velocity": 1,
          "duration": 0.15000000000000568
        },
        {
          "name": "F1",
          "midi": 29,
          "time": 68.25,
          "velocity": 1,
          "duration": 0.45000000000000284
        },
        {
          "name": "F2",
          "midi": 41,
          "time": 68.25,
          "velocity": 1,
          "duration": 0.45000000000000284
        },
        {
          "name": "F1",
          "midi": 29,
          "time": 68.8125,
          "velocity": 1,
          "duration": 0.15000000000000568
        },
        {
          "name": "F2",
          "midi": 41,
          "time": 68.8125,
          "velocity": 1,
          "duration": 0.15000000000000568
        },
        {
          "name": "F1",
          "midi": 29,
          "time": 69,
          "velocity": 1,
          "duration": 0.45000000000000284
        },
        {
          "name": "F2",
          "midi": 41,
          "time": 69,
          "velocity": 1,
          "duration": 0.45000000000000284
        },
        {
          "name": "F1",
          "midi": 29,
          "time": 69.5625,
          "velocity": 1,
          "duration": 0.15000000000000568
        },
        {
          "name": "F2",
          "midi": 41,
          "time": 69.5625,
          "velocity": 1,
          "duration": 0.15000000000000568
        },
        {
          "name": "F2",
          "midi": 41,
          "time": 69.75,
          "velocity": 1,
          "duration": 0.45000000000000284
        },
        {
          "name": "F1",
          "midi": 29,
          "time": 69.75,
          "velocity": 1,
          "duration": 0.45000000000000284
        },
        {
          "name": "F2",
          "midi": 41,
          "time": 70.3125,
          "velocity": 1,
          "duration": 0.15000000000000568
        },
        {
          "name": "F1",
          "midi": 29,
          "time": 70.3125,
          "velocity": 1,
          "duration": 0.15000000000000568
        },
        {
          "name": "F1",
          "midi": 29,
          "time": 70.5,
          "velocity": 1,
          "duration": 0.45000000000000284
        },
        {
          "name": "F2",
          "midi": 41,
          "time": 70.5,
          "velocity": 1,
          "duration": 0.45000000000000284
        },
        {
          "name": "F2",
          "midi": 41,
          "time": 71.0625,
          "velocity": 1,
          "duration": 0.15000000000000568
        },
        {
          "name": "F1",
          "midi": 29,
          "time": 71.0625,
          "velocity": 1,
          "duration": 0.15000000000000568
        },
        {
          "name": "F1",
          "midi": 29,
          "time": 71.25,
          "velocity": 1,
          "duration": 0.15000000000000568
        },
        {
          "name": "C2",
          "midi": 36,
          "time": 71.4375,
          "velocity": 1,
          "duration": 0.29999999999999716
        },
        {
          "name": "F1",
          "midi": 29,
          "time": 71.8125,
          "velocity": 1,
          "duration": 0.15000000000000568
        },
        {
          "name": "F1",
          "midi": 29,
          "time": 72,
          "velocity": 1,
          "duration": 0.45000000000000284
        },
        {
          "name": "F2",
          "midi": 41,
          "time": 72,
          "velocity": 1,
          "duration": 0.45000000000000284
        },
        {
          "name": "F1",
          "midi": 29,
          "time": 72.5625,
          "velocity": 1,
          "duration": 0.15000000000000568
        },
        {
          "name": "F2",
          "midi": 41,
          "time": 72.5625,
          "velocity": 1,
          "duration": 0.15000000000000568
        },
        {
          "name": "F2",
          "midi": 41,
          "time": 72.75,
          "velocity": 1,
          "duration": 0.45000000000000284
        },
        {
          "name": "F1",
          "midi": 29,
          "time": 72.75,
          "velocity": 1,
          "duration": 0.45000000000000284
        },
        {
          "name": "F2",
          "midi": 41,
          "time": 73.3125,
          "velocity": 1,
          "duration": 0.15000000000000568
        },
        {
          "name": "F1",
          "midi": 29,
          "time": 73.3125,
          "velocity": 1,
          "duration": 0.15000000000000568
        },
        {
          "name": "F1",
          "midi": 29,
          "time": 73.5,
          "velocity": 1,
          "duration": 0.45000000000000284
        },
        {
          "name": "F2",
          "midi": 41,
          "time": 73.5,
          "velocity": 1,
          "duration": 0.45000000000000284
        },
        {
          "name": "F2",
          "midi": 41,
          "time": 74.0625,
          "velocity": 1,
          "duration": 0.15000000000000568
        },
        {
          "name": "F1",
          "midi": 29,
          "time": 74.0625,
          "velocity": 1,
          "duration": 0.15000000000000568
        },
        {
          "name": "F1",
          "midi": 29,
          "time": 74.25,
          "velocity": 1,
          "duration": 0.45000000000000284
        },
        {
          "name": "F2",
          "midi": 41,
          "time": 74.25,
          "velocity": 1,
          "duration": 0.45000000000000284
        },
        {
          "name": "F1",
          "midi": 29,
          "time": 74.8125,
          "velocity": 1,
          "duration": 0.15000000000000568
        },
        {
          "name": "F2",
          "midi": 41,
          "time": 74.8125,
          "velocity": 1,
          "duration": 0.15000000000000568
        },
        {
          "name": "F1",
          "midi": 29,
          "time": 75,
          "velocity": 1,
          "duration": 0.45000000000000284
        },
        {
          "name": "F2",
          "midi": 41,
          "time": 75,
          "velocity": 1,
          "duration": 0.45000000000000284
        },
        {
          "name": "F1",
          "midi": 29,
          "time": 75.5625,
          "velocity": 1,
          "duration": 0.15000000000000568
        },
        {
          "name": "F2",
          "midi": 41,
          "time": 75.5625,
          "velocity": 1,
          "duration": 0.15000000000000568
        },
        {
          "name": "F1",
          "midi": 29,
          "time": 75.75,
          "velocity": 1,
          "duration": 0.45000000000000284
        },
        {
          "name": "F2",
          "midi": 41,
          "time": 75.75,
          "velocity": 1,
          "duration": 0.45000000000000284
        },
        {
          "name": "F2",
          "midi": 41,
          "time": 76.3125,
          "velocity": 1,
          "duration": 0.15000000000000568
        },
        {
          "name": "F1",
          "midi": 29,
          "time": 76.3125,
          "velocity": 1,
          "duration": 0.15000000000000568
        },
        {
          "name": "F1",
          "midi": 29,
          "time": 76.5,
          "velocity": 1,
          "duration": 0.45000000000000284
        },
        {
          "name": "F2",
          "midi": 41,
          "time": 76.5,
          "velocity": 1,
          "duration": 0.45000000000000284
        },
        {
          "name": "F1",
          "midi": 29,
          "time": 77.0625,
          "velocity": 1,
          "duration": 0.15000000000000568
        },
        {
          "name": "F2",
          "midi": 41,
          "time": 77.0625,
          "velocity": 1,
          "duration": 0.15000000000000568
        },
        {
          "name": "F1",
          "midi": 29,
          "time": 77.25,
          "velocity": 1,
          "duration": 0.15000000000000568
        },
        {
          "name": "C2",
          "midi": 36,
          "time": 77.4375,
          "velocity": 1,
          "duration": 0.29999999999999716
        },
        {
          "name": "F1",
          "midi": 29,
          "time": 77.8125,
          "velocity": 1,
          "duration": 0.15000000000000568
        },
        {
          "name": "F1",
          "midi": 29,
          "time": 78,
          "velocity": 1,
          "duration": 0.45000000000000284
        },
        {
          "name": "F2",
          "midi": 41,
          "time": 78,
          "velocity": 1,
          "duration": 0.45000000000000284
        },
        {
          "name": "F2",
          "midi": 41,
          "time": 78.5625,
          "velocity": 1,
          "duration": 0.15000000000000568
        },
        {
          "name": "F1",
          "midi": 29,
          "time": 78.5625,
          "velocity": 1,
          "duration": 0.15000000000000568
        },
        {
          "name": "F2",
          "midi": 41,
          "time": 78.75,
          "velocity": 1,
          "duration": 0.45000000000000284
        },
        {
          "name": "F1",
          "midi": 29,
          "time": 78.75,
          "velocity": 1,
          "duration": 0.45000000000000284
        },
        {
          "name": "F2",
          "midi": 41,
          "time": 79.3125,
          "velocity": 1,
          "duration": 0.15000000000000568
        },
        {
          "name": "F1",
          "midi": 29,
          "time": 79.3125,
          "velocity": 1,
          "duration": 0.15000000000000568
        },
        {
          "name": "F1",
          "midi": 29,
          "time": 79.5,
          "velocity": 1,
          "duration": 0.45000000000000284
        },
        {
          "name": "F2",
          "midi": 41,
          "time": 79.5,
          "velocity": 1,
          "duration": 0.45000000000000284
        },
        {
          "name": "F2",
          "midi": 41,
          "time": 80.0625,
          "velocity": 1,
          "duration": 0.15000000000000568
        },
        {
          "name": "F1",
          "midi": 29,
          "time": 80.0625,
          "velocity": 1,
          "duration": 0.15000000000000568
        },
        {
          "name": "F1",
          "midi": 29,
          "time": 80.25,
          "velocity": 1,
          "duration": 0.45000000000000284
        },
        {
          "name": "F2",
          "midi": 41,
          "time": 80.25,
          "velocity": 1,
          "duration": 0.45000000000000284
        },
        {
          "name": "F2",
          "midi": 41,
          "time": 80.8125,
          "velocity": 1,
          "duration": 0.15000000000000568
        },
        {
          "name": "F1",
          "midi": 29,
          "time": 80.8125,
          "velocity": 1,
          "duration": 0.15000000000000568
        },
        {
          "name": "F1",
          "midi": 29,
          "time": 81,
          "velocity": 1,
          "duration": 0.45000000000000284
        },
        {
          "name": "F2",
          "midi": 41,
          "time": 81,
          "velocity": 1,
          "duration": 0.45000000000000284
        },
        {
          "name": "F2",
          "midi": 41,
          "time": 81.5625,
          "velocity": 1,
          "duration": 0.15000000000000568
        },
        {
          "name": "F1",
          "midi": 29,
          "time": 81.5625,
          "velocity": 1,
          "duration": 0.15000000000000568
        },
        {
          "name": "F2",
          "midi": 41,
          "time": 81.75,
          "velocity": 1,
          "duration": 0.45000000000000284
        },
        {
          "name": "F1",
          "midi": 29,
          "time": 81.75,
          "velocity": 1,
          "duration": 0.45000000000000284
        },
        {
          "name": "F2",
          "midi": 41,
          "time": 82.3125,
          "velocity": 1,
          "duration": 0.15000000000000568
        },
        {
          "name": "F1",
          "midi": 29,
          "time": 82.3125,
          "velocity": 1,
          "duration": 0.15000000000000568
        },
        {
          "name": "F1",
          "midi": 29,
          "time": 82.5,
          "velocity": 1,
          "duration": 0.45000000000000284
        },
        {
          "name": "F2",
          "midi": 41,
          "time": 82.5,
          "velocity": 1,
          "duration": 0.45000000000000284
        },
        {
          "name": "F2",
          "midi": 41,
          "time": 83.0625,
          "velocity": 1,
          "duration": 0.15000000000000568
        },
        {
          "name": "F1",
          "midi": 29,
          "time": 83.0625,
          "velocity": 1,
          "duration": 0.15000000000000568
        },
        {
          "name": "F1",
          "midi": 29,
          "time": 83.25,
          "velocity": 1,
          "duration": 0.15000000000000568
        },
        {
          "name": "C2",
          "midi": 36,
          "time": 83.4375,
          "velocity": 1,
          "duration": 0.29999999999999716
        },
        {
          "name": "F1",
          "midi": 29,
          "time": 83.8125,
          "velocity": 1,
          "duration": 0.15000000000000568
        },
        {
          "name": "F1",
          "midi": 29,
          "time": 84,
          "velocity": 1,
          "duration": 0.45000000000000284
        },
        {
          "name": "F2",
          "midi": 41,
          "time": 84,
          "velocity": 1,
          "duration": 0.45000000000000284
        },
        {
          "name": "F2",
          "midi": 41,
          "time": 84.5625,
          "velocity": 1,
          "duration": 0.15000000000000568
        },
        {
          "name": "F1",
          "midi": 29,
          "time": 84.5625,
          "velocity": 1,
          "duration": 0.15000000000000568
        },
        {
          "name": "F1",
          "midi": 29,
          "time": 84.75,
          "velocity": 1,
          "duration": 0.45000000000000284
        },
        {
          "name": "F2",
          "midi": 41,
          "time": 84.75,
          "velocity": 1,
          "duration": 0.45000000000000284
        },
        {
          "name": "F2",
          "midi": 41,
          "time": 85.3125,
          "velocity": 1,
          "duration": 0.15000000000000568
        },
        {
          "name": "F1",
          "midi": 29,
          "time": 85.3125,
          "velocity": 1,
          "duration": 0.15000000000000568
        },
        {
          "name": "F1",
          "midi": 29,
          "time": 85.5,
          "velocity": 1,
          "duration": 0.45000000000000284
        },
        {
          "name": "F2",
          "midi": 41,
          "time": 85.5,
          "velocity": 1,
          "duration": 0.45000000000000284
        },
        {
          "name": "F2",
          "midi": 41,
          "time": 86.0625,
          "velocity": 1,
          "duration": 0.15000000000000568
        },
        {
          "name": "F1",
          "midi": 29,
          "time": 86.0625,
          "velocity": 1,
          "duration": 0.15000000000000568
        },
        {
          "name": "F1",
          "midi": 29,
          "time": 86.25,
          "velocity": 1,
          "duration": 0.45000000000000284
        },
        {
          "name": "F2",
          "midi": 41,
          "time": 86.25,
          "velocity": 1,
          "duration": 0.45000000000000284
        },
        {
          "name": "F1",
          "midi": 29,
          "time": 86.8125,
          "velocity": 1,
          "duration": 0.15000000000000568
        },
        {
          "name": "F2",
          "midi": 41,
          "time": 86.8125,
          "velocity": 1,
          "duration": 0.15000000000000568
        },
        {
          "name": "F1",
          "midi": 29,
          "time": 87,
          "velocity": 1,
          "duration": 0.45000000000000284
        },
        {
          "name": "F2",
          "midi": 41,
          "time": 87,
          "velocity": 1,
          "duration": 0.45000000000000284
        },
        {
          "name": "F1",
          "midi": 29,
          "time": 87.5625,
          "velocity": 1,
          "duration": 0.15000000000000568
        },
        {
          "name": "F2",
          "midi": 41,
          "time": 87.5625,
          "velocity": 1,
          "duration": 0.15000000000000568
        },
        {
          "name": "F1",
          "midi": 29,
          "time": 87.75,
          "velocity": 1,
          "duration": 0.45000000000000284
        },
        {
          "name": "F2",
          "midi": 41,
          "time": 87.75,
          "velocity": 1,
          "duration": 0.45000000000000284
        },
        {
          "name": "F2",
          "midi": 41,
          "time": 88.3125,
          "velocity": 1,
          "duration": 0.15000000000000568
        },
        {
          "name": "F1",
          "midi": 29,
          "time": 88.3125,
          "velocity": 1,
          "duration": 0.15000000000000568
        },
        {
          "name": "F2",
          "midi": 41,
          "time": 88.5,
          "velocity": 1,
          "duration": 0.45000000000000284
        },
        {
          "name": "F1",
          "midi": 29,
          "time": 88.5,
          "velocity": 1,
          "duration": 0.45000000000000284
        },
        {
          "name": "F1",
          "midi": 29,
          "time": 89.0625,
          "velocity": 1,
          "duration": 0.15000000000000568
        },
        {
          "name": "F2",
          "midi": 41,
          "time": 89.0625,
          "velocity": 1,
          "duration": 0.15000000000000568
        },
        {
          "name": "F1",
          "midi": 29,
          "time": 89.25,
          "velocity": 1,
          "duration": 0.15000000000000568
        },
        {
          "name": "C2",
          "midi": 36,
          "time": 89.4375,
          "velocity": 1,
          "duration": 0.29999999999999716
        },
        {
          "name": "F1",
          "midi": 29,
          "time": 89.8125,
          "velocity": 1,
          "duration": 0.15000000000000568
        },
        {
          "name": "F1",
          "midi": 29,
          "time": 90,
          "velocity": 1,
          "duration": 0.45000000000000284
        },
        {
          "name": "F2",
          "midi": 41,
          "time": 90,
          "velocity": 1,
          "duration": 0.45000000000000284
        },
        {
          "name": "F1",
          "midi": 29,
          "time": 90.5625,
          "velocity": 1,
          "duration": 0.15000000000000568
        },
        {
          "name": "F2",
          "midi": 41,
          "time": 90.5625,
          "velocity": 1,
          "duration": 0.15000000000000568
        },
        {
          "name": "F2",
          "midi": 41,
          "time": 90.75,
          "velocity": 1,
          "duration": 0.45000000000000284
        },
        {
          "name": "F1",
          "midi": 29,
          "time": 90.75,
          "velocity": 1,
          "duration": 0.45000000000000284
        },
        {
          "name": "F2",
          "midi": 41,
          "time": 91.3125,
          "velocity": 1,
          "duration": 0.15000000000000568
        },
        {
          "name": "F1",
          "midi": 29,
          "time": 91.3125,
          "velocity": 1,
          "duration": 0.15000000000000568
        },
        {
          "name": "F1",
          "midi": 29,
          "time": 91.5,
          "velocity": 1,
          "duration": 0.45000000000000284
        },
        {
          "name": "F2",
          "midi": 41,
          "time": 91.5,
          "velocity": 1,
          "duration": 0.45000000000000284
        },
        {
          "name": "F2",
          "midi": 41,
          "time": 92.0625,
          "velocity": 1,
          "duration": 0.15000000000000568
        },
        {
          "name": "F1",
          "midi": 29,
          "time": 92.0625,
          "velocity": 1,
          "duration": 0.15000000000000568
        },
        {
          "name": "F2",
          "midi": 41,
          "time": 92.25,
          "velocity": 1,
          "duration": 0.45000000000000284
        },
        {
          "name": "F1",
          "midi": 29,
          "time": 92.25,
          "velocity": 1,
          "duration": 0.45000000000000284
        },
        {
          "name": "F1",
          "midi": 29,
          "time": 92.8125,
          "velocity": 1,
          "duration": 0.15000000000000568
        },
        {
          "name": "F2",
          "midi": 41,
          "time": 92.8125,
          "velocity": 1,
          "duration": 0.15000000000000568
        },
        {
          "name": "F1",
          "midi": 29,
          "time": 93,
          "velocity": 1,
          "duration": 0.45000000000000284
        },
        {
          "name": "F2",
          "midi": 41,
          "time": 93,
          "velocity": 1,
          "duration": 0.45000000000000284
        },
        {
          "name": "F2",
          "midi": 41,
          "time": 93.5625,
          "velocity": 1,
          "duration": 0.15000000000000568
        },
        {
          "name": "F1",
          "midi": 29,
          "time": 93.5625,
          "velocity": 1,
          "duration": 0.15000000000000568
        },
        {
          "name": "F2",
          "midi": 41,
          "time": 93.75,
          "velocity": 1,
          "duration": 0.45000000000000284
        },
        {
          "name": "F1",
          "midi": 29,
          "time": 93.75,
          "velocity": 1,
          "duration": 0.45000000000000284
        },
        {
          "name": "F1",
          "midi": 29,
          "time": 94.3125,
          "velocity": 1,
          "duration": 0.15000000000000568
        },
        {
          "name": "F2",
          "midi": 41,
          "time": 94.3125,
          "velocity": 1,
          "duration": 0.15000000000000568
        },
        {
          "name": "C2",
          "midi": 36,
          "time": 94.6875,
          "velocity": 1,
          "duration": 0.29999999999999716
        },
        {
          "name": "C1",
          "midi": 24,
          "time": 94.6875,
          "velocity": 1,
          "duration": 0.29999999999999716
        },
        {
          "name": "C1",
          "midi": 24,
          "time": 95.0625,
          "velocity": 1,
          "duration": 0.15000000000000568
        },
        {
          "name": "C2",
          "midi": 36,
          "time": 95.0625,
          "velocity": 1,
          "duration": 0.15000000000000568
        },
        {
          "name": "F2",
          "midi": 41,
          "time": 95.25,
          "velocity": 1,
          "duration": 0.5999999999999943
        },
        {
          "name": "F1",
          "midi": 29,
          "time": 95.25,
          "velocity": 1,
          "duration": 0.5999999999999943
        },
        {
          "name": "F1",
          "midi": 29,
          "time": 96,
          "velocity": 1,
          "duration": 0.45000000000000284
        },
        {
          "name": "F2",
          "midi": 41,
          "time": 96,
          "velocity": 1,
          "duration": 0.45000000000000284
        },
        {
          "name": "F1",
          "midi": 29,
          "time": 96.5625,
          "velocity": 1,
          "duration": 0.15000000000000568
        },
        {
          "name": "F2",
          "midi": 41,
          "time": 96.5625,
          "velocity": 1,
          "duration": 0.15000000000000568
        },
        {
          "name": "F1",
          "midi": 29,
          "time": 96.75,
          "velocity": 1,
          "duration": 0.45000000000000284
        },
        {
          "name": "F2",
          "midi": 41,
          "time": 96.75,
          "velocity": 1,
          "duration": 0.45000000000000284
        },
        {
          "name": "F1",
          "midi": 29,
          "time": 97.3125,
          "velocity": 1,
          "duration": 0.15000000000000568
        },
        {
          "name": "F2",
          "midi": 41,
          "time": 97.3125,
          "velocity": 1,
          "duration": 0.15000000000000568
        },
        {
          "name": "F2",
          "midi": 41,
          "time": 97.5,
          "velocity": 1,
          "duration": 0.45000000000000284
        },
        {
          "name": "F1",
          "midi": 29,
          "time": 97.5,
          "velocity": 1,
          "duration": 0.45000000000000284
        },
        {
          "name": "F1",
          "midi": 29,
          "time": 98.0625,
          "velocity": 1,
          "duration": 0.15000000000000568
        },
        {
          "name": "F2",
          "midi": 41,
          "time": 98.0625,
          "velocity": 1,
          "duration": 0.15000000000000568
        },
        {
          "name": "A2",
          "midi": 45,
          "time": 98.25,
          "velocity": 1,
          "duration": 0.29999999999999716
        },
        {
          "name": "A1",
          "midi": 33,
          "time": 98.25,
          "velocity": 1,
          "duration": 0.29999999999999716
        },
        {
          "name": "A#2",
          "midi": 46,
          "time": 98.625,
          "velocity": 1,
          "duration": 0.29999999999999716
        },
        {
          "name": "A#1",
          "midi": 34,
          "time": 98.625,
          "velocity": 1,
          "duration": 0.29999999999999716
        },
        {
          "name": "C2",
          "midi": 36,
          "time": 99,
          "velocity": 1,
          "duration": 0.45000000000000284
        },
        {
          "name": "C3",
          "midi": 48,
          "time": 99,
          "velocity": 1,
          "duration": 0.45000000000000284
        },
        {
          "name": "C1",
          "midi": 24,
          "time": 99.5625,
          "velocity": 1,
          "duration": 0.15000000000000568
        },
        {
          "name": "C2",
          "midi": 36,
          "time": 99.5625,
          "velocity": 1,
          "duration": 0.15000000000000568
        },
        {
          "name": "C1",
          "midi": 24,
          "time": 99.75,
          "velocity": 1,
          "duration": 0.45000000000000284
        },
        {
          "name": "C2",
          "midi": 36,
          "time": 99.75,
          "velocity": 1,
          "duration": 0.45000000000000284
        },
        {
          "name": "C1",
          "midi": 24,
          "time": 100.3125,
          "velocity": 1,
          "duration": 0.15000000000000568
        },
        {
          "name": "C2",
          "midi": 36,
          "time": 100.3125,
          "velocity": 1,
          "duration": 0.15000000000000568
        },
        {
          "name": "C1",
          "midi": 24,
          "time": 100.5,
          "velocity": 1,
          "duration": 0.45000000000000284
        },
        {
          "name": "C2",
          "midi": 36,
          "time": 100.5,
          "velocity": 1,
          "duration": 0.45000000000000284
        },
        {
          "name": "C2",
          "midi": 36,
          "time": 101.0625,
          "velocity": 1,
          "duration": 0.15000000000000568
        },
        {
          "name": "C1",
          "midi": 24,
          "time": 101.0625,
          "velocity": 1,
          "duration": 0.15000000000000568
        },
        {
          "name": "C1",
          "midi": 24,
          "time": 101.25,
          "velocity": 1,
          "duration": 0.29999999999999716
        },
        {
          "name": "C2",
          "midi": 36,
          "time": 101.25,
          "velocity": 1,
          "duration": 0.29999999999999716
        },
        {
          "name": "C1",
          "midi": 24,
          "time": 101.625,
          "velocity": 1,
          "duration": 0.29999999999999716
        },
        {
          "name": "C2",
          "midi": 36,
          "time": 101.625,
          "velocity": 1,
          "duration": 0.29999999999999716
        },
        {
          "name": "F2",
          "midi": 41,
          "time": 102,
          "velocity": 1,
          "duration": 0.45000000000000284
        },
        {
          "name": "F1",
          "midi": 29,
          "time": 102,
          "velocity": 1,
          "duration": 0.45000000000000284
        },
        {
          "name": "F2",
          "midi": 41,
          "time": 102.5625,
          "velocity": 1,
          "duration": 0.15000000000000568
        },
        {
          "name": "F1",
          "midi": 29,
          "time": 102.5625,
          "velocity": 1,
          "duration": 0.15000000000000568
        },
        {
          "name": "F2",
          "midi": 41,
          "time": 102.75,
          "velocity": 1,
          "duration": 0.29999999999999716
        },
        {
          "name": "F1",
          "midi": 29,
          "time": 102.75,
          "velocity": 1,
          "duration": 0.29999999999999716
        },
        {
          "name": "A#1",
          "midi": 34,
          "time": 103.125,
          "velocity": 1,
          "duration": 0.29999999999999716
        },
        {
          "name": "A#0",
          "midi": 22,
          "time": 103.125,
          "velocity": 1,
          "duration": 0.29999999999999716
        },
        {
          "name": "A1",
          "midi": 33,
          "time": 103.5,
          "velocity": 1,
          "duration": 0.29999999999999716
        },
        {
          "name": "A0",
          "midi": 21,
          "time": 103.5,
          "velocity": 1,
          "duration": 0.29999999999999716
        },
        {
          "name": "A1",
          "midi": 33,
          "time": 104.0625,
          "velocity": 1,
          "duration": 0.15000000000000568
        },
        {
          "name": "A0",
          "midi": 21,
          "time": 104.0625,
          "velocity": 1,
          "duration": 0.15000000000000568
        },
        {
          "name": "A0",
          "midi": 21,
          "time": 104.25,
          "velocity": 1,
          "duration": 0.29999999999999716
        },
        {
          "name": "A1",
          "midi": 33,
          "time": 104.25,
          "velocity": 1,
          "duration": 0.29999999999999716
        },
        {
          "name": "A#0",
          "midi": 22,
          "time": 104.625,
          "velocity": 1,
          "duration": 0.29999999999999716
        },
        {
          "name": "A#1",
          "midi": 34,
          "time": 104.625,
          "velocity": 1,
          "duration": 0.29999999999999716
        },
        {
          "name": "C2",
          "midi": 36,
          "time": 105,
          "velocity": 1,
          "duration": 0.45000000000000284
        },
        {
          "name": "C1",
          "midi": 24,
          "time": 105,
          "velocity": 1,
          "duration": 0.45000000000000284
        },
        {
          "name": "C2",
          "midi": 36,
          "time": 105.5625,
          "velocity": 1,
          "duration": 0.15000000000000568
        },
        {
          "name": "C1",
          "midi": 24,
          "time": 105.5625,
          "velocity": 1,
          "duration": 0.15000000000000568
        },
        {
          "name": "C1",
          "midi": 24,
          "time": 105.75,
          "velocity": 1,
          "duration": 0.45000000000000284
        },
        {
          "name": "C2",
          "midi": 36,
          "time": 105.75,
          "velocity": 1,
          "duration": 0.45000000000000284
        },
        {
          "name": "C1",
          "midi": 24,
          "time": 106.3125,
          "velocity": 1,
          "duration": 0.15000000000000568
        },
        {
          "name": "C2",
          "midi": 36,
          "time": 106.3125,
          "velocity": 1,
          "duration": 0.15000000000000568
        },
        {
          "name": "C2",
          "midi": 36,
          "time": 106.5,
          "velocity": 1,
          "duration": 0.45000000000000284
        },
        {
          "name": "C1",
          "midi": 24,
          "time": 106.5,
          "velocity": 1,
          "duration": 0.45000000000000284
        },
        {
          "name": "C1",
          "midi": 24,
          "time": 107.0625,
          "velocity": 1,
          "duration": 0.15000000000000568
        },
        {
          "name": "C2",
          "midi": 36,
          "time": 107.0625,
          "velocity": 1,
          "duration": 0.15000000000000568
        },
        {
          "name": "C1",
          "midi": 24,
          "time": 107.25,
          "velocity": 1,
          "duration": 0.45000000000000284
        },
        {
          "name": "C2",
          "midi": 36,
          "time": 107.25,
          "velocity": 1,
          "duration": 0.45000000000000284
        },
        {
          "name": "C1",
          "midi": 24,
          "time": 107.8125,
          "velocity": 1,
          "duration": 0.15000000000000568
        },
        {
          "name": "C2",
          "midi": 36,
          "time": 107.8125,
          "velocity": 1,
          "duration": 0.15000000000000568
        },
        {
          "name": "C1",
          "midi": 24,
          "time": 108,
          "velocity": 1,
          "duration": 0.45000000000000284
        },
        {
          "name": "C2",
          "midi": 36,
          "time": 108,
          "velocity": 1,
          "duration": 0.45000000000000284
        },
        {
          "name": "C2",
          "midi": 36,
          "time": 108.5625,
          "velocity": 1,
          "duration": 0.15000000000000568
        },
        {
          "name": "C1",
          "midi": 24,
          "time": 108.5625,
          "velocity": 1,
          "duration": 0.15000000000000568
        },
        {
          "name": "C1",
          "midi": 24,
          "time": 108.75,
          "velocity": 1,
          "duration": 0.45000000000000284
        },
        {
          "name": "C2",
          "midi": 36,
          "time": 108.75,
          "velocity": 1,
          "duration": 0.45000000000000284
        },
        {
          "name": "C2",
          "midi": 36,
          "time": 109.3125,
          "velocity": 1,
          "duration": 0.15000000000000568
        },
        {
          "name": "C1",
          "midi": 24,
          "time": 109.3125,
          "velocity": 1,
          "duration": 0.15000000000000568
        },
        {
          "name": "C1",
          "midi": 24,
          "time": 109.5,
          "velocity": 1,
          "duration": 0.45000000000000284
        },
        {
          "name": "C2",
          "midi": 36,
          "time": 109.5,
          "velocity": 1,
          "duration": 0.45000000000000284
        },
        {
          "name": "C1",
          "midi": 24,
          "time": 110.0625,
          "velocity": 1,
          "duration": 0.15000000000000568
        },
        {
          "name": "C2",
          "midi": 36,
          "time": 110.0625,
          "velocity": 1,
          "duration": 0.15000000000000568
        },
        {
          "name": "C2",
          "midi": 36,
          "time": 110.25,
          "velocity": 1,
          "duration": 0.29999999999999716
        },
        {
          "name": "C1",
          "midi": 24,
          "time": 110.25,
          "velocity": 1,
          "duration": 0.29999999999999716
        },
        {
          "name": "G1",
          "midi": 31,
          "time": 110.625,
          "velocity": 1,
          "duration": 0.15000000000000568
        },
        {
          "name": "G1",
          "midi": 31,
          "time": 110.8125,
          "velocity": 1,
          "duration": 0.15000000000000568
        },
        {
          "name": "C1",
          "midi": 24,
          "time": 111,
          "velocity": 1,
          "duration": 0.45000000000000284
        },
        {
          "name": "C2",
          "midi": 36,
          "time": 111,
          "velocity": 1,
          "duration": 0.45000000000000284
        },
        {
          "name": "C1",
          "midi": 24,
          "time": 111.5625,
          "velocity": 1,
          "duration": 0.15000000000000568
        },
        {
          "name": "C2",
          "midi": 36,
          "time": 111.5625,
          "velocity": 1,
          "duration": 0.15000000000000568
        },
        {
          "name": "C2",
          "midi": 36,
          "time": 111.75,
          "velocity": 1,
          "duration": 0.45000000000000284
        },
        {
          "name": "C1",
          "midi": 24,
          "time": 111.75,
          "velocity": 1,
          "duration": 0.45000000000000284
        },
        {
          "name": "C2",
          "midi": 36,
          "time": 112.3125,
          "velocity": 1,
          "duration": 0.15000000000000568
        },
        {
          "name": "C1",
          "midi": 24,
          "time": 112.3125,
          "velocity": 1,
          "duration": 0.15000000000000568
        },
        {
          "name": "C1",
          "midi": 24,
          "time": 112.5,
          "velocity": 1,
          "duration": 0.45000000000000284
        },
        {
          "name": "C2",
          "midi": 36,
          "time": 112.5,
          "velocity": 1,
          "duration": 0.45000000000000284
        },
        {
          "name": "C1",
          "midi": 24,
          "time": 113.0625,
          "velocity": 1,
          "duration": 0.15000000000000568
        },
        {
          "name": "C2",
          "midi": 36,
          "time": 113.0625,
          "velocity": 1,
          "duration": 0.15000000000000568
        },
        {
          "name": "C2",
          "midi": 36,
          "time": 113.25,
          "velocity": 1,
          "duration": 0.29999999999999716
        },
        {
          "name": "C1",
          "midi": 24,
          "time": 113.25,
          "velocity": 1,
          "duration": 0.29999999999999716
        },
        {
          "name": "G1",
          "midi": 31,
          "time": 113.625,
          "velocity": 1,
          "duration": 0.15000000000000568
        },
        {
          "name": "G1",
          "midi": 31,
          "time": 113.8125,
          "velocity": 1,
          "duration": 0.15000000000000568
        },
        {
          "name": "C2",
          "midi": 36,
          "time": 114,
          "velocity": 1,
          "duration": 0.45000000000000284
        },
        {
          "name": "C1",
          "midi": 24,
          "time": 114,
          "velocity": 1,
          "duration": 0.45000000000000284
        },
        {
          "name": "C1",
          "midi": 24,
          "time": 114.5625,
          "velocity": 1,
          "duration": 0.15000000000000568
        },
        {
          "name": "C2",
          "midi": 36,
          "time": 114.5625,
          "velocity": 1,
          "duration": 0.15000000000000568
        },
        {
          "name": "C2",
          "midi": 36,
          "time": 114.75,
          "velocity": 1,
          "duration": 0.45000000000000284
        },
        {
          "name": "C1",
          "midi": 24,
          "time": 114.75,
          "velocity": 1,
          "duration": 0.45000000000000284
        },
        {
          "name": "C2",
          "midi": 36,
          "time": 115.3125,
          "velocity": 1,
          "duration": 0.15000000000000568
        },
        {
          "name": "C1",
          "midi": 24,
          "time": 115.3125,
          "velocity": 1,
          "duration": 0.15000000000000568
        },
        {
          "name": "C2",
          "midi": 36,
          "time": 115.5,
          "velocity": 1,
          "duration": 0.45000000000000284
        },
        {
          "name": "C1",
          "midi": 24,
          "time": 115.5,
          "velocity": 1,
          "duration": 0.45000000000000284
        },
        {
          "name": "C1",
          "midi": 24,
          "time": 116.0625,
          "velocity": 1,
          "duration": 0.15000000000000568
        },
        {
          "name": "C2",
          "midi": 36,
          "time": 116.0625,
          "velocity": 1,
          "duration": 0.15000000000000568
        },
        {
          "name": "C2",
          "midi": 36,
          "time": 116.25,
          "velocity": 1,
          "duration": 0.15000000000000568
        },
        {
          "name": "C1",
          "midi": 24,
          "time": 116.25,
          "velocity": 1,
          "duration": 0.15000000000000568
        },
        {
          "name": "A#1",
          "midi": 34,
          "time": 116.4375,
          "velocity": 1,
          "duration": 0.15000000000000568
        },
        {
          "name": "A1",
          "midi": 33,
          "time": 116.625,
          "velocity": 1,
          "duration": 0.15000000000000568
        },
        {
          "name": "G1",
          "midi": 31,
          "time": 116.8125,
          "velocity": 1,
          "duration": 0.15000000000000568
        },
        {
          "name": "F2",
          "midi": 41,
          "time": 117,
          "velocity": 1,
          "duration": 0.45000000000000284
        },
        {
          "name": "F1",
          "midi": 29,
          "time": 117,
          "velocity": 1,
          "duration": 0.45000000000000284
        },
        {
          "name": "F1",
          "midi": 29,
          "time": 117.5625,
          "velocity": 1,
          "duration": 0.15000000000000568
        },
        {
          "name": "F2",
          "midi": 41,
          "time": 117.5625,
          "velocity": 1,
          "duration": 0.15000000000000568
        },
        {
          "name": "F1",
          "midi": 29,
          "time": 117.75,
          "velocity": 1,
          "duration": 0.45000000000000284
        },
        {
          "name": "F2",
          "midi": 41,
          "time": 117.75,
          "velocity": 1,
          "duration": 0.45000000000000284
        },
        {
          "name": "F1",
          "midi": 29,
          "time": 118.3125,
          "velocity": 1,
          "duration": 0.15000000000000568
        },
        {
          "name": "F2",
          "midi": 41,
          "time": 118.3125,
          "velocity": 1,
          "duration": 0.15000000000000568
        },
        {
          "name": "F2",
          "midi": 41,
          "time": 118.5,
          "velocity": 1,
          "duration": 0.45000000000000284
        },
        {
          "name": "F1",
          "midi": 29,
          "time": 118.5,
          "velocity": 1,
          "duration": 0.45000000000000284
        },
        {
          "name": "F1",
          "midi": 29,
          "time": 119.0625,
          "velocity": 1,
          "duration": 0.15000000000000568
        },
        {
          "name": "F2",
          "midi": 41,
          "time": 119.0625,
          "velocity": 1,
          "duration": 0.15000000000000568
        },
        {
          "name": "F2",
          "midi": 41,
          "time": 119.25,
          "velocity": 1,
          "duration": 0.45000000000000284
        },
        {
          "name": "F1",
          "midi": 29,
          "time": 119.25,
          "velocity": 1,
          "duration": 0.45000000000000284
        },
        {
          "name": "F1",
          "midi": 29,
          "time": 119.8125,
          "velocity": 1,
          "duration": 0.15000000000000568
        },
        {
          "name": "F2",
          "midi": 41,
          "time": 119.8125,
          "velocity": 1,
          "duration": 0.15000000000000568
        },
        {
          "name": "F2",
          "midi": 41,
          "time": 120,
          "velocity": 1,
          "duration": 0.45000000000000284
        },
        {
          "name": "F1",
          "midi": 29,
          "time": 120,
          "velocity": 1,
          "duration": 0.45000000000000284
        },
        {
          "name": "F1",
          "midi": 29,
          "time": 120.5625,
          "velocity": 1,
          "duration": 0.15000000000000568
        },
        {
          "name": "F2",
          "midi": 41,
          "time": 120.5625,
          "velocity": 1,
          "duration": 0.15000000000000568
        },
        {
          "name": "F2",
          "midi": 41,
          "time": 120.75,
          "velocity": 1,
          "duration": 0.45000000000000284
        },
        {
          "name": "F1",
          "midi": 29,
          "time": 120.75,
          "velocity": 1,
          "duration": 0.45000000000000284
        },
        {
          "name": "F2",
          "midi": 41,
          "time": 121.3125,
          "velocity": 1,
          "duration": 0.15000000000000568
        },
        {
          "name": "F1",
          "midi": 29,
          "time": 121.3125,
          "velocity": 1,
          "duration": 0.15000000000000568
        },
        {
          "name": "F1",
          "midi": 29,
          "time": 121.5,
          "velocity": 1,
          "duration": 0.45000000000000284
        },
        {
          "name": "F2",
          "midi": 41,
          "time": 121.5,
          "velocity": 1,
          "duration": 0.45000000000000284
        },
        {
          "name": "F1",
          "midi": 29,
          "time": 122.0625,
          "velocity": 1,
          "duration": 0.15000000000000568
        },
        {
          "name": "F2",
          "midi": 41,
          "time": 122.0625,
          "velocity": 1,
          "duration": 0.15000000000000568
        },
        {
          "name": "F1",
          "midi": 29,
          "time": 122.25,
          "velocity": 1,
          "duration": 0.15000000000000568
        },
        {
          "name": "C2",
          "midi": 36,
          "time": 122.4375,
          "velocity": 1,
          "duration": 0.29999999999999716
        },
        {
          "name": "F1",
          "midi": 29,
          "time": 122.8125,
          "velocity": 1,
          "duration": 0.15000000000000568
        },
        {
          "name": "F1",
          "midi": 29,
          "time": 123,
          "velocity": 1,
          "duration": 0.45000000000000284
        },
        {
          "name": "F2",
          "midi": 41,
          "time": 123,
          "velocity": 1,
          "duration": 0.45000000000000284
        },
        {
          "name": "F1",
          "midi": 29,
          "time": 123.5625,
          "velocity": 1,
          "duration": 0.15000000000000568
        },
        {
          "name": "F2",
          "midi": 41,
          "time": 123.5625,
          "velocity": 1,
          "duration": 0.15000000000000568
        },
        {
          "name": "F2",
          "midi": 41,
          "time": 123.75,
          "velocity": 1,
          "duration": 0.45000000000000284
        },
        {
          "name": "F1",
          "midi": 29,
          "time": 123.75,
          "velocity": 1,
          "duration": 0.45000000000000284
        },
        {
          "name": "F1",
          "midi": 29,
          "time": 124.3125,
          "velocity": 1,
          "duration": 0.15000000000000568
        },
        {
          "name": "F2",
          "midi": 41,
          "time": 124.3125,
          "velocity": 1,
          "duration": 0.15000000000000568
        },
        {
          "name": "F1",
          "midi": 29,
          "time": 124.5,
          "velocity": 1,
          "duration": 0.45000000000000284
        },
        {
          "name": "F2",
          "midi": 41,
          "time": 124.5,
          "velocity": 1,
          "duration": 0.45000000000000284
        },
        {
          "name": "F1",
          "midi": 29,
          "time": 125.0625,
          "velocity": 1,
          "duration": 0.15000000000000568
        },
        {
          "name": "F2",
          "midi": 41,
          "time": 125.0625,
          "velocity": 1,
          "duration": 0.15000000000000568
        },
        {
          "name": "F1",
          "midi": 29,
          "time": 125.25,
          "velocity": 1,
          "duration": 0.45000000000000284
        },
        {
          "name": "F2",
          "midi": 41,
          "time": 125.25,
          "velocity": 1,
          "duration": 0.45000000000000284
        },
        {
          "name": "F1",
          "midi": 29,
          "time": 125.8125,
          "velocity": 1,
          "duration": 0.15000000000000568
        },
        {
          "name": "F2",
          "midi": 41,
          "time": 125.8125,
          "velocity": 1,
          "duration": 0.15000000000000568
        },
        {
          "name": "F1",
          "midi": 29,
          "time": 126,
          "velocity": 1,
          "duration": 0.45000000000000284
        },
        {
          "name": "F2",
          "midi": 41,
          "time": 126,
          "velocity": 1,
          "duration": 0.45000000000000284
        },
        {
          "name": "F1",
          "midi": 29,
          "time": 126.5625,
          "velocity": 1,
          "duration": 0.15000000000000568
        },
        {
          "name": "F2",
          "midi": 41,
          "time": 126.5625,
          "velocity": 1,
          "duration": 0.15000000000000568
        },
        {
          "name": "F2",
          "midi": 41,
          "time": 126.75,
          "velocity": 1,
          "duration": 0.45000000000000284
        },
        {
          "name": "F1",
          "midi": 29,
          "time": 126.75,
          "velocity": 1,
          "duration": 0.45000000000000284
        },
        {
          "name": "F1",
          "midi": 29,
          "time": 127.3125,
          "velocity": 1,
          "duration": 0.15000000000000568
        },
        {
          "name": "F2",
          "midi": 41,
          "time": 127.3125,
          "velocity": 1,
          "duration": 0.15000000000000568
        },
        {
          "name": "F1",
          "midi": 29,
          "time": 127.5,
          "velocity": 1,
          "duration": 0.45000000000000284
        },
        {
          "name": "F2",
          "midi": 41,
          "time": 127.5,
          "velocity": 1,
          "duration": 0.45000000000000284
        },
        {
          "name": "F1",
          "midi": 29,
          "time": 128.0625,
          "velocity": 1,
          "duration": 0.15000000000000568
        },
        {
          "name": "F2",
          "midi": 41,
          "time": 128.0625,
          "velocity": 1,
          "duration": 0.15000000000000568
        },
        {
          "name": "F1",
          "midi": 29,
          "time": 128.25,
          "velocity": 1,
          "duration": 0.15000000000000568
        },
        {
          "name": "C2",
          "midi": 36,
          "time": 128.4375,
          "velocity": 1,
          "duration": 0.30000000000001137
        },
        {
          "name": "F1",
          "midi": 29,
          "time": 128.8125,
          "velocity": 1,
          "duration": 0.15000000000000568
        },
        {
          "name": "F1",
          "midi": 29,
          "time": 129,
          "velocity": 1,
          "duration": 0.44999999999998863
        },
        {
          "name": "F2",
          "midi": 41,
          "time": 129,
          "velocity": 1,
          "duration": 0.44999999999998863
        },
        {
          "name": "F1",
          "midi": 29,
          "time": 129.5625,
          "velocity": 1,
          "duration": 0.15000000000000568
        },
        {
          "name": "F2",
          "midi": 41,
          "time": 129.5625,
          "velocity": 1,
          "duration": 0.15000000000000568
        },
        {
          "name": "F2",
          "midi": 41,
          "time": 129.75,
          "velocity": 1,
          "duration": 0.44999999999998863
        },
        {
          "name": "F1",
          "midi": 29,
          "time": 129.75,
          "velocity": 1,
          "duration": 0.44999999999998863
        },
        {
          "name": "F2",
          "midi": 41,
          "time": 130.3125,
          "velocity": 1,
          "duration": 0.15000000000000568
        },
        {
          "name": "F1",
          "midi": 29,
          "time": 130.3125,
          "velocity": 1,
          "duration": 0.15000000000000568
        },
        {
          "name": "F1",
          "midi": 29,
          "time": 130.5,
          "velocity": 1,
          "duration": 0.44999999999998863
        },
        {
          "name": "F2",
          "midi": 41,
          "time": 130.5,
          "velocity": 1,
          "duration": 0.44999999999998863
        },
        {
          "name": "F1",
          "midi": 29,
          "time": 131.0625,
          "velocity": 1,
          "duration": 0.15000000000000568
        },
        {
          "name": "F2",
          "midi": 41,
          "time": 131.0625,
          "velocity": 1,
          "duration": 0.15000000000000568
        },
        {
          "name": "F1",
          "midi": 29,
          "time": 131.25,
          "velocity": 1,
          "duration": 0.44999999999998863
        },
        {
          "name": "F2",
          "midi": 41,
          "time": 131.25,
          "velocity": 1,
          "duration": 0.44999999999998863
        },
        {
          "name": "F2",
          "midi": 41,
          "time": 131.8125,
          "velocity": 1,
          "duration": 0.15000000000000568
        },
        {
          "name": "F1",
          "midi": 29,
          "time": 131.8125,
          "velocity": 1,
          "duration": 0.15000000000000568
        },
        {
          "name": "F1",
          "midi": 29,
          "time": 132,
          "velocity": 1,
          "duration": 0.44999999999998863
        },
        {
          "name": "F2",
          "midi": 41,
          "time": 132,
          "velocity": 1,
          "duration": 0.44999999999998863
        },
        {
          "name": "F1",
          "midi": 29,
          "time": 132.5625,
          "velocity": 1,
          "duration": 0.15000000000000568
        },
        {
          "name": "F2",
          "midi": 41,
          "time": 132.5625,
          "velocity": 1,
          "duration": 0.15000000000000568
        },
        {
          "name": "F1",
          "midi": 29,
          "time": 132.75,
          "velocity": 1,
          "duration": 0.44999999999998863
        },
        {
          "name": "F2",
          "midi": 41,
          "time": 132.75,
          "velocity": 1,
          "duration": 0.44999999999998863
        },
        {
          "name": "F2",
          "midi": 41,
          "time": 133.3125,
          "velocity": 1,
          "duration": 0.15000000000000568
        },
        {
          "name": "F1",
          "midi": 29,
          "time": 133.3125,
          "velocity": 1,
          "duration": 0.15000000000000568
        },
        {
          "name": "F2",
          "midi": 41,
          "time": 133.5,
          "velocity": 1,
          "duration": 0.44999999999998863
        },
        {
          "name": "F1",
          "midi": 29,
          "time": 133.5,
          "velocity": 1,
          "duration": 0.44999999999998863
        },
        {
          "name": "F2",
          "midi": 41,
          "time": 134.0625,
          "velocity": 1,
          "duration": 0.15000000000000568
        },
        {
          "name": "F1",
          "midi": 29,
          "time": 134.0625,
          "velocity": 1,
          "duration": 0.15000000000000568
        },
        {
          "name": "F1",
          "midi": 29,
          "time": 134.25,
          "velocity": 1,
          "duration": 0.15000000000000568
        },
        {
          "name": "C2",
          "midi": 36,
          "time": 134.4375,
          "velocity": 1,
          "duration": 0.30000000000001137
        },
        {
          "name": "F1",
          "midi": 29,
          "time": 134.8125,
          "velocity": 1,
          "duration": 0.15000000000000568
        },
        {
          "name": "F1",
          "midi": 29,
          "time": 135,
          "velocity": 1,
          "duration": 0.44999999999998863
        },
        {
          "name": "F2",
          "midi": 41,
          "time": 135,
          "velocity": 1,
          "duration": 0.44999999999998863
        },
        {
          "name": "F1",
          "midi": 29,
          "time": 135.5625,
          "velocity": 1,
          "duration": 0.15000000000000568
        },
        {
          "name": "F2",
          "midi": 41,
          "time": 135.5625,
          "velocity": 1,
          "duration": 0.15000000000000568
        },
        {
          "name": "F2",
          "midi": 41,
          "time": 135.75,
          "velocity": 1,
          "duration": 0.44999999999998863
        },
        {
          "name": "F1",
          "midi": 29,
          "time": 135.75,
          "velocity": 1,
          "duration": 0.44999999999998863
        },
        {
          "name": "F1",
          "midi": 29,
          "time": 136.3125,
          "velocity": 1,
          "duration": 0.15000000000000568
        },
        {
          "name": "F2",
          "midi": 41,
          "time": 136.3125,
          "velocity": 1,
          "duration": 0.15000000000000568
        },
        {
          "name": "F1",
          "midi": 29,
          "time": 136.5,
          "velocity": 1,
          "duration": 0.44999999999998863
        },
        {
          "name": "F2",
          "midi": 41,
          "time": 136.5,
          "velocity": 1,
          "duration": 0.44999999999998863
        },
        {
          "name": "F2",
          "midi": 41,
          "time": 137.0625,
          "velocity": 1,
          "duration": 0.15000000000000568
        },
        {
          "name": "F1",
          "midi": 29,
          "time": 137.0625,
          "velocity": 1,
          "duration": 0.15000000000000568
        },
        {
          "name": "F1",
          "midi": 29,
          "time": 137.25,
          "velocity": 1,
          "duration": 0.44999999999998863
        },
        {
          "name": "F2",
          "midi": 41,
          "time": 137.25,
          "velocity": 1,
          "duration": 0.44999999999998863
        },
        {
          "name": "F1",
          "midi": 29,
          "time": 137.8125,
          "velocity": 1,
          "duration": 0.15000000000000568
        },
        {
          "name": "F2",
          "midi": 41,
          "time": 137.8125,
          "velocity": 1,
          "duration": 0.15000000000000568
        },
        {
          "name": "F1",
          "midi": 29,
          "time": 138,
          "velocity": 1,
          "duration": 0.44999999999998863
        },
        {
          "name": "F2",
          "midi": 41,
          "time": 138,
          "velocity": 1,
          "duration": 0.44999999999998863
        },
        {
          "name": "F1",
          "midi": 29,
          "time": 138.5625,
          "velocity": 1,
          "duration": 0.15000000000000568
        },
        {
          "name": "F2",
          "midi": 41,
          "time": 138.5625,
          "velocity": 1,
          "duration": 0.15000000000000568
        },
        {
          "name": "F2",
          "midi": 41,
          "time": 138.75,
          "velocity": 1,
          "duration": 0.44999999999998863
        },
        {
          "name": "F1",
          "midi": 29,
          "time": 138.75,
          "velocity": 1,
          "duration": 0.44999999999998863
        },
        {
          "name": "F1",
          "midi": 29,
          "time": 139.3125,
          "velocity": 1,
          "duration": 0.15000000000000568
        },
        {
          "name": "F2",
          "midi": 41,
          "time": 139.3125,
          "velocity": 1,
          "duration": 0.15000000000000568
        },
        {
          "name": "F2",
          "midi": 41,
          "time": 139.5,
          "velocity": 1,
          "duration": 0.44999999999998863
        },
        {
          "name": "F1",
          "midi": 29,
          "time": 139.5,
          "velocity": 1,
          "duration": 0.44999999999998863
        },
        {
          "name": "F2",
          "midi": 41,
          "time": 140.0625,
          "velocity": 1,
          "duration": 0.15000000000000568
        },
        {
          "name": "F1",
          "midi": 29,
          "time": 140.0625,
          "velocity": 1,
          "duration": 0.15000000000000568
        },
        {
          "name": "F1",
          "midi": 29,
          "time": 140.25,
          "velocity": 1,
          "duration": 0.15000000000000568
        },
        {
          "name": "C2",
          "midi": 36,
          "time": 140.4375,
          "velocity": 1,
          "duration": 0.30000000000001137
        },
        {
          "name": "F1",
          "midi": 29,
          "time": 140.8125,
          "velocity": 1,
          "duration": 0.15000000000000568
        },
        {
          "name": "G#1",
          "midi": 32,
          "time": 141,
          "velocity": 1,
          "duration": 0.44999999999998863
        },
        {
          "name": "G#1",
          "midi": 32,
          "time": 141.5625,
          "velocity": 1,
          "duration": 0.15000000000000568
        },
        {
          "name": "G#1",
          "midi": 32,
          "time": 141.75,
          "velocity": 1,
          "duration": 0.44999999999998863
        },
        {
          "name": "G#1",
          "midi": 32,
          "time": 142.3125,
          "velocity": 1,
          "duration": 0.15000000000000568
        },
        {
          "name": "G#1",
          "midi": 32,
          "time": 142.5,
          "velocity": 1,
          "duration": 0.44999999999998863
        },
        {
          "name": "G#1",
          "midi": 32,
          "time": 143.0625,
          "velocity": 1,
          "duration": 0.15000000000000568
        },
        {
          "name": "G#1",
          "midi": 32,
          "time": 143.25,
          "velocity": 1,
          "duration": 0.44999999999998863
        },
        {
          "name": "G#1",
          "midi": 32,
          "time": 143.8125,
          "velocity": 1,
          "duration": 0.15000000000000568
        },
        {
          "name": "G#1",
          "midi": 32,
          "time": 144,
          "velocity": 1,
          "duration": 0.44999999999998863
        },
        {
          "name": "G#1",
          "midi": 32,
          "time": 144.5625,
          "velocity": 1,
          "duration": 0.15000000000000568
        },
        {
          "name": "G#1",
          "midi": 32,
          "time": 144.75,
          "velocity": 1,
          "duration": 0.44999999999998863
        },
        {
          "name": "G#1",
          "midi": 32,
          "time": 145.3125,
          "velocity": 1,
          "duration": 0.15000000000000568
        },
        {
          "name": "G#1",
          "midi": 32,
          "time": 145.5,
          "velocity": 1,
          "duration": 0.44999999999998863
        },
        {
          "name": "G#1",
          "midi": 32,
          "time": 146.0625,
          "velocity": 1,
          "duration": 0.15000000000000568
        },
        {
          "name": "G#1",
          "midi": 32,
          "time": 146.25,
          "velocity": 1,
          "duration": 0.15000000000000568
        },
        {
          "name": "D#2",
          "midi": 39,
          "time": 146.4375,
          "velocity": 1,
          "duration": 0.30000000000001137
        },
        {
          "name": "G#1",
          "midi": 32,
          "time": 146.8125,
          "velocity": 1,
          "duration": 0.15000000000000568
        },
        {
          "name": "G#1",
          "midi": 32,
          "time": 147,
          "velocity": 1,
          "duration": 0.44999999999998863
        },
        {
          "name": "G#1",
          "midi": 32,
          "time": 147.5625,
          "velocity": 1,
          "duration": 0.15000000000000568
        },
        {
          "name": "G#1",
          "midi": 32,
          "time": 147.75,
          "velocity": 1,
          "duration": 0.44999999999998863
        },
        {
          "name": "G#1",
          "midi": 32,
          "time": 148.3125,
          "velocity": 1,
          "duration": 0.15000000000000568
        },
        {
          "name": "G#1",
          "midi": 32,
          "time": 148.5,
          "velocity": 1,
          "duration": 0.44999999999998863
        },
        {
          "name": "G#1",
          "midi": 32,
          "time": 149.0625,
          "velocity": 1,
          "duration": 0.15000000000000568
        },
        {
          "name": "G#1",
          "midi": 32,
          "time": 149.25,
          "velocity": 1,
          "duration": 0.44999999999998863
        },
        {
          "name": "G#1",
          "midi": 32,
          "time": 149.8125,
          "velocity": 1,
          "duration": 0.15000000000000568
        },
        {
          "name": "G#1",
          "midi": 32,
          "time": 150,
          "velocity": 1,
          "duration": 0.44999999999998863
        },
        {
          "name": "G#1",
          "midi": 32,
          "time": 150.5625,
          "velocity": 1,
          "duration": 0.15000000000000568
        },
        {
          "name": "G#1",
          "midi": 32,
          "time": 150.75,
          "velocity": 1,
          "duration": 0.44999999999998863
        },
        {
          "name": "G#1",
          "midi": 32,
          "time": 151.3125,
          "velocity": 1,
          "duration": 0.15000000000000568
        },
        {
          "name": "G#1",
          "midi": 32,
          "time": 151.5,
          "velocity": 1,
          "duration": 0.44999999999998863
        },
        {
          "name": "G#1",
          "midi": 32,
          "time": 152.0625,
          "velocity": 1,
          "duration": 0.15000000000000568
        },
        {
          "name": "G#1",
          "midi": 32,
          "time": 152.25,
          "velocity": 1,
          "duration": 0.15000000000000568
        },
        {
          "name": "D#2",
          "midi": 39,
          "time": 152.4375,
          "velocity": 1,
          "duration": 0.30000000000001137
        },
        {
          "name": "G#1",
          "midi": 32,
          "time": 152.8125,
          "velocity": 1,
          "duration": 0.15000000000000568
        },
        {
          "name": "G#1",
          "midi": 32,
          "time": 153,
          "velocity": 1,
          "duration": 0.44999999999998863
        },
        {
          "name": "G#1",
          "midi": 32,
          "time": 153.5625,
          "velocity": 1,
          "duration": 0.15000000000000568
        },
        {
          "name": "G#1",
          "midi": 32,
          "time": 153.75,
          "velocity": 1,
          "duration": 0.44999999999998863
        },
        {
          "name": "G#1",
          "midi": 32,
          "time": 154.3125,
          "velocity": 1,
          "duration": 0.15000000000000568
        },
        {
          "name": "G#1",
          "midi": 32,
          "time": 154.5,
          "velocity": 1,
          "duration": 0.44999999999998863
        },
        {
          "name": "G#1",
          "midi": 32,
          "time": 155.0625,
          "velocity": 1,
          "duration": 0.15000000000000568
        },
        {
          "name": "G#1",
          "midi": 32,
          "time": 155.25,
          "velocity": 1,
          "duration": 0.44999999999998863
        },
        {
          "name": "G#1",
          "midi": 32,
          "time": 155.8125,
          "velocity": 1,
          "duration": 0.15000000000000568
        },
        {
          "name": "G#1",
          "midi": 32,
          "time": 156,
          "velocity": 1,
          "duration": 0.44999999999998863
        },
        {
          "name": "G#1",
          "midi": 32,
          "time": 156.5625,
          "velocity": 1,
          "duration": 0.15000000000000568
        },
        {
          "name": "G#1",
          "midi": 32,
          "time": 156.75,
          "velocity": 1,
          "duration": 0.44999999999998863
        },
        {
          "name": "G#1",
          "midi": 32,
          "time": 157.3125,
          "velocity": 1,
          "duration": 0.15000000000000568
        },
        {
          "name": "G#1",
          "midi": 32,
          "time": 157.5,
          "velocity": 1,
          "duration": 0.44999999999998863
        },
        {
          "name": "G#1",
          "midi": 32,
          "time": 158.0625,
          "velocity": 1,
          "duration": 0.15000000000000568
        },
        {
          "name": "G#1",
          "midi": 32,
          "time": 158.25,
          "velocity": 1,
          "duration": 0.15000000000000568
        },
        {
          "name": "D#2",
          "midi": 39,
          "time": 158.4375,
          "velocity": 1,
          "duration": 0.30000000000001137
        },
        {
          "name": "G#1",
          "midi": 32,
          "time": 158.8125,
          "velocity": 1,
          "duration": 0.15000000000000568
        },
        {
          "name": "G#1",
          "midi": 32,
          "time": 159,
          "velocity": 1,
          "duration": 0.44999999999998863
        },
        {
          "name": "G#1",
          "midi": 32,
          "time": 159.5625,
          "velocity": 1,
          "duration": 0.15000000000000568
        },
        {
          "name": "G#1",
          "midi": 32,
          "time": 159.75,
          "velocity": 1,
          "duration": 0.44999999999998863
        },
        {
          "name": "G#1",
          "midi": 32,
          "time": 160.3125,
          "velocity": 1,
          "duration": 0.15000000000000568
        },
        {
          "name": "G#1",
          "midi": 32,
          "time": 160.5,
          "velocity": 1,
          "duration": 0.44999999999998863
        },
        {
          "name": "G#1",
          "midi": 32,
          "time": 161.0625,
          "velocity": 1,
          "duration": 0.15000000000000568
        },
        {
          "name": "G#1",
          "midi": 32,
          "time": 161.25,
          "velocity": 1,
          "duration": 0.44999999999998863
        },
        {
          "name": "G#1",
          "midi": 32,
          "time": 161.8125,
          "velocity": 1,
          "duration": 0.15000000000000568
        },
        {
          "name": "G#1",
          "midi": 32,
          "time": 162,
          "velocity": 1,
          "duration": 0.44999999999998863
        },
        {
          "name": "G#1",
          "midi": 32,
          "time": 162.5625,
          "velocity": 1,
          "duration": 0.15000000000000568
        },
        {
          "name": "G#1",
          "midi": 32,
          "time": 162.75,
          "velocity": 1,
          "duration": 0.44999999999998863
        },
        {
          "name": "G#1",
          "midi": 32,
          "time": 163.3125,
          "velocity": 1,
          "duration": 0.15000000000000568
        },
        {
          "name": "G#1",
          "midi": 32,
          "time": 163.5,
          "velocity": 1,
          "duration": 0.44999999999998863
        },
        {
          "name": "G#1",
          "midi": 32,
          "time": 164.0625,
          "velocity": 1,
          "duration": 0.15000000000000568
        },
        {
          "name": "G#1",
          "midi": 32,
          "time": 164.25,
          "velocity": 1,
          "duration": 0.15000000000000568
        },
        {
          "name": "D#2",
          "midi": 39,
          "time": 164.4375,
          "velocity": 1,
          "duration": 0.30000000000001137
        },
        {
          "name": "G#1",
          "midi": 32,
          "time": 164.8125,
          "velocity": 1,
          "duration": 0.15000000000000568
        },
        {
          "name": "F1",
          "midi": 29,
          "time": 165,
          "velocity": 1,
          "duration": 0.44999999999998863
        },
        {
          "name": "F2",
          "midi": 41,
          "time": 165,
          "velocity": 1,
          "duration": 0.44999999999998863
        },
        {
          "name": "F1",
          "midi": 29,
          "time": 165.5625,
          "velocity": 1,
          "duration": 0.15000000000000568
        },
        {
          "name": "F2",
          "midi": 41,
          "time": 165.5625,
          "velocity": 1,
          "duration": 0.15000000000000568
        },
        {
          "name": "F2",
          "midi": 41,
          "time": 165.75,
          "velocity": 1,
          "duration": 0.44999999999998863
        },
        {
          "name": "F1",
          "midi": 29,
          "time": 165.75,
          "velocity": 1,
          "duration": 0.44999999999998863
        },
        {
          "name": "F2",
          "midi": 41,
          "time": 166.3125,
          "velocity": 1,
          "duration": 0.15000000000000568
        },
        {
          "name": "F1",
          "midi": 29,
          "time": 166.3125,
          "velocity": 1,
          "duration": 0.15000000000000568
        },
        {
          "name": "F2",
          "midi": 41,
          "time": 166.5,
          "velocity": 1,
          "duration": 0.44999999999998863
        },
        {
          "name": "F1",
          "midi": 29,
          "time": 166.5,
          "velocity": 1,
          "duration": 0.44999999999998863
        },
        {
          "name": "F2",
          "midi": 41,
          "time": 167.0625,
          "velocity": 1,
          "duration": 0.15000000000000568
        },
        {
          "name": "F1",
          "midi": 29,
          "time": 167.0625,
          "velocity": 1,
          "duration": 0.15000000000000568
        },
        {
          "name": "F1",
          "midi": 29,
          "time": 167.25,
          "velocity": 1,
          "duration": 0.44999999999998863
        },
        {
          "name": "F2",
          "midi": 41,
          "time": 167.25,
          "velocity": 1,
          "duration": 0.44999999999998863
        },
        {
          "name": "F1",
          "midi": 29,
          "time": 167.8125,
          "velocity": 1,
          "duration": 0.15000000000000568
        },
        {
          "name": "F2",
          "midi": 41,
          "time": 167.8125,
          "velocity": 1,
          "duration": 0.15000000000000568
        },
        {
          "name": "F1",
          "midi": 29,
          "time": 168,
          "velocity": 1,
          "duration": 0.44999999999998863
        },
        {
          "name": "F2",
          "midi": 41,
          "time": 168,
          "velocity": 1,
          "duration": 0.44999999999998863
        },
        {
          "name": "F2",
          "midi": 41,
          "time": 168.5625,
          "velocity": 1,
          "duration": 0.15000000000000568
        },
        {
          "name": "F1",
          "midi": 29,
          "time": 168.5625,
          "velocity": 1,
          "duration": 0.15000000000000568
        },
        {
          "name": "F1",
          "midi": 29,
          "time": 168.75,
          "velocity": 1,
          "duration": 0.44999999999998863
        },
        {
          "name": "F2",
          "midi": 41,
          "time": 168.75,
          "velocity": 1,
          "duration": 0.44999999999998863
        },
        {
          "name": "F2",
          "midi": 41,
          "time": 169.3125,
          "velocity": 1,
          "duration": 0.15000000000000568
        },
        {
          "name": "F1",
          "midi": 29,
          "time": 169.3125,
          "velocity": 1,
          "duration": 0.15000000000000568
        },
        {
          "name": "F1",
          "midi": 29,
          "time": 169.5,
          "velocity": 1,
          "duration": 0.44999999999998863
        },
        {
          "name": "F2",
          "midi": 41,
          "time": 169.5,
          "velocity": 1,
          "duration": 0.44999999999998863
        },
        {
          "name": "F1",
          "midi": 29,
          "time": 170.0625,
          "velocity": 1,
          "duration": 0.15000000000000568
        },
        {
          "name": "F2",
          "midi": 41,
          "time": 170.0625,
          "velocity": 1,
          "duration": 0.15000000000000568
        },
        {
          "name": "F1",
          "midi": 29,
          "time": 170.25,
          "velocity": 1,
          "duration": 0.15000000000000568
        },
        {
          "name": "C2",
          "midi": 36,
          "time": 170.4375,
          "velocity": 1,
          "duration": 0.30000000000001137
        },
        {
          "name": "F1",
          "midi": 29,
          "time": 170.8125,
          "velocity": 1,
          "duration": 0.15000000000000568
        },
        {
          "name": "F2",
          "midi": 41,
          "time": 171,
          "velocity": 1,
          "duration": 0.44999999999998863
        },
        {
          "name": "F1",
          "midi": 29,
          "time": 171,
          "velocity": 1,
          "duration": 0.44999999999998863
        },
        {
          "name": "F2",
          "midi": 41,
          "time": 171.5625,
          "velocity": 1,
          "duration": 0.15000000000000568
        },
        {
          "name": "F1",
          "midi": 29,
          "time": 171.5625,
          "velocity": 1,
          "duration": 0.15000000000000568
        },
        {
          "name": "F1",
          "midi": 29,
          "time": 171.75,
          "velocity": 1,
          "duration": 0.44999999999998863
        },
        {
          "name": "F2",
          "midi": 41,
          "time": 171.75,
          "velocity": 1,
          "duration": 0.44999999999998863
        },
        {
          "name": "F2",
          "midi": 41,
          "time": 172.3125,
          "velocity": 1,
          "duration": 0.15000000000000568
        },
        {
          "name": "F1",
          "midi": 29,
          "time": 172.3125,
          "velocity": 1,
          "duration": 0.15000000000000568
        },
        {
          "name": "F1",
          "midi": 29,
          "time": 172.5,
          "velocity": 1,
          "duration": 0.44999999999998863
        },
        {
          "name": "F2",
          "midi": 41,
          "time": 172.5,
          "velocity": 1,
          "duration": 0.44999999999998863
        },
        {
          "name": "F1",
          "midi": 29,
          "time": 173.0625,
          "velocity": 1,
          "duration": 0.15000000000000568
        },
        {
          "name": "F2",
          "midi": 41,
          "time": 173.0625,
          "velocity": 1,
          "duration": 0.15000000000000568
        },
        {
          "name": "F2",
          "midi": 41,
          "time": 173.25,
          "velocity": 1,
          "duration": 0.44999999999998863
        },
        {
          "name": "F1",
          "midi": 29,
          "time": 173.25,
          "velocity": 1,
          "duration": 0.44999999999998863
        },
        {
          "name": "F2",
          "midi": 41,
          "time": 173.8125,
          "velocity": 1,
          "duration": 0.15000000000000568
        },
        {
          "name": "F1",
          "midi": 29,
          "time": 173.8125,
          "velocity": 1,
          "duration": 0.15000000000000568
        },
        {
          "name": "F2",
          "midi": 41,
          "time": 174,
          "velocity": 1,
          "duration": 0.44999999999998863
        },
        {
          "name": "F1",
          "midi": 29,
          "time": 174,
          "velocity": 1,
          "duration": 0.44999999999998863
        },
        {
          "name": "F2",
          "midi": 41,
          "time": 174.5625,
          "velocity": 1,
          "duration": 0.15000000000000568
        },
        {
          "name": "F1",
          "midi": 29,
          "time": 174.5625,
          "velocity": 1,
          "duration": 0.15000000000000568
        },
        {
          "name": "F2",
          "midi": 41,
          "time": 174.75,
          "velocity": 1,
          "duration": 0.44999999999998863
        },
        {
          "name": "F1",
          "midi": 29,
          "time": 174.75,
          "velocity": 1,
          "duration": 0.44999999999998863
        },
        {
          "name": "F2",
          "midi": 41,
          "time": 175.3125,
          "velocity": 1,
          "duration": 0.15000000000000568
        },
        {
          "name": "F1",
          "midi": 29,
          "time": 175.3125,
          "velocity": 1,
          "duration": 0.15000000000000568
        },
        {
          "name": "F1",
          "midi": 29,
          "time": 175.5,
          "velocity": 1,
          "duration": 0.44999999999998863
        },
        {
          "name": "F2",
          "midi": 41,
          "time": 175.5,
          "velocity": 1,
          "duration": 0.44999999999998863
        },
        {
          "name": "F2",
          "midi": 41,
          "time": 176.0625,
          "velocity": 1,
          "duration": 0.15000000000000568
        },
        {
          "name": "F1",
          "midi": 29,
          "time": 176.0625,
          "velocity": 1,
          "duration": 0.15000000000000568
        },
        {
          "name": "F1",
          "midi": 29,
          "time": 176.25,
          "velocity": 1,
          "duration": 0.15000000000000568
        },
        {
          "name": "C2",
          "midi": 36,
          "time": 176.4375,
          "velocity": 1,
          "duration": 0.30000000000001137
        },
        {
          "name": "F1",
          "midi": 29,
          "time": 176.8125,
          "velocity": 1,
          "duration": 0.15000000000000568
        },
        {
          "name": "F2",
          "midi": 41,
          "time": 177,
          "velocity": 1,
          "duration": 0.44999999999998863
        },
        {
          "name": "F1",
          "midi": 29,
          "time": 177,
          "velocity": 1,
          "duration": 0.44999999999998863
        },
        {
          "name": "F2",
          "midi": 41,
          "time": 177.5625,
          "velocity": 1,
          "duration": 0.15000000000000568
        },
        {
          "name": "F1",
          "midi": 29,
          "time": 177.5625,
          "velocity": 1,
          "duration": 0.15000000000000568
        },
        {
          "name": "F1",
          "midi": 29,
          "time": 177.75,
          "velocity": 1,
          "duration": 0.44999999999998863
        },
        {
          "name": "F2",
          "midi": 41,
          "time": 177.75,
          "velocity": 1,
          "duration": 0.44999999999998863
        },
        {
          "name": "F1",
          "midi": 29,
          "time": 178.3125,
          "velocity": 1,
          "duration": 0.15000000000000568
        },
        {
          "name": "F2",
          "midi": 41,
          "time": 178.3125,
          "velocity": 1,
          "duration": 0.15000000000000568
        },
        {
          "name": "F1",
          "midi": 29,
          "time": 178.5,
          "velocity": 1,
          "duration": 0.44999999999998863
        },
        {
          "name": "F2",
          "midi": 41,
          "time": 178.5,
          "velocity": 1,
          "duration": 0.44999999999998863
        },
        {
          "name": "F1",
          "midi": 29,
          "time": 179.0625,
          "velocity": 1,
          "duration": 0.15000000000000568
        },
        {
          "name": "F2",
          "midi": 41,
          "time": 179.0625,
          "velocity": 1,
          "duration": 0.15000000000000568
        },
        {
          "name": "F1",
          "midi": 29,
          "time": 179.25,
          "velocity": 1,
          "duration": 0.44999999999998863
        },
        {
          "name": "F2",
          "midi": 41,
          "time": 179.25,
          "velocity": 1,
          "duration": 0.44999999999998863
        },
        {
          "name": "F1",
          "midi": 29,
          "time": 179.8125,
          "velocity": 1,
          "duration": 0.15000000000000568
        },
        {
          "name": "F2",
          "midi": 41,
          "time": 179.8125,
          "velocity": 1,
          "duration": 0.15000000000000568
        },
        {
          "name": "F2",
          "midi": 41,
          "time": 180,
          "velocity": 1,
          "duration": 0.44999999999998863
        },
        {
          "name": "F1",
          "midi": 29,
          "time": 180,
          "velocity": 1,
          "duration": 0.44999999999998863
        },
        {
          "name": "F2",
          "midi": 41,
          "time": 180.5625,
          "velocity": 1,
          "duration": 0.15000000000000568
        },
        {
          "name": "F1",
          "midi": 29,
          "time": 180.5625,
          "velocity": 1,
          "duration": 0.15000000000000568
        },
        {
          "name": "F2",
          "midi": 41,
          "time": 180.75,
          "velocity": 1,
          "duration": 0.44999999999998863
        },
        {
          "name": "F1",
          "midi": 29,
          "time": 180.75,
          "velocity": 1,
          "duration": 0.44999999999998863
        },
        {
          "name": "F2",
          "midi": 41,
          "time": 181.3125,
          "velocity": 1,
          "duration": 0.15000000000000568
        },
        {
          "name": "F1",
          "midi": 29,
          "time": 181.3125,
          "velocity": 1,
          "duration": 0.15000000000000568
        },
        {
          "name": "F1",
          "midi": 29,
          "time": 181.5,
          "velocity": 1,
          "duration": 0.44999999999998863
        },
        {
          "name": "F2",
          "midi": 41,
          "time": 181.5,
          "velocity": 1,
          "duration": 0.44999999999998863
        },
        {
          "name": "F2",
          "midi": 41,
          "time": 182.0625,
          "velocity": 1,
          "duration": 0.15000000000000568
        },
        {
          "name": "F1",
          "midi": 29,
          "time": 182.0625,
          "velocity": 1,
          "duration": 0.15000000000000568
        },
        {
          "name": "F1",
          "midi": 29,
          "time": 182.25,
          "velocity": 1,
          "duration": 0.15000000000000568
        },
        {
          "name": "C2",
          "midi": 36,
          "time": 182.4375,
          "velocity": 1,
          "duration": 0.30000000000001137
        },
        {
          "name": "F1",
          "midi": 29,
          "time": 182.8125,
          "velocity": 1,
          "duration": 0.15000000000000568
        },
        {
          "name": "F2",
          "midi": 41,
          "time": 183,
          "velocity": 1,
          "duration": 0.44999999999998863
        },
        {
          "name": "F1",
          "midi": 29,
          "time": 183,
          "velocity": 1,
          "duration": 0.44999999999998863
        },
        {
          "name": "F1",
          "midi": 29,
          "time": 183.5625,
          "velocity": 1,
          "duration": 0.15000000000000568
        },
        {
          "name": "F2",
          "midi": 41,
          "time": 183.5625,
          "velocity": 1,
          "duration": 0.15000000000000568
        },
        {
          "name": "F2",
          "midi": 41,
          "time": 183.75,
          "velocity": 1,
          "duration": 0.44999999999998863
        },
        {
          "name": "F1",
          "midi": 29,
          "time": 183.75,
          "velocity": 1,
          "duration": 0.44999999999998863
        },
        {
          "name": "F1",
          "midi": 29,
          "time": 184.3125,
          "velocity": 1,
          "duration": 0.15000000000000568
        },
        {
          "name": "F2",
          "midi": 41,
          "time": 184.3125,
          "velocity": 1,
          "duration": 0.15000000000000568
        },
        {
          "name": "F1",
          "midi": 29,
          "time": 184.5,
          "velocity": 1,
          "duration": 0.44999999999998863
        },
        {
          "name": "F2",
          "midi": 41,
          "time": 184.5,
          "velocity": 1,
          "duration": 0.44999999999998863
        },
        {
          "name": "F2",
          "midi": 41,
          "time": 185.0625,
          "velocity": 1,
          "duration": 0.15000000000000568
        },
        {
          "name": "F1",
          "midi": 29,
          "time": 185.0625,
          "velocity": 1,
          "duration": 0.15000000000000568
        },
        {
          "name": "F1",
          "midi": 29,
          "time": 185.25,
          "velocity": 1,
          "duration": 0.44999999999998863
        },
        {
          "name": "F2",
          "midi": 41,
          "time": 185.25,
          "velocity": 1,
          "duration": 0.44999999999998863
        },
        {
          "name": "F2",
          "midi": 41,
          "time": 185.8125,
          "velocity": 1,
          "duration": 0.15000000000000568
        },
        {
          "name": "F1",
          "midi": 29,
          "time": 185.8125,
          "velocity": 1,
          "duration": 0.15000000000000568
        },
        {
          "name": "F2",
          "midi": 41,
          "time": 186,
          "velocity": 1,
          "duration": 0.44999999999998863
        },
        {
          "name": "F1",
          "midi": 29,
          "time": 186,
          "velocity": 1,
          "duration": 0.44999999999998863
        },
        {
          "name": "F1",
          "midi": 29,
          "time": 186.5625,
          "velocity": 1,
          "duration": 0.15000000000000568
        },
        {
          "name": "F2",
          "midi": 41,
          "time": 186.5625,
          "velocity": 1,
          "duration": 0.15000000000000568
        },
        {
          "name": "F2",
          "midi": 41,
          "time": 186.75,
          "velocity": 1,
          "duration": 0.44999999999998863
        },
        {
          "name": "F1",
          "midi": 29,
          "time": 186.75,
          "velocity": 1,
          "duration": 0.44999999999998863
        },
        {
          "name": "F1",
          "midi": 29,
          "time": 187.3125,
          "velocity": 1,
          "duration": 0.15000000000000568
        },
        {
          "name": "F2",
          "midi": 41,
          "time": 187.3125,
          "velocity": 1,
          "duration": 0.15000000000000568
        },
        {
          "name": "F1",
          "midi": 29,
          "time": 187.5,
          "velocity": 1,
          "duration": 0.44999999999998863
        },
        {
          "name": "F2",
          "midi": 41,
          "time": 187.5,
          "velocity": 1,
          "duration": 0.44999999999998863
        },
        {
          "name": "F2",
          "midi": 41,
          "time": 188.0625,
          "velocity": 1,
          "duration": 0.15000000000000568
        },
        {
          "name": "F1",
          "midi": 29,
          "time": 188.0625,
          "velocity": 1,
          "duration": 0.15000000000000568
        },
        {
          "name": "F1",
          "midi": 29,
          "time": 188.25,
          "velocity": 1,
          "duration": 0.15000000000000568
        },
        {
          "name": "C2",
          "midi": 36,
          "time": 188.4375,
          "velocity": 1,
          "duration": 0.30000000000001137
        },
        {
          "name": "F1",
          "midi": 29,
          "time": 188.8125,
          "velocity": 1,
          "duration": 0.15000000000000568
        },
        {
          "name": "F2",
          "midi": 41,
          "time": 189,
          "velocity": 1,
          "duration": 0.44999999999998863
        },
        {
          "name": "F1",
          "midi": 29,
          "time": 189,
          "velocity": 1,
          "duration": 0.44999999999998863
        },
        {
          "name": "F2",
          "midi": 41,
          "time": 189.5625,
          "velocity": 1,
          "duration": 0.15000000000000568
        },
        {
          "name": "F1",
          "midi": 29,
          "time": 189.5625,
          "velocity": 1,
          "duration": 0.15000000000000568
        },
        {
          "name": "F2",
          "midi": 41,
          "time": 189.75,
          "velocity": 1,
          "duration": 0.44999999999998863
        },
        {
          "name": "F1",
          "midi": 29,
          "time": 189.75,
          "velocity": 1,
          "duration": 0.44999999999998863
        },
        {
          "name": "F1",
          "midi": 29,
          "time": 190.3125,
          "velocity": 1,
          "duration": 0.15000000000000568
        },
        {
          "name": "F2",
          "midi": 41,
          "time": 190.3125,
          "velocity": 1,
          "duration": 0.15000000000000568
        },
        {
          "name": "F1",
          "midi": 29,
          "time": 190.5,
          "velocity": 1,
          "duration": 0.44999999999998863
        },
        {
          "name": "F2",
          "midi": 41,
          "time": 190.5,
          "velocity": 1,
          "duration": 0.44999999999998863
        },
        {
          "name": "F1",
          "midi": 29,
          "time": 191.0625,
          "velocity": 1,
          "duration": 0.15000000000000568
        },
        {
          "name": "F2",
          "midi": 41,
          "time": 191.0625,
          "velocity": 1,
          "duration": 0.15000000000000568
        },
        {
          "name": "F1",
          "midi": 29,
          "time": 191.25,
          "velocity": 1,
          "duration": 0.44999999999998863
        },
        {
          "name": "F2",
          "midi": 41,
          "time": 191.25,
          "velocity": 1,
          "duration": 0.44999999999998863
        },
        {
          "name": "F2",
          "midi": 41,
          "time": 191.8125,
          "velocity": 1,
          "duration": 0.15000000000000568
        },
        {
          "name": "F1",
          "midi": 29,
          "time": 191.8125,
          "velocity": 1,
          "duration": 0.15000000000000568
        },
        {
          "name": "F2",
          "midi": 41,
          "time": 192,
          "velocity": 1,
          "duration": 0.44999999999998863
        },
        {
          "name": "F1",
          "midi": 29,
          "time": 192,
          "velocity": 1,
          "duration": 0.44999999999998863
        },
        {
          "name": "F2",
          "midi": 41,
          "time": 192.5625,
          "velocity": 1,
          "duration": 0.15000000000000568
        },
        {
          "name": "F1",
          "midi": 29,
          "time": 192.5625,
          "velocity": 1,
          "duration": 0.15000000000000568
        },
        {
          "name": "F1",
          "midi": 29,
          "time": 192.75,
          "velocity": 1,
          "duration": 0.44999999999998863
        },
        {
          "name": "F2",
          "midi": 41,
          "time": 192.75,
          "velocity": 1,
          "duration": 0.44999999999998863
        },
        {
          "name": "F1",
          "midi": 29,
          "time": 193.3125,
          "velocity": 1,
          "duration": 0.15000000000000568
        },
        {
          "name": "F2",
          "midi": 41,
          "time": 193.3125,
          "velocity": 1,
          "duration": 0.15000000000000568
        },
        {
          "name": "F2",
          "midi": 41,
          "time": 193.5,
          "velocity": 1,
          "duration": 0.44999999999998863
        },
        {
          "name": "F1",
          "midi": 29,
          "time": 193.5,
          "velocity": 1,
          "duration": 0.44999999999998863
        },
        {
          "name": "F2",
          "midi": 41,
          "time": 194.0625,
          "velocity": 1,
          "duration": 0.15000000000000568
        },
        {
          "name": "F1",
          "midi": 29,
          "time": 194.0625,
          "velocity": 1,
          "duration": 0.15000000000000568
        },
        {
          "name": "F1",
          "midi": 29,
          "time": 194.25,
          "velocity": 1,
          "duration": 0.44999999999998863
        },
        {
          "name": "F2",
          "midi": 41,
          "time": 194.25,
          "velocity": 1,
          "duration": 0.44999999999998863
        },
        {
          "name": "F1",
          "midi": 29,
          "time": 194.8125,
          "velocity": 1,
          "duration": 0.15000000000000568
        },
        {
          "name": "F2",
          "midi": 41,
          "time": 194.8125,
          "velocity": 1,
          "duration": 0.15000000000000568
        },
        {
          "name": "F2",
          "midi": 41,
          "time": 195,
          "velocity": 1,
          "duration": 0.44999999999998863
        },
        {
          "name": "F1",
          "midi": 29,
          "time": 195,
          "velocity": 1,
          "duration": 0.44999999999998863
        },
        {
          "name": "F1",
          "midi": 29,
          "time": 195.5625,
          "velocity": 1,
          "duration": 0.15000000000000568
        },
        {
          "name": "F2",
          "midi": 41,
          "time": 195.5625,
          "velocity": 1,
          "duration": 0.15000000000000568
        },
        {
          "name": "F2",
          "midi": 41,
          "time": 195.75,
          "velocity": 1,
          "duration": 0.44999999999998863
        },
        {
          "name": "F1",
          "midi": 29,
          "time": 195.75,
          "velocity": 1,
          "duration": 0.44999999999998863
        },
        {
          "name": "F1",
          "midi": 29,
          "time": 196.3125,
          "velocity": 1,
          "duration": 0.15000000000000568
        },
        {
          "name": "F2",
          "midi": 41,
          "time": 196.3125,
          "velocity": 1,
          "duration": 0.15000000000000568
        },
        {
          "name": "F1",
          "midi": 29,
          "time": 196.5,
          "velocity": 1,
          "duration": 0.44999999999998863
        },
        {
          "name": "F2",
          "midi": 41,
          "time": 196.5,
          "velocity": 1,
          "duration": 0.44999999999998863
        },
        {
          "name": "F2",
          "midi": 41,
          "time": 197.0625,
          "velocity": 1,
          "duration": 0.15000000000000568
        },
        {
          "name": "F1",
          "midi": 29,
          "time": 197.0625,
          "velocity": 1,
          "duration": 0.15000000000000568
        },
        {
          "name": "F2",
          "midi": 41,
          "time": 197.25,
          "velocity": 1,
          "duration": 0.15000000000000568
        },
        {
          "name": "F1",
          "midi": 29,
          "time": 197.25,
          "velocity": 1,
          "duration": 0.15000000000000568
        },
        {
          "name": "F1",
          "midi": 29,
          "time": 197.4375,
          "velocity": 1,
          "duration": 0.44999999999998863
        },
        {
          "name": "F2",
          "midi": 41,
          "time": 197.4375,
          "velocity": 1,
          "duration": 0.44999999999998863
        },
        {
          "name": "F2",
          "midi": 41,
          "time": 198,
          "velocity": 1,
          "duration": 1.8000000000000114
        },
        {
          "name": "F1",
          "midi": 29,
          "time": 198,
          "velocity": 1,
          "duration": 1.8000000000000114
        }
      ],
      "controlChanges": {
        "7": [
          {
            "number": 7,
            "time": 0,
            "value": 1
          }
        ]
      },
      "id": 9,
      "name": "Public Domain",
      "instrumentNumber": 33,
      "instrument": "electric bass (finger)",
      "instrumentFamily": "bass",
      "channelNumber": 8,
      "isPercussion": false
    },
    {
      "startTime": 4.3125,
      "duration": 198.30000000000277,
      "length": 3379,
      "notes": [
        {
          "name": "D3",
          "midi": 50,
          "time": 4.3125,
          "velocity": 1,
          "duration": 0.15000000000000036
        },
        {
          "name": "D3",
          "midi": 50,
          "time": 4.5,
          "velocity": 1,
          "duration": 0.15000000000000036
        },
        {
          "name": "C3",
          "midi": 48,
          "time": 4.6875,
          "velocity": 1,
          "duration": 0.15000000000000036
        },
        {
          "name": "B2",
          "midi": 47,
          "time": 4.875,
          "velocity": 1,
          "duration": 0.15000000000000036
        },
        {
          "name": "G2",
          "midi": 43,
          "time": 5.0625,
          "velocity": 1,
          "duration": 0.15000000000000036
        },
        {
          "name": "A3",
          "midi": 57,
          "time": 5.4375,
          "velocity": 1,
          "duration": 0.4500000000000002
        },
        {
          "name": "C2",
          "midi": 36,
          "time": 5.4375,
          "velocity": 1,
          "duration": 0.4500000000000002
        },
        {
          "name": "F#2",
          "midi": 42,
          "time": 6,
          "velocity": 0.8661417322834646,
          "duration": 0.15000000000000036
        },
        {
          "name": "F#3",
          "midi": 54,
          "time": 6,
          "velocity": 0.47244094488188976,
          "duration": 0.15000000000000036
        },
        {
          "name": "C2",
          "midi": 36,
          "time": 6,
          "velocity": 1,
          "duration": 0.2999999999999998
        },
        {
          "name": "F#3",
          "midi": 54,
          "time": 6.1875,
          "velocity": 0.47244094488188976,
          "duration": 0.07500000000000018
        },
        {
          "name": "F#2",
          "midi": 42,
          "time": 6.1875,
          "velocity": 0.8661417322834646,
          "duration": 0.14999999999999947
        },
        {
          "name": "F#3",
          "midi": 54,
          "time": 6.28125,
          "velocity": 0.47244094488188976,
          "duration": 0.07499999999999929
        },
        {
          "name": "F#2",
          "midi": 42,
          "time": 6.374999999999999,
          "velocity": 0.8661417322834646,
          "duration": 0.15000000000000036
        },
        {
          "name": "F#3",
          "midi": 54,
          "time": 6.374999999999999,
          "velocity": 0.47244094488188976,
          "duration": 0.15000000000000036
        },
        {
          "name": "D2",
          "midi": 38,
          "time": 6.374999999999999,
          "velocity": 0.8661417322834646,
          "duration": 0.2999999999999998
        },
        {
          "name": "F#3",
          "midi": 54,
          "time": 6.562499999999999,
          "velocity": 0.47244094488188976,
          "duration": 0.07500000000000018
        },
        {
          "name": "F#2",
          "midi": 42,
          "time": 6.562499999999999,
          "velocity": 0.8661417322834646,
          "duration": 0.14999999999999947
        },
        {
          "name": "F#3",
          "midi": 54,
          "time": 6.656249999999999,
          "velocity": 0.47244094488188976,
          "duration": 0.07499999999999929
        },
        {
          "name": "F#3",
          "midi": 54,
          "time": 6.749999999999998,
          "velocity": 0.47244094488188976,
          "duration": 0.15000000000000036
        },
        {
          "name": "F#2",
          "midi": 42,
          "time": 6.749999999999998,
          "velocity": 0.8661417322834646,
          "duration": 0.15000000000000036
        },
        {
          "name": "C2",
          "midi": 36,
          "time": 6.749999999999998,
          "velocity": 1,
          "duration": 0.2999999999999998
        },
        {
          "name": "F#3",
          "midi": 54,
          "time": 6.937499999999998,
          "velocity": 0.47244094488188976,
          "duration": 0.07500000000000018
        },
        {
          "name": "F#2",
          "midi": 42,
          "time": 6.937499999999998,
          "velocity": 0.8661417322834646,
          "duration": 0.14999999999999947
        },
        {
          "name": "F#3",
          "midi": 54,
          "time": 7.031249999999998,
          "velocity": 0.47244094488188976,
          "duration": 0.07499999999999929
        },
        {
          "name": "F#3",
          "midi": 54,
          "time": 7.124999999999997,
          "velocity": 0.47244094488188976,
          "duration": 0.15000000000000036
        },
        {
          "name": "F#2",
          "midi": 42,
          "time": 7.124999999999997,
          "velocity": 0.8661417322834646,
          "duration": 0.15000000000000036
        },
        {
          "name": "D2",
          "midi": 38,
          "time": 7.124999999999997,
          "velocity": 0.8661417322834646,
          "duration": 0.2999999999999998
        },
        {
          "name": "F#3",
          "midi": 54,
          "time": 7.312499999999997,
          "velocity": 0.47244094488188976,
          "duration": 0.07500000000000018
        },
        {
          "name": "C2",
          "midi": 36,
          "time": 7.312499999999997,
          "velocity": 1,
          "duration": 0.14999999999999947
        },
        {
          "name": "A#2",
          "midi": 46,
          "time": 7.312499999999997,
          "velocity": 0.8661417322834646,
          "duration": 0.14999999999999947
        },
        {
          "name": "F#3",
          "midi": 54,
          "time": 7.406249999999997,
          "velocity": 0.47244094488188976,
          "duration": 0.07499999999999929
        },
        {
          "name": "F#3",
          "midi": 54,
          "time": 7.4999999999999964,
          "velocity": 0.47244094488188976,
          "duration": 0.15000000000000036
        },
        {
          "name": "F#2",
          "midi": 42,
          "time": 7.4999999999999964,
          "velocity": 0.8661417322834646,
          "duration": 0.15000000000000036
        },
        {
          "name": "C2",
          "midi": 36,
          "time": 7.4999999999999964,
          "velocity": 1,
          "duration": 0.2999999999999998
        },
        {
          "name": "F#3",
          "midi": 54,
          "time": 7.6874999999999964,
          "velocity": 0.47244094488188976,
          "duration": 0.07500000000000018
        },
        {
          "name": "F#2",
          "midi": 42,
          "time": 7.6874999999999964,
          "velocity": 0.8661417322834646,
          "duration": 0.14999999999999947
        },
        {
          "name": "F#3",
          "midi": 54,
          "time": 7.7812499999999964,
          "velocity": 0.47244094488188976,
          "duration": 0.07499999999999929
        },
        {
          "name": "F#3",
          "midi": 54,
          "time": 7.874999999999996,
          "velocity": 0.47244094488188976,
          "duration": 0.14999999999999947
        },
        {
          "name": "F#2",
          "midi": 42,
          "time": 7.874999999999996,
          "velocity": 0.8661417322834646,
          "duration": 0.14999999999999947
        },
        {
          "name": "D2",
          "midi": 38,
          "time": 7.874999999999996,
          "velocity": 0.8661417322834646,
          "duration": 0.2999999999999998
        },
        {
          "name": "F#3",
          "midi": 54,
          "time": 8.062499999999995,
          "velocity": 0.47244094488188976,
          "duration": 0.07499999999999929
        },
        {
          "name": "F#2",
          "midi": 42,
          "time": 8.062499999999995,
          "velocity": 0.8661417322834646,
          "duration": 0.15000000000000036
        },
        {
          "name": "F#3",
          "midi": 54,
          "time": 8.156249999999995,
          "velocity": 0.47244094488188976,
          "duration": 0.07500000000000107
        },
        {
          "name": "F#3",
          "midi": 54,
          "time": 8.249999999999996,
          "velocity": 0.47244094488188976,
          "duration": 0.15000000000000036
        },
        {
          "name": "F#2",
          "midi": 42,
          "time": 8.249999999999996,
          "velocity": 0.8661417322834646,
          "duration": 0.15000000000000036
        },
        {
          "name": "C2",
          "midi": 36,
          "time": 8.249999999999996,
          "velocity": 1,
          "duration": 0.3000000000000007
        },
        {
          "name": "F#3",
          "midi": 54,
          "time": 8.437499999999996,
          "velocity": 0.47244094488188976,
          "duration": 0.07499999999999929
        },
        {
          "name": "F#2",
          "midi": 42,
          "time": 8.437499999999996,
          "velocity": 0.8661417322834646,
          "duration": 0.15000000000000036
        },
        {
          "name": "F#3",
          "midi": 54,
          "time": 8.531249999999996,
          "velocity": 0.47244094488188976,
          "duration": 0.07500000000000107
        },
        {
          "name": "F#2",
          "midi": 42,
          "time": 8.624999999999998,
          "velocity": 0.8661417322834646,
          "duration": 0.15000000000000036
        },
        {
          "name": "F#3",
          "midi": 54,
          "time": 8.624999999999998,
          "velocity": 0.47244094488188976,
          "duration": 0.15000000000000036
        },
        {
          "name": "D2",
          "midi": 38,
          "time": 8.624999999999998,
          "velocity": 0.8661417322834646,
          "duration": 0.3000000000000007
        },
        {
          "name": "F#3",
          "midi": 54,
          "time": 8.812499999999998,
          "velocity": 0.47244094488188976,
          "duration": 0.07499999999999929
        },
        {
          "name": "C2",
          "midi": 36,
          "time": 8.812499999999998,
          "velocity": 1,
          "duration": 0.15000000000000036
        },
        {
          "name": "A#2",
          "midi": 46,
          "time": 8.812499999999998,
          "velocity": 0.8661417322834646,
          "duration": 0.15000000000000036
        },
        {
          "name": "F#3",
          "midi": 54,
          "time": 8.906249999999998,
          "velocity": 0.47244094488188976,
          "duration": 0.07500000000000107
        },
        {
          "name": "F#2",
          "midi": 42,
          "time": 9,
          "velocity": 0.8661417322834646,
          "duration": 0.15000000000000036
        },
        {
          "name": "F#3",
          "midi": 54,
          "time": 9,
          "velocity": 0.47244094488188976,
          "duration": 0.15000000000000036
        },
        {
          "name": "C2",
          "midi": 36,
          "time": 9,
          "velocity": 1,
          "duration": 0.3000000000000007
        },
        {
          "name": "F#3",
          "midi": 54,
          "time": 9.1875,
          "velocity": 0.47244094488188976,
          "duration": 0.07499999999999929
        },
        {
          "name": "F#2",
          "midi": 42,
          "time": 9.1875,
          "velocity": 0.8661417322834646,
          "duration": 0.15000000000000036
        },
        {
          "name": "F#3",
          "midi": 54,
          "time": 9.28125,
          "velocity": 0.47244094488188976,
          "duration": 0.07500000000000107
        },
        {
          "name": "F#3",
          "midi": 54,
          "time": 9.375000000000002,
          "velocity": 0.47244094488188976,
          "duration": 0.15000000000000036
        },
        {
          "name": "F#2",
          "midi": 42,
          "time": 9.375000000000002,
          "velocity": 0.8661417322834646,
          "duration": 0.15000000000000036
        },
        {
          "name": "D2",
          "midi": 38,
          "time": 9.375000000000002,
          "velocity": 0.8661417322834646,
          "duration": 0.3000000000000007
        },
        {
          "name": "F#3",
          "midi": 54,
          "time": 9.562500000000002,
          "velocity": 0.47244094488188976,
          "duration": 0.07499999999999929
        },
        {
          "name": "C2",
          "midi": 36,
          "time": 9.562500000000002,
          "velocity": 1,
          "duration": 0.15000000000000036
        },
        {
          "name": "F#2",
          "midi": 42,
          "time": 9.562500000000002,
          "velocity": 0.8661417322834646,
          "duration": 0.15000000000000036
        },
        {
          "name": "F#3",
          "midi": 54,
          "time": 9.656250000000002,
          "velocity": 0.47244094488188976,
          "duration": 0.07500000000000107
        },
        {
          "name": "F#3",
          "midi": 54,
          "time": 9.750000000000004,
          "velocity": 0.47244094488188976,
          "duration": 0.15000000000000036
        },
        {
          "name": "F#2",
          "midi": 42,
          "time": 9.750000000000004,
          "velocity": 0.8661417322834646,
          "duration": 0.15000000000000036
        },
        {
          "name": "C2",
          "midi": 36,
          "time": 9.750000000000004,
          "velocity": 1,
          "duration": 0.3000000000000007
        },
        {
          "name": "F#3",
          "midi": 54,
          "time": 9.937500000000004,
          "velocity": 0.47244094488188976,
          "duration": 0.07499999999999929
        },
        {
          "name": "F#2",
          "midi": 42,
          "time": 9.937500000000004,
          "velocity": 0.8661417322834646,
          "duration": 0.15000000000000036
        },
        {
          "name": "F#3",
          "midi": 54,
          "time": 10.031250000000004,
          "velocity": 0.47244094488188976,
          "duration": 0.07500000000000107
        },
        {
          "name": "F#2",
          "midi": 42,
          "time": 10.125000000000005,
          "velocity": 0.8661417322834646,
          "duration": 0.15000000000000036
        },
        {
          "name": "F#3",
          "midi": 54,
          "time": 10.125000000000005,
          "velocity": 0.47244094488188976,
          "duration": 0.15000000000000036
        },
        {
          "name": "D2",
          "midi": 38,
          "time": 10.125000000000005,
          "velocity": 0.8661417322834646,
          "duration": 0.3000000000000007
        },
        {
          "name": "F#3",
          "midi": 54,
          "time": 10.312500000000005,
          "velocity": 0.47244094488188976,
          "duration": 0.07499999999999929
        },
        {
          "name": "F#2",
          "midi": 42,
          "time": 10.312500000000005,
          "velocity": 0.8661417322834646,
          "duration": 0.15000000000000036
        },
        {
          "name": "F#3",
          "midi": 54,
          "time": 10.406250000000005,
          "velocity": 0.47244094488188976,
          "duration": 0.07500000000000107
        },
        {
          "name": "F#3",
          "midi": 54,
          "time": 10.500000000000007,
          "velocity": 0.47244094488188976,
          "duration": 0.15000000000000036
        },
        {
          "name": "F#2",
          "midi": 42,
          "time": 10.500000000000007,
          "velocity": 0.8661417322834646,
          "duration": 0.15000000000000036
        },
        {
          "name": "C2",
          "midi": 36,
          "time": 10.500000000000007,
          "velocity": 1,
          "duration": 0.3000000000000007
        },
        {
          "name": "F#3",
          "midi": 54,
          "time": 10.687500000000007,
          "velocity": 0.47244094488188976,
          "duration": 0.07499999999999929
        },
        {
          "name": "F#2",
          "midi": 42,
          "time": 10.687500000000007,
          "velocity": 0.8661417322834646,
          "duration": 0.15000000000000036
        },
        {
          "name": "F#3",
          "midi": 54,
          "time": 10.781250000000007,
          "velocity": 0.47244094488188976,
          "duration": 0.07500000000000107
        },
        {
          "name": "D2",
          "midi": 38,
          "time": 10.875000000000009,
          "velocity": 0.8661417322834646,
          "duration": 0.3000000000000007
        },
        {
          "name": "F#3",
          "midi": 54,
          "time": 10.875000000000009,
          "velocity": 0.47244094488188976,
          "duration": 0.15000000000000036
        },
        {
          "name": "F#2",
          "midi": 42,
          "time": 10.875000000000009,
          "velocity": 0.8661417322834646,
          "duration": 0.15000000000000036
        },
        {
          "name": "C2",
          "midi": 36,
          "time": 11.062500000000009,
          "velocity": 1,
          "duration": 0.15000000000000036
        },
        {
          "name": "F#2",
          "midi": 42,
          "time": 11.062500000000009,
          "velocity": 0.8661417322834646,
          "duration": 0.15000000000000036
        },
        {
          "name": "F#3",
          "midi": 54,
          "time": 11.062500000000009,
          "velocity": 0.47244094488188976,
          "duration": 0.07499999999999929
        },
        {
          "name": "F#3",
          "midi": 54,
          "time": 11.156250000000009,
          "velocity": 0.47244094488188976,
          "duration": 0.07500000000000107
        },
        {
          "name": "F#3",
          "midi": 54,
          "time": 11.25000000000001,
          "velocity": 0.47244094488188976,
          "duration": 0.15000000000000036
        },
        {
          "name": "F#2",
          "midi": 42,
          "time": 11.25000000000001,
          "velocity": 0.8661417322834646,
          "duration": 0.15000000000000036
        },
        {
          "name": "C2",
          "midi": 36,
          "time": 11.25000000000001,
          "velocity": 1,
          "duration": 0.15000000000000036
        },
        {
          "name": "F#3",
          "midi": 54,
          "time": 11.43750000000001,
          "velocity": 0.47244094488188976,
          "duration": 0.07499999999999929
        },
        {
          "name": "A3",
          "midi": 57,
          "time": 11.43750000000001,
          "velocity": 0.8661417322834646,
          "duration": 0.15000000000000036
        },
        {
          "name": "F#2",
          "midi": 42,
          "time": 11.43750000000001,
          "velocity": 0.8661417322834646,
          "duration": 0.15000000000000036
        },
        {
          "name": "C2",
          "midi": 36,
          "time": 11.43750000000001,
          "velocity": 1,
          "duration": 0.4875000000000025
        },
        {
          "name": "F#3",
          "midi": 54,
          "time": 11.53125000000001,
          "velocity": 0.47244094488188976,
          "duration": 0.07500000000000107
        },
        {
          "name": "F#2",
          "midi": 42,
          "time": 11.625000000000012,
          "velocity": 0.8661417322834646,
          "duration": 0.15000000000000036
        },
        {
          "name": "F#3",
          "midi": 54,
          "time": 11.625000000000012,
          "velocity": 0.47244094488188976,
          "duration": 0.15000000000000036
        },
        {
          "name": "D2",
          "midi": 38,
          "time": 11.625000000000012,
          "velocity": 0.8661417322834646,
          "duration": 0.3000000000000007
        },
        {
          "name": "F#3",
          "midi": 54,
          "time": 11.812500000000012,
          "velocity": 0.47244094488188976,
          "duration": 0.07499999999999929
        },
        {
          "name": "A#2",
          "midi": 46,
          "time": 11.812500000000012,
          "velocity": 0.8661417322834646,
          "duration": 0.15000000000000036
        },
        {
          "name": "F#3",
          "midi": 54,
          "time": 11.906250000000012,
          "velocity": 0.47244094488188976,
          "duration": 0.07500000000000107
        },
        {
          "name": "F#2",
          "midi": 42,
          "time": 12.000000000000014,
          "velocity": 1,
          "duration": 0.15000000000000036
        },
        {
          "name": "F#3",
          "midi": 54,
          "time": 12.000000000000014,
          "velocity": 0.47244094488188976,
          "duration": 0.15000000000000036
        },
        {
          "name": "C2",
          "midi": 36,
          "time": 12.000000000000014,
          "velocity": 1,
          "duration": 0.3000000000000007
        },
        {
          "name": "A3",
          "midi": 57,
          "time": 12.000000000000014,
          "velocity": 1,
          "duration": 0.3000000000000007
        },
        {
          "name": "F#3",
          "midi": 54,
          "time": 12.187500000000014,
          "velocity": 0.47244094488188976,
          "duration": 0.07499999999999929
        },
        {
          "name": "F#2",
          "midi": 42,
          "time": 12.187500000000014,
          "velocity": 1,
          "duration": 0.15000000000000036
        },
        {
          "name": "F#3",
          "midi": 54,
          "time": 12.281250000000014,
          "velocity": 0.47244094488188976,
          "duration": 0.07500000000000107
        },
        {
          "name": "F#2",
          "midi": 42,
          "time": 12.375000000000016,
          "velocity": 1,
          "duration": 0.15000000000000036
        },
        {
          "name": "F#3",
          "midi": 54,
          "time": 12.375000000000016,
          "velocity": 0.47244094488188976,
          "duration": 0.15000000000000036
        },
        {
          "name": "D2",
          "midi": 38,
          "time": 12.375000000000016,
          "velocity": 1,
          "duration": 0.3000000000000007
        },
        {
          "name": "F#3",
          "midi": 54,
          "time": 12.562500000000016,
          "velocity": 0.47244094488188976,
          "duration": 0.07499999999999929
        },
        {
          "name": "F#2",
          "midi": 42,
          "time": 12.562500000000016,
          "velocity": 1,
          "duration": 0.15000000000000036
        },
        {
          "name": "F#3",
          "midi": 54,
          "time": 12.656250000000016,
          "velocity": 0.47244094488188976,
          "duration": 0.07500000000000107
        },
        {
          "name": "F#2",
          "midi": 42,
          "time": 12.750000000000018,
          "velocity": 1,
          "duration": 0.15000000000000036
        },
        {
          "name": "F#3",
          "midi": 54,
          "time": 12.750000000000018,
          "velocity": 0.47244094488188976,
          "duration": 0.15000000000000036
        },
        {
          "name": "C2",
          "midi": 36,
          "time": 12.750000000000018,
          "velocity": 1,
          "duration": 0.3000000000000007
        },
        {
          "name": "F#2",
          "midi": 42,
          "time": 12.937500000000018,
          "velocity": 1,
          "duration": 0.15000000000000036
        },
        {
          "name": "F#3",
          "midi": 54,
          "time": 12.937500000000018,
          "velocity": 0.47244094488188976,
          "duration": 0.07499999999999929
        },
        {
          "name": "F#3",
          "midi": 54,
          "time": 13.031250000000018,
          "velocity": 0.47244094488188976,
          "duration": 0.07500000000000107
        },
        {
          "name": "F#3",
          "midi": 54,
          "time": 13.12500000000002,
          "velocity": 0.47244094488188976,
          "duration": 0.15000000000000036
        },
        {
          "name": "F#2",
          "midi": 42,
          "time": 13.12500000000002,
          "velocity": 1,
          "duration": 0.15000000000000036
        },
        {
          "name": "D2",
          "midi": 38,
          "time": 13.12500000000002,
          "velocity": 1,
          "duration": 0.3000000000000007
        },
        {
          "name": "F#3",
          "midi": 54,
          "time": 13.31250000000002,
          "velocity": 0.47244094488188976,
          "duration": 0.07499999999999929
        },
        {
          "name": "C2",
          "midi": 36,
          "time": 13.31250000000002,
          "velocity": 1,
          "duration": 0.15000000000000036
        },
        {
          "name": "A#2",
          "midi": 46,
          "time": 13.31250000000002,
          "velocity": 1,
          "duration": 0.15000000000000036
        },
        {
          "name": "F#3",
          "midi": 54,
          "time": 13.40625000000002,
          "velocity": 0.47244094488188976,
          "duration": 0.07500000000000107
        },
        {
          "name": "F#2",
          "midi": 42,
          "time": 13.500000000000021,
          "velocity": 1,
          "duration": 0.15000000000000036
        },
        {
          "name": "F#3",
          "midi": 54,
          "time": 13.500000000000021,
          "velocity": 0.47244094488188976,
          "duration": 0.15000000000000036
        },
        {
          "name": "C2",
          "midi": 36,
          "time": 13.500000000000021,
          "velocity": 1,
          "duration": 0.3000000000000007
        },
        {
          "name": "F#3",
          "midi": 54,
          "time": 13.687500000000021,
          "velocity": 0.47244094488188976,
          "duration": 0.07499999999999929
        },
        {
          "name": "F#2",
          "midi": 42,
          "time": 13.687500000000021,
          "velocity": 1,
          "duration": 0.15000000000000036
        },
        {
          "name": "F#3",
          "midi": 54,
          "time": 13.781250000000021,
          "velocity": 0.47244094488188976,
          "duration": 0.07500000000000107
        },
        {
          "name": "F#2",
          "midi": 42,
          "time": 13.875000000000023,
          "velocity": 1,
          "duration": 0.15000000000000036
        },
        {
          "name": "F#3",
          "midi": 54,
          "time": 13.875000000000023,
          "velocity": 0.47244094488188976,
          "duration": 0.15000000000000036
        },
        {
          "name": "D2",
          "midi": 38,
          "time": 13.875000000000023,
          "velocity": 1,
          "duration": 0.3000000000000007
        },
        {
          "name": "F#3",
          "midi": 54,
          "time": 14.062500000000023,
          "velocity": 0.47244094488188976,
          "duration": 0.07499999999999929
        },
        {
          "name": "F#2",
          "midi": 42,
          "time": 14.062500000000023,
          "velocity": 1,
          "duration": 0.15000000000000036
        },
        {
          "name": "F#3",
          "midi": 54,
          "time": 14.156250000000023,
          "velocity": 0.47244094488188976,
          "duration": 0.07500000000000107
        },
        {
          "name": "F#3",
          "midi": 54,
          "time": 14.250000000000025,
          "velocity": 0.47244094488188976,
          "duration": 0.15000000000000036
        },
        {
          "name": "F#2",
          "midi": 42,
          "time": 14.250000000000025,
          "velocity": 1,
          "duration": 0.15000000000000036
        },
        {
          "name": "C2",
          "midi": 36,
          "time": 14.250000000000025,
          "velocity": 1,
          "duration": 0.3000000000000007
        },
        {
          "name": "F#3",
          "midi": 54,
          "time": 14.437500000000025,
          "velocity": 0.47244094488188976,
          "duration": 0.07499999999999929
        },
        {
          "name": "F#2",
          "midi": 42,
          "time": 14.437500000000025,
          "velocity": 1,
          "duration": 0.15000000000000036
        },
        {
          "name": "F#3",
          "midi": 54,
          "time": 14.531250000000025,
          "velocity": 0.47244094488188976,
          "duration": 0.07500000000000107
        },
        {
          "name": "F#2",
          "midi": 42,
          "time": 14.625000000000027,
          "velocity": 1,
          "duration": 0.15000000000000036
        },
        {
          "name": "F#3",
          "midi": 54,
          "time": 14.625000000000027,
          "velocity": 0.47244094488188976,
          "duration": 0.15000000000000036
        },
        {
          "name": "D2",
          "midi": 38,
          "time": 14.625000000000027,
          "velocity": 1,
          "duration": 0.3000000000000007
        },
        {
          "name": "F#3",
          "midi": 54,
          "time": 14.812500000000027,
          "velocity": 0.47244094488188976,
          "duration": 0.07499999999999929
        },
        {
          "name": "C2",
          "midi": 36,
          "time": 14.812500000000027,
          "velocity": 1,
          "duration": 0.15000000000000036
        },
        {
          "name": "A#2",
          "midi": 46,
          "time": 14.812500000000027,
          "velocity": 1,
          "duration": 0.15000000000000036
        },
        {
          "name": "F#3",
          "midi": 54,
          "time": 14.906250000000027,
          "velocity": 0.47244094488188976,
          "duration": 0.07500000000000107
        },
        {
          "name": "F#2",
          "midi": 42,
          "time": 15.000000000000028,
          "velocity": 1,
          "duration": 0.15000000000000036
        },
        {
          "name": "F#3",
          "midi": 54,
          "time": 15.000000000000028,
          "velocity": 0.47244094488188976,
          "duration": 0.15000000000000036
        },
        {
          "name": "C2",
          "midi": 36,
          "time": 15.000000000000028,
          "velocity": 1,
          "duration": 0.3000000000000007
        },
        {
          "name": "F#3",
          "midi": 54,
          "time": 15.187500000000028,
          "velocity": 0.47244094488188976,
          "duration": 0.07499999999999929
        },
        {
          "name": "F#2",
          "midi": 42,
          "time": 15.187500000000028,
          "velocity": 1,
          "duration": 0.15000000000000036
        },
        {
          "name": "F#3",
          "midi": 54,
          "time": 15.281250000000028,
          "velocity": 0.47244094488188976,
          "duration": 0.07500000000000107
        },
        {
          "name": "F#3",
          "midi": 54,
          "time": 15.37500000000003,
          "velocity": 0.47244094488188976,
          "duration": 0.15000000000000036
        },
        {
          "name": "F#2",
          "midi": 42,
          "time": 15.37500000000003,
          "velocity": 1,
          "duration": 0.15000000000000036
        },
        {
          "name": "D2",
          "midi": 38,
          "time": 15.37500000000003,
          "velocity": 1,
          "duration": 0.3000000000000007
        },
        {
          "name": "F#3",
          "midi": 54,
          "time": 15.56250000000003,
          "velocity": 0.47244094488188976,
          "duration": 0.07499999999999929
        },
        {
          "name": "C2",
          "midi": 36,
          "time": 15.56250000000003,
          "velocity": 1,
          "duration": 0.15000000000000036
        },
        {
          "name": "F#2",
          "midi": 42,
          "time": 15.56250000000003,
          "velocity": 1,
          "duration": 0.15000000000000036
        },
        {
          "name": "F#3",
          "midi": 54,
          "time": 15.65625000000003,
          "velocity": 0.47244094488188976,
          "duration": 0.07500000000000107
        },
        {
          "name": "F#2",
          "midi": 42,
          "time": 15.750000000000032,
          "velocity": 1,
          "duration": 0.15000000000000036
        },
        {
          "name": "F#3",
          "midi": 54,
          "time": 15.750000000000032,
          "velocity": 0.47244094488188976,
          "duration": 0.15000000000000036
        },
        {
          "name": "C2",
          "midi": 36,
          "time": 15.750000000000032,
          "velocity": 1,
          "duration": 0.3000000000000007
        },
        {
          "name": "F#3",
          "midi": 54,
          "time": 15.937500000000032,
          "velocity": 0.47244094488188976,
          "duration": 0.07499999999999929
        },
        {
          "name": "D3",
          "midi": 50,
          "time": 15.937500000000032,
          "velocity": 1,
          "duration": 0.15000000000000213
        },
        {
          "name": "F#2",
          "midi": 42,
          "time": 15.937500000000032,
          "velocity": 1,
          "duration": 0.15000000000000213
        },
        {
          "name": "F#3",
          "midi": 54,
          "time": 16.031250000000032,
          "velocity": 0.47244094488188976,
          "duration": 0.07500000000000284
        },
        {
          "name": "D3",
          "midi": 50,
          "time": 16.125000000000036,
          "velocity": 1,
          "duration": 0.14999999999999858
        },
        {
          "name": "F#3",
          "midi": 54,
          "time": 16.125000000000036,
          "velocity": 0.47244094488188976,
          "duration": 0.14999999999999858
        },
        {
          "name": "F#2",
          "midi": 42,
          "time": 16.125000000000036,
          "velocity": 1,
          "duration": 0.14999999999999858
        },
        {
          "name": "D2",
          "midi": 38,
          "time": 16.125000000000036,
          "velocity": 1,
          "duration": 0.3000000000000007
        },
        {
          "name": "F#3",
          "midi": 54,
          "time": 16.312500000000036,
          "velocity": 0.47244094488188976,
          "duration": 0.07499999999999929
        },
        {
          "name": "D3",
          "midi": 50,
          "time": 16.312500000000036,
          "velocity": 1,
          "duration": 0.15000000000000213
        },
        {
          "name": "F#2",
          "midi": 42,
          "time": 16.312500000000036,
          "velocity": 1,
          "duration": 0.15000000000000213
        },
        {
          "name": "F#3",
          "midi": 54,
          "time": 16.406250000000036,
          "velocity": 0.47244094488188976,
          "duration": 0.07500000000000284
        },
        {
          "name": "F#3",
          "midi": 54,
          "time": 16.50000000000004,
          "velocity": 0.47244094488188976,
          "duration": 0.14999999999999858
        },
        {
          "name": "F#2",
          "midi": 42,
          "time": 16.50000000000004,
          "velocity": 1,
          "duration": 0.14999999999999858
        },
        {
          "name": "C2",
          "midi": 36,
          "time": 16.50000000000004,
          "velocity": 1,
          "duration": 0.3000000000000007
        },
        {
          "name": "C3",
          "midi": 48,
          "time": 16.68750000000004,
          "velocity": 1,
          "duration": 0.15000000000000213
        },
        {
          "name": "F#2",
          "midi": 42,
          "time": 16.68750000000004,
          "velocity": 1,
          "duration": 0.15000000000000213
        },
        {
          "name": "F#3",
          "midi": 54,
          "time": 16.68750000000004,
          "velocity": 0.47244094488188976,
          "duration": 0.07499999999999929
        },
        {
          "name": "F#3",
          "midi": 54,
          "time": 16.78125000000004,
          "velocity": 0.47244094488188976,
          "duration": 0.07500000000000284
        },
        {
          "name": "F#3",
          "midi": 54,
          "time": 16.875000000000043,
          "velocity": 0.47244094488188976,
          "duration": 0.14999999999999858
        },
        {
          "name": "B2",
          "midi": 47,
          "time": 16.875000000000043,
          "velocity": 1,
          "duration": 0.14999999999999858
        },
        {
          "name": "F#2",
          "midi": 42,
          "time": 16.875000000000043,
          "velocity": 1,
          "duration": 0.14999999999999858
        },
        {
          "name": "D2",
          "midi": 38,
          "time": 16.875000000000043,
          "velocity": 1,
          "duration": 0.3000000000000007
        },
        {
          "name": "F#3",
          "midi": 54,
          "time": 17.062500000000043,
          "velocity": 0.47244094488188976,
          "duration": 0.07499999999999929
        },
        {
          "name": "G2",
          "midi": 43,
          "time": 17.062500000000043,
          "velocity": 1,
          "duration": 0.15000000000000213
        },
        {
          "name": "F#2",
          "midi": 42,
          "time": 17.062500000000043,
          "velocity": 1,
          "duration": 0.15000000000000213
        },
        {
          "name": "C2",
          "midi": 36,
          "time": 17.062500000000043,
          "velocity": 1,
          "duration": 0.15000000000000213
        },
        {
          "name": "F#3",
          "midi": 54,
          "time": 17.156250000000043,
          "velocity": 0.47244094488188976,
          "duration": 0.07500000000000284
        },
        {
          "name": "F#3",
          "midi": 54,
          "time": 17.250000000000046,
          "velocity": 0.47244094488188976,
          "duration": 0.14999999999999858
        },
        {
          "name": "F#2",
          "midi": 42,
          "time": 17.250000000000046,
          "velocity": 1,
          "duration": 0.14999999999999858
        },
        {
          "name": "C2",
          "midi": 36,
          "time": 17.250000000000046,
          "velocity": 1,
          "duration": 0.14999999999999858
        },
        {
          "name": "F#3",
          "midi": 54,
          "time": 17.437500000000046,
          "velocity": 0.47244094488188976,
          "duration": 0.07499999999999929
        },
        {
          "name": "A3",
          "midi": 57,
          "time": 17.437500000000046,
          "velocity": 1,
          "duration": 0.14999999999999858
        },
        {
          "name": "F#2",
          "midi": 42,
          "time": 17.437500000000046,
          "velocity": 1,
          "duration": 0.14999999999999858
        },
        {
          "name": "C2",
          "midi": 36,
          "time": 17.437500000000046,
          "velocity": 1,
          "duration": 0.4875000000000007
        },
        {
          "name": "F#3",
          "midi": 54,
          "time": 17.531250000000046,
          "velocity": 0.47244094488188976,
          "duration": 0.07499999999999929
        },
        {
          "name": "F#2",
          "midi": 42,
          "time": 17.625000000000046,
          "velocity": 0.6299212598425197,
          "duration": 0.14999999999999858
        },
        {
          "name": "F#3",
          "midi": 54,
          "time": 17.625000000000046,
          "velocity": 0.47244094488188976,
          "duration": 0.14999999999999858
        },
        {
          "name": "D2",
          "midi": 38,
          "time": 17.625000000000046,
          "velocity": 0.6299212598425197,
          "duration": 0.3000000000000007
        },
        {
          "name": "F#3",
          "midi": 54,
          "time": 17.812500000000046,
          "velocity": 0.47244094488188976,
          "duration": 0.07499999999999929
        },
        {
          "name": "F#3",
          "midi": 54,
          "time": 17.906250000000046,
          "velocity": 0.47244094488188976,
          "duration": 0.07499999999999929
        },
        {
          "name": "F#2",
          "midi": 42,
          "time": 18.000000000000046,
          "velocity": 1,
          "duration": 0.14999999999999858
        },
        {
          "name": "F#3",
          "midi": 54,
          "time": 18.000000000000046,
          "velocity": 0.47244094488188976,
          "duration": 0.14999999999999858
        },
        {
          "name": "C2",
          "midi": 36,
          "time": 18.000000000000046,
          "velocity": 1,
          "duration": 0.3000000000000007
        },
        {
          "name": "F#3",
          "midi": 54,
          "time": 18.187500000000046,
          "velocity": 0.47244094488188976,
          "duration": 0.07499999999999929
        },
        {
          "name": "F#2",
          "midi": 42,
          "time": 18.187500000000046,
          "velocity": 1,
          "duration": 0.15000000000000213
        },
        {
          "name": "F#3",
          "midi": 54,
          "time": 18.281250000000046,
          "velocity": 0.47244094488188976,
          "duration": 0.07500000000000284
        },
        {
          "name": "F#3",
          "midi": 54,
          "time": 18.37500000000005,
          "velocity": 0.47244094488188976,
          "duration": 0.14999999999999858
        },
        {
          "name": "F#2",
          "midi": 42,
          "time": 18.37500000000005,
          "velocity": 1,
          "duration": 0.14999999999999858
        },
        {
          "name": "D2",
          "midi": 38,
          "time": 18.37500000000005,
          "velocity": 1,
          "duration": 0.3000000000000007
        },
        {
          "name": "F#3",
          "midi": 54,
          "time": 18.56250000000005,
          "velocity": 0.47244094488188976,
          "duration": 0.07499999999999929
        },
        {
          "name": "F#2",
          "midi": 42,
          "time": 18.56250000000005,
          "velocity": 1,
          "duration": 0.15000000000000213
        },
        {
          "name": "F#3",
          "midi": 54,
          "time": 18.65625000000005,
          "velocity": 0.47244094488188976,
          "duration": 0.07500000000000284
        },
        {
          "name": "F#3",
          "midi": 54,
          "time": 18.750000000000053,
          "velocity": 0.47244094488188976,
          "duration": 0.14999999999999858
        },
        {
          "name": "F#2",
          "midi": 42,
          "time": 18.750000000000053,
          "velocity": 1,
          "duration": 0.14999999999999858
        },
        {
          "name": "C2",
          "midi": 36,
          "time": 18.750000000000053,
          "velocity": 1,
          "duration": 0.3000000000000007
        },
        {
          "name": "F#2",
          "midi": 42,
          "time": 18.937500000000053,
          "velocity": 1,
          "duration": 0.15000000000000213
        },
        {
          "name": "F#3",
          "midi": 54,
          "time": 18.937500000000053,
          "velocity": 0.47244094488188976,
          "duration": 0.07499999999999929
        },
        {
          "name": "F#3",
          "midi": 54,
          "time": 19.031250000000053,
          "velocity": 0.47244094488188976,
          "duration": 0.07500000000000284
        },
        {
          "name": "F#2",
          "midi": 42,
          "time": 19.125000000000057,
          "velocity": 1,
          "duration": 0.14999999999999858
        },
        {
          "name": "F#3",
          "midi": 54,
          "time": 19.125000000000057,
          "velocity": 0.47244094488188976,
          "duration": 0.14999999999999858
        },
        {
          "name": "D2",
          "midi": 38,
          "time": 19.125000000000057,
          "velocity": 1,
          "duration": 0.3000000000000007
        },
        {
          "name": "F#3",
          "midi": 54,
          "time": 19.312500000000057,
          "velocity": 0.47244094488188976,
          "duration": 0.07499999999999929
        },
        {
          "name": "A#2",
          "midi": 46,
          "time": 19.312500000000057,
          "velocity": 1,
          "duration": 0.15000000000000213
        },
        {
          "name": "C2",
          "midi": 36,
          "time": 19.312500000000057,
          "velocity": 1,
          "duration": 0.15000000000000213
        },
        {
          "name": "F#3",
          "midi": 54,
          "time": 19.406250000000057,
          "velocity": 0.47244094488188976,
          "duration": 0.07500000000000284
        },
        {
          "name": "F#3",
          "midi": 54,
          "time": 19.50000000000006,
          "velocity": 0.47244094488188976,
          "duration": 0.14999999999999858
        },
        {
          "name": "F#2",
          "midi": 42,
          "time": 19.50000000000006,
          "velocity": 1,
          "duration": 0.14999999999999858
        },
        {
          "name": "C2",
          "midi": 36,
          "time": 19.50000000000006,
          "velocity": 1,
          "duration": 0.3000000000000007
        },
        {
          "name": "F#3",
          "midi": 54,
          "time": 19.68750000000006,
          "velocity": 0.47244094488188976,
          "duration": 0.07499999999999929
        },
        {
          "name": "F#2",
          "midi": 42,
          "time": 19.68750000000006,
          "velocity": 1,
          "duration": 0.15000000000000213
        },
        {
          "name": "F#3",
          "midi": 54,
          "time": 19.78125000000006,
          "velocity": 0.47244094488188976,
          "duration": 0.07500000000000284
        },
        {
          "name": "F#2",
          "midi": 42,
          "time": 19.875000000000064,
          "velocity": 1,
          "duration": 0.14999999999999858
        },
        {
          "name": "F#3",
          "midi": 54,
          "time": 19.875000000000064,
          "velocity": 0.47244094488188976,
          "duration": 0.14999999999999858
        },
        {
          "name": "D2",
          "midi": 38,
          "time": 19.875000000000064,
          "velocity": 1,
          "duration": 0.3000000000000007
        },
        {
          "name": "F#2",
          "midi": 42,
          "time": 20.062500000000064,
          "velocity": 1,
          "duration": 0.15000000000000213
        },
        {
          "name": "F#3",
          "midi": 54,
          "time": 20.062500000000064,
          "velocity": 0.47244094488188976,
          "duration": 0.07499999999999929
        },
        {
          "name": "F#3",
          "midi": 54,
          "time": 20.156250000000064,
          "velocity": 0.47244094488188976,
          "duration": 0.07500000000000284
        },
        {
          "name": "F#3",
          "midi": 54,
          "time": 20.250000000000068,
          "velocity": 0.47244094488188976,
          "duration": 0.14999999999999858
        },
        {
          "name": "F#2",
          "midi": 42,
          "time": 20.250000000000068,
          "velocity": 1,
          "duration": 0.14999999999999858
        },
        {
          "name": "C2",
          "midi": 36,
          "time": 20.250000000000068,
          "velocity": 1,
          "duration": 0.3000000000000007
        },
        {
          "name": "F#3",
          "midi": 54,
          "time": 20.437500000000068,
          "velocity": 0.47244094488188976,
          "duration": 0.07499999999999929
        },
        {
          "name": "F#2",
          "midi": 42,
          "time": 20.437500000000068,
          "velocity": 1,
          "duration": 0.15000000000000213
        },
        {
          "name": "F#3",
          "midi": 54,
          "time": 20.531250000000068,
          "velocity": 0.47244094488188976,
          "duration": 0.07500000000000284
        },
        {
          "name": "F#3",
          "midi": 54,
          "time": 20.62500000000007,
          "velocity": 0.47244094488188976,
          "duration": 0.14999999999999858
        },
        {
          "name": "F#2",
          "midi": 42,
          "time": 20.62500000000007,
          "velocity": 1,
          "duration": 0.14999999999999858
        },
        {
          "name": "D2",
          "midi": 38,
          "time": 20.62500000000007,
          "velocity": 1,
          "duration": 0.3000000000000007
        },
        {
          "name": "F#3",
          "midi": 54,
          "time": 20.81250000000007,
          "velocity": 0.47244094488188976,
          "duration": 0.07499999999999929
        },
        {
          "name": "A#2",
          "midi": 46,
          "time": 20.81250000000007,
          "velocity": 1,
          "duration": 0.15000000000000213
        },
        {
          "name": "C2",
          "midi": 36,
          "time": 20.81250000000007,
          "velocity": 1,
          "duration": 0.15000000000000213
        },
        {
          "name": "F#3",
          "midi": 54,
          "time": 20.90625000000007,
          "velocity": 0.47244094488188976,
          "duration": 0.07500000000000284
        },
        {
          "name": "F#2",
          "midi": 42,
          "time": 21.000000000000075,
          "velocity": 1,
          "duration": 0.14999999999999858
        },
        {
          "name": "F#3",
          "midi": 54,
          "time": 21.000000000000075,
          "velocity": 0.47244094488188976,
          "duration": 0.14999999999999858
        },
        {
          "name": "C2",
          "midi": 36,
          "time": 21.000000000000075,
          "velocity": 1,
          "duration": 0.3000000000000007
        },
        {
          "name": "F#3",
          "midi": 54,
          "time": 21.187500000000075,
          "velocity": 0.47244094488188976,
          "duration": 0.07499999999999929
        },
        {
          "name": "F#2",
          "midi": 42,
          "time": 21.187500000000075,
          "velocity": 1,
          "duration": 0.15000000000000213
        },
        {
          "name": "F#3",
          "midi": 54,
          "time": 21.281250000000075,
          "velocity": 0.47244094488188976,
          "duration": 0.07500000000000284
        },
        {
          "name": "F#2",
          "midi": 42,
          "time": 21.375000000000078,
          "velocity": 1,
          "duration": 0.14999999999999858
        },
        {
          "name": "F#3",
          "midi": 54,
          "time": 21.375000000000078,
          "velocity": 0.47244094488188976,
          "duration": 0.14999999999999858
        },
        {
          "name": "D2",
          "midi": 38,
          "time": 21.375000000000078,
          "velocity": 1,
          "duration": 0.3000000000000007
        },
        {
          "name": "F#3",
          "midi": 54,
          "time": 21.562500000000078,
          "velocity": 0.47244094488188976,
          "duration": 0.07499999999999929
        },
        {
          "name": "F#2",
          "midi": 42,
          "time": 21.562500000000078,
          "velocity": 1,
          "duration": 0.15000000000000213
        },
        {
          "name": "C2",
          "midi": 36,
          "time": 21.562500000000078,
          "velocity": 1,
          "duration": 0.15000000000000213
        },
        {
          "name": "F#3",
          "midi": 54,
          "time": 21.656250000000078,
          "velocity": 0.47244094488188976,
          "duration": 0.07500000000000284
        },
        {
          "name": "F#3",
          "midi": 54,
          "time": 21.75000000000008,
          "velocity": 0.47244094488188976,
          "duration": 0.14999999999999858
        },
        {
          "name": "F#2",
          "midi": 42,
          "time": 21.75000000000008,
          "velocity": 1,
          "duration": 0.14999999999999858
        },
        {
          "name": "C2",
          "midi": 36,
          "time": 21.75000000000008,
          "velocity": 1,
          "duration": 0.3000000000000007
        },
        {
          "name": "F#3",
          "midi": 54,
          "time": 21.93750000000008,
          "velocity": 0.47244094488188976,
          "duration": 0.07499999999999929
        },
        {
          "name": "F#2",
          "midi": 42,
          "time": 21.93750000000008,
          "velocity": 1,
          "duration": 0.15000000000000213
        },
        {
          "name": "F#3",
          "midi": 54,
          "time": 22.03125000000008,
          "velocity": 0.47244094488188976,
          "duration": 0.07500000000000284
        },
        {
          "name": "F#3",
          "midi": 54,
          "time": 22.125000000000085,
          "velocity": 0.47244094488188976,
          "duration": 0.14999999999999858
        },
        {
          "name": "F#2",
          "midi": 42,
          "time": 22.125000000000085,
          "velocity": 1,
          "duration": 0.14999999999999858
        },
        {
          "name": "D2",
          "midi": 38,
          "time": 22.125000000000085,
          "velocity": 1,
          "duration": 0.3000000000000007
        },
        {
          "name": "F#3",
          "midi": 54,
          "time": 22.312500000000085,
          "velocity": 0.47244094488188976,
          "duration": 0.07499999999999929
        },
        {
          "name": "F#2",
          "midi": 42,
          "time": 22.312500000000085,
          "velocity": 1,
          "duration": 0.15000000000000213
        },
        {
          "name": "F#3",
          "midi": 54,
          "time": 22.406250000000085,
          "velocity": 0.47244094488188976,
          "duration": 0.07500000000000284
        },
        {
          "name": "F#3",
          "midi": 54,
          "time": 22.50000000000009,
          "velocity": 0.47244094488188976,
          "duration": 0.14999999999999858
        },
        {
          "name": "G2",
          "midi": 43,
          "time": 22.50000000000009,
          "velocity": 1,
          "duration": 0.14999999999999858
        },
        {
          "name": "F#2",
          "midi": 42,
          "time": 22.50000000000009,
          "velocity": 1,
          "duration": 0.14999999999999858
        },
        {
          "name": "C2",
          "midi": 36,
          "time": 22.50000000000009,
          "velocity": 1,
          "duration": 0.3000000000000007
        },
        {
          "name": "F#2",
          "midi": 42,
          "time": 22.68750000000009,
          "velocity": 1,
          "duration": 0.15000000000000213
        },
        {
          "name": "D3",
          "midi": 50,
          "time": 22.68750000000009,
          "velocity": 1,
          "duration": 0.15000000000000213
        },
        {
          "name": "F#3",
          "midi": 54,
          "time": 22.68750000000009,
          "velocity": 0.47244094488188976,
          "duration": 0.07499999999999929
        },
        {
          "name": "F#3",
          "midi": 54,
          "time": 22.78125000000009,
          "velocity": 0.47244094488188976,
          "duration": 0.07500000000000284
        },
        {
          "name": "F#3",
          "midi": 54,
          "time": 22.875000000000092,
          "velocity": 0.47244094488188976,
          "duration": 0.14999999999999858
        },
        {
          "name": "F#2",
          "midi": 42,
          "time": 22.875000000000092,
          "velocity": 1,
          "duration": 0.14999999999999858
        },
        {
          "name": "D3",
          "midi": 50,
          "time": 22.875000000000092,
          "velocity": 1,
          "duration": 0.14999999999999858
        },
        {
          "name": "D2",
          "midi": 38,
          "time": 22.875000000000092,
          "velocity": 1,
          "duration": 0.3000000000000007
        },
        {
          "name": "F#3",
          "midi": 54,
          "time": 23.062500000000092,
          "velocity": 0.47244094488188976,
          "duration": 0.07499999999999929
        },
        {
          "name": "F#2",
          "midi": 42,
          "time": 23.062500000000092,
          "velocity": 1,
          "duration": 0.15000000000000213
        },
        {
          "name": "C2",
          "midi": 36,
          "time": 23.062500000000092,
          "velocity": 1,
          "duration": 0.15000000000000213
        },
        {
          "name": "C3",
          "midi": 48,
          "time": 23.062500000000092,
          "velocity": 1,
          "duration": 0.15000000000000213
        },
        {
          "name": "F#3",
          "midi": 54,
          "time": 23.156250000000092,
          "velocity": 0.47244094488188976,
          "duration": 0.07500000000000284
        },
        {
          "name": "F#3",
          "midi": 54,
          "time": 23.250000000000096,
          "velocity": 0.47244094488188976,
          "duration": 0.14999999999999858
        },
        {
          "name": "G2",
          "midi": 43,
          "time": 23.250000000000096,
          "velocity": 1,
          "duration": 0.14999999999999858
        },
        {
          "name": "C2",
          "midi": 36,
          "time": 23.250000000000096,
          "velocity": 1,
          "duration": 0.14999999999999858
        },
        {
          "name": "F#2",
          "midi": 42,
          "time": 23.250000000000096,
          "velocity": 1,
          "duration": 0.14999999999999858
        },
        {
          "name": "F#3",
          "midi": 54,
          "time": 23.437500000000096,
          "velocity": 0.47244094488188976,
          "duration": 0.07499999999999929
        },
        {
          "name": "A3",
          "midi": 57,
          "time": 23.437500000000096,
          "velocity": 0.8661417322834646,
          "duration": 0.14999999999999858
        },
        {
          "name": "F#2",
          "midi": 42,
          "time": 23.437500000000096,
          "velocity": 1,
          "duration": 0.14999999999999858
        },
        {
          "name": "C2",
          "midi": 36,
          "time": 23.437500000000096,
          "velocity": 1,
          "duration": 0.4875000000000007
        },
        {
          "name": "F#3",
          "midi": 54,
          "time": 23.531250000000096,
          "velocity": 0.47244094488188976,
          "duration": 0.07499999999999929
        },
        {
          "name": "F#3",
          "midi": 54,
          "time": 23.625000000000096,
          "velocity": 0.47244094488188976,
          "duration": 0.14999999999999858
        },
        {
          "name": "A#2",
          "midi": 46,
          "time": 23.625000000000096,
          "velocity": 1,
          "duration": 0.33750000000000213
        },
        {
          "name": "F#3",
          "midi": 54,
          "time": 23.812500000000096,
          "velocity": 0.47244094488188976,
          "duration": 0.07499999999999929
        },
        {
          "name": "F#3",
          "midi": 54,
          "time": 23.906250000000096,
          "velocity": 0.47244094488188976,
          "duration": 0.07500000000000284
        },
        {
          "name": "F#2",
          "midi": 42,
          "time": 24.0000000000001,
          "velocity": 1,
          "duration": 0.14999999999999858
        },
        {
          "name": "F#3",
          "midi": 54,
          "time": 24.0000000000001,
          "velocity": 0.47244094488188976,
          "duration": 0.14999999999999858
        },
        {
          "name": "C2",
          "midi": 36,
          "time": 24.0000000000001,
          "velocity": 1,
          "duration": 0.3000000000000007
        },
        {
          "name": "F#3",
          "midi": 54,
          "time": 24.1875000000001,
          "velocity": 0.47244094488188976,
          "duration": 0.07499999999999929
        },
        {
          "name": "F#2",
          "midi": 42,
          "time": 24.1875000000001,
          "velocity": 1,
          "duration": 0.15000000000000213
        },
        {
          "name": "F#3",
          "midi": 54,
          "time": 24.2812500000001,
          "velocity": 0.47244094488188976,
          "duration": 0.07500000000000284
        },
        {
          "name": "F#3",
          "midi": 54,
          "time": 24.375000000000103,
          "velocity": 0.47244094488188976,
          "duration": 0.14999999999999858
        },
        {
          "name": "F#2",
          "midi": 42,
          "time": 24.375000000000103,
          "velocity": 1,
          "duration": 0.14999999999999858
        },
        {
          "name": "D2",
          "midi": 38,
          "time": 24.375000000000103,
          "velocity": 1,
          "duration": 0.3000000000000007
        },
        {
          "name": "F#3",
          "midi": 54,
          "time": 24.562500000000103,
          "velocity": 0.47244094488188976,
          "duration": 0.07499999999999929
        },
        {
          "name": "F#2",
          "midi": 42,
          "time": 24.562500000000103,
          "velocity": 1,
          "duration": 0.15000000000000213
        },
        {
          "name": "F#3",
          "midi": 54,
          "time": 24.656250000000103,
          "velocity": 0.47244094488188976,
          "duration": 0.07500000000000284
        },
        {
          "name": "F#3",
          "midi": 54,
          "time": 24.750000000000107,
          "velocity": 0.47244094488188976,
          "duration": 0.14999999999999858
        },
        {
          "name": "F#2",
          "midi": 42,
          "time": 24.750000000000107,
          "velocity": 1,
          "duration": 0.14999999999999858
        },
        {
          "name": "C2",
          "midi": 36,
          "time": 24.750000000000107,
          "velocity": 1,
          "duration": 0.3000000000000007
        },
        {
          "name": "F#2",
          "midi": 42,
          "time": 24.937500000000107,
          "velocity": 1,
          "duration": 0.15000000000000213
        },
        {
          "name": "F#3",
          "midi": 54,
          "time": 24.937500000000107,
          "velocity": 0.47244094488188976,
          "duration": 0.07499999999999929
        },
        {
          "name": "F#3",
          "midi": 54,
          "time": 25.031250000000107,
          "velocity": 0.47244094488188976,
          "duration": 0.07500000000000284
        },
        {
          "name": "F#3",
          "midi": 54,
          "time": 25.12500000000011,
          "velocity": 0.47244094488188976,
          "duration": 0.14999999999999858
        },
        {
          "name": "F#2",
          "midi": 42,
          "time": 25.12500000000011,
          "velocity": 1,
          "duration": 0.14999999999999858
        },
        {
          "name": "D2",
          "midi": 38,
          "time": 25.12500000000011,
          "velocity": 1,
          "duration": 0.3000000000000007
        },
        {
          "name": "F#3",
          "midi": 54,
          "time": 25.31250000000011,
          "velocity": 0.47244094488188976,
          "duration": 0.07499999999999929
        },
        {
          "name": "A#2",
          "midi": 46,
          "time": 25.31250000000011,
          "velocity": 1,
          "duration": 0.15000000000000213
        },
        {
          "name": "C2",
          "midi": 36,
          "time": 25.31250000000011,
          "velocity": 1,
          "duration": 0.15000000000000213
        },
        {
          "name": "F#3",
          "midi": 54,
          "time": 25.40625000000011,
          "velocity": 0.47244094488188976,
          "duration": 0.07500000000000284
        },
        {
          "name": "F#2",
          "midi": 42,
          "time": 25.500000000000114,
          "velocity": 1,
          "duration": 0.14999999999999858
        },
        {
          "name": "F#3",
          "midi": 54,
          "time": 25.500000000000114,
          "velocity": 0.47244094488188976,
          "duration": 0.14999999999999858
        },
        {
          "name": "C2",
          "midi": 36,
          "time": 25.500000000000114,
          "velocity": 1,
          "duration": 0.3000000000000007
        },
        {
          "name": "F#3",
          "midi": 54,
          "time": 25.687500000000114,
          "velocity": 0.47244094488188976,
          "duration": 0.07499999999999929
        },
        {
          "name": "F#2",
          "midi": 42,
          "time": 25.687500000000114,
          "velocity": 1,
          "duration": 0.15000000000000213
        },
        {
          "name": "F#3",
          "midi": 54,
          "time": 25.781250000000114,
          "velocity": 0.47244094488188976,
          "duration": 0.07500000000000284
        },
        {
          "name": "F#2",
          "midi": 42,
          "time": 25.875000000000117,
          "velocity": 1,
          "duration": 0.14999999999999858
        },
        {
          "name": "F#3",
          "midi": 54,
          "time": 25.875000000000117,
          "velocity": 0.47244094488188976,
          "duration": 0.14999999999999858
        },
        {
          "name": "D2",
          "midi": 38,
          "time": 25.875000000000117,
          "velocity": 1,
          "duration": 0.3000000000000007
        },
        {
          "name": "F#3",
          "midi": 54,
          "time": 26.062500000000117,
          "velocity": 0.47244094488188976,
          "duration": 0.07499999999999929
        },
        {
          "name": "F#2",
          "midi": 42,
          "time": 26.062500000000117,
          "velocity": 1,
          "duration": 0.15000000000000213
        },
        {
          "name": "F#3",
          "midi": 54,
          "time": 26.156250000000117,
          "velocity": 0.47244094488188976,
          "duration": 0.07500000000000284
        },
        {
          "name": "F#3",
          "midi": 54,
          "time": 26.25000000000012,
          "velocity": 0.47244094488188976,
          "duration": 0.14999999999999858
        },
        {
          "name": "F#2",
          "midi": 42,
          "time": 26.25000000000012,
          "velocity": 1,
          "duration": 0.14999999999999858
        },
        {
          "name": "C2",
          "midi": 36,
          "time": 26.25000000000012,
          "velocity": 1,
          "duration": 0.3000000000000007
        },
        {
          "name": "F#3",
          "midi": 54,
          "time": 26.43750000000012,
          "velocity": 0.47244094488188976,
          "duration": 0.07499999999999929
        },
        {
          "name": "F#2",
          "midi": 42,
          "time": 26.43750000000012,
          "velocity": 1,
          "duration": 0.15000000000000213
        },
        {
          "name": "F#3",
          "midi": 54,
          "time": 26.53125000000012,
          "velocity": 0.47244094488188976,
          "duration": 0.07500000000000284
        },
        {
          "name": "F#3",
          "midi": 54,
          "time": 26.625000000000124,
          "velocity": 0.47244094488188976,
          "duration": 0.14999999999999858
        },
        {
          "name": "F#2",
          "midi": 42,
          "time": 26.625000000000124,
          "velocity": 1,
          "duration": 0.14999999999999858
        },
        {
          "name": "D2",
          "midi": 38,
          "time": 26.625000000000124,
          "velocity": 1,
          "duration": 0.3000000000000007
        },
        {
          "name": "F#3",
          "midi": 54,
          "time": 26.812500000000124,
          "velocity": 0.47244094488188976,
          "duration": 0.07499999999999929
        },
        {
          "name": "A#2",
          "midi": 46,
          "time": 26.812500000000124,
          "velocity": 1,
          "duration": 0.15000000000000213
        },
        {
          "name": "C2",
          "midi": 36,
          "time": 26.812500000000124,
          "velocity": 1,
          "duration": 0.15000000000000213
        },
        {
          "name": "F#3",
          "midi": 54,
          "time": 26.906250000000124,
          "velocity": 0.47244094488188976,
          "duration": 0.07500000000000284
        },
        {
          "name": "F#2",
          "midi": 42,
          "time": 27.000000000000128,
          "velocity": 1,
          "duration": 0.14999999999999858
        },
        {
          "name": "F#3",
          "midi": 54,
          "time": 27.000000000000128,
          "velocity": 0.47244094488188976,
          "duration": 0.14999999999999858
        },
        {
          "name": "C2",
          "midi": 36,
          "time": 27.000000000000128,
          "velocity": 1,
          "duration": 0.3000000000000007
        },
        {
          "name": "F#3",
          "midi": 54,
          "time": 27.187500000000128,
          "velocity": 0.47244094488188976,
          "duration": 0.07499999999999929
        },
        {
          "name": "F#2",
          "midi": 42,
          "time": 27.187500000000128,
          "velocity": 1,
          "duration": 0.15000000000000213
        },
        {
          "name": "F#3",
          "midi": 54,
          "time": 27.281250000000128,
          "velocity": 0.47244094488188976,
          "duration": 0.07500000000000284
        },
        {
          "name": "F#3",
          "midi": 54,
          "time": 27.37500000000013,
          "velocity": 0.47244094488188976,
          "duration": 0.14999999999999858
        },
        {
          "name": "F#2",
          "midi": 42,
          "time": 27.37500000000013,
          "velocity": 1,
          "duration": 0.14999999999999858
        },
        {
          "name": "D2",
          "midi": 38,
          "time": 27.37500000000013,
          "velocity": 1,
          "duration": 0.3000000000000007
        },
        {
          "name": "F#3",
          "midi": 54,
          "time": 27.56250000000013,
          "velocity": 0.47244094488188976,
          "duration": 0.07499999999999929
        },
        {
          "name": "C2",
          "midi": 36,
          "time": 27.56250000000013,
          "velocity": 1,
          "duration": 0.15000000000000213
        },
        {
          "name": "F#2",
          "midi": 42,
          "time": 27.56250000000013,
          "velocity": 1,
          "duration": 0.15000000000000213
        },
        {
          "name": "F#3",
          "midi": 54,
          "time": 27.65625000000013,
          "velocity": 0.47244094488188976,
          "duration": 0.07500000000000284
        },
        {
          "name": "F#3",
          "midi": 54,
          "time": 27.750000000000135,
          "velocity": 0.47244094488188976,
          "duration": 0.14999999999999858
        },
        {
          "name": "F#2",
          "midi": 42,
          "time": 27.750000000000135,
          "velocity": 1,
          "duration": 0.14999999999999858
        },
        {
          "name": "C2",
          "midi": 36,
          "time": 27.750000000000135,
          "velocity": 1,
          "duration": 0.3000000000000007
        },
        {
          "name": "F#3",
          "midi": 54,
          "time": 27.937500000000135,
          "velocity": 0.47244094488188976,
          "duration": 0.07499999999999929
        },
        {
          "name": "D3",
          "midi": 50,
          "time": 27.937500000000135,
          "velocity": 1,
          "duration": 0.15000000000000213
        },
        {
          "name": "F#2",
          "midi": 42,
          "time": 27.937500000000135,
          "velocity": 1,
          "duration": 0.15000000000000213
        },
        {
          "name": "F#3",
          "midi": 54,
          "time": 28.031250000000135,
          "velocity": 0.47244094488188976,
          "duration": 0.07500000000000284
        },
        {
          "name": "F#2",
          "midi": 42,
          "time": 28.12500000000014,
          "velocity": 1,
          "duration": 0.14999999999999858
        },
        {
          "name": "F#3",
          "midi": 54,
          "time": 28.12500000000014,
          "velocity": 0.47244094488188976,
          "duration": 0.14999999999999858
        },
        {
          "name": "D3",
          "midi": 50,
          "time": 28.12500000000014,
          "velocity": 1,
          "duration": 0.14999999999999858
        },
        {
          "name": "D2",
          "midi": 38,
          "time": 28.12500000000014,
          "velocity": 1,
          "duration": 0.3000000000000007
        },
        {
          "name": "F#3",
          "midi": 54,
          "time": 28.31250000000014,
          "velocity": 0.47244094488188976,
          "duration": 0.07499999999999929
        },
        {
          "name": "F#2",
          "midi": 42,
          "time": 28.31250000000014,
          "velocity": 1,
          "duration": 0.15000000000000213
        },
        {
          "name": "D3",
          "midi": 50,
          "time": 28.31250000000014,
          "velocity": 1,
          "duration": 0.15000000000000213
        },
        {
          "name": "F#3",
          "midi": 54,
          "time": 28.40625000000014,
          "velocity": 0.47244094488188976,
          "duration": 0.07500000000000284
        },
        {
          "name": "F#3",
          "midi": 54,
          "time": 28.500000000000142,
          "velocity": 0.47244094488188976,
          "duration": 0.14999999999999858
        },
        {
          "name": "F#2",
          "midi": 42,
          "time": 28.500000000000142,
          "velocity": 1,
          "duration": 0.14999999999999858
        },
        {
          "name": "C2",
          "midi": 36,
          "time": 28.500000000000142,
          "velocity": 1,
          "duration": 0.3000000000000007
        },
        {
          "name": "C3",
          "midi": 48,
          "time": 28.687500000000142,
          "velocity": 1,
          "duration": 0.15000000000000213
        },
        {
          "name": "F#2",
          "midi": 42,
          "time": 28.687500000000142,
          "velocity": 1,
          "duration": 0.15000000000000213
        },
        {
          "name": "F#3",
          "midi": 54,
          "time": 28.687500000000142,
          "velocity": 0.47244094488188976,
          "duration": 0.07499999999999929
        },
        {
          "name": "F#3",
          "midi": 54,
          "time": 28.781250000000142,
          "velocity": 0.47244094488188976,
          "duration": 0.07500000000000284
        },
        {
          "name": "F#3",
          "midi": 54,
          "time": 28.875000000000146,
          "velocity": 0.47244094488188976,
          "duration": 0.14999999999999858
        },
        {
          "name": "B2",
          "midi": 47,
          "time": 28.875000000000146,
          "velocity": 1,
          "duration": 0.14999999999999858
        },
        {
          "name": "F#2",
          "midi": 42,
          "time": 28.875000000000146,
          "velocity": 1,
          "duration": 0.14999999999999858
        },
        {
          "name": "D2",
          "midi": 38,
          "time": 28.875000000000146,
          "velocity": 1,
          "duration": 0.3000000000000007
        },
        {
          "name": "F#3",
          "midi": 54,
          "time": 29.062500000000146,
          "velocity": 0.47244094488188976,
          "duration": 0.07499999999999929
        },
        {
          "name": "G2",
          "midi": 43,
          "time": 29.062500000000146,
          "velocity": 1,
          "duration": 0.15000000000000213
        },
        {
          "name": "C2",
          "midi": 36,
          "time": 29.062500000000146,
          "velocity": 1,
          "duration": 0.15000000000000213
        },
        {
          "name": "F#2",
          "midi": 42,
          "time": 29.062500000000146,
          "velocity": 1,
          "duration": 0.15000000000000213
        },
        {
          "name": "F#3",
          "midi": 54,
          "time": 29.156250000000146,
          "velocity": 0.47244094488188976,
          "duration": 0.07500000000000284
        },
        {
          "name": "F#3",
          "midi": 54,
          "time": 29.25000000000015,
          "velocity": 0.47244094488188976,
          "duration": 0.14999999999999858
        },
        {
          "name": "F#2",
          "midi": 42,
          "time": 29.25000000000015,
          "velocity": 1,
          "duration": 0.14999999999999858
        },
        {
          "name": "C2",
          "midi": 36,
          "time": 29.25000000000015,
          "velocity": 1,
          "duration": 0.14999999999999858
        },
        {
          "name": "F#3",
          "midi": 54,
          "time": 29.43750000000015,
          "velocity": 0.47244094488188976,
          "duration": 0.07499999999999929
        },
        {
          "name": "F#2",
          "midi": 42,
          "time": 29.43750000000015,
          "velocity": 1,
          "duration": 0.14999999999999858
        },
        {
          "name": "A3",
          "midi": 57,
          "time": 29.43750000000015,
          "velocity": 0.8661417322834646,
          "duration": 0.14999999999999858
        },
        {
          "name": "C2",
          "midi": 36,
          "time": 29.43750000000015,
          "velocity": 1,
          "duration": 0.4875000000000007
        },
        {
          "name": "F#3",
          "midi": 54,
          "time": 29.53125000000015,
          "velocity": 0.47244094488188976,
          "duration": 0.07499999999999929
        },
        {
          "name": "F#2",
          "midi": 42,
          "time": 29.62500000000015,
          "velocity": 0.6299212598425197,
          "duration": 0.14999999999999858
        },
        {
          "name": "F#3",
          "midi": 54,
          "time": 29.62500000000015,
          "velocity": 0.47244094488188976,
          "duration": 0.14999999999999858
        },
        {
          "name": "D2",
          "midi": 38,
          "time": 29.62500000000015,
          "velocity": 0.6299212598425197,
          "duration": 0.3000000000000007
        },
        {
          "name": "F#3",
          "midi": 54,
          "time": 29.81250000000015,
          "velocity": 0.47244094488188976,
          "duration": 0.07499999999999929
        },
        {
          "name": "F#3",
          "midi": 54,
          "time": 29.90625000000015,
          "velocity": 0.47244094488188976,
          "duration": 0.07499999999999929
        },
        {
          "name": "F#2",
          "midi": 42,
          "time": 30.00000000000015,
          "velocity": 1,
          "duration": 0.14999999999999858
        },
        {
          "name": "F#3",
          "midi": 54,
          "time": 30.00000000000015,
          "velocity": 0.47244094488188976,
          "duration": 0.14999999999999858
        },
        {
          "name": "C2",
          "midi": 36,
          "time": 30.00000000000015,
          "velocity": 1,
          "duration": 0.3000000000000007
        },
        {
          "name": "F#3",
          "midi": 54,
          "time": 30.18750000000015,
          "velocity": 0.47244094488188976,
          "duration": 0.07499999999999929
        },
        {
          "name": "F#2",
          "midi": 42,
          "time": 30.18750000000015,
          "velocity": 1,
          "duration": 0.15000000000000213
        },
        {
          "name": "F#3",
          "midi": 54,
          "time": 30.28125000000015,
          "velocity": 0.47244094488188976,
          "duration": 0.07500000000000284
        },
        {
          "name": "F#2",
          "midi": 42,
          "time": 30.375000000000153,
          "velocity": 1,
          "duration": 0.14999999999999858
        },
        {
          "name": "F#3",
          "midi": 54,
          "time": 30.375000000000153,
          "velocity": 0.47244094488188976,
          "duration": 0.14999999999999858
        },
        {
          "name": "D2",
          "midi": 38,
          "time": 30.375000000000153,
          "velocity": 1,
          "duration": 0.3000000000000007
        },
        {
          "name": "F#3",
          "midi": 54,
          "time": 30.562500000000153,
          "velocity": 0.47244094488188976,
          "duration": 0.07499999999999929
        },
        {
          "name": "F#2",
          "midi": 42,
          "time": 30.562500000000153,
          "velocity": 1,
          "duration": 0.15000000000000213
        },
        {
          "name": "F#3",
          "midi": 54,
          "time": 30.656250000000153,
          "velocity": 0.47244094488188976,
          "duration": 0.07500000000000284
        },
        {
          "name": "F#3",
          "midi": 54,
          "time": 30.750000000000156,
          "velocity": 0.47244094488188976,
          "duration": 0.14999999999999858
        },
        {
          "name": "F#2",
          "midi": 42,
          "time": 30.750000000000156,
          "velocity": 1,
          "duration": 0.14999999999999858
        },
        {
          "name": "C2",
          "midi": 36,
          "time": 30.750000000000156,
          "velocity": 1,
          "duration": 0.3000000000000007
        },
        {
          "name": "F#2",
          "midi": 42,
          "time": 30.937500000000156,
          "velocity": 1,
          "duration": 0.15000000000000213
        },
        {
          "name": "F#3",
          "midi": 54,
          "time": 30.937500000000156,
          "velocity": 0.47244094488188976,
          "duration": 0.07499999999999929
        },
        {
          "name": "F#3",
          "midi": 54,
          "time": 31.031250000000156,
          "velocity": 0.47244094488188976,
          "duration": 0.07500000000000284
        },
        {
          "name": "F#3",
          "midi": 54,
          "time": 31.12500000000016,
          "velocity": 0.47244094488188976,
          "duration": 0.14999999999999858
        },
        {
          "name": "F#2",
          "midi": 42,
          "time": 31.12500000000016,
          "velocity": 1,
          "duration": 0.14999999999999858
        },
        {
          "name": "D2",
          "midi": 38,
          "time": 31.12500000000016,
          "velocity": 1,
          "duration": 0.3000000000000007
        },
        {
          "name": "F#3",
          "midi": 54,
          "time": 31.31250000000016,
          "velocity": 0.47244094488188976,
          "duration": 0.07499999999999929
        },
        {
          "name": "C2",
          "midi": 36,
          "time": 31.31250000000016,
          "velocity": 1,
          "duration": 0.15000000000000213
        },
        {
          "name": "A#2",
          "midi": 46,
          "time": 31.31250000000016,
          "velocity": 1,
          "duration": 0.15000000000000213
        },
        {
          "name": "F#3",
          "midi": 54,
          "time": 31.40625000000016,
          "velocity": 0.47244094488188976,
          "duration": 0.07500000000000284
        },
        {
          "name": "F#3",
          "midi": 54,
          "time": 31.500000000000163,
          "velocity": 0.47244094488188976,
          "duration": 0.14999999999999858
        },
        {
          "name": "F#2",
          "midi": 42,
          "time": 31.500000000000163,
          "velocity": 1,
          "duration": 0.14999999999999858
        },
        {
          "name": "C2",
          "midi": 36,
          "time": 31.500000000000163,
          "velocity": 1,
          "duration": 0.3000000000000007
        },
        {
          "name": "F#3",
          "midi": 54,
          "time": 31.687500000000163,
          "velocity": 0.47244094488188976,
          "duration": 0.07499999999999929
        },
        {
          "name": "F#2",
          "midi": 42,
          "time": 31.687500000000163,
          "velocity": 1,
          "duration": 0.15000000000000213
        },
        {
          "name": "F#3",
          "midi": 54,
          "time": 31.781250000000163,
          "velocity": 0.47244094488188976,
          "duration": 0.07500000000000284
        },
        {
          "name": "F#2",
          "midi": 42,
          "time": 31.875000000000167,
          "velocity": 1,
          "duration": 0.15000000000000213
        },
        {
          "name": "F#3",
          "midi": 54,
          "time": 31.875000000000167,
          "velocity": 0.47244094488188976,
          "duration": 0.15000000000000213
        },
        {
          "name": "D2",
          "midi": 38,
          "time": 31.875000000000167,
          "velocity": 1,
          "duration": 0.3000000000000007
        },
        {
          "name": "F#2",
          "midi": 42,
          "time": 32.06250000000017,
          "velocity": 1,
          "duration": 0.14999999999999858
        },
        {
          "name": "F#3",
          "midi": 54,
          "time": 32.06250000000017,
          "velocity": 0.47244094488188976,
          "duration": 0.07500000000000284
        },
        {
          "name": "F#3",
          "midi": 54,
          "time": 32.15625000000017,
          "velocity": 0.47244094488188976,
          "duration": 0.07499999999999574
        },
        {
          "name": "F#3",
          "midi": 54,
          "time": 32.25000000000016,
          "velocity": 0.47244094488188976,
          "duration": 0.14999999999999858
        },
        {
          "name": "F#2",
          "midi": 42,
          "time": 32.25000000000016,
          "velocity": 1,
          "duration": 0.14999999999999858
        },
        {
          "name": "C2",
          "midi": 36,
          "time": 32.25000000000016,
          "velocity": 1,
          "duration": 0.29999999999999716
        },
        {
          "name": "F#3",
          "midi": 54,
          "time": 32.43750000000016,
          "velocity": 0.47244094488188976,
          "duration": 0.07500000000000284
        },
        {
          "name": "F#2",
          "midi": 42,
          "time": 32.43750000000016,
          "velocity": 1,
          "duration": 0.14999999999999858
        },
        {
          "name": "F#3",
          "midi": 54,
          "time": 32.53125000000016,
          "velocity": 0.47244094488188976,
          "duration": 0.07499999999999574
        },
        {
          "name": "F#2",
          "midi": 42,
          "time": 32.625000000000156,
          "velocity": 1,
          "duration": 0.14999999999999858
        },
        {
          "name": "F#3",
          "midi": 54,
          "time": 32.625000000000156,
          "velocity": 0.47244094488188976,
          "duration": 0.14999999999999858
        },
        {
          "name": "D2",
          "midi": 38,
          "time": 32.625000000000156,
          "velocity": 1,
          "duration": 0.29999999999999716
        },
        {
          "name": "F#3",
          "midi": 54,
          "time": 32.812500000000156,
          "velocity": 0.47244094488188976,
          "duration": 0.07500000000000284
        },
        {
          "name": "C2",
          "midi": 36,
          "time": 32.812500000000156,
          "velocity": 1,
          "duration": 0.14999999999999858
        },
        {
          "name": "A#2",
          "midi": 46,
          "time": 32.812500000000156,
          "velocity": 1,
          "duration": 0.14999999999999858
        },
        {
          "name": "F#3",
          "midi": 54,
          "time": 32.906250000000156,
          "velocity": 0.47244094488188976,
          "duration": 0.07499999999999574
        },
        {
          "name": "F#2",
          "midi": 42,
          "time": 33.00000000000015,
          "velocity": 1,
          "duration": 0.14999999999999858
        },
        {
          "name": "F#3",
          "midi": 54,
          "time": 33.00000000000015,
          "velocity": 0.47244094488188976,
          "duration": 0.14999999999999858
        },
        {
          "name": "C2",
          "midi": 36,
          "time": 33.00000000000015,
          "velocity": 1,
          "duration": 0.29999999999999716
        },
        {
          "name": "F#3",
          "midi": 54,
          "time": 33.18750000000015,
          "velocity": 0.47244094488188976,
          "duration": 0.07500000000000284
        },
        {
          "name": "F#2",
          "midi": 42,
          "time": 33.18750000000015,
          "velocity": 1,
          "duration": 0.14999999999999858
        },
        {
          "name": "F#3",
          "midi": 54,
          "time": 33.28125000000015,
          "velocity": 0.47244094488188976,
          "duration": 0.07499999999999574
        },
        {
          "name": "F#2",
          "midi": 42,
          "time": 33.37500000000014,
          "velocity": 1,
          "duration": 0.14999999999999858
        },
        {
          "name": "F#3",
          "midi": 54,
          "time": 33.37500000000014,
          "velocity": 0.47244094488188976,
          "duration": 0.14999999999999858
        },
        {
          "name": "D2",
          "midi": 38,
          "time": 33.37500000000014,
          "velocity": 1,
          "duration": 0.29999999999999716
        },
        {
          "name": "F#3",
          "midi": 54,
          "time": 33.56250000000014,
          "velocity": 0.47244094488188976,
          "duration": 0.07500000000000284
        },
        {
          "name": "C2",
          "midi": 36,
          "time": 33.56250000000014,
          "velocity": 1,
          "duration": 0.14999999999999858
        },
        {
          "name": "F#2",
          "midi": 42,
          "time": 33.56250000000014,
          "velocity": 1,
          "duration": 0.14999999999999858
        },
        {
          "name": "F#3",
          "midi": 54,
          "time": 33.65625000000014,
          "velocity": 0.47244094488188976,
          "duration": 0.07499999999999574
        },
        {
          "name": "F#3",
          "midi": 54,
          "time": 33.750000000000135,
          "velocity": 0.47244094488188976,
          "duration": 0.14999999999999858
        },
        {
          "name": "F#2",
          "midi": 42,
          "time": 33.750000000000135,
          "velocity": 1,
          "duration": 0.14999999999999858
        },
        {
          "name": "C2",
          "midi": 36,
          "time": 33.750000000000135,
          "velocity": 1,
          "duration": 0.29999999999999716
        },
        {
          "name": "F#3",
          "midi": 54,
          "time": 33.937500000000135,
          "velocity": 0.47244094488188976,
          "duration": 0.07500000000000284
        },
        {
          "name": "F#2",
          "midi": 42,
          "time": 33.937500000000135,
          "velocity": 1,
          "duration": 0.14999999999999858
        },
        {
          "name": "F#3",
          "midi": 54,
          "time": 34.031250000000135,
          "velocity": 0.47244094488188976,
          "duration": 0.07499999999999574
        },
        {
          "name": "F#2",
          "midi": 42,
          "time": 34.12500000000013,
          "velocity": 1,
          "duration": 0.14999999999999858
        },
        {
          "name": "F#3",
          "midi": 54,
          "time": 34.12500000000013,
          "velocity": 0.47244094488188976,
          "duration": 0.14999999999999858
        },
        {
          "name": "D2",
          "midi": 38,
          "time": 34.12500000000013,
          "velocity": 1,
          "duration": 0.29999999999999716
        },
        {
          "name": "F#3",
          "midi": 54,
          "time": 34.31250000000013,
          "velocity": 0.47244094488188976,
          "duration": 0.07500000000000284
        },
        {
          "name": "F#2",
          "midi": 42,
          "time": 34.31250000000013,
          "velocity": 1,
          "duration": 0.14999999999999858
        },
        {
          "name": "F#3",
          "midi": 54,
          "time": 34.40625000000013,
          "velocity": 0.47244094488188976,
          "duration": 0.07499999999999574
        },
        {
          "name": "F#3",
          "midi": 54,
          "time": 34.50000000000012,
          "velocity": 0.47244094488188976,
          "duration": 0.14999999999999858
        },
        {
          "name": "F#2",
          "midi": 42,
          "time": 34.50000000000012,
          "velocity": 1,
          "duration": 0.14999999999999858
        },
        {
          "name": "G2",
          "midi": 43,
          "time": 34.50000000000012,
          "velocity": 1,
          "duration": 0.14999999999999858
        },
        {
          "name": "C2",
          "midi": 36,
          "time": 34.50000000000012,
          "velocity": 1,
          "duration": 0.29999999999999716
        },
        {
          "name": "F#2",
          "midi": 42,
          "time": 34.68750000000012,
          "velocity": 1,
          "duration": 0.14999999999999858
        },
        {
          "name": "D3",
          "midi": 50,
          "time": 34.68750000000012,
          "velocity": 1,
          "duration": 0.14999999999999858
        },
        {
          "name": "F#3",
          "midi": 54,
          "time": 34.68750000000012,
          "velocity": 0.47244094488188976,
          "duration": 0.07500000000000284
        },
        {
          "name": "F#3",
          "midi": 54,
          "time": 34.78125000000012,
          "velocity": 0.47244094488188976,
          "duration": 0.07499999999999574
        },
        {
          "name": "F#3",
          "midi": 54,
          "time": 34.875000000000114,
          "velocity": 0.47244094488188976,
          "duration": 0.14999999999999858
        },
        {
          "name": "D3",
          "midi": 50,
          "time": 34.875000000000114,
          "velocity": 1,
          "duration": 0.14999999999999858
        },
        {
          "name": "F#2",
          "midi": 42,
          "time": 34.875000000000114,
          "velocity": 1,
          "duration": 0.14999999999999858
        },
        {
          "name": "D2",
          "midi": 38,
          "time": 34.875000000000114,
          "velocity": 1,
          "duration": 0.29999999999999716
        },
        {
          "name": "F#3",
          "midi": 54,
          "time": 35.062500000000114,
          "velocity": 0.47244094488188976,
          "duration": 0.07500000000000284
        },
        {
          "name": "C3",
          "midi": 48,
          "time": 35.062500000000114,
          "velocity": 1,
          "duration": 0.14999999999999858
        },
        {
          "name": "F#2",
          "midi": 42,
          "time": 35.062500000000114,
          "velocity": 1,
          "duration": 0.14999999999999858
        },
        {
          "name": "C2",
          "midi": 36,
          "time": 35.062500000000114,
          "velocity": 1,
          "duration": 0.14999999999999858
        },
        {
          "name": "F#3",
          "midi": 54,
          "time": 35.156250000000114,
          "velocity": 0.47244094488188976,
          "duration": 0.07499999999999574
        },
        {
          "name": "F#3",
          "midi": 54,
          "time": 35.25000000000011,
          "velocity": 0.47244094488188976,
          "duration": 0.14999999999999858
        },
        {
          "name": "C2",
          "midi": 36,
          "time": 35.25000000000011,
          "velocity": 1,
          "duration": 0.14999999999999858
        },
        {
          "name": "G2",
          "midi": 43,
          "time": 35.25000000000011,
          "velocity": 1,
          "duration": 0.14999999999999858
        },
        {
          "name": "F#2",
          "midi": 42,
          "time": 35.25000000000011,
          "velocity": 1,
          "duration": 0.14999999999999858
        },
        {
          "name": "F#3",
          "midi": 54,
          "time": 35.43750000000011,
          "velocity": 0.47244094488188976,
          "duration": 0.07500000000000284
        },
        {
          "name": "A3",
          "midi": 57,
          "time": 35.43750000000011,
          "velocity": 0.8661417322834646,
          "duration": 0.14999999999999858
        },
        {
          "name": "F#2",
          "midi": 42,
          "time": 35.43750000000011,
          "velocity": 1,
          "duration": 0.14999999999999858
        },
        {
          "name": "C2",
          "midi": 36,
          "time": 35.43750000000011,
          "velocity": 1,
          "duration": 0.48749999999999005
        },
        {
          "name": "F#3",
          "midi": 54,
          "time": 35.53125000000011,
          "velocity": 0.47244094488188976,
          "duration": 0.07499999999999574
        },
        {
          "name": "F#3",
          "midi": 54,
          "time": 35.6250000000001,
          "velocity": 0.47244094488188976,
          "duration": 0.14999999999999858
        },
        {
          "name": "A#2",
          "midi": 46,
          "time": 35.6250000000001,
          "velocity": 1,
          "duration": 0.3374999999999986
        },
        {
          "name": "F#3",
          "midi": 54,
          "time": 35.8125000000001,
          "velocity": 0.47244094488188976,
          "duration": 0.07500000000000284
        },
        {
          "name": "F#3",
          "midi": 54,
          "time": 35.9062500000001,
          "velocity": 0.47244094488188976,
          "duration": 0.07499999999999574
        },
        {
          "name": "F#2",
          "midi": 42,
          "time": 36.00000000000009,
          "velocity": 1,
          "duration": 0.14999999999999858
        },
        {
          "name": "F#3",
          "midi": 54,
          "time": 36.00000000000009,
          "velocity": 0.47244094488188976,
          "duration": 0.14999999999999858
        },
        {
          "name": "C2",
          "midi": 36,
          "time": 36.00000000000009,
          "velocity": 1,
          "duration": 0.29999999999999716
        },
        {
          "name": "F#2",
          "midi": 42,
          "time": 36.18750000000009,
          "velocity": 1,
          "duration": 0.14999999999999858
        },
        {
          "name": "F#3",
          "midi": 54,
          "time": 36.18750000000009,
          "velocity": 0.47244094488188976,
          "duration": 0.07500000000000284
        },
        {
          "name": "F#3",
          "midi": 54,
          "time": 36.28125000000009,
          "velocity": 0.47244094488188976,
          "duration": 0.07499999999999574
        },
        {
          "name": "F#2",
          "midi": 42,
          "time": 36.375000000000085,
          "velocity": 1,
          "duration": 0.14999999999999858
        },
        {
          "name": "F#3",
          "midi": 54,
          "time": 36.375000000000085,
          "velocity": 0.47244094488188976,
          "duration": 0.14999999999999858
        },
        {
          "name": "D2",
          "midi": 38,
          "time": 36.375000000000085,
          "velocity": 1,
          "duration": 0.29999999999999716
        },
        {
          "name": "F#2",
          "midi": 42,
          "time": 36.562500000000085,
          "velocity": 1,
          "duration": 0.14999999999999858
        },
        {
          "name": "F#3",
          "midi": 54,
          "time": 36.562500000000085,
          "velocity": 0.47244094488188976,
          "duration": 0.07500000000000284
        },
        {
          "name": "F#3",
          "midi": 54,
          "time": 36.656250000000085,
          "velocity": 0.47244094488188976,
          "duration": 0.07499999999999574
        },
        {
          "name": "F#2",
          "midi": 42,
          "time": 36.75000000000008,
          "velocity": 1,
          "duration": 0.14999999999999858
        },
        {
          "name": "F#3",
          "midi": 54,
          "time": 36.75000000000008,
          "velocity": 0.47244094488188976,
          "duration": 0.14999999999999858
        },
        {
          "name": "C2",
          "midi": 36,
          "time": 36.75000000000008,
          "velocity": 1,
          "duration": 0.29999999999999716
        },
        {
          "name": "F#2",
          "midi": 42,
          "time": 36.93750000000008,
          "velocity": 1,
          "duration": 0.14999999999999858
        },
        {
          "name": "F#3",
          "midi": 54,
          "time": 36.93750000000008,
          "velocity": 0.47244094488188976,
          "duration": 0.07500000000000284
        },
        {
          "name": "F#3",
          "midi": 54,
          "time": 37.03125000000008,
          "velocity": 0.47244094488188976,
          "duration": 0.07499999999999574
        },
        {
          "name": "F#2",
          "midi": 42,
          "time": 37.12500000000007,
          "velocity": 1,
          "duration": 0.14999999999999858
        },
        {
          "name": "F#3",
          "midi": 54,
          "time": 37.12500000000007,
          "velocity": 0.47244094488188976,
          "duration": 0.14999999999999858
        },
        {
          "name": "D2",
          "midi": 38,
          "time": 37.12500000000007,
          "velocity": 1,
          "duration": 0.29999999999999716
        },
        {
          "name": "F#3",
          "midi": 54,
          "time": 37.31250000000007,
          "velocity": 0.47244094488188976,
          "duration": 0.07500000000000284
        },
        {
          "name": "C2",
          "midi": 36,
          "time": 37.31250000000007,
          "velocity": 1,
          "duration": 0.14999999999999858
        },
        {
          "name": "A#2",
          "midi": 46,
          "time": 37.31250000000007,
          "velocity": 1,
          "duration": 0.14999999999999858
        },
        {
          "name": "F#3",
          "midi": 54,
          "time": 37.40625000000007,
          "velocity": 0.47244094488188976,
          "duration": 0.07499999999999574
        },
        {
          "name": "F#2",
          "midi": 42,
          "time": 37.500000000000064,
          "velocity": 1,
          "duration": 0.14999999999999858
        },
        {
          "name": "F#3",
          "midi": 54,
          "time": 37.500000000000064,
          "velocity": 0.47244094488188976,
          "duration": 0.14999999999999858
        },
        {
          "name": "C2",
          "midi": 36,
          "time": 37.500000000000064,
          "velocity": 1,
          "duration": 0.29999999999999716
        },
        {
          "name": "F#2",
          "midi": 42,
          "time": 37.687500000000064,
          "velocity": 1,
          "duration": 0.14999999999999858
        },
        {
          "name": "F#3",
          "midi": 54,
          "time": 37.687500000000064,
          "velocity": 0.47244094488188976,
          "duration": 0.07500000000000284
        },
        {
          "name": "F#3",
          "midi": 54,
          "time": 37.781250000000064,
          "velocity": 0.47244094488188976,
          "duration": 0.07499999999999574
        },
        {
          "name": "F#2",
          "midi": 42,
          "time": 37.87500000000006,
          "velocity": 1,
          "duration": 0.14999999999999858
        },
        {
          "name": "F#3",
          "midi": 54,
          "time": 37.87500000000006,
          "velocity": 0.47244094488188976,
          "duration": 0.14999999999999858
        },
        {
          "name": "D2",
          "midi": 38,
          "time": 37.87500000000006,
          "velocity": 1,
          "duration": 0.29999999999999716
        },
        {
          "name": "F#2",
          "midi": 42,
          "time": 38.06250000000006,
          "velocity": 1,
          "duration": 0.14999999999999858
        },
        {
          "name": "F#3",
          "midi": 54,
          "time": 38.06250000000006,
          "velocity": 0.47244094488188976,
          "duration": 0.07500000000000284
        },
        {
          "name": "F#3",
          "midi": 54,
          "time": 38.15625000000006,
          "velocity": 0.47244094488188976,
          "duration": 0.07499999999999574
        },
        {
          "name": "F#2",
          "midi": 42,
          "time": 38.25000000000005,
          "velocity": 1,
          "duration": 0.14999999999999858
        },
        {
          "name": "F#3",
          "midi": 54,
          "time": 38.25000000000005,
          "velocity": 0.47244094488188976,
          "duration": 0.14999999999999858
        },
        {
          "name": "C2",
          "midi": 36,
          "time": 38.25000000000005,
          "velocity": 1,
          "duration": 0.29999999999999716
        },
        {
          "name": "F#3",
          "midi": 54,
          "time": 38.43750000000005,
          "velocity": 0.47244094488188976,
          "duration": 0.07500000000000284
        },
        {
          "name": "F#2",
          "midi": 42,
          "time": 38.43750000000005,
          "velocity": 1,
          "duration": 0.14999999999999858
        },
        {
          "name": "F#3",
          "midi": 54,
          "time": 38.53125000000005,
          "velocity": 0.47244094488188976,
          "duration": 0.07499999999999574
        },
        {
          "name": "F#2",
          "midi": 42,
          "time": 38.62500000000004,
          "velocity": 1,
          "duration": 0.14999999999999858
        },
        {
          "name": "F#3",
          "midi": 54,
          "time": 38.62500000000004,
          "velocity": 0.47244094488188976,
          "duration": 0.14999999999999858
        },
        {
          "name": "D2",
          "midi": 38,
          "time": 38.62500000000004,
          "velocity": 1,
          "duration": 0.29999999999999716
        },
        {
          "name": "F#3",
          "midi": 54,
          "time": 38.81250000000004,
          "velocity": 0.47244094488188976,
          "duration": 0.07500000000000284
        },
        {
          "name": "A#2",
          "midi": 46,
          "time": 38.81250000000004,
          "velocity": 1,
          "duration": 0.14999999999999858
        },
        {
          "name": "C2",
          "midi": 36,
          "time": 38.81250000000004,
          "velocity": 1,
          "duration": 0.14999999999999858
        },
        {
          "name": "F#3",
          "midi": 54,
          "time": 38.90625000000004,
          "velocity": 0.47244094488188976,
          "duration": 0.07499999999999574
        },
        {
          "name": "F#2",
          "midi": 42,
          "time": 39.000000000000036,
          "velocity": 1,
          "duration": 0.14999999999999858
        },
        {
          "name": "F#3",
          "midi": 54,
          "time": 39.000000000000036,
          "velocity": 0.47244094488188976,
          "duration": 0.14999999999999858
        },
        {
          "name": "C2",
          "midi": 36,
          "time": 39.000000000000036,
          "velocity": 1,
          "duration": 0.29999999999999716
        },
        {
          "name": "F#3",
          "midi": 54,
          "time": 39.187500000000036,
          "velocity": 0.47244094488188976,
          "duration": 0.07500000000000284
        },
        {
          "name": "F#2",
          "midi": 42,
          "time": 39.187500000000036,
          "velocity": 1,
          "duration": 0.14999999999999858
        },
        {
          "name": "F#3",
          "midi": 54,
          "time": 39.281250000000036,
          "velocity": 0.47244094488188976,
          "duration": 0.07499999999999574
        },
        {
          "name": "F#2",
          "midi": 42,
          "time": 39.37500000000003,
          "velocity": 1,
          "duration": 0.14999999999999858
        },
        {
          "name": "F#3",
          "midi": 54,
          "time": 39.37500000000003,
          "velocity": 0.47244094488188976,
          "duration": 0.14999999999999858
        },
        {
          "name": "D2",
          "midi": 38,
          "time": 39.37500000000003,
          "velocity": 1,
          "duration": 0.29999999999999716
        },
        {
          "name": "F#2",
          "midi": 42,
          "time": 39.56250000000003,
          "velocity": 1,
          "duration": 0.14999999999999858
        },
        {
          "name": "C2",
          "midi": 36,
          "time": 39.56250000000003,
          "velocity": 1,
          "duration": 0.14999999999999858
        },
        {
          "name": "F#3",
          "midi": 54,
          "time": 39.56250000000003,
          "velocity": 0.47244094488188976,
          "duration": 0.07500000000000284
        },
        {
          "name": "F#3",
          "midi": 54,
          "time": 39.65625000000003,
          "velocity": 0.47244094488188976,
          "duration": 0.07499999999999574
        },
        {
          "name": "F#3",
          "midi": 54,
          "time": 39.75000000000002,
          "velocity": 0.47244094488188976,
          "duration": 0.14999999999999858
        },
        {
          "name": "F#2",
          "midi": 42,
          "time": 39.75000000000002,
          "velocity": 1,
          "duration": 0.14999999999999858
        },
        {
          "name": "C2",
          "midi": 36,
          "time": 39.75000000000002,
          "velocity": 1,
          "duration": 0.29999999999999716
        },
        {
          "name": "F#3",
          "midi": 54,
          "time": 39.93750000000002,
          "velocity": 0.47244094488188976,
          "duration": 0.07500000000000284
        },
        {
          "name": "D3",
          "midi": 50,
          "time": 39.93750000000002,
          "velocity": 1,
          "duration": 0.14999999999999858
        },
        {
          "name": "F#2",
          "midi": 42,
          "time": 39.93750000000002,
          "velocity": 1,
          "duration": 0.14999999999999858
        },
        {
          "name": "F#3",
          "midi": 54,
          "time": 40.03125000000002,
          "velocity": 0.47244094488188976,
          "duration": 0.07499999999999574
        },
        {
          "name": "D3",
          "midi": 50,
          "time": 40.125000000000014,
          "velocity": 1,
          "duration": 0.14999999999999858
        },
        {
          "name": "F#3",
          "midi": 54,
          "time": 40.125000000000014,
          "velocity": 0.47244094488188976,
          "duration": 0.14999999999999858
        },
        {
          "name": "F#2",
          "midi": 42,
          "time": 40.125000000000014,
          "velocity": 1,
          "duration": 0.14999999999999858
        },
        {
          "name": "D2",
          "midi": 38,
          "time": 40.125000000000014,
          "velocity": 1,
          "duration": 0.29999999999999716
        },
        {
          "name": "F#3",
          "midi": 54,
          "time": 40.312500000000014,
          "velocity": 0.47244094488188976,
          "duration": 0.07500000000000284
        },
        {
          "name": "F#2",
          "midi": 42,
          "time": 40.312500000000014,
          "velocity": 1,
          "duration": 0.14999999999999858
        },
        {
          "name": "D3",
          "midi": 50,
          "time": 40.312500000000014,
          "velocity": 1,
          "duration": 0.14999999999999858
        },
        {
          "name": "F#3",
          "midi": 54,
          "time": 40.406250000000014,
          "velocity": 0.47244094488188976,
          "duration": 0.07499999999999574
        },
        {
          "name": "F#3",
          "midi": 54,
          "time": 40.50000000000001,
          "velocity": 0.47244094488188976,
          "duration": 0.14999999999999858
        },
        {
          "name": "F#2",
          "midi": 42,
          "time": 40.50000000000001,
          "velocity": 1,
          "duration": 0.14999999999999858
        },
        {
          "name": "C2",
          "midi": 36,
          "time": 40.50000000000001,
          "velocity": 1,
          "duration": 0.29999999999999716
        },
        {
          "name": "F#2",
          "midi": 42,
          "time": 40.68750000000001,
          "velocity": 1,
          "duration": 0.14999999999999858
        },
        {
          "name": "C3",
          "midi": 48,
          "time": 40.68750000000001,
          "velocity": 1,
          "duration": 0.14999999999999858
        },
        {
          "name": "F#3",
          "midi": 54,
          "time": 40.68750000000001,
          "velocity": 0.47244094488188976,
          "duration": 0.07500000000000284
        },
        {
          "name": "F#3",
          "midi": 54,
          "time": 40.78125000000001,
          "velocity": 0.47244094488188976,
          "duration": 0.07499999999999574
        },
        {
          "name": "B2",
          "midi": 47,
          "time": 40.875,
          "velocity": 1,
          "duration": 0.14999999999999858
        },
        {
          "name": "F#2",
          "midi": 42,
          "time": 40.875,
          "velocity": 1,
          "duration": 0.14999999999999858
        },
        {
          "name": "F#3",
          "midi": 54,
          "time": 40.875,
          "velocity": 0.47244094488188976,
          "duration": 0.14999999999999858
        },
        {
          "name": "D2",
          "midi": 38,
          "time": 40.875,
          "velocity": 1,
          "duration": 0.29999999999999716
        },
        {
          "name": "G2",
          "midi": 43,
          "time": 41.0625,
          "velocity": 1,
          "duration": 0.14999999999999858
        },
        {
          "name": "F#3",
          "midi": 54,
          "time": 41.0625,
          "velocity": 0.47244094488188976,
          "duration": 0.07500000000000284
        },
        {
          "name": "F#2",
          "midi": 42,
          "time": 41.0625,
          "velocity": 1,
          "duration": 0.14999999999999858
        },
        {
          "name": "C2",
          "midi": 36,
          "time": 41.0625,
          "velocity": 1,
          "duration": 0.14999999999999858
        },
        {
          "name": "F#3",
          "midi": 54,
          "time": 41.15625,
          "velocity": 0.47244094488188976,
          "duration": 0.07499999999999574
        },
        {
          "name": "F#2",
          "midi": 42,
          "time": 41.24999999999999,
          "velocity": 1,
          "duration": 0.14999999999999858
        },
        {
          "name": "F#3",
          "midi": 54,
          "time": 41.24999999999999,
          "velocity": 0.47244094488188976,
          "duration": 0.14999999999999858
        },
        {
          "name": "C2",
          "midi": 36,
          "time": 41.24999999999999,
          "velocity": 1,
          "duration": 0.14999999999999858
        },
        {
          "name": "F#3",
          "midi": 54,
          "time": 41.43749999999999,
          "velocity": 0.47244094488188976,
          "duration": 0.07500000000000284
        },
        {
          "name": "F#2",
          "midi": 42,
          "time": 41.43749999999999,
          "velocity": 1,
          "duration": 0.14999999999999858
        },
        {
          "name": "A3",
          "midi": 57,
          "time": 41.43749999999999,
          "velocity": 0.8661417322834646,
          "duration": 0.14999999999999858
        },
        {
          "name": "C2",
          "midi": 36,
          "time": 41.43749999999999,
          "velocity": 1,
          "duration": 0.48749999999999005
        },
        {
          "name": "F#3",
          "midi": 54,
          "time": 41.53124999999999,
          "velocity": 0.47244094488188976,
          "duration": 0.07499999999999574
        },
        {
          "name": "F#2",
          "midi": 42,
          "time": 41.624999999999986,
          "velocity": 0.6299212598425197,
          "duration": 0.14999999999999858
        },
        {
          "name": "F#3",
          "midi": 54,
          "time": 41.624999999999986,
          "velocity": 0.47244094488188976,
          "duration": 0.14999999999999858
        },
        {
          "name": "D2",
          "midi": 38,
          "time": 41.624999999999986,
          "velocity": 0.6299212598425197,
          "duration": 0.29999999999999716
        },
        {
          "name": "F#3",
          "midi": 54,
          "time": 41.812499999999986,
          "velocity": 0.47244094488188976,
          "duration": 0.07500000000000284
        },
        {
          "name": "F#3",
          "midi": 54,
          "time": 41.906249999999986,
          "velocity": 0.47244094488188976,
          "duration": 0.07499999999999574
        },
        {
          "name": "F#2",
          "midi": 42,
          "time": 41.99999999999998,
          "velocity": 1,
          "duration": 0.14999999999999858
        },
        {
          "name": "F#3",
          "midi": 54,
          "time": 41.99999999999998,
          "velocity": 0.47244094488188976,
          "duration": 0.14999999999999858
        },
        {
          "name": "C2",
          "midi": 36,
          "time": 41.99999999999998,
          "velocity": 1,
          "duration": 0.29999999999999716
        },
        {
          "name": "F#2",
          "midi": 42,
          "time": 42.18749999999998,
          "velocity": 1,
          "duration": 0.14999999999999858
        },
        {
          "name": "F#3",
          "midi": 54,
          "time": 42.18749999999998,
          "velocity": 0.47244094488188976,
          "duration": 0.07500000000000284
        },
        {
          "name": "F#3",
          "midi": 54,
          "time": 42.28124999999998,
          "velocity": 0.47244094488188976,
          "duration": 0.07499999999999574
        },
        {
          "name": "F#3",
          "midi": 54,
          "time": 42.37499999999997,
          "velocity": 0.47244094488188976,
          "duration": 0.14999999999999858
        },
        {
          "name": "F#2",
          "midi": 42,
          "time": 42.37499999999997,
          "velocity": 1,
          "duration": 0.14999999999999858
        },
        {
          "name": "D2",
          "midi": 38,
          "time": 42.37499999999997,
          "velocity": 1,
          "duration": 0.29999999999999716
        },
        {
          "name": "F#2",
          "midi": 42,
          "time": 42.56249999999997,
          "velocity": 1,
          "duration": 0.14999999999999858
        },
        {
          "name": "F#3",
          "midi": 54,
          "time": 42.56249999999997,
          "velocity": 0.47244094488188976,
          "duration": 0.07500000000000284
        },
        {
          "name": "F#3",
          "midi": 54,
          "time": 42.65624999999997,
          "velocity": 0.47244094488188976,
          "duration": 0.07499999999999574
        },
        {
          "name": "F#3",
          "midi": 54,
          "time": 42.749999999999964,
          "velocity": 0.47244094488188976,
          "duration": 0.14999999999999858
        },
        {
          "name": "F#2",
          "midi": 42,
          "time": 42.749999999999964,
          "velocity": 1,
          "duration": 0.14999999999999858
        },
        {
          "name": "C2",
          "midi": 36,
          "time": 42.749999999999964,
          "velocity": 1,
          "duration": 0.29999999999999716
        },
        {
          "name": "F#2",
          "midi": 42,
          "time": 42.937499999999964,
          "velocity": 1,
          "duration": 0.14999999999999858
        },
        {
          "name": "F#3",
          "midi": 54,
          "time": 42.937499999999964,
          "velocity": 0.47244094488188976,
          "duration": 0.07500000000000284
        },
        {
          "name": "F#3",
          "midi": 54,
          "time": 43.031249999999964,
          "velocity": 0.47244094488188976,
          "duration": 0.07499999999999574
        },
        {
          "name": "F#2",
          "midi": 42,
          "time": 43.12499999999996,
          "velocity": 1,
          "duration": 0.14999999999999858
        },
        {
          "name": "F#3",
          "midi": 54,
          "time": 43.12499999999996,
          "velocity": 0.47244094488188976,
          "duration": 0.14999999999999858
        },
        {
          "name": "D2",
          "midi": 38,
          "time": 43.12499999999996,
          "velocity": 1,
          "duration": 0.29999999999999716
        },
        {
          "name": "F#3",
          "midi": 54,
          "time": 43.31249999999996,
          "velocity": 0.47244094488188976,
          "duration": 0.07500000000000284
        },
        {
          "name": "C2",
          "midi": 36,
          "time": 43.31249999999996,
          "velocity": 1,
          "duration": 0.14999999999999858
        },
        {
          "name": "A#2",
          "midi": 46,
          "time": 43.31249999999996,
          "velocity": 1,
          "duration": 0.14999999999999858
        },
        {
          "name": "F#3",
          "midi": 54,
          "time": 43.40624999999996,
          "velocity": 0.47244094488188976,
          "duration": 0.07499999999999574
        },
        {
          "name": "F#3",
          "midi": 54,
          "time": 43.49999999999995,
          "velocity": 0.47244094488188976,
          "duration": 0.14999999999999858
        },
        {
          "name": "F#2",
          "midi": 42,
          "time": 43.49999999999995,
          "velocity": 1,
          "duration": 0.14999999999999858
        },
        {
          "name": "C2",
          "midi": 36,
          "time": 43.49999999999995,
          "velocity": 1,
          "duration": 0.29999999999999716
        },
        {
          "name": "F#3",
          "midi": 54,
          "time": 43.68749999999995,
          "velocity": 0.47244094488188976,
          "duration": 0.07500000000000284
        },
        {
          "name": "F#2",
          "midi": 42,
          "time": 43.68749999999995,
          "velocity": 1,
          "duration": 0.14999999999999858
        },
        {
          "name": "F#3",
          "midi": 54,
          "time": 43.78124999999995,
          "velocity": 0.47244094488188976,
          "duration": 0.07499999999999574
        },
        {
          "name": "F#2",
          "midi": 42,
          "time": 43.87499999999994,
          "velocity": 1,
          "duration": 0.14999999999999858
        },
        {
          "name": "F#3",
          "midi": 54,
          "time": 43.87499999999994,
          "velocity": 0.47244094488188976,
          "duration": 0.14999999999999858
        },
        {
          "name": "D2",
          "midi": 38,
          "time": 43.87499999999994,
          "velocity": 1,
          "duration": 0.29999999999999716
        },
        {
          "name": "F#2",
          "midi": 42,
          "time": 44.06249999999994,
          "velocity": 1,
          "duration": 0.14999999999999858
        },
        {
          "name": "F#3",
          "midi": 54,
          "time": 44.06249999999994,
          "velocity": 0.47244094488188976,
          "duration": 0.07500000000000284
        },
        {
          "name": "F#3",
          "midi": 54,
          "time": 44.15624999999994,
          "velocity": 0.47244094488188976,
          "duration": 0.07499999999999574
        },
        {
          "name": "F#2",
          "midi": 42,
          "time": 44.249999999999936,
          "velocity": 1,
          "duration": 0.14999999999999858
        },
        {
          "name": "F#3",
          "midi": 54,
          "time": 44.249999999999936,
          "velocity": 0.47244094488188976,
          "duration": 0.14999999999999858
        },
        {
          "name": "C2",
          "midi": 36,
          "time": 44.249999999999936,
          "velocity": 1,
          "duration": 0.29999999999999716
        },
        {
          "name": "F#3",
          "midi": 54,
          "time": 44.437499999999936,
          "velocity": 0.47244094488188976,
          "duration": 0.07500000000000284
        },
        {
          "name": "F#2",
          "midi": 42,
          "time": 44.437499999999936,
          "velocity": 1,
          "duration": 0.14999999999999858
        },
        {
          "name": "F#3",
          "midi": 54,
          "time": 44.531249999999936,
          "velocity": 0.47244094488188976,
          "duration": 0.07499999999999574
        },
        {
          "name": "F#3",
          "midi": 54,
          "time": 44.62499999999993,
          "velocity": 0.47244094488188976,
          "duration": 0.14999999999999858
        },
        {
          "name": "F#2",
          "midi": 42,
          "time": 44.62499999999993,
          "velocity": 1,
          "duration": 0.14999999999999858
        },
        {
          "name": "D2",
          "midi": 38,
          "time": 44.62499999999993,
          "velocity": 1,
          "duration": 0.29999999999999716
        },
        {
          "name": "F#3",
          "midi": 54,
          "time": 44.81249999999993,
          "velocity": 0.47244094488188976,
          "duration": 0.07500000000000284
        },
        {
          "name": "C2",
          "midi": 36,
          "time": 44.81249999999993,
          "velocity": 1,
          "duration": 0.14999999999999858
        },
        {
          "name": "A#2",
          "midi": 46,
          "time": 44.81249999999993,
          "velocity": 1,
          "duration": 0.14999999999999858
        },
        {
          "name": "F#3",
          "midi": 54,
          "time": 44.90624999999993,
          "velocity": 0.47244094488188976,
          "duration": 0.07499999999999574
        },
        {
          "name": "F#2",
          "midi": 42,
          "time": 44.99999999999992,
          "velocity": 1,
          "duration": 0.14999999999999858
        },
        {
          "name": "F#3",
          "midi": 54,
          "time": 44.99999999999992,
          "velocity": 0.47244094488188976,
          "duration": 0.14999999999999858
        },
        {
          "name": "C2",
          "midi": 36,
          "time": 44.99999999999992,
          "velocity": 1,
          "duration": 0.29999999999999716
        },
        {
          "name": "F#3",
          "midi": 54,
          "time": 45.18749999999992,
          "velocity": 0.47244094488188976,
          "duration": 0.07500000000000284
        },
        {
          "name": "F#2",
          "midi": 42,
          "time": 45.18749999999992,
          "velocity": 1,
          "duration": 0.14999999999999858
        },
        {
          "name": "F#3",
          "midi": 54,
          "time": 45.28124999999992,
          "velocity": 0.47244094488188976,
          "duration": 0.07499999999999574
        },
        {
          "name": "F#2",
          "midi": 42,
          "time": 45.374999999999915,
          "velocity": 1,
          "duration": 0.14999999999999858
        },
        {
          "name": "F#3",
          "midi": 54,
          "time": 45.374999999999915,
          "velocity": 0.47244094488188976,
          "duration": 0.14999999999999858
        },
        {
          "name": "D2",
          "midi": 38,
          "time": 45.374999999999915,
          "velocity": 1,
          "duration": 0.29999999999999716
        },
        {
          "name": "C2",
          "midi": 36,
          "time": 45.562499999999915,
          "velocity": 1,
          "duration": 0.14999999999999858
        },
        {
          "name": "F#2",
          "midi": 42,
          "time": 45.562499999999915,
          "velocity": 1,
          "duration": 0.14999999999999858
        },
        {
          "name": "F#3",
          "midi": 54,
          "time": 45.562499999999915,
          "velocity": 0.47244094488188976,
          "duration": 0.07500000000000284
        },
        {
          "name": "F#3",
          "midi": 54,
          "time": 45.656249999999915,
          "velocity": 0.47244094488188976,
          "duration": 0.07499999999999574
        },
        {
          "name": "F#3",
          "midi": 54,
          "time": 45.74999999999991,
          "velocity": 0.47244094488188976,
          "duration": 0.14999999999999858
        },
        {
          "name": "F#2",
          "midi": 42,
          "time": 45.74999999999991,
          "velocity": 1,
          "duration": 0.14999999999999858
        },
        {
          "name": "C2",
          "midi": 36,
          "time": 45.74999999999991,
          "velocity": 1,
          "duration": 0.29999999999999716
        },
        {
          "name": "F#3",
          "midi": 54,
          "time": 45.93749999999991,
          "velocity": 0.47244094488188976,
          "duration": 0.07500000000000284
        },
        {
          "name": "F#2",
          "midi": 42,
          "time": 45.93749999999991,
          "velocity": 1,
          "duration": 0.14999999999999858
        },
        {
          "name": "F#3",
          "midi": 54,
          "time": 46.03124999999991,
          "velocity": 0.47244094488188976,
          "duration": 0.07499999999999574
        },
        {
          "name": "F#3",
          "midi": 54,
          "time": 46.1249999999999,
          "velocity": 0.47244094488188976,
          "duration": 0.14999999999999858
        },
        {
          "name": "F#2",
          "midi": 42,
          "time": 46.1249999999999,
          "velocity": 1,
          "duration": 0.14999999999999858
        },
        {
          "name": "D2",
          "midi": 38,
          "time": 46.1249999999999,
          "velocity": 1,
          "duration": 0.29999999999999716
        },
        {
          "name": "F#3",
          "midi": 54,
          "time": 46.3124999999999,
          "velocity": 0.47244094488188976,
          "duration": 0.07500000000000284
        },
        {
          "name": "F#2",
          "midi": 42,
          "time": 46.3124999999999,
          "velocity": 1,
          "duration": 0.14999999999999858
        },
        {
          "name": "F#3",
          "midi": 54,
          "time": 46.4062499999999,
          "velocity": 0.47244094488188976,
          "duration": 0.07499999999999574
        },
        {
          "name": "G2",
          "midi": 43,
          "time": 46.49999999999989,
          "velocity": 1,
          "duration": 0.14999999999999858
        },
        {
          "name": "F#2",
          "midi": 42,
          "time": 46.49999999999989,
          "velocity": 1,
          "duration": 0.14999999999999858
        },
        {
          "name": "F#3",
          "midi": 54,
          "time": 46.49999999999989,
          "velocity": 0.47244094488188976,
          "duration": 0.14999999999999858
        },
        {
          "name": "C2",
          "midi": 36,
          "time": 46.49999999999989,
          "velocity": 1,
          "duration": 0.29999999999999716
        },
        {
          "name": "D3",
          "midi": 50,
          "time": 46.68749999999989,
          "velocity": 1,
          "duration": 0.14999999999999858
        },
        {
          "name": "F#2",
          "midi": 42,
          "time": 46.68749999999989,
          "velocity": 1,
          "duration": 0.14999999999999858
        },
        {
          "name": "F#3",
          "midi": 54,
          "time": 46.68749999999989,
          "velocity": 0.47244094488188976,
          "duration": 0.07500000000000284
        },
        {
          "name": "F#3",
          "midi": 54,
          "time": 46.78124999999989,
          "velocity": 0.47244094488188976,
          "duration": 0.07499999999999574
        },
        {
          "name": "F#2",
          "midi": 42,
          "time": 46.874999999999886,
          "velocity": 1,
          "duration": 0.14999999999999858
        },
        {
          "name": "F#3",
          "midi": 54,
          "time": 46.874999999999886,
          "velocity": 0.47244094488188976,
          "duration": 0.14999999999999858
        },
        {
          "name": "D3",
          "midi": 50,
          "time": 46.874999999999886,
          "velocity": 1,
          "duration": 0.14999999999999858
        },
        {
          "name": "D2",
          "midi": 38,
          "time": 46.874999999999886,
          "velocity": 1,
          "duration": 0.29999999999999716
        },
        {
          "name": "F#2",
          "midi": 42,
          "time": 47.062499999999886,
          "velocity": 1,
          "duration": 0.14999999999999858
        },
        {
          "name": "F#3",
          "midi": 54,
          "time": 47.062499999999886,
          "velocity": 0.47244094488188976,
          "duration": 0.07500000000000284
        },
        {
          "name": "C3",
          "midi": 48,
          "time": 47.062499999999886,
          "velocity": 1,
          "duration": 0.14999999999999858
        },
        {
          "name": "C2",
          "midi": 36,
          "time": 47.062499999999886,
          "velocity": 1,
          "duration": 0.14999999999999858
        },
        {
          "name": "F#3",
          "midi": 54,
          "time": 47.156249999999886,
          "velocity": 0.47244094488188976,
          "duration": 0.07499999999999574
        },
        {
          "name": "G2",
          "midi": 43,
          "time": 47.24999999999988,
          "velocity": 1,
          "duration": 0.14999999999999858
        },
        {
          "name": "C2",
          "midi": 36,
          "time": 47.24999999999988,
          "velocity": 1,
          "duration": 0.14999999999999858
        },
        {
          "name": "F#3",
          "midi": 54,
          "time": 47.24999999999988,
          "velocity": 0.47244094488188976,
          "duration": 0.14999999999999858
        },
        {
          "name": "F#2",
          "midi": 42,
          "time": 47.24999999999988,
          "velocity": 1,
          "duration": 0.14999999999999858
        },
        {
          "name": "F#3",
          "midi": 54,
          "time": 47.43749999999988,
          "velocity": 0.47244094488188976,
          "duration": 0.07500000000000284
        },
        {
          "name": "A3",
          "midi": 57,
          "time": 47.43749999999988,
          "velocity": 0.8661417322834646,
          "duration": 0.14999999999999858
        },
        {
          "name": "F#2",
          "midi": 42,
          "time": 47.43749999999988,
          "velocity": 1,
          "duration": 0.14999999999999858
        },
        {
          "name": "C2",
          "midi": 36,
          "time": 47.43749999999988,
          "velocity": 1,
          "duration": 0.48749999999999005
        },
        {
          "name": "F#3",
          "midi": 54,
          "time": 47.53124999999988,
          "velocity": 0.47244094488188976,
          "duration": 0.07499999999999574
        },
        {
          "name": "F#3",
          "midi": 54,
          "time": 47.62499999999987,
          "velocity": 0.47244094488188976,
          "duration": 0.14999999999999858
        },
        {
          "name": "A#2",
          "midi": 46,
          "time": 47.62499999999987,
          "velocity": 1,
          "duration": 0.3374999999999986
        },
        {
          "name": "F#3",
          "midi": 54,
          "time": 47.81249999999987,
          "velocity": 0.47244094488188976,
          "duration": 0.07500000000000284
        },
        {
          "name": "F#3",
          "midi": 54,
          "time": 47.90624999999987,
          "velocity": 0.47244094488188976,
          "duration": 0.07499999999999574
        },
        {
          "name": "F#2",
          "midi": 42,
          "time": 47.999999999999865,
          "velocity": 1,
          "duration": 0.14999999999999858
        },
        {
          "name": "F#3",
          "midi": 54,
          "time": 47.999999999999865,
          "velocity": 0.47244094488188976,
          "duration": 0.14999999999999858
        },
        {
          "name": "C2",
          "midi": 36,
          "time": 47.999999999999865,
          "velocity": 1,
          "duration": 0.29999999999999716
        },
        {
          "name": "F#2",
          "midi": 42,
          "time": 48.187499999999865,
          "velocity": 1,
          "duration": 0.14999999999999858
        },
        {
          "name": "F#3",
          "midi": 54,
          "time": 48.187499999999865,
          "velocity": 0.47244094488188976,
          "duration": 0.07500000000000284
        },
        {
          "name": "F#3",
          "midi": 54,
          "time": 48.281249999999865,
          "velocity": 0.47244094488188976,
          "duration": 0.07499999999999574
        },
        {
          "name": "F#3",
          "midi": 54,
          "time": 48.37499999999986,
          "velocity": 0.47244094488188976,
          "duration": 0.14999999999999858
        },
        {
          "name": "F#2",
          "midi": 42,
          "time": 48.37499999999986,
          "velocity": 1,
          "duration": 0.14999999999999858
        },
        {
          "name": "D2",
          "midi": 38,
          "time": 48.37499999999986,
          "velocity": 1,
          "duration": 0.29999999999999716
        },
        {
          "name": "F#2",
          "midi": 42,
          "time": 48.56249999999986,
          "velocity": 1,
          "duration": 0.14999999999999858
        },
        {
          "name": "F#3",
          "midi": 54,
          "time": 48.56249999999986,
          "velocity": 0.47244094488188976,
          "duration": 0.07500000000000284
        },
        {
          "name": "F#3",
          "midi": 54,
          "time": 48.65624999999986,
          "velocity": 0.47244094488188976,
          "duration": 0.07499999999999574
        },
        {
          "name": "F#2",
          "midi": 42,
          "time": 48.74999999999985,
          "velocity": 1,
          "duration": 0.14999999999999858
        },
        {
          "name": "F#3",
          "midi": 54,
          "time": 48.74999999999985,
          "velocity": 0.47244094488188976,
          "duration": 0.14999999999999858
        },
        {
          "name": "C2",
          "midi": 36,
          "time": 48.74999999999985,
          "velocity": 1,
          "duration": 0.29999999999999716
        },
        {
          "name": "F#2",
          "midi": 42,
          "time": 48.93749999999985,
          "velocity": 1,
          "duration": 0.14999999999999858
        },
        {
          "name": "F#3",
          "midi": 54,
          "time": 48.93749999999985,
          "velocity": 0.47244094488188976,
          "duration": 0.07500000000000284
        },
        {
          "name": "F#3",
          "midi": 54,
          "time": 49.03124999999985,
          "velocity": 0.47244094488188976,
          "duration": 0.07499999999999574
        },
        {
          "name": "F#2",
          "midi": 42,
          "time": 49.124999999999844,
          "velocity": 1,
          "duration": 0.14999999999999858
        },
        {
          "name": "F#3",
          "midi": 54,
          "time": 49.124999999999844,
          "velocity": 0.47244094488188976,
          "duration": 0.14999999999999858
        },
        {
          "name": "D2",
          "midi": 38,
          "time": 49.124999999999844,
          "velocity": 1,
          "duration": 0.29999999999999716
        },
        {
          "name": "F#3",
          "midi": 54,
          "time": 49.312499999999844,
          "velocity": 0.47244094488188976,
          "duration": 0.07500000000000284
        },
        {
          "name": "C2",
          "midi": 36,
          "time": 49.312499999999844,
          "velocity": 1,
          "duration": 0.14999999999999858
        },
        {
          "name": "A#2",
          "midi": 46,
          "time": 49.312499999999844,
          "velocity": 1,
          "duration": 0.14999999999999858
        },
        {
          "name": "F#3",
          "midi": 54,
          "time": 49.406249999999844,
          "velocity": 0.47244094488188976,
          "duration": 0.07499999999999574
        },
        {
          "name": "F#2",
          "midi": 42,
          "time": 49.49999999999984,
          "velocity": 1,
          "duration": 0.14999999999999858
        },
        {
          "name": "F#3",
          "midi": 54,
          "time": 49.49999999999984,
          "velocity": 0.47244094488188976,
          "duration": 0.14999999999999858
        },
        {
          "name": "C2",
          "midi": 36,
          "time": 49.49999999999984,
          "velocity": 1,
          "duration": 0.29999999999999716
        },
        {
          "name": "F#2",
          "midi": 42,
          "time": 49.68749999999984,
          "velocity": 1,
          "duration": 0.14999999999999858
        },
        {
          "name": "F#3",
          "midi": 54,
          "time": 49.68749999999984,
          "velocity": 0.47244094488188976,
          "duration": 0.07500000000000284
        },
        {
          "name": "F#3",
          "midi": 54,
          "time": 49.78124999999984,
          "velocity": 0.47244094488188976,
          "duration": 0.07499999999999574
        },
        {
          "name": "F#2",
          "midi": 42,
          "time": 49.87499999999983,
          "velocity": 1,
          "duration": 0.14999999999999858
        },
        {
          "name": "F#3",
          "midi": 54,
          "time": 49.87499999999983,
          "velocity": 0.47244094488188976,
          "duration": 0.14999999999999858
        },
        {
          "name": "D2",
          "midi": 38,
          "time": 49.87499999999983,
          "velocity": 1,
          "duration": 0.29999999999999716
        },
        {
          "name": "F#2",
          "midi": 42,
          "time": 50.06249999999983,
          "velocity": 1,
          "duration": 0.14999999999999858
        },
        {
          "name": "F#3",
          "midi": 54,
          "time": 50.06249999999983,
          "velocity": 0.47244094488188976,
          "duration": 0.07500000000000284
        },
        {
          "name": "F#3",
          "midi": 54,
          "time": 50.15624999999983,
          "velocity": 0.47244094488188976,
          "duration": 0.07499999999999574
        },
        {
          "name": "F#3",
          "midi": 54,
          "time": 50.24999999999982,
          "velocity": 0.47244094488188976,
          "duration": 0.14999999999999858
        },
        {
          "name": "F#2",
          "midi": 42,
          "time": 50.24999999999982,
          "velocity": 1,
          "duration": 0.14999999999999858
        },
        {
          "name": "C2",
          "midi": 36,
          "time": 50.24999999999982,
          "velocity": 1,
          "duration": 0.29999999999999716
        },
        {
          "name": "F#3",
          "midi": 54,
          "time": 50.43749999999982,
          "velocity": 0.47244094488188976,
          "duration": 0.07500000000000284
        },
        {
          "name": "F#2",
          "midi": 42,
          "time": 50.43749999999982,
          "velocity": 1,
          "duration": 0.14999999999999858
        },
        {
          "name": "F#3",
          "midi": 54,
          "time": 50.53124999999982,
          "velocity": 0.47244094488188976,
          "duration": 0.07499999999999574
        },
        {
          "name": "F#3",
          "midi": 54,
          "time": 50.624999999999815,
          "velocity": 0.47244094488188976,
          "duration": 0.14999999999999858
        },
        {
          "name": "F#2",
          "midi": 42,
          "time": 50.624999999999815,
          "velocity": 1,
          "duration": 0.14999999999999858
        },
        {
          "name": "D2",
          "midi": 38,
          "time": 50.624999999999815,
          "velocity": 1,
          "duration": 0.29999999999999716
        },
        {
          "name": "F#3",
          "midi": 54,
          "time": 50.812499999999815,
          "velocity": 0.47244094488188976,
          "duration": 0.07500000000000284
        },
        {
          "name": "A#2",
          "midi": 46,
          "time": 50.812499999999815,
          "velocity": 1,
          "duration": 0.14999999999999858
        },
        {
          "name": "C2",
          "midi": 36,
          "time": 50.812499999999815,
          "velocity": 1,
          "duration": 0.14999999999999858
        },
        {
          "name": "F#3",
          "midi": 54,
          "time": 50.906249999999815,
          "velocity": 0.47244094488188976,
          "duration": 0.07499999999999574
        },
        {
          "name": "F#2",
          "midi": 42,
          "time": 50.99999999999981,
          "velocity": 1,
          "duration": 0.14999999999999858
        },
        {
          "name": "F#3",
          "midi": 54,
          "time": 50.99999999999981,
          "velocity": 0.47244094488188976,
          "duration": 0.14999999999999858
        },
        {
          "name": "C2",
          "midi": 36,
          "time": 50.99999999999981,
          "velocity": 1,
          "duration": 0.29999999999999716
        },
        {
          "name": "F#3",
          "midi": 54,
          "time": 51.18749999999981,
          "velocity": 0.47244094488188976,
          "duration": 0.07500000000000284
        },
        {
          "name": "F#2",
          "midi": 42,
          "time": 51.18749999999981,
          "velocity": 1,
          "duration": 0.14999999999999858
        },
        {
          "name": "F#3",
          "midi": 54,
          "time": 51.28124999999981,
          "velocity": 0.47244094488188976,
          "duration": 0.07499999999999574
        },
        {
          "name": "F#3",
          "midi": 54,
          "time": 51.3749999999998,
          "velocity": 0.47244094488188976,
          "duration": 0.14999999999999858
        },
        {
          "name": "F#2",
          "midi": 42,
          "time": 51.3749999999998,
          "velocity": 1,
          "duration": 0.14999999999999858
        },
        {
          "name": "D2",
          "midi": 38,
          "time": 51.3749999999998,
          "velocity": 1,
          "duration": 0.29999999999999716
        },
        {
          "name": "F#2",
          "midi": 42,
          "time": 51.5624999999998,
          "velocity": 1,
          "duration": 0.14999999999999858
        },
        {
          "name": "F#3",
          "midi": 54,
          "time": 51.5624999999998,
          "velocity": 0.47244094488188976,
          "duration": 0.07500000000000284
        },
        {
          "name": "C2",
          "midi": 36,
          "time": 51.5624999999998,
          "velocity": 1,
          "duration": 0.14999999999999858
        },
        {
          "name": "F#3",
          "midi": 54,
          "time": 51.6562499999998,
          "velocity": 0.47244094488188976,
          "duration": 0.07499999999999574
        },
        {
          "name": "F#3",
          "midi": 54,
          "time": 51.749999999999794,
          "velocity": 0.47244094488188976,
          "duration": 0.14999999999999858
        },
        {
          "name": "F#2",
          "midi": 42,
          "time": 51.749999999999794,
          "velocity": 1,
          "duration": 0.14999999999999858
        },
        {
          "name": "C2",
          "midi": 36,
          "time": 51.749999999999794,
          "velocity": 1,
          "duration": 0.29999999999999716
        },
        {
          "name": "F#3",
          "midi": 54,
          "time": 51.937499999999794,
          "velocity": 0.47244094488188976,
          "duration": 0.07500000000000284
        },
        {
          "name": "D3",
          "midi": 50,
          "time": 51.937499999999794,
          "velocity": 1,
          "duration": 0.14999999999999858
        },
        {
          "name": "F#2",
          "midi": 42,
          "time": 51.937499999999794,
          "velocity": 1,
          "duration": 0.14999999999999858
        },
        {
          "name": "F#3",
          "midi": 54,
          "time": 52.031249999999794,
          "velocity": 0.47244094488188976,
          "duration": 0.07499999999999574
        },
        {
          "name": "F#2",
          "midi": 42,
          "time": 52.12499999999979,
          "velocity": 1,
          "duration": 0.14999999999999858
        },
        {
          "name": "F#3",
          "midi": 54,
          "time": 52.12499999999979,
          "velocity": 0.47244094488188976,
          "duration": 0.14999999999999858
        },
        {
          "name": "D3",
          "midi": 50,
          "time": 52.12499999999979,
          "velocity": 1,
          "duration": 0.14999999999999858
        },
        {
          "name": "D2",
          "midi": 38,
          "time": 52.12499999999979,
          "velocity": 1,
          "duration": 0.29999999999999716
        },
        {
          "name": "F#3",
          "midi": 54,
          "time": 52.31249999999979,
          "velocity": 0.47244094488188976,
          "duration": 0.07500000000000284
        },
        {
          "name": "F#2",
          "midi": 42,
          "time": 52.31249999999979,
          "velocity": 1,
          "duration": 0.14999999999999858
        },
        {
          "name": "D3",
          "midi": 50,
          "time": 52.31249999999979,
          "velocity": 1,
          "duration": 0.14999999999999858
        },
        {
          "name": "F#3",
          "midi": 54,
          "time": 52.40624999999979,
          "velocity": 0.47244094488188976,
          "duration": 0.07499999999999574
        },
        {
          "name": "F#3",
          "midi": 54,
          "time": 52.49999999999978,
          "velocity": 0.47244094488188976,
          "duration": 0.14999999999999858
        },
        {
          "name": "F#2",
          "midi": 42,
          "time": 52.49999999999978,
          "velocity": 1,
          "duration": 0.14999999999999858
        },
        {
          "name": "C2",
          "midi": 36,
          "time": 52.49999999999978,
          "velocity": 1,
          "duration": 0.29999999999999716
        },
        {
          "name": "F#2",
          "midi": 42,
          "time": 52.68749999999978,
          "velocity": 1,
          "duration": 0.14999999999999858
        },
        {
          "name": "C3",
          "midi": 48,
          "time": 52.68749999999978,
          "velocity": 1,
          "duration": 0.14999999999999858
        },
        {
          "name": "F#3",
          "midi": 54,
          "time": 52.68749999999978,
          "velocity": 0.47244094488188976,
          "duration": 0.07500000000000284
        },
        {
          "name": "F#3",
          "midi": 54,
          "time": 52.78124999999978,
          "velocity": 0.47244094488188976,
          "duration": 0.07499999999999574
        },
        {
          "name": "F#3",
          "midi": 54,
          "time": 52.87499999999977,
          "velocity": 0.47244094488188976,
          "duration": 0.14999999999999858
        },
        {
          "name": "F#2",
          "midi": 42,
          "time": 52.87499999999977,
          "velocity": 1,
          "duration": 0.14999999999999858
        },
        {
          "name": "B2",
          "midi": 47,
          "time": 52.87499999999977,
          "velocity": 1,
          "duration": 0.14999999999999858
        },
        {
          "name": "D2",
          "midi": 38,
          "time": 52.87499999999977,
          "velocity": 1,
          "duration": 0.29999999999999716
        },
        {
          "name": "F#2",
          "midi": 42,
          "time": 53.06249999999977,
          "velocity": 1,
          "duration": 0.14999999999999858
        },
        {
          "name": "F#3",
          "midi": 54,
          "time": 53.06249999999977,
          "velocity": 0.47244094488188976,
          "duration": 0.07500000000000284
        },
        {
          "name": "C2",
          "midi": 36,
          "time": 53.06249999999977,
          "velocity": 1,
          "duration": 0.14999999999999858
        },
        {
          "name": "G2",
          "midi": 43,
          "time": 53.06249999999977,
          "velocity": 1,
          "duration": 0.14999999999999858
        },
        {
          "name": "F#3",
          "midi": 54,
          "time": 53.15624999999977,
          "velocity": 0.47244094488188976,
          "duration": 0.07499999999999574
        },
        {
          "name": "F#2",
          "midi": 42,
          "time": 53.249999999999766,
          "velocity": 1,
          "duration": 0.14999999999999858
        },
        {
          "name": "F#3",
          "midi": 54,
          "time": 53.249999999999766,
          "velocity": 0.47244094488188976,
          "duration": 0.14999999999999858
        },
        {
          "name": "C2",
          "midi": 36,
          "time": 53.249999999999766,
          "velocity": 1,
          "duration": 0.14999999999999858
        },
        {
          "name": "F#3",
          "midi": 54,
          "time": 53.437499999999766,
          "velocity": 0.47244094488188976,
          "duration": 0.07500000000000284
        },
        {
          "name": "F#2",
          "midi": 42,
          "time": 53.437499999999766,
          "velocity": 1,
          "duration": 0.14999999999999858
        },
        {
          "name": "A3",
          "midi": 57,
          "time": 53.437499999999766,
          "velocity": 0.8661417322834646,
          "duration": 0.14999999999999858
        },
        {
          "name": "C2",
          "midi": 36,
          "time": 53.437499999999766,
          "velocity": 1,
          "duration": 0.48749999999999005
        },
        {
          "name": "F#3",
          "midi": 54,
          "time": 53.531249999999766,
          "velocity": 0.47244094488188976,
          "duration": 0.07499999999999574
        },
        {
          "name": "F#3",
          "midi": 54,
          "time": 53.62499999999976,
          "velocity": 0.47244094488188976,
          "duration": 0.14999999999999858
        },
        {
          "name": "F#2",
          "midi": 42,
          "time": 53.62499999999976,
          "velocity": 0.6299212598425197,
          "duration": 0.14999999999999858
        },
        {
          "name": "D2",
          "midi": 38,
          "time": 53.62499999999976,
          "velocity": 0.6299212598425197,
          "duration": 0.29999999999999716
        },
        {
          "name": "F#3",
          "midi": 54,
          "time": 53.81249999999976,
          "velocity": 0.47244094488188976,
          "duration": 0.07500000000000284
        },
        {
          "name": "F#3",
          "midi": 54,
          "time": 53.90624999999976,
          "velocity": 0.47244094488188976,
          "duration": 0.07499999999999574
        },
        {
          "name": "F#2",
          "midi": 42,
          "time": 53.99999999999975,
          "velocity": 1,
          "duration": 0.14999999999999858
        },
        {
          "name": "F#3",
          "midi": 54,
          "time": 53.99999999999975,
          "velocity": 0.47244094488188976,
          "duration": 0.14999999999999858
        },
        {
          "name": "C2",
          "midi": 36,
          "time": 53.99999999999975,
          "velocity": 1,
          "duration": 0.29999999999999716
        },
        {
          "name": "F#2",
          "midi": 42,
          "time": 54.18749999999975,
          "velocity": 1,
          "duration": 0.14999999999999858
        },
        {
          "name": "F#3",
          "midi": 54,
          "time": 54.18749999999975,
          "velocity": 0.47244094488188976,
          "duration": 0.07500000000000284
        },
        {
          "name": "F#3",
          "midi": 54,
          "time": 54.28124999999975,
          "velocity": 0.47244094488188976,
          "duration": 0.07499999999999574
        },
        {
          "name": "F#3",
          "midi": 54,
          "time": 54.374999999999744,
          "velocity": 0.47244094488188976,
          "duration": 0.14999999999999858
        },
        {
          "name": "F#2",
          "midi": 42,
          "time": 54.374999999999744,
          "velocity": 1,
          "duration": 0.14999999999999858
        },
        {
          "name": "D2",
          "midi": 38,
          "time": 54.374999999999744,
          "velocity": 1,
          "duration": 0.29999999999999716
        },
        {
          "name": "F#2",
          "midi": 42,
          "time": 54.562499999999744,
          "velocity": 1,
          "duration": 0.14999999999999858
        },
        {
          "name": "F#3",
          "midi": 54,
          "time": 54.562499999999744,
          "velocity": 0.47244094488188976,
          "duration": 0.07500000000000284
        },
        {
          "name": "F#3",
          "midi": 54,
          "time": 54.656249999999744,
          "velocity": 0.47244094488188976,
          "duration": 0.07499999999999574
        },
        {
          "name": "F#3",
          "midi": 54,
          "time": 54.74999999999974,
          "velocity": 0.47244094488188976,
          "duration": 0.14999999999999858
        },
        {
          "name": "F#2",
          "midi": 42,
          "time": 54.74999999999974,
          "velocity": 1,
          "duration": 0.14999999999999858
        },
        {
          "name": "C2",
          "midi": 36,
          "time": 54.74999999999974,
          "velocity": 1,
          "duration": 0.29999999999999716
        },
        {
          "name": "F#2",
          "midi": 42,
          "time": 54.93749999999974,
          "velocity": 1,
          "duration": 0.14999999999999858
        },
        {
          "name": "F#3",
          "midi": 54,
          "time": 54.93749999999974,
          "velocity": 0.47244094488188976,
          "duration": 0.07500000000000284
        },
        {
          "name": "F#3",
          "midi": 54,
          "time": 55.03124999999974,
          "velocity": 0.47244094488188976,
          "duration": 0.07499999999999574
        },
        {
          "name": "F#2",
          "midi": 42,
          "time": 55.12499999999973,
          "velocity": 1,
          "duration": 0.14999999999999858
        },
        {
          "name": "F#3",
          "midi": 54,
          "time": 55.12499999999973,
          "velocity": 0.47244094488188976,
          "duration": 0.14999999999999858
        },
        {
          "name": "D2",
          "midi": 38,
          "time": 55.12499999999973,
          "velocity": 1,
          "duration": 0.29999999999999716
        },
        {
          "name": "F#3",
          "midi": 54,
          "time": 55.31249999999973,
          "velocity": 0.47244094488188976,
          "duration": 0.07500000000000284
        },
        {
          "name": "C2",
          "midi": 36,
          "time": 55.31249999999973,
          "velocity": 1,
          "duration": 0.14999999999999858
        },
        {
          "name": "A#2",
          "midi": 46,
          "time": 55.31249999999973,
          "velocity": 1,
          "duration": 0.14999999999999858
        },
        {
          "name": "F#3",
          "midi": 54,
          "time": 55.40624999999973,
          "velocity": 0.47244094488188976,
          "duration": 0.07499999999999574
        },
        {
          "name": "F#3",
          "midi": 54,
          "time": 55.49999999999972,
          "velocity": 0.47244094488188976,
          "duration": 0.14999999999999858
        },
        {
          "name": "F#2",
          "midi": 42,
          "time": 55.49999999999972,
          "velocity": 1,
          "duration": 0.14999999999999858
        },
        {
          "name": "C2",
          "midi": 36,
          "time": 55.49999999999972,
          "velocity": 1,
          "duration": 0.29999999999999716
        },
        {
          "name": "F#3",
          "midi": 54,
          "time": 55.68749999999972,
          "velocity": 0.47244094488188976,
          "duration": 0.07500000000000284
        },
        {
          "name": "F#2",
          "midi": 42,
          "time": 55.68749999999972,
          "velocity": 1,
          "duration": 0.14999999999999858
        },
        {
          "name": "F#3",
          "midi": 54,
          "time": 55.78124999999972,
          "velocity": 0.47244094488188976,
          "duration": 0.07499999999999574
        },
        {
          "name": "F#2",
          "midi": 42,
          "time": 55.874999999999716,
          "velocity": 1,
          "duration": 0.14999999999999858
        },
        {
          "name": "F#3",
          "midi": 54,
          "time": 55.874999999999716,
          "velocity": 0.47244094488188976,
          "duration": 0.14999999999999858
        },
        {
          "name": "D2",
          "midi": 38,
          "time": 55.874999999999716,
          "velocity": 1,
          "duration": 0.29999999999999716
        },
        {
          "name": "F#2",
          "midi": 42,
          "time": 56.062499999999716,
          "velocity": 1,
          "duration": 0.14999999999999858
        },
        {
          "name": "F#3",
          "midi": 54,
          "time": 56.062499999999716,
          "velocity": 0.47244094488188976,
          "duration": 0.07500000000000284
        },
        {
          "name": "F#3",
          "midi": 54,
          "time": 56.156249999999716,
          "velocity": 0.47244094488188976,
          "duration": 0.07499999999999574
        },
        {
          "name": "F#3",
          "midi": 54,
          "time": 56.24999999999971,
          "velocity": 0.47244094488188976,
          "duration": 0.14999999999999858
        },
        {
          "name": "F#2",
          "midi": 42,
          "time": 56.24999999999971,
          "velocity": 1,
          "duration": 0.14999999999999858
        },
        {
          "name": "C2",
          "midi": 36,
          "time": 56.24999999999971,
          "velocity": 1,
          "duration": 0.29999999999999716
        },
        {
          "name": "F#3",
          "midi": 54,
          "time": 56.43749999999971,
          "velocity": 0.47244094488188976,
          "duration": 0.07500000000000284
        },
        {
          "name": "F#2",
          "midi": 42,
          "time": 56.43749999999971,
          "velocity": 1,
          "duration": 0.14999999999999858
        },
        {
          "name": "F#3",
          "midi": 54,
          "time": 56.53124999999971,
          "velocity": 0.47244094488188976,
          "duration": 0.07499999999999574
        },
        {
          "name": "F#2",
          "midi": 42,
          "time": 56.6249999999997,
          "velocity": 1,
          "duration": 0.14999999999999858
        },
        {
          "name": "F#3",
          "midi": 54,
          "time": 56.6249999999997,
          "velocity": 0.47244094488188976,
          "duration": 0.14999999999999858
        },
        {
          "name": "D2",
          "midi": 38,
          "time": 56.6249999999997,
          "velocity": 1,
          "duration": 0.29999999999999716
        },
        {
          "name": "F#3",
          "midi": 54,
          "time": 56.8124999999997,
          "velocity": 0.47244094488188976,
          "duration": 0.07500000000000284
        },
        {
          "name": "C2",
          "midi": 36,
          "time": 56.8124999999997,
          "velocity": 1,
          "duration": 0.14999999999999858
        },
        {
          "name": "A#2",
          "midi": 46,
          "time": 56.8124999999997,
          "velocity": 1,
          "duration": 0.14999999999999858
        },
        {
          "name": "F#3",
          "midi": 54,
          "time": 56.9062499999997,
          "velocity": 0.47244094488188976,
          "duration": 0.07499999999999574
        },
        {
          "name": "F#2",
          "midi": 42,
          "time": 56.999999999999694,
          "velocity": 1,
          "duration": 0.14999999999999858
        },
        {
          "name": "F#3",
          "midi": 54,
          "time": 56.999999999999694,
          "velocity": 0.47244094488188976,
          "duration": 0.14999999999999858
        },
        {
          "name": "C2",
          "midi": 36,
          "time": 56.999999999999694,
          "velocity": 1,
          "duration": 0.29999999999999716
        },
        {
          "name": "F#3",
          "midi": 54,
          "time": 57.187499999999694,
          "velocity": 0.47244094488188976,
          "duration": 0.07500000000000284
        },
        {
          "name": "F#2",
          "midi": 42,
          "time": 57.187499999999694,
          "velocity": 1,
          "duration": 0.14999999999999858
        },
        {
          "name": "F#3",
          "midi": 54,
          "time": 57.281249999999694,
          "velocity": 0.47244094488188976,
          "duration": 0.07499999999999574
        },
        {
          "name": "F#3",
          "midi": 54,
          "time": 57.37499999999969,
          "velocity": 0.47244094488188976,
          "duration": 0.14999999999999858
        },
        {
          "name": "F#2",
          "midi": 42,
          "time": 57.37499999999969,
          "velocity": 1,
          "duration": 0.14999999999999858
        },
        {
          "name": "D2",
          "midi": 38,
          "time": 57.37499999999969,
          "velocity": 1,
          "duration": 0.29999999999999716
        },
        {
          "name": "F#2",
          "midi": 42,
          "time": 57.56249999999969,
          "velocity": 1,
          "duration": 0.14999999999999858
        },
        {
          "name": "F#3",
          "midi": 54,
          "time": 57.56249999999969,
          "velocity": 0.47244094488188976,
          "duration": 0.07500000000000284
        },
        {
          "name": "C2",
          "midi": 36,
          "time": 57.56249999999969,
          "velocity": 1,
          "duration": 0.14999999999999858
        },
        {
          "name": "F#3",
          "midi": 54,
          "time": 57.65624999999969,
          "velocity": 0.47244094488188976,
          "duration": 0.07499999999999574
        },
        {
          "name": "F#3",
          "midi": 54,
          "time": 57.74999999999968,
          "velocity": 0.47244094488188976,
          "duration": 0.14999999999999858
        },
        {
          "name": "F#2",
          "midi": 42,
          "time": 57.74999999999968,
          "velocity": 1,
          "duration": 0.14999999999999858
        },
        {
          "name": "C2",
          "midi": 36,
          "time": 57.74999999999968,
          "velocity": 1,
          "duration": 0.29999999999999716
        },
        {
          "name": "F#3",
          "midi": 54,
          "time": 57.93749999999968,
          "velocity": 0.47244094488188976,
          "duration": 0.07500000000000284
        },
        {
          "name": "F#2",
          "midi": 42,
          "time": 57.93749999999968,
          "velocity": 1,
          "duration": 0.14999999999999858
        },
        {
          "name": "F#3",
          "midi": 54,
          "time": 58.03124999999968,
          "velocity": 0.47244094488188976,
          "duration": 0.07499999999999574
        },
        {
          "name": "F#2",
          "midi": 42,
          "time": 58.12499999999967,
          "velocity": 1,
          "duration": 0.14999999999999858
        },
        {
          "name": "F#3",
          "midi": 54,
          "time": 58.12499999999967,
          "velocity": 0.47244094488188976,
          "duration": 0.14999999999999858
        },
        {
          "name": "D2",
          "midi": 38,
          "time": 58.12499999999967,
          "velocity": 1,
          "duration": 0.29999999999999716
        },
        {
          "name": "F#3",
          "midi": 54,
          "time": 58.31249999999967,
          "velocity": 0.47244094488188976,
          "duration": 0.07500000000000284
        },
        {
          "name": "F#2",
          "midi": 42,
          "time": 58.31249999999967,
          "velocity": 1,
          "duration": 0.14999999999999858
        },
        {
          "name": "F#3",
          "midi": 54,
          "time": 58.40624999999967,
          "velocity": 0.47244094488188976,
          "duration": 0.07499999999999574
        },
        {
          "name": "G2",
          "midi": 43,
          "time": 58.499999999999666,
          "velocity": 1,
          "duration": 0.14999999999999858
        },
        {
          "name": "F#2",
          "midi": 42,
          "time": 58.499999999999666,
          "velocity": 1,
          "duration": 0.14999999999999858
        },
        {
          "name": "F#3",
          "midi": 54,
          "time": 58.499999999999666,
          "velocity": 0.47244094488188976,
          "duration": 0.14999999999999858
        },
        {
          "name": "C2",
          "midi": 36,
          "time": 58.499999999999666,
          "velocity": 1,
          "duration": 0.29999999999999716
        },
        {
          "name": "F#3",
          "midi": 54,
          "time": 58.687499999999666,
          "velocity": 0.47244094488188976,
          "duration": 0.07500000000000284
        },
        {
          "name": "F#2",
          "midi": 42,
          "time": 58.687499999999666,
          "velocity": 1,
          "duration": 0.14999999999999858
        },
        {
          "name": "D3",
          "midi": 50,
          "time": 58.687499999999666,
          "velocity": 1,
          "duration": 0.14999999999999858
        },
        {
          "name": "F#3",
          "midi": 54,
          "time": 58.781249999999666,
          "velocity": 0.47244094488188976,
          "duration": 0.07499999999999574
        },
        {
          "name": "F#3",
          "midi": 54,
          "time": 58.87499999999966,
          "velocity": 0.47244094488188976,
          "duration": 0.14999999999999858
        },
        {
          "name": "F#2",
          "midi": 42,
          "time": 58.87499999999966,
          "velocity": 1,
          "duration": 0.14999999999999858
        },
        {
          "name": "D3",
          "midi": 50,
          "time": 58.87499999999966,
          "velocity": 1,
          "duration": 0.14999999999999858
        },
        {
          "name": "D2",
          "midi": 38,
          "time": 58.87499999999966,
          "velocity": 1,
          "duration": 0.29999999999999716
        },
        {
          "name": "C3",
          "midi": 48,
          "time": 59.06249999999966,
          "velocity": 1,
          "duration": 0.14999999999999858
        },
        {
          "name": "F#3",
          "midi": 54,
          "time": 59.06249999999966,
          "velocity": 0.47244094488188976,
          "duration": 0.07500000000000284
        },
        {
          "name": "C2",
          "midi": 36,
          "time": 59.06249999999966,
          "velocity": 1,
          "duration": 0.14999999999999858
        },
        {
          "name": "F#2",
          "midi": 42,
          "time": 59.06249999999966,
          "velocity": 1,
          "duration": 0.14999999999999858
        },
        {
          "name": "F#3",
          "midi": 54,
          "time": 59.15624999999966,
          "velocity": 0.47244094488188976,
          "duration": 0.07499999999999574
        },
        {
          "name": "C2",
          "midi": 36,
          "time": 59.24999999999965,
          "velocity": 1,
          "duration": 0.14999999999999858
        },
        {
          "name": "G2",
          "midi": 43,
          "time": 59.24999999999965,
          "velocity": 1,
          "duration": 0.14999999999999858
        },
        {
          "name": "F#2",
          "midi": 42,
          "time": 59.24999999999965,
          "velocity": 1,
          "duration": 0.14999999999999858
        },
        {
          "name": "F#3",
          "midi": 54,
          "time": 59.24999999999965,
          "velocity": 0.47244094488188976,
          "duration": 0.14999999999999858
        },
        {
          "name": "F#3",
          "midi": 54,
          "time": 59.43749999999965,
          "velocity": 0.47244094488188976,
          "duration": 0.07500000000000284
        },
        {
          "name": "A3",
          "midi": 57,
          "time": 59.43749999999965,
          "velocity": 0.8661417322834646,
          "duration": 0.14999999999999858
        },
        {
          "name": "F#2",
          "midi": 42,
          "time": 59.43749999999965,
          "velocity": 1,
          "duration": 0.14999999999999858
        },
        {
          "name": "C2",
          "midi": 36,
          "time": 59.43749999999965,
          "velocity": 1,
          "duration": 0.48749999999999005
        },
        {
          "name": "F#3",
          "midi": 54,
          "time": 59.53124999999965,
          "velocity": 0.47244094488188976,
          "duration": 0.07499999999999574
        },
        {
          "name": "F#3",
          "midi": 54,
          "time": 59.624999999999645,
          "velocity": 0.47244094488188976,
          "duration": 0.14999999999999858
        },
        {
          "name": "A#2",
          "midi": 46,
          "time": 59.624999999999645,
          "velocity": 1,
          "duration": 0.3374999999999986
        },
        {
          "name": "F#3",
          "midi": 54,
          "time": 59.812499999999645,
          "velocity": 0.47244094488188976,
          "duration": 0.07500000000000284
        },
        {
          "name": "F#3",
          "midi": 54,
          "time": 59.906249999999645,
          "velocity": 0.47244094488188976,
          "duration": 0.07499999999999574
        },
        {
          "name": "F#2",
          "midi": 42,
          "time": 59.99999999999964,
          "velocity": 1,
          "duration": 0.14999999999999858
        },
        {
          "name": "F#3",
          "midi": 54,
          "time": 59.99999999999964,
          "velocity": 0.47244094488188976,
          "duration": 0.14999999999999858
        },
        {
          "name": "C2",
          "midi": 36,
          "time": 59.99999999999964,
          "velocity": 1,
          "duration": 0.29999999999999716
        },
        {
          "name": "F#3",
          "midi": 54,
          "time": 60.18749999999964,
          "velocity": 0.47244094488188976,
          "duration": 0.07500000000000284
        },
        {
          "name": "F#2",
          "midi": 42,
          "time": 60.18749999999964,
          "velocity": 1,
          "duration": 0.14999999999999858
        },
        {
          "name": "F#3",
          "midi": 54,
          "time": 60.28124999999964,
          "velocity": 0.47244094488188976,
          "duration": 0.07499999999999574
        },
        {
          "name": "F#2",
          "midi": 42,
          "time": 60.37499999999963,
          "velocity": 1,
          "duration": 0.14999999999999858
        },
        {
          "name": "F#3",
          "midi": 54,
          "time": 60.37499999999963,
          "velocity": 0.47244094488188976,
          "duration": 0.14999999999999858
        },
        {
          "name": "D2",
          "midi": 38,
          "time": 60.37499999999963,
          "velocity": 1,
          "duration": 0.29999999999999716
        },
        {
          "name": "F#3",
          "midi": 54,
          "time": 60.56249999999963,
          "velocity": 0.47244094488188976,
          "duration": 0.07500000000000284
        },
        {
          "name": "F#2",
          "midi": 42,
          "time": 60.56249999999963,
          "velocity": 1,
          "duration": 0.14999999999999858
        },
        {
          "name": "F#3",
          "midi": 54,
          "time": 60.65624999999963,
          "velocity": 0.47244094488188976,
          "duration": 0.07499999999999574
        },
        {
          "name": "F#3",
          "midi": 54,
          "time": 60.74999999999962,
          "velocity": 0.47244094488188976,
          "duration": 0.14999999999999858
        },
        {
          "name": "F#2",
          "midi": 42,
          "time": 60.74999999999962,
          "velocity": 1,
          "duration": 0.14999999999999858
        },
        {
          "name": "C2",
          "midi": 36,
          "time": 60.74999999999962,
          "velocity": 1,
          "duration": 0.29999999999999716
        },
        {
          "name": "F#3",
          "midi": 54,
          "time": 60.93749999999962,
          "velocity": 0.47244094488188976,
          "duration": 0.07500000000000284
        },
        {
          "name": "F#2",
          "midi": 42,
          "time": 60.93749999999962,
          "velocity": 1,
          "duration": 0.14999999999999858
        },
        {
          "name": "F#3",
          "midi": 54,
          "time": 61.03124999999962,
          "velocity": 0.47244094488188976,
          "duration": 0.07499999999999574
        },
        {
          "name": "F#3",
          "midi": 54,
          "time": 61.124999999999616,
          "velocity": 0.47244094488188976,
          "duration": 0.14999999999999858
        },
        {
          "name": "F#2",
          "midi": 42,
          "time": 61.124999999999616,
          "velocity": 1,
          "duration": 0.14999999999999858
        },
        {
          "name": "D2",
          "midi": 38,
          "time": 61.124999999999616,
          "velocity": 1,
          "duration": 0.29999999999999716
        },
        {
          "name": "F#3",
          "midi": 54,
          "time": 61.312499999999616,
          "velocity": 0.47244094488188976,
          "duration": 0.07500000000000284
        },
        {
          "name": "A#2",
          "midi": 46,
          "time": 61.312499999999616,
          "velocity": 1,
          "duration": 0.14999999999999858
        },
        {
          "name": "C2",
          "midi": 36,
          "time": 61.312499999999616,
          "velocity": 1,
          "duration": 0.14999999999999858
        },
        {
          "name": "F#3",
          "midi": 54,
          "time": 61.406249999999616,
          "velocity": 0.47244094488188976,
          "duration": 0.07499999999999574
        },
        {
          "name": "F#3",
          "midi": 54,
          "time": 61.49999999999961,
          "velocity": 0.47244094488188976,
          "duration": 0.14999999999999858
        },
        {
          "name": "F#2",
          "midi": 42,
          "time": 61.49999999999961,
          "velocity": 1,
          "duration": 0.14999999999999858
        },
        {
          "name": "C2",
          "midi": 36,
          "time": 61.49999999999961,
          "velocity": 1,
          "duration": 0.29999999999999716
        },
        {
          "name": "F#3",
          "midi": 54,
          "time": 61.68749999999961,
          "velocity": 0.47244094488188976,
          "duration": 0.07500000000000284
        },
        {
          "name": "F#2",
          "midi": 42,
          "time": 61.68749999999961,
          "velocity": 1,
          "duration": 0.14999999999999858
        },
        {
          "name": "F#3",
          "midi": 54,
          "time": 61.78124999999961,
          "velocity": 0.47244094488188976,
          "duration": 0.07499999999999574
        },
        {
          "name": "F#3",
          "midi": 54,
          "time": 61.8749999999996,
          "velocity": 0.47244094488188976,
          "duration": 0.14999999999999858
        },
        {
          "name": "F#2",
          "midi": 42,
          "time": 61.8749999999996,
          "velocity": 1,
          "duration": 0.14999999999999858
        },
        {
          "name": "D2",
          "midi": 38,
          "time": 61.8749999999996,
          "velocity": 1,
          "duration": 0.29999999999999716
        },
        {
          "name": "F#3",
          "midi": 54,
          "time": 62.0624999999996,
          "velocity": 0.47244094488188976,
          "duration": 0.07500000000000284
        },
        {
          "name": "F#2",
          "midi": 42,
          "time": 62.0624999999996,
          "velocity": 1,
          "duration": 0.14999999999999858
        },
        {
          "name": "F#3",
          "midi": 54,
          "time": 62.1562499999996,
          "velocity": 0.47244094488188976,
          "duration": 0.07499999999999574
        },
        {
          "name": "F#2",
          "midi": 42,
          "time": 62.249999999999595,
          "velocity": 1,
          "duration": 0.14999999999999858
        },
        {
          "name": "F#3",
          "midi": 54,
          "time": 62.249999999999595,
          "velocity": 0.47244094488188976,
          "duration": 0.14999999999999858
        },
        {
          "name": "C2",
          "midi": 36,
          "time": 62.249999999999595,
          "velocity": 1,
          "duration": 0.29999999999999716
        },
        {
          "name": "F#3",
          "midi": 54,
          "time": 62.437499999999595,
          "velocity": 0.47244094488188976,
          "duration": 0.07500000000000284
        },
        {
          "name": "F#2",
          "midi": 42,
          "time": 62.437499999999595,
          "velocity": 1,
          "duration": 0.14999999999999858
        },
        {
          "name": "F#3",
          "midi": 54,
          "time": 62.531249999999595,
          "velocity": 0.47244094488188976,
          "duration": 0.07499999999999574
        },
        {
          "name": "F#2",
          "midi": 42,
          "time": 62.62499999999959,
          "velocity": 1,
          "duration": 0.14999999999999858
        },
        {
          "name": "F#3",
          "midi": 54,
          "time": 62.62499999999959,
          "velocity": 0.47244094488188976,
          "duration": 0.14999999999999858
        },
        {
          "name": "D2",
          "midi": 38,
          "time": 62.62499999999959,
          "velocity": 1,
          "duration": 0.29999999999999716
        },
        {
          "name": "F#3",
          "midi": 54,
          "time": 62.81249999999959,
          "velocity": 0.47244094488188976,
          "duration": 0.07500000000000284
        },
        {
          "name": "C2",
          "midi": 36,
          "time": 62.81249999999959,
          "velocity": 1,
          "duration": 0.14999999999999858
        },
        {
          "name": "A#2",
          "midi": 46,
          "time": 62.81249999999959,
          "velocity": 1,
          "duration": 0.14999999999999858
        },
        {
          "name": "F#3",
          "midi": 54,
          "time": 62.90624999999959,
          "velocity": 0.47244094488188976,
          "duration": 0.07499999999999574
        },
        {
          "name": "F#2",
          "midi": 42,
          "time": 62.99999999999958,
          "velocity": 1,
          "duration": 0.14999999999999858
        },
        {
          "name": "F#3",
          "midi": 54,
          "time": 62.99999999999958,
          "velocity": 0.47244094488188976,
          "duration": 0.14999999999999858
        },
        {
          "name": "C2",
          "midi": 36,
          "time": 62.99999999999958,
          "velocity": 1,
          "duration": 0.29999999999999716
        },
        {
          "name": "F#3",
          "midi": 54,
          "time": 63.18749999999958,
          "velocity": 0.47244094488188976,
          "duration": 0.07500000000000284
        },
        {
          "name": "F#2",
          "midi": 42,
          "time": 63.18749999999958,
          "velocity": 1,
          "duration": 0.14999999999999858
        },
        {
          "name": "F#3",
          "midi": 54,
          "time": 63.28124999999958,
          "velocity": 0.47244094488188976,
          "duration": 0.07499999999999574
        },
        {
          "name": "F#3",
          "midi": 54,
          "time": 63.374999999999574,
          "velocity": 0.47244094488188976,
          "duration": 0.14999999999999858
        },
        {
          "name": "F#2",
          "midi": 42,
          "time": 63.374999999999574,
          "velocity": 1,
          "duration": 0.14999999999999858
        },
        {
          "name": "D2",
          "midi": 38,
          "time": 63.374999999999574,
          "velocity": 1,
          "duration": 0.29999999999999716
        },
        {
          "name": "F#3",
          "midi": 54,
          "time": 63.562499999999574,
          "velocity": 0.47244094488188976,
          "duration": 0.07500000000000284
        },
        {
          "name": "C2",
          "midi": 36,
          "time": 63.562499999999574,
          "velocity": 1,
          "duration": 0.14999999999999858
        },
        {
          "name": "F#2",
          "midi": 42,
          "time": 63.562499999999574,
          "velocity": 1,
          "duration": 0.14999999999999858
        },
        {
          "name": "F#3",
          "midi": 54,
          "time": 63.656249999999574,
          "velocity": 0.47244094488188976,
          "duration": 0.07499999999999574
        },
        {
          "name": "F#3",
          "midi": 54,
          "time": 63.74999999999957,
          "velocity": 0.47244094488188976,
          "duration": 0.14999999999999858
        },
        {
          "name": "F#2",
          "midi": 42,
          "time": 63.74999999999957,
          "velocity": 1,
          "duration": 0.14999999999999858
        },
        {
          "name": "C2",
          "midi": 36,
          "time": 63.74999999999957,
          "velocity": 1,
          "duration": 0.29999999999999005
        },
        {
          "name": "F#3",
          "midi": 54,
          "time": 63.93749999999957,
          "velocity": 0.47244094488188976,
          "duration": 0.07499999999999574
        },
        {
          "name": "F#2",
          "midi": 42,
          "time": 63.93749999999957,
          "velocity": 1,
          "duration": 0.14999999999998437
        },
        {
          "name": "F#3",
          "midi": 54,
          "time": 64.03124999999956,
          "velocity": 0.47244094488188976,
          "duration": 0.07499999999998863
        },
        {
          "name": "F#2",
          "midi": 42,
          "time": 64.12499999999955,
          "velocity": 1,
          "duration": 0.15000000000000568
        },
        {
          "name": "F#3",
          "midi": 54,
          "time": 64.12499999999955,
          "velocity": 0.47244094488188976,
          "duration": 0.15000000000000568
        },
        {
          "name": "D2",
          "midi": 38,
          "time": 64.12499999999955,
          "velocity": 1,
          "duration": 0.29999999999999716
        },
        {
          "name": "F#3",
          "midi": 54,
          "time": 64.31249999999955,
          "velocity": 0.47244094488188976,
          "duration": 0.07500000000000284
        },
        {
          "name": "F#2",
          "midi": 42,
          "time": 64.31249999999955,
          "velocity": 1,
          "duration": 0.14999999999999147
        },
        {
          "name": "F#3",
          "midi": 54,
          "time": 64.40624999999955,
          "velocity": 0.47244094488188976,
          "duration": 0.07499999999998863
        },
        {
          "name": "F#3",
          "midi": 54,
          "time": 64.49999999999953,
          "velocity": 0.47244094488188976,
          "duration": 0.15000000000000568
        },
        {
          "name": "F#2",
          "midi": 42,
          "time": 64.49999999999953,
          "velocity": 1,
          "duration": 0.15000000000000568
        },
        {
          "name": "C2",
          "midi": 36,
          "time": 64.49999999999953,
          "velocity": 1,
          "duration": 0.29999999999999716
        },
        {
          "name": "F#2",
          "midi": 42,
          "time": 64.68749999999953,
          "velocity": 1,
          "duration": 0.14999999999999147
        },
        {
          "name": "F#3",
          "midi": 54,
          "time": 64.68749999999953,
          "velocity": 0.47244094488188976,
          "duration": 0.07500000000000284
        },
        {
          "name": "F#3",
          "midi": 54,
          "time": 64.78124999999953,
          "velocity": 0.47244094488188976,
          "duration": 0.07499999999998863
        },
        {
          "name": "F#3",
          "midi": 54,
          "time": 64.87499999999952,
          "velocity": 0.47244094488188976,
          "duration": 0.15000000000000568
        },
        {
          "name": "F#2",
          "midi": 42,
          "time": 64.87499999999952,
          "velocity": 1,
          "duration": 0.15000000000000568
        },
        {
          "name": "D2",
          "midi": 38,
          "time": 64.87499999999952,
          "velocity": 1,
          "duration": 0.29999999999999716
        },
        {
          "name": "F#3",
          "midi": 54,
          "time": 65.06249999999952,
          "velocity": 0.47244094488188976,
          "duration": 0.07500000000000284
        },
        {
          "name": "F#2",
          "midi": 42,
          "time": 65.06249999999952,
          "velocity": 1,
          "duration": 0.14999999999999147
        },
        {
          "name": "C2",
          "midi": 36,
          "time": 65.06249999999952,
          "velocity": 1,
          "duration": 0.14999999999999147
        },
        {
          "name": "F#3",
          "midi": 54,
          "time": 65.15624999999952,
          "velocity": 0.47244094488188976,
          "duration": 0.07499999999998863
        },
        {
          "name": "F#2",
          "midi": 42,
          "time": 65.2499999999995,
          "velocity": 1,
          "duration": 0.15000000000000568
        },
        {
          "name": "F#3",
          "midi": 54,
          "time": 65.2499999999995,
          "velocity": 0.47244094488188976,
          "duration": 0.15000000000000568
        },
        {
          "name": "C2",
          "midi": 36,
          "time": 65.2499999999995,
          "velocity": 1,
          "duration": 0.15000000000000568
        },
        {
          "name": "F#3",
          "midi": 54,
          "time": 65.4374999999995,
          "velocity": 0.47244094488188976,
          "duration": 0.07500000000000284
        },
        {
          "name": "F#2",
          "midi": 42,
          "time": 65.4374999999995,
          "velocity": 1,
          "duration": 0.15000000000000568
        },
        {
          "name": "A3",
          "midi": 57,
          "time": 65.4374999999995,
          "velocity": 0.8661417322834646,
          "duration": 0.15000000000000568
        },
        {
          "name": "C2",
          "midi": 36,
          "time": 65.4374999999995,
          "velocity": 1,
          "duration": 0.48749999999999716
        },
        {
          "name": "F#3",
          "midi": 54,
          "time": 65.5312499999995,
          "velocity": 0.47244094488188976,
          "duration": 0.07500000000000284
        },
        {
          "name": "F#2",
          "midi": 42,
          "time": 65.6249999999995,
          "velocity": 1,
          "duration": 0.15000000000000568
        },
        {
          "name": "F#3",
          "midi": 54,
          "time": 65.6249999999995,
          "velocity": 0.47244094488188976,
          "duration": 0.15000000000000568
        },
        {
          "name": "D2",
          "midi": 38,
          "time": 65.6249999999995,
          "velocity": 0.6299212598425197,
          "duration": 0.29999999999999716
        },
        {
          "name": "F#3",
          "midi": 54,
          "time": 65.8124999999995,
          "velocity": 0.47244094488188976,
          "duration": 0.07500000000000284
        },
        {
          "name": "A#2",
          "midi": 46,
          "time": 65.8124999999995,
          "velocity": 1,
          "duration": 0.14999999999999147
        },
        {
          "name": "F#3",
          "midi": 54,
          "time": 65.9062499999995,
          "velocity": 0.47244094488188976,
          "duration": 0.07499999999998863
        },
        {
          "name": "F#2",
          "midi": 42,
          "time": 65.99999999999949,
          "velocity": 1,
          "duration": 0.15000000000000568
        },
        {
          "name": "F#3",
          "midi": 54,
          "time": 65.99999999999949,
          "velocity": 0.47244094488188976,
          "duration": 0.15000000000000568
        },
        {
          "name": "C2",
          "midi": 36,
          "time": 65.99999999999949,
          "velocity": 1,
          "duration": 0.29999999999999716
        },
        {
          "name": "F#3",
          "midi": 54,
          "time": 66.18749999999949,
          "velocity": 0.47244094488188976,
          "duration": 0.07500000000000284
        },
        {
          "name": "F#2",
          "midi": 42,
          "time": 66.18749999999949,
          "velocity": 1,
          "duration": 0.14999999999999147
        },
        {
          "name": "F#3",
          "midi": 54,
          "time": 66.28124999999949,
          "velocity": 0.47244094488188976,
          "duration": 0.07499999999998863
        },
        {
          "name": "F#3",
          "midi": 54,
          "time": 66.37499999999947,
          "velocity": 0.47244094488188976,
          "duration": 0.15000000000000568
        },
        {
          "name": "F#2",
          "midi": 42,
          "time": 66.37499999999947,
          "velocity": 1,
          "duration": 0.15000000000000568
        },
        {
          "name": "D2",
          "midi": 38,
          "time": 66.37499999999947,
          "velocity": 1,
          "duration": 0.29999999999999716
        },
        {
          "name": "F#3",
          "midi": 54,
          "time": 66.56249999999947,
          "velocity": 0.47244094488188976,
          "duration": 0.07500000000000284
        },
        {
          "name": "F#2",
          "midi": 42,
          "time": 66.56249999999947,
          "velocity": 1,
          "duration": 0.14999999999999147
        },
        {
          "name": "F#3",
          "midi": 54,
          "time": 66.65624999999947,
          "velocity": 0.47244094488188976,
          "duration": 0.07499999999998863
        },
        {
          "name": "F#2",
          "midi": 42,
          "time": 66.74999999999946,
          "velocity": 1,
          "duration": 0.15000000000000568
        },
        {
          "name": "F#3",
          "midi": 54,
          "time": 66.74999999999946,
          "velocity": 0.47244094488188976,
          "duration": 0.15000000000000568
        },
        {
          "name": "C2",
          "midi": 36,
          "time": 66.74999999999946,
          "velocity": 1,
          "duration": 0.29999999999999716
        },
        {
          "name": "F#2",
          "midi": 42,
          "time": 66.93749999999946,
          "velocity": 1,
          "duration": 0.14999999999999147
        },
        {
          "name": "F#3",
          "midi": 54,
          "time": 66.93749999999946,
          "velocity": 0.47244094488188976,
          "duration": 0.07500000000000284
        },
        {
          "name": "F#3",
          "midi": 54,
          "time": 67.03124999999946,
          "velocity": 0.47244094488188976,
          "duration": 0.07499999999998863
        },
        {
          "name": "F#3",
          "midi": 54,
          "time": 67.12499999999945,
          "velocity": 0.47244094488188976,
          "duration": 0.15000000000000568
        },
        {
          "name": "F#2",
          "midi": 42,
          "time": 67.12499999999945,
          "velocity": 1,
          "duration": 0.15000000000000568
        },
        {
          "name": "D2",
          "midi": 38,
          "time": 67.12499999999945,
          "velocity": 1,
          "duration": 0.29999999999999716
        },
        {
          "name": "F#3",
          "midi": 54,
          "time": 67.31249999999945,
          "velocity": 0.47244094488188976,
          "duration": 0.07500000000000284
        },
        {
          "name": "C2",
          "midi": 36,
          "time": 67.31249999999945,
          "velocity": 1,
          "duration": 0.14999999999999147
        },
        {
          "name": "A#2",
          "midi": 46,
          "time": 67.31249999999945,
          "velocity": 1,
          "duration": 0.14999999999999147
        },
        {
          "name": "F#3",
          "midi": 54,
          "time": 67.40624999999945,
          "velocity": 0.47244094488188976,
          "duration": 0.07499999999998863
        },
        {
          "name": "F#2",
          "midi": 42,
          "time": 67.49999999999943,
          "velocity": 1,
          "duration": 0.15000000000000568
        },
        {
          "name": "F#3",
          "midi": 54,
          "time": 67.49999999999943,
          "velocity": 0.47244094488188976,
          "duration": 0.15000000000000568
        },
        {
          "name": "C2",
          "midi": 36,
          "time": 67.49999999999943,
          "velocity": 1,
          "duration": 0.29999999999999716
        },
        {
          "name": "F#3",
          "midi": 54,
          "time": 67.68749999999943,
          "velocity": 0.47244094488188976,
          "duration": 0.07500000000000284
        },
        {
          "name": "F#2",
          "midi": 42,
          "time": 67.68749999999943,
          "velocity": 1,
          "duration": 0.14999999999999147
        },
        {
          "name": "F#3",
          "midi": 54,
          "time": 67.78124999999943,
          "velocity": 0.47244094488188976,
          "duration": 0.07499999999998863
        },
        {
          "name": "F#3",
          "midi": 54,
          "time": 67.87499999999942,
          "velocity": 0.47244094488188976,
          "duration": 0.15000000000000568
        },
        {
          "name": "F#2",
          "midi": 42,
          "time": 67.87499999999942,
          "velocity": 1,
          "duration": 0.15000000000000568
        },
        {
          "name": "D2",
          "midi": 38,
          "time": 67.87499999999942,
          "velocity": 1,
          "duration": 0.29999999999999716
        },
        {
          "name": "F#3",
          "midi": 54,
          "time": 68.06249999999942,
          "velocity": 0.47244094488188976,
          "duration": 0.07500000000000284
        },
        {
          "name": "F#2",
          "midi": 42,
          "time": 68.06249999999942,
          "velocity": 1,
          "duration": 0.14999999999999147
        },
        {
          "name": "F#3",
          "midi": 54,
          "time": 68.15624999999942,
          "velocity": 0.47244094488188976,
          "duration": 0.07499999999998863
        },
        {
          "name": "F#2",
          "midi": 42,
          "time": 68.2499999999994,
          "velocity": 1,
          "duration": 0.15000000000000568
        },
        {
          "name": "F#3",
          "midi": 54,
          "time": 68.2499999999994,
          "velocity": 0.47244094488188976,
          "duration": 0.15000000000000568
        },
        {
          "name": "C2",
          "midi": 36,
          "time": 68.2499999999994,
          "velocity": 1,
          "duration": 0.29999999999999716
        },
        {
          "name": "F#3",
          "midi": 54,
          "time": 68.4374999999994,
          "velocity": 0.47244094488188976,
          "duration": 0.07500000000000284
        },
        {
          "name": "F#2",
          "midi": 42,
          "time": 68.4374999999994,
          "velocity": 1,
          "duration": 0.14999999999999147
        },
        {
          "name": "F#3",
          "midi": 54,
          "time": 68.5312499999994,
          "velocity": 0.47244094488188976,
          "duration": 0.07499999999998863
        },
        {
          "name": "F#3",
          "midi": 54,
          "time": 68.62499999999939,
          "velocity": 0.47244094488188976,
          "duration": 0.15000000000000568
        },
        {
          "name": "F#2",
          "midi": 42,
          "time": 68.62499999999939,
          "velocity": 1,
          "duration": 0.15000000000000568
        },
        {
          "name": "D2",
          "midi": 38,
          "time": 68.62499999999939,
          "velocity": 1,
          "duration": 0.29999999999999716
        },
        {
          "name": "F#3",
          "midi": 54,
          "time": 68.81249999999939,
          "velocity": 0.47244094488188976,
          "duration": 0.07500000000000284
        },
        {
          "name": "C2",
          "midi": 36,
          "time": 68.81249999999939,
          "velocity": 1,
          "duration": 0.14999999999999147
        },
        {
          "name": "A#2",
          "midi": 46,
          "time": 68.81249999999939,
          "velocity": 1,
          "duration": 0.14999999999999147
        },
        {
          "name": "F#3",
          "midi": 54,
          "time": 68.90624999999939,
          "velocity": 0.47244094488188976,
          "duration": 0.07499999999998863
        },
        {
          "name": "F#2",
          "midi": 42,
          "time": 68.99999999999937,
          "velocity": 1,
          "duration": 0.15000000000000568
        },
        {
          "name": "F#3",
          "midi": 54,
          "time": 68.99999999999937,
          "velocity": 0.47244094488188976,
          "duration": 0.15000000000000568
        },
        {
          "name": "C2",
          "midi": 36,
          "time": 68.99999999999937,
          "velocity": 1,
          "duration": 0.29999999999999716
        },
        {
          "name": "F#3",
          "midi": 54,
          "time": 69.18749999999937,
          "velocity": 0.47244094488188976,
          "duration": 0.07500000000000284
        },
        {
          "name": "F#2",
          "midi": 42,
          "time": 69.18749999999937,
          "velocity": 1,
          "duration": 0.14999999999999147
        },
        {
          "name": "F#3",
          "midi": 54,
          "time": 69.28124999999937,
          "velocity": 0.47244094488188976,
          "duration": 0.07499999999998863
        },
        {
          "name": "F#3",
          "midi": 54,
          "time": 69.37499999999936,
          "velocity": 0.47244094488188976,
          "duration": 0.15000000000000568
        },
        {
          "name": "F#2",
          "midi": 42,
          "time": 69.37499999999936,
          "velocity": 1,
          "duration": 0.15000000000000568
        },
        {
          "name": "D2",
          "midi": 38,
          "time": 69.37499999999936,
          "velocity": 1,
          "duration": 0.29999999999999716
        },
        {
          "name": "F#3",
          "midi": 54,
          "time": 69.56249999999936,
          "velocity": 0.47244094488188976,
          "duration": 0.07500000000000284
        },
        {
          "name": "F#2",
          "midi": 42,
          "time": 69.56249999999936,
          "velocity": 1,
          "duration": 0.14999999999999147
        },
        {
          "name": "C2",
          "midi": 36,
          "time": 69.56249999999936,
          "velocity": 1,
          "duration": 0.14999999999999147
        },
        {
          "name": "F#3",
          "midi": 54,
          "time": 69.65624999999936,
          "velocity": 0.47244094488188976,
          "duration": 0.07499999999998863
        },
        {
          "name": "F#3",
          "midi": 54,
          "time": 69.74999999999935,
          "velocity": 0.47244094488188976,
          "duration": 0.15000000000000568
        },
        {
          "name": "F#2",
          "midi": 42,
          "time": 69.74999999999935,
          "velocity": 1,
          "duration": 0.15000000000000568
        },
        {
          "name": "C2",
          "midi": 36,
          "time": 69.74999999999935,
          "velocity": 1,
          "duration": 0.29999999999999716
        },
        {
          "name": "F#3",
          "midi": 54,
          "time": 69.93749999999935,
          "velocity": 0.47244094488188976,
          "duration": 0.07500000000000284
        },
        {
          "name": "D3",
          "midi": 50,
          "time": 69.93749999999935,
          "velocity": 1,
          "duration": 0.14999999999999147
        },
        {
          "name": "F#2",
          "midi": 42,
          "time": 69.93749999999935,
          "velocity": 1,
          "duration": 0.14999999999999147
        },
        {
          "name": "F#3",
          "midi": 54,
          "time": 70.03124999999935,
          "velocity": 0.47244094488188976,
          "duration": 0.07499999999998863
        },
        {
          "name": "F#2",
          "midi": 42,
          "time": 70.12499999999933,
          "velocity": 1,
          "duration": 0.15000000000000568
        },
        {
          "name": "F#3",
          "midi": 54,
          "time": 70.12499999999933,
          "velocity": 0.47244094488188976,
          "duration": 0.15000000000000568
        },
        {
          "name": "D3",
          "midi": 50,
          "time": 70.12499999999933,
          "velocity": 1,
          "duration": 0.15000000000000568
        },
        {
          "name": "D2",
          "midi": 38,
          "time": 70.12499999999933,
          "velocity": 1,
          "duration": 0.29999999999999716
        },
        {
          "name": "F#3",
          "midi": 54,
          "time": 70.31249999999933,
          "velocity": 0.47244094488188976,
          "duration": 0.07500000000000284
        },
        {
          "name": "D3",
          "midi": 50,
          "time": 70.31249999999933,
          "velocity": 1,
          "duration": 0.14999999999999147
        },
        {
          "name": "F#2",
          "midi": 42,
          "time": 70.31249999999933,
          "velocity": 1,
          "duration": 0.14999999999999147
        },
        {
          "name": "F#3",
          "midi": 54,
          "time": 70.40624999999933,
          "velocity": 0.47244094488188976,
          "duration": 0.07499999999998863
        },
        {
          "name": "F#3",
          "midi": 54,
          "time": 70.49999999999932,
          "velocity": 0.47244094488188976,
          "duration": 0.15000000000000568
        },
        {
          "name": "F#2",
          "midi": 42,
          "time": 70.49999999999932,
          "velocity": 1,
          "duration": 0.15000000000000568
        },
        {
          "name": "C2",
          "midi": 36,
          "time": 70.49999999999932,
          "velocity": 1,
          "duration": 0.29999999999999716
        },
        {
          "name": "F#3",
          "midi": 54,
          "time": 70.68749999999932,
          "velocity": 0.47244094488188976,
          "duration": 0.07500000000000284
        },
        {
          "name": "C3",
          "midi": 48,
          "time": 70.68749999999932,
          "velocity": 1,
          "duration": 0.14999999999999147
        },
        {
          "name": "F#2",
          "midi": 42,
          "time": 70.68749999999932,
          "velocity": 1,
          "duration": 0.14999999999999147
        },
        {
          "name": "F#3",
          "midi": 54,
          "time": 70.78124999999932,
          "velocity": 0.47244094488188976,
          "duration": 0.07499999999998863
        },
        {
          "name": "F#2",
          "midi": 42,
          "time": 70.8749999999993,
          "velocity": 1,
          "duration": 0.15000000000000568
        },
        {
          "name": "F#3",
          "midi": 54,
          "time": 70.8749999999993,
          "velocity": 0.47244094488188976,
          "duration": 0.15000000000000568
        },
        {
          "name": "B2",
          "midi": 47,
          "time": 70.8749999999993,
          "velocity": 1,
          "duration": 0.15000000000000568
        },
        {
          "name": "D2",
          "midi": 38,
          "time": 70.8749999999993,
          "velocity": 1,
          "duration": 0.29999999999999716
        },
        {
          "name": "F#3",
          "midi": 54,
          "time": 71.0624999999993,
          "velocity": 0.47244094488188976,
          "duration": 0.07500000000000284
        },
        {
          "name": "G2",
          "midi": 43,
          "time": 71.0624999999993,
          "velocity": 1,
          "duration": 0.14999999999999147
        },
        {
          "name": "F#2",
          "midi": 42,
          "time": 71.0624999999993,
          "velocity": 1,
          "duration": 0.14999999999999147
        },
        {
          "name": "C2",
          "midi": 36,
          "time": 71.0624999999993,
          "velocity": 1,
          "duration": 0.14999999999999147
        },
        {
          "name": "F#3",
          "midi": 54,
          "time": 71.1562499999993,
          "velocity": 0.47244094488188976,
          "duration": 0.07499999999998863
        },
        {
          "name": "C2",
          "midi": 36,
          "time": 71.24999999999929,
          "velocity": 1,
          "duration": 0.15000000000000568
        },
        {
          "name": "F#3",
          "midi": 54,
          "time": 71.24999999999929,
          "velocity": 0.47244094488188976,
          "duration": 0.15000000000000568
        },
        {
          "name": "F#2",
          "midi": 42,
          "time": 71.24999999999929,
          "velocity": 1,
          "duration": 0.15000000000000568
        },
        {
          "name": "F#3",
          "midi": 54,
          "time": 71.43749999999929,
          "velocity": 0.47244094488188976,
          "duration": 0.07500000000000284
        },
        {
          "name": "A3",
          "midi": 57,
          "time": 71.43749999999929,
          "velocity": 0.8661417322834646,
          "duration": 0.15000000000000568
        },
        {
          "name": "F#2",
          "midi": 42,
          "time": 71.43749999999929,
          "velocity": 1,
          "duration": 0.15000000000000568
        },
        {
          "name": "C2",
          "midi": 36,
          "time": 71.43749999999929,
          "velocity": 1,
          "duration": 0.48749999999999716
        },
        {
          "name": "F#3",
          "midi": 54,
          "time": 71.53124999999929,
          "velocity": 0.47244094488188976,
          "duration": 0.07500000000000284
        },
        {
          "name": "F#3",
          "midi": 54,
          "time": 71.62499999999929,
          "velocity": 0.47244094488188976,
          "duration": 0.15000000000000568
        },
        {
          "name": "F#2",
          "midi": 42,
          "time": 71.62499999999929,
          "velocity": 0.6299212598425197,
          "duration": 0.15000000000000568
        },
        {
          "name": "D2",
          "midi": 38,
          "time": 71.62499999999929,
          "velocity": 0.6299212598425197,
          "duration": 0.29999999999999716
        },
        {
          "name": "F#3",
          "midi": 54,
          "time": 71.81249999999929,
          "velocity": 0.47244094488188976,
          "duration": 0.07500000000000284
        },
        {
          "name": "F#3",
          "midi": 54,
          "time": 71.90624999999929,
          "velocity": 0.47244094488188976,
          "duration": 0.07500000000000284
        },
        {
          "name": "F#2",
          "midi": 42,
          "time": 71.99999999999929,
          "velocity": 1,
          "duration": 0.15000000000000568
        },
        {
          "name": "F#3",
          "midi": 54,
          "time": 71.99999999999929,
          "velocity": 0.47244094488188976,
          "duration": 0.15000000000000568
        },
        {
          "name": "C2",
          "midi": 36,
          "time": 71.99999999999929,
          "velocity": 1,
          "duration": 0.29999999999999716
        },
        {
          "name": "F#3",
          "midi": 54,
          "time": 72.18749999999929,
          "velocity": 0.47244094488188976,
          "duration": 0.07500000000000284
        },
        {
          "name": "F#2",
          "midi": 42,
          "time": 72.18749999999929,
          "velocity": 1,
          "duration": 0.14999999999999147
        },
        {
          "name": "F#3",
          "midi": 54,
          "time": 72.28124999999929,
          "velocity": 0.47244094488188976,
          "duration": 0.07499999999998863
        },
        {
          "name": "F#3",
          "midi": 54,
          "time": 72.37499999999928,
          "velocity": 0.47244094488188976,
          "duration": 0.15000000000000568
        },
        {
          "name": "F#2",
          "midi": 42,
          "time": 72.37499999999928,
          "velocity": 1,
          "duration": 0.15000000000000568
        },
        {
          "name": "D2",
          "midi": 38,
          "time": 72.37499999999928,
          "velocity": 1,
          "duration": 0.29999999999999716
        },
        {
          "name": "F#3",
          "midi": 54,
          "time": 72.56249999999928,
          "velocity": 0.47244094488188976,
          "duration": 0.07500000000000284
        },
        {
          "name": "F#2",
          "midi": 42,
          "time": 72.56249999999928,
          "velocity": 1,
          "duration": 0.14999999999999147
        },
        {
          "name": "F#3",
          "midi": 54,
          "time": 72.65624999999928,
          "velocity": 0.47244094488188976,
          "duration": 0.07499999999998863
        },
        {
          "name": "F#3",
          "midi": 54,
          "time": 72.74999999999926,
          "velocity": 0.47244094488188976,
          "duration": 0.15000000000000568
        },
        {
          "name": "F#2",
          "midi": 42,
          "time": 72.74999999999926,
          "velocity": 1,
          "duration": 0.15000000000000568
        },
        {
          "name": "C2",
          "midi": 36,
          "time": 72.74999999999926,
          "velocity": 1,
          "duration": 0.29999999999999716
        },
        {
          "name": "F#2",
          "midi": 42,
          "time": 72.93749999999926,
          "velocity": 1,
          "duration": 0.14999999999999147
        },
        {
          "name": "F#3",
          "midi": 54,
          "time": 72.93749999999926,
          "velocity": 0.47244094488188976,
          "duration": 0.07500000000000284
        },
        {
          "name": "F#3",
          "midi": 54,
          "time": 73.03124999999926,
          "velocity": 0.47244094488188976,
          "duration": 0.07499999999998863
        },
        {
          "name": "F#2",
          "midi": 42,
          "time": 73.12499999999925,
          "velocity": 1,
          "duration": 0.15000000000000568
        },
        {
          "name": "F#3",
          "midi": 54,
          "time": 73.12499999999925,
          "velocity": 0.47244094488188976,
          "duration": 0.15000000000000568
        },
        {
          "name": "D2",
          "midi": 38,
          "time": 73.12499999999925,
          "velocity": 1,
          "duration": 0.29999999999999716
        },
        {
          "name": "F#3",
          "midi": 54,
          "time": 73.31249999999925,
          "velocity": 0.47244094488188976,
          "duration": 0.07500000000000284
        },
        {
          "name": "A#2",
          "midi": 46,
          "time": 73.31249999999925,
          "velocity": 1,
          "duration": 0.14999999999999147
        },
        {
          "name": "C2",
          "midi": 36,
          "time": 73.31249999999925,
          "velocity": 1,
          "duration": 0.14999999999999147
        },
        {
          "name": "F#3",
          "midi": 54,
          "time": 73.40624999999925,
          "velocity": 0.47244094488188976,
          "duration": 0.07499999999998863
        },
        {
          "name": "F#3",
          "midi": 54,
          "time": 73.49999999999923,
          "velocity": 0.47244094488188976,
          "duration": 0.15000000000000568
        },
        {
          "name": "F#2",
          "midi": 42,
          "time": 73.49999999999923,
          "velocity": 1,
          "duration": 0.15000000000000568
        },
        {
          "name": "C2",
          "midi": 36,
          "time": 73.49999999999923,
          "velocity": 1,
          "duration": 0.29999999999999716
        },
        {
          "name": "F#3",
          "midi": 54,
          "time": 73.68749999999923,
          "velocity": 0.47244094488188976,
          "duration": 0.07500000000000284
        },
        {
          "name": "F#2",
          "midi": 42,
          "time": 73.68749999999923,
          "velocity": 1,
          "duration": 0.14999999999999147
        },
        {
          "name": "F#3",
          "midi": 54,
          "time": 73.78124999999923,
          "velocity": 0.47244094488188976,
          "duration": 0.07499999999998863
        },
        {
          "name": "F#2",
          "midi": 42,
          "time": 73.87499999999922,
          "velocity": 1,
          "duration": 0.15000000000000568
        },
        {
          "name": "F#3",
          "midi": 54,
          "time": 73.87499999999922,
          "velocity": 0.47244094488188976,
          "duration": 0.15000000000000568
        },
        {
          "name": "D2",
          "midi": 38,
          "time": 73.87499999999922,
          "velocity": 1,
          "duration": 0.29999999999999716
        },
        {
          "name": "F#2",
          "midi": 42,
          "time": 74.06249999999922,
          "velocity": 1,
          "duration": 0.14999999999999147
        },
        {
          "name": "F#3",
          "midi": 54,
          "time": 74.06249999999922,
          "velocity": 0.47244094488188976,
          "duration": 0.07500000000000284
        },
        {
          "name": "F#3",
          "midi": 54,
          "time": 74.15624999999922,
          "velocity": 0.47244094488188976,
          "duration": 0.07499999999998863
        },
        {
          "name": "F#2",
          "midi": 42,
          "time": 74.2499999999992,
          "velocity": 1,
          "duration": 0.15000000000000568
        },
        {
          "name": "F#3",
          "midi": 54,
          "time": 74.2499999999992,
          "velocity": 0.47244094488188976,
          "duration": 0.15000000000000568
        },
        {
          "name": "C2",
          "midi": 36,
          "time": 74.2499999999992,
          "velocity": 1,
          "duration": 0.29999999999999716
        },
        {
          "name": "F#3",
          "midi": 54,
          "time": 74.4374999999992,
          "velocity": 0.47244094488188976,
          "duration": 0.07500000000000284
        },
        {
          "name": "F#2",
          "midi": 42,
          "time": 74.4374999999992,
          "velocity": 1,
          "duration": 0.14999999999999147
        },
        {
          "name": "F#3",
          "midi": 54,
          "time": 74.5312499999992,
          "velocity": 0.47244094488188976,
          "duration": 0.07499999999998863
        },
        {
          "name": "F#3",
          "midi": 54,
          "time": 74.62499999999919,
          "velocity": 0.47244094488188976,
          "duration": 0.15000000000000568
        },
        {
          "name": "F#2",
          "midi": 42,
          "time": 74.62499999999919,
          "velocity": 1,
          "duration": 0.15000000000000568
        },
        {
          "name": "D2",
          "midi": 38,
          "time": 74.62499999999919,
          "velocity": 1,
          "duration": 0.29999999999999716
        },
        {
          "name": "F#3",
          "midi": 54,
          "time": 74.81249999999919,
          "velocity": 0.47244094488188976,
          "duration": 0.07500000000000284
        },
        {
          "name": "C2",
          "midi": 36,
          "time": 74.81249999999919,
          "velocity": 1,
          "duration": 0.14999999999999147
        },
        {
          "name": "A#2",
          "midi": 46,
          "time": 74.81249999999919,
          "velocity": 1,
          "duration": 0.14999999999999147
        },
        {
          "name": "F#3",
          "midi": 54,
          "time": 74.90624999999919,
          "velocity": 0.47244094488188976,
          "duration": 0.07499999999998863
        },
        {
          "name": "F#2",
          "midi": 42,
          "time": 74.99999999999918,
          "velocity": 1,
          "duration": 0.15000000000000568
        },
        {
          "name": "F#3",
          "midi": 54,
          "time": 74.99999999999918,
          "velocity": 0.47244094488188976,
          "duration": 0.15000000000000568
        },
        {
          "name": "C2",
          "midi": 36,
          "time": 74.99999999999918,
          "velocity": 1,
          "duration": 0.29999999999999716
        },
        {
          "name": "F#3",
          "midi": 54,
          "time": 75.18749999999918,
          "velocity": 0.47244094488188976,
          "duration": 0.07500000000000284
        },
        {
          "name": "F#2",
          "midi": 42,
          "time": 75.18749999999918,
          "velocity": 1,
          "duration": 0.14999999999999147
        },
        {
          "name": "F#3",
          "midi": 54,
          "time": 75.28124999999918,
          "velocity": 0.47244094488188976,
          "duration": 0.07499999999998863
        },
        {
          "name": "F#3",
          "midi": 54,
          "time": 75.37499999999916,
          "velocity": 0.47244094488188976,
          "duration": 0.15000000000000568
        },
        {
          "name": "F#2",
          "midi": 42,
          "time": 75.37499999999916,
          "velocity": 1,
          "duration": 0.15000000000000568
        },
        {
          "name": "D2",
          "midi": 38,
          "time": 75.37499999999916,
          "velocity": 1,
          "duration": 0.29999999999999716
        },
        {
          "name": "F#3",
          "midi": 54,
          "time": 75.56249999999916,
          "velocity": 0.47244094488188976,
          "duration": 0.07500000000000284
        },
        {
          "name": "F#2",
          "midi": 42,
          "time": 75.56249999999916,
          "velocity": 1,
          "duration": 0.14999999999999147
        },
        {
          "name": "C2",
          "midi": 36,
          "time": 75.56249999999916,
          "velocity": 1,
          "duration": 0.14999999999999147
        },
        {
          "name": "F#3",
          "midi": 54,
          "time": 75.65624999999916,
          "velocity": 0.47244094488188976,
          "duration": 0.07499999999998863
        },
        {
          "name": "F#2",
          "midi": 42,
          "time": 75.74999999999915,
          "velocity": 1,
          "duration": 0.15000000000000568
        },
        {
          "name": "F#3",
          "midi": 54,
          "time": 75.74999999999915,
          "velocity": 0.47244094488188976,
          "duration": 0.15000000000000568
        },
        {
          "name": "C2",
          "midi": 36,
          "time": 75.74999999999915,
          "velocity": 1,
          "duration": 0.29999999999999716
        },
        {
          "name": "F#3",
          "midi": 54,
          "time": 75.93749999999915,
          "velocity": 0.47244094488188976,
          "duration": 0.07500000000000284
        },
        {
          "name": "F#2",
          "midi": 42,
          "time": 75.93749999999915,
          "velocity": 1,
          "duration": 0.14999999999999147
        },
        {
          "name": "F#3",
          "midi": 54,
          "time": 76.03124999999915,
          "velocity": 0.47244094488188976,
          "duration": 0.07499999999998863
        },
        {
          "name": "F#2",
          "midi": 42,
          "time": 76.12499999999913,
          "velocity": 1,
          "duration": 0.15000000000000568
        },
        {
          "name": "F#3",
          "midi": 54,
          "time": 76.12499999999913,
          "velocity": 0.47244094488188976,
          "duration": 0.15000000000000568
        },
        {
          "name": "D2",
          "midi": 38,
          "time": 76.12499999999913,
          "velocity": 1,
          "duration": 0.29999999999999716
        },
        {
          "name": "F#3",
          "midi": 54,
          "time": 76.31249999999913,
          "velocity": 0.47244094488188976,
          "duration": 0.07500000000000284
        },
        {
          "name": "F#2",
          "midi": 42,
          "time": 76.31249999999913,
          "velocity": 1,
          "duration": 0.14999999999999147
        },
        {
          "name": "F#3",
          "midi": 54,
          "time": 76.40624999999913,
          "velocity": 0.47244094488188976,
          "duration": 0.07499999999998863
        },
        {
          "name": "G2",
          "midi": 43,
          "time": 76.49999999999912,
          "velocity": 1,
          "duration": 0.15000000000000568
        },
        {
          "name": "F#2",
          "midi": 42,
          "time": 76.49999999999912,
          "velocity": 1,
          "duration": 0.15000000000000568
        },
        {
          "name": "F#3",
          "midi": 54,
          "time": 76.49999999999912,
          "velocity": 0.47244094488188976,
          "duration": 0.15000000000000568
        },
        {
          "name": "C2",
          "midi": 36,
          "time": 76.49999999999912,
          "velocity": 1,
          "duration": 0.29999999999999716
        },
        {
          "name": "D3",
          "midi": 50,
          "time": 76.68749999999912,
          "velocity": 1,
          "duration": 0.14999999999999147
        },
        {
          "name": "F#2",
          "midi": 42,
          "time": 76.68749999999912,
          "velocity": 1,
          "duration": 0.14999999999999147
        },
        {
          "name": "F#3",
          "midi": 54,
          "time": 76.68749999999912,
          "velocity": 0.47244094488188976,
          "duration": 0.07500000000000284
        },
        {
          "name": "F#3",
          "midi": 54,
          "time": 76.78124999999912,
          "velocity": 0.47244094488188976,
          "duration": 0.07499999999998863
        },
        {
          "name": "D3",
          "midi": 50,
          "time": 76.8749999999991,
          "velocity": 1,
          "duration": 0.15000000000000568
        },
        {
          "name": "F#2",
          "midi": 42,
          "time": 76.8749999999991,
          "velocity": 1,
          "duration": 0.15000000000000568
        },
        {
          "name": "F#3",
          "midi": 54,
          "time": 76.8749999999991,
          "velocity": 0.47244094488188976,
          "duration": 0.15000000000000568
        },
        {
          "name": "D2",
          "midi": 38,
          "time": 76.8749999999991,
          "velocity": 1,
          "duration": 0.29999999999999716
        },
        {
          "name": "F#3",
          "midi": 54,
          "time": 77.0624999999991,
          "velocity": 0.47244094488188976,
          "duration": 0.07500000000000284
        },
        {
          "name": "C2",
          "midi": 36,
          "time": 77.0624999999991,
          "velocity": 1,
          "duration": 0.14999999999999147
        },
        {
          "name": "F#2",
          "midi": 42,
          "time": 77.0624999999991,
          "velocity": 1,
          "duration": 0.14999999999999147
        },
        {
          "name": "C3",
          "midi": 48,
          "time": 77.0624999999991,
          "velocity": 1,
          "duration": 0.14999999999999147
        },
        {
          "name": "F#3",
          "midi": 54,
          "time": 77.1562499999991,
          "velocity": 0.47244094488188976,
          "duration": 0.07499999999998863
        },
        {
          "name": "F#2",
          "midi": 42,
          "time": 77.24999999999909,
          "velocity": 1,
          "duration": 0.15000000000000568
        },
        {
          "name": "G2",
          "midi": 43,
          "time": 77.24999999999909,
          "velocity": 1,
          "duration": 0.15000000000000568
        },
        {
          "name": "C2",
          "midi": 36,
          "time": 77.24999999999909,
          "velocity": 1,
          "duration": 0.15000000000000568
        },
        {
          "name": "F#3",
          "midi": 54,
          "time": 77.24999999999909,
          "velocity": 0.47244094488188976,
          "duration": 0.15000000000000568
        },
        {
          "name": "F#3",
          "midi": 54,
          "time": 77.43749999999909,
          "velocity": 0.47244094488188976,
          "duration": 0.07500000000000284
        },
        {
          "name": "F#2",
          "midi": 42,
          "time": 77.43749999999909,
          "velocity": 1,
          "duration": 0.15000000000000568
        },
        {
          "name": "A3",
          "midi": 57,
          "time": 77.43749999999909,
          "velocity": 0.8661417322834646,
          "duration": 0.15000000000000568
        },
        {
          "name": "C2",
          "midi": 36,
          "time": 77.43749999999909,
          "velocity": 1,
          "duration": 0.48749999999999716
        },
        {
          "name": "F#3",
          "midi": 54,
          "time": 77.53124999999909,
          "velocity": 0.47244094488188976,
          "duration": 0.07500000000000284
        },
        {
          "name": "F#3",
          "midi": 54,
          "time": 77.62499999999909,
          "velocity": 0.47244094488188976,
          "duration": 0.15000000000000568
        },
        {
          "name": "A#2",
          "midi": 46,
          "time": 77.62499999999909,
          "velocity": 1,
          "duration": 0.3374999999999915
        },
        {
          "name": "F#3",
          "midi": 54,
          "time": 77.81249999999909,
          "velocity": 0.47244094488188976,
          "duration": 0.07500000000000284
        },
        {
          "name": "F#3",
          "midi": 54,
          "time": 77.90624999999909,
          "velocity": 0.47244094488188976,
          "duration": 0.07499999999998863
        },
        {
          "name": "F#2",
          "midi": 42,
          "time": 77.99999999999908,
          "velocity": 1,
          "duration": 0.15000000000000568
        },
        {
          "name": "F#3",
          "midi": 54,
          "time": 77.99999999999908,
          "velocity": 0.47244094488188976,
          "duration": 0.15000000000000568
        },
        {
          "name": "C2",
          "midi": 36,
          "time": 77.99999999999908,
          "velocity": 1,
          "duration": 0.29999999999999716
        },
        {
          "name": "F#3",
          "midi": 54,
          "time": 78.18749999999908,
          "velocity": 0.47244094488188976,
          "duration": 0.07500000000000284
        },
        {
          "name": "F#2",
          "midi": 42,
          "time": 78.18749999999908,
          "velocity": 1,
          "duration": 0.14999999999999147
        },
        {
          "name": "F#3",
          "midi": 54,
          "time": 78.28124999999908,
          "velocity": 0.47244094488188976,
          "duration": 0.07499999999998863
        },
        {
          "name": "F#3",
          "midi": 54,
          "time": 78.37499999999906,
          "velocity": 0.47244094488188976,
          "duration": 0.15000000000000568
        },
        {
          "name": "F#2",
          "midi": 42,
          "time": 78.37499999999906,
          "velocity": 1,
          "duration": 0.15000000000000568
        },
        {
          "name": "D2",
          "midi": 38,
          "time": 78.37499999999906,
          "velocity": 1,
          "duration": 0.29999999999999716
        },
        {
          "name": "F#3",
          "midi": 54,
          "time": 78.56249999999906,
          "velocity": 0.47244094488188976,
          "duration": 0.07500000000000284
        },
        {
          "name": "F#2",
          "midi": 42,
          "time": 78.56249999999906,
          "velocity": 1,
          "duration": 0.14999999999999147
        },
        {
          "name": "F#3",
          "midi": 54,
          "time": 78.65624999999906,
          "velocity": 0.47244094488188976,
          "duration": 0.07499999999998863
        },
        {
          "name": "F#2",
          "midi": 42,
          "time": 78.74999999999905,
          "velocity": 1,
          "duration": 0.15000000000000568
        },
        {
          "name": "F#3",
          "midi": 54,
          "time": 78.74999999999905,
          "velocity": 0.47244094488188976,
          "duration": 0.15000000000000568
        },
        {
          "name": "C2",
          "midi": 36,
          "time": 78.74999999999905,
          "velocity": 1,
          "duration": 0.29999999999999716
        },
        {
          "name": "F#2",
          "midi": 42,
          "time": 78.93749999999905,
          "velocity": 1,
          "duration": 0.14999999999999147
        },
        {
          "name": "F#3",
          "midi": 54,
          "time": 78.93749999999905,
          "velocity": 0.47244094488188976,
          "duration": 0.07500000000000284
        },
        {
          "name": "F#3",
          "midi": 54,
          "time": 79.03124999999905,
          "velocity": 0.47244094488188976,
          "duration": 0.07499999999998863
        },
        {
          "name": "F#2",
          "midi": 42,
          "time": 79.12499999999903,
          "velocity": 1,
          "duration": 0.15000000000000568
        },
        {
          "name": "F#3",
          "midi": 54,
          "time": 79.12499999999903,
          "velocity": 0.47244094488188976,
          "duration": 0.15000000000000568
        },
        {
          "name": "D2",
          "midi": 38,
          "time": 79.12499999999903,
          "velocity": 1,
          "duration": 0.29999999999999716
        },
        {
          "name": "F#3",
          "midi": 54,
          "time": 79.31249999999903,
          "velocity": 0.47244094488188976,
          "duration": 0.07500000000000284
        },
        {
          "name": "C2",
          "midi": 36,
          "time": 79.31249999999903,
          "velocity": 1,
          "duration": 0.14999999999999147
        },
        {
          "name": "A#2",
          "midi": 46,
          "time": 79.31249999999903,
          "velocity": 1,
          "duration": 0.14999999999999147
        },
        {
          "name": "F#3",
          "midi": 54,
          "time": 79.40624999999903,
          "velocity": 0.47244094488188976,
          "duration": 0.07499999999998863
        },
        {
          "name": "F#2",
          "midi": 42,
          "time": 79.49999999999902,
          "velocity": 1,
          "duration": 0.15000000000000568
        },
        {
          "name": "F#3",
          "midi": 54,
          "time": 79.49999999999902,
          "velocity": 0.47244094488188976,
          "duration": 0.15000000000000568
        },
        {
          "name": "C2",
          "midi": 36,
          "time": 79.49999999999902,
          "velocity": 1,
          "duration": 0.29999999999999716
        },
        {
          "name": "F#3",
          "midi": 54,
          "time": 79.68749999999902,
          "velocity": 0.47244094488188976,
          "duration": 0.07500000000000284
        },
        {
          "name": "F#2",
          "midi": 42,
          "time": 79.68749999999902,
          "velocity": 1,
          "duration": 0.14999999999999147
        },
        {
          "name": "F#3",
          "midi": 54,
          "time": 79.78124999999902,
          "velocity": 0.47244094488188976,
          "duration": 0.07499999999998863
        },
        {
          "name": "F#3",
          "midi": 54,
          "time": 79.874999999999,
          "velocity": 0.47244094488188976,
          "duration": 0.15000000000000568
        },
        {
          "name": "F#2",
          "midi": 42,
          "time": 79.874999999999,
          "velocity": 1,
          "duration": 0.15000000000000568
        },
        {
          "name": "D2",
          "midi": 38,
          "time": 79.874999999999,
          "velocity": 1,
          "duration": 0.29999999999999716
        },
        {
          "name": "F#3",
          "midi": 54,
          "time": 80.062499999999,
          "velocity": 0.47244094488188976,
          "duration": 0.07500000000000284
        },
        {
          "name": "F#2",
          "midi": 42,
          "time": 80.062499999999,
          "velocity": 1,
          "duration": 0.14999999999999147
        },
        {
          "name": "F#3",
          "midi": 54,
          "time": 80.156249999999,
          "velocity": 0.47244094488188976,
          "duration": 0.07499999999998863
        },
        {
          "name": "F#3",
          "midi": 54,
          "time": 80.24999999999899,
          "velocity": 0.47244094488188976,
          "duration": 0.15000000000000568
        },
        {
          "name": "F#2",
          "midi": 42,
          "time": 80.24999999999899,
          "velocity": 1,
          "duration": 0.15000000000000568
        },
        {
          "name": "C2",
          "midi": 36,
          "time": 80.24999999999899,
          "velocity": 1,
          "duration": 0.29999999999999716
        },
        {
          "name": "F#3",
          "midi": 54,
          "time": 80.43749999999899,
          "velocity": 0.47244094488188976,
          "duration": 0.07500000000000284
        },
        {
          "name": "F#2",
          "midi": 42,
          "time": 80.43749999999899,
          "velocity": 1,
          "duration": 0.14999999999999147
        },
        {
          "name": "F#3",
          "midi": 54,
          "time": 80.53124999999899,
          "velocity": 0.47244094488188976,
          "duration": 0.07499999999998863
        },
        {
          "name": "F#3",
          "midi": 54,
          "time": 80.62499999999898,
          "velocity": 0.47244094488188976,
          "duration": 0.15000000000000568
        },
        {
          "name": "F#2",
          "midi": 42,
          "time": 80.62499999999898,
          "velocity": 1,
          "duration": 0.15000000000000568
        },
        {
          "name": "D2",
          "midi": 38,
          "time": 80.62499999999898,
          "velocity": 1,
          "duration": 0.29999999999999716
        },
        {
          "name": "F#3",
          "midi": 54,
          "time": 80.81249999999898,
          "velocity": 0.47244094488188976,
          "duration": 0.07500000000000284
        },
        {
          "name": "C2",
          "midi": 36,
          "time": 80.81249999999898,
          "velocity": 1,
          "duration": 0.14999999999999147
        },
        {
          "name": "A#2",
          "midi": 46,
          "time": 80.81249999999898,
          "velocity": 1,
          "duration": 0.14999999999999147
        },
        {
          "name": "F#3",
          "midi": 54,
          "time": 80.90624999999898,
          "velocity": 0.47244094488188976,
          "duration": 0.07499999999998863
        },
        {
          "name": "F#2",
          "midi": 42,
          "time": 80.99999999999896,
          "velocity": 1,
          "duration": 0.15000000000000568
        },
        {
          "name": "F#3",
          "midi": 54,
          "time": 80.99999999999896,
          "velocity": 0.47244094488188976,
          "duration": 0.15000000000000568
        },
        {
          "name": "C2",
          "midi": 36,
          "time": 80.99999999999896,
          "velocity": 1,
          "duration": 0.29999999999999716
        },
        {
          "name": "F#3",
          "midi": 54,
          "time": 81.18749999999896,
          "velocity": 0.47244094488188976,
          "duration": 0.07500000000000284
        },
        {
          "name": "F#2",
          "midi": 42,
          "time": 81.18749999999896,
          "velocity": 1,
          "duration": 0.14999999999999147
        },
        {
          "name": "F#3",
          "midi": 54,
          "time": 81.28124999999896,
          "velocity": 0.47244094488188976,
          "duration": 0.07499999999998863
        },
        {
          "name": "F#3",
          "midi": 54,
          "time": 81.37499999999895,
          "velocity": 0.47244094488188976,
          "duration": 0.15000000000000568
        },
        {
          "name": "F#2",
          "midi": 42,
          "time": 81.37499999999895,
          "velocity": 1,
          "duration": 0.15000000000000568
        },
        {
          "name": "D2",
          "midi": 38,
          "time": 81.37499999999895,
          "velocity": 1,
          "duration": 0.29999999999999716
        },
        {
          "name": "F#3",
          "midi": 54,
          "time": 81.56249999999895,
          "velocity": 0.47244094488188976,
          "duration": 0.07500000000000284
        },
        {
          "name": "F#2",
          "midi": 42,
          "time": 81.56249999999895,
          "velocity": 1,
          "duration": 0.14999999999999147
        },
        {
          "name": "C2",
          "midi": 36,
          "time": 81.56249999999895,
          "velocity": 1,
          "duration": 0.14999999999999147
        },
        {
          "name": "F#3",
          "midi": 54,
          "time": 81.65624999999895,
          "velocity": 0.47244094488188976,
          "duration": 0.07499999999998863
        },
        {
          "name": "F#3",
          "midi": 54,
          "time": 81.74999999999893,
          "velocity": 0.47244094488188976,
          "duration": 0.15000000000000568
        },
        {
          "name": "F#2",
          "midi": 42,
          "time": 81.74999999999893,
          "velocity": 1,
          "duration": 0.15000000000000568
        },
        {
          "name": "C2",
          "midi": 36,
          "time": 81.74999999999893,
          "velocity": 1,
          "duration": 0.29999999999999716
        },
        {
          "name": "F#3",
          "midi": 54,
          "time": 81.93749999999893,
          "velocity": 0.47244094488188976,
          "duration": 0.07500000000000284
        },
        {
          "name": "F#2",
          "midi": 42,
          "time": 81.93749999999893,
          "velocity": 1,
          "duration": 0.14999999999999147
        },
        {
          "name": "D3",
          "midi": 50,
          "time": 81.93749999999893,
          "velocity": 1,
          "duration": 0.14999999999999147
        },
        {
          "name": "F#3",
          "midi": 54,
          "time": 82.03124999999893,
          "velocity": 0.47244094488188976,
          "duration": 0.07499999999998863
        },
        {
          "name": "F#2",
          "midi": 42,
          "time": 82.12499999999892,
          "velocity": 1,
          "duration": 0.15000000000000568
        },
        {
          "name": "F#3",
          "midi": 54,
          "time": 82.12499999999892,
          "velocity": 0.47244094488188976,
          "duration": 0.15000000000000568
        },
        {
          "name": "D3",
          "midi": 50,
          "time": 82.12499999999892,
          "velocity": 1,
          "duration": 0.15000000000000568
        },
        {
          "name": "D2",
          "midi": 38,
          "time": 82.12499999999892,
          "velocity": 1,
          "duration": 0.29999999999999716
        },
        {
          "name": "F#3",
          "midi": 54,
          "time": 82.31249999999892,
          "velocity": 0.47244094488188976,
          "duration": 0.07500000000000284
        },
        {
          "name": "D3",
          "midi": 50,
          "time": 82.31249999999892,
          "velocity": 1,
          "duration": 0.14999999999999147
        },
        {
          "name": "F#2",
          "midi": 42,
          "time": 82.31249999999892,
          "velocity": 1,
          "duration": 0.14999999999999147
        },
        {
          "name": "F#3",
          "midi": 54,
          "time": 82.40624999999892,
          "velocity": 0.47244094488188976,
          "duration": 0.07499999999998863
        },
        {
          "name": "F#3",
          "midi": 54,
          "time": 82.4999999999989,
          "velocity": 0.47244094488188976,
          "duration": 0.15000000000000568
        },
        {
          "name": "F#2",
          "midi": 42,
          "time": 82.4999999999989,
          "velocity": 1,
          "duration": 0.15000000000000568
        },
        {
          "name": "C2",
          "midi": 36,
          "time": 82.4999999999989,
          "velocity": 1,
          "duration": 0.29999999999999716
        },
        {
          "name": "F#3",
          "midi": 54,
          "time": 82.6874999999989,
          "velocity": 0.47244094488188976,
          "duration": 0.07500000000000284
        },
        {
          "name": "C3",
          "midi": 48,
          "time": 82.6874999999989,
          "velocity": 1,
          "duration": 0.14999999999999147
        },
        {
          "name": "F#2",
          "midi": 42,
          "time": 82.6874999999989,
          "velocity": 1,
          "duration": 0.14999999999999147
        },
        {
          "name": "F#3",
          "midi": 54,
          "time": 82.7812499999989,
          "velocity": 0.47244094488188976,
          "duration": 0.07499999999998863
        },
        {
          "name": "F#2",
          "midi": 42,
          "time": 82.87499999999889,
          "velocity": 1,
          "duration": 0.15000000000000568
        },
        {
          "name": "F#3",
          "midi": 54,
          "time": 82.87499999999889,
          "velocity": 0.47244094488188976,
          "duration": 0.15000000000000568
        },
        {
          "name": "B2",
          "midi": 47,
          "time": 82.87499999999889,
          "velocity": 1,
          "duration": 0.15000000000000568
        },
        {
          "name": "D2",
          "midi": 38,
          "time": 82.87499999999889,
          "velocity": 1,
          "duration": 0.29999999999999716
        },
        {
          "name": "F#3",
          "midi": 54,
          "time": 83.06249999999889,
          "velocity": 0.47244094488188976,
          "duration": 0.07500000000000284
        },
        {
          "name": "G2",
          "midi": 43,
          "time": 83.06249999999889,
          "velocity": 1,
          "duration": 0.14999999999999147
        },
        {
          "name": "F#2",
          "midi": 42,
          "time": 83.06249999999889,
          "velocity": 1,
          "duration": 0.14999999999999147
        },
        {
          "name": "C2",
          "midi": 36,
          "time": 83.06249999999889,
          "velocity": 1,
          "duration": 0.14999999999999147
        },
        {
          "name": "F#3",
          "midi": 54,
          "time": 83.15624999999889,
          "velocity": 0.47244094488188976,
          "duration": 0.07499999999998863
        },
        {
          "name": "C2",
          "midi": 36,
          "time": 83.24999999999888,
          "velocity": 1,
          "duration": 0.15000000000000568
        },
        {
          "name": "F#3",
          "midi": 54,
          "time": 83.24999999999888,
          "velocity": 0.47244094488188976,
          "duration": 0.15000000000000568
        },
        {
          "name": "F#2",
          "midi": 42,
          "time": 83.24999999999888,
          "velocity": 1,
          "duration": 0.15000000000000568
        },
        {
          "name": "F#3",
          "midi": 54,
          "time": 83.43749999999888,
          "velocity": 0.47244094488188976,
          "duration": 0.07500000000000284
        },
        {
          "name": "A3",
          "midi": 57,
          "time": 83.43749999999888,
          "velocity": 0.8661417322834646,
          "duration": 0.15000000000000568
        },
        {
          "name": "F#2",
          "midi": 42,
          "time": 83.43749999999888,
          "velocity": 1,
          "duration": 0.15000000000000568
        },
        {
          "name": "C2",
          "midi": 36,
          "time": 83.43749999999888,
          "velocity": 1,
          "duration": 0.48749999999999716
        },
        {
          "name": "F#3",
          "midi": 54,
          "time": 83.53124999999888,
          "velocity": 0.47244094488188976,
          "duration": 0.07500000000000284
        },
        {
          "name": "F#3",
          "midi": 54,
          "time": 83.62499999999888,
          "velocity": 0.47244094488188976,
          "duration": 0.15000000000000568
        },
        {
          "name": "F#2",
          "midi": 42,
          "time": 83.62499999999888,
          "velocity": 0.6299212598425197,
          "duration": 0.15000000000000568
        },
        {
          "name": "D2",
          "midi": 38,
          "time": 83.62499999999888,
          "velocity": 0.6299212598425197,
          "duration": 0.29999999999999716
        },
        {
          "name": "F#3",
          "midi": 54,
          "time": 83.81249999999888,
          "velocity": 0.47244094488188976,
          "duration": 0.07500000000000284
        },
        {
          "name": "F#3",
          "midi": 54,
          "time": 83.90624999999888,
          "velocity": 0.47244094488188976,
          "duration": 0.07500000000000284
        },
        {
          "name": "F#2",
          "midi": 42,
          "time": 83.99999999999888,
          "velocity": 1,
          "duration": 0.15000000000000568
        },
        {
          "name": "F#3",
          "midi": 54,
          "time": 83.99999999999888,
          "velocity": 0.47244094488188976,
          "duration": 0.15000000000000568
        },
        {
          "name": "C2",
          "midi": 36,
          "time": 83.99999999999888,
          "velocity": 1,
          "duration": 0.29999999999999716
        },
        {
          "name": "F#3",
          "midi": 54,
          "time": 84.18749999999888,
          "velocity": 0.47244094488188976,
          "duration": 0.07500000000000284
        },
        {
          "name": "F#2",
          "midi": 42,
          "time": 84.18749999999888,
          "velocity": 1,
          "duration": 0.14999999999999147
        },
        {
          "name": "F#3",
          "midi": 54,
          "time": 84.28124999999888,
          "velocity": 0.47244094488188976,
          "duration": 0.07499999999998863
        },
        {
          "name": "F#3",
          "midi": 54,
          "time": 84.37499999999886,
          "velocity": 0.47244094488188976,
          "duration": 0.15000000000000568
        },
        {
          "name": "F#2",
          "midi": 42,
          "time": 84.37499999999886,
          "velocity": 1,
          "duration": 0.15000000000000568
        },
        {
          "name": "D2",
          "midi": 38,
          "time": 84.37499999999886,
          "velocity": 1,
          "duration": 0.29999999999999716
        },
        {
          "name": "F#3",
          "midi": 54,
          "time": 84.56249999999886,
          "velocity": 0.47244094488188976,
          "duration": 0.07500000000000284
        },
        {
          "name": "F#2",
          "midi": 42,
          "time": 84.56249999999886,
          "velocity": 1,
          "duration": 0.14999999999999147
        },
        {
          "name": "F#3",
          "midi": 54,
          "time": 84.65624999999886,
          "velocity": 0.47244094488188976,
          "duration": 0.07499999999998863
        },
        {
          "name": "F#2",
          "midi": 42,
          "time": 84.74999999999885,
          "velocity": 1,
          "duration": 0.15000000000000568
        },
        {
          "name": "F#3",
          "midi": 54,
          "time": 84.74999999999885,
          "velocity": 0.47244094488188976,
          "duration": 0.15000000000000568
        },
        {
          "name": "C2",
          "midi": 36,
          "time": 84.74999999999885,
          "velocity": 1,
          "duration": 0.29999999999999716
        },
        {
          "name": "F#2",
          "midi": 42,
          "time": 84.93749999999885,
          "velocity": 1,
          "duration": 0.14999999999999147
        },
        {
          "name": "F#3",
          "midi": 54,
          "time": 84.93749999999885,
          "velocity": 0.47244094488188976,
          "duration": 0.07500000000000284
        },
        {
          "name": "F#3",
          "midi": 54,
          "time": 85.03124999999885,
          "velocity": 0.47244094488188976,
          "duration": 0.07499999999998863
        },
        {
          "name": "F#3",
          "midi": 54,
          "time": 85.12499999999883,
          "velocity": 0.47244094488188976,
          "duration": 0.15000000000000568
        },
        {
          "name": "F#2",
          "midi": 42,
          "time": 85.12499999999883,
          "velocity": 1,
          "duration": 0.15000000000000568
        },
        {
          "name": "D2",
          "midi": 38,
          "time": 85.12499999999883,
          "velocity": 1,
          "duration": 0.29999999999999716
        },
        {
          "name": "F#3",
          "midi": 54,
          "time": 85.31249999999883,
          "velocity": 0.47244094488188976,
          "duration": 0.07500000000000284
        },
        {
          "name": "C2",
          "midi": 36,
          "time": 85.31249999999883,
          "velocity": 1,
          "duration": 0.14999999999999147
        },
        {
          "name": "A#2",
          "midi": 46,
          "time": 85.31249999999883,
          "velocity": 1,
          "duration": 0.14999999999999147
        },
        {
          "name": "F#3",
          "midi": 54,
          "time": 85.40624999999883,
          "velocity": 0.47244094488188976,
          "duration": 0.07499999999998863
        },
        {
          "name": "F#3",
          "midi": 54,
          "time": 85.49999999999882,
          "velocity": 0.47244094488188976,
          "duration": 0.15000000000000568
        },
        {
          "name": "F#2",
          "midi": 42,
          "time": 85.49999999999882,
          "velocity": 1,
          "duration": 0.15000000000000568
        },
        {
          "name": "C2",
          "midi": 36,
          "time": 85.49999999999882,
          "velocity": 1,
          "duration": 0.29999999999999716
        },
        {
          "name": "F#3",
          "midi": 54,
          "time": 85.68749999999882,
          "velocity": 0.47244094488188976,
          "duration": 0.07500000000000284
        },
        {
          "name": "F#2",
          "midi": 42,
          "time": 85.68749999999882,
          "velocity": 1,
          "duration": 0.14999999999999147
        },
        {
          "name": "F#3",
          "midi": 54,
          "time": 85.78124999999882,
          "velocity": 0.47244094488188976,
          "duration": 0.07499999999998863
        },
        {
          "name": "F#3",
          "midi": 54,
          "time": 85.8749999999988,
          "velocity": 0.47244094488188976,
          "duration": 0.15000000000000568
        },
        {
          "name": "F#2",
          "midi": 42,
          "time": 85.8749999999988,
          "velocity": 1,
          "duration": 0.15000000000000568
        },
        {
          "name": "D2",
          "midi": 38,
          "time": 85.8749999999988,
          "velocity": 1,
          "duration": 0.29999999999999716
        },
        {
          "name": "F#3",
          "midi": 54,
          "time": 86.0624999999988,
          "velocity": 0.47244094488188976,
          "duration": 0.07500000000000284
        },
        {
          "name": "F#2",
          "midi": 42,
          "time": 86.0624999999988,
          "velocity": 1,
          "duration": 0.14999999999999147
        },
        {
          "name": "F#3",
          "midi": 54,
          "time": 86.1562499999988,
          "velocity": 0.47244094488188976,
          "duration": 0.07499999999998863
        },
        {
          "name": "F#2",
          "midi": 42,
          "time": 86.24999999999879,
          "velocity": 1,
          "duration": 0.15000000000000568
        },
        {
          "name": "F#3",
          "midi": 54,
          "time": 86.24999999999879,
          "velocity": 0.47244094488188976,
          "duration": 0.15000000000000568
        },
        {
          "name": "C2",
          "midi": 36,
          "time": 86.24999999999879,
          "velocity": 1,
          "duration": 0.29999999999999716
        },
        {
          "name": "F#3",
          "midi": 54,
          "time": 86.43749999999879,
          "velocity": 0.47244094488188976,
          "duration": 0.07500000000000284
        },
        {
          "name": "F#2",
          "midi": 42,
          "time": 86.43749999999879,
          "velocity": 1,
          "duration": 0.14999999999999147
        },
        {
          "name": "F#3",
          "midi": 54,
          "time": 86.53124999999879,
          "velocity": 0.47244094488188976,
          "duration": 0.07499999999998863
        },
        {
          "name": "F#2",
          "midi": 42,
          "time": 86.62499999999878,
          "velocity": 1,
          "duration": 0.15000000000000568
        },
        {
          "name": "F#3",
          "midi": 54,
          "time": 86.62499999999878,
          "velocity": 0.47244094488188976,
          "duration": 0.15000000000000568
        },
        {
          "name": "D2",
          "midi": 38,
          "time": 86.62499999999878,
          "velocity": 1,
          "duration": 0.29999999999999716
        },
        {
          "name": "F#3",
          "midi": 54,
          "time": 86.81249999999878,
          "velocity": 0.47244094488188976,
          "duration": 0.07500000000000284
        },
        {
          "name": "A#2",
          "midi": 46,
          "time": 86.81249999999878,
          "velocity": 1,
          "duration": 0.14999999999999147
        },
        {
          "name": "C2",
          "midi": 36,
          "time": 86.81249999999878,
          "velocity": 1,
          "duration": 0.14999999999999147
        },
        {
          "name": "F#3",
          "midi": 54,
          "time": 86.90624999999878,
          "velocity": 0.47244094488188976,
          "duration": 0.07499999999998863
        },
        {
          "name": "F#2",
          "midi": 42,
          "time": 86.99999999999876,
          "velocity": 1,
          "duration": 0.15000000000000568
        },
        {
          "name": "F#3",
          "midi": 54,
          "time": 86.99999999999876,
          "velocity": 0.47244094488188976,
          "duration": 0.15000000000000568
        },
        {
          "name": "C2",
          "midi": 36,
          "time": 86.99999999999876,
          "velocity": 1,
          "duration": 0.29999999999999716
        },
        {
          "name": "F#3",
          "midi": 54,
          "time": 87.18749999999876,
          "velocity": 0.47244094488188976,
          "duration": 0.07500000000000284
        },
        {
          "name": "F#2",
          "midi": 42,
          "time": 87.18749999999876,
          "velocity": 1,
          "duration": 0.14999999999999147
        },
        {
          "name": "F#3",
          "midi": 54,
          "time": 87.28124999999876,
          "velocity": 0.47244094488188976,
          "duration": 0.07499999999998863
        },
        {
          "name": "F#3",
          "midi": 54,
          "time": 87.37499999999875,
          "velocity": 0.47244094488188976,
          "duration": 0.15000000000000568
        },
        {
          "name": "F#2",
          "midi": 42,
          "time": 87.37499999999875,
          "velocity": 1,
          "duration": 0.15000000000000568
        },
        {
          "name": "D2",
          "midi": 38,
          "time": 87.37499999999875,
          "velocity": 1,
          "duration": 0.29999999999999716
        },
        {
          "name": "F#3",
          "midi": 54,
          "time": 87.56249999999875,
          "velocity": 0.47244094488188976,
          "duration": 0.07500000000000284
        },
        {
          "name": "F#2",
          "midi": 42,
          "time": 87.56249999999875,
          "velocity": 1,
          "duration": 0.14999999999999147
        },
        {
          "name": "C2",
          "midi": 36,
          "time": 87.56249999999875,
          "velocity": 1,
          "duration": 0.14999999999999147
        },
        {
          "name": "F#3",
          "midi": 54,
          "time": 87.65624999999875,
          "velocity": 0.47244094488188976,
          "duration": 0.07499999999998863
        },
        {
          "name": "F#2",
          "midi": 42,
          "time": 87.74999999999874,
          "velocity": 1,
          "duration": 0.15000000000000568
        },
        {
          "name": "F#3",
          "midi": 54,
          "time": 87.74999999999874,
          "velocity": 0.47244094488188976,
          "duration": 0.15000000000000568
        },
        {
          "name": "C2",
          "midi": 36,
          "time": 87.74999999999874,
          "velocity": 1,
          "duration": 0.29999999999999716
        },
        {
          "name": "F#3",
          "midi": 54,
          "time": 87.93749999999874,
          "velocity": 0.47244094488188976,
          "duration": 0.07500000000000284
        },
        {
          "name": "F#2",
          "midi": 42,
          "time": 87.93749999999874,
          "velocity": 1,
          "duration": 0.14999999999999147
        },
        {
          "name": "F#3",
          "midi": 54,
          "time": 88.03124999999874,
          "velocity": 0.47244094488188976,
          "duration": 0.07499999999998863
        },
        {
          "name": "F#2",
          "midi": 42,
          "time": 88.12499999999872,
          "velocity": 1,
          "duration": 0.15000000000000568
        },
        {
          "name": "F#3",
          "midi": 54,
          "time": 88.12499999999872,
          "velocity": 0.47244094488188976,
          "duration": 0.15000000000000568
        },
        {
          "name": "D2",
          "midi": 38,
          "time": 88.12499999999872,
          "velocity": 1,
          "duration": 0.29999999999999716
        },
        {
          "name": "F#3",
          "midi": 54,
          "time": 88.31249999999872,
          "velocity": 0.47244094488188976,
          "duration": 0.07500000000000284
        },
        {
          "name": "F#2",
          "midi": 42,
          "time": 88.31249999999872,
          "velocity": 1,
          "duration": 0.14999999999999147
        },
        {
          "name": "F#3",
          "midi": 54,
          "time": 88.40624999999872,
          "velocity": 0.47244094488188976,
          "duration": 0.07499999999998863
        },
        {
          "name": "F#3",
          "midi": 54,
          "time": 88.4999999999987,
          "velocity": 0.47244094488188976,
          "duration": 0.15000000000000568
        },
        {
          "name": "F#2",
          "midi": 42,
          "time": 88.4999999999987,
          "velocity": 1,
          "duration": 0.15000000000000568
        },
        {
          "name": "G2",
          "midi": 43,
          "time": 88.4999999999987,
          "velocity": 1,
          "duration": 0.15000000000000568
        },
        {
          "name": "C2",
          "midi": 36,
          "time": 88.4999999999987,
          "velocity": 1,
          "duration": 0.29999999999999716
        },
        {
          "name": "D3",
          "midi": 50,
          "time": 88.6874999999987,
          "velocity": 1,
          "duration": 0.14999999999999147
        },
        {
          "name": "F#3",
          "midi": 54,
          "time": 88.6874999999987,
          "velocity": 0.47244094488188976,
          "duration": 0.07500000000000284
        },
        {
          "name": "F#2",
          "midi": 42,
          "time": 88.6874999999987,
          "velocity": 1,
          "duration": 0.14999999999999147
        },
        {
          "name": "F#3",
          "midi": 54,
          "time": 88.7812499999987,
          "velocity": 0.47244094488188976,
          "duration": 0.07499999999998863
        },
        {
          "name": "D3",
          "midi": 50,
          "time": 88.87499999999869,
          "velocity": 1,
          "duration": 0.15000000000000568
        },
        {
          "name": "D2",
          "midi": 38,
          "time": 88.87499999999869,
          "velocity": 1,
          "duration": 0.29999999999999716
        },
        {
          "name": "F#3",
          "midi": 54,
          "time": 88.87499999999869,
          "velocity": 0.47244094488188976,
          "duration": 0.15000000000000568
        },
        {
          "name": "F#2",
          "midi": 42,
          "time": 88.87499999999869,
          "velocity": 1,
          "duration": 0.15000000000000568
        },
        {
          "name": "C2",
          "midi": 36,
          "time": 89.06249999999869,
          "velocity": 1,
          "duration": 0.14999999999999147
        },
        {
          "name": "C3",
          "midi": 48,
          "time": 89.06249999999869,
          "velocity": 1,
          "duration": 0.14999999999999147
        },
        {
          "name": "F#2",
          "midi": 42,
          "time": 89.06249999999869,
          "velocity": 1,
          "duration": 0.14999999999999147
        },
        {
          "name": "F#3",
          "midi": 54,
          "time": 89.06249999999869,
          "velocity": 0.47244094488188976,
          "duration": 0.07500000000000284
        },
        {
          "name": "F#3",
          "midi": 54,
          "time": 89.15624999999869,
          "velocity": 0.47244094488188976,
          "duration": 0.07499999999998863
        },
        {
          "name": "F#2",
          "midi": 42,
          "time": 89.24999999999868,
          "velocity": 1,
          "duration": 0.15000000000000568
        },
        {
          "name": "C2",
          "midi": 36,
          "time": 89.24999999999868,
          "velocity": 1,
          "duration": 0.15000000000000568
        },
        {
          "name": "F#3",
          "midi": 54,
          "time": 89.24999999999868,
          "velocity": 0.47244094488188976,
          "duration": 0.15000000000000568
        },
        {
          "name": "G2",
          "midi": 43,
          "time": 89.24999999999868,
          "velocity": 1,
          "duration": 0.15000000000000568
        },
        {
          "name": "F#3",
          "midi": 54,
          "time": 89.43749999999868,
          "velocity": 0.47244094488188976,
          "duration": 0.07500000000000284
        },
        {
          "name": "A3",
          "midi": 57,
          "time": 89.43749999999868,
          "velocity": 0.8661417322834646,
          "duration": 0.15000000000000568
        },
        {
          "name": "F#2",
          "midi": 42,
          "time": 89.43749999999868,
          "velocity": 1,
          "duration": 0.15000000000000568
        },
        {
          "name": "C2",
          "midi": 36,
          "time": 89.43749999999868,
          "velocity": 1,
          "duration": 0.48749999999999716
        },
        {
          "name": "F#3",
          "midi": 54,
          "time": 89.53124999999868,
          "velocity": 0.47244094488188976,
          "duration": 0.07500000000000284
        },
        {
          "name": "A#2",
          "midi": 46,
          "time": 89.62499999999868,
          "velocity": 1,
          "duration": 0.3374999999999915
        },
        {
          "name": "F#3",
          "midi": 54,
          "time": 89.62499999999868,
          "velocity": 0.47244094488188976,
          "duration": 0.15000000000000568
        },
        {
          "name": "F#3",
          "midi": 54,
          "time": 89.81249999999868,
          "velocity": 0.47244094488188976,
          "duration": 0.07500000000000284
        },
        {
          "name": "F#3",
          "midi": 54,
          "time": 89.90624999999868,
          "velocity": 0.47244094488188976,
          "duration": 0.07499999999998863
        },
        {
          "name": "F#3",
          "midi": 54,
          "time": 89.99999999999866,
          "velocity": 0.5039370078740157,
          "duration": 0.15000000000000568
        },
        {
          "name": "F#2",
          "midi": 42,
          "time": 89.99999999999866,
          "velocity": 0.8661417322834646,
          "duration": 0.15000000000000568
        },
        {
          "name": "C2",
          "midi": 36,
          "time": 89.99999999999866,
          "velocity": 1,
          "duration": 0.29999999999999716
        },
        {
          "name": "F#3",
          "midi": 54,
          "time": 90.18749999999866,
          "velocity": 0.5039370078740157,
          "duration": 0.07500000000000284
        },
        {
          "name": "F#2",
          "midi": 42,
          "time": 90.18749999999866,
          "velocity": 0.8661417322834646,
          "duration": 0.14999999999999147
        },
        {
          "name": "F#3",
          "midi": 54,
          "time": 90.28124999999866,
          "velocity": 0.5039370078740157,
          "duration": 0.07499999999998863
        },
        {
          "name": "F#3",
          "midi": 54,
          "time": 90.37499999999865,
          "velocity": 0.5039370078740157,
          "duration": 0.15000000000000568
        },
        {
          "name": "F#2",
          "midi": 42,
          "time": 90.37499999999865,
          "velocity": 0.8661417322834646,
          "duration": 0.15000000000000568
        },
        {
          "name": "D2",
          "midi": 38,
          "time": 90.37499999999865,
          "velocity": 0.8661417322834646,
          "duration": 0.29999999999999716
        },
        {
          "name": "F#2",
          "midi": 42,
          "time": 90.56249999999865,
          "velocity": 0.8661417322834646,
          "duration": 0.14999999999999147
        },
        {
          "name": "F#3",
          "midi": 54,
          "time": 90.56249999999865,
          "velocity": 0.5039370078740157,
          "duration": 0.07500000000000284
        },
        {
          "name": "F#3",
          "midi": 54,
          "time": 90.65624999999865,
          "velocity": 0.5039370078740157,
          "duration": 0.07499999999998863
        },
        {
          "name": "F#3",
          "midi": 54,
          "time": 90.74999999999864,
          "velocity": 0.5039370078740157,
          "duration": 0.15000000000000568
        },
        {
          "name": "C2",
          "midi": 36,
          "time": 90.74999999999864,
          "velocity": 1,
          "duration": 0.15000000000000568
        },
        {
          "name": "F#2",
          "midi": 42,
          "time": 90.74999999999864,
          "velocity": 0.8661417322834646,
          "duration": 0.15000000000000568
        },
        {
          "name": "F#2",
          "midi": 42,
          "time": 90.93749999999864,
          "velocity": 0.8661417322834646,
          "duration": 0.15000000000000568
        },
        {
          "name": "C2",
          "midi": 36,
          "time": 90.93749999999864,
          "velocity": 1,
          "duration": 0.15000000000000568
        },
        {
          "name": "F#3",
          "midi": 54,
          "time": 90.93749999999864,
          "velocity": 0.5039370078740157,
          "duration": 0.07500000000000284
        },
        {
          "name": "F#3",
          "midi": 54,
          "time": 91.03124999999864,
          "velocity": 0.5039370078740157,
          "duration": 0.07500000000000284
        },
        {
          "name": "F#3",
          "midi": 54,
          "time": 91.12499999999864,
          "velocity": 0.5039370078740157,
          "duration": 0.15000000000000568
        },
        {
          "name": "F#2",
          "midi": 42,
          "time": 91.12499999999864,
          "velocity": 0.8661417322834646,
          "duration": 0.15000000000000568
        },
        {
          "name": "D2",
          "midi": 38,
          "time": 91.12499999999864,
          "velocity": 0.8661417322834646,
          "duration": 0.29999999999999716
        },
        {
          "name": "A#2",
          "midi": 46,
          "time": 91.31249999999864,
          "velocity": 0.8661417322834646,
          "duration": 0.14999999999999147
        },
        {
          "name": "C2",
          "midi": 36,
          "time": 91.31249999999864,
          "velocity": 1,
          "duration": 0.14999999999999147
        },
        {
          "name": "F#3",
          "midi": 54,
          "time": 91.31249999999864,
          "velocity": 0.5039370078740157,
          "duration": 0.07500000000000284
        },
        {
          "name": "F#3",
          "midi": 54,
          "time": 91.40624999999864,
          "velocity": 0.5039370078740157,
          "duration": 0.07499999999998863
        },
        {
          "name": "F#3",
          "midi": 54,
          "time": 91.49999999999862,
          "velocity": 0.5039370078740157,
          "duration": 0.15000000000000568
        },
        {
          "name": "F#2",
          "midi": 42,
          "time": 91.49999999999862,
          "velocity": 0.8661417322834646,
          "duration": 0.15000000000000568
        },
        {
          "name": "C2",
          "midi": 36,
          "time": 91.49999999999862,
          "velocity": 1,
          "duration": 0.29999999999999716
        },
        {
          "name": "F#2",
          "midi": 42,
          "time": 91.68749999999862,
          "velocity": 0.8661417322834646,
          "duration": 0.14999999999999147
        },
        {
          "name": "F#3",
          "midi": 54,
          "time": 91.68749999999862,
          "velocity": 0.5039370078740157,
          "duration": 0.07500000000000284
        },
        {
          "name": "F#3",
          "midi": 54,
          "time": 91.78124999999862,
          "velocity": 0.5039370078740157,
          "duration": 0.07499999999998863
        },
        {
          "name": "F#2",
          "midi": 42,
          "time": 91.87499999999861,
          "velocity": 0.8661417322834646,
          "duration": 0.15000000000000568
        },
        {
          "name": "F#3",
          "midi": 54,
          "time": 91.87499999999861,
          "velocity": 0.5039370078740157,
          "duration": 0.15000000000000568
        },
        {
          "name": "D2",
          "midi": 38,
          "time": 91.87499999999861,
          "velocity": 0.8661417322834646,
          "duration": 0.29999999999999716
        },
        {
          "name": "F#3",
          "midi": 54,
          "time": 92.06249999999861,
          "velocity": 0.5039370078740157,
          "duration": 0.07500000000000284
        },
        {
          "name": "F#2",
          "midi": 42,
          "time": 92.06249999999861,
          "velocity": 0.8661417322834646,
          "duration": 0.14999999999999147
        },
        {
          "name": "F#3",
          "midi": 54,
          "time": 92.15624999999861,
          "velocity": 0.5039370078740157,
          "duration": 0.07499999999998863
        },
        {
          "name": "F#2",
          "midi": 42,
          "time": 92.2499999999986,
          "velocity": 0.8661417322834646,
          "duration": 0.15000000000000568
        },
        {
          "name": "F#3",
          "midi": 54,
          "time": 92.2499999999986,
          "velocity": 0.5039370078740157,
          "duration": 0.15000000000000568
        },
        {
          "name": "C2",
          "midi": 36,
          "time": 92.2499999999986,
          "velocity": 1,
          "duration": 0.29999999999999716
        },
        {
          "name": "F#2",
          "midi": 42,
          "time": 92.4374999999986,
          "velocity": 0.8661417322834646,
          "duration": 0.14999999999999147
        },
        {
          "name": "D2",
          "midi": 38,
          "time": 92.4374999999986,
          "velocity": 0.8661417322834646,
          "duration": 0.14999999999999147
        },
        {
          "name": "F#3",
          "midi": 54,
          "time": 92.4374999999986,
          "velocity": 0.5039370078740157,
          "duration": 0.07500000000000284
        },
        {
          "name": "F#3",
          "midi": 54,
          "time": 92.5312499999986,
          "velocity": 0.5039370078740157,
          "duration": 0.07499999999998863
        },
        {
          "name": "F#3",
          "midi": 54,
          "time": 92.62499999999858,
          "velocity": 0.5039370078740157,
          "duration": 0.15000000000000568
        },
        {
          "name": "F#2",
          "midi": 42,
          "time": 92.62499999999858,
          "velocity": 0.8661417322834646,
          "duration": 0.15000000000000568
        },
        {
          "name": "D2",
          "midi": 38,
          "time": 92.62499999999858,
          "velocity": 0.8661417322834646,
          "duration": 0.29999999999999716
        },
        {
          "name": "F#2",
          "midi": 42,
          "time": 92.81249999999858,
          "velocity": 0.8661417322834646,
          "duration": 0.14999999999999147
        },
        {
          "name": "F#3",
          "midi": 54,
          "time": 92.81249999999858,
          "velocity": 0.5039370078740157,
          "duration": 0.07500000000000284
        },
        {
          "name": "F#3",
          "midi": 54,
          "time": 92.90624999999858,
          "velocity": 0.5039370078740157,
          "duration": 0.07499999999998863
        },
        {
          "name": "F#2",
          "midi": 42,
          "time": 92.99999999999856,
          "velocity": 0.8661417322834646,
          "duration": 0.15000000000000568
        },
        {
          "name": "F#3",
          "midi": 54,
          "time": 92.99999999999856,
          "velocity": 0.5039370078740157,
          "duration": 0.15000000000000568
        },
        {
          "name": "C2",
          "midi": 36,
          "time": 92.99999999999856,
          "velocity": 1,
          "duration": 0.29999999999999716
        },
        {
          "name": "F#3",
          "midi": 54,
          "time": 93.18749999999856,
          "velocity": 0.5039370078740157,
          "duration": 0.07500000000000284
        },
        {
          "name": "F#2",
          "midi": 42,
          "time": 93.18749999999856,
          "velocity": 0.8661417322834646,
          "duration": 0.14999999999999147
        },
        {
          "name": "F#3",
          "midi": 54,
          "time": 93.28124999999856,
          "velocity": 0.5039370078740157,
          "duration": 0.07499999999998863
        },
        {
          "name": "F#2",
          "midi": 42,
          "time": 93.37499999999855,
          "velocity": 0.8661417322834646,
          "duration": 0.15000000000000568
        },
        {
          "name": "F#3",
          "midi": 54,
          "time": 93.37499999999855,
          "velocity": 0.5039370078740157,
          "duration": 0.15000000000000568
        },
        {
          "name": "D2",
          "midi": 38,
          "time": 93.37499999999855,
          "velocity": 0.8661417322834646,
          "duration": 0.29999999999999716
        },
        {
          "name": "C2",
          "midi": 36,
          "time": 93.56249999999855,
          "velocity": 1,
          "duration": 0.14999999999999147
        },
        {
          "name": "F#2",
          "midi": 42,
          "time": 93.56249999999855,
          "velocity": 0.8661417322834646,
          "duration": 0.14999999999999147
        },
        {
          "name": "F#3",
          "midi": 54,
          "time": 93.56249999999855,
          "velocity": 0.5039370078740157,
          "duration": 0.07500000000000284
        },
        {
          "name": "F#3",
          "midi": 54,
          "time": 93.65624999999855,
          "velocity": 0.5039370078740157,
          "duration": 0.07499999999998863
        },
        {
          "name": "F#2",
          "midi": 42,
          "time": 93.74999999999854,
          "velocity": 0.8661417322834646,
          "duration": 0.15000000000000568
        },
        {
          "name": "F#3",
          "midi": 54,
          "time": 93.74999999999854,
          "velocity": 0.5039370078740157,
          "duration": 0.15000000000000568
        },
        {
          "name": "C2",
          "midi": 36,
          "time": 93.74999999999854,
          "velocity": 1,
          "duration": 0.29999999999999716
        },
        {
          "name": "F#2",
          "midi": 42,
          "time": 93.93749999999854,
          "velocity": 0.8661417322834646,
          "duration": 0.14999999999999147
        },
        {
          "name": "F#3",
          "midi": 54,
          "time": 93.93749999999854,
          "velocity": 0.5039370078740157,
          "duration": 0.07500000000000284
        },
        {
          "name": "F#3",
          "midi": 54,
          "time": 94.03124999999854,
          "velocity": 0.5039370078740157,
          "duration": 0.07499999999998863
        },
        {
          "name": "F#2",
          "midi": 42,
          "time": 94.12499999999852,
          "velocity": 0.8661417322834646,
          "duration": 0.15000000000000568
        },
        {
          "name": "F#3",
          "midi": 54,
          "time": 94.12499999999852,
          "velocity": 0.5039370078740157,
          "duration": 0.15000000000000568
        },
        {
          "name": "D3",
          "midi": 50,
          "time": 94.31249999999852,
          "velocity": 1,
          "duration": 0.037499999999994316
        },
        {
          "name": "D3",
          "midi": 50,
          "time": 94.35937499999852,
          "velocity": 1,
          "duration": 0.037499999999994316
        },
        {
          "name": "C3",
          "midi": 48,
          "time": 94.40624999999852,
          "velocity": 1,
          "duration": 0.07500000000000284
        },
        {
          "name": "G2",
          "midi": 43,
          "time": 94.49999999999852,
          "velocity": 1,
          "duration": 0.29999999999999716
        },
        {
          "name": "A3",
          "midi": 57,
          "time": 94.68749999999852,
          "velocity": 0.8661417322834646,
          "duration": 0.29999999999999716
        },
        {
          "name": "D2",
          "midi": 38,
          "time": 94.87499999999852,
          "velocity": 0.8661417322834646,
          "duration": 0.29999999999999716
        },
        {
          "name": "C2",
          "midi": 36,
          "time": 95.06249999999852,
          "velocity": 1,
          "duration": 0.14999999999999147
        },
        {
          "name": "F#3",
          "midi": 54,
          "time": 95.24999999999851,
          "velocity": 0.5039370078740157,
          "duration": 0.15000000000000568
        },
        {
          "name": "F#2",
          "midi": 42,
          "time": 95.24999999999851,
          "velocity": 0.8661417322834646,
          "duration": 0.15000000000000568
        },
        {
          "name": "C2",
          "midi": 36,
          "time": 95.24999999999851,
          "velocity": 1,
          "duration": 0.29999999999999716
        },
        {
          "name": "F#3",
          "midi": 54,
          "time": 95.43749999999851,
          "velocity": 0.5039370078740157,
          "duration": 0.07500000000000284
        },
        {
          "name": "F#2",
          "midi": 42,
          "time": 95.43749999999851,
          "velocity": 0.8661417322834646,
          "duration": 0.14999999999999147
        },
        {
          "name": "F#3",
          "midi": 54,
          "time": 95.53124999999851,
          "velocity": 0.5039370078740157,
          "duration": 0.07499999999998863
        },
        {
          "name": "F#3",
          "midi": 54,
          "time": 95.6249999999985,
          "velocity": 0.5039370078740157,
          "duration": 0.15000000000000568
        },
        {
          "name": "D2",
          "midi": 38,
          "time": 95.6249999999985,
          "velocity": 0.8661417322834646,
          "duration": 0.29999999999999716
        },
        {
          "name": "F#2",
          "midi": 42,
          "time": 95.6249999999985,
          "velocity": 0.8661417322834646,
          "duration": 0.15000000000000568
        },
        {
          "name": "A#2",
          "midi": 46,
          "time": 95.8124999999985,
          "velocity": 0.8661417322834646,
          "duration": 0.14999999999999147
        },
        {
          "name": "F#3",
          "midi": 54,
          "time": 95.8124999999985,
          "velocity": 0.5039370078740157,
          "duration": 0.07500000000000284
        },
        {
          "name": "F#3",
          "midi": 54,
          "time": 95.9062499999985,
          "velocity": 0.5039370078740157,
          "duration": 0.07499999999998863
        },
        {
          "name": "F#2",
          "midi": 42,
          "time": 95.99999999999848,
          "velocity": 0.8661417322834646,
          "duration": 0.15000000000000568
        },
        {
          "name": "C2",
          "midi": 36,
          "time": 95.99999999999848,
          "velocity": 1,
          "duration": 0.29999999999999716
        },
        {
          "name": "F#3",
          "midi": 54,
          "time": 95.99999999999848,
          "velocity": 0.5039370078740157,
          "duration": 0.15000000000000568
        },
        {
          "name": "F#2",
          "midi": 42,
          "time": 96.18749999999848,
          "velocity": 0.8661417322834646,
          "duration": 0.14999999999999147
        },
        {
          "name": "F#3",
          "midi": 54,
          "time": 96.18749999999848,
          "velocity": 0.5039370078740157,
          "duration": 0.07500000000000284
        },
        {
          "name": "F#3",
          "midi": 54,
          "time": 96.28124999999848,
          "velocity": 0.5039370078740157,
          "duration": 0.07499999999998863
        },
        {
          "name": "F#3",
          "midi": 54,
          "time": 96.37499999999847,
          "velocity": 0.5039370078740157,
          "duration": 0.15000000000000568
        },
        {
          "name": "D2",
          "midi": 38,
          "time": 96.37499999999847,
          "velocity": 0.8661417322834646,
          "duration": 0.29999999999999716
        },
        {
          "name": "F#2",
          "midi": 42,
          "time": 96.37499999999847,
          "velocity": 0.8661417322834646,
          "duration": 0.15000000000000568
        },
        {
          "name": "F#3",
          "midi": 54,
          "time": 96.56249999999847,
          "velocity": 0.5039370078740157,
          "duration": 0.07500000000000284
        },
        {
          "name": "C2",
          "midi": 36,
          "time": 96.56249999999847,
          "velocity": 1,
          "duration": 0.14999999999999147
        },
        {
          "name": "F#2",
          "midi": 42,
          "time": 96.56249999999847,
          "velocity": 0.8661417322834646,
          "duration": 0.14999999999999147
        },
        {
          "name": "F#3",
          "midi": 54,
          "time": 96.65624999999847,
          "velocity": 0.5039370078740157,
          "duration": 0.07499999999998863
        },
        {
          "name": "F#3",
          "midi": 54,
          "time": 96.74999999999845,
          "velocity": 0.5039370078740157,
          "duration": 0.15000000000000568
        },
        {
          "name": "F#2",
          "midi": 42,
          "time": 96.74999999999845,
          "velocity": 0.8661417322834646,
          "duration": 0.15000000000000568
        },
        {
          "name": "C2",
          "midi": 36,
          "time": 96.74999999999845,
          "velocity": 1,
          "duration": 0.29999999999999716
        },
        {
          "name": "F#3",
          "midi": 54,
          "time": 96.93749999999845,
          "velocity": 0.5039370078740157,
          "duration": 0.07500000000000284
        },
        {
          "name": "F#2",
          "midi": 42,
          "time": 96.93749999999845,
          "velocity": 0.8661417322834646,
          "duration": 0.14999999999999147
        },
        {
          "name": "F#3",
          "midi": 54,
          "time": 97.03124999999845,
          "velocity": 0.5039370078740157,
          "duration": 0.07499999999998863
        },
        {
          "name": "F#2",
          "midi": 42,
          "time": 97.12499999999844,
          "velocity": 0.8661417322834646,
          "duration": 0.15000000000000568
        },
        {
          "name": "D2",
          "midi": 38,
          "time": 97.12499999999844,
          "velocity": 0.8661417322834646,
          "duration": 0.29999999999999716
        },
        {
          "name": "F#3",
          "midi": 54,
          "time": 97.12499999999844,
          "velocity": 0.5039370078740157,
          "duration": 0.15000000000000568
        },
        {
          "name": "A#2",
          "midi": 46,
          "time": 97.31249999999844,
          "velocity": 0.8661417322834646,
          "duration": 0.14999999999999147
        },
        {
          "name": "F#3",
          "midi": 54,
          "time": 97.31249999999844,
          "velocity": 0.5039370078740157,
          "duration": 0.07500000000000284
        },
        {
          "name": "F#3",
          "midi": 54,
          "time": 97.40624999999844,
          "velocity": 0.5039370078740157,
          "duration": 0.07499999999998863
        },
        {
          "name": "F#2",
          "midi": 42,
          "time": 97.49999999999842,
          "velocity": 0.8661417322834646,
          "duration": 0.15000000000000568
        },
        {
          "name": "C2",
          "midi": 36,
          "time": 97.49999999999842,
          "velocity": 1,
          "duration": 0.29999999999999716
        },
        {
          "name": "F#3",
          "midi": 54,
          "time": 97.49999999999842,
          "velocity": 0.5039370078740157,
          "duration": 0.15000000000000568
        },
        {
          "name": "F#2",
          "midi": 42,
          "time": 97.68749999999842,
          "velocity": 0.8661417322834646,
          "duration": 0.14999999999999147
        },
        {
          "name": "F#3",
          "midi": 54,
          "time": 97.68749999999842,
          "velocity": 0.5039370078740157,
          "duration": 0.07500000000000284
        },
        {
          "name": "F#3",
          "midi": 54,
          "time": 97.78124999999842,
          "velocity": 0.5039370078740157,
          "duration": 0.07499999999998863
        },
        {
          "name": "D2",
          "midi": 38,
          "time": 97.87499999999841,
          "velocity": 0.8661417322834646,
          "duration": 0.29999999999999716
        },
        {
          "name": "F#3",
          "midi": 54,
          "time": 97.87499999999841,
          "velocity": 0.5039370078740157,
          "duration": 0.15000000000000568
        },
        {
          "name": "F#2",
          "midi": 42,
          "time": 97.87499999999841,
          "velocity": 0.8661417322834646,
          "duration": 0.15000000000000568
        },
        {
          "name": "F#3",
          "midi": 54,
          "time": 98.06249999999841,
          "velocity": 0.5039370078740157,
          "duration": 0.07500000000000284
        },
        {
          "name": "C2",
          "midi": 36,
          "time": 98.06249999999841,
          "velocity": 1,
          "duration": 0.14999999999999147
        },
        {
          "name": "F#2",
          "midi": 42,
          "time": 98.06249999999841,
          "velocity": 0.8661417322834646,
          "duration": 0.14999999999999147
        },
        {
          "name": "F#3",
          "midi": 54,
          "time": 98.15624999999841,
          "velocity": 0.5039370078740157,
          "duration": 0.07499999999998863
        },
        {
          "name": "F#3",
          "midi": 54,
          "time": 98.2499999999984,
          "velocity": 0.5039370078740157,
          "duration": 0.15000000000000568
        },
        {
          "name": "F#2",
          "midi": 42,
          "time": 98.2499999999984,
          "velocity": 0.8661417322834646,
          "duration": 0.15000000000000568
        },
        {
          "name": "C2",
          "midi": 36,
          "time": 98.2499999999984,
          "velocity": 1,
          "duration": 0.15000000000000568
        },
        {
          "name": "F#3",
          "midi": 54,
          "time": 98.4374999999984,
          "velocity": 0.5039370078740157,
          "duration": 0.07500000000000284
        },
        {
          "name": "C2",
          "midi": 36,
          "time": 98.4374999999984,
          "velocity": 1,
          "duration": 0.15000000000000568
        },
        {
          "name": "F#2",
          "midi": 42,
          "time": 98.4374999999984,
          "velocity": 0.8661417322834646,
          "duration": 0.15000000000000568
        },
        {
          "name": "F#3",
          "midi": 54,
          "time": 98.5312499999984,
          "velocity": 0.5039370078740157,
          "duration": 0.07500000000000284
        },
        {
          "name": "D2",
          "midi": 38,
          "time": 98.6249999999984,
          "velocity": 0.8661417322834646,
          "duration": 0.15000000000000568
        },
        {
          "name": "F#2",
          "midi": 42,
          "time": 98.6249999999984,
          "velocity": 0.8661417322834646,
          "duration": 0.15000000000000568
        },
        {
          "name": "F#3",
          "midi": 54,
          "time": 98.6249999999984,
          "velocity": 0.5039370078740157,
          "duration": 0.15000000000000568
        },
        {
          "name": "F#2",
          "midi": 42,
          "time": 98.8124999999984,
          "velocity": 0.8661417322834646,
          "duration": 0.15000000000000568
        },
        {
          "name": "D2",
          "midi": 38,
          "time": 98.8124999999984,
          "velocity": 0.8661417322834646,
          "duration": 0.15000000000000568
        },
        {
          "name": "F#3",
          "midi": 54,
          "time": 98.8124999999984,
          "velocity": 0.5039370078740157,
          "duration": 0.07500000000000284
        },
        {
          "name": "F#3",
          "midi": 54,
          "time": 98.9062499999984,
          "velocity": 0.5039370078740157,
          "duration": 0.07500000000000284
        },
        {
          "name": "C2",
          "midi": 36,
          "time": 98.9999999999984,
          "velocity": 1,
          "duration": 0.29999999999999716
        },
        {
          "name": "A3",
          "midi": 57,
          "time": 98.9999999999984,
          "velocity": 0.8661417322834646,
          "duration": 0.29999999999999716
        },
        {
          "name": "F#2",
          "midi": 42,
          "time": 98.9999999999984,
          "velocity": 0.8661417322834646,
          "duration": 0.15000000000000568
        },
        {
          "name": "F#3",
          "midi": 54,
          "time": 98.9999999999984,
          "velocity": 0.5039370078740157,
          "duration": 0.15000000000000568
        },
        {
          "name": "F#2",
          "midi": 42,
          "time": 99.1874999999984,
          "velocity": 0.8661417322834646,
          "duration": 0.14999999999999147
        },
        {
          "name": "F#3",
          "midi": 54,
          "time": 99.1874999999984,
          "velocity": 0.5039370078740157,
          "duration": 0.07500000000000284
        },
        {
          "name": "F#3",
          "midi": 54,
          "time": 99.2812499999984,
          "velocity": 0.5039370078740157,
          "duration": 0.07499999999998863
        },
        {
          "name": "F#2",
          "midi": 42,
          "time": 99.37499999999838,
          "velocity": 0.8661417322834646,
          "duration": 0.15000000000000568
        },
        {
          "name": "F#3",
          "midi": 54,
          "time": 99.37499999999838,
          "velocity": 0.5039370078740157,
          "duration": 0.15000000000000568
        },
        {
          "name": "D2",
          "midi": 38,
          "time": 99.37499999999838,
          "velocity": 0.8661417322834646,
          "duration": 0.29999999999999716
        },
        {
          "name": "F#2",
          "midi": 42,
          "time": 99.56249999999838,
          "velocity": 0.8661417322834646,
          "duration": 0.14999999999999147
        },
        {
          "name": "F#3",
          "midi": 54,
          "time": 99.56249999999838,
          "velocity": 0.5039370078740157,
          "duration": 0.07500000000000284
        },
        {
          "name": "F#3",
          "midi": 54,
          "time": 99.65624999999838,
          "velocity": 0.5039370078740157,
          "duration": 0.07499999999998863
        },
        {
          "name": "F#3",
          "midi": 54,
          "time": 99.74999999999837,
          "velocity": 0.5039370078740157,
          "duration": 0.15000000000000568
        },
        {
          "name": "F#2",
          "midi": 42,
          "time": 99.74999999999837,
          "velocity": 0.8661417322834646,
          "duration": 0.15000000000000568
        },
        {
          "name": "C2",
          "midi": 36,
          "time": 99.74999999999837,
          "velocity": 1,
          "duration": 0.29999999999999716
        },
        {
          "name": "F#3",
          "midi": 54,
          "time": 99.93749999999837,
          "velocity": 0.5039370078740157,
          "duration": 0.07500000000000284
        },
        {
          "name": "F#2",
          "midi": 42,
          "time": 99.93749999999837,
          "velocity": 0.8661417322834646,
          "duration": 0.14999999999999147
        },
        {
          "name": "F#3",
          "midi": 54,
          "time": 100.03124999999837,
          "velocity": 0.5039370078740157,
          "duration": 0.07499999999998863
        },
        {
          "name": "F#3",
          "midi": 54,
          "time": 100.12499999999835,
          "velocity": 0.5039370078740157,
          "duration": 0.15000000000000568
        },
        {
          "name": "F#2",
          "midi": 42,
          "time": 100.12499999999835,
          "velocity": 0.8661417322834646,
          "duration": 0.15000000000000568
        },
        {
          "name": "D2",
          "midi": 38,
          "time": 100.12499999999835,
          "velocity": 0.8661417322834646,
          "duration": 0.29999999999999716
        },
        {
          "name": "F#2",
          "midi": 42,
          "time": 100.31249999999835,
          "velocity": 0.8661417322834646,
          "duration": 0.14999999999999147
        },
        {
          "name": "C2",
          "midi": 36,
          "time": 100.31249999999835,
          "velocity": 1,
          "duration": 0.14999999999999147
        },
        {
          "name": "F#3",
          "midi": 54,
          "time": 100.31249999999835,
          "velocity": 0.5039370078740157,
          "duration": 0.07500000000000284
        },
        {
          "name": "F#3",
          "midi": 54,
          "time": 100.40624999999835,
          "velocity": 0.5039370078740157,
          "duration": 0.07499999999998863
        },
        {
          "name": "F#3",
          "midi": 54,
          "time": 100.49999999999834,
          "velocity": 0.5039370078740157,
          "duration": 0.15000000000000568
        },
        {
          "name": "C2",
          "midi": 36,
          "time": 100.49999999999834,
          "velocity": 1,
          "duration": 0.29999999999999716
        },
        {
          "name": "F#2",
          "midi": 42,
          "time": 100.49999999999834,
          "velocity": 0.8661417322834646,
          "duration": 0.15000000000000568
        },
        {
          "name": "F#2",
          "midi": 42,
          "time": 100.68749999999834,
          "velocity": 0.8661417322834646,
          "duration": 0.14999999999999147
        },
        {
          "name": "F#3",
          "midi": 54,
          "time": 100.68749999999834,
          "velocity": 0.5039370078740157,
          "duration": 0.07500000000000284
        },
        {
          "name": "F#3",
          "midi": 54,
          "time": 100.78124999999834,
          "velocity": 0.5039370078740157,
          "duration": 0.07499999999998863
        },
        {
          "name": "D2",
          "midi": 38,
          "time": 100.87499999999832,
          "velocity": 0.8661417322834646,
          "duration": 0.29999999999999716
        },
        {
          "name": "F#3",
          "midi": 54,
          "time": 100.87499999999832,
          "velocity": 0.5039370078740157,
          "duration": 0.15000000000000568
        },
        {
          "name": "F#2",
          "midi": 42,
          "time": 100.87499999999832,
          "velocity": 0.8661417322834646,
          "duration": 0.15000000000000568
        },
        {
          "name": "A#2",
          "midi": 46,
          "time": 101.06249999999832,
          "velocity": 0.8661417322834646,
          "duration": 0.14999999999999147
        },
        {
          "name": "F#3",
          "midi": 54,
          "time": 101.06249999999832,
          "velocity": 0.5039370078740157,
          "duration": 0.07500000000000284
        },
        {
          "name": "C2",
          "midi": 36,
          "time": 101.06249999999832,
          "velocity": 1,
          "duration": 0.14999999999999147
        },
        {
          "name": "F#3",
          "midi": 54,
          "time": 101.15624999999832,
          "velocity": 0.5039370078740157,
          "duration": 0.07499999999998863
        },
        {
          "name": "F#2",
          "midi": 42,
          "time": 101.24999999999831,
          "velocity": 0.8661417322834646,
          "duration": 0.15000000000000568
        },
        {
          "name": "F#3",
          "midi": 54,
          "time": 101.24999999999831,
          "velocity": 0.5039370078740157,
          "duration": 0.15000000000000568
        },
        {
          "name": "C2",
          "midi": 36,
          "time": 101.24999999999831,
          "velocity": 1,
          "duration": 0.15000000000000568
        },
        {
          "name": "F#3",
          "midi": 54,
          "time": 101.43749999999831,
          "velocity": 0.5039370078740157,
          "duration": 0.07500000000000284
        },
        {
          "name": "C2",
          "midi": 36,
          "time": 101.43749999999831,
          "velocity": 1,
          "duration": 0.15000000000000568
        },
        {
          "name": "F#2",
          "midi": 42,
          "time": 101.43749999999831,
          "velocity": 0.8661417322834646,
          "duration": 0.15000000000000568
        },
        {
          "name": "F#3",
          "midi": 54,
          "time": 101.53124999999831,
          "velocity": 0.5039370078740157,
          "duration": 0.07500000000000284
        },
        {
          "name": "F#3",
          "midi": 54,
          "time": 101.62499999999831,
          "velocity": 0.5039370078740157,
          "duration": 0.15000000000000568
        },
        {
          "name": "F#2",
          "midi": 42,
          "time": 101.62499999999831,
          "velocity": 0.8661417322834646,
          "duration": 0.15000000000000568
        },
        {
          "name": "D2",
          "midi": 38,
          "time": 101.62499999999831,
          "velocity": 0.8661417322834646,
          "duration": 0.29999999999999716
        },
        {
          "name": "F#2",
          "midi": 42,
          "time": 101.81249999999831,
          "velocity": 0.8661417322834646,
          "duration": 0.14999999999999147
        },
        {
          "name": "F#3",
          "midi": 54,
          "time": 101.81249999999831,
          "velocity": 0.5039370078740157,
          "duration": 0.07500000000000284
        },
        {
          "name": "F#3",
          "midi": 54,
          "time": 101.90624999999831,
          "velocity": 0.5039370078740157,
          "duration": 0.07499999999998863
        },
        {
          "name": "F#2",
          "midi": 42,
          "time": 101.9999999999983,
          "velocity": 0.8661417322834646,
          "duration": 0.15000000000000568
        },
        {
          "name": "F#3",
          "midi": 54,
          "time": 101.9999999999983,
          "velocity": 0.5039370078740157,
          "duration": 0.15000000000000568
        },
        {
          "name": "C2",
          "midi": 36,
          "time": 101.9999999999983,
          "velocity": 1,
          "duration": 0.29999999999999716
        },
        {
          "name": "F#2",
          "midi": 42,
          "time": 102.1874999999983,
          "velocity": 0.8661417322834646,
          "duration": 0.14999999999999147
        },
        {
          "name": "F#3",
          "midi": 54,
          "time": 102.1874999999983,
          "velocity": 0.5039370078740157,
          "duration": 0.07500000000000284
        },
        {
          "name": "F#3",
          "midi": 54,
          "time": 102.2812499999983,
          "velocity": 0.5039370078740157,
          "duration": 0.07499999999998863
        },
        {
          "name": "F#2",
          "midi": 42,
          "time": 102.37499999999828,
          "velocity": 0.8661417322834646,
          "duration": 0.15000000000000568
        },
        {
          "name": "F#3",
          "midi": 54,
          "time": 102.37499999999828,
          "velocity": 0.5039370078740157,
          "duration": 0.15000000000000568
        },
        {
          "name": "D2",
          "midi": 38,
          "time": 102.37499999999828,
          "velocity": 0.8661417322834646,
          "duration": 0.29999999999999716
        },
        {
          "name": "C2",
          "midi": 36,
          "time": 102.56249999999828,
          "velocity": 1,
          "duration": 0.14999999999999147
        },
        {
          "name": "F#3",
          "midi": 54,
          "time": 102.56249999999828,
          "velocity": 0.5039370078740157,
          "duration": 0.07500000000000284
        },
        {
          "name": "F#2",
          "midi": 42,
          "time": 102.56249999999828,
          "velocity": 0.8661417322834646,
          "duration": 0.14999999999999147
        },
        {
          "name": "F#3",
          "midi": 54,
          "time": 102.65624999999828,
          "velocity": 0.5039370078740157,
          "duration": 0.07499999999998863
        },
        {
          "name": "F#3",
          "midi": 54,
          "time": 102.74999999999827,
          "velocity": 0.5039370078740157,
          "duration": 0.15000000000000568
        },
        {
          "name": "F#2",
          "midi": 42,
          "time": 102.74999999999827,
          "velocity": 0.8661417322834646,
          "duration": 0.15000000000000568
        },
        {
          "name": "C2",
          "midi": 36,
          "time": 102.74999999999827,
          "velocity": 1,
          "duration": 0.29999999999999716
        },
        {
          "name": "F#3",
          "midi": 54,
          "time": 102.93749999999827,
          "velocity": 0.5039370078740157,
          "duration": 0.07500000000000284
        },
        {
          "name": "F#2",
          "midi": 42,
          "time": 102.93749999999827,
          "velocity": 0.8661417322834646,
          "duration": 0.14999999999999147
        },
        {
          "name": "F#3",
          "midi": 54,
          "time": 103.03124999999827,
          "velocity": 0.5039370078740157,
          "duration": 0.07499999999998863
        },
        {
          "name": "D2",
          "midi": 38,
          "time": 103.12499999999825,
          "velocity": 0.8661417322834646,
          "duration": 0.29999999999999716
        },
        {
          "name": "F#2",
          "midi": 42,
          "time": 103.12499999999825,
          "velocity": 0.8661417322834646,
          "duration": 0.15000000000000568
        },
        {
          "name": "F#3",
          "midi": 54,
          "time": 103.12499999999825,
          "velocity": 0.5039370078740157,
          "duration": 0.15000000000000568
        },
        {
          "name": "A#2",
          "midi": 46,
          "time": 103.31249999999825,
          "velocity": 0.8661417322834646,
          "duration": 0.14999999999999147
        },
        {
          "name": "F#3",
          "midi": 54,
          "time": 103.31249999999825,
          "velocity": 0.5039370078740157,
          "duration": 0.07500000000000284
        },
        {
          "name": "F#3",
          "midi": 54,
          "time": 103.40624999999825,
          "velocity": 0.5039370078740157,
          "duration": 0.07499999999998863
        },
        {
          "name": "F#3",
          "midi": 54,
          "time": 103.49999999999824,
          "velocity": 0.5039370078740157,
          "duration": 0.15000000000000568
        },
        {
          "name": "F#2",
          "midi": 42,
          "time": 103.49999999999824,
          "velocity": 0.8661417322834646,
          "duration": 0.15000000000000568
        },
        {
          "name": "C2",
          "midi": 36,
          "time": 103.49999999999824,
          "velocity": 1,
          "duration": 0.29999999999999716
        },
        {
          "name": "F#2",
          "midi": 42,
          "time": 103.68749999999824,
          "velocity": 0.8661417322834646,
          "duration": 0.14999999999999147
        },
        {
          "name": "F#3",
          "midi": 54,
          "time": 103.68749999999824,
          "velocity": 0.5039370078740157,
          "duration": 0.07500000000000284
        },
        {
          "name": "F#3",
          "midi": 54,
          "time": 103.78124999999824,
          "velocity": 0.5039370078740157,
          "duration": 0.07499999999998863
        },
        {
          "name": "D2",
          "midi": 38,
          "time": 103.87499999999822,
          "velocity": 0.8661417322834646,
          "duration": 0.29999999999999716
        },
        {
          "name": "F#3",
          "midi": 54,
          "time": 103.87499999999822,
          "velocity": 0.5039370078740157,
          "duration": 0.15000000000000568
        },
        {
          "name": "F#2",
          "midi": 42,
          "time": 103.87499999999822,
          "velocity": 0.8661417322834646,
          "duration": 0.15000000000000568
        },
        {
          "name": "F#3",
          "midi": 54,
          "time": 104.06249999999822,
          "velocity": 0.5039370078740157,
          "duration": 0.07500000000000284
        },
        {
          "name": "F#2",
          "midi": 42,
          "time": 104.06249999999822,
          "velocity": 0.8661417322834646,
          "duration": 0.14999999999999147
        },
        {
          "name": "C2",
          "midi": 36,
          "time": 104.06249999999822,
          "velocity": 1,
          "duration": 0.14999999999999147
        },
        {
          "name": "F#3",
          "midi": 54,
          "time": 104.15624999999822,
          "velocity": 0.5039370078740157,
          "duration": 0.07499999999998863
        },
        {
          "name": "F#3",
          "midi": 54,
          "time": 104.24999999999821,
          "velocity": 0.5039370078740157,
          "duration": 0.15000000000000568
        },
        {
          "name": "F#2",
          "midi": 42,
          "time": 104.24999999999821,
          "velocity": 0.8661417322834646,
          "duration": 0.15000000000000568
        },
        {
          "name": "C2",
          "midi": 36,
          "time": 104.24999999999821,
          "velocity": 1,
          "duration": 0.15000000000000568
        },
        {
          "name": "C2",
          "midi": 36,
          "time": 104.43749999999821,
          "velocity": 1,
          "duration": 0.15000000000000568
        },
        {
          "name": "F#2",
          "midi": 42,
          "time": 104.43749999999821,
          "velocity": 0.8661417322834646,
          "duration": 0.15000000000000568
        },
        {
          "name": "F#3",
          "midi": 54,
          "time": 104.43749999999821,
          "velocity": 0.5039370078740157,
          "duration": 0.07500000000000284
        },
        {
          "name": "F#3",
          "midi": 54,
          "time": 104.53124999999821,
          "velocity": 0.5039370078740157,
          "duration": 0.07500000000000284
        },
        {
          "name": "F#3",
          "midi": 54,
          "time": 104.62499999999821,
          "velocity": 0.5039370078740157,
          "duration": 0.15000000000000568
        },
        {
          "name": "D2",
          "midi": 38,
          "time": 104.62499999999821,
          "velocity": 0.8661417322834646,
          "duration": 0.15000000000000568
        },
        {
          "name": "F#2",
          "midi": 42,
          "time": 104.62499999999821,
          "velocity": 0.8661417322834646,
          "duration": 0.15000000000000568
        },
        {
          "name": "D2",
          "midi": 38,
          "time": 104.81249999999821,
          "velocity": 0.8661417322834646,
          "duration": 0.15000000000000568
        },
        {
          "name": "F#2",
          "midi": 42,
          "time": 104.81249999999821,
          "velocity": 0.8661417322834646,
          "duration": 0.15000000000000568
        },
        {
          "name": "F#3",
          "midi": 54,
          "time": 104.81249999999821,
          "velocity": 0.5039370078740157,
          "duration": 0.07500000000000284
        },
        {
          "name": "F#3",
          "midi": 54,
          "time": 104.90624999999821,
          "velocity": 0.5039370078740157,
          "duration": 0.07500000000000284
        },
        {
          "name": "F#3",
          "midi": 54,
          "time": 104.99999999999821,
          "velocity": 0.5039370078740157,
          "duration": 0.15000000000000568
        },
        {
          "name": "F#2",
          "midi": 42,
          "time": 104.99999999999821,
          "velocity": 0.8661417322834646,
          "duration": 0.15000000000000568
        },
        {
          "name": "A3",
          "midi": 57,
          "time": 104.99999999999821,
          "velocity": 0.8661417322834646,
          "duration": 0.29999999999999716
        },
        {
          "name": "C2",
          "midi": 36,
          "time": 104.99999999999821,
          "velocity": 1,
          "duration": 0.29999999999999716
        },
        {
          "name": "F#3",
          "midi": 54,
          "time": 105.18749999999821,
          "velocity": 0.5039370078740157,
          "duration": 0.07500000000000284
        },
        {
          "name": "F#2",
          "midi": 42,
          "time": 105.18749999999821,
          "velocity": 0.8661417322834646,
          "duration": 0.14999999999999147
        },
        {
          "name": "F#3",
          "midi": 54,
          "time": 105.28124999999821,
          "velocity": 0.5039370078740157,
          "duration": 0.07499999999998863
        },
        {
          "name": "F#3",
          "midi": 54,
          "time": 105.3749999999982,
          "velocity": 0.5039370078740157,
          "duration": 0.15000000000000568
        },
        {
          "name": "F#2",
          "midi": 42,
          "time": 105.3749999999982,
          "velocity": 0.8661417322834646,
          "duration": 0.15000000000000568
        },
        {
          "name": "D2",
          "midi": 38,
          "time": 105.3749999999982,
          "velocity": 0.8661417322834646,
          "duration": 0.29999999999999716
        },
        {
          "name": "F#3",
          "midi": 54,
          "time": 105.5624999999982,
          "velocity": 0.5039370078740157,
          "duration": 0.07500000000000284
        },
        {
          "name": "F#2",
          "midi": 42,
          "time": 105.5624999999982,
          "velocity": 0.8661417322834646,
          "duration": 0.14999999999999147
        },
        {
          "name": "F#3",
          "midi": 54,
          "time": 105.6562499999982,
          "velocity": 0.5039370078740157,
          "duration": 0.07499999999998863
        },
        {
          "name": "F#2",
          "midi": 42,
          "time": 105.74999999999818,
          "velocity": 0.8661417322834646,
          "duration": 0.15000000000000568
        },
        {
          "name": "C2",
          "midi": 36,
          "time": 105.74999999999818,
          "velocity": 1,
          "duration": 0.29999999999999716
        },
        {
          "name": "F#3",
          "midi": 54,
          "time": 105.74999999999818,
          "velocity": 0.5039370078740157,
          "duration": 0.15000000000000568
        },
        {
          "name": "F#2",
          "midi": 42,
          "time": 105.93749999999818,
          "velocity": 0.8661417322834646,
          "duration": 0.14999999999999147
        },
        {
          "name": "F#3",
          "midi": 54,
          "time": 105.93749999999818,
          "velocity": 0.5039370078740157,
          "duration": 0.07500000000000284
        },
        {
          "name": "F#3",
          "midi": 54,
          "time": 106.03124999999818,
          "velocity": 0.5039370078740157,
          "duration": 0.07499999999998863
        },
        {
          "name": "F#3",
          "midi": 54,
          "time": 106.12499999999817,
          "velocity": 0.5039370078740157,
          "duration": 0.15000000000000568
        },
        {
          "name": "F#2",
          "midi": 42,
          "time": 106.12499999999817,
          "velocity": 0.8661417322834646,
          "duration": 0.15000000000000568
        },
        {
          "name": "D2",
          "midi": 38,
          "time": 106.12499999999817,
          "velocity": 0.8661417322834646,
          "duration": 0.29999999999999716
        },
        {
          "name": "C2",
          "midi": 36,
          "time": 106.31249999999817,
          "velocity": 1,
          "duration": 0.14999999999999147
        },
        {
          "name": "F#2",
          "midi": 42,
          "time": 106.31249999999817,
          "velocity": 0.8661417322834646,
          "duration": 0.14999999999999147
        },
        {
          "name": "F#3",
          "midi": 54,
          "time": 106.31249999999817,
          "velocity": 0.5039370078740157,
          "duration": 0.07500000000000284
        },
        {
          "name": "F#3",
          "midi": 54,
          "time": 106.40624999999817,
          "velocity": 0.5039370078740157,
          "duration": 0.07499999999998863
        },
        {
          "name": "F#3",
          "midi": 54,
          "time": 106.49999999999815,
          "velocity": 0.5039370078740157,
          "duration": 0.15000000000000568
        },
        {
          "name": "F#2",
          "midi": 42,
          "time": 106.49999999999815,
          "velocity": 0.8661417322834646,
          "duration": 0.15000000000000568
        },
        {
          "name": "C2",
          "midi": 36,
          "time": 106.49999999999815,
          "velocity": 1,
          "duration": 0.29999999999999716
        },
        {
          "name": "F#2",
          "midi": 42,
          "time": 106.68749999999815,
          "velocity": 0.8661417322834646,
          "duration": 0.14999999999999147
        },
        {
          "name": "F#3",
          "midi": 54,
          "time": 106.68749999999815,
          "velocity": 0.5039370078740157,
          "duration": 0.07500000000000284
        },
        {
          "name": "F#3",
          "midi": 54,
          "time": 106.78124999999815,
          "velocity": 0.5039370078740157,
          "duration": 0.07499999999998863
        },
        {
          "name": "F#2",
          "midi": 42,
          "time": 106.87499999999814,
          "velocity": 0.8661417322834646,
          "duration": 0.15000000000000568
        },
        {
          "name": "F#3",
          "midi": 54,
          "time": 106.87499999999814,
          "velocity": 0.5039370078740157,
          "duration": 0.15000000000000568
        },
        {
          "name": "D2",
          "midi": 38,
          "time": 106.87499999999814,
          "velocity": 0.8661417322834646,
          "duration": 0.29999999999999716
        },
        {
          "name": "F#3",
          "midi": 54,
          "time": 107.06249999999814,
          "velocity": 0.5039370078740157,
          "duration": 0.07500000000000284
        },
        {
          "name": "C2",
          "midi": 36,
          "time": 107.06249999999814,
          "velocity": 1,
          "duration": 0.14999999999999147
        },
        {
          "name": "A#2",
          "midi": 46,
          "time": 107.06249999999814,
          "velocity": 0.8661417322834646,
          "duration": 0.14999999999999147
        },
        {
          "name": "F#3",
          "midi": 54,
          "time": 107.15624999999814,
          "velocity": 0.5039370078740157,
          "duration": 0.07499999999998863
        },
        {
          "name": "C2",
          "midi": 36,
          "time": 107.24999999999812,
          "velocity": 1,
          "duration": 0.15000000000000568
        },
        {
          "name": "F#3",
          "midi": 54,
          "time": 107.24999999999812,
          "velocity": 0.5039370078740157,
          "duration": 0.15000000000000568
        },
        {
          "name": "F#2",
          "midi": 42,
          "time": 107.24999999999812,
          "velocity": 0.8661417322834646,
          "duration": 0.15000000000000568
        },
        {
          "name": "F#2",
          "midi": 42,
          "time": 107.43749999999812,
          "velocity": 0.8661417322834646,
          "duration": 0.15000000000000568
        },
        {
          "name": "C2",
          "midi": 36,
          "time": 107.43749999999812,
          "velocity": 1,
          "duration": 0.15000000000000568
        },
        {
          "name": "F#3",
          "midi": 54,
          "time": 107.43749999999812,
          "velocity": 0.5039370078740157,
          "duration": 0.07500000000000284
        },
        {
          "name": "F#3",
          "midi": 54,
          "time": 107.53124999999812,
          "velocity": 0.5039370078740157,
          "duration": 0.07500000000000284
        },
        {
          "name": "D2",
          "midi": 38,
          "time": 107.62499999999812,
          "velocity": 0.8661417322834646,
          "duration": 0.15000000000000568
        },
        {
          "name": "F#3",
          "midi": 54,
          "time": 107.62499999999812,
          "velocity": 0.5039370078740157,
          "duration": 0.15000000000000568
        },
        {
          "name": "F#2",
          "midi": 42,
          "time": 107.62499999999812,
          "velocity": 0.8661417322834646,
          "duration": 0.15000000000000568
        },
        {
          "name": "F#2",
          "midi": 42,
          "time": 107.81249999999812,
          "velocity": 0.8661417322834646,
          "duration": 0.15000000000000568
        },
        {
          "name": "D2",
          "midi": 38,
          "time": 107.81249999999812,
          "velocity": 0.8661417322834646,
          "duration": 0.15000000000000568
        },
        {
          "name": "F#3",
          "midi": 54,
          "time": 107.81249999999812,
          "velocity": 0.5039370078740157,
          "duration": 0.07500000000000284
        },
        {
          "name": "F#3",
          "midi": 54,
          "time": 107.90624999999812,
          "velocity": 0.5039370078740157,
          "duration": 0.07500000000000284
        },
        {
          "name": "F#2",
          "midi": 42,
          "time": 107.99999999999812,
          "velocity": 0.8661417322834646,
          "duration": 0.15000000000000568
        },
        {
          "name": "C2",
          "midi": 36,
          "time": 107.99999999999812,
          "velocity": 1,
          "duration": 0.29999999999999716
        },
        {
          "name": "A3",
          "midi": 57,
          "time": 107.99999999999812,
          "velocity": 1,
          "duration": 0.29999999999999716
        },
        {
          "name": "F#3",
          "midi": 54,
          "time": 107.99999999999812,
          "velocity": 0.5039370078740157,
          "duration": 0.15000000000000568
        },
        {
          "name": "F#3",
          "midi": 54,
          "time": 108.18749999999812,
          "velocity": 0.5039370078740157,
          "duration": 0.07500000000000284
        },
        {
          "name": "F#2",
          "midi": 42,
          "time": 108.18749999999812,
          "velocity": 0.8661417322834646,
          "duration": 0.14999999999999147
        },
        {
          "name": "F#3",
          "midi": 54,
          "time": 108.28124999999812,
          "velocity": 0.5039370078740157,
          "duration": 0.07499999999998863
        },
        {
          "name": "F#3",
          "midi": 54,
          "time": 108.37499999999811,
          "velocity": 0.5039370078740157,
          "duration": 0.15000000000000568
        },
        {
          "name": "D2",
          "midi": 38,
          "time": 108.37499999999811,
          "velocity": 0.8661417322834646,
          "duration": 0.29999999999999716
        },
        {
          "name": "F#2",
          "midi": 42,
          "time": 108.37499999999811,
          "velocity": 0.8661417322834646,
          "duration": 0.15000000000000568
        },
        {
          "name": "F#2",
          "midi": 42,
          "time": 108.56249999999811,
          "velocity": 0.8661417322834646,
          "duration": 0.14999999999999147
        },
        {
          "name": "C2",
          "midi": 36,
          "time": 108.56249999999811,
          "velocity": 1,
          "duration": 0.14999999999999147
        },
        {
          "name": "F#3",
          "midi": 54,
          "time": 108.56249999999811,
          "velocity": 0.5039370078740157,
          "duration": 0.07500000000000284
        },
        {
          "name": "F#3",
          "midi": 54,
          "time": 108.65624999999811,
          "velocity": 0.5039370078740157,
          "duration": 0.07499999999998863
        },
        {
          "name": "F#2",
          "midi": 42,
          "time": 108.7499999999981,
          "velocity": 0.8661417322834646,
          "duration": 0.15000000000000568
        },
        {
          "name": "F#3",
          "midi": 54,
          "time": 108.7499999999981,
          "velocity": 0.5039370078740157,
          "duration": 0.15000000000000568
        },
        {
          "name": "C2",
          "midi": 36,
          "time": 108.7499999999981,
          "velocity": 1,
          "duration": 0.29999999999999716
        },
        {
          "name": "F#3",
          "midi": 54,
          "time": 108.9374999999981,
          "velocity": 0.5039370078740157,
          "duration": 0.07500000000000284
        },
        {
          "name": "F#2",
          "midi": 42,
          "time": 108.9374999999981,
          "velocity": 0.8661417322834646,
          "duration": 0.14999999999999147
        },
        {
          "name": "F#3",
          "midi": 54,
          "time": 109.0312499999981,
          "velocity": 0.5039370078740157,
          "duration": 0.07499999999998863
        },
        {
          "name": "F#3",
          "midi": 54,
          "time": 109.12499999999808,
          "velocity": 0.5039370078740157,
          "duration": 0.15000000000000568
        },
        {
          "name": "F#2",
          "midi": 42,
          "time": 109.12499999999808,
          "velocity": 0.8661417322834646,
          "duration": 0.15000000000000568
        },
        {
          "name": "D2",
          "midi": 38,
          "time": 109.12499999999808,
          "velocity": 0.8661417322834646,
          "duration": 0.29999999999999716
        },
        {
          "name": "A#2",
          "midi": 46,
          "time": 109.31249999999808,
          "velocity": 0.8661417322834646,
          "duration": 0.14999999999999147
        },
        {
          "name": "F#3",
          "midi": 54,
          "time": 109.31249999999808,
          "velocity": 0.5039370078740157,
          "duration": 0.07500000000000284
        },
        {
          "name": "F#3",
          "midi": 54,
          "time": 109.40624999999808,
          "velocity": 0.5039370078740157,
          "duration": 0.07499999999998863
        },
        {
          "name": "C2",
          "midi": 36,
          "time": 109.49999999999807,
          "velocity": 1,
          "duration": 0.29999999999999716
        },
        {
          "name": "F#2",
          "midi": 42,
          "time": 109.49999999999807,
          "velocity": 0.8661417322834646,
          "duration": 0.15000000000000568
        },
        {
          "name": "F#3",
          "midi": 54,
          "time": 109.49999999999807,
          "velocity": 0.5039370078740157,
          "duration": 0.15000000000000568
        },
        {
          "name": "F#3",
          "midi": 54,
          "time": 109.68749999999807,
          "velocity": 0.5039370078740157,
          "duration": 0.07500000000000284
        },
        {
          "name": "F#2",
          "midi": 42,
          "time": 109.68749999999807,
          "velocity": 0.8661417322834646,
          "duration": 0.14999999999999147
        },
        {
          "name": "F#3",
          "midi": 54,
          "time": 109.78124999999807,
          "velocity": 0.5039370078740157,
          "duration": 0.07499999999998863
        },
        {
          "name": "D2",
          "midi": 38,
          "time": 109.87499999999805,
          "velocity": 0.8661417322834646,
          "duration": 0.29999999999999716
        },
        {
          "name": "F#2",
          "midi": 42,
          "time": 109.87499999999805,
          "velocity": 0.8661417322834646,
          "duration": 0.15000000000000568
        },
        {
          "name": "F#3",
          "midi": 54,
          "time": 109.87499999999805,
          "velocity": 0.5039370078740157,
          "duration": 0.15000000000000568
        },
        {
          "name": "F#2",
          "midi": 42,
          "time": 110.06249999999805,
          "velocity": 0.8661417322834646,
          "duration": 0.14999999999999147
        },
        {
          "name": "F#3",
          "midi": 54,
          "time": 110.06249999999805,
          "velocity": 0.5039370078740157,
          "duration": 0.07500000000000284
        },
        {
          "name": "C2",
          "midi": 36,
          "time": 110.06249999999805,
          "velocity": 1,
          "duration": 0.14999999999999147
        },
        {
          "name": "F#3",
          "midi": 54,
          "time": 110.15624999999805,
          "velocity": 0.5039370078740157,
          "duration": 0.07499999999998863
        },
        {
          "name": "C2",
          "midi": 36,
          "time": 110.24999999999804,
          "velocity": 1,
          "duration": 0.15000000000000568
        },
        {
          "name": "F#2",
          "midi": 42,
          "time": 110.24999999999804,
          "velocity": 0.8661417322834646,
          "duration": 0.15000000000000568
        },
        {
          "name": "F#3",
          "midi": 54,
          "time": 110.24999999999804,
          "velocity": 0.5039370078740157,
          "duration": 0.15000000000000568
        },
        {
          "name": "F#2",
          "midi": 42,
          "time": 110.43749999999804,
          "velocity": 0.8661417322834646,
          "duration": 0.15000000000000568
        },
        {
          "name": "C2",
          "midi": 36,
          "time": 110.43749999999804,
          "velocity": 1,
          "duration": 0.15000000000000568
        },
        {
          "name": "F#3",
          "midi": 54,
          "time": 110.43749999999804,
          "velocity": 0.5039370078740157,
          "duration": 0.07500000000000284
        },
        {
          "name": "F#3",
          "midi": 54,
          "time": 110.53124999999804,
          "velocity": 0.5039370078740157,
          "duration": 0.07500000000000284
        },
        {
          "name": "F#3",
          "midi": 54,
          "time": 110.62499999999804,
          "velocity": 0.5039370078740157,
          "duration": 0.15000000000000568
        },
        {
          "name": "D2",
          "midi": 38,
          "time": 110.62499999999804,
          "velocity": 0.8661417322834646,
          "duration": 0.15000000000000568
        },
        {
          "name": "F#2",
          "midi": 42,
          "time": 110.62499999999804,
          "velocity": 0.8661417322834646,
          "duration": 0.15000000000000568
        },
        {
          "name": "D2",
          "midi": 38,
          "time": 110.81249999999804,
          "velocity": 0.8661417322834646,
          "duration": 0.15000000000000568
        },
        {
          "name": "F#2",
          "midi": 42,
          "time": 110.81249999999804,
          "velocity": 0.8661417322834646,
          "duration": 0.15000000000000568
        },
        {
          "name": "F#3",
          "midi": 54,
          "time": 110.81249999999804,
          "velocity": 0.5039370078740157,
          "duration": 0.07500000000000284
        },
        {
          "name": "F#3",
          "midi": 54,
          "time": 110.90624999999804,
          "velocity": 0.5039370078740157,
          "duration": 0.07500000000000284
        },
        {
          "name": "F#2",
          "midi": 42,
          "time": 110.99999999999804,
          "velocity": 0.8661417322834646,
          "duration": 0.15000000000000568
        },
        {
          "name": "F#3",
          "midi": 54,
          "time": 110.99999999999804,
          "velocity": 0.5039370078740157,
          "duration": 0.15000000000000568
        },
        {
          "name": "C2",
          "midi": 36,
          "time": 110.99999999999804,
          "velocity": 1,
          "duration": 0.29999999999999716
        },
        {
          "name": "F#3",
          "midi": 54,
          "time": 111.18749999999804,
          "velocity": 0.5039370078740157,
          "duration": 0.07500000000000284
        },
        {
          "name": "F#2",
          "midi": 42,
          "time": 111.18749999999804,
          "velocity": 0.8661417322834646,
          "duration": 0.14999999999999147
        },
        {
          "name": "F#3",
          "midi": 54,
          "time": 111.28124999999804,
          "velocity": 0.5039370078740157,
          "duration": 0.07499999999998863
        },
        {
          "name": "F#2",
          "midi": 42,
          "time": 111.37499999999802,
          "velocity": 0.8661417322834646,
          "duration": 0.15000000000000568
        },
        {
          "name": "D2",
          "midi": 38,
          "time": 111.37499999999802,
          "velocity": 0.8661417322834646,
          "duration": 0.29999999999999716
        },
        {
          "name": "F#3",
          "midi": 54,
          "time": 111.37499999999802,
          "velocity": 0.5039370078740157,
          "duration": 0.15000000000000568
        },
        {
          "name": "F#3",
          "midi": 54,
          "time": 111.56249999999802,
          "velocity": 0.5039370078740157,
          "duration": 0.07500000000000284
        },
        {
          "name": "F#2",
          "midi": 42,
          "time": 111.56249999999802,
          "velocity": 0.8661417322834646,
          "duration": 0.14999999999999147
        },
        {
          "name": "C2",
          "midi": 36,
          "time": 111.56249999999802,
          "velocity": 1,
          "duration": 0.14999999999999147
        },
        {
          "name": "F#3",
          "midi": 54,
          "time": 111.65624999999802,
          "velocity": 0.5039370078740157,
          "duration": 0.07499999999998863
        },
        {
          "name": "F#2",
          "midi": 42,
          "time": 111.74999999999801,
          "velocity": 0.8661417322834646,
          "duration": 0.15000000000000568
        },
        {
          "name": "F#3",
          "midi": 54,
          "time": 111.74999999999801,
          "velocity": 0.5039370078740157,
          "duration": 0.15000000000000568
        },
        {
          "name": "C2",
          "midi": 36,
          "time": 111.74999999999801,
          "velocity": 1,
          "duration": 0.29999999999999716
        },
        {
          "name": "F#3",
          "midi": 54,
          "time": 111.93749999999801,
          "velocity": 0.5039370078740157,
          "duration": 0.07500000000000284
        },
        {
          "name": "F#2",
          "midi": 42,
          "time": 111.93749999999801,
          "velocity": 0.8661417322834646,
          "duration": 0.14999999999999147
        },
        {
          "name": "F#3",
          "midi": 54,
          "time": 112.03124999999801,
          "velocity": 0.5039370078740157,
          "duration": 0.07499999999998863
        },
        {
          "name": "F#2",
          "midi": 42,
          "time": 112.124999999998,
          "velocity": 0.8661417322834646,
          "duration": 0.15000000000000568
        },
        {
          "name": "F#3",
          "midi": 54,
          "time": 112.124999999998,
          "velocity": 0.5039370078740157,
          "duration": 0.15000000000000568
        },
        {
          "name": "D2",
          "midi": 38,
          "time": 112.124999999998,
          "velocity": 0.8661417322834646,
          "duration": 0.29999999999999716
        },
        {
          "name": "F#3",
          "midi": 54,
          "time": 112.312499999998,
          "velocity": 0.5039370078740157,
          "duration": 0.07500000000000284
        },
        {
          "name": "A#2",
          "midi": 46,
          "time": 112.312499999998,
          "velocity": 0.8661417322834646,
          "duration": 0.14999999999999147
        },
        {
          "name": "F#3",
          "midi": 54,
          "time": 112.406249999998,
          "velocity": 0.5039370078740157,
          "duration": 0.07499999999998863
        },
        {
          "name": "F#3",
          "midi": 54,
          "time": 112.49999999999798,
          "velocity": 0.5039370078740157,
          "duration": 0.15000000000000568
        },
        {
          "name": "F#2",
          "midi": 42,
          "time": 112.49999999999798,
          "velocity": 0.8661417322834646,
          "duration": 0.15000000000000568
        },
        {
          "name": "C2",
          "midi": 36,
          "time": 112.49999999999798,
          "velocity": 1,
          "duration": 0.29999999999999716
        },
        {
          "name": "F#3",
          "midi": 54,
          "time": 112.68749999999798,
          "velocity": 0.5039370078740157,
          "duration": 0.07500000000000284
        },
        {
          "name": "F#2",
          "midi": 42,
          "time": 112.68749999999798,
          "velocity": 0.8661417322834646,
          "duration": 0.14999999999999147
        },
        {
          "name": "F#3",
          "midi": 54,
          "time": 112.78124999999798,
          "velocity": 0.5039370078740157,
          "duration": 0.07499999999998863
        },
        {
          "name": "D2",
          "midi": 38,
          "time": 112.87499999999797,
          "velocity": 0.8661417322834646,
          "duration": 0.30000000000001137
        },
        {
          "name": "F#3",
          "midi": 54,
          "time": 112.87499999999797,
          "velocity": 0.5039370078740157,
          "duration": 0.15000000000000568
        },
        {
          "name": "F#2",
          "midi": 42,
          "time": 112.87499999999797,
          "velocity": 0.8661417322834646,
          "duration": 0.15000000000000568
        },
        {
          "name": "D3",
          "midi": 50,
          "time": 113.06249999999797,
          "velocity": 1,
          "duration": 0.037499999999994316
        },
        {
          "name": "F#3",
          "midi": 54,
          "time": 113.06249999999797,
          "velocity": 0.5039370078740157,
          "duration": 0.07500000000000284
        },
        {
          "name": "F#2",
          "midi": 42,
          "time": 113.06249999999797,
          "velocity": 0.8661417322834646,
          "duration": 0.15000000000000568
        },
        {
          "name": "C2",
          "midi": 36,
          "time": 113.06249999999797,
          "velocity": 1,
          "duration": 0.15000000000000568
        },
        {
          "name": "D3",
          "midi": 50,
          "time": 113.10937499999797,
          "velocity": 1,
          "duration": 0.037500000000008527
        },
        {
          "name": "F#3",
          "midi": 54,
          "time": 113.15624999999798,
          "velocity": 0.5039370078740157,
          "duration": 0.07499999999998863
        },
        {
          "name": "D3",
          "midi": 50,
          "time": 113.15624999999798,
          "velocity": 1,
          "duration": 0.07499999999998863
        },
        {
          "name": "D3",
          "midi": 50,
          "time": 113.24999999999797,
          "velocity": 1,
          "duration": 0.15000000000000568
        },
        {
          "name": "F#3",
          "midi": 54,
          "time": 113.24999999999797,
          "velocity": 0.5039370078740157,
          "duration": 0.15000000000000568
        },
        {
          "name": "F#2",
          "midi": 42,
          "time": 113.24999999999797,
          "velocity": 0.8661417322834646,
          "duration": 0.15000000000000568
        },
        {
          "name": "C2",
          "midi": 36,
          "time": 113.24999999999797,
          "velocity": 1,
          "duration": 0.29999999999999716
        },
        {
          "name": "C3",
          "midi": 48,
          "time": 113.43749999999797,
          "velocity": 1,
          "duration": 0.14999999999999147
        },
        {
          "name": "F#3",
          "midi": 54,
          "time": 113.43749999999797,
          "velocity": 0.5039370078740157,
          "duration": 0.07500000000000284
        },
        {
          "name": "F#2",
          "midi": 42,
          "time": 113.43749999999797,
          "velocity": 0.8661417322834646,
          "duration": 0.14999999999999147
        },
        {
          "name": "F#3",
          "midi": 54,
          "time": 113.53124999999797,
          "velocity": 0.5039370078740157,
          "duration": 0.07499999999998863
        },
        {
          "name": "F#2",
          "midi": 42,
          "time": 113.62499999999795,
          "velocity": 0.8661417322834646,
          "duration": 0.15000000000000568
        },
        {
          "name": "F#3",
          "midi": 54,
          "time": 113.62499999999795,
          "velocity": 0.5039370078740157,
          "duration": 0.15000000000000568
        },
        {
          "name": "D2",
          "midi": 38,
          "time": 113.62499999999795,
          "velocity": 0.8661417322834646,
          "duration": 0.29999999999999716
        },
        {
          "name": "F#3",
          "midi": 54,
          "time": 113.81249999999795,
          "velocity": 0.5039370078740157,
          "duration": 0.07500000000000284
        },
        {
          "name": "A#2",
          "midi": 46,
          "time": 113.81249999999795,
          "velocity": 0.8661417322834646,
          "duration": 0.14999999999999147
        },
        {
          "name": "F#3",
          "midi": 54,
          "time": 113.90624999999795,
          "velocity": 0.5039370078740157,
          "duration": 0.07499999999998863
        },
        {
          "name": "F#3",
          "midi": 54,
          "time": 113.99999999999794,
          "velocity": 0.5039370078740157,
          "duration": 0.15000000000000568
        },
        {
          "name": "F#2",
          "midi": 42,
          "time": 113.99999999999794,
          "velocity": 0.8661417322834646,
          "duration": 0.15000000000000568
        },
        {
          "name": "C2",
          "midi": 36,
          "time": 113.99999999999794,
          "velocity": 1,
          "duration": 0.29999999999999716
        },
        {
          "name": "F#2",
          "midi": 42,
          "time": 114.18749999999794,
          "velocity": 0.8661417322834646,
          "duration": 0.14999999999999147
        },
        {
          "name": "F#3",
          "midi": 54,
          "time": 114.18749999999794,
          "velocity": 0.5039370078740157,
          "duration": 0.07500000000000284
        },
        {
          "name": "F#3",
          "midi": 54,
          "time": 114.28124999999794,
          "velocity": 0.5039370078740157,
          "duration": 0.07499999999998863
        },
        {
          "name": "D2",
          "midi": 38,
          "time": 114.37499999999793,
          "velocity": 0.8661417322834646,
          "duration": 0.29999999999999716
        },
        {
          "name": "F#2",
          "midi": 42,
          "time": 114.37499999999793,
          "velocity": 0.8661417322834646,
          "duration": 0.15000000000000568
        },
        {
          "name": "F#3",
          "midi": 54,
          "time": 114.37499999999793,
          "velocity": 0.5039370078740157,
          "duration": 0.15000000000000568
        },
        {
          "name": "F#3",
          "midi": 54,
          "time": 114.56249999999793,
          "velocity": 0.5039370078740157,
          "duration": 0.07500000000000284
        },
        {
          "name": "F#2",
          "midi": 42,
          "time": 114.56249999999793,
          "velocity": 0.8661417322834646,
          "duration": 0.14999999999999147
        },
        {
          "name": "C2",
          "midi": 36,
          "time": 114.56249999999793,
          "velocity": 1,
          "duration": 0.14999999999999147
        },
        {
          "name": "F#3",
          "midi": 54,
          "time": 114.65624999999793,
          "velocity": 0.5039370078740157,
          "duration": 0.07499999999998863
        },
        {
          "name": "D3",
          "midi": 50,
          "time": 114.74999999999791,
          "velocity": 1,
          "duration": 0.07500000000000284
        },
        {
          "name": "F#2",
          "midi": 42,
          "time": 114.74999999999791,
          "velocity": 0.8661417322834646,
          "duration": 0.15000000000000568
        },
        {
          "name": "F#3",
          "midi": 54,
          "time": 114.74999999999791,
          "velocity": 0.5039370078740157,
          "duration": 0.15000000000000568
        },
        {
          "name": "C2",
          "midi": 36,
          "time": 114.74999999999791,
          "velocity": 1,
          "duration": 0.29999999999999716
        },
        {
          "name": "D3",
          "midi": 50,
          "time": 114.84374999999791,
          "velocity": 1,
          "duration": 0.15000000000000568
        },
        {
          "name": "F#3",
          "midi": 54,
          "time": 114.93749999999791,
          "velocity": 0.5039370078740157,
          "duration": 0.07500000000000284
        },
        {
          "name": "F#2",
          "midi": 42,
          "time": 114.93749999999791,
          "velocity": 0.8661417322834646,
          "duration": 0.14999999999999147
        },
        {
          "name": "F#3",
          "midi": 54,
          "time": 115.03124999999791,
          "velocity": 0.5039370078740157,
          "duration": 0.07499999999998863
        },
        {
          "name": "C3",
          "midi": 48,
          "time": 115.03124999999791,
          "velocity": 1,
          "duration": 0.07499999999998863
        },
        {
          "name": "B2",
          "midi": 47,
          "time": 115.1249999999979,
          "velocity": 1,
          "duration": 0.15000000000000568
        },
        {
          "name": "F#3",
          "midi": 54,
          "time": 115.1249999999979,
          "velocity": 0.5039370078740157,
          "duration": 0.15000000000000568
        },
        {
          "name": "F#2",
          "midi": 42,
          "time": 115.1249999999979,
          "velocity": 0.8661417322834646,
          "duration": 0.15000000000000568
        },
        {
          "name": "D2",
          "midi": 38,
          "time": 115.1249999999979,
          "velocity": 0.8661417322834646,
          "duration": 0.29999999999999716
        },
        {
          "name": "F#3",
          "midi": 54,
          "time": 115.3124999999979,
          "velocity": 0.5039370078740157,
          "duration": 0.07500000000000284
        },
        {
          "name": "G2",
          "midi": 43,
          "time": 115.3124999999979,
          "velocity": 1,
          "duration": 0.14999999999999147
        },
        {
          "name": "A#2",
          "midi": 46,
          "time": 115.3124999999979,
          "velocity": 0.8661417322834646,
          "duration": 0.14999999999999147
        },
        {
          "name": "F#3",
          "midi": 54,
          "time": 115.4062499999979,
          "velocity": 0.5039370078740157,
          "duration": 0.07499999999998863
        },
        {
          "name": "F#3",
          "midi": 54,
          "time": 115.49999999999788,
          "velocity": 0.5039370078740157,
          "duration": 0.15000000000000568
        },
        {
          "name": "F#2",
          "midi": 42,
          "time": 115.49999999999788,
          "velocity": 0.8661417322834646,
          "duration": 0.15000000000000568
        },
        {
          "name": "C2",
          "midi": 36,
          "time": 115.49999999999788,
          "velocity": 1,
          "duration": 0.29999999999999716
        },
        {
          "name": "F#2",
          "midi": 42,
          "time": 115.68749999999788,
          "velocity": 0.8661417322834646,
          "duration": 0.14999999999999147
        },
        {
          "name": "F#3",
          "midi": 54,
          "time": 115.68749999999788,
          "velocity": 0.5039370078740157,
          "duration": 0.07500000000000284
        },
        {
          "name": "D3",
          "midi": 50,
          "time": 115.68749999999788,
          "velocity": 1,
          "duration": 0.07500000000000284
        },
        {
          "name": "F#3",
          "midi": 54,
          "time": 115.78124999999788,
          "velocity": 0.5039370078740157,
          "duration": 0.07499999999998863
        },
        {
          "name": "D3",
          "midi": 50,
          "time": 115.78124999999788,
          "velocity": 1,
          "duration": 0.07499999999998863
        },
        {
          "name": "D3",
          "midi": 50,
          "time": 115.87499999999787,
          "velocity": 1,
          "duration": 0.07500000000000284
        },
        {
          "name": "F#2",
          "midi": 42,
          "time": 115.87499999999787,
          "velocity": 0.8661417322834646,
          "duration": 0.15000000000000568
        },
        {
          "name": "F#3",
          "midi": 54,
          "time": 115.87499999999787,
          "velocity": 0.5039370078740157,
          "duration": 0.15000000000000568
        },
        {
          "name": "D2",
          "midi": 38,
          "time": 115.87499999999787,
          "velocity": 0.8661417322834646,
          "duration": 0.29999999999999716
        },
        {
          "name": "D3",
          "midi": 50,
          "time": 115.96874999999787,
          "velocity": 1,
          "duration": 0.07500000000000284
        },
        {
          "name": "F#3",
          "midi": 54,
          "time": 116.06249999999787,
          "velocity": 0.5039370078740157,
          "duration": 0.07500000000000284
        },
        {
          "name": "C2",
          "midi": 36,
          "time": 116.06249999999787,
          "velocity": 1,
          "duration": 0.14999999999999147
        },
        {
          "name": "F#2",
          "midi": 42,
          "time": 116.06249999999787,
          "velocity": 0.8661417322834646,
          "duration": 0.14999999999999147
        },
        {
          "name": "F#3",
          "midi": 54,
          "time": 116.15624999999787,
          "velocity": 0.5039370078740157,
          "duration": 0.07499999999998863
        },
        {
          "name": "D3",
          "midi": 50,
          "time": 116.24999999999785,
          "velocity": 1,
          "duration": 0.07500000000000284
        },
        {
          "name": "F#2",
          "midi": 42,
          "time": 116.24999999999785,
          "velocity": 0.8661417322834646,
          "duration": 0.15000000000000568
        },
        {
          "name": "F#3",
          "midi": 54,
          "time": 116.24999999999785,
          "velocity": 0.5039370078740157,
          "duration": 0.15000000000000568
        },
        {
          "name": "C2",
          "midi": 36,
          "time": 116.24999999999785,
          "velocity": 1,
          "duration": 0.29999999999999716
        },
        {
          "name": "D3",
          "midi": 50,
          "time": 116.34374999999785,
          "velocity": 1,
          "duration": 0.15000000000000568
        },
        {
          "name": "F#3",
          "midi": 54,
          "time": 116.43749999999785,
          "velocity": 0.5039370078740157,
          "duration": 0.07500000000000284
        },
        {
          "name": "F#2",
          "midi": 42,
          "time": 116.43749999999785,
          "velocity": 0.8661417322834646,
          "duration": 0.14999999999999147
        },
        {
          "name": "F#3",
          "midi": 54,
          "time": 116.53124999999785,
          "velocity": 0.5039370078740157,
          "duration": 0.07499999999998863
        },
        {
          "name": "C3",
          "midi": 48,
          "time": 116.53124999999785,
          "velocity": 1,
          "duration": 0.07499999999998863
        },
        {
          "name": "B2",
          "midi": 47,
          "time": 116.62499999999784,
          "velocity": 1,
          "duration": 0.15000000000000568
        },
        {
          "name": "F#3",
          "midi": 54,
          "time": 116.62499999999784,
          "velocity": 0.5039370078740157,
          "duration": 0.15000000000000568
        },
        {
          "name": "F#2",
          "midi": 42,
          "time": 116.62499999999784,
          "velocity": 0.8661417322834646,
          "duration": 0.15000000000000568
        },
        {
          "name": "D2",
          "midi": 38,
          "time": 116.62499999999784,
          "velocity": 0.8661417322834646,
          "duration": 0.29999999999999716
        },
        {
          "name": "F#3",
          "midi": 54,
          "time": 116.81249999999784,
          "velocity": 0.5039370078740157,
          "duration": 0.07500000000000284
        },
        {
          "name": "G2",
          "midi": 43,
          "time": 116.81249999999784,
          "velocity": 1,
          "duration": 0.14999999999999147
        },
        {
          "name": "A#2",
          "midi": 46,
          "time": 116.81249999999784,
          "velocity": 0.8661417322834646,
          "duration": 0.14999999999999147
        },
        {
          "name": "F#3",
          "midi": 54,
          "time": 116.90624999999784,
          "velocity": 0.5039370078740157,
          "duration": 0.07499999999998863
        },
        {
          "name": "F#2",
          "midi": 42,
          "time": 116.99999999999783,
          "velocity": 1,
          "duration": 0.15000000000000568
        },
        {
          "name": "F#3",
          "midi": 54,
          "time": 116.99999999999783,
          "velocity": 0.47244094488188976,
          "duration": 0.15000000000000568
        },
        {
          "name": "C2",
          "midi": 36,
          "time": 116.99999999999783,
          "velocity": 1,
          "duration": 0.29999999999999716
        },
        {
          "name": "A3",
          "midi": 57,
          "time": 116.99999999999783,
          "velocity": 1,
          "duration": 0.29999999999999716
        },
        {
          "name": "F#3",
          "midi": 54,
          "time": 117.18749999999783,
          "velocity": 0.47244094488188976,
          "duration": 0.07500000000000284
        },
        {
          "name": "F#2",
          "midi": 42,
          "time": 117.18749999999783,
          "velocity": 1,
          "duration": 0.14999999999999147
        },
        {
          "name": "F#3",
          "midi": 54,
          "time": 117.28124999999783,
          "velocity": 0.47244094488188976,
          "duration": 0.07499999999998863
        },
        {
          "name": "F#2",
          "midi": 42,
          "time": 117.37499999999781,
          "velocity": 1,
          "duration": 0.15000000000000568
        },
        {
          "name": "F#3",
          "midi": 54,
          "time": 117.37499999999781,
          "velocity": 0.47244094488188976,
          "duration": 0.15000000000000568
        },
        {
          "name": "D2",
          "midi": 38,
          "time": 117.37499999999781,
          "velocity": 1,
          "duration": 0.29999999999999716
        },
        {
          "name": "F#3",
          "midi": 54,
          "time": 117.56249999999781,
          "velocity": 0.47244094488188976,
          "duration": 0.07500000000000284
        },
        {
          "name": "F#2",
          "midi": 42,
          "time": 117.56249999999781,
          "velocity": 1,
          "duration": 0.14999999999999147
        },
        {
          "name": "F#3",
          "midi": 54,
          "time": 117.65624999999781,
          "velocity": 0.47244094488188976,
          "duration": 0.07499999999998863
        },
        {
          "name": "F#2",
          "midi": 42,
          "time": 117.7499999999978,
          "velocity": 1,
          "duration": 0.15000000000000568
        },
        {
          "name": "F#3",
          "midi": 54,
          "time": 117.7499999999978,
          "velocity": 0.47244094488188976,
          "duration": 0.15000000000000568
        },
        {
          "name": "C2",
          "midi": 36,
          "time": 117.7499999999978,
          "velocity": 1,
          "duration": 0.29999999999999716
        },
        {
          "name": "F#2",
          "midi": 42,
          "time": 117.9374999999978,
          "velocity": 1,
          "duration": 0.14999999999999147
        },
        {
          "name": "F#3",
          "midi": 54,
          "time": 117.9374999999978,
          "velocity": 0.47244094488188976,
          "duration": 0.07500000000000284
        },
        {
          "name": "F#3",
          "midi": 54,
          "time": 118.0312499999978,
          "velocity": 0.47244094488188976,
          "duration": 0.07499999999998863
        },
        {
          "name": "F#3",
          "midi": 54,
          "time": 118.12499999999778,
          "velocity": 0.47244094488188976,
          "duration": 0.15000000000000568
        },
        {
          "name": "F#2",
          "midi": 42,
          "time": 118.12499999999778,
          "velocity": 1,
          "duration": 0.15000000000000568
        },
        {
          "name": "D2",
          "midi": 38,
          "time": 118.12499999999778,
          "velocity": 1,
          "duration": 0.29999999999999716
        },
        {
          "name": "F#3",
          "midi": 54,
          "time": 118.31249999999778,
          "velocity": 0.47244094488188976,
          "duration": 0.07500000000000284
        },
        {
          "name": "C2",
          "midi": 36,
          "time": 118.31249999999778,
          "velocity": 1,
          "duration": 0.14999999999999147
        },
        {
          "name": "A#2",
          "midi": 46,
          "time": 118.31249999999778,
          "velocity": 1,
          "duration": 0.14999999999999147
        },
        {
          "name": "F#3",
          "midi": 54,
          "time": 118.40624999999778,
          "velocity": 0.47244094488188976,
          "duration": 0.07499999999998863
        },
        {
          "name": "F#2",
          "midi": 42,
          "time": 118.49999999999777,
          "velocity": 1,
          "duration": 0.15000000000000568
        },
        {
          "name": "F#3",
          "midi": 54,
          "time": 118.49999999999777,
          "velocity": 0.47244094488188976,
          "duration": 0.15000000000000568
        },
        {
          "name": "C2",
          "midi": 36,
          "time": 118.49999999999777,
          "velocity": 1,
          "duration": 0.29999999999999716
        },
        {
          "name": "F#3",
          "midi": 54,
          "time": 118.68749999999777,
          "velocity": 0.47244094488188976,
          "duration": 0.07500000000000284
        },
        {
          "name": "F#2",
          "midi": 42,
          "time": 118.68749999999777,
          "velocity": 1,
          "duration": 0.14999999999999147
        },
        {
          "name": "F#3",
          "midi": 54,
          "time": 118.78124999999777,
          "velocity": 0.47244094488188976,
          "duration": 0.07499999999998863
        },
        {
          "name": "F#2",
          "midi": 42,
          "time": 118.87499999999775,
          "velocity": 1,
          "duration": 0.15000000000000568
        },
        {
          "name": "F#3",
          "midi": 54,
          "time": 118.87499999999775,
          "velocity": 0.47244094488188976,
          "duration": 0.15000000000000568
        },
        {
          "name": "D2",
          "midi": 38,
          "time": 118.87499999999775,
          "velocity": 1,
          "duration": 0.29999999999999716
        },
        {
          "name": "F#3",
          "midi": 54,
          "time": 119.06249999999775,
          "velocity": 0.47244094488188976,
          "duration": 0.07500000000000284
        },
        {
          "name": "F#2",
          "midi": 42,
          "time": 119.06249999999775,
          "velocity": 1,
          "duration": 0.14999999999999147
        },
        {
          "name": "F#3",
          "midi": 54,
          "time": 119.15624999999775,
          "velocity": 0.47244094488188976,
          "duration": 0.07499999999998863
        },
        {
          "name": "F#3",
          "midi": 54,
          "time": 119.24999999999774,
          "velocity": 0.47244094488188976,
          "duration": 0.15000000000000568
        },
        {
          "name": "F#2",
          "midi": 42,
          "time": 119.24999999999774,
          "velocity": 1,
          "duration": 0.15000000000000568
        },
        {
          "name": "C2",
          "midi": 36,
          "time": 119.24999999999774,
          "velocity": 1,
          "duration": 0.29999999999999716
        },
        {
          "name": "F#3",
          "midi": 54,
          "time": 119.43749999999774,
          "velocity": 0.47244094488188976,
          "duration": 0.07500000000000284
        },
        {
          "name": "F#2",
          "midi": 42,
          "time": 119.43749999999774,
          "velocity": 1,
          "duration": 0.14999999999999147
        },
        {
          "name": "F#3",
          "midi": 54,
          "time": 119.53124999999774,
          "velocity": 0.47244094488188976,
          "duration": 0.07499999999998863
        },
        {
          "name": "F#2",
          "midi": 42,
          "time": 119.62499999999773,
          "velocity": 1,
          "duration": 0.15000000000000568
        },
        {
          "name": "F#3",
          "midi": 54,
          "time": 119.62499999999773,
          "velocity": 0.47244094488188976,
          "duration": 0.15000000000000568
        },
        {
          "name": "D2",
          "midi": 38,
          "time": 119.62499999999773,
          "velocity": 1,
          "duration": 0.29999999999999716
        },
        {
          "name": "F#3",
          "midi": 54,
          "time": 119.81249999999773,
          "velocity": 0.47244094488188976,
          "duration": 0.07500000000000284
        },
        {
          "name": "C2",
          "midi": 36,
          "time": 119.81249999999773,
          "velocity": 1,
          "duration": 0.14999999999999147
        },
        {
          "name": "A#2",
          "midi": 46,
          "time": 119.81249999999773,
          "velocity": 1,
          "duration": 0.14999999999999147
        },
        {
          "name": "F#3",
          "midi": 54,
          "time": 119.90624999999773,
          "velocity": 0.47244094488188976,
          "duration": 0.07499999999998863
        },
        {
          "name": "F#2",
          "midi": 42,
          "time": 119.99999999999771,
          "velocity": 1,
          "duration": 0.15000000000000568
        },
        {
          "name": "F#3",
          "midi": 54,
          "time": 119.99999999999771,
          "velocity": 0.47244094488188976,
          "duration": 0.15000000000000568
        },
        {
          "name": "C2",
          "midi": 36,
          "time": 119.99999999999771,
          "velocity": 1,
          "duration": 0.29999999999999716
        },
        {
          "name": "F#3",
          "midi": 54,
          "time": 120.18749999999771,
          "velocity": 0.47244094488188976,
          "duration": 0.07500000000000284
        },
        {
          "name": "F#2",
          "midi": 42,
          "time": 120.18749999999771,
          "velocity": 1,
          "duration": 0.14999999999999147
        },
        {
          "name": "F#3",
          "midi": 54,
          "time": 120.28124999999771,
          "velocity": 0.47244094488188976,
          "duration": 0.07499999999998863
        },
        {
          "name": "F#3",
          "midi": 54,
          "time": 120.3749999999977,
          "velocity": 0.47244094488188976,
          "duration": 0.15000000000000568
        },
        {
          "name": "F#2",
          "midi": 42,
          "time": 120.3749999999977,
          "velocity": 1,
          "duration": 0.15000000000000568
        },
        {
          "name": "D2",
          "midi": 38,
          "time": 120.3749999999977,
          "velocity": 1,
          "duration": 0.29999999999999716
        },
        {
          "name": "F#3",
          "midi": 54,
          "time": 120.5624999999977,
          "velocity": 0.47244094488188976,
          "duration": 0.07500000000000284
        },
        {
          "name": "C2",
          "midi": 36,
          "time": 120.5624999999977,
          "velocity": 1,
          "duration": 0.14999999999999147
        },
        {
          "name": "F#2",
          "midi": 42,
          "time": 120.5624999999977,
          "velocity": 1,
          "duration": 0.14999999999999147
        },
        {
          "name": "F#3",
          "midi": 54,
          "time": 120.6562499999977,
          "velocity": 0.47244094488188976,
          "duration": 0.07499999999998863
        },
        {
          "name": "F#2",
          "midi": 42,
          "time": 120.74999999999768,
          "velocity": 1,
          "duration": 0.15000000000000568
        },
        {
          "name": "F#3",
          "midi": 54,
          "time": 120.74999999999768,
          "velocity": 0.47244094488188976,
          "duration": 0.15000000000000568
        },
        {
          "name": "C2",
          "midi": 36,
          "time": 120.74999999999768,
          "velocity": 1,
          "duration": 0.29999999999999716
        },
        {
          "name": "F#3",
          "midi": 54,
          "time": 120.93749999999768,
          "velocity": 0.47244094488188976,
          "duration": 0.07500000000000284
        },
        {
          "name": "D3",
          "midi": 50,
          "time": 120.93749999999768,
          "velocity": 1,
          "duration": 0.14999999999999147
        },
        {
          "name": "F#2",
          "midi": 42,
          "time": 120.93749999999768,
          "velocity": 1,
          "duration": 0.14999999999999147
        },
        {
          "name": "F#3",
          "midi": 54,
          "time": 121.03124999999768,
          "velocity": 0.47244094488188976,
          "duration": 0.07499999999998863
        },
        {
          "name": "D3",
          "midi": 50,
          "time": 121.12499999999767,
          "velocity": 1,
          "duration": 0.15000000000000568
        },
        {
          "name": "F#3",
          "midi": 54,
          "time": 121.12499999999767,
          "velocity": 0.47244094488188976,
          "duration": 0.15000000000000568
        },
        {
          "name": "F#2",
          "midi": 42,
          "time": 121.12499999999767,
          "velocity": 1,
          "duration": 0.15000000000000568
        },
        {
          "name": "D2",
          "midi": 38,
          "time": 121.12499999999767,
          "velocity": 1,
          "duration": 0.29999999999999716
        },
        {
          "name": "F#3",
          "midi": 54,
          "time": 121.31249999999767,
          "velocity": 0.47244094488188976,
          "duration": 0.07500000000000284
        },
        {
          "name": "D3",
          "midi": 50,
          "time": 121.31249999999767,
          "velocity": 1,
          "duration": 0.14999999999999147
        },
        {
          "name": "F#2",
          "midi": 42,
          "time": 121.31249999999767,
          "velocity": 1,
          "duration": 0.14999999999999147
        },
        {
          "name": "F#3",
          "midi": 54,
          "time": 121.40624999999767,
          "velocity": 0.47244094488188976,
          "duration": 0.07499999999998863
        },
        {
          "name": "F#3",
          "midi": 54,
          "time": 121.49999999999766,
          "velocity": 0.47244094488188976,
          "duration": 0.15000000000000568
        },
        {
          "name": "F#2",
          "midi": 42,
          "time": 121.49999999999766,
          "velocity": 1,
          "duration": 0.15000000000000568
        },
        {
          "name": "C2",
          "midi": 36,
          "time": 121.49999999999766,
          "velocity": 1,
          "duration": 0.29999999999999716
        },
        {
          "name": "C3",
          "midi": 48,
          "time": 121.68749999999766,
          "velocity": 1,
          "duration": 0.14999999999999147
        },
        {
          "name": "F#2",
          "midi": 42,
          "time": 121.68749999999766,
          "velocity": 1,
          "duration": 0.14999999999999147
        },
        {
          "name": "F#3",
          "midi": 54,
          "time": 121.68749999999766,
          "velocity": 0.47244094488188976,
          "duration": 0.07500000000000284
        },
        {
          "name": "F#3",
          "midi": 54,
          "time": 121.78124999999766,
          "velocity": 0.47244094488188976,
          "duration": 0.07499999999998863
        },
        {
          "name": "F#3",
          "midi": 54,
          "time": 121.87499999999764,
          "velocity": 0.47244094488188976,
          "duration": 0.15000000000000568
        },
        {
          "name": "B2",
          "midi": 47,
          "time": 121.87499999999764,
          "velocity": 1,
          "duration": 0.15000000000000568
        },
        {
          "name": "F#2",
          "midi": 42,
          "time": 121.87499999999764,
          "velocity": 1,
          "duration": 0.15000000000000568
        },
        {
          "name": "D2",
          "midi": 38,
          "time": 121.87499999999764,
          "velocity": 1,
          "duration": 0.29999999999999716
        },
        {
          "name": "F#3",
          "midi": 54,
          "time": 122.06249999999764,
          "velocity": 0.47244094488188976,
          "duration": 0.07500000000000284
        },
        {
          "name": "G2",
          "midi": 43,
          "time": 122.06249999999764,
          "velocity": 1,
          "duration": 0.14999999999999147
        },
        {
          "name": "F#2",
          "midi": 42,
          "time": 122.06249999999764,
          "velocity": 1,
          "duration": 0.14999999999999147
        },
        {
          "name": "C2",
          "midi": 36,
          "time": 122.06249999999764,
          "velocity": 1,
          "duration": 0.14999999999999147
        },
        {
          "name": "F#3",
          "midi": 54,
          "time": 122.15624999999764,
          "velocity": 0.47244094488188976,
          "duration": 0.07499999999998863
        },
        {
          "name": "F#3",
          "midi": 54,
          "time": 122.24999999999763,
          "velocity": 0.47244094488188976,
          "duration": 0.15000000000000568
        },
        {
          "name": "F#2",
          "midi": 42,
          "time": 122.24999999999763,
          "velocity": 1,
          "duration": 0.15000000000000568
        },
        {
          "name": "C2",
          "midi": 36,
          "time": 122.24999999999763,
          "velocity": 1,
          "duration": 0.15000000000000568
        },
        {
          "name": "F#3",
          "midi": 54,
          "time": 122.43749999999763,
          "velocity": 0.47244094488188976,
          "duration": 0.07500000000000284
        },
        {
          "name": "A3",
          "midi": 57,
          "time": 122.43749999999763,
          "velocity": 1,
          "duration": 0.15000000000000568
        },
        {
          "name": "F#2",
          "midi": 42,
          "time": 122.43749999999763,
          "velocity": 1,
          "duration": 0.15000000000000568
        },
        {
          "name": "C2",
          "midi": 36,
          "time": 122.43749999999763,
          "velocity": 1,
          "duration": 0.48749999999999716
        },
        {
          "name": "F#3",
          "midi": 54,
          "time": 122.53124999999763,
          "velocity": 0.47244094488188976,
          "duration": 0.07500000000000284
        },
        {
          "name": "F#2",
          "midi": 42,
          "time": 122.62499999999763,
          "velocity": 0.6299212598425197,
          "duration": 0.15000000000000568
        },
        {
          "name": "F#3",
          "midi": 54,
          "time": 122.62499999999763,
          "velocity": 0.47244094488188976,
          "duration": 0.15000000000000568
        },
        {
          "name": "D2",
          "midi": 38,
          "time": 122.62499999999763,
          "velocity": 0.6299212598425197,
          "duration": 0.29999999999999716
        },
        {
          "name": "F#3",
          "midi": 54,
          "time": 122.81249999999763,
          "velocity": 0.47244094488188976,
          "duration": 0.07500000000000284
        },
        {
          "name": "F#3",
          "midi": 54,
          "time": 122.90624999999763,
          "velocity": 0.47244094488188976,
          "duration": 0.07500000000000284
        },
        {
          "name": "F#2",
          "midi": 42,
          "time": 122.99999999999763,
          "velocity": 1,
          "duration": 0.15000000000000568
        },
        {
          "name": "F#3",
          "midi": 54,
          "time": 122.99999999999763,
          "velocity": 0.47244094488188976,
          "duration": 0.15000000000000568
        },
        {
          "name": "C2",
          "midi": 36,
          "time": 122.99999999999763,
          "velocity": 1,
          "duration": 0.29999999999999716
        },
        {
          "name": "F#3",
          "midi": 54,
          "time": 123.18749999999763,
          "velocity": 0.47244094488188976,
          "duration": 0.07500000000000284
        },
        {
          "name": "F#2",
          "midi": 42,
          "time": 123.18749999999763,
          "velocity": 1,
          "duration": 0.14999999999999147
        },
        {
          "name": "F#3",
          "midi": 54,
          "time": 123.28124999999763,
          "velocity": 0.47244094488188976,
          "duration": 0.07499999999998863
        },
        {
          "name": "F#3",
          "midi": 54,
          "time": 123.37499999999761,
          "velocity": 0.47244094488188976,
          "duration": 0.15000000000000568
        },
        {
          "name": "F#2",
          "midi": 42,
          "time": 123.37499999999761,
          "velocity": 1,
          "duration": 0.15000000000000568
        },
        {
          "name": "D2",
          "midi": 38,
          "time": 123.37499999999761,
          "velocity": 1,
          "duration": 0.29999999999999716
        },
        {
          "name": "F#3",
          "midi": 54,
          "time": 123.56249999999761,
          "velocity": 0.47244094488188976,
          "duration": 0.07500000000000284
        },
        {
          "name": "F#2",
          "midi": 42,
          "time": 123.56249999999761,
          "velocity": 1,
          "duration": 0.14999999999999147
        },
        {
          "name": "F#3",
          "midi": 54,
          "time": 123.65624999999761,
          "velocity": 0.47244094488188976,
          "duration": 0.07499999999998863
        },
        {
          "name": "F#3",
          "midi": 54,
          "time": 123.7499999999976,
          "velocity": 0.47244094488188976,
          "duration": 0.15000000000000568
        },
        {
          "name": "F#2",
          "midi": 42,
          "time": 123.7499999999976,
          "velocity": 1,
          "duration": 0.15000000000000568
        },
        {
          "name": "C2",
          "midi": 36,
          "time": 123.7499999999976,
          "velocity": 1,
          "duration": 0.29999999999999716
        },
        {
          "name": "F#2",
          "midi": 42,
          "time": 123.9374999999976,
          "velocity": 1,
          "duration": 0.14999999999999147
        },
        {
          "name": "F#3",
          "midi": 54,
          "time": 123.9374999999976,
          "velocity": 0.47244094488188976,
          "duration": 0.07500000000000284
        },
        {
          "name": "F#3",
          "midi": 54,
          "time": 124.0312499999976,
          "velocity": 0.47244094488188976,
          "duration": 0.07499999999998863
        },
        {
          "name": "F#2",
          "midi": 42,
          "time": 124.12499999999758,
          "velocity": 1,
          "duration": 0.15000000000000568
        },
        {
          "name": "F#3",
          "midi": 54,
          "time": 124.12499999999758,
          "velocity": 0.47244094488188976,
          "duration": 0.15000000000000568
        },
        {
          "name": "D2",
          "midi": 38,
          "time": 124.12499999999758,
          "velocity": 1,
          "duration": 0.29999999999999716
        },
        {
          "name": "F#3",
          "midi": 54,
          "time": 124.31249999999758,
          "velocity": 0.47244094488188976,
          "duration": 0.07500000000000284
        },
        {
          "name": "A#2",
          "midi": 46,
          "time": 124.31249999999758,
          "velocity": 1,
          "duration": 0.14999999999999147
        },
        {
          "name": "C2",
          "midi": 36,
          "time": 124.31249999999758,
          "velocity": 1,
          "duration": 0.14999999999999147
        },
        {
          "name": "F#3",
          "midi": 54,
          "time": 124.40624999999758,
          "velocity": 0.47244094488188976,
          "duration": 0.07499999999998863
        },
        {
          "name": "F#3",
          "midi": 54,
          "time": 124.49999999999757,
          "velocity": 0.47244094488188976,
          "duration": 0.15000000000000568
        },
        {
          "name": "F#2",
          "midi": 42,
          "time": 124.49999999999757,
          "velocity": 1,
          "duration": 0.15000000000000568
        },
        {
          "name": "C2",
          "midi": 36,
          "time": 124.49999999999757,
          "velocity": 1,
          "duration": 0.29999999999999716
        },
        {
          "name": "F#3",
          "midi": 54,
          "time": 124.68749999999757,
          "velocity": 0.47244094488188976,
          "duration": 0.07500000000000284
        },
        {
          "name": "F#2",
          "midi": 42,
          "time": 124.68749999999757,
          "velocity": 1,
          "duration": 0.14999999999999147
        },
        {
          "name": "F#3",
          "midi": 54,
          "time": 124.78124999999757,
          "velocity": 0.47244094488188976,
          "duration": 0.07499999999998863
        },
        {
          "name": "F#2",
          "midi": 42,
          "time": 124.87499999999756,
          "velocity": 1,
          "duration": 0.15000000000000568
        },
        {
          "name": "F#3",
          "midi": 54,
          "time": 124.87499999999756,
          "velocity": 0.47244094488188976,
          "duration": 0.15000000000000568
        },
        {
          "name": "D2",
          "midi": 38,
          "time": 124.87499999999756,
          "velocity": 1,
          "duration": 0.29999999999999716
        },
        {
          "name": "F#2",
          "midi": 42,
          "time": 125.06249999999756,
          "velocity": 1,
          "duration": 0.14999999999999147
        },
        {
          "name": "F#3",
          "midi": 54,
          "time": 125.06249999999756,
          "velocity": 0.47244094488188976,
          "duration": 0.07500000000000284
        },
        {
          "name": "F#3",
          "midi": 54,
          "time": 125.15624999999756,
          "velocity": 0.47244094488188976,
          "duration": 0.07499999999998863
        },
        {
          "name": "F#3",
          "midi": 54,
          "time": 125.24999999999754,
          "velocity": 0.47244094488188976,
          "duration": 0.15000000000000568
        },
        {
          "name": "F#2",
          "midi": 42,
          "time": 125.24999999999754,
          "velocity": 1,
          "duration": 0.15000000000000568
        },
        {
          "name": "C2",
          "midi": 36,
          "time": 125.24999999999754,
          "velocity": 1,
          "duration": 0.29999999999999716
        },
        {
          "name": "F#3",
          "midi": 54,
          "time": 125.43749999999754,
          "velocity": 0.47244094488188976,
          "duration": 0.07500000000000284
        },
        {
          "name": "F#2",
          "midi": 42,
          "time": 125.43749999999754,
          "velocity": 1,
          "duration": 0.14999999999999147
        },
        {
          "name": "F#3",
          "midi": 54,
          "time": 125.53124999999754,
          "velocity": 0.47244094488188976,
          "duration": 0.07499999999998863
        },
        {
          "name": "F#3",
          "midi": 54,
          "time": 125.62499999999753,
          "velocity": 0.47244094488188976,
          "duration": 0.15000000000000568
        },
        {
          "name": "F#2",
          "midi": 42,
          "time": 125.62499999999753,
          "velocity": 1,
          "duration": 0.15000000000000568
        },
        {
          "name": "D2",
          "midi": 38,
          "time": 125.62499999999753,
          "velocity": 1,
          "duration": 0.29999999999999716
        },
        {
          "name": "F#3",
          "midi": 54,
          "time": 125.81249999999753,
          "velocity": 0.47244094488188976,
          "duration": 0.07500000000000284
        },
        {
          "name": "A#2",
          "midi": 46,
          "time": 125.81249999999753,
          "velocity": 1,
          "duration": 0.14999999999999147
        },
        {
          "name": "C2",
          "midi": 36,
          "time": 125.81249999999753,
          "velocity": 1,
          "duration": 0.14999999999999147
        },
        {
          "name": "F#3",
          "midi": 54,
          "time": 125.90624999999753,
          "velocity": 0.47244094488188976,
          "duration": 0.07499999999998863
        },
        {
          "name": "F#2",
          "midi": 42,
          "time": 125.99999999999751,
          "velocity": 1,
          "duration": 0.15000000000000568
        },
        {
          "name": "F#3",
          "midi": 54,
          "time": 125.99999999999751,
          "velocity": 0.47244094488188976,
          "duration": 0.15000000000000568
        },
        {
          "name": "C2",
          "midi": 36,
          "time": 125.99999999999751,
          "velocity": 1,
          "duration": 0.29999999999999716
        },
        {
          "name": "F#3",
          "midi": 54,
          "time": 126.18749999999751,
          "velocity": 0.47244094488188976,
          "duration": 0.07500000000000284
        },
        {
          "name": "F#2",
          "midi": 42,
          "time": 126.18749999999751,
          "velocity": 1,
          "duration": 0.14999999999999147
        },
        {
          "name": "F#3",
          "midi": 54,
          "time": 126.28124999999751,
          "velocity": 0.47244094488188976,
          "duration": 0.07499999999998863
        },
        {
          "name": "F#2",
          "midi": 42,
          "time": 126.3749999999975,
          "velocity": 1,
          "duration": 0.15000000000000568
        },
        {
          "name": "F#3",
          "midi": 54,
          "time": 126.3749999999975,
          "velocity": 0.47244094488188976,
          "duration": 0.15000000000000568
        },
        {
          "name": "D2",
          "midi": 38,
          "time": 126.3749999999975,
          "velocity": 1,
          "duration": 0.29999999999999716
        },
        {
          "name": "F#3",
          "midi": 54,
          "time": 126.5624999999975,
          "velocity": 0.47244094488188976,
          "duration": 0.07500000000000284
        },
        {
          "name": "F#2",
          "midi": 42,
          "time": 126.5624999999975,
          "velocity": 1,
          "duration": 0.14999999999999147
        },
        {
          "name": "C2",
          "midi": 36,
          "time": 126.5624999999975,
          "velocity": 1,
          "duration": 0.14999999999999147
        },
        {
          "name": "F#3",
          "midi": 54,
          "time": 126.6562499999975,
          "velocity": 0.47244094488188976,
          "duration": 0.07499999999998863
        },
        {
          "name": "F#3",
          "midi": 54,
          "time": 126.74999999999748,
          "velocity": 0.47244094488188976,
          "duration": 0.15000000000000568
        },
        {
          "name": "F#2",
          "midi": 42,
          "time": 126.74999999999748,
          "velocity": 1,
          "duration": 0.15000000000000568
        },
        {
          "name": "C2",
          "midi": 36,
          "time": 126.74999999999748,
          "velocity": 1,
          "duration": 0.29999999999999716
        },
        {
          "name": "F#3",
          "midi": 54,
          "time": 126.93749999999748,
          "velocity": 0.47244094488188976,
          "duration": 0.07500000000000284
        },
        {
          "name": "F#2",
          "midi": 42,
          "time": 126.93749999999748,
          "velocity": 1,
          "duration": 0.14999999999999147
        },
        {
          "name": "F#3",
          "midi": 54,
          "time": 127.03124999999748,
          "velocity": 0.47244094488188976,
          "duration": 0.07499999999998863
        },
        {
          "name": "F#3",
          "midi": 54,
          "time": 127.12499999999747,
          "velocity": 0.47244094488188976,
          "duration": 0.15000000000000568
        },
        {
          "name": "F#2",
          "midi": 42,
          "time": 127.12499999999747,
          "velocity": 1,
          "duration": 0.15000000000000568
        },
        {
          "name": "D2",
          "midi": 38,
          "time": 127.12499999999747,
          "velocity": 1,
          "duration": 0.29999999999999716
        },
        {
          "name": "F#3",
          "midi": 54,
          "time": 127.31249999999747,
          "velocity": 0.47244094488188976,
          "duration": 0.07500000000000284
        },
        {
          "name": "F#2",
          "midi": 42,
          "time": 127.31249999999747,
          "velocity": 1,
          "duration": 0.14999999999999147
        },
        {
          "name": "F#3",
          "midi": 54,
          "time": 127.40624999999747,
          "velocity": 0.47244094488188976,
          "duration": 0.07499999999998863
        },
        {
          "name": "F#3",
          "midi": 54,
          "time": 127.49999999999746,
          "velocity": 0.47244094488188976,
          "duration": 0.15000000000000568
        },
        {
          "name": "G2",
          "midi": 43,
          "time": 127.49999999999746,
          "velocity": 1,
          "duration": 0.15000000000000568
        },
        {
          "name": "F#2",
          "midi": 42,
          "time": 127.49999999999746,
          "velocity": 1,
          "duration": 0.15000000000000568
        },
        {
          "name": "C2",
          "midi": 36,
          "time": 127.49999999999746,
          "velocity": 1,
          "duration": 0.29999999999999716
        },
        {
          "name": "F#2",
          "midi": 42,
          "time": 127.68749999999746,
          "velocity": 1,
          "duration": 0.14999999999999147
        },
        {
          "name": "D3",
          "midi": 50,
          "time": 127.68749999999746,
          "velocity": 1,
          "duration": 0.14999999999999147
        },
        {
          "name": "F#3",
          "midi": 54,
          "time": 127.68749999999746,
          "velocity": 0.47244094488188976,
          "duration": 0.07500000000000284
        },
        {
          "name": "F#3",
          "midi": 54,
          "time": 127.78124999999746,
          "velocity": 0.47244094488188976,
          "duration": 0.07499999999998863
        },
        {
          "name": "F#3",
          "midi": 54,
          "time": 127.87499999999744,
          "velocity": 0.47244094488188976,
          "duration": 0.15000000000000568
        },
        {
          "name": "F#2",
          "midi": 42,
          "time": 127.87499999999744,
          "velocity": 1,
          "duration": 0.15000000000000568
        },
        {
          "name": "D3",
          "midi": 50,
          "time": 127.87499999999744,
          "velocity": 1,
          "duration": 0.15000000000000568
        },
        {
          "name": "D2",
          "midi": 38,
          "time": 127.87499999999744,
          "velocity": 1,
          "duration": 0.30000000000001137
        },
        {
          "name": "F#3",
          "midi": 54,
          "time": 128.06249999999744,
          "velocity": 0.47244094488188976,
          "duration": 0.07499999999998863
        },
        {
          "name": "F#2",
          "midi": 42,
          "time": 128.06249999999744,
          "velocity": 1,
          "duration": 0.15000000000000568
        },
        {
          "name": "C2",
          "midi": 36,
          "time": 128.06249999999744,
          "velocity": 1,
          "duration": 0.15000000000000568
        },
        {
          "name": "C3",
          "midi": 48,
          "time": 128.06249999999744,
          "velocity": 1,
          "duration": 0.15000000000000568
        },
        {
          "name": "F#3",
          "midi": 54,
          "time": 128.15624999999744,
          "velocity": 0.47244094488188976,
          "duration": 0.07500000000001705
        },
        {
          "name": "F#3",
          "midi": 54,
          "time": 128.24999999999747,
          "velocity": 0.47244094488188976,
          "duration": 0.15000000000000568
        },
        {
          "name": "G2",
          "midi": 43,
          "time": 128.24999999999747,
          "velocity": 1,
          "duration": 0.15000000000000568
        },
        {
          "name": "C2",
          "midi": 36,
          "time": 128.24999999999747,
          "velocity": 1,
          "duration": 0.15000000000000568
        },
        {
          "name": "F#2",
          "midi": 42,
          "time": 128.24999999999747,
          "velocity": 1,
          "duration": 0.15000000000000568
        },
        {
          "name": "F#3",
          "midi": 54,
          "time": 128.43749999999747,
          "velocity": 0.47244094488188976,
          "duration": 0.07499999999998863
        },
        {
          "name": "A3",
          "midi": 57,
          "time": 128.43749999999747,
          "velocity": 0.8661417322834646,
          "duration": 0.15000000000000568
        },
        {
          "name": "F#2",
          "midi": 42,
          "time": 128.43749999999747,
          "velocity": 1,
          "duration": 0.15000000000000568
        },
        {
          "name": "C2",
          "midi": 36,
          "time": 128.43749999999747,
          "velocity": 1,
          "duration": 0.4875000000000398
        },
        {
          "name": "F#3",
          "midi": 54,
          "time": 128.53124999999747,
          "velocity": 0.47244094488188976,
          "duration": 0.07500000000001705
        },
        {
          "name": "F#3",
          "midi": 54,
          "time": 128.6249999999975,
          "velocity": 0.47244094488188976,
          "duration": 0.15000000000000568
        },
        {
          "name": "A#2",
          "midi": 46,
          "time": 128.6249999999975,
          "velocity": 1,
          "duration": 0.3375000000000057
        },
        {
          "name": "F#3",
          "midi": 54,
          "time": 128.8124999999975,
          "velocity": 0.47244094488188976,
          "duration": 0.07499999999998863
        },
        {
          "name": "F#3",
          "midi": 54,
          "time": 128.9062499999975,
          "velocity": 0.47244094488188976,
          "duration": 0.07500000000001705
        },
        {
          "name": "F#2",
          "midi": 42,
          "time": 128.99999999999753,
          "velocity": 1,
          "duration": 0.15000000000000568
        },
        {
          "name": "F#3",
          "midi": 54,
          "time": 128.99999999999753,
          "velocity": 0.47244094488188976,
          "duration": 0.15000000000000568
        },
        {
          "name": "C2",
          "midi": 36,
          "time": 128.99999999999753,
          "velocity": 1,
          "duration": 0.30000000000001137
        },
        {
          "name": "F#3",
          "midi": 54,
          "time": 129.18749999999753,
          "velocity": 0.47244094488188976,
          "duration": 0.07499999999998863
        },
        {
          "name": "F#2",
          "midi": 42,
          "time": 129.18749999999753,
          "velocity": 1,
          "duration": 0.15000000000000568
        },
        {
          "name": "F#3",
          "midi": 54,
          "time": 129.28124999999753,
          "velocity": 0.47244094488188976,
          "duration": 0.07500000000001705
        },
        {
          "name": "F#3",
          "midi": 54,
          "time": 129.37499999999756,
          "velocity": 0.47244094488188976,
          "duration": 0.15000000000000568
        },
        {
          "name": "F#2",
          "midi": 42,
          "time": 129.37499999999756,
          "velocity": 1,
          "duration": 0.15000000000000568
        },
        {
          "name": "D2",
          "midi": 38,
          "time": 129.37499999999756,
          "velocity": 1,
          "duration": 0.30000000000001137
        },
        {
          "name": "F#3",
          "midi": 54,
          "time": 129.56249999999756,
          "velocity": 0.47244094488188976,
          "duration": 0.07499999999998863
        },
        {
          "name": "F#2",
          "midi": 42,
          "time": 129.56249999999756,
          "velocity": 1,
          "duration": 0.15000000000000568
        },
        {
          "name": "F#3",
          "midi": 54,
          "time": 129.65624999999756,
          "velocity": 0.47244094488188976,
          "duration": 0.07500000000001705
        },
        {
          "name": "F#3",
          "midi": 54,
          "time": 129.74999999999758,
          "velocity": 0.47244094488188976,
          "duration": 0.15000000000000568
        },
        {
          "name": "F#2",
          "midi": 42,
          "time": 129.74999999999758,
          "velocity": 1,
          "duration": 0.15000000000000568
        },
        {
          "name": "C2",
          "midi": 36,
          "time": 129.74999999999758,
          "velocity": 1,
          "duration": 0.30000000000001137
        },
        {
          "name": "F#2",
          "midi": 42,
          "time": 129.93749999999758,
          "velocity": 1,
          "duration": 0.15000000000000568
        },
        {
          "name": "F#3",
          "midi": 54,
          "time": 129.93749999999758,
          "velocity": 0.47244094488188976,
          "duration": 0.07499999999998863
        },
        {
          "name": "F#3",
          "midi": 54,
          "time": 130.03124999999758,
          "velocity": 0.47244094488188976,
          "duration": 0.07500000000001705
        },
        {
          "name": "F#3",
          "midi": 54,
          "time": 130.1249999999976,
          "velocity": 0.47244094488188976,
          "duration": 0.15000000000000568
        },
        {
          "name": "F#2",
          "midi": 42,
          "time": 130.1249999999976,
          "velocity": 1,
          "duration": 0.15000000000000568
        },
        {
          "name": "D2",
          "midi": 38,
          "time": 130.1249999999976,
          "velocity": 1,
          "duration": 0.30000000000001137
        },
        {
          "name": "F#3",
          "midi": 54,
          "time": 130.3124999999976,
          "velocity": 0.47244094488188976,
          "duration": 0.07499999999998863
        },
        {
          "name": "A#2",
          "midi": 46,
          "time": 130.3124999999976,
          "velocity": 1,
          "duration": 0.15000000000000568
        },
        {
          "name": "C2",
          "midi": 36,
          "time": 130.3124999999976,
          "velocity": 1,
          "duration": 0.15000000000000568
        },
        {
          "name": "F#3",
          "midi": 54,
          "time": 130.4062499999976,
          "velocity": 0.47244094488188976,
          "duration": 0.07500000000001705
        },
        {
          "name": "F#2",
          "midi": 42,
          "time": 130.49999999999764,
          "velocity": 1,
          "duration": 0.15000000000000568
        },
        {
          "name": "F#3",
          "midi": 54,
          "time": 130.49999999999764,
          "velocity": 0.47244094488188976,
          "duration": 0.15000000000000568
        },
        {
          "name": "C2",
          "midi": 36,
          "time": 130.49999999999764,
          "velocity": 1,
          "duration": 0.30000000000001137
        },
        {
          "name": "F#3",
          "midi": 54,
          "time": 130.68749999999764,
          "velocity": 0.47244094488188976,
          "duration": 0.07499999999998863
        },
        {
          "name": "F#2",
          "midi": 42,
          "time": 130.68749999999764,
          "velocity": 1,
          "duration": 0.15000000000000568
        },
        {
          "name": "F#3",
          "midi": 54,
          "time": 130.78124999999764,
          "velocity": 0.47244094488188976,
          "duration": 0.07500000000001705
        },
        {
          "name": "F#2",
          "midi": 42,
          "time": 130.87499999999767,
          "velocity": 1,
          "duration": 0.15000000000000568
        },
        {
          "name": "F#3",
          "midi": 54,
          "time": 130.87499999999767,
          "velocity": 0.47244094488188976,
          "duration": 0.15000000000000568
        },
        {
          "name": "D2",
          "midi": 38,
          "time": 130.87499999999767,
          "velocity": 1,
          "duration": 0.30000000000001137
        },
        {
          "name": "F#3",
          "midi": 54,
          "time": 131.06249999999767,
          "velocity": 0.47244094488188976,
          "duration": 0.07499999999998863
        },
        {
          "name": "F#2",
          "midi": 42,
          "time": 131.06249999999767,
          "velocity": 1,
          "duration": 0.15000000000000568
        },
        {
          "name": "F#3",
          "midi": 54,
          "time": 131.15624999999767,
          "velocity": 0.47244094488188976,
          "duration": 0.07500000000001705
        },
        {
          "name": "F#3",
          "midi": 54,
          "time": 131.2499999999977,
          "velocity": 0.47244094488188976,
          "duration": 0.15000000000000568
        },
        {
          "name": "F#2",
          "midi": 42,
          "time": 131.2499999999977,
          "velocity": 1,
          "duration": 0.15000000000000568
        },
        {
          "name": "C2",
          "midi": 36,
          "time": 131.2499999999977,
          "velocity": 1,
          "duration": 0.30000000000001137
        },
        {
          "name": "F#3",
          "midi": 54,
          "time": 131.4374999999977,
          "velocity": 0.47244094488188976,
          "duration": 0.07499999999998863
        },
        {
          "name": "F#2",
          "midi": 42,
          "time": 131.4374999999977,
          "velocity": 1,
          "duration": 0.15000000000000568
        },
        {
          "name": "F#3",
          "midi": 54,
          "time": 131.5312499999977,
          "velocity": 0.47244094488188976,
          "duration": 0.07500000000001705
        },
        {
          "name": "F#3",
          "midi": 54,
          "time": 131.62499999999773,
          "velocity": 0.47244094488188976,
          "duration": 0.15000000000000568
        },
        {
          "name": "F#2",
          "midi": 42,
          "time": 131.62499999999773,
          "velocity": 1,
          "duration": 0.15000000000000568
        },
        {
          "name": "D2",
          "midi": 38,
          "time": 131.62499999999773,
          "velocity": 1,
          "duration": 0.30000000000001137
        },
        {
          "name": "F#3",
          "midi": 54,
          "time": 131.81249999999773,
          "velocity": 0.47244094488188976,
          "duration": 0.07499999999998863
        },
        {
          "name": "A#2",
          "midi": 46,
          "time": 131.81249999999773,
          "velocity": 1,
          "duration": 0.15000000000000568
        },
        {
          "name": "C2",
          "midi": 36,
          "time": 131.81249999999773,
          "velocity": 1,
          "duration": 0.15000000000000568
        },
        {
          "name": "F#3",
          "midi": 54,
          "time": 131.90624999999773,
          "velocity": 0.47244094488188976,
          "duration": 0.07500000000001705
        },
        {
          "name": "F#2",
          "midi": 42,
          "time": 131.99999999999775,
          "velocity": 1,
          "duration": 0.15000000000000568
        },
        {
          "name": "F#3",
          "midi": 54,
          "time": 131.99999999999775,
          "velocity": 0.47244094488188976,
          "duration": 0.15000000000000568
        },
        {
          "name": "C2",
          "midi": 36,
          "time": 131.99999999999775,
          "velocity": 1,
          "duration": 0.30000000000001137
        },
        {
          "name": "F#3",
          "midi": 54,
          "time": 132.18749999999775,
          "velocity": 0.47244094488188976,
          "duration": 0.07499999999998863
        },
        {
          "name": "F#2",
          "midi": 42,
          "time": 132.18749999999775,
          "velocity": 1,
          "duration": 0.15000000000000568
        },
        {
          "name": "F#3",
          "midi": 54,
          "time": 132.28124999999775,
          "velocity": 0.47244094488188976,
          "duration": 0.07500000000001705
        },
        {
          "name": "F#3",
          "midi": 54,
          "time": 132.37499999999778,
          "velocity": 0.47244094488188976,
          "duration": 0.15000000000000568
        },
        {
          "name": "F#2",
          "midi": 42,
          "time": 132.37499999999778,
          "velocity": 1,
          "duration": 0.15000000000000568
        },
        {
          "name": "D2",
          "midi": 38,
          "time": 132.37499999999778,
          "velocity": 1,
          "duration": 0.30000000000001137
        },
        {
          "name": "F#3",
          "midi": 54,
          "time": 132.56249999999778,
          "velocity": 0.47244094488188976,
          "duration": 0.07499999999998863
        },
        {
          "name": "C2",
          "midi": 36,
          "time": 132.56249999999778,
          "velocity": 1,
          "duration": 0.15000000000000568
        },
        {
          "name": "F#2",
          "midi": 42,
          "time": 132.56249999999778,
          "velocity": 1,
          "duration": 0.15000000000000568
        },
        {
          "name": "F#3",
          "midi": 54,
          "time": 132.65624999999778,
          "velocity": 0.47244094488188976,
          "duration": 0.07500000000001705
        },
        {
          "name": "F#3",
          "midi": 54,
          "time": 132.7499999999978,
          "velocity": 0.47244094488188976,
          "duration": 0.15000000000000568
        },
        {
          "name": "F#2",
          "midi": 42,
          "time": 132.7499999999978,
          "velocity": 1,
          "duration": 0.15000000000000568
        },
        {
          "name": "C2",
          "midi": 36,
          "time": 132.7499999999978,
          "velocity": 1,
          "duration": 0.30000000000001137
        },
        {
          "name": "F#3",
          "midi": 54,
          "time": 132.9374999999978,
          "velocity": 0.47244094488188976,
          "duration": 0.07499999999998863
        },
        {
          "name": "D3",
          "midi": 50,
          "time": 132.9374999999978,
          "velocity": 1,
          "duration": 0.15000000000000568
        },
        {
          "name": "F#2",
          "midi": 42,
          "time": 132.9374999999978,
          "velocity": 1,
          "duration": 0.15000000000000568
        },
        {
          "name": "F#3",
          "midi": 54,
          "time": 133.0312499999978,
          "velocity": 0.47244094488188976,
          "duration": 0.07500000000001705
        },
        {
          "name": "F#2",
          "midi": 42,
          "time": 133.12499999999784,
          "velocity": 1,
          "duration": 0.15000000000000568
        },
        {
          "name": "F#3",
          "midi": 54,
          "time": 133.12499999999784,
          "velocity": 0.47244094488188976,
          "duration": 0.15000000000000568
        },
        {
          "name": "D3",
          "midi": 50,
          "time": 133.12499999999784,
          "velocity": 1,
          "duration": 0.15000000000000568
        },
        {
          "name": "D2",
          "midi": 38,
          "time": 133.12499999999784,
          "velocity": 1,
          "duration": 0.30000000000001137
        },
        {
          "name": "F#3",
          "midi": 54,
          "time": 133.31249999999784,
          "velocity": 0.47244094488188976,
          "duration": 0.07499999999998863
        },
        {
          "name": "F#2",
          "midi": 42,
          "time": 133.31249999999784,
          "velocity": 1,
          "duration": 0.15000000000000568
        },
        {
          "name": "D3",
          "midi": 50,
          "time": 133.31249999999784,
          "velocity": 1,
          "duration": 0.15000000000000568
        },
        {
          "name": "F#3",
          "midi": 54,
          "time": 133.40624999999784,
          "velocity": 0.47244094488188976,
          "duration": 0.07500000000001705
        },
        {
          "name": "F#3",
          "midi": 54,
          "time": 133.49999999999787,
          "velocity": 0.47244094488188976,
          "duration": 0.15000000000000568
        },
        {
          "name": "F#2",
          "midi": 42,
          "time": 133.49999999999787,
          "velocity": 1,
          "duration": 0.15000000000000568
        },
        {
          "name": "C2",
          "midi": 36,
          "time": 133.49999999999787,
          "velocity": 1,
          "duration": 0.30000000000001137
        },
        {
          "name": "C3",
          "midi": 48,
          "time": 133.68749999999787,
          "velocity": 1,
          "duration": 0.15000000000000568
        },
        {
          "name": "F#2",
          "midi": 42,
          "time": 133.68749999999787,
          "velocity": 1,
          "duration": 0.15000000000000568
        },
        {
          "name": "F#3",
          "midi": 54,
          "time": 133.68749999999787,
          "velocity": 0.47244094488188976,
          "duration": 0.07499999999998863
        },
        {
          "name": "F#3",
          "midi": 54,
          "time": 133.78124999999787,
          "velocity": 0.47244094488188976,
          "duration": 0.07500000000001705
        },
        {
          "name": "F#3",
          "midi": 54,
          "time": 133.8749999999979,
          "velocity": 0.47244094488188976,
          "duration": 0.15000000000000568
        },
        {
          "name": "B2",
          "midi": 47,
          "time": 133.8749999999979,
          "velocity": 1,
          "duration": 0.15000000000000568
        },
        {
          "name": "F#2",
          "midi": 42,
          "time": 133.8749999999979,
          "velocity": 1,
          "duration": 0.15000000000000568
        },
        {
          "name": "D2",
          "midi": 38,
          "time": 133.8749999999979,
          "velocity": 1,
          "duration": 0.30000000000001137
        },
        {
          "name": "F#3",
          "midi": 54,
          "time": 134.0624999999979,
          "velocity": 0.47244094488188976,
          "duration": 0.07499999999998863
        },
        {
          "name": "G2",
          "midi": 43,
          "time": 134.0624999999979,
          "velocity": 1,
          "duration": 0.15000000000000568
        },
        {
          "name": "C2",
          "midi": 36,
          "time": 134.0624999999979,
          "velocity": 1,
          "duration": 0.15000000000000568
        },
        {
          "name": "F#2",
          "midi": 42,
          "time": 134.0624999999979,
          "velocity": 1,
          "duration": 0.15000000000000568
        },
        {
          "name": "F#3",
          "midi": 54,
          "time": 134.1562499999979,
          "velocity": 0.47244094488188976,
          "duration": 0.07500000000001705
        },
        {
          "name": "F#3",
          "midi": 54,
          "time": 134.24999999999793,
          "velocity": 0.47244094488188976,
          "duration": 0.15000000000000568
        },
        {
          "name": "F#2",
          "midi": 42,
          "time": 134.24999999999793,
          "velocity": 1,
          "duration": 0.15000000000000568
        },
        {
          "name": "C2",
          "midi": 36,
          "time": 134.24999999999793,
          "velocity": 1,
          "duration": 0.15000000000000568
        },
        {
          "name": "F#3",
          "midi": 54,
          "time": 134.43749999999793,
          "velocity": 0.47244094488188976,
          "duration": 0.07499999999998863
        },
        {
          "name": "F#2",
          "midi": 42,
          "time": 134.43749999999793,
          "velocity": 1,
          "duration": 0.15000000000000568
        },
        {
          "name": "A3",
          "midi": 57,
          "time": 134.43749999999793,
          "velocity": 0.8661417322834646,
          "duration": 0.15000000000000568
        },
        {
          "name": "C2",
          "midi": 36,
          "time": 134.43749999999793,
          "velocity": 1,
          "duration": 0.4875000000000398
        },
        {
          "name": "F#3",
          "midi": 54,
          "time": 134.53124999999793,
          "velocity": 0.47244094488188976,
          "duration": 0.07500000000001705
        },
        {
          "name": "F#2",
          "midi": 42,
          "time": 134.62499999999795,
          "velocity": 0.6299212598425197,
          "duration": 0.15000000000000568
        },
        {
          "name": "F#3",
          "midi": 54,
          "time": 134.62499999999795,
          "velocity": 0.47244094488188976,
          "duration": 0.15000000000000568
        },
        {
          "name": "D2",
          "midi": 38,
          "time": 134.62499999999795,
          "velocity": 0.6299212598425197,
          "duration": 0.30000000000001137
        },
        {
          "name": "F#3",
          "midi": 54,
          "time": 134.81249999999795,
          "velocity": 0.47244094488188976,
          "duration": 0.07499999999998863
        },
        {
          "name": "F#3",
          "midi": 54,
          "time": 134.90624999999795,
          "velocity": 0.47244094488188976,
          "duration": 0.07500000000001705
        },
        {
          "name": "F#2",
          "midi": 42,
          "time": 134.99999999999798,
          "velocity": 1,
          "duration": 0.15000000000000568
        },
        {
          "name": "F#3",
          "midi": 54,
          "time": 134.99999999999798,
          "velocity": 0.47244094488188976,
          "duration": 0.15000000000000568
        },
        {
          "name": "C2",
          "midi": 36,
          "time": 134.99999999999798,
          "velocity": 1,
          "duration": 0.30000000000001137
        },
        {
          "name": "F#3",
          "midi": 54,
          "time": 135.18749999999798,
          "velocity": 0.47244094488188976,
          "duration": 0.07499999999998863
        },
        {
          "name": "F#2",
          "midi": 42,
          "time": 135.18749999999798,
          "velocity": 1,
          "duration": 0.15000000000000568
        },
        {
          "name": "F#3",
          "midi": 54,
          "time": 135.28124999999798,
          "velocity": 0.47244094488188976,
          "duration": 0.07500000000001705
        },
        {
          "name": "F#2",
          "midi": 42,
          "time": 135.374999999998,
          "velocity": 1,
          "duration": 0.15000000000000568
        },
        {
          "name": "F#3",
          "midi": 54,
          "time": 135.374999999998,
          "velocity": 0.47244094488188976,
          "duration": 0.15000000000000568
        },
        {
          "name": "D2",
          "midi": 38,
          "time": 135.374999999998,
          "velocity": 1,
          "duration": 0.30000000000001137
        },
        {
          "name": "F#3",
          "midi": 54,
          "time": 135.562499999998,
          "velocity": 0.47244094488188976,
          "duration": 0.07499999999998863
        },
        {
          "name": "F#2",
          "midi": 42,
          "time": 135.562499999998,
          "velocity": 1,
          "duration": 0.15000000000000568
        },
        {
          "name": "F#3",
          "midi": 54,
          "time": 135.656249999998,
          "velocity": 0.47244094488188976,
          "duration": 0.07500000000001705
        },
        {
          "name": "F#3",
          "midi": 54,
          "time": 135.74999999999804,
          "velocity": 0.47244094488188976,
          "duration": 0.15000000000000568
        },
        {
          "name": "F#2",
          "midi": 42,
          "time": 135.74999999999804,
          "velocity": 1,
          "duration": 0.15000000000000568
        },
        {
          "name": "C2",
          "midi": 36,
          "time": 135.74999999999804,
          "velocity": 1,
          "duration": 0.30000000000001137
        },
        {
          "name": "F#2",
          "midi": 42,
          "time": 135.93749999999804,
          "velocity": 1,
          "duration": 0.15000000000000568
        },
        {
          "name": "F#3",
          "midi": 54,
          "time": 135.93749999999804,
          "velocity": 0.47244094488188976,
          "duration": 0.07499999999998863
        },
        {
          "name": "F#3",
          "midi": 54,
          "time": 136.03124999999804,
          "velocity": 0.47244094488188976,
          "duration": 0.07500000000001705
        },
        {
          "name": "F#3",
          "midi": 54,
          "time": 136.12499999999807,
          "velocity": 0.47244094488188976,
          "duration": 0.15000000000000568
        },
        {
          "name": "F#2",
          "midi": 42,
          "time": 136.12499999999807,
          "velocity": 1,
          "duration": 0.15000000000000568
        },
        {
          "name": "D2",
          "midi": 38,
          "time": 136.12499999999807,
          "velocity": 1,
          "duration": 0.30000000000001137
        },
        {
          "name": "F#3",
          "midi": 54,
          "time": 136.31249999999807,
          "velocity": 0.47244094488188976,
          "duration": 0.07499999999998863
        },
        {
          "name": "C2",
          "midi": 36,
          "time": 136.31249999999807,
          "velocity": 1,
          "duration": 0.15000000000000568
        },
        {
          "name": "A#2",
          "midi": 46,
          "time": 136.31249999999807,
          "velocity": 1,
          "duration": 0.15000000000000568
        },
        {
          "name": "F#3",
          "midi": 54,
          "time": 136.40624999999807,
          "velocity": 0.47244094488188976,
          "duration": 0.07500000000001705
        },
        {
          "name": "F#3",
          "midi": 54,
          "time": 136.4999999999981,
          "velocity": 0.47244094488188976,
          "duration": 0.15000000000000568
        },
        {
          "name": "F#2",
          "midi": 42,
          "time": 136.4999999999981,
          "velocity": 1,
          "duration": 0.15000000000000568
        },
        {
          "name": "C2",
          "midi": 36,
          "time": 136.4999999999981,
          "velocity": 1,
          "duration": 0.30000000000001137
        },
        {
          "name": "F#3",
          "midi": 54,
          "time": 136.6874999999981,
          "velocity": 0.47244094488188976,
          "duration": 0.07499999999998863
        },
        {
          "name": "F#2",
          "midi": 42,
          "time": 136.6874999999981,
          "velocity": 1,
          "duration": 0.15000000000000568
        },
        {
          "name": "F#3",
          "midi": 54,
          "time": 136.7812499999981,
          "velocity": 0.47244094488188976,
          "duration": 0.07500000000001705
        },
        {
          "name": "F#2",
          "midi": 42,
          "time": 136.87499999999812,
          "velocity": 1,
          "duration": 0.15000000000000568
        },
        {
          "name": "F#3",
          "midi": 54,
          "time": 136.87499999999812,
          "velocity": 0.47244094488188976,
          "duration": 0.15000000000000568
        },
        {
          "name": "D2",
          "midi": 38,
          "time": 136.87499999999812,
          "velocity": 1,
          "duration": 0.30000000000001137
        },
        {
          "name": "F#2",
          "midi": 42,
          "time": 137.06249999999812,
          "velocity": 1,
          "duration": 0.15000000000000568
        },
        {
          "name": "F#3",
          "midi": 54,
          "time": 137.06249999999812,
          "velocity": 0.47244094488188976,
          "duration": 0.07499999999998863
        },
        {
          "name": "F#3",
          "midi": 54,
          "time": 137.15624999999812,
          "velocity": 0.47244094488188976,
          "duration": 0.07500000000001705
        },
        {
          "name": "F#3",
          "midi": 54,
          "time": 137.24999999999815,
          "velocity": 0.47244094488188976,
          "duration": 0.15000000000000568
        },
        {
          "name": "F#2",
          "midi": 42,
          "time": 137.24999999999815,
          "velocity": 1,
          "duration": 0.15000000000000568
        },
        {
          "name": "C2",
          "midi": 36,
          "time": 137.24999999999815,
          "velocity": 1,
          "duration": 0.30000000000001137
        },
        {
          "name": "F#3",
          "midi": 54,
          "time": 137.43749999999815,
          "velocity": 0.47244094488188976,
          "duration": 0.07499999999998863
        },
        {
          "name": "F#2",
          "midi": 42,
          "time": 137.43749999999815,
          "velocity": 1,
          "duration": 0.15000000000000568
        },
        {
          "name": "F#3",
          "midi": 54,
          "time": 137.53124999999815,
          "velocity": 0.47244094488188976,
          "duration": 0.07500000000001705
        },
        {
          "name": "F#2",
          "midi": 42,
          "time": 137.62499999999818,
          "velocity": 1,
          "duration": 0.15000000000000568
        },
        {
          "name": "F#3",
          "midi": 54,
          "time": 137.62499999999818,
          "velocity": 0.47244094488188976,
          "duration": 0.15000000000000568
        },
        {
          "name": "D2",
          "midi": 38,
          "time": 137.62499999999818,
          "velocity": 1,
          "duration": 0.30000000000001137
        },
        {
          "name": "F#3",
          "midi": 54,
          "time": 137.81249999999818,
          "velocity": 0.47244094488188976,
          "duration": 0.07499999999998863
        },
        {
          "name": "C2",
          "midi": 36,
          "time": 137.81249999999818,
          "velocity": 1,
          "duration": 0.15000000000000568
        },
        {
          "name": "A#2",
          "midi": 46,
          "time": 137.81249999999818,
          "velocity": 1,
          "duration": 0.15000000000000568
        },
        {
          "name": "F#3",
          "midi": 54,
          "time": 137.90624999999818,
          "velocity": 0.47244094488188976,
          "duration": 0.07500000000001705
        },
        {
          "name": "F#2",
          "midi": 42,
          "time": 137.9999999999982,
          "velocity": 1,
          "duration": 0.15000000000000568
        },
        {
          "name": "F#3",
          "midi": 54,
          "time": 137.9999999999982,
          "velocity": 0.47244094488188976,
          "duration": 0.15000000000000568
        },
        {
          "name": "C2",
          "midi": 36,
          "time": 137.9999999999982,
          "velocity": 1,
          "duration": 0.30000000000001137
        },
        {
          "name": "F#3",
          "midi": 54,
          "time": 138.1874999999982,
          "velocity": 0.47244094488188976,
          "duration": 0.07499999999998863
        },
        {
          "name": "F#2",
          "midi": 42,
          "time": 138.1874999999982,
          "velocity": 1,
          "duration": 0.15000000000000568
        },
        {
          "name": "F#3",
          "midi": 54,
          "time": 138.2812499999982,
          "velocity": 0.47244094488188976,
          "duration": 0.07500000000001705
        },
        {
          "name": "F#2",
          "midi": 42,
          "time": 138.37499999999824,
          "velocity": 1,
          "duration": 0.15000000000000568
        },
        {
          "name": "F#3",
          "midi": 54,
          "time": 138.37499999999824,
          "velocity": 0.47244094488188976,
          "duration": 0.15000000000000568
        },
        {
          "name": "D2",
          "midi": 38,
          "time": 138.37499999999824,
          "velocity": 1,
          "duration": 0.30000000000001137
        },
        {
          "name": "F#3",
          "midi": 54,
          "time": 138.56249999999824,
          "velocity": 0.47244094488188976,
          "duration": 0.07499999999998863
        },
        {
          "name": "C2",
          "midi": 36,
          "time": 138.56249999999824,
          "velocity": 1,
          "duration": 0.15000000000000568
        },
        {
          "name": "F#2",
          "midi": 42,
          "time": 138.56249999999824,
          "velocity": 1,
          "duration": 0.15000000000000568
        },
        {
          "name": "F#3",
          "midi": 54,
          "time": 138.65624999999824,
          "velocity": 0.47244094488188976,
          "duration": 0.07500000000001705
        },
        {
          "name": "F#3",
          "midi": 54,
          "time": 138.74999999999827,
          "velocity": 0.47244094488188976,
          "duration": 0.15000000000000568
        },
        {
          "name": "F#2",
          "midi": 42,
          "time": 138.74999999999827,
          "velocity": 1,
          "duration": 0.15000000000000568
        },
        {
          "name": "C2",
          "midi": 36,
          "time": 138.74999999999827,
          "velocity": 1,
          "duration": 0.30000000000001137
        },
        {
          "name": "F#3",
          "midi": 54,
          "time": 138.93749999999827,
          "velocity": 0.47244094488188976,
          "duration": 0.07499999999998863
        },
        {
          "name": "F#2",
          "midi": 42,
          "time": 138.93749999999827,
          "velocity": 1,
          "duration": 0.15000000000000568
        },
        {
          "name": "F#3",
          "midi": 54,
          "time": 139.03124999999827,
          "velocity": 0.47244094488188976,
          "duration": 0.07500000000001705
        },
        {
          "name": "F#2",
          "midi": 42,
          "time": 139.1249999999983,
          "velocity": 1,
          "duration": 0.15000000000000568
        },
        {
          "name": "F#3",
          "midi": 54,
          "time": 139.1249999999983,
          "velocity": 0.47244094488188976,
          "duration": 0.15000000000000568
        },
        {
          "name": "D2",
          "midi": 38,
          "time": 139.1249999999983,
          "velocity": 1,
          "duration": 0.30000000000001137
        },
        {
          "name": "F#3",
          "midi": 54,
          "time": 139.3124999999983,
          "velocity": 0.47244094488188976,
          "duration": 0.07499999999998863
        },
        {
          "name": "F#2",
          "midi": 42,
          "time": 139.3124999999983,
          "velocity": 1,
          "duration": 0.15000000000000568
        },
        {
          "name": "F#3",
          "midi": 54,
          "time": 139.4062499999983,
          "velocity": 0.47244094488188976,
          "duration": 0.07500000000001705
        },
        {
          "name": "F#3",
          "midi": 54,
          "time": 139.49999999999832,
          "velocity": 0.47244094488188976,
          "duration": 0.15000000000000568
        },
        {
          "name": "F#2",
          "midi": 42,
          "time": 139.49999999999832,
          "velocity": 1,
          "duration": 0.15000000000000568
        },
        {
          "name": "G2",
          "midi": 43,
          "time": 139.49999999999832,
          "velocity": 1,
          "duration": 0.15000000000000568
        },
        {
          "name": "C2",
          "midi": 36,
          "time": 139.49999999999832,
          "velocity": 1,
          "duration": 0.30000000000001137
        },
        {
          "name": "F#2",
          "midi": 42,
          "time": 139.68749999999832,
          "velocity": 1,
          "duration": 0.15000000000000568
        },
        {
          "name": "D3",
          "midi": 50,
          "time": 139.68749999999832,
          "velocity": 1,
          "duration": 0.15000000000000568
        },
        {
          "name": "F#3",
          "midi": 54,
          "time": 139.68749999999832,
          "velocity": 0.47244094488188976,
          "duration": 0.07499999999998863
        },
        {
          "name": "F#3",
          "midi": 54,
          "time": 139.78124999999832,
          "velocity": 0.47244094488188976,
          "duration": 0.07500000000001705
        },
        {
          "name": "F#3",
          "midi": 54,
          "time": 139.87499999999835,
          "velocity": 0.47244094488188976,
          "duration": 0.15000000000000568
        },
        {
          "name": "D3",
          "midi": 50,
          "time": 139.87499999999835,
          "velocity": 1,
          "duration": 0.15000000000000568
        },
        {
          "name": "F#2",
          "midi": 42,
          "time": 139.87499999999835,
          "velocity": 1,
          "duration": 0.15000000000000568
        },
        {
          "name": "D2",
          "midi": 38,
          "time": 139.87499999999835,
          "velocity": 1,
          "duration": 0.30000000000001137
        },
        {
          "name": "F#3",
          "midi": 54,
          "time": 140.06249999999835,
          "velocity": 0.47244094488188976,
          "duration": 0.07499999999998863
        },
        {
          "name": "C3",
          "midi": 48,
          "time": 140.06249999999835,
          "velocity": 1,
          "duration": 0.15000000000000568
        },
        {
          "name": "F#2",
          "midi": 42,
          "time": 140.06249999999835,
          "velocity": 1,
          "duration": 0.15000000000000568
        },
        {
          "name": "C2",
          "midi": 36,
          "time": 140.06249999999835,
          "velocity": 1,
          "duration": 0.15000000000000568
        },
        {
          "name": "F#3",
          "midi": 54,
          "time": 140.15624999999835,
          "velocity": 0.47244094488188976,
          "duration": 0.07500000000001705
        },
        {
          "name": "F#3",
          "midi": 54,
          "time": 140.24999999999838,
          "velocity": 0.47244094488188976,
          "duration": 0.15000000000000568
        },
        {
          "name": "C2",
          "midi": 36,
          "time": 140.24999999999838,
          "velocity": 1,
          "duration": 0.15000000000000568
        },
        {
          "name": "G2",
          "midi": 43,
          "time": 140.24999999999838,
          "velocity": 1,
          "duration": 0.15000000000000568
        },
        {
          "name": "F#2",
          "midi": 42,
          "time": 140.24999999999838,
          "velocity": 1,
          "duration": 0.15000000000000568
        },
        {
          "name": "F#3",
          "midi": 54,
          "time": 140.43749999999838,
          "velocity": 0.47244094488188976,
          "duration": 0.07499999999998863
        },
        {
          "name": "A3",
          "midi": 57,
          "time": 140.43749999999838,
          "velocity": 0.8661417322834646,
          "duration": 0.15000000000000568
        },
        {
          "name": "F#2",
          "midi": 42,
          "time": 140.43749999999838,
          "velocity": 1,
          "duration": 0.15000000000000568
        },
        {
          "name": "C2",
          "midi": 36,
          "time": 140.43749999999838,
          "velocity": 1,
          "duration": 0.4875000000000398
        },
        {
          "name": "F#3",
          "midi": 54,
          "time": 140.53124999999838,
          "velocity": 0.47244094488188976,
          "duration": 0.07500000000001705
        },
        {
          "name": "F#3",
          "midi": 54,
          "time": 140.6249999999984,
          "velocity": 0.47244094488188976,
          "duration": 0.15000000000000568
        },
        {
          "name": "A#2",
          "midi": 46,
          "time": 140.6249999999984,
          "velocity": 1,
          "duration": 0.3375000000000057
        },
        {
          "name": "F#3",
          "midi": 54,
          "time": 140.8124999999984,
          "velocity": 0.47244094488188976,
          "duration": 0.07499999999998863
        },
        {
          "name": "F#3",
          "midi": 54,
          "time": 140.9062499999984,
          "velocity": 0.47244094488188976,
          "duration": 0.07500000000001705
        },
        {
          "name": "F#2",
          "midi": 42,
          "time": 140.99999999999844,
          "velocity": 1,
          "duration": 0.15000000000000568
        },
        {
          "name": "F#3",
          "midi": 54,
          "time": 140.99999999999844,
          "velocity": 0.47244094488188976,
          "duration": 0.15000000000000568
        },
        {
          "name": "C2",
          "midi": 36,
          "time": 140.99999999999844,
          "velocity": 1,
          "duration": 0.30000000000001137
        },
        {
          "name": "F#2",
          "midi": 42,
          "time": 141.18749999999844,
          "velocity": 1,
          "duration": 0.15000000000000568
        },
        {
          "name": "F#3",
          "midi": 54,
          "time": 141.18749999999844,
          "velocity": 0.47244094488188976,
          "duration": 0.07499999999998863
        },
        {
          "name": "F#3",
          "midi": 54,
          "time": 141.28124999999844,
          "velocity": 0.47244094488188976,
          "duration": 0.07500000000001705
        },
        {
          "name": "F#2",
          "midi": 42,
          "time": 141.37499999999847,
          "velocity": 1,
          "duration": 0.15000000000000568
        },
        {
          "name": "F#3",
          "midi": 54,
          "time": 141.37499999999847,
          "velocity": 0.47244094488188976,
          "duration": 0.15000000000000568
        },
        {
          "name": "D2",
          "midi": 38,
          "time": 141.37499999999847,
          "velocity": 1,
          "duration": 0.30000000000001137
        },
        {
          "name": "F#2",
          "midi": 42,
          "time": 141.56249999999847,
          "velocity": 1,
          "duration": 0.15000000000000568
        },
        {
          "name": "F#3",
          "midi": 54,
          "time": 141.56249999999847,
          "velocity": 0.47244094488188976,
          "duration": 0.07499999999998863
        },
        {
          "name": "F#3",
          "midi": 54,
          "time": 141.65624999999847,
          "velocity": 0.47244094488188976,
          "duration": 0.07500000000001705
        },
        {
          "name": "F#2",
          "midi": 42,
          "time": 141.7499999999985,
          "velocity": 1,
          "duration": 0.15000000000000568
        },
        {
          "name": "F#3",
          "midi": 54,
          "time": 141.7499999999985,
          "velocity": 0.47244094488188976,
          "duration": 0.15000000000000568
        },
        {
          "name": "C2",
          "midi": 36,
          "time": 141.7499999999985,
          "velocity": 1,
          "duration": 0.30000000000001137
        },
        {
          "name": "F#2",
          "midi": 42,
          "time": 141.9374999999985,
          "velocity": 1,
          "duration": 0.15000000000000568
        },
        {
          "name": "F#3",
          "midi": 54,
          "time": 141.9374999999985,
          "velocity": 0.47244094488188976,
          "duration": 0.07499999999998863
        },
        {
          "name": "F#3",
          "midi": 54,
          "time": 142.0312499999985,
          "velocity": 0.47244094488188976,
          "duration": 0.07500000000001705
        },
        {
          "name": "F#2",
          "midi": 42,
          "time": 142.12499999999852,
          "velocity": 1,
          "duration": 0.15000000000000568
        },
        {
          "name": "F#3",
          "midi": 54,
          "time": 142.12499999999852,
          "velocity": 0.47244094488188976,
          "duration": 0.15000000000000568
        },
        {
          "name": "D2",
          "midi": 38,
          "time": 142.12499999999852,
          "velocity": 1,
          "duration": 0.30000000000001137
        },
        {
          "name": "F#3",
          "midi": 54,
          "time": 142.31249999999852,
          "velocity": 0.47244094488188976,
          "duration": 0.07499999999998863
        },
        {
          "name": "C2",
          "midi": 36,
          "time": 142.31249999999852,
          "velocity": 1,
          "duration": 0.15000000000000568
        },
        {
          "name": "A#2",
          "midi": 46,
          "time": 142.31249999999852,
          "velocity": 1,
          "duration": 0.15000000000000568
        },
        {
          "name": "F#3",
          "midi": 54,
          "time": 142.40624999999852,
          "velocity": 0.47244094488188976,
          "duration": 0.07500000000001705
        },
        {
          "name": "F#2",
          "midi": 42,
          "time": 142.49999999999855,
          "velocity": 1,
          "duration": 0.15000000000000568
        },
        {
          "name": "F#3",
          "midi": 54,
          "time": 142.49999999999855,
          "velocity": 0.47244094488188976,
          "duration": 0.15000000000000568
        },
        {
          "name": "C2",
          "midi": 36,
          "time": 142.49999999999855,
          "velocity": 1,
          "duration": 0.30000000000001137
        },
        {
          "name": "F#2",
          "midi": 42,
          "time": 142.68749999999855,
          "velocity": 1,
          "duration": 0.15000000000000568
        },
        {
          "name": "F#3",
          "midi": 54,
          "time": 142.68749999999855,
          "velocity": 0.47244094488188976,
          "duration": 0.07499999999998863
        },
        {
          "name": "F#3",
          "midi": 54,
          "time": 142.78124999999855,
          "velocity": 0.47244094488188976,
          "duration": 0.07500000000001705
        },
        {
          "name": "F#2",
          "midi": 42,
          "time": 142.87499999999858,
          "velocity": 1,
          "duration": 0.15000000000000568
        },
        {
          "name": "F#3",
          "midi": 54,
          "time": 142.87499999999858,
          "velocity": 0.47244094488188976,
          "duration": 0.15000000000000568
        },
        {
          "name": "D2",
          "midi": 38,
          "time": 142.87499999999858,
          "velocity": 1,
          "duration": 0.30000000000001137
        },
        {
          "name": "F#2",
          "midi": 42,
          "time": 143.06249999999858,
          "velocity": 1,
          "duration": 0.15000000000000568
        },
        {
          "name": "F#3",
          "midi": 54,
          "time": 143.06249999999858,
          "velocity": 0.47244094488188976,
          "duration": 0.07499999999998863
        },
        {
          "name": "F#3",
          "midi": 54,
          "time": 143.15624999999858,
          "velocity": 0.47244094488188976,
          "duration": 0.07500000000001705
        },
        {
          "name": "F#2",
          "midi": 42,
          "time": 143.2499999999986,
          "velocity": 1,
          "duration": 0.15000000000000568
        },
        {
          "name": "F#3",
          "midi": 54,
          "time": 143.2499999999986,
          "velocity": 0.47244094488188976,
          "duration": 0.15000000000000568
        },
        {
          "name": "C2",
          "midi": 36,
          "time": 143.2499999999986,
          "velocity": 1,
          "duration": 0.30000000000001137
        },
        {
          "name": "F#3",
          "midi": 54,
          "time": 143.4374999999986,
          "velocity": 0.47244094488188976,
          "duration": 0.07499999999998863
        },
        {
          "name": "F#2",
          "midi": 42,
          "time": 143.4374999999986,
          "velocity": 1,
          "duration": 0.15000000000000568
        },
        {
          "name": "F#3",
          "midi": 54,
          "time": 143.5312499999986,
          "velocity": 0.47244094488188976,
          "duration": 0.07500000000001705
        },
        {
          "name": "F#2",
          "midi": 42,
          "time": 143.62499999999864,
          "velocity": 1,
          "duration": 0.15000000000000568
        },
        {
          "name": "F#3",
          "midi": 54,
          "time": 143.62499999999864,
          "velocity": 0.47244094488188976,
          "duration": 0.15000000000000568
        },
        {
          "name": "D2",
          "midi": 38,
          "time": 143.62499999999864,
          "velocity": 1,
          "duration": 0.30000000000001137
        },
        {
          "name": "F#3",
          "midi": 54,
          "time": 143.81249999999864,
          "velocity": 0.47244094488188976,
          "duration": 0.07499999999998863
        },
        {
          "name": "A#2",
          "midi": 46,
          "time": 143.81249999999864,
          "velocity": 1,
          "duration": 0.15000000000000568
        },
        {
          "name": "C2",
          "midi": 36,
          "time": 143.81249999999864,
          "velocity": 1,
          "duration": 0.15000000000000568
        },
        {
          "name": "F#3",
          "midi": 54,
          "time": 143.90624999999864,
          "velocity": 0.47244094488188976,
          "duration": 0.07500000000001705
        },
        {
          "name": "F#2",
          "midi": 42,
          "time": 143.99999999999866,
          "velocity": 1,
          "duration": 0.15000000000000568
        },
        {
          "name": "F#3",
          "midi": 54,
          "time": 143.99999999999866,
          "velocity": 0.47244094488188976,
          "duration": 0.15000000000000568
        },
        {
          "name": "C2",
          "midi": 36,
          "time": 143.99999999999866,
          "velocity": 1,
          "duration": 0.30000000000001137
        },
        {
          "name": "F#3",
          "midi": 54,
          "time": 144.18749999999866,
          "velocity": 0.47244094488188976,
          "duration": 0.07499999999998863
        },
        {
          "name": "F#2",
          "midi": 42,
          "time": 144.18749999999866,
          "velocity": 1,
          "duration": 0.15000000000000568
        },
        {
          "name": "F#3",
          "midi": 54,
          "time": 144.28124999999866,
          "velocity": 0.47244094488188976,
          "duration": 0.07500000000001705
        },
        {
          "name": "F#2",
          "midi": 42,
          "time": 144.3749999999987,
          "velocity": 1,
          "duration": 0.15000000000000568
        },
        {
          "name": "F#3",
          "midi": 54,
          "time": 144.3749999999987,
          "velocity": 0.47244094488188976,
          "duration": 0.15000000000000568
        },
        {
          "name": "D2",
          "midi": 38,
          "time": 144.3749999999987,
          "velocity": 1,
          "duration": 0.30000000000001137
        },
        {
          "name": "F#2",
          "midi": 42,
          "time": 144.5624999999987,
          "velocity": 1,
          "duration": 0.15000000000000568
        },
        {
          "name": "C2",
          "midi": 36,
          "time": 144.5624999999987,
          "velocity": 1,
          "duration": 0.15000000000000568
        },
        {
          "name": "F#3",
          "midi": 54,
          "time": 144.5624999999987,
          "velocity": 0.47244094488188976,
          "duration": 0.07499999999998863
        },
        {
          "name": "F#3",
          "midi": 54,
          "time": 144.6562499999987,
          "velocity": 0.47244094488188976,
          "duration": 0.07500000000001705
        },
        {
          "name": "F#3",
          "midi": 54,
          "time": 144.74999999999872,
          "velocity": 0.47244094488188976,
          "duration": 0.15000000000000568
        },
        {
          "name": "F#2",
          "midi": 42,
          "time": 144.74999999999872,
          "velocity": 1,
          "duration": 0.15000000000000568
        },
        {
          "name": "C2",
          "midi": 36,
          "time": 144.74999999999872,
          "velocity": 1,
          "duration": 0.30000000000001137
        },
        {
          "name": "F#3",
          "midi": 54,
          "time": 144.93749999999872,
          "velocity": 0.47244094488188976,
          "duration": 0.07499999999998863
        },
        {
          "name": "D3",
          "midi": 50,
          "time": 144.93749999999872,
          "velocity": 1,
          "duration": 0.15000000000000568
        },
        {
          "name": "F#2",
          "midi": 42,
          "time": 144.93749999999872,
          "velocity": 1,
          "duration": 0.15000000000000568
        },
        {
          "name": "F#3",
          "midi": 54,
          "time": 145.03124999999872,
          "velocity": 0.47244094488188976,
          "duration": 0.07500000000001705
        },
        {
          "name": "D3",
          "midi": 50,
          "time": 145.12499999999875,
          "velocity": 1,
          "duration": 0.15000000000000568
        },
        {
          "name": "F#3",
          "midi": 54,
          "time": 145.12499999999875,
          "velocity": 0.47244094488188976,
          "duration": 0.15000000000000568
        },
        {
          "name": "F#2",
          "midi": 42,
          "time": 145.12499999999875,
          "velocity": 1,
          "duration": 0.15000000000000568
        },
        {
          "name": "D2",
          "midi": 38,
          "time": 145.12499999999875,
          "velocity": 1,
          "duration": 0.30000000000001137
        },
        {
          "name": "F#3",
          "midi": 54,
          "time": 145.31249999999875,
          "velocity": 0.47244094488188976,
          "duration": 0.07499999999998863
        },
        {
          "name": "F#2",
          "midi": 42,
          "time": 145.31249999999875,
          "velocity": 1,
          "duration": 0.15000000000000568
        },
        {
          "name": "D3",
          "midi": 50,
          "time": 145.31249999999875,
          "velocity": 1,
          "duration": 0.15000000000000568
        },
        {
          "name": "F#3",
          "midi": 54,
          "time": 145.40624999999875,
          "velocity": 0.47244094488188976,
          "duration": 0.07500000000001705
        },
        {
          "name": "F#3",
          "midi": 54,
          "time": 145.49999999999878,
          "velocity": 0.47244094488188976,
          "duration": 0.15000000000000568
        },
        {
          "name": "F#2",
          "midi": 42,
          "time": 145.49999999999878,
          "velocity": 1,
          "duration": 0.15000000000000568
        },
        {
          "name": "C2",
          "midi": 36,
          "time": 145.49999999999878,
          "velocity": 1,
          "duration": 0.30000000000001137
        },
        {
          "name": "F#2",
          "midi": 42,
          "time": 145.68749999999878,
          "velocity": 1,
          "duration": 0.15000000000000568
        },
        {
          "name": "C3",
          "midi": 48,
          "time": 145.68749999999878,
          "velocity": 1,
          "duration": 0.15000000000000568
        },
        {
          "name": "F#3",
          "midi": 54,
          "time": 145.68749999999878,
          "velocity": 0.47244094488188976,
          "duration": 0.07499999999998863
        },
        {
          "name": "F#3",
          "midi": 54,
          "time": 145.78124999999878,
          "velocity": 0.47244094488188976,
          "duration": 0.07500000000001705
        },
        {
          "name": "B2",
          "midi": 47,
          "time": 145.8749999999988,
          "velocity": 1,
          "duration": 0.15000000000000568
        },
        {
          "name": "F#2",
          "midi": 42,
          "time": 145.8749999999988,
          "velocity": 1,
          "duration": 0.15000000000000568
        },
        {
          "name": "F#3",
          "midi": 54,
          "time": 145.8749999999988,
          "velocity": 0.47244094488188976,
          "duration": 0.15000000000000568
        },
        {
          "name": "D2",
          "midi": 38,
          "time": 145.8749999999988,
          "velocity": 1,
          "duration": 0.30000000000001137
        },
        {
          "name": "G2",
          "midi": 43,
          "time": 146.0624999999988,
          "velocity": 1,
          "duration": 0.15000000000000568
        },
        {
          "name": "F#3",
          "midi": 54,
          "time": 146.0624999999988,
          "velocity": 0.47244094488188976,
          "duration": 0.07499999999998863
        },
        {
          "name": "F#2",
          "midi": 42,
          "time": 146.0624999999988,
          "velocity": 1,
          "duration": 0.15000000000000568
        },
        {
          "name": "C2",
          "midi": 36,
          "time": 146.0624999999988,
          "velocity": 1,
          "duration": 0.15000000000000568
        },
        {
          "name": "F#3",
          "midi": 54,
          "time": 146.1562499999988,
          "velocity": 0.47244094488188976,
          "duration": 0.07500000000001705
        },
        {
          "name": "F#2",
          "midi": 42,
          "time": 146.24999999999883,
          "velocity": 1,
          "duration": 0.15000000000000568
        },
        {
          "name": "F#3",
          "midi": 54,
          "time": 146.24999999999883,
          "velocity": 0.47244094488188976,
          "duration": 0.15000000000000568
        },
        {
          "name": "C2",
          "midi": 36,
          "time": 146.24999999999883,
          "velocity": 1,
          "duration": 0.15000000000000568
        },
        {
          "name": "F#3",
          "midi": 54,
          "time": 146.43749999999883,
          "velocity": 0.47244094488188976,
          "duration": 0.07499999999998863
        },
        {
          "name": "F#2",
          "midi": 42,
          "time": 146.43749999999883,
          "velocity": 1,
          "duration": 0.15000000000000568
        },
        {
          "name": "A3",
          "midi": 57,
          "time": 146.43749999999883,
          "velocity": 0.8661417322834646,
          "duration": 0.15000000000000568
        },
        {
          "name": "C2",
          "midi": 36,
          "time": 146.43749999999883,
          "velocity": 1,
          "duration": 0.4875000000000398
        },
        {
          "name": "F#3",
          "midi": 54,
          "time": 146.53124999999883,
          "velocity": 0.47244094488188976,
          "duration": 0.07500000000001705
        },
        {
          "name": "F#2",
          "midi": 42,
          "time": 146.62499999999886,
          "velocity": 0.6299212598425197,
          "duration": 0.15000000000000568
        },
        {
          "name": "F#3",
          "midi": 54,
          "time": 146.62499999999886,
          "velocity": 0.47244094488188976,
          "duration": 0.15000000000000568
        },
        {
          "name": "D2",
          "midi": 38,
          "time": 146.62499999999886,
          "velocity": 0.6299212598425197,
          "duration": 0.30000000000001137
        },
        {
          "name": "F#3",
          "midi": 54,
          "time": 146.81249999999886,
          "velocity": 0.47244094488188976,
          "duration": 0.07499999999998863
        },
        {
          "name": "F#3",
          "midi": 54,
          "time": 146.90624999999886,
          "velocity": 0.47244094488188976,
          "duration": 0.07500000000001705
        },
        {
          "name": "F#2",
          "midi": 42,
          "time": 146.9999999999989,
          "velocity": 1,
          "duration": 0.15000000000000568
        },
        {
          "name": "F#3",
          "midi": 54,
          "time": 146.9999999999989,
          "velocity": 0.47244094488188976,
          "duration": 0.15000000000000568
        },
        {
          "name": "C2",
          "midi": 36,
          "time": 146.9999999999989,
          "velocity": 1,
          "duration": 0.30000000000001137
        },
        {
          "name": "F#2",
          "midi": 42,
          "time": 147.1874999999989,
          "velocity": 1,
          "duration": 0.15000000000000568
        },
        {
          "name": "F#3",
          "midi": 54,
          "time": 147.1874999999989,
          "velocity": 0.47244094488188976,
          "duration": 0.07499999999998863
        },
        {
          "name": "F#3",
          "midi": 54,
          "time": 147.2812499999989,
          "velocity": 0.47244094488188976,
          "duration": 0.07500000000001705
        },
        {
          "name": "F#3",
          "midi": 54,
          "time": 147.37499999999892,
          "velocity": 0.47244094488188976,
          "duration": 0.15000000000000568
        },
        {
          "name": "F#2",
          "midi": 42,
          "time": 147.37499999999892,
          "velocity": 1,
          "duration": 0.15000000000000568
        },
        {
          "name": "D2",
          "midi": 38,
          "time": 147.37499999999892,
          "velocity": 1,
          "duration": 0.30000000000001137
        },
        {
          "name": "F#2",
          "midi": 42,
          "time": 147.56249999999892,
          "velocity": 1,
          "duration": 0.15000000000000568
        },
        {
          "name": "F#3",
          "midi": 54,
          "time": 147.56249999999892,
          "velocity": 0.47244094488188976,
          "duration": 0.07499999999998863
        },
        {
          "name": "F#3",
          "midi": 54,
          "time": 147.65624999999892,
          "velocity": 0.47244094488188976,
          "duration": 0.07500000000001705
        },
        {
          "name": "F#3",
          "midi": 54,
          "time": 147.74999999999895,
          "velocity": 0.47244094488188976,
          "duration": 0.15000000000000568
        },
        {
          "name": "F#2",
          "midi": 42,
          "time": 147.74999999999895,
          "velocity": 1,
          "duration": 0.15000000000000568
        },
        {
          "name": "C2",
          "midi": 36,
          "time": 147.74999999999895,
          "velocity": 1,
          "duration": 0.30000000000001137
        },
        {
          "name": "F#2",
          "midi": 42,
          "time": 147.93749999999895,
          "velocity": 1,
          "duration": 0.15000000000000568
        },
        {
          "name": "F#3",
          "midi": 54,
          "time": 147.93749999999895,
          "velocity": 0.47244094488188976,
          "duration": 0.07499999999998863
        },
        {
          "name": "F#3",
          "midi": 54,
          "time": 148.03124999999895,
          "velocity": 0.47244094488188976,
          "duration": 0.07500000000001705
        },
        {
          "name": "F#2",
          "midi": 42,
          "time": 148.12499999999898,
          "velocity": 1,
          "duration": 0.15000000000000568
        },
        {
          "name": "F#3",
          "midi": 54,
          "time": 148.12499999999898,
          "velocity": 0.47244094488188976,
          "duration": 0.15000000000000568
        },
        {
          "name": "D2",
          "midi": 38,
          "time": 148.12499999999898,
          "velocity": 1,
          "duration": 0.30000000000001137
        },
        {
          "name": "F#3",
          "midi": 54,
          "time": 148.31249999999898,
          "velocity": 0.47244094488188976,
          "duration": 0.07499999999998863
        },
        {
          "name": "C2",
          "midi": 36,
          "time": 148.31249999999898,
          "velocity": 1,
          "duration": 0.15000000000000568
        },
        {
          "name": "A#2",
          "midi": 46,
          "time": 148.31249999999898,
          "velocity": 1,
          "duration": 0.15000000000000568
        },
        {
          "name": "F#3",
          "midi": 54,
          "time": 148.40624999999898,
          "velocity": 0.47244094488188976,
          "duration": 0.07500000000001705
        },
        {
          "name": "F#3",
          "midi": 54,
          "time": 148.499999999999,
          "velocity": 0.47244094488188976,
          "duration": 0.15000000000000568
        },
        {
          "name": "F#2",
          "midi": 42,
          "time": 148.499999999999,
          "velocity": 1,
          "duration": 0.15000000000000568
        },
        {
          "name": "C2",
          "midi": 36,
          "time": 148.499999999999,
          "velocity": 1,
          "duration": 0.30000000000001137
        },
        {
          "name": "F#3",
          "midi": 54,
          "time": 148.687499999999,
          "velocity": 0.47244094488188976,
          "duration": 0.07499999999998863
        },
        {
          "name": "F#2",
          "midi": 42,
          "time": 148.687499999999,
          "velocity": 1,
          "duration": 0.15000000000000568
        },
        {
          "name": "F#3",
          "midi": 54,
          "time": 148.781249999999,
          "velocity": 0.47244094488188976,
          "duration": 0.07500000000001705
        },
        {
          "name": "F#2",
          "midi": 42,
          "time": 148.87499999999903,
          "velocity": 1,
          "duration": 0.15000000000000568
        },
        {
          "name": "F#3",
          "midi": 54,
          "time": 148.87499999999903,
          "velocity": 0.47244094488188976,
          "duration": 0.15000000000000568
        },
        {
          "name": "D2",
          "midi": 38,
          "time": 148.87499999999903,
          "velocity": 1,
          "duration": 0.30000000000001137
        },
        {
          "name": "F#2",
          "midi": 42,
          "time": 149.06249999999903,
          "velocity": 1,
          "duration": 0.15000000000000568
        },
        {
          "name": "F#3",
          "midi": 54,
          "time": 149.06249999999903,
          "velocity": 0.47244094488188976,
          "duration": 0.07499999999998863
        },
        {
          "name": "F#3",
          "midi": 54,
          "time": 149.15624999999903,
          "velocity": 0.47244094488188976,
          "duration": 0.07500000000001705
        },
        {
          "name": "F#2",
          "midi": 42,
          "time": 149.24999999999906,
          "velocity": 1,
          "duration": 0.15000000000000568
        },
        {
          "name": "F#3",
          "midi": 54,
          "time": 149.24999999999906,
          "velocity": 0.47244094488188976,
          "duration": 0.15000000000000568
        },
        {
          "name": "C2",
          "midi": 36,
          "time": 149.24999999999906,
          "velocity": 1,
          "duration": 0.30000000000001137
        },
        {
          "name": "F#3",
          "midi": 54,
          "time": 149.43749999999906,
          "velocity": 0.47244094488188976,
          "duration": 0.07499999999998863
        },
        {
          "name": "F#2",
          "midi": 42,
          "time": 149.43749999999906,
          "velocity": 1,
          "duration": 0.15000000000000568
        },
        {
          "name": "F#3",
          "midi": 54,
          "time": 149.53124999999906,
          "velocity": 0.47244094488188976,
          "duration": 0.07500000000001705
        },
        {
          "name": "F#3",
          "midi": 54,
          "time": 149.6249999999991,
          "velocity": 0.47244094488188976,
          "duration": 0.15000000000000568
        },
        {
          "name": "F#2",
          "midi": 42,
          "time": 149.6249999999991,
          "velocity": 1,
          "duration": 0.15000000000000568
        },
        {
          "name": "D2",
          "midi": 38,
          "time": 149.6249999999991,
          "velocity": 1,
          "duration": 0.30000000000001137
        },
        {
          "name": "F#3",
          "midi": 54,
          "time": 149.8124999999991,
          "velocity": 0.47244094488188976,
          "duration": 0.07499999999998863
        },
        {
          "name": "C2",
          "midi": 36,
          "time": 149.8124999999991,
          "velocity": 1,
          "duration": 0.15000000000000568
        },
        {
          "name": "A#2",
          "midi": 46,
          "time": 149.8124999999991,
          "velocity": 1,
          "duration": 0.15000000000000568
        },
        {
          "name": "F#3",
          "midi": 54,
          "time": 149.9062499999991,
          "velocity": 0.47244094488188976,
          "duration": 0.07500000000001705
        },
        {
          "name": "F#2",
          "midi": 42,
          "time": 149.99999999999912,
          "velocity": 1,
          "duration": 0.15000000000000568
        },
        {
          "name": "F#3",
          "midi": 54,
          "time": 149.99999999999912,
          "velocity": 0.47244094488188976,
          "duration": 0.15000000000000568
        },
        {
          "name": "C2",
          "midi": 36,
          "time": 149.99999999999912,
          "velocity": 1,
          "duration": 0.30000000000001137
        },
        {
          "name": "F#3",
          "midi": 54,
          "time": 150.18749999999912,
          "velocity": 0.47244094488188976,
          "duration": 0.07499999999998863
        },
        {
          "name": "F#2",
          "midi": 42,
          "time": 150.18749999999912,
          "velocity": 1,
          "duration": 0.15000000000000568
        },
        {
          "name": "F#3",
          "midi": 54,
          "time": 150.28124999999912,
          "velocity": 0.47244094488188976,
          "duration": 0.07500000000001705
        },
        {
          "name": "F#2",
          "midi": 42,
          "time": 150.37499999999915,
          "velocity": 1,
          "duration": 0.15000000000000568
        },
        {
          "name": "F#3",
          "midi": 54,
          "time": 150.37499999999915,
          "velocity": 0.47244094488188976,
          "duration": 0.15000000000000568
        },
        {
          "name": "D2",
          "midi": 38,
          "time": 150.37499999999915,
          "velocity": 1,
          "duration": 0.30000000000001137
        },
        {
          "name": "C2",
          "midi": 36,
          "time": 150.56249999999915,
          "velocity": 1,
          "duration": 0.15000000000000568
        },
        {
          "name": "F#2",
          "midi": 42,
          "time": 150.56249999999915,
          "velocity": 1,
          "duration": 0.15000000000000568
        },
        {
          "name": "F#3",
          "midi": 54,
          "time": 150.56249999999915,
          "velocity": 0.47244094488188976,
          "duration": 0.07499999999998863
        },
        {
          "name": "F#3",
          "midi": 54,
          "time": 150.65624999999915,
          "velocity": 0.47244094488188976,
          "duration": 0.07500000000001705
        },
        {
          "name": "F#3",
          "midi": 54,
          "time": 150.74999999999918,
          "velocity": 0.47244094488188976,
          "duration": 0.15000000000000568
        },
        {
          "name": "F#2",
          "midi": 42,
          "time": 150.74999999999918,
          "velocity": 1,
          "duration": 0.15000000000000568
        },
        {
          "name": "C2",
          "midi": 36,
          "time": 150.74999999999918,
          "velocity": 1,
          "duration": 0.30000000000001137
        },
        {
          "name": "F#3",
          "midi": 54,
          "time": 150.93749999999918,
          "velocity": 0.47244094488188976,
          "duration": 0.07499999999998863
        },
        {
          "name": "F#2",
          "midi": 42,
          "time": 150.93749999999918,
          "velocity": 1,
          "duration": 0.15000000000000568
        },
        {
          "name": "F#3",
          "midi": 54,
          "time": 151.03124999999918,
          "velocity": 0.47244094488188976,
          "duration": 0.07500000000001705
        },
        {
          "name": "F#3",
          "midi": 54,
          "time": 151.1249999999992,
          "velocity": 0.47244094488188976,
          "duration": 0.15000000000000568
        },
        {
          "name": "F#2",
          "midi": 42,
          "time": 151.1249999999992,
          "velocity": 1,
          "duration": 0.15000000000000568
        },
        {
          "name": "D2",
          "midi": 38,
          "time": 151.1249999999992,
          "velocity": 1,
          "duration": 0.30000000000001137
        },
        {
          "name": "F#3",
          "midi": 54,
          "time": 151.3124999999992,
          "velocity": 0.47244094488188976,
          "duration": 0.07499999999998863
        },
        {
          "name": "F#2",
          "midi": 42,
          "time": 151.3124999999992,
          "velocity": 1,
          "duration": 0.15000000000000568
        },
        {
          "name": "F#3",
          "midi": 54,
          "time": 151.4062499999992,
          "velocity": 0.47244094488188976,
          "duration": 0.07500000000001705
        },
        {
          "name": "G2",
          "midi": 43,
          "time": 151.49999999999923,
          "velocity": 1,
          "duration": 0.15000000000000568
        },
        {
          "name": "F#2",
          "midi": 42,
          "time": 151.49999999999923,
          "velocity": 1,
          "duration": 0.15000000000000568
        },
        {
          "name": "F#3",
          "midi": 54,
          "time": 151.49999999999923,
          "velocity": 0.47244094488188976,
          "duration": 0.15000000000000568
        },
        {
          "name": "C2",
          "midi": 36,
          "time": 151.49999999999923,
          "velocity": 1,
          "duration": 0.30000000000001137
        },
        {
          "name": "D3",
          "midi": 50,
          "time": 151.68749999999923,
          "velocity": 1,
          "duration": 0.15000000000000568
        },
        {
          "name": "F#2",
          "midi": 42,
          "time": 151.68749999999923,
          "velocity": 1,
          "duration": 0.15000000000000568
        },
        {
          "name": "F#3",
          "midi": 54,
          "time": 151.68749999999923,
          "velocity": 0.47244094488188976,
          "duration": 0.07499999999998863
        },
        {
          "name": "F#3",
          "midi": 54,
          "time": 151.78124999999923,
          "velocity": 0.47244094488188976,
          "duration": 0.07500000000001705
        },
        {
          "name": "F#2",
          "midi": 42,
          "time": 151.87499999999926,
          "velocity": 1,
          "duration": 0.15000000000000568
        },
        {
          "name": "F#3",
          "midi": 54,
          "time": 151.87499999999926,
          "velocity": 0.47244094488188976,
          "duration": 0.15000000000000568
        },
        {
          "name": "D3",
          "midi": 50,
          "time": 151.87499999999926,
          "velocity": 1,
          "duration": 0.15000000000000568
        },
        {
          "name": "D2",
          "midi": 38,
          "time": 151.87499999999926,
          "velocity": 1,
          "duration": 0.30000000000001137
        },
        {
          "name": "F#2",
          "midi": 42,
          "time": 152.06249999999926,
          "velocity": 1,
          "duration": 0.15000000000000568
        },
        {
          "name": "F#3",
          "midi": 54,
          "time": 152.06249999999926,
          "velocity": 0.47244094488188976,
          "duration": 0.07499999999998863
        },
        {
          "name": "C3",
          "midi": 48,
          "time": 152.06249999999926,
          "velocity": 1,
          "duration": 0.15000000000000568
        },
        {
          "name": "C2",
          "midi": 36,
          "time": 152.06249999999926,
          "velocity": 1,
          "duration": 0.15000000000000568
        },
        {
          "name": "F#3",
          "midi": 54,
          "time": 152.15624999999926,
          "velocity": 0.47244094488188976,
          "duration": 0.07500000000001705
        },
        {
          "name": "G2",
          "midi": 43,
          "time": 152.2499999999993,
          "velocity": 1,
          "duration": 0.15000000000000568
        },
        {
          "name": "C2",
          "midi": 36,
          "time": 152.2499999999993,
          "velocity": 1,
          "duration": 0.15000000000000568
        },
        {
          "name": "F#3",
          "midi": 54,
          "time": 152.2499999999993,
          "velocity": 0.47244094488188976,
          "duration": 0.15000000000000568
        },
        {
          "name": "F#2",
          "midi": 42,
          "time": 152.2499999999993,
          "velocity": 1,
          "duration": 0.15000000000000568
        },
        {
          "name": "F#3",
          "midi": 54,
          "time": 152.4374999999993,
          "velocity": 0.47244094488188976,
          "duration": 0.07499999999998863
        },
        {
          "name": "A3",
          "midi": 57,
          "time": 152.4374999999993,
          "velocity": 0.8661417322834646,
          "duration": 0.15000000000000568
        },
        {
          "name": "F#2",
          "midi": 42,
          "time": 152.4374999999993,
          "velocity": 1,
          "duration": 0.15000000000000568
        },
        {
          "name": "C2",
          "midi": 36,
          "time": 152.4374999999993,
          "velocity": 1,
          "duration": 0.4875000000000398
        },
        {
          "name": "F#3",
          "midi": 54,
          "time": 152.5312499999993,
          "velocity": 0.47244094488188976,
          "duration": 0.07500000000001705
        },
        {
          "name": "F#3",
          "midi": 54,
          "time": 152.62499999999932,
          "velocity": 0.47244094488188976,
          "duration": 0.15000000000000568
        },
        {
          "name": "A#2",
          "midi": 46,
          "time": 152.62499999999932,
          "velocity": 1,
          "duration": 0.3375000000000057
        },
        {
          "name": "F#3",
          "midi": 54,
          "time": 152.81249999999932,
          "velocity": 0.47244094488188976,
          "duration": 0.07499999999998863
        },
        {
          "name": "F#3",
          "midi": 54,
          "time": 152.90624999999932,
          "velocity": 0.47244094488188976,
          "duration": 0.07500000000001705
        },
        {
          "name": "F#2",
          "midi": 42,
          "time": 152.99999999999935,
          "velocity": 1,
          "duration": 0.15000000000000568
        },
        {
          "name": "F#3",
          "midi": 54,
          "time": 152.99999999999935,
          "velocity": 0.47244094488188976,
          "duration": 0.15000000000000568
        },
        {
          "name": "C2",
          "midi": 36,
          "time": 152.99999999999935,
          "velocity": 1,
          "duration": 0.30000000000001137
        },
        {
          "name": "F#2",
          "midi": 42,
          "time": 153.18749999999935,
          "velocity": 1,
          "duration": 0.15000000000000568
        },
        {
          "name": "F#3",
          "midi": 54,
          "time": 153.18749999999935,
          "velocity": 0.47244094488188976,
          "duration": 0.07499999999998863
        },
        {
          "name": "F#3",
          "midi": 54,
          "time": 153.28124999999935,
          "velocity": 0.47244094488188976,
          "duration": 0.07500000000001705
        },
        {
          "name": "F#3",
          "midi": 54,
          "time": 153.37499999999937,
          "velocity": 0.47244094488188976,
          "duration": 0.15000000000000568
        },
        {
          "name": "F#2",
          "midi": 42,
          "time": 153.37499999999937,
          "velocity": 1,
          "duration": 0.15000000000000568
        },
        {
          "name": "D2",
          "midi": 38,
          "time": 153.37499999999937,
          "velocity": 1,
          "duration": 0.30000000000001137
        },
        {
          "name": "F#2",
          "midi": 42,
          "time": 153.56249999999937,
          "velocity": 1,
          "duration": 0.15000000000000568
        },
        {
          "name": "F#3",
          "midi": 54,
          "time": 153.56249999999937,
          "velocity": 0.47244094488188976,
          "duration": 0.07499999999998863
        },
        {
          "name": "F#3",
          "midi": 54,
          "time": 153.65624999999937,
          "velocity": 0.47244094488188976,
          "duration": 0.07500000000001705
        },
        {
          "name": "F#2",
          "midi": 42,
          "time": 153.7499999999994,
          "velocity": 1,
          "duration": 0.15000000000000568
        },
        {
          "name": "F#3",
          "midi": 54,
          "time": 153.7499999999994,
          "velocity": 0.47244094488188976,
          "duration": 0.15000000000000568
        },
        {
          "name": "C2",
          "midi": 36,
          "time": 153.7499999999994,
          "velocity": 1,
          "duration": 0.30000000000001137
        },
        {
          "name": "F#2",
          "midi": 42,
          "time": 153.9374999999994,
          "velocity": 1,
          "duration": 0.15000000000000568
        },
        {
          "name": "F#3",
          "midi": 54,
          "time": 153.9374999999994,
          "velocity": 0.47244094488188976,
          "duration": 0.07499999999998863
        },
        {
          "name": "F#3",
          "midi": 54,
          "time": 154.0312499999994,
          "velocity": 0.47244094488188976,
          "duration": 0.07500000000001705
        },
        {
          "name": "F#2",
          "midi": 42,
          "time": 154.12499999999943,
          "velocity": 1,
          "duration": 0.15000000000000568
        },
        {
          "name": "F#3",
          "midi": 54,
          "time": 154.12499999999943,
          "velocity": 0.47244094488188976,
          "duration": 0.15000000000000568
        },
        {
          "name": "D2",
          "midi": 38,
          "time": 154.12499999999943,
          "velocity": 1,
          "duration": 0.30000000000001137
        },
        {
          "name": "F#3",
          "midi": 54,
          "time": 154.31249999999943,
          "velocity": 0.47244094488188976,
          "duration": 0.07499999999998863
        },
        {
          "name": "C2",
          "midi": 36,
          "time": 154.31249999999943,
          "velocity": 1,
          "duration": 0.15000000000000568
        },
        {
          "name": "A#2",
          "midi": 46,
          "time": 154.31249999999943,
          "velocity": 1,
          "duration": 0.15000000000000568
        },
        {
          "name": "F#3",
          "midi": 54,
          "time": 154.40624999999943,
          "velocity": 0.47244094488188976,
          "duration": 0.07500000000001705
        },
        {
          "name": "F#2",
          "midi": 42,
          "time": 154.49999999999946,
          "velocity": 1,
          "duration": 0.15000000000000568
        },
        {
          "name": "F#3",
          "midi": 54,
          "time": 154.49999999999946,
          "velocity": 0.47244094488188976,
          "duration": 0.15000000000000568
        },
        {
          "name": "C2",
          "midi": 36,
          "time": 154.49999999999946,
          "velocity": 1,
          "duration": 0.30000000000001137
        },
        {
          "name": "F#2",
          "midi": 42,
          "time": 154.68749999999946,
          "velocity": 1,
          "duration": 0.15000000000000568
        },
        {
          "name": "F#3",
          "midi": 54,
          "time": 154.68749999999946,
          "velocity": 0.47244094488188976,
          "duration": 0.07499999999998863
        },
        {
          "name": "F#3",
          "midi": 54,
          "time": 154.78124999999946,
          "velocity": 0.47244094488188976,
          "duration": 0.07500000000001705
        },
        {
          "name": "F#2",
          "midi": 42,
          "time": 154.8749999999995,
          "velocity": 1,
          "duration": 0.15000000000000568
        },
        {
          "name": "F#3",
          "midi": 54,
          "time": 154.8749999999995,
          "velocity": 0.47244094488188976,
          "duration": 0.15000000000000568
        },
        {
          "name": "D2",
          "midi": 38,
          "time": 154.8749999999995,
          "velocity": 1,
          "duration": 0.30000000000001137
        },
        {
          "name": "F#2",
          "midi": 42,
          "time": 155.0624999999995,
          "velocity": 1,
          "duration": 0.15000000000000568
        },
        {
          "name": "F#3",
          "midi": 54,
          "time": 155.0624999999995,
          "velocity": 0.47244094488188976,
          "duration": 0.07499999999998863
        },
        {
          "name": "F#3",
          "midi": 54,
          "time": 155.1562499999995,
          "velocity": 0.47244094488188976,
          "duration": 0.07500000000001705
        },
        {
          "name": "F#3",
          "midi": 54,
          "time": 155.24999999999952,
          "velocity": 0.47244094488188976,
          "duration": 0.15000000000000568
        },
        {
          "name": "F#2",
          "midi": 42,
          "time": 155.24999999999952,
          "velocity": 1,
          "duration": 0.15000000000000568
        },
        {
          "name": "C2",
          "midi": 36,
          "time": 155.24999999999952,
          "velocity": 1,
          "duration": 0.30000000000001137
        },
        {
          "name": "F#3",
          "midi": 54,
          "time": 155.43749999999952,
          "velocity": 0.47244094488188976,
          "duration": 0.07499999999998863
        },
        {
          "name": "F#2",
          "midi": 42,
          "time": 155.43749999999952,
          "velocity": 1,
          "duration": 0.15000000000000568
        },
        {
          "name": "F#3",
          "midi": 54,
          "time": 155.53124999999952,
          "velocity": 0.47244094488188976,
          "duration": 0.07500000000001705
        },
        {
          "name": "F#3",
          "midi": 54,
          "time": 155.62499999999955,
          "velocity": 0.47244094488188976,
          "duration": 0.15000000000000568
        },
        {
          "name": "F#2",
          "midi": 42,
          "time": 155.62499999999955,
          "velocity": 1,
          "duration": 0.15000000000000568
        },
        {
          "name": "D2",
          "midi": 38,
          "time": 155.62499999999955,
          "velocity": 1,
          "duration": 0.30000000000001137
        },
        {
          "name": "F#3",
          "midi": 54,
          "time": 155.81249999999955,
          "velocity": 0.47244094488188976,
          "duration": 0.07499999999998863
        },
        {
          "name": "A#2",
          "midi": 46,
          "time": 155.81249999999955,
          "velocity": 1,
          "duration": 0.15000000000000568
        },
        {
          "name": "C2",
          "midi": 36,
          "time": 155.81249999999955,
          "velocity": 1,
          "duration": 0.15000000000000568
        },
        {
          "name": "F#3",
          "midi": 54,
          "time": 155.90624999999955,
          "velocity": 0.47244094488188976,
          "duration": 0.07500000000001705
        },
        {
          "name": "F#2",
          "midi": 42,
          "time": 155.99999999999957,
          "velocity": 1,
          "duration": 0.15000000000000568
        },
        {
          "name": "F#3",
          "midi": 54,
          "time": 155.99999999999957,
          "velocity": 0.47244094488188976,
          "duration": 0.15000000000000568
        },
        {
          "name": "C2",
          "midi": 36,
          "time": 155.99999999999957,
          "velocity": 1,
          "duration": 0.30000000000001137
        },
        {
          "name": "F#3",
          "midi": 54,
          "time": 156.18749999999957,
          "velocity": 0.47244094488188976,
          "duration": 0.07499999999998863
        },
        {
          "name": "F#2",
          "midi": 42,
          "time": 156.18749999999957,
          "velocity": 1,
          "duration": 0.15000000000000568
        },
        {
          "name": "F#3",
          "midi": 54,
          "time": 156.28124999999957,
          "velocity": 0.47244094488188976,
          "duration": 0.07500000000001705
        },
        {
          "name": "F#3",
          "midi": 54,
          "time": 156.3749999999996,
          "velocity": 0.47244094488188976,
          "duration": 0.15000000000000568
        },
        {
          "name": "F#2",
          "midi": 42,
          "time": 156.3749999999996,
          "velocity": 1,
          "duration": 0.15000000000000568
        },
        {
          "name": "D2",
          "midi": 38,
          "time": 156.3749999999996,
          "velocity": 1,
          "duration": 0.30000000000001137
        },
        {
          "name": "F#2",
          "midi": 42,
          "time": 156.5624999999996,
          "velocity": 1,
          "duration": 0.15000000000000568
        },
        {
          "name": "F#3",
          "midi": 54,
          "time": 156.5624999999996,
          "velocity": 0.47244094488188976,
          "duration": 0.07499999999998863
        },
        {
          "name": "C2",
          "midi": 36,
          "time": 156.5624999999996,
          "velocity": 1,
          "duration": 0.15000000000000568
        },
        {
          "name": "F#3",
          "midi": 54,
          "time": 156.6562499999996,
          "velocity": 0.47244094488188976,
          "duration": 0.07500000000001705
        },
        {
          "name": "F#3",
          "midi": 54,
          "time": 156.74999999999963,
          "velocity": 0.47244094488188976,
          "duration": 0.15000000000000568
        },
        {
          "name": "F#2",
          "midi": 42,
          "time": 156.74999999999963,
          "velocity": 1,
          "duration": 0.15000000000000568
        },
        {
          "name": "C2",
          "midi": 36,
          "time": 156.74999999999963,
          "velocity": 1,
          "duration": 0.30000000000001137
        },
        {
          "name": "F#3",
          "midi": 54,
          "time": 156.93749999999963,
          "velocity": 0.47244094488188976,
          "duration": 0.07499999999998863
        },
        {
          "name": "D3",
          "midi": 50,
          "time": 156.93749999999963,
          "velocity": 1,
          "duration": 0.15000000000000568
        },
        {
          "name": "F#2",
          "midi": 42,
          "time": 156.93749999999963,
          "velocity": 1,
          "duration": 0.15000000000000568
        },
        {
          "name": "F#3",
          "midi": 54,
          "time": 157.03124999999963,
          "velocity": 0.47244094488188976,
          "duration": 0.07500000000001705
        },
        {
          "name": "F#2",
          "midi": 42,
          "time": 157.12499999999966,
          "velocity": 1,
          "duration": 0.15000000000000568
        },
        {
          "name": "F#3",
          "midi": 54,
          "time": 157.12499999999966,
          "velocity": 0.47244094488188976,
          "duration": 0.15000000000000568
        },
        {
          "name": "D3",
          "midi": 50,
          "time": 157.12499999999966,
          "velocity": 1,
          "duration": 0.15000000000000568
        },
        {
          "name": "D2",
          "midi": 38,
          "time": 157.12499999999966,
          "velocity": 1,
          "duration": 0.30000000000001137
        },
        {
          "name": "F#3",
          "midi": 54,
          "time": 157.31249999999966,
          "velocity": 0.47244094488188976,
          "duration": 0.07499999999998863
        },
        {
          "name": "F#2",
          "midi": 42,
          "time": 157.31249999999966,
          "velocity": 1,
          "duration": 0.15000000000000568
        },
        {
          "name": "D3",
          "midi": 50,
          "time": 157.31249999999966,
          "velocity": 1,
          "duration": 0.15000000000000568
        },
        {
          "name": "F#3",
          "midi": 54,
          "time": 157.40624999999966,
          "velocity": 0.47244094488188976,
          "duration": 0.07500000000001705
        },
        {
          "name": "F#3",
          "midi": 54,
          "time": 157.4999999999997,
          "velocity": 0.47244094488188976,
          "duration": 0.15000000000000568
        },
        {
          "name": "F#2",
          "midi": 42,
          "time": 157.4999999999997,
          "velocity": 1,
          "duration": 0.15000000000000568
        },
        {
          "name": "C2",
          "midi": 36,
          "time": 157.4999999999997,
          "velocity": 1,
          "duration": 0.30000000000001137
        },
        {
          "name": "F#2",
          "midi": 42,
          "time": 157.6874999999997,
          "velocity": 1,
          "duration": 0.15000000000000568
        },
        {
          "name": "C3",
          "midi": 48,
          "time": 157.6874999999997,
          "velocity": 1,
          "duration": 0.15000000000000568
        },
        {
          "name": "F#3",
          "midi": 54,
          "time": 157.6874999999997,
          "velocity": 0.47244094488188976,
          "duration": 0.07499999999998863
        },
        {
          "name": "F#3",
          "midi": 54,
          "time": 157.7812499999997,
          "velocity": 0.47244094488188976,
          "duration": 0.07500000000001705
        },
        {
          "name": "F#3",
          "midi": 54,
          "time": 157.87499999999972,
          "velocity": 0.47244094488188976,
          "duration": 0.15000000000000568
        },
        {
          "name": "F#2",
          "midi": 42,
          "time": 157.87499999999972,
          "velocity": 1,
          "duration": 0.15000000000000568
        },
        {
          "name": "B2",
          "midi": 47,
          "time": 157.87499999999972,
          "velocity": 1,
          "duration": 0.15000000000000568
        },
        {
          "name": "D2",
          "midi": 38,
          "time": 157.87499999999972,
          "velocity": 1,
          "duration": 0.30000000000001137
        },
        {
          "name": "F#2",
          "midi": 42,
          "time": 158.06249999999972,
          "velocity": 1,
          "duration": 0.15000000000000568
        },
        {
          "name": "F#3",
          "midi": 54,
          "time": 158.06249999999972,
          "velocity": 0.47244094488188976,
          "duration": 0.07499999999998863
        },
        {
          "name": "C2",
          "midi": 36,
          "time": 158.06249999999972,
          "velocity": 1,
          "duration": 0.15000000000000568
        },
        {
          "name": "G2",
          "midi": 43,
          "time": 158.06249999999972,
          "velocity": 1,
          "duration": 0.15000000000000568
        },
        {
          "name": "F#3",
          "midi": 54,
          "time": 158.15624999999972,
          "velocity": 0.47244094488188976,
          "duration": 0.07500000000001705
        },
        {
          "name": "F#2",
          "midi": 42,
          "time": 158.24999999999974,
          "velocity": 1,
          "duration": 0.15000000000000568
        },
        {
          "name": "F#3",
          "midi": 54,
          "time": 158.24999999999974,
          "velocity": 0.47244094488188976,
          "duration": 0.15000000000000568
        },
        {
          "name": "C2",
          "midi": 36,
          "time": 158.24999999999974,
          "velocity": 1,
          "duration": 0.15000000000000568
        },
        {
          "name": "F#3",
          "midi": 54,
          "time": 158.43749999999974,
          "velocity": 0.47244094488188976,
          "duration": 0.07499999999998863
        },
        {
          "name": "F#2",
          "midi": 42,
          "time": 158.43749999999974,
          "velocity": 1,
          "duration": 0.15000000000000568
        },
        {
          "name": "A3",
          "midi": 57,
          "time": 158.43749999999974,
          "velocity": 0.8661417322834646,
          "duration": 0.15000000000000568
        },
        {
          "name": "C2",
          "midi": 36,
          "time": 158.43749999999974,
          "velocity": 1,
          "duration": 0.4875000000000398
        },
        {
          "name": "F#3",
          "midi": 54,
          "time": 158.53124999999974,
          "velocity": 0.47244094488188976,
          "duration": 0.07500000000001705
        },
        {
          "name": "F#3",
          "midi": 54,
          "time": 158.62499999999977,
          "velocity": 0.47244094488188976,
          "duration": 0.15000000000000568
        },
        {
          "name": "F#2",
          "midi": 42,
          "time": 158.62499999999977,
          "velocity": 0.6299212598425197,
          "duration": 0.15000000000000568
        },
        {
          "name": "D2",
          "midi": 38,
          "time": 158.62499999999977,
          "velocity": 0.6299212598425197,
          "duration": 0.30000000000001137
        },
        {
          "name": "F#3",
          "midi": 54,
          "time": 158.81249999999977,
          "velocity": 0.47244094488188976,
          "duration": 0.07499999999998863
        },
        {
          "name": "F#3",
          "midi": 54,
          "time": 158.90624999999977,
          "velocity": 0.47244094488188976,
          "duration": 0.07500000000001705
        },
        {
          "name": "F#2",
          "midi": 42,
          "time": 158.9999999999998,
          "velocity": 1,
          "duration": 0.15000000000000568
        },
        {
          "name": "F#3",
          "midi": 54,
          "time": 158.9999999999998,
          "velocity": 0.47244094488188976,
          "duration": 0.15000000000000568
        },
        {
          "name": "C2",
          "midi": 36,
          "time": 158.9999999999998,
          "velocity": 1,
          "duration": 0.30000000000001137
        },
        {
          "name": "F#2",
          "midi": 42,
          "time": 159.1874999999998,
          "velocity": 1,
          "duration": 0.15000000000000568
        },
        {
          "name": "F#3",
          "midi": 54,
          "time": 159.1874999999998,
          "velocity": 0.47244094488188976,
          "duration": 0.07499999999998863
        },
        {
          "name": "F#3",
          "midi": 54,
          "time": 159.2812499999998,
          "velocity": 0.47244094488188976,
          "duration": 0.07500000000001705
        },
        {
          "name": "F#3",
          "midi": 54,
          "time": 159.37499999999983,
          "velocity": 0.47244094488188976,
          "duration": 0.15000000000000568
        },
        {
          "name": "F#2",
          "midi": 42,
          "time": 159.37499999999983,
          "velocity": 1,
          "duration": 0.15000000000000568
        },
        {
          "name": "D2",
          "midi": 38,
          "time": 159.37499999999983,
          "velocity": 1,
          "duration": 0.30000000000001137
        },
        {
          "name": "F#2",
          "midi": 42,
          "time": 159.56249999999983,
          "velocity": 1,
          "duration": 0.15000000000000568
        },
        {
          "name": "F#3",
          "midi": 54,
          "time": 159.56249999999983,
          "velocity": 0.47244094488188976,
          "duration": 0.07499999999998863
        },
        {
          "name": "F#3",
          "midi": 54,
          "time": 159.65624999999983,
          "velocity": 0.47244094488188976,
          "duration": 0.07500000000001705
        },
        {
          "name": "F#3",
          "midi": 54,
          "time": 159.74999999999986,
          "velocity": 0.47244094488188976,
          "duration": 0.15000000000000568
        },
        {
          "name": "F#2",
          "midi": 42,
          "time": 159.74999999999986,
          "velocity": 1,
          "duration": 0.15000000000000568
        },
        {
          "name": "C2",
          "midi": 36,
          "time": 159.74999999999986,
          "velocity": 1,
          "duration": 0.30000000000001137
        },
        {
          "name": "F#2",
          "midi": 42,
          "time": 159.93749999999986,
          "velocity": 1,
          "duration": 0.15000000000000568
        },
        {
          "name": "F#3",
          "midi": 54,
          "time": 159.93749999999986,
          "velocity": 0.47244094488188976,
          "duration": 0.07499999999998863
        },
        {
          "name": "F#3",
          "midi": 54,
          "time": 160.03124999999986,
          "velocity": 0.47244094488188976,
          "duration": 0.07500000000001705
        },
        {
          "name": "F#2",
          "midi": 42,
          "time": 160.1249999999999,
          "velocity": 1,
          "duration": 0.15000000000000568
        },
        {
          "name": "F#3",
          "midi": 54,
          "time": 160.1249999999999,
          "velocity": 0.47244094488188976,
          "duration": 0.15000000000000568
        },
        {
          "name": "D2",
          "midi": 38,
          "time": 160.1249999999999,
          "velocity": 1,
          "duration": 0.30000000000001137
        },
        {
          "name": "F#3",
          "midi": 54,
          "time": 160.3124999999999,
          "velocity": 0.47244094488188976,
          "duration": 0.07499999999998863
        },
        {
          "name": "C2",
          "midi": 36,
          "time": 160.3124999999999,
          "velocity": 1,
          "duration": 0.15000000000000568
        },
        {
          "name": "A#2",
          "midi": 46,
          "time": 160.3124999999999,
          "velocity": 1,
          "duration": 0.15000000000000568
        },
        {
          "name": "F#3",
          "midi": 54,
          "time": 160.4062499999999,
          "velocity": 0.47244094488188976,
          "duration": 0.07500000000001705
        },
        {
          "name": "F#3",
          "midi": 54,
          "time": 160.49999999999991,
          "velocity": 0.47244094488188976,
          "duration": 0.15000000000000568
        },
        {
          "name": "F#2",
          "midi": 42,
          "time": 160.49999999999991,
          "velocity": 1,
          "duration": 0.15000000000000568
        },
        {
          "name": "C2",
          "midi": 36,
          "time": 160.49999999999991,
          "velocity": 1,
          "duration": 0.30000000000001137
        },
        {
          "name": "F#3",
          "midi": 54,
          "time": 160.68749999999991,
          "velocity": 0.47244094488188976,
          "duration": 0.07499999999998863
        },
        {
          "name": "F#2",
          "midi": 42,
          "time": 160.68749999999991,
          "velocity": 1,
          "duration": 0.15000000000000568
        },
        {
          "name": "F#3",
          "midi": 54,
          "time": 160.78124999999991,
          "velocity": 0.47244094488188976,
          "duration": 0.07500000000001705
        },
        {
          "name": "F#2",
          "midi": 42,
          "time": 160.87499999999994,
          "velocity": 1,
          "duration": 0.15000000000000568
        },
        {
          "name": "F#3",
          "midi": 54,
          "time": 160.87499999999994,
          "velocity": 0.47244094488188976,
          "duration": 0.15000000000000568
        },
        {
          "name": "D2",
          "midi": 38,
          "time": 160.87499999999994,
          "velocity": 1,
          "duration": 0.30000000000001137
        },
        {
          "name": "F#2",
          "midi": 42,
          "time": 161.06249999999994,
          "velocity": 1,
          "duration": 0.15000000000000568
        },
        {
          "name": "F#3",
          "midi": 54,
          "time": 161.06249999999994,
          "velocity": 0.47244094488188976,
          "duration": 0.07499999999998863
        },
        {
          "name": "F#3",
          "midi": 54,
          "time": 161.15624999999994,
          "velocity": 0.47244094488188976,
          "duration": 0.07500000000001705
        },
        {
          "name": "F#3",
          "midi": 54,
          "time": 161.24999999999997,
          "velocity": 0.47244094488188976,
          "duration": 0.15000000000000568
        },
        {
          "name": "F#2",
          "midi": 42,
          "time": 161.24999999999997,
          "velocity": 1,
          "duration": 0.15000000000000568
        },
        {
          "name": "C2",
          "midi": 36,
          "time": 161.24999999999997,
          "velocity": 1,
          "duration": 0.30000000000001137
        },
        {
          "name": "F#3",
          "midi": 54,
          "time": 161.43749999999997,
          "velocity": 0.47244094488188976,
          "duration": 0.07499999999998863
        },
        {
          "name": "F#2",
          "midi": 42,
          "time": 161.43749999999997,
          "velocity": 1,
          "duration": 0.15000000000000568
        },
        {
          "name": "F#3",
          "midi": 54,
          "time": 161.53124999999997,
          "velocity": 0.47244094488188976,
          "duration": 0.07500000000001705
        },
        {
          "name": "F#2",
          "midi": 42,
          "time": 161.625,
          "velocity": 1,
          "duration": 0.15000000000000568
        },
        {
          "name": "F#3",
          "midi": 54,
          "time": 161.625,
          "velocity": 0.47244094488188976,
          "duration": 0.15000000000000568
        },
        {
          "name": "D2",
          "midi": 38,
          "time": 161.625,
          "velocity": 1,
          "duration": 0.30000000000001137
        },
        {
          "name": "F#3",
          "midi": 54,
          "time": 161.8125,
          "velocity": 0.47244094488188976,
          "duration": 0.07499999999998863
        },
        {
          "name": "C2",
          "midi": 36,
          "time": 161.8125,
          "velocity": 1,
          "duration": 0.15000000000000568
        },
        {
          "name": "A#2",
          "midi": 46,
          "time": 161.8125,
          "velocity": 1,
          "duration": 0.15000000000000568
        },
        {
          "name": "F#3",
          "midi": 54,
          "time": 161.90625,
          "velocity": 0.47244094488188976,
          "duration": 0.07500000000001705
        },
        {
          "name": "F#2",
          "midi": 42,
          "time": 162.00000000000003,
          "velocity": 1,
          "duration": 0.15000000000000568
        },
        {
          "name": "F#3",
          "midi": 54,
          "time": 162.00000000000003,
          "velocity": 0.47244094488188976,
          "duration": 0.15000000000000568
        },
        {
          "name": "C2",
          "midi": 36,
          "time": 162.00000000000003,
          "velocity": 1,
          "duration": 0.30000000000001137
        },
        {
          "name": "F#3",
          "midi": 54,
          "time": 162.18750000000003,
          "velocity": 0.47244094488188976,
          "duration": 0.07499999999998863
        },
        {
          "name": "F#2",
          "midi": 42,
          "time": 162.18750000000003,
          "velocity": 1,
          "duration": 0.15000000000000568
        },
        {
          "name": "F#3",
          "midi": 54,
          "time": 162.28125000000003,
          "velocity": 0.47244094488188976,
          "duration": 0.07500000000001705
        },
        {
          "name": "F#3",
          "midi": 54,
          "time": 162.37500000000006,
          "velocity": 0.47244094488188976,
          "duration": 0.15000000000000568
        },
        {
          "name": "F#2",
          "midi": 42,
          "time": 162.37500000000006,
          "velocity": 1,
          "duration": 0.15000000000000568
        },
        {
          "name": "D2",
          "midi": 38,
          "time": 162.37500000000006,
          "velocity": 1,
          "duration": 0.30000000000001137
        },
        {
          "name": "F#2",
          "midi": 42,
          "time": 162.56250000000006,
          "velocity": 1,
          "duration": 0.15000000000000568
        },
        {
          "name": "F#3",
          "midi": 54,
          "time": 162.56250000000006,
          "velocity": 0.47244094488188976,
          "duration": 0.07499999999998863
        },
        {
          "name": "C2",
          "midi": 36,
          "time": 162.56250000000006,
          "velocity": 1,
          "duration": 0.15000000000000568
        },
        {
          "name": "F#3",
          "midi": 54,
          "time": 162.65625000000006,
          "velocity": 0.47244094488188976,
          "duration": 0.07500000000001705
        },
        {
          "name": "F#3",
          "midi": 54,
          "time": 162.75000000000009,
          "velocity": 0.47244094488188976,
          "duration": 0.15000000000000568
        },
        {
          "name": "F#2",
          "midi": 42,
          "time": 162.75000000000009,
          "velocity": 1,
          "duration": 0.15000000000000568
        },
        {
          "name": "C2",
          "midi": 36,
          "time": 162.75000000000009,
          "velocity": 1,
          "duration": 0.30000000000001137
        },
        {
          "name": "F#3",
          "midi": 54,
          "time": 162.93750000000009,
          "velocity": 0.47244094488188976,
          "duration": 0.07499999999998863
        },
        {
          "name": "F#2",
          "midi": 42,
          "time": 162.93750000000009,
          "velocity": 1,
          "duration": 0.15000000000000568
        },
        {
          "name": "F#3",
          "midi": 54,
          "time": 163.03125000000009,
          "velocity": 0.47244094488188976,
          "duration": 0.07500000000001705
        },
        {
          "name": "F#2",
          "midi": 42,
          "time": 163.1250000000001,
          "velocity": 1,
          "duration": 0.15000000000000568
        },
        {
          "name": "F#3",
          "midi": 54,
          "time": 163.1250000000001,
          "velocity": 0.47244094488188976,
          "duration": 0.15000000000000568
        },
        {
          "name": "D2",
          "midi": 38,
          "time": 163.1250000000001,
          "velocity": 1,
          "duration": 0.30000000000001137
        },
        {
          "name": "F#3",
          "midi": 54,
          "time": 163.3125000000001,
          "velocity": 0.47244094488188976,
          "duration": 0.07499999999998863
        },
        {
          "name": "F#2",
          "midi": 42,
          "time": 163.3125000000001,
          "velocity": 1,
          "duration": 0.15000000000000568
        },
        {
          "name": "F#3",
          "midi": 54,
          "time": 163.4062500000001,
          "velocity": 0.47244094488188976,
          "duration": 0.07500000000001705
        },
        {
          "name": "G2",
          "midi": 43,
          "time": 163.50000000000014,
          "velocity": 1,
          "duration": 0.15000000000000568
        },
        {
          "name": "F#2",
          "midi": 42,
          "time": 163.50000000000014,
          "velocity": 1,
          "duration": 0.15000000000000568
        },
        {
          "name": "F#3",
          "midi": 54,
          "time": 163.50000000000014,
          "velocity": 0.47244094488188976,
          "duration": 0.15000000000000568
        },
        {
          "name": "C2",
          "midi": 36,
          "time": 163.50000000000014,
          "velocity": 1,
          "duration": 0.30000000000001137
        },
        {
          "name": "F#3",
          "midi": 54,
          "time": 163.68750000000014,
          "velocity": 0.47244094488188976,
          "duration": 0.07499999999998863
        },
        {
          "name": "F#2",
          "midi": 42,
          "time": 163.68750000000014,
          "velocity": 1,
          "duration": 0.15000000000000568
        },
        {
          "name": "D3",
          "midi": 50,
          "time": 163.68750000000014,
          "velocity": 1,
          "duration": 0.15000000000000568
        },
        {
          "name": "F#3",
          "midi": 54,
          "time": 163.78125000000014,
          "velocity": 0.47244094488188976,
          "duration": 0.07500000000001705
        },
        {
          "name": "F#3",
          "midi": 54,
          "time": 163.87500000000017,
          "velocity": 0.47244094488188976,
          "duration": 0.15000000000000568
        },
        {
          "name": "F#2",
          "midi": 42,
          "time": 163.87500000000017,
          "velocity": 1,
          "duration": 0.15000000000000568
        },
        {
          "name": "D3",
          "midi": 50,
          "time": 163.87500000000017,
          "velocity": 1,
          "duration": 0.15000000000000568
        },
        {
          "name": "D2",
          "midi": 38,
          "time": 163.87500000000017,
          "velocity": 1,
          "duration": 0.30000000000001137
        },
        {
          "name": "C3",
          "midi": 48,
          "time": 164.06250000000017,
          "velocity": 1,
          "duration": 0.15000000000000568
        },
        {
          "name": "F#3",
          "midi": 54,
          "time": 164.06250000000017,
          "velocity": 0.47244094488188976,
          "duration": 0.07499999999998863
        },
        {
          "name": "C2",
          "midi": 36,
          "time": 164.06250000000017,
          "velocity": 1,
          "duration": 0.15000000000000568
        },
        {
          "name": "F#2",
          "midi": 42,
          "time": 164.06250000000017,
          "velocity": 1,
          "duration": 0.15000000000000568
        },
        {
          "name": "F#3",
          "midi": 54,
          "time": 164.15625000000017,
          "velocity": 0.47244094488188976,
          "duration": 0.07500000000001705
        },
        {
          "name": "C2",
          "midi": 36,
          "time": 164.2500000000002,
          "velocity": 1,
          "duration": 0.15000000000000568
        },
        {
          "name": "G2",
          "midi": 43,
          "time": 164.2500000000002,
          "velocity": 1,
          "duration": 0.15000000000000568
        },
        {
          "name": "F#2",
          "midi": 42,
          "time": 164.2500000000002,
          "velocity": 1,
          "duration": 0.15000000000000568
        },
        {
          "name": "F#3",
          "midi": 54,
          "time": 164.2500000000002,
          "velocity": 0.47244094488188976,
          "duration": 0.15000000000000568
        },
        {
          "name": "F#3",
          "midi": 54,
          "time": 164.4375000000002,
          "velocity": 0.47244094488188976,
          "duration": 0.07499999999998863
        },
        {
          "name": "A3",
          "midi": 57,
          "time": 164.4375000000002,
          "velocity": 0.8661417322834646,
          "duration": 0.15000000000000568
        },
        {
          "name": "F#2",
          "midi": 42,
          "time": 164.4375000000002,
          "velocity": 1,
          "duration": 0.15000000000000568
        },
        {
          "name": "C2",
          "midi": 36,
          "time": 164.4375000000002,
          "velocity": 1,
          "duration": 0.4875000000000398
        },
        {
          "name": "F#3",
          "midi": 54,
          "time": 164.5312500000002,
          "velocity": 0.47244094488188976,
          "duration": 0.07500000000001705
        },
        {
          "name": "F#3",
          "midi": 54,
          "time": 164.62500000000023,
          "velocity": 0.47244094488188976,
          "duration": 0.15000000000000568
        },
        {
          "name": "A#2",
          "midi": 46,
          "time": 164.62500000000023,
          "velocity": 1,
          "duration": 0.3375000000000057
        },
        {
          "name": "F#3",
          "midi": 54,
          "time": 164.81250000000023,
          "velocity": 0.47244094488188976,
          "duration": 0.07499999999998863
        },
        {
          "name": "F#3",
          "midi": 54,
          "time": 164.90625000000023,
          "velocity": 0.47244094488188976,
          "duration": 0.07500000000001705
        },
        {
          "name": "F#2",
          "midi": 42,
          "time": 165.00000000000026,
          "velocity": 0.8661417322834646,
          "duration": 0.15000000000000568
        },
        {
          "name": "F#3",
          "midi": 54,
          "time": 165.00000000000026,
          "velocity": 0.47244094488188976,
          "duration": 0.15000000000000568
        },
        {
          "name": "C2",
          "midi": 36,
          "time": 165.00000000000026,
          "velocity": 1,
          "duration": 0.30000000000001137
        },
        {
          "name": "F#3",
          "midi": 54,
          "time": 165.18750000000026,
          "velocity": 0.47244094488188976,
          "duration": 0.07499999999998863
        },
        {
          "name": "F#2",
          "midi": 42,
          "time": 165.18750000000026,
          "velocity": 0.8661417322834646,
          "duration": 0.15000000000000568
        },
        {
          "name": "F#3",
          "midi": 54,
          "time": 165.28125000000026,
          "velocity": 0.47244094488188976,
          "duration": 0.07500000000001705
        },
        {
          "name": "F#2",
          "midi": 42,
          "time": 165.37500000000028,
          "velocity": 0.8661417322834646,
          "duration": 0.15000000000000568
        },
        {
          "name": "F#3",
          "midi": 54,
          "time": 165.37500000000028,
          "velocity": 0.47244094488188976,
          "duration": 0.15000000000000568
        },
        {
          "name": "D2",
          "midi": 38,
          "time": 165.37500000000028,
          "velocity": 0.8661417322834646,
          "duration": 0.30000000000001137
        },
        {
          "name": "F#3",
          "midi": 54,
          "time": 165.56250000000028,
          "velocity": 0.47244094488188976,
          "duration": 0.07499999999998863
        },
        {
          "name": "F#2",
          "midi": 42,
          "time": 165.56250000000028,
          "velocity": 0.8661417322834646,
          "duration": 0.15000000000000568
        },
        {
          "name": "F#3",
          "midi": 54,
          "time": 165.65625000000028,
          "velocity": 0.47244094488188976,
          "duration": 0.07500000000001705
        },
        {
          "name": "F#2",
          "midi": 42,
          "time": 165.7500000000003,
          "velocity": 0.8661417322834646,
          "duration": 0.15000000000000568
        },
        {
          "name": "F#3",
          "midi": 54,
          "time": 165.7500000000003,
          "velocity": 0.47244094488188976,
          "duration": 0.15000000000000568
        },
        {
          "name": "C2",
          "midi": 36,
          "time": 165.7500000000003,
          "velocity": 1,
          "duration": 0.30000000000001137
        },
        {
          "name": "F#2",
          "midi": 42,
          "time": 165.9375000000003,
          "velocity": 0.8661417322834646,
          "duration": 0.15000000000000568
        },
        {
          "name": "F#3",
          "midi": 54,
          "time": 165.9375000000003,
          "velocity": 0.47244094488188976,
          "duration": 0.07499999999998863
        },
        {
          "name": "F#3",
          "midi": 54,
          "time": 166.0312500000003,
          "velocity": 0.47244094488188976,
          "duration": 0.07500000000001705
        },
        {
          "name": "F#3",
          "midi": 54,
          "time": 166.12500000000034,
          "velocity": 0.47244094488188976,
          "duration": 0.15000000000000568
        },
        {
          "name": "F#2",
          "midi": 42,
          "time": 166.12500000000034,
          "velocity": 0.8661417322834646,
          "duration": 0.15000000000000568
        },
        {
          "name": "D2",
          "midi": 38,
          "time": 166.12500000000034,
          "velocity": 0.8661417322834646,
          "duration": 0.30000000000001137
        },
        {
          "name": "F#3",
          "midi": 54,
          "time": 166.31250000000034,
          "velocity": 0.47244094488188976,
          "duration": 0.07499999999998863
        },
        {
          "name": "C2",
          "midi": 36,
          "time": 166.31250000000034,
          "velocity": 1,
          "duration": 0.15000000000000568
        },
        {
          "name": "A#2",
          "midi": 46,
          "time": 166.31250000000034,
          "velocity": 0.8661417322834646,
          "duration": 0.15000000000000568
        },
        {
          "name": "F#3",
          "midi": 54,
          "time": 166.40625000000034,
          "velocity": 0.47244094488188976,
          "duration": 0.07500000000001705
        },
        {
          "name": "F#3",
          "midi": 54,
          "time": 166.50000000000037,
          "velocity": 0.47244094488188976,
          "duration": 0.15000000000000568
        },
        {
          "name": "F#2",
          "midi": 42,
          "time": 166.50000000000037,
          "velocity": 0.8661417322834646,
          "duration": 0.15000000000000568
        },
        {
          "name": "C2",
          "midi": 36,
          "time": 166.50000000000037,
          "velocity": 1,
          "duration": 0.30000000000001137
        },
        {
          "name": "F#3",
          "midi": 54,
          "time": 166.68750000000037,
          "velocity": 0.47244094488188976,
          "duration": 0.07499999999998863
        },
        {
          "name": "F#2",
          "midi": 42,
          "time": 166.68750000000037,
          "velocity": 0.8661417322834646,
          "duration": 0.15000000000000568
        },
        {
          "name": "F#3",
          "midi": 54,
          "time": 166.78125000000037,
          "velocity": 0.47244094488188976,
          "duration": 0.07500000000001705
        },
        {
          "name": "F#3",
          "midi": 54,
          "time": 166.8750000000004,
          "velocity": 0.47244094488188976,
          "duration": 0.15000000000000568
        },
        {
          "name": "F#2",
          "midi": 42,
          "time": 166.8750000000004,
          "velocity": 0.8661417322834646,
          "duration": 0.15000000000000568
        },
        {
          "name": "D2",
          "midi": 38,
          "time": 166.8750000000004,
          "velocity": 0.8661417322834646,
          "duration": 0.30000000000001137
        },
        {
          "name": "F#3",
          "midi": 54,
          "time": 167.0625000000004,
          "velocity": 0.47244094488188976,
          "duration": 0.07499999999998863
        },
        {
          "name": "F#2",
          "midi": 42,
          "time": 167.0625000000004,
          "velocity": 0.8661417322834646,
          "duration": 0.15000000000000568
        },
        {
          "name": "F#3",
          "midi": 54,
          "time": 167.1562500000004,
          "velocity": 0.47244094488188976,
          "duration": 0.07500000000001705
        },
        {
          "name": "F#3",
          "midi": 54,
          "time": 167.25000000000043,
          "velocity": 0.47244094488188976,
          "duration": 0.15000000000000568
        },
        {
          "name": "F#2",
          "midi": 42,
          "time": 167.25000000000043,
          "velocity": 0.8661417322834646,
          "duration": 0.15000000000000568
        },
        {
          "name": "C2",
          "midi": 36,
          "time": 167.25000000000043,
          "velocity": 1,
          "duration": 0.30000000000001137
        },
        {
          "name": "F#3",
          "midi": 54,
          "time": 167.43750000000043,
          "velocity": 0.47244094488188976,
          "duration": 0.07499999999998863
        },
        {
          "name": "F#2",
          "midi": 42,
          "time": 167.43750000000043,
          "velocity": 0.8661417322834646,
          "duration": 0.15000000000000568
        },
        {
          "name": "F#3",
          "midi": 54,
          "time": 167.53125000000043,
          "velocity": 0.47244094488188976,
          "duration": 0.07500000000001705
        },
        {
          "name": "F#3",
          "midi": 54,
          "time": 167.62500000000045,
          "velocity": 0.47244094488188976,
          "duration": 0.15000000000000568
        },
        {
          "name": "F#2",
          "midi": 42,
          "time": 167.62500000000045,
          "velocity": 0.8661417322834646,
          "duration": 0.15000000000000568
        },
        {
          "name": "D2",
          "midi": 38,
          "time": 167.62500000000045,
          "velocity": 0.8661417322834646,
          "duration": 0.30000000000001137
        },
        {
          "name": "F#3",
          "midi": 54,
          "time": 167.81250000000045,
          "velocity": 0.47244094488188976,
          "duration": 0.07499999999998863
        },
        {
          "name": "A#2",
          "midi": 46,
          "time": 167.81250000000045,
          "velocity": 0.8661417322834646,
          "duration": 0.15000000000000568
        },
        {
          "name": "C2",
          "midi": 36,
          "time": 167.81250000000045,
          "velocity": 1,
          "duration": 0.15000000000000568
        },
        {
          "name": "F#3",
          "midi": 54,
          "time": 167.90625000000045,
          "velocity": 0.47244094488188976,
          "duration": 0.07500000000001705
        },
        {
          "name": "F#2",
          "midi": 42,
          "time": 168.00000000000048,
          "velocity": 0.8661417322834646,
          "duration": 0.15000000000000568
        },
        {
          "name": "F#3",
          "midi": 54,
          "time": 168.00000000000048,
          "velocity": 0.47244094488188976,
          "duration": 0.15000000000000568
        },
        {
          "name": "C2",
          "midi": 36,
          "time": 168.00000000000048,
          "velocity": 1,
          "duration": 0.30000000000001137
        },
        {
          "name": "F#3",
          "midi": 54,
          "time": 168.18750000000048,
          "velocity": 0.47244094488188976,
          "duration": 0.07499999999998863
        },
        {
          "name": "F#2",
          "midi": 42,
          "time": 168.18750000000048,
          "velocity": 0.8661417322834646,
          "duration": 0.15000000000000568
        },
        {
          "name": "F#3",
          "midi": 54,
          "time": 168.28125000000048,
          "velocity": 0.47244094488188976,
          "duration": 0.07500000000001705
        },
        {
          "name": "F#3",
          "midi": 54,
          "time": 168.3750000000005,
          "velocity": 0.47244094488188976,
          "duration": 0.15000000000000568
        },
        {
          "name": "F#2",
          "midi": 42,
          "time": 168.3750000000005,
          "velocity": 0.8661417322834646,
          "duration": 0.15000000000000568
        },
        {
          "name": "D2",
          "midi": 38,
          "time": 168.3750000000005,
          "velocity": 0.8661417322834646,
          "duration": 0.30000000000001137
        },
        {
          "name": "F#3",
          "midi": 54,
          "time": 168.5625000000005,
          "velocity": 0.47244094488188976,
          "duration": 0.07499999999998863
        },
        {
          "name": "F#2",
          "midi": 42,
          "time": 168.5625000000005,
          "velocity": 0.8661417322834646,
          "duration": 0.15000000000000568
        },
        {
          "name": "C2",
          "midi": 36,
          "time": 168.5625000000005,
          "velocity": 1,
          "duration": 0.15000000000000568
        },
        {
          "name": "F#3",
          "midi": 54,
          "time": 168.6562500000005,
          "velocity": 0.47244094488188976,
          "duration": 0.07500000000001705
        },
        {
          "name": "F#3",
          "midi": 54,
          "time": 168.75000000000054,
          "velocity": 0.47244094488188976,
          "duration": 0.15000000000000568
        },
        {
          "name": "F#2",
          "midi": 42,
          "time": 168.75000000000054,
          "velocity": 0.8661417322834646,
          "duration": 0.15000000000000568
        },
        {
          "name": "C2",
          "midi": 36,
          "time": 168.75000000000054,
          "velocity": 1,
          "duration": 0.30000000000001137
        },
        {
          "name": "F#3",
          "midi": 54,
          "time": 168.93750000000054,
          "velocity": 0.47244094488188976,
          "duration": 0.07499999999998863
        },
        {
          "name": "F#2",
          "midi": 42,
          "time": 168.93750000000054,
          "velocity": 0.8661417322834646,
          "duration": 0.15000000000000568
        },
        {
          "name": "F#3",
          "midi": 54,
          "time": 169.03125000000054,
          "velocity": 0.47244094488188976,
          "duration": 0.07500000000001705
        },
        {
          "name": "F#2",
          "midi": 42,
          "time": 169.12500000000057,
          "velocity": 0.8661417322834646,
          "duration": 0.15000000000000568
        },
        {
          "name": "F#3",
          "midi": 54,
          "time": 169.12500000000057,
          "velocity": 0.47244094488188976,
          "duration": 0.15000000000000568
        },
        {
          "name": "D2",
          "midi": 38,
          "time": 169.12500000000057,
          "velocity": 0.8661417322834646,
          "duration": 0.30000000000001137
        },
        {
          "name": "F#3",
          "midi": 54,
          "time": 169.31250000000057,
          "velocity": 0.47244094488188976,
          "duration": 0.07499999999998863
        },
        {
          "name": "F#2",
          "midi": 42,
          "time": 169.31250000000057,
          "velocity": 0.8661417322834646,
          "duration": 0.15000000000000568
        },
        {
          "name": "F#3",
          "midi": 54,
          "time": 169.40625000000057,
          "velocity": 0.47244094488188976,
          "duration": 0.07500000000001705
        },
        {
          "name": "F#3",
          "midi": 54,
          "time": 169.5000000000006,
          "velocity": 0.47244094488188976,
          "duration": 0.15000000000000568
        },
        {
          "name": "F#2",
          "midi": 42,
          "time": 169.5000000000006,
          "velocity": 0.8661417322834646,
          "duration": 0.15000000000000568
        },
        {
          "name": "C2",
          "midi": 36,
          "time": 169.5000000000006,
          "velocity": 1,
          "duration": 0.30000000000001137
        },
        {
          "name": "F#3",
          "midi": 54,
          "time": 169.6875000000006,
          "velocity": 0.47244094488188976,
          "duration": 0.07499999999998863
        },
        {
          "name": "F#2",
          "midi": 42,
          "time": 169.6875000000006,
          "velocity": 0.8661417322834646,
          "duration": 0.15000000000000568
        },
        {
          "name": "F#3",
          "midi": 54,
          "time": 169.7812500000006,
          "velocity": 0.47244094488188976,
          "duration": 0.07500000000001705
        },
        {
          "name": "F#2",
          "midi": 42,
          "time": 169.87500000000063,
          "velocity": 0.8661417322834646,
          "duration": 0.15000000000000568
        },
        {
          "name": "F#3",
          "midi": 54,
          "time": 169.87500000000063,
          "velocity": 0.47244094488188976,
          "duration": 0.15000000000000568
        },
        {
          "name": "D2",
          "midi": 38,
          "time": 169.87500000000063,
          "velocity": 0.8661417322834646,
          "duration": 0.30000000000001137
        },
        {
          "name": "F#2",
          "midi": 42,
          "time": 170.06250000000063,
          "velocity": 0.8661417322834646,
          "duration": 0.15000000000000568
        },
        {
          "name": "F#3",
          "midi": 54,
          "time": 170.06250000000063,
          "velocity": 0.47244094488188976,
          "duration": 0.07499999999998863
        },
        {
          "name": "C2",
          "midi": 36,
          "time": 170.06250000000063,
          "velocity": 1,
          "duration": 0.15000000000000568
        },
        {
          "name": "F#3",
          "midi": 54,
          "time": 170.15625000000063,
          "velocity": 0.47244094488188976,
          "duration": 0.07500000000001705
        },
        {
          "name": "F#2",
          "midi": 42,
          "time": 170.25000000000065,
          "velocity": 0.8661417322834646,
          "duration": 0.15000000000000568
        },
        {
          "name": "C2",
          "midi": 36,
          "time": 170.25000000000065,
          "velocity": 1,
          "duration": 0.15000000000000568
        },
        {
          "name": "F#3",
          "midi": 54,
          "time": 170.25000000000065,
          "velocity": 0.47244094488188976,
          "duration": 0.15000000000000568
        },
        {
          "name": "F#3",
          "midi": 54,
          "time": 170.43750000000065,
          "velocity": 0.47244094488188976,
          "duration": 0.07499999999998863
        },
        {
          "name": "A3",
          "midi": 57,
          "time": 170.43750000000065,
          "velocity": 0.8661417322834646,
          "duration": 0.15000000000000568
        },
        {
          "name": "F#2",
          "midi": 42,
          "time": 170.43750000000065,
          "velocity": 0.8661417322834646,
          "duration": 0.15000000000000568
        },
        {
          "name": "C2",
          "midi": 36,
          "time": 170.43750000000065,
          "velocity": 1,
          "duration": 0.4875000000000398
        },
        {
          "name": "F#3",
          "midi": 54,
          "time": 170.53125000000065,
          "velocity": 0.47244094488188976,
          "duration": 0.07500000000001705
        },
        {
          "name": "F#2",
          "midi": 42,
          "time": 170.62500000000068,
          "velocity": 0.8661417322834646,
          "duration": 0.15000000000000568
        },
        {
          "name": "F#3",
          "midi": 54,
          "time": 170.62500000000068,
          "velocity": 0.47244094488188976,
          "duration": 0.15000000000000568
        },
        {
          "name": "D2",
          "midi": 38,
          "time": 170.62500000000068,
          "velocity": 0.8661417322834646,
          "duration": 0.30000000000001137
        },
        {
          "name": "F#3",
          "midi": 54,
          "time": 170.81250000000068,
          "velocity": 0.47244094488188976,
          "duration": 0.07499999999998863
        },
        {
          "name": "A#2",
          "midi": 46,
          "time": 170.81250000000068,
          "velocity": 0.8661417322834646,
          "duration": 0.15000000000000568
        },
        {
          "name": "F#3",
          "midi": 54,
          "time": 170.90625000000068,
          "velocity": 0.47244094488188976,
          "duration": 0.07500000000001705
        },
        {
          "name": "F#2",
          "midi": 42,
          "time": 171.0000000000007,
          "velocity": 0.8661417322834646,
          "duration": 0.15000000000000568
        },
        {
          "name": "F#3",
          "midi": 54,
          "time": 171.0000000000007,
          "velocity": 0.47244094488188976,
          "duration": 0.15000000000000568
        },
        {
          "name": "C2",
          "midi": 36,
          "time": 171.0000000000007,
          "velocity": 1,
          "duration": 0.30000000000001137
        },
        {
          "name": "F#3",
          "midi": 54,
          "time": 171.1875000000007,
          "velocity": 0.47244094488188976,
          "duration": 0.07499999999998863
        },
        {
          "name": "F#2",
          "midi": 42,
          "time": 171.1875000000007,
          "velocity": 0.8661417322834646,
          "duration": 0.15000000000000568
        },
        {
          "name": "F#3",
          "midi": 54,
          "time": 171.2812500000007,
          "velocity": 0.47244094488188976,
          "duration": 0.07500000000001705
        },
        {
          "name": "F#2",
          "midi": 42,
          "time": 171.37500000000074,
          "velocity": 0.8661417322834646,
          "duration": 0.15000000000000568
        },
        {
          "name": "F#3",
          "midi": 54,
          "time": 171.37500000000074,
          "velocity": 0.47244094488188976,
          "duration": 0.15000000000000568
        },
        {
          "name": "D2",
          "midi": 38,
          "time": 171.37500000000074,
          "velocity": 0.8661417322834646,
          "duration": 0.30000000000001137
        },
        {
          "name": "F#3",
          "midi": 54,
          "time": 171.56250000000074,
          "velocity": 0.47244094488188976,
          "duration": 0.07499999999998863
        },
        {
          "name": "F#2",
          "midi": 42,
          "time": 171.56250000000074,
          "velocity": 0.8661417322834646,
          "duration": 0.15000000000000568
        },
        {
          "name": "F#3",
          "midi": 54,
          "time": 171.65625000000074,
          "velocity": 0.47244094488188976,
          "duration": 0.07500000000001705
        },
        {
          "name": "F#2",
          "midi": 42,
          "time": 171.75000000000077,
          "velocity": 0.8661417322834646,
          "duration": 0.15000000000000568
        },
        {
          "name": "F#3",
          "midi": 54,
          "time": 171.75000000000077,
          "velocity": 0.47244094488188976,
          "duration": 0.15000000000000568
        },
        {
          "name": "C2",
          "midi": 36,
          "time": 171.75000000000077,
          "velocity": 1,
          "duration": 0.30000000000001137
        },
        {
          "name": "F#2",
          "midi": 42,
          "time": 171.93750000000077,
          "velocity": 0.8661417322834646,
          "duration": 0.15000000000000568
        },
        {
          "name": "F#3",
          "midi": 54,
          "time": 171.93750000000077,
          "velocity": 0.47244094488188976,
          "duration": 0.07499999999998863
        },
        {
          "name": "F#3",
          "midi": 54,
          "time": 172.03125000000077,
          "velocity": 0.47244094488188976,
          "duration": 0.07500000000001705
        },
        {
          "name": "F#2",
          "midi": 42,
          "time": 172.1250000000008,
          "velocity": 0.8661417322834646,
          "duration": 0.15000000000000568
        },
        {
          "name": "F#3",
          "midi": 54,
          "time": 172.1250000000008,
          "velocity": 0.47244094488188976,
          "duration": 0.15000000000000568
        },
        {
          "name": "D2",
          "midi": 38,
          "time": 172.1250000000008,
          "velocity": 0.8661417322834646,
          "duration": 0.30000000000001137
        },
        {
          "name": "F#3",
          "midi": 54,
          "time": 172.3125000000008,
          "velocity": 0.47244094488188976,
          "duration": 0.07499999999998863
        },
        {
          "name": "A#2",
          "midi": 46,
          "time": 172.3125000000008,
          "velocity": 0.8661417322834646,
          "duration": 0.15000000000000568
        },
        {
          "name": "C2",
          "midi": 36,
          "time": 172.3125000000008,
          "velocity": 1,
          "duration": 0.15000000000000568
        },
        {
          "name": "F#3",
          "midi": 54,
          "time": 172.4062500000008,
          "velocity": 0.47244094488188976,
          "duration": 0.07500000000001705
        },
        {
          "name": "F#2",
          "midi": 42,
          "time": 172.50000000000082,
          "velocity": 0.8661417322834646,
          "duration": 0.15000000000000568
        },
        {
          "name": "F#3",
          "midi": 54,
          "time": 172.50000000000082,
          "velocity": 0.47244094488188976,
          "duration": 0.15000000000000568
        },
        {
          "name": "C2",
          "midi": 36,
          "time": 172.50000000000082,
          "velocity": 1,
          "duration": 0.30000000000001137
        },
        {
          "name": "F#3",
          "midi": 54,
          "time": 172.68750000000082,
          "velocity": 0.47244094488188976,
          "duration": 0.07499999999998863
        },
        {
          "name": "F#2",
          "midi": 42,
          "time": 172.68750000000082,
          "velocity": 0.8661417322834646,
          "duration": 0.15000000000000568
        },
        {
          "name": "F#3",
          "midi": 54,
          "time": 172.78125000000082,
          "velocity": 0.47244094488188976,
          "duration": 0.07500000000001705
        },
        {
          "name": "F#2",
          "midi": 42,
          "time": 172.87500000000085,
          "velocity": 0.8661417322834646,
          "duration": 0.15000000000000568
        },
        {
          "name": "F#3",
          "midi": 54,
          "time": 172.87500000000085,
          "velocity": 0.47244094488188976,
          "duration": 0.15000000000000568
        },
        {
          "name": "D2",
          "midi": 38,
          "time": 172.87500000000085,
          "velocity": 0.8661417322834646,
          "duration": 0.30000000000001137
        },
        {
          "name": "F#3",
          "midi": 54,
          "time": 173.06250000000085,
          "velocity": 0.47244094488188976,
          "duration": 0.07499999999998863
        },
        {
          "name": "F#2",
          "midi": 42,
          "time": 173.06250000000085,
          "velocity": 0.8661417322834646,
          "duration": 0.15000000000000568
        },
        {
          "name": "F#3",
          "midi": 54,
          "time": 173.15625000000085,
          "velocity": 0.47244094488188976,
          "duration": 0.07500000000001705
        },
        {
          "name": "F#2",
          "midi": 42,
          "time": 173.25000000000088,
          "velocity": 0.8661417322834646,
          "duration": 0.15000000000000568
        },
        {
          "name": "F#3",
          "midi": 54,
          "time": 173.25000000000088,
          "velocity": 0.47244094488188976,
          "duration": 0.15000000000000568
        },
        {
          "name": "C2",
          "midi": 36,
          "time": 173.25000000000088,
          "velocity": 1,
          "duration": 0.30000000000001137
        },
        {
          "name": "F#3",
          "midi": 54,
          "time": 173.43750000000088,
          "velocity": 0.47244094488188976,
          "duration": 0.07499999999998863
        },
        {
          "name": "F#2",
          "midi": 42,
          "time": 173.43750000000088,
          "velocity": 0.8661417322834646,
          "duration": 0.15000000000000568
        },
        {
          "name": "F#3",
          "midi": 54,
          "time": 173.53125000000088,
          "velocity": 0.47244094488188976,
          "duration": 0.07500000000001705
        },
        {
          "name": "F#2",
          "midi": 42,
          "time": 173.6250000000009,
          "velocity": 0.8661417322834646,
          "duration": 0.15000000000000568
        },
        {
          "name": "F#3",
          "midi": 54,
          "time": 173.6250000000009,
          "velocity": 0.47244094488188976,
          "duration": 0.15000000000000568
        },
        {
          "name": "D2",
          "midi": 38,
          "time": 173.6250000000009,
          "velocity": 0.8661417322834646,
          "duration": 0.30000000000001137
        },
        {
          "name": "F#3",
          "midi": 54,
          "time": 173.8125000000009,
          "velocity": 0.47244094488188976,
          "duration": 0.07499999999998863
        },
        {
          "name": "A#2",
          "midi": 46,
          "time": 173.8125000000009,
          "velocity": 0.8661417322834646,
          "duration": 0.15000000000000568
        },
        {
          "name": "C2",
          "midi": 36,
          "time": 173.8125000000009,
          "velocity": 1,
          "duration": 0.15000000000000568
        },
        {
          "name": "F#3",
          "midi": 54,
          "time": 173.9062500000009,
          "velocity": 0.47244094488188976,
          "duration": 0.07500000000001705
        },
        {
          "name": "F#2",
          "midi": 42,
          "time": 174.00000000000094,
          "velocity": 0.8661417322834646,
          "duration": 0.15000000000000568
        },
        {
          "name": "F#3",
          "midi": 54,
          "time": 174.00000000000094,
          "velocity": 0.47244094488188976,
          "duration": 0.15000000000000568
        },
        {
          "name": "C2",
          "midi": 36,
          "time": 174.00000000000094,
          "velocity": 1,
          "duration": 0.30000000000001137
        },
        {
          "name": "F#3",
          "midi": 54,
          "time": 174.18750000000094,
          "velocity": 0.47244094488188976,
          "duration": 0.07499999999998863
        },
        {
          "name": "F#2",
          "midi": 42,
          "time": 174.18750000000094,
          "velocity": 0.8661417322834646,
          "duration": 0.15000000000000568
        },
        {
          "name": "F#3",
          "midi": 54,
          "time": 174.28125000000094,
          "velocity": 0.47244094488188976,
          "duration": 0.07500000000001705
        },
        {
          "name": "F#2",
          "midi": 42,
          "time": 174.37500000000097,
          "velocity": 0.8661417322834646,
          "duration": 0.15000000000000568
        },
        {
          "name": "F#3",
          "midi": 54,
          "time": 174.37500000000097,
          "velocity": 0.47244094488188976,
          "duration": 0.15000000000000568
        },
        {
          "name": "D2",
          "midi": 38,
          "time": 174.37500000000097,
          "velocity": 0.8661417322834646,
          "duration": 0.30000000000001137
        },
        {
          "name": "F#3",
          "midi": 54,
          "time": 174.56250000000097,
          "velocity": 0.47244094488188976,
          "duration": 0.07499999999998863
        },
        {
          "name": "F#2",
          "midi": 42,
          "time": 174.56250000000097,
          "velocity": 0.8661417322834646,
          "duration": 0.15000000000000568
        },
        {
          "name": "C2",
          "midi": 36,
          "time": 174.56250000000097,
          "velocity": 1,
          "duration": 0.15000000000000568
        },
        {
          "name": "F#3",
          "midi": 54,
          "time": 174.65625000000097,
          "velocity": 0.47244094488188976,
          "duration": 0.07500000000001705
        },
        {
          "name": "F#3",
          "midi": 54,
          "time": 174.750000000001,
          "velocity": 0.47244094488188976,
          "duration": 0.15000000000000568
        },
        {
          "name": "F#2",
          "midi": 42,
          "time": 174.750000000001,
          "velocity": 0.8661417322834646,
          "duration": 0.15000000000000568
        },
        {
          "name": "C2",
          "midi": 36,
          "time": 174.750000000001,
          "velocity": 1,
          "duration": 0.30000000000001137
        },
        {
          "name": "F#3",
          "midi": 54,
          "time": 174.937500000001,
          "velocity": 0.47244094488188976,
          "duration": 0.07499999999998863
        },
        {
          "name": "F#2",
          "midi": 42,
          "time": 174.937500000001,
          "velocity": 0.8661417322834646,
          "duration": 0.15000000000000568
        },
        {
          "name": "D3",
          "midi": 50,
          "time": 174.937500000001,
          "velocity": 1,
          "duration": 0.15000000000000568
        },
        {
          "name": "F#3",
          "midi": 54,
          "time": 175.031250000001,
          "velocity": 0.47244094488188976,
          "duration": 0.07500000000001705
        },
        {
          "name": "F#2",
          "midi": 42,
          "time": 175.12500000000102,
          "velocity": 0.8661417322834646,
          "duration": 0.15000000000000568
        },
        {
          "name": "F#3",
          "midi": 54,
          "time": 175.12500000000102,
          "velocity": 0.47244094488188976,
          "duration": 0.15000000000000568
        },
        {
          "name": "D3",
          "midi": 50,
          "time": 175.12500000000102,
          "velocity": 1,
          "duration": 0.15000000000000568
        },
        {
          "name": "D2",
          "midi": 38,
          "time": 175.12500000000102,
          "velocity": 0.8661417322834646,
          "duration": 0.30000000000001137
        },
        {
          "name": "F#3",
          "midi": 54,
          "time": 175.31250000000102,
          "velocity": 0.47244094488188976,
          "duration": 0.07499999999998863
        },
        {
          "name": "F#2",
          "midi": 42,
          "time": 175.31250000000102,
          "velocity": 0.8661417322834646,
          "duration": 0.15000000000000568
        },
        {
          "name": "D3",
          "midi": 50,
          "time": 175.31250000000102,
          "velocity": 1,
          "duration": 0.15000000000000568
        },
        {
          "name": "F#3",
          "midi": 54,
          "time": 175.40625000000102,
          "velocity": 0.47244094488188976,
          "duration": 0.07500000000001705
        },
        {
          "name": "F#3",
          "midi": 54,
          "time": 175.50000000000105,
          "velocity": 0.47244094488188976,
          "duration": 0.15000000000000568
        },
        {
          "name": "F#2",
          "midi": 42,
          "time": 175.50000000000105,
          "velocity": 0.8661417322834646,
          "duration": 0.15000000000000568
        },
        {
          "name": "C2",
          "midi": 36,
          "time": 175.50000000000105,
          "velocity": 1,
          "duration": 0.30000000000001137
        },
        {
          "name": "F#3",
          "midi": 54,
          "time": 175.68750000000105,
          "velocity": 0.47244094488188976,
          "duration": 0.07499999999998863
        },
        {
          "name": "F#2",
          "midi": 42,
          "time": 175.68750000000105,
          "velocity": 0.8661417322834646,
          "duration": 0.15000000000000568
        },
        {
          "name": "C3",
          "midi": 48,
          "time": 175.68750000000105,
          "velocity": 1,
          "duration": 0.15000000000000568
        },
        {
          "name": "F#3",
          "midi": 54,
          "time": 175.78125000000105,
          "velocity": 0.47244094488188976,
          "duration": 0.07500000000001705
        },
        {
          "name": "F#2",
          "midi": 42,
          "time": 175.87500000000108,
          "velocity": 0.8661417322834646,
          "duration": 0.15000000000000568
        },
        {
          "name": "B2",
          "midi": 47,
          "time": 175.87500000000108,
          "velocity": 1,
          "duration": 0.15000000000000568
        },
        {
          "name": "F#3",
          "midi": 54,
          "time": 175.87500000000108,
          "velocity": 0.47244094488188976,
          "duration": 0.15000000000000568
        },
        {
          "name": "D2",
          "midi": 38,
          "time": 175.87500000000108,
          "velocity": 0.8661417322834646,
          "duration": 0.30000000000001137
        },
        {
          "name": "G2",
          "midi": 43,
          "time": 176.06250000000108,
          "velocity": 1,
          "duration": 0.15000000000000568
        },
        {
          "name": "F#3",
          "midi": 54,
          "time": 176.06250000000108,
          "velocity": 0.47244094488188976,
          "duration": 0.07499999999998863
        },
        {
          "name": "C2",
          "midi": 36,
          "time": 176.06250000000108,
          "velocity": 1,
          "duration": 0.15000000000000568
        },
        {
          "name": "F#2",
          "midi": 42,
          "time": 176.06250000000108,
          "velocity": 0.8661417322834646,
          "duration": 0.15000000000000568
        },
        {
          "name": "F#3",
          "midi": 54,
          "time": 176.15625000000108,
          "velocity": 0.47244094488188976,
          "duration": 0.07500000000001705
        },
        {
          "name": "F#3",
          "midi": 54,
          "time": 176.2500000000011,
          "velocity": 0.47244094488188976,
          "duration": 0.15000000000000568
        },
        {
          "name": "F#2",
          "midi": 42,
          "time": 176.2500000000011,
          "velocity": 0.8661417322834646,
          "duration": 0.15000000000000568
        },
        {
          "name": "C2",
          "midi": 36,
          "time": 176.2500000000011,
          "velocity": 1,
          "duration": 0.15000000000000568
        },
        {
          "name": "F#3",
          "midi": 54,
          "time": 176.4375000000011,
          "velocity": 0.47244094488188976,
          "duration": 0.07499999999998863
        },
        {
          "name": "A3",
          "midi": 57,
          "time": 176.4375000000011,
          "velocity": 0.8661417322834646,
          "duration": 0.15000000000000568
        },
        {
          "name": "F#2",
          "midi": 42,
          "time": 176.4375000000011,
          "velocity": 0.8661417322834646,
          "duration": 0.15000000000000568
        },
        {
          "name": "C2",
          "midi": 36,
          "time": 176.4375000000011,
          "velocity": 1,
          "duration": 0.4875000000000398
        },
        {
          "name": "F#3",
          "midi": 54,
          "time": 176.5312500000011,
          "velocity": 0.47244094488188976,
          "duration": 0.07500000000001705
        },
        {
          "name": "F#3",
          "midi": 54,
          "time": 176.62500000000114,
          "velocity": 0.47244094488188976,
          "duration": 0.15000000000000568
        },
        {
          "name": "F#2",
          "midi": 42,
          "time": 176.62500000000114,
          "velocity": 0.8661417322834646,
          "duration": 0.15000000000000568
        },
        {
          "name": "D2",
          "midi": 38,
          "time": 176.62500000000114,
          "velocity": 0.8661417322834646,
          "duration": 0.30000000000001137
        },
        {
          "name": "F#3",
          "midi": 54,
          "time": 176.81250000000114,
          "velocity": 0.47244094488188976,
          "duration": 0.07499999999998863
        },
        {
          "name": "F#3",
          "midi": 54,
          "time": 176.90625000000114,
          "velocity": 0.47244094488188976,
          "duration": 0.07500000000001705
        },
        {
          "name": "F#2",
          "midi": 42,
          "time": 177.00000000000117,
          "velocity": 0.8661417322834646,
          "duration": 0.15000000000000568
        },
        {
          "name": "F#3",
          "midi": 54,
          "time": 177.00000000000117,
          "velocity": 0.47244094488188976,
          "duration": 0.15000000000000568
        },
        {
          "name": "C2",
          "midi": 36,
          "time": 177.00000000000117,
          "velocity": 1,
          "duration": 0.30000000000001137
        },
        {
          "name": "F#3",
          "midi": 54,
          "time": 177.18750000000117,
          "velocity": 0.47244094488188976,
          "duration": 0.07499999999998863
        },
        {
          "name": "F#2",
          "midi": 42,
          "time": 177.18750000000117,
          "velocity": 0.8661417322834646,
          "duration": 0.15000000000000568
        },
        {
          "name": "F#3",
          "midi": 54,
          "time": 177.28125000000117,
          "velocity": 0.47244094488188976,
          "duration": 0.07500000000001705
        },
        {
          "name": "F#3",
          "midi": 54,
          "time": 177.3750000000012,
          "velocity": 0.47244094488188976,
          "duration": 0.15000000000000568
        },
        {
          "name": "F#2",
          "midi": 42,
          "time": 177.3750000000012,
          "velocity": 0.8661417322834646,
          "duration": 0.15000000000000568
        },
        {
          "name": "D2",
          "midi": 38,
          "time": 177.3750000000012,
          "velocity": 0.8661417322834646,
          "duration": 0.30000000000001137
        },
        {
          "name": "F#3",
          "midi": 54,
          "time": 177.5625000000012,
          "velocity": 0.47244094488188976,
          "duration": 0.07499999999998863
        },
        {
          "name": "F#2",
          "midi": 42,
          "time": 177.5625000000012,
          "velocity": 0.8661417322834646,
          "duration": 0.15000000000000568
        },
        {
          "name": "F#3",
          "midi": 54,
          "time": 177.6562500000012,
          "velocity": 0.47244094488188976,
          "duration": 0.07500000000001705
        },
        {
          "name": "F#3",
          "midi": 54,
          "time": 177.75000000000122,
          "velocity": 0.47244094488188976,
          "duration": 0.15000000000000568
        },
        {
          "name": "F#2",
          "midi": 42,
          "time": 177.75000000000122,
          "velocity": 0.8661417322834646,
          "duration": 0.15000000000000568
        },
        {
          "name": "C2",
          "midi": 36,
          "time": 177.75000000000122,
          "velocity": 1,
          "duration": 0.30000000000001137
        },
        {
          "name": "F#2",
          "midi": 42,
          "time": 177.93750000000122,
          "velocity": 0.8661417322834646,
          "duration": 0.15000000000000568
        },
        {
          "name": "F#3",
          "midi": 54,
          "time": 177.93750000000122,
          "velocity": 0.47244094488188976,
          "duration": 0.07499999999998863
        },
        {
          "name": "F#3",
          "midi": 54,
          "time": 178.03125000000122,
          "velocity": 0.47244094488188976,
          "duration": 0.07500000000001705
        },
        {
          "name": "F#3",
          "midi": 54,
          "time": 178.12500000000125,
          "velocity": 0.47244094488188976,
          "duration": 0.15000000000000568
        },
        {
          "name": "F#2",
          "midi": 42,
          "time": 178.12500000000125,
          "velocity": 0.8661417322834646,
          "duration": 0.15000000000000568
        },
        {
          "name": "D2",
          "midi": 38,
          "time": 178.12500000000125,
          "velocity": 0.8661417322834646,
          "duration": 0.30000000000001137
        },
        {
          "name": "F#3",
          "midi": 54,
          "time": 178.31250000000125,
          "velocity": 0.47244094488188976,
          "duration": 0.07499999999998863
        },
        {
          "name": "C2",
          "midi": 36,
          "time": 178.31250000000125,
          "velocity": 1,
          "duration": 0.15000000000000568
        },
        {
          "name": "A#2",
          "midi": 46,
          "time": 178.31250000000125,
          "velocity": 0.8661417322834646,
          "duration": 0.15000000000000568
        },
        {
          "name": "F#3",
          "midi": 54,
          "time": 178.40625000000125,
          "velocity": 0.47244094488188976,
          "duration": 0.07500000000001705
        },
        {
          "name": "F#3",
          "midi": 54,
          "time": 178.50000000000128,
          "velocity": 0.47244094488188976,
          "duration": 0.15000000000000568
        },
        {
          "name": "F#2",
          "midi": 42,
          "time": 178.50000000000128,
          "velocity": 0.8661417322834646,
          "duration": 0.15000000000000568
        },
        {
          "name": "C2",
          "midi": 36,
          "time": 178.50000000000128,
          "velocity": 1,
          "duration": 0.30000000000001137
        },
        {
          "name": "F#3",
          "midi": 54,
          "time": 178.68750000000128,
          "velocity": 0.47244094488188976,
          "duration": 0.07499999999998863
        },
        {
          "name": "F#2",
          "midi": 42,
          "time": 178.68750000000128,
          "velocity": 0.8661417322834646,
          "duration": 0.15000000000000568
        },
        {
          "name": "F#3",
          "midi": 54,
          "time": 178.78125000000128,
          "velocity": 0.47244094488188976,
          "duration": 0.07500000000001705
        },
        {
          "name": "F#2",
          "midi": 42,
          "time": 178.8750000000013,
          "velocity": 0.8661417322834646,
          "duration": 0.15000000000000568
        },
        {
          "name": "F#3",
          "midi": 54,
          "time": 178.8750000000013,
          "velocity": 0.47244094488188976,
          "duration": 0.15000000000000568
        },
        {
          "name": "D2",
          "midi": 38,
          "time": 178.8750000000013,
          "velocity": 0.8661417322834646,
          "duration": 0.30000000000001137
        },
        {
          "name": "F#3",
          "midi": 54,
          "time": 179.0625000000013,
          "velocity": 0.47244094488188976,
          "duration": 0.07499999999998863
        },
        {
          "name": "F#2",
          "midi": 42,
          "time": 179.0625000000013,
          "velocity": 0.8661417322834646,
          "duration": 0.15000000000000568
        },
        {
          "name": "F#3",
          "midi": 54,
          "time": 179.1562500000013,
          "velocity": 0.47244094488188976,
          "duration": 0.07500000000001705
        },
        {
          "name": "F#3",
          "midi": 54,
          "time": 179.25000000000134,
          "velocity": 0.47244094488188976,
          "duration": 0.15000000000000568
        },
        {
          "name": "F#2",
          "midi": 42,
          "time": 179.25000000000134,
          "velocity": 0.8661417322834646,
          "duration": 0.15000000000000568
        },
        {
          "name": "C2",
          "midi": 36,
          "time": 179.25000000000134,
          "velocity": 1,
          "duration": 0.30000000000001137
        },
        {
          "name": "F#3",
          "midi": 54,
          "time": 179.43750000000134,
          "velocity": 0.47244094488188976,
          "duration": 0.07499999999998863
        },
        {
          "name": "F#2",
          "midi": 42,
          "time": 179.43750000000134,
          "velocity": 0.8661417322834646,
          "duration": 0.15000000000000568
        },
        {
          "name": "F#3",
          "midi": 54,
          "time": 179.53125000000134,
          "velocity": 0.47244094488188976,
          "duration": 0.07500000000001705
        },
        {
          "name": "F#3",
          "midi": 54,
          "time": 179.62500000000136,
          "velocity": 0.47244094488188976,
          "duration": 0.15000000000000568
        },
        {
          "name": "F#2",
          "midi": 42,
          "time": 179.62500000000136,
          "velocity": 0.8661417322834646,
          "duration": 0.15000000000000568
        },
        {
          "name": "D2",
          "midi": 38,
          "time": 179.62500000000136,
          "velocity": 0.8661417322834646,
          "duration": 0.30000000000001137
        },
        {
          "name": "F#3",
          "midi": 54,
          "time": 179.81250000000136,
          "velocity": 0.47244094488188976,
          "duration": 0.07499999999998863
        },
        {
          "name": "A#2",
          "midi": 46,
          "time": 179.81250000000136,
          "velocity": 0.8661417322834646,
          "duration": 0.15000000000000568
        },
        {
          "name": "C2",
          "midi": 36,
          "time": 179.81250000000136,
          "velocity": 1,
          "duration": 0.15000000000000568
        },
        {
          "name": "F#3",
          "midi": 54,
          "time": 179.90625000000136,
          "velocity": 0.47244094488188976,
          "duration": 0.07500000000001705
        },
        {
          "name": "F#2",
          "midi": 42,
          "time": 180.0000000000014,
          "velocity": 0.8661417322834646,
          "duration": 0.15000000000000568
        },
        {
          "name": "F#3",
          "midi": 54,
          "time": 180.0000000000014,
          "velocity": 0.47244094488188976,
          "duration": 0.15000000000000568
        },
        {
          "name": "C2",
          "midi": 36,
          "time": 180.0000000000014,
          "velocity": 1,
          "duration": 0.30000000000001137
        },
        {
          "name": "F#3",
          "midi": 54,
          "time": 180.1875000000014,
          "velocity": 0.47244094488188976,
          "duration": 0.07499999999998863
        },
        {
          "name": "F#2",
          "midi": 42,
          "time": 180.1875000000014,
          "velocity": 0.8661417322834646,
          "duration": 0.15000000000000568
        },
        {
          "name": "F#3",
          "midi": 54,
          "time": 180.2812500000014,
          "velocity": 0.47244094488188976,
          "duration": 0.07500000000001705
        },
        {
          "name": "F#2",
          "midi": 42,
          "time": 180.37500000000142,
          "velocity": 0.8661417322834646,
          "duration": 0.15000000000000568
        },
        {
          "name": "F#3",
          "midi": 54,
          "time": 180.37500000000142,
          "velocity": 0.47244094488188976,
          "duration": 0.15000000000000568
        },
        {
          "name": "D2",
          "midi": 38,
          "time": 180.37500000000142,
          "velocity": 0.8661417322834646,
          "duration": 0.30000000000001137
        },
        {
          "name": "F#3",
          "midi": 54,
          "time": 180.56250000000142,
          "velocity": 0.47244094488188976,
          "duration": 0.07499999999998863
        },
        {
          "name": "C2",
          "midi": 36,
          "time": 180.56250000000142,
          "velocity": 1,
          "duration": 0.15000000000000568
        },
        {
          "name": "F#2",
          "midi": 42,
          "time": 180.56250000000142,
          "velocity": 0.8661417322834646,
          "duration": 0.15000000000000568
        },
        {
          "name": "F#3",
          "midi": 54,
          "time": 180.65625000000142,
          "velocity": 0.47244094488188976,
          "duration": 0.07500000000001705
        },
        {
          "name": "F#3",
          "midi": 54,
          "time": 180.75000000000145,
          "velocity": 0.47244094488188976,
          "duration": 0.15000000000000568
        },
        {
          "name": "F#2",
          "midi": 42,
          "time": 180.75000000000145,
          "velocity": 0.8661417322834646,
          "duration": 0.15000000000000568
        },
        {
          "name": "C2",
          "midi": 36,
          "time": 180.75000000000145,
          "velocity": 1,
          "duration": 0.30000000000001137
        },
        {
          "name": "F#3",
          "midi": 54,
          "time": 180.93750000000145,
          "velocity": 0.47244094488188976,
          "duration": 0.07499999999998863
        },
        {
          "name": "F#2",
          "midi": 42,
          "time": 180.93750000000145,
          "velocity": 0.8661417322834646,
          "duration": 0.15000000000000568
        },
        {
          "name": "F#3",
          "midi": 54,
          "time": 181.03125000000145,
          "velocity": 0.47244094488188976,
          "duration": 0.07500000000001705
        },
        {
          "name": "F#2",
          "midi": 42,
          "time": 181.12500000000148,
          "velocity": 0.8661417322834646,
          "duration": 0.15000000000000568
        },
        {
          "name": "F#3",
          "midi": 54,
          "time": 181.12500000000148,
          "velocity": 0.47244094488188976,
          "duration": 0.15000000000000568
        },
        {
          "name": "D2",
          "midi": 38,
          "time": 181.12500000000148,
          "velocity": 0.8661417322834646,
          "duration": 0.30000000000001137
        },
        {
          "name": "F#3",
          "midi": 54,
          "time": 181.31250000000148,
          "velocity": 0.47244094488188976,
          "duration": 0.07499999999998863
        },
        {
          "name": "F#2",
          "midi": 42,
          "time": 181.31250000000148,
          "velocity": 0.8661417322834646,
          "duration": 0.15000000000000568
        },
        {
          "name": "F#3",
          "midi": 54,
          "time": 181.40625000000148,
          "velocity": 0.47244094488188976,
          "duration": 0.07500000000001705
        },
        {
          "name": "F#3",
          "midi": 54,
          "time": 181.5000000000015,
          "velocity": 0.47244094488188976,
          "duration": 0.15000000000000568
        },
        {
          "name": "G2",
          "midi": 43,
          "time": 181.5000000000015,
          "velocity": 1,
          "duration": 0.15000000000000568
        },
        {
          "name": "F#2",
          "midi": 42,
          "time": 181.5000000000015,
          "velocity": 0.8661417322834646,
          "duration": 0.15000000000000568
        },
        {
          "name": "C2",
          "midi": 36,
          "time": 181.5000000000015,
          "velocity": 1,
          "duration": 0.30000000000001137
        },
        {
          "name": "F#3",
          "midi": 54,
          "time": 181.6875000000015,
          "velocity": 0.47244094488188976,
          "duration": 0.07499999999998863
        },
        {
          "name": "F#2",
          "midi": 42,
          "time": 181.6875000000015,
          "velocity": 0.8661417322834646,
          "duration": 0.15000000000000568
        },
        {
          "name": "D3",
          "midi": 50,
          "time": 181.6875000000015,
          "velocity": 1,
          "duration": 0.15000000000000568
        },
        {
          "name": "F#3",
          "midi": 54,
          "time": 181.7812500000015,
          "velocity": 0.47244094488188976,
          "duration": 0.07500000000001705
        },
        {
          "name": "F#2",
          "midi": 42,
          "time": 181.87500000000153,
          "velocity": 0.8661417322834646,
          "duration": 0.15000000000000568
        },
        {
          "name": "D3",
          "midi": 50,
          "time": 181.87500000000153,
          "velocity": 1,
          "duration": 0.15000000000000568
        },
        {
          "name": "F#3",
          "midi": 54,
          "time": 181.87500000000153,
          "velocity": 0.47244094488188976,
          "duration": 0.15000000000000568
        },
        {
          "name": "D2",
          "midi": 38,
          "time": 181.87500000000153,
          "velocity": 0.8661417322834646,
          "duration": 0.30000000000001137
        },
        {
          "name": "F#2",
          "midi": 42,
          "time": 182.06250000000153,
          "velocity": 0.8661417322834646,
          "duration": 0.15000000000000568
        },
        {
          "name": "F#3",
          "midi": 54,
          "time": 182.06250000000153,
          "velocity": 0.47244094488188976,
          "duration": 0.07499999999998863
        },
        {
          "name": "C3",
          "midi": 48,
          "time": 182.06250000000153,
          "velocity": 1,
          "duration": 0.15000000000000568
        },
        {
          "name": "C2",
          "midi": 36,
          "time": 182.06250000000153,
          "velocity": 1,
          "duration": 0.15000000000000568
        },
        {
          "name": "F#3",
          "midi": 54,
          "time": 182.15625000000153,
          "velocity": 0.47244094488188976,
          "duration": 0.07500000000001705
        },
        {
          "name": "C2",
          "midi": 36,
          "time": 182.25000000000156,
          "velocity": 1,
          "duration": 0.15000000000000568
        },
        {
          "name": "F#3",
          "midi": 54,
          "time": 182.25000000000156,
          "velocity": 0.47244094488188976,
          "duration": 0.15000000000000568
        },
        {
          "name": "F#2",
          "midi": 42,
          "time": 182.25000000000156,
          "velocity": 0.8661417322834646,
          "duration": 0.15000000000000568
        },
        {
          "name": "G2",
          "midi": 43,
          "time": 182.25000000000156,
          "velocity": 1,
          "duration": 0.15000000000000568
        },
        {
          "name": "F#3",
          "midi": 54,
          "time": 182.43750000000156,
          "velocity": 0.47244094488188976,
          "duration": 0.07499999999998863
        },
        {
          "name": "A3",
          "midi": 57,
          "time": 182.43750000000156,
          "velocity": 0.8661417322834646,
          "duration": 0.15000000000000568
        },
        {
          "name": "F#2",
          "midi": 42,
          "time": 182.43750000000156,
          "velocity": 0.8661417322834646,
          "duration": 0.15000000000000568
        },
        {
          "name": "C2",
          "midi": 36,
          "time": 182.43750000000156,
          "velocity": 1,
          "duration": 0.4875000000000398
        },
        {
          "name": "F#3",
          "midi": 54,
          "time": 182.53125000000156,
          "velocity": 0.47244094488188976,
          "duration": 0.07500000000001705
        },
        {
          "name": "F#3",
          "midi": 54,
          "time": 182.6250000000016,
          "velocity": 0.47244094488188976,
          "duration": 0.15000000000000568
        },
        {
          "name": "A#2",
          "midi": 46,
          "time": 182.6250000000016,
          "velocity": 0.8661417322834646,
          "duration": 0.3375000000000057
        },
        {
          "name": "F#3",
          "midi": 54,
          "time": 182.8125000000016,
          "velocity": 0.47244094488188976,
          "duration": 0.07499999999998863
        },
        {
          "name": "F#3",
          "midi": 54,
          "time": 182.9062500000016,
          "velocity": 0.47244094488188976,
          "duration": 0.07500000000001705
        },
        {
          "name": "F#2",
          "midi": 42,
          "time": 183.00000000000162,
          "velocity": 0.8661417322834646,
          "duration": 0.15000000000000568
        },
        {
          "name": "F#3",
          "midi": 54,
          "time": 183.00000000000162,
          "velocity": 0.47244094488188976,
          "duration": 0.15000000000000568
        },
        {
          "name": "C2",
          "midi": 36,
          "time": 183.00000000000162,
          "velocity": 1,
          "duration": 0.30000000000001137
        },
        {
          "name": "F#3",
          "midi": 54,
          "time": 183.18750000000162,
          "velocity": 0.47244094488188976,
          "duration": 0.07499999999998863
        },
        {
          "name": "F#2",
          "midi": 42,
          "time": 183.18750000000162,
          "velocity": 0.8661417322834646,
          "duration": 0.15000000000000568
        },
        {
          "name": "F#3",
          "midi": 54,
          "time": 183.28125000000162,
          "velocity": 0.47244094488188976,
          "duration": 0.07500000000001705
        },
        {
          "name": "F#2",
          "midi": 42,
          "time": 183.37500000000165,
          "velocity": 0.8661417322834646,
          "duration": 0.15000000000000568
        },
        {
          "name": "F#3",
          "midi": 54,
          "time": 183.37500000000165,
          "velocity": 0.47244094488188976,
          "duration": 0.15000000000000568
        },
        {
          "name": "D2",
          "midi": 38,
          "time": 183.37500000000165,
          "velocity": 0.8661417322834646,
          "duration": 0.30000000000001137
        },
        {
          "name": "F#3",
          "midi": 54,
          "time": 183.56250000000165,
          "velocity": 0.47244094488188976,
          "duration": 0.07499999999998863
        },
        {
          "name": "F#2",
          "midi": 42,
          "time": 183.56250000000165,
          "velocity": 0.8661417322834646,
          "duration": 0.15000000000000568
        },
        {
          "name": "F#3",
          "midi": 54,
          "time": 183.65625000000165,
          "velocity": 0.47244094488188976,
          "duration": 0.07500000000001705
        },
        {
          "name": "F#3",
          "midi": 54,
          "time": 183.75000000000168,
          "velocity": 0.47244094488188976,
          "duration": 0.15000000000000568
        },
        {
          "name": "F#2",
          "midi": 42,
          "time": 183.75000000000168,
          "velocity": 0.8661417322834646,
          "duration": 0.15000000000000568
        },
        {
          "name": "C2",
          "midi": 36,
          "time": 183.75000000000168,
          "velocity": 1,
          "duration": 0.30000000000001137
        },
        {
          "name": "F#2",
          "midi": 42,
          "time": 183.93750000000168,
          "velocity": 0.8661417322834646,
          "duration": 0.15000000000000568
        },
        {
          "name": "F#3",
          "midi": 54,
          "time": 183.93750000000168,
          "velocity": 0.47244094488188976,
          "duration": 0.07499999999998863
        },
        {
          "name": "F#3",
          "midi": 54,
          "time": 184.03125000000168,
          "velocity": 0.47244094488188976,
          "duration": 0.07500000000001705
        },
        {
          "name": "F#2",
          "midi": 42,
          "time": 184.1250000000017,
          "velocity": 0.8661417322834646,
          "duration": 0.15000000000000568
        },
        {
          "name": "F#3",
          "midi": 54,
          "time": 184.1250000000017,
          "velocity": 0.47244094488188976,
          "duration": 0.15000000000000568
        },
        {
          "name": "D2",
          "midi": 38,
          "time": 184.1250000000017,
          "velocity": 0.8661417322834646,
          "duration": 0.30000000000001137
        },
        {
          "name": "F#3",
          "midi": 54,
          "time": 184.3125000000017,
          "velocity": 0.47244094488188976,
          "duration": 0.07499999999998863
        },
        {
          "name": "C2",
          "midi": 36,
          "time": 184.3125000000017,
          "velocity": 1,
          "duration": 0.15000000000000568
        },
        {
          "name": "A#2",
          "midi": 46,
          "time": 184.3125000000017,
          "velocity": 0.8661417322834646,
          "duration": 0.15000000000000568
        },
        {
          "name": "F#3",
          "midi": 54,
          "time": 184.4062500000017,
          "velocity": 0.47244094488188976,
          "duration": 0.07500000000001705
        },
        {
          "name": "F#2",
          "midi": 42,
          "time": 184.50000000000173,
          "velocity": 0.8661417322834646,
          "duration": 0.15000000000000568
        },
        {
          "name": "F#3",
          "midi": 54,
          "time": 184.50000000000173,
          "velocity": 0.47244094488188976,
          "duration": 0.15000000000000568
        },
        {
          "name": "C2",
          "midi": 36,
          "time": 184.50000000000173,
          "velocity": 1,
          "duration": 0.30000000000001137
        },
        {
          "name": "F#3",
          "midi": 54,
          "time": 184.68750000000173,
          "velocity": 0.47244094488188976,
          "duration": 0.07499999999998863
        },
        {
          "name": "F#2",
          "midi": 42,
          "time": 184.68750000000173,
          "velocity": 0.8661417322834646,
          "duration": 0.15000000000000568
        },
        {
          "name": "F#3",
          "midi": 54,
          "time": 184.78125000000173,
          "velocity": 0.47244094488188976,
          "duration": 0.07500000000001705
        },
        {
          "name": "F#2",
          "midi": 42,
          "time": 184.87500000000176,
          "velocity": 0.8661417322834646,
          "duration": 0.15000000000000568
        },
        {
          "name": "F#3",
          "midi": 54,
          "time": 184.87500000000176,
          "velocity": 0.47244094488188976,
          "duration": 0.15000000000000568
        },
        {
          "name": "D2",
          "midi": 38,
          "time": 184.87500000000176,
          "velocity": 0.8661417322834646,
          "duration": 0.30000000000001137
        },
        {
          "name": "F#2",
          "midi": 42,
          "time": 185.06250000000176,
          "velocity": 0.8661417322834646,
          "duration": 0.15000000000000568
        },
        {
          "name": "F#3",
          "midi": 54,
          "time": 185.06250000000176,
          "velocity": 0.47244094488188976,
          "duration": 0.07499999999998863
        },
        {
          "name": "F#3",
          "midi": 54,
          "time": 185.15625000000176,
          "velocity": 0.47244094488188976,
          "duration": 0.07500000000001705
        },
        {
          "name": "F#3",
          "midi": 54,
          "time": 185.2500000000018,
          "velocity": 0.47244094488188976,
          "duration": 0.15000000000000568
        },
        {
          "name": "F#2",
          "midi": 42,
          "time": 185.2500000000018,
          "velocity": 0.8661417322834646,
          "duration": 0.15000000000000568
        },
        {
          "name": "C2",
          "midi": 36,
          "time": 185.2500000000018,
          "velocity": 1,
          "duration": 0.30000000000001137
        },
        {
          "name": "F#3",
          "midi": 54,
          "time": 185.4375000000018,
          "velocity": 0.47244094488188976,
          "duration": 0.07499999999998863
        },
        {
          "name": "F#2",
          "midi": 42,
          "time": 185.4375000000018,
          "velocity": 0.8661417322834646,
          "duration": 0.15000000000000568
        },
        {
          "name": "F#3",
          "midi": 54,
          "time": 185.5312500000018,
          "velocity": 0.47244094488188976,
          "duration": 0.07500000000001705
        },
        {
          "name": "F#3",
          "midi": 54,
          "time": 185.62500000000182,
          "velocity": 0.47244094488188976,
          "duration": 0.15000000000000568
        },
        {
          "name": "F#2",
          "midi": 42,
          "time": 185.62500000000182,
          "velocity": 0.8661417322834646,
          "duration": 0.15000000000000568
        },
        {
          "name": "D2",
          "midi": 38,
          "time": 185.62500000000182,
          "velocity": 0.8661417322834646,
          "duration": 0.30000000000001137
        },
        {
          "name": "F#3",
          "midi": 54,
          "time": 185.81250000000182,
          "velocity": 0.47244094488188976,
          "duration": 0.07499999999998863
        },
        {
          "name": "C2",
          "midi": 36,
          "time": 185.81250000000182,
          "velocity": 1,
          "duration": 0.15000000000000568
        },
        {
          "name": "A#2",
          "midi": 46,
          "time": 185.81250000000182,
          "velocity": 0.8661417322834646,
          "duration": 0.15000000000000568
        },
        {
          "name": "F#3",
          "midi": 54,
          "time": 185.90625000000182,
          "velocity": 0.47244094488188976,
          "duration": 0.07500000000001705
        },
        {
          "name": "F#2",
          "midi": 42,
          "time": 186.00000000000185,
          "velocity": 0.8661417322834646,
          "duration": 0.15000000000000568
        },
        {
          "name": "F#3",
          "midi": 54,
          "time": 186.00000000000185,
          "velocity": 0.47244094488188976,
          "duration": 0.15000000000000568
        },
        {
          "name": "C2",
          "midi": 36,
          "time": 186.00000000000185,
          "velocity": 1,
          "duration": 0.30000000000001137
        },
        {
          "name": "F#3",
          "midi": 54,
          "time": 186.18750000000185,
          "velocity": 0.47244094488188976,
          "duration": 0.07499999999998863
        },
        {
          "name": "F#2",
          "midi": 42,
          "time": 186.18750000000185,
          "velocity": 0.8661417322834646,
          "duration": 0.15000000000000568
        },
        {
          "name": "F#3",
          "midi": 54,
          "time": 186.28125000000185,
          "velocity": 0.47244094488188976,
          "duration": 0.07500000000001705
        },
        {
          "name": "F#3",
          "midi": 54,
          "time": 186.37500000000188,
          "velocity": 0.47244094488188976,
          "duration": 0.15000000000000568
        },
        {
          "name": "F#2",
          "midi": 42,
          "time": 186.37500000000188,
          "velocity": 0.8661417322834646,
          "duration": 0.15000000000000568
        },
        {
          "name": "D2",
          "midi": 38,
          "time": 186.37500000000188,
          "velocity": 0.8661417322834646,
          "duration": 0.30000000000001137
        },
        {
          "name": "F#3",
          "midi": 54,
          "time": 186.56250000000188,
          "velocity": 0.47244094488188976,
          "duration": 0.07499999999998863
        },
        {
          "name": "C2",
          "midi": 36,
          "time": 186.56250000000188,
          "velocity": 1,
          "duration": 0.15000000000000568
        },
        {
          "name": "F#2",
          "midi": 42,
          "time": 186.56250000000188,
          "velocity": 0.8661417322834646,
          "duration": 0.15000000000000568
        },
        {
          "name": "F#3",
          "midi": 54,
          "time": 186.65625000000188,
          "velocity": 0.47244094488188976,
          "duration": 0.07500000000001705
        },
        {
          "name": "F#3",
          "midi": 54,
          "time": 186.7500000000019,
          "velocity": 0.47244094488188976,
          "duration": 0.15000000000000568
        },
        {
          "name": "F#2",
          "midi": 42,
          "time": 186.7500000000019,
          "velocity": 0.8661417322834646,
          "duration": 0.15000000000000568
        },
        {
          "name": "C2",
          "midi": 36,
          "time": 186.7500000000019,
          "velocity": 1,
          "duration": 0.30000000000001137
        },
        {
          "name": "F#3",
          "midi": 54,
          "time": 186.9375000000019,
          "velocity": 0.47244094488188976,
          "duration": 0.07499999999998863
        },
        {
          "name": "F#2",
          "midi": 42,
          "time": 186.9375000000019,
          "velocity": 0.8661417322834646,
          "duration": 0.15000000000000568
        },
        {
          "name": "D3",
          "midi": 50,
          "time": 186.9375000000019,
          "velocity": 1,
          "duration": 0.15000000000000568
        },
        {
          "name": "F#3",
          "midi": 54,
          "time": 187.0312500000019,
          "velocity": 0.47244094488188976,
          "duration": 0.07500000000001705
        },
        {
          "name": "F#2",
          "midi": 42,
          "time": 187.12500000000193,
          "velocity": 0.8661417322834646,
          "duration": 0.15000000000000568
        },
        {
          "name": "F#3",
          "midi": 54,
          "time": 187.12500000000193,
          "velocity": 0.47244094488188976,
          "duration": 0.15000000000000568
        },
        {
          "name": "D3",
          "midi": 50,
          "time": 187.12500000000193,
          "velocity": 1,
          "duration": 0.15000000000000568
        },
        {
          "name": "D2",
          "midi": 38,
          "time": 187.12500000000193,
          "velocity": 0.8661417322834646,
          "duration": 0.30000000000001137
        },
        {
          "name": "F#3",
          "midi": 54,
          "time": 187.31250000000193,
          "velocity": 0.47244094488188976,
          "duration": 0.07499999999998863
        },
        {
          "name": "F#2",
          "midi": 42,
          "time": 187.31250000000193,
          "velocity": 0.8661417322834646,
          "duration": 0.15000000000000568
        },
        {
          "name": "D3",
          "midi": 50,
          "time": 187.31250000000193,
          "velocity": 1,
          "duration": 0.15000000000000568
        },
        {
          "name": "F#3",
          "midi": 54,
          "time": 187.40625000000193,
          "velocity": 0.47244094488188976,
          "duration": 0.07500000000001705
        },
        {
          "name": "F#3",
          "midi": 54,
          "time": 187.50000000000196,
          "velocity": 0.47244094488188976,
          "duration": 0.15000000000000568
        },
        {
          "name": "F#2",
          "midi": 42,
          "time": 187.50000000000196,
          "velocity": 0.8661417322834646,
          "duration": 0.15000000000000568
        },
        {
          "name": "C2",
          "midi": 36,
          "time": 187.50000000000196,
          "velocity": 1,
          "duration": 0.30000000000001137
        },
        {
          "name": "F#2",
          "midi": 42,
          "time": 187.68750000000196,
          "velocity": 0.8661417322834646,
          "duration": 0.15000000000000568
        },
        {
          "name": "C3",
          "midi": 48,
          "time": 187.68750000000196,
          "velocity": 1,
          "duration": 0.15000000000000568
        },
        {
          "name": "F#3",
          "midi": 54,
          "time": 187.68750000000196,
          "velocity": 0.47244094488188976,
          "duration": 0.07499999999998863
        },
        {
          "name": "F#3",
          "midi": 54,
          "time": 187.78125000000196,
          "velocity": 0.47244094488188976,
          "duration": 0.07500000000001705
        },
        {
          "name": "F#3",
          "midi": 54,
          "time": 187.875000000002,
          "velocity": 0.47244094488188976,
          "duration": 0.15000000000000568
        },
        {
          "name": "F#2",
          "midi": 42,
          "time": 187.875000000002,
          "velocity": 0.8661417322834646,
          "duration": 0.15000000000000568
        },
        {
          "name": "B2",
          "midi": 47,
          "time": 187.875000000002,
          "velocity": 1,
          "duration": 0.15000000000000568
        },
        {
          "name": "D2",
          "midi": 38,
          "time": 187.875000000002,
          "velocity": 0.8661417322834646,
          "duration": 0.30000000000001137
        },
        {
          "name": "F#3",
          "midi": 54,
          "time": 188.062500000002,
          "velocity": 0.47244094488188976,
          "duration": 0.07499999999998863
        },
        {
          "name": "C2",
          "midi": 36,
          "time": 188.062500000002,
          "velocity": 1,
          "duration": 0.15000000000000568
        },
        {
          "name": "F#2",
          "midi": 42,
          "time": 188.062500000002,
          "velocity": 0.8661417322834646,
          "duration": 0.15000000000000568
        },
        {
          "name": "G2",
          "midi": 43,
          "time": 188.062500000002,
          "velocity": 1,
          "duration": 0.15000000000000568
        },
        {
          "name": "F#3",
          "midi": 54,
          "time": 188.156250000002,
          "velocity": 0.47244094488188976,
          "duration": 0.07500000000001705
        },
        {
          "name": "F#3",
          "midi": 54,
          "time": 188.25000000000202,
          "velocity": 0.47244094488188976,
          "duration": 0.15000000000000568
        },
        {
          "name": "F#2",
          "midi": 42,
          "time": 188.25000000000202,
          "velocity": 0.8661417322834646,
          "duration": 0.15000000000000568
        },
        {
          "name": "C2",
          "midi": 36,
          "time": 188.25000000000202,
          "velocity": 1,
          "duration": 0.15000000000000568
        },
        {
          "name": "F#3",
          "midi": 54,
          "time": 188.43750000000202,
          "velocity": 0.47244094488188976,
          "duration": 0.07499999999998863
        },
        {
          "name": "A3",
          "midi": 57,
          "time": 188.43750000000202,
          "velocity": 0.8661417322834646,
          "duration": 0.15000000000000568
        },
        {
          "name": "F#2",
          "midi": 42,
          "time": 188.43750000000202,
          "velocity": 0.8661417322834646,
          "duration": 0.15000000000000568
        },
        {
          "name": "C2",
          "midi": 36,
          "time": 188.43750000000202,
          "velocity": 1,
          "duration": 0.4875000000000398
        },
        {
          "name": "F#3",
          "midi": 54,
          "time": 188.53125000000202,
          "velocity": 0.47244094488188976,
          "duration": 0.07500000000001705
        },
        {
          "name": "F#2",
          "midi": 42,
          "time": 188.62500000000205,
          "velocity": 0.8661417322834646,
          "duration": 0.15000000000000568
        },
        {
          "name": "F#3",
          "midi": 54,
          "time": 188.62500000000205,
          "velocity": 0.47244094488188976,
          "duration": 0.15000000000000568
        },
        {
          "name": "D2",
          "midi": 38,
          "time": 188.62500000000205,
          "velocity": 0.8661417322834646,
          "duration": 0.30000000000001137
        },
        {
          "name": "F#3",
          "midi": 54,
          "time": 188.81250000000205,
          "velocity": 0.47244094488188976,
          "duration": 0.07499999999998863
        },
        {
          "name": "F#3",
          "midi": 54,
          "time": 188.90625000000205,
          "velocity": 0.47244094488188976,
          "duration": 0.07500000000001705
        },
        {
          "name": "F#2",
          "midi": 42,
          "time": 189.00000000000207,
          "velocity": 0.8661417322834646,
          "duration": 0.15000000000000568
        },
        {
          "name": "F#3",
          "midi": 54,
          "time": 189.00000000000207,
          "velocity": 0.47244094488188976,
          "duration": 0.15000000000000568
        },
        {
          "name": "C2",
          "midi": 36,
          "time": 189.00000000000207,
          "velocity": 1,
          "duration": 0.30000000000001137
        },
        {
          "name": "F#3",
          "midi": 54,
          "time": 189.18750000000207,
          "velocity": 0.47244094488188976,
          "duration": 0.07499999999998863
        },
        {
          "name": "F#2",
          "midi": 42,
          "time": 189.18750000000207,
          "velocity": 0.8661417322834646,
          "duration": 0.15000000000000568
        },
        {
          "name": "F#3",
          "midi": 54,
          "time": 189.28125000000207,
          "velocity": 0.47244094488188976,
          "duration": 0.07500000000001705
        },
        {
          "name": "F#3",
          "midi": 54,
          "time": 189.3750000000021,
          "velocity": 0.47244094488188976,
          "duration": 0.15000000000000568
        },
        {
          "name": "F#2",
          "midi": 42,
          "time": 189.3750000000021,
          "velocity": 0.8661417322834646,
          "duration": 0.15000000000000568
        },
        {
          "name": "D2",
          "midi": 38,
          "time": 189.3750000000021,
          "velocity": 0.8661417322834646,
          "duration": 0.30000000000001137
        },
        {
          "name": "F#3",
          "midi": 54,
          "time": 189.5625000000021,
          "velocity": 0.47244094488188976,
          "duration": 0.07499999999998863
        },
        {
          "name": "F#2",
          "midi": 42,
          "time": 189.5625000000021,
          "velocity": 0.8661417322834646,
          "duration": 0.15000000000000568
        },
        {
          "name": "F#3",
          "midi": 54,
          "time": 189.6562500000021,
          "velocity": 0.47244094488188976,
          "duration": 0.07500000000001705
        },
        {
          "name": "F#3",
          "midi": 54,
          "time": 189.75000000000213,
          "velocity": 0.47244094488188976,
          "duration": 0.15000000000000568
        },
        {
          "name": "F#2",
          "midi": 42,
          "time": 189.75000000000213,
          "velocity": 0.8661417322834646,
          "duration": 0.15000000000000568
        },
        {
          "name": "C2",
          "midi": 36,
          "time": 189.75000000000213,
          "velocity": 1,
          "duration": 0.30000000000001137
        },
        {
          "name": "F#2",
          "midi": 42,
          "time": 189.93750000000213,
          "velocity": 0.8661417322834646,
          "duration": 0.15000000000000568
        },
        {
          "name": "F#3",
          "midi": 54,
          "time": 189.93750000000213,
          "velocity": 0.47244094488188976,
          "duration": 0.07499999999998863
        },
        {
          "name": "F#3",
          "midi": 54,
          "time": 190.03125000000213,
          "velocity": 0.47244094488188976,
          "duration": 0.07500000000001705
        },
        {
          "name": "F#2",
          "midi": 42,
          "time": 190.12500000000216,
          "velocity": 0.8661417322834646,
          "duration": 0.15000000000000568
        },
        {
          "name": "F#3",
          "midi": 54,
          "time": 190.12500000000216,
          "velocity": 0.47244094488188976,
          "duration": 0.15000000000000568
        },
        {
          "name": "D2",
          "midi": 38,
          "time": 190.12500000000216,
          "velocity": 0.8661417322834646,
          "duration": 0.30000000000001137
        },
        {
          "name": "F#3",
          "midi": 54,
          "time": 190.31250000000216,
          "velocity": 0.47244094488188976,
          "duration": 0.07499999999998863
        },
        {
          "name": "C2",
          "midi": 36,
          "time": 190.31250000000216,
          "velocity": 1,
          "duration": 0.15000000000000568
        },
        {
          "name": "A#2",
          "midi": 46,
          "time": 190.31250000000216,
          "velocity": 0.8661417322834646,
          "duration": 0.15000000000000568
        },
        {
          "name": "F#3",
          "midi": 54,
          "time": 190.40625000000216,
          "velocity": 0.47244094488188976,
          "duration": 0.07500000000001705
        },
        {
          "name": "F#2",
          "midi": 42,
          "time": 190.5000000000022,
          "velocity": 0.8661417322834646,
          "duration": 0.15000000000000568
        },
        {
          "name": "F#3",
          "midi": 54,
          "time": 190.5000000000022,
          "velocity": 0.47244094488188976,
          "duration": 0.15000000000000568
        },
        {
          "name": "C2",
          "midi": 36,
          "time": 190.5000000000022,
          "velocity": 1,
          "duration": 0.30000000000001137
        },
        {
          "name": "F#3",
          "midi": 54,
          "time": 190.6875000000022,
          "velocity": 0.47244094488188976,
          "duration": 0.07499999999998863
        },
        {
          "name": "F#2",
          "midi": 42,
          "time": 190.6875000000022,
          "velocity": 0.8661417322834646,
          "duration": 0.15000000000000568
        },
        {
          "name": "F#3",
          "midi": 54,
          "time": 190.7812500000022,
          "velocity": 0.47244094488188976,
          "duration": 0.07500000000001705
        },
        {
          "name": "F#2",
          "midi": 42,
          "time": 190.87500000000222,
          "velocity": 0.8661417322834646,
          "duration": 0.15000000000000568
        },
        {
          "name": "F#3",
          "midi": 54,
          "time": 190.87500000000222,
          "velocity": 0.47244094488188976,
          "duration": 0.15000000000000568
        },
        {
          "name": "D2",
          "midi": 38,
          "time": 190.87500000000222,
          "velocity": 0.8661417322834646,
          "duration": 0.30000000000001137
        },
        {
          "name": "F#3",
          "midi": 54,
          "time": 191.06250000000222,
          "velocity": 0.47244094488188976,
          "duration": 0.07499999999998863
        },
        {
          "name": "F#2",
          "midi": 42,
          "time": 191.06250000000222,
          "velocity": 0.8661417322834646,
          "duration": 0.15000000000000568
        },
        {
          "name": "F#3",
          "midi": 54,
          "time": 191.15625000000222,
          "velocity": 0.47244094488188976,
          "duration": 0.07500000000001705
        },
        {
          "name": "F#3",
          "midi": 54,
          "time": 191.25000000000225,
          "velocity": 0.47244094488188976,
          "duration": 0.15000000000000568
        },
        {
          "name": "F#2",
          "midi": 42,
          "time": 191.25000000000225,
          "velocity": 0.8661417322834646,
          "duration": 0.15000000000000568
        },
        {
          "name": "C2",
          "midi": 36,
          "time": 191.25000000000225,
          "velocity": 1,
          "duration": 0.30000000000001137
        },
        {
          "name": "F#3",
          "midi": 54,
          "time": 191.43750000000225,
          "velocity": 0.47244094488188976,
          "duration": 0.07499999999998863
        },
        {
          "name": "F#2",
          "midi": 42,
          "time": 191.43750000000225,
          "velocity": 0.8661417322834646,
          "duration": 0.15000000000000568
        },
        {
          "name": "F#3",
          "midi": 54,
          "time": 191.53125000000225,
          "velocity": 0.47244094488188976,
          "duration": 0.07500000000001705
        },
        {
          "name": "F#3",
          "midi": 54,
          "time": 191.62500000000227,
          "velocity": 0.47244094488188976,
          "duration": 0.15000000000000568
        },
        {
          "name": "F#2",
          "midi": 42,
          "time": 191.62500000000227,
          "velocity": 0.8661417322834646,
          "duration": 0.15000000000000568
        },
        {
          "name": "D2",
          "midi": 38,
          "time": 191.62500000000227,
          "velocity": 0.8661417322834646,
          "duration": 0.30000000000001137
        },
        {
          "name": "F#3",
          "midi": 54,
          "time": 191.81250000000227,
          "velocity": 0.47244094488188976,
          "duration": 0.07499999999998863
        },
        {
          "name": "C2",
          "midi": 36,
          "time": 191.81250000000227,
          "velocity": 1,
          "duration": 0.15000000000000568
        },
        {
          "name": "A#2",
          "midi": 46,
          "time": 191.81250000000227,
          "velocity": 0.8661417322834646,
          "duration": 0.15000000000000568
        },
        {
          "name": "F#3",
          "midi": 54,
          "time": 191.90625000000227,
          "velocity": 0.47244094488188976,
          "duration": 0.07500000000001705
        },
        {
          "name": "F#2",
          "midi": 42,
          "time": 192.0000000000023,
          "velocity": 0.8661417322834646,
          "duration": 0.15000000000000568
        },
        {
          "name": "F#3",
          "midi": 54,
          "time": 192.0000000000023,
          "velocity": 0.47244094488188976,
          "duration": 0.15000000000000568
        },
        {
          "name": "C2",
          "midi": 36,
          "time": 192.0000000000023,
          "velocity": 1,
          "duration": 0.30000000000001137
        },
        {
          "name": "F#3",
          "midi": 54,
          "time": 192.1875000000023,
          "velocity": 0.47244094488188976,
          "duration": 0.07499999999998863
        },
        {
          "name": "F#2",
          "midi": 42,
          "time": 192.1875000000023,
          "velocity": 0.8661417322834646,
          "duration": 0.15000000000000568
        },
        {
          "name": "F#3",
          "midi": 54,
          "time": 192.2812500000023,
          "velocity": 0.47244094488188976,
          "duration": 0.07500000000001705
        },
        {
          "name": "F#3",
          "midi": 54,
          "time": 192.37500000000233,
          "velocity": 0.47244094488188976,
          "duration": 0.15000000000000568
        },
        {
          "name": "F#2",
          "midi": 42,
          "time": 192.37500000000233,
          "velocity": 0.8661417322834646,
          "duration": 0.15000000000000568
        },
        {
          "name": "D2",
          "midi": 38,
          "time": 192.37500000000233,
          "velocity": 0.8661417322834646,
          "duration": 0.30000000000001137
        },
        {
          "name": "F#2",
          "midi": 42,
          "time": 192.56250000000233,
          "velocity": 0.8661417322834646,
          "duration": 0.15000000000000568
        },
        {
          "name": "F#3",
          "midi": 54,
          "time": 192.56250000000233,
          "velocity": 0.47244094488188976,
          "duration": 0.07499999999998863
        },
        {
          "name": "F#3",
          "midi": 54,
          "time": 192.65625000000233,
          "velocity": 0.47244094488188976,
          "duration": 0.07500000000001705
        },
        {
          "name": "F#3",
          "midi": 54,
          "time": 192.75000000000236,
          "velocity": 0.47244094488188976,
          "duration": 0.15000000000000568
        },
        {
          "name": "F#2",
          "midi": 42,
          "time": 192.75000000000236,
          "velocity": 0.8661417322834646,
          "duration": 0.15000000000000568
        },
        {
          "name": "C2",
          "midi": 36,
          "time": 192.75000000000236,
          "velocity": 1,
          "duration": 0.30000000000001137
        },
        {
          "name": "F#3",
          "midi": 54,
          "time": 192.93750000000236,
          "velocity": 0.47244094488188976,
          "duration": 0.07499999999998863
        },
        {
          "name": "F#2",
          "midi": 42,
          "time": 192.93750000000236,
          "velocity": 0.8661417322834646,
          "duration": 0.15000000000000568
        },
        {
          "name": "F#3",
          "midi": 54,
          "time": 193.03125000000236,
          "velocity": 0.47244094488188976,
          "duration": 0.07500000000001705
        },
        {
          "name": "F#2",
          "midi": 42,
          "time": 193.1250000000024,
          "velocity": 0.8661417322834646,
          "duration": 0.15000000000000568
        },
        {
          "name": "F#3",
          "midi": 54,
          "time": 193.1250000000024,
          "velocity": 0.47244094488188976,
          "duration": 0.15000000000000568
        },
        {
          "name": "D2",
          "midi": 38,
          "time": 193.1250000000024,
          "velocity": 0.8661417322834646,
          "duration": 0.30000000000001137
        },
        {
          "name": "F#3",
          "midi": 54,
          "time": 193.3125000000024,
          "velocity": 0.47244094488188976,
          "duration": 0.07499999999998863
        },
        {
          "name": "C2",
          "midi": 36,
          "time": 193.3125000000024,
          "velocity": 1,
          "duration": 0.15000000000000568
        },
        {
          "name": "A#2",
          "midi": 46,
          "time": 193.3125000000024,
          "velocity": 0.8661417322834646,
          "duration": 0.15000000000000568
        },
        {
          "name": "F#3",
          "midi": 54,
          "time": 193.4062500000024,
          "velocity": 0.47244094488188976,
          "duration": 0.07500000000001705
        },
        {
          "name": "F#2",
          "midi": 42,
          "time": 193.50000000000242,
          "velocity": 0.8661417322834646,
          "duration": 0.15000000000000568
        },
        {
          "name": "F#3",
          "midi": 54,
          "time": 193.50000000000242,
          "velocity": 0.47244094488188976,
          "duration": 0.15000000000000568
        },
        {
          "name": "C2",
          "midi": 36,
          "time": 193.50000000000242,
          "velocity": 1,
          "duration": 0.30000000000001137
        },
        {
          "name": "F#3",
          "midi": 54,
          "time": 193.68750000000242,
          "velocity": 0.47244094488188976,
          "duration": 0.07499999999998863
        },
        {
          "name": "F#2",
          "midi": 42,
          "time": 193.68750000000242,
          "velocity": 0.8661417322834646,
          "duration": 0.15000000000000568
        },
        {
          "name": "F#3",
          "midi": 54,
          "time": 193.78125000000242,
          "velocity": 0.47244094488188976,
          "duration": 0.07500000000001705
        },
        {
          "name": "F#3",
          "midi": 54,
          "time": 193.87500000000244,
          "velocity": 0.47244094488188976,
          "duration": 0.15000000000000568
        },
        {
          "name": "F#2",
          "midi": 42,
          "time": 193.87500000000244,
          "velocity": 0.8661417322834646,
          "duration": 0.15000000000000568
        },
        {
          "name": "D2",
          "midi": 38,
          "time": 193.87500000000244,
          "velocity": 0.8661417322834646,
          "duration": 0.30000000000001137
        },
        {
          "name": "F#2",
          "midi": 42,
          "time": 194.06250000000244,
          "velocity": 0.8661417322834646,
          "duration": 0.15000000000000568
        },
        {
          "name": "F#3",
          "midi": 54,
          "time": 194.06250000000244,
          "velocity": 0.47244094488188976,
          "duration": 0.07499999999998863
        },
        {
          "name": "F#3",
          "midi": 54,
          "time": 194.15625000000244,
          "velocity": 0.47244094488188976,
          "duration": 0.07500000000001705
        },
        {
          "name": "F#2",
          "midi": 42,
          "time": 194.25000000000247,
          "velocity": 0.8661417322834646,
          "duration": 0.15000000000000568
        },
        {
          "name": "F#3",
          "midi": 54,
          "time": 194.25000000000247,
          "velocity": 0.47244094488188976,
          "duration": 0.15000000000000568
        },
        {
          "name": "C2",
          "midi": 36,
          "time": 194.25000000000247,
          "velocity": 1,
          "duration": 0.30000000000001137
        },
        {
          "name": "F#3",
          "midi": 54,
          "time": 194.43750000000247,
          "velocity": 0.47244094488188976,
          "duration": 0.07499999999998863
        },
        {
          "name": "F#2",
          "midi": 42,
          "time": 194.43750000000247,
          "velocity": 0.8661417322834646,
          "duration": 0.15000000000000568
        },
        {
          "name": "F#3",
          "midi": 54,
          "time": 194.53125000000247,
          "velocity": 0.47244094488188976,
          "duration": 0.07500000000001705
        },
        {
          "name": "F#2",
          "midi": 42,
          "time": 194.6250000000025,
          "velocity": 0.8661417322834646,
          "duration": 0.15000000000000568
        },
        {
          "name": "F#3",
          "midi": 54,
          "time": 194.6250000000025,
          "velocity": 0.47244094488188976,
          "duration": 0.15000000000000568
        },
        {
          "name": "D2",
          "midi": 38,
          "time": 194.6250000000025,
          "velocity": 0.8661417322834646,
          "duration": 0.30000000000001137
        },
        {
          "name": "F#3",
          "midi": 54,
          "time": 194.8125000000025,
          "velocity": 0.47244094488188976,
          "duration": 0.07499999999998863
        },
        {
          "name": "A#2",
          "midi": 46,
          "time": 194.8125000000025,
          "velocity": 0.8661417322834646,
          "duration": 0.15000000000000568
        },
        {
          "name": "C2",
          "midi": 36,
          "time": 194.8125000000025,
          "velocity": 1,
          "duration": 0.15000000000000568
        },
        {
          "name": "F#3",
          "midi": 54,
          "time": 194.9062500000025,
          "velocity": 0.47244094488188976,
          "duration": 0.07500000000001705
        },
        {
          "name": "F#2",
          "midi": 42,
          "time": 195.00000000000253,
          "velocity": 0.8661417322834646,
          "duration": 0.15000000000000568
        },
        {
          "name": "F#3",
          "midi": 54,
          "time": 195.00000000000253,
          "velocity": 0.47244094488188976,
          "duration": 0.15000000000000568
        },
        {
          "name": "C2",
          "midi": 36,
          "time": 195.00000000000253,
          "velocity": 1,
          "duration": 0.30000000000001137
        },
        {
          "name": "F#3",
          "midi": 54,
          "time": 195.18750000000253,
          "velocity": 0.47244094488188976,
          "duration": 0.07499999999998863
        },
        {
          "name": "F#2",
          "midi": 42,
          "time": 195.18750000000253,
          "velocity": 0.8661417322834646,
          "duration": 0.15000000000000568
        },
        {
          "name": "F#3",
          "midi": 54,
          "time": 195.28125000000253,
          "velocity": 0.47244094488188976,
          "duration": 0.07500000000001705
        },
        {
          "name": "F#2",
          "midi": 42,
          "time": 195.37500000000256,
          "velocity": 0.8661417322834646,
          "duration": 0.15000000000000568
        },
        {
          "name": "F#3",
          "midi": 54,
          "time": 195.37500000000256,
          "velocity": 0.47244094488188976,
          "duration": 0.15000000000000568
        },
        {
          "name": "D2",
          "midi": 38,
          "time": 195.37500000000256,
          "velocity": 0.8661417322834646,
          "duration": 0.30000000000001137
        },
        {
          "name": "F#2",
          "midi": 42,
          "time": 195.56250000000256,
          "velocity": 0.8661417322834646,
          "duration": 0.15000000000000568
        },
        {
          "name": "F#3",
          "midi": 54,
          "time": 195.56250000000256,
          "velocity": 0.47244094488188976,
          "duration": 0.07499999999998863
        },
        {
          "name": "F#3",
          "midi": 54,
          "time": 195.65625000000256,
          "velocity": 0.47244094488188976,
          "duration": 0.07500000000001705
        },
        {
          "name": "F#3",
          "midi": 54,
          "time": 195.7500000000026,
          "velocity": 0.47244094488188976,
          "duration": 0.15000000000000568
        },
        {
          "name": "F#2",
          "midi": 42,
          "time": 195.7500000000026,
          "velocity": 0.8661417322834646,
          "duration": 0.15000000000000568
        },
        {
          "name": "C2",
          "midi": 36,
          "time": 195.7500000000026,
          "velocity": 1,
          "duration": 0.30000000000001137
        },
        {
          "name": "F#3",
          "midi": 54,
          "time": 195.9375000000026,
          "velocity": 0.47244094488188976,
          "duration": 0.07499999999998863
        },
        {
          "name": "F#2",
          "midi": 42,
          "time": 195.9375000000026,
          "velocity": 0.8661417322834646,
          "duration": 0.15000000000000568
        },
        {
          "name": "F#3",
          "midi": 54,
          "time": 196.0312500000026,
          "velocity": 0.47244094488188976,
          "duration": 0.07500000000001705
        },
        {
          "name": "F#3",
          "midi": 54,
          "time": 196.12500000000261,
          "velocity": 0.47244094488188976,
          "duration": 0.15000000000000568
        },
        {
          "name": "F#2",
          "midi": 42,
          "time": 196.12500000000261,
          "velocity": 0.8661417322834646,
          "duration": 0.15000000000000568
        },
        {
          "name": "D2",
          "midi": 38,
          "time": 196.12500000000261,
          "velocity": 0.8661417322834646,
          "duration": 0.30000000000001137
        },
        {
          "name": "F#3",
          "midi": 54,
          "time": 196.31250000000261,
          "velocity": 0.47244094488188976,
          "duration": 0.07499999999998863
        },
        {
          "name": "C2",
          "midi": 36,
          "time": 196.31250000000261,
          "velocity": 1,
          "duration": 0.15000000000000568
        },
        {
          "name": "A#2",
          "midi": 46,
          "time": 196.31250000000261,
          "velocity": 0.8661417322834646,
          "duration": 0.15000000000000568
        },
        {
          "name": "F#3",
          "midi": 54,
          "time": 196.40625000000261,
          "velocity": 0.47244094488188976,
          "duration": 0.07500000000001705
        },
        {
          "name": "F#2",
          "midi": 42,
          "time": 196.50000000000264,
          "velocity": 0.8661417322834646,
          "duration": 0.15000000000000568
        },
        {
          "name": "F#3",
          "midi": 54,
          "time": 196.50000000000264,
          "velocity": 0.47244094488188976,
          "duration": 0.15000000000000568
        },
        {
          "name": "C2",
          "midi": 36,
          "time": 196.50000000000264,
          "velocity": 1,
          "duration": 0.30000000000001137
        },
        {
          "name": "F#2",
          "midi": 42,
          "time": 196.68750000000264,
          "velocity": 0.8661417322834646,
          "duration": 0.15000000000000568
        },
        {
          "name": "F#3",
          "midi": 54,
          "time": 196.68750000000264,
          "velocity": 0.47244094488188976,
          "duration": 0.07499999999998863
        },
        {
          "name": "F#3",
          "midi": 54,
          "time": 196.78125000000264,
          "velocity": 0.47244094488188976,
          "duration": 0.07500000000001705
        },
        {
          "name": "F#2",
          "midi": 42,
          "time": 196.87500000000267,
          "velocity": 0.8661417322834646,
          "duration": 0.15000000000000568
        },
        {
          "name": "F#3",
          "midi": 54,
          "time": 196.87500000000267,
          "velocity": 0.47244094488188976,
          "duration": 0.15000000000000568
        },
        {
          "name": "D2",
          "midi": 38,
          "time": 196.87500000000267,
          "velocity": 0.8661417322834646,
          "duration": 0.30000000000001137
        },
        {
          "name": "F#3",
          "midi": 54,
          "time": 197.06250000000267,
          "velocity": 0.47244094488188976,
          "duration": 0.07499999999998863
        },
        {
          "name": "F#2",
          "midi": 42,
          "time": 197.06250000000267,
          "velocity": 0.8661417322834646,
          "duration": 0.15000000000000568
        },
        {
          "name": "F#3",
          "midi": 54,
          "time": 197.15625000000267,
          "velocity": 0.47244094488188976,
          "duration": 0.07500000000001705
        },
        {
          "name": "F#2",
          "midi": 42,
          "time": 197.2500000000027,
          "velocity": 0.8661417322834646,
          "duration": 0.15000000000000568
        },
        {
          "name": "F#3",
          "midi": 54,
          "time": 197.2500000000027,
          "velocity": 0.47244094488188976,
          "duration": 0.15000000000000568
        },
        {
          "name": "C2",
          "midi": 36,
          "time": 197.2500000000027,
          "velocity": 1,
          "duration": 0.30000000000001137
        },
        {
          "name": "F#3",
          "midi": 54,
          "time": 197.4375000000027,
          "velocity": 0.47244094488188976,
          "duration": 0.07499999999998863
        },
        {
          "name": "F#2",
          "midi": 42,
          "time": 197.4375000000027,
          "velocity": 0.8661417322834646,
          "duration": 0.15000000000000568
        },
        {
          "name": "A3",
          "midi": 57,
          "time": 197.4375000000027,
          "velocity": 0.8661417322834646,
          "duration": 0.3000000000000398
        },
        {
          "name": "F#3",
          "midi": 54,
          "time": 197.5312500000027,
          "velocity": 0.47244094488188976,
          "duration": 0.07500000000001705
        },
        {
          "name": "F#2",
          "midi": 42,
          "time": 197.62500000000273,
          "velocity": 0.8661417322834646,
          "duration": 0.15000000000000568
        },
        {
          "name": "F#3",
          "midi": 54,
          "time": 197.62500000000273,
          "velocity": 0.47244094488188976,
          "duration": 0.15000000000000568
        },
        {
          "name": "D2",
          "midi": 38,
          "time": 197.62500000000273,
          "velocity": 0.8661417322834646,
          "duration": 0.30000000000001137
        },
        {
          "name": "F#3",
          "midi": 54,
          "time": 197.81250000000273,
          "velocity": 0.47244094488188976,
          "duration": 0.07499999999998863
        },
        {
          "name": "A#2",
          "midi": 46,
          "time": 197.81250000000273,
          "velocity": 0.8661417322834646,
          "duration": 0.15000000000000568
        },
        {
          "name": "C2",
          "midi": 36,
          "time": 197.81250000000273,
          "velocity": 1,
          "duration": 0.15000000000000568
        },
        {
          "name": "F#3",
          "midi": 54,
          "time": 197.90625000000273,
          "velocity": 0.47244094488188976,
          "duration": 0.07500000000001705
        },
        {
          "name": "A3",
          "midi": 57,
          "time": 198.00000000000276,
          "velocity": 0.8661417322834646,
          "duration": 0.30000000000001137
        },
        {
          "name": "C2",
          "midi": 36,
          "time": 198.00000000000276,
          "velocity": 0.8661417322834646,
          "duration": 0.30000000000001137
        }
      ],
      "controlChanges": {
        "7": [
          {
            "number": 7,
            "time": 0,
            "value": 0.9133858267716536
          }
        ]
      },
      "id": 10,
      "name": "Freely Distribute",
      "instrumentNumber": 0,
      "instrument": "standard kit",
      "instrumentFamily": "drums",
      "channelNumber": 9,
      "isPercussion": true
    },
    {
      "startTime": 89.625,
      "duration": 110.9625,
      "length": 85,
      "notes": [
        {
          "name": "F5",
          "midi": 77,
          "time": 89.625,
          "velocity": 1,
          "duration": 0.29999999999999716
        },
        {
          "name": "F5",
          "midi": 77,
          "time": 90,
          "velocity": 1,
          "duration": 0.29999999999999716
        },
        {
          "name": "E5",
          "midi": 76,
          "time": 90.375,
          "velocity": 1,
          "duration": 0.29999999999999716
        },
        {
          "name": "D5",
          "midi": 74,
          "time": 90.75,
          "velocity": 1,
          "duration": 0.29999999999999716
        },
        {
          "name": "C5",
          "midi": 72,
          "time": 91.125,
          "velocity": 1,
          "duration": 0.29999999999999716
        },
        {
          "name": "C5",
          "midi": 72,
          "time": 91.5,
          "velocity": 1,
          "duration": 0.45000000000000284
        },
        {
          "name": "A#4",
          "midi": 70,
          "time": 92.0625,
          "velocity": 1,
          "duration": 0.15000000000000568
        },
        {
          "name": "A4",
          "midi": 69,
          "time": 92.25,
          "velocity": 1,
          "duration": 0.29999999999999716
        },
        {
          "name": "F5",
          "midi": 77,
          "time": 92.625,
          "velocity": 1,
          "duration": 0.29999999999999716
        },
        {
          "name": "F5",
          "midi": 77,
          "time": 93,
          "velocity": 1,
          "duration": 0.29999999999999716
        },
        {
          "name": "E5",
          "midi": 76,
          "time": 93.375,
          "velocity": 1,
          "duration": 0.29999999999999716
        },
        {
          "name": "D5",
          "midi": 74,
          "time": 93.75,
          "velocity": 1,
          "duration": 0.29999999999999716
        },
        {
          "name": "C5",
          "midi": 72,
          "time": 94.125,
          "velocity": 1,
          "duration": 0.29999999999999716
        },
        {
          "name": "C5",
          "midi": 72,
          "time": 94.6875,
          "velocity": 1,
          "duration": 0.29999999999999716
        },
        {
          "name": "A#4",
          "midi": 70,
          "time": 95.0625,
          "velocity": 1,
          "duration": 0.15000000000000568
        },
        {
          "name": "A4",
          "midi": 69,
          "time": 95.25,
          "velocity": 1,
          "duration": 0.29999999999999716
        },
        {
          "name": "A4",
          "midi": 69,
          "time": 95.625,
          "velocity": 1,
          "duration": 0.29999999999999716
        },
        {
          "name": "F4",
          "midi": 65,
          "time": 96,
          "velocity": 0.7874015748031497,
          "duration": 0.15000000000000568
        },
        {
          "name": "C5",
          "midi": 72,
          "time": 96.1875,
          "velocity": 0.7874015748031497,
          "duration": 0.15000000000000568
        },
        {
          "name": "F5",
          "midi": 77,
          "time": 96.375,
          "velocity": 0.7874015748031497,
          "duration": 0.15000000000000568
        },
        {
          "name": "C5",
          "midi": 72,
          "time": 96.5625,
          "velocity": 0.7874015748031497,
          "duration": 0.15000000000000568
        },
        {
          "name": "F4",
          "midi": 65,
          "time": 96.75,
          "velocity": 0.7874015748031497,
          "duration": 0.15000000000000568
        },
        {
          "name": "C5",
          "midi": 72,
          "time": 96.9375,
          "velocity": 0.7874015748031497,
          "duration": 0.15000000000000568
        },
        {
          "name": "F5",
          "midi": 77,
          "time": 97.125,
          "velocity": 0.7874015748031497,
          "duration": 0.15000000000000568
        },
        {
          "name": "C5",
          "midi": 72,
          "time": 97.3125,
          "velocity": 0.7874015748031497,
          "duration": 0.15000000000000568
        },
        {
          "name": "A4",
          "midi": 69,
          "time": 97.5,
          "velocity": 0.7874015748031497,
          "duration": 0.15000000000000568
        },
        {
          "name": "F4",
          "midi": 65,
          "time": 97.6875,
          "velocity": 0.7874015748031497,
          "duration": 0.15000000000000568
        },
        {
          "name": "A4",
          "midi": 69,
          "time": 97.875,
          "velocity": 0.7874015748031497,
          "duration": 0.15000000000000568
        },
        {
          "name": "A4",
          "midi": 69,
          "time": 98.0625,
          "velocity": 0.7874015748031497,
          "duration": 0.15000000000000568
        },
        {
          "name": "A#4",
          "midi": 70,
          "time": 98.25,
          "velocity": 0.7874015748031497,
          "duration": 0.15000000000000568
        },
        {
          "name": "A4",
          "midi": 69,
          "time": 98.4375,
          "velocity": 0.7874015748031497,
          "duration": 0.15000000000000568
        },
        {
          "name": "G4",
          "midi": 67,
          "time": 98.625,
          "velocity": 0.7874015748031497,
          "duration": 0.15000000000000568
        },
        {
          "name": "F4",
          "midi": 65,
          "time": 98.8125,
          "velocity": 0.7874015748031497,
          "duration": 0.15000000000000568
        },
        {
          "name": "F4",
          "midi": 65,
          "time": 99,
          "velocity": 0.7874015748031497,
          "duration": 0.29999999999999716
        },
        {
          "name": "E4",
          "midi": 64,
          "time": 99.375,
          "velocity": 0.7874015748031497,
          "duration": 0.15000000000000568
        },
        {
          "name": "D4",
          "midi": 62,
          "time": 99.5625,
          "velocity": 0.7874015748031497,
          "duration": 0.15000000000000568
        },
        {
          "name": "E4",
          "midi": 64,
          "time": 99.75,
          "velocity": 0.7874015748031497,
          "duration": 0.29999999999999716
        },
        {
          "name": "E4",
          "midi": 64,
          "time": 100.125,
          "velocity": 0.7874015748031497,
          "duration": 0.15000000000000568
        },
        {
          "name": "F4",
          "midi": 65,
          "time": 100.3125,
          "velocity": 0.7874015748031497,
          "duration": 0.15000000000000568
        },
        {
          "name": "G4",
          "midi": 67,
          "time": 100.5,
          "velocity": 0.7874015748031497,
          "duration": 0.29999999999999716
        },
        {
          "name": "G4",
          "midi": 67,
          "time": 100.875,
          "velocity": 0.7874015748031497,
          "duration": 0.15000000000000568
        },
        {
          "name": "F4",
          "midi": 65,
          "time": 101.0625,
          "velocity": 0.7874015748031497,
          "duration": 0.15000000000000568
        },
        {
          "name": "E4",
          "midi": 64,
          "time": 101.25,
          "velocity": 0.7874015748031497,
          "duration": 0.15000000000000568
        },
        {
          "name": "F4",
          "midi": 65,
          "time": 101.4375,
          "velocity": 0.7874015748031497,
          "duration": 0.07500000000000284
        },
        {
          "name": "G4",
          "midi": 67,
          "time": 101.53125,
          "velocity": 0.7874015748031497,
          "duration": 0.07500000000000284
        },
        {
          "name": "F4",
          "midi": 65,
          "time": 101.625,
          "velocity": 0.7874015748031497,
          "duration": 0.15000000000000568
        },
        {
          "name": "E4",
          "midi": 64,
          "time": 101.8125,
          "velocity": 0.7874015748031497,
          "duration": 0.15000000000000568
        },
        {
          "name": "F4",
          "midi": 65,
          "time": 102,
          "velocity": 0.7874015748031497,
          "duration": 0.29999999999999716
        },
        {
          "name": "F4",
          "midi": 65,
          "time": 102.375,
          "velocity": 0.7874015748031497,
          "duration": 0.15000000000000568
        },
        {
          "name": "F4",
          "midi": 65,
          "time": 102.5625,
          "velocity": 0.7874015748031497,
          "duration": 0.07500000000000284
        },
        {
          "name": "G4",
          "midi": 67,
          "time": 102.65625,
          "velocity": 0.7874015748031497,
          "duration": 0.07500000000000284
        },
        {
          "name": "A4",
          "midi": 69,
          "time": 102.75,
          "velocity": 0.7874015748031497,
          "duration": 0.15000000000000568
        },
        {
          "name": "F4",
          "midi": 65,
          "time": 102.9375,
          "velocity": 0.7874015748031497,
          "duration": 0.15000000000000568
        },
        {
          "name": "A#4",
          "midi": 70,
          "time": 103.125,
          "velocity": 0.7874015748031497,
          "duration": 0.15000000000000568
        },
        {
          "name": "C5",
          "midi": 72,
          "time": 103.3125,
          "velocity": 0.7874015748031497,
          "duration": 0.07500000000000284
        },
        {
          "name": "D5",
          "midi": 74,
          "time": 103.40625,
          "velocity": 0.7874015748031497,
          "duration": 0.07500000000000284
        },
        {
          "name": "C5",
          "midi": 72,
          "time": 103.5,
          "velocity": 0.7874015748031497,
          "duration": 0.45000000000000284
        },
        {
          "name": "A#4",
          "midi": 70,
          "time": 104.0625,
          "velocity": 0.7874015748031497,
          "duration": 0.15000000000000568
        },
        {
          "name": "A4",
          "midi": 69,
          "time": 104.25,
          "velocity": 0.7874015748031497,
          "duration": 0.29999999999999716
        },
        {
          "name": "A#4",
          "midi": 70,
          "time": 104.625,
          "velocity": 0.7874015748031497,
          "duration": 0.15000000000000568
        },
        {
          "name": "A4",
          "midi": 69,
          "time": 104.8125,
          "velocity": 0.7874015748031497,
          "duration": 0.07500000000000284
        },
        {
          "name": "A#4",
          "midi": 70,
          "time": 104.90625,
          "velocity": 0.7874015748031497,
          "duration": 0.07500000000000284
        },
        {
          "name": "A4",
          "midi": 69,
          "time": 105,
          "velocity": 0.7874015748031497,
          "duration": 0.15000000000000568
        },
        {
          "name": "F4",
          "midi": 65,
          "time": 105.1875,
          "velocity": 0.7874015748031497,
          "duration": 0.15000000000000568
        },
        {
          "name": "E4",
          "midi": 64,
          "time": 105.375,
          "velocity": 0.7874015748031497,
          "duration": 0.15000000000000568
        },
        {
          "name": "D4",
          "midi": 62,
          "time": 105.5625,
          "velocity": 0.7874015748031497,
          "duration": 0.15000000000000568
        },
        {
          "name": "E4",
          "midi": 64,
          "time": 105.75,
          "velocity": 0.7874015748031497,
          "duration": 0.45000000000000284
        },
        {
          "name": "D4",
          "midi": 62,
          "time": 106.3125,
          "velocity": 0.7874015748031497,
          "duration": 0.15000000000000568
        },
        {
          "name": "E4",
          "midi": 64,
          "time": 106.5,
          "velocity": 0.7874015748031497,
          "duration": 0.45000000000000284
        },
        {
          "name": "C4",
          "midi": 60,
          "time": 107.0625,
          "velocity": 0.7874015748031497,
          "duration": 0.15000000000000568
        },
        {
          "name": "E4",
          "midi": 64,
          "time": 107.25,
          "velocity": 0.7874015748031497,
          "duration": 0.29999999999999716
        },
        {
          "name": "G4",
          "midi": 67,
          "time": 107.625,
          "velocity": 0.7874015748031497,
          "duration": 0.29999999999999716
        },
        {
          "name": "G4",
          "midi": 67,
          "time": 108.1875,
          "velocity": 0.7874015748031497,
          "duration": 0.15000000000000568
        },
        {
          "name": "C5",
          "midi": 72,
          "time": 108.375,
          "velocity": 0.7952755905511811,
          "duration": 0.15000000000000568
        },
        {
          "name": "D5",
          "midi": 74,
          "time": 108.5625,
          "velocity": 0.7952755905511811,
          "duration": 0.15000000000000568
        },
        {
          "name": "C5",
          "midi": 72,
          "time": 108.9375,
          "velocity": 0.8031496062992126,
          "duration": 0.15000000000000568
        },
        {
          "name": "D5",
          "midi": 74,
          "time": 109.125,
          "velocity": 0.8031496062992126,
          "duration": 0.15000000000000568
        },
        {
          "name": "E5",
          "midi": 76,
          "time": 109.3125,
          "velocity": 0.8110236220472441,
          "duration": 0.15000000000000568
        },
        {
          "name": "E5",
          "midi": 76,
          "time": 109.5,
          "velocity": 0.8110236220472441,
          "duration": 0.15000000000000568
        },
        {
          "name": "D5",
          "midi": 74,
          "time": 109.6875,
          "velocity": 0.8110236220472441,
          "duration": 0.15000000000000568
        },
        {
          "name": "C5",
          "midi": 72,
          "time": 109.875,
          "velocity": 0.8188976377952756,
          "duration": 0.15000000000000568
        },
        {
          "name": "D5",
          "midi": 74,
          "time": 110.0625,
          "velocity": 0.8188976377952756,
          "duration": 0.15000000000000568
        },
        {
          "name": "C5",
          "midi": 72,
          "time": 110.25,
          "velocity": 0.8267716535433071,
          "duration": 0.29999999999999716
        },
        {
          "name": "B4",
          "midi": 71,
          "time": 110.625,
          "velocity": 0.8267716535433071,
          "duration": 0.15000000000000568
        },
        {
          "name": "C5",
          "midi": 72,
          "time": 110.8125,
          "velocity": 0.8346456692913385,
          "duration": 0.15000000000000568
        }
      ],
      "controlChanges": {
        "7": [
          {
            "number": 7,
            "time": 0,
            "value": 0.9448818897637795
          }
        ]
      },
      "id": 11,
      "name": "Merry Christmas",
      "instrumentNumber": 88,
      "instrument": "pad 1 (new age)",
      "instrumentFamily": "synth pad",
      "channelNumber": 0,
      "isPercussion": false
    }
  ]
}