{
  "header": {
    "PPQ": 256,
    "timeSignature": [
      3,
      2
    ],
    "bpm": 104.00019413369571,
    "name": "Amazing Grace"
  },
  "tempo": [
    {
      "absoluteTime": 0,
      "seconds": 0,
      "bpm": 104.00019413369571
    },
    {
      "absoluteTime": 70656,
      "seconds": 159.23047200000002,
      "bpm": 102.00022440049368
    },
    {
      "absoluteTime": 71424,
      "seconds": 160.961238,
      "bpm": 98.00030380094178
    },
    {
      "absoluteTime": 72192,
      "seconds": 162.692004,
      "bpm": 96
    },
    {
      "absoluteTime": 72448,
      "seconds": 163.268926,
      "bpm": 94.00027573414215
    },
    {
      "absoluteTime": 72960,
      "seconds": 164.42276999999999,
      "bpm": 92.00026986745827
    }
  ],
  "timeSignature": [
    {
      "absoluteTime": 0,
      "seconds": 0,
      "numerator": 3,
      "denominator": 1,
      "click": 48,
      "notesQ": 8
    }
  ],
  "startTime": 0,
  "duration": 166.1084639687492,
  "tracks": [
    {
      "startTime": 0,
      "duration": 0,
      "length": 0,
      "notes": [],
      "controlChanges": {},
      "id": 0,
      "name": "Amazing Grace"
    },
    {
      "startTime": 0,
      "duration": 166.1084639687492,
      "length": 481,
      "notes": [
        {
          "name": "A3",
          "midi": 57,
          "time": 0,
          "velocity": 0.5039370078740157,
          "duration": 1.1087719687500002
        },
        {
          "name": "D4",
          "midi": 62,
          "time": 0,
          "velocity": 0.5039370078740157,
          "duration": 1.1087719687500002
        },
        {
          "name": "F4",
          "midi": 65,
          "time": 0,
          "velocity": 0.5039370078740157,
          "duration": 1.1087719687500002
        },
        {
          "name": "D3",
          "midi": 50,
          "time": 0,
          "velocity": 0.4881889763779528,
          "duration": 1.1087719687500002
        },
        {
          "name": "A3",
          "midi": 57,
          "time": 1.153844,
          "velocity": 0.5511811023622047,
          "duration": 1.1087719687500004
        },
        {
          "name": "D4",
          "midi": 62,
          "time": 1.153844,
          "velocity": 0.5511811023622047,
          "duration": 1.1087719687500004
        },
        {
          "name": "F4",
          "midi": 65,
          "time": 1.153844,
          "velocity": 0.5511811023622047,
          "duration": 1.1087719687500004
        },
        {
          "name": "D2",
          "midi": 38,
          "time": 1.153844,
          "velocity": 0.4881889763779528,
          "duration": 1.1087719687500004
        },
        {
          "name": "E4",
          "midi": 64,
          "time": 2.8846100000000003,
          "velocity": 0.4881889763779528,
          "duration": 0.5543859843750001
        },
        {
          "name": "G4",
          "midi": 67,
          "time": 2.8846100000000003,
          "velocity": 0.4881889763779528,
          "duration": 0.5543859843750001
        },
        {
          "name": "A3",
          "midi": 57,
          "time": 3.4615320000000005,
          "velocity": 0.5039370078740157,
          "duration": 1.1087719687499997
        },
        {
          "name": "C#4",
          "midi": 61,
          "time": 3.4615320000000005,
          "velocity": 0.5039370078740157,
          "duration": 1.1087719687499997
        },
        {
          "name": "E4",
          "midi": 64,
          "time": 3.4615320000000005,
          "velocity": 0.5039370078740157,
          "duration": 1.1087719687499997
        },
        {
          "name": "A2",
          "midi": 45,
          "time": 3.4615320000000005,
          "velocity": 0.48031496062992124,
          "duration": 1.6631579531249998
        },
        {
          "name": "A3",
          "midi": 57,
          "time": 4.615376,
          "velocity": 0.5511811023622047,
          "duration": 1.1087719687499993
        },
        {
          "name": "C#4",
          "midi": 61,
          "time": 4.615376,
          "velocity": 0.5511811023622047,
          "duration": 1.1087719687499993
        },
        {
          "name": "E4",
          "midi": 64,
          "time": 4.615376,
          "velocity": 0.5511811023622047,
          "duration": 1.1087719687499993
        },
        {
          "name": "A#2",
          "midi": 46,
          "time": 5.192298,
          "velocity": 0.5669291338582677,
          "duration": 0.5543859843749992
        },
        {
          "name": "A2",
          "midi": 45,
          "time": 5.769219999999999,
          "velocity": 0.5354330708661418,
          "duration": 0.5543859843750001
        },
        {
          "name": "G2",
          "midi": 43,
          "time": 6.346141999999999,
          "velocity": 0.5354330708661418,
          "duration": 0.5543859843750001
        },
        {
          "name": "C4",
          "midi": 60,
          "time": 6.923063999999998,
          "velocity": 0.4881889763779528,
          "duration": 1.1087719687500002
        },
        {
          "name": "F4",
          "midi": 65,
          "time": 6.923063999999998,
          "velocity": 0.4881889763779528,
          "duration": 1.1087719687500002
        },
        {
          "name": "A4",
          "midi": 69,
          "time": 6.923063999999998,
          "velocity": 0.4881889763779528,
          "duration": 1.1087719687500002
        },
        {
          "name": "F2",
          "midi": 41,
          "time": 6.923063999999998,
          "velocity": 0.6299212598425197,
          "duration": 1.1087719687500002
        },
        {
          "name": "F3",
          "midi": 53,
          "time": 6.923063999999998,
          "velocity": 0.6299212598425197,
          "duration": 1.1087719687500002
        },
        {
          "name": "C4",
          "midi": 60,
          "time": 8.076907999999998,
          "velocity": 0.5826771653543307,
          "duration": 1.1087719687500002
        },
        {
          "name": "F4",
          "midi": 65,
          "time": 8.076907999999998,
          "velocity": 0.5826771653543307,
          "duration": 1.1087719687500002
        },
        {
          "name": "A4",
          "midi": 69,
          "time": 8.076907999999998,
          "velocity": 0.5826771653543307,
          "duration": 1.1087719687500002
        },
        {
          "name": "F2",
          "midi": 41,
          "time": 8.076907999999998,
          "velocity": 0.5590551181102362,
          "duration": 1.1087719687500002
        },
        {
          "name": "F3",
          "midi": 53,
          "time": 8.076907999999998,
          "velocity": 0.5590551181102362,
          "duration": 1.1087719687500002
        },
        {
          "name": "G4",
          "midi": 67,
          "time": 9.807673999999999,
          "velocity": 0.49606299212598426,
          "duration": 0.5543859843749992
        },
        {
          "name": "A#4",
          "midi": 70,
          "time": 9.807673999999999,
          "velocity": 0.49606299212598426,
          "duration": 0.5543859843749992
        },
        {
          "name": "C4",
          "midi": 60,
          "time": 10.384595999999998,
          "velocity": 0.5196850393700787,
          "duration": 1.1087719687500002
        },
        {
          "name": "E4",
          "midi": 64,
          "time": 10.384595999999998,
          "velocity": 0.5196850393700787,
          "duration": 1.1087719687500002
        },
        {
          "name": "G4",
          "midi": 67,
          "time": 10.384595999999998,
          "velocity": 0.5196850393700787,
          "duration": 1.1087719687500002
        },
        {
          "name": "C3",
          "midi": 48,
          "time": 10.384595999999998,
          "velocity": 0.49606299212598426,
          "duration": 1.6631579531249994
        },
        {
          "name": "C4",
          "midi": 60,
          "time": 11.538439999999998,
          "velocity": 0.5196850393700787,
          "duration": 1.1087719687500002
        },
        {
          "name": "E4",
          "midi": 64,
          "time": 11.538439999999998,
          "velocity": 0.5196850393700787,
          "duration": 1.1087719687500002
        },
        {
          "name": "G4",
          "midi": 67,
          "time": 11.538439999999998,
          "velocity": 0.5196850393700787,
          "duration": 1.1087719687500002
        },
        {
          "name": "C3",
          "midi": 48,
          "time": 12.115361999999998,
          "velocity": 0.5433070866141733,
          "duration": 0.554385984375001
        },
        {
          "name": "A#2",
          "midi": 46,
          "time": 12.692283999999999,
          "velocity": 0.5275590551181102,
          "duration": 0.554385984375001
        },
        {
          "name": "F#4",
          "midi": 66,
          "time": 13.269206,
          "velocity": 0.4881889763779528,
          "duration": 0.5543859843749992
        },
        {
          "name": "A4",
          "midi": 69,
          "time": 13.269206,
          "velocity": 0.4881889763779528,
          "duration": 0.5543859843749992
        },
        {
          "name": "A2",
          "midi": 45,
          "time": 13.269206,
          "velocity": 0.5590551181102362,
          "duration": 0.5543859843749992
        },
        {
          "name": "D4",
          "midi": 62,
          "time": 13.846128,
          "velocity": 0.5905511811023622,
          "duration": 1.1087719687500002
        },
        {
          "name": "G4",
          "midi": 67,
          "time": 13.846128,
          "velocity": 0.5905511811023622,
          "duration": 1.1087719687500002
        },
        {
          "name": "A#4",
          "midi": 70,
          "time": 13.846128,
          "velocity": 0.5905511811023622,
          "duration": 1.1087719687500002
        },
        {
          "name": "G2",
          "midi": 43,
          "time": 13.846128,
          "velocity": 0.5826771653543307,
          "duration": 1.1087719687500002
        },
        {
          "name": "D4",
          "midi": 62,
          "time": 14.999972,
          "velocity": 0.5826771653543307,
          "duration": 1.1087719687499984
        },
        {
          "name": "G4",
          "midi": 67,
          "time": 14.999972,
          "velocity": 0.5826771653543307,
          "duration": 1.1087719687499984
        },
        {
          "name": "A#4",
          "midi": 70,
          "time": 14.999972,
          "velocity": 0.5826771653543307,
          "duration": 1.1087719687499984
        },
        {
          "name": "G3",
          "midi": 55,
          "time": 14.999972,
          "velocity": 0.6377952755905512,
          "duration": 1.1087719687499984
        },
        {
          "name": "G2",
          "midi": 43,
          "time": 16.153816,
          "velocity": 0.48031496062992124,
          "duration": 1.1087719687499984
        },
        {
          "name": "A4",
          "midi": 69,
          "time": 16.730738,
          "velocity": 0.47244094488188976,
          "duration": 0.5543859843749992
        },
        {
          "name": "C5",
          "midi": 72,
          "time": 16.730738,
          "velocity": 0.47244094488188976,
          "duration": 0.5543859843749992
        },
        {
          "name": "D4",
          "midi": 62,
          "time": 17.30766,
          "velocity": 0.5275590551181102,
          "duration": 1.1087719687499984
        },
        {
          "name": "F4",
          "midi": 65,
          "time": 17.30766,
          "velocity": 0.5275590551181102,
          "duration": 1.1087719687499984
        },
        {
          "name": "A4",
          "midi": 69,
          "time": 17.30766,
          "velocity": 0.5275590551181102,
          "duration": 1.1087719687499984
        },
        {
          "name": "D3",
          "midi": 50,
          "time": 17.30766,
          "velocity": 0.5984251968503937,
          "duration": 1.1087719687499984
        },
        {
          "name": "D4",
          "midi": 62,
          "time": 18.461503999999998,
          "velocity": 0.5511811023622047,
          "duration": 1.1087719687499984
        },
        {
          "name": "F4",
          "midi": 65,
          "time": 18.461503999999998,
          "velocity": 0.5511811023622047,
          "duration": 1.1087719687499984
        },
        {
          "name": "A4",
          "midi": 69,
          "time": 18.461503999999998,
          "velocity": 0.5511811023622047,
          "duration": 1.1087719687499984
        },
        {
          "name": "D3",
          "midi": 50,
          "time": 18.461503999999998,
          "velocity": 0.5511811023622047,
          "duration": 1.1087719687499984
        },
        {
          "name": "A4",
          "midi": 69,
          "time": 20.192269999999997,
          "velocity": 0.5433070866141733,
          "duration": 0.5543859843749992
        },
        {
          "name": "C3",
          "midi": 48,
          "time": 20.192269999999997,
          "velocity": 0.6062992125984252,
          "duration": 0.5543859843749992
        },
        {
          "name": "A4",
          "midi": 69,
          "time": 20.769191999999997,
          "velocity": 0.6535433070866141,
          "duration": 1.1087719687499984
        },
        {
          "name": "D5",
          "midi": 74,
          "time": 20.769191999999997,
          "velocity": 0.6535433070866141,
          "duration": 1.1087719687499984
        },
        {
          "name": "A#2",
          "midi": 46,
          "time": 20.769191999999997,
          "velocity": 0.5118110236220472,
          "duration": 1.1087719687499984
        },
        {
          "name": "G4",
          "midi": 67,
          "time": 21.923035999999996,
          "velocity": 0.5511811023622047,
          "duration": 1.1087719687499984
        },
        {
          "name": "D5",
          "midi": 74,
          "time": 21.923035999999996,
          "velocity": 0.5511811023622047,
          "duration": 1.1087719687499984
        },
        {
          "name": "A#3",
          "midi": 58,
          "time": 21.923035999999996,
          "velocity": 0.6377952755905512,
          "duration": 1.1087719687499984
        },
        {
          "name": "E5",
          "midi": 76,
          "time": 23.653801999999995,
          "velocity": 0.5748031496062992,
          "duration": 0.5543859843749992
        },
        {
          "name": "E4",
          "midi": 64,
          "time": 24.230723999999995,
          "velocity": 0.4881889763779528,
          "duration": 1.1087719687499984
        },
        {
          "name": "A4",
          "midi": 69,
          "time": 24.230723999999995,
          "velocity": 0.4881889763779528,
          "duration": 1.1087719687499984
        },
        {
          "name": "C#5",
          "midi": 73,
          "time": 24.230723999999995,
          "velocity": 0.4881889763779528,
          "duration": 1.1087719687499984
        },
        {
          "name": "A3",
          "midi": 57,
          "time": 24.230723999999995,
          "velocity": 0.5039370078740157,
          "duration": 1.1087719687499984
        },
        {
          "name": "E4",
          "midi": 64,
          "time": 25.384567999999994,
          "velocity": 0.5669291338582677,
          "duration": 1.1087719687499984
        },
        {
          "name": "A4",
          "midi": 69,
          "time": 25.384567999999994,
          "velocity": 0.5669291338582677,
          "duration": 1.1087719687499984
        },
        {
          "name": "C#5",
          "midi": 73,
          "time": 25.384567999999994,
          "velocity": 0.5669291338582677,
          "duration": 1.1087719687499984
        },
        {
          "name": "A2",
          "midi": 45,
          "time": 25.384567999999994,
          "velocity": 0.5590551181102362,
          "duration": 1.1087719687499984
        },
        {
          "name": "G3",
          "midi": 55,
          "time": 25.961489999999994,
          "velocity": 0.49606299212598426,
          "duration": 0.5543859843749992
        },
        {
          "name": "F3",
          "midi": 53,
          "time": 26.538411999999994,
          "velocity": 0.5118110236220472,
          "duration": 0.5543859843749992
        },
        {
          "name": "E3",
          "midi": 52,
          "time": 27.115333999999994,
          "velocity": 0.5433070866141733,
          "duration": 0.5543859843749992
        },
        {
          "name": "A3",
          "midi": 57,
          "time": 27.692255999999993,
          "velocity": 0.5039370078740157,
          "duration": 1.1087719687499984
        },
        {
          "name": "D4",
          "midi": 62,
          "time": 27.692255999999993,
          "velocity": 0.5039370078740157,
          "duration": 1.1087719687499984
        },
        {
          "name": "F4",
          "midi": 65,
          "time": 27.692255999999993,
          "velocity": 0.5039370078740157,
          "duration": 1.1087719687499984
        },
        {
          "name": "D3",
          "midi": 50,
          "time": 27.692255999999993,
          "velocity": 0.5748031496062992,
          "duration": 1.1087719687499984
        },
        {
          "name": "A3",
          "midi": 57,
          "time": 28.846099999999993,
          "velocity": 0.5354330708661418,
          "duration": 1.1087719687499984
        },
        {
          "name": "D4",
          "midi": 62,
          "time": 28.846099999999993,
          "velocity": 0.5354330708661418,
          "duration": 1.1087719687499984
        },
        {
          "name": "F4",
          "midi": 65,
          "time": 28.846099999999993,
          "velocity": 0.5354330708661418,
          "duration": 1.1087719687499984
        },
        {
          "name": "D2",
          "midi": 38,
          "time": 28.846099999999993,
          "velocity": 0.5118110236220472,
          "duration": 1.1087719687499984
        },
        {
          "name": "E4",
          "midi": 64,
          "time": 30.576865999999992,
          "velocity": 0.5118110236220472,
          "duration": 0.5543859843749992
        },
        {
          "name": "G4",
          "midi": 67,
          "time": 30.576865999999992,
          "velocity": 0.5118110236220472,
          "duration": 0.5543859843749992
        },
        {
          "name": "A3",
          "midi": 57,
          "time": 31.15378799999999,
          "velocity": 0.48031496062992124,
          "duration": 1.1087719687499984
        },
        {
          "name": "C#4",
          "midi": 61,
          "time": 31.15378799999999,
          "velocity": 0.48031496062992124,
          "duration": 1.1087719687499984
        },
        {
          "name": "E4",
          "midi": 64,
          "time": 31.15378799999999,
          "velocity": 0.48031496062992124,
          "duration": 1.1087719687499984
        },
        {
          "name": "A2",
          "midi": 45,
          "time": 31.15378799999999,
          "velocity": 0.5118110236220472,
          "duration": 1.6631579531250011
        },
        {
          "name": "A3",
          "midi": 57,
          "time": 32.30763199999999,
          "velocity": 0.5433070866141733,
          "duration": 1.1087719687500055
        },
        {
          "name": "C#4",
          "midi": 61,
          "time": 32.30763199999999,
          "velocity": 0.5433070866141733,
          "duration": 1.1087719687500055
        },
        {
          "name": "E4",
          "midi": 64,
          "time": 32.30763199999999,
          "velocity": 0.5433070866141733,
          "duration": 1.1087719687500055
        },
        {
          "name": "A#2",
          "midi": 46,
          "time": 32.884553999999994,
          "velocity": 0.5826771653543307,
          "duration": 0.5543859843750027
        },
        {
          "name": "A2",
          "midi": 45,
          "time": 33.461476,
          "velocity": 0.5511811023622047,
          "duration": 0.5543859843750027
        },
        {
          "name": "G2",
          "midi": 43,
          "time": 34.038398,
          "velocity": 0.5511811023622047,
          "duration": 0.5543859843750027
        },
        {
          "name": "C4",
          "midi": 60,
          "time": 34.615320000000004,
          "velocity": 0.4881889763779528,
          "duration": 1.1087719687499984
        },
        {
          "name": "F4",
          "midi": 65,
          "time": 34.615320000000004,
          "velocity": 0.4881889763779528,
          "duration": 1.1087719687499984
        },
        {
          "name": "A4",
          "midi": 69,
          "time": 34.615320000000004,
          "velocity": 0.4881889763779528,
          "duration": 1.1087719687499984
        },
        {
          "name": "F2",
          "midi": 41,
          "time": 34.615320000000004,
          "velocity": 0.6141732283464567,
          "duration": 1.1087719687499984
        },
        {
          "name": "F3",
          "midi": 53,
          "time": 34.615320000000004,
          "velocity": 0.6141732283464567,
          "duration": 1.1087719687499984
        },
        {
          "name": "C4",
          "midi": 60,
          "time": 35.769164,
          "velocity": 0.5590551181102362,
          "duration": 1.1087719687499984
        },
        {
          "name": "F4",
          "midi": 65,
          "time": 35.769164,
          "velocity": 0.5590551181102362,
          "duration": 1.1087719687499984
        },
        {
          "name": "A4",
          "midi": 69,
          "time": 35.769164,
          "velocity": 0.5590551181102362,
          "duration": 1.1087719687499984
        },
        {
          "name": "F2",
          "midi": 41,
          "time": 35.769164,
          "velocity": 0.6062992125984252,
          "duration": 1.1087719687499984
        },
        {
          "name": "F3",
          "midi": 53,
          "time": 35.769164,
          "velocity": 0.6062992125984252,
          "duration": 1.1087719687499984
        },
        {
          "name": "G4",
          "midi": 67,
          "time": 37.49993,
          "velocity": 0.5275590551181102,
          "duration": 0.5543859843750027
        },
        {
          "name": "A#4",
          "midi": 70,
          "time": 37.49993,
          "velocity": 0.5275590551181102,
          "duration": 0.5543859843750027
        },
        {
          "name": "C4",
          "midi": 60,
          "time": 38.076852,
          "velocity": 0.4881889763779528,
          "duration": 1.1087719687499984
        },
        {
          "name": "E4",
          "midi": 64,
          "time": 38.076852,
          "velocity": 0.4881889763779528,
          "duration": 1.1087719687499984
        },
        {
          "name": "G4",
          "midi": 67,
          "time": 38.076852,
          "velocity": 0.4881889763779528,
          "duration": 1.1087719687499984
        },
        {
          "name": "C3",
          "midi": 48,
          "time": 38.076852,
          "velocity": 0.5039370078740157,
          "duration": 1.6631579531250011
        },
        {
          "name": "C4",
          "midi": 60,
          "time": 39.230696,
          "velocity": 0.5275590551181102,
          "duration": 1.1087719687500055
        },
        {
          "name": "E4",
          "midi": 64,
          "time": 39.230696,
          "velocity": 0.5275590551181102,
          "duration": 1.1087719687500055
        },
        {
          "name": "G4",
          "midi": 67,
          "time": 39.230696,
          "velocity": 0.5275590551181102,
          "duration": 1.1087719687500055
        },
        {
          "name": "C3",
          "midi": 48,
          "time": 39.807618000000005,
          "velocity": 0.5039370078740157,
          "duration": 0.5543859843750027
        },
        {
          "name": "A#2",
          "midi": 46,
          "time": 40.38454000000001,
          "velocity": 0.5669291338582677,
          "duration": 0.5543859843750027
        },
        {
          "name": "F#4",
          "midi": 66,
          "time": 40.96146200000001,
          "velocity": 0.4881889763779528,
          "duration": 0.5543859843750027
        },
        {
          "name": "A4",
          "midi": 69,
          "time": 40.96146200000001,
          "velocity": 0.4881889763779528,
          "duration": 0.5543859843750027
        },
        {
          "name": "A2",
          "midi": 45,
          "time": 40.96146200000001,
          "velocity": 0.5590551181102362,
          "duration": 0.5543859843750027
        },
        {
          "name": "D4",
          "midi": 62,
          "time": 41.538384000000015,
          "velocity": 0.5511811023622047,
          "duration": 1.1087719687500055
        },
        {
          "name": "G4",
          "midi": 67,
          "time": 41.538384000000015,
          "velocity": 0.5511811023622047,
          "duration": 1.1087719687500055
        },
        {
          "name": "A#4",
          "midi": 70,
          "time": 41.538384000000015,
          "velocity": 0.5511811023622047,
          "duration": 1.1087719687500055
        },
        {
          "name": "G2",
          "midi": 43,
          "time": 41.538384000000015,
          "velocity": 0.5433070866141733,
          "duration": 0.5543859843750027
        },
        {
          "name": "G3",
          "midi": 55,
          "time": 42.11530600000002,
          "velocity": 0.6220472440944882,
          "duration": 0.5543859843750027
        },
        {
          "name": "C4",
          "midi": 60,
          "time": 42.69222800000002,
          "velocity": 0.5748031496062992,
          "duration": 1.1087719687500055
        },
        {
          "name": "G4",
          "midi": 67,
          "time": 42.69222800000002,
          "velocity": 0.5748031496062992,
          "duration": 1.1087719687500055
        },
        {
          "name": "A#4",
          "midi": 70,
          "time": 42.69222800000002,
          "velocity": 0.5748031496062992,
          "duration": 1.1087719687500055
        },
        {
          "name": "E3",
          "midi": 52,
          "time": 42.69222800000002,
          "velocity": 0.5748031496062992,
          "duration": 0.5543859843750027
        },
        {
          "name": "G3",
          "midi": 55,
          "time": 43.269150000000025,
          "velocity": 0.5826771653543307,
          "duration": 0.5543859843750027
        },
        {
          "name": "C3",
          "midi": 48,
          "time": 43.84607200000003,
          "velocity": 0.49606299212598426,
          "duration": 0.5543859843750027
        },
        {
          "name": "C5",
          "midi": 72,
          "time": 44.42299400000003,
          "velocity": 0.5118110236220472,
          "duration": 0.5543859843750027
        },
        {
          "name": "E3",
          "midi": 52,
          "time": 44.42299400000003,
          "velocity": 0.5275590551181102,
          "duration": 0.5543859843750027
        },
        {
          "name": "C4",
          "midi": 60,
          "time": 44.999916000000034,
          "velocity": 0.5196850393700787,
          "duration": 1.6631579531250011
        },
        {
          "name": "F4",
          "midi": 65,
          "time": 44.999916000000034,
          "velocity": 0.5196850393700787,
          "duration": 1.6631579531250011
        },
        {
          "name": "A4",
          "midi": 69,
          "time": 44.999916000000034,
          "velocity": 0.5196850393700787,
          "duration": 1.6631579531250011
        },
        {
          "name": "F3",
          "midi": 53,
          "time": 44.999916000000034,
          "velocity": 0.5748031496062992,
          "duration": 1.6631579531250011
        },
        {
          "name": "A4",
          "midi": 69,
          "time": 46.73068200000004,
          "velocity": 0.6141732283464567,
          "duration": 0.5543859843750027
        },
        {
          "name": "D3",
          "midi": 50,
          "time": 46.73068200000004,
          "velocity": 0.5748031496062992,
          "duration": 0.5543859843750027
        },
        {
          "name": "D5",
          "midi": 74,
          "time": 47.30760400000004,
          "velocity": 0.7244094488188977,
          "duration": 0.5543859843750027
        },
        {
          "name": "A#3",
          "midi": 58,
          "time": 47.30760400000004,
          "velocity": 0.6141732283464567,
          "duration": 1.1087719687500055
        },
        {
          "name": "C#5",
          "midi": 73,
          "time": 47.884526000000044,
          "velocity": 0.6456692913385826,
          "duration": 0.5543859843750027
        },
        {
          "name": "D5",
          "midi": 74,
          "time": 48.46144800000005,
          "velocity": 0.6929133858267716,
          "duration": 0.5543859843750027
        },
        {
          "name": "G3",
          "midi": 55,
          "time": 48.46144800000005,
          "velocity": 0.5354330708661418,
          "duration": 1.1087719687500055
        },
        {
          "name": "E5",
          "midi": 76,
          "time": 49.03837000000005,
          "velocity": 0.7244094488188977,
          "duration": 0.5543859843750027
        },
        {
          "name": "F5",
          "midi": 77,
          "time": 49.61529200000005,
          "velocity": 0.7322834645669292,
          "duration": 1.1087719687499984
        },
        {
          "name": "A3",
          "midi": 57,
          "time": 49.61529200000005,
          "velocity": 0.5826771653543307,
          "duration": 1.1087719687499984
        },
        {
          "name": "E5",
          "midi": 76,
          "time": 50.76913600000005,
          "velocity": 0.6456692913385826,
          "duration": 0.5543859843750027
        },
        {
          "name": "A2",
          "midi": 45,
          "time": 50.76913600000005,
          "velocity": 0.49606299212598426,
          "duration": 1.1087719687500055
        },
        {
          "name": "D5",
          "midi": 74,
          "time": 51.346058000000056,
          "velocity": 0.6377952755905512,
          "duration": 0.5543859843750027
        },
        {
          "name": "F4",
          "midi": 65,
          "time": 51.92298000000006,
          "velocity": 0.5748031496062992,
          "duration": 1.1087719687499984
        },
        {
          "name": "A4",
          "midi": 69,
          "time": 51.92298000000006,
          "velocity": 0.5748031496062992,
          "duration": 1.1087719687499984
        },
        {
          "name": "D5",
          "midi": 74,
          "time": 51.92298000000006,
          "velocity": 0.5748031496062992,
          "duration": 1.1087719687499984
        },
        {
          "name": "D3",
          "midi": 50,
          "time": 51.92298000000006,
          "velocity": 0.5905511811023622,
          "duration": 1.1087719687499984
        },
        {
          "name": "F4",
          "midi": 65,
          "time": 53.07682400000006,
          "velocity": 0.5354330708661418,
          "duration": 1.1087719687499984
        },
        {
          "name": "A4",
          "midi": 69,
          "time": 53.07682400000006,
          "velocity": 0.5354330708661418,
          "duration": 1.1087719687499984
        },
        {
          "name": "D5",
          "midi": 74,
          "time": 53.07682400000006,
          "velocity": 0.5354330708661418,
          "duration": 1.1087719687499984
        },
        {
          "name": "D2",
          "midi": 38,
          "time": 53.07682400000006,
          "velocity": 0.5039370078740157,
          "duration": 1.1087719687499984
        },
        {
          "name": "F4",
          "midi": 65,
          "time": 55.38451200000006,
          "velocity": 0.5275590551181102,
          "duration": 1.6631579531250082
        },
        {
          "name": "D3",
          "midi": 50,
          "time": 55.38451200000006,
          "velocity": 0.5039370078740157,
          "duration": 1.1087719687500055
        },
        {
          "name": "A3",
          "midi": 57,
          "time": 55.96143400000006,
          "velocity": 0.49606299212598426,
          "duration": 0.5543859843750027
        },
        {
          "name": "D4",
          "midi": 62,
          "time": 56.538356000000064,
          "velocity": 0.6299212598425197,
          "duration": 1.1087719687500055
        },
        {
          "name": "F3",
          "midi": 53,
          "time": 56.538356000000064,
          "velocity": 0.5748031496062992,
          "duration": 1.1087719687500055
        },
        {
          "name": "A4",
          "midi": 69,
          "time": 57.11527800000007,
          "velocity": 0.5748031496062992,
          "duration": 0.5543859843750027
        },
        {
          "name": "G4",
          "midi": 67,
          "time": 57.69220000000007,
          "velocity": 0.5275590551181102,
          "duration": 0.5543859843750027
        },
        {
          "name": "D3",
          "midi": 50,
          "time": 57.69220000000007,
          "velocity": 0.5196850393700787,
          "duration": 1.1087719687500055
        },
        {
          "name": "F4",
          "midi": 65,
          "time": 58.269122000000074,
          "velocity": 0.5118110236220472,
          "duration": 0.5543859843750027
        },
        {
          "name": "E4",
          "midi": 64,
          "time": 58.84604400000008,
          "velocity": 0.5511811023622047,
          "duration": 1.1087719687500055
        },
        {
          "name": "A3",
          "midi": 57,
          "time": 58.84604400000008,
          "velocity": 0.5826771653543307,
          "duration": 1.1087719687500055
        },
        {
          "name": "B3",
          "midi": 59,
          "time": 59.42296600000008,
          "velocity": 0.5039370078740157,
          "duration": 0.5543859843750027
        },
        {
          "name": "C#4",
          "midi": 61,
          "time": 59.999888000000084,
          "velocity": 0.5196850393700787,
          "duration": 1.1087719687500055
        },
        {
          "name": "A2",
          "midi": 45,
          "time": 59.999888000000084,
          "velocity": 0.4566929133858268,
          "duration": 1.1087719687500055
        },
        {
          "name": "G3",
          "midi": 55,
          "time": 60.57681000000009,
          "velocity": 0.4881889763779528,
          "duration": 0.5543859843750027
        },
        {
          "name": "A3",
          "midi": 57,
          "time": 61.15373200000009,
          "velocity": 0.5905511811023622,
          "duration": 0.5543859843750027
        },
        {
          "name": "E3",
          "midi": 52,
          "time": 61.730654000000094,
          "velocity": 0.5275590551181102,
          "duration": 0.5543859843750027
        },
        {
          "name": "A4",
          "midi": 69,
          "time": 62.3075760000001,
          "velocity": 0.5039370078740157,
          "duration": 1.6631579531250082
        },
        {
          "name": "F3",
          "midi": 53,
          "time": 62.3075760000001,
          "velocity": 0.5826771653543307,
          "duration": 1.1087719687500055
        },
        {
          "name": "C4",
          "midi": 60,
          "time": 62.8844980000001,
          "velocity": 0.5118110236220472,
          "duration": 0.5543859843750027
        },
        {
          "name": "F4",
          "midi": 65,
          "time": 63.4614200000001,
          "velocity": 0.6377952755905512,
          "duration": 1.1087719687499913
        },
        {
          "name": "A3",
          "midi": 57,
          "time": 63.4614200000001,
          "velocity": 0.5984251968503937,
          "duration": 1.1087719687499913
        },
        {
          "name": "C5",
          "midi": 72,
          "time": 64.0383420000001,
          "velocity": 0.6062992125984252,
          "duration": 0.5543859843749885
        },
        {
          "name": "A#4",
          "midi": 70,
          "time": 64.61526400000008,
          "velocity": 0.5196850393700787,
          "duration": 0.5543859843750027
        },
        {
          "name": "F3",
          "midi": 53,
          "time": 64.61526400000008,
          "velocity": 0.5354330708661418,
          "duration": 1.1087719687499913
        },
        {
          "name": "A4",
          "midi": 69,
          "time": 65.19218600000008,
          "velocity": 0.5275590551181102,
          "duration": 0.5543859843749885
        },
        {
          "name": "G4",
          "midi": 67,
          "time": 65.76910800000006,
          "velocity": 0.5354330708661418,
          "duration": 1.1087719687499913
        },
        {
          "name": "C3",
          "midi": 48,
          "time": 65.76910800000006,
          "velocity": 0.5275590551181102,
          "duration": 1.1087719687499913
        },
        {
          "name": "D4",
          "midi": 62,
          "time": 66.34603000000006,
          "velocity": 0.5118110236220472,
          "duration": 0.5543859843749885
        },
        {
          "name": "E4",
          "midi": 64,
          "time": 66.92295200000004,
          "velocity": 0.5039370078740157,
          "duration": 1.1087719687499913
        },
        {
          "name": "B3",
          "midi": 59,
          "time": 67.49987400000003,
          "velocity": 0.48031496062992124,
          "duration": 0.5543859843749885
        },
        {
          "name": "C4",
          "midi": 60,
          "time": 68.07679600000002,
          "velocity": 0.5826771653543307,
          "duration": 1.1087719687499913
        },
        {
          "name": "A4",
          "midi": 69,
          "time": 68.65371800000001,
          "velocity": 0.5118110236220472,
          "duration": 0.5543859843749885
        },
        {
          "name": "F#3",
          "midi": 54,
          "time": 68.65371800000001,
          "velocity": 0.5354330708661418,
          "duration": 0.5543859843749885
        },
        {
          "name": "A#4",
          "midi": 70,
          "time": 69.23064,
          "velocity": 0.5905511811023622,
          "duration": 1.6631579531249798
        },
        {
          "name": "G3",
          "midi": 55,
          "time": 69.23064,
          "velocity": 0.5590551181102362,
          "duration": 1.1087719687499913
        },
        {
          "name": "D4",
          "midi": 62,
          "time": 69.80756199999999,
          "velocity": 0.4881889763779528,
          "duration": 0.5543859843749885
        },
        {
          "name": "G4",
          "midi": 67,
          "time": 70.38448399999997,
          "velocity": 0.6220472440944882,
          "duration": 1.1087719687499913
        },
        {
          "name": "A#3",
          "midi": 58,
          "time": 70.38448399999997,
          "velocity": 0.5511811023622047,
          "duration": 1.1087719687499913
        },
        {
          "name": "D5",
          "midi": 74,
          "time": 70.96140599999997,
          "velocity": 0.6220472440944882,
          "duration": 0.5543859843749885
        },
        {
          "name": "C5",
          "midi": 72,
          "time": 71.53832799999995,
          "velocity": 0.5590551181102362,
          "duration": 0.5543859843750027
        },
        {
          "name": "G3",
          "midi": 55,
          "time": 71.53832799999995,
          "velocity": 0.5433070866141733,
          "duration": 1.1087719687499913
        },
        {
          "name": "A#4",
          "midi": 70,
          "time": 72.11524999999995,
          "velocity": 0.5354330708661418,
          "duration": 0.5543859843749885
        },
        {
          "name": "A4",
          "midi": 69,
          "time": 72.69217199999993,
          "velocity": 0.5354330708661418,
          "duration": 1.1087719687499913
        },
        {
          "name": "D4",
          "midi": 62,
          "time": 72.69217199999993,
          "velocity": 0.6535433070866141,
          "duration": 1.1087719687499913
        },
        {
          "name": "G4",
          "midi": 67,
          "time": 73.26909399999992,
          "velocity": 0.4881889763779528,
          "duration": 0.5543859843749885
        },
        {
          "name": "F4",
          "midi": 65,
          "time": 73.8460159999999,
          "velocity": 0.4881889763779528,
          "duration": 0.5543859843750027
        },
        {
          "name": "D3",
          "midi": 50,
          "time": 73.8460159999999,
          "velocity": 0.5433070866141733,
          "duration": 1.1087719687499913
        },
        {
          "name": "E4",
          "midi": 64,
          "time": 74.4229379999999,
          "velocity": 0.5275590551181102,
          "duration": 0.5543859843749885
        },
        {
          "name": "D4",
          "midi": 62,
          "time": 74.99985999999988,
          "velocity": 0.4881889763779528,
          "duration": 0.5543859843750027
        },
        {
          "name": "A4",
          "midi": 69,
          "time": 75.57678199999988,
          "velocity": 0.5039370078740157,
          "duration": 1.131307984374999
        },
        {
          "name": "C4",
          "midi": 60,
          "time": 75.57678199999988,
          "velocity": 0.5118110236220472,
          "duration": 0.5543859843750027
        },
        {
          "name": "D5",
          "midi": 74,
          "time": 76.15370399999988,
          "velocity": 0.5590551181102362,
          "duration": 1.6631579531249798
        },
        {
          "name": "A#3",
          "midi": 58,
          "time": 76.15370399999988,
          "velocity": 0.5196850393700787,
          "duration": 1.1087719687499913
        },
        {
          "name": "A4",
          "midi": 69,
          "time": 76.73062599999987,
          "velocity": 0.5669291338582677,
          "duration": 0.5543859843749885
        },
        {
          "name": "G4",
          "midi": 67,
          "time": 77.30754799999985,
          "velocity": 0.5511811023622047,
          "duration": 1.1087719687499913
        },
        {
          "name": "A#2",
          "midi": 46,
          "time": 77.30754799999985,
          "velocity": 0.49606299212598426,
          "duration": 1.1087719687499913
        },
        {
          "name": "F5",
          "midi": 77,
          "time": 77.88446999999985,
          "velocity": 0.5905511811023622,
          "duration": 0.5543859843749885
        },
        {
          "name": "E5",
          "midi": 76,
          "time": 78.46139199999983,
          "velocity": 0.5275590551181102,
          "duration": 0.5543859843750027
        },
        {
          "name": "A#3",
          "midi": 58,
          "time": 78.46139199999983,
          "velocity": 0.6299212598425197,
          "duration": 1.1087719687499913
        },
        {
          "name": "D5",
          "midi": 74,
          "time": 79.03831399999983,
          "velocity": 0.5196850393700787,
          "duration": 0.5543859843749885
        },
        {
          "name": "C#5",
          "midi": 73,
          "time": 79.61523599999981,
          "velocity": 0.5354330708661418,
          "duration": 0.5543859843750027
        },
        {
          "name": "A3",
          "midi": 57,
          "time": 79.61523599999981,
          "velocity": 0.5669291338582677,
          "duration": 1.663157953124994
        },
        {
          "name": "E5",
          "midi": 76,
          "time": 80.19215799999981,
          "velocity": 0.6062992125984252,
          "duration": 0.5543859843750027
        },
        {
          "name": "A4",
          "midi": 69,
          "time": 80.7690799999998,
          "velocity": 0.4330708661417323,
          "duration": 0.5543859843750027
        },
        {
          "name": "C#5",
          "midi": 73,
          "time": 81.3460019999998,
          "velocity": 0.6377952755905512,
          "duration": 0.5543859843750027
        },
        {
          "name": "G3",
          "midi": 55,
          "time": 81.3460019999998,
          "velocity": 0.5669291338582677,
          "duration": 0.5543859843750027
        },
        {
          "name": "E4",
          "midi": 64,
          "time": 81.9229239999998,
          "velocity": 0.4330708661417323,
          "duration": 0.5543859843750027
        },
        {
          "name": "F3",
          "midi": 53,
          "time": 81.9229239999998,
          "velocity": 0.5118110236220472,
          "duration": 0.5543859843750027
        },
        {
          "name": "G4",
          "midi": 67,
          "time": 82.49984599999979,
          "velocity": 0.5905511811023622,
          "duration": 0.5543859843750027
        },
        {
          "name": "E3",
          "midi": 52,
          "time": 82.49984599999979,
          "velocity": 0.5275590551181102,
          "duration": 0.5543859843750027
        },
        {
          "name": "F4",
          "midi": 65,
          "time": 83.07676799999979,
          "velocity": 0.5354330708661418,
          "duration": 1.6631579531249798
        },
        {
          "name": "D3",
          "midi": 50,
          "time": 83.07676799999979,
          "velocity": 0.49606299212598426,
          "duration": 1.1087719687499913
        },
        {
          "name": "A3",
          "midi": 57,
          "time": 83.65368999999978,
          "velocity": 0.4881889763779528,
          "duration": 0.5543859843749885
        },
        {
          "name": "D4",
          "midi": 62,
          "time": 84.23061199999977,
          "velocity": 0.6220472440944882,
          "duration": 1.1087719687499913
        },
        {
          "name": "F3",
          "midi": 53,
          "time": 84.23061199999977,
          "velocity": 0.5433070866141733,
          "duration": 1.1087719687499913
        },
        {
          "name": "A4",
          "midi": 69,
          "time": 84.80753399999976,
          "velocity": 0.6062992125984252,
          "duration": 0.5543859843749885
        },
        {
          "name": "G4",
          "midi": 67,
          "time": 85.38445599999974,
          "velocity": 0.49606299212598426,
          "duration": 0.5543859843750027
        },
        {
          "name": "D3",
          "midi": 50,
          "time": 85.38445599999974,
          "velocity": 0.5039370078740157,
          "duration": 1.1087719687499913
        },
        {
          "name": "F4",
          "midi": 65,
          "time": 85.96137799999974,
          "velocity": 0.4881889763779528,
          "duration": 0.5543859843749885
        },
        {
          "name": "E4",
          "midi": 64,
          "time": 86.53829999999972,
          "velocity": 0.5118110236220472,
          "duration": 1.1087719687499913
        },
        {
          "name": "A3",
          "midi": 57,
          "time": 86.53829999999972,
          "velocity": 0.5748031496062992,
          "duration": 1.1087719687499913
        },
        {
          "name": "B3",
          "midi": 59,
          "time": 87.11522199999972,
          "velocity": 0.5118110236220472,
          "duration": 0.5543859843749885
        },
        {
          "name": "C#4",
          "midi": 61,
          "time": 87.6921439999997,
          "velocity": 0.5511811023622047,
          "duration": 1.1087719687499913
        },
        {
          "name": "A2",
          "midi": 45,
          "time": 87.6921439999997,
          "velocity": 0.4881889763779528,
          "duration": 1.1087719687499913
        },
        {
          "name": "G3",
          "midi": 55,
          "time": 88.2690659999997,
          "velocity": 0.48031496062992124,
          "duration": 0.5543859843749885
        },
        {
          "name": "A3",
          "midi": 57,
          "time": 88.84598799999968,
          "velocity": 0.5748031496062992,
          "duration": 0.5543859843750027
        },
        {
          "name": "E3",
          "midi": 52,
          "time": 89.42290999999967,
          "velocity": 0.5590551181102362,
          "duration": 0.5543859843750027
        },
        {
          "name": "A4",
          "midi": 69,
          "time": 89.99983199999967,
          "velocity": 0.47244094488188976,
          "duration": 1.6631579531249798
        },
        {
          "name": "F3",
          "midi": 53,
          "time": 89.99983199999967,
          "velocity": 0.5826771653543307,
          "duration": 1.1087719687499913
        },
        {
          "name": "C4",
          "midi": 60,
          "time": 90.57675399999967,
          "velocity": 0.5275590551181102,
          "duration": 0.5543859843749885
        },
        {
          "name": "F4",
          "midi": 65,
          "time": 91.15367599999965,
          "velocity": 0.6220472440944882,
          "duration": 1.1087719687499913
        },
        {
          "name": "A3",
          "midi": 57,
          "time": 91.15367599999965,
          "velocity": 0.5905511811023622,
          "duration": 1.1087719687499913
        },
        {
          "name": "C5",
          "midi": 72,
          "time": 91.73059799999965,
          "velocity": 0.5669291338582677,
          "duration": 0.5543859843749885
        },
        {
          "name": "A#4",
          "midi": 70,
          "time": 92.30751999999963,
          "velocity": 0.5590551181102362,
          "duration": 0.5543859843750027
        },
        {
          "name": "F3",
          "midi": 53,
          "time": 92.30751999999963,
          "velocity": 0.5354330708661418,
          "duration": 1.1087719687499913
        },
        {
          "name": "A4",
          "midi": 69,
          "time": 92.88444199999962,
          "velocity": 0.5354330708661418,
          "duration": 0.5543859843749885
        },
        {
          "name": "G4",
          "midi": 67,
          "time": 93.4613639999996,
          "velocity": 0.5275590551181102,
          "duration": 1.1087719687499913
        },
        {
          "name": "C4",
          "midi": 60,
          "time": 93.4613639999996,
          "velocity": 0.6377952755905512,
          "duration": 1.1087719687499913
        },
        {
          "name": "D4",
          "midi": 62,
          "time": 94.0382859999996,
          "velocity": 0.49606299212598426,
          "duration": 0.5543859843749885
        },
        {
          "name": "E4",
          "midi": 64,
          "time": 94.61520799999958,
          "velocity": 0.49606299212598426,
          "duration": 1.1087719687499913
        },
        {
          "name": "C3",
          "midi": 48,
          "time": 94.61520799999958,
          "velocity": 0.5118110236220472,
          "duration": 1.1087719687499913
        },
        {
          "name": "B3",
          "midi": 59,
          "time": 95.19212999999958,
          "velocity": 0.5039370078740157,
          "duration": 0.5543859843749885
        },
        {
          "name": "C4",
          "midi": 60,
          "time": 95.76905199999956,
          "velocity": 0.5905511811023622,
          "duration": 1.1087719687499913
        },
        {
          "name": "A4",
          "midi": 69,
          "time": 96.34597399999956,
          "velocity": 0.5118110236220472,
          "duration": 0.5543859843749885
        },
        {
          "name": "F#3",
          "midi": 54,
          "time": 96.34597399999956,
          "velocity": 0.4881889763779528,
          "duration": 0.5543859843749885
        },
        {
          "name": "A#4",
          "midi": 70,
          "time": 96.92289599999954,
          "velocity": 0.5590551181102362,
          "duration": 1.6631579531249798
        },
        {
          "name": "G3",
          "midi": 55,
          "time": 96.92289599999954,
          "velocity": 0.5590551181102362,
          "duration": 1.1087719687499913
        },
        {
          "name": "D4",
          "midi": 62,
          "time": 97.49981799999954,
          "velocity": 0.4645669291338583,
          "duration": 0.5543859843749885
        },
        {
          "name": "G4",
          "midi": 67,
          "time": 98.07673999999952,
          "velocity": 0.6299212598425197,
          "duration": 1.1087719687499913
        },
        {
          "name": "A#3",
          "midi": 58,
          "time": 98.07673999999952,
          "velocity": 0.5433070866141733,
          "duration": 1.1087719687499913
        },
        {
          "name": "D5",
          "midi": 74,
          "time": 98.65366199999951,
          "velocity": 0.6062992125984252,
          "duration": 0.5543859843749885
        },
        {
          "name": "C5",
          "midi": 72,
          "time": 99.2305839999995,
          "velocity": 0.5275590551181102,
          "duration": 0.5543859843750027
        },
        {
          "name": "G3",
          "midi": 55,
          "time": 99.2305839999995,
          "velocity": 0.5039370078740157,
          "duration": 1.1087719687499913
        },
        {
          "name": "A#4",
          "midi": 70,
          "time": 99.80750599999949,
          "velocity": 0.5275590551181102,
          "duration": 0.5543859843749885
        },
        {
          "name": "A4",
          "midi": 69,
          "time": 100.38442799999947,
          "velocity": 0.5354330708661418,
          "duration": 1.6631579531249798
        },
        {
          "name": "D4",
          "midi": 62,
          "time": 100.38442799999947,
          "velocity": 0.6614173228346457,
          "duration": 1.1087719687499913
        },
        {
          "name": "G4",
          "midi": 67,
          "time": 100.96134999999947,
          "velocity": 0.4645669291338583,
          "duration": 0.5543859843749885
        },
        {
          "name": "F4",
          "midi": 65,
          "time": 101.53827199999945,
          "velocity": 0.5275590551181102,
          "duration": 0.5543859843750027
        },
        {
          "name": "A4",
          "midi": 69,
          "time": 102.11519399999945,
          "velocity": 0.5590551181102362,
          "duration": 0.5543859843750027
        },
        {
          "name": "E4",
          "midi": 64,
          "time": 102.11519399999945,
          "velocity": 0.5118110236220472,
          "duration": 0.5543859843750027
        },
        {
          "name": "C4",
          "midi": 60,
          "time": 102.11519399999945,
          "velocity": 0.5039370078740157,
          "duration": 0.5543859843750027
        },
        {
          "name": "D5",
          "midi": 74,
          "time": 102.69211599999944,
          "velocity": 0.6141732283464567,
          "duration": 1.708229984374995
        },
        {
          "name": "A#3",
          "midi": 58,
          "time": 102.69211599999944,
          "velocity": 0.5433070866141733,
          "duration": 0.5543859843750027
        },
        {
          "name": "F4",
          "midi": 65,
          "time": 103.26903799999944,
          "velocity": 0.5039370078740157,
          "duration": 0.5543859843750027
        },
        {
          "name": "A3",
          "midi": 57,
          "time": 103.26903799999944,
          "velocity": 0.5354330708661418,
          "duration": 0.5543859843750027
        },
        {
          "name": "G4",
          "midi": 67,
          "time": 103.84595999999944,
          "velocity": 0.5905511811023622,
          "duration": 0.5543859843750027
        },
        {
          "name": "A#3",
          "midi": 58,
          "time": 103.84595999999944,
          "velocity": 0.5748031496062992,
          "duration": 0.5543859843750027
        },
        {
          "name": "E5",
          "midi": 76,
          "time": 104.42288199999943,
          "velocity": 0.6377952755905512,
          "duration": 0.5543859843750027
        },
        {
          "name": "A#4",
          "midi": 70,
          "time": 104.42288199999943,
          "velocity": 0.6377952755905512,
          "duration": 0.5543859843750027
        },
        {
          "name": "G3",
          "midi": 55,
          "time": 104.42288199999943,
          "velocity": 0.5590551181102362,
          "duration": 0.5543859843750027
        },
        {
          "name": "F5",
          "midi": 77,
          "time": 104.99980399999943,
          "velocity": 0.5905511811023622,
          "duration": 1.1087719687499913
        },
        {
          "name": "A4",
          "midi": 69,
          "time": 104.99980399999943,
          "velocity": 0.5118110236220472,
          "duration": 0.5543859843750027
        },
        {
          "name": "A3",
          "midi": 57,
          "time": 104.99980399999943,
          "velocity": 0.5905511811023622,
          "duration": 1.1087719687499913
        },
        {
          "name": "D5",
          "midi": 74,
          "time": 105.57672599999943,
          "velocity": 0.6220472440944882,
          "duration": 0.5543859843749885
        },
        {
          "name": "E5",
          "midi": 76,
          "time": 106.15364799999941,
          "velocity": 0.5196850393700787,
          "duration": 1.1087719687499913
        },
        {
          "name": "C#5",
          "midi": 73,
          "time": 106.15364799999941,
          "velocity": 0.5354330708661418,
          "duration": 0.5543859843750027
        },
        {
          "name": "A2",
          "midi": 45,
          "time": 106.15364799999941,
          "velocity": 0.48031496062992124,
          "duration": 1.1087719687499913
        },
        {
          "name": "G4",
          "midi": 67,
          "time": 106.7305699999994,
          "velocity": 0.47244094488188976,
          "duration": 0.5543859843749885
        },
        {
          "name": "D5",
          "midi": 74,
          "time": 107.30749199999939,
          "velocity": 0.5118110236220472,
          "duration": 2.2175439374999826
        },
        {
          "name": "D3",
          "midi": 50,
          "time": 107.30749199999939,
          "velocity": 0.5826771653543307,
          "duration": 2.2175439374999826
        },
        {
          "name": "A#4",
          "midi": 70,
          "time": 107.88441399999938,
          "velocity": 0.49606299212598426,
          "duration": 0.5543859843750027
        },
        {
          "name": "A4",
          "midi": 69,
          "time": 108.46133599999938,
          "velocity": 0.5590551181102362,
          "duration": 0.5543859843750027
        },
        {
          "name": "G4",
          "midi": 67,
          "time": 109.03825799999937,
          "velocity": 0.5196850393700787,
          "duration": 0.5543859843749885
        },
        {
          "name": "F4",
          "midi": 65,
          "time": 109.61517999999936,
          "velocity": 0.5826771653543307,
          "duration": 0.5543859843750027
        },
        {
          "name": "D2",
          "midi": 38,
          "time": 109.61517999999936,
          "velocity": 0.47244094488188976,
          "duration": 1.1087719687499913
        },
        {
          "name": "E4",
          "midi": 64,
          "time": 110.19210199999935,
          "velocity": 0.5275590551181102,
          "duration": 0.5543859843749885
        },
        {
          "name": "A3",
          "midi": 57,
          "time": 110.76902399999933,
          "velocity": 0.5275590551181102,
          "duration": 1.1087719687499913
        },
        {
          "name": "D4",
          "midi": 62,
          "time": 110.76902399999933,
          "velocity": 0.5275590551181102,
          "duration": 1.1087719687499913
        },
        {
          "name": "F4",
          "midi": 65,
          "time": 110.76902399999933,
          "velocity": 0.5275590551181102,
          "duration": 1.1087719687499913
        },
        {
          "name": "D3",
          "midi": 50,
          "time": 110.76902399999933,
          "velocity": 0.5984251968503937,
          "duration": 0.5543859843750027
        },
        {
          "name": "C#3",
          "midi": 49,
          "time": 111.34594599999933,
          "velocity": 0.5590551181102362,
          "duration": 0.5543859843749885
        },
        {
          "name": "A3",
          "midi": 57,
          "time": 111.92286799999931,
          "velocity": 0.5354330708661418,
          "duration": 2.2175439374999826
        },
        {
          "name": "D4",
          "midi": 62,
          "time": 111.92286799999931,
          "velocity": 0.5354330708661418,
          "duration": 2.2175439374999826
        },
        {
          "name": "F4",
          "midi": 65,
          "time": 111.92286799999931,
          "velocity": 0.5354330708661418,
          "duration": 2.2175439374999826
        },
        {
          "name": "D3",
          "midi": 50,
          "time": 111.92286799999931,
          "velocity": 0.5511811023622047,
          "duration": 0.5543859843750027
        },
        {
          "name": "E3",
          "midi": 52,
          "time": 112.49978999999931,
          "velocity": 0.5748031496062992,
          "duration": 0.5543859843750027
        },
        {
          "name": "F3",
          "midi": 53,
          "time": 113.0767119999993,
          "velocity": 0.5826771653543307,
          "duration": 0.5543859843750027
        },
        {
          "name": "G3",
          "midi": 55,
          "time": 113.6536339999993,
          "velocity": 0.6141732283464567,
          "duration": 0.5543859843749885
        },
        {
          "name": "C#4",
          "midi": 61,
          "time": 114.23055599999928,
          "velocity": 0.5748031496062992,
          "duration": 1.1087719687499913
        },
        {
          "name": "E4",
          "midi": 64,
          "time": 114.23055599999928,
          "velocity": 0.5748031496062992,
          "duration": 1.1087719687499913
        },
        {
          "name": "A3",
          "midi": 57,
          "time": 114.23055599999928,
          "velocity": 0.5511811023622047,
          "duration": 0.5543859843750027
        },
        {
          "name": "G3",
          "midi": 55,
          "time": 114.80747799999928,
          "velocity": 0.5590551181102362,
          "duration": 0.5543859843749885
        },
        {
          "name": "C#4",
          "midi": 61,
          "time": 115.38439999999926,
          "velocity": 0.5433070866141733,
          "duration": 2.2175439374999826
        },
        {
          "name": "E4",
          "midi": 64,
          "time": 115.38439999999926,
          "velocity": 0.5433070866141733,
          "duration": 2.2175439374999826
        },
        {
          "name": "A3",
          "midi": 57,
          "time": 115.38439999999926,
          "velocity": 0.5669291338582677,
          "duration": 0.5543859843750027
        },
        {
          "name": "E3",
          "midi": 52,
          "time": 115.96132199999926,
          "velocity": 0.5433070866141733,
          "duration": 0.5543859843750027
        },
        {
          "name": "C#3",
          "midi": 49,
          "time": 116.53824399999925,
          "velocity": 0.5511811023622047,
          "duration": 0.5543859843750027
        },
        {
          "name": "A2",
          "midi": 45,
          "time": 117.11516599999925,
          "velocity": 0.5196850393700787,
          "duration": 0.5543859843749885
        },
        {
          "name": "C4",
          "midi": 60,
          "time": 117.69208799999923,
          "velocity": 0.5905511811023622,
          "duration": 1.1087719687499913
        },
        {
          "name": "A4",
          "midi": 69,
          "time": 117.69208799999923,
          "velocity": 0.5905511811023622,
          "duration": 1.1087719687499913
        },
        {
          "name": "F3",
          "midi": 53,
          "time": 117.69208799999923,
          "velocity": 0.6220472440944882,
          "duration": 0.5543859843750027
        },
        {
          "name": "E3",
          "midi": 52,
          "time": 118.26900999999923,
          "velocity": 0.5433070866141733,
          "duration": 0.5543859843749885
        },
        {
          "name": "C4",
          "midi": 60,
          "time": 118.84593199999921,
          "velocity": 0.5669291338582677,
          "duration": 2.2175439374999826
        },
        {
          "name": "A4",
          "midi": 69,
          "time": 118.84593199999921,
          "velocity": 0.5669291338582677,
          "duration": 2.2175439374999826
        },
        {
          "name": "F3",
          "midi": 53,
          "time": 118.84593199999921,
          "velocity": 0.5748031496062992,
          "duration": 0.5543859843750027
        },
        {
          "name": "G3",
          "midi": 55,
          "time": 119.4228539999992,
          "velocity": 0.5826771653543307,
          "duration": 0.5543859843750027
        },
        {
          "name": "A3",
          "midi": 57,
          "time": 119.9997759999992,
          "velocity": 0.6062992125984252,
          "duration": 0.5543859843750027
        },
        {
          "name": "A#3",
          "midi": 58,
          "time": 120.5766979999992,
          "velocity": 0.5669291338582677,
          "duration": 0.5543859843749885
        },
        {
          "name": "E4",
          "midi": 64,
          "time": 121.15361999999918,
          "velocity": 0.5118110236220472,
          "duration": 1.1087719687499913
        },
        {
          "name": "G4",
          "midi": 67,
          "time": 121.15361999999918,
          "velocity": 0.5118110236220472,
          "duration": 1.1087719687499913
        },
        {
          "name": "C4",
          "midi": 60,
          "time": 121.15361999999918,
          "velocity": 0.5905511811023622,
          "duration": 0.5543859843750027
        },
        {
          "name": "G3",
          "midi": 55,
          "time": 121.73054199999918,
          "velocity": 0.5354330708661418,
          "duration": 0.5543859843749885
        },
        {
          "name": "E4",
          "midi": 64,
          "time": 122.30746399999916,
          "velocity": 0.5590551181102362,
          "duration": 2.2175439374999826
        },
        {
          "name": "G4",
          "midi": 67,
          "time": 122.30746399999916,
          "velocity": 0.5590551181102362,
          "duration": 2.2175439374999826
        },
        {
          "name": "E3",
          "midi": 52,
          "time": 122.30746399999916,
          "velocity": 0.5433070866141733,
          "duration": 0.5543859843750027
        },
        {
          "name": "G3",
          "midi": 55,
          "time": 122.88438599999915,
          "velocity": 0.5590551181102362,
          "duration": 0.5543859843750027
        },
        {
          "name": "C3",
          "midi": 48,
          "time": 123.46130799999915,
          "velocity": 0.5118110236220472,
          "duration": 0.5543859843750027
        },
        {
          "name": "E3",
          "midi": 52,
          "time": 124.03822999999915,
          "velocity": 0.5984251968503937,
          "duration": 0.5543859843749885
        },
        {
          "name": "D4",
          "midi": 62,
          "time": 124.61515199999913,
          "velocity": 0.5905511811023622,
          "duration": 1.1087719687499913
        },
        {
          "name": "A#4",
          "midi": 70,
          "time": 124.61515199999913,
          "velocity": 0.5905511811023622,
          "duration": 1.1087719687499913
        },
        {
          "name": "G3",
          "midi": 55,
          "time": 124.61515199999913,
          "velocity": 0.5748031496062992,
          "duration": 0.5543859843750027
        },
        {
          "name": "F3",
          "midi": 53,
          "time": 125.19207399999912,
          "velocity": 0.5433070866141733,
          "duration": 0.5543859843749885
        },
        {
          "name": "G4",
          "midi": 67,
          "time": 125.7689959999991,
          "velocity": 0.5590551181102362,
          "duration": 2.2175439374999826
        },
        {
          "name": "A#4",
          "midi": 70,
          "time": 125.7689959999991,
          "velocity": 0.5590551181102362,
          "duration": 2.2175439374999826
        },
        {
          "name": "G3",
          "midi": 55,
          "time": 125.7689959999991,
          "velocity": 0.5590551181102362,
          "duration": 0.5543859843750027
        },
        {
          "name": "A3",
          "midi": 57,
          "time": 126.3459179999991,
          "velocity": 0.5826771653543307,
          "duration": 0.5543859843750027
        },
        {
          "name": "A#3",
          "midi": 58,
          "time": 126.9228399999991,
          "velocity": 0.5748031496062992,
          "duration": 0.5543859843750027
        },
        {
          "name": "C4",
          "midi": 60,
          "time": 127.4997619999991,
          "velocity": 0.5669291338582677,
          "duration": 0.5543859843749885
        },
        {
          "name": "F4",
          "midi": 65,
          "time": 128.0766839999991,
          "velocity": 0.5590551181102362,
          "duration": 1.1087719687500055
        },
        {
          "name": "A4",
          "midi": 69,
          "time": 128.0766839999991,
          "velocity": 0.5590551181102362,
          "duration": 1.1087719687500055
        },
        {
          "name": "D4",
          "midi": 62,
          "time": 128.0766839999991,
          "velocity": 0.6220472440944882,
          "duration": 0.5543859843749885
        },
        {
          "name": "A3",
          "midi": 57,
          "time": 128.6536059999991,
          "velocity": 0.5433070866141733,
          "duration": 0.554385984375017
        },
        {
          "name": "F4",
          "midi": 65,
          "time": 129.2305279999991,
          "velocity": 0.5748031496062992,
          "duration": 2.2175439374999826
        },
        {
          "name": "A4",
          "midi": 69,
          "time": 129.2305279999991,
          "velocity": 0.5748031496062992,
          "duration": 2.2175439374999826
        },
        {
          "name": "F3",
          "midi": 53,
          "time": 129.2305279999991,
          "velocity": 0.5196850393700787,
          "duration": 0.5543859843749885
        },
        {
          "name": "A3",
          "midi": 57,
          "time": 129.8074499999991,
          "velocity": 0.5826771653543307,
          "duration": 0.5543859843749885
        },
        {
          "name": "D3",
          "midi": 50,
          "time": 130.3843719999991,
          "velocity": 0.5196850393700787,
          "duration": 0.5543859843749885
        },
        {
          "name": "F3",
          "midi": 53,
          "time": 130.9612939999991,
          "velocity": 0.5590551181102362,
          "duration": 0.5543859843749885
        },
        {
          "name": "D5",
          "midi": 74,
          "time": 131.5382159999991,
          "velocity": 0.6456692913385826,
          "duration": 1.1087719687500055
        },
        {
          "name": "A4",
          "midi": 69,
          "time": 131.5382159999991,
          "velocity": 0.6220472440944882,
          "duration": 1.1087719687500055
        },
        {
          "name": "A#2",
          "midi": 46,
          "time": 131.5382159999991,
          "velocity": 0.5039370078740157,
          "duration": 0.5543859843749885
        },
        {
          "name": "F3",
          "midi": 53,
          "time": 132.1151379999991,
          "velocity": 0.5748031496062992,
          "duration": 0.554385984375017
        },
        {
          "name": "E5",
          "midi": 76,
          "time": 132.69205999999912,
          "velocity": 0.6220472440944882,
          "duration": 1.663157953124994
        },
        {
          "name": "G4",
          "midi": 67,
          "time": 132.69205999999912,
          "velocity": 0.5511811023622047,
          "duration": 2.2175439374999826
        },
        {
          "name": "A#3",
          "midi": 58,
          "time": 132.69205999999912,
          "velocity": 0.6062992125984252,
          "duration": 0.5543859843749885
        },
        {
          "name": "A3",
          "midi": 57,
          "time": 133.2689819999991,
          "velocity": 0.5275590551181102,
          "duration": 0.5543859843749885
        },
        {
          "name": "G3",
          "midi": 55,
          "time": 133.8459039999991,
          "velocity": 0.5354330708661418,
          "duration": 0.5543859843749885
        },
        {
          "name": "D5",
          "midi": 74,
          "time": 134.4228259999991,
          "velocity": 0.5511811023622047,
          "duration": 0.5543859843749885
        },
        {
          "name": "A#3",
          "midi": 58,
          "time": 134.4228259999991,
          "velocity": 0.5748031496062992,
          "duration": 0.5543859843749885
        },
        {
          "name": "E4",
          "midi": 64,
          "time": 134.9997479999991,
          "velocity": 0.5354330708661418,
          "duration": 3.3240623046875157
        },
        {
          "name": "A4",
          "midi": 69,
          "time": 134.9997479999991,
          "velocity": 0.5354330708661418,
          "duration": 3.3240623046875157
        },
        {
          "name": "C#5",
          "midi": 73,
          "time": 134.9997479999991,
          "velocity": 0.5354330708661418,
          "duration": 3.3240623046875157
        },
        {
          "name": "A3",
          "midi": 57,
          "time": 134.9997479999991,
          "velocity": 0.5275590551181102,
          "duration": 0.5543859843749885
        },
        {
          "name": "A#3",
          "midi": 58,
          "time": 135.5766699999991,
          "velocity": 0.5433070866141733,
          "duration": 0.5543859843749885
        },
        {
          "name": "A3",
          "midi": 57,
          "time": 136.1535919999991,
          "velocity": 0.5590551181102362,
          "duration": 0.5543859843749885
        },
        {
          "name": "A2",
          "midi": 45,
          "time": 136.1535919999991,
          "velocity": 0.5275590551181102,
          "duration": 1.1087719687500055
        },
        {
          "name": "G3",
          "midi": 55,
          "time": 136.7305139999991,
          "velocity": 0.5511811023622047,
          "duration": 0.554385984375017
        },
        {
          "name": "F3",
          "midi": 53,
          "time": 137.30743599999911,
          "velocity": 0.5433070866141733,
          "duration": 0.5543859843749885
        },
        {
          "name": "E3",
          "midi": 52,
          "time": 137.8843579999991,
          "velocity": 0.5275590551181102,
          "duration": 0.554385984375017
        },
        {
          "name": "A3",
          "midi": 57,
          "time": 138.46127999999914,
          "velocity": 0.4566929133858268,
          "duration": 1.1087719687500055
        },
        {
          "name": "D4",
          "midi": 62,
          "time": 138.46127999999914,
          "velocity": 0.4566929133858268,
          "duration": 1.1087719687500055
        },
        {
          "name": "F4",
          "midi": 65,
          "time": 138.46127999999914,
          "velocity": 0.4566929133858268,
          "duration": 1.1087719687500055
        },
        {
          "name": "D3",
          "midi": 50,
          "time": 138.46127999999914,
          "velocity": 0.5433070866141733,
          "duration": 0.5543859843749885
        },
        {
          "name": "A2",
          "midi": 45,
          "time": 139.03820199999913,
          "velocity": 0.5118110236220472,
          "duration": 0.554385984375017
        },
        {
          "name": "A3",
          "midi": 57,
          "time": 139.61512399999916,
          "velocity": 0.5590551181102362,
          "duration": 2.2175439374999826
        },
        {
          "name": "D4",
          "midi": 62,
          "time": 139.61512399999916,
          "velocity": 0.5590551181102362,
          "duration": 2.2175439374999826
        },
        {
          "name": "F4",
          "midi": 65,
          "time": 139.61512399999916,
          "velocity": 0.5590551181102362,
          "duration": 2.2175439374999826
        },
        {
          "name": "F2",
          "midi": 41,
          "time": 139.61512399999916,
          "velocity": 0.4881889763779528,
          "duration": 0.5543859843749885
        },
        {
          "name": "A2",
          "midi": 45,
          "time": 140.19204599999915,
          "velocity": 0.6220472440944882,
          "duration": 0.5543859843749885
        },
        {
          "name": "D2",
          "midi": 38,
          "time": 140.76896799999915,
          "velocity": 0.49606299212598426,
          "duration": 0.5543859843749885
        },
        {
          "name": "F2",
          "midi": 41,
          "time": 141.34588999999914,
          "velocity": 0.5511811023622047,
          "duration": 0.5543859843749885
        },
        {
          "name": "C#4",
          "midi": 61,
          "time": 141.92281199999914,
          "velocity": 0.5275590551181102,
          "duration": 1.1087719687500055
        },
        {
          "name": "E4",
          "midi": 64,
          "time": 141.92281199999914,
          "velocity": 0.5275590551181102,
          "duration": 1.1087719687500055
        },
        {
          "name": "A2",
          "midi": 45,
          "time": 141.92281199999914,
          "velocity": 0.5905511811023622,
          "duration": 0.5543859843749885
        },
        {
          "name": "E3",
          "midi": 52,
          "time": 142.49973399999914,
          "velocity": 0.6220472440944882,
          "duration": 0.554385984375017
        },
        {
          "name": "C#4",
          "midi": 61,
          "time": 143.07665599999916,
          "velocity": 0.5118110236220472,
          "duration": 2.2175439374999826
        },
        {
          "name": "E4",
          "midi": 64,
          "time": 143.07665599999916,
          "velocity": 0.5118110236220472,
          "duration": 2.2175439374999826
        },
        {
          "name": "A3",
          "midi": 57,
          "time": 143.07665599999916,
          "velocity": 0.6299212598425197,
          "duration": 0.5543859843749885
        },
        {
          "name": "G3",
          "midi": 55,
          "time": 143.65357799999916,
          "velocity": 0.5118110236220472,
          "duration": 0.5543859843749885
        },
        {
          "name": "F3",
          "midi": 53,
          "time": 144.23049999999915,
          "velocity": 0.5275590551181102,
          "duration": 0.5543859843749885
        },
        {
          "name": "E3",
          "midi": 52,
          "time": 144.80742199999915,
          "velocity": 0.5275590551181102,
          "duration": 0.5543859843749885
        },
        {
          "name": "F4",
          "midi": 65,
          "time": 145.38434399999915,
          "velocity": 0.6456692913385826,
          "duration": 1.1087719687500055
        },
        {
          "name": "A4",
          "midi": 69,
          "time": 145.38434399999915,
          "velocity": 0.6456692913385826,
          "duration": 1.1087719687500055
        },
        {
          "name": "F3",
          "midi": 53,
          "time": 145.38434399999915,
          "velocity": 0.5669291338582677,
          "duration": 0.5543859843749885
        },
        {
          "name": "C3",
          "midi": 48,
          "time": 145.96126599999914,
          "velocity": 0.5511811023622047,
          "duration": 0.554385984375017
        },
        {
          "name": "F4",
          "midi": 65,
          "time": 146.53818799999917,
          "velocity": 0.5433070866141733,
          "duration": 2.2175439374999826
        },
        {
          "name": "A4",
          "midi": 69,
          "time": 146.53818799999917,
          "velocity": 0.5433070866141733,
          "duration": 2.2175439374999826
        },
        {
          "name": "A2",
          "midi": 45,
          "time": 146.53818799999917,
          "velocity": 0.5590551181102362,
          "duration": 0.5543859843749885
        },
        {
          "name": "C3",
          "midi": 48,
          "time": 147.11510999999916,
          "velocity": 0.6141732283464567,
          "duration": 0.5543859843749885
        },
        {
          "name": "F2",
          "midi": 41,
          "time": 147.69203199999916,
          "velocity": 0.5433070866141733,
          "duration": 0.5543859843749885
        },
        {
          "name": "A2",
          "midi": 45,
          "time": 148.26895399999916,
          "velocity": 0.6220472440944882,
          "duration": 0.5543859843749885
        },
        {
          "name": "E4",
          "midi": 64,
          "time": 148.84587599999915,
          "velocity": 0.5196850393700787,
          "duration": 1.1087719687500055
        },
        {
          "name": "G4",
          "midi": 67,
          "time": 148.84587599999915,
          "velocity": 0.5196850393700787,
          "duration": 1.1087719687500055
        },
        {
          "name": "C3",
          "midi": 48,
          "time": 148.84587599999915,
          "velocity": 0.5748031496062992,
          "duration": 0.5543859843749885
        },
        {
          "name": "A#2",
          "midi": 46,
          "time": 149.42279799999915,
          "velocity": 0.5354330708661418,
          "duration": 0.554385984375017
        },
        {
          "name": "E4",
          "midi": 64,
          "time": 149.99971999999917,
          "velocity": 0.5590551181102362,
          "duration": 2.2175439374999826
        },
        {
          "name": "G4",
          "midi": 67,
          "time": 149.99971999999917,
          "velocity": 0.5590551181102362,
          "duration": 2.2175439374999826
        },
        {
          "name": "C3",
          "midi": 48,
          "time": 149.99971999999917,
          "velocity": 0.5826771653543307,
          "duration": 0.5543859843749885
        },
        {
          "name": "D3",
          "midi": 50,
          "time": 150.57664199999917,
          "velocity": 0.5669291338582677,
          "duration": 0.5543859843749885
        },
        {
          "name": "E3",
          "midi": 52,
          "time": 151.15356399999916,
          "velocity": 0.5669291338582677,
          "duration": 0.5543859843749885
        },
        {
          "name": "F3",
          "midi": 53,
          "time": 151.73048599999916,
          "velocity": 0.5669291338582677,
          "duration": 0.5543859843749885
        },
        {
          "name": "D4",
          "midi": 62,
          "time": 152.30740799999916,
          "velocity": 0.6062992125984252,
          "duration": 1.1087719687500055
        },
        {
          "name": "A#4",
          "midi": 70,
          "time": 152.30740799999916,
          "velocity": 0.6062992125984252,
          "duration": 1.1087719687500055
        },
        {
          "name": "G3",
          "midi": 55,
          "time": 152.30740799999916,
          "velocity": 0.5669291338582677,
          "duration": 0.5543859843749885
        },
        {
          "name": "D3",
          "midi": 50,
          "time": 152.88432999999915,
          "velocity": 0.5039370078740157,
          "duration": 0.554385984375017
        },
        {
          "name": "G4",
          "midi": 67,
          "time": 153.46125199999918,
          "velocity": 0.5590551181102362,
          "duration": 2.2175439374999826
        },
        {
          "name": "A#4",
          "midi": 70,
          "time": 153.46125199999918,
          "velocity": 0.5590551181102362,
          "duration": 2.2175439374999826
        },
        {
          "name": "A#2",
          "midi": 46,
          "time": 153.46125199999918,
          "velocity": 0.5275590551181102,
          "duration": 0.5543859843749885
        },
        {
          "name": "D3",
          "midi": 50,
          "time": 154.03817399999917,
          "velocity": 0.5905511811023622,
          "duration": 0.5543859843749885
        },
        {
          "name": "G2",
          "midi": 43,
          "time": 154.61509599999917,
          "velocity": 0.5196850393700787,
          "duration": 0.5543859843749885
        },
        {
          "name": "A#2",
          "midi": 46,
          "time": 155.19201799999917,
          "velocity": 0.5590551181102362,
          "duration": 0.5543859843749885
        },
        {
          "name": "A4",
          "midi": 69,
          "time": 155.76893999999916,
          "velocity": 0.5275590551181102,
          "duration": 1.663157953124994
        },
        {
          "name": "F4",
          "midi": 65,
          "time": 155.76893999999916,
          "velocity": 0.5354330708661418,
          "duration": 2.2175439374999826
        },
        {
          "name": "D3",
          "midi": 50,
          "time": 155.76893999999916,
          "velocity": 0.5984251968503937,
          "duration": 0.5543859843749885
        },
        {
          "name": "E3",
          "midi": 52,
          "time": 156.34586199999916,
          "velocity": 0.5511811023622047,
          "duration": 0.5543859843749885
        },
        {
          "name": "D3",
          "midi": 50,
          "time": 156.92278399999915,
          "velocity": 0.5354330708661418,
          "duration": 0.5543859843749885
        },
        {
          "name": "A4",
          "midi": 69,
          "time": 157.49970599999915,
          "velocity": 0.5669291338582677,
          "duration": 0.5543859843749885
        },
        {
          "name": "C3",
          "midi": 48,
          "time": 157.49970599999915,
          "velocity": 0.5354330708661418,
          "duration": 0.5543859843749885
        },
        {
          "name": "D5",
          "midi": 74,
          "time": 158.07662799999915,
          "velocity": 0.6535433070866141,
          "duration": 0.5543859843749885
        },
        {
          "name": "G4",
          "midi": 67,
          "time": 158.07662799999915,
          "velocity": 0.5590551181102362,
          "duration": 1.1087719687500055
        },
        {
          "name": "A#2",
          "midi": 46,
          "time": 158.07662799999915,
          "velocity": 0.5354330708661418,
          "duration": 0.5543859843749885
        },
        {
          "name": "C#5",
          "midi": 73,
          "time": 158.65354999999914,
          "velocity": 0.5118110236220472,
          "duration": 0.554385984375017
        },
        {
          "name": "A2",
          "midi": 45,
          "time": 158.65354999999914,
          "velocity": 0.5984251968503937,
          "duration": 0.554385984375017
        },
        {
          "name": "D5",
          "midi": 74,
          "time": 159.23047199999917,
          "velocity": 0.5590551181102362,
          "duration": 0.5543859843749885
        },
        {
          "name": "A#2",
          "midi": 46,
          "time": 159.23047199999917,
          "velocity": 0.6062992125984252,
          "duration": 0.5543859843749885
        },
        {
          "name": "E5",
          "midi": 76,
          "time": 159.80739399999916,
          "velocity": 0.6141732283464567,
          "duration": 0.5543859843749885
        },
        {
          "name": "G2",
          "midi": 43,
          "time": 159.80739399999916,
          "velocity": 0.5590551181102362,
          "duration": 0.5543859843749885
        },
        {
          "name": "F5",
          "midi": 77,
          "time": 160.38431599999916,
          "velocity": 0.5669291338582677,
          "duration": 1.1087719687500055
        },
        {
          "name": "A4",
          "midi": 69,
          "time": 160.38431599999916,
          "velocity": 0.5433070866141733,
          "duration": 0.5543859843749885
        },
        {
          "name": "A3",
          "midi": 57,
          "time": 160.38431599999916,
          "velocity": 0.6614173228346457,
          "duration": 0.5543859843749885
        },
        {
          "name": "D5",
          "midi": 74,
          "time": 160.96123799999916,
          "velocity": 0.6220472440944882,
          "duration": 0.554385984375017
        },
        {
          "name": "G3",
          "midi": 55,
          "time": 160.96123799999916,
          "velocity": 0.5748031496062992,
          "duration": 0.554385984375017
        },
        {
          "name": "E5",
          "midi": 76,
          "time": 161.53815999999918,
          "velocity": 0.5826771653543307,
          "duration": 1.1087719687500055
        },
        {
          "name": "C#5",
          "midi": 73,
          "time": 161.53815999999918,
          "velocity": 0.5511811023622047,
          "duration": 0.5543859843749885
        },
        {
          "name": "A3",
          "midi": 57,
          "time": 161.53815999999918,
          "velocity": 0.6062992125984252,
          "duration": 0.5543859843749885
        },
        {
          "name": "A4",
          "midi": 69,
          "time": 162.11508199999918,
          "velocity": 0.49606299212598426,
          "duration": 0.554385984375017
        },
        {
          "name": "A2",
          "midi": 45,
          "time": 162.11508199999918,
          "velocity": 0.4645669291338583,
          "duration": 0.554385984375017
        },
        {
          "name": "F4",
          "midi": 65,
          "time": 162.6920039999992,
          "velocity": 0.5039370078740157,
          "duration": 2.2175439374999826
        },
        {
          "name": "A4",
          "midi": 69,
          "time": 162.6920039999992,
          "velocity": 0.5039370078740157,
          "duration": 2.2175439374999826
        },
        {
          "name": "D5",
          "midi": 74,
          "time": 162.6920039999992,
          "velocity": 0.5039370078740157,
          "duration": 2.2175439374999826
        },
        {
          "name": "D4",
          "midi": 62,
          "time": 162.6920039999992,
          "velocity": 0.6692913385826772,
          "duration": 0.5543859843749885
        },
        {
          "name": "A3",
          "midi": 57,
          "time": 163.2689259999992,
          "velocity": 0.5039370078740157,
          "duration": 0.5543859843749885
        },
        {
          "name": "F3",
          "midi": 53,
          "time": 163.8458479999992,
          "velocity": 0.5275590551181102,
          "duration": 0.5543859843749885
        },
        {
          "name": "A3",
          "midi": 57,
          "time": 164.4227699999992,
          "velocity": 0.5984251968503937,
          "duration": 0.5543859843749885
        },
        {
          "name": "D3",
          "midi": 50,
          "time": 164.9996919999992,
          "velocity": 0.49606299212598426,
          "duration": 1.1087719687500055
        }
      ],
      "controlChanges": {
        "7": [
          {
            "number": 7,
            "time": 0,
            "value": 0.7480314960629921
          },
          {
            "number": 7,
            "time": 0,
            "value": 0.7480314960629921
          }
        ],
        "10": [
          {
            "number": 10,
            "time": 0,
            "value": 0.4015748031496063
          },
          {
            "number": 10,
            "time": 0,
            "value": 0.4015748031496063
          }
        ],
        "64": [
          {
            "number": 64,
            "time": 0,
            "value": 0
          },
          {
            "number": 64,
            "time": 0,
            "value": 0
          }
        ],
        "121": [
          {
            "number": 121,
            "time": 0,
            "value": 0
          },
          {
            "number": 121,
            "time": 0,
            "value": 0
          }
        ]
      },
      "id": 1,
      "name": "Piano",
      "instrumentNumber": 0,
      "instrument": "acoustic grand piano",
      "instrumentFamily": "piano",
      "channelNumber": 0,
      "isPercussion": false
    }
  ]
}